<?xml version="1.0" encoding="UTF-8" standalone="no"?>
<!DOCTYPE svg PUBLIC "-//W3C//DTD SVG 1.1//EN" "http://www.w3.org/Graphics/SVG/1.1/DTD/svg11.dtd">
<svg width="100%" height="100%" viewBox="0 0 250 101" version="1.1" xmlns="http://www.w3.org/2000/svg" xmlns:xlink="http://www.w3.org/1999/xlink" xml:space="preserve" xmlns:serif="http://www.serif.com/" style="fill-rule:evenodd;clip-rule:evenodd;stroke-linecap:round;stroke-linejoin:round;stroke-miterlimit:1.5;">
    <g transform="matrix(1,0,0,1,-2400.68,-2564.58)">
        <g id="gasgiant_waves_3" transform="matrix(2.49977,0,0,1,-1349.38,252.103)">
            <rect x="1500.16" y="2312.48" width="100.009" height="100.009" style="fill:none;"/>
            <clipPath id="_clip1">
                <rect x="1500.16" y="2312.48" width="100.009" height="100.009"/>
            </clipPath>
            <g clip-path="url(#_clip1)">
                <g transform="matrix(1.28056,0,0,1,-852.145,48.7725)">
                    <path d="M1836.94,2340.8C1847.23,2340.5 1860.07,2337.51 1873.19,2340.99C1890.15,2345.5 1902.39,2340.95 1915.04,2340.8" style="fill:none;stroke:white;stroke-width:4.1px;"/>
                </g>
                <g transform="matrix(1.28056,0,0,1,-852.145,63.6628)">
                    <path d="M1836.94,2340.8C1847.23,2340.5 1860.07,2337.51 1873.19,2340.99C1890.15,2345.5 1900.13,2341.25 1915.04,2340.8" style="fill:none;stroke:white;stroke-width:3.74px;"/>
                </g>
                <g transform="matrix(1.28056,0,0,1,-852.145,20.3758)">
                    <path d="M1836.94,2340.8C1846.29,2340.8 1860.07,2337.51 1873.19,2340.99C1890.15,2345.5 1899.56,2340.95 1915.04,2340.8" style="fill:none;stroke:white;stroke-width:6.2px;"/>
                </g>
            </g>
        </g>
        <g id="Layer3">
        </g>
    </g>
</svg>
