<?xml version="1.0" encoding="UTF-8" standalone="no"?>
<!DOCTYPE svg PUBLIC "-//W3C//DTD SVG 1.1//EN" "http://www.w3.org/Graphics/SVG/1.1/DTD/svg11.dtd">
<svg width="100%" height="100%" viewBox="0 0 250 101" version="1.1" xmlns="http://www.w3.org/2000/svg" xmlns:xlink="http://www.w3.org/1999/xlink" xml:space="preserve" xmlns:serif="http://www.serif.com/" style="fill-rule:evenodd;clip-rule:evenodd;stroke-linecap:round;stroke-linejoin:round;stroke-miterlimit:1.5;">
    <g transform="matrix(1,0,0,1,-2108.59,-2312)">
        <g id="gasgiant_stripes_1" transform="matrix(2.49977,0,0,1,-1641.47,-0.47803)">
            <rect x="1500.16" y="2312.48" width="100.009" height="100.009" style="fill:none;"/>
            <clipPath id="_clip1">
                <rect x="1500.16" y="2312.48" width="100.009" height="100.009"/>
            </clipPath>
            <g clip-path="url(#_clip1)">
                <g transform="matrix(1.44562,0,0,1,-1160.49,8.99343)">
                    <path d="M1836.94,2340.8L1915.04,2340.8" style="fill:none;stroke:white;stroke-width:3.67px;"/>
                </g>
                <g transform="matrix(1.44562,0,0,1,-1160.49,21.6794)">
                    <path d="M1836.94,2340.8L1915.04,2340.8" style="fill:none;stroke:white;stroke-width:3.67px;"/>
                </g>
                <g transform="matrix(1.44562,0,0,1,-1160.49,40.1932)">
                    <path d="M1836.94,2340.8L1915.04,2340.8" style="fill:none;stroke:white;stroke-width:6.86px;"/>
                </g>
                <g transform="matrix(1.44562,0,0,1,-1160.49,-7.21112)">
                    <path d="M1836.94,2340.8L1915.04,2340.8" style="fill:none;stroke:white;stroke-width:3.51px;"/>
                </g>
            </g>
        </g>
        <g id="Layer3">
        </g>
    </g>
</svg>
