<?xml version="1.0" encoding="UTF-8" standalone="no"?>
<!DOCTYPE svg PUBLIC "-//W3C//DTD SVG 1.1//EN" "http://www.w3.org/Graphics/SVG/1.1/DTD/svg11.dtd">
<svg width="100%" height="100%" viewBox="0 0 250 101" version="1.1" xmlns="http://www.w3.org/2000/svg" xmlns:xlink="http://www.w3.org/1999/xlink" xml:space="preserve" xmlns:serif="http://www.serif.com/" style="fill-rule:evenodd;clip-rule:evenodd;stroke-linecap:round;stroke-linejoin:round;stroke-miterlimit:1.5;">
    <g transform="matrix(1,0,0,1,-1807.45,-2312)">
        <g id="gasgiant_clouds_1" transform="matrix(2.49977,0,0,1,-1942.61,-0.47803)">
            <rect x="1500.16" y="2312.48" width="100.009" height="100.009" style="fill:none;"/>
            <clipPath id="_clip1">
                <rect x="1500.16" y="2312.48" width="100.009" height="100.009"/>
            </clipPath>
            <g clip-path="url(#_clip1)">
                <g transform="matrix(0.400037,0,0,1,772.152,-7.55077)">
                    <path d="M1853,2340.8L1949.83,2340.8" style="fill:none;stroke:white;stroke-width:12.95px;"/>
                </g>
                <g transform="matrix(1.44562,0,0,1,-1160.49,8.99343)">
                    <path d="M1836.94,2340.8L1915.04,2340.8" style="fill:none;stroke:white;stroke-width:3.67px;"/>
                </g>
                <g transform="matrix(0.400037,0,0,1,826.071,32.1066)">
                    <path d="M1836.94,2340.8L1915.04,2340.8" style="fill:none;stroke:white;stroke-width:11.21px;"/>
                </g>
                <g transform="matrix(0.341465,0,0,1,882.949,49.8774)">
                    <path d="M1828.11,2340.8L1915.04,2340.8" style="fill:none;stroke:white;stroke-width:25.21px;"/>
                </g>
                <g transform="matrix(0.223445,0,0,0.558561,1132.41,934.798)">
                    <circle cx="2020.79" cy="2587.28" r="11.982" style="fill:white;"/>
                    <path d="M2020.79,2571.14C2011.88,2571.14 2004.64,2578.37 2004.64,2587.28C2004.64,2596.2 2011.88,2603.43 2020.79,2603.43C2029.7,2603.43 2036.94,2596.2 2036.94,2587.28C2036.94,2578.37 2029.7,2571.14 2020.79,2571.14ZM2020.79,2575.3C2027.4,2575.3 2032.77,2580.67 2032.77,2587.28C2032.77,2593.9 2027.4,2599.27 2020.79,2599.27C2014.18,2599.27 2008.81,2593.9 2008.81,2587.28C2008.81,2580.67 2014.18,2575.3 2020.79,2575.3Z" style="fill:rgb(224,224,224);"/>
                </g>
            </g>
        </g>
        <g id="Layer3">
        </g>
    </g>
</svg>
