<?xml version="1.0" encoding="UTF-8" standalone="no"?>
<!DOCTYPE svg PUBLIC "-//W3C//DTD SVG 1.1//EN" "http://www.w3.org/Graphics/SVG/1.1/DTD/svg11.dtd">
<svg width="100%" height="100%" viewBox="0 0 250 101" version="1.1" xmlns="http://www.w3.org/2000/svg" xmlns:xlink="http://www.w3.org/1999/xlink" xml:space="preserve" xmlns:serif="http://www.serif.com/" style="fill-rule:evenodd;clip-rule:evenodd;stroke-linecap:round;stroke-linejoin:round;stroke-miterlimit:1.5;">
    <g transform="matrix(1,0,0,1,-2400.68,-2312)">
        <g id="gasgiant_waves_1" transform="matrix(2.49977,0,0,1,-1349.38,-0.47803)">
            <rect x="1500.16" y="2312.48" width="100.009" height="100.009" style="fill:none;"/>
            <clipPath id="_clip1">
                <rect x="1500.16" y="2312.48" width="100.009" height="100.009"/>
            </clipPath>
            <g clip-path="url(#_clip1)">
                <g transform="matrix(1.28056,0,0,1,-852.145,-12.3419)">
                    <path d="M1836.94,2340.8C1844.26,2341.05 1863.3,2333.47 1883.56,2340.91C1894.34,2344.87 1907.56,2340.64 1915.04,2340.8" style="fill:none;stroke:white;stroke-width:5.46px;"/>
                </g>
                <g transform="matrix(1.28056,0,0,1,-852.145,62.1346)">
                    <path d="M1836.94,2340.8C1845.53,2340.77 1856.05,2332.39 1873.17,2338.86C1887.36,2344.21 1906.13,2340.65 1915.04,2340.8" style="fill:none;stroke:white;stroke-width:4.36px;"/>
                </g>
                <g transform="matrix(1.28056,0,0,1,-852.145,46.1385)">
                    <path d="M1836.94,2340.8C1845.43,2340.77 1856.05,2332.39 1873.17,2338.86C1887.36,2344.21 1905.09,2340.65 1915.04,2340.8" style="fill:none;stroke:white;stroke-width:4.36px;"/>
                </g>
            </g>
        </g>
        <g id="Layer3">
        </g>
    </g>
</svg>
