<?xml version="1.0" encoding="UTF-8" standalone="no"?>
<!DOCTYPE svg PUBLIC "-//W3C//DTD SVG 1.1//EN" "http://www.w3.org/Graphics/SVG/1.1/DTD/svg11.dtd">
<svg width="100%" height="100%" viewBox="0 0 100 100" version="1.1" xmlns="http://www.w3.org/2000/svg" xmlns:xlink="http://www.w3.org/1999/xlink" xml:space="preserve" xmlns:serif="http://www.serif.com/" style="fill-rule:evenodd;clip-rule:evenodd;stroke-linejoin:round;stroke-miterlimit:2;">
    <g transform="matrix(1,0,0,1,-1360.14,-143)">
        <g id="planet_clouds" transform="matrix(1,0,0,1,-2633.24,143)">
            <rect x="3993.38" y="0" width="100" height="100" style="fill:none;"/>
            <clipPath id="_clip1">
                <rect x="3993.38" y="0" width="100" height="100"/>
            </clipPath>
            <g clip-path="url(#_clip1)">
                <path d="M4056.31,94.852L4066.71,94.852C4068.68,94.852 4070.29,93.248 4070.29,91.272C4070.29,89.297 4068.68,87.693 4066.71,87.693L4057.7,87.693C4056.74,86.039 4054.95,84.927 4052.9,84.927L4030.03,84.927C4026.97,84.927 4024.48,87.414 4024.48,90.477C4024.48,93.54 4026.97,96.027 4030.03,96.027L4052.9,96.027C4054.18,96.027 4055.37,95.588 4056.31,94.852ZM4078.62,86.21C4078.62,87.132 4079.37,87.879 4080.29,87.879L4085.56,87.879C4086.48,87.879 4087.23,87.132 4087.23,86.21C4087.23,85.289 4086.48,84.541 4085.56,84.541L4080.29,84.541C4079.37,84.541 4078.62,85.289 4078.62,86.21ZM4033.15,78.397C4033.15,79.94 4034.41,81.193 4035.95,81.193L4071.49,81.193C4073.04,81.193 4074.29,79.94 4074.29,78.397C4074.29,76.854 4073.04,75.602 4071.49,75.602L4035.95,75.602C4034.41,75.602 4033.15,76.854 4033.15,78.397ZM4023.68,74.882C4023.68,75.803 4024.42,76.551 4025.34,76.551L4030.61,76.551C4031.53,76.551 4032.28,75.803 4032.28,74.882C4032.28,73.961 4031.53,73.213 4030.61,73.213L4025.34,73.213C4024.42,73.213 4023.68,73.961 4023.68,74.882ZM4043.4,72.957C4043.4,73.878 4044.15,74.626 4045.07,74.626L4050.34,74.626C4051.26,74.626 4052.01,73.878 4052.01,72.957C4052.01,72.036 4051.26,71.288 4050.34,71.288L4045.07,71.288C4044.15,71.288 4043.4,72.036 4043.4,72.957ZM4034.71,70.776C4034.71,71.697 4035.46,72.445 4036.38,72.445L4041.65,72.445C4042.57,72.445 4043.32,71.697 4043.32,70.776C4043.32,69.855 4042.57,69.107 4041.65,69.107L4036.38,69.107C4035.46,69.107 4034.71,69.855 4034.71,70.776ZM4008.8,69.054C4008.8,67.562 4007.58,66.35 4006.09,66.35L3996.62,66.35C3995.12,66.35 3993.91,67.562 3993.91,69.054C3993.91,70.546 3995.12,71.758 3996.62,71.758L4006.09,71.758C4007.58,71.758 4008.8,70.546 4008.8,69.054ZM4011.58,65.845C4011.56,65.977 4011.55,66.113 4011.55,66.251C4011.55,67.744 4012.76,68.955 4014.25,68.955L4023.73,68.955C4025.22,68.955 4026.43,67.744 4026.43,66.251C4026.43,64.759 4025.22,63.548 4023.73,63.548L4021.33,63.548C4021.35,63.415 4021.36,63.279 4021.36,63.141C4021.36,61.649 4020.15,60.437 4018.65,60.437L4009.18,60.437C4007.68,60.437 4006.47,61.649 4006.47,63.141C4006.47,64.633 4007.68,65.845 4009.18,65.845L4011.58,65.845ZM4061.14,61.444L4044.75,61.444C4043.51,61.444 4042.49,62.456 4042.49,63.703C4042.49,64.95 4043.51,65.962 4044.75,65.962L4063.01,65.962C4063.83,65.962 4064.54,65.529 4064.94,64.879L4073.22,64.879C4074.71,64.879 4075.93,63.668 4075.93,62.175C4075.93,60.683 4074.71,59.472 4073.22,59.472L4063.74,59.472C4062.51,59.472 4061.46,60.306 4061.14,61.444ZM4078.68,59.373C4078.68,60.865 4079.89,62.077 4081.38,62.077L4090.86,62.077C4092.35,62.077 4093.56,60.865 4093.56,59.373C4093.56,57.881 4092.35,56.669 4090.86,56.669L4081.38,56.669C4079.89,56.669 4078.68,57.881 4078.68,59.373ZM4052.76,57.651C4052.76,56.729 4052.01,55.982 4051.09,55.982C4050.17,55.982 4049.42,56.729 4049.42,57.651C4049.42,58.572 4050.17,59.32 4051.09,59.32C4052.01,59.32 4052.76,58.572 4052.76,57.651ZM4044.07,55.47C4044.07,54.548 4043.32,53.801 4042.4,53.801L4037.13,53.801C4036.21,53.801 4035.47,54.548 4035.47,55.47C4035.47,56.391 4036.21,57.139 4037.13,57.139L4042.4,57.139C4043.32,57.139 4044.07,56.391 4044.07,55.47ZM4063.8,53.545C4063.8,52.624 4063.05,51.876 4062.13,51.876L4056.86,51.876C4055.94,51.876 4055.19,52.624 4055.19,53.545C4055.19,54.466 4055.94,55.214 4056.86,55.214L4062.13,55.214C4063.05,55.214 4063.8,54.466 4063.8,53.545ZM4054.32,50.029C4054.32,48.486 4053.07,47.234 4051.52,47.234L4015.98,47.234C4014.43,47.234 4013.18,48.486 4013.18,50.029C4013.18,51.572 4014.43,52.825 4015.98,52.825L4051.52,52.825C4053.07,52.825 4054.32,51.572 4054.32,50.029ZM4008.85,42.216C4008.85,41.295 4008.1,40.547 4007.18,40.547L4001.91,40.547C4000.99,40.547 4000.25,41.295 4000.25,42.216C4000.25,43.137 4000.99,43.885 4001.91,43.885L4007.18,43.885C4008.1,43.885 4008.85,43.137 4008.85,42.216ZM4031.16,33.575L4020.77,33.575C4018.79,33.575 4017.19,35.179 4017.19,37.155C4017.19,39.13 4018.79,40.734 4020.77,40.734L4029.78,40.734C4030.74,42.388 4032.53,43.5 4034.58,43.5L4057.44,43.5C4060.51,43.5 4062.99,41.013 4062.99,37.95C4062.99,34.887 4060.51,32.4 4057.44,32.4L4034.58,32.4C4033.29,32.4 4032.11,32.838 4031.16,33.575ZM4076.49,29.578C4076.46,29.749 4076.44,29.926 4076.44,30.107C4076.44,31.6 4077.65,32.811 4079.14,32.811L4088.62,32.811C4090.11,32.811 4091.33,31.6 4091.33,30.107C4091.33,29.008 4090.67,28.061 4089.72,27.639C4089.74,27.535 4089.75,27.428 4089.75,27.319C4089.75,26.072 4088.74,25.06 4087.49,25.06L4069.23,25.06C4067.99,25.06 4066.97,26.072 4066.97,27.319C4066.97,28.566 4067.99,29.578 4069.23,29.578L4076.49,29.578ZM4015.83,18.452C4015.83,19.699 4016.84,20.711 4018.09,20.711L4036.35,20.711C4037.59,20.711 4038.61,19.699 4038.61,18.452C4038.61,17.205 4037.59,16.193 4036.35,16.193L4018.09,16.193C4016.84,16.193 4015.83,17.205 4015.83,18.452ZM4061.75,13.761C4061.75,15.008 4062.76,16.021 4064.01,16.021L4082.26,16.021C4083.51,16.021 4084.52,15.008 4084.52,13.761C4084.52,12.514 4083.51,11.502 4082.26,11.502L4064.01,11.502C4062.76,11.502 4061.75,12.514 4061.75,13.761Z" style="fill:white;fill-opacity:0.65;"/>
            </g>
        </g>
        <g id="Layer3">
        </g>
    </g>
</svg>
