<?xml version="1.0" encoding="UTF-8" standalone="no"?>
<!DOCTYPE svg PUBLIC "-//W3C//DTD SVG 1.1//EN" "http://www.w3.org/Graphics/SVG/1.1/DTD/svg11.dtd">
<svg width="100%" height="100%" viewBox="0 0 101 101" version="1.1" xmlns="http://www.w3.org/2000/svg" xmlns:xlink="http://www.w3.org/1999/xlink" xml:space="preserve" xmlns:serif="http://www.serif.com/" style="fill-rule:evenodd;clip-rule:evenodd;stroke-linejoin:round;stroke-miterlimit:2;">
    <g transform="matrix(1,0,0,1,-1639.2,-2169.53)">
        <g id="terrestrial_clouds_3" transform="matrix(1.00009,0,0,1.00009,-2354.55,2169.53)">
            <rect x="3993.38" y="0" width="100" height="100" style="fill:none;"/>
            <clipPath id="_clip1">
                <rect x="3993.38" y="0" width="100" height="100"/>
            </clipPath>
            <g clip-path="url(#_clip1)">
                <g id="Layer7" transform="matrix(0.999907,0,0,0.999907,2631.04,-2169.33)">
                    <g transform="matrix(1,0,0,1,-276.735,0)">
                        <path d="M1660.84,2241.49C1662.49,2241.49 1663.83,2242.83 1663.83,2244.48C1663.83,2244.48 1663.83,2244.48 1663.83,2244.48C1663.83,2246.13 1662.49,2247.47 1660.84,2247.47C1658.85,2247.47 1656.59,2247.47 1656.59,2247.47C1654.92,2247.47 1653.57,2248.83 1653.57,2250.5C1653.57,2252.17 1654.92,2253.52 1656.59,2253.52L1661.63,2253.52C1662.22,2253.52 1662.78,2253.76 1663.19,2254.17C1663.61,2254.59 1663.84,2255.15 1663.84,2255.74C1663.84,2255.74 1663.84,2255.74 1663.84,2255.74C1663.84,2256.33 1663.61,2256.89 1663.19,2257.31C1662.78,2257.72 1662.22,2257.96 1661.63,2257.96C1655.36,2257.96 1637.96,2257.96 1637.96,2257.96C1636.29,2257.96 1634.94,2259.31 1634.94,2260.98C1634.94,2262.65 1636.29,2264.01 1637.96,2264.01L1673.61,2264.01C1675.28,2264.01 1676.64,2262.65 1676.64,2260.98C1676.64,2259.31 1675.28,2257.96 1673.61,2257.96L1672.11,2257.96C1670.89,2257.96 1669.89,2256.97 1669.89,2255.74C1669.89,2255.74 1669.89,2255.74 1669.89,2255.74C1669.89,2254.51 1670.89,2253.52 1672.11,2253.52L1678.82,2253.52C1680.49,2253.52 1681.85,2252.17 1681.85,2250.5C1681.85,2248.83 1680.49,2247.47 1678.82,2247.47L1672.87,2247.47C1671.22,2247.47 1669.88,2246.13 1669.88,2244.48C1669.88,2244.48 1669.88,2244.48 1669.88,2244.48C1669.88,2242.83 1671.22,2241.49 1672.87,2241.49C1673.93,2241.49 1674.87,2241.49 1674.87,2241.49C1676.54,2241.49 1677.89,2240.13 1677.89,2238.46C1677.89,2236.79 1676.54,2235.44 1674.87,2235.44L1644.93,2235.44C1643.26,2235.44 1641.91,2236.79 1641.91,2238.46C1641.91,2240.13 1643.26,2241.49 1644.93,2241.49L1660.84,2241.49Z" style="fill:white;fill-opacity:0.85;"/>
                    </g>
                    <g transform="matrix(0.71542,0,0,0.869654,436.625,344.274)">
                        <path d="M1441.24,2203.99C1441.24,2202.07 1439.34,2200.51 1437.01,2200.51L1417.67,2200.51C1415.34,2200.51 1413.44,2202.07 1413.44,2203.99C1413.44,2205.91 1415.34,2207.47 1417.67,2207.47L1437.01,2207.47C1439.34,2207.47 1441.24,2205.91 1441.24,2203.99Z" style="fill:white;fill-opacity:0.85;"/>
                    </g>
                    <g transform="matrix(0.395009,0,0,0.869654,890.996,321.785)">
                        <path d="M1441.24,2203.99C1441.24,2202.07 1437.81,2200.51 1433.58,2200.51L1421.1,2200.51C1416.87,2200.51 1413.44,2202.07 1413.44,2203.99C1413.44,2205.91 1416.87,2207.47 1421.1,2207.47L1433.58,2207.47C1437.81,2207.47 1441.24,2205.91 1441.24,2203.99Z" style="fill:white;fill-opacity:0.85;"/>
                    </g>
                    <g transform="matrix(1,0,0,1,-276.735,0)">
                        <path d="M1664.01,2193.08C1665.68,2193.08 1667.03,2194.43 1667.03,2196.11C1667.03,2196.11 1667.03,2196.11 1667.03,2196.11C1667.03,2197.78 1665.68,2199.13 1664.01,2199.13C1659.24,2199.13 1650.53,2199.13 1650.53,2199.13C1648.68,2199.13 1647.18,2200.64 1647.18,2202.49C1647.18,2204.34 1648.68,2205.84 1650.53,2205.84L1659.98,2205.84C1660.66,2205.84 1661.31,2206.11 1661.79,2206.59C1662.26,2207.07 1662.53,2207.72 1662.53,2208.39C1662.53,2208.4 1662.53,2208.4 1662.53,2208.4C1662.53,2209.07 1662.26,2209.72 1661.79,2210.2C1661.31,2210.68 1660.66,2210.95 1659.98,2210.95C1658.89,2210.95 1657.87,2210.95 1657.87,2210.95C1656.02,2210.95 1654.52,2212.45 1654.52,2214.3C1654.52,2216.16 1656.02,2217.66 1657.87,2217.66L1693.67,2217.66C1695.52,2217.66 1697.02,2216.16 1697.02,2214.3C1697.02,2212.45 1695.52,2210.95 1693.67,2210.95L1671.8,2210.95C1671.12,2210.95 1670.47,2210.68 1669.99,2210.2C1669.51,2209.72 1669.24,2209.07 1669.24,2208.4C1669.24,2208.4 1669.24,2208.4 1669.24,2208.39C1669.24,2207.72 1669.51,2207.07 1669.99,2206.59C1670.47,2206.11 1671.12,2205.84 1671.8,2205.84C1673.06,2205.84 1676.33,2205.84 1676.33,2205.84C1678.18,2205.84 1679.68,2204.34 1679.68,2202.49C1679.68,2200.64 1678.18,2199.13 1676.33,2199.13L1676.1,2199.13C1674.43,2199.13 1673.08,2197.78 1673.08,2196.11C1673.08,2196.11 1673.08,2196.11 1673.08,2196.11C1673.08,2194.43 1674.43,2193.08 1676.1,2193.08C1683.02,2193.08 1699.38,2193.08 1699.38,2193.08C1701.05,2193.08 1702.4,2191.73 1702.4,2190.06C1702.4,2188.39 1701.05,2187.03 1699.38,2187.03L1663.37,2187.03C1661.7,2187.03 1660.35,2188.39 1660.35,2190.06C1660.35,2191.73 1661.7,2193.08 1663.37,2193.08L1664.01,2193.08Z" style="fill:white;fill-opacity:0.85;"/>
                    </g>
                    <g transform="matrix(1.41062,0,0,0.869654,-637.509,310.152)">
                        <path d="M1441.24,2203.99C1441.24,2202.07 1440.28,2200.51 1439.09,2200.51L1415.59,2200.51C1414.4,2200.51 1413.44,2202.07 1413.44,2203.99C1413.44,2205.91 1414.4,2207.47 1415.59,2207.47L1439.09,2207.47C1440.28,2207.47 1441.24,2205.91 1441.24,2203.99Z" style="fill:white;fill-opacity:0.85;"/>
                    </g>
                    <g transform="matrix(1.41062,0,0,0.869654,-548.696,310.152)">
                        <path d="M1441.24,2203.99C1441.24,2202.07 1440.28,2200.51 1439.09,2200.51L1415.59,2200.51C1414.4,2200.51 1413.44,2202.07 1413.44,2203.99C1413.44,2205.91 1414.4,2207.47 1415.59,2207.47L1439.09,2207.47C1440.28,2207.47 1441.24,2205.91 1441.24,2203.99Z" style="fill:white;fill-opacity:0.85;"/>
                    </g>
                    <g transform="matrix(1.25787,0,0,0.869654,-413.966,262.622)">
                        <path d="M1441.24,2203.99C1441.24,2202.07 1440.16,2200.51 1438.83,2200.51L1415.85,2200.51C1414.52,2200.51 1413.44,2202.07 1413.44,2203.99C1413.44,2205.91 1414.52,2207.47 1415.85,2207.47L1438.83,2207.47C1440.16,2207.47 1441.24,2205.91 1441.24,2203.99Z" style="fill:white;fill-opacity:0.85;"/>
                    </g>
                    <g transform="matrix(0.517723,0,0,0.869654,632.181,273.333)">
                        <path d="M1441.24,2203.99C1441.24,2202.07 1438.62,2200.51 1435.4,2200.51L1419.28,2200.51C1416.06,2200.51 1413.44,2202.07 1413.44,2203.99C1413.44,2205.91 1416.06,2207.47 1419.28,2207.47L1435.4,2207.47C1438.62,2207.47 1441.24,2205.91 1441.24,2203.99Z" style="fill:white;fill-opacity:0.85;"/>
                    </g>
                    <g transform="matrix(1,0,0,1,-275.587,11.803)">
                        <path d="M1713.54,2193.36C1715.17,2193.36 1716.5,2194.68 1716.5,2196.32C1716.5,2196.32 1716.5,2196.32 1716.5,2196.32C1716.5,2197.96 1715.17,2199.29 1713.54,2199.29C1709.97,2199.29 1704.46,2199.29 1704.46,2199.29C1702.69,2199.29 1701.26,2200.72 1701.26,2202.49C1701.26,2204.25 1702.69,2205.69 1704.46,2205.69L1733.66,2205.69C1735.42,2205.69 1736.86,2204.25 1736.86,2202.49C1736.86,2200.72 1735.42,2199.29 1733.66,2199.29L1725.52,2199.29C1724.73,2199.29 1723.98,2198.97 1723.42,2198.42C1722.86,2197.86 1722.55,2197.11 1722.55,2196.32C1722.55,2196.32 1722.55,2196.32 1722.55,2196.32C1722.55,2194.68 1723.88,2193.36 1725.52,2193.36C1727.02,2193.36 1728.54,2193.36 1728.54,2193.36C1730.3,2193.36 1731.74,2191.92 1731.74,2190.16C1731.74,2188.39 1730.3,2186.95 1728.54,2186.95L1693.34,2186.95C1691.57,2186.95 1690.14,2188.39 1690.14,2190.16C1690.14,2191.92 1691.57,2193.36 1693.34,2193.36L1713.54,2193.36Z" style="fill:white;fill-opacity:0.85;"/>
                    </g>
                    <g transform="matrix(1,0,0,1,25.4398,72.0092)">
                        <path d="M1392.56,2181.55C1393.15,2181.55 1393.71,2181.78 1394.12,2182.19C1394.54,2182.61 1394.77,2183.17 1394.77,2183.75C1394.77,2183.86 1394.77,2183.97 1394.77,2184.07C1394.77,2185.09 1393.94,2185.91 1392.92,2185.91C1392.92,2185.91 1392.92,2185.91 1392.92,2185.91C1391.25,2185.91 1389.9,2187.27 1389.9,2188.94C1389.9,2190.61 1391.25,2191.97 1392.92,2191.97L1409.56,2191.97C1411.23,2191.97 1412.58,2190.61 1412.58,2188.94C1412.58,2187.27 1411.23,2185.91 1409.56,2185.91L1403,2185.91C1402.42,2185.91 1401.87,2185.68 1401.46,2185.28C1401.05,2184.87 1400.82,2184.31 1400.82,2183.73C1400.82,2183.73 1400.82,2183.73 1400.82,2183.73C1400.82,2183.15 1401.05,2182.6 1401.46,2182.18C1401.87,2181.78 1402.42,2181.55 1403,2181.55C1408.26,2181.55 1421.19,2181.55 1421.19,2181.55C1422.86,2181.55 1424.21,2180.19 1424.21,2178.52C1424.21,2176.85 1422.86,2175.5 1421.19,2175.5L1388.8,2175.5C1387.13,2175.5 1385.78,2176.85 1385.78,2178.52C1385.78,2180.19 1387.13,2181.55 1388.8,2181.55L1392.56,2181.55Z" style="fill:white;fill-opacity:0.85;"/>
                    </g>
                    <g transform="matrix(1,0,0,1,42.8492,0.803937)">
                        <path d="M1392.56,2181.55C1393.15,2181.55 1393.71,2181.78 1394.12,2182.19C1394.54,2182.61 1394.77,2183.17 1394.77,2183.75C1394.77,2183.86 1394.77,2183.97 1394.77,2184.07C1394.77,2185.09 1393.94,2185.91 1392.92,2185.91C1392.92,2185.91 1392.92,2185.91 1392.92,2185.91C1391.25,2185.91 1389.9,2187.27 1389.9,2188.94C1389.9,2190.61 1391.25,2191.97 1392.92,2191.97L1413.56,2191.97C1415.23,2191.97 1416.58,2190.61 1416.58,2188.94C1416.58,2187.27 1415.23,2185.91 1413.56,2185.91L1403,2185.91C1402.42,2185.91 1401.87,2185.68 1401.46,2185.28C1401.05,2184.87 1400.82,2184.31 1400.82,2183.73L1400.82,2183.73C1400.82,2183.15 1401.05,2182.6 1401.46,2182.18C1401.87,2181.78 1402.42,2181.55 1403,2181.55C1403.12,2181.55 1403.19,2181.55 1403.19,2181.55C1404.86,2181.55 1406.21,2180.19 1406.21,2178.52C1406.21,2176.85 1404.86,2175.5 1403.19,2175.5L1363.8,2175.5C1362.13,2175.5 1360.78,2176.85 1360.78,2178.52C1360.78,2180.19 1362.13,2181.55 1363.8,2181.55L1392.56,2181.55Z" style="fill:white;fill-opacity:0.85;"/>
                    </g>
                    <g transform="matrix(1,0,0,1,-157.043,25.1508)">
                        <path d="M1569.22,2204.67C1570.77,2204.67 1572.02,2205.92 1572.02,2207.47C1572.02,2207.47 1572.02,2207.47 1572.02,2207.47C1572.02,2209.02 1570.77,2210.27 1569.22,2210.27C1569.07,2210.27 1568.97,2210.27 1568.97,2210.27C1567.3,2210.27 1565.94,2211.62 1565.94,2213.29C1565.94,2214.96 1567.3,2216.32 1568.97,2216.32L1594.45,2216.32C1596.12,2216.32 1597.47,2214.96 1597.47,2213.29C1597.47,2211.62 1596.12,2210.27 1594.45,2210.27L1591.18,2210.27C1590.43,2210.27 1589.72,2209.97 1589.2,2209.45C1588.67,2208.93 1588.38,2208.21 1588.38,2207.47C1588.38,2207.47 1588.38,2207.47 1588.38,2207.47C1588.38,2206.73 1588.67,2206.02 1589.2,2205.49C1589.72,2204.97 1590.43,2204.67 1591.18,2204.67C1592.77,2204.67 1594.45,2204.67 1594.45,2204.67C1596.12,2204.67 1597.47,2203.32 1597.47,2201.65C1597.47,2199.98 1596.12,2198.62 1594.45,2198.62L1561.97,2198.62C1560.3,2198.62 1558.94,2199.98 1558.94,2201.65C1558.94,2203.32 1560.3,2204.67 1561.97,2204.67L1569.22,2204.67ZM1580.7,2204.67C1579.25,2204.67 1578.07,2205.85 1578.07,2207.3C1578.07,2207.41 1578.07,2207.53 1578.07,2207.64C1578.07,2209.09 1579.25,2210.27 1580.7,2210.27C1580.7,2210.27 1580.7,2210.27 1580.7,2210.27C1582.15,2210.27 1583.33,2209.09 1583.33,2207.64C1583.33,2207.53 1583.33,2207.41 1583.33,2207.3C1583.33,2205.85 1582.15,2204.67 1580.7,2204.67C1580.7,2204.67 1580.7,2204.67 1580.7,2204.67Z" style="fill:white;fill-opacity:0.85;"/>
                    </g>
                </g>
            </g>
        </g>
        <g id="Layer3">
        </g>
    </g>
</svg>
