<?xml version="1.0" encoding="UTF-8" standalone="no"?>
<!DOCTYPE svg PUBLIC "-//W3C//DTD SVG 1.1//EN" "http://www.w3.org/Graphics/SVG/1.1/DTD/svg11.dtd">
<svg width="100%" height="100%" viewBox="0 0 101 101" version="1.1" xmlns="http://www.w3.org/2000/svg" xmlns:xlink="http://www.w3.org/1999/xlink" xml:space="preserve" xmlns:serif="http://www.serif.com/" style="fill-rule:evenodd;clip-rule:evenodd;stroke-linejoin:round;stroke-miterlimit:2;">
    <g transform="matrix(1,0,0,1,-1500.8,-2169.53)">
        <g id="terrestrial_clouds_2" transform="matrix(1.00009,0,0,1.00009,-2492.94,2169.53)">
            <rect x="3993.38" y="0" width="100" height="100" style="fill:none;"/>
            <clipPath id="_clip1">
                <rect x="3993.38" y="0" width="100" height="100"/>
            </clipPath>
            <g clip-path="url(#_clip1)">
                <g id="Layer7" transform="matrix(0.999907,0,0,0.999907,2631.04,-2169.33)">
                    <g transform="matrix(0.927036,0,0,0.869654,130.946,266.047)">
                        <path d="M1441.24,2203.99C1441.24,2202.07 1439.78,2200.51 1437.98,2200.51L1416.7,2200.51C1414.9,2200.51 1413.44,2202.07 1413.44,2203.99C1413.44,2205.91 1414.9,2207.47 1416.7,2207.47L1437.98,2207.47C1439.78,2207.47 1441.24,2205.91 1441.24,2203.99Z" style="fill:white;fill-opacity:0.75;"/>
                    </g>
                    <g transform="matrix(0.927036,0,0,0.869654,43.0199,266.047)">
                        <path d="M1441.24,2203.99C1441.24,2202.07 1439.78,2200.51 1437.98,2200.51L1416.7,2200.51C1414.9,2200.51 1413.44,2202.07 1413.44,2203.99C1413.44,2205.91 1414.9,2207.47 1416.7,2207.47L1437.98,2207.47C1439.78,2207.47 1441.24,2205.91 1441.24,2203.99Z" style="fill:white;fill-opacity:0.75;"/>
                    </g>
                    <g transform="matrix(0.550768,0,0,0.869654,594.621,339.1)">
                        <path d="M1441.24,2203.99C1441.24,2202.07 1438.78,2200.51 1435.75,2200.51L1418.93,2200.51C1415.9,2200.51 1413.44,2202.07 1413.44,2203.99C1413.44,2205.91 1415.9,2207.47 1418.93,2207.47L1435.75,2207.47C1438.78,2207.47 1441.24,2205.91 1441.24,2203.99Z" style="fill:white;fill-opacity:0.75;"/>
                    </g>
                    <g transform="matrix(0.728171,0,0,0.869654,408.466,317.961)">
                        <path d="M1441.24,2203.99C1441.24,2202.07 1439.38,2200.51 1437.08,2200.51L1417.6,2200.51C1415.3,2200.51 1413.44,2202.07 1413.44,2203.99C1413.44,2205.91 1415.3,2207.47 1417.6,2207.47L1437.08,2207.47C1439.38,2207.47 1441.24,2205.91 1441.24,2203.99Z" style="fill:white;fill-opacity:0.75;"/>
                    </g>
                    <g transform="matrix(0.591108,0,0,0.869654,559.542,272.138)">
                        <path d="M1441.24,2203.99C1441.24,2202.07 1438.94,2200.51 1436.12,2200.51L1418.56,2200.51C1415.73,2200.51 1413.44,2202.07 1413.44,2203.99C1413.44,2205.91 1415.73,2207.47 1418.56,2207.47L1436.12,2207.47C1438.94,2207.47 1441.24,2205.91 1441.24,2203.99Z" style="fill:white;fill-opacity:0.75;"/>
                    </g>
                    <g transform="matrix(1,0,0,1,-135.441,-0.839432)">
                        <path d="M1573.03,2209.9C1573.26,2209.9 1573.47,2210.04 1573.56,2210.25C1573.66,2210.46 1573.61,2210.71 1573.45,2210.88C1572.92,2211.38 1572.62,2212.1 1572.62,2212.88C1572.62,2214.55 1573.97,2215.91 1575.64,2215.91L1586.03,2215.91C1587.69,2215.91 1589.05,2214.55 1589.05,2212.88C1589.05,2211.21 1587.69,2209.86 1586.03,2209.86L1583.64,2209.86C1583.41,2209.86 1583.2,2209.72 1583.11,2209.5C1583.01,2209.29 1583.06,2209.04 1583.22,2208.87C1583.75,2208.38 1584.05,2207.66 1584.05,2206.87C1584.05,2205.2 1582.7,2203.85 1581.03,2203.85L1570.64,2203.85C1568.98,2203.85 1567.62,2205.2 1567.62,2206.87C1567.62,2208.54 1568.98,2209.9 1570.64,2209.9L1573.03,2209.9Z" style="fill:white;fill-opacity:0.75;"/>
                    </g>
                    <g transform="matrix(1,0,0,1,-138.341,0)">
                        <path d="M1535.75,2217.66C1536.55,2217.66 1537.32,2217.98 1537.88,2218.54C1538.45,2219.11 1538.77,2219.87 1538.77,2220.67L1538.77,2220.67C1538.77,2222.34 1537.42,2223.69 1535.75,2223.69C1530.69,2223.69 1521.01,2223.69 1521.01,2223.69C1519.34,2223.69 1517.99,2225.04 1517.99,2226.71C1517.99,2228.38 1519.34,2229.74 1521.01,2229.74L1559.15,2229.74C1560.82,2229.74 1562.17,2228.38 1562.17,2226.71C1562.17,2225.04 1560.82,2223.69 1559.15,2223.69L1547.81,2223.69C1547.02,2223.69 1546.25,2223.37 1545.69,2222.81C1545.13,2222.25 1544.82,2221.49 1544.82,2220.7L1544.82,2220.7C1544.82,2219.89 1545.14,2219.12 1545.71,2218.55C1546.28,2217.98 1547.05,2217.66 1547.85,2217.66L1548.27,2217.66C1550.12,2217.66 1551.63,2216.16 1551.63,2214.3C1551.63,2212.45 1550.12,2210.95 1548.27,2210.95L1533.4,2210.95C1532.72,2210.95 1532.08,2210.68 1531.6,2210.2C1531.12,2209.72 1530.85,2209.07 1530.85,2208.4C1530.85,2208.4 1530.85,2208.4 1530.85,2208.39C1530.85,2207.72 1531.12,2207.07 1531.6,2206.59C1532.08,2206.11 1532.72,2205.84 1533.4,2205.84C1534.67,2205.84 1535.94,2205.84 1535.94,2205.84C1537.79,2205.84 1539.29,2204.34 1539.29,2202.49C1539.29,2200.64 1537.79,2199.13 1535.94,2199.13L1512.14,2199.13C1510.29,2199.13 1508.79,2200.64 1508.79,2202.49C1508.79,2204.34 1510.29,2205.84 1512.14,2205.84L1521.59,2205.84C1522.26,2205.84 1522.91,2206.11 1523.39,2206.59C1523.87,2207.07 1524.14,2207.72 1524.14,2208.39C1524.14,2208.4 1524.14,2208.4 1524.14,2208.4C1524.14,2209.07 1523.87,2209.72 1523.39,2210.2C1522.91,2210.68 1522.26,2210.95 1521.59,2210.95C1520.5,2210.95 1519.48,2210.95 1519.48,2210.95C1517.63,2210.95 1516.12,2212.45 1516.12,2214.3C1516.12,2216.16 1517.63,2217.66 1519.48,2217.66L1535.75,2217.66Z" style="fill:white;fill-opacity:0.75;"/>
                    </g>
                    <g transform="matrix(-1,-1.22465e-16,1.22465e-16,-1,2819.14,4434.18)">
                        <path d="M1392.59,2181.55C1393.16,2181.55 1393.72,2181.78 1394.13,2182.18C1394.54,2182.6 1394.77,2183.15 1394.77,2183.73C1394.77,2183.73 1394.77,2183.73 1394.77,2183.73C1394.77,2184.31 1394.54,2184.87 1394.13,2185.28C1393.72,2185.68 1393.16,2185.91 1392.59,2185.91C1389.16,2185.91 1382.92,2185.91 1382.92,2185.91C1381.25,2185.91 1379.9,2187.27 1379.9,2188.94C1379.9,2190.61 1381.25,2191.97 1382.92,2191.97L1411.56,2191.97C1413.23,2191.97 1414.58,2190.61 1414.58,2188.94C1414.58,2187.27 1413.23,2185.91 1411.56,2185.91L1403,2185.91C1402.42,2185.91 1401.87,2185.68 1401.46,2185.28C1401.05,2184.87 1400.82,2184.31 1400.82,2183.73C1400.82,2183.73 1400.82,2183.73 1400.82,2183.73C1400.82,2183.15 1401.05,2182.6 1401.46,2182.18C1401.87,2181.78 1402.42,2181.55 1403,2181.55C1404.1,2181.55 1405.19,2181.55 1405.19,2181.55C1406.86,2181.55 1408.21,2180.19 1408.21,2178.52C1408.21,2176.85 1406.86,2175.5 1405.19,2175.5L1386.8,2175.5C1385.13,2175.5 1383.78,2176.85 1383.78,2178.52C1383.78,2180.19 1385.13,2181.55 1386.8,2181.55L1392.59,2181.55Z" style="fill:white;fill-opacity:0.75;"/>
                    </g>
                </g>
            </g>
        </g>
        <g id="Layer3">
        </g>
    </g>
</svg>
