<?xml version="1.0" encoding="UTF-8" standalone="no"?>
<!DOCTYPE svg PUBLIC "-//W3C//DTD SVG 1.1//EN" "http://www.w3.org/Graphics/SVG/1.1/DTD/svg11.dtd">
<svg width="100%" height="100%" viewBox="0 0 101 101" version="1.1" xmlns="http://www.w3.org/2000/svg" xmlns:xlink="http://www.w3.org/1999/xlink" xml:space="preserve" xmlns:serif="http://www.serif.com/" style="fill-rule:evenodd;clip-rule:evenodd;stroke-linejoin:round;stroke-miterlimit:2;">
    <g transform="matrix(1,0,0,1,-1362.46,-2169.53)">
        <g id="terrestrial_clouds_1" transform="matrix(1.00009,0,0,1.00009,-2631.29,2169.53)">
            <rect x="3993.38" y="0" width="100" height="100" style="fill:none;"/>
            <g id="Layer7" transform="matrix(0.999907,0,0,0.999907,2631.04,-2169.33)">
                <path d="M1383.25,2205.84C1383.92,2205.84 1384.57,2206.11 1385.05,2206.59C1385.53,2207.07 1385.8,2207.72 1385.8,2208.39C1385.8,2208.4 1385.8,2208.4 1385.8,2208.4C1385.8,2209.07 1385.53,2209.72 1385.05,2210.2C1384.57,2210.68 1383.92,2210.95 1383.25,2210.95C1382.16,2210.95 1381.14,2210.95 1381.14,2210.95C1379.29,2210.95 1377.78,2212.45 1377.78,2214.3C1377.78,2216.16 1379.29,2217.66 1381.14,2217.66L1408.93,2217.66C1410.78,2217.66 1412.29,2216.16 1412.29,2214.3C1412.29,2212.45 1410.78,2210.95 1408.93,2210.95L1395.06,2210.95C1394.38,2210.95 1393.73,2210.68 1393.26,2210.2C1392.78,2209.72 1392.51,2209.07 1392.51,2208.4C1392.51,2208.4 1392.51,2208.4 1392.51,2208.39C1392.51,2207.72 1392.78,2207.07 1393.26,2206.59C1393.73,2206.11 1394.38,2205.84 1395.06,2205.84C1396.33,2205.84 1397.6,2205.84 1397.6,2205.84C1399.45,2205.84 1400.95,2204.34 1400.95,2202.49C1400.95,2200.64 1399.45,2199.13 1397.6,2199.13L1373.8,2199.13C1371.95,2199.13 1370.44,2200.64 1370.44,2202.49C1370.44,2204.34 1371.95,2205.84 1373.8,2205.84L1383.25,2205.84Z" style="fill:white;fill-opacity:0.65;"/>
                <g transform="matrix(0.927036,0,0,0.869654,125.003,265.486)">
                    <path d="M1441.24,2203.99C1441.24,2202.07 1439.78,2200.51 1437.98,2200.51L1416.7,2200.51C1414.9,2200.51 1413.44,2202.07 1413.44,2203.99C1413.44,2205.91 1414.9,2207.47 1416.7,2207.47L1437.98,2207.47C1439.78,2207.47 1441.24,2205.91 1441.24,2203.99Z" style="fill:white;fill-opacity:0.65;"/>
                </g>
                <g transform="matrix(0.550768,0,0,0.869654,591.4,328.789)">
                    <path d="M1441.24,2203.99C1441.24,2202.07 1438.78,2200.51 1435.75,2200.51L1418.93,2200.51C1415.9,2200.51 1413.44,2202.07 1413.44,2203.99C1413.44,2205.91 1415.9,2207.47 1418.93,2207.47L1435.75,2207.47C1438.78,2207.47 1441.24,2205.91 1441.24,2203.99Z" style="fill:white;fill-opacity:0.65;"/>
                </g>
                <g transform="matrix(0.334747,0,0,0.869654,921.894,272.138)">
                    <path d="M1441.24,2203.99C1441.24,2202.07 1437.19,2200.51 1432.2,2200.51L1422.48,2200.51C1417.49,2200.51 1413.44,2202.07 1413.44,2203.99C1413.44,2205.91 1417.49,2207.47 1422.48,2207.47L1432.2,2207.47C1437.19,2207.47 1441.24,2205.91 1441.24,2203.99Z" style="fill:white;fill-opacity:0.65;"/>
                </g>
                <g transform="matrix(0.801573,0,0,0.869654,292.588,305.14)">
                    <path d="M1441.24,2203.99C1441.24,2202.07 1439.55,2200.51 1437.46,2200.51L1417.21,2200.51C1415.13,2200.51 1413.44,2202.07 1413.44,2203.99C1413.44,2205.91 1415.13,2207.47 1417.21,2207.47L1437.46,2207.47C1439.55,2207.47 1441.24,2205.91 1441.24,2203.99Z" style="fill:white;fill-opacity:0.65;"/>
                </g>
                <g transform="matrix(1,0,0,1,24.6638,66.7208)">
                    <path d="M1392.56,2181.55C1393.15,2181.55 1393.71,2181.78 1394.12,2182.19C1394.54,2182.61 1394.77,2183.17 1394.77,2183.75C1394.77,2183.86 1394.77,2183.97 1394.77,2184.07C1394.77,2185.09 1393.94,2185.91 1392.92,2185.91C1392.92,2185.91 1392.92,2185.91 1392.92,2185.91C1391.25,2185.91 1389.9,2187.27 1389.9,2188.94C1389.9,2190.61 1391.25,2191.97 1392.92,2191.97L1409.56,2191.97C1411.23,2191.97 1412.58,2190.61 1412.58,2188.94C1412.58,2187.27 1411.23,2185.91 1409.56,2185.91L1403,2185.91C1402.42,2185.91 1401.87,2185.68 1401.46,2185.28C1401.05,2184.87 1400.82,2184.31 1400.82,2183.73C1400.82,2183.73 1400.82,2183.73 1400.82,2183.73C1400.82,2183.15 1401.05,2182.6 1401.46,2182.18C1401.87,2181.78 1402.42,2181.55 1403,2181.55C1403.12,2181.55 1403.19,2181.55 1403.19,2181.55C1404.86,2181.55 1406.21,2180.19 1406.21,2178.52C1406.21,2176.85 1404.86,2175.5 1403.19,2175.5L1388.8,2175.5C1387.13,2175.5 1385.78,2176.85 1385.78,2178.52C1385.78,2180.19 1387.13,2181.55 1388.8,2181.55L1392.56,2181.55Z" style="fill:white;fill-opacity:0.65;"/>
                </g>
            </g>
        </g>
        <g id="Layer3">
        </g>
    </g>
</svg>
