<?xml version="1.0" encoding="UTF-8" standalone="no"?>
<!DOCTYPE svg PUBLIC "-//W3C//DTD SVG 1.1//EN" "http://www.w3.org/Graphics/SVG/1.1/DTD/svg11.dtd">
<svg width="100%" height="100%" viewBox="0 0 159 119" version="1.1" xmlns="http://www.w3.org/2000/svg" xmlns:xlink="http://www.w3.org/1999/xlink" xml:space="preserve" xmlns:serif="http://www.serif.com/" style="fill-rule:evenodd;clip-rule:evenodd;stroke-linejoin:round;stroke-miterlimit:2;">
    <g transform="matrix(1,0,0,1,-785.696,488.103)">
        <g transform="matrix(1,0,0,1,797.651,-429.853)">
            <path d="M0,2.188C5.223,-18.391 14.608,-58.25 44.858,-58.25C82.029,-58.25 130.957,24.674 141.685,41.467C152.793,58.857 142.494,60.438 137.982,60.438L-0.444,60.438C-15.633,60.438 -11.856,46.568 -10.642,42.577C-9.427,38.586 -2.843,13.388 0,2.188" style="fill:rgb(179,179,179);fill-rule:nonzero;"/>
        </g>
        <g transform="matrix(1,0,0,1,-601.233,-1139.61)">
            <path d="M1456.2,684.823C1456.21,684.836 1456.22,684.848 1456.23,684.86C1456.95,685.657 1457.39,686.713 1457.39,687.871C1457.39,688.699 1458.06,689.371 1458.89,689.371C1459.72,689.371 1460.39,688.699 1460.39,687.871C1460.39,686.715 1460.13,685.619 1459.66,684.642C1463.18,683.888 1467.19,685.217 1468.65,688.484C1468.99,689.239 1469.87,689.579 1470.63,689.241C1471.38,688.902 1471.72,688.014 1471.38,687.259C1469.17,682.31 1462.79,680.346 1457.66,682.089C1456.37,681.017 1454.7,680.373 1452.89,680.373C1452.06,680.373 1451.39,681.045 1451.39,681.873C1451.39,682.701 1452.06,683.373 1452.89,683.373C1454.2,683.373 1455.38,683.932 1456.2,684.823Z" style="fill:white;fill-opacity:0.5;"/>
        </g>
        <g transform="matrix(-1,0,0,1,2302.61,-1088.74)">
            <path d="M1456.2,684.823C1456.21,684.836 1456.22,684.848 1456.23,684.86C1456.95,685.657 1457.39,686.713 1457.39,687.871C1457.39,688.699 1458.06,689.371 1458.89,689.371C1459.72,689.371 1460.39,688.699 1460.39,687.871C1460.39,686.715 1460.13,685.619 1459.66,684.642C1463.18,683.888 1467.19,685.217 1468.65,688.484C1468.99,689.239 1469.87,689.579 1470.63,689.241C1471.38,688.902 1471.72,688.014 1471.38,687.259C1469.17,682.31 1462.79,680.346 1457.66,682.089C1456.37,681.017 1454.7,680.373 1452.89,680.373C1452.06,680.373 1451.39,681.045 1451.39,681.873C1451.39,682.701 1452.06,683.373 1452.89,683.373C1454.2,683.373 1455.38,683.932 1456.2,684.823Z" style="fill-opacity:0.3;"/>
        </g>
        <g transform="matrix(-1,0,0,1,2340.96,-1108.94)">
            <path d="M1456.2,684.823C1456.21,684.836 1456.22,684.848 1456.23,684.86C1456.95,685.657 1457.39,686.713 1457.39,687.871C1457.39,688.699 1458.06,689.371 1458.89,689.371C1459.72,689.371 1460.39,688.699 1460.39,687.871C1460.39,686.715 1460.13,685.619 1459.66,684.642C1463.18,683.888 1467.19,685.217 1468.65,688.484C1468.99,689.239 1469.87,689.579 1470.63,689.241C1471.38,688.902 1471.72,688.014 1471.38,687.259C1469.17,682.31 1462.79,680.346 1457.66,682.089C1456.37,681.017 1454.7,680.373 1452.89,680.373C1452.06,680.373 1451.39,681.045 1451.39,681.873C1451.39,682.701 1452.06,683.373 1452.89,683.373C1454.2,683.373 1455.38,683.932 1456.2,684.823Z" style="fill-opacity:0.3;"/>
        </g>
    </g>
</svg>
