<?xml version="1.0" encoding="UTF-8" standalone="no"?>
<!DOCTYPE svg PUBLIC "-//W3C//DTD SVG 1.1//EN" "http://www.w3.org/Graphics/SVG/1.1/DTD/svg11.dtd">
<svg width="100%" height="100%" viewBox="0 0 132 120" version="1.1" xmlns="http://www.w3.org/2000/svg" xmlns:xlink="http://www.w3.org/1999/xlink" xml:space="preserve" xmlns:serif="http://www.serif.com/" style="fill-rule:evenodd;clip-rule:evenodd;stroke-linecap:round;stroke-miterlimit:10;">
    <g transform="matrix(1,0,0,1,-1250.91,380.765)">
        <g transform="matrix(1,0,0,1,1376.46,-326.383)">
            <path d="M0,18.566C-5.229,0.872 -10.791,-42.288 -37.078,-42.288C-69.381,-42.288 -111.9,29.774 -121.223,44.368C-130.877,59.48 -121.927,60.854 -118.006,60.854L-3.742,60.854C9.457,60.854 5.638,50.5 4.582,47.032C3.526,43.564 2.382,26.627 0,18.566" style="fill:rgb(153,153,153);fill-rule:nonzero;"/>
        </g>
        <g transform="matrix(1,0,0,1,1282.98,-269.445)">
            <path d="M0,6.926C0,2.341 -5.166,-1.377 -11.539,-1.377C-17.911,-1.377 -23.077,2.341 -23.077,6.926C-23.077,6.926 -23.077,8.303 -21.163,8.303L-1.752,8.303C-0.483,8.303 0,7.853 0,6.926" style="fill:rgb(66,99,57);fill-rule:nonzero;"/>
        </g>
        <g transform="matrix(1,0,0,1,1316.1,-275.033)">
            <path d="M0,11.586C0,3.915 -8.644,-2.305 -19.306,-2.305C-29.968,-2.305 -38.611,3.915 -38.611,11.586C-38.611,11.586 -38.611,13.891 -35.409,13.891L-2.932,13.891C-0.809,13.891 0,13.138 0,11.586" style="fill:rgb(66,99,57);fill-rule:nonzero;"/>
        </g>
        <g transform="matrix(1,0,0,1,940.677,-588.579)">
            <g opacity="0.5">
                <g transform="matrix(1,0,0,1,367.515,314.767)">
                    <path d="M0,3.258C0,1.101 -2.43,-0.647 -5.427,-0.647C-8.424,-0.647 -10.854,1.101 -10.854,3.258C-10.854,3.258 -10.854,3.905 -9.954,3.905L-0.824,3.905C-0.33,3.905 0,3.694 0,3.258" style="fill:white;fill-rule:nonzero;"/>
                </g>
            </g>
        </g>
        <g transform="matrix(1,0,0,1,940.677,-588.579)">
            <g opacity="0.5">
                <g transform="matrix(0,-1,-1,0,353.759,316.171)">
                    <path d="M-1.251,-1.251C-1.94,-1.251 -2.502,-0.69 -2.502,0C-2.502,0.69 -1.94,1.251 -1.251,1.251C-0.561,1.251 0,0.69 0,0C0,-0.69 -0.561,-1.251 -1.251,-1.251" style="fill:white;fill-rule:nonzero;"/>
                </g>
            </g>
        </g>
        <g transform="matrix(1,0,0,1,940.677,-588.579)">
            <g opacity="0.5">
                <g transform="matrix(0.784578,-0.620031,-0.620031,-0.784578,368.88,256.974)">
                    <clipPath id="_clip1">
                        <path d="M-6.717,13.021L21.98,-9.658L40.293,13.515L11.596,36.194L-6.717,13.021Z" clip-rule="nonzero"/>
                    </clipPath>
                    <g clip-path="url(#_clip1)">
                        <path d="M-4.61,13.268C-4.61,13.268 21.475,19.198 38.187,13.268" style="fill:none;fill-rule:nonzero;stroke:white;stroke-width:3px;"/>
                    </g>
                </g>
            </g>
        </g>
        <g transform="matrix(1,0,0,1,-121.961,-1031.58)">
            <path d="M1456.2,684.823C1456.21,684.836 1456.22,684.848 1456.23,684.86C1456.95,685.657 1457.39,686.713 1457.39,687.871C1457.39,688.699 1458.06,689.371 1458.89,689.371C1459.72,689.371 1460.39,688.699 1460.39,687.871C1460.39,686.715 1460.13,685.619 1459.66,684.642C1463.18,683.888 1467.19,685.217 1468.65,688.484C1468.99,689.239 1469.87,689.579 1470.63,689.241C1471.38,688.902 1471.72,688.014 1471.38,687.259C1469.17,682.31 1462.79,680.346 1457.66,682.089C1456.37,681.017 1454.7,680.373 1452.89,680.373C1452.06,680.373 1451.39,681.045 1451.39,681.873C1451.39,682.701 1452.06,683.373 1452.89,683.373C1454.2,683.373 1455.38,683.932 1456.2,684.823Z" style="fill:white;fill-opacity:0.5;"/>
        </g>
        <g transform="matrix(-1,0,0,1,2751.72,-983.635)">
            <path d="M1456.2,684.823C1456.21,684.836 1456.22,684.848 1456.23,684.86C1456.95,685.657 1457.39,686.713 1457.39,687.871C1457.39,688.699 1458.06,689.371 1458.89,689.371C1459.72,689.371 1460.39,688.699 1460.39,687.871C1460.39,686.715 1460.13,685.619 1459.66,684.642C1463.18,683.888 1467.19,685.217 1468.65,688.484C1468.99,689.239 1469.87,689.579 1470.63,689.241C1471.38,688.902 1471.72,688.014 1471.38,687.259C1469.17,682.31 1462.79,680.346 1457.66,682.089C1456.37,681.017 1454.7,680.373 1452.89,680.373C1452.06,680.373 1451.39,681.045 1451.39,681.873C1451.39,682.701 1452.06,683.373 1452.89,683.373C1454.2,683.373 1455.38,683.932 1456.2,684.823Z" style="fill-opacity:0.3;"/>
        </g>
        <g transform="matrix(-1,0,0,1,2781,-1003.84)">
            <path d="M1456.2,684.823C1456.21,684.836 1456.22,684.848 1456.23,684.86C1456.95,685.657 1457.39,686.713 1457.39,687.871C1457.39,688.699 1458.06,689.371 1458.89,689.371C1459.72,689.371 1460.39,688.699 1460.39,687.871C1460.39,686.715 1460.13,685.619 1459.66,684.642C1463.18,683.888 1467.19,685.217 1468.65,688.484C1468.99,689.239 1469.87,689.579 1470.63,689.241C1471.38,688.902 1471.72,688.014 1471.38,687.259C1469.17,682.31 1462.79,680.346 1457.66,682.089C1456.37,681.017 1454.7,680.373 1452.89,680.373C1452.06,680.373 1451.39,681.045 1451.39,681.873C1451.39,682.701 1452.06,683.373 1452.89,683.373C1454.2,683.373 1455.38,683.932 1456.2,684.823Z" style="fill-opacity:0.3;"/>
        </g>
    </g>
</svg>
