<?xml version="1.0" encoding="UTF-8" standalone="no"?>
<!DOCTYPE svg PUBLIC "-//W3C//DTD SVG 1.1//EN" "http://www.w3.org/Graphics/SVG/1.1/DTD/svg11.dtd">
<svg width="100%" height="100%" viewBox="0 0 26 27" version="1.1" xmlns="http://www.w3.org/2000/svg" xmlns:xlink="http://www.w3.org/1999/xlink" xml:space="preserve" xmlns:serif="http://www.serif.com/" style="fill-rule:evenodd;clip-rule:evenodd;stroke-linecap:round;stroke-miterlimit:10;">
    <g transform="matrix(1,0,0,1,-1184.7,74.4487)">
        <g transform="matrix(0.908948,-0.416911,-0.416911,-0.908948,1201.42,-65.1662)">
            <path d="M-0.502,-0.111C-2.181,-0.11 -3.299,1.101 -3.299,1.101C-3.299,1.101 -2.303,2.311 -0.502,2.311C1.143,2.311 2.294,1.1 2.294,1.1C2.294,1.1 1.029,-0.111 -0.502,-0.111" style="fill:rgb(66,99,57);fill-rule:nonzero;"/>
        </g>
        <g transform="matrix(0.391027,-0.920379,-0.920379,-0.391027,1199.97,-67.7533)">
            <path d="M-1.147,-0.787C-2.826,-0.786 -3.945,0.425 -3.945,0.425C-3.945,0.425 -2.949,1.637 -1.147,1.635C0.499,1.636 1.65,0.425 1.65,0.425C1.65,0.425 0.384,-0.787 -1.147,-0.787" style="fill:rgb(66,99,57);fill-rule:nonzero;"/>
        </g>
        <g transform="matrix(0,-1,-1,0,1197.95,-66.2883)">
            <path d="M-5.098,-5.098C-7.912,-5.098 -10.195,-2.816 -10.195,0C-10.195,2.816 -7.912,5.098 -5.098,5.098C-2.283,5.098 0,2.816 0,0C0,-2.816 -2.283,-5.098 -5.098,-5.098" style="fill:rgb(193,39,45);fill-rule:nonzero;"/>
        </g>
        <g transform="matrix(1,0,0,1,814.491,-328.228)">
            <g opacity="0.3">
                <g transform="matrix(-0.923894,0.382647,0.382647,0.923894,383.733,270.695)">
                    <clipPath id="_clip1">
                        <path d="M1.401,0.065L-2.572,1.71L-3.702,-1.018L0.271,-2.663L1.401,0.065Z" clip-rule="nonzero"/>
                    </clipPath>
                    <g clip-path="url(#_clip1)">
                        <path d="M-2.396,-0.477C-1.626,-0.158 -0.736,-0.133 0.095,-0.477" style="fill:none;fill-rule:nonzero;stroke:black;stroke-width:2px;"/>
                    </g>
                </g>
            </g>
        </g>
        <g transform="matrix(1,0,0,1,814.491,-328.228)">
            <g opacity="0.5">
                <g transform="matrix(0.707107,-0.707107,-0.707107,-0.707107,381.859,267.702)">
                    <clipPath id="_clip2">
                        <path d="M-2.079,1.603L1.604,-2.08L5.287,1.603L1.604,5.286L-2.079,1.603Z" clip-rule="nonzero"/>
                    </clipPath>
                    <g clip-path="url(#_clip2)">
                        <path d="M-0.664,1.604C0.588,2.856 2.62,2.856 3.872,1.604" style="fill:none;fill-rule:nonzero;stroke:white;stroke-width:2px;"/>
                    </g>
                </g>
            </g>
        </g>
        <g transform="matrix(1,0,0,1,814.491,-328.228)">
            <g opacity="0.5">
                <g transform="matrix(0,-1,-1,0,385.905,263.778)">
                    <path d="M-0.675,-0.675C-1.047,-0.675 -1.35,-0.373 -1.35,0C-1.35,0.372 -1.047,0.675 -0.675,0.675C-0.303,0.675 0,0.372 0,0C0,-0.373 -0.303,-0.675 -0.675,-0.675" style="fill:white;fill-rule:nonzero;"/>
                </g>
            </g>
        </g>
    </g>
</svg>
