<?xml version="1.0" encoding="UTF-8" standalone="no"?>
<!DOCTYPE svg PUBLIC "-//W3C//DTD SVG 1.1//EN" "http://www.w3.org/Graphics/SVG/1.1/DTD/svg11.dtd">
<svg width="100%" height="100%" viewBox="0 0 106 70" version="1.1" xmlns="http://www.w3.org/2000/svg" xmlns:xlink="http://www.w3.org/1999/xlink" xml:space="preserve" xmlns:serif="http://www.serif.com/" style="fill-rule:evenodd;clip-rule:evenodd;stroke-linecap:round;stroke-miterlimit:10;">
    <g transform="matrix(1,0,0,1,-301.781,160.409)">
        <g transform="matrix(1,0,0,1,399.538,-117.386)">
            <path d="M0,-6.555C-4.159,-20.632 -10.171,-33.133 -26.577,-33.133C-52.275,-33.133 -85.023,4.186 -93.46,13.463C-103.059,24.016 -94.02,26.578 -90.901,26.578L0,26.578C10.501,26.578 7.462,18.341 6.623,15.582C5.783,12.823 1.896,-0.143 0,-6.555" style="fill:rgb(205,133,0);fill-rule:nonzero;"/>
        </g>
        <g transform="matrix(1,0,0,1,-55.0382,-413.859)">
            <g opacity="0.5">
                <g transform="matrix(0.814689,-0.579898,-0.579898,-0.814689,391.349,297.702)">
                    <clipPath id="_clip1">
                        <path d="M-5.638,10.745L22.208,-9.076L36.818,11.449L8.972,31.27L-5.638,10.745Z" clip-rule="nonzero"/>
                    </clipPath>
                    <g clip-path="url(#_clip1)">
                        <path d="M-3.546,11.097C-3.546,11.097 20.166,14.951 34.726,11.097" style="fill:none;fill-rule:nonzero;stroke:white;stroke-width:3px;"/>
                    </g>
                </g>
            </g>
        </g>
        <g transform="matrix(1,0,0,1,-1082.15,-817.018)">
            <path d="M1456.2,684.823C1456.21,684.836 1456.22,684.848 1456.23,684.86C1456.95,685.657 1457.39,686.713 1457.39,687.871C1457.39,688.699 1458.06,689.371 1458.89,689.371C1459.72,689.371 1460.39,688.699 1460.39,687.871C1460.39,686.715 1460.13,685.619 1459.66,684.642C1463.18,683.888 1467.19,685.217 1468.65,688.484C1468.99,689.239 1469.87,689.579 1470.63,689.241C1471.38,688.902 1471.72,688.014 1471.38,687.259C1469.17,682.31 1462.79,680.346 1457.66,682.089C1456.37,681.017 1454.7,680.373 1452.89,680.373C1452.06,680.373 1451.39,681.045 1451.39,681.873C1451.39,682.701 1452.06,683.373 1452.89,683.373C1454.2,683.373 1455.38,683.932 1456.2,684.823Z" style="fill:white;fill-opacity:0.5;"/>
        </g>
    </g>
</svg>
