<?xml version="1.0" encoding="UTF-8" standalone="no"?>
<!DOCTYPE svg PUBLIC "-//W3C//DTD SVG 1.1//EN" "http://www.w3.org/Graphics/SVG/1.1/DTD/svg11.dtd">
<svg width="100%" height="100%" viewBox="0 0 118 33" version="1.1" xmlns="http://www.w3.org/2000/svg" xmlns:xlink="http://www.w3.org/1999/xlink" xml:space="preserve" xmlns:serif="http://www.serif.com/" style="fill-rule:evenodd;clip-rule:evenodd;stroke-linejoin:round;stroke-miterlimit:2;">
    <g transform="matrix(1,0,0,1,-579.914,134.441)">
        <g transform="matrix(1,0,0,1,583.608,-126.828)">
            <path d="M0,13.079C5.871,8.607 16.983,0.195 20.888,-2.538C24.792,-5.271 28.501,-7.613 38.066,-7.613C47.632,-7.613 57.197,4.295 57.197,4.295C57.197,4.295 63.444,0.391 75.352,0.391C87.26,0.391 108.343,13.665 111.662,16.007C114.98,18.35 114.2,20.692 109.319,20.692L0,20.692C-4.49,20.692 -5.342,17.147 0,13.079" style="fill:rgb(205,133,0);fill-rule:nonzero;"/>
        </g>
        <g transform="matrix(1,0,0,1,663.106,-113.161)">
            <path d="M0,6.926C0,2.341 -5.166,-1.377 -11.539,-1.377C-17.911,-1.377 -23.077,2.341 -23.077,6.926C-23.077,6.926 -23.077,8.303 -21.163,8.303L-1.752,8.303C-0.483,8.303 0,7.853 0,6.926" style="fill:rgb(66,61,0);fill-rule:nonzero;"/>
        </g>
        <g transform="matrix(1,0,0,1,629.244,-112.008)">
            <path d="M0,8.466C0,2.86 -6.316,-1.684 -14.108,-1.684C-21.899,-1.684 -28.215,2.86 -28.215,8.466C-28.215,8.466 -28.215,10.15 -25.875,10.15L-2.143,10.15C-0.591,10.15 0,9.6 0,8.466" style="fill:rgb(66,61,0);fill-rule:nonzero;"/>
        </g>
        <g transform="matrix(1,0,0,1,420.801,-425.295)">
            <g opacity="0.5">
                <g transform="matrix(1,0,0,1,232.214,314.065)">
                    <path d="M0,2.54C0,0.858 -1.895,-0.505 -4.232,-0.505C-6.569,-0.505 -8.464,0.858 -8.464,2.54C-8.464,2.54 -8.464,3.045 -7.762,3.045L-0.643,3.045C-0.257,3.045 0,2.88 0,2.54" style="fill:white;fill-rule:nonzero;"/>
                </g>
            </g>
        </g>
        <g transform="matrix(-1,0,0,1,2075.21,-805.706)">
            <path d="M1456.2,684.823C1456.21,684.836 1456.22,684.848 1456.23,684.86C1456.95,685.657 1457.39,686.713 1457.39,687.871C1457.39,688.699 1458.06,689.371 1458.89,689.371C1459.72,689.371 1460.39,688.699 1460.39,687.871C1460.39,686.715 1460.13,685.619 1459.66,684.642C1463.18,683.888 1467.19,685.217 1468.65,688.484C1468.99,689.239 1469.87,689.579 1470.63,689.241C1471.38,688.902 1471.72,688.014 1471.38,687.259C1469.17,682.31 1462.79,680.346 1457.66,682.089C1456.37,681.017 1454.7,680.373 1452.89,680.373C1452.06,680.373 1451.39,681.045 1451.39,681.873C1451.39,682.701 1452.06,683.373 1452.89,683.373C1454.2,683.373 1455.38,683.932 1456.2,684.823Z" style="fill-opacity:0.3;"/>
        </g>
    </g>
</svg>
