<?xml version="1.0" encoding="UTF-8" standalone="no"?>
<!DOCTYPE svg PUBLIC "-//W3C//DTD SVG 1.1//EN" "http://www.w3.org/Graphics/SVG/1.1/DTD/svg11.dtd">
<svg width="100%" height="100%" viewBox="0 0 156 196" version="1.1" xmlns="http://www.w3.org/2000/svg" xmlns:xlink="http://www.w3.org/1999/xlink" xml:space="preserve" xmlns:serif="http://www.serif.com/" style="fill-rule:evenodd;clip-rule:evenodd;stroke-linecap:round;stroke-miterlimit:10;">
    <g transform="matrix(1,0,0,1,258.323,-184.708)">
        <g>
            <g transform="matrix(1,0,0,1,-224.962,281.491)">
                <path d="M0,-70.061L0,-24.808C0,-9.29 8.958,0 24.807,0" style="fill:none;fill-rule:nonzero;stroke:rgb(177,117,85);stroke-width:5px;"/>
            </g>
            <g transform="matrix(0,1,1,0,-134.134,303.137)">
                <path d="M-68.179,-26.469L-46.01,-26.469C-34.925,-26.469 -24.687,-32.233 -24.687,-47.792C-24.687,-63.35 -16.24,-68.179 -4.3,-68.179L26.469,-68.179" style="fill:none;fill-rule:nonzero;stroke:rgb(177,117,85);stroke-width:10px;"/>
            </g>
            <g transform="matrix(1,0,0,1,-438.065,-30.229)">
                <g opacity="0.5">
                    <g transform="matrix(-0.479515,0.877534,0.877534,0.479515,246.631,328.682)">
                        <clipPath id="_clip1">
                            <path d="M8.946,-10.358L1.642,3.009L-19.178,-8.368L-11.874,-21.734L8.946,-10.358Z" clip-rule="nonzero"/>
                        </clipPath>
                        <g clip-path="url(#_clip1)">
                            <path d="M-15.785,-9.362C-9.485,-14.591 -2.169,-13.582 5.553,-9.362" style="fill:none;fill-rule:nonzero;stroke:white;stroke-width:5px;"/>
                        </g>
                    </g>
                </g>
            </g>
            <g transform="matrix(1,0,0,1,-102.882,207.327)">
                <path d="M0,34.641C0,11.704 -25.842,-6.889 -57.721,-6.889C-89.599,-6.889 -115.441,11.704 -115.441,34.641C-115.441,34.641 -115.441,41.53 -105.866,41.53L-8.766,41.53C-3.506,41.53 0,39.281 0,34.641" style="fill:rgb(166,171,0);fill-rule:nonzero;"/>
            </g>
            <g transform="matrix(1,0,0,1,-191.601,211.42)">
                <path d="M0,20.021C0,6.764 -14.936,-3.982 -33.361,-3.982C-51.786,-3.982 -66.722,6.764 -66.722,20.021C-66.722,20.021 -66.722,24.003 -61.188,24.003L-5.066,24.003C-2.026,24.003 0,22.703 0,20.021" style="fill:rgb(248,198,52);fill-rule:nonzero;"/>
            </g>
            <g transform="matrix(1,0,0,1,-183.363,260.801)">
                <path d="M0,17.378L23.944,17.378C33.588,17.378 41.323,10.547 41.323,0" style="fill:none;fill-rule:nonzero;stroke:rgb(177,117,85);stroke-width:5px;"/>
            </g>
            <g transform="matrix(1,0,0,1,-108.85,239.066)">
                <path d="M0,20.021C0,6.764 -14.937,-3.982 -33.361,-3.982C-51.786,-3.982 -66.722,6.764 -66.722,20.021C-66.722,20.021 -66.722,24.003 -61.188,24.003L-5.067,24.003C-1.397,24.003 0,22.703 0,20.021" style="fill:rgb(92,87,0);fill-rule:nonzero;"/>
            </g>
            <g transform="matrix(1,0,0,1,-438.065,-30.229)">
                <g opacity="0.5">
                    <g transform="matrix(1,0,0,1,311.161,241.859)">
                        <path d="M0,8.175C0,2.763 -6.098,-1.625 -13.62,-1.625C-21.141,-1.625 -27.239,2.763 -27.239,8.175C-27.239,8.175 -27.08,9.8 -24.979,9.8L-2.068,9.8C-0.828,9.8 0,9.27 0,8.175" style="fill:white;fill-rule:nonzero;"/>
                    </g>
                </g>
            </g>
            <g transform="matrix(1,0,0,1,-438.065,-30.229)">
                <g opacity="0.5">
                    <g transform="matrix(1,0,0,1,270.787,254.248)">
                        <path d="M0,5.908C0,1.996 -4.408,-1.175 -9.844,-1.175C-15.281,-1.175 -19.688,1.996 -19.688,5.908C-19.688,5.908 -19.573,7.083 -18.055,7.083L-1.495,7.083C-0.598,7.083 0,6.699 0,5.908" style="fill:white;fill-rule:nonzero;"/>
                    </g>
                </g>
            </g>
            <g transform="matrix(1,0,0,1,-438.065,-30.229)">
                <g opacity="0.5">
                    <g transform="matrix(1,0,0,1,214.372,244.577)">
                        <path d="M0,5.908C0,1.996 -4.407,-1.175 -9.844,-1.175C-15.281,-1.175 -19.688,1.996 -19.688,5.908C-19.688,5.908 -19.573,7.083 -18.055,7.083L-1.495,7.083C-0.598,7.083 0,6.699 0,5.908" style="fill:white;fill-rule:nonzero;"/>
                    </g>
                </g>
            </g>
            <g transform="matrix(1,0,0,1,-438.065,-30.229)">
                <g opacity="0.5">
                    <g transform="matrix(1,0,0,1,315.542,271.795)">
                        <path d="M0,7.593C0,2.566 -5.664,-1.51 -12.651,-1.51C-19.638,-1.51 -25.301,2.566 -25.301,7.593C-25.301,7.593 -25.301,9.103 -23.203,9.103L-1.921,9.103C-0.769,9.103 0,8.61 0,7.593" style="fill:white;fill-rule:nonzero;"/>
                    </g>
                </g>
            </g>
            <g transform="matrix(1,0,0,1,-438.065,-30.229)">
                <g opacity="0.5">
                    <g transform="matrix(0,-1,-1,0,317.01,252.384)">
                        <path d="M-2.161,-2.161C-3.354,-2.161 -4.323,-1.193 -4.323,0.001C-4.323,1.193 -3.354,2.161 -2.161,2.161C-0.968,2.161 -0,1.193 -0,0.001C-0,-1.193 -0.968,-2.161 -2.161,-2.161" style="fill:white;fill-rule:nonzero;"/>
                    </g>
                </g>
            </g>
            <g transform="matrix(1,0,0,1,-438.065,-30.229)">
                <g opacity="0.5">
                    <g transform="matrix(0,-1,-1,0,286.083,276.925)">
                        <path d="M-2.161,-2.162C-3.355,-2.162 -4.323,-1.194 -4.323,-0.001C-4.323,1.193 -3.355,2.161 -2.161,2.161C-0.968,2.161 0,1.193 0,-0.001C0,-1.194 -0.968,-2.162 -2.161,-2.162" style="fill:white;fill-rule:nonzero;"/>
                    </g>
                </g>
            </g>
            <g transform="matrix(1,0,0,1,-438.065,-30.229)">
                <g opacity="0.5">
                    <g transform="matrix(0,-1,-1,0,218.412,247.531)">
                        <path d="M-2.162,-2.161C-3.355,-2.161 -4.323,-1.193 -4.323,0.001C-4.323,1.194 -3.355,2.162 -2.162,2.162C-0.968,2.162 0,1.194 0,0.001C0,-1.193 -0.968,-2.161 -2.162,-2.161" style="fill:white;fill-rule:nonzero;"/>
                    </g>
                </g>
            </g>
            <g transform="matrix(1,0,0,1,-438.065,-30.229)">
                <g opacity="0.5">
                    <g transform="matrix(0.988797,-0.149269,-0.149269,-0.988797,248.242,243.052)">
                        <clipPath id="_clip2">
                            <path d="M-2.139,1.732L39.807,-4.6L41.225,4.794L-0.72,11.126L-2.139,1.732Z" clip-rule="nonzero"/>
                        </clipPath>
                        <g clip-path="url(#_clip2)">
                            <path d="M-0.431,2.991C-0.431,2.991 17.526,9.118 39.436,2.991" style="fill:none;fill-rule:nonzero;stroke:white;stroke-width:3px;"/>
                        </g>
                    </g>
                </g>
            </g>
            <g transform="matrix(1,0,0,1,-210.743,329.436)">
                <path d="M0,5.745C0,1.941 4.285,-1.142 9.571,-1.142C14.857,-1.142 19.142,1.941 19.142,5.745C19.142,5.745 19.142,6.887 17.555,6.887L1.454,6.887C0.401,6.887 0,6.514 0,5.745" style="fill:rgb(92,87,0);fill-rule:nonzero;"/>
            </g>
            <g transform="matrix(1,0,0,1,-232.792,324.802)">
                <path d="M0,9.61C0,3.247 7.169,-1.911 16.014,-1.911C24.858,-1.911 32.028,3.247 32.028,9.61C32.028,9.61 32.028,11.521 29.372,11.521L2.432,11.521C0.67,11.521 0,10.897 0,9.61" style="fill:rgb(92,87,0);fill-rule:nonzero;"/>
            </g>
            <g transform="matrix(1,0,0,1,-438.065,-30.229)">
                <g opacity="0.5">
                    <g transform="matrix(0,-1,-1,0,216.142,357.897)">
                        <path d="M-1.251,-1.251C-1.942,-1.251 -2.502,-0.69 -2.502,-0C-2.502,0.69 -1.942,1.251 -1.251,1.251C-0.561,1.251 0,0.69 0,-0C0,-0.69 -0.561,-1.251 -1.251,-1.251" style="fill:white;fill-rule:nonzero;"/>
                    </g>
                </g>
            </g>
        </g>
    </g>
</svg>
