<?xml version="1.0" encoding="UTF-8" standalone="no"?>
<!DOCTYPE svg PUBLIC "-//W3C//DTD SVG 1.1//EN" "http://www.w3.org/Graphics/SVG/1.1/DTD/svg11.dtd">
<svg width="100%" height="100%" viewBox="0 0 100 100" version="1.1" xmlns="http://www.w3.org/2000/svg" xmlns:xlink="http://www.w3.org/1999/xlink" xml:space="preserve" xmlns:serif="http://www.serif.com/" style="fill-rule:evenodd;clip-rule:evenodd;stroke-linecap:round;stroke-miterlimit:10;">
    <g transform="matrix(1,0,0,1,-923.344,-126)">
        <g id="double" transform="matrix(0.998677,0,0,0.998677,148.703,-0.418022)">
            <rect x="775.667" y="126.585" width="100.132" height="100.132" style="fill:none;"/>
            <clipPath id="_clip1">
                <rect x="775.667" y="126.585" width="100.132" height="100.132"/>
            </clipPath>
            <g clip-path="url(#_clip1)">
                <g id="cell" transform="matrix(1.00132,0,0,1.00132,-148.958,1.25869)">
                    <g transform="matrix(0.827948,0,0,0.827948,973.224,148.664)">
                        <path d="M0,64.316C-24.848,64.316 -45.063,49.89 -45.063,32.158C-45.063,14.425 -24.848,0 0,0C24.848,0 45.063,14.425 45.063,32.158C45.063,49.89 24.848,64.316 0,64.316" style="fill:rgb(0,146,69);fill-rule:nonzero;"/>
                    </g>
                    <g transform="matrix(0.827948,0,0,0.827948,973.224,203.156)">
                        <path d="M0,-67.316C-12.249,-67.316 -23.801,-63.933 -32.53,-57.79C-41.579,-51.421 -46.563,-42.851 -46.563,-33.658C-46.563,-24.464 -41.579,-15.894 -32.53,-9.526C-23.801,-3.382 -12.249,0 0,0C12.249,0 23.802,-3.382 32.53,-9.526C41.58,-15.894 46.563,-24.464 46.563,-33.658C46.563,-42.851 41.58,-51.421 32.53,-57.79C23.802,-63.933 12.249,-67.316 0,-67.316M0,-64.316C24.059,-64.316 43.563,-50.59 43.563,-33.658C43.563,-16.726 24.059,-3 0,-3C-24.059,-3 -43.563,-16.726 -43.563,-33.658C-43.563,-50.59 -24.059,-64.316 0,-64.316" style="fill:rgb(0,104,55);fill-rule:nonzero;"/>
                    </g>
                    <g transform="matrix(0.827948,0,0,0.827948,776.707,31.8212)">
                        <g opacity="0.4">
                            <g transform="matrix(0,-1,-1,0,237.353,140.355)">
                                <path d="M-32.927,-32.927C-43.781,-32.927 -53.581,-17.374 -53.581,0C-53.581,18.424 -43.781,32.927 -32.927,32.927C-22.073,32.927 -12.273,17.374 -12.273,0C-12.273,-17.934 -22.073,-32.927 -32.927,-32.927" style="fill:rgb(0,104,55);fill-rule:nonzero;"/>
                            </g>
                        </g>
                    </g>
                    <g transform="matrix(0.359602,-0.745777,-0.745777,-0.359602,951.13,174.711)">
                        <path d="M-3.34,5.318C0.083,6.969 4.217,6.847 8.469,5.318" style="fill:none;fill-rule:nonzero;stroke:rgb(0,104,55);stroke-width:2.42px;"/>
                    </g>
                    <g transform="matrix(0.827948,0,0,0.827948,981.38,185.12)">
                        <path d="M0,7.728C-3.147,8.409 -6.464,8.781 -9.852,8.781C-21.701,8.781 -31.928,4.727 -37.718,-1.053" style="fill:none;fill-rule:nonzero;stroke:rgb(0,104,55);stroke-width:2.42px;"/>
                    </g>
                    <g transform="matrix(-0.815451,-0.143304,-0.143304,0.815451,958.251,191.724)">
                        <path d="M-18.647,1.626C-11.908,2.81 -5.464,2.713 0.142,1.626" style="fill:none;fill-rule:nonzero;stroke:rgb(0,104,55);stroke-width:2.42px;"/>
                    </g>
                    <g transform="matrix(0.827948,0,0,0.827948,984.993,185.936)">
                        <path d="M0,-31.367C10.99,-27.896 18.712,-20.649 18.712,-12.859C18.712,-8.132 15.763,-3.604 10.997,0" style="fill:none;fill-rule:nonzero;stroke:rgb(0,104,55);stroke-width:2.42px;"/>
                    </g>
                    <g transform="matrix(0.431712,0.706486,0.706486,-0.431712,1003.26,160.706)">
                        <path d="M-4.793,-8.547C2.324,-5.394 9.695,-5.159 15.238,-8.547" style="fill:none;fill-rule:nonzero;stroke:rgb(85,224,98);stroke-width:2.42px;"/>
                    </g>
                    <g transform="matrix(0.803414,-0.200056,-0.200056,-0.803414,956.288,164.681)">
                        <path d="M-0.327,2.667C6.165,4.425 14.018,4.59 21.744,2.667" style="fill:none;fill-rule:nonzero;stroke:rgb(0,104,55);stroke-width:2.42px;"/>
                    </g>
                    <g transform="matrix(0.827948,0,0,0.827948,973.224,200.672)">
                        <path d="M0,-61.316C-24.059,-61.316 -43.563,-47.59 -43.563,-30.658C-43.563,-13.726 -24.059,0 0,0C24.059,0 43.563,-13.726 43.563,-30.658C43.563,-47.59 24.059,-61.316 0,-61.316M0,-58.316C22.367,-58.316 40.563,-45.909 40.563,-30.658C40.563,-15.407 22.367,-3 0,-3C-22.366,-3 -40.563,-15.407 -40.563,-30.658C-40.563,-45.909 -22.366,-58.316 0,-58.316" style="fill:rgb(57,181,74);fill-rule:nonzero;"/>
                    </g>
                    <g transform="matrix(0,-0.827948,-0.827948,0,978.27,150.989)">
                        <path d="M-3.574,-3.575C-5.549,-3.575 -7.149,-1.974 -7.149,-0C-7.149,1.974 -5.549,3.574 -3.574,3.574C-1.6,3.574 0,1.974 0,-0C0,-1.974 -1.6,-3.575 -3.574,-3.575" style="fill:rgb(57,181,74);fill-rule:nonzero;"/>
                    </g>
                    <g transform="matrix(0,-0.827948,-0.827948,0,989.184,190.635)">
                        <path d="M-3.575,-3.575C-5.549,-3.575 -7.15,-1.974 -7.15,0C-7.15,1.975 -5.549,3.575 -3.575,3.575C-1.6,3.575 -0,1.975 -0,0C-0,-1.974 -1.6,-3.575 -3.575,-3.575" style="fill:rgb(57,181,74);fill-rule:nonzero;"/>
                    </g>
                    <g transform="matrix(0,-0.827948,-0.827948,0,993.167,190.403)">
                        <path d="M-2.4,-2.4C-3.725,-2.4 -4.799,-1.326 -4.799,0C-4.799,1.325 -3.725,2.4 -2.4,2.4C-1.075,2.4 -0.001,1.325 -0.001,0C-0.001,-1.326 -1.075,-2.4 -2.4,-2.4" style="fill:rgb(57,181,74);fill-rule:nonzero;"/>
                    </g>
                    <g transform="matrix(0,-0.827948,-0.827948,0,982.192,152.248)">
                        <path d="M-2.052,-2.054C-3.188,-2.054 -4.106,-1.135 -4.106,-0.001C-4.106,1.134 -3.188,2.052 -2.052,2.052C-0.918,2.052 0.001,1.134 0.001,-0.001C0.001,-1.135 -0.918,-2.054 -2.052,-2.054" style="fill:rgb(57,181,74);fill-rule:nonzero;"/>
                    </g>
                    <g transform="matrix(0,-0.827948,-0.827948,0,942.139,177.945)">
                        <path d="M-3.575,-3.574C-5.55,-3.574 -7.149,-1.974 -7.149,0.001C-7.149,1.975 -5.55,3.575 -3.575,3.575C-1.6,3.575 0,1.975 0,0.001C0,-1.974 -1.6,-3.574 -3.575,-3.574" style="fill:rgb(57,181,74);fill-rule:nonzero;"/>
                    </g>
                    <g transform="matrix(0,-0.827948,-0.827948,0,943.194,182.631)">
                        <path d="M-2.3,-2.3C-3.571,-2.3 -4.6,-1.27 -4.6,0C-4.6,1.27 -3.571,2.3 -2.3,2.3C-1.029,2.3 0,1.27 0,0C0,-1.27 -1.029,-2.3 -2.3,-2.3" style="fill:rgb(57,181,74);fill-rule:nonzero;"/>
                    </g>
                    <g transform="matrix(0,-0.827948,-0.827948,0,942.451,174.369)">
                        <path d="M-1.616,-1.615C-2.508,-1.615 -3.231,-0.892 -3.231,0C-3.231,0.892 -2.508,1.616 -1.616,1.616C-0.723,1.616 0,0.892 0,0C0,-0.892 -0.723,-1.615 -1.616,-1.615" style="fill:rgb(57,181,74);fill-rule:nonzero;"/>
                    </g>
                </g>
                <g id="flagella" transform="matrix(1.00132,0,0,1.00132,-148.958,1.25869)">
                    <g transform="matrix(0.323528,0.76212,0.76212,-0.323528,959.942,142.339)">
                        <path d="M-4.496,-4.956C-4.496,-4.956 1.254,-9.566 8.268,-4.956" style="fill:none;fill-rule:nonzero;stroke:rgb(0,104,55);stroke-width:3.62px;"/>
                    </g>
                    <g transform="matrix(-0.323528,0.76212,0.76212,0.323528,994.493,148.421)">
                        <path d="M-7.489,-6.793C-7.489,-6.793 -1.739,-2.185 5.276,-6.793" style="fill:none;fill-rule:nonzero;stroke:rgb(0,104,55);stroke-width:3.62px;"/>
                    </g>
                    <g transform="matrix(-0.668127,0.488982,0.488982,0.668127,1009.36,165.003)">
                        <path d="M-11.533,-3.77C-11.533,-3.77 -5.783,0.839 1.232,-3.77" style="fill:none;fill-rule:nonzero;stroke:rgb(0,104,55);stroke-width:3.62px;"/>
                    </g>
                    <g transform="matrix(0.668127,0.488982,0.488982,-0.668127,933.675,154.929)">
                        <path d="M-1.232,-3.77C-1.232,-3.77 4.518,-8.378 11.533,-3.77" style="fill:none;fill-rule:nonzero;stroke:rgb(0,104,55);stroke-width:3.62px;"/>
                    </g>
                    <g transform="matrix(0.299718,-0.771794,-0.771794,-0.299718,980.815,147.194)">
                        <path d="M-2.418,3.533C-2.418,3.533 2.06,5.093 5.162,3.533" style="fill:none;fill-rule:nonzero;stroke:rgb(0,104,55);stroke-width:3.62px;"/>
                    </g>
                    <g transform="matrix(0.708063,-0.429119,-0.429119,-0.708063,999.294,155.718)">
                        <path d="M-0.549,1.964C-0.549,1.964 3.929,3.525 7.032,1.965" style="fill:none;fill-rule:nonzero;stroke:rgb(0,104,55);stroke-width:3.62px;"/>
                    </g>
                    <g transform="matrix(-0.708063,-0.429119,-0.429119,0.708063,944.249,150.154)">
                        <path d="M-7.032,1.965C-7.032,1.965 -2.554,0.404 0.549,1.964" style="fill:none;fill-rule:nonzero;stroke:rgb(0,104,55);stroke-width:3.62px;"/>
                    </g>
                    <g transform="matrix(-0.299623,-0.771831,-0.771831,0.299623,970.265,142.959)">
                        <path d="M-5.161,3.533C-5.161,3.533 -0.683,1.973 2.418,3.533" style="fill:none;fill-rule:nonzero;stroke:rgb(0,104,55);stroke-width:3.62px;"/>
                    </g>
                    <g transform="matrix(0.323528,-0.76212,-0.76212,-0.323528,959.942,207.983)">
                        <path d="M-4.496,4.956C-4.496,4.956 1.254,9.566 8.268,4.956" style="fill:none;fill-rule:nonzero;stroke:rgb(0,104,55);stroke-width:3.62px;"/>
                    </g>
                    <g transform="matrix(-0.323528,-0.76212,-0.76212,0.323528,994.493,201.901)">
                        <path d="M-7.489,6.793C-7.489,6.793 -1.738,2.184 5.276,6.793" style="fill:none;fill-rule:nonzero;stroke:rgb(0,104,55);stroke-width:3.62px;"/>
                    </g>
                    <g transform="matrix(-0.668127,-0.488982,-0.488982,0.668127,1009.36,185.319)">
                        <path d="M-11.533,3.77C-11.533,3.77 -5.783,-0.839 1.232,3.77" style="fill:none;fill-rule:nonzero;stroke:rgb(0,104,55);stroke-width:3.62px;"/>
                    </g>
                    <g transform="matrix(0.668127,-0.488982,-0.488982,-0.668127,933.675,195.393)">
                        <path d="M-1.232,3.77C-1.232,3.77 4.518,8.378 11.533,3.77" style="fill:none;fill-rule:nonzero;stroke:rgb(0,104,55);stroke-width:3.62px;"/>
                    </g>
                    <g transform="matrix(0.299718,0.771794,0.771794,-0.299718,980.815,203.128)">
                        <path d="M-2.418,-3.533C-2.418,-3.533 2.059,-5.092 5.162,-3.533" style="fill:none;fill-rule:nonzero;stroke:rgb(0,104,55);stroke-width:3.62px;"/>
                    </g>
                    <g transform="matrix(0.708063,0.429119,0.429119,-0.708063,999.294,194.604)">
                        <path d="M-0.549,-1.964C-0.549,-1.964 3.929,-3.524 7.032,-1.965" style="fill:none;fill-rule:nonzero;stroke:rgb(0,104,55);stroke-width:3.62px;"/>
                    </g>
                    <g transform="matrix(-0.708063,0.429119,0.429119,0.708063,944.249,200.168)">
                        <path d="M-7.032,-1.965C-7.032,-1.965 -2.554,-0.405 0.549,-1.964" style="fill:none;fill-rule:nonzero;stroke:rgb(0,104,55);stroke-width:3.62px;"/>
                    </g>
                    <g transform="matrix(-0.299623,0.771831,0.771831,0.299623,970.265,207.363)">
                        <path d="M-5.161,-3.533C-5.161,-3.533 -0.684,-1.973 2.418,-3.533" style="fill:none;fill-rule:nonzero;stroke:rgb(0,104,55);stroke-width:3.62px;"/>
                    </g>
                    <g transform="matrix(-0.733945,0.383173,0.383173,0.733945,1012.14,176.636)">
                        <path d="M-8.58,-2.105C-8.58,-2.105 -5.315,-0.522 0.516,-2.105" style="fill:none;fill-rule:nonzero;stroke:rgb(0,104,55);stroke-width:3.62px;"/>
                    </g>
                    <g transform="matrix(0.733945,0.383173,0.383173,-0.733945,930.358,170.456)">
                        <path d="M-0.516,-2.105C-0.516,-2.105 2.749,-3.688 8.58,-2.105" style="fill:none;fill-rule:nonzero;stroke:rgb(0,104,55);stroke-width:3.62px;"/>
                    </g>
                </g>
            </g>
        </g>
    </g>
</svg>
