<?xml version="1.0" encoding="UTF-8" standalone="no"?>
<!DOCTYPE svg PUBLIC "-//W3C//DTD SVG 1.1//EN" "http://www.w3.org/Graphics/SVG/1.1/DTD/svg11.dtd">
<svg width="100%" height="100%" viewBox="0 0 25 18" version="1.1" xmlns="http://www.w3.org/2000/svg" xmlns:xlink="http://www.w3.org/1999/xlink" xml:space="preserve" xmlns:serif="http://www.serif.com/" style="fill-rule:evenodd;clip-rule:evenodd;stroke-linejoin:round;stroke-miterlimit:2;">
    <g transform="matrix(1,0,0,1,-520.91,-394.119)">
        <g transform="matrix(0.25435,0,0,0.25435,385.666,296.724)">
            <g opacity="0.3">
                <g transform="matrix(1,0,0,1,580.863,385.826)">
                    <path d="M0,64.316C-24.848,64.316 -45.063,49.89 -45.063,32.158C-45.063,14.425 -24.848,0 0,0C24.848,0 45.063,14.425 45.063,32.158C45.063,49.89 24.848,64.316 0,64.316" style="fill:rgb(0,146,69);fill-rule:nonzero;"/>
                </g>
                <g transform="matrix(1.09043,0,0,1.09043,580.863,382.918)">
                    <path d="M0,64.316C-24.848,64.316 -45.063,49.89 -45.063,32.158C-45.063,14.425 -24.848,0 0,0C24.848,0 45.063,14.425 45.063,32.158C45.063,49.89 24.848,64.316 0,64.316" style="fill:rgb(0,146,69);fill-opacity:0.4;fill-rule:nonzero;"/>
                </g>
                <g transform="matrix(1,0,0,1,580.863,451.642)">
                    <path d="M0,-67.316C-12.249,-67.316 -23.801,-63.933 -32.53,-57.79C-41.579,-51.421 -46.563,-42.851 -46.563,-33.658C-46.563,-24.464 -41.579,-15.894 -32.53,-9.526C-23.801,-3.382 -12.249,0 0,0C12.249,0 23.802,-3.382 32.53,-9.526C41.58,-15.894 46.563,-24.464 46.563,-33.658C46.563,-42.851 41.58,-51.421 32.53,-57.79C23.802,-63.933 12.249,-67.316 0,-67.316M0,-64.316C24.059,-64.316 43.563,-50.59 43.563,-33.658C43.563,-16.726 24.059,-3 0,-3C-24.059,-3 -43.563,-16.726 -43.563,-33.658C-43.563,-50.59 -24.059,-64.316 0,-64.316" style="fill:rgb(0,104,55);fill-rule:nonzero;"/>
                </g>
                <g transform="matrix(1,0,0,1,343.509,244.702)">
                    <g opacity="0.4">
                        <g transform="matrix(0,-1,-1,0,237.353,140.355)">
                            <path d="M-32.927,-32.927C-43.781,-32.927 -53.581,-17.374 -53.581,0C-53.581,18.424 -43.781,32.927 -32.927,32.927C-22.073,32.927 -12.273,17.374 -12.273,0C-12.273,-17.934 -22.073,-32.927 -32.927,-32.927" style="fill:rgb(0,104,55);fill-rule:nonzero;"/>
                        </g>
                    </g>
                </g>
                <g transform="matrix(1,0,0,1,580.863,448.642)">
                    <path d="M0,-61.316C-24.059,-61.316 -43.563,-47.59 -43.563,-30.658C-43.563,-13.726 -24.059,0 0,0C24.059,0 43.563,-13.726 43.563,-30.658C43.563,-47.59 24.059,-61.316 0,-61.316M0,-58.316C22.367,-58.316 40.563,-45.909 40.563,-30.658C40.563,-15.407 22.367,-3 0,-3C-22.366,-3 -40.563,-15.407 -40.563,-30.658C-40.563,-45.909 -22.366,-58.316 0,-58.316" style="fill:rgb(57,181,74);fill-rule:nonzero;"/>
                </g>
                <g transform="matrix(1,0,0,1,580.863,404.209)">
                    <path d="M0,27.943C-7.704,27.943 -13.971,21.675 -13.971,13.971C-13.971,6.267 -7.704,0 0,0C7.704,0 13.972,6.267 13.972,13.971C13.972,21.675 7.704,27.943 0,27.943" style="fill:rgb(251,176,59);fill-rule:nonzero;"/>
                </g>
                <g transform="matrix(1,0,0,1,580.863,434.151)">
                    <path d="M0,-31.943C-8.807,-31.943 -15.971,-24.778 -15.971,-15.971C-15.971,-7.165 -8.807,0 0,0C8.807,0 15.972,-7.165 15.972,-15.971C15.972,-24.778 8.807,-31.943 0,-31.943M0,-27.943C6.612,-27.943 11.972,-22.583 11.972,-15.971C11.972,-9.359 6.612,-4 0,-4C-6.611,-4 -11.971,-9.359 -11.971,-15.971C-11.971,-22.583 -6.611,-27.943 0,-27.943" style="fill:rgb(0,104,55);fill-rule:nonzero;"/>
                </g>
                <g transform="matrix(1,0,0,1,580.863,405.209)">
                    <path d="M0,25.943C-7.152,25.943 -12.971,20.124 -12.971,12.971C-12.971,5.819 -7.152,0 0,0C7.153,0 12.972,5.819 12.972,12.971C12.972,20.124 7.153,25.943 0,25.943" style="fill:rgb(193,39,45);fill-rule:nonzero;"/>
                </g>
                <g transform="matrix(1,0,0,1,580.863,432.151)">
                    <path d="M0,-27.943C-7.704,-27.943 -13.971,-21.675 -13.971,-13.971C-13.971,-6.267 -7.704,0 0,0C7.704,0 13.972,-6.267 13.972,-13.971C13.972,-21.675 7.704,-27.943 0,-27.943M0,-25.943C6.612,-25.943 11.972,-20.583 11.972,-13.971C11.972,-7.359 6.612,-2 0,-2C-6.611,-2 -11.971,-7.359 -11.971,-13.971C-11.971,-20.583 -6.611,-25.943 0,-25.943" style="fill:rgb(137,29,37);fill-rule:nonzero;"/>
                </g>
                <g transform="matrix(1,0,0,1,343.509,244.702)">
                    <g opacity="0.25">
                        <g transform="matrix(0,-1,-1,0,237.353,167.383)">
                            <path d="M-6.094,-6.096C-9.461,-6.096 -12.191,-3.367 -12.191,-0.001C-12.191,3.366 -9.461,6.094 -6.094,6.094C-2.728,6.094 0.001,3.366 0.001,-0.001C0.001,-3.367 -2.728,-6.096 -6.094,-6.096" style="fill:white;fill-rule:nonzero;"/>
                        </g>
                    </g>
                </g>
            </g>
        </g>
    </g>
</svg>
