<?xml version="1.0" encoding="UTF-8" standalone="no"?>
<!DOCTYPE svg PUBLIC "-//W3C//DTD SVG 1.1//EN" "http://www.w3.org/Graphics/SVG/1.1/DTD/svg11.dtd">
<svg width="100%" height="100%" viewBox="0 0 100 100" version="1.1" xmlns="http://www.w3.org/2000/svg" xmlns:xlink="http://www.w3.org/1999/xlink" xml:space="preserve" xmlns:serif="http://www.serif.com/" style="fill-rule:evenodd;clip-rule:evenodd;stroke-linecap:round;stroke-miterlimit:10;">
    <g transform="matrix(1,0,0,1,-923.344,-126)">
        <g id="double" transform="matrix(0.998677,0,0,0.998677,148.703,-0.418022)">
            <rect x="775.667" y="126.585" width="100.132" height="100.132" style="fill:none;"/>
            <g id="Layer1" transform="matrix(1.00132,0,0,1.00132,-148.958,1.25869)">
                <g transform="matrix(0,-0.827948,-0.827948,0,984.19,163.524)">
                    <path d="M-3.575,-3.575C-5.55,-3.575 -7.15,-1.974 -7.15,0C-7.15,1.975 -5.55,3.575 -3.575,3.575C-1.6,3.575 -0,1.975 -0,0C-0,-1.974 -1.6,-3.575 -3.575,-3.575" style="fill:rgb(85,224,98);fill-rule:nonzero;"/>
                </g>
                <g transform="matrix(0,-0.827948,-0.827948,0,985.822,167.943)">
                    <path d="M-2.331,-2.331C-3.618,-2.331 -4.663,-1.287 -4.663,-0.001C-4.663,1.288 -3.618,2.331 -2.331,2.331C-1.044,2.331 -0.001,1.288 -0.001,-0.001C-0.001,-1.287 -1.044,-2.331 -2.331,-2.331" style="fill:rgb(85,224,98);fill-rule:nonzero;"/>
                </g>
                <g transform="matrix(0,-0.827948,-0.827948,0,962.373,182.632)">
                    <path d="M-2.331,-2.331C-3.618,-2.331 -4.662,-1.288 -4.662,0C-4.662,1.287 -3.618,2.331 -2.331,2.331C-1.043,2.331 0,1.287 0,0C0,-1.288 -1.043,-2.331 -2.331,-2.331" style="fill:rgb(85,224,98);fill-rule:nonzero;"/>
                </g>
                <g transform="matrix(-0.403365,0.723045,0.723045,0.403365,989.348,186.837)">
                    <path d="M-7.725,-4.536C-4.269,-3.595 -0.684,-3.63 2.664,-4.536" style="fill:none;fill-rule:nonzero;stroke:rgb(85,224,98);stroke-width:2.42px;"/>
                </g>
                <g transform="matrix(0.827948,0,0,0.827948,957.521,167.615)">
                    <path d="M0,15.372C-0.58,13.506 -0.893,11.522 -0.893,9.466C-0.893,6.039 -0.024,2.813 1.504,0" style="fill:none;fill-rule:nonzero;stroke:rgb(85,224,98);stroke-width:2.42px;"/>
                </g>
            </g>
        </g>
    </g>
</svg>
