<?xml version="1.0" encoding="UTF-8" standalone="no"?>
<!DOCTYPE svg PUBLIC "-//W3C//DTD SVG 1.1//EN" "http://www.w3.org/Graphics/SVG/1.1/DTD/svg11.dtd">
<svg width="100%" height="100%" viewBox="0 0 137 114" version="1.1" xmlns="http://www.w3.org/2000/svg" xmlns:xlink="http://www.w3.org/1999/xlink" xml:space="preserve" xmlns:serif="http://www.serif.com/" style="fill-rule:evenodd;clip-rule:evenodd;stroke-linecap:round;stroke-miterlimit:10;">
    <g transform="matrix(1,0,0,1,-563.031,-116.207)">
        <g transform="matrix(1,0,0,1,393.958,0)">
            <g transform="matrix(1,0,0,1,237.354,141.124)">
                <path d="M0,64.316C-24.848,64.316 -45.063,49.89 -45.063,32.158C-45.063,14.425 -24.848,0 0,0C24.848,0 45.063,14.425 45.063,32.158C45.063,49.89 24.848,64.316 0,64.316" style="fill:rgb(0,146,69);fill-rule:nonzero;"/>
            </g>
        </g>
        <g transform="matrix(1,0,0,1,393.958,0)">
            <g transform="matrix(1,0,0,1,237.354,206.939)">
                <path d="M0,-67.316C-12.249,-67.316 -23.801,-63.933 -32.53,-57.79C-41.579,-51.421 -46.563,-42.851 -46.563,-33.658C-46.563,-24.464 -41.579,-15.894 -32.53,-9.526C-23.801,-3.382 -12.249,0 0,0C12.249,0 23.802,-3.382 32.53,-9.526C41.58,-15.894 46.563,-24.464 46.563,-33.658C46.563,-42.851 41.58,-51.421 32.53,-57.79C23.802,-63.933 12.249,-67.316 0,-67.316M0,-64.316C24.059,-64.316 43.563,-50.59 43.563,-33.658C43.563,-16.726 24.059,-3 0,-3C-24.059,-3 -43.563,-16.726 -43.563,-33.658C-43.563,-50.59 -24.059,-64.316 0,-64.316" style="fill:rgb(0,104,55);fill-rule:nonzero;"/>
            </g>
        </g>
        <g transform="matrix(1,0,0,1,393.958,0)">
            <g opacity="0.4">
                <g transform="matrix(0,-1,-1,0,237.353,140.355)">
                    <path d="M-32.927,-32.927C-43.781,-32.927 -53.581,-17.374 -53.581,0C-53.581,18.424 -43.781,32.927 -32.927,32.927C-22.073,32.927 -12.273,17.374 -12.273,0C-12.273,-17.934 -22.073,-32.927 -32.927,-32.927" style="fill:rgb(0,104,55);fill-rule:nonzero;"/>
                </g>
            </g>
        </g>
        <g transform="matrix(1,0,0,1,393.958,0)">
            <g transform="matrix(0,-1,-1,0,250.599,159.071)">
                <path d="M-3.575,-3.575C-5.55,-3.575 -7.15,-1.974 -7.15,0C-7.15,1.975 -5.55,3.575 -3.575,3.575C-1.6,3.575 -0,1.975 -0,0C-0,-1.974 -1.6,-3.575 -3.575,-3.575" style="fill:rgb(85,224,98);fill-rule:nonzero;"/>
            </g>
        </g>
        <g transform="matrix(1,0,0,1,393.958,0)">
            <g transform="matrix(0,-1,-1,0,252.57,164.409)">
                <path d="M-2.331,-2.331C-3.618,-2.331 -4.663,-1.287 -4.663,-0.001C-4.663,1.288 -3.618,2.331 -2.331,2.331C-1.044,2.331 -0.001,1.288 -0.001,-0.001C-0.001,-1.287 -1.044,-2.331 -2.331,-2.331" style="fill:rgb(85,224,98);fill-rule:nonzero;"/>
            </g>
        </g>
        <g transform="matrix(1,0,0,1,393.958,0)">
            <g transform="matrix(0,-1,-1,0,224.248,182.15)">
                <path d="M-2.331,-2.331C-3.618,-2.331 -4.662,-1.288 -4.662,0C-4.662,1.287 -3.618,2.331 -2.331,2.331C-1.043,2.331 0,1.287 0,0C0,-1.288 -1.043,-2.331 -2.331,-2.331" style="fill:rgb(85,224,98);fill-rule:nonzero;"/>
            </g>
        </g>
        <g transform="matrix(1,0,0,1,393.958,0)">
            <g transform="matrix(0.43433,-0.900754,-0.900754,-0.43433,210.668,172.583)">
                <path d="M-3.34,5.318C0.083,6.969 4.217,6.847 8.469,5.318" style="fill:none;fill-rule:nonzero;stroke:rgb(0,104,55);stroke-width:2px;"/>
            </g>
        </g>
        <g transform="matrix(1,0,0,1,393.958,0)">
            <g transform="matrix(1,0,0,1,247.205,185.155)">
                <path d="M0,7.728C-3.147,8.409 -6.464,8.781 -9.852,8.781C-21.701,8.781 -31.928,4.727 -37.718,-1.053" style="fill:none;fill-rule:nonzero;stroke:rgb(0,104,55);stroke-width:2px;"/>
            </g>
        </g>
        <g transform="matrix(1,0,0,1,393.958,0)">
            <g transform="matrix(-0.984907,-0.173084,-0.173084,0.984907,219.27,193.132)">
                <path d="M-18.647,1.626C-11.908,2.81 -5.464,2.713 0.142,1.626" style="fill:none;fill-rule:nonzero;stroke:rgb(0,104,55);stroke-width:2px;"/>
            </g>
        </g>
        <g transform="matrix(1,0,0,1,393.958,0)">
            <g transform="matrix(1,0,0,1,251.568,186.141)">
                <path d="M0,-31.367C10.99,-27.896 18.712,-20.649 18.712,-12.859C18.712,-8.132 15.763,-3.604 10.997,0" style="fill:none;fill-rule:nonzero;stroke:rgb(0,104,55);stroke-width:2px;"/>
            </g>
        </g>
        <g transform="matrix(1,0,0,1,393.958,0)">
            <g transform="matrix(0.521424,0.853298,0.853298,-0.521424,273.634,155.668)">
                <path d="M-4.793,-8.547C2.324,-5.394 9.695,-5.159 15.238,-8.547" style="fill:none;fill-rule:nonzero;stroke:rgb(85,224,98);stroke-width:2px;"/>
            </g>
        </g>
        <g transform="matrix(1,0,0,1,393.958,0)">
            <g transform="matrix(0.970369,-0.241629,-0.241629,-0.970369,216.898,160.469)">
                <path d="M-0.327,2.667C6.165,4.425 14.018,4.59 21.744,2.667" style="fill:none;fill-rule:nonzero;stroke:rgb(0,104,55);stroke-width:2px;"/>
            </g>
        </g>
        <g transform="matrix(1,0,0,1,393.958,0)">
            <g transform="matrix(1,0,0,1,237.354,203.939)">
                <path d="M0,-61.316C-24.059,-61.316 -43.563,-47.59 -43.563,-30.658C-43.563,-13.726 -24.059,0 0,0C24.059,0 43.563,-13.726 43.563,-30.658C43.563,-47.59 24.059,-61.316 0,-61.316M0,-58.316C22.367,-58.316 40.563,-45.909 40.563,-30.658C40.563,-15.407 22.367,-3 0,-3C-22.366,-3 -40.563,-15.407 -40.563,-30.658C-40.563,-45.909 -22.366,-58.316 0,-58.316" style="fill:rgb(57,181,74);fill-rule:nonzero;"/>
            </g>
        </g>
        <g transform="matrix(1,0,0,1,393.958,0)">
            <g transform="matrix(1,0,0,1,237.354,159.506)">
                <path d="M0,27.943C-7.704,27.943 -13.971,21.675 -13.971,13.971C-13.971,6.267 -7.704,0 0,0C7.704,0 13.972,6.267 13.972,13.971C13.972,21.675 7.704,27.943 0,27.943" style="fill:rgb(251,176,59);fill-rule:nonzero;"/>
            </g>
        </g>
        <g transform="matrix(1,0,0,1,393.958,0)">
            <g transform="matrix(1,0,0,1,237.354,189.449)">
                <path d="M0,-31.943C-8.807,-31.943 -15.971,-24.778 -15.971,-15.971C-15.971,-7.165 -8.807,0 0,0C8.807,0 15.972,-7.165 15.972,-15.971C15.972,-24.778 8.807,-31.943 0,-31.943M0,-27.943C6.612,-27.943 11.972,-22.583 11.972,-15.971C11.972,-9.359 6.612,-4 0,-4C-6.611,-4 -11.971,-9.359 -11.971,-15.971C-11.971,-22.583 -6.611,-27.943 0,-27.943" style="fill:rgb(0,104,55);fill-rule:nonzero;"/>
            </g>
        </g>
        <g transform="matrix(1,0,0,1,393.958,0)">
            <g transform="matrix(-0.487187,0.873298,0.873298,0.487187,256.829,187.228)">
                <path d="M-7.725,-4.536C-4.269,-3.595 -0.684,-3.63 2.664,-4.536" style="fill:none;fill-rule:nonzero;stroke:rgb(85,224,98);stroke-width:2px;"/>
            </g>
        </g>
        <g transform="matrix(1,0,0,1,393.958,0)">
            <g transform="matrix(1,0,0,1,218.387,164.012)">
                <path d="M0,15.372C-0.58,13.506 -0.893,11.522 -0.893,9.466C-0.893,6.039 -0.024,2.813 1.504,0" style="fill:none;fill-rule:nonzero;stroke:rgb(85,224,98);stroke-width:2px;"/>
            </g>
        </g>
        <g transform="matrix(1,0,0,1,393.958,0)">
            <g transform="matrix(1,0,0,1,237.354,160.506)">
                <path d="M0,25.943C-7.152,25.943 -12.971,20.124 -12.971,12.971C-12.971,5.819 -7.152,0 0,0C7.153,0 12.972,5.819 12.972,12.971C12.972,20.124 7.153,25.943 0,25.943" style="fill:rgb(193,39,45);fill-rule:nonzero;"/>
            </g>
        </g>
        <g transform="matrix(1,0,0,1,393.958,0)">
            <g transform="matrix(1,0,0,1,237.354,187.449)">
                <path d="M0,-27.943C-7.704,-27.943 -13.971,-21.675 -13.971,-13.971C-13.971,-6.267 -7.704,0 0,0C7.704,0 13.972,-6.267 13.972,-13.971C13.972,-21.675 7.704,-27.943 0,-27.943M0,-25.943C6.612,-25.943 11.972,-20.583 11.972,-13.971C11.972,-7.359 6.612,-2 0,-2C-6.611,-2 -11.971,-7.359 -11.971,-13.971C-11.971,-20.583 -6.611,-25.943 0,-25.943" style="fill:rgb(137,29,37);fill-rule:nonzero;"/>
            </g>
        </g>
        <g transform="matrix(1,0,0,1,393.958,0)">
            <g opacity="0.25">
                <g transform="matrix(0,-1,-1,0,237.353,167.383)">
                    <path d="M-6.094,-6.096C-9.461,-6.096 -12.191,-3.367 -12.191,-0.001C-12.191,3.366 -9.461,6.094 -6.094,6.094C-2.728,6.094 0.001,3.366 0.001,-0.001C0.001,-3.367 -2.728,-6.096 -6.094,-6.096" style="fill:white;fill-rule:nonzero;"/>
                </g>
            </g>
        </g>
        <g transform="matrix(1,0,0,1,393.958,0)">
            <g opacity="0.5">
                <g transform="matrix(1,0,0,1,226.522,162.647)">
                    <path d="M0,10.831C0,4.85 4.85,0 10.832,0C16.814,0 21.663,4.85 21.663,10.831" style="fill:none;fill-rule:nonzero;stroke:white;stroke-width:2px;"/>
                </g>
            </g>
        </g>
        <g transform="matrix(1,0,0,1,393.958,0)">
            <g opacity="0.25">
                <g transform="matrix(1,0,0,1,245.013,184.45)">
                    <path d="M0,-3.173C-1.96,-1.212 -4.668,0 -7.659,0C-10.65,0 -13.358,-1.212 -15.318,-3.173" style="fill:none;fill-rule:nonzero;stroke:black;stroke-width:2px;"/>
                </g>
            </g>
        </g>
        <g transform="matrix(1,0,0,1,393.958,0)">
            <g transform="matrix(0.390759,0.920493,0.920493,-0.390759,221.311,133.484)">
                <path d="M-4.496,-4.956C-4.496,-4.956 1.254,-9.566 8.268,-4.956" style="fill:none;fill-rule:nonzero;stroke:rgb(0,104,55);stroke-width:3px;"/>
            </g>
        </g>
        <g transform="matrix(1,0,0,1,393.958,0)">
            <g transform="matrix(-0.390759,0.920493,0.920493,0.390759,263.043,140.83)">
                <path d="M-7.489,-6.793C-7.489,-6.793 -1.739,-2.185 5.276,-6.793" style="fill:none;fill-rule:nonzero;stroke:rgb(0,104,55);stroke-width:3px;"/>
            </g>
        </g>
        <g transform="matrix(1,0,0,1,393.958,0)">
            <g transform="matrix(-0.806967,0.590596,0.590596,0.806967,280.996,160.857)">
                <path d="M-11.533,-3.77C-11.533,-3.77 -5.783,0.839 1.232,-3.77" style="fill:none;fill-rule:nonzero;stroke:rgb(0,104,55);stroke-width:3px;"/>
            </g>
        </g>
        <g transform="matrix(1,0,0,1,393.958,0)">
            <g transform="matrix(0.806967,0.590596,0.590596,-0.806967,189.586,148.69)">
                <path d="M-1.232,-3.77C-1.232,-3.77 4.518,-8.378 11.533,-3.77" style="fill:none;fill-rule:nonzero;stroke:rgb(0,104,55);stroke-width:3px;"/>
            </g>
        </g>
        <g transform="matrix(1,0,0,1,393.958,0)">
            <g transform="matrix(0.362001,-0.932178,-0.932178,-0.362001,246.522,139.347)">
                <path d="M-2.418,3.533C-2.418,3.533 2.06,5.093 5.162,3.533" style="fill:none;fill-rule:nonzero;stroke:rgb(0,104,55);stroke-width:3px;"/>
            </g>
        </g>
        <g transform="matrix(1,0,0,1,393.958,0)">
            <g transform="matrix(0.855203,-0.518293,-0.518293,-0.855203,268.841,149.643)">
                <path d="M-0.549,1.964C-0.549,1.964 3.929,3.525 7.032,1.965" style="fill:none;fill-rule:nonzero;stroke:rgb(0,104,55);stroke-width:3px;"/>
            </g>
        </g>
        <g transform="matrix(1,0,0,1,393.958,0)">
            <g transform="matrix(-0.855203,-0.518293,-0.518293,0.855203,202.358,142.923)">
                <path d="M-7.032,1.965C-7.032,1.965 -2.554,0.404 0.549,1.964" style="fill:none;fill-rule:nonzero;stroke:rgb(0,104,55);stroke-width:3px;"/>
            </g>
        </g>
        <g transform="matrix(1,0,0,1,393.958,0)">
            <g transform="matrix(-0.361886,-0.932222,-0.932222,0.361886,233.779,134.232)">
                <path d="M-5.161,3.533C-5.161,3.533 -0.683,1.973 2.418,3.533" style="fill:none;fill-rule:nonzero;stroke:rgb(0,104,55);stroke-width:3px;"/>
            </g>
        </g>
        <g transform="matrix(1,0,0,1,393.958,0)">
            <g transform="matrix(0.390759,-0.920493,-0.920493,-0.390759,221.311,212.77)">
                <path d="M-4.496,4.956C-4.496,4.956 1.254,9.566 8.268,4.956" style="fill:none;fill-rule:nonzero;stroke:rgb(0,104,55);stroke-width:3px;"/>
            </g>
        </g>
        <g transform="matrix(1,0,0,1,393.958,0)">
            <g transform="matrix(-0.390759,-0.920493,-0.920493,0.390759,263.043,205.424)">
                <path d="M-7.489,6.793C-7.489,6.793 -1.738,2.184 5.276,6.793" style="fill:none;fill-rule:nonzero;stroke:rgb(0,104,55);stroke-width:3px;"/>
            </g>
        </g>
        <g transform="matrix(1,0,0,1,393.958,0)">
            <g transform="matrix(-0.806967,-0.590596,-0.590596,0.806967,280.996,185.396)">
                <path d="M-11.533,3.77C-11.533,3.77 -5.783,-0.839 1.232,3.77" style="fill:none;fill-rule:nonzero;stroke:rgb(0,104,55);stroke-width:3px;"/>
            </g>
        </g>
        <g transform="matrix(1,0,0,1,393.958,0)">
            <g transform="matrix(0.806967,-0.590596,-0.590596,-0.806967,189.586,197.563)">
                <path d="M-1.232,3.77C-1.232,3.77 4.518,8.378 11.533,3.77" style="fill:none;fill-rule:nonzero;stroke:rgb(0,104,55);stroke-width:3px;"/>
            </g>
        </g>
        <g transform="matrix(1,0,0,1,393.958,0)">
            <g transform="matrix(0.362001,0.932178,0.932178,-0.362001,246.522,206.906)">
                <path d="M-2.418,-3.533C-2.418,-3.533 2.059,-5.092 5.162,-3.533" style="fill:none;fill-rule:nonzero;stroke:rgb(0,104,55);stroke-width:3px;"/>
            </g>
        </g>
        <g transform="matrix(1,0,0,1,393.958,0)">
            <g transform="matrix(0.855203,0.518293,0.518293,-0.855203,268.841,196.611)">
                <path d="M-0.549,-1.964C-0.549,-1.964 3.929,-3.524 7.032,-1.965" style="fill:none;fill-rule:nonzero;stroke:rgb(0,104,55);stroke-width:3px;"/>
            </g>
        </g>
        <g transform="matrix(1,0,0,1,393.958,0)">
            <g transform="matrix(-0.855203,0.518293,0.518293,0.855203,202.358,203.331)">
                <path d="M-7.032,-1.965C-7.032,-1.965 -2.554,-0.405 0.549,-1.964" style="fill:none;fill-rule:nonzero;stroke:rgb(0,104,55);stroke-width:3px;"/>
            </g>
        </g>
        <g transform="matrix(1,0,0,1,393.958,0)">
            <g transform="matrix(-0.361886,0.932222,0.932222,0.361886,233.779,212.021)">
                <path d="M-5.161,-3.533C-5.161,-3.533 -0.684,-1.973 2.418,-3.533" style="fill:none;fill-rule:nonzero;stroke:rgb(0,104,55);stroke-width:3px;"/>
            </g>
        </g>
        <g transform="matrix(1,0,0,1,393.958,0)">
            <g transform="matrix(0,-1,-1,0,243.449,143.931)">
                <path d="M-3.574,-3.575C-5.549,-3.575 -7.149,-1.974 -7.149,-0C-7.149,1.974 -5.549,3.574 -3.574,3.574C-1.6,3.574 0,1.974 0,-0C0,-1.974 -1.6,-3.575 -3.574,-3.575" style="fill:rgb(57,181,74);fill-rule:nonzero;"/>
            </g>
        </g>
        <g transform="matrix(1,0,0,1,393.958,0)">
            <g transform="matrix(0,-1,-1,0,256.631,191.816)">
                <path d="M-3.575,-3.575C-5.549,-3.575 -7.15,-1.974 -7.15,0C-7.15,1.975 -5.549,3.575 -3.575,3.575C-1.6,3.575 -0,1.975 -0,0C-0,-1.974 -1.6,-3.575 -3.575,-3.575" style="fill:rgb(57,181,74);fill-rule:nonzero;"/>
            </g>
        </g>
        <g transform="matrix(1,0,0,1,393.958,0)">
            <g transform="matrix(0,-1,-1,0,261.441,191.536)">
                <path d="M-2.4,-2.4C-3.725,-2.4 -4.799,-1.326 -4.799,0C-4.799,1.325 -3.725,2.4 -2.4,2.4C-1.075,2.4 -0.001,1.325 -0.001,0C-0.001,-1.326 -1.075,-2.4 -2.4,-2.4" style="fill:rgb(57,181,74);fill-rule:nonzero;"/>
            </g>
        </g>
        <g transform="matrix(1,0,0,1,393.958,0)">
            <g transform="matrix(0,-1,-1,0,248.185,145.453)">
                <path d="M-2.052,-2.054C-3.188,-2.054 -4.106,-1.135 -4.106,-0.001C-4.106,1.134 -3.188,2.052 -2.052,2.052C-0.918,2.052 0.001,1.134 0.001,-0.001C0.001,-1.135 -0.918,-2.054 -2.052,-2.054" style="fill:rgb(57,181,74);fill-rule:nonzero;"/>
            </g>
        </g>
        <g transform="matrix(1,0,0,1,393.958,0)">
            <g transform="matrix(0,-1,-1,0,199.809,176.489)">
                <path d="M-3.575,-3.574C-5.55,-3.574 -7.149,-1.974 -7.149,0.001C-7.149,1.975 -5.55,3.575 -3.575,3.575C-1.6,3.575 0,1.975 0,0.001C0,-1.974 -1.6,-3.574 -3.575,-3.574" style="fill:rgb(57,181,74);fill-rule:nonzero;"/>
            </g>
        </g>
        <g transform="matrix(1,0,0,1,393.958,0)">
            <g transform="matrix(0,-1,-1,0,201.083,182.149)">
                <path d="M-2.3,-2.3C-3.571,-2.3 -4.6,-1.27 -4.6,0C-4.6,1.27 -3.571,2.3 -2.3,2.3C-1.029,2.3 0,1.27 0,0C0,-1.27 -1.029,-2.3 -2.3,-2.3" style="fill:rgb(57,181,74);fill-rule:nonzero;"/>
            </g>
        </g>
        <g transform="matrix(1,0,0,1,393.958,0)">
            <g transform="matrix(0,-1,-1,0,200.186,172.17)">
                <path d="M-1.616,-1.615C-2.508,-1.615 -3.231,-0.892 -3.231,0C-3.231,0.892 -2.508,1.616 -1.616,1.616C-0.723,1.616 0,0.892 0,0C0,-0.892 -0.723,-1.615 -1.616,-1.615" style="fill:rgb(57,181,74);fill-rule:nonzero;"/>
            </g>
        </g>
        <g transform="matrix(1,0,0,1,393.958,0)">
            <g transform="matrix(-0.886463,0.462799,0.462799,0.886463,284.358,174.909)">
                <path d="M-8.58,-2.105C-8.58,-2.105 -5.315,-0.522 0.516,-2.105" style="fill:none;fill-rule:nonzero;stroke:rgb(0,104,55);stroke-width:3px;"/>
            </g>
        </g>
        <g transform="matrix(1,0,0,1,393.958,0)">
            <g transform="matrix(0.886463,0.462799,0.462799,-0.886463,185.58,167.444)">
                <path d="M-0.516,-2.105C-0.516,-2.105 2.749,-3.688 8.58,-2.105" style="fill:none;fill-rule:nonzero;stroke:rgb(0,104,55);stroke-width:3px;"/>
            </g>
        </g>
    </g>
</svg>
