<?xml version="1.0" encoding="UTF-8" standalone="no"?>
<!DOCTYPE svg PUBLIC "-//W3C//DTD SVG 1.1//EN" "http://www.w3.org/Graphics/SVG/1.1/DTD/svg11.dtd">
<svg width="100%" height="100%" viewBox="0 0 57 61" version="1.1" xmlns="http://www.w3.org/2000/svg" xmlns:xlink="http://www.w3.org/1999/xlink" xml:space="preserve" xmlns:serif="http://www.serif.com/" style="fill-rule:evenodd;clip-rule:evenodd;stroke-linecap:round;stroke-miterlimit:10;">
    <g transform="matrix(1,0,0,1,-906.859,-16.9973)">
        <g transform="matrix(1,0,0,1,826.579,0)">
            <g transform="matrix(1,0,0,1,111.541,46.6951)">
                <path d="M0,29.225C-13.082,29.225 -23.725,18.582 -23.725,5.5L-23.725,1.5C-23.725,0.671 -23.054,0 -22.225,0L22.225,0C23.054,0 23.725,0.671 23.725,1.5L23.725,5.5C23.725,18.582 13.082,29.225 0,29.225" style="fill-rule:nonzero;"/>
            </g>
        </g>
        <g transform="matrix(1,0,0,1,826.579,0)">
            <g transform="matrix(1,0,0,1,133.766,77.42)">
                <path d="M0,-32.225L-44.45,-32.225C-46.107,-32.225 -47.45,-30.882 -47.45,-29.225L-47.45,-25.225C-47.45,-11.316 -36.134,0 -22.225,0C-8.316,0 3,-11.316 3,-25.225L3,-29.225C3,-30.882 1.657,-32.225 0,-32.225M0,-29.225L0,-25.225C0,-12.951 -9.95,-3 -22.225,-3C-34.5,-3 -44.45,-12.951 -44.45,-25.225L-44.45,-29.225L0,-29.225" style="fill-rule:nonzero;"/>
            </g>
        </g>
        <g transform="matrix(1,0,0,1,826.579,0)">
            <g transform="matrix(0,-1,-1,0,111.541,25.97)">
                <path d="M-22.225,-22.225C-34.499,-22.225 -44.45,-12.275 -44.45,0C-44.45,12.275 -34.499,22.225 -22.225,22.225C-9.951,22.225 0,12.275 0,0C0,-12.275 -9.951,-22.225 -22.225,-22.225" style="fill:rgb(146,217,0);fill-rule:nonzero;"/>
            </g>
        </g>
        <g transform="matrix(1,0,0,1,826.579,0)">
            <g opacity="0.5">
                <g transform="matrix(0.707107,-0.707107,-0.707107,-0.707107,100.869,52.4918)">
                    <clipPath id="_clip1">
                        <path d="M-5.78,10.54L10.539,-5.779L26.859,10.54L10.539,26.859L-5.78,10.54Z" clip-rule="nonzero"/>
                    </clipPath>
                    <g clip-path="url(#_clip1)">
                        <path d="M-4.366,10.54C3.867,18.772 17.212,18.772 25.445,10.54" style="fill:none;fill-rule:nonzero;stroke:white;stroke-width:2px;"/>
                    </g>
                </g>
            </g>
        </g>
        <g transform="matrix(1,0,0,1,826.579,0)">
            <clipPath id="_clip2">
                <path d="M89.316,48.195C89.316,60.47 99.266,70.42 111.541,70.42C123.816,70.42 133.766,60.47 133.766,48.195C133.766,35.92 123.816,25.97 111.541,25.97C99.266,25.97 89.316,35.92 89.316,48.195Z" clip-rule="nonzero"/>
            </clipPath>
            <g clip-path="url(#_clip2)">
                <g transform="matrix(1,0,0,1,102.377,32.5297)">
                    <path d="M0,18.556C-0.089,18.33 -2.19,12.972 -2.19,7.743C-2.19,2.112 0.829,-0.409 3.821,-0.409C5.992,-0.409 9.634,0.568 9.634,7.109C9.634,12.429 7.728,16.692 7.647,16.87L7.547,17.089L0.162,18.965L0,18.556Z" style="fill:rgb(146,217,0);fill-rule:nonzero;"/>
                </g>
                <g transform="matrix(1,0,0,1,106.199,52.0868)">
                    <path d="M0,-20.466C-3.241,-20.466 -6.511,-17.791 -6.511,-11.814C-6.511,-6.49 -4.377,-1.046 -4.286,-0.817L-3.962,0L-3.11,-0.216L3.616,-1.924L4.082,-2.043L4.281,-2.48C4.364,-2.663 6.312,-7.022 6.312,-12.448C6.312,-19.685 1.898,-20.466 0,-20.466M0,-19.466C2.854,-19.466 5.312,-17.721 5.312,-12.448C5.312,-7.175 3.37,-2.893 3.37,-2.893L-3.356,-1.185C-3.356,-1.185 -5.511,-6.62 -5.511,-11.814C-5.511,-17.008 -2.854,-19.466 0,-19.466" style="fill-rule:nonzero;"/>
                </g>
                <g opacity="0.5">
                    <g transform="matrix(0.0351733,0.999381,0.999381,-0.0351733,102.919,29.4684)">
                        <path d="M8.454,-2.729C8.454,-2.729 2.824,-2.054 3.032,3.849C3.032,3.849 2.782,7.508 8.454,8.558C8.454,8.558 4.21,6.881 4.493,3.083C4.775,-0.715 8.454,-2.729 8.454,-2.729" style="fill:white;fill-rule:nonzero;"/>
                    </g>
                </g>
                <g transform="matrix(1,0,0,1,106.199,52.0868)">
                    <path d="M0,-20.466C-3.241,-20.466 -6.511,-17.791 -6.511,-11.814C-6.511,-6.49 -4.377,-1.046 -4.286,-0.817L-3.962,0L-3.11,-0.216L3.616,-1.924L4.082,-2.043L4.281,-2.48C4.364,-2.663 6.312,-7.022 6.312,-12.448C6.312,-19.685 1.898,-20.466 0,-20.466M0,-19.466C2.854,-19.466 5.312,-17.721 5.312,-12.448C5.312,-7.175 3.37,-2.893 3.37,-2.893L-3.356,-1.185C-3.356,-1.185 -5.511,-6.62 -5.511,-11.814C-5.511,-17.008 -2.854,-19.466 0,-19.466" style="fill-rule:nonzero;"/>
                </g>
                <g opacity="0.3">
                    <g transform="matrix(1,0,0,1,100.249,49.9869)">
                        <path d="M0,-9.08C0,-9.08 1.727,-5.551 5.85,-5.551C9.973,-5.551 11.817,-9.08 11.817,-9.08L10.806,-3.054L1.687,0L0,-9.08Z" style="fill-rule:nonzero;"/>
                    </g>
                </g>
                <g transform="matrix(1,0,0,1,114.439,46.7452)">
                    <path d="M0,9.173C0,9.173 -5.839,9.014 -8.021,8.934C-9.478,8.881 -10.951,7.996 -11.688,6.731C-12.351,5.592 -12.354,4.271 -11.697,3.01C-10.684,1.066 -8.855,-0.006 -6.549,-0.006C-5.757,-0.006 -4.93,0.131 -4.158,0.388C-1.754,1.189 3.53,4.352 3.754,4.486L4.282,4.803L0.227,9.179L0,9.173Z" style="fill:rgb(146,217,0);fill-rule:nonzero;"/>
                </g>
                <g transform="matrix(1,0,0,1,107.891,56.4295)">
                    <path d="M0,-10.19C-2.466,-10.19 -4.504,-8.993 -5.592,-6.905C-6.331,-5.487 -6.323,-3.995 -5.571,-2.702C-4.752,-1.294 -3.112,-0.309 -1.49,-0.25C0.67,-0.171 6.477,-0.013 6.536,-0.012L6.988,0L7.296,-0.332L10.779,-4.09L11.616,-4.994L10.56,-5.628C10.334,-5.763 5.004,-8.952 2.549,-9.771C1.727,-10.045 0.845,-10.19 0,-10.19M0,-9.19C0.767,-9.19 1.531,-9.056 2.233,-8.822C4.612,-8.029 10.045,-4.77 10.045,-4.77L6.562,-1.011C6.562,-1.011 0.727,-1.17 -1.454,-1.25C-3.635,-1.329 -6.172,-3.628 -4.705,-6.443C-3.671,-8.427 -1.83,-9.19 0,-9.19" style="fill-rule:nonzero;"/>
                </g>
                <g opacity="0.5">
                    <g transform="matrix(-0.112588,0.993642,0.993642,0.112588,110.11,42.1093)">
                        <path d="M7.786,-5.888C7.786,-5.888 5.033,-4.186 5.27,-0.945C5.507,2.294 6.224,4.11 7.786,7.24C7.786,7.24 5.749,0.97 6.374,-2.139C6.998,-5.246 7.786,-5.888 7.786,-5.888" style="fill:white;fill-rule:nonzero;"/>
                    </g>
                </g>
                <g transform="matrix(1,0,0,1,107.891,56.4295)">
                    <path d="M0,-10.19C-2.466,-10.19 -4.504,-8.993 -5.592,-6.905C-6.331,-5.487 -6.323,-3.995 -5.571,-2.702C-4.752,-1.294 -3.112,-0.309 -1.49,-0.25C0.67,-0.171 6.477,-0.013 6.536,-0.012L6.988,0L7.296,-0.332L10.779,-4.09L11.616,-4.994L10.56,-5.628C10.334,-5.763 5.004,-8.952 2.549,-9.771C1.727,-10.045 0.845,-10.19 0,-10.19M0,-9.19C0.767,-9.19 1.531,-9.056 2.233,-8.822C4.612,-8.029 10.045,-4.77 10.045,-4.77L6.562,-1.011C6.562,-1.011 0.727,-1.17 -1.454,-1.25C-3.635,-1.329 -6.172,-3.628 -4.705,-6.443C-3.671,-8.427 -1.83,-9.19 0,-9.19" style="fill-rule:nonzero;"/>
                </g>
                <g transform="matrix(1,0,0,1,115.235,60.1345)">
                    <path d="M0,5.916C-0.182,5.916 -0.352,5.816 -0.439,5.654C-0.534,5.48 -0.517,5.266 -0.395,5.109C1.359,2.854 1.403,1.462 1.403,1.448C1.407,1.216 1.571,1.011 1.799,0.962L6.239,0.011C6.274,0.003 6.309,0 6.344,0C6.487,0 6.625,0.062 6.722,0.172C6.841,0.31 6.876,0.502 6.813,0.673C5.058,5.436 0.246,5.897 0.042,5.914C0.028,5.916 0.014,5.916 0,5.916" style="fill:white;fill-rule:nonzero;"/>
                </g>
                <g transform="matrix(1,0,0,1,121.578,66.5505)">
                    <path d="M0,-6.916C-0.07,-6.916 -0.14,-6.909 -0.209,-6.894L-4.65,-5.942C-5.113,-5.843 -5.443,-5.433 -5.44,-4.959C-5.441,-4.959 -5.519,-3.69 -7.133,-1.614C-7.377,-1.3 -7.412,-0.872 -7.223,-0.523C-7.047,-0.199 -6.708,0 -6.344,0C-6.316,0 -6.288,-0.001 -6.259,-0.003C-6.042,-0.022 -0.925,-0.512 0.938,-5.57C1.064,-5.913 0.994,-6.296 0.755,-6.571C0.563,-6.793 0.286,-6.916 0,-6.916M0,-5.916C-1.666,-1.396 -6.344,-1 -6.344,-1C-4.432,-3.458 -4.44,-4.965 -4.44,-4.965L0,-5.916" style="fill-rule:nonzero;"/>
                </g>
                <g transform="matrix(1,0,0,1,118.5,51.1513)">
                    <path d="M0,10.177C-1.957,10.177 -2.104,9.046 -2.247,7.952L-2.291,7.628C-2.393,6.911 -2.779,6.556 -3.268,6.106C-3.56,5.838 -3.891,5.533 -4.17,5.128C-4.968,3.968 -4.492,2.358 -2.926,0.925C-2.256,0.311 -1.515,0 -0.723,0C1.929,0 4.138,3.471 4.333,5.811C4.447,7.18 4.202,8.197 3.585,8.919C2.957,9.655 1.977,10.048 0.501,10.157C0.32,10.171 0.153,10.177 0,10.177" style="fill:rgb(146,217,0);fill-rule:nonzero;"/>
                </g>
                <g transform="matrix(1,0,0,1,117.777,61.8281)">
                    <path d="M0,-11.177C-0.92,-11.177 -1.775,-10.822 -2.541,-10.121C-4.277,-8.531 -4.795,-6.625 -3.859,-5.266C-3.548,-4.814 -3.194,-4.489 -2.883,-4.202C-2.381,-3.74 -2.136,-3.495 -2.062,-2.978L-2.02,-2.659C-1.881,-1.6 -1.672,0 0.724,0C0.888,0 1.067,-0.007 1.262,-0.021C2.279,-0.096 3.742,-0.325 4.689,-1.434C5.397,-2.262 5.68,-3.399 5.554,-4.907C5.346,-7.404 3.025,-11.177 0,-11.177M0,-10.177C2.26,-10.177 4.371,-7.062 4.558,-4.824C4.795,-1.969 3.329,-1.177 1.187,-1.018C1.02,-1.006 0.865,-1 0.724,-1C-0.942,-1 -0.89,-1.841 -1.072,-3.119C-1.271,-4.507 -2.341,-4.824 -3.035,-5.833C-3.729,-6.841 -3.106,-8.247 -1.865,-9.384C-1.257,-9.941 -0.623,-10.177 0,-10.177" style="fill-rule:nonzero;"/>
                </g>
                <g opacity="0.5">
                    <g transform="matrix(-0.341304,0.939953,0.939953,0.341304,120.16,50.0634)">
                        <path d="M4.546,-3.817C4.546,-3.817 2.185,-3.148 1.868,-1.437C1.551,0.275 3.311,3.317 4.546,3.865C4.546,3.865 2.753,0.787 3.22,-1.196C3.688,-3.179 4.546,-3.817 4.546,-3.817" style="fill:white;fill-rule:nonzero;"/>
                    </g>
                </g>
                <g transform="matrix(1,0,0,1,117.777,61.8281)">
                    <path d="M0,-11.177C-0.92,-11.177 -1.775,-10.822 -2.541,-10.121C-4.277,-8.531 -4.795,-6.625 -3.859,-5.266C-3.548,-4.814 -3.194,-4.489 -2.883,-4.202C-2.381,-3.74 -2.136,-3.495 -2.062,-2.978L-2.02,-2.659C-1.881,-1.6 -1.672,0 0.724,0C0.888,0 1.067,-0.007 1.262,-0.021C2.279,-0.096 3.742,-0.325 4.689,-1.434C5.397,-2.262 5.68,-3.399 5.554,-4.907C5.346,-7.404 3.025,-11.177 0,-11.177M0,-10.177C2.26,-10.177 4.371,-7.062 4.558,-4.824C4.795,-1.969 3.329,-1.177 1.187,-1.018C1.02,-1.006 0.865,-1 0.724,-1C-0.942,-1 -0.89,-1.841 -1.072,-3.119C-1.271,-4.507 -2.341,-4.824 -3.035,-5.833C-3.729,-6.841 -3.106,-8.247 -1.865,-9.384C-1.257,-9.941 -0.623,-10.177 0,-10.177" style="fill-rule:nonzero;"/>
                </g>
                <g opacity="0.3">
                    <g transform="matrix(1,0,0,1,103.185,57.4995)">
                        <path d="M0,-7.513C0,-7.513 0.614,-3.786 10.843,-3.727L10.129,-1.26C10.129,-1.26 -4.123,0 0,-7.513" style="fill-rule:nonzero;"/>
                    </g>
                </g>
                <g opacity="0.3">
                    <g transform="matrix(1,0,0,1,114.029,61.6827)">
                        <path d="M0,-7.91C0,-7.91 2.271,-6.958 2.801,-5.828C3.331,-4.699 4.128,-2.908 5.543,-3C6.958,-3.093 9.009,-4.639 9.009,-4.639C9.009,-4.639 9.243,-0.476 5.543,-0.239C1.844,0 2.617,-2.047 1.903,-3.194C1.189,-4.342 -1.011,-5.175 0,-7.91" style="fill-rule:nonzero;"/>
                    </g>
                </g>
            </g>
        </g>
        <g transform="matrix(1,0,0,1,826.579,0)">
            <g transform="matrix(1,0,0,1,111.541,73.4199)">
                <path d="M0,-50.45C-13.909,-50.45 -25.225,-39.134 -25.225,-25.225C-25.225,-11.316 -13.909,0 0,0C13.909,0 25.225,-11.316 25.225,-25.225C25.225,-39.134 13.909,-50.45 0,-50.45M0,-47.45C12.275,-47.45 22.225,-37.499 22.225,-25.225C22.225,-12.95 12.275,-3 0,-3C-12.274,-3 -22.225,-12.95 -22.225,-25.225C-22.225,-37.499 -12.274,-47.45 0,-47.45" style="fill-rule:nonzero;"/>
            </g>
        </g>
        <g transform="matrix(1,0,0,1,826.579,0)">
            <g opacity="0.5">
                <g transform="matrix(0,-1,-1,0,114.606,26.2556)">
                    <path d="M-0.999,-0.998C-1.55,-0.998 -1.997,-0.551 -1.997,0.001C-1.997,0.552 -1.55,0.999 -0.999,0.999C-0.448,0.999 0,0.552 0,0.001C0,-0.551 -0.448,-0.998 -0.999,-0.998" style="fill:white;fill-rule:nonzero;"/>
                </g>
            </g>
        </g>
    </g>
</svg>
