<?xml version="1.0" encoding="UTF-8" standalone="no"?>
<!DOCTYPE svg PUBLIC "-//W3C//DTD SVG 1.1//EN" "http://www.w3.org/Graphics/SVG/1.1/DTD/svg11.dtd">
<svg width="100%" height="100%" viewBox="0 0 100 100" version="1.1" xmlns="http://www.w3.org/2000/svg" xmlns:xlink="http://www.w3.org/1999/xlink" xml:space="preserve" xmlns:serif="http://www.serif.com/" style="fill-rule:evenodd;clip-rule:evenodd;stroke-linecap:round;stroke-miterlimit:10;">
    <g transform="matrix(1,0,0,1,-708.134,-161)">
        <g id="body_icon" transform="matrix(0.99836,0,0,0.99836,135.566,0.0061835)">
            <rect x="573.509" y="161.258" width="100.164" height="100.164" style="fill:none;"/>
            <g transform="matrix(1.00164,0,0,1.00164,621.827,207.815)">
                <path d="M0,29.225C-13.082,29.225 -23.725,18.582 -23.725,5.5L-23.725,1.5C-23.725,0.671 -23.054,0 -22.225,0L22.225,0C23.054,0 23.725,0.671 23.725,1.5L23.725,5.5C23.725,18.582 13.082,29.225 0,29.225" style="fill-rule:nonzero;"/>
            </g>
            <g transform="matrix(1.00164,0,0,1.00164,644.088,238.591)">
                <path d="M0,-32.225L-44.45,-32.225C-46.107,-32.225 -47.45,-30.882 -47.45,-29.225L-47.45,-25.225C-47.45,-11.316 -36.134,0 -22.225,0C-8.316,0 3,-11.316 3,-25.225L3,-29.225C3,-30.882 1.657,-32.225 0,-32.225M0,-29.225L0,-25.225C0,-12.951 -9.95,-3 -22.225,-3C-34.5,-3 -44.45,-12.951 -44.45,-25.225L-44.45,-29.225L0,-29.225" style="fill-rule:nonzero;"/>
            </g>
            <g transform="matrix(0,-1.00164,-1.00164,0,621.827,187.056)">
                <path d="M-22.225,-22.225C-34.499,-22.225 -44.45,-12.275 -44.45,0C-44.45,12.275 -34.499,22.225 -22.225,22.225C-9.951,22.225 0,12.275 0,0C0,-12.275 -9.951,-22.225 -22.225,-22.225" style="fill:rgb(146,217,0);fill-rule:nonzero;"/>
            </g>
            <g transform="matrix(1.00164,0,0,1.00164,389.906,161.043)">
                <g opacity="0.5">
                    <g transform="matrix(0.707107,-0.707107,-0.707107,-0.707107,220.869,52.4918)">
                        <clipPath id="_clip1">
                            <path d="M-5.78,10.54L10.539,-5.779L26.859,10.54L10.539,26.859L-5.78,10.54Z" clip-rule="nonzero"/>
                        </clipPath>
                        <g clip-path="url(#_clip1)">
                            <path d="M-4.366,10.54C3.867,18.772 17.212,18.772 25.445,10.54" style="fill:none;fill-rule:nonzero;stroke:white;stroke-width:2px;"/>
                        </g>
                    </g>
                </g>
            </g>
            <g transform="matrix(1.00164,0,0,1.00164,-132.486,-0.876593)">
                <g id="Layer1">
                    <g>
                        <g transform="matrix(1,0,0,1,753.876,201.818)">
                            <path d="M0,20.102C-7.121,20.102 -8.955,16.018 -10.428,12.736C-10.829,11.844 -11.207,11.001 -11.656,10.329C-12.184,9.539 -12.981,9.139 -14.024,9.139C-14.79,9.139 -15.404,9.362 -15.41,9.364C-15.467,9.385 -15.525,9.394 -15.583,9.394C-15.745,9.394 -15.902,9.316 -15.997,9.176C-16.126,8.986 -16.11,8.733 -15.957,8.562C-13.717,6.057 -11.528,4.939 -8.86,4.939C-8.617,4.939 -8.37,4.949 -8.117,4.967C-6.85,5.061 -5.876,5.478 -4.934,5.882C-3.927,6.313 -2.975,6.721 -1.695,6.721C-0.792,6.721 0.191,6.519 1.312,6.102C4.637,4.868 4.39,0.712 4.378,0.536C4.366,0.364 4.443,0.197 4.583,0.096C4.67,0.033 4.773,0 4.877,0C4.94,0 5.004,0.013 5.064,0.037L9.122,1.682C9.291,1.75 9.409,1.905 9.431,2.086C10.026,7.12 9.522,13.781 6.321,17.384C4.718,19.187 2.591,20.102 0,20.102" style="fill:rgb(146,217,0);fill-rule:nonzero;"/>
                        </g>
                        <g transform="matrix(1,0,0,1,758.752,222.419)">
                            <path d="M0,-21.101C-0.208,-21.101 -0.415,-21.036 -0.588,-20.91C-0.867,-20.707 -1.021,-20.375 -0.998,-20.032C-0.986,-19.861 -0.776,-16.068 -3.738,-14.969C-4.803,-14.573 -5.729,-14.381 -6.571,-14.381C-7.749,-14.381 -8.613,-14.751 -9.614,-15.18C-10.548,-15.58 -11.606,-16.034 -12.957,-16.133C-13.222,-16.153 -13.482,-16.163 -13.736,-16.163C-16.56,-16.163 -18.863,-14.994 -21.206,-12.373C-21.513,-12.03 -21.545,-11.522 -21.286,-11.143C-21.096,-10.864 -20.783,-10.706 -20.46,-10.706C-20.343,-10.706 -20.225,-10.727 -20.111,-10.77C-20.11,-10.77 -19.569,-10.963 -18.901,-10.963C-18.022,-10.963 -17.383,-10.646 -16.948,-9.995C-16.522,-9.358 -16.152,-8.534 -15.761,-7.661C-14.309,-4.428 -12.321,0 -4.876,0C-2.136,0 0.116,-0.971 1.818,-2.886C5.985,-7.576 5.346,-16.08 5.051,-18.574C5.008,-18.936 4.771,-19.247 4.433,-19.384L0.375,-21.028C0.254,-21.077 0.127,-21.101 0,-21.101M0,-20.101L4.058,-18.457C4.837,-11.871 3.85,-1 -4.876,-1C-13.602,-1 -13.979,-7.352 -16.117,-10.55C-16.875,-11.685 -17.99,-11.963 -18.901,-11.963C-19.775,-11.963 -20.46,-11.707 -20.46,-11.707C-18.394,-14.018 -16.355,-15.163 -13.736,-15.163C-13.506,-15.163 -13.271,-15.154 -13.03,-15.136C-10.519,-14.95 -9.186,-13.381 -6.571,-13.381C-5.688,-13.381 -4.659,-13.56 -3.39,-14.031C0.337,-15.414 0,-20.101 0,-20.101" style="fill-rule:nonzero;"/>
                        </g>
                        <g transform="matrix(1,0,0,1,524.832,160.786)">
                            <g opacity="0.3">
                                <g transform="matrix(1,0,0,1,213.459,53.839)">
                                    <path d="M0,-3.912C0,-3.912 1.994,-5.056 3.772,-4.267C5.55,-3.48 8.802,4.166 15.152,4.166C21.503,4.166 23.152,-2.638 23.459,-4.699C23.738,-6.579 24.018,-9.17 23.23,-9.577C22.443,-9.983 20.962,-10.211 20.229,-11.202L20.322,-12.498C20.322,-12.498 22.43,-11.634 24.757,-10.821C24.757,-10.821 26.142,0.585 20.774,5.335C20.774,5.335 17.744,8.586 10.758,6.198C10.758,6.198 7.208,4.042 6.116,1.556C5.023,-0.93 4.667,-4.54 0,-3.912" style="fill-rule:nonzero;"/>
                                </g>
                            </g>
                        </g>
                        <g transform="matrix(1,0,0,1,757.269,205.596)">
                            <path d="M0,1.495C0,1.495 2.247,0.951 3.872,2.043C3.872,2.043 3.517,0.417 0.977,-0.548C0.977,-0.548 0.598,0.668 0,1.495" style="fill:rgb(255,240,135);fill-rule:nonzero;"/>
                        </g>
                        <g transform="matrix(1,0,0,1,753.25,214.233)">
                            <path d="M0,-5.388C0,-5.388 2.155,-3.19 1.898,0.799C1.898,0.799 3.775,-2.428 2.556,-6.187L0,-5.388Z" style="fill:rgb(255,240,135);fill-rule:nonzero;"/>
                        </g>
                        <g transform="matrix(1,0,0,1,749.497,212.288)">
                            <path d="M0,-3.862C0,-3.862 1.127,-2.21 -0.828,0C-0.828,0 2.474,-0.459 2.855,-3.545L0,-3.862Z" style="fill:rgb(255,240,135);fill-rule:nonzero;"/>
                        </g>
                        <g transform="matrix(1,0,0,1,745.417,210.56)">
                            <path d="M0,-3.467C0,-3.467 0.571,-1.714 -0.229,0.038C-0.229,0.038 2.096,-0.533 3.125,-2.743C3.125,-2.743 2.058,-3.505 0,-3.467" style="fill:rgb(255,240,135);fill-rule:nonzero;"/>
                        </g>
                        <g transform="matrix(1,0,0,1,524.832,160.786)">
                            <g opacity="0.5">
                                <g transform="matrix(1,0,0,1,214.854,45.1236)">
                                    <path d="M0,3.423C0,3.423 1.825,1.182 5.121,1.182C8.417,1.182 11.135,4.042 14.634,2.727C18.133,1.412 18.622,-0.619 18.622,-0.619C18.622,-0.619 17.95,3.032 13.564,3.423C10.091,3.733 7.941,1.584 5.045,1.603C2.149,1.622 0,3.423 0,3.423" style="fill:white;fill-rule:nonzero;"/>
                                </g>
                            </g>
                        </g>
                        <g transform="matrix(1,0,0,1,758.752,222.419)">
                            <path d="M0,-21.101C-0.208,-21.101 -0.415,-21.036 -0.588,-20.91C-0.867,-20.707 -1.021,-20.375 -0.998,-20.032C-0.986,-19.861 -0.776,-16.068 -3.738,-14.969C-4.803,-14.573 -5.729,-14.381 -6.571,-14.381C-7.749,-14.381 -8.613,-14.751 -9.614,-15.18C-10.548,-15.58 -11.606,-16.034 -12.957,-16.133C-13.222,-16.153 -13.482,-16.163 -13.736,-16.163C-16.56,-16.163 -18.863,-14.994 -21.206,-12.373C-21.513,-12.03 -21.545,-11.522 -21.286,-11.143C-21.096,-10.864 -20.783,-10.706 -20.46,-10.706C-20.343,-10.706 -20.225,-10.727 -20.111,-10.77C-20.11,-10.77 -19.569,-10.963 -18.901,-10.963C-18.022,-10.963 -17.383,-10.646 -16.948,-9.995C-16.522,-9.358 -16.152,-8.534 -15.761,-7.661C-14.309,-4.428 -12.321,0 -4.876,0C-2.136,0 0.116,-0.971 1.818,-2.886C5.985,-7.576 5.346,-16.08 5.051,-18.574C5.008,-18.936 4.771,-19.247 4.433,-19.384L0.375,-21.028C0.254,-21.077 0.127,-21.101 0,-21.101M0,-20.101L4.058,-18.457C4.837,-11.871 3.85,-1 -4.876,-1C-13.602,-1 -13.979,-7.352 -16.117,-10.55C-16.875,-11.685 -17.99,-11.963 -18.901,-11.963C-19.775,-11.963 -20.46,-11.707 -20.46,-11.707C-18.394,-14.018 -16.355,-15.163 -13.736,-15.163C-13.506,-15.163 -13.271,-15.154 -13.03,-15.136C-10.519,-14.95 -9.186,-13.381 -6.571,-13.381C-5.688,-13.381 -4.659,-13.56 -3.39,-14.031C0.337,-15.414 0,-20.101 0,-20.101" style="fill-rule:nonzero;"/>
                        </g>
                    </g>
                </g>
            </g>
            <g transform="matrix(1.00164,0,0,1.00164,621.827,234.584)">
                <path d="M0,-50.45C-13.909,-50.45 -25.225,-39.134 -25.225,-25.225C-25.225,-11.316 -13.909,0 0,0C13.909,0 25.225,-11.316 25.225,-25.225C25.225,-39.134 13.909,-50.45 0,-50.45M0,-47.45C12.275,-47.45 22.225,-37.499 22.225,-25.225C22.225,-12.95 12.275,-3 0,-3C-12.274,-3 -22.225,-12.95 -22.225,-25.225C-22.225,-37.499 -12.274,-47.45 0,-47.45" style="fill-rule:nonzero;"/>
            </g>
            <g transform="matrix(1.00164,0,0,1.00164,389.906,161.043)">
                <g opacity="0.5">
                    <g transform="matrix(0,-1,-1,0,234.606,26.2556)">
                        <path d="M-0.999,-0.998C-1.55,-0.998 -1.997,-0.551 -1.997,0.001C-1.997,0.552 -1.55,0.999 -0.999,0.999C-0.448,0.999 0,0.552 0,0.001C0,-0.551 -0.448,-0.998 -0.999,-0.998" style="fill:white;fill-rule:nonzero;"/>
                    </g>
                </g>
            </g>
        </g>
    </g>
</svg>
