<?xml version="1.0" encoding="UTF-8" standalone="no"?>
<!DOCTYPE svg PUBLIC "-//W3C//DTD SVG 1.1//EN" "http://www.w3.org/Graphics/SVG/1.1/DTD/svg11.dtd">
<svg width="100%" height="100%" viewBox="0 0 100 100" version="1.1" xmlns="http://www.w3.org/2000/svg" xmlns:xlink="http://www.w3.org/1999/xlink" xml:space="preserve" xmlns:serif="http://www.serif.com/" style="fill-rule:evenodd;clip-rule:evenodd;stroke-linecap:round;stroke-miterlimit:10;">
    <g transform="matrix(1,0,0,1,-1092.32,-161)">
        <g id="general_icon" transform="matrix(0.99836,0,0,0.99836,519.75,0.0061835)">
            <rect x="573.509" y="161.258" width="100.164" height="100.164" style="fill:none;"/>
            <g transform="matrix(1.00164,0,0,1.00164,622.122,207.835)">
                <path d="M0,29.225C-13.082,29.225 -23.725,18.582 -23.725,5.5L-23.725,1.5C-23.725,0.671 -23.054,0 -22.225,0L22.225,0C23.054,0 23.725,0.671 23.725,1.5L23.725,5.5C23.725,18.582 13.082,29.225 0,29.225" style="fill-rule:nonzero;"/>
            </g>
            <g transform="matrix(1.00164,0,0,1.00164,644.384,238.61)">
                <path d="M0,-32.225L-44.45,-32.225C-46.107,-32.225 -47.45,-30.882 -47.45,-29.225L-47.45,-25.225C-47.45,-11.316 -36.134,0 -22.225,0C-8.316,0 3,-11.316 3,-25.225L3,-29.225C3,-30.882 1.657,-32.225 0,-32.225M0,-29.225L0,-25.225C0,-12.951 -9.95,-3 -22.225,-3C-34.5,-3 -44.45,-12.951 -44.45,-25.225L-44.45,-29.225L0,-29.225" style="fill-rule:nonzero;"/>
            </g>
            <g transform="matrix(0,-1.00164,-1.00164,0,622.122,187.076)">
                <path d="M-22.225,-22.225C-34.499,-22.225 -44.45,-12.275 -44.45,0C-44.45,12.275 -34.499,22.225 -22.225,22.225C-9.951,22.225 0,12.275 0,0C0,-12.275 -9.951,-22.225 -22.225,-22.225" style="fill:rgb(146,217,0);fill-rule:nonzero;"/>
            </g>
            <g transform="matrix(1.00164,0,0,1.00164,390.201,161.063)">
                <g opacity="0.5">
                    <g transform="matrix(0.707107,-0.707107,-0.707107,-0.707107,220.869,52.4918)">
                        <clipPath id="_clip1">
                            <path d="M-5.78,10.54L10.539,-5.779L26.859,10.54L10.539,26.859L-5.78,10.54Z" clip-rule="nonzero"/>
                        </clipPath>
                        <g clip-path="url(#_clip1)">
                            <path d="M-4.366,10.54C3.867,18.772 17.212,18.772 25.445,10.54" style="fill:none;fill-rule:nonzero;stroke:white;stroke-width:2px;"/>
                        </g>
                    </g>
                </g>
            </g>
            <g transform="matrix(1.00164,0,0,1.00164,390.201,161.063)">
                <clipPath id="_clip2">
                    <path d="M209.316,48.195C209.316,60.47 219.266,70.42 231.541,70.42C243.815,70.42 253.766,60.47 253.766,48.195C253.766,35.92 243.815,25.97 231.541,25.97C219.266,25.97 209.316,35.92 209.316,48.195Z" clip-rule="nonzero"/>
                </clipPath>
                <g clip-path="url(#_clip2)">
                    <g transform="matrix(1,0,0,1,227.722,56.3624)">
                        <path d="M0,8.963C-0.146,8.963 -0.286,8.899 -0.381,8.787C-0.476,8.675 -0.517,8.527 -0.494,8.382C-0.355,7.538 -0.225,5.985 -0.461,5.417C-0.507,5.308 -1.561,2.733 -0.493,1.13C0.007,0.38 0.853,0 2.02,0C3.279,0 3.88,0.685 4.163,1.259C5.139,3.247 3.803,6.973 2.415,8.769C2.32,8.891 2.174,8.963 2.02,8.963L0,8.963Z" style="fill:rgb(146,217,0);fill-rule:nonzero;"/>
                    </g>
                    <g transform="matrix(1,0,0,1,229.742,65.825)">
                        <path d="M0,-9.963C-1.674,-9.963 -2.517,-9.227 -2.928,-8.61C-4.122,-6.819 -3.067,-4.152 -2.942,-3.854C-2.781,-3.466 -2.845,-2.149 -3.006,-1.161C-3.054,-0.871 -2.971,-0.575 -2.781,-0.352C-2.591,-0.129 -2.313,0 -2.02,0L0,0C0.31,0 0.602,-0.143 0.791,-0.388C2.228,-2.246 3.695,-6.177 2.592,-8.423C2.104,-9.416 1.184,-9.963 0,-9.963M0,-8.963C3.258,-8.963 1.943,-3.514 0,-1L-2.02,-1C-2.02,-1 -1.639,-3.324 -2.02,-4.238C-2.4,-5.152 -3.505,-8.963 0,-8.963" style="fill-rule:nonzero;"/>
                    </g>
                    <g transform="matrix(1,0,0,1,230.316,62.8784)">
                        <path d="M0,2.447C-0.147,2.447 -0.287,2.382 -0.382,2.269C-0.477,2.157 -0.518,2.008 -0.493,1.863C-0.383,1.218 0.265,0 1.926,0C2.734,0 3.872,0.604 3.872,1.947C3.872,2.223 3.648,2.447 3.372,2.447L0,2.447Z" style="fill:white;fill-rule:nonzero;"/>
                    </g>
                    <g transform="matrix(1,0,0,1,232.242,65.8251)">
                        <path d="M0,-3.447C-1.995,-3.447 -2.777,-1.956 -2.912,-1.168C-2.961,-0.878 -2.881,-0.58 -2.691,-0.355C-2.5,-0.13 -2.221,0 -1.926,0L1.446,0C1.998,0 2.446,-0.447 2.446,-1C2.446,-2.688 1.016,-3.447 0,-3.447M0,-2.447C0.522,-2.447 1.446,-2.057 1.446,-1L-1.926,-1C-1.926,-1 -1.679,-2.447 0,-2.447" style="fill-rule:nonzero;"/>
                    </g>
                    <g transform="matrix(1,0,0,1,229.17,62.8784)">
                        <path d="M0,2.447C-0.147,2.447 -0.287,2.382 -0.382,2.269C-0.477,2.157 -0.518,2.008 -0.493,1.863C-0.383,1.218 0.265,0 1.926,0C2.734,0 3.872,0.604 3.872,1.947C3.872,2.223 3.648,2.447 3.372,2.447L0,2.447Z" style="fill:white;fill-rule:nonzero;"/>
                    </g>
                    <g transform="matrix(1,0,0,1,231.096,65.8251)">
                        <path d="M0,-3.447C-1.995,-3.447 -2.777,-1.956 -2.912,-1.168C-2.961,-0.878 -2.88,-0.58 -2.69,-0.355C-2.5,-0.13 -2.221,0 -1.926,0L1.446,0C1.999,0 2.446,-0.447 2.446,-1C2.446,-2.688 1.016,-3.447 0,-3.447M0,-2.447C0.522,-2.447 1.446,-2.057 1.446,-1L-1.926,-1C-1.926,-1 -1.678,-2.447 0,-2.447" style="fill-rule:nonzero;"/>
                    </g>
                    <g transform="matrix(1,0,0,1,235.805,47.6504)">
                        <path d="M0,6.132C-0.03,6.057 -0.726,4.282 -0.726,2.543C-0.726,0.504 0.412,-0.409 1.54,-0.409C2.202,-0.409 3.742,-0.141 3.742,2.34C3.742,4.117 3.102,5.547 3.075,5.607L2.976,5.826L0.162,6.541L0,6.132Z" style="fill:rgb(146,217,0);fill-rule:nonzero;"/>
                    </g>
                    <g transform="matrix(1,0,0,1,237.346,54.7839)">
                        <path d="M0,-8.042C-1.332,-8.042 -2.766,-6.962 -2.766,-4.59C-2.766,-2.757 -2.036,-0.896 -2.005,-0.817L-1.681,0L-0.829,-0.216L1.326,-0.764L1.792,-0.882L1.99,-1.32C2.02,-1.384 2.702,-2.91 2.702,-4.794C2.702,-7.188 1.306,-8.042 0,-8.042M0,-7.042C0.915,-7.042 1.702,-6.483 1.702,-4.794C1.702,-3.105 1.08,-1.733 1.08,-1.733L-1.075,-1.186C-1.075,-1.186 -1.766,-2.927 -1.766,-4.59C-1.766,-6.254 -0.915,-7.042 0,-7.042" style="fill-rule:nonzero;"/>
                    </g>
                    <g transform="matrix(1,0,0,1,239.289,51.4726)">
                        <path d="M0,3.614C0,3.614 -1.873,3.563 -2.573,3.537C-3.152,3.516 -3.737,3.165 -4.029,2.663C-4.302,2.194 -4.306,1.654 -4.04,1.143C-3.659,0.413 -2.948,-0.006 -2.089,-0.006C-1.799,-0.006 -1.497,0.044 -1.215,0.137C-0.411,0.406 1.313,1.438 1.387,1.482L1.915,1.799L0.227,3.62L0,3.614Z" style="fill:rgb(146,217,0);fill-rule:nonzero;"/>
                    </g>
                    <g transform="matrix(1,0,0,1,237.2,55.599)">
                        <path d="M0,-4.632C-1.052,-4.632 -1.924,-4.115 -2.394,-3.215C-2.737,-2.556 -2.729,-1.826 -2.372,-1.212C-1.991,-0.557 -1.257,-0.116 -0.502,-0.089C0.199,-0.064 2.075,-0.012 2.075,-0.012L2.528,0L2.836,-0.332L3.952,-1.536L4.789,-2.44L3.732,-3.074C3.545,-3.186 1.874,-4.182 1.032,-4.463C0.695,-4.575 0.348,-4.632 0,-4.632M0,-3.632C0.246,-3.632 0.49,-3.589 0.715,-3.514C1.478,-3.26 3.218,-2.216 3.218,-2.216L2.103,-1.012C2.103,-1.012 0.233,-1.063 -0.466,-1.089C-1.164,-1.114 -1.977,-1.85 -1.507,-2.752C-1.176,-3.388 -0.586,-3.632 0,-3.632" style="fill-rule:nonzero;"/>
                    </g>
                    <g transform="matrix(1,0,0,1,239.553,55.7577)">
                        <path d="M0,2.575C-0.182,2.575 -0.352,2.475 -0.439,2.313C-0.534,2.139 -0.517,1.925 -0.395,1.768C0.079,1.159 0.11,0.793 0.11,0.789C0.126,0.567 0.288,0.363 0.505,0.316L1.928,0.012C1.962,0.004 1.998,0 2.032,0C2.175,0 2.314,0.062 2.41,0.173C2.529,0.31 2.564,0.502 2.501,0.673C1.866,2.4 0.116,2.567 0.042,2.573C0.028,2.575 0.014,2.575 0,2.575" style="fill:white;fill-rule:nonzero;"/>
                    </g>
                    <g transform="matrix(1,0,0,1,241.585,58.833)">
                        <path d="M0,-3.575C-0.07,-3.575 -0.14,-3.568 -0.209,-3.553L-1.632,-3.248C-2.14,-3.139 -2.489,-2.807 -2.428,-2.304C-2.454,-2.215 -2.542,-1.974 -2.822,-1.614C-3.065,-1.301 -3.101,-0.872 -2.911,-0.523C-2.735,-0.199 -2.397,0 -2.033,0C-2.004,0 -1.976,-0.001 -1.948,-0.004C-1.156,-0.071 0.343,-0.615 0.938,-2.229C1.064,-2.572 0.994,-2.955 0.755,-3.23C0.563,-3.452 0.286,-3.575 0,-3.575M0,-2.575C-0.534,-1.127 -2.032,-1 -2.032,-1C-1.42,-1.787 -1.423,-2.27 -1.423,-2.27L0,-2.575" style="fill-rule:nonzero;"/>
                    </g>
                    <g transform="matrix(1,0,0,1,240.599,52.88)">
                        <path d="M0,3.94C-0.925,3.94 -1.011,3.284 -1.057,2.931L-1.07,2.832C-1.084,2.732 -1.12,2.691 -1.277,2.546C-1.378,2.453 -1.504,2.337 -1.616,2.175C-1.97,1.662 -1.793,0.959 -1.167,0.385C-0.891,0.133 -0.568,0 -0.232,0C0.837,0 1.655,1.308 1.727,2.173C1.771,2.699 1.663,3.118 1.407,3.418C1.06,3.824 0.544,3.906 0.186,3.933C0.119,3.938 0.057,3.94 0,3.94" style="fill:rgb(146,217,0);fill-rule:nonzero;"/>
                    </g>
                    <g transform="matrix(1,0,0,1,240.368,57.3201)">
                        <path d="M0,-4.94C-0.464,-4.94 -0.904,-4.761 -1.273,-4.423C-2.094,-3.671 -2.3,-2.712 -1.796,-1.981C-1.653,-1.773 -1.498,-1.63 -1.384,-1.525C-1.364,-1.507 -1.344,-1.49 -1.325,-1.472L-1.321,-1.444C-1.196,-0.486 -0.673,0 0.231,0C0.3,0 0.374,-0.003 0.454,-0.008C0.712,-0.028 1.497,-0.086 2.019,-0.698C2.365,-1.103 2.512,-1.644 2.457,-2.308C2.365,-3.407 1.386,-4.94 0,-4.94M0,-3.94C0.724,-3.94 1.4,-2.942 1.46,-2.225C1.536,-1.311 1.066,-1.057 0.38,-1.006C0.327,-1.002 0.277,-1 0.232,-1C-0.302,-1 -0.285,-1.27 -0.344,-1.679C-0.407,-2.124 -0.75,-2.225 -0.973,-2.548C-1.195,-2.871 -0.995,-3.322 -0.598,-3.686C-0.403,-3.864 -0.2,-3.94 0,-3.94" style="fill-rule:nonzero;"/>
                    </g>
                    <g transform="matrix(1,0,0,1,229.043,41.032)">
                        <path d="M0,20.102C-7.121,20.102 -8.955,16.018 -10.428,12.736C-10.829,11.844 -11.207,11.001 -11.656,10.329C-12.184,9.539 -12.981,9.139 -14.024,9.139C-14.79,9.139 -15.404,9.362 -15.41,9.364C-15.467,9.385 -15.525,9.394 -15.583,9.394C-15.745,9.394 -15.902,9.316 -15.997,9.176C-16.126,8.986 -16.11,8.733 -15.957,8.562C-13.717,6.057 -11.528,4.939 -8.86,4.939C-8.617,4.939 -8.37,4.949 -8.117,4.967C-6.85,5.061 -5.876,5.478 -4.934,5.882C-3.927,6.313 -2.975,6.721 -1.695,6.721C-0.792,6.721 0.191,6.519 1.312,6.102C4.637,4.868 4.39,0.712 4.378,0.536C4.366,0.364 4.443,0.197 4.583,0.096C4.67,0.033 4.773,0 4.877,0C4.94,0 5.004,0.013 5.064,0.037L9.122,1.682C9.291,1.75 9.409,1.905 9.431,2.086C10.026,7.12 9.522,13.781 6.321,17.384C4.718,19.187 2.591,20.102 0,20.102" style="fill:rgb(146,217,0);fill-rule:nonzero;"/>
                    </g>
                    <g transform="matrix(1,0,0,1,233.92,61.6339)">
                        <path d="M0,-21.101C-0.208,-21.101 -0.415,-21.036 -0.588,-20.91C-0.867,-20.707 -1.021,-20.375 -0.998,-20.032C-0.986,-19.861 -0.776,-16.068 -3.738,-14.969C-4.803,-14.573 -5.729,-14.381 -6.571,-14.381C-7.749,-14.381 -8.613,-14.751 -9.614,-15.18C-10.548,-15.58 -11.606,-16.034 -12.957,-16.133C-13.222,-16.153 -13.482,-16.163 -13.736,-16.163C-16.56,-16.163 -18.863,-14.994 -21.206,-12.373C-21.513,-12.03 -21.545,-11.522 -21.286,-11.143C-21.096,-10.864 -20.783,-10.706 -20.46,-10.706C-20.343,-10.706 -20.225,-10.727 -20.111,-10.77C-20.11,-10.77 -19.569,-10.963 -18.901,-10.963C-18.022,-10.963 -17.383,-10.646 -16.948,-9.995C-16.522,-9.358 -16.152,-8.534 -15.761,-7.661C-14.309,-4.428 -12.321,0 -4.876,0C-2.136,0 0.116,-0.971 1.818,-2.886C5.985,-7.576 5.346,-16.08 5.051,-18.574C5.008,-18.936 4.771,-19.247 4.433,-19.384L0.375,-21.028C0.254,-21.077 0.127,-21.101 0,-21.101M0,-20.101L4.058,-18.457C4.837,-11.871 3.85,-1 -4.876,-1C-13.602,-1 -13.979,-7.352 -16.117,-10.55C-16.875,-11.685 -17.99,-11.963 -18.901,-11.963C-19.775,-11.963 -20.46,-11.707 -20.46,-11.707C-18.394,-14.018 -16.355,-15.163 -13.736,-15.163C-13.506,-15.163 -13.271,-15.154 -13.03,-15.136C-10.519,-14.95 -9.186,-13.381 -6.571,-13.381C-5.688,-13.381 -4.659,-13.56 -3.39,-14.031C0.337,-15.414 0,-20.101 0,-20.101" style="fill-rule:nonzero;"/>
                    </g>
                    <g opacity="0.3">
                        <g transform="matrix(1,0,0,1,213.459,53.839)">
                            <path d="M0,-3.912C0,-3.912 1.994,-5.056 3.772,-4.267C5.55,-3.48 8.802,4.166 15.152,4.166C21.503,4.166 23.152,-2.638 23.459,-4.699C23.738,-6.579 24.018,-9.17 23.23,-9.577C22.443,-9.983 20.962,-10.211 20.229,-11.202L20.322,-12.498C20.322,-12.498 22.43,-11.634 24.757,-10.821C24.757,-10.821 26.142,0.585 20.774,5.335C20.774,5.335 17.744,8.586 10.758,6.198C10.758,6.198 7.208,4.042 6.116,1.556C5.023,-0.93 4.667,-4.54 0,-3.912" style="fill-rule:nonzero;"/>
                        </g>
                    </g>
                    <g transform="matrix(1,0,0,1,232.436,44.8109)">
                        <path d="M0,1.495C0,1.495 2.247,0.951 3.872,2.043C3.872,2.043 3.517,0.417 0.977,-0.548C0.977,-0.548 0.598,0.668 0,1.495" style="fill:rgb(255,240,135);fill-rule:nonzero;"/>
                    </g>
                    <g transform="matrix(1,0,0,1,228.418,53.4473)">
                        <path d="M0,-5.388C0,-5.388 2.155,-3.19 1.898,0.799C1.898,0.799 3.775,-2.428 2.556,-6.187L0,-5.388Z" style="fill:rgb(255,240,135);fill-rule:nonzero;"/>
                    </g>
                    <g transform="matrix(1,0,0,1,224.664,51.5023)">
                        <path d="M0,-3.862C0,-3.862 1.127,-2.21 -0.828,0C-0.828,0 2.474,-0.459 2.855,-3.545L0,-3.862Z" style="fill:rgb(255,240,135);fill-rule:nonzero;"/>
                    </g>
                    <g transform="matrix(1,0,0,1,220.585,49.7743)">
                        <path d="M0,-3.467C0,-3.467 0.571,-1.714 -0.229,0.038C-0.229,0.038 2.096,-0.533 3.125,-2.743C3.125,-2.743 2.058,-3.505 0,-3.467" style="fill:rgb(255,240,135);fill-rule:nonzero;"/>
                    </g>
                    <g opacity="0.5">
                        <g transform="matrix(1,0,0,1,214.854,45.1236)">
                            <path d="M0,3.423C0,3.423 1.825,1.182 5.121,1.182C8.417,1.182 11.135,4.042 14.634,2.727C18.133,1.412 18.622,-0.619 18.622,-0.619C18.622,-0.619 17.95,3.032 13.564,3.423C10.091,3.733 7.941,1.584 5.045,1.603C2.149,1.622 0,3.423 0,3.423" style="fill:white;fill-rule:nonzero;"/>
                        </g>
                    </g>
                    <g transform="matrix(1,0,0,1,233.92,61.6339)">
                        <path d="M0,-21.101C-0.208,-21.101 -0.415,-21.036 -0.588,-20.91C-0.867,-20.707 -1.021,-20.375 -0.998,-20.032C-0.986,-19.861 -0.776,-16.068 -3.738,-14.969C-4.803,-14.573 -5.729,-14.381 -6.571,-14.381C-7.749,-14.381 -8.613,-14.751 -9.614,-15.18C-10.548,-15.58 -11.606,-16.034 -12.957,-16.133C-13.222,-16.153 -13.482,-16.163 -13.736,-16.163C-16.56,-16.163 -18.863,-14.994 -21.206,-12.373C-21.513,-12.03 -21.545,-11.522 -21.286,-11.143C-21.096,-10.864 -20.783,-10.706 -20.46,-10.706C-20.343,-10.706 -20.225,-10.727 -20.111,-10.77C-20.11,-10.77 -19.569,-10.963 -18.901,-10.963C-18.022,-10.963 -17.383,-10.646 -16.948,-9.995C-16.522,-9.358 -16.152,-8.534 -15.761,-7.661C-14.309,-4.428 -12.321,0 -4.876,0C-2.136,0 0.116,-0.971 1.818,-2.886C5.985,-7.576 5.346,-16.08 5.051,-18.574C5.008,-18.936 4.771,-19.247 4.433,-19.384L0.375,-21.028C0.254,-21.077 0.127,-21.101 0,-21.101M0,-20.101L4.058,-18.457C4.837,-11.871 3.85,-1 -4.876,-1C-13.602,-1 -13.979,-7.352 -16.117,-10.55C-16.875,-11.685 -17.99,-11.963 -18.901,-11.963C-19.775,-11.963 -20.46,-11.707 -20.46,-11.707C-18.394,-14.018 -16.355,-15.163 -13.736,-15.163C-13.506,-15.163 -13.271,-15.154 -13.03,-15.136C-10.519,-14.95 -9.186,-13.381 -6.571,-13.381C-5.688,-13.381 -4.659,-13.56 -3.39,-14.031C0.337,-15.414 0,-20.101 0,-20.101" style="fill-rule:nonzero;"/>
                    </g>
                    <g transform="matrix(1,0,0,1,226.452,50.1256)">
                        <path d="M0,11.148C-0.062,11.148 -0.125,11.136 -0.184,11.113L-4.653,9.348C-4.727,9.319 -4.792,9.273 -4.845,9.213C-4.895,9.156 -6.075,7.78 -6.075,4.78C-6.075,1.642 -3.726,0 -1.406,0C0.513,0 2.8,0.911 2.8,5.25C2.8,9.099 0.405,10.968 0.303,11.045C0.214,11.113 0.108,11.148 0,11.148" style="fill:rgb(146,217,0);fill-rule:nonzero;"/>
                    </g>
                    <g transform="matrix(1,0,0,1,225.045,61.7737)">
                        <path d="M0,-12.148C-2.568,-12.148 -5.168,-10.334 -5.168,-6.868C-5.168,-3.736 -3.952,-2.263 -3.813,-2.105C-3.709,-1.986 -3.578,-1.894 -3.43,-1.835L1.039,-0.07C1.158,-0.023 1.283,0 1.406,0C1.622,0 1.836,-0.069 2.013,-0.205C2.123,-0.288 4.706,-2.304 4.706,-6.398C4.706,-11.401 1.758,-12.148 0,-12.148M0,-11.148C2.093,-11.148 3.706,-10.043 3.706,-6.398C3.706,-2.752 1.407,-1 1.407,-1L-3.063,-2.765C-3.063,-2.765 -4.168,-4.023 -4.168,-6.868C-4.168,-9.713 -2.093,-11.148 0,-11.148" style="fill-rule:nonzero;"/>
                    </g>
                    <g opacity="0.5">
                        <g transform="matrix(-0.0193739,0.999812,0.999812,0.0193739,224.006,48.1331)">
                            <path d="M4.437,-2.422C4.437,-2.422 2.362,-1.757 2.306,1.084C2.251,3.958 4.437,4.392 4.437,4.392C4.437,4.392 2.888,3.303 2.932,1.037C2.975,-1.228 4.437,-2.422 4.437,-2.422" style="fill:white;fill-rule:nonzero;"/>
                        </g>
                    </g>
                    <g transform="matrix(1,0,0,1,225.045,61.7737)">
                        <path d="M0,-12.148C-2.568,-12.148 -5.168,-10.334 -5.168,-6.868C-5.168,-3.736 -3.952,-2.263 -3.813,-2.105C-3.709,-1.986 -3.578,-1.894 -3.43,-1.835L1.039,-0.07C1.158,-0.023 1.283,0 1.406,0C1.622,0 1.836,-0.069 2.013,-0.205C2.123,-0.288 4.706,-2.304 4.706,-6.398C4.706,-11.401 1.758,-12.148 0,-12.148M0,-11.148C2.093,-11.148 3.706,-10.043 3.706,-6.398C3.706,-2.752 1.407,-1 1.407,-1L-3.063,-2.765C-3.063,-2.765 -4.168,-4.023 -4.168,-6.868C-4.168,-9.713 -2.093,-11.148 0,-11.148" style="fill-rule:nonzero;"/>
                    </g>
                    <g opacity="0.3">
                        <g transform="matrix(1,0,0,1,221.016,60.7741)">
                            <path d="M0,-7.497C0,-7.497 0.531,-4.75 3.783,-4.75C7.034,-4.75 7.735,-7.29 7.735,-7.29C7.735,-7.29 8.661,-2.388 5.436,0L0.457,-2.032C0.457,-2.032 -0.864,-4.935 0,-7.497" style="fill-rule:nonzero;"/>
                        </g>
                    </g>
                    <g transform="matrix(1,0,0,1,222.452,56.3624)">
                        <path d="M0,8.963C-0.146,8.963 -0.286,8.899 -0.381,8.787C-0.476,8.675 -0.517,8.527 -0.494,8.382C-0.355,7.538 -0.224,5.985 -0.461,5.417C-0.507,5.308 -1.56,2.731 -0.492,1.13C0.008,0.38 0.853,0 2.02,0C3.28,0 3.88,0.685 4.163,1.259C5.139,3.248 3.803,6.973 2.415,8.769C2.32,8.891 2.174,8.963 2.02,8.963L0,8.963Z" style="fill:rgb(146,217,0);fill-rule:nonzero;"/>
                    </g>
                    <g transform="matrix(1,0,0,1,224.471,65.825)">
                        <path d="M0,-9.963C-1.674,-9.963 -2.516,-9.227 -2.928,-8.61C-4.122,-6.819 -3.066,-4.152 -2.942,-3.854C-2.781,-3.466 -2.845,-2.149 -3.006,-1.161C-3.053,-0.871 -2.971,-0.575 -2.781,-0.352C-2.591,-0.129 -2.313,0 -2.02,0L0,0C0.31,0 0.602,-0.143 0.792,-0.388C2.228,-2.246 3.695,-6.177 2.592,-8.423C2.104,-9.416 1.184,-9.963 0,-9.963M0,-8.963C3.258,-8.963 1.943,-3.514 0,-1L-2.02,-1C-2.02,-1 -1.638,-3.324 -2.02,-4.238C-2.4,-5.152 -3.505,-8.963 0,-8.963" style="fill-rule:nonzero;"/>
                    </g>
                    <g opacity="0.3">
                        <g transform="matrix(0.969299,0.245885,0.245885,-0.969299,221.531,64.2371)">
                            <path d="M1.037,-0.344C1.037,-0.344 0.835,2.002 0.241,2.796C-0.353,3.588 -2.361,7.009 1.037,7.871C4.194,8.672 4.26,3.068 2.995,0.153L1.037,-0.344Z" style="fill-rule:nonzero;"/>
                        </g>
                    </g>
                    <g transform="matrix(1,0,0,1,225.045,62.8784)">
                        <path d="M0,2.447C-0.147,2.447 -0.287,2.382 -0.382,2.269C-0.477,2.157 -0.518,2.008 -0.493,1.863C-0.383,1.218 0.265,0 1.926,0C2.734,0 3.872,0.604 3.872,1.947C3.872,2.223 3.648,2.447 3.372,2.447L0,2.447Z" style="fill:white;fill-rule:nonzero;"/>
                    </g>
                    <g transform="matrix(1,0,0,1,226.971,65.8251)">
                        <path d="M0,-3.447C-1.995,-3.447 -2.777,-1.956 -2.912,-1.168C-2.961,-0.878 -2.88,-0.58 -2.69,-0.355C-2.5,-0.13 -2.221,0 -1.926,0L1.446,0C1.999,0 2.446,-0.447 2.446,-1C2.446,-2.688 1.016,-3.447 0,-3.447M0,-2.447C0.522,-2.447 1.446,-2.057 1.446,-1L-1.926,-1C-1.926,-1 -1.678,-2.447 0,-2.447" style="fill-rule:nonzero;"/>
                    </g>
                    <g transform="matrix(1,0,0,1,223.9,62.8784)">
                        <path d="M0,2.447C-0.147,2.447 -0.287,2.382 -0.382,2.269C-0.477,2.157 -0.518,2.008 -0.493,1.863C-0.383,1.218 0.265,0 1.926,0C2.734,0 3.872,0.604 3.872,1.947C3.872,2.223 3.648,2.447 3.372,2.447L0,2.447Z" style="fill:white;fill-rule:nonzero;"/>
                    </g>
                    <g transform="matrix(1,0,0,1,225.826,65.8251)">
                        <path d="M0,-3.447C-1.995,-3.447 -2.777,-1.956 -2.912,-1.168C-2.962,-0.878 -2.881,-0.58 -2.691,-0.355C-2.501,-0.13 -2.221,0 -1.926,0L1.446,0C1.998,0 2.446,-0.447 2.446,-1C2.446,-2.688 1.016,-3.447 0,-3.447M0,-2.447C0.522,-2.447 1.446,-2.057 1.446,-1L-1.926,-1C-1.926,-1 -1.679,-2.447 0,-2.447" style="fill-rule:nonzero;"/>
                    </g>
                    <g transform="matrix(1,0,0,1,232.368,47.8804)">
                        <path d="M0,6.131C-0.03,6.056 -0.726,4.281 -0.726,2.542C-0.726,0.504 0.412,-0.409 1.54,-0.409C2.202,-0.409 3.742,-0.141 3.742,2.339C3.742,4.116 3.102,5.546 3.075,5.606L2.976,5.825L0.162,6.54L0,6.131Z" style="fill:rgb(146,217,0);fill-rule:nonzero;"/>
                    </g>
                    <g transform="matrix(1,0,0,1,233.908,55.0134)">
                        <path d="M0,-8.042C-1.332,-8.042 -2.765,-6.962 -2.765,-4.591C-2.765,-2.757 -2.036,-0.896 -2.005,-0.817L-1.681,0L-0.829,-0.217L1.326,-0.764L1.792,-0.882L1.99,-1.32C2.02,-1.384 2.702,-2.91 2.702,-4.794C2.702,-7.189 1.306,-8.042 0,-8.042M0,-7.042C0.915,-7.042 1.702,-6.483 1.702,-4.794C1.702,-3.105 1.08,-1.733 1.08,-1.733L-1.075,-1.186C-1.075,-1.186 -1.765,-2.927 -1.765,-4.591C-1.765,-6.255 -0.915,-7.042 0,-7.042" style="fill-rule:nonzero;"/>
                    </g>
                    <g opacity="0.5">
                        <g transform="matrix(0.0351194,0.999383,0.999383,-0.0351194,232.858,46.9609)">
                            <path d="M2.708,-0.874C2.708,-0.874 0.905,-0.659 0.971,1.233C0.971,1.233 0.891,2.405 2.708,2.742C2.708,2.742 1.349,2.204 1.44,0.987C1.53,-0.229 2.708,-0.874 2.708,-0.874" style="fill:white;fill-rule:nonzero;"/>
                        </g>
                    </g>
                    <g transform="matrix(1,0,0,1,233.908,55.0134)">
                        <path d="M0,-8.042C-1.332,-8.042 -2.765,-6.962 -2.765,-4.591C-2.765,-2.757 -2.036,-0.896 -2.005,-0.817L-1.681,0L-0.829,-0.217L1.326,-0.764L1.792,-0.882L1.99,-1.32C2.02,-1.384 2.702,-2.91 2.702,-4.794C2.702,-7.189 1.306,-8.042 0,-8.042M0,-7.042C0.915,-7.042 1.702,-6.483 1.702,-4.794C1.702,-3.105 1.08,-1.733 1.08,-1.733L-1.075,-1.186C-1.075,-1.186 -1.765,-2.927 -1.765,-4.591C-1.765,-6.255 -0.915,-7.042 0,-7.042" style="fill-rule:nonzero;"/>
                    </g>
                    <g opacity="0.3">
                        <g transform="matrix(1,0,0,1,232.002,53.5347)">
                            <path d="M0,-2.909C0,-2.909 0.553,-1.779 1.874,-1.779C3.195,-1.779 3.786,-2.909 3.786,-2.909L3.462,-0.978L0.541,0L0,-2.909Z" style="fill-rule:nonzero;"/>
                        </g>
                    </g>
                    <g transform="matrix(1,0,0,1,236.539,52.1601)">
                        <path d="M0,3.614C0,3.614 -1.873,3.563 -2.573,3.537C-3.151,3.516 -3.736,3.165 -4.029,2.663C-4.302,2.194 -4.306,1.654 -4.04,1.143C-3.659,0.413 -2.948,-0.006 -2.089,-0.006C-1.799,-0.006 -1.497,0.044 -1.215,0.137C-0.411,0.406 1.313,1.438 1.387,1.482L1.915,1.799L0.227,3.62L0,3.614Z" style="fill:rgb(146,217,0);fill-rule:nonzero;"/>
                    </g>
                    <g transform="matrix(1,0,0,1,234.45,56.2865)">
                        <path d="M0,-4.632C-1.052,-4.632 -1.924,-4.115 -2.394,-3.215C-2.737,-2.556 -2.729,-1.826 -2.372,-1.212C-1.991,-0.557 -1.257,-0.116 -0.502,-0.089C0.199,-0.064 2.075,-0.012 2.075,-0.012L2.528,0L2.836,-0.332L3.952,-1.536L4.789,-2.44L3.732,-3.074C3.545,-3.186 1.874,-4.182 1.032,-4.463C0.695,-4.575 0.348,-4.632 0,-4.632M0,-3.632C0.246,-3.632 0.49,-3.589 0.715,-3.514C1.478,-3.26 3.218,-2.216 3.218,-2.216L2.103,-1.012C2.103,-1.012 0.233,-1.063 -0.466,-1.089C-1.164,-1.114 -1.977,-1.85 -1.507,-2.752C-1.176,-3.388 -0.586,-3.632 0,-3.632" style="fill-rule:nonzero;"/>
                    </g>
                    <g opacity="0.5">
                        <g transform="matrix(-0.112467,0.993655,0.993655,0.112467,235.161,51.0106)">
                            <path d="M2.494,-1.886C2.494,-1.886 1.612,-1.34 1.688,-0.303C1.765,0.736 1.994,1.317 2.494,2.32C2.494,2.32 1.842,0.311 2.042,-0.684C2.242,-1.681 2.494,-1.886 2.494,-1.886" style="fill:white;fill-rule:nonzero;"/>
                        </g>
                    </g>
                    <g transform="matrix(1,0,0,1,234.45,56.2865)">
                        <path d="M0,-4.632C-1.052,-4.632 -1.924,-4.115 -2.394,-3.215C-2.737,-2.556 -2.729,-1.826 -2.372,-1.212C-1.991,-0.557 -1.257,-0.116 -0.502,-0.089C0.199,-0.064 2.075,-0.012 2.075,-0.012L2.528,0L2.836,-0.332L3.952,-1.536L4.789,-2.44L3.732,-3.074C3.545,-3.186 1.874,-4.182 1.032,-4.463C0.695,-4.575 0.348,-4.632 0,-4.632M0,-3.632C0.246,-3.632 0.49,-3.589 0.715,-3.514C1.478,-3.26 3.218,-2.216 3.218,-2.216L2.103,-1.012C2.103,-1.012 0.233,-1.063 -0.466,-1.089C-1.164,-1.114 -1.977,-1.85 -1.507,-2.752C-1.176,-3.388 -0.586,-3.632 0,-3.632" style="fill-rule:nonzero;"/>
                    </g>
                    <g transform="matrix(1,0,0,1,236.803,56.4452)">
                        <path d="M0,2.575C-0.182,2.575 -0.352,2.475 -0.439,2.313C-0.534,2.139 -0.517,1.925 -0.395,1.768C0.079,1.159 0.11,0.793 0.11,0.789C0.126,0.567 0.288,0.363 0.505,0.316L1.928,0.012C1.962,0.004 1.998,0 2.032,0C2.175,0 2.314,0.062 2.41,0.173C2.529,0.31 2.564,0.502 2.501,0.673C1.866,2.4 0.116,2.567 0.042,2.573C0.028,2.575 0.014,2.575 0,2.575" style="fill:white;fill-rule:nonzero;"/>
                    </g>
                    <g transform="matrix(1,0,0,1,238.835,59.5205)">
                        <path d="M0,-3.575C-0.07,-3.575 -0.14,-3.568 -0.209,-3.553L-1.632,-3.248C-2.139,-3.139 -2.489,-2.807 -2.428,-2.304C-2.454,-2.215 -2.542,-1.974 -2.822,-1.614C-3.065,-1.301 -3.101,-0.872 -2.911,-0.523C-2.735,-0.199 -2.397,0 -2.033,0C-2.004,0 -1.976,-0.001 -1.948,-0.004C-1.156,-0.071 0.343,-0.615 0.938,-2.229C1.064,-2.572 0.994,-2.955 0.755,-3.23C0.563,-3.452 0.286,-3.575 0,-3.575M0,-2.575C-0.534,-1.127 -2.032,-1 -2.032,-1C-1.42,-1.787 -1.423,-2.27 -1.423,-2.27L0,-2.575" style="fill-rule:nonzero;"/>
                    </g>
                    <g transform="matrix(1,0,0,1,237.849,53.5675)">
                        <path d="M0,3.94C-0.925,3.94 -1.011,3.284 -1.057,2.931L-1.07,2.832C-1.084,2.732 -1.12,2.691 -1.277,2.546C-1.378,2.453 -1.504,2.337 -1.616,2.175C-1.969,1.661 -1.793,0.959 -1.167,0.385C-0.891,0.133 -0.568,0 -0.232,0C0.837,0 1.655,1.308 1.727,2.173C1.771,2.699 1.663,3.118 1.407,3.418C1.06,3.824 0.544,3.906 0.186,3.933C0.119,3.938 0.057,3.94 0,3.94" style="fill:rgb(146,217,0);fill-rule:nonzero;"/>
                    </g>
                    <g transform="matrix(1,0,0,1,237.617,58.0076)">
                        <path d="M0,-4.94C-0.463,-4.94 -0.904,-4.761 -1.273,-4.423C-2.094,-3.671 -2.3,-2.712 -1.796,-1.981C-1.653,-1.773 -1.498,-1.63 -1.384,-1.525C-1.364,-1.507 -1.344,-1.49 -1.325,-1.472L-1.321,-1.444C-1.196,-0.486 -0.673,0 0.232,0C0.3,0 0.374,-0.003 0.454,-0.008C0.712,-0.028 1.497,-0.086 2.019,-0.698C2.365,-1.103 2.512,-1.644 2.457,-2.308C2.365,-3.407 1.386,-4.94 0,-4.94M0,-3.94C0.724,-3.94 1.4,-2.942 1.46,-2.225C1.536,-1.311 1.066,-1.057 0.38,-1.006C0.327,-1.002 0.277,-1 0.232,-1C-0.302,-1 -0.285,-1.27 -0.344,-1.679C-0.407,-2.124 -0.75,-2.225 -0.973,-2.548C-1.195,-2.871 -0.995,-3.322 -0.598,-3.686C-0.403,-3.864 -0.2,-3.94 0,-3.94" style="fill-rule:nonzero;"/>
                    </g>
                    <g opacity="0.5">
                        <g transform="matrix(-0.341351,0.939936,0.939936,0.341351,238.38,53.5589)">
                            <path d="M1.456,-1.223C1.456,-1.223 0.7,-1.009 0.598,-0.46C0.496,0.088 1.061,1.063 1.456,1.238C1.456,1.238 0.882,0.253 1.032,-0.383C1.182,-1.018 1.456,-1.223 1.456,-1.223" style="fill:white;fill-rule:nonzero;"/>
                        </g>
                    </g>
                    <g transform="matrix(1,0,0,1,237.617,58.0076)">
                        <path d="M0,-4.94C-0.463,-4.94 -0.904,-4.761 -1.273,-4.423C-2.094,-3.671 -2.3,-2.712 -1.796,-1.981C-1.653,-1.773 -1.498,-1.63 -1.384,-1.525C-1.364,-1.507 -1.344,-1.49 -1.325,-1.472L-1.321,-1.444C-1.196,-0.486 -0.673,0 0.232,0C0.3,0 0.374,-0.003 0.454,-0.008C0.712,-0.028 1.497,-0.086 2.019,-0.698C2.365,-1.103 2.512,-1.644 2.457,-2.308C2.365,-3.407 1.386,-4.94 0,-4.94M0,-3.94C0.724,-3.94 1.4,-2.942 1.46,-2.225C1.536,-1.311 1.066,-1.057 0.38,-1.006C0.327,-1.002 0.277,-1 0.232,-1C-0.302,-1 -0.285,-1.27 -0.344,-1.679C-0.407,-2.124 -0.75,-2.225 -0.973,-2.548C-1.195,-2.871 -0.995,-3.322 -0.598,-3.686C-0.403,-3.864 -0.2,-3.94 0,-3.94" style="fill-rule:nonzero;"/>
                    </g>
                    <g opacity="0.3">
                        <g transform="matrix(1,0,0,1,227.272,64.667)">
                            <path d="M0,-3.823L0.425,-1.289C0.425,-1.289 1.467,-0.896 1.619,0.527L6.852,0.527C6.852,0.527 6.787,-1.937 4.114,-1.937L4.913,-4.35C4.913,-4.35 4.604,-3.823 0,-3.823" style="fill-rule:nonzero;"/>
                        </g>
                    </g>
                    <g opacity="0.3">
                        <g transform="matrix(1,0,0,1,238.366,58.1829)">
                            <path d="M0,-10.441L-0.698,-4.471C-0.698,-4.471 0.926,-3.766 1.187,-2.645C1.448,-1.524 0.985,0 0.985,0C0.985,0 3.429,-0.703 3.607,-1.863C3.785,-3.023 3.684,-4.573 2.362,-5.22C1.042,-5.868 1.187,-6.216 1.187,-6.216C1.187,-6.216 1.626,-10.162 0,-10.441" style="fill-rule:nonzero;"/>
                        </g>
                    </g>
                    <g opacity="0.3">
                        <g transform="matrix(1,0,0,1,232.943,55.9414)">
                            <path d="M0,-2.407C0,-2.407 0.197,-1.213 3.474,-1.194L3.245,-0.404C3.245,-0.404 -1.321,0 0,-2.407" style="fill-rule:nonzero;"/>
                        </g>
                    </g>
                    <g opacity="0.3">
                        <g transform="matrix(1,0,0,1,236.416,57.2813)">
                            <path d="M0,-2.534C0,-2.534 0.728,-2.229 0.897,-1.867C1.067,-1.505 1.323,-0.931 1.776,-0.961C2.229,-0.991 2.886,-1.486 2.886,-1.486C2.886,-1.486 2.961,-0.153 1.776,-0.076C0.591,0 0.838,-0.656 0.61,-1.023C0.381,-1.391 -0.324,-1.658 0,-2.534" style="fill-rule:nonzero;"/>
                        </g>
                    </g>
                    <g transform="matrix(1,0,0,1,244.456,32.1025)">
                        <path d="M0,12.509C-0.733,12.509 -1.463,12.306 -2.107,12.128C-2.454,12.032 -2.783,11.939 -3.082,11.891C-3.414,11.838 -3.783,11.822 -4.21,11.804C-5.304,11.757 -6.802,11.693 -8.931,10.901C-11.64,9.894 -12.893,7.865 -12.762,4.697C-12.667,2.388 -10.715,0 -7.614,0C-5.139,0 -3.881,1.075 -2.871,1.94C-2.688,2.096 -2.508,2.25 -2.326,2.393C-1.176,3.299 0.766,4.398 0.786,4.408C0.812,4.408 3.093,5.242 2.446,9.796C2.624,10.351 2.668,11.359 1.765,11.986C1.259,12.338 0.681,12.509 0,12.509" style="fill:rgb(146,217,0);fill-rule:nonzero;"/>
                    </g>
                    <g transform="matrix(1,0,0,1,236.842,45.1117)">
                        <path d="M0,-13.509C-3.401,-13.509 -5.543,-10.877 -5.648,-8.333C-5.787,-4.968 -4.388,-2.716 -1.492,-1.639C0.711,-0.821 2.255,-0.754 3.382,-0.705C3.794,-0.688 4.15,-0.673 4.454,-0.624C4.713,-0.582 5.035,-0.493 5.375,-0.399C6.049,-0.212 6.813,0 7.614,0C8.39,0 9.08,-0.206 9.665,-0.612C10.745,-1.362 10.759,-2.533 10.569,-3.249C11.159,-7.633 9.16,-8.821 8.591,-9.067C8.271,-9.25 6.61,-10.212 5.597,-11.009C5.42,-11.148 5.246,-11.298 5.068,-11.45C3.995,-12.367 2.66,-13.509 0,-13.509M0,-12.509C2.718,-12.509 3.785,-11.162 4.979,-10.223C6.173,-9.283 8.154,-8.165 8.154,-8.165C8.154,-8.165 10.202,-7.479 9.546,-3.161C9.546,-3.161 10.008,-2.069 9.094,-1.433C8.633,-1.113 8.128,-1 7.614,-1C6.561,-1 5.465,-1.475 4.611,-1.612C3.341,-1.815 1.728,-1.509 -1.143,-2.576C-4.014,-3.643 -4.75,-5.831 -4.648,-8.292C-4.561,-10.424 -2.718,-12.509 0,-12.509" style="fill-rule:nonzero;"/>
                    </g>
                    <g opacity="0.5">
                        <g transform="matrix(1,0,0,1,232.436,32.7112)">
                            <path d="M0,2.787C0,2.787 1.084,-0.197 4.171,-0.197C7.257,-0.197 8.133,0.984 8.762,1.498C9.391,2.013 10.518,2.984 10.518,2.984C10.518,2.984 9.543,2.591 8.152,1.505C7.057,0.649 5.736,0.055 3.901,0.243C1.101,0.528 0,2.787 0,2.787" style="fill:white;fill-rule:nonzero;"/>
                        </g>
                    </g>
                    <g transform="matrix(1,0,0,1,236.842,45.1117)">
                        <path d="M0,-13.509C-3.401,-13.509 -5.543,-10.877 -5.648,-8.333C-5.787,-4.968 -4.388,-2.716 -1.492,-1.639C0.711,-0.821 2.255,-0.754 3.382,-0.705C3.794,-0.688 4.15,-0.673 4.454,-0.624C4.713,-0.582 5.035,-0.493 5.375,-0.399C6.049,-0.212 6.813,0 7.614,0C8.39,0 9.08,-0.206 9.665,-0.612C10.745,-1.362 10.759,-2.533 10.569,-3.249C11.159,-7.633 9.16,-8.821 8.591,-9.067C8.271,-9.25 6.61,-10.212 5.597,-11.009C5.42,-11.148 5.246,-11.298 5.068,-11.45C3.995,-12.367 2.66,-13.509 0,-13.509M0,-12.509C2.718,-12.509 3.785,-11.162 4.979,-10.223C6.173,-9.283 8.154,-8.165 8.154,-8.165C8.154,-8.165 10.202,-7.479 9.546,-3.161C9.546,-3.161 10.008,-2.069 9.094,-1.433C8.633,-1.113 8.128,-1 7.614,-1C6.561,-1 5.465,-1.475 4.611,-1.612C3.341,-1.815 1.728,-1.509 -1.143,-2.576C-4.014,-3.643 -4.75,-5.831 -4.648,-8.292C-4.561,-10.424 -2.718,-12.509 0,-12.509" style="fill-rule:nonzero;"/>
                    </g>
                    <g transform="matrix(1,0,0,1,242.608,41.4055)">
                        <path d="M0,-4.23C0,-4.23 1.886,-5.156 3.785,-4.814C5.055,-4.586 5.741,-3.824 5.944,-2.858C6.147,-1.893 6.046,-0.191 4.445,0.368C2.845,0.926 1.067,0.552 -0.457,-0.09C-1.553,-0.551 -2.667,-1.385 -3.556,-1.893C-4.445,-2.401 -5.334,-2.808 -6.376,-2.681C-7.471,-2.547 -8.919,-1.487 -8.081,0.545" style="fill:rgb(146,217,0);fill-rule:nonzero;"/>
                    </g>
                    <g transform="matrix(1,0,0,1,242.608,41.6825)">
                        <path d="M0,-4.507C0.979,-5.056 2.102,-5.381 3.271,-5.387C3.852,-5.38 4.461,-5.272 5.012,-4.965C5.562,-4.665 6.014,-4.138 6.224,-3.533C6.432,-2.927 6.491,-2.313 6.392,-1.683C6.302,-1.06 5.999,-0.414 5.479,0.038C5.22,0.262 4.921,0.424 4.612,0.541C4.319,0.639 4.023,0.726 3.72,0.772C3.116,0.88 2.504,0.872 1.911,0.808C0.721,0.637 -0.381,0.264 -1.419,-0.313C-2.431,-0.891 -3.314,-1.577 -4.241,-2.109C-5.14,-2.64 -6.235,-2.921 -7.155,-2.45C-7.616,-2.237 -7.986,-1.838 -8.149,-1.339C-8.295,-0.836 -8.248,-0.265 -8.081,0.268C-8.339,-0.225 -8.497,-0.806 -8.396,-1.399C-8.289,-1.987 -7.907,-2.531 -7.387,-2.856C-6.311,-3.551 -4.925,-3.282 -3.897,-2.787C-2.827,-2.309 -1.929,-1.621 -0.971,-1.14C-0.044,-0.657 1.009,-0.311 2.033,-0.183C2.547,-0.12 3.064,-0.106 3.563,-0.189C3.813,-0.222 4.055,-0.292 4.293,-0.365C4.505,-0.448 4.708,-0.543 4.88,-0.678C5.573,-1.208 5.739,-2.365 5.512,-3.3C5.287,-4.26 4.305,-4.829 3.24,-4.919C2.175,-5.065 1.058,-4.858 0,-4.507" style="fill-rule:nonzero;"/>
                    </g>
                    <g opacity="0.5">
                        <g transform="matrix(-0.242703,0.970101,0.970101,0.242703,246.684,34.8368)">
                            <path d="M3.03,-3.087C3.03,-3.087 2.099,-2 1.772,0.143C1.772,0.143 1.772,1.741 3.03,2.521C3.03,2.521 2.117,1.717 2.125,0.2C2.129,-0.762 2.245,-1.395 3.03,-3.087" style="fill:white;fill-rule:nonzero;"/>
                        </g>
                    </g>
                    <g transform="matrix(0.649164,0.760648,0.760648,-0.649164,246.211,38.2758)">
                        <path d="M0.328,-0.15C-0.021,-0.15 -0.302,0.042 -0.303,0.28C-0.303,0.518 -0.021,0.711 0.328,0.711C0.676,0.71 0.957,0.518 0.958,0.28C0.958,0.043 0.676,-0.151 0.328,-0.15" style="fill-rule:nonzero;"/>
                    </g>
                    <g opacity="0.3">
                        <g transform="matrix(-0.999033,0.0439731,0.0439731,0.999033,238.194,37.4304)">
                            <path d="M-0.208,-3.312C0.793,-3.356 1.473,-2.622 1.512,-1.75C1.55,-0.877 0.897,-0.041 -0.208,0.008C-1.313,0.056 -1.612,-0.782 -1.637,-1.36C-1.663,-1.937 -1.376,-3.261 -0.208,-3.312" style="fill-rule:nonzero;"/>
                        </g>
                    </g>
                    <g transform="matrix(0.999248,-0.038785,-0.038785,-0.999248,238.443,37.126)">
                        <path d="M-0.064,-0.006C-1.244,0.04 -1.847,0.917 -1.816,1.717C-1.78,2.64 -1.027,3.306 -0.064,3.268C1.124,3.222 1.459,1.977 1.436,1.382C1.41,0.715 1.002,-0.047 -0.064,-0.006" style="fill:white;fill-rule:nonzero;"/>
                    </g>
                    <g transform="matrix(1,0,0,1,238.252,37.384)">
                        <path d="M0,-3.772C-1.106,-3.772 -1.941,-2.969 -1.941,-1.904C-1.941,-0.968 -1.167,0 0.127,0C1.298,0 1.822,-0.851 1.822,-1.694C1.822,-2.557 1.257,-3.772 0,-3.772M0,-3.272C1.021,-3.272 1.322,-2.178 1.322,-1.694C1.322,-1.211 1.094,-0.5 0.127,-0.5C-0.839,-0.5 -1.441,-1.174 -1.441,-1.904C-1.441,-2.633 -0.875,-3.272 0,-3.272" style="fill-rule:nonzero;"/>
                    </g>
                    <g transform="matrix(0,-1,-1,0,238.768,35.6785)">
                        <path d="M-0.206,-0.205C-0.364,-0.205 -0.491,-0.113 -0.491,0.001C-0.491,0.113 -0.364,0.206 -0.206,0.206C-0.047,0.206 0.081,0.113 0.081,0.001C0.081,-0.113 -0.047,-0.205 -0.206,-0.205" style="fill-rule:nonzero;"/>
                    </g>
                    <g opacity="0.3">
                        <g transform="matrix(1,0,0,1,232.194,44.9735)">
                            <path d="M0,-8.154C0,-8.154 0.203,-4.318 3.582,-3.277C6.96,-2.235 7.955,-2.694 10.211,-2.032C12.635,-1.321 13.488,-1.575 13.745,-2.801L14.631,-2.928C14.631,-2.928 14.301,0 11.761,-0.533C9.221,-1.067 6.172,-1.448 6.172,-1.448C6.172,-1.448 1.372,-2.566 0.457,-4.496C-0.458,-6.426 0,-8.154 0,-8.154" style="fill-rule:nonzero;"/>
                        </g>
                    </g>
                    <g transform="matrix(1,0,0,1,242.151,39.4876)">
                        <path d="M0,1.828C0,1.828 -0.781,1.542 -2.017,0.697C-3.22,-0.127 -4.483,-0.991 -5.919,-0.763C-7.559,-0.502 -8.383,0.723 -7.525,2.819" style="fill:none;fill-rule:nonzero;stroke:black;stroke-width:1px;stroke-linejoin:round;"/>
                    </g>
                    <g opacity="0.3">
                        <g transform="matrix(1,0,0,1,237.693,42.0647)">
                            <path d="M0,-3.377C0,-3.377 1.279,-3.454 4.132,-1.808C5.806,-0.842 7.106,-0.73 8.383,-0.787C9.659,-0.844 10.346,-1.562 10.936,-2.784C10.936,-2.784 10.937,0.077 7.831,-0.022C4.725,-0.12 3.13,-1.468 2.441,-1.88C1.752,-2.292 0,-3.377 0,-3.377" style="fill-rule:nonzero;"/>
                        </g>
                    </g>
                    <g opacity="0.3">
                        <g transform="matrix(0.649248,0.760576,0.760576,-0.649248,246.136,38.3625)">
                            <path d="M0.386,-0.178C-0.004,-0.178 -0.321,0.049 -0.32,0.33C-0.32,0.61 -0.004,0.837 0.386,0.837C0.776,0.837 1.093,0.61 1.092,0.329C1.092,0.049 0.776,-0.178 0.386,-0.178" style="fill-rule:nonzero;"/>
                        </g>
                    </g>
                    <g transform="matrix(1,0,0,1,242.608,41.6825)">
                        <path d="M0,-4.507C0.979,-5.056 2.102,-5.381 3.271,-5.387C3.852,-5.38 4.461,-5.272 5.012,-4.965C5.562,-4.665 6.014,-4.138 6.224,-3.533C6.432,-2.927 6.491,-2.313 6.392,-1.683C6.302,-1.06 5.999,-0.414 5.479,0.038C5.22,0.262 4.921,0.424 4.612,0.541C4.319,0.639 4.023,0.726 3.72,0.772C3.116,0.88 2.504,0.872 1.911,0.808C0.721,0.637 -0.381,0.264 -1.419,-0.313C-2.431,-0.891 -3.314,-1.577 -4.241,-2.109C-5.14,-2.64 -6.235,-2.921 -7.155,-2.45C-7.616,-2.237 -7.986,-1.838 -8.149,-1.339C-8.295,-0.836 -8.248,-0.265 -8.081,0.268C-8.339,-0.225 -8.497,-0.806 -8.396,-1.399C-8.289,-1.987 -7.907,-2.531 -7.387,-2.856C-6.311,-3.551 -4.925,-3.282 -3.897,-2.787C-2.827,-2.309 -1.929,-1.621 -0.971,-1.14C-0.044,-0.657 1.009,-0.311 2.033,-0.183C2.547,-0.12 3.064,-0.106 3.563,-0.189C3.813,-0.222 4.055,-0.292 4.293,-0.365C4.505,-0.448 4.708,-0.543 4.88,-0.678C5.573,-1.208 5.739,-2.365 5.512,-3.3C5.287,-4.26 4.305,-4.829 3.24,-4.919C2.175,-5.065 1.058,-4.858 0,-4.507" style="fill-rule:nonzero;"/>
                    </g>
                </g>
            </g>
            <g transform="matrix(1.00164,0,0,1.00164,622.122,234.604)">
                <path d="M0,-50.45C-13.909,-50.45 -25.225,-39.134 -25.225,-25.225C-25.225,-11.316 -13.909,0 0,0C13.909,0 25.225,-11.316 25.225,-25.225C25.225,-39.134 13.909,-50.45 0,-50.45M0,-47.45C12.275,-47.45 22.225,-37.499 22.225,-25.225C22.225,-12.95 12.275,-3 0,-3C-12.274,-3 -22.225,-12.95 -22.225,-25.225C-22.225,-37.499 -12.274,-47.45 0,-47.45" style="fill-rule:nonzero;"/>
            </g>
            <g transform="matrix(1.00164,0,0,1.00164,390.201,161.063)">
                <g opacity="0.5">
                    <g transform="matrix(0,-1,-1,0,234.606,26.2556)">
                        <path d="M-0.999,-0.998C-1.55,-0.998 -1.997,-0.551 -1.997,0.001C-1.997,0.552 -1.55,0.999 -0.999,0.999C-0.448,0.999 0,0.552 0,0.001C0,-0.551 -0.448,-0.998 -0.999,-0.998" style="fill:white;fill-rule:nonzero;"/>
                    </g>
                </g>
            </g>
        </g>
    </g>
</svg>
