<?xml version="1.0" encoding="UTF-8" standalone="no"?>
<!DOCTYPE svg PUBLIC "-//W3C//DTD SVG 1.1//EN" "http://www.w3.org/Graphics/SVG/1.1/DTD/svg11.dtd">
<svg width="100%" height="100%" viewBox="0 0 57 61" version="1.1" xmlns="http://www.w3.org/2000/svg" xmlns:xlink="http://www.w3.org/1999/xlink" xml:space="preserve" xmlns:serif="http://www.serif.com/" style="fill-rule:evenodd;clip-rule:evenodd;stroke-linecap:round;stroke-miterlimit:10;">
    <g transform="matrix(1,0,0,1,-846.859,-16.9973)">
        <g transform="matrix(1,0,0,1,826.579,0)">
            <g transform="matrix(1,0,0,1,51.5409,46.6951)">
                <path d="M0,29.225C-13.082,29.225 -23.725,18.582 -23.725,5.5L-23.725,1.5C-23.725,0.671 -23.054,0 -22.225,0L22.225,0C23.054,0 23.725,0.671 23.725,1.5L23.725,5.5C23.725,18.582 13.082,29.225 0,29.225" style="fill-rule:nonzero;"/>
            </g>
        </g>
        <g transform="matrix(1,0,0,1,826.579,0)">
            <g transform="matrix(1,0,0,1,73.766,77.42)">
                <path d="M0,-32.225L-44.45,-32.225C-46.107,-32.225 -47.45,-30.882 -47.45,-29.225L-47.45,-25.225C-47.45,-11.316 -36.134,0 -22.225,0C-8.316,0 3,-11.316 3,-25.225L3,-29.225C3,-30.882 1.657,-32.225 0,-32.225M0,-29.225L0,-25.225C0,-12.951 -9.95,-3 -22.225,-3C-34.5,-3 -44.45,-12.951 -44.45,-25.225L-44.45,-29.225L0,-29.225" style="fill-rule:nonzero;"/>
            </g>
        </g>
        <g transform="matrix(1,0,0,1,826.579,0)">
            <g transform="matrix(0,-1,-1,0,51.541,25.97)">
                <path d="M-22.225,-22.225C-34.499,-22.225 -44.45,-12.275 -44.45,0C-44.45,12.275 -34.499,22.225 -22.225,22.225C-9.951,22.225 0,12.275 0,0C0,-12.275 -9.951,-22.225 -22.225,-22.225" style="fill:rgb(146,217,0);fill-rule:nonzero;"/>
            </g>
        </g>
        <g transform="matrix(1,0,0,1,826.579,0)">
            <g opacity="0.5">
                <g transform="matrix(0.707107,-0.707107,-0.707107,-0.707107,40.8689,52.4918)">
                    <clipPath id="_clip1">
                        <path d="M-5.78,10.54L10.54,-5.779L26.859,10.54L10.54,26.859L-5.78,10.54Z" clip-rule="nonzero"/>
                    </clipPath>
                    <g clip-path="url(#_clip1)">
                        <path d="M-4.366,10.54C3.867,18.772 17.212,18.772 25.445,10.54" style="fill:none;fill-rule:nonzero;stroke:white;stroke-width:2px;"/>
                    </g>
                </g>
            </g>
        </g>
        <g transform="matrix(1,0,0,1,826.579,0)">
            <clipPath id="_clip2">
                <path d="M29.316,48.195C29.316,60.47 39.266,70.42 51.541,70.42C63.815,70.42 73.766,60.47 73.766,48.195C73.766,35.92 63.815,25.97 51.541,25.97C39.266,25.97 29.316,35.92 29.316,48.195Z" clip-rule="nonzero"/>
            </clipPath>
            <g clip-path="url(#_clip2)">
                <g transform="matrix(1,0,0,1,60.8148,35.8529)">
                    <path d="M0,25.096C-1.46,25.096 -2.95,24.683 -4.265,24.319C-5.021,24.109 -5.734,23.911 -6.366,23.81C-7.093,23.694 -7.88,23.66 -8.792,23.62C-11.172,23.518 -14.133,23.391 -18.51,21.764C-23.931,19.749 -26.438,15.675 -26.175,9.308C-25.986,4.733 -22.107,0 -15.942,0C-10.963,0 -8.522,2.087 -6.368,3.929C-5.979,4.262 -5.597,4.588 -5.209,4.893C-2.769,6.815 1.334,9.136 1.375,9.159C1.479,9.184 5.917,10.783 4.56,20.014C4.916,20.99 5.078,22.923 3.383,24.099C2.417,24.77 1.311,25.096 0,25.096" style="fill:rgb(146,217,0);fill-rule:nonzero;"/>
                </g>
                <g transform="matrix(1,0,0,1,44.8724,61.4487)">
                    <path d="M0,-26.096C-6.465,-26.096 -10.534,-21.119 -10.732,-16.308C-11.005,-9.698 -8.392,-5.463 -2.742,-3.363C1.708,-1.709 4.841,-1.574 7.127,-1.475C8.024,-1.437 8.799,-1.404 9.497,-1.292C10.102,-1.195 10.803,-1.001 11.545,-0.795C12.89,-0.423 14.415,0 15.942,0C17.358,0 18.559,-0.355 19.611,-1.086C21.485,-2.388 21.386,-4.482 21.014,-5.629C22.272,-14.455 18.272,-16.582 17.507,-16.904C17.006,-17.189 13.297,-19.32 11.042,-21.095C10.66,-21.396 10.284,-21.719 9.899,-22.047C7.79,-23.851 5.165,-26.096 0,-26.096M0,-25.096C5.691,-25.096 7.924,-22.277 10.424,-20.309C12.924,-18.341 17.072,-16.001 17.072,-16.001C17.072,-16.001 21.36,-14.564 19.988,-5.523C19.988,-5.523 20.955,-3.237 19.04,-1.907C18.075,-1.237 17.019,-1 15.942,-1C13.736,-1 11.442,-1.993 9.655,-2.279C6.996,-2.705 3.617,-2.067 -2.394,-4.301C-8.403,-6.534 -9.946,-11.115 -9.733,-16.267C-9.549,-20.731 -5.691,-25.096 0,-25.096" style="fill-rule:nonzero;"/>
                </g>
                <g opacity="0.5">
                    <g transform="matrix(1,0,0,1,35.6473,36.5792)">
                        <path d="M0,5.836C0,5.836 2.271,-0.413 8.733,-0.413C15.195,-0.413 17.03,2.061 18.346,3.138C19.663,4.214 22.021,6.249 22.021,6.249C22.021,6.249 19.981,5.424 17.07,3.151C14.776,1.36 12.011,0.116 8.168,0.508C2.305,1.107 0,5.836 0,5.836" style="fill:white;fill-rule:nonzero;"/>
                    </g>
                </g>
                <g transform="matrix(1,0,0,1,44.8724,61.4487)">
                    <path d="M0,-26.096C-6.465,-26.096 -10.534,-21.119 -10.732,-16.308C-11.005,-9.698 -8.392,-5.463 -2.742,-3.363C1.708,-1.709 4.841,-1.574 7.127,-1.475C8.024,-1.437 8.799,-1.404 9.497,-1.292C10.102,-1.195 10.803,-1.001 11.545,-0.795C12.89,-0.423 14.415,0 15.942,0C17.358,0 18.559,-0.355 19.611,-1.086C21.485,-2.388 21.386,-4.482 21.014,-5.629C22.272,-14.455 18.272,-16.582 17.507,-16.904C17.006,-17.189 13.297,-19.32 11.042,-21.095C10.66,-21.396 10.284,-21.719 9.899,-22.047C7.79,-23.851 5.165,-26.096 0,-26.096M0,-25.096C5.691,-25.096 7.924,-22.277 10.424,-20.309C12.924,-18.341 17.072,-16.001 17.072,-16.001C17.072,-16.001 21.36,-14.564 19.988,-5.523C19.988,-5.523 20.955,-3.237 19.04,-1.907C18.075,-1.237 17.019,-1 15.942,-1C13.736,-1 11.442,-1.993 9.655,-2.279C6.996,-2.705 3.617,-2.067 -2.394,-4.301C-8.403,-6.534 -9.946,-11.115 -9.733,-16.267C-9.549,-20.731 -5.691,-25.096 0,-25.096" style="fill-rule:nonzero;"/>
                </g>
                <g transform="matrix(1,0,0,1,56.9452,54.7835)">
                    <path d="M0,-8.857C0,-8.857 3.949,-10.796 7.925,-10.081C10.584,-9.602 12.02,-8.006 12.445,-5.985C12.871,-3.964 12.658,-0.401 9.308,0.769C5.957,1.939 2.234,1.156 -0.957,-0.188C-3.252,-1.154 -5.584,-2.9 -7.446,-3.964C-9.307,-5.028 -11.169,-5.879 -13.349,-5.613C-15.642,-5.334 -18.674,-3.113 -16.919,1.142" style="fill:rgb(146,217,0);fill-rule:nonzero;"/>
                </g>
                <g transform="matrix(1,0,0,1,56.9452,55.0015)">
                    <path d="M0,-9.075C2.092,-10.116 4.44,-10.732 6.832,-10.661C8.019,-10.613 9.244,-10.375 10.318,-9.747C11.393,-9.134 12.25,-8.098 12.642,-6.908C13.031,-5.72 13.121,-4.477 12.914,-3.247C12.722,-2.024 12.121,-0.805 11.134,0.037C10.64,0.455 10.066,0.752 9.476,0.981C8.895,1.175 8.305,1.349 7.7,1.441C6.495,1.657 5.267,1.64 4.067,1.512C1.667,1.172 -0.607,0.39 -2.719,-0.761C-4.808,-1.912 -6.675,-3.337 -8.691,-4.425C-9.699,-4.96 -10.757,-5.396 -11.869,-5.534C-12.982,-5.681 -14.122,-5.528 -15.107,-4.991C-16.105,-4.484 -16.887,-3.568 -17.197,-2.475C-17.479,-1.372 -17.319,-0.172 -16.919,0.924C-17.41,-0.132 -17.679,-1.342 -17.444,-2.534C-17.189,-3.717 -16.396,-4.778 -15.34,-5.397C-14.295,-6.05 -13.011,-6.254 -11.805,-6.148C-10.581,-6.046 -9.42,-5.618 -8.347,-5.103C-6.183,-4.075 -4.319,-2.625 -2.286,-1.558C-0.285,-0.491 1.956,0.232 4.189,0.522C5.309,0.657 6.444,0.687 7.547,0.504C8.101,0.429 8.639,0.276 9.169,0.109C9.669,-0.08 10.148,-0.32 10.555,-0.655C12.207,-2.015 12.489,-4.597 11.929,-6.676C11.626,-7.725 10.934,-8.636 10,-9.222C9.067,-9.824 7.935,-10.082 6.8,-10.193C4.514,-10.415 2.171,-9.918 0,-9.075" style="fill-rule:nonzero;"/>
                </g>
                <g opacity="0.5">
                    <g transform="matrix(-0.242656,0.970112,0.970112,0.242656,65.4777,41.0302)">
                        <path d="M6.345,-6.462C6.345,-6.462 4.395,-4.188 3.71,0.301C3.71,0.301 3.711,3.647 6.345,5.279C6.345,5.279 4.433,3.596 4.449,0.418C4.459,-1.594 4.702,-2.921 6.345,-6.462" style="fill:white;fill-rule:nonzero;"/>
                    </g>
                </g>
                <g transform="matrix(0.648871,0.760898,0.760898,-0.648871,64.4894,48.2293)">
                    <path d="M0.686,-0.317C-0.042,-0.317 -0.634,0.087 -0.633,0.585C-0.634,1.082 -0.043,1.487 0.686,1.487C1.414,1.487 2.006,1.083 2.005,0.585C2.006,0.088 1.415,-0.317 0.686,-0.317" style="fill-rule:nonzero;"/>
                </g>
                <g opacity="0.3">
                    <g transform="matrix(-0.999031,0.0440178,0.0440178,0.999031,47.7013,46.4608)">
                        <path d="M-0.438,-6.935C1.658,-7.028 3.082,-5.49 3.163,-3.664C3.243,-1.838 1.877,-0.086 -0.438,0.016C-2.751,0.118 -3.375,-1.638 -3.429,-2.848C-3.482,-4.057 -2.882,-6.828 -0.438,-6.935" style="fill-rule:nonzero;"/>
                    </g>
                </g>
                <g transform="matrix(0.999104,-0.0423161,-0.0423161,-0.999104,48.2237,45.5477)">
                    <path d="M-0.134,-0.014C-2.427,0.083 -3.595,1.778 -3.53,3.323C-3.454,5.096 -1.995,6.375 -0.134,6.296C2.145,6.199 2.78,3.776 2.731,2.618C2.675,1.29 1.893,-0.1 -0.134,-0.014" style="fill:white;fill-rule:nonzero;"/>
                </g>
                <g transform="matrix(1,0,0,1,47.8236,45.8169)">
                    <path d="M0,-6.804C-2.005,-6.804 -3.517,-5.358 -3.517,-3.44C-3.517,-1.772 -2.191,0 0.267,0C2.482,0 3.269,-1.617 3.269,-3.001C3.269,-4.242 2.47,-6.804 0,-6.804M0,-6.304C2.138,-6.304 2.769,-4.013 2.769,-3.001C2.769,-1.989 2.291,-0.5 0.267,-0.5C-1.757,-0.5 -3.017,-1.912 -3.017,-3.44C-3.017,-4.968 -1.833,-6.304 0,-6.304" style="fill-rule:nonzero;"/>
                </g>
                <g transform="matrix(0,-1,-1,0,48.9019,42.7934)">
                    <path d="M-0.429,-0.43C-0.759,-0.43 -1.027,-0.238 -1.027,-0C-1.027,0.237 -0.759,0.429 -0.429,0.429C-0.099,0.429 0.168,0.237 0.168,-0C0.168,-0.238 -0.099,-0.43 -0.429,-0.43" style="fill-rule:nonzero;"/>
                </g>
                <g opacity="0.3">
                    <g transform="matrix(1,0,0,1,35.1395,62.2538)">
                        <path d="M0,-17.072C0,-17.072 0.425,-9.041 7.499,-6.861C14.572,-4.68 16.655,-5.641 21.38,-4.255C26.455,-2.765 28.241,-3.297 28.778,-5.866L30.634,-6.13C30.634,-6.13 29.943,0 24.625,-1.116C19.306,-2.234 12.924,-3.031 12.924,-3.031C12.924,-3.031 2.872,-5.371 0.957,-9.413C-0.958,-13.456 0,-17.072 0,-17.072" style="fill-rule:nonzero;"/>
                    </g>
                </g>
                <g transform="matrix(1,0,0,1,55.9881,50.7664)">
                    <path d="M0,3.829C0,3.829 -1.636,3.231 -4.222,1.461C-6.741,-0.263 -9.386,-2.074 -12.392,-1.596C-15.826,-1.049 -17.551,1.516 -15.756,5.903" style="fill:none;fill-rule:nonzero;stroke:black;stroke-width:1px;stroke-linejoin:round;"/>
                </g>
                <g opacity="0.3">
                    <g transform="matrix(1,0,0,1,46.6541,56.1635)">
                        <path d="M0,-7.071C0,-7.071 2.678,-7.232 8.651,-3.785C12.155,-1.763 14.878,-1.528 17.551,-1.648C20.224,-1.767 21.661,-3.27 22.897,-5.829C22.897,-5.829 22.898,0.161 16.396,-0.045C9.892,-0.252 6.554,-3.074 5.112,-3.936C3.669,-4.799 0,-7.071 0,-7.071" style="fill-rule:nonzero;"/>
                    </g>
                </g>
                <g opacity="0.3">
                    <g transform="matrix(0.649163,0.760649,0.760649,-0.649163,64.3305,48.4115)">
                        <path d="M0.808,-0.373C-0.008,-0.373 -0.67,0.103 -0.67,0.689C-0.669,1.277 -0.008,1.752 0.808,1.752C1.625,1.752 2.287,1.276 2.287,0.689C2.287,0.102 1.625,-0.373 0.808,-0.373" style="fill-rule:nonzero;"/>
                    </g>
                </g>
                <g transform="matrix(1,0,0,1,56.9452,55.0015)">
                    <path d="M0,-9.075C2.092,-10.116 4.44,-10.732 6.832,-10.661C8.019,-10.613 9.244,-10.375 10.318,-9.747C11.393,-9.134 12.25,-8.098 12.642,-6.908C13.031,-5.72 13.121,-4.477 12.914,-3.247C12.722,-2.024 12.121,-0.805 11.134,0.037C10.64,0.455 10.066,0.752 9.476,0.981C8.895,1.175 8.305,1.349 7.7,1.441C6.495,1.657 5.267,1.64 4.067,1.512C1.667,1.172 -0.607,0.39 -2.719,-0.761C-4.808,-1.912 -6.675,-3.337 -8.691,-4.425C-9.699,-4.96 -10.757,-5.396 -11.869,-5.534C-12.982,-5.681 -14.122,-5.528 -15.107,-4.991C-16.105,-4.484 -16.887,-3.568 -17.197,-2.475C-17.479,-1.372 -17.319,-0.172 -16.919,0.924C-17.41,-0.132 -17.679,-1.342 -17.444,-2.534C-17.189,-3.717 -16.396,-4.778 -15.34,-5.397C-14.295,-6.05 -13.011,-6.254 -11.805,-6.148C-10.581,-6.046 -9.42,-5.618 -8.347,-5.103C-6.183,-4.075 -4.319,-2.625 -2.286,-1.558C-0.285,-0.491 1.956,0.232 4.189,0.522C5.309,0.657 6.444,0.687 7.547,0.504C8.101,0.429 8.639,0.276 9.169,0.109C9.669,-0.08 10.148,-0.32 10.555,-0.655C12.207,-2.015 12.489,-4.597 11.929,-6.676C11.626,-7.725 10.934,-8.636 10,-9.222C9.067,-9.824 7.935,-10.082 6.8,-10.193C4.514,-10.415 2.171,-9.918 0,-9.075" style="fill-rule:nonzero;"/>
                </g>
            </g>
        </g>
        <g transform="matrix(1,0,0,1,826.579,0)">
            <g transform="matrix(1,0,0,1,51.5409,73.4199)">
                <path d="M0,-50.45C-13.909,-50.45 -25.225,-39.134 -25.225,-25.225C-25.225,-11.316 -13.909,0 0,0C13.909,0 25.225,-11.316 25.225,-25.225C25.225,-39.134 13.909,-50.45 0,-50.45M0,-47.45C12.275,-47.45 22.225,-37.499 22.225,-25.225C22.225,-12.95 12.275,-3 0,-3C-12.274,-3 -22.225,-12.95 -22.225,-25.225C-22.225,-37.499 -12.274,-47.45 0,-47.45" style="fill-rule:nonzero;"/>
            </g>
        </g>
        <g transform="matrix(1,0,0,1,826.579,0)">
            <g opacity="0.5">
                <g transform="matrix(0,-1,-1,0,54.6063,26.2556)">
                    <path d="M-0.999,-0.998C-1.55,-0.998 -1.997,-0.551 -1.997,0.001C-1.997,0.552 -1.55,0.999 -0.999,0.999C-0.448,0.999 0,0.552 0,0.001C0,-0.551 -0.448,-0.998 -0.999,-0.998" style="fill:white;fill-rule:nonzero;"/>
                </g>
            </g>
        </g>
    </g>
</svg>
