<?xml version="1.0" encoding="UTF-8" standalone="no"?>
<!DOCTYPE svg PUBLIC "-//W3C//DTD SVG 1.1//EN" "http://www.w3.org/Graphics/SVG/1.1/DTD/svg11.dtd">
<svg width="100%" height="100%" viewBox="0 0 57 61" version="1.1" xmlns="http://www.w3.org/2000/svg" xmlns:xlink="http://www.w3.org/1999/xlink" xml:space="preserve" xmlns:serif="http://www.serif.com/" style="fill-rule:evenodd;clip-rule:evenodd;stroke-linecap:round;stroke-miterlimit:10;">
    <g transform="matrix(1,0,0,1,-966.859,-16.9973)">
        <g transform="matrix(1,0,0,1,826.579,0)">
            <g transform="matrix(1,0,0,1,171.541,46.6951)">
                <path d="M0,29.225C-13.082,29.225 -23.725,18.582 -23.725,5.5L-23.725,1.5C-23.725,0.671 -23.054,0 -22.225,0L22.225,0C23.054,0 23.725,0.671 23.725,1.5L23.725,5.5C23.725,18.582 13.082,29.225 0,29.225" style="fill-rule:nonzero;"/>
            </g>
        </g>
        <g transform="matrix(1,0,0,1,826.579,0)">
            <g transform="matrix(1,0,0,1,193.766,77.42)">
                <path d="M0,-32.225L-44.45,-32.225C-46.107,-32.225 -47.45,-30.882 -47.45,-29.225L-47.45,-25.225C-47.45,-11.316 -36.134,0 -22.225,0C-8.316,0 3,-11.316 3,-25.225L3,-29.225C3,-30.882 1.657,-32.225 0,-32.225M0,-29.225L0,-25.225C0,-12.951 -9.95,-3 -22.225,-3C-34.5,-3 -44.45,-12.951 -44.45,-25.225L-44.45,-29.225L0,-29.225" style="fill-rule:nonzero;"/>
            </g>
        </g>
        <g transform="matrix(1,0,0,1,826.579,0)">
            <g transform="matrix(0,-1,-1,0,171.541,25.97)">
                <path d="M-22.225,-22.225C-34.499,-22.225 -44.45,-12.275 -44.45,0C-44.45,12.275 -34.499,22.225 -22.225,22.225C-9.951,22.225 0,12.275 0,0C0,-12.275 -9.951,-22.225 -22.225,-22.225" style="fill:rgb(146,217,0);fill-rule:nonzero;"/>
            </g>
        </g>
        <g transform="matrix(1,0,0,1,826.579,0)">
            <g opacity="0.5">
                <g transform="matrix(0.707107,-0.707107,-0.707107,-0.707107,160.869,52.4918)">
                    <clipPath id="_clip1">
                        <path d="M-5.78,10.54L10.539,-5.779L26.859,10.54L10.539,26.859L-5.78,10.54Z" clip-rule="nonzero"/>
                    </clipPath>
                    <g clip-path="url(#_clip1)">
                        <path d="M-4.366,10.54C3.867,18.772 17.212,18.772 25.445,10.54" style="fill:none;fill-rule:nonzero;stroke:white;stroke-width:2px;"/>
                    </g>
                </g>
            </g>
        </g>
        <g transform="matrix(1,0,0,1,826.579,0)">
            <clipPath id="_clip2">
                <path d="M149.315,48.195C149.315,60.47 159.267,70.42 171.541,70.42C183.816,70.42 193.766,60.47 193.766,48.195C193.766,35.92 183.816,25.97 171.541,25.97C159.267,25.97 149.315,35.92 149.315,48.195Z" clip-rule="nonzero"/>
            </clipPath>
            <g clip-path="url(#_clip2)">
                <g transform="matrix(1,0,0,1,175.062,32.1141)">
                    <path d="M0,23.432C-0.062,23.432 -0.125,23.42 -0.184,23.397L-10.063,19.494C-10.137,19.466 -10.203,19.419 -10.255,19.36C-10.36,19.241 -12.823,16.365 -12.823,9.961C-12.823,3.117 -7.788,0 -3.109,0C2.659,0 5.583,3.701 5.583,11C5.583,19.211 0.519,23.165 0.303,23.329C0.215,23.397 0.108,23.432 0,23.432" style="fill:rgb(146,217,0);fill-rule:nonzero;"/>
                </g>
                <g transform="matrix(1,0,0,1,171.953,56.0465)">
                    <path d="M0,-24.432C-2.669,-24.432 -5.161,-23.496 -7.018,-21.797C-9.109,-19.883 -10.215,-17.176 -10.215,-13.971C-10.215,-7.381 -7.631,-4.367 -7.521,-4.242C-7.417,-4.123 -7.285,-4.031 -7.138,-3.973L2.741,-0.07C2.86,-0.023 2.984,0 3.108,0C3.324,0 3.538,-0.07 3.715,-0.205C3.938,-0.375 9.192,-4.476 9.192,-12.932C9.192,-20.563 6.099,-24.432 0,-24.432M0,-23.432C4.626,-23.432 8.192,-20.99 8.192,-12.932C8.192,-4.874 3.108,-1 3.108,-1L-6.771,-4.902C-6.771,-4.902 -9.215,-7.682 -9.215,-13.971C-9.215,-20.26 -4.626,-23.432 0,-23.432" style="fill-rule:nonzero;"/>
                </g>
                <g opacity="0.5">
                    <g transform="matrix(-0.0193868,0.999812,0.999812,0.0193868,169.656,27.1045)">
                        <path d="M9.808,-5.354C9.808,-5.354 5.221,-3.884 5.099,2.396C4.976,8.748 9.808,9.708 9.808,9.708C9.808,9.708 6.382,7.302 6.479,2.291C6.576,-2.715 9.808,-5.354 9.808,-5.354" style="fill:white;fill-rule:nonzero;"/>
                    </g>
                </g>
                <g transform="matrix(1,0,0,1,171.953,56.0465)">
                    <path d="M0,-24.432C-2.669,-24.432 -5.161,-23.496 -7.018,-21.797C-9.109,-19.883 -10.215,-17.176 -10.215,-13.971C-10.215,-7.381 -7.631,-4.367 -7.521,-4.242C-7.417,-4.123 -7.285,-4.031 -7.138,-3.973L2.741,-0.07C2.86,-0.023 2.984,0 3.108,0C3.324,0 3.538,-0.07 3.715,-0.205C3.938,-0.375 9.192,-4.476 9.192,-12.932C9.192,-20.563 6.099,-24.432 0,-24.432M0,-23.432C4.626,-23.432 8.192,-20.99 8.192,-12.932C8.192,-4.874 3.108,-1 3.108,-1L-6.771,-4.902C-6.771,-4.902 -9.215,-7.682 -9.215,-13.971C-9.215,-20.26 -4.626,-23.432 0,-23.432" style="fill-rule:nonzero;"/>
                </g>
                <g opacity="0.3">
                    <g transform="matrix(1,0,0,1,163.047,55.0468)">
                        <path d="M0,-16.572C0,-16.572 1.174,-10.5 8.361,-10.5C15.549,-10.5 17.098,-16.115 17.098,-16.115C17.098,-16.115 19.145,-5.279 12.015,0L1.011,-4.492C1.011,-4.492 -1.909,-10.908 0,-16.572" style="fill-rule:nonzero;"/>
                    </g>
                </g>
                <g transform="matrix(1,0,0,1,166.22,45.8992)">
                    <path d="M0,18.603C-0.147,18.603 -0.286,18.539 -0.381,18.427C-0.476,18.315 -0.517,18.167 -0.494,18.022C-0.266,16.632 0.184,12.685 -0.461,11.136C-0.557,10.908 -2.768,5.503 -0.585,2.229C0.401,0.75 2.1,0 4.464,0C6.422,0 7.872,0.846 8.658,2.446C10.556,6.312 8.218,14.062 4.859,18.409C4.765,18.531 4.619,18.603 4.464,18.603L0,18.603Z" style="fill:rgb(146,217,0);fill-rule:nonzero;"/>
                </g>
                <g transform="matrix(1,0,0,1,170.683,65.0021)">
                    <path d="M0,-19.603C-2.542,-19.603 -4.38,-18.778 -5.465,-17.151C-7.794,-13.657 -5.486,-8.013 -5.387,-7.774C-4.854,-6.497 -5.144,-3.04 -5.451,-1.162C-5.498,-0.872 -5.416,-0.576 -5.226,-0.353C-5.036,-0.129 -4.757,0 -4.464,0L0,0C0.31,0 0.602,-0.143 0.792,-0.388C4.24,-4.851 6.62,-12.851 4.643,-16.877C4.032,-18.121 2.731,-19.603 0,-19.603M0,-18.603C7.201,-18.603 4.295,-6.559 0,-1L-4.464,-1C-4.464,-1 -3.622,-6.138 -4.464,-8.159C-5.306,-10.18 -7.749,-18.603 0,-18.603" style="fill-rule:nonzero;"/>
                </g>
                <g opacity="0.3">
                    <g transform="matrix(0.969317,0.245812,0.245812,-0.969317,164.185,62.7022)">
                        <path d="M2.292,-0.76C2.292,-0.76 1.845,4.427 0.532,6.179C-0.781,7.931 -5.219,15.496 2.292,17.4C9.272,19.17 9.416,6.782 6.619,0.337L2.292,-0.76Z" style="fill-rule:nonzero;"/>
                    </g>
                </g>
                <g transform="matrix(1,0,0,1,171.953,60.3032)">
                    <path d="M0,4.199C-0.147,4.199 -0.287,4.134 -0.382,4.021C-0.477,3.909 -0.518,3.76 -0.493,3.615C-0.487,3.578 0.173,0 4.258,0C5.792,0 7.954,1.147 7.954,3.699C7.954,3.975 7.73,4.199 7.454,4.199L0,4.199Z" style="fill:white;fill-rule:nonzero;"/>
                </g>
                <g transform="matrix(1,0,0,1,176.211,65.0019)">
                    <path d="M0,-5.199C-3.602,-5.199 -5.005,-2.562 -5.244,-1.168C-5.293,-0.878 -5.212,-0.58 -5.022,-0.355C-4.833,-0.13 -4.553,0 -4.258,0L3.196,0C3.748,0 4.196,-0.448 4.196,-1C4.196,-3.896 1.742,-5.199 0,-5.199M0,-4.199C1.154,-4.199 3.196,-3.337 3.196,-1L-4.258,-1C-4.258,-1 -3.71,-4.199 0,-4.199" style="fill-rule:nonzero;"/>
                </g>
                <g transform="matrix(1,0,0,1,169.42,60.3032)">
                    <path d="M0,4.199C-0.147,4.199 -0.287,4.134 -0.382,4.021C-0.477,3.909 -0.518,3.76 -0.493,3.615C-0.487,3.578 0.173,0 4.258,0C5.792,0 7.954,1.147 7.954,3.699C7.954,3.975 7.73,4.199 7.454,4.199L0,4.199Z" style="fill:white;fill-rule:nonzero;"/>
                </g>
                <g transform="matrix(1,0,0,1,173.678,65.0019)">
                    <path d="M0,-5.199C-3.602,-5.199 -5.005,-2.562 -5.243,-1.168C-5.293,-0.878 -5.212,-0.58 -5.022,-0.355C-4.832,-0.13 -4.552,0 -4.257,0L3.196,0C3.749,0 4.196,-0.448 4.196,-1C4.196,-3.896 1.743,-5.199 0,-5.199M0,-4.199C1.155,-4.199 3.196,-3.337 3.196,-1L-4.257,-1C-4.257,-1 -3.71,-4.199 0,-4.199" style="fill-rule:nonzero;"/>
                </g>
            </g>
        </g>
        <g transform="matrix(1,0,0,1,826.579,0)">
            <g transform="matrix(1,0,0,1,171.541,73.4199)">
                <path d="M0,-50.45C-13.909,-50.45 -25.225,-39.134 -25.225,-25.225C-25.225,-11.316 -13.909,0 0,0C13.909,0 25.225,-11.316 25.225,-25.225C25.225,-39.134 13.909,-50.45 0,-50.45M0,-47.45C12.275,-47.45 22.225,-37.499 22.225,-25.225C22.225,-12.95 12.275,-3 0,-3C-12.274,-3 -22.225,-12.95 -22.225,-25.225C-22.225,-37.499 -12.274,-47.45 0,-47.45" style="fill-rule:nonzero;"/>
            </g>
        </g>
        <g transform="matrix(1,0,0,1,826.579,0)">
            <g opacity="0.5">
                <g transform="matrix(0,-1,-1,0,174.606,26.2556)">
                    <path d="M-0.999,-0.998C-1.55,-0.998 -1.997,-0.551 -1.997,0.001C-1.997,0.552 -1.55,0.999 -0.999,0.999C-0.448,0.999 0,0.552 0,0.001C0,-0.551 -0.448,-0.998 -0.999,-0.998" style="fill:white;fill-rule:nonzero;"/>
                </g>
            </g>
        </g>
    </g>
</svg>
