<?xml version="1.0" encoding="UTF-8" standalone="no"?>
<!DOCTYPE svg PUBLIC "-//W3C//DTD SVG 1.1//EN" "http://www.w3.org/Graphics/SVG/1.1/DTD/svg11.dtd">
<svg width="100%" height="100%" viewBox="0 0 100 100" version="1.1" xmlns="http://www.w3.org/2000/svg" xmlns:xlink="http://www.w3.org/1999/xlink" xml:space="preserve" xmlns:serif="http://www.serif.com/" style="fill-rule:evenodd;clip-rule:evenodd;stroke-linecap:round;stroke-miterlimit:10;">
    <g transform="matrix(1,0,0,1,-573,-161)">
        <g id="stage_4_icon" transform="matrix(0.99836,0,0,0.99836,0.431812,0.0061835)">
            <rect x="573.509" y="161.258" width="100.164" height="100.164" style="fill:none;"/>
            <g transform="matrix(1.00164,0,0,1.00164,623.591,207.835)">
                <path d="M0,29.225C-13.082,29.225 -23.725,18.582 -23.725,5.5L-23.725,1.5C-23.725,0.671 -23.054,0 -22.225,0L22.225,0C23.054,0 23.725,0.671 23.725,1.5L23.725,5.5C23.725,18.582 13.082,29.225 0,29.225" style="fill-rule:nonzero;"/>
            </g>
            <g transform="matrix(1.00164,0,0,1.00164,645.852,238.61)">
                <path d="M0,-32.225L-44.45,-32.225C-46.107,-32.225 -47.45,-30.882 -47.45,-29.225L-47.45,-25.225C-47.45,-11.316 -36.134,0 -22.225,0C-8.316,0 3,-11.316 3,-25.225L3,-29.225C3,-30.882 1.657,-32.225 0,-32.225M0,-29.225L0,-25.225C0,-12.951 -9.95,-3 -22.225,-3C-34.5,-3 -44.45,-12.951 -44.45,-25.225L-44.45,-29.225L0,-29.225" style="fill-rule:nonzero;"/>
            </g>
            <g transform="matrix(0,-1.00164,-1.00164,0,623.591,187.076)">
                <path d="M-22.225,-22.225C-34.499,-22.225 -44.45,-12.275 -44.45,0C-44.45,12.275 -34.499,22.225 -22.225,22.225C-9.951,22.225 0,12.275 0,0C0,-12.275 -9.951,-22.225 -22.225,-22.225" style="fill:rgb(144,110,252);fill-rule:nonzero;"/>
            </g>
            <g transform="matrix(1.00164,0,0,1.00164,451.768,161.063)">
                <g opacity="0.5">
                    <g transform="matrix(0.707107,-0.707107,-0.707107,-0.707107,160.869,52.4918)">
                        <clipPath id="_clip1">
                            <path d="M-5.78,10.54L10.539,-5.779L26.859,10.54L10.539,26.859L-5.78,10.54Z" clip-rule="nonzero"/>
                        </clipPath>
                        <g clip-path="url(#_clip1)">
                            <path d="M-4.366,10.54C3.867,18.772 17.212,18.772 25.445,10.54" style="fill:none;fill-rule:nonzero;stroke:white;stroke-width:2px;"/>
                        </g>
                    </g>
                </g>
            </g>
            <g transform="matrix(1.00164,0,0,1.00164,623.591,234.604)">
                <path d="M0,-50.45C-13.909,-50.45 -25.225,-39.134 -25.225,-25.225C-25.225,-11.316 -13.909,0 0,0C13.909,0 25.225,-11.316 25.225,-25.225C25.225,-39.134 13.909,-50.45 0,-50.45M0,-47.45C12.275,-47.45 22.225,-37.499 22.225,-25.225C22.225,-12.95 12.275,-3 0,-3C-12.274,-3 -22.225,-12.95 -22.225,-25.225C-22.225,-37.499 -12.274,-47.45 0,-47.45" style="fill-rule:nonzero;"/>
            </g>
            <g transform="matrix(1.00164,0,0,1.00164,451.768,161.063)">
                <g opacity="0.5">
                    <g transform="matrix(0,-1,-1,0,174.606,26.2556)">
                        <path d="M-0.999,-0.998C-1.55,-0.998 -1.997,-0.551 -1.997,0.001C-1.997,0.552 -1.55,0.999 -0.999,0.999C-0.448,0.999 0,0.552 0,0.001C0,-0.551 -0.448,-0.998 -0.999,-0.998" style="fill:white;fill-rule:nonzero;"/>
                    </g>
                </g>
            </g>
            <g transform="matrix(1.00164,0,0,1.00164,0.394521,-1.80233)">
                <g transform="matrix(36,0,0,36,612.63,224.071)">
                    <path d="M0.416,-0.27C0.432,-0.27 0.446,-0.264 0.457,-0.253C0.468,-0.242 0.474,-0.228 0.474,-0.212C0.474,-0.195 0.468,-0.181 0.457,-0.17C0.446,-0.159 0.432,-0.153 0.416,-0.153L0.357,-0.153L0.357,-0.058C0.357,-0.042 0.351,-0.028 0.34,-0.017C0.329,-0.006 0.315,-0 0.299,-0C0.283,-0 0.269,-0.006 0.258,-0.017C0.247,-0.028 0.241,-0.042 0.241,-0.058L0.241,-0.153L0.078,-0.153C0.058,-0.153 0.042,-0.161 0.03,-0.178C0.019,-0.194 0.016,-0.212 0.023,-0.232L0.186,-0.665C0.191,-0.68 0.201,-0.69 0.216,-0.697C0.231,-0.704 0.246,-0.704 0.261,-0.699C0.276,-0.693 0.287,-0.683 0.294,-0.668C0.3,-0.653 0.3,-0.639 0.295,-0.624L0.162,-0.27L0.241,-0.27L0.241,-0.304C0.241,-0.32 0.247,-0.334 0.258,-0.345C0.269,-0.356 0.283,-0.362 0.299,-0.362C0.315,-0.362 0.329,-0.356 0.34,-0.345C0.351,-0.334 0.357,-0.32 0.357,-0.304L0.357,-0.27L0.416,-0.27Z" style="fill:white;fill-rule:nonzero;"/>
                </g>
            </g>
        </g>
    </g>
</svg>
