<?xml version="1.0" encoding="UTF-8" standalone="no"?>
<!DOCTYPE svg PUBLIC "-//W3C//DTD SVG 1.1//EN" "http://www.w3.org/Graphics/SVG/1.1/DTD/svg11.dtd">
<svg width="100%" height="100%" viewBox="0 0 27 15" version="1.1" xmlns="http://www.w3.org/2000/svg" xmlns:xlink="http://www.w3.org/1999/xlink" xml:space="preserve" xmlns:serif="http://www.serif.com/" style="fill-rule:evenodd;clip-rule:evenodd;stroke-linejoin:round;stroke-miterlimit:2;">
    <g transform="matrix(1,0,0,1,-153,-111)">
        <g id="Background---Lower-Arm" serif:id="Background - Lower Arm">
            <g transform="matrix(1,0,0,1,173.431,112.646)">
                <path d="M0,10.896C-1.467,11.087 -9.493,11.869 -13.044,12.2C-16.595,12.531 -21.192,9.339 -19.408,4.467C-17.624,-0.405 -12.687,-1.635 -8.664,-0.851C-4.641,-0.067 3.596,3.212 4.854,4.07C6.11,4.929 6.639,6.982 5.402,8.752C4.165,10.522 1.467,10.705 0,10.896" style="fill:rgb(199,178,153);fill-rule:nonzero;"/>
            </g>
            <g opacity="0.5">
                <g transform="matrix(1,0,0,1,173.431,112.646)">
                    <path d="M0,10.896C-1.467,11.087 -9.493,11.869 -13.044,12.2C-16.595,12.531 -21.192,9.339 -19.408,4.467C-17.624,-0.405 -12.687,-1.635 -8.664,-0.851C-4.641,-0.067 3.596,3.212 4.854,4.07C6.11,4.929 6.639,6.982 5.402,8.752C4.165,10.522 1.467,10.705 0,10.896" style="fill-rule:nonzero;"/>
                </g>
            </g>
            <g transform="matrix(1,0,0,1,155.435,125.41)">
                <path d="M0,-10.787C-0.642,-9.754 -1.168,-8.645 -1.393,-7.485C-1.506,-6.91 -1.565,-6.328 -1.503,-5.762C-1.424,-5.201 -1.271,-4.656 -0.978,-4.182C-0.386,-3.204 0.437,-2.366 1.428,-1.824C2.412,-1.287 3.567,-0.986 4.663,-1.04C7.013,-1.262 9.492,-1.507 11.908,-1.662L15.557,-1.894C16.776,-1.935 17.992,-2.011 19.214,-2.021C18.015,-1.785 16.81,-1.613 15.609,-1.407L11.996,-0.897C9.571,-0.56 7.209,-0.3 4.717,-0.042C3.378,0 2.094,-0.352 0.959,-1.004C-0.156,-1.683 -1.088,-2.657 -1.652,-3.819C-1.958,-4.411 -2.091,-5.072 -2.131,-5.718C-2.15,-6.369 -2.042,-7.004 -1.864,-7.608C-1.46,-8.8 -0.824,-9.884 0,-10.787" style="fill:rgb(76,68,60);fill-rule:nonzero;"/>
            </g>
        </g>
    </g>
</svg>
