<?xml version="1.0" encoding="UTF-8" standalone="no"?>
<!DOCTYPE svg PUBLIC "-//W3C//DTD SVG 1.1//EN" "http://www.w3.org/Graphics/SVG/1.1/DTD/svg11.dtd">
<svg width="100%" height="100%" viewBox="0 0 23 36" version="1.1" xmlns="http://www.w3.org/2000/svg" xmlns:xlink="http://www.w3.org/1999/xlink" xml:space="preserve" xmlns:serif="http://www.serif.com/" style="fill-rule:evenodd;clip-rule:evenodd;stroke-linejoin:round;stroke-miterlimit:2;">
    <g transform="matrix(1,0,0,1,-132,-92)">
        <g id="Foreground---Upper-Arm" serif:id="Foreground - Upper Arm">
            <g transform="matrix(1,0,0,1,141.269,94.3543)">
                <path d="M0,30.295C-1.614,28.963 -5.096,23.522 -7.513,14.41C-9.93,5.297 -6.413,-0.251 -1.404,-1.58C3.604,-2.908 8.729,-0.991 11.182,8.26C13.635,17.512 12.781,23.879 12.219,25.928C11.657,27.978 11.157,30.21 8.18,31.707C5.203,33.203 1.615,31.627 0,30.295" style="fill:rgb(199,178,153);fill-rule:nonzero;"/>
            </g>
            <g opacity="0.3">
                <g transform="matrix(1,0,0,1,152.451,127.557)">
                    <path d="M0,-24.942C2.454,-15.69 1.599,-9.323 1.038,-7.274C0.476,-5.225 -0.025,-2.992 -3.002,-1.496C-5.979,0 -9.567,-1.576 -11.182,-2.907C-12.796,-4.239 -16.278,-9.68 -18.694,-18.793C-18.694,-18.793 -13.378,-12.47 -7.06,-14.465C-0.741,-16.46 0,-24.942 0,-24.942" style="fill-rule:nonzero;"/>
                </g>
            </g>
            <g transform="matrix(1,0,0,1,152.451,127.743)">
                <path d="M0,-25.128C1.497,-21.071 2.373,-16.744 2.413,-12.336C2.426,-11.234 2.377,-10.126 2.236,-9.014C2.161,-8.456 2.082,-7.902 1.941,-7.326C1.811,-6.791 1.684,-6.27 1.519,-5.714C1.2,-4.616 0.639,-3.46 -0.212,-2.538C-0.629,-2.072 -1.117,-1.682 -1.62,-1.344C-2.121,-1 -2.648,-0.735 -3.251,-0.489C-4.454,-0.07 -5.737,0 -6.923,-0.199C-8.117,-0.386 -9.238,-0.792 -10.269,-1.364C-10.783,-1.654 -11.277,-1.979 -11.746,-2.378C-12.25,-2.817 -12.598,-3.273 -12.954,-3.73C-13.634,-4.648 -14.195,-5.607 -14.697,-6.59C-16.71,-10.512 -17.982,-14.713 -18.694,-18.979C-17.182,-14.934 -15.515,-10.968 -13.338,-7.357C-12.789,-6.462 -12.198,-5.595 -11.569,-4.803C-11.25,-4.425 -10.913,-4.042 -10.589,-3.788C-10.226,-3.504 -9.805,-3.251 -9.372,-3.032C-7.649,-2.141 -5.6,-1.745 -3.936,-2.367C-3.123,-2.678 -2.242,-3.221 -1.643,-3.866C-1.016,-4.522 -0.605,-5.346 -0.278,-6.295C-0.115,-6.764 0.037,-7.284 0.183,-7.789C0.319,-8.253 0.417,-8.764 0.507,-9.268C0.67,-10.288 0.792,-11.33 0.858,-12.379C1.108,-16.589 0.696,-20.864 0,-25.128" style="fill:rgb(76,68,60);fill-rule:nonzero;"/>
            </g>
            <g opacity="0.5">
                <g transform="matrix(-0.232566,-0.972581,-0.972581,0.232566,139.573,87.9893)">
                    <path d="M-9.856,-7.664C-6.005,-5.88 -4.636,-2.672 -4.722,0.83C-4.798,3.942 -6.481,6.885 -9.856,8.688C-9.856,8.688 -6.737,5.41 -6.657,1.099C-6.576,-3.212 -9.856,-7.664 -9.856,-7.664" style="fill:white;fill-rule:nonzero;"/>
                </g>
            </g>
        </g>
    </g>
</svg>
