<?xml version="1.0" encoding="UTF-8" standalone="no"?>
<!DOCTYPE svg PUBLIC "-//W3C//DTD SVG 1.1//EN" "http://www.w3.org/Graphics/SVG/1.1/DTD/svg11.dtd">
<svg width="100%" height="100%" viewBox="0 0 15 22" version="1.1" xmlns="http://www.w3.org/2000/svg" xmlns:xlink="http://www.w3.org/1999/xlink" xml:space="preserve" xmlns:serif="http://www.serif.com/" style="fill-rule:evenodd;clip-rule:evenodd;stroke-linejoin:round;stroke-miterlimit:2;">
    <g transform="matrix(1,0,0,1,-172,-116)">
        <g id="Background---Hand" serif:id="Background - Hand">
            <g transform="matrix(1,0,0,1,179.125,134.808)">
                <path d="M0,-4.348C0,-4.348 0.332,-1.908 -2.249,2.479C-2.249,2.479 5.25,0.85 6.997,-6.827L0,-4.348Z" style="fill:white;fill-rule:nonzero;"/>
            </g>
            <g opacity="0.5">
                <g transform="matrix(1,0,0,1,179.125,134.808)">
                    <path d="M0,-4.348C0,-4.348 0.332,-1.908 -2.249,2.479C-2.249,2.479 5.25,0.85 6.997,-6.827L0,-4.348Z" style="fill-rule:nonzero;"/>
                </g>
            </g>
            <g transform="matrix(1,0,0,1,175.169,127.268)">
                <path d="M0,-8.853C-1.772,-6.749 -2.486,-4.339 -1.148,-2.851C0.189,-1.363 1.992,-1.074 2.605,1.133C3.219,3.34 3.274,4.771 6.711,4.063C10.148,3.355 12.358,1.76 11.371,-2.817C10.384,-7.394 4.02,-13.624 0,-8.853" style="fill:rgb(199,178,153);fill-rule:nonzero;"/>
            </g>
            <g opacity="0.5">
                <g transform="matrix(1,0,0,1,175.169,127.268)">
                    <path d="M0,-8.853C-1.772,-6.749 -2.486,-4.339 -1.148,-2.851C0.189,-1.363 1.992,-1.074 2.605,1.133C3.219,3.34 3.274,4.771 6.711,4.063C10.148,3.355 12.358,1.76 11.371,-2.817C10.384,-7.394 4.02,-13.624 0,-8.853" style="fill-rule:nonzero;"/>
                </g>
            </g>
            <g transform="matrix(1,0,0,1,175.169,131.979)">
                <path d="M0,-13.564C-0.542,-12.739 -1.038,-11.888 -1.294,-10.969C-1.577,-10.073 -1.614,-9.097 -1.216,-8.354C-1.026,-7.989 -0.702,-7.692 -0.345,-7.387C0.01,-7.094 0.408,-6.835 0.821,-6.556C1.637,-6.022 2.542,-5.236 2.931,-4.177C3.125,-3.641 3.213,-3.18 3.346,-2.711C3.47,-2.253 3.611,-1.812 3.82,-1.498C4.19,-0.861 5.154,-0.837 6.084,-0.933C7.022,-1.054 7.983,-1.235 8.867,-1.576C9.765,-1.893 10.571,-2.46 11.124,-3.286C10.775,-2.347 9.96,-1.617 9.073,-1.131C8.166,-0.653 7.198,-0.36 6.2,-0.161C5.693,-0.074 5.172,0 4.607,-0.07C4.049,-0.123 3.41,-0.441 3.049,-0.948C2.694,-1.445 2.553,-1.966 2.405,-2.447C2.265,-2.923 2.148,-3.427 2,-3.814C1.71,-4.637 1.063,-5.221 0.273,-5.787C-0.494,-6.386 -1.411,-6.942 -1.916,-8.016C-2.38,-9.077 -2.161,-10.223 -1.751,-11.139C-1.314,-12.065 -0.715,-12.88 0,-13.564" style="fill:rgb(76,68,60);fill-rule:nonzero;"/>
            </g>
        </g>
    </g>
</svg>
