<?xml version="1.0" encoding="UTF-8" standalone="no"?>
<!DOCTYPE svg PUBLIC "-//W3C//DTD SVG 1.1//EN" "http://www.w3.org/Graphics/SVG/1.1/DTD/svg11.dtd">
<svg width="100%" height="100%" viewBox="0 0 14 22" version="1.1" xmlns="http://www.w3.org/2000/svg" xmlns:xlink="http://www.w3.org/1999/xlink" xml:space="preserve" xmlns:serif="http://www.serif.com/" style="fill-rule:evenodd;clip-rule:evenodd;stroke-linejoin:round;stroke-miterlimit:2;">
    <g transform="matrix(1,0,0,1,-160,-124)">
        <g id="Foreground---Hand" serif:id="Foreground - Hand">
            <g transform="matrix(1,0,0,1,165.629,143.667)">
                <path d="M0,-4.925C0,-4.925 0.014,-2.463 -3.11,1.555C-3.11,1.555 4.537,0.907 7.258,-6.48L0,-4.925Z" style="fill:white;fill-rule:nonzero;"/>
            </g>
            <g transform="matrix(1,0,0,1,163.259,136.009)">
                <path d="M0,-9.721C-2.029,-7.864 -3.048,-5.565 -1.913,-3.917C-0.778,-2.268 0.972,-1.75 1.296,0.518C1.62,2.786 1.49,4.212 4.99,3.952C8.489,3.694 10.887,2.397 10.498,-2.268C10.109,-6.934 4.601,-13.933 0,-9.721" style="fill:rgb(199,178,153);fill-rule:nonzero;"/>
            </g>
            <g opacity="0.3">
                <g transform="matrix(1,0,0,1,173.757,134.661)">
                    <path d="M0,-0.92C0.389,3.746 -2.009,5.042 -5.508,5.301C-9.008,5.56 -8.878,4.135 -9.202,1.866C-9.526,-0.402 -11.276,-0.92 -12.411,-2.568C-13.181,-3.687 -12.959,-5.104 -12.104,-6.48C-12.104,-6.48 -12.21,-4.083 -10.769,-2.947C-9.328,-1.811 -7.665,0.212 -7.443,1.238C-7.222,2.263 -6.079,3.596 -3.785,3.205C0.205,2.526 0,-0.92 0,-0.92" style="fill-rule:nonzero;"/>
                </g>
            </g>
            <g transform="matrix(1,0,0,1,163.259,140.407)">
                <path d="M0,-14.119C-0.643,-13.371 -1.245,-12.59 -1.618,-11.713C-2.014,-10.86 -2.177,-9.897 -1.877,-9.109C-1.736,-8.723 -1.454,-8.387 -1.139,-8.038C-0.824,-7.702 -0.463,-7.393 -0.09,-7.063C0.65,-6.428 1.447,-5.533 1.696,-4.432C1.82,-3.875 1.847,-3.407 1.918,-2.926C1.983,-2.455 2.066,-1.999 2.232,-1.661C2.517,-0.982 3.47,-0.834 4.404,-0.808C5.351,-0.807 6.327,-0.863 7.247,-1.087C8.178,-1.286 9.051,-1.744 9.706,-2.493C9.239,-1.606 8.337,-0.987 7.395,-0.619C6.433,-0.262 5.436,-0.097 4.42,-0.028C3.906,-0.007 3.38,0 2.829,-0.144C2.282,-0.268 1.689,-0.665 1.397,-1.215C1.108,-1.753 1.036,-2.288 0.952,-2.784C0.874,-3.274 0.823,-3.789 0.726,-4.192C0.544,-5.046 -0.022,-5.708 -0.732,-6.371C-1.415,-7.064 -2.252,-7.734 -2.615,-8.864C-2.939,-9.976 -2.574,-11.084 -2.049,-11.94C-1.497,-12.803 -0.798,-13.533 0,-14.119" style="fill:rgb(76,68,60);fill-rule:nonzero;"/>
            </g>
            <g opacity="0.5">
                <g transform="matrix(1,0,0,1,173.757,122.076)">
                    <path d="M0,11.665C-0.389,6.999 -5.897,0 -10.498,4.212C-10.498,4.212 -8.334,3.605 -5.67,4.636C-1.264,6.341 0,11.665 0,11.665" style="fill:white;fill-rule:nonzero;"/>
                </g>
            </g>
        </g>
    </g>
</svg>
