<?xml version="1.0" encoding="UTF-8" standalone="no"?>
<!DOCTYPE svg PUBLIC "-//W3C//DTD SVG 1.1//EN" "http://www.w3.org/Graphics/SVG/1.1/DTD/svg11.dtd">
<svg width="100%" height="100%" viewBox="0 0 27 15" version="1.1" xmlns="http://www.w3.org/2000/svg" xmlns:xlink="http://www.w3.org/1999/xlink" xml:space="preserve" xmlns:serif="http://www.serif.com/" style="fill-rule:evenodd;clip-rule:evenodd;stroke-linejoin:round;stroke-miterlimit:2;">
    <g transform="matrix(1,0,0,1,-141,-117)">
        <g id="Foreground---Lower-Arm" serif:id="Foreground - Lower Arm">
            <g transform="matrix(1,0,0,1,160.874,117.251)">
                <path d="M0,13.897C-1.479,13.897 -9.539,13.638 -13.103,13.508C-16.667,13.378 -20.815,9.62 -18.417,5.019C-16.02,0.418 -10.965,-0.166 -7.077,1.131C-3.188,2.427 4.557,6.741 5.693,7.754C6.829,8.768 7.088,10.872 5.633,12.467C4.179,14.063 1.479,13.897 0,13.897" style="fill:rgb(199,178,153);fill-rule:nonzero;"/>
            </g>
            <g opacity="0.3">
                <g transform="matrix(1,0,0,1,166.507,123.867)">
                    <path d="M0,5.852C-1.455,7.448 -4.154,7.282 -5.633,7.282C-7.113,7.282 -15.172,7.022 -18.736,6.893C-22.301,6.763 -26.448,3.005 -24.05,-1.596C-24.05,-1.596 -24.793,3.233 -18.789,4.064C-14.355,4.678 -7.67,5.644 -5.103,5.852C-2.536,6.06 0,5.852 0,5.852" style="fill-rule:nonzero;"/>
                </g>
            </g>
            <g transform="matrix(1,0,0,1,144.178,131.358)">
                <path d="M0,-11.375C-0.77,-10.434 -1.434,-9.402 -1.807,-8.28C-1.993,-7.725 -2.127,-7.155 -2.139,-6.585C-2.132,-6.02 -2.05,-5.459 -1.821,-4.951C-1.36,-3.905 -0.652,-2.968 0.261,-2.303C1.167,-1.644 2.274,-1.195 3.367,-1.108C5.727,-1.025 8.216,-0.949 10.632,-0.79L14.281,-0.55C15.496,-0.434 16.711,-0.352 17.924,-0.205C16.704,-0.125 15.487,-0.11 14.27,-0.06L10.621,-0.021C8.173,0 5.797,-0.045 3.293,-0.111C1.959,-0.243 0.731,-0.757 -0.31,-1.55C-1.328,-2.367 -2.127,-3.454 -2.536,-4.678C-2.763,-5.305 -2.811,-5.978 -2.767,-6.623C-2.702,-7.271 -2.513,-7.887 -2.258,-8.463C-1.704,-9.593 -0.934,-10.585 0,-11.375" style="fill:rgb(76,68,60);fill-rule:nonzero;"/>
            </g>
            <g opacity="0.5">
                <g transform="matrix(0.284374,-0.958713,-0.958713,-0.284374,162.726,112.346)">
                    <path d="M-11.045,-7.282C-10.397,-5.905 -8.463,2.747 -8.327,6.844C-8.237,9.513 -9.055,12.431 -11.045,14.414C-11.045,14.414 -9.783,11.841 -9.357,8.065C-8.997,4.884 -11.045,-7.282 -11.045,-7.282" style="fill:white;fill-rule:nonzero;"/>
                </g>
            </g>
        </g>
    </g>
</svg>
