<?xml version="1.0" encoding="UTF-8" standalone="no"?>
<!DOCTYPE svg PUBLIC "-//W3C//DTD SVG 1.1//EN" "http://www.w3.org/Graphics/SVG/1.1/DTD/svg11.dtd">
<svg width="100%" height="100%" viewBox="0 0 24 35" version="1.1" xmlns="http://www.w3.org/2000/svg" xmlns:xlink="http://www.w3.org/1999/xlink" xml:space="preserve" xmlns:serif="http://www.serif.com/" style="fill-rule:evenodd;clip-rule:evenodd;stroke-linejoin:round;stroke-miterlimit:2;">
    <g transform="matrix(1,0,0,1,-142,-87)">
        <g id="Background---Upper-Arm" serif:id="Background - Upper Arm">
            <g transform="matrix(1,0,0,1,153.152,88.4484)">
                <path d="M0,31.177C-1.773,30.064 -5.928,25.118 -9.499,16.393C-13.07,7.668 -10.298,1.713 -5.503,-0.25C-0.708,-2.213 4.621,-0.973 8.247,7.885C11.873,16.743 11.847,23.167 11.554,25.272C11.261,27.376 11.052,29.654 8.293,31.522C5.534,33.39 1.772,32.289 0,31.177" style="fill:rgb(199,178,153);fill-rule:nonzero;"/>
            </g>
            <g opacity="0.5">
                <g transform="matrix(1,0,0,1,153.152,88.4484)">
                    <path d="M0,31.177C-1.773,30.064 -5.928,25.118 -9.499,16.393C-13.07,7.668 -10.298,1.713 -5.503,-0.25C-0.708,-2.213 4.621,-0.973 8.247,7.885C11.873,16.743 11.847,23.167 11.554,25.272C11.261,27.376 11.052,29.654 8.293,31.522C5.534,33.39 1.772,32.289 0,31.177" style="fill-rule:nonzero;"/>
                </g>
            </g>
            <g transform="matrix(1,0,0,1,161.399,121.99)">
                <path d="M0,-25.657C2.007,-21.827 3.434,-17.65 4.042,-13.283C4.197,-12.192 4.291,-11.087 4.295,-9.967C4.292,-9.403 4.285,-8.844 4.22,-8.254C4.16,-7.706 4.102,-7.174 4.009,-6.601C3.834,-5.471 3.427,-4.252 2.702,-3.229C2.348,-2.712 1.916,-2.263 1.46,-1.863C1.007,-1.457 0.519,-1.127 -0.048,-0.805C-1.186,-0.234 -2.449,0 -3.651,-0.044C-4.859,-0.075 -6.024,-0.333 -7.119,-0.768C-7.667,-0.989 -8.198,-1.247 -8.715,-1.583C-9.271,-1.953 -9.675,-2.36 -10.087,-2.767C-10.88,-3.59 -11.56,-4.469 -12.184,-5.379C-14.687,-9.009 -16.49,-13.011 -17.746,-17.149C-15.724,-13.333 -13.56,-9.615 -10.935,-6.315C-10.276,-5.498 -9.578,-4.715 -8.853,-4.011C-8.486,-3.677 -8.104,-3.34 -7.75,-3.13C-7.353,-2.895 -6.902,-2.698 -6.445,-2.537C-4.622,-1.876 -2.538,-1.748 -0.968,-2.579C-0.202,-2.992 0.602,-3.644 1.112,-4.361C1.649,-5.092 1.95,-5.963 2.152,-6.946C2.253,-7.432 2.337,-7.967 2.417,-8.487C2.492,-8.965 2.523,-9.483 2.547,-9.995C2.577,-11.027 2.563,-12.076 2.495,-13.126C2.2,-17.333 1.24,-21.519 0,-25.657" style="fill:rgb(76,68,60);fill-rule:nonzero;"/>
            </g>
        </g>
    </g>
</svg>
