<?xml version="1.0" encoding="UTF-8" standalone="no"?>
<!DOCTYPE svg PUBLIC "-//W3C//DTD SVG 1.1//EN" "http://www.w3.org/Graphics/SVG/1.1/DTD/svg11.dtd">
<svg width="100%" height="100%" viewBox="0 0 29 40" version="1.1" xmlns="http://www.w3.org/2000/svg" xmlns:xlink="http://www.w3.org/1999/xlink" xml:space="preserve" xmlns:serif="http://www.serif.com/" style="fill-rule:evenodd;clip-rule:evenodd;stroke-linejoin:round;stroke-miterlimit:2;">
    <g transform="matrix(1,0,0,1,-86,-150)">
        <g id="Foreground---Lower-Leg" serif:id="Foreground - Lower Leg">
            <g transform="matrix(0.894551,0.446965,0.446965,-0.894551,78.7957,179.469)">
                <path d="M11.446,-5.638C11.446,-5.638 11.433,5.235 7.109,12.443C4.554,16.703 -5.65,33.752 11.446,37.842C27.334,41.642 27.279,13.534 20.735,-0.997L11.446,-5.638Z" style="fill:rgb(199,178,153);fill-rule:nonzero;"/>
            </g>
            <g opacity="0.4">
                <g transform="matrix(0.894551,0.446965,0.446965,-0.894551,78.7957,179.469)">
                    <path d="M11.446,-5.638C11.446,-5.638 11.433,5.235 7.109,12.443C4.554,16.703 -5.65,33.752 11.446,37.842C27.334,41.642 27.279,13.534 20.735,-0.997L11.446,-5.638Z" style="fill-rule:nonzero;"/>
                </g>
            </g>
            <g transform="matrix(0.6204,0.784285,0.784285,-0.6204,96.4273,184.282)">
                <path d="M4.481,-2.954C4.481,-2.954 1.455,3.381 2.562,4.78L4.481,7.205C5.071,7.951 11.047,5.347 11.047,5.347L4.481,-2.954Z" style="fill:rgb(204,204,204);fill-rule:nonzero;"/>
            </g>
            <g transform="matrix(0.6204,0.784285,0.784285,-0.6204,92.7325,184.282)">
                <path d="M4.481,-2.954C4.481,-2.954 1.455,3.381 2.562,4.78L4.481,7.205C5.071,7.951 11.047,5.347 11.047,5.347L4.481,-2.954Z" style="fill:white;fill-rule:nonzero;"/>
            </g>
            <g transform="matrix(1,0,0,1,97.4878,179.375)">
                <path d="M0,-28.376C-2.225,-27.006 -3.711,-24.905 -4.568,-22.651C-4.963,-21.504 -5.314,-20.339 -5.427,-19.116C-5.594,-17.896 -5.707,-16.621 -5.753,-15.365C-5.918,-12.845 -5.855,-10.295 -5.964,-7.693C-6.065,-5.11 -6.334,-2.388 -7.449,0C-7.149,-2.598 -7.34,-5.105 -7.524,-7.667C-7.731,-10.222 -7.885,-12.837 -7.749,-15.473C-7.659,-16.793 -7.541,-18.093 -7.291,-19.418C-7.051,-20.754 -6.614,-22.074 -5.986,-23.29C-4.758,-25.715 -2.583,-27.78 0,-28.376" style="fill:rgb(76,68,60);fill-rule:nonzero;"/>
            </g>
            <g transform="matrix(1,0,0,1,108.03,172.965)">
                <path d="M0,-21.559C1.964,-20.963 3.665,-19.495 4.708,-17.651C5.748,-15.79 6.094,-13.602 5.954,-11.522C5.941,-11.261 5.945,-10.996 5.915,-10.738L5.79,-9.966C5.702,-9.453 5.633,-8.935 5.528,-8.427C5.214,-7.44 4.996,-6.421 4.598,-5.47C4.189,-4.525 3.828,-3.56 3.344,-2.658C2.83,-1.768 2.348,-0.867 1.812,0C2.146,-0.971 2.537,-1.907 2.895,-2.854C3.268,-3.794 3.521,-4.776 3.859,-5.721C4.161,-6.678 4.35,-7.662 4.603,-8.626L4.822,-10.098L4.93,-10.833C4.956,-11.079 4.945,-11.325 4.956,-11.571C5.106,-13.534 4.83,-15.522 4.016,-17.296C3.166,-19.038 1.808,-20.601 0,-21.559" style="fill:rgb(76,68,60);fill-rule:nonzero;"/>
            </g>
        </g>
    </g>
</svg>
