<?xml version="1.0" encoding="UTF-8" standalone="no"?>
<!DOCTYPE svg PUBLIC "-//W3C//DTD SVG 1.1//EN" "http://www.w3.org/Graphics/SVG/1.1/DTD/svg11.dtd">
<svg width="100%" height="100%" viewBox="0 0 28 40" version="1.1" xmlns="http://www.w3.org/2000/svg" xmlns:xlink="http://www.w3.org/1999/xlink" xml:space="preserve" xmlns:serif="http://www.serif.com/" style="fill-rule:evenodd;clip-rule:evenodd;stroke-linejoin:round;stroke-miterlimit:2;">
    <g transform="matrix(1,0,0,1,-106,-150)">
        <g id="Background---Lower-Leg" serif:id="Background - Lower Leg">
            <g transform="matrix(0.894551,0.446965,0.446965,-0.894551,98.7957,179.469)">
                <path d="M11.446,-5.638C11.446,-5.638 11.433,5.235 7.109,12.443C4.554,16.703 -5.65,33.752 11.446,37.842C27.334,41.642 27.279,13.534 20.735,-0.997L11.446,-5.638Z" style="fill:rgb(199,178,153);fill-rule:nonzero;"/>
            </g>
            <g opacity="0.5">
                <g transform="matrix(0.894551,0.446965,0.446965,-0.894551,98.7957,179.469)">
                    <path d="M11.446,-5.638C11.446,-5.638 11.433,5.235 7.109,12.443C4.554,16.703 -5.65,33.752 11.446,37.842C27.334,41.642 27.279,13.534 20.735,-0.997L11.446,-5.638Z" style="fill-rule:nonzero;"/>
                </g>
            </g>
            <g transform="matrix(0.6204,0.784285,0.784285,-0.6204,116.427,184.282)">
                <path d="M4.481,-2.954C4.481,-2.954 1.455,3.381 2.562,4.78L4.481,7.205C5.071,7.951 11.047,5.347 11.047,5.347L4.481,-2.954Z" style="fill:rgb(204,204,204);fill-rule:nonzero;"/>
            </g>
            <g opacity="0.3">
                <g transform="matrix(0.6204,0.784285,0.784285,-0.6204,116.427,184.282)">
                    <path d="M4.481,-2.954C4.481,-2.954 1.455,3.381 2.562,4.78L4.481,7.205C5.071,7.951 11.047,5.347 11.047,5.347L4.481,-2.954Z" style="fill-rule:nonzero;"/>
                </g>
            </g>
            <g transform="matrix(0.6204,0.784285,0.784285,-0.6204,112.732,184.282)">
                <path d="M4.481,-2.954C4.481,-2.954 1.455,3.381 2.562,4.78L4.481,7.205C5.071,7.951 11.047,5.347 11.047,5.347L4.481,-2.954Z" style="fill:white;fill-rule:nonzero;"/>
            </g>
            <g opacity="0.3">
                <g transform="matrix(0.6204,0.784285,0.784285,-0.6204,112.732,184.282)">
                    <path d="M4.481,-2.954C4.481,-2.954 1.455,3.381 2.562,4.78L4.481,7.205C5.071,7.951 11.047,5.347 11.047,5.347L4.481,-2.954Z" style="fill-rule:nonzero;"/>
                </g>
            </g>
        </g>
    </g>
</svg>
