<?xml version="1.0" encoding="UTF-8" standalone="no"?>
<!DOCTYPE svg PUBLIC "-//W3C//DTD SVG 1.1//EN" "http://www.w3.org/Graphics/SVG/1.1/DTD/svg11.dtd">
<svg width="100%" height="100%" viewBox="0 0 45 51" version="1.1" xmlns="http://www.w3.org/2000/svg" xmlns:xlink="http://www.w3.org/1999/xlink" xml:space="preserve" xmlns:serif="http://www.serif.com/" style="fill-rule:evenodd;clip-rule:evenodd;stroke-linejoin:round;stroke-miterlimit:2;">
    <g transform="matrix(1,0,0,1,-70,-117)">
        <g id="Foreground---Upper-Leg" serif:id="Foreground - Upper Leg">
            <g transform="matrix(1,0,0,1,89.8638,117.38)">
                <path d="M0,47.085C-1.634,46.265 -9.801,43.075 -16.401,30.723C-23.001,18.371 -17.319,7.324 -8.232,2.468C0.854,-2.387 10.421,-1.332 18.878,14.495C27.334,30.321 22.638,40.995 21.417,43.266C20.195,45.537 16.537,47.588 11.771,48.53C7.004,49.472 1.635,47.904 0,47.085" style="fill:rgb(199,178,153);fill-rule:nonzero;"/>
            </g>
            <g opacity="0.5">
                <g transform="matrix(-0.155305,-0.987866,-0.987866,0.155305,87.0451,107.029)">
                    <path d="M-18.531,-13.09C-10.126,-7.457 -9.203,-0.192 -11.822,7.338C-13.132,11.101 -15.435,14.505 -18.531,16.999C-18.531,16.999 -12.603,10.123 -12.869,1.065C-13.137,-7.994 -18.531,-13.09 -18.531,-13.09" style="fill:white;fill-rule:nonzero;"/>
                </g>
            </g>
            <g opacity="0.3">
                <g transform="matrix(1,0,0,1,108.742,166.853)">
                    <path d="M0,-34.978C8.457,-19.151 3.76,-8.478 2.539,-6.207C1.317,-3.936 -2.341,-1.885 -7.107,-0.943C-11.874,0 -17.243,-1.568 -18.878,-2.388C-20.512,-3.207 -28.679,-6.397 -35.279,-18.75C-37.74,-23.355 -38.493,-27.779 -38,-31.768C-38,-31.768 -33.434,-24.276 -18.358,-24.276C-3.283,-24.276 0,-34.978 0,-34.978" style="fill-rule:nonzero;"/>
                </g>
            </g>
            <g transform="matrix(1,0,0,1,112.154,167.251)">
                <path d="M0,-27.259C1.123,-24.336 1.761,-21.224 2.005,-18.06C2.174,-14.895 1.871,-11.657 0.835,-8.585C0.582,-7.816 0.28,-7.061 -0.085,-6.313C-0.481,-5.495 -1.09,-4.812 -1.719,-4.242C-2.999,-3.096 -4.472,-2.322 -5.974,-1.683C-7.49,-1.064 -9.044,-0.625 -10.652,-0.33C-12.294,-0.036 -13.948,0 -15.57,-0.135C-17.195,-0.279 -18.787,-0.588 -20.351,-1.041C-21.138,-1.275 -21.899,-1.526 -22.708,-1.915C-23.366,-2.24 -24.132,-2.588 -24.822,-2.988C-27.64,-4.569 -30.172,-6.608 -32.324,-8.961C-34.502,-11.294 -36.329,-13.915 -37.853,-16.676C-39.333,-19.442 -40.658,-22.388 -41.08,-25.504C-40.641,-24.002 -40.059,-22.557 -39.379,-21.17C-38.71,-19.778 -37.835,-18.491 -37.013,-17.182C-35.321,-14.596 -33.383,-12.187 -31.205,-10.049C-29.017,-7.926 -26.604,-6.036 -23.922,-4.655C-23.248,-4.299 -22.593,-3.998 -21.847,-3.643C-21.247,-3.362 -20.521,-3.119 -19.811,-2.919C-18.375,-2.516 -16.885,-2.246 -15.4,-2.127C-13.916,-1.987 -12.424,-2.01 -10.99,-2.252C-9.524,-2.497 -8.063,-2.92 -6.673,-3.437C-5.294,-3.972 -3.949,-4.643 -2.871,-5.556C-2.332,-6.015 -1.876,-6.513 -1.563,-7.092C-1.213,-7.729 -0.897,-8.411 -0.628,-9.112C1.537,-14.771 1.426,-21.204 0,-27.259" style="fill:rgb(76,68,60);fill-rule:nonzero;"/>
            </g>
        </g>
    </g>
</svg>
