<?xml version="1.0" encoding="UTF-8" standalone="no"?>
<!DOCTYPE svg PUBLIC "-//W3C//DTD SVG 1.1//EN" "http://www.w3.org/Graphics/SVG/1.1/DTD/svg11.dtd">
<svg width="100%" height="100%" viewBox="0 0 44 50" version="1.1" xmlns="http://www.w3.org/2000/svg" xmlns:xlink="http://www.w3.org/1999/xlink" xml:space="preserve" xmlns:serif="http://www.serif.com/" style="fill-rule:evenodd;clip-rule:evenodd;stroke-linejoin:round;stroke-miterlimit:2;">
    <g transform="matrix(1,0,0,1,-90,-117)">
        <g id="Background---Upper-Leg" serif:id="Background - Upper Leg">
            <g transform="matrix(1,0,0,1,109.864,117.38)">
                <path d="M0,47.085C-1.634,46.265 -9.801,43.075 -16.401,30.723C-23.001,18.371 -17.319,7.324 -8.232,2.468C0.854,-2.387 10.421,-1.332 18.878,14.495C27.334,30.321 22.638,40.995 21.417,43.266C20.195,45.537 16.537,47.588 11.771,48.53C7.004,49.472 1.635,47.904 0,47.085" style="fill:rgb(199,178,153);fill-rule:nonzero;"/>
            </g>
            <g opacity="0.5">
                <g transform="matrix(1,0,0,1,109.864,117.38)">
                    <path d="M0,47.085C-1.634,46.265 -9.801,43.075 -16.401,30.723C-23.001,18.371 -17.319,7.324 -8.232,2.468C0.854,-2.387 10.421,-1.332 18.878,14.495C27.334,30.321 22.638,40.995 21.417,43.266C20.195,45.537 16.537,47.588 11.771,48.53C7.004,49.472 1.635,47.904 0,47.085" style="fill-rule:nonzero;"/>
                </g>
            </g>
        </g>
    </g>
</svg>
