<?xml version="1.0" encoding="UTF-8" standalone="no"?>
<!DOCTYPE svg PUBLIC "-//W3C//DTD SVG 1.1//EN" "http://www.w3.org/Graphics/SVG/1.1/DTD/svg11.dtd">
<svg width="100%" height="100%" viewBox="0 0 78 55" version="1.1" xmlns="http://www.w3.org/2000/svg" xmlns:xlink="http://www.w3.org/1999/xlink" xml:space="preserve" xmlns:serif="http://www.serif.com/" style="fill-rule:evenodd;clip-rule:evenodd;stroke-linejoin:round;stroke-miterlimit:2;">
    <g transform="matrix(1,0,0,1,-246,-45)">
        <g id="Carnivore-Head" serif:id="Carnivore Head">
            <g transform="matrix(1,0,0,1,303.977,85.4157)">
                <path d="M0,-25.035C-7.704,-25.766 -12.15,-31.751 -19.493,-34.885C-26.836,-38.019 -35.164,-41.691 -45.462,-37.303C-55.76,-32.915 -57.372,-23.871 -57.192,-16.439C-57.013,-9.006 -50.834,0.575 -42.686,5.501C-34.537,10.425 -27.104,9.172 -17.254,12.306C-7.404,15.44 4.685,16.656 7.908,6.287C11.132,-4.081 7.705,-24.304 0,-25.035" style="fill:rgb(199,178,153);fill-rule:nonzero;"/>
            </g>
            <g transform="matrix(1,0,0,1,293.751,89.7508)">
                <path d="M0,-29.415C0,-29.415 14.238,-34.25 22.566,-27.4C30.894,-20.55 29.404,-10.073 27.536,-5.237C25.602,-0.23 19.787,4.835 9.134,0.001C-5.373,-6.581 -10.074,-18.267 -25.118,-18.267C-40.162,-18.267 -41.371,-6.983 -35.058,-0.805" style="fill:rgb(199,178,153);fill-rule:nonzero;"/>
            </g>
            <g opacity="0.5">
                <g transform="matrix(1,0,0,1,247.333,45.1506)">
                    <path d="M0,16.672C0,16.672 0.909,9.006 8.017,4.618C12.714,1.717 19.005,0 26.124,1.514C26.124,1.514 7.762,0.221 0,16.672" style="fill:white;fill-rule:nonzero;"/>
                </g>
            </g>
            <g transform="matrix(1,0,0,1,283.342,84.9834)">
                <path d="M0,-8.361L0.47,0L5.577,-4.18L0,-8.361Z" style="fill:white;fill-rule:nonzero;"/>
            </g>
            <g transform="matrix(1,0,0,1,289.285,88.5435)">
                <path d="M0,-7.321L0.172,0L5.239,-3.359L0,-7.321Z" style="fill:white;fill-rule:nonzero;"/>
            </g>
            <g transform="matrix(1,0,0,1,294.928,92.7405)">
                <path d="M0,-7.119L0.905,0L6.177,-3.559L0,-7.119Z" style="fill:white;fill-rule:nonzero;"/>
            </g>
            <g transform="matrix(1,0,0,1,301.438,95.4274)">
                <path d="M0,-5.843L1.243,0L5.742,-3.896L0,-5.843Z" style="fill:white;fill-rule:nonzero;"/>
            </g>
            <g transform="matrix(1,0,0,1,267.693,49.893)">
                <path d="M0,2.518C0,2.518 4.57,-3.356 11.96,-3.712C18.536,-4.029 17.865,2.115 21.223,6.547" style="fill:rgb(199,178,153);fill-rule:nonzero;"/>
            </g>
            <g transform="matrix(1,0,0,1,267.693,49.217)">
                <path d="M0,3.194C1.239,1.09 3.081,-0.673 5.235,-1.952C7.393,-3.242 9.895,-4.024 12.508,-4.029C13.814,-4.018 15.292,-3.713 16.446,-2.814C17.585,-1.912 18.278,-0.703 18.735,0.454C19.664,2.784 20.106,5.047 21.223,7.223C19.42,5.542 18.428,3.132 17.329,1.132C16.753,0.142 16.147,-0.762 15.333,-1.283C14.55,-1.833 13.557,-2.047 12.485,-2.03C11.962,-2.075 11.387,-1.979 10.834,-1.949C10.283,-1.857 9.725,-1.785 9.18,-1.645C8.069,-1.435 7.013,-1.004 5.951,-0.573C3.847,0.353 1.86,1.639 0,3.194" style="fill-rule:nonzero;"/>
            </g>
            <g opacity="0.5">
                <g transform="matrix(-0.109604,0.993975,0.993975,0.109604,277.102,40.0777)">
                    <path d="M12.08,-7.116C12.08,-7.116 5.773,-2.289 5.678,4.856C5.678,4.856 5.538,8.292 12.08,11.45C12.08,11.45 7.943,8.302 8.208,3.753C8.497,-1.228 12.08,-7.116 12.08,-7.116" style="fill:white;fill-rule:nonzero;"/>
                </g>
            </g>
            <g opacity="0.5">
                <g transform="matrix(-0.366526,0.930408,0.930408,0.366526,317.114,52.9584)">
                    <path d="M14.671,-18.066C14.671,-18.066 8.879,-10.316 8.378,-2.945C7.874,4.427 12.387,9.015 14.671,10.923C14.671,10.923 9.403,3.422 10.076,-3.581C10.749,-10.583 14.671,-18.066 14.671,-18.066" style="fill:white;fill-rule:nonzero;"/>
                </g>
            </g>
            <g opacity="0.3">
                <g transform="matrix(0.648912,0.760863,0.760863,-0.648912,309.606,69.0798)">
                    <path d="M1.686,-0.778C-0.015,-0.778 -1.395,0.214 -1.395,1.438C-1.395,2.661 -0.016,3.653 1.686,3.653C3.387,3.653 4.766,2.662 4.766,1.438C4.766,0.215 3.387,-0.777 1.686,-0.778" style="fill-rule:nonzero;"/>
                </g>
            </g>
            <g transform="matrix(0.649015,0.760776,0.760776,-0.649015,309.897,68.6028)">
                <path d="M1.43,-0.659C-0.09,-0.659 -1.321,0.182 -1.32,1.22C-1.32,2.259 -0.089,3.1 1.43,3.099C2.949,3.099 4.18,2.258 4.181,1.22C4.18,0.182 2.949,-0.659 1.43,-0.659" style="fill:rgb(76,68,60);fill-rule:nonzero;"/>
            </g>
            <g opacity="0.3">
                <g transform="matrix(1,0,0,1,277.291,92.5431)">
                    <path d="M0,-20.217C0,-20.217 7.513,-20.217 19.196,-10.983C23.211,-7.809 30.293,-5.086 35.801,-6.084C41.31,-7.081 44.637,-10.299 45.384,-14.385C45.384,-14.385 44.409,0 33.533,-0.841C22.656,-1.681 11.627,-11.74 11.627,-11.74L0,-20.217Z" style="fill-rule:nonzero;"/>
                </g>
            </g>
            <g transform="matrix(1,0,0,1,267.693,49.217)">
                <path d="M0,3.194C1.239,1.09 3.081,-0.673 5.235,-1.952C7.393,-3.242 9.895,-4.024 12.508,-4.029C13.814,-4.018 15.292,-3.713 16.446,-2.814C17.585,-1.912 18.278,-0.703 18.735,0.454C19.664,2.784 20.106,5.047 21.223,7.223C19.42,5.542 18.428,3.132 17.329,1.132C16.753,0.142 16.147,-0.762 15.333,-1.283C14.55,-1.833 13.557,-2.047 12.485,-2.03C11.962,-2.075 11.387,-1.979 10.834,-1.949C10.283,-1.857 9.725,-1.785 9.18,-1.645C8.069,-1.435 7.013,-1.004 5.951,-0.573C3.847,0.353 1.86,1.639 0,3.194" style="fill:rgb(76,68,60);fill-rule:nonzero;"/>
            </g>
            <g opacity="0.3">
                <g transform="matrix(1,0,0,1,276.342,78.5427)">
                    <path d="M0,13.963C6.207,15.097 11.971,17.099 18.182,18.151C24.393,19.205 27.656,17.985 28.598,16.884C29.541,15.783 27.379,14.826 23.642,13.16C19.905,11.495 8.757,2.356 6.096,0.084C3.436,-2.189 -4.815,-6.905 -4.815,-6.905L1.59,-5.28C6.673,-3.106 16.694,5.517 22.387,9.052C28.081,12.588 35.543,13.16 35.543,13.16C32.319,23.529 20.23,22.313 10.38,19.179C0.53,16.045 -6.902,17.298 -15.051,12.374C-23.2,7.448 -29.378,-2.133 -29.558,-9.566C-29.558,-9.566 -25.606,9.284 0,13.963" style="fill-rule:nonzero;"/>
                </g>
            </g>
            <g transform="matrix(1,0,0,1,293.751,90.8628)">
                <path d="M0,-30.527C2.687,-31.472 5.499,-32.085 8.354,-32.362C11.205,-32.622 14.127,-32.553 16.967,-31.853C18.388,-31.512 19.752,-30.943 21.057,-30.246C21.696,-29.878 22.29,-29.427 22.909,-29.017C23.466,-28.538 24.024,-28.058 24.561,-27.553C26.655,-25.468 28.184,-22.815 29.039,-19.974C29.84,-17.114 30.028,-14.105 29.636,-11.182C29.444,-9.72 29.139,-8.273 28.68,-6.857C28.23,-5.442 27.538,-4.019 26.607,-2.803C25.683,-1.573 24.504,-0.517 23.157,0.265C21.802,1.037 20.288,1.499 18.766,1.696C15.69,2.095 12.674,1.378 9.943,0.299C4.49,-1.9 -0.236,-5.394 -4.646,-8.998C-6.851,-10.803 -9.019,-12.614 -11.33,-14.166C-13.637,-15.716 -16.103,-16.988 -18.747,-17.748C-21.381,-18.511 -24.181,-18.804 -26.95,-18.634C-29.7,-18.489 -32.486,-17.899 -34.751,-16.385C-35.059,-16.228 -35.296,-15.988 -35.551,-15.767C-35.796,-15.537 -36.08,-15.339 -36.298,-15.082C-36.71,-14.55 -37.178,-14.048 -37.449,-13.421C-37.82,-12.842 -37.956,-12.166 -38.181,-11.52C-38.258,-10.842 -38.421,-10.163 -38.354,-9.469C-38.383,-8.773 -38.216,-8.094 -38.102,-7.406C-38.021,-7.068 -37.893,-6.741 -37.79,-6.406L-37.627,-5.906L-37.402,-5.431C-36.878,-4.115 -35.981,-2.994 -35.058,-1.917C-37.104,-3.855 -38.718,-6.493 -38.883,-9.444C-38.99,-10.175 -38.862,-10.907 -38.811,-11.644C-38.612,-12.352 -38.494,-13.098 -38.126,-13.754C-37.859,-14.459 -37.385,-15.04 -36.952,-15.652C-36.725,-15.948 -36.431,-16.184 -36.171,-16.452C-35.902,-16.711 -35.646,-16.99 -35.325,-17.181C-32.899,-18.953 -29.929,-19.674 -27.043,-19.942C-24.141,-20.23 -21.183,-19.985 -18.334,-19.253C-15.48,-18.526 -12.795,-17.219 -10.365,-15.629C-7.922,-14.045 -5.685,-12.235 -3.458,-10.473C0.952,-6.938 5.526,-3.603 10.681,-1.558C13.207,-0.54 15.917,0.091 18.523,-0.241C19.816,-0.402 21.074,-0.778 22.201,-1.411C23.321,-2.054 24.304,-2.928 25.111,-3.954C26.738,-5.991 27.481,-8.717 27.904,-11.418C28.303,-14.131 28.198,-16.913 27.541,-19.558C26.145,-24.782 22.1,-29.456 16.706,-30.914C14.049,-31.72 11.208,-31.946 8.39,-31.836C6.98,-31.763 5.568,-31.632 4.169,-31.4C2.768,-31.188 1.371,-30.91 0,-30.527" style="fill:rgb(76,68,60);fill-rule:nonzero;"/>
            </g>
            <g opacity="0.3">
                <g transform="matrix(-0.999031,0.0440204,0.0440204,0.999031,277.537,66.6497)">
                    <path d="M-0.917,-14.55C3.479,-14.744 6.467,-11.517 6.636,-7.687C6.805,-3.856 3.938,-0.18 -0.917,0.034C-5.772,0.248 -7.081,-3.436 -7.193,-5.973C-7.305,-8.512 -6.046,-14.324 -0.917,-14.55" style="fill-rule:nonzero;"/>
                </g>
            </g>
            <g transform="matrix(-0.998943,0.0459704,0.0459704,0.998943,277.553,65.003)">
                <path d="M-0.863,-13.105C3.277,-13.296 6.09,-10.4 6.249,-6.95C6.408,-3.499 3.708,-0.177 -0.863,0.034C-5.436,0.244 -6.668,-3.07 -6.773,-5.356C-6.879,-7.642 -5.693,-12.883 -0.863,-13.105" style="fill:white;fill-rule:nonzero;"/>
            </g>
            <g transform="matrix(0,-1,-1,0,280.253,59.2886)">
                <path d="M-0.971,-0.971C-1.717,-0.971 -2.322,-0.536 -2.322,-0C-2.322,0.537 -1.717,0.971 -0.971,0.971C-0.225,0.971 0.38,0.537 0.38,-0C0.38,-0.536 -0.225,-0.971 -0.971,-0.971" style="fill-rule:nonzero;"/>
            </g>
            <g transform="matrix(1,0,0,1,246.784,95.8709)">
                <path d="M0,-26.894C0.829,-23.215 2.291,-19.769 4.187,-16.64C6.111,-13.528 8.514,-10.741 11.367,-8.492C14.197,-6.216 17.43,-4.446 20.859,-3.109C24.29,-1.764 27.906,-0.83 31.608,-0.076C27.83,0 24.016,-0.517 20.347,-1.635C18.496,-2.15 16.728,-2.937 14.992,-3.782C13.271,-4.665 11.652,-5.745 10.117,-6.932C7.092,-9.367 4.571,-12.437 2.83,-15.882C1.094,-19.315 0.006,-23.1 0,-26.894" style="fill:rgb(76,68,60);fill-rule:nonzero;"/>
            </g>
        </g>
    </g>
</svg>
