<?xml version="1.0" encoding="UTF-8" standalone="no"?>
<!DOCTYPE svg PUBLIC "-//W3C//DTD SVG 1.1//EN" "http://www.w3.org/Graphics/SVG/1.1/DTD/svg11.dtd">
<svg width="100%" height="100%" viewBox="0 0 71 46" version="1.1" xmlns="http://www.w3.org/2000/svg" xmlns:xlink="http://www.w3.org/1999/xlink" xml:space="preserve" xmlns:serif="http://www.serif.com/" style="fill-rule:evenodd;clip-rule:evenodd;stroke-linejoin:round;stroke-miterlimit:2;">
    <g transform="matrix(1,0,0,1,-249,-133)">
        <g id="Herbivore-Head" serif:id="Herbivore Head">
            <g transform="matrix(1,0,0,1,314.965,138.682)">
                <path d="M0,34.613C0,34.613 0.844,39.366 -5.113,39.559C-11.514,39.767 -10.945,36.354 -23.486,34.363C-38.482,31.983 -37.385,37.107 -51.959,32.576C-63.724,28.919 -65.672,21.81 -65.173,13.247C-64.632,3.952 -56.749,-5.154 -44.889,-5.154C-33.028,-5.154 -27.19,-0.444 -23.163,4.823C-18.373,11.086 -15.288,13.65 -9.561,17.707C-4.583,21.234 7.067,27.919 3.844,34.026C3.055,35.522 0,34.613 0,34.613" style="fill:rgb(199,178,153);fill-rule:nonzero;"/>
            </g>
            <g opacity="0.5">
                <g transform="matrix(0.00470445,-0.999989,-0.999989,-0.00470445,277.222,118.878)">
                    <path d="M-24.558,-14.697C-19.31,-10.644 -14.627,-4.785 -14.683,7.076C-14.721,15.123 -18.943,21.32 -24.558,24.628C-24.558,24.628 -16.447,17.846 -16.146,6.707C-15.804,-5.874 -24.558,-14.697 -24.558,-14.697" style="fill:white;fill-rule:nonzero;"/>
                </g>
            </g>
            <g opacity="0.3">
                <g transform="matrix(1,0,0,1,262.818,162.854)">
                    <path d="M0,4.672C6.019,6.758 12.858,6.445 23.278,6.335C33.697,6.224 41.956,11.655 45.281,12.099C48.606,12.542 48.789,10.052 48.789,10.052L52.147,10.442C52.147,10.442 52.991,15.194 47.034,15.388C40.633,15.596 41.202,12.183 28.661,10.192C13.665,7.812 14.762,12.936 0.187,8.404C-11.577,4.747 -13.525,-2.361 -13.026,-10.924C-13.026,-10.924 -11.029,0.848 0,4.672" style="fill-rule:nonzero;"/>
                </g>
            </g>
            <g opacity="0.3">
                <g transform="matrix(0.649023,0.760768,0.760768,-0.649023,308.63,165.661)">
                    <path d="M1.686,-0.778C-0.016,-0.777 -1.396,0.215 -1.395,1.438C-1.396,2.661 -0.016,3.653 1.686,3.652C3.387,3.653 4.767,2.661 4.766,1.438C4.766,0.214 3.387,-0.778 1.686,-0.778" style="fill-rule:nonzero;"/>
                </g>
            </g>
            <g transform="matrix(0.649015,0.760776,0.760776,-0.649015,308.962,165.282)">
                <path d="M1.43,-0.659C-0.09,-0.659 -1.321,0.182 -1.32,1.22C-1.32,2.259 -0.089,3.1 1.43,3.099C2.949,3.099 4.18,2.258 4.181,1.22C4.18,0.182 2.949,-0.659 1.43,-0.659" style="fill:rgb(76,68,60);fill-rule:nonzero;"/>
            </g>
            <g transform="matrix(1,0,0,1,259.728,161.937)">
                <path d="M0,8.124C-1.26,6.919 -2.238,5.284 -2.355,3.43C-2.412,2.513 -2.229,1.57 -1.838,0.718C-1.45,-0.139 -0.84,-0.879 -0.144,-1.497C1.278,-2.72 3.029,-3.425 4.784,-3.873C6.552,-4.305 8.362,-4.477 10.156,-4.493C11.959,-4.523 13.728,-4.352 15.498,-4.165C17.266,-3.933 19.044,-3.656 20.783,-3.17C24.291,-2.251 27.51,-0.623 30.641,0.919C36.861,4.109 43.209,6.914 49.743,9.393L52.195,10.31C53.021,10.605 53.83,10.959 54.603,11.152C55.391,11.354 56.208,11.446 56.973,11.341C57.736,11.237 58.421,10.898 58.812,10.299C59.224,9.703 59.266,8.875 59.218,8.03C59.174,7.198 58.957,6.387 58.561,5.64C58.173,4.888 57.641,4.198 57.083,3.53C56.529,2.856 55.942,2.204 55.354,1.553C56.655,2.724 58.028,3.845 59.013,5.38C59.505,6.142 59.832,7.041 59.956,7.951C60.076,8.825 60.155,9.855 59.639,10.79C59.139,11.734 58.118,12.272 57.171,12.455C56.205,12.647 55.243,12.586 54.325,12.413C53.383,12.236 52.564,11.919 51.73,11.66L49.222,10.847C42.542,8.663 36.013,5.874 29.75,2.706C26.618,1.136 23.548,-0.438 20.271,-1.339C17.024,-2.302 13.542,-2.731 10.139,-2.918C8.432,-2.986 6.728,-2.882 5.07,-2.579C3.421,-2.27 1.796,-1.718 0.483,-0.726C-0.852,0.221 -1.784,1.734 -1.818,3.42C-1.847,5.098 -1.102,6.771 0,8.124" style="fill:rgb(76,68,60);fill-rule:nonzero;"/>
            </g>
            <g opacity="0.3">
                <g transform="matrix(-0.999031,0.0440204,0.0440204,0.999031,275.974,154.313)">
                    <path d="M-0.917,-14.55C3.479,-14.744 6.467,-11.518 6.636,-7.687C6.805,-3.856 3.938,-0.18 -0.917,0.034C-5.772,0.248 -7.081,-3.436 -7.193,-5.974C-7.305,-8.512 -6.046,-14.324 -0.917,-14.55" style="fill-rule:nonzero;"/>
                </g>
            </g>
            <g transform="matrix(-0.998943,0.0459704,0.0459704,0.998943,275.99,152.666)">
                <path d="M-0.863,-13.105C3.277,-13.296 6.09,-10.4 6.249,-6.949C6.408,-3.498 3.708,-0.177 -0.863,0.034C-5.436,0.244 -6.668,-3.07 -6.773,-5.356C-6.879,-7.642 -5.693,-12.883 -0.863,-13.105" style="fill:white;fill-rule:nonzero;"/>
            </g>
            <g transform="matrix(0,-1,-1,0,278.689,146.952)">
                <path d="M-0.971,-0.971C-1.717,-0.971 -2.322,-0.536 -2.322,-0C-2.322,0.537 -1.717,0.971 -0.971,0.971C-0.225,0.971 0.38,0.537 0.38,-0C0.38,-0.536 -0.225,-0.971 -0.971,-0.971" style="fill-rule:nonzero;"/>
            </g>
            <g transform="matrix(1,0,0,1,250.707,173.799)">
                <path d="M0,-26.777C-0.608,-22.875 -0.68,-18.901 0.222,-15.211C0.705,-13.386 1.361,-11.612 2.422,-10.099C3.485,-8.589 4.783,-7.317 6.359,-6.241C7.907,-5.169 9.584,-4.281 11.352,-3.583C13.124,-2.887 14.983,-2.411 16.873,-2.028C20.667,-1.279 24.6,-1.215 28.568,-1.124C24.682,-0.387 20.663,0 16.64,-0.485C14.628,-0.698 12.639,-1.166 10.695,-1.806C8.767,-2.503 6.927,-3.454 5.213,-4.603C3.546,-5.781 1.979,-7.302 0.839,-9.07C-0.277,-10.865 -0.964,-12.873 -1.301,-14.897C-1.975,-18.956 -1.408,-23.072 0,-26.777" style="fill:rgb(76,68,60);fill-rule:nonzero;"/>
            </g>
        </g>
    </g>
</svg>
