<?xml version="1.0" encoding="UTF-8" standalone="no"?>
<!DOCTYPE svg PUBLIC "-//W3C//DTD SVG 1.1//EN" "http://www.w3.org/Graphics/SVG/1.1/DTD/svg11.dtd">
<svg width="100%" height="100%" viewBox="0 0 137 113" version="1.1" xmlns="http://www.w3.org/2000/svg" xmlns:xlink="http://www.w3.org/1999/xlink" xml:space="preserve" xmlns:serif="http://www.serif.com/" style="fill-rule:evenodd;clip-rule:evenodd;stroke-linejoin:round;stroke-miterlimit:2;">
    <g transform="matrix(1,0,0,1,-26,-59)">
        <g id="Medium-Biped-Body" serif:id="Medium Biped Body">
            <g transform="matrix(1,0,0,1,161.404,167.921)">
                <path d="M0,-98.431C-3.154,-77.148 4.484,-7.98 -39.616,0.999C-83.715,9.977 -85.967,-29.263 -103.001,-33.632C-123.84,-38.978 -134.186,-17.956 -134.186,-17.956C-140.836,-47.553 -118.521,-63.624 -100.599,-69.5C-80.314,-76.151 -64.685,-65.177 -46.395,-71.495C-28.105,-77.814 -20.23,-108.408 -20.23,-108.408L0,-98.431Z" style="fill:rgb(199,178,153);fill-rule:nonzero;"/>
            </g>
            <g opacity="0.3">
                <g transform="matrix(1,0,0,1,161.404,167.921)">
                    <path d="M0,-98.431C-3.154,-77.148 4.484,-7.98 -39.616,0.999C-83.715,9.977 -85.967,-29.263 -103.001,-33.632C-123.84,-38.978 -134.186,-17.956 -134.186,-17.956C-134.186,-17.956 -128.551,-39.944 -104.386,-39.944C-80.221,-39.944 -82.549,-8.994 -45.97,-8.994C-9.39,-8.994 -5.52,-85.146 -5.238,-88.693C-4.956,-92.24 -7.392,-93.127 -9,-93.57C-10.609,-94.014 -22.62,-99.999 -20.23,-108.408L0,-98.431Z" style="fill-rule:nonzero;"/>
                </g>
            </g>
            <g transform="matrix(1,0,0,1,149.449,158.641)">
                <path d="M0,-11.617C-2,-7.301 -4.625,-3.232 -7.917,0.286C-11.204,3.807 -15.245,6.661 -19.686,8.618C-21.909,9.584 -24.209,10.405 -26.581,10.923C-27.758,11.245 -28.945,11.392 -30.127,11.633C-31.306,11.88 -32.505,12.02 -33.704,12.166C-38.492,12.735 -43.397,12.721 -48.2,11.84C-49.396,11.604 -50.582,11.297 -51.757,10.971C-52.913,10.575 -54.093,10.244 -55.206,9.732C-57.481,8.831 -59.62,7.613 -61.639,6.251C-65.659,3.473 -69.077,-0.038 -72.033,-3.813C-75.03,-7.568 -77.596,-11.588 -80.422,-15.377C-81.831,-17.272 -83.317,-19.112 -85.044,-20.711C-86.769,-22.296 -88.761,-23.647 -91.046,-24.352C-88.705,-23.86 -86.55,-22.636 -84.698,-21.112C-82.831,-19.591 -81.198,-17.81 -79.653,-15.985C-76.606,-12.291 -73.868,-8.398 -70.824,-4.801C-67.783,-1.213 -64.459,2.133 -60.579,4.681C-56.73,7.256 -52.375,9.033 -47.823,9.878C-43.27,10.75 -38.562,10.777 -33.911,10.289C-29.249,9.788 -24.601,8.96 -20.293,7.187C-18.12,6.344 -16.071,5.21 -14.104,3.956C-12.134,2.702 -10.296,1.232 -8.608,-0.401C-6.908,-2.019 -5.316,-3.772 -3.904,-5.671C-2.496,-7.57 -1.198,-9.559 0,-11.617" style="fill:rgb(76,68,60);fill-rule:nonzero;"/>
            </g>
            <g transform="matrix(1,0,0,1,130.135,75.881)">
                <path d="M0,7.863C0,7.863 12.892,5.083 22.269,12.523C22.269,12.523 21.876,2.447 6.867,-4.66C6.867,-4.66 3.95,2.502 0,7.863" style="fill:rgb(115,99,87);fill-rule:nonzero;"/>
            </g>
            <g transform="matrix(1,0,0,1,104.919,129.566)">
                <path d="M0,-31.178C0,-31.178 17.522,-18.824 21.647,5.249C21.647,5.249 28.884,-15.804 16.31,-36.427C16.31,-36.427 10.751,-31.729 0,-31.178" style="fill:rgb(115,99,87);fill-rule:nonzero;"/>
            </g>
            <g transform="matrix(1,0,0,1,78.0103,122.373)">
                <path d="M0,-26.122C0,-26.122 8.61,-15.734 -0.175,0.018C-0.175,0.018 19.424,-5.326 17.662,-24.245C17.662,-24.245 3.258,-26.14 0,-26.122" style="fill:rgb(115,99,87);fill-rule:nonzero;"/>
            </g>
            <g transform="matrix(1,0,0,1,46.7695,114.619)">
                <path d="M0,-9.646C0,-9.646 8.894,-3.805 11.342,7.712C11.342,7.712 21.266,-2.764 18.276,-17.358C18.276,-17.358 9.833,-15.661 0,-9.646" style="fill:rgb(115,99,87);fill-rule:nonzero;"/>
            </g>
            <g transform="matrix(1,0,0,1,159.394,67.1634)">
                <path d="M0,37.419C0.04,31.19 0.12,24.961 0.247,18.731C0.312,15.615 0.395,12.5 0.502,9.382C0.617,6.261 0.742,3.15 1.017,0L3.002,0.241C2.573,3.278 2.278,6.382 2,9.475C1.727,12.572 1.478,15.674 1.246,18.778C0.786,24.987 0.373,31.201 0,37.419" style="fill:rgb(76,68,60);fill-rule:nonzero;"/>
            </g>
            <g opacity="0.5">
                <g transform="matrix(1,0,0,1,135.598,112.341)">
                    <path d="M0,-38.053C-4.227,-29.282 -10.966,-19.24 -20.588,-15.916C-38.878,-9.597 -54.507,-20.571 -74.792,-13.92C-82.662,-11.34 -91.379,-6.794 -98.118,0C-98.118,0 -83.124,-9.503 -74.035,-11.609C-64.945,-13.715 -56.854,-13.161 -45.104,-11.83C-33.354,-10.5 -20.568,-11.176 -14.621,-15.08C-1.841,-23.47 0,-38.053 0,-38.053" style="fill:white;fill-rule:nonzero;"/>
                </g>
            </g>
        </g>
    </g>
</svg>
