<?xml version="1.0" encoding="UTF-8" standalone="no"?>
<!DOCTYPE svg PUBLIC "-//W3C//DTD SVG 1.1//EN" "http://www.w3.org/Graphics/SVG/1.1/DTD/svg11.dtd">
<svg width="100%" height="100%" viewBox="0 0 74 51" version="1.1" xmlns="http://www.w3.org/2000/svg" xmlns:xlink="http://www.w3.org/1999/xlink" xml:space="preserve" xmlns:serif="http://www.serif.com/" style="fill-rule:evenodd;clip-rule:evenodd;stroke-linejoin:round;stroke-miterlimit:2;">
    <g transform="matrix(1,0,0,1,-131,-25)">
        <g id="Omnivore-Head" serif:id="Omnivore Head">
            <g transform="matrix(1,0,0,1,193.974,36.9204)">
                <path d="M0,29.183C0,29.183 2.029,33.98 -1.987,36.769C-8.166,41.059 -16.096,36.881 -21.675,35.988C-27.253,35.096 -34.343,36.434 -46.951,31.748C-59.558,27.062 -62.794,17.454 -62.348,6.645C-61.961,-2.719 -53.868,-11.876 -41.93,-11.876C-29.992,-11.876 -25.306,-5.963 -20.062,-1.835C-14.818,2.293 -6.115,7.203 -6.115,7.203C-6.115,7.203 2.88,10.217 0,29.183" style="fill:rgb(199,178,153);fill-rule:nonzero;"/>
            </g>
            <g opacity="0.5">
                <g transform="matrix(-0.0402274,-0.999191,-0.999191,0.0402274,156.99,10.4241)">
                    <path d="M-25.322,-15.916C-20.987,-10.843 -14.889,-6.398 -14.409,5.53C-14.049,14.476 -18.922,21.468 -25.322,24.727C-25.322,24.727 -15.371,18.426 -15.863,6.2C-16.355,-6.028 -25.322,-15.916 -25.322,-15.916" style="fill:white;fill-rule:nonzero;"/>
                </g>
            </g>
            <g transform="matrix(1,0,0,1,177.371,63.7093)">
                <path d="M0,-18.582C0,-18.582 8.283,-22.649 16.624,-21.148C22.203,-20.144 25.215,-16.797 26.108,-12.557C27,-8.317 26.554,-0.842 19.525,1.612C12.496,4.067 4.686,2.423 -2.008,-0.396C-6.822,-2.423 -11.715,-6.086 -15.62,-8.317C-19.525,-10.549 -23.43,-12.334 -28.004,-11.776C-32.813,-11.19 -39.174,-6.532 -35.493,2.394" style="fill:rgb(199,178,153);fill-rule:nonzero;"/>
            </g>
            <g transform="matrix(1,0,0,1,177.371,64.2083)">
                <path d="M0,-19.081C2.191,-20.189 4.526,-21.037 6.934,-21.597C9.337,-22.177 11.826,-22.483 14.331,-22.384C16.818,-22.281 19.388,-21.794 21.643,-20.482C23.905,-19.205 25.687,-17.017 26.499,-14.525C27.312,-12.033 27.481,-9.432 27.062,-6.857C26.645,-4.306 25.44,-1.723 23.35,0.03C22.321,0.907 21.124,1.563 19.875,2.008C18.654,2.408 17.417,2.771 16.149,2.958C13.622,3.402 11.049,3.359 8.535,3.081C6.025,2.75 3.565,2.157 1.192,1.351C-1.166,0.548 -3.52,-0.405 -5.702,-1.65C-10.08,-4.071 -13.974,-7.097 -18.225,-9.35C-20.345,-10.469 -22.573,-11.36 -24.904,-11.663C-26.063,-11.812 -27.26,-11.808 -28.409,-11.654C-29.555,-11.48 -30.675,-11.082 -31.711,-10.535C-33.79,-9.453 -35.473,-7.551 -36.091,-5.236C-36.717,-2.919 -36.329,-0.397 -35.493,1.895C-36.511,-0.318 -37.119,-2.858 -36.584,-5.355C-36.078,-7.848 -34.372,-10.04 -32.177,-11.347C-31.085,-12.018 -29.873,-12.492 -28.602,-12.745C-27.328,-12.973 -26.052,-13.036 -24.771,-12.931C-22.202,-12.733 -19.773,-11.812 -17.527,-10.728C-13.006,-8.545 -9.073,-5.537 -4.803,-3.304C-3.739,-2.742 -2.666,-2.215 -1.571,-1.757C-0.456,-1.305 0.666,-0.869 1.808,-0.501C4.085,0.258 6.425,0.794 8.78,1.098C11.133,1.374 13.52,1.429 15.834,1.036C16.998,0.875 18.126,0.547 19.237,0.195C20.298,-0.184 21.296,-0.703 22.15,-1.404C23.875,-2.794 24.941,-4.905 25.359,-7.164C25.767,-9.415 25.701,-11.862 25.047,-14.052C24.403,-16.257 22.936,-18.154 20.983,-19.396C19.028,-20.663 16.652,-21.218 14.269,-21.448C11.876,-21.684 9.433,-21.532 7.038,-21.099C5.837,-20.893 4.649,-20.608 3.475,-20.269C2.299,-19.936 1.131,-19.559 0,-19.081" style="fill:rgb(146,217,0);fill-rule:nonzero;"/>
            </g>
            <g opacity="0.5">
                <g transform="matrix(-0.242641,0.970116,0.970116,0.242641,195.269,34.8559)">
                    <path d="M13.31,-13.556C13.31,-13.556 9.218,-8.782 7.784,0.634C7.784,0.634 7.785,7.652 13.31,11.073C13.31,11.073 9.3,7.545 9.333,0.878C9.354,-3.344 9.863,-6.126 13.31,-13.556" style="fill:white;fill-rule:nonzero;"/>
                </g>
            </g>
            <g opacity="0.3">
                <g transform="matrix(0.649054,0.760743,0.760743,-0.649054,192.863,50.3406)">
                    <path d="M1.696,-0.783C-0.017,-0.783 -1.405,0.216 -1.406,1.447C-1.405,2.678 -0.016,3.677 1.696,3.676C3.409,3.676 4.798,2.678 4.797,1.447C4.797,0.215 3.409,-0.783 1.696,-0.783" style="fill-rule:nonzero;"/>
                </g>
            </g>
            <g transform="matrix(0.649136,0.760673,0.760673,-0.649136,193.196,49.9594)">
                <path d="M1.439,-0.664C-0.089,-0.664 -1.329,0.184 -1.329,1.229C-1.329,2.273 -0.089,3.12 1.439,3.119C2.969,3.119 4.208,2.272 4.208,1.227C4.207,0.183 2.968,-0.664 1.439,-0.664" style="fill:rgb(76,68,60);fill-rule:nonzero;"/>
            </g>
            <g opacity="0.3">
                <g transform="matrix(-0.999031,0.0440204,0.0440204,0.999031,157.98,46.2493)">
                    <path d="M-0.916,-14.55C3.48,-14.744 6.467,-11.517 6.636,-7.687C6.805,-3.856 3.938,-0.18 -0.916,0.034C-5.771,0.248 -7.08,-3.436 -7.192,-5.973C-7.304,-8.512 -6.046,-14.324 -0.916,-14.55" style="fill-rule:nonzero;"/>
                </g>
            </g>
            <g transform="matrix(-0.998943,0.0459704,0.0459704,0.998943,157.996,44.6021)">
                <path d="M-0.862,-13.105C3.278,-13.296 6.091,-10.4 6.25,-6.949C6.409,-3.498 3.709,-0.177 -0.862,0.034C-5.435,0.244 -6.668,-3.07 -6.773,-5.355C-6.879,-7.642 -5.693,-12.883 -0.862,-13.105" style="fill:white;fill-rule:nonzero;"/>
            </g>
            <g transform="matrix(0,-1,-1,0,160.695,38.8883)">
                <path d="M-0.971,-0.971C-1.717,-0.971 -2.322,-0.536 -2.322,0.001C-2.322,0.537 -1.717,0.971 -0.971,0.971C-0.225,0.971 0.38,0.537 0.38,0.001C0.38,-0.536 -0.225,-0.971 -0.971,-0.971" style="fill-rule:nonzero;"/>
            </g>
            <g opacity="0.3">
                <g transform="matrix(1,0,0,1,155.479,66.6034)">
                    <path d="M0,-14.834C0,-14.834 5.618,-15.172 18.149,-7.941C25.5,-3.7 31.212,-3.207 36.819,-3.458C42.425,-3.709 45.44,-6.86 48.033,-12.23C48.033,-12.23 48.037,0.338 34.395,-0.095C20.752,-0.529 13.749,-6.449 10.724,-8.258C7.698,-10.068 0,-14.834 0,-14.834" style="fill-rule:nonzero;"/>
                </g>
            </g>
            <g opacity="0.3">
                <g transform="matrix(1,0,0,1,169.88,52.3133)">
                    <path d="M0,16.919C6.209,16.919 12.317,19.897 16.877,19.292C21.402,18.69 20.496,13.738 20.496,13.738L24.094,13.79C24.094,13.79 26.123,18.587 22.106,21.377C15.928,25.667 7.998,21.488 2.419,20.595C-3.16,19.703 -10.25,21.042 -22.857,16.356C-35.464,11.669 -38.7,2.061 -38.254,-8.748C-38.254,-8.748 -38.367,16.919 0,16.919" style="fill-rule:nonzero;"/>
                </g>
            </g>
            <g transform="matrix(1,0,0,1,177.371,64.2083)">
                <path d="M0,-19.081C2.191,-20.189 4.526,-21.037 6.934,-21.597C9.337,-22.177 11.826,-22.483 14.331,-22.384C16.818,-22.281 19.388,-21.794 21.643,-20.482C23.905,-19.205 25.687,-17.017 26.499,-14.525C27.312,-12.033 27.481,-9.432 27.062,-6.857C26.645,-4.306 25.44,-1.723 23.35,0.03C22.321,0.907 21.124,1.563 19.875,2.008C18.654,2.408 17.417,2.771 16.149,2.958C13.622,3.402 11.049,3.359 8.535,3.081C6.025,2.75 3.565,2.157 1.192,1.351C-1.166,0.548 -3.52,-0.405 -5.702,-1.65C-10.08,-4.071 -13.974,-7.097 -18.225,-9.35C-20.345,-10.469 -22.573,-11.36 -24.904,-11.663C-26.063,-11.812 -27.26,-11.808 -28.409,-11.654C-29.555,-11.48 -30.675,-11.082 -31.711,-10.535C-33.79,-9.453 -35.473,-7.551 -36.091,-5.236C-36.717,-2.919 -36.329,-0.397 -35.493,1.895C-36.511,-0.318 -37.119,-2.858 -36.584,-5.355C-36.078,-7.848 -34.372,-10.04 -32.177,-11.347C-31.085,-12.018 -29.873,-12.492 -28.602,-12.745C-27.328,-12.973 -26.052,-13.036 -24.771,-12.931C-22.202,-12.733 -19.773,-11.812 -17.527,-10.728C-13.006,-8.545 -9.073,-5.537 -4.803,-3.304C-3.739,-2.742 -2.666,-2.215 -1.571,-1.757C-0.456,-1.305 0.666,-0.869 1.808,-0.501C4.085,0.258 6.425,0.794 8.78,1.098C11.133,1.374 13.52,1.429 15.834,1.036C16.998,0.875 18.126,0.547 19.237,0.195C20.298,-0.184 21.296,-0.703 22.15,-1.404C23.875,-2.794 24.941,-4.905 25.359,-7.164C25.767,-9.415 25.701,-11.862 25.047,-14.052C24.403,-16.257 22.936,-18.154 20.983,-19.396C19.028,-20.663 16.652,-21.218 14.269,-21.448C11.876,-21.684 9.433,-21.532 7.038,-21.099C5.837,-20.893 4.649,-20.608 3.475,-20.269C2.299,-19.936 1.131,-19.559 0,-19.081" style="fill:rgb(76,68,60);fill-rule:nonzero;"/>
            </g>
            <g transform="matrix(1,0,0,1,172.299,43.5656)">
                <path d="M0,29.343C-2.407,29.204 -4.793,29.328 -7.212,29.329C-9.627,29.316 -12.064,29.193 -14.479,28.848C-16.898,28.533 -19.281,27.976 -21.63,27.323C-23.972,26.657 -26.268,25.835 -28.531,24.779C-30.771,23.707 -32.87,22.276 -34.675,20.529C-36.459,18.765 -37.954,16.686 -38.951,14.398C-41,9.817 -41.271,4.757 -40.673,0C-40.444,4.798 -39.703,9.601 -37.546,13.719C-35.412,17.831 -31.853,21.018 -27.653,22.983C-25.582,23.992 -23.342,24.808 -21.083,25.516C-18.832,26.252 -16.538,26.83 -14.219,27.316C-11.897,27.78 -9.542,28.112 -7.16,28.354C-4.785,28.624 -2.351,28.766 0,29.343" style="fill:rgb(76,68,60);fill-rule:nonzero;"/>
            </g>
        </g>
    </g>
</svg>
