<?xml version="1.0" encoding="UTF-8" standalone="no"?>
<!DOCTYPE svg PUBLIC "-//W3C//DTD SVG 1.1//EN" "http://www.w3.org/Graphics/SVG/1.1/DTD/svg11.dtd">
<svg width="100%" height="100%" viewBox="0 0 100 100" version="1.1" xmlns="http://www.w3.org/2000/svg" xmlns:xlink="http://www.w3.org/1999/xlink" xml:space="preserve" xmlns:serif="http://www.serif.com/" style="fill-rule:evenodd;clip-rule:evenodd;stroke-linecap:round;stroke-linejoin:round;stroke-miterlimit:1.5;">
    <g transform="matrix(1,0,0,1,-374.248,-499)">
        <g id="exploration_icon" transform="matrix(1,0,0,1,-3099.42,-6)">
            <rect x="3473.67" y="505" width="100" height="100" style="fill:none;"/>
            <clipPath id="_clip1">
                <rect x="3473.67" y="505" width="100" height="100"/>
            </clipPath>
            <g clip-path="url(#_clip1)">
                <g transform="matrix(1.06383,0,0,1.06383,-22.2519,237.979)">
                    <circle cx="3333.17" cy="298" r="47" style="fill:url(#_Linear2);"/>
                    <path d="M3333.17,251C3359.11,251 3380.17,272.06 3380.17,298C3380.17,323.94 3359.11,345 3333.17,345C3307.23,345 3286.17,323.94 3286.17,298C3286.17,272.06 3307.23,251 3333.17,251ZM3333.17,255.778C3356.47,255.778 3375.39,274.697 3375.39,298C3375.39,321.303 3356.47,340.222 3333.17,340.222C3309.86,340.222 3290.94,321.303 3290.94,298C3290.94,274.697 3309.86,255.778 3333.17,255.778Z"/>
                </g>
                <g transform="matrix(1,0,0,1,3099.42,6)">
                    <path d="M409.401,579.948L414.904,579.958L421.335,556.857L417.375,552.131L409.401,579.948Z" style="fill:rgb(81,81,81);stroke:black;stroke-width:2px;"/>
                </g>
                <g transform="matrix(1,0,0,1,3099.42,6)">
                    <path d="M428.75,556.97L432.871,552.692L440.759,579.941L435.236,579.975L428.75,556.97Z" style="fill:rgb(81,81,81);stroke:black;stroke-width:2px;"/>
                </g>
                <g id="Layer5" transform="matrix(0.997619,-0.0689711,0.0689711,0.997619,3063.29,36.5016)">
                    <g transform="matrix(0.908326,-0.306204,0.306204,0.908326,-127.564,180.27)">
                        <path d="M392.176,534.311C392.176,533.9 391.842,533.566 391.431,533.566L388.028,533.566C387.617,533.566 387.283,533.9 387.283,534.311L387.283,544.429C387.283,544.84 387.617,545.174 388.028,545.174L391.431,545.174C391.842,545.174 392.176,544.84 392.176,544.429L392.176,534.311Z" style="fill:rgb(242,117,64);stroke:black;stroke-width:2.09px;"/>
                    </g>
                    <g transform="matrix(2.76691,-0.932748,0.19449,0.576937,-782.613,600.291)">
                        <path d="M392.176,535.333C392.176,534.358 392.011,533.566 391.808,533.566L387.652,533.566C387.448,533.566 387.283,534.358 387.283,535.333L387.283,543.407C387.283,544.382 387.448,545.174 387.652,545.174L391.808,545.174C392.011,545.174 392.176,544.382 392.176,543.407L392.176,535.333Z" style="fill:rgb(242,117,64);stroke:black;stroke-width:0.95px;"/>
                    </g>
                    <g transform="matrix(3.27808,-1.10507,0.331258,0.982648,-1040.89,443.513)">
                        <path d="M392.176,535.333C392.176,534.358 391.939,533.566 391.646,533.566L387.813,533.566C387.52,533.566 387.283,534.358 387.283,535.333L387.283,543.407C387.283,544.382 387.52,545.174 387.813,545.174L391.646,545.174C391.939,545.174 392.176,544.382 392.176,543.407L392.176,535.333Z" style="fill:rgb(242,117,64);stroke:black;stroke-width:0.78px;"/>
                    </g>
                    <g transform="matrix(4.52204,-1.52442,0.464025,1.37649,-1578.18,388.117)">
                        <path d="M392.176,535.333C392.176,534.358 391.935,533.566 391.638,533.566L387.821,533.566C387.524,533.566 387.283,534.358 387.283,535.333L387.283,543.407C387.283,544.382 387.524,545.174 387.821,545.174L391.638,545.174C391.935,545.174 392.176,544.382 392.176,543.407L392.176,535.333Z" style="fill:rgb(242,117,64);stroke:black;stroke-width:0.57px;"/>
                    </g>
                    <g transform="matrix(0.689841,0.341999,-0.341999,0.689841,59.5566,109.295)">
                        <path d="M670.438,284.725L681.005,274.158" style="fill:none;stroke:white;stroke-opacity:0.51;stroke-width:2px;"/>
                    </g>
                    <g transform="matrix(0.522571,0.404147,-0.171243,0.638037,130.983,79.7148)">
                        <path d="M679.566,275.597L681.005,274.158" style="fill:none;stroke:white;stroke-opacity:0.51;stroke-width:2px;"/>
                    </g>
                    <g transform="matrix(1.20102,-0.404872,0.602674,1.78778,-344.713,-274.798)">
                        <path d="M392.176,534.067C392.176,533.791 391.842,533.566 391.431,533.566L388.028,533.566C387.617,533.566 387.283,533.791 387.283,534.067L387.283,544.673C387.283,544.95 387.617,545.174 388.028,545.174L391.431,545.174C391.842,545.174 392.176,544.95 392.176,544.673L392.176,534.067Z" style="fill:rgb(242,117,64);stroke:black;stroke-width:1.24px;"/>
                    </g>
                    <g transform="matrix(-0.908326,0.306204,-0.321006,-0.952237,1043.36,902.493)">
                        <path d="M461.394,529.565C458.295,529.748 455.779,533.817 455.779,538.786C455.779,543.755 458.295,547.824 461.394,548.007L461.394,529.565Z" style="fill:white;stroke:black;stroke-width:2.04px;"/>
                    </g>
                </g>
                <g transform="matrix(0.987953,0,0,0.987953,3104.76,12.1828)">
                    <circle cx="424.853" cy="550.127" r="8.186" style="fill:rgb(197,197,197);stroke:black;stroke-width:2px;"/>
                </g>
            </g>
        </g>
    </g>
    <defs>
        <linearGradient id="_Linear2" x1="0" y1="0" x2="1" y2="0" gradientUnits="userSpaceOnUse" gradientTransform="matrix(94,0,0,94,3286.17,298)"><stop offset="0" style="stop-color:rgb(181,45,255);stop-opacity:1"/><stop offset="1" style="stop-color:rgb(214,43,90);stop-opacity:1"/></linearGradient>
    </defs>
</svg>
