<?xml version="1.0" encoding="UTF-8" standalone="no"?>
<!DOCTYPE svg PUBLIC "-//W3C//DTD SVG 1.1//EN" "http://www.w3.org/Graphics/SVG/1.1/DTD/svg11.dtd">
<svg width="100%" height="100%" viewBox="0 0 100 100" version="1.1" xmlns="http://www.w3.org/2000/svg" xmlns:xlink="http://www.w3.org/1999/xlink" xml:space="preserve" xmlns:serif="http://www.serif.com/" style="fill-rule:evenodd;clip-rule:evenodd;stroke-linejoin:round;stroke-miterlimit:2;">
    <g transform="matrix(1,0,0,1,-374.918,-248)">
        <g id="food_icon" transform="matrix(1,0,0,1,-2908.08,0)">
            <rect x="3283" y="248" width="100" height="100" style="fill:none;"/>
            <clipPath id="_clip1">
                <rect x="3283" y="248" width="100" height="100"/>
            </clipPath>
            <g clip-path="url(#_clip1)">
                <g transform="matrix(1.06383,0,0,1.06383,-212.922,-19.0213)">
                    <circle cx="3333.17" cy="298" r="47" style="fill:url(#_Linear2);"/>
                    <path d="M3333.17,251C3359.11,251 3380.17,272.06 3380.17,298C3380.17,323.94 3359.11,345 3333.17,345C3307.23,345 3286.17,323.94 3286.17,298C3286.17,272.06 3307.23,251 3333.17,251ZM3333.17,255.859C3356.43,255.859 3375.31,274.742 3375.31,298C3375.31,321.258 3356.43,340.141 3333.17,340.141C3309.91,340.141 3291.03,321.258 3291.03,298C3291.03,274.742 3309.91,255.859 3333.17,255.859Z"/>
                </g>
                <g transform="matrix(0.136061,0,0,0.136061,3299.75,264.079)">
                    <path d="M228.063,16.72C227.22,16.77 226.389,16.938 225.593,17.22C209.517,22.845 198.043,27.99 189.438,39.03C182.961,47.343 178.454,57.884 173.375,73.437C162.062,61.145 146.643,50.951 129.5,42.625C105.683,31.057 78.417,23.165 53.344,19.845C52.949,19.792 52.551,19.766 52.152,19.766C47.215,19.766 43.152,23.828 43.152,28.766C43.152,31.73 44.617,34.511 47.062,36.188C68.747,51.122 87.587,65.456 100.469,79.875C110.433,91.03 116.679,101.885 118.905,113.405C86.015,109.7 56.155,116.875 19.499,136.655C16.558,138.213 14.711,141.28 14.711,144.608C14.711,149.546 18.774,153.608 23.711,153.608C24.016,153.608 24.321,153.593 24.624,153.562C58.976,150.297 94.108,149.754 121.187,154.187C134.727,156.404 146.194,159.91 154.405,164.437C154.605,164.548 154.804,164.658 155,164.769C159.411,167.256 164.975,166.158 168.112,162.184C172.23,157.007 176.87,152.169 181.843,147.749C191.745,138.946 203.143,131.651 215.136,127.124C217.849,126.171 220.031,124.114 221.144,121.463C222.256,118.811 222.195,115.813 220.974,113.209C214.57,100.548 212.999,91.123 214.03,82.155C215.618,68.342 224.597,53.262 236.594,29.811C237.246,28.54 237.586,27.132 237.586,25.703C237.586,20.766 233.524,16.703 228.586,16.703C228.412,16.703 228.238,16.708 228.064,16.718L228.063,16.72Z" style="fill:rgb(56,182,46);"/>
                </g>
                <g transform="matrix(0.136061,0,0,0.136061,3299.75,264.079)">
                    <path d="M241.969,140.156C241.442,140.153 240.907,140.172 240.374,140.186C225.449,140.614 207.859,148.704 193.78,161.219C177.692,175.519 166.803,195.036 167,211.219C167.39,243.394 185.688,278.989 214.344,313.343C242.999,347.697 281.644,380.653 320.719,408.063C359.792,435.469 399.379,457.379 429.499,469.999C435.53,472.526 443.644,474.945 451.295,476.921C456.183,477.935 461.259,476.51 464.904,473.099C468.549,469.688 470.308,464.717 469.619,459.773C467.169,447.546 463.895,433.183 461.248,424.905C450.851,392.389 434.498,351.005 413.56,309.968C401.457,286.243 387.788,262.633 372.896,240.911C371.568,238.993 369.447,237.775 367.122,237.593C364.796,237.412 362.512,238.287 360.903,239.976C349.99,250.189 334.337,260.128 325.189,265.583C323.299,266.723 321.018,267.02 318.899,266.403C316.779,265.787 315.014,264.312 314.03,262.336C314,262.347 313.999,262.344 313.997,262.341C312.123,258.569 313.528,253.989 317.196,251.917C325.918,246.926 341.52,237.073 353.274,224.886C355.848,222.084 355.997,217.824 353.624,214.848C348.69,208.631 343.625,202.689 338.465,197.06C338.035,196.59 337.604,196.123 337.172,195.657C335.111,193.432 332.198,192.192 329.166,192.248C326.133,192.305 323.269,193.652 321.292,195.952C302.335,219.174 284.742,227.738 260.478,238.231C258.26,239.192 255.75,239.231 253.502,238.34C251.255,237.449 249.454,235.7 248.497,233.48C248.488,233.479 248.487,233.475 248.485,233.472C247.547,231.298 247.518,228.841 248.403,226.646C249.288,224.451 251.014,222.701 253.197,221.786C277.611,211.428 291.374,205.509 308.742,183.261C310.604,181.079 311.492,178.229 311.198,175.375C310.904,172.521 309.454,169.912 307.186,168.154C287.701,153.021 267.309,143.165 246.591,140.466C245.086,140.269 243.544,140.162 241.966,140.152L241.969,140.156Z" style="fill:rgb(255,125,27);"/>
                </g>
            </g>
        </g>
    </g>
    <defs>
        <linearGradient id="_Linear2" x1="0" y1="0" x2="1" y2="0" gradientUnits="userSpaceOnUse" gradientTransform="matrix(94,0,0,94,3286.17,298)"><stop offset="0" style="stop-color:rgb(255,217,45);stop-opacity:1"/><stop offset="1" style="stop-color:rgb(43,214,99);stop-opacity:1"/></linearGradient>
    </defs>
</svg>
