<?xml version="1.0" encoding="UTF-8" standalone="no"?>
<!DOCTYPE svg PUBLIC "-//W3C//DTD SVG 1.1//EN" "http://www.w3.org/Graphics/SVG/1.1/DTD/svg11.dtd">
<svg width="100%" height="100%" viewBox="0 0 101 101" version="1.1" xmlns="http://www.w3.org/2000/svg" xmlns:xlink="http://www.w3.org/1999/xlink" xml:space="preserve" xmlns:serif="http://www.serif.com/" style="fill-rule:evenodd;clip-rule:evenodd;stroke-linejoin:round;stroke-miterlimit:2;">
    <g transform="matrix(1,0,0,1,-617.248,-499)">
        <g id="happiness_icon" transform="matrix(1,0,0,1,-3099.06,-6)">
            <rect x="3716.3" y="505" width="100.045" height="100.045" style="fill:none;"/>
            <clipPath id="_clip1">
                <rect x="3716.3" y="505" width="100.045" height="100.045"/>
            </clipPath>
            <g clip-path="url(#_clip1)">
                <g transform="matrix(1.06431,0,0,1.06431,218.81,237.859)">
                    <circle cx="3333.17" cy="298" r="47" style="fill:url(#_Linear2);"/>
                    <path d="M3333.17,251C3359.11,251 3380.17,272.06 3380.17,298C3380.17,323.94 3359.11,345 3333.17,345C3307.23,345 3286.17,323.94 3286.17,298C3286.17,272.06 3307.23,251 3333.17,251ZM3333.17,255.859C3356.43,255.859 3375.31,274.742 3375.31,298C3375.31,321.258 3356.43,340.141 3333.17,340.141C3309.91,340.141 3291.03,321.258 3291.03,298C3291.03,274.742 3309.91,255.859 3333.17,255.859Z"/>
                </g>
                <g transform="matrix(0.271861,0,0,0.271861,3716.3,505)">
                    <path d="M144,152C144,138.768 133.232,128 120,128C106.768,128 96,138.768 96,152C96,165.232 106.768,176 120,176C133.232,176 144,165.232 144,152ZM112,152C112,147.592 115.592,144 120,144C124.408,144 128,147.592 128,152C128,156.408 124.408,160 120,160C115.592,160 112,156.408 112,152Z" style="fill-rule:nonzero;"/>
                </g>
                <g transform="matrix(0.271861,0,0,0.271861,3716.3,505)">
                    <path d="M248,128C234.768,128 224,138.768 224,152C224,165.232 234.768,176 248,176C261.232,176 272,165.232 272,152C272,138.768 261.232,128 248,128ZM248,160C243.592,160 240,156.408 240,152C240,147.592 243.592,144 248,144C252.408,144 256,147.592 256,152C256,156.408 252.408,160 248,160Z" style="fill-rule:nonzero;"/>
                </g>
                <g transform="matrix(0.271861,0,0,0.271861,3716.3,505)">
                    <path d="M261.336,226.04C258.04,223.088 252.976,223.376 250.04,226.664C233.352,245.312 209.288,256 184,256C158.72,256 134.648,245.312 117.96,226.664C115.008,223.376 109.96,223.088 106.664,226.04C103.368,228.984 103.096,234.04 106.04,237.336C125.76,259.368 154.176,272 184,272C213.832,272 242.248,259.36 261.96,237.336C264.904,234.04 264.624,228.984 261.336,226.04Z" style="fill-rule:nonzero;"/>
                </g>
            </g>
        </g>
    </g>
    <defs>
        <linearGradient id="_Linear2" x1="0" y1="0" x2="1" y2="0" gradientUnits="userSpaceOnUse" gradientTransform="matrix(94,0,0,94,3286.17,298)"><stop offset="0" style="stop-color:rgb(45,255,240);stop-opacity:1"/><stop offset="1" style="stop-color:rgb(43,122,214);stop-opacity:1"/></linearGradient>
    </defs>
</svg>
