<?xml version="1.0" encoding="UTF-8" standalone="no"?>
<!DOCTYPE svg PUBLIC "-//W3C//DTD SVG 1.1//EN" "http://www.w3.org/Graphics/SVG/1.1/DTD/svg11.dtd">
<svg width="100%" height="100%" viewBox="0 0 100 100" version="1.1" xmlns="http://www.w3.org/2000/svg" xmlns:xlink="http://www.w3.org/1999/xlink" xml:space="preserve" xmlns:serif="http://www.serif.com/" style="fill-rule:evenodd;clip-rule:evenodd;stroke-linejoin:round;stroke-miterlimit:2;">
    <g transform="matrix(1,0,0,1,-494.918,-248)">
        <g id="production_icon" transform="matrix(1,0,0,1,-2908.08,0)">
            <rect x="3403" y="248" width="100" height="100" style="fill:none;"/>
            <clipPath id="_clip1">
                <rect x="3403" y="248" width="100" height="100"/>
            </clipPath>
            <g clip-path="url(#_clip1)">
                <g transform="matrix(1.06383,0,0,1.06383,-92.9216,-19.0213)">
                    <circle cx="3333.17" cy="298" r="47" style="fill:url(#_Linear2);"/>
                    <path d="M3333.17,251C3359.11,251 3380.17,272.06 3380.17,298C3380.17,323.94 3359.11,345 3333.17,345C3307.23,345 3286.17,323.94 3286.17,298C3286.17,272.06 3307.23,251 3333.17,251ZM3333.17,255.859C3356.43,255.859 3375.31,274.742 3375.31,298C3375.31,321.258 3356.43,340.141 3333.17,340.141C3309.91,340.141 3291.03,321.258 3291.03,298C3291.03,274.742 3309.91,255.859 3333.17,255.859Z"/>
                </g>
                <g transform="matrix(0.722626,0,0,0.722626,957.769,82.6602)">
                    <path d="M3423.51,294.117C3422.44,295.204 3420.78,295.436 3419.45,294.683C3413.28,291.169 3410.01,286.191 3408.43,279.984C3408.05,278.499 3408.73,276.947 3410.07,276.21C3412.65,274.782 3416.76,272.519 3418.12,271.775C3418.41,271.613 3418.73,271.504 3419.07,271.453C3420.29,271.27 3423.49,270.788 3426.25,270.373C3427.2,270.23 3428.01,269.594 3428.37,268.7C3428.74,267.806 3428.6,266.786 3428.02,266.016C3427.95,265.921 3427.88,265.827 3427.81,265.734C3426.9,264.532 3427.13,262.822 3428.33,261.908C3430.77,260.044 3434.72,257.029 3437.17,255.158C3437.75,254.716 3438.48,254.523 3439.2,254.621C3439.92,254.72 3440.57,255.101 3441.01,255.681C3441.35,256.129 3441.7,256.594 3442.03,257.021C3442.78,258.012 3444.1,258.373 3445.25,257.899C3448.97,256.296 3457.09,252.985 3460.4,252.953C3460.93,252.957 3461.5,253.011 3462.06,253.094C3462.85,253.198 3463.5,253.771 3463.71,254.546C3463.92,255.32 3463.64,256.143 3463,256.629C3459.7,259.168 3454.58,263.078 3451.69,265.28C3450.5,266.194 3450.26,267.904 3451.17,269.106C3451.33,269.319 3451.49,269.534 3451.65,269.747C3452.56,270.948 3452.33,272.658 3451.13,273.572C3448.69,275.436 3444.74,278.45 3442.29,280.321C3441.72,280.763 3440.99,280.957 3440.26,280.858C3439.54,280.76 3438.89,280.377 3438.45,279.796C3438.39,279.716 3438.33,279.634 3438.26,279.552C3437.68,278.782 3436.74,278.375 3435.78,278.482C3434.82,278.589 3433.99,279.194 3433.59,280.074C3432.44,282.611 3431.1,285.566 3430.6,286.689C3430.46,286.997 3430.26,287.278 3430.03,287.519C3428.93,288.627 3425.59,292.015 3423.51,294.117Z" style="fill:rgb(27,27,27);"/>
                </g>
                <g transform="matrix(0.722626,0,0,0.722626,957.769,82.6602)">
                    <path d="M3459.29,303.76L3459.29,303.762C3456.05,298.807 3450.22,290.072 3447.19,285.547C3446.1,283.917 3446.47,281.722 3448.03,280.532C3448.54,280.141 3449.08,279.732 3449.59,279.341C3451.16,278.147 3453.38,278.383 3454.66,279.878C3458.12,283.915 3464.69,291.574 3468.51,295.949C3468.91,296.399 3478.12,306.743 3482.17,312.438C3485.65,317.335 3492.14,327.833 3495.67,333.588C3497.05,335.834 3496.51,338.764 3494.41,340.363C3494.41,340.364 3494.41,340.365 3494.41,340.365C3492.36,341.925 3489.47,341.714 3487.68,339.874C3483.9,336.039 3477.7,329.61 3474.34,325.43C3469.16,318.983 3459.6,304.238 3459.29,303.76Z" style="fill:rgb(88,41,0);"/>
                </g>
            </g>
        </g>
    </g>
    <defs>
        <linearGradient id="_Linear2" x1="0" y1="0" x2="1" y2="0" gradientUnits="userSpaceOnUse" gradientTransform="matrix(94,0,0,94,3286.17,298)"><stop offset="0" style="stop-color:rgb(255,141,71);stop-opacity:1"/><stop offset="1" style="stop-color:rgb(255,218,46);stop-opacity:1"/></linearGradient>
    </defs>
</svg>
