<?xml version="1.0" encoding="UTF-8" standalone="no"?>
<!DOCTYPE svg PUBLIC "-//W3C//DTD SVG 1.1//EN" "http://www.w3.org/Graphics/SVG/1.1/DTD/svg11.dtd">
<svg width="100%" height="100%" viewBox="0 0 101 101" version="1.1" xmlns="http://www.w3.org/2000/svg" xmlns:xlink="http://www.w3.org/1999/xlink" xml:space="preserve" xmlns:serif="http://www.serif.com/" style="fill-rule:evenodd;clip-rule:evenodd;stroke-linejoin:round;stroke-miterlimit:2;">
    <g transform="matrix(1,0,0,1,-126.248,-622)">
        <g id="space_icon" transform="matrix(1,0,0,1,-3099.42,-6.32209)">
            <rect x="3225.67" y="628.322" width="100.045" height="100.045" style="fill:none;"/>
            <clipPath id="_clip1">
                <rect x="3225.67" y="628.322" width="100.045" height="100.045"/>
            </clipPath>
            <g clip-path="url(#_clip1)">
                <g transform="matrix(1.06431,0,0,1.06431,-271.825,361.181)">
                    <circle cx="3333.17" cy="298" r="47" style="fill:url(#_Linear2);"/>
                    <path d="M3333.17,251C3359.11,251 3380.17,272.06 3380.17,298C3380.17,323.94 3359.11,345 3333.17,345C3307.23,345 3286.17,323.94 3286.17,298C3286.17,272.06 3307.23,251 3333.17,251ZM3333.17,255.859C3356.43,255.859 3375.31,274.742 3375.31,298C3375.31,321.258 3356.43,340.141 3333.17,340.141C3309.91,340.141 3291.03,321.258 3291.03,298C3291.03,274.742 3309.91,255.859 3333.17,255.859Z"/>
                </g>
                <g transform="matrix(-0.00385778,-0.122293,0.122293,-0.00385778,3244.63,710.356)">
                    <path d="M18.78,25.97C21.38,51.248 28.096,74.69 38.312,95.72L17.094,89.156L73.53,146.72L72.687,144.938C89.424,162.228 109.484,176.318 132.125,186.531C118.579,167.686 110.528,144.854 110.095,117.251C137.875,117.601 160.491,125.811 179.345,139.314C178.718,137.914 178.061,136.538 177.405,135.157L178.125,135.782L143.687,49.127L141.157,82.971C110.183,51.373 68.113,30.887 18.781,25.971L18.78,25.97ZM255.594,57.563L217.22,160.875C186.557,168.395 162.654,193.111 156.313,224.219L156.125,223.999L49.562,263.562L123.875,337.874L216.875,329.844L217.25,329.811L240.28,327.343L162.97,232.405L176.25,219.125L265.656,328.875L276.531,342.249L259.407,344.093L231.187,347.123C245.707,364.249 261.491,380.266 278.407,395.03C286.027,338.246 330.582,292.988 387.032,284.313C372.312,267.575 356.352,251.967 339.282,237.625L336.502,263.75L334.658,280.875L321.28,270L213.406,181.97L226.656,168.72L319.75,244.625L321.97,223.781L329.875,131.845L255.595,57.565L255.594,57.563ZM401.53,301.625C392.747,302.033 384.224,303.452 376.094,305.781L389.969,322.689C397.479,320.155 405.339,318.366 413.436,317.407C409.573,312.063 405.622,306.787 401.53,301.627L401.53,301.625ZM357.75,312.875C350.427,316.485 343.546,320.869 337.25,325.938L353,343.218C358.92,338.342 365.318,334.058 372.125,330.406L357.75,312.876L357.75,312.875ZM425.75,335.313C417.83,335.43 410.134,336.47 402.78,338.343L417.28,356.031C423.388,354.211 429.727,352.988 436.25,352.345C432.863,346.585 429.385,340.9 425.75,335.315L425.75,335.313ZM323.72,338.843C317.007,346.427 311.32,354.959 306.875,364.187L324.188,378.312C328.468,370.354 333.628,362.942 339.563,356.219L323.719,338.843L323.72,338.843ZM384.187,345.125C377.517,348.372 371.279,352.392 365.562,357L381.844,374.875C387.184,370.493 392.994,366.642 399.156,363.405L384.186,345.125L384.187,345.125ZM352.187,370.063C346.983,376.216 342.514,383.023 338.937,390.343L356.907,405.031C360.212,398.971 364.109,393.271 368.531,388.031L352.189,370.064L352.187,370.063ZM446.281,370.281L446.281,370.501C400.366,370.501 363.321,407.486 363.221,453.376C402.469,474.176 445.187,489.306 490.281,497.689C481.997,452.361 466.981,409.544 446.281,370.282L446.281,370.281ZM299.94,382.626C297.56,391.226 296.197,400.251 295.97,409.564C300.907,413.449 305.93,417.228 311.033,420.907C311.963,412.327 313.783,404.027 316.473,396.095L299.94,382.625L299.94,382.626ZM332.096,408.876C330.096,416.661 329.023,424.836 329.002,433.251C334.282,436.681 339.634,439.978 345.065,443.189C345.785,436.197 347.221,429.413 349.283,422.907L332.097,408.877L332.096,408.876Z" style="fill:white;fill-rule:nonzero;"/>
                </g>
            </g>
        </g>
    </g>
    <defs>
        <linearGradient id="_Linear2" x1="0" y1="0" x2="1" y2="0" gradientUnits="userSpaceOnUse" gradientTransform="matrix(94,0,0,94,3286.17,298)"><stop offset="0" style="stop-color:rgb(49,45,255);stop-opacity:1"/><stop offset="1" style="stop-color:rgb(13,7,34);stop-opacity:1"/></linearGradient>
    </defs>
</svg>
