<?xml version="1.0" encoding="UTF-8" standalone="no"?>
<!DOCTYPE svg PUBLIC "-//W3C//DTD SVG 1.1//EN" "http://www.w3.org/Graphics/SVG/1.1/DTD/svg11.dtd">
<svg width="100%" height="100%" viewBox="0 0 100 100" version="1.1" xmlns="http://www.w3.org/2000/svg" xmlns:xlink="http://www.w3.org/1999/xlink" xml:space="preserve" xmlns:serif="http://www.serif.com/" style="fill-rule:evenodd;clip-rule:evenodd;stroke-linejoin:round;stroke-miterlimit:2;">
    <g transform="matrix(1,0,0,1,-743.248,-250.021)">
        <g id="time_icon" transform="matrix(0.99871,0,0,0.99871,-3096.5,-2.6411)">
            <rect x="3844.71" y="252.988" width="100.129" height="100.129" style="fill:none;"/>
            <clipPath id="_clip1">
                <rect x="3844.71" y="252.988" width="100.129" height="100.129"/>
            </clipPath>
            <g clip-path="url(#_clip1)">
                <g transform="matrix(-3.78974e-16,-1.13783,-1.13783,3.78974e-16,3894.77,252.988)">
                    <circle cx="-44" cy="0" r="44" style="fill:white;"/>
                    <path d="M-44,-44C-19.716,-44 0,-24.284 0,0C0,24.284 -19.716,44 -44,44C-68.284,44 -88,24.284 -88,0C-88,-24.284 -68.284,-44 -44,-44ZM-44,-39.6C-65.856,-39.6 -83.6,-21.856 -83.6,0C-83.6,21.856 -65.856,39.6 -44,39.6C-22.144,39.6 -4.4,21.856 -4.4,0C-4.4,-21.856 -22.144,-39.6 -44,-39.6L-44,-39.6Z" style="fill:rgb(8,0,0);"/>
                </g>
                <g transform="matrix(1.00129,0,0,1.00129,-418.482,262.343)">
                    <path d="M4312.05,9.69C4312.05,7.285 4310.09,5.333 4307.69,5.333C4305.28,5.333 4303.33,7.285 4303.33,9.69C4303.33,9.69 4303.33,46.174 4303.33,46.174C4303.33,48.578 4305.28,50.53 4307.69,50.53C4310.09,50.53 4312.05,48.578 4312.05,46.174C4312.05,46.174 4312.05,9.69 4312.05,9.69ZM4311.38,9.69C4311.38,7.653 4309.73,6 4307.69,6C4305.65,6 4304,7.653 4304,9.69L4304,46.174C4304,48.21 4305.65,49.863 4307.69,49.863C4309.73,49.863 4311.38,48.21 4311.38,46.174L4311.38,9.69Z" style="fill:rgb(8,0,0);"/>
                    <path d="M4311.38,9.69C4311.38,7.653 4309.73,6 4307.69,6C4305.65,6 4304,7.653 4304,9.69L4304,46.174C4304,48.21 4305.65,49.863 4307.69,49.863C4309.73,49.863 4311.38,48.21 4311.38,46.174L4311.38,9.69Z"/>
                </g>
                <g transform="matrix(0.579909,0.816267,-0.570275,0.405146,1403.14,-3211.54)">
                    <path d="M4311.95,11.281C4311.95,7.912 4310.04,5.177 4307.69,5.177C4305.34,5.177 4303.43,7.912 4303.43,11.281L4303.43,44.582C4303.43,47.951 4305.34,50.687 4307.69,50.687C4310.04,50.687 4311.95,47.951 4311.95,44.582L4311.95,11.281ZM4311.38,11.281C4311.38,8.366 4309.73,6 4307.69,6C4305.65,6 4304,8.366 4304,11.281L4304,44.582C4304,47.497 4305.65,49.863 4307.69,49.863C4309.73,49.863 4311.38,47.497 4311.38,44.582L4311.38,11.281Z" style="fill:rgb(8,0,0);"/>
                    <path d="M4311.38,11.281C4311.38,8.366 4309.73,6 4307.69,6C4305.65,6 4304,8.366 4304,11.281L4304,44.582C4304,47.497 4305.65,49.863 4307.69,49.863C4309.73,49.863 4311.38,47.497 4311.38,44.582L4311.38,11.281Z"/>
                </g>
            </g>
        </g>
    </g>
</svg>
