<?xml version="1.0" encoding="UTF-8" standalone="no"?>
<!DOCTYPE svg PUBLIC "-//W3C//DTD SVG 1.1//EN" "http://www.w3.org/Graphics/SVG/1.1/DTD/svg11.dtd">
<svg width="100%" height="100%" viewBox="0 0 42 47" version="1.1" xmlns="http://www.w3.org/2000/svg" xmlns:xlink="http://www.w3.org/1999/xlink" xml:space="preserve" xmlns:serif="http://www.serif.com/" style="fill-rule:evenodd;clip-rule:evenodd;stroke-linejoin:round;stroke-miterlimit:2;">
    <g transform="matrix(1,0,0,1,-63,-118)">
        <g id="Foreground---Rear-Upper-Leg" serif:id="Foreground - Rear Upper Leg">
            <g transform="matrix(1,0,0,1,74.3477,117.75)">
                <path d="M0,41.207C-1.977,39.569 -18.604,22.222 -4.818,7.434C6.776,-5.003 22.616,3.235 26.773,13.752C29.54,20.753 30.667,30.113 28.101,37.196C26.902,40.505 21.077,44.981 15.028,45.555C8.127,46.21 2.465,43.249 0,41.207" style="fill:rgb(186,155,201);fill-rule:nonzero;"/>
            </g>
            <g opacity="0.5">
                <g transform="matrix(-0.0586211,-0.99828,-0.99828,0.0586211,86.7093,105.709)">
                    <path d="M-21.589,-10.298C-13.437,-4.463 -8.597,7.978 -18.435,18.293C-19.465,19.373 -20.52,20.288 -21.589,21.056C-21.589,21.056 -15.201,14.901 -15.108,5.757C-15.009,-3.909 -21.589,-10.298 -21.589,-10.298" style="fill:white;fill-rule:nonzero;"/>
                </g>
            </g>
            <g opacity="0.3">
                <g transform="matrix(1,0,0,1,103.012,163.96)">
                    <path d="M0,-26.136C1.218,-20.403 1.5,-14.034 -0.563,-9.013C-2.32,-4.74 -7.587,-1.229 -13.636,-0.655C-20.537,0 -26.199,-2.96 -28.664,-5.003C-30.047,-6.149 -38.605,-14.988 -38.895,-25.26C-38.895,-25.26 -34.022,-20.556 -19.224,-21.413C-4.426,-22.27 0,-26.136 0,-26.136" style="fill-rule:nonzero;"/>
                </g>
            </g>
            <g transform="matrix(1,0,0,1,101.413,164.513)">
                <path d="M0,-32.079C1.478,-28.902 2.355,-25.442 2.777,-21.937C2.996,-20.183 3.073,-18.408 3.021,-16.63C2.965,-14.853 2.792,-13.067 2.357,-11.305C1.947,-9.559 1.192,-7.736 -0.007,-6.301C-1.17,-4.834 -2.648,-3.679 -4.22,-2.726C-7.39,-0.848 -11.13,0 -14.787,-0.143C-18.455,-0.317 -22.037,-1.423 -25.172,-3.243C-25.959,-3.696 -26.716,-4.198 -27.449,-4.741C-28.221,-5.313 -28.87,-5.957 -29.494,-6.609C-30.73,-7.925 -31.812,-9.353 -32.804,-10.838C-34.769,-13.812 -36.302,-17.104 -37.069,-20.59C-37.832,-24.063 -37.787,-27.743 -36.669,-31.072C-37.373,-27.641 -37.198,-24.1 -36.176,-20.819C-35.214,-17.522 -33.556,-14.469 -31.57,-11.691C-30.567,-10.307 -29.46,-8.996 -28.269,-7.796C-27.67,-7.202 -27.056,-6.626 -26.409,-6.177C-25.723,-5.701 -25.007,-5.257 -24.266,-4.861C-21.308,-3.269 -18.031,-2.257 -14.706,-2.139C-11.379,-1.956 -8.047,-2.749 -5.134,-4.324C-2.245,-5.937 0.18,-8.387 0.971,-11.67C1.886,-14.923 2.067,-18.422 1.922,-21.865C1.781,-25.325 1.113,-28.763 0,-32.079" style="fill:rgb(79,69,86);fill-rule:nonzero;"/>
            </g>
        </g>
    </g>
</svg>
