<?xml version="1.0" encoding="UTF-8" standalone="no"?>
<!DOCTYPE svg PUBLIC "-//W3C//DTD SVG 1.1//EN" "http://www.w3.org/Graphics/SVG/1.1/DTD/svg11.dtd">
<svg width="100%" height="100%" viewBox="0 0 33 34" version="1.1" xmlns="http://www.w3.org/2000/svg" xmlns:xlink="http://www.w3.org/1999/xlink" xml:space="preserve" xmlns:serif="http://www.serif.com/" style="fill-rule:evenodd;clip-rule:evenodd;stroke-linejoin:round;stroke-miterlimit:2;">
    <g transform="matrix(1,0,0,1,-91,-143)">
        <g id="Background---Rear-Lower-Leg" serif:id="Background - Rear Lower Leg">
            <g transform="matrix(1,0,0,1,92.814,143.308)">
                <path d="M0,32.755C-1.505,32.755 -1.979,31.424 -1.399,30.247C-0.296,28.008 1.066,24.45 1.537,19.619C2.202,12.802 6.608,0 19.162,0C31.715,0 31.536,11.967 27.427,20.449C23.318,28.931 17.832,32.755 17.832,32.755L0,32.755Z" style="fill:rgb(186,155,201);fill-rule:nonzero;"/>
            </g>
            <g opacity="0.5">
                <g transform="matrix(1,0,0,1,92.814,143.308)">
                    <path d="M0,32.755C-1.505,32.755 -1.979,31.424 -1.399,30.247C-0.296,28.008 1.066,24.45 1.537,19.619C2.202,12.802 6.608,0 19.162,0C31.715,0 31.536,11.967 27.427,20.449C23.318,28.931 17.832,32.755 17.832,32.755L0,32.755Z" style="fill-rule:nonzero;"/>
                </g>
            </g>
            <g transform="matrix(0.6204,0.784286,0.784286,-0.6204,106.992,169.879)">
                <path d="M5.183,-3.417C5.183,-3.417 1.684,3.912 2.964,5.53L5.183,8.335C5.865,9.198 12.778,6.185 12.778,6.185L5.183,-3.417Z" style="fill:rgb(204,204,204);fill-rule:nonzero;"/>
            </g>
            <g opacity="0.3">
                <g transform="matrix(0.6204,0.784286,0.784286,-0.6204,106.992,169.879)">
                    <path d="M5.183,-3.417C5.183,-3.417 1.684,3.912 2.964,5.53L5.183,8.335C5.865,9.198 12.778,6.185 12.778,6.185L5.183,-3.417Z" style="fill-rule:nonzero;"/>
                </g>
            </g>
            <g transform="matrix(0.620441,0.784253,0.784253,-0.620441,102.719,169.879)">
                <path d="M5.182,-3.417C5.182,-3.417 1.683,3.911 2.964,5.53L5.182,8.334C5.866,9.198 12.779,6.184 12.779,6.184L5.182,-3.417Z" style="fill:white;fill-rule:nonzero;"/>
            </g>
            <g opacity="0.3">
                <g transform="matrix(0.620441,0.784253,0.784253,-0.620441,102.719,169.879)">
                    <path d="M5.182,-3.417C5.182,-3.417 1.683,3.911 2.964,5.53L5.182,8.334C5.866,9.198 12.779,6.184 12.779,6.184L5.182,-3.417Z" style="fill-rule:nonzero;"/>
                </g>
            </g>
            <g transform="matrix(1,0,0,1,94.1289,142.975)">
                <path d="M0,21.644C-0.243,19.058 0.011,16.435 0.637,13.878C0.933,12.592 1.405,11.343 1.971,10.121C2.567,8.888 3.306,7.796 4.06,6.723C4.858,5.67 5.728,4.645 6.729,3.735C7.743,2.847 8.856,2.036 10.091,1.472C12.544,0.277 15.291,0 17.847,0.332C15.305,0.833 12.881,1.537 10.837,2.843C8.79,4.127 7.122,5.906 5.67,7.907C4.923,8.904 4.22,9.938 3.65,10.984C3.048,12.039 2.571,13.178 2.122,14.34C1.256,16.678 0.582,19.124 0,21.644" style="fill:rgb(79,69,86);fill-rule:nonzero;"/>
            </g>
            <g transform="matrix(1,0,0,1,120.496,165.984)">
                <path d="M0,-19.392C1.285,-18.215 2.054,-16.527 2.451,-14.816C2.853,-13.085 2.816,-11.286 2.563,-9.551C2.455,-8.676 2.217,-7.831 2,-6.984C1.75,-6.146 1.432,-5.332 1.119,-4.522C0.747,-3.736 0.376,-2.951 -0.033,-2.189C-0.499,-1.455 -0.933,-0.71 -1.421,0C-1.132,-0.819 -0.789,-1.602 -0.477,-2.397L0.389,-4.798C0.869,-6.42 1.367,-8.036 1.574,-9.697C1.833,-11.346 1.911,-13.026 1.687,-14.677C1.545,-15.495 1.398,-16.322 1.109,-17.11C0.858,-17.914 0.487,-18.681 0,-19.392" style="fill:rgb(79,69,86);fill-rule:nonzero;"/>
            </g>
        </g>
    </g>
</svg>
