<?xml version="1.0" encoding="UTF-8" standalone="no"?>
<!DOCTYPE svg PUBLIC "-//W3C//DTD SVG 1.1//EN" "http://www.w3.org/Graphics/SVG/1.1/DTD/svg11.dtd">
<svg width="100%" height="100%" viewBox="0 0 78 56" version="1.1" xmlns="http://www.w3.org/2000/svg" xmlns:xlink="http://www.w3.org/1999/xlink" xml:space="preserve" xmlns:serif="http://www.serif.com/" style="fill-rule:evenodd;clip-rule:evenodd;stroke-linejoin:round;stroke-miterlimit:2;">
    <g transform="matrix(1,0,0,1,-269,-43)">
        <g id="Carnivore-Head" serif:id="Carnivore Head">
            <g transform="matrix(1,0,0,1,327.069,83.8054)">
                <path d="M0,-25.035C-7.704,-25.766 -12.15,-31.751 -19.493,-34.885C-26.836,-38.019 -35.164,-41.691 -45.462,-37.303C-55.76,-32.915 -57.372,-23.871 -57.192,-16.438C-57.013,-9.006 -50.834,0.575 -42.686,5.501C-34.537,10.425 -27.104,9.172 -17.254,12.306C-7.404,15.44 4.685,16.656 7.908,6.287C11.132,-4.081 7.705,-24.304 0,-25.035" style="fill:rgb(186,155,201);fill-rule:nonzero;"/>
            </g>
            <g transform="matrix(1,0,0,1,316.844,88.1405)">
                <path d="M0,-29.415C0,-29.415 14.238,-34.25 22.566,-27.4C30.894,-20.55 29.404,-10.073 27.536,-5.237C25.602,-0.23 19.787,4.835 9.134,0.002C-5.373,-6.581 -10.074,-18.266 -25.118,-18.266C-40.162,-18.266 -41.371,-6.983 -35.058,-0.805" style="fill:rgb(186,155,201);fill-rule:nonzero;"/>
            </g>
            <g opacity="0.5">
                <g transform="matrix(1,0,0,1,270.425,43.5403)">
                    <path d="M0,16.672C0,16.672 0.91,9.006 8.017,4.618C12.714,1.717 19.005,0 26.124,1.514C26.124,1.514 7.762,0.222 0,16.672" style="fill:white;fill-rule:nonzero;"/>
                </g>
            </g>
            <g transform="matrix(1,0,0,1,306.435,83.3731)">
                <path d="M0,-8.361L0.47,0L5.577,-4.18L0,-8.361Z" style="fill:white;fill-rule:nonzero;"/>
            </g>
            <g transform="matrix(1,0,0,1,312.378,86.9332)">
                <path d="M0,-7.321L0.172,0L5.239,-3.358L0,-7.321Z" style="fill:white;fill-rule:nonzero;"/>
            </g>
            <g transform="matrix(1,0,0,1,318.021,91.1306)">
                <path d="M0,-7.119L0.905,0L6.177,-3.56L0,-7.119Z" style="fill:white;fill-rule:nonzero;"/>
            </g>
            <g transform="matrix(1,0,0,1,324.531,93.817)">
                <path d="M0,-5.843L1.243,0L5.742,-3.895L0,-5.843Z" style="fill:white;fill-rule:nonzero;"/>
            </g>
            <g transform="matrix(1,0,0,1,290.786,48.2837)">
                <path d="M0,2.517C0,2.517 4.57,-3.356 11.96,-3.712C18.536,-4.03 17.865,2.114 21.223,6.547" style="fill:rgb(186,155,201);fill-rule:nonzero;"/>
            </g>
            <g opacity="0.5">
                <g transform="matrix(-0.109604,0.993975,0.993975,0.109604,300.195,38.4673)">
                    <path d="M12.08,-7.116C12.08,-7.116 5.773,-2.289 5.678,4.856C5.678,4.856 5.538,8.292 12.08,11.45C12.08,11.45 7.943,8.302 8.208,3.753C8.497,-1.228 12.08,-7.116 12.08,-7.116" style="fill:white;fill-rule:nonzero;"/>
                </g>
            </g>
            <g opacity="0.5">
                <g transform="matrix(-0.366526,0.930408,0.930408,0.366526,340.207,51.3481)">
                    <path d="M14.671,-18.066C14.671,-18.066 8.879,-10.316 8.378,-2.945C7.874,4.427 12.387,9.015 14.671,10.923C14.671,10.923 9.403,3.421 10.076,-3.581C10.749,-10.583 14.671,-18.066 14.671,-18.066" style="fill:white;fill-rule:nonzero;"/>
                </g>
            </g>
            <g opacity="0.3">
                <g transform="matrix(0.648912,0.760863,0.760863,-0.648912,332.699,67.4694)">
                    <path d="M1.686,-0.778C-0.015,-0.778 -1.395,0.214 -1.395,1.438C-1.396,2.661 -0.016,3.653 1.686,3.653C3.387,3.653 4.766,2.662 4.766,1.438C4.766,0.215 3.387,-0.777 1.686,-0.778" style="fill-rule:nonzero;"/>
                </g>
            </g>
            <g transform="matrix(0.649015,0.760776,0.760776,-0.649015,332.99,66.9925)">
                <path d="M1.43,-0.659C-0.089,-0.66 -1.32,0.182 -1.32,1.22C-1.321,2.258 -0.089,3.1 1.43,3.099C2.949,3.099 4.18,2.258 4.181,1.22C4.18,0.182 2.949,-0.659 1.43,-0.659" style="fill:rgb(79,69,86);fill-rule:nonzero;"/>
            </g>
            <g opacity="0.3">
                <g transform="matrix(1,0,0,1,300.384,90.9332)">
                    <path d="M0,-20.217C0,-20.217 7.513,-20.217 19.196,-10.983C23.211,-7.809 30.293,-5.087 35.801,-6.084C41.31,-7.082 44.637,-10.299 45.384,-14.385C45.384,-14.385 44.409,0 33.533,-0.841C22.656,-1.682 11.627,-11.74 11.627,-11.74L0,-20.217Z" style="fill-rule:nonzero;"/>
                </g>
            </g>
            <g transform="matrix(1,0,0,1,290.786,47.6087)">
                <path d="M0,3.192C1.239,1.088 3.081,-0.675 5.235,-1.954C7.393,-3.244 9.895,-4.026 12.508,-4.03C13.814,-4.02 15.292,-3.714 16.446,-2.816C17.585,-1.913 18.278,-0.705 18.734,0.452C19.664,2.782 20.106,5.045 21.223,7.222C19.42,5.54 18.428,3.13 17.329,1.13C16.753,0.14 16.147,-0.764 15.333,-1.284C14.55,-1.835 13.557,-2.049 12.484,-2.032C11.962,-2.077 11.387,-1.981 10.834,-1.951C10.283,-1.859 9.725,-1.787 9.18,-1.647C8.069,-1.437 7.013,-1.006 5.951,-0.575C3.847,0.351 1.86,1.638 0,3.192" style="fill:rgb(79,69,86);fill-rule:nonzero;"/>
            </g>
            <g opacity="0.3">
                <g transform="matrix(1,0,0,1,299.434,76.9334)">
                    <path d="M0,13.962C6.207,15.096 11.972,17.098 18.183,18.15C24.393,19.204 27.657,17.984 28.599,16.883C29.541,15.782 27.379,14.825 23.642,13.159C19.905,11.494 8.757,2.355 6.097,0.083C3.437,-2.19 -4.815,-6.906 -4.815,-6.906L1.591,-5.281C6.673,-3.107 16.695,5.516 22.388,9.051C28.081,12.587 35.543,13.159 35.543,13.159C32.32,23.528 20.231,22.312 10.381,19.178C0.531,16.044 -6.902,17.297 -15.051,12.373C-23.199,7.447 -29.378,-2.134 -29.557,-9.566C-29.557,-9.566 -25.605,9.283 0,13.962" style="fill-rule:nonzero;"/>
                </g>
            </g>
            <g transform="matrix(1,0,0,1,316.844,89.2535)">
                <path d="M0,-30.528C2.687,-31.473 5.499,-32.086 8.354,-32.363C11.205,-32.623 14.127,-32.554 16.967,-31.854C18.388,-31.513 19.752,-30.944 21.057,-30.247C21.696,-29.879 22.29,-29.428 22.909,-29.018C23.466,-28.539 24.024,-28.058 24.561,-27.554C26.655,-25.469 28.184,-22.816 29.039,-19.975C29.84,-17.115 30.028,-14.106 29.636,-11.183C29.444,-9.721 29.139,-8.274 28.68,-6.858C28.23,-5.443 27.538,-4.02 26.607,-2.803C25.683,-1.573 24.504,-0.518 23.157,0.264C21.802,1.036 20.288,1.498 18.766,1.695C15.69,2.095 12.674,1.377 9.943,0.298C4.49,-1.901 -0.236,-5.395 -4.646,-8.999C-6.851,-10.804 -9.019,-12.615 -11.33,-14.167C-13.637,-15.717 -16.103,-16.989 -18.747,-17.749C-21.381,-18.512 -24.181,-18.805 -26.95,-18.635C-29.7,-18.49 -32.486,-17.9 -34.751,-16.386C-35.059,-16.229 -35.296,-15.989 -35.551,-15.768C-35.796,-15.538 -36.081,-15.34 -36.298,-15.083C-36.71,-14.551 -37.178,-14.049 -37.449,-13.422C-37.82,-12.843 -37.956,-12.167 -38.181,-11.521C-38.258,-10.842 -38.421,-10.164 -38.354,-9.47C-38.383,-8.774 -38.216,-8.095 -38.102,-7.407C-38.021,-7.069 -37.893,-6.742 -37.791,-6.407L-37.627,-5.907L-37.402,-5.432C-36.878,-4.116 -35.981,-2.995 -35.058,-1.918C-37.104,-3.856 -38.718,-6.494 -38.883,-9.445C-38.99,-10.176 -38.862,-10.908 -38.811,-11.645C-38.612,-12.353 -38.494,-13.099 -38.126,-13.755C-37.859,-14.46 -37.385,-15.041 -36.952,-15.653C-36.725,-15.949 -36.431,-16.184 -36.171,-16.453C-35.902,-16.712 -35.646,-16.991 -35.325,-17.181C-32.899,-18.954 -29.929,-19.675 -27.043,-19.943C-24.141,-20.231 -21.183,-19.986 -18.334,-19.254C-15.481,-18.527 -12.795,-17.22 -10.365,-15.63C-7.922,-14.046 -5.685,-12.235 -3.458,-10.474C0.952,-6.939 5.526,-3.603 10.681,-1.559C13.207,-0.541 15.917,0.09 18.523,-0.242C19.816,-0.403 21.074,-0.779 22.201,-1.412C23.321,-2.055 24.304,-2.929 25.111,-3.955C26.738,-5.992 27.48,-8.718 27.904,-11.419C28.303,-14.132 28.198,-16.914 27.541,-19.559C26.145,-24.783 22.1,-29.457 16.706,-30.915C14.049,-31.721 11.208,-31.947 8.39,-31.837C6.98,-31.764 5.568,-31.633 4.169,-31.401C2.768,-31.189 1.371,-30.911 0,-30.528" style="fill:rgb(79,69,86);fill-rule:nonzero;"/>
            </g>
            <g opacity="0.3">
                <g transform="matrix(-0.99903,0.0440234,0.0440234,0.99903,300.63,65.0389)">
                    <path d="M-0.917,-14.549C3.479,-14.743 6.467,-11.517 6.636,-7.686C6.805,-3.855 3.938,-0.18 -0.917,0.034C-5.772,0.248 -7.081,-3.436 -7.193,-5.973C-7.305,-8.511 -6.046,-14.323 -0.917,-14.549" style="fill-rule:nonzero;"/>
                </g>
            </g>
            <g transform="matrix(-0.998943,0.0459704,0.0459704,0.998943,300.646,63.3926)">
                <path d="M-0.863,-13.105C3.277,-13.296 6.09,-10.4 6.249,-6.949C6.408,-3.499 3.708,-0.177 -0.863,0.034C-5.436,0.244 -6.668,-3.07 -6.773,-5.356C-6.879,-7.642 -5.693,-12.883 -0.863,-13.105" style="fill:white;fill-rule:nonzero;"/>
            </g>
            <g transform="matrix(0,-1,-1,0,303.345,57.6788)">
                <path d="M-0.971,-0.971C-1.717,-0.971 -2.322,-0.536 -2.322,-0C-2.322,0.537 -1.717,0.971 -0.971,0.971C-0.225,0.971 0.38,0.537 0.38,-0C0.38,-0.536 -0.225,-0.971 -0.971,-0.971" style="fill-rule:nonzero;"/>
            </g>
            <g transform="matrix(1,0,0,1,269.877,94.2601)">
                <path d="M0,-26.893C0.829,-23.214 2.291,-19.768 4.187,-16.64C6.111,-13.527 8.514,-10.741 11.367,-8.491C14.197,-6.215 17.43,-4.445 20.859,-3.109C24.29,-1.763 27.906,-0.829 31.608,-0.075C27.83,0 24.016,-0.516 20.347,-1.635C18.496,-2.15 16.728,-2.937 14.992,-3.781C13.271,-4.664 11.652,-5.745 10.117,-6.931C7.092,-9.366 4.571,-12.436 2.83,-15.882C1.094,-19.314 0.006,-23.099 0,-26.893" style="fill:rgb(79,69,86);fill-rule:nonzero;"/>
            </g>
        </g>
    </g>
</svg>
