<?xml version="1.0" encoding="UTF-8" standalone="no"?>
<!DOCTYPE svg PUBLIC "-//W3C//DTD SVG 1.1//EN" "http://www.w3.org/Graphics/SVG/1.1/DTD/svg11.dtd">
<svg width="100%" height="100%" viewBox="0 0 34 33" version="1.1" xmlns="http://www.w3.org/2000/svg" xmlns:xlink="http://www.w3.org/1999/xlink" xml:space="preserve" xmlns:serif="http://www.serif.com/" style="fill-rule:evenodd;clip-rule:evenodd;stroke-linejoin:round;stroke-miterlimit:2;">
    <g transform="matrix(1,0,0,1,-136,-144)">
        <g id="Foreground---Front-Lower-Leg" serif:id="Foreground - Front Lower Leg">
            <g transform="matrix(0.759916,0.650021,0.650021,-0.759916,135.534,172.297)">
                <path d="M11.518,4.896C8.864,2.626 -15.891,8.914 -10.235,25.017C-5.84,37.528 4.15,35.571 11.518,28.746C17.696,23.025 23.426,15.082 23.426,15.082L11.518,4.896Z" style="fill:rgb(186,155,201);fill-rule:nonzero;"/>
            </g>
            <g opacity="0.4">
                <g transform="matrix(0.759916,0.650021,0.650021,-0.759916,135.534,172.297)">
                    <path d="M11.518,4.896C8.864,2.626 -15.891,8.914 -10.235,25.017C-5.84,37.528 4.15,35.571 11.518,28.746C17.696,23.025 23.426,15.082 23.426,15.082L11.518,4.896Z" style="fill-rule:nonzero;"/>
                </g>
            </g>
            <g transform="matrix(1,0,0,1,140.752,171.337)">
                <path d="M0,-22.149C-1.1,-20.441 -1.689,-18.592 -2,-16.74C-2.298,-14.878 -2.204,-12.991 -1.915,-11.129C-1.664,-9.254 -1.065,-7.423 -0.49,-5.565C-0.117,-4.667 0.197,-3.733 0.553,-2.807C0.937,-1.894 1.33,-0.977 1.654,0C0.957,-0.736 0.328,-1.534 -0.309,-2.336C-0.88,-3.175 -1.406,-4.053 -1.921,-4.942C-2.807,-6.788 -3.616,-8.729 -3.891,-10.824C-4.217,-12.891 -4.154,-15.072 -3.513,-17.099C-2.877,-19.104 -1.718,-21.008 0,-22.149" style="fill:rgb(79,69,86);fill-rule:nonzero;"/>
            </g>
            <g transform="matrix(1,0,0,1,153.941,157.94)">
                <path d="M0,-13.51C1.468,-13.446 2.895,-12.795 4.083,-11.892C5.287,-10.986 6.23,-9.778 6.973,-8.489C7.732,-7.198 8.196,-5.777 8.568,-4.356C8.709,-3.634 8.836,-2.91 8.934,-2.187C8.966,-1.452 9.032,-0.727 9.032,0C8.807,-0.699 8.646,-1.401 8.453,-2.093L7.818,-4.141C7.309,-5.465 6.831,-6.798 6.104,-7.994C5.425,-9.211 4.595,-10.343 3.582,-11.298C2.557,-12.228 1.387,-13.062 0,-13.51" style="fill:rgb(79,69,86);fill-rule:nonzero;"/>
            </g>
            <g transform="matrix(0.6204,0.784286,0.784286,-0.6204,156.992,169.879)">
                <path d="M5.183,-3.417C5.183,-3.417 1.684,3.912 2.964,5.53L5.183,8.335C5.865,9.198 12.778,6.185 12.778,6.185L5.183,-3.417Z" style="fill:rgb(204,204,204);fill-rule:nonzero;"/>
            </g>
            <g transform="matrix(0.620441,0.784253,0.784253,-0.620441,152.719,169.879)">
                <path d="M5.182,-3.417C5.182,-3.417 1.683,3.911 2.964,5.53L5.182,8.334C5.866,9.198 12.779,6.184 12.779,6.184L5.182,-3.417Z" style="fill:white;fill-rule:nonzero;"/>
            </g>
        </g>
    </g>
</svg>
