<?xml version="1.0" encoding="UTF-8" standalone="no"?>
<!DOCTYPE svg PUBLIC "-//W3C//DTD SVG 1.1//EN" "http://www.w3.org/Graphics/SVG/1.1/DTD/svg11.dtd">
<svg width="100%" height="100%" viewBox="0 0 34 40" version="1.1" xmlns="http://www.w3.org/2000/svg" xmlns:xlink="http://www.w3.org/1999/xlink" xml:space="preserve" xmlns:serif="http://www.serif.com/" style="fill-rule:evenodd;clip-rule:evenodd;stroke-linejoin:round;stroke-miterlimit:2;">
    <g transform="matrix(1,0,0,1,-128,-125)">
        <g id="Foreground---Front-Upper-Leg" serif:id="Foreground - Front Upper Leg">
            <g transform="matrix(0.353392,0.935475,0.935475,-0.353392,121.224,146.673)">
                <path d="M18.841,11.803C15.983,10.908 -9.929,0.84 -13.002,20.809C-15.999,40.284 10.644,38.618 18.841,34.594C27.038,30.569 26.669,25.831 26.167,22.673C25.713,19.819 22.803,13.043 18.841,11.803" style="fill:rgb(186,155,201);fill-rule:nonzero;"/>
            </g>
            <g opacity="0.3">
                <g transform="matrix(1,0,0,1,128.511,164.018)">
                    <path d="M0,-24.489C0,-24.489 13.066,-15.616 28.666,-26.987C28.666,-26.987 38.689,-4.797 23.17,-0.879C9.798,2.498 0.613,-17.007 0,-24.489" style="fill-rule:nonzero;"/>
                </g>
            </g>
            <g transform="matrix(1,0,0,1,155.427,164.445)">
                <path d="M0,-31.055C1.641,-28.406 2.938,-25.539 3.941,-22.561C4.452,-21.073 4.831,-19.54 5.128,-17.986C5.425,-16.43 5.609,-14.847 5.598,-13.225C5.549,-11.589 5.367,-10.021 4.964,-8.426C4.555,-6.851 3.907,-5.274 2.849,-3.908C1.812,-2.531 0.271,-1.501 -1.323,-0.951C-2.125,-0.665 -2.916,-0.47 -3.715,-0.31C-4.549,-0.152 -5.368,-0.067 -6.188,-0.045C-9.438,0 -12.805,-0.627 -15.635,-2.494C-15.978,-2.738 -16.33,-2.969 -16.643,-3.254L-17.125,-3.666C-17.294,-3.827 -17.443,-3.984 -17.582,-4.138C-18.136,-4.754 -18.621,-5.375 -19.102,-6.009C-20.058,-7.272 -20.917,-8.595 -21.745,-9.933C-23.387,-12.617 -24.825,-15.439 -25.857,-18.424C-26.357,-19.92 -26.764,-21.454 -26.957,-23.023C-27.171,-24.583 -27.126,-26.199 -26.679,-27.695C-27.139,-24.592 -26.198,-21.55 -24.981,-18.763C-23.764,-15.949 -22.179,-13.302 -20.471,-10.756C-19.609,-9.486 -18.688,-8.258 -17.743,-7.062C-17.268,-6.472 -16.777,-5.881 -16.275,-5.357C-16.15,-5.225 -16.027,-5.105 -15.911,-5.001L-15.495,-4.671C-15.227,-4.439 -14.918,-4.255 -14.622,-4.058C-12.19,-2.553 -9.174,-1.956 -6.246,-2.042C-5.512,-2.053 -4.78,-2.124 -4.086,-2.247C-3.361,-2.383 -2.638,-2.556 -1.974,-2.786C-0.634,-3.24 0.52,-4.008 1.406,-5.075C2.293,-6.142 2.912,-7.473 3.328,-8.884C3.75,-10.283 4.038,-11.809 4.14,-13.274C4.273,-16.26 3.816,-19.338 3.093,-22.318C2.383,-25.316 1.285,-28.22 0,-31.055" style="fill:rgb(79,69,86);fill-rule:nonzero;"/>
            </g>
            <g opacity="0.5">
                <g transform="matrix(-0.111439,-0.993771,-0.993771,0.111439,143.241,115.858)">
                    <path d="M-16.368,-8.932C-10.525,-5.549 -6.878,0.008 -10.431,8.359C-11.95,11.929 -14.01,14.218 -16.368,15.575C-16.368,15.575 -9.789,9.615 -10.666,1.793C-11.543,-6.028 -16.368,-8.932 -16.368,-8.932" style="fill:white;fill-rule:nonzero;"/>
                </g>
            </g>
        </g>
    </g>
</svg>
