<?xml version="1.0" encoding="UTF-8" standalone="no"?>
<!DOCTYPE svg PUBLIC "-//W3C//DTD SVG 1.1//EN" "http://www.w3.org/Graphics/SVG/1.1/DTD/svg11.dtd">
<svg width="100%" height="100%" viewBox="0 0 76 51" version="1.1" xmlns="http://www.w3.org/2000/svg" xmlns:xlink="http://www.w3.org/1999/xlink" xml:space="preserve" xmlns:serif="http://www.serif.com/" style="fill-rule:evenodd;clip-rule:evenodd;stroke-linejoin:round;stroke-miterlimit:2;">
    <g transform="matrix(1,0,0,1,-169,-86)">
        <g id="Omnivore-Head" serif:id="Omnivore Head">
            <g transform="matrix(1,0,0,1,233.481,98.0771)">
                <path d="M0,29.184C0,29.184 2.029,33.981 -1.987,36.77C-8.166,41.06 -16.096,36.881 -21.675,35.989C-27.253,35.097 -34.343,36.435 -46.951,31.749C-59.558,27.063 -62.794,17.454 -62.348,6.645C-61.961,-2.718 -53.868,-11.876 -41.93,-11.876C-29.992,-11.876 -25.306,-5.962 -20.062,-1.834C-14.818,2.294 -6.115,7.204 -6.115,7.204C-6.115,7.204 2.88,10.217 0,29.184" style="fill:rgb(186,155,201);fill-rule:nonzero;"/>
            </g>
            <g opacity="0.5">
                <g transform="matrix(-0.0402274,-0.999191,-0.999191,0.0402274,196.497,71.5814)">
                    <path d="M-25.322,-15.916C-20.987,-10.843 -14.889,-6.398 -14.409,5.53C-14.049,14.476 -18.922,21.468 -25.322,24.727C-25.322,24.727 -15.371,18.426 -15.863,6.2C-16.355,-6.028 -25.322,-15.916 -25.322,-15.916" style="fill:white;fill-rule:nonzero;"/>
                </g>
            </g>
            <g transform="matrix(1,0,0,1,216.878,124.867)">
                <path d="M0,-18.582C0,-18.582 8.283,-22.649 16.624,-21.148C22.203,-20.144 25.215,-16.797 26.108,-12.557C27,-8.317 26.554,-0.842 19.525,1.613C12.496,4.067 4.686,2.424 -2.008,-0.395C-6.822,-2.423 -11.715,-6.086 -15.62,-8.317C-19.525,-10.549 -23.43,-12.334 -28.004,-11.776C-32.813,-11.189 -39.174,-6.532 -35.493,2.394" style="fill:rgb(186,155,201);fill-rule:nonzero;"/>
            </g>
            <g opacity="0.5">
                <g transform="matrix(-0.242631,0.970119,0.970119,0.242631,234.777,96.0132)">
                    <path d="M13.31,-13.557C13.31,-13.557 9.219,-8.783 7.785,0.633C7.785,0.633 7.785,7.651 13.31,11.073C13.31,11.073 9.301,7.544 9.334,0.878C9.354,-3.345 9.863,-6.127 13.31,-13.557" style="fill:white;fill-rule:nonzero;"/>
                </g>
            </g>
            <g opacity="0.3">
                <g transform="matrix(0.648943,0.760837,0.760837,-0.648943,232.371,111.498)">
                    <path d="M1.696,-0.783C-0.016,-0.783 -1.404,0.215 -1.405,1.446C-1.405,2.677 -0.016,3.676 1.696,3.677C3.409,3.676 4.797,2.679 4.797,1.447C4.797,0.216 3.409,-0.783 1.696,-0.783" style="fill-rule:nonzero;"/>
                </g>
            </g>
            <g transform="matrix(0.649136,0.760673,0.760673,-0.649136,232.704,111.117)">
                <path d="M1.439,-0.664C-0.09,-0.664 -1.329,0.184 -1.329,1.228C-1.329,2.272 -0.09,3.12 1.439,3.119C2.969,3.119 4.208,2.272 4.207,1.227C4.208,0.182 2.967,-0.665 1.439,-0.664" style="fill:rgb(79,69,86);fill-rule:nonzero;"/>
            </g>
            <g opacity="0.3">
                <g transform="matrix(-0.999031,0.0440204,0.0440204,0.999031,197.488,107.407)">
                    <path d="M-0.916,-14.55C3.48,-14.744 6.467,-11.517 6.636,-7.687C6.805,-3.856 3.938,-0.18 -0.916,0.034C-5.771,0.248 -7.08,-3.436 -7.192,-5.973C-7.304,-8.512 -6.046,-14.324 -0.916,-14.55" style="fill-rule:nonzero;"/>
                </g>
            </g>
            <g transform="matrix(-0.998943,0.0459704,0.0459704,0.998943,197.504,105.76)">
                <path d="M-0.862,-13.105C3.278,-13.296 6.091,-10.4 6.25,-6.95C6.409,-3.499 3.709,-0.177 -0.862,0.034C-5.435,0.244 -6.668,-3.07 -6.773,-5.356C-6.879,-7.642 -5.693,-12.883 -0.862,-13.105" style="fill:white;fill-rule:nonzero;"/>
            </g>
            <g transform="matrix(0,-1,-1,0,200.202,100.045)">
                <path d="M-0.971,-0.971C-1.717,-0.971 -2.322,-0.536 -2.322,0.001C-2.322,0.537 -1.717,0.971 -0.971,0.971C-0.225,0.971 0.38,0.537 0.38,0.001C0.38,-0.536 -0.225,-0.971 -0.971,-0.971" style="fill-rule:nonzero;"/>
            </g>
            <g opacity="0.3">
                <g transform="matrix(1,0,0,1,194.986,127.761)">
                    <path d="M0,-14.834C0,-14.834 5.618,-15.172 18.149,-7.941C25.5,-3.7 31.212,-3.206 36.819,-3.457C42.425,-3.709 45.44,-6.86 48.033,-12.23C48.033,-12.23 48.037,0.338 34.395,-0.095C20.752,-0.528 13.749,-6.449 10.724,-8.258C7.698,-10.068 0,-14.834 0,-14.834" style="fill-rule:nonzero;"/>
                </g>
            </g>
            <g opacity="0.3">
                <g transform="matrix(1,0,0,1,209.388,113.47)">
                    <path d="M0,16.919C6.209,16.919 12.317,19.898 16.877,19.292C21.402,18.69 20.496,13.738 20.496,13.738L24.094,13.791C24.094,13.791 26.123,18.587 22.106,21.377C15.928,25.667 7.998,21.488 2.419,20.595C-3.16,19.703 -10.249,21.042 -22.857,16.356C-35.464,11.67 -38.7,2.061 -38.254,-8.748C-38.254,-8.748 -38.367,16.919 0,16.919" style="fill-rule:nonzero;"/>
                </g>
            </g>
            <g transform="matrix(1,0,0,1,216.878,125.366)">
                <path d="M0,-19.081C2.191,-20.189 4.526,-21.036 6.934,-21.597C9.337,-22.177 11.826,-22.483 14.332,-22.384C16.818,-22.281 19.388,-21.794 21.643,-20.482C23.905,-19.205 25.688,-17.016 26.499,-14.524C27.312,-12.033 27.481,-9.432 27.062,-6.857C26.645,-4.305 25.44,-1.723 23.35,0.03C22.321,0.907 21.124,1.563 19.875,2.008C18.654,2.409 17.417,2.771 16.149,2.958C13.622,3.402 11.049,3.359 8.535,3.081C6.025,2.75 3.565,2.157 1.192,1.351C-1.166,0.548 -3.52,-0.405 -5.702,-1.65C-10.08,-4.071 -13.974,-7.096 -18.225,-9.35C-20.345,-10.469 -22.573,-11.36 -24.904,-11.663C-26.063,-11.812 -27.259,-11.808 -28.409,-11.654C-29.555,-11.48 -30.675,-11.082 -31.711,-10.535C-33.79,-9.453 -35.473,-7.55 -36.091,-5.236C-36.717,-2.919 -36.329,-0.397 -35.493,1.895C-36.511,-0.318 -37.119,-2.857 -36.584,-5.355C-36.078,-7.848 -34.372,-10.04 -32.177,-11.347C-31.085,-12.018 -29.873,-12.492 -28.602,-12.745C-27.328,-12.972 -26.052,-13.035 -24.771,-12.931C-22.202,-12.733 -19.773,-11.811 -17.527,-10.728C-13.006,-8.545 -9.073,-5.537 -4.803,-3.304C-3.739,-2.742 -2.666,-2.215 -1.571,-1.757C-0.456,-1.304 0.666,-0.869 1.808,-0.501C4.085,0.258 6.425,0.794 8.78,1.099C11.133,1.374 13.52,1.429 15.834,1.036C16.998,0.875 18.126,0.547 19.237,0.195C20.298,-0.184 21.296,-0.703 22.15,-1.404C23.875,-2.794 24.941,-4.904 25.359,-7.163C25.767,-9.415 25.701,-11.861 25.047,-14.052C24.403,-16.257 22.936,-18.154 20.983,-19.396C19.028,-20.663 16.652,-21.218 14.269,-21.448C11.876,-21.684 9.433,-21.532 7.038,-21.099C5.837,-20.893 4.649,-20.608 3.475,-20.269C2.299,-19.936 1.131,-19.559 0,-19.081" style="fill:rgb(79,69,86);fill-rule:nonzero;"/>
            </g>
            <g transform="matrix(1,0,0,1,211.807,90.9133)">
                <path d="M0,43.153C-3.064,42.957 -6.115,43.222 -9.213,43.099C-12.306,43.023 -15.41,42.618 -18.447,41.942C-19.965,41.599 -21.471,41.203 -22.955,40.737C-24.421,40.243 -25.907,39.79 -27.38,39.065C-30.295,37.665 -32.759,35.555 -34.872,33.203C-36.967,30.825 -38.667,28.112 -39.883,25.192C-41.107,22.28 -41.825,19.131 -41.841,15.96C-41.872,14.377 -41.688,12.789 -41.315,11.254C-40.956,9.718 -40.422,8.218 -39.658,6.846C-39.318,6.139 -38.854,5.502 -38.441,4.843C-37.959,4.229 -37.523,3.584 -36.981,3.026C-35.981,1.838 -34.766,0.864 -33.554,-0.069C-35.774,2.036 -37.745,4.431 -38.895,7.214C-40.092,9.96 -40.609,12.963 -40.42,15.919C-40.08,21.855 -37.339,27.502 -33.419,31.909C-31.432,34.095 -29.109,35.994 -26.508,37.294C-25.235,37.937 -23.786,38.408 -22.358,38.909C-20.925,39.382 -19.488,39.849 -18.028,40.23C-15.111,41.005 -12.144,41.579 -9.124,41.943L-4.564,42.445C-3.038,42.608 -1.495,42.776 0,43.153" style="fill:rgb(79,69,86);fill-rule:nonzero;"/>
            </g>
        </g>
    </g>
</svg>
