<?xml version="1.0" encoding="UTF-8" standalone="no"?>
<!DOCTYPE svg PUBLIC "-//W3C//DTD SVG 1.1//EN" "http://www.w3.org/Graphics/SVG/1.1/DTD/svg11.dtd">
<svg width="100%" height="100%" viewBox="0 0 174 85" version="1.1" xmlns="http://www.w3.org/2000/svg" xmlns:xlink="http://www.w3.org/1999/xlink" xml:space="preserve" xmlns:serif="http://www.serif.com/" style="fill-rule:evenodd;clip-rule:evenodd;stroke-linejoin:round;stroke-miterlimit:2;">
    <g transform="matrix(1,0,0,1,-20,-84)">
        <g id="Small-Quaruped-Body" serif:id="Small Quaruped Body">
            <g transform="matrix(1,0,0,1,20.313,83.7834)">
                <path d="M0,84.964C0,84.964 7.316,43.427 45.06,20.715C82.803,-1.995 113.064,0.13 129.525,1.644C145.986,3.159 165.107,11.805 170.427,25.605C175.748,39.406 179.24,69.335 139.168,78.147C99.097,86.959 69.168,77.648 55.867,75.486C42.565,73.325 25.938,68.004 0,84.964" style="fill:rgb(186,155,201);fill-rule:nonzero;"/>
            </g>
            <g opacity="0.3">
                <g transform="matrix(1,0,0,1,145.582,124.475)">
                    <path d="M0,31.182C-33.606,35.891 -57.139,25.805 -84.074,23.927C-105.226,22.452 -125.269,44.273 -125.269,44.273C-99.331,27.313 -82.704,32.634 -69.402,34.795C-56.101,36.957 -26.172,46.268 13.899,37.455C53.971,28.643 50.479,-1.285 45.158,-15.086C45.158,-15.086 52.156,23.875 0,31.182" style="fill-rule:nonzero;"/>
                </g>
            </g>
            <g opacity="0.15">
                <g transform="matrix(1,0,0,1,38.041,81.7881)">
                    <path d="M0,47.889C6.573,38.886 15.443,29.865 27.332,22.711C65.075,0 95.336,2.125 111.797,3.639C123.355,4.703 136.225,9.283 144.708,16.693C144.708,16.693 135.588,24.03 129.381,21.597C123.173,19.166 122.508,13.623 117.299,11.85C112.089,10.076 109.318,19.72 101.688,19.508C95.817,19.346 88.811,10.913 80.941,11.042C73.071,11.172 67.307,13.371 61.321,21.755C55.335,30.139 44.361,25.763 39.151,25.79C33.942,25.817 25.507,28.92 20.529,36.236C14.682,44.83 0,47.889 0,47.889" style="fill-rule:nonzero;"/>
                </g>
            </g>
            <g opacity="0.5">
                <g transform="matrix(0.0512039,0.998688,0.998688,-0.0512039,109.715,35.1138)">
                    <path d="M67.024,-47.837C46.275,-8.981 49.948,21.132 52.303,37.494C53.956,48.982 59.189,61.601 67.024,69.693C67.024,69.693 55.85,59.754 53.614,16.143C52.167,-12.076 67.024,-47.837 67.024,-47.837" style="fill:white;fill-rule:nonzero;"/>
                </g>
            </g>
            <g opacity="0.15">
                <g transform="matrix(1,0,0,1,115.052,110.159)">
                    <path d="M0,-12C-3.1,-11.148 -5.875,-8.564 -6.208,-5.571C-6.54,-2.578 -3.215,1.244 0.443,0.441C4.101,-0.361 5.542,-3.243 9.2,-3.576C12.858,-3.908 12.354,-7.939 9.029,-8.973C5.705,-10.006 4.527,-13.244 0,-12" style="fill-rule:nonzero;"/>
                </g>
            </g>
            <g transform="matrix(1,0,0,1,188.81,168.747)">
                <path d="M0,-24.315C-0.973,-22.739 -2.088,-21.249 -3.314,-19.851C-4.544,-18.453 -5.933,-17.205 -7.368,-16.016C-10.286,-13.697 -13.511,-11.752 -16.919,-10.225C-20.329,-8.698 -23.89,-7.531 -27.503,-6.606C-29.308,-6.116 -31.133,-5.79 -32.952,-5.398C-34.773,-5.028 -36.586,-4.602 -38.428,-4.344L-43.94,-3.467L-49.49,-2.867C-51.339,-2.647 -53.202,-2.603 -55.058,-2.461C-56.914,-2.314 -58.775,-2.277 -60.636,-2.242C-68.079,-2.073 -75.534,-2.427 -82.931,-3.256C-90.323,-4.131 -97.648,-5.502 -104.892,-7.044L-110.318,-8.16L-115.773,-9.145C-119.42,-9.807 -123.028,-10.503 -126.669,-10.915C-130.307,-11.342 -133.977,-11.412 -137.622,-11.113C-138.534,-11.049 -139.447,-10.981 -140.35,-10.825C-141.254,-10.686 -142.165,-10.579 -143.065,-10.413C-144.853,-10.015 -146.659,-9.683 -148.41,-9.123C-155.498,-7.159 -162.189,-3.866 -168.497,0C-162.433,-4.247 -155.792,-7.747 -148.692,-10.062C-146.931,-10.689 -145.098,-11.064 -143.284,-11.517C-142.369,-11.709 -141.442,-11.842 -140.521,-12.007C-139.602,-12.189 -138.67,-12.282 -137.738,-12.371C-134.016,-12.769 -130.244,-12.791 -126.519,-12.445C-122.789,-12.132 -119.105,-11.499 -115.469,-10.847L-109.987,-9.904L-104.527,-8.827C-97.279,-7.344 -90.022,-6.056 -82.702,-5.24C-68.084,-3.461 -53.242,-3.666 -38.669,-5.856C-36.837,-6.066 -35.033,-6.444 -33.219,-6.767C-31.41,-7.11 -29.58,-7.391 -27.799,-7.828C-24.22,-8.647 -20.698,-9.722 -17.306,-11.119C-13.899,-12.484 -10.659,-14.264 -7.69,-16.432C-4.746,-18.629 -2.115,-21.271 0,-24.315" style="fill:rgb(79,69,86);fill-rule:nonzero;"/>
            </g>
        </g>
    </g>
</svg>
