<?xml version="1.0" encoding="UTF-8" standalone="no"?>
<!DOCTYPE svg PUBLIC "-//W3C//DTD SVG 1.1//EN" "http://www.w3.org/Graphics/SVG/1.1/DTD/svg11.dtd">
<svg width="100%" height="100%" viewBox="0 0 100 100" version="1.1" xmlns="http://www.w3.org/2000/svg" xmlns:xlink="http://www.w3.org/1999/xlink" xml:space="preserve" xmlns:serif="http://www.serif.com/" style="fill-rule:evenodd;clip-rule:evenodd;stroke-linejoin:round;stroke-miterlimit:2;">
    <rect id="Artboard1" x="0" y="0" width="100" height="100" style="fill:none;"/>
    <g id="Artboard11" serif:id="Artboard1">
        <g transform="matrix(1.92965,0,0,1.92965,-61.8862,-4.22353)">
            <path d="M57.632,6.467C57.676,6.309 57.819,6.2 57.983,6.2C58.146,6.2 58.289,6.309 58.333,6.467L60.188,13.195C60.318,13.665 60.695,14.025 61.17,14.134C61.645,14.242 62.142,14.081 62.462,13.714L67.053,8.457C67.161,8.334 67.337,8.298 67.485,8.369C67.632,8.44 67.714,8.601 67.684,8.761L66.437,15.628C66.35,16.108 66.533,16.596 66.914,16.9C67.295,17.204 67.813,17.274 68.261,17.082L74.678,14.338C74.828,14.274 75.003,14.318 75.105,14.446C75.206,14.574 75.21,14.754 75.114,14.886L71.011,20.531C70.725,20.926 70.678,21.445 70.889,21.885C71.101,22.324 71.536,22.611 72.023,22.633L78.995,22.945C79.159,22.952 79.297,23.068 79.333,23.227C79.37,23.386 79.295,23.55 79.151,23.628L73.005,26.934C72.576,27.165 72.308,27.613 72.308,28.1C72.308,28.588 72.576,29.036 73.005,29.266L79.151,32.573C79.295,32.65 79.37,32.814 79.333,32.973C79.297,33.133 79.159,33.248 78.995,33.255L72.023,33.567C71.536,33.589 71.101,33.877 70.889,34.316C70.678,34.755 70.725,35.275 71.011,35.669L75.114,41.314C75.21,41.447 75.206,41.627 75.105,41.754C75.003,41.882 74.828,41.926 74.678,41.862L68.261,39.118C67.813,38.926 67.295,38.996 66.914,39.3C66.533,39.604 66.35,40.093 66.437,40.572L67.684,47.439C67.714,47.6 67.632,47.76 67.485,47.831C67.337,47.902 67.161,47.866 67.053,47.743L62.462,42.486C62.142,42.119 61.645,41.958 61.17,42.067C60.695,42.175 60.318,42.536 60.188,43.005L58.333,49.733C58.289,49.891 58.146,50 57.983,50C57.819,50 57.676,49.891 57.632,49.733L55.777,43.005C55.647,42.536 55.27,42.175 54.795,42.067C54.32,41.958 53.823,42.119 53.503,42.486L48.912,47.743C48.804,47.866 48.628,47.902 48.481,47.831C48.333,47.76 48.252,47.6 48.281,47.439L49.528,40.572C49.615,40.093 49.432,39.604 49.051,39.3C48.67,38.996 48.153,38.926 47.704,39.118L41.287,41.862C41.137,41.926 40.962,41.882 40.861,41.754C40.759,41.627 40.755,41.447 40.851,41.314L44.954,35.669C45.24,35.275 45.287,34.755 45.076,34.316C44.864,33.877 44.429,33.589 43.942,33.567L36.97,33.255C36.806,33.248 36.668,33.133 36.632,32.973C36.595,32.814 36.67,32.65 36.814,32.573L42.96,29.266C43.389,29.036 43.657,28.588 43.657,28.1C43.657,27.613 43.389,27.165 42.96,26.934L36.814,23.628C36.67,23.55 36.595,23.386 36.632,23.227C36.668,23.068 36.806,22.952 36.97,22.945L43.942,22.633C44.429,22.611 44.864,22.324 45.076,21.885C45.287,21.445 45.24,20.926 44.954,20.531L40.851,14.886C40.755,14.754 40.759,14.574 40.861,14.446C40.962,14.318 41.137,14.274 41.287,14.338L47.704,17.082C48.153,17.274 48.67,17.204 49.051,16.9C49.432,16.596 49.615,16.108 49.528,15.628L48.281,8.761C48.252,8.601 48.333,8.44 48.481,8.369C48.628,8.298 48.804,8.334 48.912,8.457L53.503,13.714C53.823,14.081 54.32,14.242 54.795,14.134C55.27,14.025 55.647,13.665 55.777,13.195L57.632,6.467Z" style="fill:rgb(45,45,45);"/>
        </g>
    </g>
</svg>
