<?xml version="1.0" encoding="UTF-8" standalone="no"?>
<!DOCTYPE svg PUBLIC "-//W3C//DTD SVG 1.1//EN" "http://www.w3.org/Graphics/SVG/1.1/DTD/svg11.dtd">
<svg width="100%" height="100%" viewBox="0 0 100 100" version="1.1" xmlns="http://www.w3.org/2000/svg" xmlns:xlink="http://www.w3.org/1999/xlink" xml:space="preserve" xmlns:serif="http://www.serif.com/" style="fill-rule:evenodd;clip-rule:evenodd;stroke-linejoin:round;stroke-miterlimit:2;">
    <g transform="matrix(1,0,0,1,-2634.84,-132.783)">
        <g id="coin" transform="matrix(1,0,0,1,252.838,132.783)">
            <rect x="2382" y="0" width="100" height="100" style="fill:none;"/>
            <g transform="matrix(1,0,0,1,-252.023,-138.774)">
                <path d="M2684.28,149.616L2684.53,149.618L2684.78,149.622L2685.03,149.628L2685.28,149.635L2685.53,149.644L2685.78,149.654L2686.03,149.666L2686.28,149.679L2686.53,149.694L2686.78,149.711L2687.03,149.729L2687.28,149.749L2687.52,149.77L2687.77,149.793L2688.02,149.817L2688.26,149.843L2688.51,149.87L2688.76,149.899L2689,149.93L2689.24,149.961L2689.49,149.995L2689.73,150.03L2689.98,150.066L2690.22,150.104L2690.46,150.144L2690.7,150.185L2690.95,150.227L2691.19,150.271L2691.43,150.316L2691.67,150.363L2691.91,150.411L2692.14,150.461L2692.38,150.512L2692.62,150.565L2692.86,150.619L2693.1,150.674L2693.33,150.731L2693.57,150.789L2693.8,150.849L2694.04,150.91L2694.27,150.973L2694.5,151.037L2694.74,151.103L2694.97,151.169L2695.2,151.237L2695.43,151.307L2695.66,151.378L2695.89,151.45L2696.12,151.524L2696.35,151.599L2696.58,151.676L2696.8,151.753L2697.03,151.832L2697.26,151.913L2697.48,151.995L2697.71,152.078L2697.93,152.162L2698.16,152.248L2698.38,152.335L2698.6,152.424L2698.82,152.514L2699.04,152.605L2699.26,152.697L2699.48,152.791L2699.7,152.886L2699.92,152.982L2700.14,153.08L2700.35,153.178L2700.57,153.278L2700.78,153.38L2701,153.483L2701.21,153.586L2701.43,153.691L2701.64,153.797L2701.85,153.905L2702.06,154.014L2702.27,154.124L2702.48,154.235L2702.69,154.348L2702.89,154.462L2703.1,154.576L2703.31,154.693L2703.51,154.81L2703.72,154.928L2703.92,155.048L2704.13,155.169L2704.33,155.292L2704.53,155.414L2704.73,155.538L2704.93,155.664L2705.13,155.791L2705.33,155.92L2705.53,156.049L2705.72,156.178L2705.92,156.31L2706.11,156.443L2706.3,156.575L2706.5,156.71L2706.69,156.847L2706.88,156.984L2707.07,157.121L2707.26,157.26L2707.45,157.402L2707.64,157.543L2707.83,157.685L2708.01,157.83L2708.2,157.974L2708.38,158.119L2708.56,158.266L2708.75,158.415L2708.93,158.563L2709.11,158.714L2709.29,158.865L2709.47,159.016L2709.65,159.17L2709.82,159.324L2710,159.48L2710.18,159.637L2710.35,159.793L2710.52,159.951L2710.7,160.112L2710.87,160.272L2711.03,160.432L2711.2,160.595L2711.37,160.758L2711.54,160.924L2711.71,161.09L2711.87,161.254L2712.04,161.422L2712.2,161.591L2712.37,161.762L2712.52,161.93L2712.68,162.101L2712.84,162.274L2713,162.449L2713.16,162.622L2713.32,162.796L2713.47,162.973L2713.63,163.149L2713.78,163.328L2713.93,163.508L2714.08,163.686L2714.23,163.866L2714.38,164.048L2714.53,164.233L2714.68,164.415L2714.82,164.599L2714.97,164.785L2715.11,164.971L2715.25,165.158L2715.39,165.344L2715.53,165.535L2715.67,165.724L2715.81,165.914L2715.95,166.107L2716.09,166.299L2716.22,166.49L2716.35,166.685L2716.49,166.881L2716.62,167.074L2716.75,167.272L2716.88,167.471L2717.01,167.668L2717.13,167.865L2717.26,168.066L2717.38,168.268L2717.51,168.468L2717.63,168.671L2717.75,168.874L2717.87,169.076L2717.99,169.281L2718.11,169.49L2718.22,169.694L2718.34,169.901L2718.45,170.109L2718.56,170.315L2718.67,170.526L2718.78,170.736L2718.89,170.947L2719,171.16L2719.1,171.37L2719.21,171.582L2719.31,171.798L2719.42,172.014L2719.52,172.228L2719.62,172.443L2719.72,172.659L2719.81,172.875L2719.91,173.097L2720.01,173.314L2720.1,173.532L2720.19,173.756L2720.28,173.975L2720.37,174.194L2720.46,174.417L2720.55,174.64L2720.63,174.864L2720.72,175.089L2720.8,175.314L2720.88,175.537L2720.96,175.763L2721.04,175.993L2721.12,176.22L2721.2,176.447L2721.27,176.676L2721.35,176.904L2721.42,177.134L2721.49,177.363L2721.56,177.596L2721.63,177.83L2721.69,178.061L2721.76,178.29L2721.82,178.525L2721.89,178.76L2721.95,178.993L2722.01,179.23L2722.07,179.466L2722.12,179.704L2722.18,179.938L2722.23,180.174L2722.28,180.412L2722.34,180.654L2722.39,180.893L2722.43,181.13L2722.48,181.367L2722.53,181.608L2722.57,181.851L2722.61,182.093L2722.65,182.334L2722.69,182.576L2722.73,182.822L2722.77,183.064L2722.8,183.304L2722.84,183.551L2722.87,183.797L2722.9,184.041L2722.93,184.286L2722.95,184.53L2722.98,184.778L2723,185.027L2723.03,185.272L2723.05,185.518L2723.07,185.767L2723.09,186.017L2723.1,186.266L2723.12,186.516L2723.13,186.764L2723.14,187.014L2723.15,187.265L2723.16,187.516L2723.17,187.767L2723.17,188.018L2723.18,188.27L2723.18,188.519L2723.18,188.774L2723.18,189.029L2723.18,189.278L2723.17,189.529L2723.17,189.781L2723.16,190.032L2723.15,190.283L2723.14,190.533L2723.13,190.784L2723.12,191.031L2723.1,191.281L2723.09,191.531L2723.07,191.78L2723.05,192.029L2723.03,192.275L2723,192.521L2722.98,192.769L2722.95,193.017L2722.93,193.262L2722.9,193.506L2722.87,193.75L2722.84,193.997L2722.8,194.243L2722.77,194.483L2722.73,194.726L2722.69,194.971L2722.65,195.213L2722.61,195.455L2722.57,195.696L2722.53,195.94L2722.48,196.18L2722.43,196.418L2722.39,196.654L2722.34,196.894L2722.28,197.135L2722.23,197.374L2722.18,197.609L2722.12,197.844L2722.07,198.081L2722.01,198.318L2721.95,198.554L2721.89,198.787L2721.82,199.023L2721.76,199.258L2721.69,199.486L2721.63,199.717L2721.56,199.951L2721.49,200.184L2721.42,200.414L2721.35,200.643L2721.27,200.872L2721.2,201.1L2721.12,201.328L2721.04,201.555L2720.96,201.784L2720.88,202.01L2720.8,202.233L2720.72,202.458L2720.63,202.683L2720.55,202.907L2720.46,203.13L2720.37,203.353L2720.28,203.573L2720.19,203.792L2720.1,204.016L2720.01,204.233L2719.91,204.451L2719.81,204.673L2719.72,204.889L2719.62,205.104L2719.52,205.319L2719.42,205.534L2719.31,205.75L2719.21,205.965L2719.1,206.178L2719,206.387L2718.89,206.601L2718.78,206.811L2718.67,207.021L2718.56,207.233L2718.45,207.439L2718.34,207.646L2718.22,207.854L2718.11,208.058L2717.99,208.266L2717.87,208.471L2717.75,208.673L2717.63,208.877L2717.5,209.08L2717.38,209.28L2717.26,209.481L2717.13,209.682L2717.01,209.88L2716.88,210.077L2716.75,210.275L2716.62,210.473L2716.49,210.666L2716.35,210.862L2716.22,211.058L2716.09,211.248L2715.95,211.44L2715.81,211.633L2715.67,211.823L2715.53,212.013L2715.39,212.204L2715.25,212.389L2715.11,212.576L2714.97,212.763L2714.82,212.948L2714.68,213.133L2714.53,213.315L2714.38,213.5L2714.23,213.682L2714.08,213.861L2713.93,214.04L2713.78,214.219L2713.63,214.398L2713.47,214.574L2713.32,214.751L2713.16,214.925L2713,215.099L2712.84,215.273L2712.68,215.446L2712.52,215.617L2712.37,215.785L2712.2,215.956L2712.04,216.126L2711.87,216.293L2711.71,216.458L2711.54,216.623L2711.37,216.789L2711.2,216.952L2711.03,217.115L2710.87,217.275L2710.7,217.436L2710.52,217.597L2710.35,217.754L2710.18,217.91L2710,218.067L2709.82,218.223L2709.65,218.378L2709.47,218.531L2709.29,218.683L2709.11,218.833L2708.93,218.984L2708.75,219.133L2708.56,219.281L2708.38,219.429L2708.2,219.573L2708.01,219.717L2707.83,219.862L2707.64,220.004L2707.45,220.146L2707.26,220.287L2707.07,220.426L2706.88,220.563L2706.69,220.7L2706.5,220.837L2706.3,220.972L2706.11,221.105L2705.92,221.237L2705.72,221.369L2705.53,221.498L2705.33,221.628L2705.13,221.756L2704.93,221.883L2704.73,222.009L2704.53,222.133L2704.33,222.256L2704.13,222.378L2703.92,222.5L2703.72,222.619L2703.51,222.737L2703.31,222.854L2703.1,222.971L2702.89,223.086L2702.69,223.199L2702.48,223.312L2702.27,223.423L2702.06,223.533L2701.85,223.642L2701.64,223.75L2701.43,223.856L2701.21,223.962L2701,224.065L2700.78,224.168L2700.57,224.27L2700.35,224.369L2700.14,224.468L2699.92,224.565L2699.7,224.662L2699.48,224.757L2699.26,224.851L2699.04,224.943L2698.82,225.034L2698.6,225.124L2698.38,225.212L2698.16,225.299L2697.93,225.385L2697.71,225.469L2697.48,225.553L2697.26,225.635L2697.03,225.715L2696.8,225.794L2696.58,225.872L2696.35,225.948L2696.12,226.023L2695.89,226.097L2695.66,226.17L2695.43,226.241L2695.2,226.31L2694.97,226.378L2694.74,226.445L2694.5,226.511L2694.27,226.575L2694.04,226.637L2693.8,226.698L2693.57,226.758L2693.33,226.816L2693.1,226.873L2692.86,226.929L2692.62,226.983L2692.38,227.035L2692.14,227.087L2691.91,227.136L2691.67,227.184L2691.43,227.231L2691.19,227.277L2690.95,227.32L2690.7,227.363L2690.46,227.404L2690.22,227.443L2689.98,227.481L2689.73,227.518L2689.49,227.553L2689.24,227.586L2689,227.618L2688.76,227.648L2688.51,227.677L2688.26,227.705L2688.02,227.73L2687.77,227.755L2687.52,227.777L2687.28,227.799L2687.03,227.818L2686.78,227.837L2686.53,227.853L2686.28,227.868L2686.03,227.882L2685.78,227.893L2685.53,227.904L2685.28,227.913L2685.03,227.92L2684.78,227.925L2684.53,227.929L2684.28,227.932L2684.02,227.932L2683.77,227.932L2683.52,227.929L2683.27,227.925L2683.01,227.92L2682.76,227.913L2682.51,227.904L2682.26,227.893L2682.01,227.882L2681.76,227.868L2681.51,227.853L2681.26,227.837L2681.02,227.818L2680.77,227.799L2680.52,227.777L2680.27,227.755L2680.03,227.73L2679.78,227.705L2679.53,227.677L2679.29,227.648L2679.04,227.618L2678.8,227.586L2678.56,227.553L2678.31,227.518L2678.07,227.481L2677.83,227.443L2677.58,227.404L2677.34,227.363L2677.1,227.32L2676.86,227.277L2676.62,227.231L2676.38,227.184L2676.14,227.136L2675.9,227.087L2675.66,227.035L2675.42,226.983L2675.19,226.929L2674.95,226.873L2674.71,226.816L2674.48,226.758L2674.24,226.698L2674.01,226.637L2673.78,226.574L2673.54,226.511L2673.31,226.445L2673.08,226.378L2672.85,226.31L2672.61,226.241L2672.38,226.17L2672.15,226.097L2671.92,226.023L2671.7,225.948L2671.47,225.872L2671.24,225.794L2671.01,225.715L2670.79,225.635L2670.56,225.553L2670.34,225.469L2670.11,225.385L2669.89,225.299L2669.67,225.212L2669.45,225.124L2669.22,225.034L2669,224.943L2668.78,224.85L2668.56,224.756L2668.35,224.662L2668.13,224.566L2667.91,224.468L2667.69,224.369L2667.48,224.27L2667.26,224.168L2667.05,224.065L2666.83,223.962L2666.62,223.856L2666.41,223.75L2666.2,223.642L2665.98,223.533L2665.77,223.423L2665.57,223.312L2665.36,223.199L2665.15,223.086L2664.94,222.971L2664.74,222.854L2664.53,222.737L2664.33,222.619L2664.12,222.5L2663.92,222.378L2663.72,222.256L2663.52,222.133L2663.32,222.008L2663.12,221.883L2662.92,221.757L2662.72,221.628L2662.52,221.498L2662.33,221.369L2662.13,221.237L2661.93,221.105L2661.74,220.972L2661.55,220.837L2661.35,220.7L2661.16,220.563L2660.97,220.426L2660.78,220.287L2660.59,220.146L2660.41,220.004L2660.22,219.862L2660.03,219.717L2659.85,219.573L2659.66,219.428L2659.48,219.281L2659.3,219.134L2659.12,218.984L2658.93,218.833L2658.76,218.683L2658.58,218.531L2658.4,218.376L2658.22,218.223L2658.05,218.069L2657.87,217.91L2657.7,217.754L2657.52,217.597L2657.35,217.436L2657.18,217.275L2657.01,217.115L2656.84,216.952L2656.67,216.789L2656.5,216.623L2656.34,216.458L2656.17,216.293L2656.01,216.124L2655.84,215.956L2655.68,215.787L2655.52,215.617L2655.36,215.446L2655.2,215.273L2655.04,215.099L2654.89,214.925L2654.73,214.751L2654.57,214.574L2654.42,214.398L2654.26,214.219L2654.11,214.04L2653.96,213.861L2653.81,213.682L2653.66,213.5L2653.51,213.315L2653.37,213.131L2653.22,212.948L2653.08,212.765L2652.93,212.576L2652.79,212.389L2652.65,212.204L2652.51,212.013L2652.37,211.823L2652.23,211.633L2652.09,211.44L2651.96,211.248L2651.83,211.058L2651.69,210.862L2651.56,210.666L2651.43,210.473L2651.3,210.275L2651.17,210.077L2651.04,209.88L2650.91,209.682L2650.79,209.481L2650.66,209.28L2650.54,209.08L2650.42,208.877L2650.3,208.673L2650.18,208.469L2650.06,208.266L2649.94,208.06L2649.83,207.854L2649.71,207.646L2649.6,207.439L2649.49,207.233L2649.37,207.021L2649.26,206.811L2649.15,206.601L2649.05,206.387L2648.94,206.178L2648.84,205.965L2648.73,205.75L2648.63,205.534L2648.53,205.319L2648.43,205.104L2648.33,204.889L2648.23,204.67L2648.13,204.451L2648.04,204.236L2647.95,204.016L2647.85,203.792L2647.76,203.573L2647.67,203.353L2647.58,203.13L2647.5,202.907L2647.41,202.683L2647.33,202.458L2647.24,202.233L2647.16,202.008L2647.08,201.782L2647,201.558L2646.93,201.33L2646.85,201.1L2646.77,200.872L2646.7,200.643L2646.63,200.414L2646.56,200.184L2646.49,199.951L2646.42,199.717L2646.35,199.486L2646.29,199.255L2646.22,199.023L2646.16,198.79L2646.1,198.551L2646.04,198.318L2645.98,198.084L2645.92,197.844L2645.87,197.609L2645.81,197.374L2645.76,197.133L2645.71,196.894L2645.66,196.657L2645.61,196.418L2645.57,196.177L2645.52,195.94L2645.48,195.699L2645.43,195.455L2645.39,195.213L2645.35,194.968L2645.32,194.726L2645.28,194.486L2645.24,194.243L2645.21,193.997L2645.18,193.75L2645.15,193.506L2645.12,193.262L2645.09,193.017L2645.07,192.769L2645.04,192.521L2645.02,192.275L2645,192.029L2644.98,191.78L2644.96,191.531L2644.94,191.281L2644.93,191.031L2644.91,190.784L2644.9,190.533L2644.89,190.283L2644.88,190.032L2644.88,189.781L2644.87,189.529L2644.87,189.278L2644.87,189.026L2644.86,188.774L2644.87,188.522L2644.87,188.27L2644.87,188.018L2644.88,187.767L2644.88,187.516L2644.89,187.265L2644.9,187.014L2644.91,186.764L2644.93,186.516L2644.94,186.266L2644.96,186.017L2644.98,185.767L2645,185.518L2645.02,185.272L2645.04,185.027L2645.07,184.778L2645.09,184.53L2645.12,184.286L2645.15,184.041L2645.18,183.797L2645.21,183.551L2645.24,183.304L2645.28,183.061L2645.32,182.822L2645.35,182.579L2645.39,182.334L2645.43,182.093L2645.48,181.848L2645.52,181.608L2645.57,181.37L2645.61,181.13L2645.66,180.89L2645.71,180.654L2645.76,180.415L2645.81,180.174L2645.87,179.938L2645.92,179.704L2645.98,179.463L2646.04,179.23L2646.1,178.996L2646.16,178.757L2646.22,178.525L2646.29,178.293L2646.35,178.061L2646.42,177.83L2646.49,177.596L2646.56,177.363L2646.63,177.134L2646.7,176.904L2646.77,176.676L2646.85,176.447L2646.93,176.217L2647,175.99L2647.08,175.766L2647.16,175.54L2647.24,175.314L2647.33,175.089L2647.41,174.864L2647.5,174.64L2647.58,174.417L2647.67,174.194L2647.76,173.975L2647.85,173.756L2647.95,173.532L2648.04,173.311L2648.13,173.097L2648.23,172.877L2648.33,172.659L2648.43,172.443L2648.53,172.228L2648.63,172.014L2648.73,171.798L2648.84,171.582L2648.94,171.37L2649.05,171.16L2649.15,170.947L2649.26,170.736L2649.37,170.526L2649.49,170.315L2649.6,170.109L2649.71,169.901L2649.83,169.694L2649.94,169.487L2650.06,169.281L2650.18,169.079L2650.3,168.874L2650.42,168.671L2650.54,168.468L2650.66,168.268L2650.79,168.066L2650.91,167.865L2651.04,167.668L2651.17,167.471L2651.3,167.272L2651.43,167.074L2651.56,166.881L2651.69,166.685L2651.83,166.49L2651.96,166.299L2652.09,166.107L2652.23,165.914L2652.37,165.724L2652.51,165.535L2652.65,165.344L2652.79,165.158L2652.93,164.971L2653.08,164.783L2653.22,164.599L2653.37,164.416L2653.51,164.233L2653.66,164.048L2653.81,163.866L2653.96,163.686L2654.11,163.508L2654.26,163.328L2654.42,163.149L2654.57,162.973L2654.73,162.796L2654.89,162.622L2655.04,162.449L2655.2,162.274L2655.36,162.101L2655.52,161.93L2655.68,161.76L2655.84,161.591L2656.01,161.423L2656.17,161.254L2656.34,161.09L2656.5,160.924L2656.67,160.758L2656.84,160.595L2657.01,160.432L2657.18,160.272L2657.35,160.112L2657.52,159.951L2657.7,159.793L2657.87,159.637L2658.05,159.479L2658.22,159.324L2658.4,159.171L2658.58,159.016L2658.76,158.865L2658.93,158.714L2659.12,158.563L2659.3,158.414L2659.48,158.266L2659.66,158.12L2659.85,157.974L2660.03,157.83L2660.22,157.685L2660.41,157.543L2660.59,157.402L2660.78,157.26L2660.97,157.121L2661.16,156.984L2661.35,156.847L2661.55,156.71L2661.74,156.575L2661.93,156.443L2662.13,156.31L2662.33,156.178L2662.52,156.049L2662.72,155.92L2662.92,155.791L2663.12,155.664L2663.32,155.539L2663.52,155.414L2663.72,155.292L2663.92,155.169L2664.12,155.048L2664.33,154.928L2664.53,154.81L2664.74,154.693L2664.94,154.576L2665.15,154.462L2665.36,154.348L2665.57,154.235L2665.77,154.124L2665.98,154.014L2666.2,153.905L2666.41,153.797L2666.62,153.691L2666.83,153.586L2667.05,153.483L2667.26,153.38L2667.48,153.278L2667.69,153.178L2667.91,153.08L2668.13,152.982L2668.35,152.885L2668.56,152.791L2668.78,152.697L2669,152.605L2669.22,152.514L2669.45,152.424L2669.67,152.335L2669.89,152.248L2670.11,152.162L2670.34,152.078L2670.56,151.995L2670.79,151.913L2671.01,151.832L2671.24,151.753L2671.47,151.676L2671.7,151.599L2671.92,151.524L2672.15,151.45L2672.38,151.378L2672.61,151.307L2672.85,151.237L2673.08,151.169L2673.31,151.102L2673.54,151.037L2673.78,150.973L2674.01,150.91L2674.24,150.849L2674.48,150.789L2674.71,150.731L2674.95,150.674L2675.19,150.619L2675.42,150.565L2675.66,150.512L2675.9,150.461L2676.14,150.411L2676.38,150.363L2676.62,150.316L2676.86,150.271L2677.1,150.227L2677.34,150.185L2677.58,150.144L2677.83,150.104L2678.07,150.066L2678.31,150.03L2678.56,149.995L2678.8,149.961L2679.04,149.93L2679.29,149.899L2679.53,149.87L2679.78,149.843L2680.03,149.817L2680.27,149.793L2680.52,149.77L2680.77,149.749L2681.02,149.729L2681.26,149.711L2681.51,149.694L2681.76,149.679L2682.01,149.666L2682.26,149.654L2682.51,149.644L2682.76,149.635L2683.01,149.628L2683.27,149.622L2683.52,149.618L2683.77,149.616L2684.02,149.615L2684.28,149.616ZM2683.81,155.616L2683.59,155.618L2683.38,155.621L2683.17,155.626L2682.95,155.632L2682.74,155.639L2682.53,155.648L2682.32,155.658L2682.11,155.67L2681.89,155.682L2681.68,155.696L2681.47,155.712L2681.26,155.728L2681.05,155.746L2680.84,155.766L2680.63,155.786L2680.43,155.808L2680.22,155.831L2680.01,155.856L2679.8,155.882L2679.6,155.909L2679.39,155.937L2679.18,155.966L2678.98,155.997L2678.77,156.029L2678.57,156.063L2678.36,156.097L2678.16,156.133L2677.95,156.17L2677.75,156.209L2677.55,156.248L2677.34,156.289L2677.14,156.331L2676.94,156.374L2676.74,156.419L2676.54,156.465L2676.34,156.512L2676.14,156.56L2675.94,156.609L2675.74,156.66L2675.54,156.711L2675.34,156.764L2675.15,156.818L2674.95,156.874L2674.75,156.93L2674.56,156.988L2674.36,157.047L2674.17,157.107L2673.97,157.168L2673.78,157.23L2673.59,157.294L2673.39,157.358L2673.2,157.424L2673.01,157.491L2672.82,157.559L2672.63,157.628L2672.44,157.699L2672.25,157.77L2672.06,157.843L2671.87,157.916L2671.68,157.991L2671.49,158.067L2671.31,158.144L2671.12,158.222L2670.93,158.302L2670.75,158.382L2670.57,158.463L2670.38,158.546L2670.2,158.63L2670.02,158.714L2669.83,158.8L2669.65,158.887L2669.47,158.975L2669.29,159.064L2669.11,159.154L2668.93,159.245L2668.75,159.337L2668.58,159.43L2668.4,159.524L2668.22,159.619L2668.05,159.716L2667.87,159.813L2667.7,159.911L2667.52,160.011L2667.35,160.111L2667.18,160.213L2667.01,160.315L2666.83,160.418L2666.66,160.523L2666.49,160.628L2666.32,160.734L2666.16,160.842L2665.99,160.95L2665.82,161.06L2665.65,161.17L2665.49,161.281L2665.32,161.393L2665.16,161.507L2665,161.621L2664.83,161.736L2664.67,161.852L2664.51,161.969L2664.35,162.087L2664.19,162.206L2664.03,162.326L2663.87,162.447L2663.71,162.568L2663.56,162.691L2663.4,162.815L2663.24,162.939L2663.09,163.064L2662.94,163.191L2662.78,163.318L2662.63,163.446L2662.48,163.575L2662.33,163.705L2662.18,163.836L2662.03,163.967L2661.88,164.1L2661.73,164.233L2661.59,164.368L2661.44,164.503L2661.29,164.639L2661.15,164.776L2661.01,164.913L2660.86,165.052L2660.72,165.191L2660.58,165.332L2660.44,165.473L2660.3,165.615L2660.16,165.757L2660.02,165.901L2659.89,166.045L2659.75,166.19L2659.62,166.337L2659.48,166.483L2659.35,166.631L2659.22,166.779L2659.08,166.929L2658.95,167.079L2658.82,167.23L2658.7,167.381L2658.57,167.534L2658.44,167.687L2658.31,167.841L2658.19,167.995L2658.06,168.151L2657.94,168.307L2657.82,168.464L2657.7,168.622L2657.58,168.78L2657.45,168.94L2657.34,169.1L2657.22,169.26L2657.1,169.422L2656.99,169.584L2656.87,169.747L2656.76,169.91L2656.64,170.075L2656.53,170.24L2656.42,170.405L2656.31,170.572L2656.2,170.739L2656.09,170.907L2655.98,171.075L2655.88,171.245L2655.77,171.415L2655.67,171.585L2655.56,171.756L2655.46,171.928L2655.36,172.101L2655.26,172.274L2655.16,172.448L2655.06,172.623L2654.97,172.798L2654.87,172.974L2654.77,173.15L2654.68,173.327L2654.59,173.505L2654.49,173.684L2654.4,173.863L2654.31,174.042L2654.22,174.222L2654.14,174.403L2654.05,174.585L2653.96,174.767L2653.88,174.95L2653.8,175.133L2653.71,175.317L2653.63,175.501L2653.55,175.686L2653.47,175.872L2653.39,176.058L2653.32,176.245L2653.24,176.432L2653.16,176.62L2653.09,176.809L2653.02,176.998L2652.95,177.187L2652.88,177.378L2652.81,177.568L2652.74,177.759L2652.67,177.951L2652.61,178.143L2652.54,178.336L2652.48,178.53L2652.42,178.723L2652.36,178.918L2652.3,179.113L2652.24,179.308L2652.18,179.504L2652.12,179.7L2652.07,179.897L2652.01,180.095L2651.96,180.293L2651.91,180.491L2651.86,180.69L2651.81,180.889L2651.76,181.089L2651.71,181.289L2651.67,181.49L2651.62,181.691L2651.58,181.893L2651.54,182.095L2651.5,182.297L2651.46,182.5L2651.42,182.703L2651.38,182.907L2651.35,183.111L2651.31,183.316L2651.28,183.521L2651.25,183.727L2651.22,183.933L2651.19,184.139L2651.16,184.346L2651.13,184.553L2651.11,184.76L2651.08,184.968L2651.06,185.177L2651.03,185.385L2651.01,185.595L2650.99,185.804L2650.98,186.014L2650.96,186.224L2650.95,186.435L2650.93,186.646L2650.92,186.857L2650.91,187.068L2650.9,187.28L2650.89,187.493L2650.88,187.705L2650.88,187.918L2650.87,188.132L2650.87,188.345L2650.86,188.559L2650.86,188.774L2650.86,188.988L2650.87,189.202L2650.87,189.416L2650.88,189.629L2650.88,189.842L2650.89,190.055L2650.9,190.267L2650.91,190.479L2650.92,190.691L2650.93,190.902L2650.95,191.113L2650.96,191.323L2650.98,191.534L2650.99,191.743L2651.01,191.953L2651.03,192.162L2651.06,192.371L2651.08,192.579L2651.11,192.787L2651.13,192.994L2651.16,193.202L2651.19,193.408L2651.22,193.615L2651.25,193.821L2651.28,194.026L2651.31,194.231L2651.35,194.436L2651.38,194.64L2651.42,194.844L2651.46,195.047L2651.5,195.25L2651.54,195.453L2651.58,195.655L2651.62,195.857L2651.67,196.058L2651.71,196.258L2651.76,196.459L2651.81,196.658L2651.86,196.858L2651.91,197.057L2651.96,197.255L2652.01,197.453L2652.07,197.65L2652.12,197.847L2652.18,198.043L2652.24,198.239L2652.3,198.435L2652.36,198.63L2652.42,198.824L2652.48,199.018L2652.54,199.211L2652.61,199.404L2652.67,199.596L2652.74,199.788L2652.81,199.979L2652.88,200.17L2652.95,200.36L2653.02,200.55L2653.09,200.739L2653.16,200.927L2653.24,201.115L2653.32,201.302L2653.39,201.489L2653.47,201.675L2653.55,201.861L2653.63,202.046L2653.71,202.231L2653.8,202.414L2653.88,202.598L2653.96,202.78L2654.05,202.963L2654.14,203.144L2654.22,203.325L2654.31,203.505L2654.4,203.685L2654.49,203.864L2654.59,204.042L2654.68,204.22L2654.77,204.397L2654.87,204.574L2654.97,204.75L2655.06,204.925L2655.16,205.099L2655.26,205.273L2655.36,205.447L2655.46,205.619L2655.56,205.791L2655.67,205.962L2655.77,206.133L2655.88,206.303L2655.98,206.472L2656.09,206.641L2656.2,206.808L2656.31,206.975L2656.42,207.142L2656.53,207.308L2656.64,207.473L2656.76,207.637L2656.87,207.801L2656.99,207.964L2657.1,208.126L2657.22,208.287L2657.34,208.448L2657.45,208.608L2657.58,208.767L2657.7,208.926L2657.82,209.083L2657.94,209.24L2658.06,209.397L2658.19,209.552L2658.31,209.707L2658.44,209.861L2658.57,210.014L2658.7,210.166L2658.82,210.318L2658.95,210.469L2659.08,210.619L2659.22,210.768L2659.35,210.916L2659.48,211.064L2659.62,211.211L2659.75,211.357L2659.89,211.502L2660.02,211.647L2660.16,211.79L2660.3,211.933L2660.44,212.075L2660.58,212.216L2660.72,212.356L2660.86,212.496L2661.01,212.634L2661.15,212.772L2661.29,212.909L2661.44,213.045L2661.59,213.18L2661.73,213.314L2661.88,213.448L2662.03,213.58L2662.18,213.712L2662.33,213.842L2662.48,213.972L2662.63,214.101L2662.78,214.229L2662.94,214.357L2663.09,214.483L2663.24,214.608L2663.4,214.733L2663.56,214.856L2663.71,214.979L2663.87,215.101L2664.03,215.222L2664.19,215.341L2664.35,215.46L2664.51,215.578L2664.67,215.695L2664.83,215.811L2665,215.927L2665.16,216.041L2665.32,216.154L2665.49,216.266L2665.65,216.378L2665.82,216.488L2665.99,216.597L2666.16,216.706L2666.32,216.813L2666.49,216.919L2666.66,217.025L2666.83,217.129L2667.01,217.233L2667.18,217.335L2667.35,217.436L2667.52,217.537L2667.7,217.636L2667.87,217.734L2668.05,217.832L2668.22,217.928L2668.4,218.023L2668.58,218.117L2668.75,218.211L2668.93,218.303L2669.11,218.394L2669.29,218.484L2669.47,218.573L2669.65,218.661L2669.83,218.747L2670.02,218.833L2670.2,218.918L2670.38,219.001L2670.57,219.084L2670.75,219.165L2670.93,219.246L2671.12,219.325L2671.31,219.403L2671.49,219.48L2671.68,219.556L2671.87,219.631L2672.06,219.705L2672.25,219.777L2672.44,219.849L2672.63,219.919L2672.82,219.988L2673.01,220.056L2673.2,220.123L2673.39,220.189L2673.59,220.254L2673.78,220.317L2673.97,220.379L2674.17,220.441L2674.36,220.501L2674.56,220.56L2674.75,220.617L2674.95,220.674L2675.15,220.729L2675.34,220.783L2675.54,220.836L2675.74,220.888L2675.94,220.938L2676.14,220.988L2676.34,221.036L2676.54,221.083L2676.74,221.128L2676.94,221.173L2677.14,221.216L2677.34,221.258L2677.55,221.299L2677.75,221.339L2677.95,221.377L2678.16,221.414L2678.36,221.45L2678.57,221.485L2678.77,221.518L2678.98,221.55L2679.18,221.581L2679.39,221.611L2679.6,221.639L2679.8,221.666L2680.01,221.692L2680.22,221.716L2680.43,221.739L2680.63,221.761L2680.84,221.782L2681.05,221.801L2681.26,221.819L2681.47,221.836L2681.68,221.851L2681.89,221.865L2682.11,221.878L2682.32,221.889L2682.53,221.899L2682.74,221.908L2682.95,221.916L2683.17,221.922L2683.38,221.926L2683.59,221.93L2683.81,221.932L2684.02,221.932L2684.24,221.932L2684.45,221.93L2684.66,221.926L2684.88,221.922L2685.09,221.916L2685.3,221.908L2685.52,221.899L2685.73,221.889L2685.94,221.878L2686.15,221.865L2686.36,221.851L2686.57,221.836L2686.78,221.819L2686.99,221.801L2687.2,221.782L2687.41,221.761L2687.62,221.739L2687.83,221.716L2688.04,221.692L2688.24,221.666L2688.45,221.639L2688.66,221.611L2688.86,221.581L2689.07,221.55L2689.28,221.518L2689.48,221.485L2689.68,221.45L2689.89,221.414L2690.09,221.377L2690.3,221.339L2690.5,221.299L2690.7,221.258L2690.9,221.216L2691.11,221.173L2691.31,221.128L2691.51,221.083L2691.71,221.036L2691.91,220.988L2692.11,220.938L2692.3,220.888L2692.5,220.836L2692.7,220.783L2692.9,220.729L2693.1,220.674L2693.29,220.617L2693.49,220.56L2693.68,220.501L2693.88,220.441L2694.07,220.379L2694.27,220.317L2694.46,220.254L2694.65,220.189L2694.85,220.123L2695.04,220.056L2695.23,219.988L2695.42,219.919L2695.61,219.849L2695.8,219.777L2695.99,219.705L2696.18,219.631L2696.36,219.556L2696.55,219.48L2696.74,219.403L2696.92,219.325L2697.11,219.246L2697.3,219.165L2697.48,219.084L2697.66,219.001L2697.85,218.918L2698.03,218.833L2698.21,218.747L2698.39,218.661L2698.57,218.573L2698.75,218.484L2698.93,218.394L2699.11,218.303L2699.29,218.211L2699.47,218.117L2699.65,218.023L2699.82,217.928L2700,217.832L2700.17,217.734L2700.35,217.636L2700.52,217.537L2700.7,217.436L2700.87,217.335L2701.04,217.233L2701.21,217.129L2701.38,217.025L2701.55,216.919L2701.72,216.813L2701.89,216.706L2702.06,216.597L2702.22,216.488L2702.39,216.378L2702.56,216.266L2702.72,216.154L2702.89,216.041L2703.05,215.927L2703.21,215.811L2703.38,215.695L2703.54,215.578L2703.7,215.46L2703.86,215.341L2704.02,215.222L2704.17,215.101L2704.33,214.979L2704.49,214.856L2704.64,214.733L2704.8,214.608L2704.96,214.483L2705.11,214.357L2705.26,214.229L2705.41,214.101L2705.57,213.972L2705.72,213.842L2705.87,213.712L2706.02,213.58L2706.16,213.448L2706.31,213.314L2706.46,213.18L2706.61,213.045L2706.75,212.909L2706.89,212.772L2707.04,212.634L2707.18,212.496L2707.32,212.356L2707.47,212.216L2707.61,212.075L2707.74,211.933L2707.88,211.79L2708.02,211.647L2708.16,211.502L2708.29,211.357L2708.43,211.211L2708.56,211.064L2708.7,210.916L2708.83,210.768L2708.96,210.619L2709.09,210.469L2709.22,210.318L2709.35,210.166L2709.48,210.014L2709.61,209.861L2709.73,209.707L2709.86,209.552L2709.98,209.397L2710.11,209.24L2710.23,209.083L2710.35,208.926L2710.47,208.767L2710.59,208.608L2710.71,208.448L2710.83,208.287L2710.94,208.126L2711.06,207.964L2711.18,207.801L2711.29,207.637L2711.4,207.473L2711.51,207.308L2711.63,207.142L2711.74,206.975L2711.85,206.808L2711.95,206.641L2712.06,206.472L2712.17,206.303L2712.27,206.133L2712.38,205.962L2712.48,205.791L2712.58,205.619L2712.68,205.447L2712.78,205.273L2712.89,205.099L2712.98,204.925L2713.08,204.75L2713.18,204.574L2713.27,204.397L2713.37,204.22L2713.46,204.042L2713.55,203.864L2713.64,203.685L2713.73,203.505L2713.82,203.325L2713.91,203.144L2714,202.963L2714.08,202.78L2714.17,202.598L2714.25,202.414L2714.33,202.231L2714.41,202.046L2714.49,201.861L2714.57,201.675L2714.65,201.489L2714.73,201.302L2714.8,201.115L2714.88,200.927L2714.95,200.739L2715.03,200.55L2715.1,200.36L2715.17,200.17L2715.24,199.979L2715.3,199.788L2715.37,199.596L2715.44,199.404L2715.5,199.211L2715.57,199.018L2715.63,198.824L2715.69,198.63L2715.75,198.435L2715.81,198.239L2715.87,198.043L2715.92,197.847L2715.98,197.65L2716.03,197.453L2716.09,197.255L2716.14,197.057L2716.19,196.858L2716.24,196.658L2716.28,196.459L2716.33,196.258L2716.38,196.058L2716.42,195.857L2716.47,195.655L2716.51,195.453L2716.55,195.25L2716.59,195.047L2716.63,194.844L2716.66,194.64L2716.7,194.436L2716.73,194.231L2716.77,194.026L2716.8,193.821L2716.83,193.615L2716.86,193.408L2716.89,193.202L2716.91,192.994L2716.94,192.787L2716.97,192.579L2716.99,192.371L2717.01,192.162L2717.03,191.953L2717.05,191.743L2717.07,191.534L2717.08,191.323L2717.1,191.113L2717.11,190.902L2717.13,190.691L2717.14,190.479L2717.15,190.267L2717.16,190.055L2717.16,189.842L2717.17,189.629L2717.18,189.416L2717.18,189.202L2717.18,188.988L2717.18,188.774L2717.18,188.559L2717.18,188.345L2717.18,188.132L2717.17,187.918L2717.16,187.705L2717.16,187.493L2717.15,187.28L2717.14,187.068L2717.13,186.857L2717.11,186.646L2717.1,186.435L2717.08,186.224L2717.07,186.014L2717.05,185.804L2717.03,185.595L2717.01,185.385L2716.99,185.177L2716.97,184.968L2716.94,184.76L2716.91,184.553L2716.89,184.346L2716.86,184.139L2716.83,183.933L2716.8,183.727L2716.77,183.521L2716.73,183.316L2716.7,183.111L2716.66,182.907L2716.63,182.703L2716.59,182.5L2716.55,182.297L2716.51,182.095L2716.47,181.893L2716.42,181.691L2716.38,181.49L2716.33,181.289L2716.28,181.089L2716.24,180.889L2716.19,180.69L2716.14,180.491L2716.09,180.293L2716.03,180.095L2715.98,179.897L2715.92,179.7L2715.87,179.504L2715.81,179.308L2715.75,179.113L2715.69,178.918L2715.63,178.723L2715.57,178.53L2715.5,178.336L2715.44,178.143L2715.37,177.951L2715.3,177.759L2715.24,177.568L2715.17,177.378L2715.1,177.187L2715.03,176.998L2714.95,176.809L2714.88,176.62L2714.8,176.432L2714.73,176.245L2714.65,176.058L2714.57,175.872L2714.49,175.686L2714.41,175.501L2714.33,175.317L2714.25,175.133L2714.17,174.95L2714.08,174.767L2714,174.585L2713.91,174.403L2713.82,174.222L2713.73,174.042L2713.64,173.863L2713.55,173.684L2713.46,173.505L2713.37,173.327L2713.27,173.15L2713.18,172.974L2713.08,172.798L2712.98,172.623L2712.89,172.448L2712.78,172.274L2712.68,172.101L2712.58,171.928L2712.48,171.756L2712.38,171.585L2712.27,171.415L2712.17,171.245L2712.06,171.075L2711.95,170.907L2711.85,170.739L2711.74,170.572L2711.63,170.405L2711.51,170.24L2711.4,170.075L2711.29,169.91L2711.18,169.747L2711.06,169.584L2710.94,169.422L2710.83,169.26L2710.71,169.1L2710.59,168.94L2710.47,168.78L2710.35,168.622L2710.23,168.464L2710.11,168.307L2709.98,168.151L2709.86,167.995L2709.73,167.841L2709.61,167.687L2709.48,167.534L2709.35,167.381L2709.22,167.23L2709.09,167.079L2708.96,166.929L2708.83,166.779L2708.7,166.631L2708.56,166.483L2708.43,166.337L2708.29,166.19L2708.16,166.045L2708.02,165.901L2707.88,165.757L2707.74,165.615L2707.61,165.473L2707.47,165.332L2707.32,165.191L2707.18,165.052L2707.04,164.913L2706.89,164.776L2706.75,164.639L2706.61,164.503L2706.46,164.368L2706.31,164.233L2706.16,164.1L2706.02,163.967L2705.87,163.836L2705.72,163.705L2705.57,163.575L2705.41,163.446L2705.26,163.318L2705.11,163.191L2704.96,163.064L2704.8,162.939L2704.64,162.815L2704.49,162.691L2704.33,162.568L2704.17,162.447L2704.02,162.326L2703.86,162.206L2703.7,162.087L2703.54,161.969L2703.38,161.852L2703.21,161.736L2703.05,161.621L2702.89,161.507L2702.72,161.393L2702.56,161.281L2702.39,161.17L2702.22,161.06L2702.06,160.95L2701.89,160.842L2701.72,160.734L2701.55,160.628L2701.38,160.523L2701.21,160.418L2701.04,160.315L2700.87,160.213L2700.7,160.111L2700.52,160.011L2700.35,159.911L2700.17,159.813L2700,159.716L2699.82,159.619L2699.65,159.524L2699.47,159.43L2699.29,159.337L2699.11,159.245L2698.93,159.154L2698.75,159.064L2698.57,158.975L2698.39,158.887L2698.21,158.8L2698.03,158.714L2697.85,158.63L2697.66,158.546L2697.48,158.463L2697.3,158.382L2697.11,158.302L2696.92,158.222L2696.74,158.144L2696.55,158.067L2696.36,157.991L2696.18,157.916L2695.99,157.843L2695.8,157.77L2695.61,157.699L2695.42,157.628L2695.23,157.559L2695.04,157.491L2694.85,157.424L2694.65,157.358L2694.46,157.294L2694.27,157.23L2694.07,157.168L2693.88,157.107L2693.68,157.047L2693.49,156.988L2693.29,156.93L2693.1,156.874L2692.9,156.818L2692.7,156.764L2692.5,156.711L2692.3,156.66L2692.11,156.609L2691.91,156.56L2691.71,156.512L2691.51,156.465L2691.31,156.419L2691.11,156.374L2690.9,156.331L2690.7,156.289L2690.5,156.248L2690.3,156.209L2690.09,156.17L2689.89,156.133L2689.68,156.097L2689.48,156.063L2689.28,156.029L2689.07,155.997L2688.86,155.966L2688.66,155.937L2688.45,155.909L2688.24,155.882L2688.04,155.856L2687.83,155.831L2687.62,155.808L2687.41,155.786L2687.2,155.766L2686.99,155.746L2686.78,155.728L2686.57,155.712L2686.36,155.696L2686.15,155.682L2685.94,155.67L2685.73,155.658L2685.52,155.648L2685.3,155.639L2685.09,155.632L2684.88,155.626L2684.66,155.621L2684.45,155.618L2684.24,155.616L2684.02,155.615L2683.81,155.616Z" style="fill:rgb(251,233,168);"/>
                <circle cx="2684.02" cy="188.774" r="33.159" style="fill:rgb(245,193,10);"/>
            </g>
        </g>
    </g>
</svg>
