<?xml version="1.0" encoding="UTF-8" standalone="no"?>
<!DOCTYPE svg PUBLIC "-//W3C//DTD SVG 1.1//EN" "http://www.w3.org/Graphics/SVG/1.1/DTD/svg11.dtd">
<svg width="100%" height="100%" viewBox="0 0 250 250" version="1.1" xmlns="http://www.w3.org/2000/svg" xmlns:xlink="http://www.w3.org/1999/xlink" xml:space="preserve" xmlns:serif="http://www.serif.com/" style="fill-rule:evenodd;clip-rule:evenodd;stroke-miterlimit:10;">
    <g id="Top" transform="matrix(0.774652,0,0,0.912806,14.3581,0)">
        <rect x="-18.535" y="0" width="322.726" height="273.881" style="fill:none;"/>
        <clipPath id="_clip1">
            <rect x="-18.535" y="0" width="322.726" height="273.881"/>
        </clipPath>
        <g clip-path="url(#_clip1)">
            <g transform="matrix(1.2909,0,0,1.09552,275.291,136.683)">
                <path d="M-77.284,-2.274C-76.826,-82.658 0,-96.182 0,-96.182C0,-103.315 -6.371,-108.76 -13.417,-107.649L-95.115,-94.767L-190.636,-78.592C-198.185,-77.313 -203.709,-70.774 -203.709,-63.118C-204.716,-56.312 -205.445,-45.786 -202.936,-33.345C-202.245,-29.923 -201.383,-26.723 -200.42,-23.756C-196.226,-10.843 -196.039,3.051 -200.333,15.93C-200.699,17.027 -201.051,18.15 -201.387,19.3C-206.844,37.95 -205.365,54.15 -203.709,63.588C-203.709,64.825 -203.563,69.504 -200.003,73.717C-197.679,76.469 -194.41,78.423 -190.636,79.062L-95.115,95.237C-67.883,99.531 -40.649,103.825 -13.417,108.12C-6.371,109.23 0,103.785 0,96.653C0,96.653 -77.741,78.111 -77.284,-2.274Z" style="fill:rgb(73,46,28);fill-rule:nonzero;"/>
            </g>
            <g transform="matrix(1.2909,0,0,1.09552,16.6797,247.678)">
                <path d="M0,-85.385C-0.366,-84.289 -0.717,-83.166 -1.054,-82.018C-6.51,-63.367 -5.032,-47.167 -3.376,-37.73C-3.376,-36.492 -3.23,-31.814 0.33,-27.601C2.655,-24.849 5.923,-22.895 9.698,-22.255L105.218,-6.08C132.781,-1.735 160.342,2.612 187.905,6.958C194.431,7.987 200.333,2.942 200.333,-3.665L141.341,-21.804C113.059,-27.926 107.533,-80.982 81.011,-71.696C65.852,-66.388 42.095,-56.854 22.559,-67.824C11.251,-74.174 5.292,-85.186 2.062,-93.372C1.666,-91.573 1.121,-88.746 0,-85.385" style="fill:rgb(51,31,15);fill-rule:nonzero;"/>
            </g>
            <g transform="matrix(1.2909,0,0,1.09552,-18.5349,0)">
                <path d="M227.612,214.226L227.612,224.43C227.612,229.98 222.654,234.217 217.172,233.353L148.485,222.523C150.719,210.696 152.735,192.8 149.322,171.806C144.496,142.12 133.998,138.127 136.161,120.322C139.087,96.233 159.631,92.597 173.322,59.161C179.45,44.195 181.149,30.725 181.675,22.124L217.194,16.615C222.67,15.766 227.612,20.001 227.612,25.542L227.612,35.775C194.384,35.775 167.448,92.291 167.448,125C167.448,157.71 194.384,214.226 227.612,214.226Z" style="fill:rgb(135,82,46);fill-rule:nonzero;"/>
            </g>
            <g transform="matrix(1.2909,0,0,1.09552,-18.5349,0)">
                <path d="M227.612,214.226L227.612,225.102C227.612,230.3 222.969,234.268 217.835,233.458L132.497,220.002C128.228,217.219 123.939,214.382 119.63,211.489L119.333,211.291C104.965,201.644 99.725,183.133 106.589,167.246C111.11,156.781 111.775,148.114 111,141.226C108.686,120.67 93.024,111.353 92.806,88.968C92.667,74.665 98.908,62.844 104.419,54.903C107.726,50.151 112.631,44.19 119.63,38.51C124.206,34.797 128.646,32.04 132.497,29.998L217.835,16.542C222.969,15.732 227.612,19.701 227.612,24.898L227.612,35.775C194.384,35.775 167.448,92.291 167.448,125C167.448,157.71 194.384,214.226 227.612,214.226Z" style="fill:rgb(150,96,60);fill-rule:nonzero;"/>
            </g>
            <g transform="matrix(1.2909,0,0,1.09552,275.291,39.1919)">
                <path d="M0,178.451C-33.229,178.451 -60.165,121.935 -60.165,89.225C-60.165,56.516 -33.229,0 0,0" style="fill:none;fill-rule:nonzero;stroke:rgb(109,170,45);stroke-width:7px;"/>
            </g>
            <g transform="matrix(1.2909,0,0,1.09552,127.091,49.8635)">
                <path d="M0,153.581C-2.218,150.245 -4.961,145.051 -5.552,138.42C-6.022,133.127 -4.884,129.578 -3.229,122.807C0.312,108.318 1.702,105.6 1.545,98.42C1.442,93.675 0.623,90.047 0.104,87.809C-1.77,79.71 -5.014,73.567 -7.487,69.645M-15.38,35.84C-14.276,30.048 -11.736,20.968 -5.323,11.71C-1.795,6.618 1.996,2.784 5.226,0" style="fill:none;fill-rule:nonzero;stroke:rgb(183,126,88);stroke-width:8px;stroke-linecap:round;stroke-linejoin:round;"/>
            </g>
        </g>
    </g>
</svg>
