<?xml version="1.0" encoding="UTF-8" standalone="no"?>
<!DOCTYPE svg PUBLIC "-//W3C//DTD SVG 1.1//EN" "http://www.w3.org/Graphics/SVG/1.1/DTD/svg11.dtd">
<svg width="100%" height="100%" viewBox="0 0 101 101" version="1.1" xmlns="http://www.w3.org/2000/svg" xmlns:xlink="http://www.w3.org/1999/xlink" xml:space="preserve" xmlns:serif="http://www.serif.com/" style="fill-rule:evenodd;clip-rule:evenodd;stroke-linecap:round;stroke-linejoin:round;stroke-miterlimit:1.5;">
    <g transform="matrix(1,0,0,1,-2381,-132)">
        <g id="creep_immune" transform="matrix(1,0,0,1,1122.76,-320.029)">
            <rect x="1258.29" y="453" width="100" height="100" style="fill:none;"/>
            <g transform="matrix(0.852096,0,0,0.852096,193.746,74.3958)">
                <path d="M1308,458.165L1316.12,472.685L1330.42,464.172L1330.19,480.808L1346.83,480.582L1338.32,494.877L1352.84,503L1338.32,511.123L1346.83,525.418L1330.19,525.192L1330.42,541.828L1316.12,533.315L1308,547.835L1299.88,533.315L1285.58,541.828L1285.81,525.192L1269.17,525.418L1277.68,511.123L1263.16,503L1277.68,494.877L1269.17,480.582L1285.81,480.808L1285.58,464.172L1299.88,472.685L1308,458.165Z" style="fill:white;stroke:black;stroke-width:4.69px;"/>
            </g>
            <g transform="matrix(0.608996,0,0,0.608996,797.987,191.666)">
                <circle cx="823.903" cy="489.435" r="5.526"/>
            </g>
            <g transform="matrix(0.608996,0,0,0.608996,815.08,191.666)">
                <circle cx="823.903" cy="489.435" r="5.526"/>
            </g>
        </g>
    </g>
</svg>
