<?xml version="1.0" encoding="UTF-8" standalone="no"?>
<!DOCTYPE svg PUBLIC "-//W3C//DTD SVG 1.1//EN" "http://www.w3.org/Graphics/SVG/1.1/DTD/svg11.dtd">
<svg width="100%" height="100%" viewBox="0 0 220 220" version="1.1" xmlns="http://www.w3.org/2000/svg" xmlns:xlink="http://www.w3.org/1999/xlink" xml:space="preserve" xmlns:serif="http://www.serif.com/" style="fill-rule:evenodd;clip-rule:evenodd;stroke-miterlimit:10;">
    <rect id="Page-1" serif:id="Page 1" x="0" y="0" width="220" height="220" style="fill:none;"/>
    <clipPath id="_clip1">
        <rect id="Page-11" serif:id="Page 1" x="0" y="0" width="220" height="220"/>
    </clipPath>
    <g clip-path="url(#_clip1)">
        <g id="Cave">
            <g transform="matrix(1,0,0,1,220,109.765)">
                <path d="M0,110.235L0,-109.765C0,-109.765 -72.941,-107.205 -104.763,-102.32C-161.783,-93.566 -186.294,-83.237 -186.294,-83.237C-194.449,-80.342 -203.709,-70.774 -203.709,-63.118C-204.716,-56.312 -205.445,-45.786 -202.936,-33.345C-202.245,-29.924 -201.384,-26.724 -200.42,-23.757C-196.227,-10.843 -196.039,3.052 -200.333,15.932C-200.699,17.028 -201.051,18.151 -201.387,19.3C-206.844,37.95 -205.365,54.15 -203.709,63.588C-203.709,64.825 -203.563,69.504 -200.003,73.717C-197.679,76.469 -194.41,78.423 -190.636,79.062L-95.115,95.237C-63.41,100.236 -31.705,105.236 0,110.235Z" style="fill:rgb(73,46,28);fill-rule:nonzero;"/>
            </g>
            <g transform="matrix(1,0,0,1,19.6665,212.013)">
                <path d="M0,-86.316C-5.108,-71.021 -6.164,-54.549 -3.376,-38.661C-3.376,-31.106 2.028,-23.485 7.931,-19.778C13.111,-16.524 26.061,-7.776 86.019,1.309C137.086,9.047 168.628,2.988 200.333,7.987L200.333,-94.303C167.513,-92.746 134.962,-88.165 103.233,-79.57C75.347,-72.017 30.757,-47.699 9.281,-80.841C6.512,-85.114 3.931,-89.566 2.062,-94.303C1.666,-92.504 1.121,-89.677 0,-86.316" style="fill:rgb(51,31,15);fill-rule:nonzero;"/>
            </g>
            <g transform="matrix(1,0,0,1,220,0)">
                <path d="M0,220L-61.201,217.575C-87.244,212.583 -103.674,199.382 -107.982,196.489C-108.081,196.424 -108.18,196.357 -108.279,196.291C-122.63,186.652 -127.879,168.115 -121.023,152.245C-116.502,141.781 -115.837,133.113 -116.613,126.226C-118.927,105.67 -134.588,96.353 -134.807,73.968C-134.946,59.665 -128.704,47.844 -123.193,39.903C-119.886,35.151 -114.981,29.19 -107.982,23.51C-103.406,19.797 -90.485,7.199 -65.925,3.382L0,0L0,220Z" style="fill:rgb(150,96,60);fill-rule:nonzero;"/>
            </g>
            <g transform="matrix(1,0,0,1,220,0)">
                <path d="M0,220L-61.258,217.564C-59.025,205.737 -74.877,177.801 -78.29,156.807C-83.116,127.12 -93.614,123.128 -91.451,105.323C-88.525,81.233 -67.981,77.597 -54.29,44.161C-48.162,29.196 -46.464,15.725 -45.938,7.125L0,0L0,220Z" style="fill:rgb(135,82,46);fill-rule:nonzero;"/>
            </g>
            <g transform="matrix(1,0,0,1,220,20.7746)">
                <path d="M0,178.451C-33.229,178.451 -60.165,121.935 -60.165,89.225C-60.165,56.516 -33.229,0 0,0L0,178.451Z" style="fill:rgb(51,31,15);fill-rule:nonzero;"/>
            </g>
            <g transform="matrix(1,0,0,1,220,20.7746)">
                <path d="M0,178.451C-23.11,152.688 -27.624,132.558 -27.193,118.612C-26.925,109.925 -24.751,104.061 -25.166,89.225C-25.753,68.201 -30.64,61.398 -30.678,50.097C-30.717,38.298 -25.474,21.217 0,0L0,178.451Z" style="fill:rgb(73,46,28);fill-rule:nonzero;"/>
            </g>
            <g transform="matrix(1,0,0,1,220,20.7746)">
                <path d="M0,178.451C-33.229,178.451 -60.165,121.935 -60.165,89.225C-60.165,56.516 -33.229,0 0,0" style="fill:none;fill-rule:nonzero;stroke:rgb(109,170,45);stroke-width:7px;"/>
            </g>
            <g transform="matrix(1,0,0,1,105.197,30.5157)">
                <path d="M0,153.581C-2.218,150.245 -4.961,145.051 -5.552,138.42C-6.022,133.127 -4.884,129.578 -3.229,122.807C0.312,108.318 1.702,105.6 1.545,98.42C1.442,93.675 0.623,90.047 0.104,87.809C-1.77,79.71 -5.014,73.567 -7.487,69.645M-15.38,35.84C-14.276,30.048 -11.736,20.968 -5.323,11.71C-1.795,6.618 1.996,2.784 5.226,0" style="fill:none;fill-rule:nonzero;stroke:rgb(183,126,88);stroke-width:8px;stroke-linecap:round;stroke-linejoin:round;"/>
            </g>
        </g>
    </g>
</svg>
