<?xml version="1.0" encoding="UTF-8" standalone="no"?>
<!DOCTYPE svg PUBLIC "-//W3C//DTD SVG 1.1//EN" "http://www.w3.org/Graphics/SVG/1.1/DTD/svg11.dtd">
<svg width="100%" height="100%" viewBox="0 0 250 250" version="1.1" xmlns="http://www.w3.org/2000/svg" xmlns:xlink="http://www.w3.org/1999/xlink" xml:space="preserve" xmlns:serif="http://www.serif.com/" style="fill-rule:evenodd;clip-rule:evenodd;stroke-linejoin:round;stroke-miterlimit:2;">
    <g transform="matrix(1,0,0,1,-309.642,0)">
        <g id="Bottom" transform="matrix(0.774652,0,0,0.912806,324,0)">
            <rect x="-18.535" y="0" width="322.726" height="273.881" style="fill:none;"/>
            <g transform="matrix(1.2909,0,0,1.09552,275.291,136.683)">
                <path d="M0,96.653L0,-96.182C0,-103.315 -6.371,-108.76 -13.417,-107.649L-95.115,-94.767L-190.636,-78.592C-198.185,-77.313 -203.709,-70.774 -203.709,-63.118C-204.716,-56.312 -205.445,-45.786 -202.936,-33.345C-202.245,-29.923 -201.383,-26.723 -200.42,-23.756C-196.226,-10.843 -196.039,3.051 -200.333,15.93C-200.699,17.027 -201.051,18.15 -201.387,19.3C-206.844,37.95 -205.365,54.15 -203.709,63.588C-203.709,64.825 -203.563,69.504 -200.003,73.717C-197.679,76.469 -194.41,78.423 -190.636,79.062L-95.115,95.237C-67.883,99.531 -40.649,103.825 -13.417,108.12C-6.371,109.23 0,103.785 0,96.653Z" style="fill:rgb(73,46,28);fill-rule:nonzero;"/>
            </g>
            <g transform="matrix(1.2909,0,0,1.09552,16.6797,247.678)">
                <path d="M0,-85.385C-0.366,-84.289 -0.717,-83.166 -1.054,-82.018C-6.51,-63.367 -5.032,-47.167 -3.376,-37.73C-3.376,-36.492 -3.23,-31.814 0.33,-27.601C2.655,-24.849 5.923,-22.895 9.698,-22.255L105.218,-6.08C132.781,-1.735 160.342,2.612 187.905,6.958C194.431,7.987 200.333,2.942 200.333,-3.665L200.333,-93.372C146.213,-90.805 107.533,-80.982 81.011,-71.696C65.852,-66.388 42.095,-56.854 22.559,-67.824C11.251,-74.174 5.292,-85.186 2.062,-93.372C1.666,-91.573 1.121,-88.746 0,-85.385" style="fill:rgb(51,31,15);fill-rule:nonzero;"/>
            </g>
            <g transform="matrix(1.2909,0,0,1.09552,275.291,39.1919)">
                <path d="M0,178.451C-33.229,178.451 -60.165,121.935 -60.165,89.225C-60.165,56.516 -33.229,0 0,0L0,178.451Z" style="fill:rgb(51,31,15);fill-rule:nonzero;"/>
            </g>
            <g transform="matrix(1.2909,0,0,1.09552,275.291,39.1919)">
                <path d="M0,178.451C-23.11,152.688 -27.624,132.558 -27.193,118.612C-26.925,109.925 -24.751,104.061 -25.166,89.225C-25.753,68.201 -30.64,61.398 -30.678,50.097C-30.717,38.298 -25.474,21.217 0,0L0,178.451Z" style="fill:rgb(73,46,28);fill-rule:nonzero;"/>
            </g>
        </g>
    </g>
</svg>
