<?xml version="1.0" encoding="UTF-8" standalone="no"?>
<!DOCTYPE svg PUBLIC "-//W3C//DTD SVG 1.1//EN" "http://www.w3.org/Graphics/SVG/1.1/DTD/svg11.dtd">
<svg width="100%" height="100%" viewBox="0 0 100 100" version="1.1" xmlns="http://www.w3.org/2000/svg" xmlns:xlink="http://www.w3.org/1999/xlink" xml:space="preserve" xmlns:serif="http://www.serif.com/" style="fill-rule:evenodd;clip-rule:evenodd;stroke-linejoin:round;stroke-miterlimit:2;">
    <g transform="matrix(1,0,0,1,-131,0)">
        <g id="tower_slowing" transform="matrix(1,0,0,1,-0.23272,0)">
            <rect x="131.233" y="0" width="100" height="100" style="fill:none;"/>
            <g transform="matrix(1,0,0,1,-1857.77,-250)">
                <g transform="matrix(-1.25971,-0.111357,-0.111357,1.25971,2028.17,302.852)">
                    <path d="M-33.355,-5.292C-33.212,-6.911 -31.856,-8.152 -30.231,-8.152C-23.776,-8.152 -8.203,-8.152 -2.061,-8.152C-1.406,-8.152 -0.781,-7.877 -0.339,-7.393C0.104,-6.91 0.323,-6.263 0.265,-5.61C0.073,-3.433 -0.203,-0.312 -0.395,1.865C-0.453,2.518 -0.782,3.117 -1.303,3.515C-1.823,3.913 -2.487,4.074 -3.132,3.959C-9.178,2.882 -24.51,0.15 -30.865,-0.982C-32.465,-1.267 -33.582,-2.728 -33.439,-4.346C-33.411,-4.66 -33.383,-4.979 -33.355,-5.292Z" style="fill:rgb(231,163,67);fill-rule:nonzero;stroke:black;stroke-width:3.95px;"/>
                </g>
                <g transform="matrix(1.02928,0,0,1.02937,1975.96,256.499)">
                    <path d="M42.577,15.35C43.137,14.617 44.006,14.186 44.929,14.186C45.851,14.186 46.721,14.617 47.28,15.35C48.862,17.424 50.871,20.057 52.072,21.63C52.716,22.474 53.764,22.909 54.817,22.767C56.778,22.503 60.06,22.062 62.646,21.715C63.56,21.592 64.479,21.902 65.131,22.554C65.783,23.206 66.094,24.125 65.971,25.039C65.623,27.625 65.182,30.908 64.918,32.869C64.777,33.922 65.211,34.969 66.055,35.614C67.628,36.814 70.262,38.823 72.336,40.406C73.069,40.965 73.499,41.835 73.499,42.757C73.499,43.679 73.069,44.548 72.336,45.108C70.262,46.69 67.628,48.7 66.055,49.9C65.211,50.544 64.777,51.592 64.918,52.645C65.182,54.605 65.623,57.889 65.971,60.474C66.094,61.388 65.783,62.307 65.131,62.959C64.479,63.611 63.56,63.922 62.646,63.799C60.06,63.451 56.778,63.01 54.817,62.746C53.764,62.605 52.716,63.039 52.072,63.884C50.871,65.456 48.862,68.09 47.28,70.164C46.721,70.897 45.851,71.327 44.929,71.327C44.006,71.327 43.137,70.897 42.577,70.164C40.995,68.09 38.986,65.456 37.786,63.884C37.141,63.039 36.093,62.605 35.04,62.746C33.08,63.01 29.797,63.451 27.212,63.799C26.298,63.922 25.378,63.611 24.726,62.959C24.074,62.307 23.764,61.388 23.886,60.474C24.234,57.889 24.675,54.605 24.939,52.645C25.081,51.592 24.646,50.544 23.802,49.9C22.229,48.7 19.595,46.69 17.521,45.108C16.788,44.548 16.358,43.679 16.358,42.757C16.358,41.835 16.788,40.965 17.521,40.406C19.595,38.823 22.229,36.814 23.802,35.614C24.646,34.969 25.081,33.922 24.939,32.869C24.675,30.908 24.234,27.625 23.886,25.039C23.764,24.125 24.074,23.206 24.726,22.554C25.378,21.902 26.298,21.592 27.212,21.715C29.797,22.062 33.08,22.503 35.04,22.767C36.093,22.909 37.141,22.474 37.786,21.63C38.986,20.057 40.995,17.424 42.577,15.35Z" style="fill:rgb(231,163,67);stroke:black;stroke-width:3.4px;stroke-linecap:round;stroke-miterlimit:1.5;"/>
                </g>
                <g transform="matrix(-1.25971,-0.111357,-0.111357,1.25971,2028.17,302.852)">
                    <path d="M-33.291,-6.022C-33.184,-7.228 -32.174,-8.152 -30.964,-8.152C-25.043,-8.152 -8.45,-8.152 -2.061,-8.152C-1.406,-8.152 -0.781,-7.877 -0.339,-7.393C0.104,-6.91 0.323,-6.263 0.265,-5.61C0.073,-3.433 -0.203,-0.312 -0.395,1.865C-0.453,2.518 -0.782,3.117 -1.303,3.515C-1.823,3.913 -2.487,4.074 -3.132,3.959C-9.421,2.839 -25.757,-0.072 -31.586,-1.111C-32.778,-1.323 -33.61,-2.411 -33.503,-3.616C-33.435,-4.385 -33.359,-5.253 -33.291,-6.022Z" style="fill:rgb(231,163,67);fill-rule:nonzero;"/>
                </g>
                <g transform="matrix(1.85705,0,0,1.85705,1920.92,205.885)">
                    <ellipse cx="79.529" cy="50.955" rx="1.586" ry="2.681" style="fill-opacity:0.67;stroke:black;stroke-width:0.81px;stroke-linecap:round;stroke-miterlimit:1.5;"/>
                </g>
            </g>
            <g transform="matrix(5.67608e-17,1.14114,-1.21814,7.11454e-17,230.658,-133.974)">
                <g id="Layer2">
                    <path d="M156.976,46.285C157.649,44.638 159.337,43.551 161.22,43.551C163.103,43.551 164.79,44.638 165.464,46.285C167.193,50.511 169.073,55.107 170.315,58.142C170.632,58.917 170.521,59.789 170.019,60.472C169.517,61.156 168.688,61.565 167.802,61.565C164.044,61.565 158.396,61.565 154.637,61.565C153.751,61.565 152.922,61.156 152.42,60.472C151.918,59.789 151.808,58.917 152.125,58.142C153.367,55.107 155.247,50.511 156.976,46.285Z" style="fill:white;fill-opacity:0.4;"/>
                </g>
            </g>
        </g>
    </g>
</svg>
