<?xml version="1.0" encoding="UTF-8" standalone="no"?>
<!DOCTYPE svg PUBLIC "-//W3C//DTD SVG 1.1//EN" "http://www.w3.org/Graphics/SVG/1.1/DTD/svg11.dtd">
<svg width="100%" height="100%" viewBox="0 0 100 100" version="1.1" xmlns="http://www.w3.org/2000/svg" xmlns:xlink="http://www.w3.org/1999/xlink" xml:space="preserve" xmlns:serif="http://www.serif.com/" style="fill-rule:evenodd;clip-rule:evenodd;stroke-linejoin:round;stroke-miterlimit:2;">
    <g transform="matrix(1,0,0,1,-559,0)">
        <g id="tower_antiair" transform="matrix(1,0,0,1,-0.952017,0)">
            <rect x="559.952" y="0" width="100" height="100" style="fill:none;"/>
            <g transform="matrix(1,0,0,1,165.952,-250.535)">
                <g transform="matrix(-1.14722,-0.101413,-0.101413,1.14722,433.896,302.832)">
                    <path d="M-33.38,-5.012C-33.223,-6.789 -31.734,-8.152 -29.95,-8.152L-2.312,-8.152C-1.592,-8.152 -0.906,-7.85 -0.42,-7.319C0.066,-6.788 0.307,-6.078 0.243,-5.361C0.06,-3.284 -0.19,-0.461 -0.373,1.616C-0.437,2.333 -0.798,2.99 -1.37,3.427C-1.941,3.865 -2.67,4.042 -3.378,3.916C-9.495,2.826 -24.162,0.212 -30.588,-0.933C-32.345,-1.246 -33.571,-2.849 -33.414,-4.627C-33.403,-4.755 -33.391,-4.884 -33.38,-5.012Z" style="fill:rgb(73,40,31);fill-rule:nonzero;stroke:black;stroke-width:4.34px;"/>
                </g>
                <g transform="matrix(1,0,0,1,-1742.26,-0.85513)">
                    <path d="M2167.54,276.349C2168.29,275.597 2169.31,275.175 2170.37,275.175C2171.43,275.175 2172.45,275.597 2173.2,276.349C2178.55,281.695 2190.06,293.213 2195.41,298.558C2196.97,300.122 2196.97,302.658 2195.41,304.222C2190.06,309.567 2178.55,321.086 2173.2,326.432C2172.45,327.183 2171.43,327.606 2170.37,327.606C2169.31,327.606 2168.29,327.183 2167.54,326.432C2162.19,321.086 2150.68,309.567 2145.33,304.222C2143.77,302.658 2143.77,300.122 2145.33,298.558C2150.68,293.213 2162.19,281.695 2167.54,276.349Z" style="fill:rgb(73,40,31);stroke:black;stroke-width:4px;stroke-linecap:round;stroke-miterlimit:1.5;"/>
                </g>
                <g transform="matrix(-1.14722,-0.101413,-0.101413,1.14722,433.896,302.832)">
                    <path d="M-33.309,-5.813C-33.192,-7.137 -32.083,-8.152 -30.754,-8.152L-2.312,-8.152C-1.592,-8.152 -0.906,-7.85 -0.42,-7.319C0.066,-6.788 0.307,-6.078 0.243,-5.361C0.06,-3.284 -0.19,-0.461 -0.373,1.616C-0.437,2.333 -0.798,2.99 -1.37,3.427C-1.941,3.865 -2.67,4.042 -3.378,3.916C-9.762,2.778 -25.458,-0.019 -31.38,-1.074C-32.688,-1.307 -33.602,-2.501 -33.485,-3.825C-33.428,-4.47 -33.366,-5.169 -33.309,-5.813Z" style="fill:rgb(73,40,31);fill-rule:nonzero;"/>
                </g>
                <g transform="matrix(0.707107,0.707107,-0.707107,0.707107,44.1419,-154.208)">
                    <path d="M602.515,43.618C602.515,41.945 601.159,40.589 599.487,40.589L586.722,40.589C585.05,40.589 583.694,41.945 583.694,43.618L583.694,56.382C583.694,58.055 585.05,59.411 586.722,59.411L599.487,59.411C601.159,59.411 602.515,58.055 602.515,56.382L602.515,43.618Z" style="fill:white;fill-opacity:0.4;"/>
                </g>
                <g transform="matrix(0.940468,0,0,0.940468,-1596.93,18.3717)">
                    <path d="M2153.22,272.15L2153.22,327.899" style="fill:none;stroke:black;stroke-width:4.25px;stroke-linecap:round;stroke-miterlimit:1.5;"/>
                </g>
                <g transform="matrix(1.61179,0,0,1.61179,342.328,218.562)">
                    <ellipse cx="79.529" cy="50.955" rx="1.586" ry="2.681" style="fill-opacity:0.67;stroke:black;stroke-width:0.93px;stroke-linecap:round;stroke-miterlimit:1.5;"/>
                </g>
            </g>
        </g>
    </g>
</svg>
