<?xml version="1.0" encoding="UTF-8" standalone="no"?>
<!DOCTYPE svg PUBLIC "-//W3C//DTD SVG 1.1//EN" "http://www.w3.org/Graphics/SVG/1.1/DTD/svg11.dtd">
<svg width="100%" height="100%" viewBox="0 0 100 100" version="1.1" xmlns="http://www.w3.org/2000/svg" xmlns:xlink="http://www.w3.org/1999/xlink" xml:space="preserve" xmlns:serif="http://www.serif.com/" style="fill-rule:evenodd;clip-rule:evenodd;stroke-linecap:round;stroke-linejoin:round;stroke-miterlimit:1.5;">
    <g id="tower_aoe" transform="matrix(0.299944,0,0,0.303359,58.7401,0)">
        <rect x="-195.837" y="0" width="333.395" height="329.642" style="fill:none;"/>
        <g transform="matrix(3.33395,0,0,3.29642,-7710.4,-826.09)">
            <path d="M2307.07,267.274C2307.38,266.531 2307.97,265.94 2308.71,265.632C2309.45,265.325 2310.29,265.325 2311.03,265.632C2314.72,267.162 2321.18,269.837 2324.88,271.367C2326.43,272.008 2327.16,273.781 2326.52,275.329C2325.41,278.012 2323.9,281.655 2323.9,281.655C2323.9,281.655 2327.54,280.146 2330.23,279.034C2330.97,278.727 2331.81,278.727 2332.55,279.035C2333.29,279.343 2333.88,279.933 2334.19,280.676C2335.72,284.369 2338.39,290.827 2339.92,294.52C2340.56,296.067 2339.83,297.84 2338.28,298.481C2335.6,299.592 2331.95,301.102 2331.95,301.102C2331.95,301.102 2335.6,302.611 2338.28,303.723C2339.83,304.364 2340.56,306.137 2339.92,307.684C2338.39,311.377 2335.72,317.834 2334.19,321.527C2333.88,322.27 2333.29,322.86 2332.55,323.168C2331.81,323.476 2330.97,323.476 2330.23,323.169C2327.54,322.057 2323.9,320.548 2323.9,320.548C2323.9,320.548 2325.41,324.192 2326.52,326.875C2327.16,328.423 2326.43,330.196 2324.88,330.837C2321.18,332.367 2314.72,335.042 2311.03,336.572C2310.29,336.879 2309.45,336.879 2308.71,336.571C2307.97,336.264 2307.38,335.673 2307.07,334.93C2305.96,332.247 2304.45,328.603 2304.45,328.603C2304.45,328.603 2302.94,332.247 2301.83,334.93C2301.52,335.673 2300.93,336.264 2300.19,336.571C2299.45,336.879 2298.61,336.879 2297.87,336.572C2294.18,335.042 2287.72,332.367 2284.02,330.837C2282.47,330.196 2281.74,328.423 2282.38,326.875C2283.49,324.192 2285,320.548 2285,320.548C2285,320.548 2281.36,322.056 2278.68,323.168C2277.94,323.476 2277.1,323.476 2276.36,323.168C2275.62,322.861 2275.03,322.27 2274.72,321.527C2273.19,317.835 2270.51,311.378 2268.98,307.685C2268.67,306.942 2268.67,306.107 2268.98,305.364C2269.29,304.621 2269.88,304.03 2270.62,303.722C2273.31,302.611 2276.95,301.102 2276.95,301.102C2276.95,301.102 2273.31,299.593 2270.62,298.482C2269.88,298.174 2269.29,297.583 2268.98,296.84C2268.67,296.097 2268.67,295.262 2268.98,294.519C2270.51,290.826 2273.19,284.368 2274.72,280.676C2275.03,279.933 2275.62,279.342 2276.36,279.035C2277.1,278.727 2277.94,278.727 2278.68,279.035C2281.36,280.147 2285,281.655 2285,281.655C2285,281.655 2283.49,278.012 2282.38,275.329C2281.74,273.781 2282.47,272.008 2284.02,271.367C2287.72,269.837 2294.18,267.162 2297.87,265.632C2298.61,265.325 2299.45,265.325 2300.19,265.632C2300.93,265.94 2301.52,266.531 2301.83,267.274C2302.94,269.957 2304.45,273.6 2304.45,273.6C2304.45,273.6 2305.96,269.957 2307.07,267.274Z" style="fill:rgb(224,195,156);stroke:black;stroke-width:4px;"/>
        </g>
        <g id="Layer1" transform="matrix(3.33395,0,0,3.29642,-195.837,0)">
            <g transform="matrix(0.924846,-0.383636,0.430998,1.03902,-13.9285,8.5591)">
                <path d="M42.058,28.911C42.28,28.515 42.735,28.265 43.232,28.265C43.73,28.265 44.184,28.515 44.407,28.911C45.281,30.468 46.46,32.566 47.276,34.018C47.479,34.381 47.458,34.811 47.218,35.156C46.979,35.5 46.556,35.71 46.101,35.71C44.41,35.71 42.055,35.71 40.363,35.71C39.908,35.71 39.486,35.5 39.246,35.156C39.007,34.811 38.985,34.381 39.189,34.018C40.004,32.566 41.183,30.468 42.058,28.911Z" style="fill:rgb(93,155,114);"/>
            </g>
            <g transform="matrix(0.92392,0.38586,-0.433497,1.03798,34.8681,-24.758)">
                <path d="M42.058,28.911C42.28,28.515 42.735,28.265 43.232,28.265C43.73,28.265 44.184,28.515 44.407,28.911C45.281,30.468 46.46,32.566 47.276,34.018C47.479,34.381 47.458,34.811 47.218,35.156C46.979,35.5 46.556,35.71 46.101,35.71C44.41,35.71 42.055,35.71 40.363,35.71C39.908,35.71 39.486,35.5 39.246,35.156C39.007,34.811 38.985,34.381 39.189,34.018C40.004,32.566 41.183,30.468 42.058,28.911Z" style="fill:rgb(93,155,114);"/>
            </g>
            <g transform="matrix(0.377062,0.927545,-1.04206,0.423613,92.887,-13.8227)">
                <path d="M42.058,28.911C42.28,28.515 42.735,28.265 43.232,28.265C43.73,28.265 44.184,28.515 44.407,28.911C45.281,30.468 46.46,32.566 47.276,34.018C47.479,34.381 47.458,34.811 47.218,35.156C46.979,35.5 46.556,35.71 46.101,35.71C44.41,35.71 42.055,35.71 40.363,35.71C39.908,35.71 39.486,35.5 39.246,35.156C39.007,34.811 38.985,34.381 39.189,34.018C40.004,32.566 41.183,30.468 42.058,28.911Z" style="fill:rgb(93,155,114);"/>
            </g>
            <g transform="matrix(-0.384514,0.924481,-1.03861,-0.431984,125.787,34.7088)">
                <path d="M42.058,28.911C42.28,28.515 42.735,28.265 43.232,28.265C43.73,28.265 44.184,28.515 44.407,28.911C45.281,30.468 46.46,32.566 47.276,34.018C47.479,34.381 47.458,34.811 47.218,35.156C46.979,35.5 46.556,35.71 46.101,35.71C44.41,35.71 42.055,35.71 40.363,35.71C39.908,35.71 39.486,35.5 39.246,35.156C39.007,34.811 38.985,34.381 39.189,34.018C40.004,32.566 41.183,30.468 42.058,28.911Z" style="fill:rgb(93,155,114);"/>
            </g>
            <g transform="matrix(-0.922949,0.388177,-0.4361,-1.03689,114.806,92.3276)">
                <path d="M42.058,28.911C42.28,28.515 42.735,28.265 43.232,28.265C43.73,28.265 44.184,28.515 44.407,28.911C45.281,30.468 46.46,32.566 47.276,34.018C47.479,34.381 47.458,34.811 47.218,35.156C46.979,35.5 46.556,35.71 46.101,35.71C44.41,35.71 42.055,35.71 40.363,35.71C39.908,35.71 39.486,35.5 39.246,35.156C39.007,34.811 38.985,34.381 39.189,34.018C40.004,32.566 41.183,30.468 42.058,28.911Z" style="fill:rgb(93,155,114);"/>
            </g>
            <g transform="matrix(-0.921634,-0.391288,0.439595,-1.03542,65.9708,126.007)">
                <path d="M42.058,28.911C42.28,28.515 42.735,28.265 43.232,28.265C43.73,28.265 44.184,28.515 44.407,28.911C45.281,30.468 46.46,32.566 47.276,34.018C47.479,34.381 47.458,34.811 47.218,35.156C46.979,35.5 46.556,35.71 46.101,35.71C44.41,35.71 42.055,35.71 40.363,35.71C39.908,35.71 39.486,35.5 39.246,35.156C39.007,34.811 38.985,34.381 39.189,34.018C40.004,32.566 41.183,30.468 42.058,28.911Z" style="fill:rgb(93,155,114);"/>
            </g>
            <g transform="matrix(-0.377869,-0.927217,1.04169,-0.424519,8.09205,114.611)">
                <path d="M42.058,28.911C42.28,28.515 42.735,28.265 43.232,28.265C43.73,28.265 44.184,28.515 44.407,28.911C45.281,30.468 46.46,32.566 47.276,34.018C47.479,34.381 47.458,34.811 47.218,35.156C46.979,35.5 46.556,35.71 46.101,35.71C44.41,35.71 42.055,35.71 40.363,35.71C39.908,35.71 39.486,35.5 39.246,35.156C39.007,34.811 38.985,34.381 39.189,34.018C40.004,32.566 41.183,30.468 42.058,28.911Z" style="fill:rgb(93,155,114);"/>
            </g>
            <g transform="matrix(0.377446,-0.927389,1.04188,0.424044,-24.3639,66.2425)">
                <path d="M42.058,28.911C42.28,28.515 42.735,28.265 43.232,28.265C43.73,28.265 44.184,28.515 44.407,28.911C45.281,30.468 46.46,32.566 47.276,34.018C47.479,34.381 47.458,34.811 47.218,35.156C46.979,35.5 46.556,35.71 46.101,35.71C44.41,35.71 42.055,35.71 40.363,35.71C39.908,35.71 39.486,35.5 39.246,35.156C39.007,34.811 38.985,34.381 39.189,34.018C40.004,32.566 41.183,30.468 42.058,28.911Z" style="fill:rgb(93,155,114);"/>
            </g>
        </g>
    </g>
</svg>
