<?xml version="1.0" encoding="UTF-8" standalone="no"?>
<!DOCTYPE svg PUBLIC "-//W3C//DTD SVG 1.1//EN" "http://www.w3.org/Graphics/SVG/1.1/DTD/svg11.dtd">
<svg width="100%" height="100%" viewBox="0 0 220 220" version="1.1" xmlns="http://www.w3.org/2000/svg" xmlns:xlink="http://www.w3.org/1999/xlink" xml:space="preserve" xmlns:serif="http://www.serif.com/" style="fill-rule:evenodd;clip-rule:evenodd;stroke-miterlimit:10;">
    <g transform="matrix(1,0,0,1,-495,-247.5)">
        <g id="Page-8" serif:id="Page 8" transform="matrix(1,0,0,1,495,247.5)">
            <rect x="0" y="0" width="220" height="220" style="fill:none;"/>
            <clipPath id="_clip1">
                <rect x="0" y="0" width="220" height="220"/>
            </clipPath>
            <g clip-path="url(#_clip1)">
                <g id="Farm">
                    <g transform="matrix(1,0,0,1,99.7123,109.1)">
                        <path d="M0,9.102L-96.344,9.102C-98.533,9.102 -99.609,6.438 -98.035,4.917L-93.649,0.684C-93.196,0.246 -92.59,0 -91.959,0L-4.385,0C-3.754,0 -3.147,0.246 -2.694,0.684L1.69,4.917C3.266,6.438 2.189,9.102 0,9.102" style="fill:rgb(79,38,15);fill-rule:nonzero;"/>
                    </g>
                    <g transform="matrix(0,-1,-1,0,64.4551,96.0954)">
                        <path d="M-12.984,12.984L12.984,12.984" style="fill:none;fill-rule:nonzero;stroke:rgb(43,73,1);stroke-width:4px;"/>
                    </g>
                    <g transform="matrix(1,0,0,1,55.5112,0.049)">
                        <path d="M0,67.548L-8.08,67.548C-14.513,67.548 -19.55,63.395 -18.942,58.591L-16.011,10.783C-15.425,4.67 -10.241,0 -4.04,0C2.161,0 7.345,4.67 7.931,10.783L10.862,58.591C11.47,63.395 6.433,67.548 0,67.548" style="fill:rgb(224,185,23);fill-rule:nonzero;"/>
                    </g>
                    <g transform="matrix(1,0,0,1,66.3735,9.006)">
                        <path d="M0,49.634L-2.932,1.826C-3.518,-4.287 -8.701,-8.957 -14.902,-8.957C-16.044,-8.957 -17.15,-8.797 -18.2,-8.5C-16.984,-8.233 -13.722,-7.374 -11.511,-4.883C-9.172,-2.248 -8.836,1.282 -10.477,4.511C-11.364,6.257 -12.194,8.025 -12.679,9.866C-12.994,11.065 -13.265,12.422 -13.416,13.907C-14.235,21.916 -10.912,26.687 -7.9,37.841C-7.176,40.523 -6.172,44.676 -5.419,49.9C-5.354,50.537 -5.151,53.063 -7.398,55.417C-8.866,56.956 -11.032,58.104 -13.564,58.591L-10.862,58.591C-4.43,58.591 0.607,54.438 0,49.634" style="fill:rgb(211,156,17);fill-rule:nonzero;"/>
                    </g>
                    <g transform="matrix(1,0,0,1,49.2045,44.4667)">
                        <path d="M0,38.645C-9.216,38.852 -12.961,36.507 -14.7,34.443C-19.305,28.977 -13.144,21.564 -16.579,11.863C-17.806,8.398 -19.915,5.605 -22.144,3.414C-23.565,2.016 -22.229,-0.207 -20.15,0.143C-17.231,0.633 -13.851,1.545 -10.365,3.217C0.211,8.291 4.392,16.828 5.529,19.409L3.976,38.677L0,38.645Z" style="fill:rgb(65,96,12);fill-rule:nonzero;"/>
                    </g>
                    <g transform="matrix(1,0,0,1,32.6254,53.7694)">
                        <path d="M0,-2.731C-0.881,-5.218 -2.22,-7.354 -3.728,-9.174C-5.714,-9.388 -6.949,-7.252 -5.564,-5.889C-3.336,-3.698 -1.227,-0.905 0,2.56C0.501,3.974 0.794,5.338 0.949,6.657C1.229,3.799 1.206,0.676 0,-2.731" style="fill:rgb(59,84,10);fill-rule:nonzero;"/>
                    </g>
                    <g transform="matrix(1,0,0,1,53.1801,68.5539)">
                        <path d="M0,9.299L-3.976,9.268C-13.191,9.475 -16.937,7.13 -18.676,5.066C-19.503,4.084 -19.979,3.039 -20.229,1.93C-20.643,5.139 -20.713,7.939 -18.676,10.356C-16.937,12.42 -13.191,14.765 -3.976,14.558L0,14.59L1.554,-4.679C1.458,-4.896 1.332,-5.17 1.19,-5.466L0,9.299Z" style="fill:rgb(59,84,10);fill-rule:nonzero;"/>
                    </g>
                    <g transform="matrix(1,0,0,1,76.3149,82.5601)">
                        <path d="M0,-30.425C1.766,-30.302 2.562,-28.391 1.279,-27.301C-1.546,-24.9 -4.307,-21.713 -5.831,-17.586C-8.058,-11.554 -6.039,-7.86 -8.865,-4.231C-10.649,-1.94 -14.336,0.287 -22.529,0.579C-25.35,0.68 -27.795,-1.133 -28.22,-3.625C-28.933,-7.797 -28.973,-14.372 -24.374,-20.434C-19.142,-27.332 -9.768,-31.105 0,-30.425" style="fill:rgb(78,114,22);fill-rule:nonzero;"/>
                    </g>
                    <g transform="matrix(1,0,0,1,76.3149,83.1761)">
                        <path d="M0,-31.041C-0.337,-31.064 -0.671,-31.069 -1.007,-31.083C-1.096,-30.78 -1.268,-30.487 -1.56,-30.239C-4.385,-27.839 -7.146,-24.651 -8.67,-20.524C-10.896,-14.493 -8.878,-10.799 -11.704,-7.17C-13.488,-4.878 -17.175,-2.651 -25.368,-2.359C-26.178,-2.33 -26.948,-2.475 -27.657,-2.731C-26.697,-1.06 -24.735,0.042 -22.529,-0.037C-14.336,-0.329 -10.649,-2.556 -8.865,-4.847C-6.039,-8.476 -8.058,-12.17 -5.831,-18.202C-4.307,-22.329 -1.546,-25.516 1.279,-27.917C2.562,-29.007 1.766,-30.918 0,-31.041" style="fill:rgb(75,104,21);fill-rule:nonzero;"/>
                    </g>
                    <g transform="matrix(1,0,0,1,217.165,109.1)">
                        <path d="M0,9.102L-96.345,9.102C-98.533,9.102 -99.609,6.438 -98.035,4.917L-93.65,0.684C-93.196,0.246 -92.591,0 -91.96,0L-4.385,0C-3.754,0 -3.148,0.246 -2.694,0.684L1.69,4.917C3.265,6.438 2.188,9.102 0,9.102" style="fill:rgb(79,38,15);fill-rule:nonzero;"/>
                    </g>
                    <g transform="matrix(0,-1,-1,0,181.907,96.0954)">
                        <path d="M-12.984,12.984L12.984,12.984" style="fill:none;fill-rule:nonzero;stroke:rgb(43,73,1);stroke-width:4px;"/>
                    </g>
                    <g transform="matrix(1,0,0,1,172.963,0.049)">
                        <path d="M0,67.548L-8.079,67.548C-14.513,67.548 -19.55,63.395 -18.942,58.591L-16.01,10.783C-15.425,4.67 -10.241,0 -4.04,0C2.161,0 7.346,4.67 7.931,10.783L10.862,58.591C11.47,63.395 6.433,67.548 0,67.548" style="fill:rgb(224,185,23);fill-rule:nonzero;"/>
                    </g>
                    <g transform="matrix(1,0,0,1,183.826,9.006)">
                        <path d="M0,49.634L-2.932,1.826C-3.517,-4.287 -8.701,-8.957 -14.902,-8.957C-16.044,-8.957 -17.15,-8.797 -18.2,-8.5C-16.984,-8.233 -13.721,-7.374 -11.51,-4.883C-9.172,-2.248 -8.835,1.282 -10.477,4.511C-11.364,6.257 -12.194,8.025 -12.679,9.866C-12.994,11.065 -13.264,12.422 -13.416,13.907C-14.235,21.916 -10.912,26.687 -7.899,37.841C-7.176,40.523 -6.172,44.676 -5.419,49.9C-5.353,50.537 -5.151,53.063 -7.398,55.417C-8.866,56.956 -11.031,58.104 -13.563,58.591L-10.862,58.591C-4.43,58.591 0.607,54.438 0,49.634" style="fill:rgb(211,156,17);fill-rule:nonzero;"/>
                    </g>
                    <g transform="matrix(1,0,0,1,166.657,44.4667)">
                        <path d="M0,38.645C-9.216,38.852 -12.961,36.507 -14.7,34.443C-19.305,28.977 -13.144,21.564 -16.578,11.863C-17.806,8.398 -19.915,5.605 -22.144,3.414C-23.565,2.016 -22.229,-0.207 -20.149,0.143C-17.231,0.633 -13.85,1.545 -10.365,3.217C0.212,8.291 4.393,16.828 5.529,19.409L3.977,38.677L0,38.645Z" style="fill:rgb(65,96,12);fill-rule:nonzero;"/>
                    </g>
                    <g transform="matrix(1,0,0,1,150.079,53.7694)">
                        <path d="M0,-2.731C-0.881,-5.218 -2.22,-7.354 -3.729,-9.174C-5.715,-9.388 -6.95,-7.252 -5.565,-5.889C-3.337,-3.698 -1.228,-0.905 0,2.56C0.5,3.974 0.793,5.338 0.949,6.657C1.228,3.799 1.206,0.676 0,-2.731" style="fill:rgb(59,84,10);fill-rule:nonzero;"/>
                    </g>
                    <g transform="matrix(1,0,0,1,170.633,68.5539)">
                        <path d="M0,9.299L-3.977,9.268C-13.192,9.475 -16.937,7.13 -18.677,5.066C-19.503,4.084 -19.979,3.039 -20.229,1.93C-20.644,5.139 -20.713,7.939 -18.677,10.356C-16.937,12.42 -13.192,14.765 -3.977,14.558L0,14.59L1.553,-4.679C1.457,-4.896 1.331,-5.17 1.19,-5.466L0,9.299Z" style="fill:rgb(59,84,10);fill-rule:nonzero;"/>
                    </g>
                    <g transform="matrix(1,0,0,1,193.767,82.5601)">
                        <path d="M0,-30.425C1.766,-30.302 2.563,-28.391 1.279,-27.301C-1.546,-24.9 -4.307,-21.713 -5.83,-17.586C-8.058,-11.554 -6.039,-7.86 -8.865,-4.231C-10.649,-1.94 -14.336,0.287 -22.529,0.579C-25.349,0.68 -27.794,-1.133 -28.22,-3.625C-28.932,-7.797 -28.973,-14.372 -24.374,-20.434C-19.141,-27.332 -9.768,-31.105 0,-30.425" style="fill:rgb(78,114,22);fill-rule:nonzero;"/>
                    </g>
                    <g transform="matrix(1,0,0,1,193.767,83.1761)">
                        <path d="M0,-31.041C-0.336,-31.064 -0.671,-31.069 -1.006,-31.083C-1.096,-30.78 -1.268,-30.487 -1.56,-30.239C-4.385,-27.839 -7.145,-24.651 -8.669,-20.524C-10.896,-14.493 -8.878,-10.799 -11.703,-7.17C-13.488,-4.878 -17.175,-2.651 -25.368,-2.359C-26.178,-2.33 -26.947,-2.475 -27.656,-2.731C-26.697,-1.06 -24.735,0.042 -22.529,-0.037C-14.336,-0.329 -10.649,-2.556 -8.865,-4.847C-6.039,-8.476 -8.058,-12.17 -5.83,-18.202C-4.307,-22.329 -1.546,-25.516 1.279,-27.917C2.563,-29.007 1.766,-30.918 0,-31.041" style="fill:rgb(75,104,21);fill-rule:nonzero;"/>
                    </g>
                    <g transform="matrix(1,0,0,1,158.621,166.411)">
                        <path d="M0,9.102L-96.345,9.102C-98.533,9.102 -99.609,6.438 -98.035,4.917L-93.65,0.684C-93.196,0.246 -92.591,0 -91.96,0L-4.385,0C-3.754,0 -3.148,0.246 -2.694,0.684L1.69,4.917C3.265,6.438 2.188,9.102 0,9.102" style="fill:rgb(61,27,9);fill-rule:nonzero;"/>
                    </g>
                    <g transform="matrix(0,-1,-1,0,151.592,125.268)">
                        <path d="M-41.144,41.144L41.144,41.144" style="fill:none;fill-rule:nonzero;stroke:rgb(118,68,3);stroke-width:4px;"/>
                    </g>
                    <g transform="matrix(1,0,0,1,111.481,138.337)">
                        <path d="M0,13.733C-0.414,18.416 3.297,22.341 7.995,22.192C10.329,22.118 12.904,21.697 15.527,20.647C24.905,16.896 31.252,6.579 31.757,-5.702C31.816,-7.161 30.647,-8.397 29.187,-8.419C16.898,-8.608 6.24,-2.852 1.967,6.299C0.771,8.859 0.205,11.406 0,13.733" style="fill:rgb(164,104,25);fill-rule:nonzero;"/>
                    </g>
                    <g transform="matrix(1,0,0,1,142.177,160.617)">
                        <path d="M0,-30.181C-0.252,-27.055 -1.181,-21.37 -5.084,-15.837C-13.26,-4.249 -27.347,-3.448 -29.309,-3.369C-27.865,-1.322 -25.457,0 -22.701,-0.088C-20.367,-0.162 -17.792,-0.583 -15.169,-1.633C-5.791,-5.384 0.556,-15.702 1.061,-27.982C1.097,-28.875 0.67,-29.682 0,-30.181" style="fill:rgb(141,85,6);fill-rule:nonzero;"/>
                    </g>
                    <g transform="matrix(1,0,0,1,111.481,109.826)">
                        <path d="M0,13.733C-0.414,18.416 3.297,22.341 7.995,22.192C10.329,22.118 12.904,21.697 15.527,20.647C24.905,16.896 31.252,6.579 31.757,-5.701C31.816,-7.16 30.647,-8.396 29.187,-8.418C16.898,-8.608 6.24,-2.852 1.967,6.299C0.771,8.86 0.205,11.407 0,13.733" style="fill:rgb(164,104,25);fill-rule:nonzero;"/>
                    </g>
                    <g transform="matrix(1,0,0,1,142.177,132.106)">
                        <path d="M0,-30.18C-0.252,-27.055 -1.181,-21.369 -5.084,-15.837C-13.26,-4.248 -27.347,-3.447 -29.309,-3.368C-27.865,-1.321 -25.457,0 -22.701,-0.088C-20.367,-0.162 -17.792,-0.583 -15.169,-1.633C-5.791,-5.384 0.556,-15.701 1.061,-27.981C1.097,-28.874 0.67,-29.681 0,-30.18" style="fill:rgb(141,85,6);fill-rule:nonzero;"/>
                    </g>
                    <g transform="matrix(1,0,0,1,111.481,81.3162)">
                        <path d="M0,13.732C-0.414,18.415 3.297,22.34 7.995,22.192C10.329,22.118 12.904,21.696 15.527,20.647C24.905,16.896 31.252,6.579 31.757,-5.702C31.816,-7.161 30.647,-8.397 29.187,-8.419C16.898,-8.608 6.24,-2.852 1.967,6.299C0.771,8.859 0.205,11.406 0,13.732" style="fill:rgb(164,104,25);fill-rule:nonzero;"/>
                    </g>
                    <g transform="matrix(1,0,0,1,142.177,103.595)">
                        <path d="M0,-30.18C-0.252,-27.054 -1.181,-21.369 -5.084,-15.836C-13.26,-4.248 -27.347,-3.447 -29.309,-3.368C-27.865,-1.321 -25.457,0 -22.701,-0.087C-20.367,-0.161 -17.792,-0.583 -15.169,-1.632C-5.791,-5.383 0.556,-15.701 1.061,-27.981C1.097,-28.874 0.67,-29.681 0,-30.18" style="fill:rgb(141,85,6);fill-rule:nonzero;"/>
                    </g>
                    <g transform="matrix(1,0,0,1,109.417,138.337)">
                        <path d="M0,13.733C0.414,18.416 -3.297,22.341 -7.995,22.192C-10.329,22.118 -12.904,21.697 -15.527,20.647C-24.905,16.896 -31.252,6.579 -31.757,-5.702C-31.816,-7.161 -30.647,-8.397 -29.187,-8.419C-16.898,-8.608 -6.24,-2.852 -1.967,6.299C-0.771,8.859 -0.205,11.406 0,13.733" style="fill:rgb(193,123,30);fill-rule:nonzero;"/>
                    </g>
                    <g transform="matrix(1,0,0,1,78.7211,160.617)">
                        <path d="M0,-30.181C0.252,-27.055 1.181,-21.37 5.084,-15.837C13.26,-4.249 27.347,-3.448 29.309,-3.369C27.865,-1.322 25.457,0 22.701,-0.088C20.367,-0.162 17.792,-0.583 15.169,-1.633C5.791,-5.384 -0.556,-15.702 -1.061,-27.982C-1.097,-28.875 -0.67,-29.682 0,-30.181" style="fill:rgb(170,103,7);fill-rule:nonzero;"/>
                    </g>
                    <g transform="matrix(1,0,0,1,109.417,109.826)">
                        <path d="M0,13.733C0.414,18.416 -3.297,22.341 -7.995,22.192C-10.329,22.118 -12.904,21.697 -15.527,20.647C-24.905,16.896 -31.252,6.579 -31.757,-5.701C-31.816,-7.16 -30.647,-8.396 -29.187,-8.418C-16.898,-8.608 -6.24,-2.852 -1.967,6.299C-0.771,8.86 -0.205,11.407 0,13.733" style="fill:rgb(193,123,30);fill-rule:nonzero;"/>
                    </g>
                    <g transform="matrix(1,0,0,1,78.7211,132.106)">
                        <path d="M0,-30.18C0.252,-27.055 1.181,-21.369 5.084,-15.837C13.26,-4.248 27.347,-3.447 29.309,-3.368C27.865,-1.321 25.457,0 22.701,-0.088C20.367,-0.162 17.792,-0.583 15.169,-1.633C5.791,-5.384 -0.556,-15.701 -1.061,-27.981C-1.097,-28.874 -0.67,-29.681 0,-30.18" style="fill:rgb(170,103,7);fill-rule:nonzero;"/>
                    </g>
                    <g transform="matrix(1,0,0,1,109.417,81.3162)">
                        <path d="M0,13.732C0.414,18.415 -3.297,22.34 -7.995,22.192C-10.329,22.118 -12.904,21.696 -15.527,20.647C-24.905,16.896 -31.252,6.579 -31.757,-5.702C-31.816,-7.161 -30.647,-8.397 -29.187,-8.419C-16.898,-8.608 -6.24,-2.852 -1.967,6.299C-0.771,8.859 -0.205,11.406 0,13.732" style="fill:rgb(193,123,30);fill-rule:nonzero;"/>
                    </g>
                    <g transform="matrix(1,0,0,1,78.7211,103.595)">
                        <path d="M0,-30.18C0.252,-27.054 1.181,-21.369 5.084,-15.836C13.26,-4.248 27.347,-3.447 29.309,-3.368C27.865,-1.321 25.457,0 22.701,-0.087C20.367,-0.161 17.792,-0.583 15.169,-1.632C5.791,-5.383 -0.556,-15.701 -1.061,-27.981C-1.097,-28.874 -0.67,-29.681 0,-30.18" style="fill:rgb(170,103,7);fill-rule:nonzero;"/>
                    </g>
                    <g transform="matrix(1,0,0,1,116.2,47.7426)">
                        <path d="M0,33.957C-3.119,37.475 -8.521,37.475 -11.64,33.957C-13.189,32.21 -14.651,30.049 -15.69,27.422C-19.406,18.03 -16.268,6.33 -7.689,-2.472C-6.67,-3.518 -4.97,-3.518 -3.95,-2.472C4.628,6.33 7.767,18.03 4.051,27.422C3.012,30.049 1.55,32.21 0,33.957" style="fill:rgb(193,123,30);fill-rule:nonzero;"/>
                    </g>
                    <g transform="matrix(1,0,0,1,116.2,47.1496)">
                        <path d="M0,34.55C1.55,32.802 3.012,30.642 4.051,28.015C7.767,18.623 4.628,6.923 -3.95,-1.879C-4.385,-2.325 -4.945,-2.569 -5.523,-2.635L-5.75,-2.588C-3.738,4.648 -4.196,10.081 -5.01,13.738C-6.278,19.44 -8.86,22.847 -8.365,28.835C-8.064,32.466 -6.773,35.344 -5.75,37.183L-5.75,37.185C-3.644,37.165 -1.542,36.289 0,34.55" style="fill:rgb(170,103,7);fill-rule:nonzero;"/>
                    </g>
                    <g transform="matrix(1,0,0,1,103.512,210.898)">
                        <path d="M0,9.102L-96.345,9.102C-98.533,9.102 -99.61,6.438 -98.035,4.917L-93.65,0.683C-93.197,0.246 -92.591,0 -91.96,0L-4.385,0C-3.755,0 -3.148,0.246 -2.694,0.683L1.69,4.917C3.265,6.438 2.188,9.102 0,9.102" style="fill:rgb(79,38,15);fill-rule:nonzero;"/>
                    </g>
                    <g transform="matrix(0,-1,-1,0,96.4833,169.755)">
                        <path d="M-41.144,41.144L41.144,41.144" style="fill:none;fill-rule:nonzero;stroke:rgb(160,93,4);stroke-width:4px;"/>
                    </g>
                    <g transform="matrix(1,0,0,1,56.3715,182.824)">
                        <path d="M0,13.732C-0.414,18.415 3.296,22.34 7.995,22.191C10.329,22.117 12.904,21.696 15.527,20.647C24.904,16.895 31.252,6.579 31.756,-5.702C31.816,-7.161 30.647,-8.397 29.187,-8.419C16.898,-8.608 6.24,-2.852 1.967,6.299C0.771,8.859 0.205,11.406 0,13.732" style="fill:rgb(206,131,32);fill-rule:nonzero;"/>
                    </g>
                    <g transform="matrix(1,0,0,1,87.0678,205.103)">
                        <path d="M0,-30.18C-0.253,-27.054 -1.181,-21.369 -5.085,-15.836C-13.261,-4.248 -27.347,-3.447 -29.309,-3.368C-27.866,-1.321 -25.458,0 -22.701,-0.088C-20.367,-0.162 -17.792,-0.583 -15.169,-1.632C-5.792,-5.384 0.556,-15.701 1.06,-27.981C1.097,-28.874 0.67,-29.681 0,-30.18" style="fill:rgb(183,111,8);fill-rule:nonzero;"/>
                    </g>
                    <g transform="matrix(1,0,0,1,56.3715,154.313)">
                        <path d="M0,13.733C-0.414,18.416 3.296,22.341 7.995,22.192C10.329,22.118 12.904,21.696 15.527,20.647C24.904,16.896 31.252,6.579 31.756,-5.702C31.816,-7.161 30.647,-8.397 29.187,-8.419C16.898,-8.608 6.24,-2.852 1.967,6.299C0.771,8.859 0.205,11.406 0,13.733" style="fill:rgb(206,131,32);fill-rule:nonzero;"/>
                    </g>
                    <g transform="matrix(1,0,0,1,87.0678,176.592)">
                        <path d="M0,-30.18C-0.253,-27.054 -1.181,-21.369 -5.085,-15.836C-13.261,-4.248 -27.347,-3.447 -29.309,-3.368C-27.866,-1.321 -25.458,0 -22.701,-0.087C-20.367,-0.161 -17.792,-0.583 -15.169,-1.632C-5.792,-5.383 0.556,-15.701 1.06,-27.981C1.097,-28.874 0.67,-29.681 0,-30.18" style="fill:rgb(183,111,8);fill-rule:nonzero;"/>
                    </g>
                    <g transform="matrix(1,0,0,1,56.3715,125.802)">
                        <path d="M0,13.733C-0.414,18.416 3.296,22.341 7.995,22.192C10.329,22.118 12.904,21.697 15.527,20.647C24.904,16.896 31.252,6.579 31.756,-5.701C31.816,-7.161 30.647,-8.396 29.187,-8.418C16.898,-8.608 6.24,-2.852 1.967,6.299C0.771,8.86 0.205,11.406 0,13.733" style="fill:rgb(206,131,32);fill-rule:nonzero;"/>
                    </g>
                    <g transform="matrix(1,0,0,1,87.0678,148.083)">
                        <path d="M0,-30.18C-0.253,-27.055 -1.181,-21.369 -5.085,-15.837C-13.261,-4.249 -27.347,-3.448 -29.309,-3.368C-27.866,-1.321 -25.458,0 -22.701,-0.088C-20.367,-0.162 -17.792,-0.583 -15.169,-1.633C-5.792,-5.384 0.556,-15.701 1.06,-27.981C1.097,-28.875 0.67,-29.682 0,-30.18" style="fill:rgb(183,111,8);fill-rule:nonzero;"/>
                    </g>
                    <g transform="matrix(1,0,0,1,54.308,182.824)">
                        <path d="M0,13.732C0.414,18.415 -3.297,22.34 -7.995,22.191C-10.33,22.117 -12.904,21.696 -15.527,20.647C-24.905,16.895 -31.253,6.579 -31.757,-5.702C-31.816,-7.161 -30.648,-8.397 -29.188,-8.419C-16.899,-8.608 -6.24,-2.852 -1.967,6.299C-0.771,8.859 -0.206,11.406 0,13.732" style="fill:rgb(235,150,37);fill-rule:nonzero;"/>
                    </g>
                    <g transform="matrix(1,0,0,1,23.6118,205.103)">
                        <path d="M0,-30.18C0.252,-27.054 1.181,-21.369 5.084,-15.836C13.26,-4.248 27.347,-3.447 29.309,-3.368C27.865,-1.321 25.457,0 22.701,-0.088C20.366,-0.162 17.792,-0.583 15.169,-1.632C5.791,-5.384 -0.557,-15.701 -1.061,-27.981C-1.097,-28.874 -0.67,-29.681 0,-30.18" style="fill:rgb(212,129,9);fill-rule:nonzero;"/>
                    </g>
                    <g transform="matrix(1,0,0,1,54.308,154.313)">
                        <path d="M0,13.733C0.414,18.416 -3.297,22.341 -7.995,22.192C-10.33,22.118 -12.904,21.696 -15.527,20.647C-24.905,16.896 -31.253,6.579 -31.757,-5.702C-31.816,-7.161 -30.648,-8.397 -29.188,-8.419C-16.899,-8.608 -6.24,-2.852 -1.967,6.299C-0.771,8.859 -0.206,11.406 0,13.733" style="fill:rgb(235,150,37);fill-rule:nonzero;"/>
                    </g>
                    <g transform="matrix(1,0,0,1,23.6118,176.592)">
                        <path d="M0,-30.18C0.252,-27.054 1.181,-21.369 5.084,-15.836C13.26,-4.248 27.347,-3.447 29.309,-3.368C27.865,-1.321 25.457,0 22.701,-0.087C20.366,-0.161 17.792,-0.583 15.169,-1.632C5.791,-5.383 -0.557,-15.701 -1.061,-27.981C-1.097,-28.874 -0.67,-29.681 0,-30.18" style="fill:rgb(212,129,9);fill-rule:nonzero;"/>
                    </g>
                    <g transform="matrix(1,0,0,1,54.308,125.802)">
                        <path d="M0,13.733C0.414,18.416 -3.297,22.341 -7.995,22.192C-10.33,22.118 -12.904,21.697 -15.527,20.647C-24.905,16.896 -31.253,6.579 -31.757,-5.701C-31.816,-7.161 -30.648,-8.396 -29.188,-8.418C-16.899,-8.608 -6.24,-2.852 -1.967,6.299C-0.771,8.86 -0.206,11.406 0,13.733" style="fill:rgb(235,150,37);fill-rule:nonzero;"/>
                    </g>
                    <g transform="matrix(1,0,0,1,23.6118,148.083)">
                        <path d="M0,-30.18C0.252,-27.055 1.181,-21.369 5.084,-15.837C13.26,-4.249 27.347,-3.448 29.309,-3.368C27.865,-1.321 25.457,0 22.701,-0.088C20.366,-0.162 17.792,-0.583 15.169,-1.633C5.791,-5.384 -0.557,-15.701 -1.061,-27.981C-1.097,-28.875 -0.67,-29.682 0,-30.18" style="fill:rgb(212,129,9);fill-rule:nonzero;"/>
                    </g>
                    <g transform="matrix(1,0,0,1,61.0903,92.2289)">
                        <path d="M0,33.958C-3.119,37.475 -8.521,37.475 -11.64,33.958C-13.189,32.21 -14.652,30.05 -15.691,27.422C-19.406,18.03 -16.269,6.33 -7.689,-2.471C-6.671,-3.517 -4.97,-3.517 -3.95,-2.471C4.628,6.33 7.766,18.03 4.051,27.422C3.012,30.05 1.55,32.21 0,33.958" style="fill:rgb(235,150,37);fill-rule:nonzero;"/>
                    </g>
                    <g transform="matrix(1,0,0,1,61.0903,91.6359)">
                        <path d="M0,34.551C1.549,32.803 3.012,30.643 4.051,28.015C7.766,18.623 4.628,6.923 -3.95,-1.878C-4.386,-2.324 -4.946,-2.568 -5.523,-2.634L-5.751,-2.588C-3.738,4.648 -4.197,10.081 -5.01,13.739C-6.278,19.441 -8.86,22.848 -8.365,28.835C-8.064,32.467 -6.773,35.345 -5.751,37.184L-5.75,37.185C-3.644,37.166 -1.543,36.29 0,34.551" style="fill:rgb(212,129,9);fill-rule:nonzero;"/>
                    </g>
                    <g transform="matrix(1,0,0,1,212.833,210.898)">
                        <path d="M0,9.102L-96.345,9.102C-98.533,9.102 -99.609,6.438 -98.035,4.917L-93.649,0.683C-93.196,0.246 -92.59,0 -91.959,0L-4.385,0C-3.754,0 -3.147,0.246 -2.694,0.683L1.69,4.917C3.266,6.438 2.189,9.102 0,9.102" style="fill:rgb(79,38,15);fill-rule:nonzero;"/>
                    </g>
                    <g transform="matrix(0,-1,-1,0,205.805,169.755)">
                        <path d="M-41.144,41.144L41.144,41.144" style="fill:none;fill-rule:nonzero;stroke:rgb(160,93,4);stroke-width:4px;"/>
                    </g>
                    <g transform="matrix(1,0,0,1,165.692,182.824)">
                        <path d="M0,13.732C-0.414,18.415 3.297,22.34 7.995,22.191C10.33,22.117 12.904,21.696 15.527,20.647C24.905,16.895 31.253,6.579 31.757,-5.702C31.816,-7.161 30.648,-8.397 29.188,-8.419C16.899,-8.608 6.241,-2.852 1.967,6.299C0.771,8.859 0.206,11.406 0,13.732" style="fill:rgb(206,131,32);fill-rule:nonzero;"/>
                    </g>
                    <g transform="matrix(1,0,0,1,196.389,205.103)">
                        <path d="M0,-30.18C-0.253,-27.054 -1.182,-21.369 -5.085,-15.836C-13.261,-4.248 -27.348,-3.447 -29.31,-3.368C-27.866,-1.321 -25.458,0 -22.702,-0.088C-20.367,-0.162 -17.793,-0.583 -15.17,-1.632C-5.792,-5.384 0.556,-15.701 1.06,-27.981C1.097,-28.874 0.669,-29.681 0,-30.18" style="fill:rgb(183,111,8);fill-rule:nonzero;"/>
                    </g>
                    <g transform="matrix(1,0,0,1,165.692,154.313)">
                        <path d="M0,13.733C-0.414,18.416 3.297,22.341 7.995,22.192C10.33,22.118 12.904,21.696 15.527,20.647C24.905,16.896 31.253,6.579 31.757,-5.702C31.816,-7.161 30.648,-8.397 29.188,-8.419C16.899,-8.608 6.241,-2.852 1.967,6.299C0.771,8.859 0.206,11.406 0,13.733" style="fill:rgb(206,131,32);fill-rule:nonzero;"/>
                    </g>
                    <g transform="matrix(1,0,0,1,196.389,176.592)">
                        <path d="M0,-30.18C-0.253,-27.054 -1.182,-21.369 -5.085,-15.836C-13.261,-4.248 -27.348,-3.447 -29.31,-3.368C-27.866,-1.321 -25.458,0 -22.702,-0.087C-20.367,-0.161 -17.793,-0.583 -15.17,-1.632C-5.792,-5.383 0.556,-15.701 1.06,-27.981C1.097,-28.874 0.669,-29.681 0,-30.18" style="fill:rgb(183,111,8);fill-rule:nonzero;"/>
                    </g>
                    <g transform="matrix(1,0,0,1,165.692,125.802)">
                        <path d="M0,13.733C-0.414,18.416 3.297,22.341 7.995,22.192C10.33,22.118 12.904,21.697 15.527,20.647C24.905,16.896 31.253,6.579 31.757,-5.701C31.816,-7.161 30.648,-8.396 29.188,-8.418C16.899,-8.608 6.241,-2.852 1.967,6.299C0.771,8.86 0.206,11.406 0,13.733" style="fill:rgb(206,131,32);fill-rule:nonzero;"/>
                    </g>
                    <g transform="matrix(1,0,0,1,196.389,148.083)">
                        <path d="M0,-30.18C-0.253,-27.055 -1.182,-21.369 -5.085,-15.837C-13.261,-4.249 -27.348,-3.448 -29.31,-3.368C-27.866,-1.321 -25.458,0 -22.702,-0.088C-20.367,-0.162 -17.793,-0.583 -15.17,-1.633C-5.792,-5.384 0.556,-15.701 1.06,-27.981C1.097,-28.875 0.669,-29.682 0,-30.18" style="fill:rgb(183,111,8);fill-rule:nonzero;"/>
                    </g>
                    <g transform="matrix(1,0,0,1,163.629,182.824)">
                        <path d="M0,13.732C0.413,18.415 -3.297,22.34 -7.995,22.191C-10.33,22.117 -12.904,21.696 -15.527,20.647C-24.905,16.895 -31.253,6.579 -31.757,-5.702C-31.817,-7.161 -30.648,-8.397 -29.188,-8.419C-16.899,-8.608 -6.241,-2.852 -1.967,6.299C-0.771,8.859 -0.206,11.406 0,13.732" style="fill:rgb(235,150,37);fill-rule:nonzero;"/>
                    </g>
                    <g transform="matrix(1,0,0,1,132.932,205.103)">
                        <path d="M0,-30.18C0.253,-27.054 1.181,-21.369 5.085,-15.836C13.261,-4.248 27.348,-3.447 29.31,-3.368C27.866,-1.321 25.458,0 22.702,-0.088C20.367,-0.162 17.793,-0.583 15.17,-1.632C5.792,-5.384 -0.556,-15.701 -1.06,-27.981C-1.097,-28.874 -0.669,-29.681 0,-30.18" style="fill:rgb(212,129,9);fill-rule:nonzero;"/>
                    </g>
                    <g transform="matrix(1,0,0,1,163.629,154.313)">
                        <path d="M0,13.733C0.413,18.416 -3.297,22.341 -7.995,22.192C-10.33,22.118 -12.904,21.696 -15.527,20.647C-24.905,16.896 -31.253,6.579 -31.757,-5.702C-31.817,-7.161 -30.648,-8.397 -29.188,-8.419C-16.899,-8.608 -6.241,-2.852 -1.967,6.299C-0.771,8.859 -0.206,11.406 0,13.733" style="fill:rgb(235,150,37);fill-rule:nonzero;"/>
                    </g>
                    <g transform="matrix(1,0,0,1,132.932,176.592)">
                        <path d="M0,-30.18C0.253,-27.054 1.181,-21.369 5.085,-15.836C13.261,-4.248 27.348,-3.447 29.31,-3.368C27.866,-1.321 25.458,0 22.702,-0.087C20.367,-0.161 17.793,-0.583 15.17,-1.632C5.792,-5.383 -0.556,-15.701 -1.06,-27.981C-1.097,-28.874 -0.669,-29.681 0,-30.18" style="fill:rgb(212,129,9);fill-rule:nonzero;"/>
                    </g>
                    <g transform="matrix(1,0,0,1,163.629,125.802)">
                        <path d="M0,13.733C0.413,18.416 -3.297,22.341 -7.995,22.192C-10.33,22.118 -12.904,21.697 -15.527,20.647C-24.905,16.896 -31.253,6.579 -31.757,-5.701C-31.817,-7.161 -30.648,-8.396 -29.188,-8.418C-16.899,-8.608 -6.241,-2.852 -1.967,6.299C-0.771,8.86 -0.206,11.406 0,13.733" style="fill:rgb(235,150,37);fill-rule:nonzero;"/>
                    </g>
                    <g transform="matrix(1,0,0,1,132.932,148.083)">
                        <path d="M0,-30.18C0.253,-27.055 1.181,-21.369 5.085,-15.837C13.261,-4.249 27.348,-3.448 29.31,-3.368C27.866,-1.321 25.458,0 22.702,-0.088C20.367,-0.162 17.793,-0.583 15.17,-1.633C5.792,-5.384 -0.556,-15.701 -1.06,-27.981C-1.097,-28.875 -0.669,-29.682 0,-30.18" style="fill:rgb(212,129,9);fill-rule:nonzero;"/>
                    </g>
                    <g transform="matrix(1,0,0,1,170.411,92.2289)">
                        <path d="M0,33.958C-3.118,37.475 -8.521,37.475 -11.64,33.958C-13.188,32.21 -14.651,30.05 -15.69,27.422C-19.405,18.03 -16.268,6.33 -7.689,-2.471C-6.67,-3.517 -4.969,-3.517 -3.949,-2.471C4.629,6.33 7.767,18.03 4.052,27.422C3.013,30.05 1.55,32.21 0,33.958" style="fill:rgb(235,150,37);fill-rule:nonzero;"/>
                    </g>
                    <g transform="matrix(1,0,0,1,170.411,91.6359)">
                        <path d="M0,34.551C1.55,32.803 3.013,30.643 4.052,28.015C7.767,18.623 4.629,6.923 -3.949,-1.878C-4.385,-2.324 -4.945,-2.568 -5.523,-2.634L-5.75,-2.588C-3.738,4.648 -4.196,10.081 -5.01,13.739C-6.277,19.441 -8.859,22.848 -8.364,28.835C-8.064,32.467 -6.772,35.345 -5.75,37.184L-5.749,37.185C-3.643,37.166 -1.542,36.29 0,34.551" style="fill:rgb(212,129,9);fill-rule:nonzero;"/>
                    </g>
                </g>
            </g>
        </g>
    </g>
</svg>
