<?xml version="1.0" encoding="UTF-8" standalone="no"?>
<!DOCTYPE svg PUBLIC "-//W3C//DTD SVG 1.1//EN" "http://www.w3.org/Graphics/SVG/1.1/DTD/svg11.dtd">
<svg width="100%" height="100%" viewBox="0 0 100 100" version="1.1" xmlns="http://www.w3.org/2000/svg" xmlns:xlink="http://www.w3.org/1999/xlink" xml:space="preserve" xmlns:serif="http://www.serif.com/" style="fill-rule:evenodd;clip-rule:evenodd;stroke-linejoin:round;stroke-miterlimit:2;">
    <g transform="matrix(1,0,0,1,-270,0)">
        <g id="tower_fast" transform="matrix(1,0,0,1,-0.231555,0)">
            <rect x="270.232" y="0" width="100" height="100" style="fill:none;"/>
            <g transform="matrix(1,0,0,1,139.232,-250)">
                <g transform="matrix(-1.25971,-0.111357,-0.111357,1.25971,170.166,302.852)">
                    <path d="M-33.355,-5.292C-33.212,-6.911 -31.856,-8.152 -30.231,-8.152C-23.776,-8.152 -8.203,-8.152 -2.061,-8.152C-1.406,-8.152 -0.781,-7.877 -0.339,-7.393C0.104,-6.91 0.323,-6.263 0.265,-5.61C0.073,-3.433 -0.203,-0.312 -0.395,1.865C-0.453,2.518 -0.782,3.117 -1.303,3.515C-1.823,3.913 -2.487,4.074 -3.132,3.959C-9.178,2.882 -24.51,0.15 -30.865,-0.982C-32.465,-1.267 -33.582,-2.728 -33.439,-4.346C-33.411,-4.66 -33.383,-4.979 -33.355,-5.292Z" style="fill:rgb(182,109,64);fill-rule:nonzero;stroke:black;stroke-width:3.95px;"/>
                </g>
                <g transform="matrix(1.11983,0,0,1.11983,-1947.07,-36.6233)">
                    <path d="M1905.95,289.255C1905.95,282.716 1900.65,277.408 1894.11,277.408L1870.41,277.408C1863.88,277.408 1858.57,282.716 1858.57,289.255L1858.57,312.949C1858.57,319.487 1863.88,324.796 1870.41,324.796L1894.11,324.796C1900.65,324.796 1905.95,319.487 1905.95,312.949L1905.95,289.255Z" style="fill:rgb(182,109,64);stroke:black;stroke-width:3.57px;stroke-linecap:round;stroke-miterlimit:1.5;"/>
                </g>
                <g transform="matrix(-1.25971,-0.111357,-0.111357,1.25971,170.166,302.852)">
                    <path d="M-33.291,-6.022C-33.184,-7.228 -32.174,-8.152 -30.964,-8.152C-25.043,-8.152 -8.45,-8.152 -2.061,-8.152C-1.406,-8.152 -0.781,-7.877 -0.339,-7.393C0.104,-6.91 0.323,-6.263 0.265,-5.61C0.073,-3.433 -0.203,-0.312 -0.395,1.865C-0.453,2.518 -0.782,3.117 -1.303,3.515C-1.823,3.913 -2.487,4.074 -3.132,3.959C-9.421,2.839 -25.757,-0.072 -31.586,-1.111C-32.778,-1.323 -33.61,-2.411 -33.503,-3.616C-33.435,-4.385 -33.359,-5.253 -33.291,-6.022Z" style="fill:rgb(182,109,64);fill-rule:nonzero;"/>
                </g>
                <g transform="matrix(1.85705,0,0,1.85705,62.9192,205.885)">
                    <ellipse cx="79.529" cy="50.955" rx="1.586" ry="2.681" style="fill-opacity:0.67;stroke:black;stroke-width:0.81px;stroke-linecap:round;stroke-miterlimit:1.5;"/>
                </g>
            </g>
            <g transform="matrix(0.644826,0,0,0.644826,-913.756,-143.599)">
                <g id="Layer3">
                    <path d="M1905.95,289.255C1905.95,282.716 1900.65,277.408 1894.11,277.408L1870.41,277.408C1863.88,277.408 1858.57,282.716 1858.57,289.255L1858.57,312.949C1858.57,319.487 1863.88,324.796 1870.41,324.796L1894.11,324.796C1900.65,324.796 1905.95,319.487 1905.95,312.949L1905.95,289.255Z" style="fill:none;stroke:white;stroke-opacity:0.4;stroke-width:9.01px;stroke-linecap:round;stroke-miterlimit:1.5;"/>
                </g>
            </g>
        </g>
    </g>
</svg>
