<?xml version="1.0" encoding="UTF-8" standalone="no"?>
<!DOCTYPE svg PUBLIC "-//W3C//DTD SVG 1.1//EN" "http://www.w3.org/Graphics/SVG/1.1/DTD/svg11.dtd">
<svg width="100%" height="100%" viewBox="0 0 220 220" version="1.1" xmlns="http://www.w3.org/2000/svg" xmlns:xlink="http://www.w3.org/1999/xlink" xml:space="preserve" xmlns:serif="http://www.serif.com/" style="fill-rule:evenodd;clip-rule:evenodd;stroke-linecap:round;stroke-linejoin:round;stroke-miterlimit:10;">
    <g transform="matrix(1,0,0,1,-742.5,-247.5)">
        <g id="Page-9" serif:id="Page 9" transform="matrix(1,0,0,1,742.5,247.5)">
            <rect x="0" y="0" width="220" height="220" style="fill:none;"/>
            <clipPath id="_clip1">
                <rect x="0" y="0" width="220" height="220"/>
            </clipPath>
            <g clip-path="url(#_clip1)">
                <g id="Quarry">
                    <g transform="matrix(0.243209,0,0,0.243209,18.7972,81.3623)">
                        <path d="M202.71,25.14L146.87,63.63C151.633,64.151 155.319,68.151 155.45,72.94L155.38,200.28C155.419,202.774 154.155,205.049 152.16,206.55L208,168.06C210.044,166.639 211.249,164.289 211.21,161.8L211.29,34.45C211.151,29.664 207.469,25.669 202.71,25.14Z" style="fill:rgb(137,137,137);fill-rule:nonzero;"/>
                        <path d="M73.21,12.13C71.32,11.918 69.416,12.386 67.84,13.45L12,51.94C13.579,50.874 15.477,50.405 17.37,50.62L146.87,63.63L202.72,25.13L73.21,12.13Z" style="fill:rgb(160,160,160);fill-rule:nonzero;"/>
                        <path d="M146.87,63.63C151.633,64.151 155.319,68.151 155.45,72.94L155.38,200.28C155.38,200.306 155.38,200.332 155.38,200.358C155.38,204.516 151.959,207.938 147.8,207.938C147.462,207.938 147.125,207.915 146.79,207.87L17.29,194.87C12.527,194.346 8.84,190.35 8.7,185.56L8.78,58.2C8.78,58.174 8.78,58.147 8.78,58.121C8.78,53.968 12.197,50.551 16.35,50.551C16.691,50.551 17.032,50.574 17.37,50.62L146.87,63.63Z" style="fill:rgb(175,175,175);fill-rule:nonzero;"/>
                        <path d="M211,153.45C210.633,155.316 209.558,156.969 208,158.06L152.15,196.55C150.567,197.634 148.646,198.113 146.74,197.9L17.24,184.9C12.516,184.385 8.844,180.448 8.66,175.7L8.66,185.59C8.8,190.38 12.487,194.376 17.25,194.9L146.75,207.9C148.656,208.113 150.577,207.634 152.16,206.55L208,168.06C210.044,166.639 211.249,164.289 211.21,161.8L211.21,153.45L211,153.45Z" style="fill-opacity:0.06;fill-rule:nonzero;"/>
                        <path d="M205.71,149.7L180.9,165.07C180.557,165.28 180.162,165.392 179.76,165.392C178.567,165.392 177.584,164.413 177.58,163.22L177.58,159.05C177.57,158.303 177.949,157.601 178.58,157.2L203.39,141.83C203.735,141.615 204.133,141.5 204.54,141.5C205.73,141.5 206.71,142.48 206.71,143.67L206.71,147.85C206.714,148.596 206.336,149.295 205.71,149.7Z" style="fill:rgb(160,160,160);"/>
                        <path d="M177.58,71.73L177.58,67.588C177.58,66.397 176.6,65.418 175.41,65.418C174.995,65.418 174.589,65.536 174.24,65.76L161.17,74.08C160.547,74.483 160.169,75.177 160.17,75.92L160.17,80.05C160.173,81.244 161.156,82.224 162.35,82.224C162.76,82.224 163.163,82.108 163.51,81.89L176.58,73.56C177.203,73.161 177.581,72.47 177.58,71.73Z" style="fill:rgb(160,160,160);"/>
                        <g>
                            <clipPath id="_clip2">
                                <path d="M107.69,39.34L110.47,32.26L158.59,36.38L155.81,43.46L107.69,39.34Z"/>
                            </clipPath>
                            <g clip-path="url(#_clip2)">
                                <path d="M153.1,35.91L116,32.73C113,32.47 109.9,33.83 109.14,35.73L109.14,35.8C108.38,37.74 110.21,39.52 113.25,39.8L150.33,43C153.33,43.26 156.43,41.9 157.19,40L157.19,39.93C157.94,38 156.1,36.22 153.07,35.93" style="fill:rgb(175,175,175);fill-rule:nonzero;"/>
                            </g>
                        </g>
                        <g transform="matrix(0.999038,0.113761,-0.085661,0.752267,-48.5344,4.54838)">
                            <path d="M136.857,90.732C136.857,86.729 134.41,83.479 131.396,83.479L90.62,83.479C87.606,83.479 85.158,86.729 85.158,90.732C85.158,94.735 87.606,97.984 90.62,97.984L131.396,97.984C134.41,97.984 136.857,94.735 136.857,90.732Z" style="fill:rgb(191,191,191);"/>
                        </g>
                        <g transform="matrix(0.999038,0.113761,-0.085661,0.752267,9.63624,97.5321)">
                            <path d="M136.857,90.732C136.857,86.729 134.41,83.479 131.396,83.479L90.62,83.479C87.606,83.479 85.158,86.729 85.158,90.732C85.158,94.735 87.606,97.984 90.62,97.984L131.396,97.984C134.41,97.984 136.857,94.735 136.857,90.732Z" style="fill:rgb(191,191,191);"/>
                        </g>
                        <g transform="matrix(0.848416,0.0966096,-0.085661,0.752267,-14.5698,26.9563)">
                            <path d="M136.857,90.732C136.857,86.729 133.976,83.479 130.427,83.479L91.589,83.479C88.04,83.479 85.158,86.729 85.158,90.732C85.158,94.735 88.04,97.984 91.589,97.984L130.427,97.984C133.976,97.984 136.857,94.735 136.857,90.732Z" style="fill:rgb(191,191,191);"/>
                        </g>
                    </g>
                    <g transform="matrix(0.243209,0,0,0.243209,61.0692,85.8693)">
                        <path d="M202.71,25.14L146.87,63.63C151.633,64.151 155.319,68.151 155.45,72.94L155.38,200.28C155.419,202.774 154.155,205.049 152.16,206.55L208,168.06C210.044,166.639 211.249,164.289 211.21,161.8L211.29,34.45C211.151,29.664 207.469,25.669 202.71,25.14Z" style="fill:rgb(137,137,137);fill-rule:nonzero;"/>
                        <path d="M73.21,12.13C71.32,11.918 69.416,12.386 67.84,13.45L12,51.94C13.579,50.874 15.477,50.405 17.37,50.62L146.87,63.63L202.72,25.13L73.21,12.13Z" style="fill:rgb(160,160,160);fill-rule:nonzero;"/>
                        <path d="M146.87,63.63C151.633,64.151 155.319,68.151 155.45,72.94L155.38,200.28C155.38,200.306 155.38,200.332 155.38,200.358C155.38,204.516 151.959,207.938 147.8,207.938C147.462,207.938 147.125,207.915 146.79,207.87L17.29,194.87C12.527,194.346 8.84,190.35 8.7,185.56L8.78,58.2C8.78,58.174 8.78,58.147 8.78,58.121C8.78,53.968 12.197,50.551 16.35,50.551C16.691,50.551 17.032,50.574 17.37,50.62L146.87,63.63Z" style="fill:rgb(175,175,175);fill-rule:nonzero;"/>
                        <path d="M211,153.45C210.633,155.316 209.558,156.969 208,158.06L152.15,196.55C150.567,197.634 148.646,198.113 146.74,197.9L17.24,184.9C12.516,184.385 8.844,180.448 8.66,175.7L8.66,185.59C8.8,190.38 12.487,194.376 17.25,194.9L146.75,207.9C148.656,208.113 150.577,207.634 152.16,206.55L208,168.06C210.044,166.639 211.249,164.289 211.21,161.8L211.21,153.45L211,153.45Z" style="fill-opacity:0.06;fill-rule:nonzero;"/>
                        <path d="M205.71,149.7L180.9,165.07C180.557,165.28 180.162,165.392 179.76,165.392C178.567,165.392 177.584,164.413 177.58,163.22L177.58,159.05C177.57,158.303 177.949,157.601 178.58,157.2L203.39,141.83C203.735,141.615 204.133,141.5 204.54,141.5C205.73,141.5 206.71,142.48 206.71,143.67L206.71,147.85C206.714,148.596 206.336,149.295 205.71,149.7Z" style="fill:rgb(160,160,160);"/>
                        <path d="M177.58,71.73L177.58,67.588C177.58,66.397 176.6,65.418 175.41,65.418C174.995,65.418 174.589,65.536 174.24,65.76L161.17,74.08C160.547,74.483 160.169,75.177 160.17,75.92L160.17,80.05C160.173,81.244 161.156,82.224 162.35,82.224C162.76,82.224 163.163,82.108 163.51,81.89L176.58,73.56C177.203,73.161 177.581,72.47 177.58,71.73Z" style="fill:rgb(160,160,160);"/>
                        <g>
                            <clipPath id="_clip3">
                                <path d="M107.69,39.34L110.47,32.26L158.59,36.38L155.81,43.46L107.69,39.34Z"/>
                            </clipPath>
                            <g clip-path="url(#_clip3)">
                                <path d="M153.1,35.91L116,32.73C113,32.47 109.9,33.83 109.14,35.73L109.14,35.8C108.38,37.74 110.21,39.52 113.25,39.8L150.33,43C153.33,43.26 156.43,41.9 157.19,40L157.19,39.93C157.94,38 156.1,36.22 153.07,35.93" style="fill:rgb(175,175,175);fill-rule:nonzero;"/>
                            </g>
                        </g>
                        <g transform="matrix(0.999038,0.113761,-0.085661,0.752267,-48.5344,4.54838)">
                            <path d="M136.857,90.732C136.857,86.729 134.41,83.479 131.396,83.479L90.62,83.479C87.606,83.479 85.158,86.729 85.158,90.732C85.158,94.735 87.606,97.984 90.62,97.984L131.396,97.984C134.41,97.984 136.857,94.735 136.857,90.732Z" style="fill:rgb(191,191,191);"/>
                        </g>
                        <g transform="matrix(0.999038,0.113761,-0.085661,0.752267,9.63624,97.5321)">
                            <path d="M136.857,90.732C136.857,86.729 134.41,83.479 131.396,83.479L90.62,83.479C87.606,83.479 85.158,86.729 85.158,90.732C85.158,94.735 87.606,97.984 90.62,97.984L131.396,97.984C134.41,97.984 136.857,94.735 136.857,90.732Z" style="fill:rgb(191,191,191);"/>
                        </g>
                        <g transform="matrix(0.848416,0.0966096,-0.085661,0.752267,-14.5698,26.9563)">
                            <path d="M136.857,90.732C136.857,86.729 133.976,83.479 130.427,83.479L91.589,83.479C88.04,83.479 85.158,86.729 85.158,90.732C85.158,94.735 88.04,97.984 91.589,97.984L130.427,97.984C133.976,97.984 136.857,94.735 136.857,90.732Z" style="fill:rgb(191,191,191);"/>
                        </g>
                    </g>
                    <g transform="matrix(0.243209,0,0,0.243209,103.708,89.8173)">
                        <path d="M202.71,25.14L146.87,63.63C151.633,64.151 155.319,68.151 155.45,72.94L155.38,200.28C155.419,202.774 154.155,205.049 152.16,206.55L208,168.06C210.044,166.639 211.249,164.289 211.21,161.8L211.29,34.45C211.151,29.664 207.469,25.669 202.71,25.14Z" style="fill:rgb(137,137,137);fill-rule:nonzero;"/>
                        <path d="M73.21,12.13C71.32,11.918 69.416,12.386 67.84,13.45L12,51.94C13.579,50.874 15.477,50.405 17.37,50.62L146.87,63.63L202.72,25.13L73.21,12.13Z" style="fill:rgb(160,160,160);fill-rule:nonzero;"/>
                        <path d="M146.87,63.63C151.633,64.151 155.319,68.151 155.45,72.94L155.38,200.28C155.38,200.306 155.38,200.332 155.38,200.358C155.38,204.516 151.959,207.938 147.8,207.938C147.462,207.938 147.125,207.915 146.79,207.87L17.29,194.87C12.527,194.346 8.84,190.35 8.7,185.56L8.78,58.2C8.78,58.174 8.78,58.147 8.78,58.121C8.78,53.968 12.197,50.551 16.35,50.551C16.691,50.551 17.032,50.574 17.37,50.62L146.87,63.63Z" style="fill:rgb(175,175,175);fill-rule:nonzero;"/>
                        <path d="M211,153.45C210.633,155.316 209.558,156.969 208,158.06L152.15,196.55C150.567,197.634 148.646,198.113 146.74,197.9L17.24,184.9C12.516,184.385 8.844,180.448 8.66,175.7L8.66,185.59C8.8,190.38 12.487,194.376 17.25,194.9L146.75,207.9C148.656,208.113 150.577,207.634 152.16,206.55L208,168.06C210.044,166.639 211.249,164.289 211.21,161.8L211.21,153.45L211,153.45Z" style="fill-opacity:0.06;fill-rule:nonzero;"/>
                        <path d="M205.71,149.7L180.9,165.07C180.557,165.28 180.162,165.392 179.76,165.392C178.567,165.392 177.584,164.413 177.58,163.22L177.58,159.05C177.57,158.303 177.949,157.601 178.58,157.2L203.39,141.83C203.735,141.615 204.133,141.5 204.54,141.5C205.73,141.5 206.71,142.48 206.71,143.67L206.71,147.85C206.714,148.596 206.336,149.295 205.71,149.7Z" style="fill:rgb(160,160,160);"/>
                        <path d="M177.58,71.73L177.58,67.588C177.58,66.397 176.6,65.418 175.41,65.418C174.995,65.418 174.589,65.536 174.24,65.76L161.17,74.08C160.547,74.483 160.169,75.177 160.17,75.92L160.17,80.05C160.173,81.244 161.156,82.224 162.35,82.224C162.76,82.224 163.163,82.108 163.51,81.89L176.58,73.56C177.203,73.161 177.581,72.47 177.58,71.73Z" style="fill:rgb(160,160,160);"/>
                        <g>
                            <clipPath id="_clip4">
                                <path d="M107.69,39.34L110.47,32.26L158.59,36.38L155.81,43.46L107.69,39.34Z"/>
                            </clipPath>
                            <g clip-path="url(#_clip4)">
                                <path d="M153.1,35.91L116,32.73C113,32.47 109.9,33.83 109.14,35.73L109.14,35.8C108.38,37.74 110.21,39.52 113.25,39.8L150.33,43C153.33,43.26 156.43,41.9 157.19,40L157.19,39.93C157.94,38 156.1,36.22 153.07,35.93" style="fill:rgb(175,175,175);fill-rule:nonzero;"/>
                            </g>
                        </g>
                        <g transform="matrix(0.999038,0.113761,-0.085661,0.752267,-48.5344,4.54838)">
                            <path d="M136.857,90.732C136.857,86.729 134.41,83.479 131.396,83.479L90.62,83.479C87.606,83.479 85.158,86.729 85.158,90.732C85.158,94.735 87.606,97.984 90.62,97.984L131.396,97.984C134.41,97.984 136.857,94.735 136.857,90.732Z" style="fill:rgb(191,191,191);"/>
                        </g>
                        <g transform="matrix(0.999038,0.113761,-0.085661,0.752267,9.63624,97.5321)">
                            <path d="M136.857,90.732C136.857,86.729 134.41,83.479 131.396,83.479L90.62,83.479C87.606,83.479 85.158,86.729 85.158,90.732C85.158,94.735 87.606,97.984 90.62,97.984L131.396,97.984C134.41,97.984 136.857,94.735 136.857,90.732Z" style="fill:rgb(191,191,191);"/>
                        </g>
                        <g transform="matrix(0.848416,0.0966096,-0.085661,0.752267,-14.5698,26.9563)">
                            <path d="M136.857,90.732C136.857,86.729 133.976,83.479 130.427,83.479L91.589,83.479C88.04,83.479 85.158,86.729 85.158,90.732C85.158,94.735 88.04,97.984 91.589,97.984L130.427,97.984C133.976,97.984 136.857,94.735 136.857,90.732Z" style="fill:rgb(191,191,191);"/>
                        </g>
                    </g>
                    <g transform="matrix(0.243209,0,0,0.243209,39.5479,44.6364)">
                        <path d="M202.71,25.14L146.87,63.63C151.633,64.151 155.319,68.151 155.45,72.94L155.38,200.28C155.419,202.774 154.155,205.049 152.16,206.55L208,168.06C210.044,166.639 211.249,164.289 211.21,161.8L211.29,34.45C211.151,29.664 207.469,25.669 202.71,25.14Z" style="fill:rgb(137,137,137);fill-rule:nonzero;"/>
                        <path d="M73.21,12.13C71.32,11.918 69.416,12.386 67.84,13.45L12,51.94C13.579,50.874 15.477,50.405 17.37,50.62L146.87,63.63L202.72,25.13L73.21,12.13Z" style="fill:rgb(160,160,160);fill-rule:nonzero;"/>
                        <path d="M146.87,63.63C151.633,64.151 155.319,68.151 155.45,72.94L155.38,200.28C155.38,200.306 155.38,200.332 155.38,200.358C155.38,204.516 151.959,207.938 147.8,207.938C147.462,207.938 147.125,207.915 146.79,207.87L17.29,194.87C12.527,194.346 8.84,190.35 8.7,185.56L8.78,58.2C8.78,58.174 8.78,58.147 8.78,58.121C8.78,53.968 12.197,50.551 16.35,50.551C16.691,50.551 17.032,50.574 17.37,50.62L146.87,63.63Z" style="fill:rgb(175,175,175);fill-rule:nonzero;"/>
                        <path d="M211,153.45C210.633,155.316 209.558,156.969 208,158.06L152.15,196.55C150.567,197.634 148.646,198.113 146.74,197.9L17.24,184.9C12.516,184.385 8.844,180.448 8.66,175.7L8.66,185.59C8.8,190.38 12.487,194.376 17.25,194.9L146.75,207.9C148.656,208.113 150.577,207.634 152.16,206.55L208,168.06C210.044,166.639 211.249,164.289 211.21,161.8L211.21,153.45L211,153.45Z" style="fill-opacity:0.06;fill-rule:nonzero;"/>
                        <path d="M205.71,149.7L180.9,165.07C180.557,165.28 180.162,165.392 179.76,165.392C178.567,165.392 177.584,164.413 177.58,163.22L177.58,159.05C177.57,158.303 177.949,157.601 178.58,157.2L203.39,141.83C203.735,141.615 204.133,141.5 204.54,141.5C205.73,141.5 206.71,142.48 206.71,143.67L206.71,147.85C206.714,148.596 206.336,149.295 205.71,149.7Z" style="fill:rgb(160,160,160);"/>
                        <path d="M177.58,71.73L177.58,67.588C177.58,66.397 176.6,65.418 175.41,65.418C174.995,65.418 174.589,65.536 174.24,65.76L161.17,74.08C160.547,74.483 160.169,75.177 160.17,75.92L160.17,80.05C160.173,81.244 161.156,82.224 162.35,82.224C162.76,82.224 163.163,82.108 163.51,81.89L176.58,73.56C177.203,73.161 177.581,72.47 177.58,71.73Z" style="fill:rgb(160,160,160);"/>
                        <g>
                            <clipPath id="_clip5">
                                <path d="M107.69,39.34L110.47,32.26L158.59,36.38L155.81,43.46L107.69,39.34Z"/>
                            </clipPath>
                            <g clip-path="url(#_clip5)">
                                <path d="M153.1,35.91L116,32.73C113,32.47 109.9,33.83 109.14,35.73L109.14,35.8C108.38,37.74 110.21,39.52 113.25,39.8L150.33,43C153.33,43.26 156.43,41.9 157.19,40L157.19,39.93C157.94,38 156.1,36.22 153.07,35.93" style="fill:rgb(175,175,175);fill-rule:nonzero;"/>
                            </g>
                        </g>
                        <g transform="matrix(0.999038,0.113761,-0.085661,0.752267,-48.5344,4.54838)">
                            <path d="M136.857,90.732C136.857,86.729 134.41,83.479 131.396,83.479L90.62,83.479C87.606,83.479 85.158,86.729 85.158,90.732C85.158,94.735 87.606,97.984 90.62,97.984L131.396,97.984C134.41,97.984 136.857,94.735 136.857,90.732Z" style="fill:rgb(191,191,191);"/>
                        </g>
                        <g transform="matrix(0.999038,0.113761,-0.085661,0.752267,9.63624,97.5321)">
                            <path d="M136.857,90.732C136.857,86.729 134.41,83.479 131.396,83.479L90.62,83.479C87.606,83.479 85.158,86.729 85.158,90.732C85.158,94.735 87.606,97.984 90.62,97.984L131.396,97.984C134.41,97.984 136.857,94.735 136.857,90.732Z" style="fill:rgb(191,191,191);"/>
                        </g>
                        <g transform="matrix(0.848416,0.0966096,-0.085661,0.752267,-14.5698,26.9563)">
                            <path d="M136.857,90.732C136.857,86.729 133.976,83.479 130.427,83.479L91.589,83.479C88.04,83.479 85.158,86.729 85.158,90.732C85.158,94.735 88.04,97.984 91.589,97.984L130.427,97.984C133.976,97.984 136.857,94.735 136.857,90.732Z" style="fill:rgb(191,191,191);"/>
                        </g>
                    </g>
                    <g transform="matrix(0.243209,0,0,0.243209,86.3365,50.3847)">
                        <path d="M202.71,25.14L146.87,63.63C151.633,64.151 155.319,68.151 155.45,72.94L155.38,200.28C155.419,202.774 154.155,205.049 152.16,206.55L208,168.06C210.044,166.639 211.249,164.289 211.21,161.8L211.29,34.45C211.151,29.664 207.469,25.669 202.71,25.14Z" style="fill:rgb(137,137,137);fill-rule:nonzero;"/>
                        <path d="M73.21,12.13C71.32,11.918 69.416,12.386 67.84,13.45L12,51.94C13.579,50.874 15.477,50.405 17.37,50.62L146.87,63.63L202.72,25.13L73.21,12.13Z" style="fill:rgb(160,160,160);fill-rule:nonzero;"/>
                        <path d="M146.87,63.63C151.633,64.151 155.319,68.151 155.45,72.94L155.38,200.28C155.38,200.306 155.38,200.332 155.38,200.358C155.38,204.516 151.959,207.938 147.8,207.938C147.462,207.938 147.125,207.915 146.79,207.87L17.29,194.87C12.527,194.346 8.84,190.35 8.7,185.56L8.78,58.2C8.78,58.174 8.78,58.147 8.78,58.121C8.78,53.968 12.197,50.551 16.35,50.551C16.691,50.551 17.032,50.574 17.37,50.62L146.87,63.63Z" style="fill:rgb(175,175,175);fill-rule:nonzero;"/>
                        <path d="M211,153.45C210.633,155.316 209.558,156.969 208,158.06L152.15,196.55C150.567,197.634 148.646,198.113 146.74,197.9L17.24,184.9C12.516,184.385 8.844,180.448 8.66,175.7L8.66,185.59C8.8,190.38 12.487,194.376 17.25,194.9L146.75,207.9C148.656,208.113 150.577,207.634 152.16,206.55L208,168.06C210.044,166.639 211.249,164.289 211.21,161.8L211.21,153.45L211,153.45Z" style="fill-opacity:0.06;fill-rule:nonzero;"/>
                        <path d="M205.71,149.7L180.9,165.07C180.557,165.28 180.162,165.392 179.76,165.392C178.567,165.392 177.584,164.413 177.58,163.22L177.58,159.05C177.57,158.303 177.949,157.601 178.58,157.2L203.39,141.83C203.735,141.615 204.133,141.5 204.54,141.5C205.73,141.5 206.71,142.48 206.71,143.67L206.71,147.85C206.714,148.596 206.336,149.295 205.71,149.7Z" style="fill:rgb(160,160,160);"/>
                        <path d="M177.58,71.73L177.58,67.588C177.58,66.397 176.6,65.418 175.41,65.418C174.995,65.418 174.589,65.536 174.24,65.76L161.17,74.08C160.547,74.483 160.169,75.177 160.17,75.92L160.17,80.05C160.173,81.244 161.156,82.224 162.35,82.224C162.76,82.224 163.163,82.108 163.51,81.89L176.58,73.56C177.203,73.161 177.581,72.47 177.58,71.73Z" style="fill:rgb(160,160,160);"/>
                        <g>
                            <clipPath id="_clip6">
                                <path d="M107.69,39.34L110.47,32.26L158.59,36.38L155.81,43.46L107.69,39.34Z"/>
                            </clipPath>
                            <g clip-path="url(#_clip6)">
                                <path d="M153.1,35.91L116,32.73C113,32.47 109.9,33.83 109.14,35.73L109.14,35.8C108.38,37.74 110.21,39.52 113.25,39.8L150.33,43C153.33,43.26 156.43,41.9 157.19,40L157.19,39.93C157.94,38 156.1,36.22 153.07,35.93" style="fill:rgb(175,175,175);fill-rule:nonzero;"/>
                            </g>
                        </g>
                        <g transform="matrix(0.999038,0.113761,-0.085661,0.752267,-48.5344,4.54838)">
                            <path d="M136.857,90.732C136.857,86.729 134.41,83.479 131.396,83.479L90.62,83.479C87.606,83.479 85.158,86.729 85.158,90.732C85.158,94.735 87.606,97.984 90.62,97.984L131.396,97.984C134.41,97.984 136.857,94.735 136.857,90.732Z" style="fill:rgb(191,191,191);"/>
                        </g>
                        <g transform="matrix(0.999038,0.113761,-0.085661,0.752267,9.63624,97.5321)">
                            <path d="M136.857,90.732C136.857,86.729 134.41,83.479 131.396,83.479L90.62,83.479C87.606,83.479 85.158,86.729 85.158,90.732C85.158,94.735 87.606,97.984 90.62,97.984L131.396,97.984C134.41,97.984 136.857,94.735 136.857,90.732Z" style="fill:rgb(191,191,191);"/>
                        </g>
                        <g transform="matrix(0.848416,0.0966096,-0.085661,0.752267,-14.5698,26.9563)">
                            <path d="M136.857,90.732C136.857,86.729 133.976,83.479 130.427,83.479L91.589,83.479C88.04,83.479 85.158,86.729 85.158,90.732C85.158,94.735 88.04,97.984 91.589,97.984L130.427,97.984C133.976,97.984 136.857,94.735 136.857,90.732Z" style="fill:rgb(191,191,191);"/>
                        </g>
                    </g>
                    <g transform="matrix(0.243209,0,0,0.243209,65.3836,10.8952)">
                        <path d="M202.71,25.14L146.87,63.63C151.633,64.151 155.319,68.151 155.45,72.94L155.38,200.28C155.419,202.774 154.155,205.049 152.16,206.55L208,168.06C210.044,166.639 211.249,164.289 211.21,161.8L211.29,34.45C211.151,29.664 207.469,25.669 202.71,25.14Z" style="fill:rgb(137,137,137);fill-rule:nonzero;"/>
                        <path d="M73.21,12.13C71.32,11.918 69.416,12.386 67.84,13.45L12,51.94C13.579,50.874 15.477,50.405 17.37,50.62L146.87,63.63L202.72,25.13L73.21,12.13Z" style="fill:rgb(160,160,160);fill-rule:nonzero;"/>
                        <path d="M146.87,63.63C151.633,64.151 155.319,68.151 155.45,72.94L155.38,200.28C155.38,200.306 155.38,200.332 155.38,200.358C155.38,204.516 151.959,207.938 147.8,207.938C147.462,207.938 147.125,207.915 146.79,207.87L17.29,194.87C12.527,194.346 8.84,190.35 8.7,185.56L8.78,58.2C8.78,58.174 8.78,58.147 8.78,58.121C8.78,53.968 12.197,50.551 16.35,50.551C16.691,50.551 17.032,50.574 17.37,50.62L146.87,63.63Z" style="fill:rgb(175,175,175);fill-rule:nonzero;"/>
                        <path d="M211,153.45C210.633,155.316 209.558,156.969 208,158.06L152.15,196.55C150.567,197.634 148.646,198.113 146.74,197.9L17.24,184.9C12.516,184.385 8.844,180.448 8.66,175.7L8.66,185.59C8.8,190.38 12.487,194.376 17.25,194.9L146.75,207.9C148.656,208.113 150.577,207.634 152.16,206.55L208,168.06C210.044,166.639 211.249,164.289 211.21,161.8L211.21,153.45L211,153.45Z" style="fill-opacity:0.06;fill-rule:nonzero;"/>
                        <path d="M205.71,149.7L180.9,165.07C180.557,165.28 180.162,165.392 179.76,165.392C178.567,165.392 177.584,164.413 177.58,163.22L177.58,159.05C177.57,158.303 177.949,157.601 178.58,157.2L203.39,141.83C203.735,141.615 204.133,141.5 204.54,141.5C205.73,141.5 206.71,142.48 206.71,143.67L206.71,147.85C206.714,148.596 206.336,149.295 205.71,149.7Z" style="fill:rgb(160,160,160);"/>
                        <path d="M177.58,71.73L177.58,67.588C177.58,66.397 176.6,65.418 175.41,65.418C174.995,65.418 174.589,65.536 174.24,65.76L161.17,74.08C160.547,74.483 160.169,75.177 160.17,75.92L160.17,80.05C160.173,81.244 161.156,82.224 162.35,82.224C162.76,82.224 163.163,82.108 163.51,81.89L176.58,73.56C177.203,73.161 177.581,72.47 177.58,71.73Z" style="fill:rgb(160,160,160);"/>
                        <g>
                            <clipPath id="_clip7">
                                <path d="M107.69,39.34L110.47,32.26L158.59,36.38L155.81,43.46L107.69,39.34Z"/>
                            </clipPath>
                            <g clip-path="url(#_clip7)">
                                <path d="M153.1,35.91L116,32.73C113,32.47 109.9,33.83 109.14,35.73L109.14,35.8C108.38,37.74 110.21,39.52 113.25,39.8L150.33,43C153.33,43.26 156.43,41.9 157.19,40L157.19,39.93C157.94,38 156.1,36.22 153.07,35.93" style="fill:rgb(175,175,175);fill-rule:nonzero;"/>
                            </g>
                        </g>
                        <g transform="matrix(0.999038,0.113761,-0.085661,0.752267,-48.5344,4.54838)">
                            <path d="M136.857,90.732C136.857,86.729 134.41,83.479 131.396,83.479L90.62,83.479C87.606,83.479 85.158,86.729 85.158,90.732C85.158,94.735 87.606,97.984 90.62,97.984L131.396,97.984C134.41,97.984 136.857,94.735 136.857,90.732Z" style="fill:rgb(191,191,191);"/>
                        </g>
                        <g transform="matrix(0.999038,0.113761,-0.085661,0.752267,9.63624,97.5321)">
                            <path d="M136.857,90.732C136.857,86.729 134.41,83.479 131.396,83.479L90.62,83.479C87.606,83.479 85.158,86.729 85.158,90.732C85.158,94.735 87.606,97.984 90.62,97.984L131.396,97.984C134.41,97.984 136.857,94.735 136.857,90.732Z" style="fill:rgb(191,191,191);"/>
                        </g>
                        <g transform="matrix(0.848416,0.0966096,-0.085661,0.752267,-14.5698,26.9563)">
                            <path d="M136.857,90.732C136.857,86.729 133.976,83.479 130.427,83.479L91.589,83.479C88.04,83.479 85.158,86.729 85.158,90.732C85.158,94.735 88.04,97.984 91.589,97.984L130.427,97.984C133.976,97.984 136.857,94.735 136.857,90.732Z" style="fill:rgb(191,191,191);"/>
                        </g>
                    </g>
                    <g transform="matrix(1,0,0,1,214.806,220)">
                        <path d="M0,-103.897L-72.304,-103.897C-74.8,-103.897 -77.099,-102.196 -78.316,-99.45C-80.581,-94.347 -84.284,-90.242 -88.688,-88.383C-92.734,-86.676 -97.133,-86.772 -101.237,-85.3C-101.952,-85.044 -102.657,-84.741 -103.351,-84.402C-108.006,-82.126 -112.08,-78.403 -116.646,-75.967C-118.127,-75.177 -119.067,-73.313 -119.067,-71.285L-119.067,-6.545C-119.067,-2.93 -116.742,0 -113.873,0L-6.309,-0.417C-1.871,-0.434 1.775,-4.834 1.982,-10.418L5.194,-97.351C5.194,-100.966 2.869,-103.897 0,-103.897" style="fill:rgb(213,213,213);fill-rule:nonzero;"/>
                    </g>
                    <g transform="matrix(1,0,0,1,214.806,219.552)">
                        <path d="M0,-103.449L-5.483,-103.449L-35.935,-28.25L-9.354,0L-5.839,0C-1.617,-0.313 1.783,-4.585 1.982,-9.97L5.194,-96.903C5.194,-100.518 2.869,-103.449 0,-103.449" style="fill:rgb(175,175,175);fill-rule:nonzero;"/>
                    </g>
                    <g transform="matrix(1,0,0,1,100.933,191.302)">
                        <path d="M0,28.698L104.158,28.294L104.519,28.25L77.938,0L-5.194,22.153C-5.194,25.767 -2.869,28.698 0,28.698" style="fill:rgb(160,160,160);fill-rule:nonzero;"/>
                    </g>
                    <g transform="matrix(-0.740625,-0.671919,-0.671919,0.740625,133.232,180.566)">
                        <path d="M-7.168,-18.57C-5.132,-18.57 -3.482,-13.794 -3.481,-7.902C-3.482,-2.01 -5.132,2.768 -7.168,2.768C-9.204,2.767 -10.855,-2.01 -10.855,-7.902C-10.854,-13.793 -9.204,-18.571 -7.168,-18.57" style="fill:rgb(175,175,175);fill-rule:nonzero;"/>
                    </g>
                    <g transform="matrix(1,0,0,1,140.632,128.404)">
                        <path d="M0,53.11L-30.841,30.33C-33.687,28.227 -36.895,26.635 -40.384,25.593L-54.228,21.46C-54.494,21.415 -59.432,20.048 -59.64,17.951C-59.805,16.29 -58.424,14.424 -57.849,13.711L-49.358,2.588C-47.683,0.393 -45.049,-0.513 -43.249,0.485C-39.16,2.753 -35.07,5.019 -30.981,7.286C-26.576,9.728 -22.851,13.15 -19.979,17.403C-12.48,28.506 2.688,49.846 2.688,49.846C2.688,49.846 3.181,51.508 2.524,52.368C1.819,53.292 0.694,53.623 0,53.11" style="fill:rgb(206,206,206);fill-rule:nonzero;"/>
                    </g>
                    <g transform="matrix(1,0,0,1,116.016,161.134)">
                        <path d="M0,-14.098C9.285,-1.165 7.426,-0.151 25.727,17.229L27.403,19.032C27.607,18.169 27.304,17.116 27.304,17.116C27.304,17.116 11.978,-4.447 4.521,-15.5C1.69,-19.696 -2.021,-23.036 -6.365,-25.445C-10.454,-27.711 -14.543,-29.979 -18.632,-32.245C-20.229,-33.13 -22.478,-32.513 -24.135,-30.832C-19.753,-29.381 -7.52,-24.571 0,-14.098" style="fill:rgb(234,234,234);fill-rule:nonzero;"/>
                    </g>
                    <g transform="matrix(1,0,0,1,80.9917,170.885)">
                        <path d="M0,-24.53C0.208,-22.432 5.146,-21.066 5.413,-21.021L19.256,-16.887C22.746,-15.845 25.954,-14.254 28.799,-12.151L56.956,8.646C56.988,8.613 57.01,8.59 57.01,8.59C46.874,-3.922 38.118,-9.719 31.786,-12.685C24.668,-16.018 18.846,-22.132 10.553,-22.886C9.689,-22.966 6.706,-23.169 5.283,-25.611C3.989,-27.832 4.533,-30.963 5.154,-33.176L1.791,-28.77C1.216,-28.056 -0.165,-26.191 0,-24.53" style="fill:rgb(128,128,128);fill-rule:nonzero;"/>
                    </g>
                    <g transform="matrix(1,0,0,1,38.3193,129.029)">
                        <path d="M0,86.024L0.538,82.601C0.891,80.357 1.786,78.342 3.165,76.69L69.883,-3.268C70.098,-3.525 70.366,-3.736 70.679,-3.891L71.117,-4.109C73.222,-5.157 76.366,-2.692 75.852,-0.399L75.744,0.08C75.667,0.42 75.527,0.731 75.329,1.002L13.618,84.884C12.342,86.618 10.601,87.967 8.505,88.846L5.31,90.186C2.936,91.181 -0.4,88.567 0,86.024" style="fill:rgb(94,45,11);fill-rule:nonzero;"/>
                    </g>
                    <g transform="matrix(1,0,0,1,113.648,215.773)">
                        <path d="M0,-85.743C0.198,-86.014 0.338,-86.324 0.415,-86.665L0.522,-87.143C0.772,-88.259 0.15,-89.407 -0.79,-90.18L-61.577,-7.553C-62.852,-5.819 -64.594,-4.47 -66.689,-3.591L-69.885,-2.251C-71.598,-1.532 -73.793,-2.703 -74.743,-4.361C-74.755,-4.287 -74.779,-4.218 -74.791,-4.143L-75.329,-0.721C-75.729,1.822 -72.393,4.437 -70.02,3.442L-66.824,2.102C-64.729,1.223 -62.987,-0.127 -61.711,-1.86L0,-85.743Z" style="fill:rgb(109,56,20);fill-rule:nonzero;"/>
                    </g>
                    <g transform="matrix(0.787049,0.616891,0.616891,-0.787049,87.4162,152.051)">
                        <path d="M-0.971,-2.811L8.145,-2.811" style="fill:none;fill-rule:nonzero;stroke:rgb(114,64,5);stroke-width:2.51px;"/>
                    </g>
                    <g transform="matrix(0.787049,0.616891,0.616891,-0.787049,85.9079,153.976)">
                        <path d="M-0.971,-2.811L8.145,-2.811" style="fill:none;fill-rule:nonzero;stroke:rgb(86,45,0);stroke-width:2.51px;"/>
                    </g>
                    <g transform="matrix(-0.800186,0.599752,0.599752,0.800186,93.1219,159.36)">
                        <path d="M-28.44,-9.475L3.157,-9.475" style="fill:none;fill-rule:nonzero;stroke:rgb(140,85,12);stroke-width:2.51px;"/>
                    </g>
                    <g transform="matrix(-0.38393,0.923362,0.923362,0.38393,108.871,156.012)">
                        <path d="M-21.302,-14.212L9.483,-14.212" style="fill:none;fill-rule:nonzero;stroke:rgb(170,116,38);stroke-width:2.51px;"/>
                    </g>
                    <g transform="matrix(0.821625,0.570029,0.570029,-0.821625,105.919,129.221)">
                        <path d="M-0.651,-2.081L6.65,-2.081" style="fill:none;fill-rule:nonzero;stroke:rgb(198,143,70);stroke-width:2.51px;"/>
                    </g>
                </g>
            </g>
        </g>
    </g>
</svg>
