<svg xmlns="http://www.w3.org/2000/svg" viewBox="0 0 220 220"><defs><style>.cls-1{isolation:isolate;}.cls-2{fill:#96b528;}.cls-3{fill:#71890e;}.cls-4{fill:none;stroke:#c9e260;stroke-linecap:round;stroke-miterlimit:10;stroke-width:10px;}.cls-5{fill:#6b4d29;}.cls-6{fill:#513619;}.cls-7{opacity:0.35;}.cls-7,.cls-8{mix-blend-mode:multiply;}.cls-8{opacity:0.15;}</style></defs><g class="cls-1"><g id="Layer_1" data-name="Layer 1"><path class="cls-2" d="M164.91,167.55c-49.12,0-62-47.08-51.88-81.28C133.6,16.79,146.93,5,164.91,5s31.3,11.79,51.88,81.27C226.91,120.47,214,167.55,164.91,167.55Z"/><path class="cls-3" d="M216.79,86.27c-16.42-55.42-28.22-74.14-41.45-79.44,9.72,10,19.47,31,31.85,72.74,10.12,34.19-2.76,81.27-51.88,81.27-10.83,0-19.89-2.29-27.33-6.22,8.77,7.92,20.92,12.93,36.93,12.93C214,167.55,226.91,120.47,216.79,86.27Z"/><path class="cls-4" d="M117.76,128.5a72.18,72.18,0,0,1,.15-40.78C123.12,70.15,127.8,56.53,132.1,46m16.53-29a58.7,58.7,0,0,0-9.07,13"/><path class="cls-5" d="M186.32,126.24h-.07a4,4,0,0,0-4,3.92c0,1.32-.7,12.92-13.38,12.92h0l0-74.77a4.07,4.07,0,0,0-3.58-4.11,4,4,0,0,0-4.35,3.94v51.55c-12.67,0-13.31-11.58-13.35-12.92a4,4,0,0,0-4-3.93h-.05a4,4,0,0,0-3.95,4c.09,7.19,4.66,20.8,21.34,20.8a0,0,0,0,1,0,0v57.8a2.21,2.21,0,0,0,2.2,2.21h3.52a2.21,2.21,0,0,0,2.21-2.21V151.08h.06c16.74,0,21.29-13.7,21.35-20.88A3.92,3.92,0,0,0,186.32,126.24Z"/><path class="cls-6" d="M163.17,64.59a3.94,3.94,0,0,1,2.09-.39,4.07,4.07,0,0,1,3.58,4.11l0,74.45a17.07,17.07,0,0,1-3.42.32l0-74.77A4.18,4.18,0,0,0,163.17,64.59Zm23.15,61.65h-.07a3.94,3.94,0,0,0-1.68.38,3.93,3.93,0,0,1,2.26,3.58c-.06,7.18-4.61,20.88-21.35,20.88h-.06V185.5a2.21,2.21,0,0,1-2.21,2.21h3.42a2.21,2.21,0,0,0,2.21-2.21V151.08h.06c16.74,0,21.29-13.7,21.35-20.88A3.92,3.92,0,0,0,186.32,126.24Zm-42.18-19.47c0,1.34.68,12.92,13.35,12.92v-.32c-9.36-1.88-9.9-11.39-9.93-12.6a4,4,0,0,0-4-3.93h-.05a3.89,3.89,0,0,0-1.66.39A4,4,0,0,1,144.14,106.77Z"/><path class="cls-7" d="M216.79,86.27l-1.36-4.53-.3-1c-.44-1.45-.87-2.87-1.3-4.26l-.21-.66-1.18-3.74c-.08-.23-.15-.46-.22-.69-.43-1.33-.85-2.63-1.27-3.91l-.27-.8c-.41-1.26-.83-2.51-1.24-3.72l0-.12c-.42-1.24-.84-2.45-1.26-3.64-.08-.25-.17-.5-.26-.75-.41-1.16-.81-2.3-1.21-3.41l-.18-.49c-.37-1-.74-2-1.11-3-.06-.19-.13-.37-.2-.56-.4-1-.79-2.08-1.18-3.08l-.24-.61c-.39-1-.78-2-1.16-2.9,0,0,0-.08,0-.12l-1.18-2.84-.24-.57L200,38.26l-.14-.3-1.06-2.35c-.07-.14-.13-.28-.2-.41-.37-.81-.75-1.6-1.12-2.36l-.21-.45c-.37-.74-.73-1.47-1.09-2.17l-.06-.12c-.38-.73-.75-1.44-1.13-2.13l-.22-.41c-.37-.68-.74-1.34-1.11-2l-.1-.17c-.35-.6-.69-1.19-1-1.76l-.19-.31c-.36-.59-.72-1.16-1.08-1.72-.07-.1-.13-.2-.2-.29-.35-.54-.7-1.06-1-1.57l-.07-.09c-.36-.53-.73-1-1.09-1.52l-.21-.28c-.37-.48-.73-.95-1.09-1.4l-.08-.09c-.35-.43-.69-.84-1-1.23l-.18-.21c-.36-.41-.72-.8-1.08-1.18l-.17-.17c-.35-.36-.69-.71-1-1.05l-.08-.07c-.36-.35-.73-.68-1.09-1l-.2-.18c-.37-.31-.73-.61-1.1-.9l0,0c-.36-.28-.72-.54-1.08-.79l-.17-.12c-.37-.26-.73-.5-1.1-.72l-.15-.1c-.36-.21-.71-.42-1.07-.61l-.08,0c-.37-.2-.74-.38-1.11-.56l-.19-.09A26.86,26.86,0,0,0,164.91,5c-18,0-31.31,11.79-51.88,81.27-7,23.7-3,53.59,16.52,69.7l.25.21c.49.4,1,.8,1.51,1.18l.17.13c1.15.85,2.34,1.66,3.59,2.41l.33.2c.52.31,1,.61,1.59.91l.35.19c1.29.69,2.62,1.33,4,1.91l.41.17c.55.23,1.12.45,1.69.66l.53.2c.62.22,1.24.43,1.88.63l.28.1c.74.23,1.49.44,2.26.64l.45.12,1.85.44.68.14c.6.13,1.21.24,1.83.35l.58.11c.81.13,1.63.25,2.45.35l.4,0c.7.08,1.41.15,2.12.21l.81.06,1.35.09V185.5a2.21,2.21,0,0,0,2.2,2.21h3.52a2.21,2.21,0,0,0,2.21-2.21V167.44C214.71,165,226.64,119.53,216.79,86.27Z"/><path class="cls-2" d="M55.09,182.28C6,182.28-6.91,135.2,3.21,101,23.79,31.53,37.12,19.74,55.09,19.74S86.4,31.53,107,101C117.1,135.2,104.21,182.28,55.09,182.28Z"/><path class="cls-3" d="M107,101C90.56,45.58,78.76,26.87,65.53,21.56c9.72,10,19.47,31,31.84,72.74,10.13,34.19-2.76,81.27-51.88,81.27-10.82,0-19.88-2.28-27.33-6.21,8.77,7.92,20.93,12.92,36.93,12.92C104.21,182.28,117.1,135.2,107,101Z"/><path class="cls-4" d="M8,143.24a72,72,0,0,1,.15-40.78C13.3,84.88,18,71.27,22.29,60.71m16.53-29a58.47,58.47,0,0,0-9.07,13"/><path class="cls-5" d="M76.51,141h-.07a4,4,0,0,0-4,3.92c0,1.32-.7,12.93-13.38,12.93h0l0-74.77a4.08,4.08,0,0,0-3.57-4.12,4,4,0,0,0-4.35,3.95v51.54c-12.67,0-13.32-11.58-13.35-12.91a4,4,0,0,0-4-3.94h0a4,4,0,0,0-4,4.05c.09,7.2,4.66,20.8,21.34,20.81h0v57.8a2.19,2.19,0,0,0,2.2,2.2h3.52a2.19,2.19,0,0,0,2.2-2.2V165.81h.07c16.74,0,21.29-13.7,21.35-20.88A3.93,3.93,0,0,0,76.51,141Z"/><path class="cls-6" d="M53.35,79.32a4,4,0,0,1,2.1-.39A4.08,4.08,0,0,1,59,83.05l0,74.44a17.11,17.11,0,0,1-3.42.33l0-74.77A4.2,4.2,0,0,0,53.35,79.32ZM76.51,141h-.07a3.91,3.91,0,0,0-1.68.39A3.92,3.92,0,0,1,77,144.94c-.06,7.18-4.61,20.88-21.35,20.88h-.06v34.43a2.2,2.2,0,0,1-2.21,2.2h3.42a2.19,2.19,0,0,0,2.2-2.2V165.81h.07c16.74,0,21.29-13.7,21.35-20.88A3.93,3.93,0,0,0,76.51,141ZM34.33,121.51c0,1.33.68,12.91,13.35,12.91v-.32c-9.37-1.87-9.9-11.39-9.93-12.59a4,4,0,0,0-4-3.94h0A4,4,0,0,0,32,118,4,4,0,0,1,34.33,121.51Z"/><path class="cls-8" d="M107,101c-.45-1.55-.91-3.05-1.36-4.54-.09-.32-.19-.65-.29-1-.44-1.44-.87-2.86-1.31-4.25-.07-.23-.14-.44-.2-.67-.4-1.26-.79-2.51-1.19-3.73-.07-.23-.14-.47-.22-.7-.42-1.33-.84-2.62-1.26-3.9l-.27-.8c-.42-1.27-.83-2.51-1.24-3.72l0-.13c-.43-1.24-.84-2.45-1.26-3.64-.09-.24-.17-.49-.26-.74-.41-1.16-.81-2.3-1.22-3.41l-.18-.49c-.37-1-.73-2-1.1-3l-.21-.55c-.39-1-.79-2.08-1.18-3.09l-.24-.61c-.38-1-.77-1.95-1.15-2.9a1.17,1.17,0,0,0-.05-.11c-.39-1-.78-1.92-1.18-2.84-.08-.19-.16-.39-.24-.57-.38-.91-.77-1.8-1.15-2.66L90,52.7c-.36-.81-.71-1.59-1.07-2.35l-.19-.42-1.12-2.36c-.07-.15-.15-.29-.22-.44-.36-.74-.72-1.47-1.09-2.18a1.17,1.17,0,0,1,0-.11c-.38-.73-.76-1.44-1.13-2.13L85,42.3c-.37-.68-.74-1.35-1.11-2l-.1-.17c-.35-.61-.7-1.19-1-1.76l-.19-.31c-.36-.59-.73-1.17-1.09-1.72l-.19-.3c-.35-.53-.7-1.06-1-1.56l-.07-.1c-.36-.52-.73-1-1.09-1.51-.07-.1-.15-.19-.22-.28-.36-.48-.72-1-1.08-1.4l-.08-.09c-.35-.43-.7-.84-1-1.24l-.18-.21c-.36-.4-.72-.8-1.08-1.17l-.17-.18c-.35-.36-.7-.71-1-1l-.07-.08c-.37-.34-.73-.67-1.1-1L72.76,26c-.37-.31-.74-.62-1.1-.9l0,0c-.36-.28-.72-.54-1.08-.8l-.18-.12c-.36-.25-.72-.49-1.09-.72l-.16-.09c-.35-.22-.7-.42-1.06-.62l-.08,0c-.37-.2-.74-.39-1.12-.56a1.11,1.11,0,0,0-.19-.09,26.8,26.8,0,0,0-11.57-2.32c-18,0-31.3,11.79-51.88,81.27-7,23.7-3,53.58,16.52,69.7l.26.21q.74.6,1.5,1.17l.18.14c1.14.85,2.34,1.65,3.59,2.41l.33.19c.52.32,1.05.62,1.58.91l.36.19c1.28.69,2.62,1.33,4,1.92l.4.16,1.69.67.54.19c.61.22,1.24.44,1.88.64l.28.09c.74.23,1.49.45,2.25.65l.46.11c.61.16,1.22.3,1.84.44l.69.15,1.83.35.58.1c.81.13,1.62.25,2.45.36l.4,0c.7.08,1.4.16,2.12.22l.8.06,1.36.09v18.07a2.19,2.19,0,0,0,2.2,2.2h3.52a2.19,2.19,0,0,0,2.2-2.2V182.17C104.89,179.72,116.82,134.27,107,101Z"/><path class="cls-2" d="M112.11,197c-49.12,0-62-47.08-51.88-81.27,20.58-69.48,33.91-81.27,51.88-81.27S143.42,46.21,164,115.69C174.12,149.88,161.23,197,112.11,197Z"/><path class="cls-3" d="M164,115.69c-16.41-55.43-28.21-74.14-41.44-79.45,9.72,10,19.47,31,31.84,72.74,10.13,34.19-2.76,81.27-51.88,81.27-10.82,0-19.88-2.28-27.33-6.21C84,192,96.11,197,112.11,197,161.23,197,174.12,149.88,164,115.69Z"/><path class="cls-4" d="M65,157.92a72,72,0,0,1,.15-40.78C70.32,99.56,75,86,79.31,75.39m16.53-29a58.47,58.47,0,0,0-9.07,13"/><path class="cls-5" d="M133.53,155.65h-.08a4,4,0,0,0-4,3.92c0,1.32-.7,12.93-13.38,12.93h0l0-74.77a4.08,4.08,0,0,0-3.57-4.12,4,4,0,0,0-4.35,4V149.1c-12.67,0-13.32-11.58-13.35-12.91a4,4,0,0,0-4-3.94h0a4,4,0,0,0-4,4.05c.09,7.2,4.66,20.8,21.34,20.81h0v57.8a2.19,2.19,0,0,0,2.2,2.2h3.52a2.19,2.19,0,0,0,2.2-2.2V180.49h.07c16.74,0,21.29-13.7,21.35-20.88A3.94,3.94,0,0,0,133.53,155.65Z"/><path class="cls-6" d="M110.37,94a4,4,0,0,1,2.1-.39A4.08,4.08,0,0,1,116,97.73l0,74.44a17,17,0,0,1-3.41.33l0-74.77A4.19,4.19,0,0,0,110.37,94Zm23.16,61.65h-.08a3.9,3.9,0,0,0-1.67.39,3.92,3.92,0,0,1,2.26,3.58c-.06,7.18-4.61,20.88-21.35,20.88h-.07v34.43a2.19,2.19,0,0,1-2.2,2.2h3.42a2.19,2.19,0,0,0,2.2-2.2V180.49h.07c16.74,0,21.29-13.7,21.35-20.88A3.94,3.94,0,0,0,133.53,155.65ZM91.35,136.19c0,1.33.68,12.91,13.35,12.91v-.32c-9.37-1.87-9.9-11.39-9.93-12.59a4,4,0,0,0-4-3.94h0a4,4,0,0,0-1.66.4A4,4,0,0,1,91.35,136.19Z"/></g></g></svg>