<?xml version="1.0" encoding="UTF-8" standalone="no"?>
<!DOCTYPE svg PUBLIC "-//W3C//DTD SVG 1.1//EN" "http://www.w3.org/Graphics/SVG/1.1/DTD/svg11.dtd">
<svg width="100%" height="100%" viewBox="0 0 220 221" version="1.1" xmlns="http://www.w3.org/2000/svg" xmlns:xlink="http://www.w3.org/1999/xlink" xml:space="preserve" xmlns:serif="http://www.serif.com/" style="fill-rule:evenodd;clip-rule:evenodd;stroke-linecap:round;stroke-linejoin:round;stroke-miterlimit:10;">
    <g transform="matrix(1,0,0,1,-0.157932,-1.82366e-06)">
        <g id="Layer-5" serif:id="Layer 5">
            <g transform="matrix(1,0,0,1,134.806,32.7261)">
                <path d="M0,-29.126L-5.982,-32.155C-8.583,-33.473 -11.759,-32.432 -13.076,-29.832L-24.592,-7.094C-24.684,-6.914 -24.737,-6.725 -24.806,-6.54C-24.875,-6.725 -24.928,-6.914 -25.02,-7.094L-36.535,-29.832C-37.853,-32.432 -41.028,-33.473 -43.629,-32.155L-49.611,-29.126C-52.211,-27.809 -53.252,-24.632 -51.935,-22.032L-40.419,0.706C-39.102,3.307 -35.926,4.347 -33.325,3.03L-27.343,0C-26.118,-0.62 -25.255,-1.66 -24.806,-2.851C-24.356,-1.66 -23.493,-0.62 -22.268,0L-16.286,3.03C-13.686,4.347 -10.51,3.307 -9.192,0.706L2.323,-22.032C3.641,-24.632 2.601,-27.809 0,-29.126" style="fill:rgb(170,99,4);fill-rule:nonzero;"/>
            </g>
            <g transform="matrix(1,0,0,1,195.339,97.8624)">
                <path d="M0,122.455L-170.677,122.455C-176.361,122.455 -180.969,117.847 -180.969,112.163L-180.969,0L10.292,0L10.292,112.163C10.292,117.847 5.684,122.455 0,122.455" style="fill:rgb(135,88,27);fill-rule:nonzero;"/>
            </g>
            <g transform="matrix(1,0,0,1,196.786,220.317)">
                <path d="M0,-122.455L0,-10.292C0,-4.608 -4.608,0 -10.292,0L-1.447,0C4.236,0 8.845,-4.608 8.845,-10.292L8.845,-122.455L0,-122.455Z" style="fill:rgb(109,65,11);fill-rule:nonzero;"/>
            </g>
            <g transform="matrix(1,0,0,1,19.3716,180.255)">
                <path d="M0,-38.804L0,24.645M0,-63.449L0,-55.695" style="fill:none;fill-rule:nonzero;stroke:rgb(170,117,55);stroke-width:10px;"/>
            </g>
            <g transform="matrix(1,0,0,1,110,220.317)">
                <path d="M0,-95.757C-17.628,-95.757 -31.919,-81.467 -31.919,-63.838L-31.919,0L31.919,0L31.919,-63.838C31.919,-81.467 17.628,-95.757 0,-95.757" style="fill:rgb(86,47,4);fill-rule:nonzero;"/>
            </g>
            <g transform="matrix(1,0,0,1,114.56,219.989)">
                <path d="M0,-95.099C-1.489,-95.312 -3.011,-95.428 -4.56,-95.428C-22.188,-95.428 -36.479,-81.138 -36.479,-63.509L-36.479,0.329L-27.359,0.329L-27.359,-63.509C-27.359,-79.589 -15.467,-92.885 0,-95.099" style="fill:rgb(66,33,0);fill-rule:nonzero;"/>
            </g>
            <g transform="matrix(1,0,0,1,79.5762,84.605)">
                <path d="M0,-52.646L-77.292,3.916C-81.326,6.868 -79.237,13.257 -74.238,13.257L135.086,13.257C140.085,13.257 142.173,6.868 138.139,3.916L60.848,-52.646C42.731,-65.903 18.116,-65.903 0,-52.646" style="fill:rgb(234,158,36);fill-rule:nonzero;"/>
            </g>
            <g transform="matrix(1,0,0,1,217.715,29.3695)">
                <path d="M0,59.151L-77.291,2.589C-89.687,-6.481 -105.123,-9.342 -119.44,-6C-112.833,-4.458 -106.463,-1.597 -100.742,2.589L-23.45,59.151C-19.416,62.104 -21.505,68.493 -26.504,68.493L-3.053,68.493C1.946,68.493 4.034,62.104 0,59.151" style="fill:rgb(198,123,12);fill-rule:nonzero;"/>
            </g>
            <g transform="matrix(1,0,0,1,17.9468,34.8283)">
                <path d="M0,48.387L43.268,16.742M66.224,0L55.828,7.567" style="fill:none;fill-rule:nonzero;stroke:rgb(255,211,153);stroke-width:10px;"/>
            </g>
        </g>
    </g>
</svg>
