<?xml version="1.0" encoding="UTF-8" standalone="no"?>
<!DOCTYPE svg PUBLIC "-//W3C//DTD SVG 1.1//EN" "http://www.w3.org/Graphics/SVG/1.1/DTD/svg11.dtd">
<svg width="100%" height="100%" viewBox="0 0 220 220" version="1.1" xmlns="http://www.w3.org/2000/svg" xmlns:xlink="http://www.w3.org/1999/xlink" xml:space="preserve" xmlns:serif="http://www.serif.com/" style="fill-rule:evenodd;clip-rule:evenodd;stroke-linejoin:round;stroke-miterlimit:2;">
    <g transform="matrix(1,0,0,1,0,-247.5)">
        <g id="Page-6" serif:id="Page 6" transform="matrix(1,0,0,1,0,247.5)">
            <rect x="0" y="0" width="219.999" height="220" style="fill:none;"/>
            <g id="Stone">
                <g transform="matrix(1,0,0,1,17.6813,20.0602)">
                    <path d="M0,181.288C1.865,182.886 3.922,184.233 6.127,185.284C8.67,186.496 11.46,187.012 14.248,186.884L162.202,180.073C166.119,179.892 169.878,178.311 172.862,175.576C174.417,174.151 175.678,172.869 176.106,172.428L176.133,172.441C176.181,172.381 176.226,172.316 176.274,172.255L176.276,172.253L176.276,172.252C178.592,169.294 180.385,165.867 181.516,162.129L190.617,132.037L200.27,100.121C202.585,92.465 201.946,84.152 198.497,77.035L183.617,46.34L173.109,24.665C171.312,20.956 168.83,17.738 165.856,15.171C162.849,12.574 159.336,10.642 155.516,9.55L109.62,-3.584L107.11,-4.303C102.143,-5.724 96.898,-5.659 91.948,-4.117L89.343,-3.305L43.205,11.073C41.261,11.68 39.391,12.508 37.62,13.535C35.781,14.602 34.051,15.886 32.466,17.368L-2.548,50.143C-8.142,55.381 -11.59,62.754 -12.145,70.663L-12.558,76.569L-16.924,138.918C-17.254,143.624 -16.545,148.34 -14.854,152.687L-8.336,169.45C-6.509,174.151 -3.614,178.191 0,181.288" style="fill:rgb(234,234,234);fill-rule:nonzero;"/>
                </g>
                <g transform="matrix(1,0,0,1,123.253,79.4128)">
                    <path d="M0,76.117L-67.951,-45.818C-69.79,-44.75 -71.521,-43.467 -73.105,-41.985L-108.119,-9.209C-113.713,-3.972 -117.161,3.401 -117.716,11.31L-118.129,17.217L-122.495,79.565C-122.825,84.271 -122.116,88.987 -120.426,93.335L-113.907,110.097C-112.08,114.799 -109.186,118.839 -105.571,121.935L0,76.117Z" style="fill:rgb(206,206,206);fill-rule:nonzero;"/>
                </g>
                <g transform="matrix(1,0,0,1,190.544,166.966)">
                    <path d="M0,28.67C1.919,26.91 3.414,25.347 3.414,25.347L-67.291,-11.436L-172.862,34.382C-170.997,35.98 -168.94,37.327 -166.735,38.378C-164.192,39.59 -161.402,40.106 -158.614,39.978L-10.66,33.167C-6.743,32.986 -2.984,31.405 0,28.67" style="fill:rgb(128,128,128);fill-rule:nonzero;"/>
                </g>
                <g transform="matrix(1,0,0,1,216.178,130.637)">
                    <path d="M0,-33.542L-14.88,-64.237L-25.388,-85.912C-27.185,-89.621 -29.667,-92.839 -32.641,-95.406L-92.926,24.893L-22.364,61.864C-19.978,58.864 -18.136,55.369 -16.981,51.552L-7.88,21.46L1.772,-10.456C4.088,-18.112 3.449,-26.425 0,-33.542" style="fill:rgb(213,213,213);fill-rule:nonzero;"/>
                </g>
                <g transform="matrix(1,0,0,1,55.3014,136.271)">
                    <path d="M0,-102.676L67.951,19.259L128.236,-101.04C125.229,-103.637 121.716,-105.569 117.896,-106.661L72,-119.795L69.49,-120.514C64.522,-121.935 59.278,-121.87 54.328,-120.328L51.723,-119.516L5.585,-105.138C3.641,-104.531 1.77,-103.703 0,-102.676" style="fill:rgb(234,234,234);fill-rule:nonzero;"/>
                </g>
            </g>
            <g id="Trees">
            </g>
        </g>
    </g>
</svg>
