<?xml version="1.0" encoding="UTF-8" standalone="no"?>
<!DOCTYPE svg PUBLIC "-//W3C//DTD SVG 1.1//EN" "http://www.w3.org/Graphics/SVG/1.1/DTD/svg11.dtd">
<svg width="100%" height="100%" viewBox="0 0 220 220" version="1.1" xmlns="http://www.w3.org/2000/svg" xmlns:xlink="http://www.w3.org/1999/xlink" xml:space="preserve" xmlns:serif="http://www.serif.com/" style="fill-rule:evenodd;clip-rule:evenodd;stroke-linecap:round;stroke-linejoin:round;stroke-miterlimit:10;">
    <g transform="matrix(1,0,0,1,-990,-247.5)">
        <g id="Page-10" serif:id="Page 10" transform="matrix(1,0,0,1,990,247.5)">
            <rect x="0" y="0" width="220" height="220" style="fill:none;"/>
            <g id="Wood-Icon" serif:id="Wood Icon">
                <g transform="matrix(1,0,0,1,155.828,191.205)">
                    <path d="M0,-165.635L-43.155,-140.533C-44.401,-139.81 -46.098,-141.433 -45.717,-142.986L-42.25,-157.137C-41.439,-160.448 -45.059,-163.913 -47.716,-162.367L-60.61,-154.867C-64.426,-152.648 -67.152,-148.83 -68.317,-144.073L-72.708,-126.151C-73.227,-124.035 -74.438,-122.337 -76.136,-121.351L-140.807,-83.734L-87.316,8.228L53.49,-73.673C67.635,-81.9 67.127,-109.156 52.356,-134.551C37.585,-159.946 14.145,-173.863 0,-165.635" style="fill:rgb(48,23,6);fill-rule:nonzero;"/>
                </g>
                <g transform="matrix(1,0,0,1,55.7045,108.152)">
                    <path d="M0,91.103C-14.243,91.103 -30.81,79.075 -41.223,61.171C-54.96,37.554 -54.089,11.332 -39.282,2.719C-36.18,0.915 -32.632,0 -28.738,0C-14.495,0 2.071,12.029 12.484,29.932C26.222,53.549 25.351,79.77 10.544,88.383C7.441,90.188 3.894,91.103 0,91.103" style="fill:rgb(155,98,41);fill-rule:nonzero;"/>
                </g>
                <g transform="matrix(1,0,0,1,26.9662,202.899)">
                    <path d="M0,-98.391C-4.428,-98.39 -8.628,-97.357 -12.376,-95.177C-28.946,-85.538 -30.405,-57.139 -15.634,-31.745C-4.204,-12.093 13.594,0 28.738,0C33.165,0 37.366,-1.035 41.114,-3.214C57.685,-12.853 59.144,-41.252 44.372,-66.647C32.942,-86.297 15.145,-98.391 0,-98.391M0,-98.391L0,-91.103C12.989,-91.103 28.29,-79.802 38.072,-62.983C44.514,-51.91 47.762,-39.981 47.218,-29.396C46.733,-19.956 43.265,-12.896 37.45,-9.514C34.911,-8.037 31.98,-7.288 28.738,-7.288C15.749,-7.288 0.448,-18.589 -9.335,-35.409C-21.846,-56.918 -21.561,-81.404 -8.712,-88.877C-6.174,-90.354 -3.242,-91.103 0,-91.103L0,-98.391" style="fill:rgb(66,34,8);fill-rule:nonzero;"/>
                </g>
                <g transform="matrix(0.872663,0.488323,0.488323,-0.872663,28.381,115.664)">
                    <path d="M-1.219,-9.824C4.754,0.281 23.458,0.282 40.557,-9.824" style="fill:none;fill-rule:nonzero;stroke:rgb(119,66,30);stroke-width:3.07px;"/>
                </g>
                <g transform="matrix(-0.246155,-0.96923,-0.96923,0.246155,30.9218,143.777)">
                    <path d="M-18.834,13.752C-7.857,16.887 2.788,16.657 10.468,13.752" style="fill:none;fill-rule:nonzero;stroke:rgb(119,66,30);stroke-width:3.07px;"/>
                </g>
            </g>
        </g>
    </g>
</svg>
