<?xml version="1.0" encoding="UTF-8" standalone="no"?>
<!DOCTYPE svg PUBLIC "-//W3C//DTD SVG 1.1//EN" "http://www.w3.org/Graphics/SVG/1.1/DTD/svg11.dtd">
<svg width="100%" height="100%" viewBox="0 0 220 220" version="1.1" xmlns="http://www.w3.org/2000/svg" xmlns:xlink="http://www.w3.org/1999/xlink" xml:space="preserve" xmlns:serif="http://www.serif.com/" style="fill-rule:evenodd;clip-rule:evenodd;stroke-linejoin:round;stroke-miterlimit:2;">
    <g>
        <path d="M202.71,25.14L146.87,63.63C151.633,64.151 155.319,68.151 155.45,72.94L155.38,200.28C155.419,202.774 154.155,205.049 152.16,206.55L208,168.06C210.044,166.639 211.249,164.289 211.21,161.8L211.29,34.45C211.151,29.664 207.469,25.669 202.71,25.14Z" style="fill:rgb(137,137,137);fill-rule:nonzero;"/>
        <path d="M73.21,12.13C71.32,11.918 69.416,12.386 67.84,13.45L12,51.94C13.579,50.874 15.477,50.405 17.37,50.62L146.87,63.63L202.72,25.13L73.21,12.13Z" style="fill:rgb(160,160,160);fill-rule:nonzero;"/>
        <path d="M146.87,63.63C151.633,64.151 155.319,68.151 155.45,72.94L155.38,200.28C155.38,200.306 155.38,200.332 155.38,200.358C155.38,204.516 151.959,207.938 147.8,207.938C147.462,207.938 147.125,207.915 146.79,207.87L17.29,194.87C12.527,194.346 8.84,190.35 8.7,185.56L8.78,58.2C8.78,58.174 8.78,58.147 8.78,58.121C8.78,53.968 12.197,50.551 16.35,50.551C16.691,50.551 17.032,50.574 17.37,50.62L146.87,63.63Z" style="fill:rgb(175,175,175);fill-rule:nonzero;"/>
        <path d="M211,153.45C210.633,155.316 209.558,156.969 208,158.06L152.15,196.55C150.567,197.634 148.646,198.113 146.74,197.9L17.24,184.9C12.516,184.385 8.844,180.448 8.66,175.7L8.66,185.59C8.8,190.38 12.487,194.376 17.25,194.9L146.75,207.9C148.656,208.113 150.577,207.634 152.16,206.55L208,168.06C210.044,166.639 211.249,164.289 211.21,161.8L211.21,153.45L211,153.45Z" style="fill-opacity:0.06;fill-rule:nonzero;"/>
    </g>
    <path d="M205.71,149.7L180.9,165.07C180.557,165.28 180.162,165.392 179.76,165.392C178.567,165.392 177.584,164.413 177.58,163.22L177.58,159.05C177.57,158.303 177.949,157.601 178.58,157.2L203.39,141.83C203.735,141.615 204.133,141.5 204.54,141.5C205.73,141.5 206.71,142.48 206.71,143.67L206.71,147.85C206.714,148.596 206.336,149.295 205.71,149.7Z" style="fill:rgb(160,160,160);"/>
    <path d="M177.58,71.73L177.58,67.588C177.58,66.397 176.6,65.418 175.41,65.418C174.995,65.418 174.589,65.536 174.24,65.76L161.17,74.08C160.547,74.483 160.169,75.177 160.17,75.92L160.17,80.05C160.173,81.244 161.156,82.224 162.35,82.224C162.76,82.224 163.163,82.108 163.51,81.89L176.58,73.56C177.203,73.161 177.581,72.47 177.58,71.73Z" style="fill:rgb(160,160,160);"/>
    <g>
        <g>
            <clipPath id="_clip1">
                <path d="M107.69,39.34L110.47,32.26L158.59,36.38L155.81,43.46L107.69,39.34Z"/>
            </clipPath>
            <g clip-path="url(#_clip1)">
                <path d="M153.1,35.91L116,32.73C113,32.47 109.9,33.83 109.14,35.73L109.14,35.8C108.38,37.74 110.21,39.52 113.25,39.8L150.33,43C153.33,43.26 156.43,41.9 157.19,40L157.19,39.93C157.94,38 156.1,36.22 153.07,35.93" style="fill:rgb(175,175,175);fill-rule:nonzero;"/>
            </g>
        </g>
    </g>
    <g transform="matrix(0.999038,0.113761,-0.085661,0.752267,-48.5344,4.54838)">
        <path d="M136.857,90.732C136.857,86.729 134.41,83.479 131.396,83.479L90.62,83.479C87.606,83.479 85.158,86.729 85.158,90.732C85.158,94.735 87.606,97.984 90.62,97.984L131.396,97.984C134.41,97.984 136.857,94.735 136.857,90.732Z" style="fill:rgb(191,191,191);"/>
    </g>
    <g transform="matrix(0.999038,0.113761,-0.085661,0.752267,9.63624,97.5321)">
        <path d="M136.857,90.732C136.857,86.729 134.41,83.479 131.396,83.479L90.62,83.479C87.606,83.479 85.158,86.729 85.158,90.732C85.158,94.735 87.606,97.984 90.62,97.984L131.396,97.984C134.41,97.984 136.857,94.735 136.857,90.732Z" style="fill:rgb(191,191,191);"/>
    </g>
    <g transform="matrix(0.848416,0.0966096,-0.085661,0.752267,-14.5698,26.9563)">
        <path d="M136.857,90.732C136.857,86.729 133.976,83.479 130.427,83.479L91.589,83.479C88.04,83.479 85.158,86.729 85.158,90.732C85.158,94.735 88.04,97.984 91.589,97.984L130.427,97.984C133.976,97.984 136.857,94.735 136.857,90.732Z" style="fill:rgb(191,191,191);"/>
    </g>
</svg>
