<?xml version="1.0" encoding="UTF-8" standalone="no"?>
<!DOCTYPE svg PUBLIC "-//W3C//DTD SVG 1.1//EN" "http://www.w3.org/Graphics/SVG/1.1/DTD/svg11.dtd">
<svg width="100%" height="100%" viewBox="0 0 101 101" version="1.1" xmlns="http://www.w3.org/2000/svg" xmlns:xlink="http://www.w3.org/1999/xlink" xml:space="preserve" xmlns:serif="http://www.serif.com/" style="fill-rule:evenodd;clip-rule:evenodd;stroke-linejoin:round;stroke-miterlimit:2;">
    <g transform="matrix(1,0,0,1,-1520,-244)">
        <g id="bush" transform="matrix(1,0,0,1,1407.37,-208.272)">
            <rect x="112.905" y="453" width="100" height="100" style="fill:none;"/>
            <g transform="matrix(0.867493,0,0,0.580422,115.716,229.573)">
                <ellipse cx="51.996" cy="527.867" rx="37.924" ry="15.445" style="fill-opacity:0.16;"/>
            </g>
            <g transform="matrix(0.393329,0,0,0.374223,87.5927,318.022)">
                <g transform="matrix(1,0,0,1,0.9052,0)">
                    <path d="M148.635,497.252C147.714,495.235 147.227,493.057 147.227,490.787C147.227,480.246 157.726,471.688 170.657,471.688C183.589,471.688 194.088,480.246 194.088,490.787C194.088,492.428 193.833,494.021 193.333,495.516C193.333,495.516 183.727,508.673 170.984,508.729C160.475,508.775 148.635,497.252 148.635,497.252Z" style="fill:rgb(31,164,41);"/>
                </g>
                <g transform="matrix(1,0,0,1,0.9052,0)">
                    <path d="M193.333,495.516C190.392,503.365 181.202,509.885 170.657,509.885C160.626,509.885 151.942,504.476 148.635,497.252C156.138,502.558 162.202,504.11 171.487,504.058C179.415,504.015 185.337,502.496 193.333,495.516Z" style="fill:rgb(15,127,23);"/>
                </g>
            </g>
            <g id="branches" transform="matrix(1,0,0,1,0.9052,0)">
                <g transform="matrix(1,0,0,1,3.4004,-0.424403)">
                    <path d="M122.987,499.809L128.511,514.051L128.6,514.275L128.689,514.495L128.781,514.714L128.874,514.933L128.969,515.15L129.066,515.366L129.165,515.582L129.265,515.796L129.368,516.01L129.472,516.223L129.578,516.434L129.686,516.645L129.795,516.855L129.907,517.063L130.02,517.271L130.135,517.478L130.251,517.683L130.37,517.888L130.49,518.091L130.612,518.294L130.735,518.495L130.861,518.696L130.988,518.895L131.116,519.093L131.247,519.29L131.379,519.485L131.513,519.68L131.648,519.873L131.785,520.066L131.924,520.257L132.064,520.447L132.208,520.638L141.684,533.074L141.689,533.082L142.031,534.55L141.244,535.836L141.228,535.848L139.76,536.189L138.474,535.403L138.468,535.394L129.646,522.479L129.5,522.265L129.353,522.046L129.209,521.827L129.066,521.606L128.925,521.384L128.787,521.161L128.65,520.937L128.515,520.712L128.382,520.486L128.251,520.259L128.122,520.03L127.995,519.801L127.87,519.571L127.747,519.34L127.626,519.107L127.507,518.874L127.39,518.64L127.275,518.405L127.162,518.169L127.051,517.932L126.942,517.694L126.835,517.455L126.731,517.216L126.628,516.975L126.527,516.734L126.428,516.492L126.331,516.248L126.237,516.005L126.144,515.76L126.053,515.515L125.965,515.268L125.88,515.024L120.872,500.585L121.446,498.88L122.987,499.809Z" style="fill:rgb(54,19,0);"/>
                </g>
                <path d="M146.694,493.57L134.23,518.421L134.225,518.43L133.213,519.215L131.94,519.067L131.923,519.057L131.137,518.044L131.286,516.771L131.291,516.763L146.113,493.243L147.233,491.937L146.694,493.57Z" style="fill:rgb(54,19,0);"/>
                <path d="M168.611,496.563L168.312,504.527L168.302,504.832L168.294,505.134L168.288,505.437L168.285,505.739L168.283,506.041L168.284,506.343L168.287,506.645L168.292,506.947L168.3,507.248L168.309,507.549L168.321,507.85L168.335,508.151L168.35,508.452L168.369,508.752L168.389,509.052L168.411,509.352L168.436,509.651L168.462,509.95L168.491,510.249L168.522,510.548L168.555,510.846L168.59,511.144L168.627,511.442L168.667,511.739L168.708,512.036L168.752,512.332L168.797,512.628L168.845,512.924L168.895,513.219L168.947,513.514L169.001,513.808L169.058,514.102L169.116,514.395L169.176,514.688L169.239,514.98L169.303,515.272L169.37,515.564L169.439,515.855L169.51,516.145L169.582,516.435L169.657,516.724L169.734,517.013L169.813,517.301L169.894,517.589L169.978,517.876L170.063,518.162L170.15,518.448L170.239,518.733L170.331,519.017L170.424,519.301L170.52,519.584L170.617,519.867L170.716,520.148L170.818,520.429L170.922,520.71L171.027,520.989L171.135,521.268L171.244,521.546L171.356,521.824L171.47,522.1L171.585,522.376L171.703,522.651L171.822,522.926L171.945,523.201L176.407,533.159L176.411,533.168L176.409,534.45L175.51,535.363L175.491,535.371L174.21,535.369L173.297,534.47L173.293,534.46L169.341,524.284L169.228,523.988L169.115,523.689L169.005,523.39L168.896,523.09L168.79,522.789L168.687,522.488L168.585,522.186L168.486,521.883L168.389,521.58L168.294,521.277L168.201,520.973L168.111,520.668L168.023,520.363L167.937,520.058L167.853,519.751L167.772,519.445L167.692,519.138L167.615,518.83L167.54,518.523L167.468,518.214L167.398,517.905L167.329,517.596L167.264,517.287L167.2,516.977L167.139,516.667L167.079,516.356L167.022,516.045L166.968,515.734L166.915,515.422L166.865,515.11L166.817,514.798L166.772,514.486L166.728,514.173L166.687,513.86L166.648,513.547L166.611,513.234L166.577,512.92L166.544,512.606L166.514,512.292L166.487,511.978L166.461,511.663L166.438,511.349L166.417,511.034L166.398,510.719L166.382,510.405L166.368,510.089L166.356,509.774L166.346,509.459L166.339,509.144L166.334,508.829L166.331,508.513L166.33,508.198L166.332,507.882L166.336,507.567L166.342,507.252L166.35,506.936L166.361,506.621L166.374,506.305L166.389,505.99L166.406,505.675L166.426,505.36L166.448,505.045L166.473,504.73L166.499,504.416L167.203,496.474L167.964,495.612L168.611,496.563Z" style="fill:rgb(54,19,0);"/>
                <path d="M197.682,496.951L196.078,502.856L196.012,503.095L195.943,503.335L195.873,503.574L195.801,503.813L195.726,504.05L195.65,504.287L195.572,504.523L195.492,504.758L195.411,504.992L195.327,505.225L195.241,505.458L195.154,505.69L195.065,505.92L194.974,506.15L194.881,506.379L194.786,506.608L194.69,506.835L194.592,507.061L194.492,507.286L194.39,507.511L194.286,507.734L194.181,507.957L194.074,508.179L193.965,508.399L193.854,508.619L193.742,508.837L193.628,509.055L193.512,509.272L193.394,509.487L193.275,509.702L193.154,509.915L193.031,510.128L192.907,510.339L192.781,510.55L192.653,510.759L192.524,510.967L192.393,511.174L192.261,511.38L192.126,511.585L191.99,511.789L191.853,511.992L191.714,512.193L191.573,512.394L191.431,512.593L191.287,512.791L191.141,512.988L190.994,513.184L190.846,513.378L190.696,513.571L190.544,513.764L190.391,513.954L190.236,514.144L190.08,514.332L189.922,514.52L189.762,514.706L189.601,514.89L189.439,515.073L189.275,515.256L189.11,515.436L188.943,515.616L188.775,515.794L188.605,515.971L188.434,516.146L188.262,516.321L188.088,516.493L187.912,516.665L187.735,516.835L187.557,517.004L187.378,517.171L187.197,517.337L187.014,517.501L186.83,517.665L186.645,517.826L186.459,517.987L186.271,518.145L186.082,518.303L185.891,518.459L185.699,518.613L185.506,518.766L185.312,518.917L185.116,519.067L184.919,519.216L184.721,519.363L184.521,519.508L184.32,519.652L184.118,519.795L183.914,519.935L183.71,520.075L183.504,520.212L183.297,520.348L183.088,520.483L182.879,520.616L182.668,520.747L182.456,520.876L182.243,521.005L182.029,521.131L181.813,521.256L181.597,521.379L181.379,521.5L181.16,521.62L180.94,521.738L180.719,521.854L180.496,521.969L180.273,522.082L180.048,522.193L179.823,522.302L179.596,522.41L179.368,522.516L179.139,522.62L178.909,522.723L178.678,522.823L178.446,522.922L178.213,523.019L177.979,523.115L177.744,523.208L177.508,523.3L177.27,523.389L177.032,523.477L176.793,523.563L176.553,523.647L176.312,523.73L176.07,523.81L175.827,523.889L175.583,523.965L175.338,524.04L175.092,524.113L174.846,524.183L174.601,524.251L171.212,525.184L171.203,525.187L169.937,524.985L169.175,523.955L169.171,523.935L169.372,522.67L170.402,521.908L170.412,521.905L173.843,521.174L174.072,521.124L174.297,521.074L174.522,521.021L174.745,520.967L174.969,520.911L175.191,520.853L175.413,520.794L175.634,520.732L175.855,520.669L176.075,520.605L176.294,520.538L176.513,520.47L176.73,520.4L176.948,520.328L177.164,520.254L177.38,520.179L177.594,520.102L177.809,520.023L178.022,519.943L178.235,519.861L178.446,519.777L178.657,519.691L178.868,519.604L179.077,519.515L179.286,519.425L179.494,519.333L179.701,519.239L179.907,519.143L180.112,519.046L180.316,518.947L180.52,518.847L180.723,518.745L180.925,518.641L181.126,518.536L181.326,518.429L181.525,518.321L181.723,518.211L181.92,518.099L182.117,517.986L182.312,517.872L182.507,517.755L182.7,517.638L182.893,517.518L183.084,517.397L183.275,517.275L183.464,517.151L183.653,517.025L183.841,516.898L184.027,516.77L184.213,516.64L184.397,516.508L184.581,516.375L184.763,516.241L184.944,516.105L185.124,515.968L185.304,515.829L185.482,515.689L185.658,515.547L185.834,515.404L186.009,515.259L186.183,515.113L186.355,514.966L186.526,514.817L186.696,514.667L186.865,514.515L187.033,514.362L187.2,514.207L187.365,514.052L187.529,513.895L187.692,513.736L187.854,513.576L188.014,513.415L188.174,513.252L188.332,513.089L188.488,512.923L188.644,512.757L188.798,512.589L188.951,512.42L189.103,512.249L189.253,512.078L189.402,511.905L189.55,511.73L189.696,511.555L189.841,511.378L189.985,511.2L190.127,511.02L190.268,510.84L190.407,510.658L190.546,510.475L190.682,510.291L190.818,510.105L190.952,509.919L191.084,509.731L191.215,509.542L191.345,509.351L191.473,509.16L191.6,508.967L191.725,508.774L191.849,508.579L191.971,508.382L192.092,508.185L192.211,507.987L192.329,507.787L192.445,507.587L192.56,507.385L192.673,507.182L192.785,506.978L192.895,506.773L193.003,506.567L193.11,506.36L193.215,506.151L193.319,505.942L193.421,505.732L193.522,505.52L193.621,505.308L193.718,505.094L193.813,504.879L193.907,504.664L194,504.447L194.09,504.23L194.179,504.011L194.266,503.791L194.352,503.571L194.436,503.349L194.518,503.126L194.598,502.903L194.677,502.678L194.754,502.451L196.699,496.653L197.391,496.139L197.682,496.951Z" style="fill:rgb(54,19,0);"/>
                <g transform="matrix(1.02069,0,0,0.993391,-2.88572,3.51908)">
                    <path d="M139.314,531.19C139.314,531.19 140.11,534.934 139.161,535.939C139.153,535.948 148.367,535.982 148.367,535.982C148.367,535.982 146.045,534.421 145.169,533.014C145.105,532.911 139.314,531.19 139.314,531.19Z" style="fill:rgb(54,19,0);"/>
                </g>
                <g transform="matrix(1.02069,0,0,0.993391,29.304,4.1866)">
                    <path d="M140.06,531.114C140.06,531.114 140.908,535.398 139.161,535.939C139.15,535.942 145.493,535.968 145.493,535.968C145.493,535.968 144.848,534.113 144.145,532.559C144.11,532.48 140.06,531.114 140.06,531.114Z" style="fill:rgb(54,19,0);"/>
                </g>
            </g>
            <g transform="matrix(0.706325,0,0,0.760593,23.0939,117.498)">
                <g transform="matrix(1,0,0,1,0.9052,0)">
                    <path d="M148.635,497.252C147.714,495.235 147.227,493.057 147.227,490.787C147.227,480.246 157.726,471.688 170.657,471.688C183.589,471.688 194.088,480.246 194.088,490.787C194.088,492.428 193.833,494.021 193.333,495.516C193.333,495.516 183.727,508.673 170.984,508.729C160.475,508.775 148.635,497.252 148.635,497.252Z" style="fill:rgb(31,164,41);"/>
                </g>
                <g transform="matrix(1,0,0,1,0.9052,0)">
                    <path d="M193.333,495.516C190.392,503.365 181.202,509.885 170.657,509.885C160.626,509.885 151.942,504.476 148.635,497.252C156.138,502.558 162.202,504.11 171.487,504.058C179.415,504.015 185.337,502.496 193.333,495.516Z" style="fill:rgb(15,127,23);"/>
                </g>
            </g>
            <g transform="matrix(0.565283,0,0,0.578074,30.0796,212.808)">
                <g transform="matrix(1,0,0,1,0.9052,0)">
                    <path d="M148.635,497.252C147.714,495.235 147.227,493.057 147.227,490.787C147.227,480.246 157.726,471.688 170.657,471.688C183.589,471.688 194.088,480.246 194.088,490.787C194.088,492.428 193.833,494.021 193.333,495.516C193.333,495.516 183.727,508.673 170.984,508.729C160.475,508.775 148.635,497.252 148.635,497.252Z" style="fill:rgb(31,164,41);"/>
                </g>
                <g transform="matrix(1,0,0,1,0.9052,0)">
                    <path d="M193.333,495.516C190.392,503.365 181.202,509.885 170.657,509.885C160.626,509.885 151.942,504.476 148.635,497.252C156.138,502.558 162.202,504.11 171.487,504.058C179.415,504.015 185.337,502.496 193.333,495.516Z" style="fill:rgb(15,127,23);"/>
                </g>
            </g>
            <g>
                <g transform="matrix(1,0,0,1,0.9052,0)">
                    <path d="M148.635,497.252C147.714,495.235 147.227,493.057 147.227,490.787C147.227,480.246 157.726,471.688 170.657,471.688C183.589,471.688 194.088,480.246 194.088,490.787C194.088,492.428 193.833,494.021 193.333,495.516C193.333,495.516 183.727,508.673 170.984,508.729C160.475,508.775 148.635,497.252 148.635,497.252Z" style="fill:rgb(31,164,41);"/>
                </g>
                <g transform="matrix(1,0,0,1,0.9052,0)">
                    <path d="M193.333,495.516C190.392,503.365 181.202,509.885 170.657,509.885C160.626,509.885 151.942,504.476 148.635,497.252C156.138,502.558 162.202,504.11 171.487,504.058C179.415,504.015 185.337,502.496 193.333,495.516Z" style="fill:rgb(15,127,23);"/>
                </g>
            </g>
            <g transform="matrix(0.569147,0,0,0.495111,100.842,257.435)">
                <g transform="matrix(1,0,0,1,0.9052,0)">
                    <path d="M148.635,497.252C147.714,495.235 147.227,493.057 147.227,490.787C147.227,480.246 157.726,471.688 170.657,471.688C183.589,471.688 194.088,480.246 194.088,490.787C194.088,492.428 193.833,494.021 193.333,495.516C193.333,495.516 183.727,508.673 170.984,508.729C160.475,508.775 148.635,497.252 148.635,497.252Z" style="fill:rgb(31,164,41);"/>
                </g>
                <g transform="matrix(1,0,0,1,0.9052,0)">
                    <path d="M193.333,495.516C190.392,503.365 181.202,509.885 170.657,509.885C160.626,509.885 151.942,504.476 148.635,497.252C156.138,502.558 162.202,504.11 171.487,504.058C179.415,504.015 185.337,502.496 193.333,495.516Z" style="fill:rgb(15,127,23);"/>
                </g>
            </g>
        </g>
    </g>
</svg>
