<?xml version="1.0" encoding="UTF-8" standalone="no"?>
<!DOCTYPE svg PUBLIC "-//W3C//DTD SVG 1.1//EN" "http://www.w3.org/Graphics/SVG/1.1/DTD/svg11.dtd">
<svg width="100%" height="100%" viewBox="0 0 326 101" version="1.1" xmlns="http://www.w3.org/2000/svg" xmlns:xlink="http://www.w3.org/1999/xlink" xml:space="preserve" xmlns:serif="http://www.serif.com/" style="fill-rule:evenodd;clip-rule:evenodd;stroke-linejoin:round;stroke-miterlimit:2;">
    <g transform="matrix(1,0,0,1,-1389,-522)">
        <g id="clouds_2" transform="matrix(1,0,0,0.9974,1389.15,-106.219)">
            <rect x="0" y="630.18" width="325" height="100.261" style="fill:white;fill-opacity:0;"/>
            <g transform="matrix(1,0,0,1.00261,-356.297,11.4701)">
                <path d="M371.206,677.121C371.815,665.979 383.453,657.081 397.696,657.081C409.85,657.081 420.108,663.561 423.255,672.393C424.822,672.151 426.493,672.02 428.226,672.02C430.765,672.02 433.169,672.301 435.313,672.801C443.599,667.516 458.336,663.997 475.12,663.997C480.058,663.997 484.818,664.302 489.29,664.866C490.577,662.76 492.903,661.351 495.557,661.351C499.244,661.351 502.299,664.07 502.812,667.604C508.926,669.389 513.915,671.75 517.274,674.486C519.718,674.204 522.225,673.945 524.788,673.708C525.388,672.688 526.384,672.02 527.511,672.02C528.467,672.02 529.329,672.501 529.935,673.27C530.299,673.242 530.664,673.214 531.03,673.186C531.984,670.605 536.242,668.657 541.344,668.657C545.757,668.657 549.539,670.115 551.097,672.179C555.041,672.074 559.059,672.02 563.134,672.02C564.868,672.02 566.592,672.03 568.304,672.049C571.432,669.882 575.725,668.545 580.458,668.545C585.911,668.545 590.778,670.32 593.955,673.092C595.674,673.215 597.373,673.349 599.048,673.492C602.573,670.626 613.066,668.545 625.449,668.545C630.556,668.545 635.342,668.899 639.45,669.516C641.808,668.888 644.362,668.545 647.028,668.545C655.527,668.545 662.886,672.035 666.389,677.121L371.206,677.121Z" style="fill:white;"/>
            </g>
            <g transform="matrix(1,0,0,1.00261,-346.239,-1.46272)">
                <path d="M555.48,713.565C555.48,708.794 562.802,704.92 571.821,704.92C578.294,704.92 583.892,706.915 586.538,709.805C586.902,709.776 587.271,709.761 587.645,709.761C591.438,709.761 594.78,711.272 596.723,713.565L555.48,713.565Z" style="fill:white;"/>
            </g>
            <g transform="matrix(1,0,0,1.00261,-346.239,-1.46272)">
                <path d="M411.906,649.173C414.86,643.465 426.162,639.213 439.632,639.213C453.101,639.213 464.403,643.465 467.358,649.173L411.906,649.173Z" style="fill:white;"/>
            </g>
        </g>
    </g>
</svg>
