<?xml version="1.0" encoding="UTF-8" standalone="no"?>
<!DOCTYPE svg PUBLIC "-//W3C//DTD SVG 1.1//EN" "http://www.w3.org/Graphics/SVG/1.1/DTD/svg11.dtd">
<svg width="100%" height="100%" viewBox="0 0 326 101" version="1.1" xmlns="http://www.w3.org/2000/svg" xmlns:xlink="http://www.w3.org/1999/xlink" xml:space="preserve" xmlns:serif="http://www.serif.com/" style="fill-rule:evenodd;clip-rule:evenodd;stroke-linejoin:round;stroke-miterlimit:2;">
    <g transform="matrix(1,0,0,1,-1385,-382)">
        <g id="clouds_1" transform="matrix(1,0,0,0.9974,1385.92,-245.783)">
            <rect x="0" y="630.18" width="325" height="100.261" style="fill:white;fill-opacity:0;"/>
            <g transform="matrix(0.939286,0,0,0.941735,-4.27943,59.1127)">
                <path d="M28.495,669.112C34.279,661.451 42.294,655.025 52.891,654.576C63.848,654.113 73.502,659.03 79.017,665.744C80.042,665.59 81.08,665.449 82.132,665.323C83.45,656.797 93.811,650.15 106.381,650.15C113.118,650.15 119.221,652.06 123.637,655.145C126.855,652.081 131.538,650.15 136.748,650.15C143.84,650.15 149.957,653.728 152.73,658.874C153.807,658.777 154.915,658.726 156.045,658.726C162.1,658.726 167.507,660.179 171.046,662.449C172.373,660.76 175.603,659.566 179.374,659.566C182.894,659.566 185.944,660.607 187.412,662.12C188.373,661.552 189.556,661.216 190.835,661.216C193.735,661.216 196.141,662.94 196.575,665.19C198.845,665.253 201.091,665.343 203.307,665.457C203.54,663.078 205.548,661.216 207.988,661.216C209.603,661.216 211.029,662.032 211.876,663.274C212.672,663.043 213.583,662.911 214.552,662.911C215.175,662.911 215.774,662.966 216.334,663.066C217.131,661.962 218.639,661.216 220.365,661.216C222.177,661.216 223.747,662.037 224.509,663.232C225.073,663.046 225.647,662.866 226.231,662.69C229.404,655.405 238.36,650.15 248.899,650.15C257.839,650.15 265.638,653.931 269.737,659.523C273.456,659.961 276.996,660.57 280.302,661.328C285.991,657.111 293.28,654.576 301.223,654.576C311.766,654.576 319.885,659.908 326.625,669.112L28.495,669.112Z" style="fill:white;"/>
            </g>
        </g>
    </g>
</svg>
