<?xml version="1.0" encoding="UTF-8" standalone="no"?>
<!DOCTYPE svg PUBLIC "-//W3C//DTD SVG 1.1//EN" "http://www.w3.org/Graphics/SVG/1.1/DTD/svg11.dtd">
<svg width="100%" height="100%" viewBox="0 0 100 100" version="1.1" xmlns="http://www.w3.org/2000/svg" xmlns:xlink="http://www.w3.org/1999/xlink" xml:space="preserve" xmlns:serif="http://www.serif.com/" style="fill-rule:evenodd;clip-rule:evenodd;stroke-linecap:round;">
    <g transform="matrix(1,0,0,1,-1574.53,-124.725)">
        <g id="dust_particle" transform="matrix(0.996617,0,0,0.996617,1.74267,-4.19525)">
            <rect x="1578.12" y="129.358" width="100.339" height="100.339" style="fill:none;"/>
            <clipPath id="_clip1">
                <rect x="1578.12" y="129.358" width="100.339" height="100.339"/>
            </clipPath>
            <g clip-path="url(#_clip1)">
                <g transform="matrix(1.00339,0,0,1.00339,-1.74858,4.20948)">
                    <path d="M1582.79,172.775C1581.21,169.678 1580.34,166.288 1580.34,162.736C1580.34,148.134 1595.08,136.279 1613.24,136.279C1620.36,136.279 1626.96,138.104 1632.35,141.203C1633.8,140.914 1635.31,140.761 1636.87,140.761C1644.32,140.761 1650.77,144.257 1653.81,149.32C1664.83,153.416 1672.49,162.389 1672.49,172.789C1672.49,178.296 1670.35,183.402 1666.69,187.595C1667.11,188.846 1667.33,190.16 1667.33,191.516C1667.33,199.857 1658.91,206.629 1648.54,206.629C1645.49,206.629 1642.61,206.045 1640.07,205.01C1635.87,206.634 1631.16,207.544 1626.19,207.544C1615.8,207.544 1606.56,203.57 1600.68,197.412C1598.24,197.24 1595.73,196.64 1593.27,195.573C1583.75,191.443 1578.73,181.878 1582.05,174.226C1582.27,173.721 1582.52,173.237 1582.79,172.775Z" style="fill:none;stroke:rgb(71,50,1);stroke-width:3.2px;"/>
                    <path d="M1582.79,172.775C1581.21,169.678 1580.34,166.288 1580.34,162.736C1580.34,148.134 1595.08,136.279 1613.24,136.279C1620.36,136.279 1626.96,138.104 1632.35,141.203C1633.8,140.914 1635.31,140.761 1636.87,140.761C1644.32,140.761 1650.77,144.257 1653.81,149.32C1664.83,153.416 1672.49,162.389 1672.49,172.789C1672.49,178.296 1670.35,183.402 1666.69,187.595C1667.11,188.846 1667.33,190.16 1667.33,191.516C1667.33,199.857 1658.91,206.629 1648.54,206.629C1645.49,206.629 1642.61,206.045 1640.07,205.01C1635.87,206.634 1631.16,207.544 1626.19,207.544C1615.8,207.544 1606.56,203.57 1600.68,197.412C1598.24,197.24 1595.73,196.64 1593.27,195.573C1583.75,191.443 1578.73,181.878 1582.05,174.226C1582.27,173.721 1582.52,173.237 1582.79,172.775Z" style="fill:rgb(253,215,124);"/>
                </g>
                <g transform="matrix(1.00339,0,0,1.00339,-1.74858,4.20948)">
                    <path d="M1591.3,165.482C1589.87,152.981 1605.04,143.64 1616.4,147.409" style="fill:none;stroke:rgb(71,50,1);stroke-opacity:0.71;stroke-width:3.2px;"/>
                </g>
                <g transform="matrix(1.00339,0,0,1.00339,5.59546,6.5045)">
                    <path d="M1592.67,177.147C1594.55,181.577 1599.9,187.666 1605.25,187.575" style="fill:none;stroke:rgb(71,50,1);stroke-opacity:0.71;stroke-width:3.2px;"/>
                </g>
                <g transform="matrix(1.00339,0,0,1.00339,22.1196,20.7336)">
                    <path d="M1632.47,174.631C1628.84,180.881 1621.01,181.438 1614.73,179.503" style="fill:none;stroke:rgb(71,50,1);stroke-opacity:0.71;stroke-width:3.2px;"/>
                </g>
                <g transform="matrix(1.00339,0,0,1.00339,-1.74858,4.20948)">
                    <path d="M1649.16,165.482C1651.21,168.45 1652.84,171.938 1652.33,175.622" style="fill:none;stroke:rgb(71,50,1);stroke-opacity:0.71;stroke-width:3.2px;"/>
                </g>
            </g>
        </g>
    </g>
</svg>
