<?xml version="1.0" encoding="UTF-8" standalone="no"?>
<!DOCTYPE svg PUBLIC "-//W3C//DTD SVG 1.1//EN" "http://www.w3.org/Graphics/SVG/1.1/DTD/svg11.dtd">
<svg width="100%" height="100%" viewBox="0 0 100 326" version="1.1" xmlns="http://www.w3.org/2000/svg" xmlns:xlink="http://www.w3.org/1999/xlink" xml:space="preserve" xmlns:serif="http://www.serif.com/" style="fill-rule:evenodd;clip-rule:evenodd;stroke-linejoin:round;stroke-miterlimit:2;">
    <g id="combined" transform="matrix(0.993977,0,0,1.10047,-0.577814,-129.136)">
        <rect x="0.581" y="117.346" width="100.606" height="295.336" style="fill:none;"/>
        <g transform="matrix(1.09342,0,0,0.98761,-2.55676,114.977)">
            <path d="M49.529,99.036C51.173,98.558 52.507,97.352 53.147,95.764C54.847,91.41 59.092,88.35 64.053,88.35C70.57,88.35 75.853,93.633 75.853,100.15C75.853,101.88 75.481,103.523 74.813,105.003C74.099,106.568 74.144,108.374 74.936,109.901C76.522,112.918 77.416,116.355 77.416,120.001C77.416,132.05 67.648,141.821 55.597,141.821C47.329,141.821 40.136,137.222 36.434,130.442C35.583,128.861 33.932,127.875 32.136,127.875C32.136,127.834 32.136,127.834 32.136,127.834C25.617,127.834 20.334,122.551 20.334,116.034C20.334,109.517 25.617,104.234 32.136,104.234C33.374,104.234 34.568,104.425 35.69,104.779C37.535,105.368 39.554,104.941 41.004,103.657C43.467,101.578 46.349,99.955 49.529,99.036Z" style="fill:white;fill-rule:nonzero;"/>
        </g>
        <g transform="matrix(0,-1.09293,-1.21003,0,50.8843,363.161)">
            <path d="M-12.682,-12.682C-19.687,-12.682 -25.365,-7.004 -25.365,0.001C-25.365,7.005 -19.687,12.682 -12.682,12.682C-5.677,12.682 0.001,7.005 0.001,0.001C0.001,-7.004 -5.677,-12.682 -12.682,-12.682" style="fill:white;fill-rule:nonzero;"/>
        </g>
        <g transform="matrix(0,-1.20138,-1.3301,0,34.0153,131.417)">
            <path d="M-12.682,-12.682C-19.687,-12.682 -25.365,-7.004 -25.365,0.001C-25.365,7.005 -19.687,12.682 -12.682,12.682C-5.677,12.682 0.001,7.005 0.001,0.001C0.001,-7.004 -5.677,-12.682 -12.682,-12.682" style="fill:white;fill-rule:nonzero;"/>
        </g>
        <g transform="matrix(0,-0.582951,-0.645409,0,71.3876,155.586)">
            <path d="M-12.682,-12.682C-19.687,-12.682 -25.365,-7.004 -25.365,0.001C-25.365,7.005 -19.687,12.682 -12.682,12.682C-5.677,12.682 0.001,7.005 0.001,0.001C0.001,-7.004 -5.677,-12.682 -12.682,-12.682" style="fill:white;fill-rule:nonzero;"/>
        </g>
        <g transform="matrix(1.09342,0,0,0.98761,-7.30453,132.792)">
            <path d="M53.105,169.126C53.863,169.458 54.75,169.183 55.186,168.48C56.799,165.903 59.663,164.188 62.927,164.188C67.966,164.188 72.051,168.273 72.051,173.313C72.051,178.352 67.966,182.437 62.927,182.437C62.892,182.437 62.856,182.437 62.821,182.437C61.992,182.429 61.282,183.03 61.151,183.849C60.077,190.209 54.539,195.049 47.87,195.049C40.421,195.049 34.383,189.009 34.383,181.56C34.383,174.111 40.421,168.072 47.87,168.072C49.727,168.072 51.496,168.448 53.105,169.126Z" style="fill:white;fill-rule:nonzero;"/>
        </g>
    </g>
</svg>
