<?xml version="1.0" encoding="UTF-8" standalone="no"?>
<!DOCTYPE svg PUBLIC "-//W3C//DTD SVG 1.1//EN" "http://www.w3.org/Graphics/SVG/1.1/DTD/svg11.dtd">
<svg width="100%" height="100%" viewBox="0 0 326 101" version="1.1" xmlns="http://www.w3.org/2000/svg" xmlns:xlink="http://www.w3.org/1999/xlink" xml:space="preserve" xmlns:serif="http://www.serif.com/" style="fill-rule:evenodd;clip-rule:evenodd;stroke-linejoin:round;stroke-miterlimit:2;">
    <g transform="matrix(1,0,0,1,-1394,-796)">
        <g id="forest_near" transform="matrix(1,0,0,1,1020.44,40.697)">
            <rect x="373.886" y="755.862" width="325" height="100" style="fill:none;"/>
            <g transform="matrix(1,0,0,1,0.886072,0.861683)">
                <path d="M373,855L382.385,805.036L390.982,830.979L397.016,812.276L406.216,840.33L412.853,818.913L414.663,835.504L422.053,816.801L427.634,837.766L431.254,829.018L434.421,838.068L439.399,816.801L444.678,828.867L446.94,809.26L455.236,829.471L458.252,826.454L460.816,813.483L464.587,822.382L468.358,810.768L472.581,822.382L478.011,807.751L480.273,824.041L482.988,821.326L485.251,814.84L487.061,824.644L491.435,827.962L494.15,814.991L497.317,827.359L500.334,824.644L502.144,814.69L505.462,826.454L509.534,812.88L514.813,819.969L520.997,807.299L522.807,816.65L526.88,800.813L529.142,813.634L535.326,803.377L540.152,816.349L549.353,809.26L554.33,820.421L559.157,810.919L561.57,814.84L565.492,810.315L568.81,813.181L572.581,808.958L576.955,817.254L584.798,810.014L586.457,826.907L591.133,815.594L595.959,830.225L599.881,821.477L604.104,829.923L610.288,818.762L616.17,833.694L620.092,822.382L625.522,832.337L630.198,824.343L634.421,819.064L636.382,825.851L638.644,819.969L640.756,826.605L644.526,824.192L647.694,828.415L653.576,825.549L655.084,829.018L656.442,838.37L665.19,824.795L668.056,841.085L671.525,828.264L676.955,844.403L682.083,834.75L686.457,846.364L693.093,837.314L694.752,846.967L697.32,841.838L698,855L373,855L373,855Z" style="fill:white;"/>
            </g>
        </g>
    </g>
</svg>
