<?xml version="1.0" encoding="UTF-8" standalone="no"?>
<!DOCTYPE svg PUBLIC "-//W3C//DTD SVG 1.1//EN" "http://www.w3.org/Graphics/SVG/1.1/DTD/svg11.dtd">
<svg width="100%" height="100%" viewBox="0 0 326 101" version="1.1" xmlns="http://www.w3.org/2000/svg" xmlns:xlink="http://www.w3.org/1999/xlink" xml:space="preserve" xmlns:serif="http://www.serif.com/" style="fill-rule:evenodd;clip-rule:evenodd;stroke-linejoin:round;stroke-miterlimit:2;">
    <g transform="matrix(1,0,0,1,-1390,-658)">
        <g id="forest_far" transform="matrix(1,0,0,0.9974,1390.73,30.073)">
            <rect x="0" y="630.18" width="325" height="100.261" style="fill:white;fill-opacity:0;"/>
            <g transform="matrix(1,0,0,1.00261,0,-132.989)">
                <path d="M1.357,838.434L5.628,814.867L8.672,824.671L12.819,813.17L16.59,824.859L22.058,824.294L23.943,814.867L35.632,822.785L34.313,811.184L40.346,819.769L41.1,811.184L43.928,817.918L47.887,809.588L49.018,803.496L51.469,807.891L54.486,805.629L59.576,815.621L59.011,806.571L62.593,812.981L64.29,805.817L68.249,811.184L70.323,805.063L73.905,809.022L78.807,809.399L80.127,801.292L83.332,809.211L85.595,798.464L88.988,808.457L89.365,800.538L92.005,807.891L95.21,803.496L97.661,808.457L102.94,801.669L106.145,809.211L111.236,805.251L113.498,811.184L120.851,806.571L121.794,808.645L124.622,803.496L129.335,808.457L130.843,806.006L133.294,808.645L135.18,803.496L138.762,811.184L140.647,808.268L142.533,815.621L145.172,811.184L147.623,817.918L151.771,811.184L155.919,819.769L159.689,820.523L162.5,815.432L162.5,819.58L166.665,819.769L167.797,814.113L170.813,819.769L171.756,815.809L173.641,817.918L176.846,813.924L179.237,817.116L183.058,812.854L185.471,818.646L189.211,811.285L191.383,811.044L192.228,808.993L194.279,810.803L196.692,805.855L198.985,810.32L202.002,815.388L202.484,809.355L204.415,815.026L205.984,809.234L209.603,814.423L212.861,808.51L215.637,814.181L217.929,809.113L219.136,810.923L222.514,808.389L223.359,811.044L228.186,808.51L231.806,818.284L234.701,811.889L241.459,820.938L247.552,814.679L254.791,823.849L257.929,816.006L260.342,818.54L263.721,813.351L267.702,824.573L271.202,816.609L274.942,827.228L279.769,819.264L286.647,827.831L293.283,821.194L294.731,830.003L298.351,823.125L301.006,832.657L303.057,831.33L304.867,826.383L307.28,832.657L311.503,828.434L313.555,834.588L319.346,828.434L321.156,833.623L323.303,830.945L325,861.184L0,861.184L1.357,838.434Z" style="fill:white;"/>
            </g>
        </g>
    </g>
</svg>
