<?xml version="1.0" encoding="UTF-8" standalone="no"?>
<!DOCTYPE svg PUBLIC "-//W3C//DTD SVG 1.1//EN" "http://www.w3.org/Graphics/SVG/1.1/DTD/svg11.dtd">
<svg width="100%" height="100%" viewBox="0 0 101 101" version="1.1" xmlns="http://www.w3.org/2000/svg" xmlns:xlink="http://www.w3.org/1999/xlink" xml:space="preserve" xmlns:serif="http://www.serif.com/" style="fill-rule:evenodd;clip-rule:evenodd;stroke-linejoin:round;stroke-miterlimit:2;">
    <g transform="matrix(1,0,0,1,-1384,-244)">
        <g id="fruit_trees" transform="matrix(1,0,0,1,1158.87,-208.475)">
            <rect x="225.405" y="453" width="100.405" height="100.405" style="fill:none;"/>
            <g transform="matrix(0.53507,0,0,0.470996,250.071,292.262)">
                <ellipse cx="51.996" cy="527.867" rx="37.924" ry="15.445" style="fill-opacity:0.19;"/>
            </g>
            <g transform="matrix(1,0,0,1,103.317,6.68377)">
                <path d="M157.528,469.95L157.603,469.967L157.703,469.99L157.829,470.021L157.978,470.059L158.151,470.104L158.347,470.157L158.563,470.218L158.8,470.287L159.056,470.365L159.192,470.408L159.332,470.452L159.476,470.499L159.625,470.548L159.777,470.599L159.934,470.653L160.095,470.71L160.26,470.768L160.428,470.829L160.6,470.893L160.775,470.959L160.954,471.028L161.136,471.1L161.321,471.174L161.509,471.25L161.7,471.33L161.894,471.412L162.091,471.497L162.29,471.585L162.491,471.676L162.695,471.769L162.901,471.866L163.109,471.965L163.319,472.068L163.531,472.173L163.745,472.282L163.96,472.394L164.177,472.509L164.395,472.627L164.615,472.748L164.835,472.872L165.057,473L165.28,473.131L165.503,473.266L165.727,473.404L165.952,473.545L166.177,473.69L166.402,473.839L166.628,473.991L166.854,474.146L167.079,474.305L167.192,474.386L167.305,474.468L167.418,474.551L167.53,474.635L167.643,474.719L167.755,474.805L167.868,474.892L167.98,474.979L168.092,475.068L168.204,475.157L168.315,475.248L168.427,475.339L168.538,475.431L168.649,475.525L168.76,475.619L168.87,475.714L168.98,475.811L169.09,475.908L169.2,476.006L169.309,476.106L169.418,476.206L169.526,476.308L169.635,476.41L169.743,476.514L169.85,476.618L169.957,476.724L170.064,476.83L170.17,476.938L170.275,477.046L170.38,477.156L170.485,477.267L170.589,477.379L170.693,477.492L170.796,477.606L170.899,477.721L171.001,477.837L171.102,477.954L171.203,478.073L171.303,478.192L171.402,478.313L171.501,478.435L171.599,478.558L171.697,478.681L171.794,478.807L171.89,478.933L171.985,479.06L172.08,479.189L172.174,479.318L172.267,479.449L172.359,479.581L172.45,479.714L172.541,479.848L172.631,479.983L172.719,480.12L172.807,480.258L172.894,480.397L172.981,480.537L173.066,480.678L173.15,480.82L173.233,480.964L173.316,481.109L173.397,481.255L173.477,481.402L173.557,481.55L173.635,481.7L173.712,481.851L173.788,482.003L173.863,482.156L173.937,482.31L174.01,482.466L174.081,482.623L174.152,482.781L174.221,482.94L174.289,483.101L174.356,483.263L174.421,483.426L174.486,483.59L174.549,483.755L174.611,483.922L174.671,484.09L174.73,484.259L174.788,484.43L174.845,484.601L174.9,484.774L174.954,484.949L175.006,485.124L175.057,485.301L175.107,485.479L175.155,485.658L175.201,485.839L175.247,486.02L175.29,486.203L175.333,486.388L175.373,486.573L175.412,486.76L175.45,486.948L175.486,487.138L175.521,487.328L175.553,487.52L175.585,487.713L175.614,487.908L175.642,488.104L175.669,488.301L175.693,488.499L175.716,488.699L175.738,488.9L175.757,489.102L175.775,489.305L175.791,489.51L175.806,489.716L175.818,489.924L175.829,490.132L175.838,490.342L175.845,490.554L175.85,490.766L175.854,490.98L175.856,491.195L175.855,491.412L175.853,491.63L175.849,491.849L175.843,492.069L175.836,492.291L175.826,492.514L175.814,492.739L175.8,492.965L175.785,493.192L175.767,493.42L175.747,493.65L175.726,493.881L175.702,494.115L175.684,494.268L175.664,494.423L175.642,494.58L175.617,494.738L175.589,494.897L175.56,495.057L175.528,495.218L175.495,495.38L175.459,495.544L175.421,495.708L175.381,495.873L175.339,496.04L175.295,496.207L175.249,496.375L175.201,496.545L175.152,496.715L175.101,496.886L175.047,497.058L174.993,497.231L174.936,497.405L174.878,497.58L174.818,497.756L174.757,497.932L174.694,498.109L174.629,498.287L174.563,498.466L174.496,498.645L174.427,498.825L174.357,499.006L174.285,499.187L174.212,499.369L174.139,499.548L174.034,499.808L173.932,500.066L173.831,500.324L173.733,500.582L173.637,500.841L173.543,501.101L173.45,501.361L173.36,501.621L173.271,501.882L173.185,502.143L173.1,502.405L173.018,502.667L172.937,502.93L172.858,503.192L172.781,503.456L172.706,503.719L172.633,503.983L172.562,504.247L172.493,504.512L172.426,504.776L172.361,505.041L172.298,505.307L172.236,505.573L172.177,505.838L172.119,506.105L172.064,506.371L172.01,506.638L171.958,506.905L171.909,507.172L171.861,507.439L171.815,507.707L171.771,507.974L171.729,508.242L171.688,508.51L171.65,508.779L171.614,509.047L171.579,509.316L171.547,509.584L171.516,509.853L171.487,510.122L171.461,510.391L171.436,510.66L171.413,510.929L171.392,511.198L171.372,511.467L171.355,511.737L171.34,512.006L171.326,512.275L171.315,512.545L171.305,512.814L171.297,513.083L171.292,513.352L171.288,513.622L171.286,513.891L171.285,514.16L171.287,514.429L171.291,514.698L171.296,514.967L171.304,515.236L171.313,515.505L171.324,515.774L171.337,516.042L171.352,516.311L171.369,516.579L171.388,516.847L171.409,517.115L171.431,517.383L171.455,517.651L171.482,517.918L171.51,518.185L171.54,518.452L171.572,518.719L171.606,518.986L171.641,519.252L171.679,519.518L171.718,519.784L171.76,520.049L171.803,520.315L171.848,520.58L171.895,520.844L171.944,521.109L171.994,521.373L172.047,521.636L172.101,521.9L172.157,522.163L172.215,522.425L172.275,522.687L172.337,522.949L172.401,523.211L172.466,523.472L172.534,523.732L172.603,523.992L172.674,524.252L172.747,524.512L172.822,524.77L172.899,525.029L172.977,525.287L173.058,525.544L173.14,525.801L173.224,526.057L173.31,526.313L173.398,526.569L173.487,526.824L173.579,527.078L173.672,527.332L173.767,527.585L173.864,527.837L173.963,528.089L174.064,528.341L174.166,528.591L174.271,528.842L174.377,529.091L174.485,529.34L174.595,529.588L174.707,529.836L174.82,530.083L174.935,530.329L175.053,530.575L175.172,530.82L175.293,531.064L175.415,531.307L175.54,531.55L175.666,531.792L175.794,532.033L175.924,532.274L176.056,532.513L176.19,532.752L176.328,532.996L176.325,532.99L176.33,532.999L176.47,534.273L175.678,535.28L175.66,535.29L174.386,535.43L173.379,534.638L173.374,534.629L173.374,534.629L173.371,534.623L173.234,534.365L173.095,534.102L172.959,533.837L172.825,533.572L172.692,533.305L172.562,533.039L172.434,532.771L172.307,532.503L172.183,532.234L172.061,531.965L171.941,531.694L171.823,531.423L171.707,531.152L171.593,530.88L171.481,530.607L171.37,530.334L171.263,530.06L171.157,529.786L171.053,529.511L170.951,529.235L170.851,528.959L170.753,528.682L170.657,528.405L170.564,528.127L170.472,527.849L170.382,527.57L170.294,527.291L170.209,527.012L170.125,526.732L170.044,526.451L169.964,526.17L169.887,525.889L169.811,525.607L169.738,525.325L169.666,525.042L169.597,524.759L169.53,524.476L169.464,524.193L169.401,523.909L169.34,523.624L169.281,523.34L169.223,523.055L169.168,522.769L169.115,522.484L169.064,522.198L169.015,521.912L168.968,521.626L168.923,521.339L168.88,521.052L168.839,520.765L168.8,520.478L168.764,520.191L168.729,519.903L168.696,519.615L168.665,519.328L168.637,519.039L168.61,518.751L168.585,518.463L168.563,518.174L168.542,517.886L168.524,517.597L168.507,517.308L168.493,517.02L168.48,516.731L168.47,516.442L168.461,516.153L168.455,515.864L168.451,515.575L168.448,515.285L168.448,514.996L168.45,514.707L168.454,514.418L168.46,514.129L168.468,513.84L168.478,513.551L168.49,513.263L168.504,512.974L168.52,512.685L168.538,512.397L168.558,512.108L168.58,511.82L168.604,511.532L168.631,511.244L168.659,510.956L168.689,510.668L168.721,510.38L168.756,510.093L168.792,509.806L168.831,509.519L168.871,509.232L168.914,508.946L168.958,508.659L169.005,508.373L169.054,508.087L169.104,507.802L169.157,507.517L169.212,507.232L169.268,506.947L169.327,506.663L169.388,506.379L169.451,506.096L169.516,505.812L169.583,505.529L169.652,505.247L169.723,504.965L169.796,504.683L169.871,504.402L169.948,504.121L170.027,503.84L170.109,503.56L170.192,503.281L170.277,503.002L170.365,502.723L170.454,502.445L170.545,502.167L170.639,501.89L170.734,501.613L170.832,501.337L170.931,501.062L171.033,500.787L171.137,500.512L171.242,500.238L171.35,499.965L171.46,499.692L171.571,499.42L171.685,499.149L171.801,498.878L171.918,498.611L171.993,498.438L172.066,498.27L172.138,498.102L172.208,497.936L172.276,497.77L172.343,497.606L172.409,497.442L172.473,497.28L172.535,497.118L172.595,496.958L172.654,496.8L172.711,496.642L172.767,496.486L172.82,496.331L172.872,496.178L172.922,496.026L172.97,495.876L173.017,495.727L173.061,495.58L173.103,495.434L173.144,495.291L173.182,495.149L173.218,495.009L173.253,494.871L173.285,494.735L173.315,494.601L173.343,494.47L173.369,494.34L173.392,494.213L173.414,494.088L173.433,493.965L173.45,493.843L173.478,493.631L173.503,493.419L173.527,493.209L173.549,492.999L173.569,492.791L173.587,492.584L173.603,492.379L173.618,492.175L173.63,491.972L173.641,491.771L173.65,491.571L173.657,491.372L173.663,491.175L173.667,490.979L173.669,490.784L173.669,490.59L173.668,490.398L173.665,490.207L173.66,490.017L173.653,489.829L173.645,489.642L173.636,489.456L173.625,489.271L173.612,489.088L173.597,488.906L173.581,488.725L173.564,488.545L173.545,488.367L173.525,488.189L173.502,488.013L173.479,487.839L173.454,487.665L173.428,487.492L173.4,487.321L173.371,487.151L173.34,486.982L173.308,486.815L173.274,486.648L173.239,486.483L173.203,486.318L173.166,486.155L173.127,485.993L173.087,485.832L173.045,485.673L173.002,485.514L172.958,485.357L172.913,485.2L172.867,485.045L172.819,484.891L172.77,484.738L172.72,484.586L172.668,484.435L172.616,484.285L172.562,484.137L172.507,483.989L172.451,483.842L172.394,483.697L172.336,483.553L172.277,483.409L172.216,483.267L172.155,483.125L172.092,482.985L172.029,482.846L171.964,482.708L171.898,482.57L171.832,482.434L171.764,482.299L171.696,482.165L171.626,482.032L171.555,481.899L171.484,481.768L171.412,481.638L171.338,481.509L171.264,481.381L171.189,481.253L171.113,481.127L171.036,481.002L170.958,480.877L170.88,480.754L170.801,480.632L170.72,480.51L170.639,480.39L170.558,480.27L170.475,480.152L170.392,480.034L170.308,479.917L170.223,479.801L170.138,479.686L170.052,479.573L169.965,479.46L169.877,479.347L169.789,479.236L169.7,479.126L169.611,479.017L169.521,478.908L169.43,478.801L169.338,478.694L169.247,478.588L169.154,478.484L169.061,478.38L168.968,478.277L168.873,478.175L168.779,478.073L168.684,477.973L168.588,477.874L168.492,477.775L168.396,477.677L168.299,477.58L168.201,477.484L168.103,477.389L168.005,477.295L167.907,477.202L167.808,477.109L167.708,477.018L167.609,476.927L167.509,476.837L167.408,476.748L167.308,476.659L167.207,476.572L167.106,476.485L167.004,476.4L166.903,476.315L166.801,476.231L166.698,476.148L166.596,476.065L166.494,475.984L166.391,475.903L166.288,475.823L166.185,475.744L166.083,475.666L165.875,475.511L165.669,475.361L165.461,475.213L165.254,475.068L165.047,474.927L164.84,474.789L164.633,474.654L164.427,474.522L164.221,474.393L164.016,474.267L163.811,474.144L163.607,474.024L163.404,473.908L163.203,473.794L163.002,473.683L162.803,473.575L162.605,473.47L162.409,473.367L162.215,473.268L162.022,473.171L161.832,473.077L161.643,472.986L161.457,472.898L161.272,472.812L161.091,472.73L160.911,472.649L160.735,472.572L160.561,472.497L160.39,472.424L160.222,472.354L160.058,472.287L159.896,472.222L159.738,472.16L159.583,472.1L159.432,472.043L159.285,471.988L159.142,471.935L159.002,471.885L158.867,471.837L158.736,471.791L158.61,471.748L158.369,471.668L158.147,471.597L157.946,471.534L157.765,471.48L157.606,471.433L157.47,471.395L157.357,471.364L157.268,471.341L157.206,471.325L157.153,471.312L156.623,470.467L157.469,469.937L157.528,469.95Z" style="fill:rgb(54,19,0);"/>
            </g>
            <g transform="matrix(1.02069,0,0,0.993391,132.621,10.8704)">
                <path d="M140.06,531.114C140.06,531.114 140.908,535.398 139.161,535.939C139.15,535.942 145.493,535.968 145.493,535.968C145.493,535.968 144.848,534.113 144.145,532.559C144.11,532.48 140.06,531.114 140.06,531.114Z" style="fill:rgb(54,19,0);"/>
            </g>
            <g transform="matrix(1,0,0,1,0.4052,0)">
                <path d="M286.607,495.923L286.558,496.013L286.507,496.105L286.454,496.196L286.399,496.286L286.342,496.375L286.284,496.463L286.224,496.55L286.163,496.636L286.1,496.721L286.036,496.806L285.97,496.889L285.902,496.971L285.834,497.053L285.764,497.133L285.693,497.213L285.62,497.291L285.546,497.369L285.471,497.445L285.395,497.521L285.318,497.596L285.239,497.67L285.16,497.743L285.08,497.815L284.998,497.886L284.916,497.957L284.832,498.026L284.748,498.095L284.663,498.162L284.577,498.229L284.491,498.295L284.403,498.36L284.315,498.424L284.227,498.487L284.137,498.55L284.047,498.611L283.957,498.672L283.866,498.732L283.774,498.791L283.682,498.849L283.589,498.906L283.497,498.963L283.403,499.019L283.31,499.073L283.216,499.127L283.122,499.181L283.027,499.233L282.932,499.285L282.837,499.336L282.648,499.435L282.457,499.531L282.267,499.624L282.077,499.714L281.887,499.801L281.699,499.885L281.511,499.966L281.324,500.044L281.139,500.119L280.956,500.192L280.775,500.261L280.596,500.328L280.42,500.392L280.247,500.453L280.076,500.512L279.909,500.568L279.746,500.621L279.587,500.672L279.432,500.72L279.281,500.765L279.135,500.808L278.994,500.849L278.858,500.887L278.726,500.923L278.484,500.987L278.265,501.043L278.073,501.089L277.911,501.126L277.779,501.155L277.681,501.176L277.601,501.191L276.725,500.542L277.374,499.667L277.447,499.66L277.533,499.651L277.653,499.638L277.804,499.619L277.984,499.595L278.191,499.565L278.425,499.529L278.549,499.508L278.679,499.486L278.815,499.462L278.956,499.436L279.101,499.408L279.251,499.378L279.405,499.346L279.563,499.312L279.725,499.276L279.89,499.237L280.059,499.197L280.23,499.154L280.404,499.109L280.58,499.062L280.759,499.012L280.939,498.959L281.121,498.905L281.305,498.847L281.489,498.787L281.675,498.724L281.861,498.659L282.047,498.591L282.234,498.519L282.421,498.445L282.513,498.407L282.606,498.369L282.699,498.329L282.792,498.289L282.884,498.248L282.976,498.206L283.068,498.163L283.159,498.12L283.25,498.076L283.341,498.031L283.431,497.985L283.521,497.939L283.611,497.892L283.7,497.843L283.788,497.795L283.876,497.745L283.963,497.694L284.049,497.643L284.135,497.591L284.22,497.538L284.305,497.484L284.388,497.429L284.471,497.373L284.553,497.317L284.635,497.259L284.715,497.201L284.794,497.142L284.873,497.082L284.951,497.021L285.027,496.959L285.103,496.897L285.177,496.833L285.251,496.768L285.323,496.703L285.394,496.636L285.464,496.569L285.533,496.501L285.601,496.431L285.667,496.361L285.732,496.29L285.796,496.218L285.858,496.144L285.919,496.07L285.979,495.995L286.037,495.918L286.094,495.841L286.15,495.762L286.205,495.681L286.529,495.596L286.607,495.923Z" style="fill:rgb(54,19,0);"/>
            </g>
            <g transform="matrix(1,0,0,1,0.4052,0)">
                <path d="M283.408,505.152L283.497,505.238L283.582,505.324L283.661,505.41L283.735,505.493L283.771,505.536L283.806,505.577L283.838,505.619L283.87,505.66L283.901,505.701L283.93,505.742L283.958,505.782L283.985,505.823L284.01,505.863L284.034,505.904L284.058,505.944L284.08,505.984L284.1,506.024L284.12,506.064L284.138,506.105L284.155,506.145L284.171,506.185L284.185,506.225L284.198,506.265L284.21,506.305L284.221,506.345L284.23,506.385L284.238,506.426L284.244,506.466L284.249,506.506L284.253,506.546L284.255,506.587L284.256,506.627L284.255,506.667L284.252,506.706L284.249,506.746L284.243,506.785L284.236,506.824L284.228,506.863L284.218,506.901L284.207,506.939L284.194,506.976L284.18,507.013L284.165,507.049L284.148,507.084L284.13,507.119L284.111,507.153L284.09,507.186L284.069,507.218L284.046,507.25L284.023,507.281L283.998,507.312L283.973,507.341L283.947,507.37L283.919,507.398L283.892,507.426L283.863,507.452L283.833,507.479L283.801,507.505L283.741,507.553L283.675,507.6L283.608,507.645L283.537,507.687L283.465,507.728L283.39,507.767L283.313,507.804L283.233,507.839L283.152,507.873L283.068,507.906L282.982,507.937L282.895,507.967L282.805,507.996L282.714,508.023L282.621,508.05L282.525,508.075L282.429,508.099L282.33,508.122L282.23,508.144L282.129,508.165L282.026,508.185L281.921,508.204L281.815,508.222L281.708,508.24L281.6,508.256L281.49,508.272L281.38,508.287L281.268,508.301L281.156,508.314L281.042,508.326L280.928,508.338L280.813,508.349L280.697,508.359L280.464,508.378L280.229,508.394L279.993,508.408L279.757,508.419L279.52,508.428L279.283,508.435L279.048,508.44L278.815,508.443L278.584,508.445L278.355,508.445L278.131,508.444L277.91,508.441L277.694,508.438L277.484,508.433L277.279,508.427L277.081,508.421L276.89,508.414L276.706,508.407L276.367,508.391L276.065,508.375L275.806,508.359L275.596,508.345L275.438,508.334L275.307,508.324L274.641,507.461L275.504,506.794L275.628,506.817L275.775,506.843L275.974,506.877L276.221,506.917L276.51,506.962L276.837,507.011L277.012,507.036L277.195,507.061L277.386,507.087L277.582,507.112L277.785,507.137L277.992,507.162L278.204,507.186L278.42,507.209L278.639,507.232L278.861,507.253L279.086,507.272L279.311,507.29L279.537,507.307L279.764,507.321L279.99,507.333L280.216,507.343L280.439,507.351L280.662,507.356L280.77,507.357L280.879,507.358L280.987,507.358L281.094,507.357L281.2,507.355L281.305,507.353L281.409,507.35L281.511,507.345L281.612,507.34L281.711,507.335L281.809,507.328L281.905,507.32L282,507.312L282.092,507.302L282.183,507.292L282.272,507.28L282.359,507.268L282.443,507.254L282.525,507.24L282.605,507.225L282.682,507.208L282.757,507.191L282.829,507.173L282.899,507.154L282.965,507.134L283.028,507.113L283.089,507.091L283.146,507.069L283.2,507.046L283.25,507.022L283.298,506.998L283.341,506.973L283.383,506.947L283.4,506.935L283.418,506.923L283.435,506.91L283.451,506.897L283.467,506.885L283.481,506.872L283.495,506.86L283.508,506.847L283.52,506.834L283.531,506.822L283.542,506.809L283.552,506.797L283.564,506.779L283.558,506.789L283.57,506.772L283.581,506.754L283.575,506.764L283.586,506.746L283.595,506.728L283.59,506.739L283.599,506.72L283.607,506.701L283.603,506.713L283.61,506.693L283.617,506.673L283.614,506.685L283.62,506.665L283.625,506.644L283.623,506.656L283.627,506.635L283.631,506.613L283.63,506.625L283.633,506.603L283.634,506.585L283.636,506.567L283.636,506.549L283.636,506.529L283.635,506.509L283.633,506.488L283.631,506.466L283.627,506.443L283.623,506.419L283.618,506.395L283.612,506.369L283.605,506.343L283.596,506.316L283.587,506.288L283.576,506.259L283.565,506.229L283.552,506.199L283.538,506.167L283.523,506.135L283.507,506.102L283.489,506.068L283.47,506.034L283.45,505.998L283.429,505.962L283.406,505.926L283.382,505.888L283.357,505.85L283.33,505.812L283.272,505.731L283.21,505.648L283.141,505.563L283.065,505.473L283.072,505.137L283.408,505.152Z" style="fill:rgb(54,19,0);"/>
            </g>
            <g transform="matrix(1,0,0,1,0.4052,0)">
                <path d="M285.822,503.482L285.861,503.485L285.9,503.489L285.939,503.494L285.977,503.5L286.046,503.586L285.958,503.653L285.922,503.65L285.888,503.648L285.854,503.648L285.821,503.649L285.788,503.651L285.756,503.654L285.725,503.657L285.694,503.662L285.663,503.668L285.633,503.675L285.603,503.683L285.574,503.692L285.545,503.702L285.517,503.712L285.489,503.724L285.461,503.736L285.434,503.749L285.408,503.763L285.381,503.778L285.355,503.794L285.329,503.81L285.304,503.828L285.279,503.846L285.254,503.864L285.23,503.884L285.206,503.904L285.182,503.925L285.159,503.947L285.136,503.97L285.114,503.992L285.069,504.041L285.026,504.092L284.984,504.145L284.943,504.201L284.904,504.259L284.865,504.318L284.829,504.38L284.793,504.444L284.758,504.508L284.725,504.575L284.693,504.642L284.662,504.711L284.632,504.781L284.604,504.851L284.577,504.922L284.55,504.994L284.525,505.066L284.501,505.138L284.478,505.21L284.457,505.283L284.436,505.354L284.416,505.426L284.397,505.496L284.379,505.567L284.363,505.635L284.332,505.771L284.305,505.9L284.281,506.023L284.261,506.138L284.244,506.244L284.229,506.339L284.218,506.423L284.209,506.493L284.198,506.593L284.194,506.627L283.909,506.841L283.695,506.556L283.702,506.518L283.724,506.412L283.74,506.337L283.76,506.249L283.784,506.15L283.812,506.04L283.844,505.922L283.881,505.795L283.921,505.661L283.966,505.523L283.99,505.451L284.015,505.379L284.042,505.306L284.069,505.232L284.098,505.158L284.128,505.084L284.159,505.01L284.191,504.935L284.225,504.861L284.26,504.787L284.296,504.713L284.333,504.64L284.372,504.568L284.412,504.496L284.453,504.426L284.496,504.357L284.54,504.289L284.585,504.223L284.632,504.158L284.68,504.096L284.73,504.035L284.782,503.976L284.835,503.92L284.889,503.866L284.945,503.816L284.974,503.791L285.003,503.767L285.033,503.744L285.062,503.722L285.093,503.701L285.124,503.68L285.155,503.66L285.186,503.641L285.218,503.624L285.251,503.607L285.284,503.591L285.317,503.576L285.351,503.561L285.385,503.549L285.419,503.537L285.454,503.526L285.489,503.516L285.525,503.508L285.561,503.5L285.597,503.494L285.634,503.489L285.671,503.485L285.709,503.483L285.746,503.481L285.784,503.481L285.822,503.482Z" style="fill:rgb(54,19,0);"/>
            </g>
            <g transform="matrix(1,0,0,1,0.4052,0)">
                <path d="M267.551,496.469L267.575,496.559L267.601,496.647L267.629,496.734L267.66,496.821L267.693,496.909L267.728,496.996L267.766,497.083L267.806,497.17L267.848,497.257L267.892,497.344L267.938,497.431L267.987,497.517L268.037,497.604L268.09,497.69L268.144,497.777L268.201,497.863L268.259,497.949L268.319,498.035L268.381,498.12L268.445,498.206L268.511,498.291L268.578,498.376L268.647,498.461L268.718,498.545L268.79,498.629L268.864,498.713L268.939,498.797L269.016,498.88L269.094,498.963L269.174,499.046L269.254,499.129L269.337,499.211L269.42,499.292L269.505,499.374L269.59,499.455L269.677,499.535L269.765,499.615L269.854,499.695L269.944,499.774L270.035,499.853L270.127,499.932L270.219,500.01L270.313,500.087L270.407,500.164L270.502,500.241L270.597,500.317L270.693,500.392L270.79,500.467L270.888,500.541L270.985,500.615L271.182,500.761L271.381,500.905L271.58,501.046L271.781,501.185L271.982,501.321L272.182,501.454L272.383,501.585L272.583,501.713L272.781,501.838L272.979,501.96L273.175,502.079L273.368,502.195L273.559,502.308L273.748,502.417L273.933,502.523L274.115,502.625L274.293,502.724L274.467,502.82L274.636,502.911L274.8,502.999L274.959,503.083L275.113,503.163L275.26,503.239L275.536,503.379L275.784,503.502L276,503.608L276.183,503.695L276.33,503.764L276.436,503.813L276.526,503.853L276.865,504.889L275.829,505.228L275.738,505.177L275.627,505.114L275.478,505.028L275.294,504.919L275.078,504.789L274.832,504.639L274.559,504.469L274.413,504.377L274.261,504.28L274.105,504.178L273.943,504.073L273.776,503.963L273.605,503.848L273.43,503.73L273.252,503.608L273.07,503.481L272.885,503.351L272.698,503.218L272.508,503.08L272.317,502.94L272.124,502.795L271.929,502.648L271.734,502.497L271.538,502.344L271.342,502.187L271.146,502.027L270.951,501.865L270.756,501.7L270.563,501.532L270.371,501.363L270.276,501.276L270.181,501.19L270.087,501.103L269.993,501.015L269.9,500.927L269.808,500.838L269.716,500.749L269.625,500.659L269.535,500.568L269.446,500.478L269.358,500.386L269.271,500.295L269.184,500.202L269.099,500.11L269.015,500.017L268.932,499.923L268.85,499.829L268.769,499.735L268.689,499.64L268.611,499.545L268.534,499.449L268.459,499.354L268.385,499.257L268.312,499.161L268.241,499.064L268.171,498.967L268.103,498.869L268.037,498.771L267.973,498.673L267.91,498.575L267.849,498.476L267.789,498.377L267.732,498.278L267.677,498.179L267.623,498.079L267.572,497.979L267.522,497.879L267.475,497.779L267.43,497.679L267.387,497.578L267.346,497.477L267.308,497.376L267.272,497.275L267.239,497.174L267.208,497.073L267.179,496.972L267.153,496.87L267.13,496.769L267.11,496.667L267.092,496.569L267.271,496.285L267.551,496.469Z" style="fill:rgb(54,19,0);"/>
            </g>
            <g transform="matrix(1,0,0,1,0.4052,0)">
                <path d="M303.349,477.906L303.611,477.907L303.874,477.91L304.139,477.915L304.406,477.92L304.673,477.927L304.982,478.233L304.67,478.536L304.405,478.54L304.141,478.546L303.879,478.553L303.619,478.561L303.361,478.571L303.104,478.582L302.849,478.593L302.595,478.606L302.343,478.62L302.092,478.636L301.843,478.652L301.596,478.67L301.35,478.688L301.106,478.708L300.864,478.729L300.623,478.751L300.383,478.774L300.145,478.798L299.909,478.823L299.674,478.849L299.441,478.876L299.21,478.904L298.979,478.933L298.751,478.964L298.524,478.995L298.298,479.027L298.074,479.06L297.852,479.094L297.631,479.129L297.411,479.165L297.194,479.202L296.977,479.24L296.762,479.278L296.549,479.318L296.337,479.359L296.126,479.4L295.917,479.442L295.71,479.485L295.504,479.529L295.299,479.574L295.096,479.619L294.894,479.666L294.694,479.713L294.495,479.761L294.298,479.81L294.102,479.859L293.908,479.909L293.715,479.96L293.523,480.012L293.333,480.064L293.144,480.118L292.957,480.172L292.771,480.226L292.586,480.281L292.403,480.337L292.222,480.394L292.041,480.451L291.862,480.509L291.685,480.568L291.508,480.627L291.334,480.687L291.16,480.747L290.988,480.808L290.817,480.87L290.648,480.932L290.48,480.994L290.313,481.058L290.148,481.121L289.984,481.186L289.821,481.251L289.659,481.316L289.499,481.382L289.341,481.448L289.183,481.515L289.027,481.582L288.872,481.65L288.719,481.718L288.566,481.787L288.415,481.856L288.266,481.926L288.117,481.995L287.97,482.066L287.824,482.136L287.679,482.208L287.536,482.279L287.394,482.351L287.253,482.423L287.113,482.495L286.975,482.568L286.838,482.641L286.702,482.715L286.567,482.789L286.434,482.863L286.301,482.937L286.17,483.012L286.041,483.086L285.912,483.162L285.784,483.237L285.658,483.313L285.533,483.388L285.409,483.464L285.286,483.541L285.165,483.617L285.044,483.693L284.925,483.77L284.807,483.847L284.69,483.924L284.575,484.001L284.46,484.079L284.346,484.156L284.234,484.234L284.124,484.311L283.904,484.467L283.689,484.623L283.479,484.779L283.273,484.935L283.072,485.091L282.875,485.247L282.682,485.403L282.494,485.559L282.309,485.715L282.129,485.87L281.953,486.025L281.781,486.179L281.614,486.333L281.45,486.486L281.29,486.639L281.134,486.79L280.982,486.941L280.834,487.09L280.69,487.239L280.55,487.387L280.414,487.533L280.281,487.678L280.152,487.821L280.026,487.964L279.905,488.104L279.787,488.243L279.672,488.381L279.561,488.516L279.454,488.65L279.35,488.782L279.25,488.911L279.153,489.039L279.059,489.165L278.969,489.288L278.882,489.409L278.798,489.528L278.717,489.644L278.64,489.757L278.566,489.868L278.495,489.976L278.428,490.081L278.363,490.184L278.301,490.283L278.243,490.379L278.187,490.473L278.135,490.562L278.085,490.649L278.039,490.732L277.995,490.812L277.954,490.888L277.916,490.96L277.881,491.028L277.848,491.092L277.82,491.15L277.768,491.26L277.729,491.348L277.701,491.415L277.69,491.445L277.685,491.464L277.685,491.461L277.687,491.453L277.678,491.478L277.684,491.462L277.69,491.445L277.698,491.415L277.715,491.327L277.723,491.167L277.687,490.935L277.437,490.505L277.35,490.467L277.565,491.763L277.525,491.819L277.483,491.866L277.39,491.958L277.287,492.036L277.282,492.04L277.146,492.116L277,492.169L276.847,492.2L276.691,492.206L276.689,492.206L276.54,492.189L276.394,492.15L276.256,492.089L276.129,492.009L276.015,491.91L276.014,491.908L275.907,491.779L275.822,491.634L275.763,491.477L275.763,491.474L275.737,491.357L275.726,491.239L275.723,491.15L275.743,491.003L275.767,490.908L275.787,490.842L275.807,490.787L275.829,490.73L275.873,490.629L275.927,490.514L275.99,490.387L276.063,490.249L276.105,490.171L276.149,490.093L276.196,490.01L276.246,489.925L276.299,489.836L276.355,489.744L276.414,489.649L276.476,489.551L276.542,489.449L276.61,489.345L276.682,489.237L276.757,489.127L276.835,489.014L276.917,488.899L277.002,488.781L277.09,488.66L277.182,488.537L277.277,488.412L277.375,488.284L277.478,488.154L277.583,488.022L277.693,487.888L277.806,487.752L277.922,487.614L278.042,487.474L278.166,487.333L278.294,487.189L278.425,487.045L278.561,486.899L278.7,486.751L278.843,486.603L278.989,486.453L279.14,486.302L279.295,486.15L279.453,485.997L279.616,485.843L279.783,485.688L279.953,485.533L280.128,485.377L280.307,485.22L280.49,485.064L280.677,484.906L280.869,484.749L281.064,484.591L281.264,484.433L281.468,484.275L281.677,484.117L281.889,483.96L282.107,483.802L282.328,483.645L282.554,483.488L282.785,483.332L283.02,483.176L283.258,483.022L283.38,482.944L283.503,482.867L283.627,482.79L283.751,482.714L283.877,482.637L284.005,482.561L284.133,482.485L284.262,482.41L284.393,482.334L284.525,482.259L284.658,482.184L284.792,482.11L284.927,482.035L285.063,481.962L285.201,481.888L285.34,481.815L285.48,481.742L285.621,481.669L285.763,481.597L285.907,481.525L286.052,481.454L286.198,481.383L286.345,481.313L286.493,481.242L286.643,481.173L286.793,481.104L286.946,481.035L287.099,480.966L287.253,480.899L287.409,480.831L287.566,480.764L287.724,480.698L287.883,480.632L288.044,480.567L288.206,480.502L288.369,480.438L288.533,480.374L288.699,480.311L288.866,480.249L289.034,480.187L289.204,480.125L289.374,480.065L289.546,480.004L289.719,479.945L289.894,479.886L290.07,479.828L290.247,479.77L290.425,479.713L290.605,479.657L290.786,479.602L290.968,479.547L291.152,479.493L291.336,479.44L291.523,479.387L291.71,479.335L291.899,479.284L292.089,479.233L292.28,479.184L292.473,479.135L292.667,479.087L292.863,479.04L293.059,478.993L293.257,478.948L293.457,478.903L293.658,478.859L293.86,478.816L294.063,478.774L294.268,478.732L294.474,478.692L294.682,478.652L294.891,478.614L295.101,478.576L295.312,478.539L295.525,478.503L295.74,478.468L295.956,478.434L296.173,478.401L296.391,478.369L296.611,478.338L296.833,478.308L297.055,478.279L297.279,478.251L297.505,478.224L297.732,478.198L297.96,478.173L298.19,478.149L298.421,478.126L298.654,478.104L298.888,478.083L299.123,478.063L299.36,478.045L299.599,478.027L299.839,478.011L300.08,477.996L300.322,477.982L300.567,477.969L300.812,477.957L301.059,477.947L301.308,477.937L301.558,477.929L301.809,477.922L302.062,477.916L302.317,477.912L302.573,477.908L302.83,477.906L303.089,477.905L303.349,477.906ZM276.177,490.375L275.988,490.54L275.94,490.599L277.182,490.393L276.764,490.21L276.177,490.375Z" style="fill:rgb(54,19,0);"/>
            </g>
            <g transform="matrix(1,0,0,1,0.4052,0)">
                <path d="M277.914,478.159L277.831,478.38L277.773,478.41L277.717,478.441L277.662,478.473L277.607,478.507L277.551,478.542L277.497,478.579L277.442,478.617L277.388,478.656L277.333,478.696L277.28,478.737L277.226,478.78L277.173,478.824L277.12,478.869L277.067,478.916L277.014,478.963L276.962,479.012L276.91,479.061L276.858,479.112L276.807,479.163L276.756,479.216L276.705,479.27L276.655,479.324L276.605,479.38L276.555,479.436L276.505,479.493L276.456,479.551L276.407,479.61L276.359,479.669L276.262,479.791L276.167,479.915L276.074,480.042L275.982,480.171L275.891,480.303L275.802,480.436L275.715,480.571L275.629,480.707L275.544,480.845L275.461,480.984L275.38,481.124L275.3,481.264L275.222,481.405L275.146,481.546L275.071,481.687L274.998,481.827L274.927,481.968L274.858,482.107L274.79,482.246L274.724,482.383L274.661,482.52L274.599,482.654L274.538,482.787L274.48,482.918L274.424,483.047L274.37,483.173L274.317,483.297L274.267,483.417L274.172,483.649L274.086,483.867L274.008,484.069L273.939,484.254L273.879,484.419L273.828,484.563L273.786,484.684L273.729,484.853L273.71,484.911L273.012,485.226L272.697,484.527L272.723,484.466L272.8,484.293L272.857,484.168L272.925,484.023L273.004,483.856L273.094,483.671L273.194,483.469L273.304,483.252L273.424,483.022L273.488,482.901L273.554,482.778L273.622,482.653L273.693,482.525L273.766,482.396L273.841,482.264L273.918,482.131L273.997,481.996L274.079,481.86L274.162,481.723L274.248,481.585L274.335,481.446L274.424,481.308L274.515,481.169L274.608,481.03L274.703,480.891L274.8,480.752L274.898,480.615L274.998,480.478L275.1,480.342L275.203,480.208L275.308,480.075L275.414,479.944L275.522,479.815L275.632,479.688L275.743,479.564L275.855,479.442L275.969,479.324L276.027,479.265L276.084,479.207L276.142,479.15L276.201,479.094L276.26,479.039L276.319,478.985L276.378,478.932L276.438,478.88L276.498,478.828L276.558,478.778L276.619,478.729L276.68,478.681L276.741,478.634L276.803,478.588L276.864,478.543L276.927,478.5L276.989,478.457L277.052,478.416L277.115,478.376L277.178,478.338L277.241,478.3L277.305,478.265L277.369,478.23L277.434,478.197L277.498,478.166L277.563,478.136L277.628,478.107L277.692,478.081L277.914,478.159Z" style="fill:rgb(54,19,0);"/>
            </g>
            <g transform="matrix(0.763863,0,0,0.526267,147.116,211.875)">
                <g transform="matrix(1,0,0,1,0.9052,0)">
                    <path d="M148.635,497.252C147.714,495.235 147.227,493.057 147.227,490.787C147.227,480.246 157.726,471.688 170.657,471.688C183.589,471.688 194.088,480.246 194.088,490.787C194.088,492.428 193.833,494.021 193.333,495.516C193.333,495.516 183.727,508.673 170.984,508.729C160.475,508.775 148.635,497.252 148.635,497.252Z" style="fill:rgb(31,164,41);"/>
                </g>
                <g transform="matrix(1,0,0,1,0.9052,0)">
                    <path d="M193.333,495.516C190.392,503.365 181.202,509.885 170.657,509.885C160.626,509.885 151.942,504.476 148.635,497.252C156.138,502.558 162.202,504.11 171.487,504.058C179.415,504.015 185.337,502.496 193.333,495.516Z" style="fill:rgb(15,127,23);"/>
                </g>
            </g>
            <g transform="matrix(1.02228,0,0,0.564786,75.3241,192.971)">
                <g transform="matrix(1,0,0,1,0.9052,0)">
                    <path d="M148.635,497.252C147.714,495.235 147.227,493.057 147.227,490.787C147.227,480.246 157.726,471.688 170.657,471.688C183.589,471.688 194.088,480.246 194.088,490.787C194.088,492.428 193.833,494.021 193.333,495.516C193.333,495.516 183.727,508.673 170.984,508.729C160.475,508.775 148.635,497.252 148.635,497.252Z" style="fill:rgb(31,164,41);"/>
                </g>
                <g transform="matrix(1,0,0,1,0.9052,0)">
                    <path d="M193.333,495.516C190.392,503.365 181.202,509.885 170.657,509.885C160.626,509.885 151.942,504.476 148.635,497.252C156.138,502.558 162.202,504.11 171.487,504.058C179.415,504.015 185.337,502.496 193.333,495.516Z" style="fill:rgb(15,127,23);"/>
                </g>
            </g>
            <g transform="matrix(0.858051,0,0,0.564786,157.245,195.63)">
                <g transform="matrix(1,0,0,1,0.9052,0)">
                    <path d="M148.635,497.252C147.714,495.235 147.227,493.057 147.227,490.787C147.227,480.246 157.726,471.688 170.657,471.688C183.589,471.688 194.088,480.246 194.088,490.787C194.088,492.428 193.833,494.021 193.333,495.516C193.333,495.516 183.727,508.673 170.984,508.729C160.475,508.775 148.635,497.252 148.635,497.252Z" style="fill:rgb(31,164,41);"/>
                </g>
                <g transform="matrix(1,0,0,1,0.9052,0)">
                    <path d="M193.333,495.516C190.392,503.365 181.202,509.885 170.657,509.885C160.626,509.885 151.942,504.476 148.635,497.252C156.138,502.558 162.202,504.11 171.487,504.058C179.415,504.015 185.337,502.496 193.333,495.516Z" style="fill:rgb(15,127,23);"/>
                </g>
            </g>
        </g>
    </g>
</svg>
