<?xml version="1.0" encoding="UTF-8" standalone="no"?>
<!DOCTYPE svg PUBLIC "-//W3C//DTD SVG 1.1//EN" "http://www.w3.org/Graphics/SVG/1.1/DTD/svg11.dtd">
<svg width="100%" height="100%" viewBox="0 0 100 100" version="1.1" xmlns="http://www.w3.org/2000/svg" xmlns:xlink="http://www.w3.org/1999/xlink" xml:space="preserve" xmlns:serif="http://www.serif.com/" style="fill-rule:evenodd;clip-rule:evenodd;stroke-linecap:round;stroke-linejoin:round;stroke-miterlimit:1.5;">
    <g transform="matrix(1,0,0,1,-833.658,-7.63649)">
        <g id="wheel_flipper" transform="matrix(1.00074,0,0,0.996685,335.235,-60.8181)">
            <rect x="498.053" y="68.682" width="99.926" height="100.333" style="fill:none;"/>
            <g transform="matrix(0.856995,0,0,1.0503,-199.723,49.5493)">
                <path d="M869.636,44.394C870.049,43.379 871.208,42.695 872.513,42.695C873.818,42.695 874.977,43.379 875.39,44.394C879.905,55.491 888.597,76.855 893.052,87.804C893.696,89.388 893.372,91.128 892.181,92.483C890.99,93.837 889.076,94.639 887.039,94.639C878.721,94.639 866.305,94.639 857.987,94.639C855.949,94.639 854.036,93.837 852.845,92.483C851.654,91.128 851.329,89.388 851.974,87.804C856.428,76.855 865.121,55.491 869.636,44.394Z" style="fill:rgb(41,171,226);"/>
                <path d="M860.786,41.977C856.272,53.074 847.579,74.438 843.124,85.388C841.532,89.302 842.333,93.604 845.278,96.951C848.222,100.298 852.951,102.281 857.987,102.281L887.039,102.281C892.075,102.281 896.804,100.298 899.748,96.951C902.693,93.604 903.494,89.302 901.901,85.387C897.447,74.438 888.754,53.074 884.239,41.977C882.557,37.842 877.833,35.053 872.513,35.053C867.192,35.053 862.469,37.842 860.786,41.977L860.786,41.977ZM869.636,44.394C870.049,43.379 871.208,42.695 872.513,42.695C873.818,42.695 874.977,43.379 875.39,44.394C879.905,55.491 888.597,76.855 893.052,87.804C893.696,89.388 893.372,91.128 892.181,92.483C890.99,93.837 889.076,94.639 887.039,94.639C878.721,94.639 866.305,94.639 857.987,94.639C855.949,94.639 854.036,93.837 852.845,92.483C851.654,91.128 851.329,89.388 851.974,87.804C856.428,76.855 865.121,55.491 869.636,44.394Z" style="fill:rgb(0,113,188);"/>
            </g>
            <g transform="matrix(0.999259,0,0,1.00333,-334.987,61.0203)">
                <path d="M883.658,45.291L891.668,70.403" style="fill:none;stroke:white;stroke-opacity:0.75;stroke-width:5px;"/>
            </g>
        </g>
    </g>
</svg>
