<?xml version="1.0" encoding="UTF-8" standalone="no"?>
<!DOCTYPE svg PUBLIC "-//W3C//DTD SVG 1.1//EN" "http://www.w3.org/Graphics/SVG/1.1/DTD/svg11.dtd">
<svg width="100%" height="100%" viewBox="0 0 100 100" version="1.1" xmlns="http://www.w3.org/2000/svg" xmlns:xlink="http://www.w3.org/1999/xlink" xml:space="preserve" xmlns:serif="http://www.serif.com/" style="fill-rule:evenodd;clip-rule:evenodd;stroke-linejoin:round;stroke-miterlimit:2;">
    <g transform="matrix(1,0,0,1,-573.217,-8.3734)">
        <g id="wheel_border" transform="matrix(0.991087,0,0,0.991087,423.659,8.3734)">
            <rect x="150.903" y="0" width="100.899" height="100.899" style="fill:none;"/>
            <g transform="matrix(1.00899,0,0,1.00899,-424.736,-7.56279)">
                <path d="M620.508,14.465C598.079,14.465 579.869,32.675 579.869,55.103C579.869,77.532 598.079,95.742 620.508,95.742C642.937,95.742 661.146,77.532 661.146,55.103C661.146,32.675 642.937,14.465 620.508,14.465ZM620.508,17.465C641.281,17.465 658.146,34.33 658.146,55.103C658.146,75.877 641.281,92.742 620.508,92.742C599.735,92.742 582.869,75.877 582.869,55.103C582.869,34.33 599.735,17.465 620.508,17.465Z" style="fill:rgb(207,207,207);"/>
                <path d="M620.508,16.465C599.183,16.465 581.869,33.778 581.869,55.103C581.869,76.429 599.183,93.742 620.508,93.742C641.833,93.742 659.146,76.429 659.146,55.103C659.146,33.778 641.833,16.465 620.508,16.465ZM620.508,17.465C641.281,17.465 658.146,34.33 658.146,55.103C658.146,75.877 641.281,92.742 620.508,92.742C599.735,92.742 582.869,75.877 582.869,55.103C582.869,34.33 599.735,17.465 620.508,17.465Z" style="fill:rgb(146,146,146);"/>
            </g>
        </g>
    </g>
</svg>
