<?xml version="1.0" encoding="UTF-8" standalone="no"?>
<!DOCTYPE svg PUBLIC "-//W3C//DTD SVG 1.1//EN" "http://www.w3.org/Graphics/SVG/1.1/DTD/svg11.dtd">
<svg width="100%" height="100%" viewBox="0 0 100 100" version="1.1" xmlns="http://www.w3.org/2000/svg" xmlns:xlink="http://www.w3.org/1999/xlink" xml:space="preserve" xmlns:serif="http://www.serif.com/" style="fill-rule:evenodd;clip-rule:evenodd;stroke-linejoin:round;stroke-miterlimit:2;">
    <g transform="matrix(1,0,0,1,-1128,-350)">
        <g id="boost_icon" transform="matrix(1,0,0,1,-59.8524,-6.5106)">
            <rect x="1187.85" y="356.511" width="100" height="100" style="fill:none;"/>
            <clipPath id="_clip1">
                <rect x="1187.85" y="356.511" width="100" height="100"/>
            </clipPath>
            <g clip-path="url(#_clip1)">
                <g transform="matrix(0.780221,-0.780221,0.565028,0.565028,123.382,1058.66)">
                    <path d="M1176.09,409.115C1176.09,405.08 1173.72,401.804 1170.8,401.804L1144.59,401.804C1141.67,401.804 1139.3,405.08 1139.3,409.115C1139.3,413.149 1141.67,416.425 1144.59,416.425L1170.8,416.425C1173.72,416.425 1176.09,413.149 1176.09,409.115Z" style="fill:white;"/>
                </g>
                <g transform="matrix(0.556641,-0.556641,0.565028,0.565028,352.76,829.281)">
                    <path d="M1176.09,409.115C1176.09,405.08 1172.77,401.804 1168.67,401.804L1146.72,401.804C1142.62,401.804 1139.3,405.08 1139.3,409.115C1139.3,413.149 1142.62,416.425 1146.72,416.425L1168.67,416.425C1172.77,416.425 1176.09,413.149 1176.09,409.115Z" style="fill:white;"/>
                </g>
                <g transform="matrix(0.556641,-0.556641,0.565028,0.565028,327.31,854.73)">
                    <path d="M1176.09,409.115C1176.09,405.08 1172.77,401.804 1168.67,401.804L1146.72,401.804C1142.62,401.804 1139.3,405.08 1139.3,409.115C1139.3,413.149 1142.62,416.425 1146.72,416.425L1168.67,416.425C1172.77,416.425 1176.09,413.149 1176.09,409.115Z" style="fill:white;"/>
                </g>
                <g transform="matrix(0.411645,0.411645,-0.411645,0.411645,1256.37,387.991)">
                    <path d="M-6.012,-70.127C-4.772,-72.275 -2.48,-73.598 0,-73.598C2.48,-73.598 4.772,-72.275 6.012,-70.127C12.901,-58.195 23.25,-40.27 23.25,-40.27C23.25,-40.27 33.599,-22.345 40.488,-10.414C41.728,-8.266 41.728,-5.619 40.488,-3.471C39.248,-1.323 36.956,-0 34.475,0L-34.475,0C-36.956,-0 -39.248,-1.323 -40.488,-3.471C-41.728,-5.619 -41.728,-8.266 -40.488,-10.414C-33.599,-22.345 -23.25,-40.27 -23.25,-40.27C-23.25,-40.27 -12.901,-58.195 -6.012,-70.127Z" style="fill:white;fill-rule:nonzero;"/>
                </g>
            </g>
        </g>
    </g>
</svg>
