<?xml version="1.0" encoding="UTF-8" standalone="no"?>
<!DOCTYPE svg PUBLIC "-//W3C//DTD SVG 1.1//EN" "http://www.w3.org/Graphics/SVG/1.1/DTD/svg11.dtd">
<svg width="100%" height="100%" viewBox="0 0 47 47" version="1.1" xmlns="http://www.w3.org/2000/svg" xmlns:xlink="http://www.w3.org/1999/xlink" xml:space="preserve" xmlns:serif="http://www.serif.com/" style="fill-rule:evenodd;clip-rule:evenodd;stroke-miterlimit:10;">
    <g transform="matrix(1,0,0,1,-90.254,-526.491)">
        <g>
            <g transform="matrix(1,0,0,1,113.003,535.238)">
                <path d="M0,29.87C-8.235,29.87 -14.935,23.17 -14.935,14.934C-14.935,6.699 -8.235,0 0,0C8.235,0 14.936,6.699 14.936,14.934C14.936,23.17 8.235,29.87 0,29.87" style="fill:rgb(41,171,226);fill-rule:nonzero;"/>
            </g>
            <g transform="matrix(1,0,0,1,113.461,565.555)">
                <path d="M0,-31.87C-8.787,-31.87 -15.935,-24.722 -15.935,-15.935C-15.935,-7.148 -8.787,0 0,0C8.787,0 15.936,-7.148 15.936,-15.935C15.936,-24.722 8.787,-31.87 0,-31.87M0,-29.87C7.696,-29.87 13.936,-23.632 13.936,-15.935C13.936,-8.239 7.696,-2 0,-2C-7.696,-2 -13.935,-8.239 -13.935,-15.935C-13.935,-23.632 -7.696,-29.87 0,-29.87" style="fill-rule:nonzero;"/>
            </g>
            <g transform="matrix(1,0,0,1,-61.2112,84.1541)">
                <g opacity="0.3">
                    <g transform="matrix(0,-1,-1,0,174.673,452.387)">
                        <ellipse cx="-13.158" cy="-0.001" rx="13.157" ry="13.158" style="fill:none;stroke:black;stroke-width:2px;"/>
                    </g>
                </g>
            </g>
            <g transform="matrix(1,0,0,1,-61.2112,84.1541)">
                <g opacity="0.3">
                    <g transform="matrix(0,-1,-1,0,174.672,458.591)">
                        <path d="M-6.954,-6.954C-10.795,-6.954 -13.907,-3.841 -13.907,0C-13.907,3.839 -10.795,6.954 -6.954,6.954C-3.114,6.954 0,3.839 0,0C0,-3.841 -3.114,-6.954 -6.954,-6.954" style="fill:white;fill-rule:nonzero;"/>
                    </g>
                </g>
            </g>
        </g>
    </g>
</svg>
