<?xml version="1.0" encoding="UTF-8" standalone="no"?>
<!DOCTYPE svg PUBLIC "-//W3C//DTD SVG 1.1//EN" "http://www.w3.org/Graphics/SVG/1.1/DTD/svg11.dtd">
<svg width="100%" height="100%" viewBox="0 0 101 101" version="1.1" xmlns="http://www.w3.org/2000/svg" xmlns:xlink="http://www.w3.org/1999/xlink" xml:space="preserve" xmlns:serif="http://www.serif.com/" style="fill-rule:evenodd;clip-rule:evenodd;stroke-miterlimit:10;">
    <g transform="matrix(1,0,0,1,-375,-1)">
        <g id="check" transform="matrix(1,0,0,1,375.382,1.5)">
            <rect x="0" y="0" width="100" height="100" style="fill:none;"/>
            <clipPath id="_clip1">
                <rect x="0" y="0" width="100" height="100"/>
            </clipPath>
            <g clip-path="url(#_clip1)">
                <g id="check1" serif:id="check">
                    <g transform="matrix(1,0,0,1,94,50.7764)">
                        <path d="M0,0C0,-24.3 -19.7,-44 -44,-44C-68.3,-44 -88,-24.3 -88,0C-88,24.301 -68.3,44 -44,44C-19.7,44 0,24.301 0,0" style="fill:white;fill-rule:nonzero;"/>
                    </g>
                    <g transform="matrix(0,-1,-1,0,50,6.7764)">
                        <circle cx="-44" cy="0" r="44" style="fill:none;stroke:black;stroke-width:5px;"/>
                    </g>
                    <g transform="matrix(0.707097,-0.707117,-0.707117,-0.707097,59.6462,77.7604)">
                        <path d="M-7.344,17.729L42.802,17.729" style="fill:none;fill-rule:nonzero;stroke:black;stroke-width:7px;stroke-linecap:round;"/>
                    </g>
                    <g transform="matrix(-0.707107,-0.707107,-0.707107,0.707107,32.479,47.6329)">
                        <path d="M-22.784,9.438L3.909,9.438" style="fill:none;fill-rule:nonzero;stroke:black;stroke-width:7px;stroke-linecap:round;"/>
                    </g>
                </g>
            </g>
        </g>
    </g>
</svg>
