<?xml version="1.0" encoding="UTF-8" standalone="no"?>
<!DOCTYPE svg PUBLIC "-//W3C//DTD SVG 1.1//EN" "http://www.w3.org/Graphics/SVG/1.1/DTD/svg11.dtd">
<svg width="100%" height="100%" viewBox="0 0 101 101" version="1.1" xmlns="http://www.w3.org/2000/svg" xmlns:xlink="http://www.w3.org/1999/xlink" xml:space="preserve" xmlns:serif="http://www.serif.com/" style="fill-rule:evenodd;clip-rule:evenodd;stroke-miterlimit:10;">
    <g transform="matrix(1,0,0,1,-659,-3)">
        <g id="circle" transform="matrix(1,0,0,1,659.683,3.6141)">
            <rect x="0" y="0" width="100" height="100" style="fill:none;"/>
            <clipPath id="_clip1">
                <rect x="0" y="0" width="100" height="100"/>
            </clipPath>
            <g clip-path="url(#_clip1)">
                <g id="circle1" serif:id="circle">
                    <g transform="matrix(1,0,0,1,94,50)">
                        <path d="M0,0C0,-24.3 -19.7,-44 -44,-44C-68.3,-44 -88,-24.3 -88,0C-88,24.3 -68.3,44 -44,44C-19.7,44 0,24.3 0,0" style="fill:white;fill-rule:nonzero;"/>
                    </g>
                    <g transform="matrix(0,-1,-1,0,50,6)">
                        <circle cx="-44" cy="0" r="44" style="fill:none;stroke:black;stroke-width:5px;"/>
                    </g>
                </g>
            </g>
        </g>
    </g>
</svg>
