<?xml version="1.0" encoding="UTF-8" standalone="no"?>
<!DOCTYPE svg PUBLIC "-//W3C//DTD SVG 1.1//EN" "http://www.w3.org/Graphics/SVG/1.1/DTD/svg11.dtd">
<svg width="100%" height="100%" viewBox="0 0 301 100" version="1.1" xmlns="http://www.w3.org/2000/svg" xmlns:xlink="http://www.w3.org/1999/xlink" xml:space="preserve" xmlns:serif="http://www.serif.com/" style="fill-rule:evenodd;clip-rule:evenodd;stroke-linejoin:round;stroke-miterlimit:2;">
    <g transform="matrix(1,0,0,1,-273,-799)">
        <g id="reveal_lightbeam" transform="matrix(1,0,0,1,-0.407292,-0.289172)">
            <rect x="273.407" y="799.289" width="300.018" height="100" style="fill:none;"/>
            <g transform="matrix(9.10121e-17,-1.48634,7.03944,4.31042e-16,-5642.1,1316.2)">
                <path d="M339.068,881.57L289.206,881.57L304.243,841.8L324.109,841.8L339.068,881.57Z" style="fill:url(#_Linear1);"/>
            </g>
            <g transform="matrix(6.12323e-17,-1,7.03944,4.31042e-16,-5642.1,1163.43)">
                <path d="M339.068,881.57L289.206,881.57L306.744,841.8L321.741,841.8L339.068,881.57Z" style="fill:url(#_Linear2);"/>
            </g>
        </g>
    </g>
    <defs>
        <linearGradient id="_Linear1" x1="0" y1="0" x2="1" y2="0" gradientUnits="userSpaceOnUse" gradientTransform="matrix(-3.70905e-13,39.7706,-711.536,-2.9584e-13,314.137,841.8)"><stop offset="0" style="stop-color:white;stop-opacity:0.75"/><stop offset="0.38" style="stop-color:white;stop-opacity:0.2"/><stop offset="0.51" style="stop-color:white;stop-opacity:0.12"/><stop offset="0.65" style="stop-color:white;stop-opacity:0.04"/><stop offset="1" style="stop-color:white;stop-opacity:0"/></linearGradient>
        <linearGradient id="_Linear2" x1="0" y1="0" x2="1" y2="0" gradientUnits="userSpaceOnUse" gradientTransform="matrix(2.44516e-13,39.7706,-1571.93,1.9503e-13,314.137,841.8)"><stop offset="0" style="stop-color:white;stop-opacity:1"/><stop offset="0.42" style="stop-color:white;stop-opacity:0.16"/><stop offset="0.73" style="stop-color:white;stop-opacity:0.04"/><stop offset="1" style="stop-color:white;stop-opacity:0"/></linearGradient>
    </defs>
</svg>
