<?xml version="1.0" encoding="UTF-8" standalone="no"?>
<!DOCTYPE svg PUBLIC "-//W3C//DTD SVG 1.1//EN" "http://www.w3.org/Graphics/SVG/1.1/DTD/svg11.dtd">
<svg width="100%" height="100%" viewBox="0 0 100 100" version="1.1" xmlns="http://www.w3.org/2000/svg" xmlns:xlink="http://www.w3.org/1999/xlink" xml:space="preserve" xmlns:serif="http://www.serif.com/" style="fill-rule:evenodd;clip-rule:evenodd;stroke-linejoin:round;stroke-miterlimit:2;">
    <g transform="matrix(1,0,0,1,-850.352,-229.614)">
        <g id="star" transform="matrix(1,0,0,1,850.352,229.614)">
            <rect x="0" y="0" width="100" height="100" style="fill:none;"/>
            <g transform="matrix(1.84452,0,0,1.84452,-1649.77,-502.145)">
                <g id="star1" serif:id="star">
                    <path d="M919.969,279.977C920.165,279.279 920.802,278.796 921.527,278.796C922.252,278.796 922.888,279.279 923.084,279.977C924.118,283.658 925.428,288.325 926.237,291.207C926.704,292.869 928.002,294.167 929.664,294.634C932.546,295.443 937.213,296.753 940.894,297.786C941.592,297.982 942.075,298.619 942.075,299.344C942.075,300.069 941.592,300.706 940.894,300.901C937.213,301.935 932.546,303.245 929.664,304.054C928.002,304.521 926.704,305.819 926.237,307.481C925.428,310.363 924.118,315.03 923.084,318.711C922.888,319.409 922.252,319.892 921.527,319.892C920.802,319.892 920.165,319.409 919.969,318.711C918.936,315.03 917.626,310.363 916.817,307.481C916.35,305.819 915.052,304.521 913.39,304.054C910.508,303.245 905.841,301.935 902.16,300.901C901.462,300.706 900.979,300.069 900.979,299.344C900.979,298.619 901.462,297.982 902.16,297.786C905.841,296.753 910.508,295.443 913.39,294.634C915.052,294.167 916.35,292.869 916.817,291.207C917.626,288.325 918.936,283.658 919.969,279.977Z" style="fill:white;"/>
                </g>
            </g>
        </g>
    </g>
</svg>
