<?xml version="1.0" encoding="UTF-8" standalone="no"?>
<!DOCTYPE svg PUBLIC "-//W3C//DTD SVG 1.1//EN" "http://www.w3.org/Graphics/SVG/1.1/DTD/svg11.dtd">
<svg width="100%" height="100%" viewBox="0 0 100 400" version="1.1" xmlns="http://www.w3.org/2000/svg" xmlns:xlink="http://www.w3.org/1999/xlink" xml:space="preserve" xmlns:serif="http://www.serif.com/" style="fill-rule:evenodd;clip-rule:evenodd;stroke-linecap:round;stroke-linejoin:round;">
    <g transform="matrix(1,0,0,1,-791.352,-727.332)">
        <g id="stars_particles" transform="matrix(1,0,0,4,791.352,727.332)">
            <rect x="0" y="0" width="100" height="100" style="fill:none;"/>
            <g transform="matrix(2.28991,0,0,0.572478,-2060.21,-158.868)">
                <path d="M920.272,278.898C920.43,278.336 920.943,277.947 921.527,277.947C922.111,277.947 922.624,278.336 922.782,278.898C923.91,282.917 925.519,288.648 926.383,291.728C926.759,293.066 927.805,294.112 929.143,294.488C932.223,295.352 937.954,296.961 941.973,298.089C942.535,298.247 942.924,298.76 942.924,299.344C942.924,299.928 942.535,300.441 941.973,300.599C937.954,301.727 932.223,303.336 929.143,304.2C927.805,304.576 926.759,305.622 926.383,306.96C925.519,310.04 923.91,315.771 922.782,319.79C922.624,320.352 922.111,320.741 921.527,320.741C920.943,320.741 920.43,320.352 920.272,319.79C919.144,315.771 917.535,310.04 916.67,306.96C916.295,305.622 915.249,304.576 913.91,304.2C910.831,303.336 905.1,301.727 901.081,300.599C900.518,300.441 900.13,299.928 900.13,299.344C900.13,298.76 900.518,298.247 901.081,298.089C905.1,296.961 910.831,295.352 913.91,294.488C915.249,294.112 916.295,293.066 916.67,291.728C917.535,288.648 919.144,282.917 920.272,278.898Z" style="fill:white;"/>
            </g>
            <g transform="matrix(1.83492,0,0,0.45873,-1509.03,-362.179)">
                <path d="M847.744,847.605C847.984,846.753 848.761,846.165 849.646,846.165C850.531,846.165 851.308,846.753 851.548,847.605C853.803,855.604 857.36,868.217 858.164,871.071C858.273,871.457 858.476,871.809 858.756,872.096C860.825,874.22 869.97,883.606 875.77,889.559C876.387,890.193 876.508,891.16 876.066,891.926C875.623,892.692 874.726,893.071 873.868,892.853C865.813,890.807 853.112,887.58 850.237,886.85C849.849,886.751 849.443,886.751 849.055,886.85C846.18,887.58 833.479,890.807 825.424,892.853C824.566,893.071 823.669,892.692 823.226,891.926C822.784,891.16 822.905,890.193 823.522,889.559C829.322,883.606 838.467,874.22 840.536,872.096C840.816,871.809 841.019,871.457 841.128,871.071C841.933,868.217 845.489,855.604 847.744,847.605Z" style="fill:white;"/>
            </g>
            <g transform="matrix(1.47653,0,0,0.369133,-1358.77,-233.101)">
                <path d="M951.56,839.491C951.918,838.388 952.946,837.642 954.106,837.642C955.265,837.642 956.293,838.388 956.651,839.491C958.68,845.737 961.38,854.046 962.618,857.856C963.019,859.089 964.168,859.924 965.464,859.924C969.47,859.924 978.207,859.924 984.774,859.924C985.934,859.924 986.961,860.67 987.319,861.773C987.678,862.876 987.285,864.084 986.347,864.765C981.034,868.625 973.966,873.761 970.725,876.115C969.676,876.877 969.237,878.228 969.638,879.461C970.876,883.271 973.576,891.58 975.605,897.826C975.963,898.929 975.571,900.137 974.633,900.818C973.695,901.5 972.425,901.5 971.487,900.818C966.174,896.958 959.105,891.823 955.864,889.468C954.816,888.706 953.395,888.706 952.347,889.468C949.106,891.823 942.037,896.958 936.724,900.818C935.786,901.5 934.516,901.5 933.578,900.818C932.64,900.137 932.248,898.929 932.606,897.826C934.635,891.58 937.335,883.271 938.573,879.461C938.974,878.228 938.535,876.877 937.486,876.115C934.245,873.761 927.177,868.625 921.864,864.765C920.926,864.084 920.533,862.876 920.892,861.773C921.25,860.67 922.277,859.924 923.437,859.924C930.004,859.924 938.741,859.924 942.747,859.924C944.043,859.924 945.192,859.089 945.593,857.856C946.831,854.046 949.531,845.737 951.56,839.491Z" style="fill:white;"/>
            </g>
            <g transform="matrix(1.28541,0,0,1.28541,-14.2707,-18.0843)">
                <g transform="matrix(0.800504,0,0,0.200126,-670.453,-21.6531)">
                    <path d="M900,388.386L900,454.721" style="fill:none;stroke:white;stroke-width:28.15px;"/>
                </g>
                <g transform="matrix(-1.4705e-16,0.200126,-0.800504,-3.67625e-17,387.455,-117.403)">
                    <path d="M900,388.386L900,454.721" style="fill:none;stroke:white;stroke-width:28.15px;"/>
                </g>
            </g>
        </g>
    </g>
</svg>
