<?xml version="1.0" encoding="UTF-8" standalone="no"?>
<!DOCTYPE svg PUBLIC "-//W3C//DTD SVG 1.1//EN" "http://www.w3.org/Graphics/SVG/1.1/DTD/svg11.dtd">
<svg width="100%" height="100%" viewBox="0 0 101 101" version="1.1" xmlns="http://www.w3.org/2000/svg" xmlns:xlink="http://www.w3.org/1999/xlink" xml:space="preserve" xmlns:serif="http://www.serif.com/" style="fill-rule:evenodd;clip-rule:evenodd;stroke-linejoin:round;stroke-miterlimit:2;">
    <g transform="matrix(1,0,0,1,-126,-194)">
        <g id="hex_mountains" transform="matrix(1,0,0,1,-3153.66,194.12)">
            <rect x="3280.57" y="0.511" width="100" height="100" style="fill:none;"/>
            <g transform="matrix(0.892711,0,0,0.897072,378.871,10.0166)">
                <g transform="matrix(0.489252,0.538388,-0.538388,0.489252,1910.74,-1689.88)">
                    <path d="M3054.95,204.668C3054.26,203.562 3053.88,202.246 3053.88,200.842L3053.88,159.856C3053.88,155.679 3057.27,152.288 3061.45,152.288L3100.37,152.288C3101.03,152.288 3101.67,152.373 3102.3,152.567L3054.95,204.668Z" style="fill:rgb(128,70,29);"/>
                </g>
                <g transform="matrix(0.0482764,0.0531249,-0.167236,0.151973,3200.9,-156.58)">
                    <path d="M3107.94,154.955C3107.94,153.483 3104.55,152.288 3100.37,152.288L3061.45,152.288C3057.27,152.288 3053.88,153.483 3053.88,154.955L3053.88,208.451L3100.37,208.41C3104.55,208.41 3107.94,207.215 3107.94,205.743L3107.94,154.955Z" style="fill:rgb(210,210,210);"/>
                </g>
                <g transform="matrix(0.0992763,0.109247,-0.13248,0.120389,3039.86,-323.16)">
                    <path d="M3107.94,158.532C3107.94,155.086 3104.55,152.288 3100.37,152.288L3061.45,152.288C3057.27,152.288 3053.88,155.086 3053.88,158.532L3053.88,202.166C3053.88,205.612 3057.27,208.41 3061.45,208.41L3100.37,208.41C3104.55,208.41 3107.94,205.612 3107.94,202.166L3107.94,158.532Z" style="fill:rgb(210,210,210);"/>
                </g>
                <g transform="matrix(0.137973,0.15183,-0.0686285,0.0623651,2911.96,-444.369)">
                    <path d="M3106.94,152.056L3057.43,152.288C3055.47,152.288 3053.88,155.808 3053.88,160.145L3053.88,200.553C3053.88,204.889 3055.47,208.41 3057.43,208.41L3104.39,208.41C3106.35,208.41 3107.94,204.889 3107.94,200.553L3106.94,152.056Z" style="fill:rgb(210,210,210);"/>
                </g>
            </g>
            <g transform="matrix(1,0,0,1,-3.01922,4.355)">
                <g transform="matrix(0.489252,0.538388,-0.538388,0.489252,1910.74,-1689.88)">
                    <path d="M3054.95,204.668C3054.26,203.562 3053.88,202.246 3053.88,200.842L3053.88,159.856C3053.88,155.679 3057.27,152.288 3061.45,152.288L3100.37,152.288C3101.03,152.288 3101.67,152.373 3102.3,152.567L3054.95,204.668Z" style="fill:rgb(109,59,25);"/>
                </g>
                <g transform="matrix(0.0482764,0.0531249,-0.167236,0.151973,3200.9,-156.58)">
                    <path d="M3107.94,154.955C3107.94,153.483 3104.55,152.288 3100.37,152.288L3061.45,152.288C3057.27,152.288 3053.88,153.483 3053.88,154.955L3053.88,208.451L3100.37,208.41C3104.55,208.41 3107.94,207.215 3107.94,205.743L3107.94,154.955Z" style="fill:rgb(210,210,210);"/>
                </g>
                <g transform="matrix(0.0992763,0.109247,-0.13248,0.120389,3039.86,-323.16)">
                    <path d="M3107.94,158.529C3107.94,155.084 3104.55,152.288 3100.37,152.288L3061.45,152.288C3057.27,152.288 3053.88,155.084 3053.88,158.529L3053.88,202.169C3053.88,205.614 3057.27,208.41 3061.45,208.41L3100.37,208.41C3104.55,208.41 3107.94,205.614 3107.94,202.169L3107.94,158.529Z" style="fill:rgb(210,210,210);"/>
                </g>
                <g transform="matrix(0.137973,0.15183,-0.0686285,0.0623651,2911.96,-444.369)">
                    <path d="M3106.94,152.056L3057.43,152.288C3055.47,152.288 3053.88,155.808 3053.88,160.145L3053.88,200.553C3053.88,204.889 3055.47,208.41 3057.43,208.41L3104.39,208.41C3106.35,208.41 3107.94,204.889 3107.94,200.553L3106.94,152.056Z" style="fill:rgb(210,210,210);"/>
                </g>
            </g>
        </g>
    </g>
</svg>
