<?xml version="1.0" encoding="UTF-8" standalone="no"?>
<!DOCTYPE svg PUBLIC "-//W3C//DTD SVG 1.1//EN" "http://www.w3.org/Graphics/SVG/1.1/DTD/svg11.dtd">
<svg width="100%" height="100%" viewBox="0 0 101 101" version="1.1" xmlns="http://www.w3.org/2000/svg" xmlns:xlink="http://www.w3.org/1999/xlink" xml:space="preserve" xmlns:serif="http://www.serif.com/" style="fill-rule:evenodd;clip-rule:evenodd;stroke-linejoin:round;stroke-miterlimit:2;">
    <g transform="matrix(1,0,0,1,-252,-193)">
        <g id="hex_hills" transform="matrix(1,0,0,1,-2908.15,67.7333)">
            <rect x="3161.06" y="125.949" width="100" height="100" style="fill:none;"/>
            <g transform="matrix(0.401083,0.44352,-0.441364,0.403042,2055.12,-1250.6)">
                <path d="M3054.95,204.668C3054.26,203.562 3053.88,202.246 3053.88,200.842L3053.88,159.856C3053.88,155.679 3057.27,152.288 3061.45,152.288L3100.37,152.288C3101.03,152.288 3101.67,152.373 3102.3,152.567L3054.95,204.668Z" style="fill:rgb(158,90,43);"/>
            </g>
            <g transform="matrix(0.39094,0.432304,-0.430203,0.392849,2099.59,-1214.25)">
                <path d="M3054.95,204.668C3054.26,203.562 3053.88,202.246 3053.88,200.842L3053.88,159.856C3053.88,155.679 3057.27,152.288 3061.45,152.288L3100.37,152.288C3101.03,152.288 3101.67,152.373 3102.3,152.567L3054.95,204.668Z" style="fill:rgb(128,70,29);"/>
            </g>
            <g transform="matrix(0.444429,0.489064,-0.489064,0.444429,1917.17,-1398.21)">
                <path d="M3054.95,204.668C3054.26,203.562 3053.88,202.246 3053.88,200.842L3053.88,159.856C3053.88,155.679 3057.27,152.288 3061.45,152.288L3100.37,152.288C3101.03,152.288 3101.67,152.373 3102.3,152.567L3054.95,204.668Z" style="fill:rgb(109,59,25);"/>
            </g>
        </g>
    </g>
</svg>
