<?xml version="1.0" encoding="UTF-8" standalone="no"?>
<!DOCTYPE svg PUBLIC "-//W3C//DTD SVG 1.1//EN" "http://www.w3.org/Graphics/SVG/1.1/DTD/svg11.dtd">
<svg width="100%" height="100%" viewBox="0 0 101 101" version="1.1" xmlns="http://www.w3.org/2000/svg" xmlns:xlink="http://www.w3.org/1999/xlink" xml:space="preserve" xmlns:serif="http://www.serif.com/" style="fill-rule:evenodd;clip-rule:evenodd;stroke-linejoin:round;stroke-miterlimit:2;">
    <g transform="matrix(1,0,0,1,-615,-193)">
        <g id="hex_trees_sparse" transform="matrix(1,0,0,1,-2908.4,68.6822)">
            <rect x="3524.31" y="125" width="100" height="100" style="fill:none;"/>
            <g transform="matrix(0.488198,0,0,0.488198,1935.69,72.4538)">
                <path d="M3327.55,160.283C3327.9,159.211 3328.91,158.489 3330.04,158.489C3331.16,158.489 3332.17,159.211 3332.53,160.283C3336.12,171.036 3342.32,189.62 3342.32,189.62L3317.75,189.62C3317.75,189.62 3323.95,171.036 3327.55,160.283Z" style="fill:rgb(23,90,17);"/>
            </g>
            <g transform="matrix(0.467532,0,0,0.467532,2037.76,78.3402)">
                <path d="M3327.76,159.656C3328.08,158.675 3329,158.013 3330.04,158.013C3331.07,158.013 3331.99,158.675 3332.32,159.656C3335.87,170.296 3342.32,189.62 3342.32,189.62L3317.75,189.62C3317.75,189.62 3324.2,170.296 3327.76,159.656Z" style="fill:rgb(23,90,17);"/>
            </g>
            <g transform="matrix(0.672772,0,0,0.672772,1306.78,53.2798)">
                <path d="M3327.21,161.281C3327.62,160.066 3328.76,159.247 3330.04,159.247C3331.32,159.247 3332.45,160.066 3332.86,161.281C3336.49,172.145 3342.32,189.62 3342.32,189.62L3317.75,189.62C3317.75,189.62 3323.58,172.145 3327.21,161.281Z" style="fill:rgb(8,70,3);"/>
            </g>
            <g transform="matrix(0.800238,0,0,0.800238,919.322,33.7479)">
                <path d="M3327.66,159.934C3328,158.913 3328.96,158.224 3330.04,158.224C3331.11,158.224 3332.07,158.913 3332.41,159.934C3335.98,170.629 3342.32,189.62 3342.32,189.62L3317.75,189.62C3317.75,189.62 3324.09,170.629 3327.66,159.934Z" style="fill:rgb(8,70,3);"/>
            </g>
            <g transform="matrix(0.926443,0,0,0.926443,477.843,29.7259)">
                <path d="M3327.99,158.966C3328.28,158.083 3329.11,157.488 3330.04,157.488C3330.97,157.488 3331.79,158.083 3332.09,158.966C3335.58,169.435 3342.32,189.62 3342.32,189.62L3317.75,189.62C3317.75,189.62 3324.49,169.435 3327.99,158.966Z" style="fill:rgb(7,50,3);"/>
            </g>
            <g transform="matrix(0.938755,0,0,1.0126,469.59,8.27522)">
                <path d="M3328,158.928C3328.27,158.1 3329.1,157.535 3330.04,157.535C3330.97,157.535 3331.8,158.1 3332.07,158.928C3335.57,169.387 3342.32,189.62 3342.32,189.62L3317.75,189.62C3317.75,189.62 3324.51,169.387 3328,158.928Z" style="fill:rgb(7,50,3);"/>
            </g>
        </g>
    </g>
</svg>
