<?xml version="1.0" encoding="UTF-8" standalone="no"?>
<!DOCTYPE svg PUBLIC "-//W3C//DTD SVG 1.1//EN" "http://www.w3.org/Graphics/SVG/1.1/DTD/svg11.dtd">
<svg width="100%" height="100%" viewBox="0 0 100 100" version="1.1" xmlns="http://www.w3.org/2000/svg" xmlns:xlink="http://www.w3.org/1999/xlink" xml:space="preserve" xmlns:serif="http://www.serif.com/" style="fill-rule:evenodd;clip-rule:evenodd;stroke-linejoin:round;stroke-miterlimit:2;">
    <g transform="matrix(1,0,0,1,-3842,-131)">
        <g id="hex_lake" transform="matrix(1,0,0,1,-0.370755,0)">
            <rect x="3842.37" y="131" width="100" height="100" style="fill:none;"/>
            <g transform="matrix(1,0,0,1,0.370755,0)">
                <path d="M3873.93,159.434C3879.5,158.278 3884.61,159.956 3896.54,166.841C3908.47,173.726 3911.92,186.348 3911.92,186.348C3911.92,186.348 3914.21,196.905 3907.56,201.953C3900.9,207.002 3890.05,204.892 3883.46,200.117C3878.77,196.719 3880.73,192.264 3878.87,186.807C3877.55,182.949 3875.96,179.546 3871.3,178.086C3865.76,176.351 3864.41,173.267 3864.18,168.906C3863.95,164.546 3867.62,160.744 3873.93,159.434Z" style="fill:rgb(42,216,219);"/>
            </g>
        </g>
    </g>
</svg>
