<?xml version="1.0" encoding="UTF-8" standalone="no"?>
<!DOCTYPE svg PUBLIC "-//W3C//DTD SVG 1.1//EN" "http://www.w3.org/Graphics/SVG/1.1/DTD/svg11.dtd">
<svg width="100%" height="100%" viewBox="0 0 101 101" version="1.1" xmlns="http://www.w3.org/2000/svg" xmlns:xlink="http://www.w3.org/1999/xlink" xml:space="preserve" xmlns:serif="http://www.serif.com/" style="fill-rule:evenodd;clip-rule:evenodd;stroke-linejoin:round;stroke-miterlimit:2;">
    <g transform="matrix(1,0,0,1,-494,-193)">
        <g id="hex_trees_medium" transform="matrix(1,0,0,1,-2908.49,68.6822)">
            <rect x="3403.41" y="125" width="100" height="100" style="fill:none;"/>
            <g transform="matrix(0.658152,0,0,0.658152,1255.66,49.2088)">
                <path d="M3327.98,158.983C3328.28,158.099 3329.1,157.502 3330.04,157.502C3330.97,157.502 3331.8,158.099 3332.09,158.983C3335.59,169.458 3342.32,189.62 3342.32,189.62L3317.75,189.62C3317.75,189.62 3324.48,169.458 3327.98,158.983Z" style="fill:rgb(23,90,17);"/>
            </g>
            <g transform="matrix(0.74565,0,0,0.74565,990.65,34.2272)">
                <path d="M3327.45,160.555C3327.83,159.444 3328.87,158.695 3330.04,158.695C3331.21,158.695 3332.25,159.444 3332.62,160.555C3336.22,171.346 3342.32,189.62 3342.32,189.62L3317.75,189.62C3317.75,189.62 3323.85,171.346 3327.45,160.555Z" style="fill:rgb(23,90,17);"/>
            </g>
            <g transform="matrix(0.635395,0,0,0.635395,1313.06,50.1815)">
                <path d="M3327.01,161.896C3327.44,160.593 3328.66,159.714 3330.04,159.714C3331.41,159.714 3332.63,160.593 3333.07,161.896C3336.7,172.791 3342.32,189.62 3342.32,189.62L3317.75,189.62C3317.75,189.62 3323.37,172.791 3327.01,161.896Z" style="fill:rgb(23,90,17);"/>
            </g>
            <g transform="matrix(0.83833,0,0,0.819736,647.577,38.3244)">
                <path d="M3328.18,158.396C3328.45,157.582 3329.2,157.035 3330.04,157.035C3330.88,157.035 3331.62,157.582 3331.9,158.396C3335.33,168.683 3342.32,189.62 3342.32,189.62L3317.75,189.62C3317.75,189.62 3324.74,168.683 3328.18,158.396Z" style="fill:rgb(8,70,3);"/>
            </g>
            <g transform="matrix(1.063,0,0,1.063,-81.0715,-7.29537)">
                <path d="M3328.22,158.247C3328.49,157.468 3329.22,156.943 3330.04,156.943C3330.86,156.943 3331.59,157.468 3331.85,158.247C3335.26,168.479 3342.32,189.62 3342.32,189.62L3317.75,189.62C3317.75,189.62 3324.81,168.479 3328.22,158.247Z" style="fill:rgb(8,70,3);"/>
            </g>
            <g transform="matrix(0.829742,0,0,0.829742,661.236,29.2391)">
                <path d="M3327.72,159.771C3328.05,158.773 3328.98,158.1 3330.04,158.1C3331.09,158.1 3332.02,158.773 3332.36,159.771C3335.92,170.435 3342.32,189.62 3342.32,189.62L3317.75,189.62C3317.75,189.62 3324.16,170.435 3327.72,159.771Z" style="fill:rgb(8,70,3);"/>
            </g>
            <g transform="matrix(0.897933,0,0,0.897933,481.672,26.9392)">
                <path d="M3327.89,159.244C3328.2,158.321 3329.06,157.7 3330.04,157.7C3331.01,157.7 3331.87,158.321 3332.18,159.244C3335.7,169.788 3342.32,189.62 3342.32,189.62L3317.75,189.62C3317.75,189.62 3324.37,169.788 3327.89,159.244Z" style="fill:rgb(8,70,3);"/>
            </g>
            <g transform="matrix(0.800238,0,0,0.800238,820.761,36.1181)">
                <path d="M3328.17,158.415C3328.44,157.612 3329.19,157.07 3330.04,157.07C3330.88,157.07 3331.63,157.612 3331.9,158.415C3335.34,168.709 3342.32,189.62 3342.32,189.62L3317.75,189.62C3317.75,189.62 3324.73,168.709 3328.17,158.415Z" style="fill:rgb(8,70,3);"/>
            </g>
            <g transform="matrix(0.926443,0,0,0.926443,343.858,24.291)">
                <path d="M3327.96,159.046C3328.26,158.152 3329.09,157.55 3330.04,157.55C3330.98,157.55 3331.82,158.152 3332.11,159.046C3335.62,169.538 3342.32,189.62 3342.32,189.62L3317.75,189.62C3317.75,189.62 3324.45,169.538 3327.96,159.046Z" style="fill:rgb(7,50,3);"/>
            </g>
            <g transform="matrix(0.801281,0,0,0.795622,786.186,49.0742)">
                <path d="M3328.26,158.159C3328.51,157.389 3329.23,156.87 3330.04,156.87C3330.84,156.87 3331.56,157.389 3331.82,158.159C3335.22,168.358 3342.32,189.62 3342.32,189.62L3317.75,189.62C3317.75,189.62 3324.85,168.358 3328.26,158.159Z" style="fill:rgb(7,50,3);"/>
            </g>
            <g transform="matrix(0.938755,0,0,1.0126,352.2,7.95362)">
                <path d="M3327.97,159.008C3328.25,158.169 3329.09,157.597 3330.04,157.597C3330.98,157.597 3331.82,158.169 3332.1,159.008C3335.6,169.49 3342.32,189.62 3342.32,189.62L3317.75,189.62C3317.75,189.62 3324.47,169.49 3327.97,159.008Z" style="fill:rgb(7,50,3);"/>
            </g>
        </g>
    </g>
</svg>
