<?xml version="1.0" encoding="UTF-8" standalone="no"?>
<!DOCTYPE svg PUBLIC "-//W3C//DTD SVG 1.1//EN" "http://www.w3.org/Graphics/SVG/1.1/DTD/svg11.dtd">
<svg width="100%" height="100%" viewBox="0 0 101 101" version="1.1" xmlns="http://www.w3.org/2000/svg" xmlns:xlink="http://www.w3.org/1999/xlink" xml:space="preserve" xmlns:serif="http://www.serif.com/" style="fill-rule:evenodd;clip-rule:evenodd;stroke-linejoin:round;stroke-miterlimit:2;">
    <g transform="matrix(1,0,0,1,-374,-193)">
        <g id="hex_trees_dense" transform="matrix(1,0,0,1,-2908.73,68.6822)">
            <rect x="3283.65" y="125" width="100" height="100" style="fill:none;"/>
            <g transform="matrix(0.827844,0,0,0.827844,561.979,27.4122)">
                <path d="M3328.78,156.58C3328.96,156.041 3329.47,155.677 3330.04,155.677C3330.61,155.677 3331.11,156.041 3331.29,156.58C3334.42,165.952 3342.32,189.62 3342.32,189.62L3317.75,189.62C3317.75,189.62 3325.65,165.952 3328.78,156.58Z" style="fill:rgb(23,90,17);"/>
            </g>
            <g transform="matrix(0.827844,0,0,0.827844,569.993,25.2951)">
                <path d="M3328.78,156.58C3328.96,156.041 3329.47,155.677 3330.04,155.677C3330.61,155.677 3331.11,156.041 3331.29,156.58C3334.42,165.952 3342.32,189.62 3342.32,189.62L3317.75,189.62C3317.75,189.62 3325.65,165.952 3328.78,156.58Z" style="fill:rgb(23,90,17);"/>
            </g>
            <g transform="matrix(0.861969,0,0,0.861969,470.535,20.0341)">
                <path d="M3328.83,156.432C3329,155.913 3329.49,155.564 3330.04,155.564C3330.58,155.564 3331.07,155.913 3331.24,156.432C3334.34,165.699 3342.32,189.62 3342.32,189.62L3317.75,189.62C3317.75,189.62 3325.74,165.699 3328.83,156.432Z" style="fill:rgb(23,90,17);"/>
            </g>
            <g transform="matrix(0.68516,0,0,0.68516,1050.99,55.8708)">
                <path d="M3328.52,157.362C3328.74,156.71 3329.35,156.271 3330.04,156.271C3330.72,156.271 3331.33,156.71 3331.55,157.362C3334.84,167.201 3342.32,189.62 3342.32,189.62L3317.75,189.62C3317.75,189.62 3325.24,167.201 3328.52,157.362Z" style="fill:rgb(23,90,17);"/>
            </g>
            <g transform="matrix(0.776656,0,0,0.776656,722.894,29.4887)">
                <path d="M3328.7,156.828C3328.89,156.253 3329.43,155.865 3330.04,155.865C3330.64,155.865 3331.18,156.253 3331.37,156.828C3334.01,164.731 3339.8,182.066 3341.7,187.764C3341.85,188.194 3341.77,188.666 3341.51,189.034C3341.24,189.402 3340.82,189.619 3340.37,189.62C3334.55,189.62 3317.75,189.62 3317.75,189.62C3317.75,189.62 3325.52,166.361 3328.7,156.828Z" style="fill:rgb(23,90,17);"/>
            </g>
            <g transform="matrix(0.827844,0,0,0.827844,593.392,18.188)">
                <path d="M3328.78,156.58C3328.96,156.041 3329.47,155.677 3330.04,155.677C3330.61,155.677 3331.11,156.041 3331.29,156.58C3333.91,164.415 3339.86,182.244 3341.74,187.879C3341.88,188.282 3341.81,188.725 3341.56,189.07C3341.31,189.415 3340.91,189.619 3340.49,189.619C3335.93,189.62 3324.14,189.62 3319.59,189.62C3319.16,189.619 3318.76,189.415 3318.51,189.07C3318.26,188.725 3318.2,188.282 3318.33,187.879C3320.21,182.244 3326.16,164.415 3328.78,156.58Z" style="fill:rgb(23,90,17);"/>
            </g>
            <g transform="matrix(0.670504,0,0,0.670504,1080.97,67.6807)">
                <path d="M3328.49,157.461C3328.71,156.795 3329.33,156.346 3330.04,156.346C3330.74,156.346 3331.36,156.795 3331.58,157.461C3334.89,167.351 3342.32,189.62 3342.32,189.62L3317.75,189.62C3317.75,189.62 3325.18,167.351 3328.49,157.461Z" style="fill:rgb(8,70,3);"/>
            </g>
            <g transform="matrix(0.926443,0,0,0.905895,235.002,28.1873)">
                <path d="M3328.92,156.173C3329.08,155.684 3329.53,155.355 3330.04,155.355C3330.54,155.355 3330.99,155.684 3331.15,156.173C3334.18,165.245 3342.32,189.62 3342.32,189.62L3317.75,189.62C3317.75,189.62 3325.89,165.245 3328.92,156.173Z" style="fill:rgb(8,70,3);"/>
            </g>
            <g transform="matrix(1.15675,0,0,1.15675,-514.745,-19.3804)">
                <path d="M3329.14,155.512C3329.27,155.126 3329.63,154.866 3330.04,154.866C3330.44,154.866 3330.8,155.126 3330.93,155.512C3333.76,163.992 3342.32,189.62 3342.32,189.62L3317.75,189.62C3317.75,189.62 3326.31,163.992 3329.14,155.512Z" style="fill:rgb(8,70,3);"/>
            </g>
            <g transform="matrix(0.68516,0,0,0.6464,1045.85,77.3695)">
                <path d="M3328.53,157.334C3328.76,156.658 3329.36,156.206 3330.04,156.206C3330.71,156.206 3331.32,156.658 3331.54,157.334C3334.82,167.159 3342.32,189.62 3342.32,189.62L3317.75,189.62C3317.75,189.62 3325.25,167.159 3328.53,157.334Z" style="fill:rgb(8,70,3);"/>
            </g>
            <g transform="matrix(0.829742,0,0,0.829742,541.476,29.2391)">
                <path d="M3328.78,156.572C3328.96,156.033 3329.47,155.67 3330.04,155.67C3330.6,155.67 3331.11,156.033 3331.29,156.572C3334.41,165.937 3342.32,189.62 3342.32,189.62L3317.75,189.62C3317.75,189.62 3325.66,165.937 3328.78,156.572Z" style="fill:rgb(8,70,3);"/>
            </g>
            <g transform="matrix(0.897933,0,0,0.897933,361.912,26.9392)">
                <path d="M3328.88,156.287C3329.05,155.79 3329.51,155.454 3330.04,155.454C3330.56,155.454 3331.03,155.79 3331.19,156.287C3334.25,165.447 3342.32,189.62 3342.32,189.62L3317.75,189.62C3317.75,189.62 3325.82,165.447 3328.88,156.287Z" style="fill:rgb(8,70,3);"/>
            </g>
            <g transform="matrix(1.0126,0,0,1.0126,-10.3643,1.33416)">
                <path d="M3329.01,155.895C3329.16,155.454 3329.57,155.156 3330.04,155.156C3330.5,155.156 3330.91,155.454 3331.06,155.895C3334.01,164.735 3342.32,189.62 3342.32,189.62L3317.75,189.62C3317.75,189.62 3326.06,164.735 3329.01,155.895Z" style="fill:rgb(8,70,3);"/>
            </g>
            <g transform="matrix(0.926443,0,0,0.926443,232.957,24.291)">
                <path d="M3328.91,156.18C3329.08,155.698 3329.53,155.373 3330.04,155.373C3330.54,155.373 3330.99,155.698 3331.16,156.18C3334.19,165.258 3342.32,189.62 3342.32,189.62L3317.75,189.62C3317.75,189.62 3325.88,165.258 3328.91,156.18Z" style="fill:rgb(7,50,3);"/>
            </g>
            <g transform="matrix(0.801281,0,0,0.795622,666.425,49.0742)">
                <path d="M3328.74,156.702C3328.93,156.142 3329.45,155.765 3330.04,155.765C3330.62,155.765 3331.14,156.142 3331.33,156.702C3334.49,166.155 3342.32,189.62 3342.32,189.62L3317.75,189.62C3317.75,189.62 3325.59,166.155 3328.74,156.702Z" style="fill:rgb(7,50,3);"/>
            </g>
            <g transform="matrix(0.845342,0,0,0.845342,510.47,39.6462)">
                <path d="M3328.81,156.502C3328.98,155.974 3329.48,155.618 3330.04,155.618C3330.59,155.618 3331.09,155.974 3331.26,156.502C3334.38,165.82 3342.32,189.62 3342.32,189.62L3317.75,189.62C3317.75,189.62 3325.7,165.82 3328.81,156.502Z" style="fill:rgb(7,50,3);"/>
            </g>
            <g transform="matrix(0.829742,0,0,0.829742,544.781,42.6274)">
                <path d="M3328.78,156.572C3328.96,156.033 3329.47,155.67 3330.04,155.67C3330.6,155.67 3331.11,156.033 3331.29,156.572C3334.41,165.937 3342.32,189.62 3342.32,189.62L3317.75,189.62C3317.75,189.62 3325.66,165.937 3328.78,156.572Z" style="fill:rgb(7,50,3);"/>
            </g>
            <g transform="matrix(0.953851,0,0,0.953851,168.206,19.0938)">
                <path d="M3328.95,156.084C3329.1,155.616 3329.54,155.3 3330.04,155.3C3330.53,155.3 3330.97,155.616 3331.12,156.084C3334.13,165.084 3342.32,189.62 3342.32,189.62L3317.75,189.62C3317.75,189.62 3325.94,165.084 3328.95,156.084Z" style="fill:rgb(7,50,3);"/>
            </g>
            <g transform="matrix(0.938755,0,0,1.0126,232.44,7.95362)">
                <path d="M3328.92,156.16C3329.07,155.707 3329.53,155.399 3330.04,155.399C3330.55,155.399 3331,155.707 3331.15,156.16C3334.18,165.222 3342.32,189.62 3342.32,189.62L3317.75,189.62C3317.75,189.62 3325.9,165.222 3328.92,156.16Z" style="fill:rgb(7,50,3);"/>
            </g>
        </g>
    </g>
</svg>
