<?xml version="1.0" encoding="UTF-8" standalone="no"?>
<!DOCTYPE svg PUBLIC "-//W3C//DTD SVG 1.1//EN" "http://www.w3.org/Graphics/SVG/1.1/DTD/svg11.dtd">
<svg width="100%" height="100%" viewBox="0 0 433 176" version="1.1" xmlns="http://www.w3.org/2000/svg" xmlns:xlink="http://www.w3.org/1999/xlink" xml:space="preserve" xmlns:serif="http://www.serif.com/" style="fill-rule:evenodd;clip-rule:evenodd;stroke-linecap:round;stroke-miterlimit:10;">
    <g transform="matrix(1,0,0,1,-1702.36,236.443)">
        <g transform="matrix(1,0,0,1,1599.46,-415.467)">
            <clipPath id="_clip1">
                <rect x="86.393" y="165.122" width="465.114" height="143.691" clip-rule="nonzero"/>
            </clipPath>
            <g clip-path="url(#_clip1)">
                <g transform="matrix(0,-1,-1,0,181.115,179.024)">
                    <path d="M-21.626,-21.625C-33.569,-21.625 -43.251,-11.943 -43.251,0C-43.251,11.944 -33.569,21.626 -21.626,21.626C-9.682,21.626 0,11.944 0,0C0,-11.943 -9.682,-21.625 -21.626,-21.625" style="fill:rgb(0,131,136);fill-rule:nonzero;"/>
                </g>
                <g transform="matrix(0,-1,-1,0,204.714,193.46)">
                    <path d="M-12.153,-12.153C-18.864,-12.153 -24.305,-6.711 -24.305,-0C-24.305,6.712 -18.864,12.153 -12.153,12.153C-5.441,12.153 -0,6.712 -0,-0C-0,-6.711 -5.441,-12.153 -12.153,-12.153" style="fill:rgb(0,131,136);fill-rule:nonzero;"/>
                </g>
                <g transform="matrix(0,-1,-1,0,235.106,195.979)">
                    <path d="M-30.205,-30.204C-46.887,-30.204 -60.409,-16.681 -60.409,0.001C-60.409,16.682 -46.887,30.205 -30.205,30.205C-13.523,30.205 0,16.682 0,0.001C0,-16.681 -13.523,-30.204 -30.205,-30.204" style="fill:rgb(0,131,136);fill-rule:nonzero;"/>
                </g>
                <g transform="matrix(0,-1,-1,0,275.999,213.21)">
                    <path d="M-17.208,-17.207C-26.711,-17.207 -34.415,-9.503 -34.415,0C-34.415,9.503 -26.711,17.208 -17.208,17.208C-7.704,17.208 0,9.503 0,0C0,-9.503 -7.704,-17.207 -17.208,-17.207" style="fill:rgb(0,131,136);fill-rule:nonzero;"/>
                </g>
                <g transform="matrix(0,-1,-1,0,297.584,215.862)">
                    <path d="M-12.153,-12.153C-18.865,-12.153 -24.305,-6.712 -24.305,-0C-24.305,6.712 -18.865,12.153 -12.153,12.153C-5.441,12.153 -0,6.712 -0,-0C-0,-6.712 -5.441,-12.153 -12.153,-12.153" style="fill:rgb(0,131,136);fill-rule:nonzero;"/>
                </g>
                <g transform="matrix(0,-1,-1,0,341.319,192.106)">
                    <path d="M-41.237,-41.239C-64.012,-41.239 -82.476,-22.776 -82.476,-0C-82.476,22.775 -64.012,41.237 -41.237,41.237C-18.463,41.237 -0,22.775 -0,-0C-0,-22.776 -18.463,-41.239 -41.237,-41.239" style="fill:rgb(0,131,136);fill-rule:nonzero;"/>
                </g>
                <g transform="matrix(0,-1,-1,0,385.251,195.665)">
                    <path d="M-19.691,-19.689C-30.565,-19.689 -39.38,-10.873 -39.38,0.001C-39.38,10.876 -30.565,19.691 -19.691,19.691C-8.815,19.691 -0,10.876 -0,0.001C-0,-10.873 -8.815,-19.689 -19.691,-19.689" style="fill:rgb(0,131,136);fill-rule:nonzero;"/>
                </g>
                <g transform="matrix(0,-1,-1,0,402.367,185.393)">
                    <path d="M-12.256,-12.257C-19.026,-12.257 -24.513,-6.77 -24.513,-0.001C-24.513,6.768 -19.026,12.256 -12.256,12.256C-5.486,12.256 0.001,6.768 0.001,-0.001C0.001,-6.77 -5.486,-12.257 -12.256,-12.257" style="fill:rgb(0,131,136);fill-rule:nonzero;"/>
                </g>
                <g transform="matrix(0,-1,-1,0,438.688,190.228)">
                    <path d="M-43.729,-43.73C-67.88,-43.73 -87.459,-24.152 -87.459,-0.001C-87.459,24.15 -67.88,43.729 -43.729,43.729C-19.579,43.729 0,24.15 0,-0.001C0,-24.152 -19.579,-43.73 -43.729,-43.73" style="fill:rgb(0,131,136);fill-rule:nonzero;"/>
                </g>
                <g transform="matrix(0,-1,-1,0,165.762,206.274)">
                    <path d="M-41.352,-41.353C-64.19,-41.353 -82.705,-22.839 -82.705,-0.001C-82.705,22.837 -64.19,41.352 -41.352,41.352C-18.514,41.352 0,22.837 0,-0.001C0,-22.839 -18.514,-41.353 -41.352,-41.353" style="fill:rgb(0,131,136);fill-rule:nonzero;"/>
                </g>
                <g transform="matrix(0,-1,-1,0,127.218,261.139)">
                    <path d="M-24.316,-24.316C-37.745,-24.316 -48.631,-13.429 -48.631,-0C-48.631,13.429 -37.745,24.316 -24.316,24.316C-10.887,24.316 -0,13.429 -0,-0C-0,-13.429 -10.887,-24.316 -24.316,-24.316" style="fill:rgb(0,131,136);fill-rule:nonzero;"/>
                </g>
                <g transform="matrix(0,-1,-1,0,480.061,234.317)">
                    <path d="M-19.69,-19.69C-30.565,-19.69 -39.38,-10.875 -39.38,0C-39.38,10.874 -30.565,19.69 -19.69,19.69C-8.815,19.69 0,10.874 0,0C0,-10.875 -8.815,-19.69 -19.69,-19.69" style="fill:rgb(0,131,136);fill-rule:nonzero;"/>
                </g>
                <g transform="matrix(0,-1,-1,0,487.252,257.329)">
                    <path d="M-48.564,-48.564C-75.384,-48.564 -97.126,-26.822 -97.126,-0C-97.126,26.821 -75.384,48.564 -48.564,48.564C-21.742,48.564 -0,26.821 -0,-0C-0,-26.822 -21.742,-48.564 -48.564,-48.564" style="fill:rgb(0,131,136);fill-rule:nonzero;"/>
                </g>
                <g transform="matrix(1,0,0,1,127.218,207.642)">
                    <path d="M0,108.128L53.896,-0.991L109.926,16.451L152.492,29.326L203.481,25.319L284.622,14.678L333.153,52.365L349.356,109.119L0,108.128Z" style="fill:rgb(0,131,136);fill-rule:nonzero;"/>
                </g>
                <g>
                    <clipPath id="_clip2">
                        <rect x="131.84" y="200.039" width="394.727" height="108.774" clip-rule="nonzero"/>
                    </clipPath>
                    <g clip-path="url(#_clip2)">
                        <g transform="matrix(0,-1,-1,0,452.794,231.774)">
                            <path d="M-32.094,-32.094C-49.819,-32.094 -64.188,-17.725 -64.188,0C-64.188,17.724 -49.819,32.094 -32.094,32.094C-14.369,32.094 0,17.724 0,0C0,-17.725 -14.369,-32.094 -32.094,-32.094" style="fill:rgb(18,189,122);fill-rule:nonzero;"/>
                        </g>
                        <g transform="matrix(0,-1,-1,0,412.471,224.534)">
                            <path d="M-20.681,-20.683C-32.104,-20.683 -41.364,-11.423 -41.364,-0.001C-41.364,11.421 -32.104,20.681 -20.681,20.681C-9.259,20.681 0.001,11.421 0.001,-0.001C0.001,-11.423 -9.259,-20.683 -20.681,-20.683" style="fill:rgb(18,189,122);fill-rule:nonzero;"/>
                        </g>
                        <g transform="matrix(0,-1,-1,0,375.732,211.798)">
                            <path d="M-38.372,-38.371C-59.563,-38.371 -76.743,-21.192 -76.743,0.001C-76.743,21.192 -59.563,38.372 -38.372,38.372C-17.18,38.372 -0,21.192 -0,0.001C-0,-21.192 -17.18,-38.371 -38.372,-38.371" style="fill:rgb(18,189,122);fill-rule:nonzero;"/>
                        </g>
                        <g opacity="0.5">
                            <g transform="matrix(0.923867,-0.382713,-0.382713,-0.923867,352.714,228.672)">
                                <clipPath id="_clip3">
                                    <path d="M-3.034,4.59L23.829,-6.538L29.11,6.212L2.248,17.34L-3.034,4.59Z" clip-rule="nonzero"/>
                                </clipPath>
                                <g clip-path="url(#_clip3)">
                                    <path d="M-1.074,5.401C7.645,9.013 17.743,9.298 27.15,5.401" style="fill:none;fill-rule:nonzero;stroke:white;stroke-width:3px;"/>
                                </g>
                            </g>
                        </g>
                        <g transform="matrix(0,-1,-1,0,189.209,221.797)">
                            <path d="M-38.373,-38.372C-59.564,-38.372 -76.744,-21.192 -76.744,0C-76.744,21.192 -59.564,38.373 -38.373,38.373C-17.181,38.373 -0.001,21.192 -0.001,0C-0.001,-21.192 -17.181,-38.372 -38.373,-38.372" style="fill:rgb(18,189,122);fill-rule:nonzero;"/>
                        </g>
                        <g opacity="0.5">
                            <g transform="matrix(0.923871,0.382704,0.382704,-0.923871,192.267,218.728)">
                                <clipPath id="_clip4">
                                    <path d="M2.246,-17.335L29.101,-6.211L23.82,6.536L-3.034,-4.588L2.246,-17.335Z" clip-rule="nonzero"/>
                                </clipPath>
                                <g clip-path="url(#_clip4)">
                                    <path d="M-1.074,-5.399C8.331,-1.503 18.425,-1.789 27.141,-5.399" style="fill:none;fill-rule:nonzero;stroke:white;stroke-width:3px;"/>
                                </g>
                            </g>
                        </g>
                        <g transform="matrix(0,-1,-1,0,228.187,245.801)">
                            <path d="M-19.186,-19.187C-29.783,-19.187 -38.373,-10.596 -38.373,-0C-38.373,10.595 -29.783,19.186 -19.186,19.186C-8.59,19.186 0,10.595 0,-0C0,-10.596 -8.59,-19.187 -19.186,-19.187" style="fill:rgb(18,189,122);fill-rule:nonzero;"/>
                        </g>
                        <g transform="matrix(0,-1,-1,0,248.675,239.941)">
                            <path d="M-10.114,-10.115C-15.701,-10.115 -20.229,-5.587 -20.229,0C-20.229,5.586 -15.701,10.114 -10.114,10.114C-4.528,10.114 0,5.586 0,0C0,-5.587 -4.528,-10.115 -10.114,-10.115" style="fill:rgb(18,189,122);fill-rule:nonzero;"/>
                        </g>
                        <g transform="matrix(0,-1,-1,0,261.603,251.163)">
                            <path d="M-25.185,-25.185C-39.094,-25.185 -50.37,-13.91 -50.37,-0C-50.37,13.909 -39.094,25.185 -25.185,25.185C-11.275,25.185 0,13.909 0,-0C0,-13.91 -11.275,-25.185 -25.185,-25.185" style="fill:rgb(18,189,122);fill-rule:nonzero;"/>
                        </g>
                        <g transform="matrix(0,-1,-1,0,304.954,243.583)">
                            <path d="M-30.889,-30.89C-47.949,-30.89 -61.779,-17.06 -61.779,-0C-61.779,17.059 -47.949,30.889 -30.889,30.889C-13.829,30.889 0,17.059 0,-0C0,-17.06 -13.829,-30.89 -30.889,-30.89" style="fill:rgb(18,189,122);fill-rule:nonzero;"/>
                        </g>
                        <g transform="matrix(0,-1,-1,0,341.907,240.221)">
                            <path d="M-18.271,-18.271C-28.362,-18.271 -36.542,-10.091 -36.542,0C-36.542,10.091 -28.362,18.271 -18.271,18.271C-8.18,18.271 0,10.091 0,0C0,-10.091 -8.18,-18.271 -18.271,-18.271" style="fill:rgb(18,189,122);fill-rule:nonzero;"/>
                        </g>
                        <g transform="matrix(-1,0,0,1,637.517,59.381)">
                            <rect x="170.556" y="203.01" width="296.405" height="53.871" style="fill:rgb(18,189,122);"/>
                        </g>
                        <g transform="matrix(0,-1,-1,0,479.88,277.922)">
                            <path d="M-30.892,-30.892C-47.953,-30.892 -61.784,-17.061 -61.784,0C-61.784,17.06 -47.953,30.892 -30.892,30.892C-13.831,30.892 0,17.06 0,0C0,-17.061 -13.831,-30.892 -30.892,-30.892" style="fill:rgb(18,189,122);fill-rule:nonzero;"/>
                        </g>
                        <g transform="matrix(0,-1,-1,0,159.274,279.356)">
                            <path d="M-19.186,-19.187C-29.783,-19.187 -38.373,-10.596 -38.373,-0C-38.373,10.595 -29.783,19.186 -19.186,19.186C-8.59,19.186 0,10.595 0,-0C0,-10.596 -8.59,-19.187 -19.186,-19.187" style="fill:rgb(18,189,122);fill-rule:nonzero;"/>
                        </g>
                    </g>
                </g>
            </g>
        </g>
        <g transform="matrix(1,0,0,1,380.111,-833.507)">
            <path d="M1456.2,684.823C1456.21,684.836 1456.22,684.848 1456.23,684.86C1456.95,685.657 1457.39,686.713 1457.39,687.871C1457.39,688.699 1458.06,689.371 1458.89,689.371C1459.72,689.371 1460.39,688.699 1460.39,687.871C1460.39,686.715 1460.13,685.619 1459.66,684.642C1463.18,683.888 1467.19,685.217 1468.65,688.484C1468.99,689.239 1469.87,689.579 1470.63,689.241C1471.38,688.902 1471.72,688.014 1471.38,687.259C1469.17,682.31 1462.79,680.346 1457.66,682.089C1456.37,681.017 1454.7,680.373 1452.89,680.373C1452.06,680.373 1451.39,681.045 1451.39,681.873C1451.39,682.701 1452.06,683.373 1452.89,683.373C1454.2,683.373 1455.38,683.932 1456.2,684.823Z" style="fill:white;fill-opacity:0.5;"/>
        </g>
        <g transform="matrix(-1,0,0,1,3367.1,-836.879)">
            <path d="M1456.2,684.823C1456.21,684.836 1456.22,684.848 1456.23,684.86C1456.95,685.657 1457.39,686.713 1457.39,687.871C1457.39,688.699 1458.06,689.371 1458.89,689.371C1459.72,689.371 1460.39,688.699 1460.39,687.871C1460.39,686.715 1460.13,685.619 1459.66,684.642C1463.18,683.888 1467.19,685.217 1468.65,688.484C1468.99,689.239 1469.87,689.579 1470.63,689.241C1471.38,688.902 1471.72,688.014 1471.38,687.259C1469.17,682.31 1462.79,680.346 1457.66,682.089C1456.37,681.017 1454.7,680.373 1452.89,680.373C1452.06,680.373 1451.39,681.045 1451.39,681.873C1451.39,682.701 1452.06,683.373 1452.89,683.373C1454.2,683.373 1455.38,683.932 1456.2,684.823Z" style="fill:white;fill-opacity:0.5;"/>
        </g>
        <g transform="matrix(1,0,0,1,523.453,-869.108)">
            <path d="M1456.2,684.823C1456.21,684.836 1456.22,684.848 1456.23,684.86C1456.95,685.657 1457.39,686.713 1457.39,687.871C1457.39,688.699 1458.06,689.371 1458.89,689.371C1459.72,689.371 1460.39,688.699 1460.39,687.871C1460.39,686.715 1460.13,685.619 1459.66,684.642C1463.18,683.888 1467.19,685.217 1468.65,688.484C1468.99,689.239 1469.87,689.579 1470.63,689.241C1471.38,688.902 1471.72,688.014 1471.38,687.259C1469.17,682.31 1462.79,680.346 1457.66,682.089C1456.37,681.017 1454.7,680.373 1452.89,680.373C1452.06,680.373 1451.39,681.045 1451.39,681.873C1451.39,682.701 1452.06,683.373 1452.89,683.373C1454.2,683.373 1455.38,683.932 1456.2,684.823Z" style="fill:white;fill-opacity:0.5;"/>
        </g>
        <g transform="matrix(1,0,0,1,328.142,-852.391)">
            <path d="M1456.2,684.823C1456.21,684.836 1456.22,684.848 1456.23,684.86C1456.95,685.657 1457.39,686.713 1457.39,687.871C1457.39,688.699 1458.06,689.371 1458.89,689.371C1459.72,689.371 1460.39,688.699 1460.39,687.871C1460.39,686.715 1460.13,685.619 1459.66,684.642C1463.18,683.888 1467.19,685.217 1468.65,688.484C1468.99,689.239 1469.87,689.579 1470.63,689.241C1471.38,688.902 1471.72,688.014 1471.38,687.259C1469.17,682.31 1462.79,680.346 1457.66,682.089C1456.37,681.017 1454.7,680.373 1452.89,680.373C1452.06,680.373 1451.39,681.045 1451.39,681.873C1451.39,682.701 1452.06,683.373 1452.89,683.373C1454.2,683.373 1455.38,683.932 1456.2,684.823Z" style="fill-opacity:0.3;"/>
        </g>
        <g transform="matrix(-1,0,0,1,3409.94,-836.276)">
            <path d="M1456.2,684.823C1456.21,684.836 1456.22,684.848 1456.23,684.86C1456.95,685.657 1457.39,686.713 1457.39,687.871C1457.39,688.699 1458.06,689.371 1458.89,689.371C1459.72,689.371 1460.39,688.699 1460.39,687.871C1460.39,686.715 1460.13,685.619 1459.66,684.642C1463.18,683.888 1467.19,685.217 1468.65,688.484C1468.99,689.239 1469.87,689.579 1470.63,689.241C1471.38,688.902 1471.72,688.014 1471.38,687.259C1469.17,682.31 1462.79,680.346 1457.66,682.089C1456.37,681.017 1454.7,680.373 1452.89,680.373C1452.06,680.373 1451.39,681.045 1451.39,681.873C1451.39,682.701 1452.06,683.373 1452.89,683.373C1454.2,683.373 1455.38,683.932 1456.2,684.823Z" style="fill-opacity:0.3;"/>
        </g>
        <g transform="matrix(-1,0,0,1,3507.19,-851.079)">
            <path d="M1456.2,684.823C1456.21,684.836 1456.22,684.848 1456.23,684.86C1456.95,685.657 1457.39,686.713 1457.39,687.871C1457.39,688.699 1458.06,689.371 1458.89,689.371C1459.72,689.371 1460.39,688.699 1460.39,687.871C1460.39,686.715 1460.13,685.619 1459.66,684.642C1463.18,683.888 1467.19,685.217 1468.65,688.484C1468.99,689.239 1469.87,689.579 1470.63,689.241C1471.38,688.902 1471.72,688.014 1471.38,687.259C1469.17,682.31 1462.79,680.346 1457.66,682.089C1456.37,681.017 1454.7,680.373 1452.89,680.373C1452.06,680.373 1451.39,681.045 1451.39,681.873C1451.39,682.701 1452.06,683.373 1452.89,683.373C1454.2,683.373 1455.38,683.932 1456.2,684.823Z" style="fill-opacity:0.3;"/>
        </g>
    </g>
</svg>
