<?xml version="1.0" encoding="UTF-8" standalone="no"?>
<!DOCTYPE svg PUBLIC "-//W3C//DTD SVG 1.1//EN" "http://www.w3.org/Graphics/SVG/1.1/DTD/svg11.dtd">
<svg width="100%" height="100%" viewBox="0 0 472 267" version="1.1" xmlns="http://www.w3.org/2000/svg" xmlns:xlink="http://www.w3.org/1999/xlink" xml:space="preserve" xmlns:serif="http://www.serif.com/" style="fill-rule:evenodd;clip-rule:evenodd;stroke-linejoin:round;stroke-miterlimit:2;">
    <g transform="matrix(1,0,0,1,-1517.76,-127.58)">
        <g transform="matrix(1,0,0,1,1436.85,0)">
            <clipPath id="_clip1">
                <rect x="59.346" y="89.302" width="507.254" height="219.511" clip-rule="nonzero"/>
            </clipPath>
            <g clip-path="url(#_clip1)">
                <g transform="matrix(0,-1,-1,0,190.245,144.766)">
                    <path d="M-32.094,-32.094C-49.819,-32.094 -64.188,-17.725 -64.188,0C-64.188,17.724 -49.819,32.094 -32.094,32.094C-14.369,32.094 0,17.724 0,0C0,-17.725 -14.369,-32.094 -32.094,-32.094" style="fill:rgb(62,105,118);fill-rule:nonzero;"/>
                </g>
                <g transform="matrix(0,-1,-1,0,223.356,163.389)">
                    <path d="M-8.813,-8.813C-13.679,-8.813 -17.626,-4.867 -17.626,0.001C-17.626,4.867 -13.679,8.813 -8.813,8.813C-3.946,8.813 0.001,4.867 0.001,0.001C0.001,-4.867 -3.946,-8.813 -8.813,-8.813" style="fill:rgb(62,105,118);fill-rule:nonzero;"/>
                </g>
                <g transform="matrix(0,-1,-1,0,244.703,163.637)">
                    <path d="M-20.679,-20.679C-32.1,-20.679 -41.359,-11.421 -41.359,0.001C-41.359,11.422 -32.1,20.679 -20.679,20.679C-9.258,20.679 0.001,11.422 0.001,0.001C0.001,-11.421 -9.258,-20.679 -20.679,-20.679" style="fill:rgb(62,105,118);fill-rule:nonzero;"/>
                </g>
                <g transform="matrix(0,-1,-1,0,429.179,142.351)">
                    <path d="M-55.374,-55.375C-85.957,-55.375 -110.749,-30.583 -110.749,-0.001C-110.749,30.582 -85.957,55.374 -55.374,55.374C-24.792,55.374 -0,30.582 -0,-0.001C-0,-30.583 -24.792,-55.375 -55.374,-55.375" style="fill:rgb(62,105,118);fill-rule:nonzero;"/>
                </g>
                <g transform="matrix(0,-1,-1,0,361.637,163.399)">
                    <path d="M-49.259,-49.259C-76.464,-49.259 -98.518,-27.205 -98.518,0C-98.518,27.204 -76.464,49.259 -49.259,49.259C-22.054,49.259 0,27.204 0,0C0,-27.205 -22.054,-49.259 -49.259,-49.259" style="fill:rgb(62,105,118);fill-rule:nonzero;"/>
                </g>
                <g transform="matrix(0,-1,-1,0,381.186,154.626)">
                    <path d="M-10.02,-10.02C-15.553,-10.02 -20.04,-5.534 -20.04,-0.001C-20.04,5.534 -15.553,10.02 -10.02,10.02C-4.486,10.02 0,5.534 0,-0.001C0,-5.534 -4.486,-10.02 -10.02,-10.02" style="fill:rgb(62,105,118);fill-rule:nonzero;"/>
                </g>
                <g transform="matrix(0,-1,-1,0,275.578,170.43)">
                    <path d="M-43.722,-43.721C-67.868,-43.721 -87.443,-24.146 -87.443,0C-87.443,24.147 -67.868,43.722 -43.722,43.722C-19.575,43.722 0,24.147 0,0C0,-24.146 -19.575,-43.721 -43.722,-43.721" style="fill:rgb(62,105,118);fill-rule:nonzero;"/>
                </g>
                <g transform="matrix(0,-1,-1,0,305.253,172.256)">
                    <path d="M-8.813,-8.812C-13.679,-8.812 -17.625,-4.867 -17.625,0.001C-17.625,4.867 -13.679,8.813 -8.813,8.813C-3.946,8.813 0,4.867 0,0.001C0,-4.867 -3.946,-8.812 -8.813,-8.812" style="fill:rgb(62,105,118);fill-rule:nonzero;"/>
                </g>
                <g transform="matrix(0,-1,-1,0,317.873,176.68)">
                    <path d="M-21.045,-21.046C-32.669,-21.046 -42.091,-11.624 -42.091,-0C-42.091,11.623 -32.669,21.045 -21.045,21.045C-9.422,21.045 0,11.623 0,-0C0,-11.624 -9.422,-21.046 -21.045,-21.046" style="fill:rgb(62,105,118);fill-rule:nonzero;"/>
                </g>
                <g transform="matrix(-1,0,0,1,623.399,-30.848)">
                    <rect x="154.314" y="209.756" width="314.771" height="130.608" style="fill:rgb(62,105,118);"/>
                </g>
                <g transform="matrix(0,-1,-1,0,425.531,127.579)">
                    <path d="M-16.108,-16.108C-25.005,-16.108 -32.216,-8.896 -32.216,0C-32.216,8.897 -25.005,16.108 -16.108,16.108C-7.212,16.108 -0,8.897 -0,0C-0,-8.896 -7.212,-16.108 -16.108,-16.108" style="fill:rgb(62,105,118);fill-rule:nonzero;"/>
                </g>
                <g transform="matrix(0,-1,-1,0,446.451,133.592)">
                    <path d="M-8.469,-8.47C-13.147,-8.47 -16.939,-4.678 -16.939,0C-16.939,4.677 -13.147,8.469 -8.469,8.469C-3.791,8.469 0,4.677 0,0C0,-4.678 -3.791,-8.47 -8.469,-8.47" style="fill:rgb(62,105,118);fill-rule:nonzero;"/>
                </g>
                <g transform="matrix(0,-1,-1,0,158.152,160.571)">
                    <path d="M-16.108,-16.108C-25.005,-16.108 -32.216,-8.897 -32.216,0C-32.216,8.897 -25.005,16.108 -16.108,16.108C-7.212,16.108 -0,8.897 -0,0C-0,-8.897 -7.212,-16.108 -16.108,-16.108" style="fill:rgb(62,105,118);fill-rule:nonzero;"/>
                </g>
                <g transform="matrix(0,-1,-1,0,149.15,180.918)">
                    <path d="M-37.853,-37.853C-58.757,-37.853 -75.706,-20.906 -75.706,-0.001C-75.706,20.905 -58.757,37.853 -37.853,37.853C-16.948,37.853 0,20.905 0,-0.001C0,-20.906 -16.948,-37.853 -37.853,-37.853" style="fill:rgb(62,105,118);fill-rule:nonzero;"/>
                </g>
                <g transform="matrix(0,-1,-1,0,115.309,229.692)">
                    <path d="M-24.735,-24.734C-38.395,-24.734 -49.469,-13.66 -49.469,0.001C-49.469,13.662 -38.395,24.735 -24.735,24.735C-11.074,24.735 0,13.662 0,0.001C0,-13.66 -11.074,-24.734 -24.735,-24.734" style="fill:rgb(62,105,118);fill-rule:nonzero;"/>
                </g>
                <g transform="matrix(0,-1,-1,0,140.043,249.687)">
                    <path d="M-59.127,-59.126C-91.781,-59.126 -118.253,-32.654 -118.253,0C-118.253,32.655 -91.781,59.127 -59.127,59.127C-26.472,59.127 0,32.655 0,0C0,-32.654 -26.472,-59.126 -59.127,-59.126" style="fill:rgb(62,105,118);fill-rule:nonzero;"/>
                </g>
                <g transform="matrix(0,-1,-1,0,473.732,172.901)">
                    <path d="M-32.094,-32.094C-49.819,-32.094 -64.188,-17.725 -64.188,0C-64.188,17.724 -49.819,32.094 -32.094,32.094C-14.369,32.094 0,17.724 0,0C0,-17.725 -14.369,-32.094 -32.094,-32.094" style="fill:rgb(62,105,118);fill-rule:nonzero;"/>
                </g>
                <g transform="matrix(0,-1,-1,0,126.963,181.898)">
                    <path d="M-8.813,-8.813C-13.679,-8.813 -17.626,-4.867 -17.626,0.001C-17.626,4.868 -13.679,8.813 -8.813,8.813C-3.946,8.813 0.001,4.868 0.001,0.001C0.001,-4.867 -3.946,-8.813 -8.813,-8.813" style="fill:rgb(62,105,118);fill-rule:nonzero;"/>
                </g>
                <g transform="matrix(0,-1,-1,0,499.022,184.317)">
                    <path d="M-18.179,-18.179C-28.219,-18.179 -36.359,-10.04 -36.359,0.001C-36.359,10.041 -28.219,18.179 -18.179,18.179C-8.138,18.179 0.001,10.041 0.001,0.001C0.001,-10.04 -8.138,-18.179 -18.179,-18.179" style="fill:rgb(62,105,118);fill-rule:nonzero;"/>
                </g>
                <g transform="matrix(0,-1,-1,0,484.554,200.039)">
                    <path d="M-46.215,-46.215C-71.739,-46.215 -92.43,-25.524 -92.43,0C-92.43,25.523 -71.739,46.215 -46.215,46.215C-20.692,46.215 0,25.523 0,0C0,-25.524 -20.692,-46.215 -46.215,-46.215" style="fill:rgb(62,105,118);fill-rule:nonzero;"/>
                </g>
                <g transform="matrix(0,-1,-1,0,464.881,218.771)">
                    <path d="M-87.531,-87.531C-135.873,-87.531 -175.062,-48.342 -175.062,0C-175.062,48.343 -135.873,87.531 -87.531,87.531C-39.189,87.531 0,48.343 0,0C0,-48.342 -39.189,-87.531 -87.531,-87.531" style="fill:rgb(62,105,118);fill-rule:nonzero;"/>
                </g>
            </g>
        </g>
    </g>
</svg>
