<?xml version="1.0" encoding="UTF-8" standalone="no"?>
<!DOCTYPE svg PUBLIC "-//W3C//DTD SVG 1.1//EN" "http://www.w3.org/Graphics/SVG/1.1/DTD/svg11.dtd">
<svg width="100%" height="100%" viewBox="0 0 69 43" version="1.1" xmlns="http://www.w3.org/2000/svg" xmlns:xlink="http://www.w3.org/1999/xlink" xml:space="preserve" xmlns:serif="http://www.serif.com/" style="fill-rule:evenodd;clip-rule:evenodd;stroke-linejoin:round;stroke-miterlimit:2;">
    <g transform="matrix(1,0,0,1,-1618.02,-436.941)">
        <g transform="matrix(1,0,0,1,1436.85,0)">
            <g transform="matrix(1,0,0,1,232.625,435.866)">
                <path d="M0,43.406C0,43.406 20.382,24.829 15.935,20.383C11.488,15.935 -6.671,27.608 -6.671,27.608C-6.671,27.608 3.15,8.523 -2.039,5.374C-7.227,2.223 -19.827,19.456 -19.827,19.456C-19.827,19.456 -16.491,2.223 -22.235,1.112C-27.979,0 -36.874,24.829 -36.874,24.829C-36.874,24.829 -43.358,8.894 -49.288,11.674C-55.217,14.453 -47.064,43.406 -47.064,43.406L0,43.406Z" style="fill:rgb(0,63,45);fill-rule:nonzero;"/>
            </g>
        </g>
    </g>
</svg>
