<?xml version="1.0" encoding="UTF-8" standalone="no"?>
<!DOCTYPE svg PUBLIC "-//W3C//DTD SVG 1.1//EN" "http://www.w3.org/Graphics/SVG/1.1/DTD/svg11.dtd">
<svg width="100%" height="100%" viewBox="0 0 100 100" version="1.1" xmlns="http://www.w3.org/2000/svg" xmlns:xlink="http://www.w3.org/1999/xlink" xml:space="preserve" xmlns:serif="http://www.serif.com/" style="fill-rule:evenodd;clip-rule:evenodd;stroke-linecap:round;stroke-linejoin:round;stroke-miterlimit:1.5;">
    <g transform="matrix(1,0,0,1,-126.918,-441.682)">
        <g id="hex_farm" transform="matrix(1,0,0,1,-2908.08,68.6207)">
            <rect x="3035" y="373.061" width="100" height="100" style="fill:none;"/>
            <g transform="matrix(0.797927,-0.460656,0.557506,0.965724,390.765,1442.57)">
                <path d="M3056.7,440.089L3111.55,440.089C3112.45,440.089 3113.18,439.486 3113.18,438.743C3113.18,438.001 3112.45,437.398 3111.55,437.398L3056.7,437.398C3055.8,437.398 3055.08,438.001 3055.08,438.743C3055.08,439.486 3055.8,440.089 3056.7,440.089Z" style="fill:rgb(18,118,12);"/>
            </g>
            <g transform="matrix(0.639349,-0.369106,0.557509,0.965722,884.186,1167.67)">
                <path d="M3056.7,440.089L3111.55,440.089C3112.67,440.089 3113.58,439.486 3113.58,438.743C3113.58,438.001 3112.67,437.398 3111.55,437.398L3056.7,437.398C3055.58,437.398 3054.67,438.001 3054.67,438.743C3054.67,439.486 3055.58,440.089 3056.7,440.089Z" style="fill:rgb(18,118,12);"/>
            </g>
            <g transform="matrix(0.953287,-0.550347,0.557503,0.965725,-92.6439,1711.96)">
                <path d="M3056.7,440.089L3111.55,440.089C3112.3,440.089 3112.91,439.486 3112.91,438.743C3112.91,438.001 3112.3,437.398 3111.55,437.398L3056.7,437.398C3055.95,437.398 3055.34,438.001 3055.34,438.743C3055.34,439.486 3055.95,440.089 3056.7,440.089Z" style="fill:rgb(18,118,12);"/>
            </g>
            <g transform="matrix(1.10868,-0.640056,0.5575,0.965727,-576.143,1981.39)">
                <path d="M3056.7,440.089L3111.55,440.089C3112.2,440.089 3112.72,439.486 3112.72,438.743C3112.72,438.001 3112.2,437.398 3111.55,437.398L3056.7,437.398C3056.06,437.398 3055.53,438.001 3055.53,438.743C3055.53,439.486 3056.06,440.089 3056.7,440.089Z" style="fill:rgb(18,118,12);"/>
            </g>
            <g transform="matrix(1.21118,-0.69927,0.557474,0.965742,-895.083,2155.94)">
                <path d="M3056.32,440.103L3111.55,440.089C3112.14,440.088 3112.62,439.486 3112.62,438.743C3112.62,438.001 3112.14,437.398 3111.55,437.398L3056.32,437.413C3055.73,437.413 3055.25,438.016 3055.25,438.758C3055.25,439.5 3055.73,440.103 3056.32,440.103Z" style="fill:rgb(18,118,12);"/>
            </g>
            <g transform="matrix(1.13886,-0.65748,0.5575,0.965728,-674.478,2018.78)">
                <path d="M3056.7,440.089L3111.55,440.089C3112.18,440.089 3112.69,439.486 3112.69,438.743C3112.69,438.001 3112.18,437.398 3111.55,437.398L3056.7,437.398C3056.07,437.398 3055.56,438.001 3055.56,438.743C3055.56,439.486 3056.07,440.089 3056.7,440.089Z" style="fill:rgb(18,118,12);"/>
            </g>
            <g transform="matrix(0.330863,-0.191012,0.718297,1.24422,1724.77,451.426)">
                <path d="M3056.7,439.787L3111.55,439.787C3113.72,439.787 3115.48,439.32 3115.48,438.743C3115.48,438.167 3113.72,437.699 3111.55,437.699L3056.7,437.699C3054.54,437.699 3052.78,438.167 3052.78,438.743C3052.78,439.32 3054.54,439.787 3056.7,439.787Z" style="fill:rgb(18,118,12);"/>
            </g>
            <g transform="matrix(0.334801,-0.193286,0.718297,1.24422,1712.73,448.85)">
                <path d="M3056.7,439.787L3111.55,439.787C3113.69,439.787 3115.43,439.32 3115.43,438.743C3115.43,438.167 3113.69,437.699 3111.55,437.699L3056.7,437.699C3054.56,437.699 3052.82,438.167 3052.82,438.743C3052.82,439.32 3054.56,439.787 3056.7,439.787Z" style="fill:rgb(18,118,12);"/>
            </g>
            <g transform="matrix(0.463827,-0.267774,0.718295,1.24422,1318.46,695.615)">
                <path d="M3056.7,439.787L3111.55,439.787C3113.24,439.787 3114.61,439.32 3114.61,438.743C3114.61,438.167 3113.24,437.699 3111.55,437.699L3056.7,437.699C3055.02,437.699 3053.65,438.167 3053.65,438.743C3053.65,439.32 3055.02,439.787 3056.7,439.787Z" style="fill:rgb(18,118,12);"/>
            </g>
            <g transform="matrix(0.0941828,-0.0543732,0.718303,1.24422,2498.73,14.0689)">
                <path d="M3056.7,439.787L3111.55,439.787C3119.16,439.787 3125.35,439.32 3125.35,438.743C3125.35,438.167 3119.16,437.699 3111.55,437.699L3056.7,437.699C3049.09,437.699 3042.91,438.167 3042.91,438.743C3042.91,439.32 3049.09,439.787 3056.7,439.787Z" style="fill:rgb(18,118,12);"/>
            </g>
            <g id="Layer9" transform="matrix(1.25815,0,0,1.28342,2830.72,-131.296)">
                <g transform="matrix(2.30556,0,0,1.62026,-6978.6,-259.274)">
                    <g transform="matrix(0.93177,0,0,0.93177,212.731,27.9451)">
                        <circle cx="3117.83" cy="408.668" r="1.325" style="fill:white;stroke:white;stroke-width:0.21px;"/>
                    </g>
                    <g transform="matrix(1,0,0,1,0,0.0614993)">
                        <rect x="3116.57" y="408.668" width="2.511" height="8.312" style="fill:rgb(167,24,24);stroke:white;stroke-width:0.2px;"/>
                    </g>
                    <g transform="matrix(1,0,0,0.789136,0,86.8011)">
                        <path d="M3117.36,409.231L3117.36,416.505" style="fill:none;stroke:white;stroke-opacity:0.42;stroke-width:0.19px;"/>
                    </g>
                </g>
                <g transform="matrix(1.28594,0,0,1.28594,-3797.27,-120.083)">
                    <path d="M3103.78,410.109L3105.79,406.882L3108.1,405.538L3110.48,406.882L3112.49,410.109L3112.49,417.234L3103.78,417.234L3103.78,410.109Z" style="fill:rgb(167,24,24);stroke:white;stroke-width:0.31px;"/>
                </g>
                <g transform="matrix(1.28594,0,0,1.56621,-3797.27,-239.5)">
                    <path d="M3109.53,416.558C3109.53,416.373 3109.44,416.195 3109.28,416.064C3109.12,415.933 3108.9,415.859 3108.67,415.859C3108.34,415.859 3107.98,415.859 3107.65,415.859C3107.42,415.859 3107.2,415.933 3107.04,416.064C3106.88,416.195 3106.79,416.373 3106.79,416.558C3106.79,417.372 3106.79,418.608 3106.79,418.608L3109.53,418.608L3109.53,416.558Z" style="fill:rgb(12,12,12);"/>
                </g>
                <g transform="matrix(0.901402,0,0,0.953109,-2605.56,11.0784)">
                    <path d="M3109.53,416.16C3109.53,415.994 3109.39,415.86 3109.21,415.859C3108.68,415.859 3107.64,415.859 3107.11,415.859C3106.93,415.86 3106.79,415.994 3106.79,416.16C3106.79,416.688 3106.79,417.779 3106.79,418.308C3106.79,418.474 3106.93,418.608 3107.11,418.608C3107.64,418.608 3108.68,418.608 3109.21,418.608C3109.39,418.608 3109.53,418.474 3109.53,418.308C3109.53,417.779 3109.53,416.688 3109.53,416.16Z" style="fill:rgb(12,12,12);"/>
                </g>
                <g transform="matrix(0.862632,0,0,0.953109,-2478.15,11.0784)">
                    <path d="M3109.53,416.16C3109.53,415.994 3109.38,415.86 3109.2,415.859C3108.67,415.859 3107.65,415.859 3107.12,415.859C3106.94,415.86 3106.79,415.994 3106.79,416.16C3106.79,416.688 3106.79,417.779 3106.79,418.308C3106.79,418.474 3106.94,418.608 3107.12,418.608C3107.65,418.608 3108.67,418.608 3109.2,418.608C3109.38,418.608 3109.53,418.474 3109.53,418.308C3109.53,417.779 3109.53,416.688 3109.53,416.16Z" style="fill:rgb(12,12,12);"/>
                </g>
                <g transform="matrix(0.862632,0,0,0.953109,-2481.58,11.0784)">
                    <path d="M3109.53,416.16C3109.53,415.994 3109.38,415.86 3109.2,415.859C3108.67,415.859 3107.65,415.859 3107.12,415.859C3106.94,415.86 3106.79,415.994 3106.79,416.16C3106.79,416.688 3106.79,417.779 3106.79,418.308C3106.79,418.474 3106.94,418.608 3107.12,418.608C3107.65,418.608 3108.67,418.608 3109.2,418.608C3109.38,418.608 3109.53,418.474 3109.53,418.308C3109.53,417.779 3109.53,416.688 3109.53,416.16Z" style="fill:rgb(12,12,12);"/>
                </g>
            </g>
        </g>
    </g>
</svg>
