<?xml version="1.0" encoding="UTF-8" standalone="no"?>
<!DOCTYPE svg PUBLIC "-//W3C//DTD SVG 1.1//EN" "http://www.w3.org/Graphics/SVG/1.1/DTD/svg11.dtd">
<svg width="100%" height="100%" viewBox="0 0 101 101" version="1.1" xmlns="http://www.w3.org/2000/svg" xmlns:xlink="http://www.w3.org/1999/xlink" xml:space="preserve" xmlns:serif="http://www.serif.com/" style="fill-rule:evenodd;clip-rule:evenodd;stroke-linecap:round;stroke-linejoin:round;stroke-miterlimit:1.5;">
    <g transform="matrix(1,0,0,1,-252.918,-441.682)">
        <g id="hex_mine" transform="matrix(1,0,0,1,-2908.15,68.6822)">
            <rect x="3161.06" y="373" width="100.045" height="100.045" style="fill:none;"/>
            <g transform="matrix(0.536152,0,0,0.536152,1508.56,204.159)">
                <g transform="matrix(-1.11629,-1.36706e-16,1.08084e-16,-0.882573,5627.88,575.592)">
                    <path d="M2180.91,155.101C2181.79,157.808 2181.54,160.888 2180.25,163.315C2178.96,165.743 2176.8,167.199 2174.49,167.199C2164.87,167.199 2150.59,167.199 2140.97,167.199C2138.65,167.199 2136.49,165.741 2135.2,163.312C2133.91,160.882 2133.67,157.8 2134.55,155.093C2136.36,149.508 2138.42,143.158 2139.84,138.762C2140.91,135.468 2143.45,133.316 2146.26,133.316C2152.38,133.316 2163.08,133.316 2169.21,133.316C2172.03,133.316 2174.57,135.472 2175.63,138.77C2177.05,143.168 2179.11,149.518 2180.91,155.101Z" style="fill:url(#_Linear1);stroke:black;stroke-width:2.98px;"/>
                </g>
                <g transform="matrix(0.972295,0,0,0.972295,1121.54,294.675)">
                    <circle cx="2145.28" cy="168.616" r="6.746" style="fill:rgb(134,134,134);stroke:black;stroke-width:2.06px;"/>
                </g>
                <g transform="matrix(0.972295,0,0,0.972295,1144.89,294.675)">
                    <circle cx="2145.28" cy="168.616" r="6.746" style="fill:rgb(134,134,134);stroke:black;stroke-width:2.06px;"/>
                </g>
                <g transform="matrix(1.66901,0,0,1.66901,-386.17,176.31)">
                    <circle cx="2167.09" cy="169.148" r="1.467" style="fill:rgb(203,203,203);"/>
                </g>
                <g transform="matrix(1.66901,0,0,1.66901,-409.52,176.31)">
                    <circle cx="2167.09" cy="169.148" r="1.467" style="fill:rgb(203,203,203);"/>
                </g>
                <g transform="matrix(1,0,0,1,1064.12,287.004)">
                    <path d="M2129.36,148.256L2181.46,148.256" style="fill:none;stroke:black;stroke-width:2.8px;"/>
                </g>
            </g>
            <g id="Layer8" transform="matrix(0.953265,0,0,0.953265,2920.61,26.7551)">
                <g transform="matrix(1,0,0,1,19.1321,1.7053e-13)">
                    <path d="M267.858,431.379C271.34,430.272 271.289,431.199 272.196,435.356C271.313,446.08 273.837,454.654 273.837,454.654L264.812,454.651C264.812,454.651 257.689,446.519 267.858,431.379Z" style="fill:rgb(48,26,10);"/>
                </g>
                <g transform="matrix(1,0,0,1,10.1642,9.9476e-14)">
                    <path d="M269.8,428.083C271.494,425.179 281.213,425.894 279.216,431.693C267.261,439.518 274.784,454.654 274.784,454.654L265.828,454.654C265.828,454.654 259.631,443.223 269.8,428.083Z" style="fill:rgb(70,37,13);"/>
                </g>
                <path d="M269.8,428.083C269.8,428.083 285.584,428.039 290.574,428.094C270.074,433.409 275.994,454.654 275.994,454.654L266.81,454.654L269.8,428.083Z" style="fill:rgb(95,54,24);"/>
                <g transform="matrix(0.811451,0,-0.084859,0.804801,86.901,88.2841)">
                    <path d="M271.166,423.66C271.166,423.087 270.705,422.622 270.136,422.622L268.076,422.622C267.507,422.622 267.046,423.087 267.046,423.66L267.046,454.213C267.046,454.787 267.507,455.252 268.076,455.252L270.136,455.252C270.705,455.252 271.166,454.787 271.166,454.213L271.166,423.66Z" style="fill:rgb(155,98,41);"/>
                </g>
                <g transform="matrix(0.811451,0,0.0848034,0.804801,36.2086,88.2841)">
                    <path d="M271.166,423.66C271.166,423.087 270.705,422.622 270.136,422.622L268.076,422.622C267.507,422.622 267.046,423.087 267.046,423.66L267.046,454.213C267.046,454.787 267.507,455.252 268.076,455.252L270.136,455.252C270.705,455.252 271.166,454.787 271.166,454.213L271.166,423.66Z" style="fill:rgb(155,98,41);"/>
                </g>
                <g transform="matrix(0.777772,0,0,0.819386,58.6217,82.1201)">
                    <path d="M304.696,420.081C304.696,419.159 303.908,418.411 302.937,418.411L265.55,418.411C264.579,418.411 263.79,419.159 263.79,420.081L263.79,422.397C263.79,423.319 264.579,424.068 265.55,424.068L302.937,424.068C303.908,424.068 304.696,423.319 304.696,422.397L304.696,420.081Z" style="fill:rgb(66,34,8);"/>
                </g>
            </g>
            <g id="Layer7" transform="matrix(0.677662,-0.307851,0.307851,0.677662,2882.34,242.775)">
                <g transform="matrix(0.711956,0,0,0.711956,-1983.17,121.849)">
                    <path d="M3202.04,401.919C3201.46,401.382 3201.36,400.503 3201.81,399.85C3202.25,399.198 3203.1,398.967 3203.82,399.309C3209.58,402.365 3215.88,406.854 3221.59,412.564C3227.52,418.496 3232.14,425.069 3235.18,431.016C3235.48,431.678 3235.25,432.461 3234.64,432.862C3234.04,433.262 3233.23,433.161 3232.74,432.622C3228.44,427.915 3223.93,423.106 3219.25,418.362L3187.67,449.941C3187.16,450.45 3186.34,450.449 3185.83,449.942L3183.99,448.102C3183.49,447.595 3183.49,446.772 3183.99,446.263L3215.57,414.686C3212.03,411.192 3206.44,405.985 3202.04,401.919Z" style="fill:rgb(182,104,7);stroke:black;stroke-width:3.77px;stroke-linecap:butt;stroke-miterlimit:1.41421;"/>
                </g>
                <g transform="matrix(0.369932,-0.369932,0.369932,0.369932,-633.371,1294.18)">
                    <path d="M2461.88,86.183C2461.88,85.206 2461.08,84.413 2460.11,84.413L2394.61,84.413C2393.63,84.413 2392.84,85.206 2392.84,86.183L2392.84,89.723C2392.84,90.699 2393.63,91.492 2394.61,91.492L2460.11,91.492C2461.08,91.492 2461.88,90.699 2461.88,89.723L2461.88,86.183Z" style="fill:rgb(182,104,7);"/>
                </g>
                <g transform="matrix(-0.654371,0.654371,-0.654371,-0.654371,2042.84,-1240.21)">
                    <path d="M2593.69,42.34C2593.72,41.718 2593.29,41.168 2592.68,41.05C2592.07,40.931 2591.46,41.281 2591.26,41.87C2589.83,46.623 2588.87,52.405 2588.87,58.518C2588.87,64.606 2589.82,70.365 2591.25,75.101C2591.46,75.685 2592.06,76.031 2592.66,75.914C2593.27,75.797 2593.7,75.251 2593.67,74.633C2593.45,69.4 2593.29,63.987 2593.29,58.518C2593.29,53.028 2593.45,47.593 2593.69,42.34Z" style="fill:white;"/>
                </g>
                <g transform="matrix(-0.654371,0.654371,-0.654371,-0.654371,2042.84,-1240.21)">
                    <path d="M2593.73,41.585C2593.75,41.238 2593.5,40.935 2593.15,40.886C2592.81,40.838 2592.49,41.061 2592.41,41.399C2591.33,46.472 2590.6,52.369 2590.6,58.518C2590.6,64.541 2591.3,70.321 2592.34,75.321C2592.43,75.669 2592.76,75.897 2593.11,75.847C2593.47,75.797 2593.73,75.486 2593.71,75.129C2593.46,69.742 2593.29,64.16 2593.29,58.518C2593.29,52.764 2593.47,47.071 2593.73,41.585Z" style="fill:rgb(76,76,76);"/>
                </g>
            </g>
        </g>
    </g>
    <defs>
        <linearGradient id="_Linear1" x1="0" y1="0" x2="1" y2="0" gradientUnits="userSpaceOnUse" gradientTransform="matrix(1.85858e-15,33.8828,-16.997,1.1618e-15,2157.72,133.316)"><stop offset="0" style="stop-color:rgb(103,54,22);stop-opacity:1"/><stop offset="1" style="stop-color:rgb(159,112,70);stop-opacity:1"/></linearGradient>
    </defs>
</svg>
