<?xml version="1.0" encoding="UTF-8" standalone="no"?>
<!DOCTYPE svg PUBLIC "-//W3C//DTD SVG 1.1//EN" "http://www.w3.org/Graphics/SVG/1.1/DTD/svg11.dtd">
<svg width="100%" height="100%" viewBox="0 0 101 101" version="1.1" xmlns="http://www.w3.org/2000/svg" xmlns:xlink="http://www.w3.org/1999/xlink" xml:space="preserve" xmlns:serif="http://www.serif.com/" style="fill-rule:evenodd;clip-rule:evenodd;stroke-linecap:round;stroke-linejoin:round;stroke-miterlimit:1.5;">
    <g transform="matrix(1,0,0,1,-374,-441)">
        <g id="hex_lumbermill" transform="matrix(1,0,0,1,-2908.08,68.6822)">
            <rect x="3283" y="373" width="100" height="100" style="fill:none;"/>
            <g transform="matrix(1,0,0,1,4.58146,-4.57178)">
                <path d="M3310.02,424.865L3311.17,426.865L3312.71,425.147L3313.41,427.342L3315.28,425.983L3315.51,428.277L3317.62,427.334L3317.37,429.628L3319.63,429.143L3318.91,431.336L3321.22,431.331L3320.06,433.326L3322.32,433.801L3320.77,435.511L3322.88,436.445L3321.01,437.797L3322.88,439.149L3320.77,440.082L3322.32,441.793L3320.06,442.268L3321.22,444.263L3318.91,444.258L3319.63,446.45L3317.37,445.966L3317.62,448.259L3315.51,447.317L3315.28,449.611L3313.41,448.251L3312.71,450.447L3311.17,448.729L3310.02,450.729L3308.87,448.729L3307.33,450.447L3306.62,448.251L3304.76,449.611L3304.52,447.317L3302.42,448.259L3302.66,445.966L3300.41,446.45L3301.12,444.258L3298.82,444.263L3299.97,442.268L3297.72,441.793L3299.26,440.082L3297.16,439.149L3299.03,437.797L3297.16,436.445L3299.26,435.511L3297.72,433.801L3299.97,433.326L3298.82,431.331L3301.12,431.336L3300.41,429.143L3302.66,429.628L3302.42,427.334L3304.52,428.277L3304.76,425.983L3306.62,427.342L3307.33,425.147L3308.87,426.865L3310.02,424.865ZM3310.02,435.686C3311.18,435.686 3312.13,436.632 3312.13,437.797C3312.13,438.962 3311.18,439.908 3310.02,439.908C3308.85,439.908 3307.91,438.962 3307.91,437.797C3307.91,436.632 3308.85,435.686 3310.02,435.686Z" style="fill:rgb(201,201,201);stroke:rgb(250,250,250);stroke-width:0.64px;"/>
            </g>
            <g transform="matrix(0.847637,-4.22893e-18,-0.222097,1,3072.6,-4.57178)">
                <path d="M385.273,444.758C385.273,444.441 384.97,444.184 384.596,444.184L383.241,444.184C382.867,444.184 382.564,444.441 382.564,444.758L382.564,457.109C382.564,457.426 382.867,457.683 383.241,457.683L384.596,457.683C384.97,457.683 385.273,457.426 385.273,457.109L385.273,444.758Z" style="fill:rgb(66,34,8);"/>
            </g>
            <g transform="matrix(0.847637,-4.22893e-18,0.221153,1,2879.47,-4.57178)">
                <path d="M385.273,444.758C385.273,444.441 384.97,444.184 384.596,444.184L383.241,444.184C382.867,444.184 382.564,444.441 382.564,444.758L382.564,457.109C382.564,457.426 382.867,457.683 383.241,457.683L384.596,457.683C384.97,457.683 385.273,457.426 385.273,457.109L385.273,444.758Z" style="fill:rgb(66,34,8);"/>
            </g>
            <g transform="matrix(0.847637,-4.22893e-18,0.221153,1,2908.27,-4.57178)">
                <path d="M385.273,444.758C385.273,444.441 384.97,444.184 384.596,444.184L383.241,444.184C382.867,444.184 382.564,444.441 382.564,444.758L382.564,457.109C382.564,457.426 382.867,457.683 383.241,457.683L384.596,457.683C384.97,457.683 385.273,457.426 385.273,457.109L385.273,444.758Z" style="fill:rgb(66,34,8);"/>
            </g>
            <g transform="matrix(0.847637,-4.22893e-18,-0.20372,1,3093.15,-4.57178)">
                <path d="M385.273,444.758C385.273,444.441 384.97,444.184 384.596,444.184L383.241,444.184C382.867,444.184 382.564,444.441 382.564,444.758L382.564,457.109C382.564,457.426 382.867,457.683 383.241,457.683L384.596,457.683C384.97,457.683 385.273,457.426 385.273,457.109L385.273,444.758Z" style="fill:rgb(66,34,8);"/>
            </g>
            <g transform="matrix(0.850904,0,-3.25314e-17,0.718307,2965.16,122.255)">
                <path d="M437.177,438.993C437.177,437.963 436.471,437.126 435.602,437.126L386.26,437.126C385.39,437.126 384.684,437.963 384.684,438.993L384.684,442.725C384.684,443.755 385.39,444.591 386.26,444.591L435.602,444.591C436.471,444.591 437.177,443.755 437.177,442.725L437.177,438.993Z" style="fill:rgb(155,98,41);"/>
            </g>
            <g transform="matrix(0.257366,0,0,0.257366,2477.16,317.428)">
                <g transform="matrix(1,0,0,1,3283,373)">
                    <path d="M122.17,108.31L18.43,108.31L18.43,154.52L122.17,154.52C132.59,154.52 141.04,144.18 141.04,131.42C141.04,118.66 132.59,108.31 122.17,108.31Z" style="fill:rgb(48,23,6);fill-rule:nonzero;"/>
                </g>
                <g transform="matrix(1,0,0,1,3283,373)">
                    <path d="M18.77,152.75C9.34,152.75 1.67,143.18 1.67,131.42C1.67,119.66 9.34,110.08 18.77,110.08C28.2,110.08 35.87,119.65 35.87,131.42C35.87,143.19 28.2,152.75 18.77,152.75Z" style="fill:rgb(155,98,41);fill-rule:nonzero;"/>
                </g>
                <g transform="matrix(1,0,0,1,3283,373)">
                    <path d="M18.77,111.85C27.22,111.85 34.1,120.63 34.1,131.42C34.1,142.21 27.22,151 18.77,151C10.32,151 3.44,142.2 3.44,131.42C3.44,120.64 10.32,111.85 18.77,111.85M18.77,108.31C8.35,108.31 -0.1,118.66 -0.1,131.42C-0.1,144.18 8.35,154.52 18.77,154.52C29.19,154.52 37.64,144.18 37.64,131.42C37.64,118.66 29.19,108.31 18.77,108.31Z" style="fill:rgb(66,34,8);fill-rule:nonzero;"/>
                </g>
                <g transform="matrix(1,0,0,1,3283,373)">
                    <path d="M100.33,137.61C82.11,140.2 71.74,147.44 54.17,145.35C47.989,144.609 41.972,142.855 36.36,140.16C31.099,144.256 24.552,146.358 17.89,146.09C11.862,145.976 6.034,143.893 1.3,140.16C4.08,148.46 10.68,154.34 18.43,154.51L122.17,154.51C130.09,154.51 136.86,148.51 139.66,140.09C122.31,135.84 109.12,136.37 100.33,137.61Z" style="fill-opacity:0.15;fill-rule:nonzero;"/>
                </g>
                <g transform="matrix(1,0,0,1,3283,373)">
                    <path d="M140.92,68.4L37.17,68.4L37.17,114.61L140.92,114.61C151.34,114.61 159.78,104.26 159.78,91.5C159.78,78.74 151.34,68.4 140.92,68.4Z" style="fill:rgb(48,23,6);fill-rule:nonzero;"/>
                </g>
                <g transform="matrix(1,0,0,1,3283,373)">
                    <ellipse cx="37.51" cy="91.5" rx="17.1" ry="21.34" style="fill:rgb(155,98,41);"/>
                </g>
                <g transform="matrix(1,0,0,1,3283,373)">
                    <path d="M37.51,71.94C45.97,71.94 52.84,80.71 52.84,91.5C52.84,102.29 46,111.07 37.51,111.07C29.02,111.07 22.19,102.29 22.19,91.5C22.19,80.71 29.06,71.94 37.51,71.94M37.51,68.4C27.09,68.4 18.65,78.74 18.65,91.5C18.65,104.26 27.09,114.61 37.51,114.61C47.93,114.61 56.38,104.26 56.38,91.5C56.38,78.74 47.94,68.4 37.51,68.4Z" style="fill:rgb(66,34,8);fill-rule:nonzero;"/>
                </g>
                <g transform="matrix(1,0,0,1,3283,373)">
                    <path d="M119.07,97.7C100.85,100.29 90.48,107.52 72.91,105.44C66.731,104.697 60.717,102.94 55.11,100.24C49.845,104.338 43.296,106.443 36.63,106.18C30.602,106.073 24.774,103.985 20.05,100.24C22.82,108.54 29.43,114.43 37.17,114.6L140.92,114.6C148.83,114.6 155.6,108.6 158.4,100.17C141.05,95.92 127.86,96.45 119.07,97.7Z" style="fill-opacity:0.15;fill-rule:nonzero;"/>
                </g>
                <g transform="matrix(1,0,0,1,3283,373)">
                    <path d="M160.31,108.31L56.57,108.31L56.57,154.52L160.31,154.52C170.73,154.52 179.18,144.18 179.18,131.42C179.18,118.66 170.73,108.31 160.31,108.31Z" style="fill:rgb(48,23,6);fill-rule:nonzero;"/>
                </g>
                <g transform="matrix(1,0,0,1,3283,373)">
                    <path d="M56.91,152.75C47.48,152.75 39.81,143.18 39.81,131.42C39.81,119.66 47.48,110.08 56.91,110.08C66.34,110.08 74,119.65 74,131.42C74,143.19 66.34,152.75 56.91,152.75Z" style="fill:rgb(155,98,41);fill-rule:nonzero;"/>
                </g>
                <g transform="matrix(1,0,0,1,3283,373)">
                    <path d="M56.91,111.85C65.36,111.85 72.24,120.63 72.24,131.42C72.24,142.21 65.36,151 56.91,151C48.46,151 41.58,142.22 41.58,131.44C41.58,120.66 48.46,111.87 56.91,111.87M56.91,108.33C46.49,108.31 38,118.66 38,131.42C38,144.18 46.45,154.52 56.87,154.52C67.29,154.52 75.74,144.18 75.74,131.42C75.74,118.66 67.29,108.31 56.87,108.31L56.91,108.33Z" style="fill:rgb(66,34,8);fill-rule:nonzero;"/>
                </g>
                <g transform="matrix(1,0,0,1,3283,373)">
                    <path d="M138.47,137.61C120.25,140.2 109.88,147.44 92.31,145.35C86.129,144.609 80.112,142.855 74.5,140.16C69.229,144.26 62.672,146.362 56,146.09C49.975,145.977 44.15,143.893 39.42,140.16C42.2,148.46 48.8,154.34 56.55,154.51L160.31,154.51C168.23,154.51 175,148.51 177.8,140.09C160.45,135.84 147.26,136.37 138.47,137.61Z" style="fill-opacity:0.15;fill-rule:nonzero;"/>
                </g>
                <g transform="matrix(1,0,0,1,3283,373)">
                    <path d="M145.74,28.38L118.6,28.38C118.141,28.378 117.764,27.999 117.764,27.54C117.764,27.294 117.872,27.06 118.06,26.9L123.56,22.35C123.964,22.01 124.198,21.508 124.198,20.98C124.198,20.003 123.397,19.197 122.42,19.19L114.31,19.19C111.912,19.192 109.587,20.03 107.74,21.56L100.74,27.33C99.915,28.009 98.879,28.38 97.81,28.38L57.18,28.38L57.18,74.6L145.74,74.6C154.63,74.6 161.84,64.25 161.84,51.49C161.84,38.73 154.63,28.38 145.74,28.38Z" style="fill:rgb(48,23,6);fill-rule:nonzero;"/>
                </g>
                <g transform="matrix(1,0,0,1,3283,373)">
                    <path d="M56.91,72.82C47.48,72.82 39.81,63.25 39.81,51.49C39.81,39.73 47.48,30.15 56.91,30.15C66.34,30.15 74,39.73 74,51.49C74,63.25 66.34,72.82 56.91,72.82Z" style="fill:rgb(155,98,41);fill-rule:nonzero;"/>
                </g>
                <g transform="matrix(1,0,0,1,3283,373)">
                    <path d="M56.91,31.92C65.36,31.92 72.24,40.7 72.24,51.49C72.24,62.28 65.36,71.05 56.91,71.05C48.46,71.05 41.58,62.28 41.58,51.49C41.58,40.7 48.46,31.92 56.91,31.92M56.91,28.38C46.49,28.38 38,38.73 38,51.49C38,64.25 46.49,74.6 56.91,74.6C67.33,74.6 75.78,64.25 75.78,51.49C75.78,38.73 67.33,28.38 56.91,28.38Z" style="fill:rgb(66,34,8);fill-rule:nonzero;"/>
                </g>
                <g transform="matrix(1,0,0,1,3283,373)">
                    <path d="M146.74,74.5C147.113,74.46 147.483,74.399 147.85,74.32L147.9,74.32C148.26,74.24 148.61,74.14 148.96,74.04L149.21,73.96C149.57,73.83 149.92,73.7 150.27,73.55L150.34,73.55C150.67,73.4 151,73.23 151.34,73.05L151.54,72.94C151.89,72.74 152.22,72.54 152.54,72.31C152.86,72.09 153.17,71.85 153.48,71.61L153.63,71.49C153.96,71.22 154.27,70.94 154.58,70.64C154.88,70.35 155.18,70.04 155.47,69.72L155.56,69.62C155.86,69.28 156.15,68.93 156.43,68.56C156.72,68.19 156.99,67.81 157.25,67.42L157.25,67.36C158.684,65.184 159.774,62.799 160.48,60.29C145.29,56.03 133.73,56.56 126.03,57.81C110.03,60.4 101.03,67.63 85.6,65.54C80.126,64.783 74.837,63.023 70,60.35C65.609,64.264 59.879,66.348 54,66.17C48.61,65.996 43.459,63.89 39.49,60.24C42.01,67.76 47.67,73.3 54.49,74.39L54.49,74.6L145.35,74.6C145.734,74.597 146.118,74.574 146.5,74.53L146.74,74.5Z" style="fill-opacity:0.15;fill-rule:nonzero;"/>
                </g>
                <g transform="matrix(1,0,0,1,3283,373)">
                    <path d="M159.75,68.4L73.17,68.4L73.17,114.61L159.75,114.61C168.44,114.61 175.49,104.26 175.49,91.5C175.49,78.74 168.44,68.4 159.75,68.4Z" style="fill:rgb(48,23,6);fill-rule:nonzero;"/>
                </g>
                <g transform="matrix(1,0,0,1,3283,373)">
                    <ellipse cx="76.35" cy="91.5" rx="17.1" ry="21.34" style="fill:rgb(155,98,41);"/>
                </g>
                <g transform="matrix(1,0,0,1,3283,373)">
                    <path d="M76.35,71.94C84.8,71.94 91.68,80.71 91.68,91.5C91.68,102.29 84.8,111.07 76.35,111.07C67.9,111.07 61,102.29 61,91.5C61,80.71 67.9,71.94 76.35,71.94M76.35,68.4C65.93,68.4 57.48,78.74 57.48,91.5C57.48,104.26 65.93,114.61 76.35,114.61C86.77,114.61 95.22,104.26 95.22,91.5C95.22,78.74 86.77,68.4 76.35,68.4Z" style="fill:rgb(66,34,8);fill-rule:nonzero;"/>
                </g>
                <g transform="matrix(1,0,0,1,3283,373)">
                    <path d="M141.52,97.7C126.32,100.29 117.66,107.52 103,105.44C96.37,104.44 93.69,100.44 93.69,100.44C93.69,100.44 81.62,106.44 72.69,106.15C67.502,105.949 62.569,103.832 58.85,100.21C61.17,108.51 66.68,114.4 73.14,114.57L159.72,114.57C166.32,114.57 171.97,108.57 174.31,100.14C159.86,95.92 148.85,96.45 141.52,97.7Z" style="fill-opacity:0.15;fill-rule:nonzero;"/>
                </g>
                <g transform="matrix(1,0,0,1,3283,373)">
                    <path d="M184.13,108.31L93.26,108.31L93.26,154.52L184.13,154.52C193.26,154.52 200.66,144.18 200.66,131.42C200.66,118.66 193.26,108.31 184.13,108.31Z" style="fill:rgb(48,23,6);fill-rule:nonzero;"/>
                </g>
                <g transform="matrix(1,0,0,1,3283,373)">
                    <path d="M95.73,152.75C86.3,152.75 78.63,143.18 78.63,131.42C78.63,119.66 86.3,110.08 95.73,110.08C105.16,110.08 112.83,119.65 112.83,131.42C112.83,143.19 105.15,152.75 95.73,152.75Z" style="fill:rgb(155,98,41);fill-rule:nonzero;"/>
                </g>
                <g transform="matrix(1,0,0,1,3283,373)">
                    <path d="M95.73,111.85C104.18,111.85 111.05,120.63 111.05,131.42C111.05,142.21 104.18,151 95.73,151C87.28,151 80.4,142.2 80.4,131.42C80.4,120.64 87.27,111.85 95.73,111.85M95.73,108.31C85.31,108.31 76.86,118.66 76.86,131.42C76.86,144.18 85.31,154.52 95.73,154.52C106.15,154.52 114.6,144.18 114.6,131.42C114.6,118.66 106.15,108.31 95.73,108.31Z" style="fill:rgb(66,34,8);fill-rule:nonzero;"/>
                </g>
                <g transform="matrix(1,0,0,1,3283,373)">
                    <path d="M165,137.61C149,140.2 140,147.44 124.56,145.35C119.1,144.584 113.826,142.825 109,140.16C104.578,144.16 98.769,146.287 92.81,146.09C87.418,145.911 82.265,143.806 78.29,140.16C80.72,148.46 86.5,154.34 93.29,154.51L184.16,154.51C191.09,154.51 197.02,148.51 199.48,140.09C184.25,135.84 172.7,136.37 165,137.61Z" style="fill-opacity:0.15;fill-rule:nonzero;"/>
                </g>
                <g transform="matrix(1,0,0,1,3283,373)">
                    <path d="M56.38,38.57C59.311,38.67 62.026,40.156 63.69,42.57M51.26,40.36C48.15,42.7 46.06,47.1 46.06,52.13M41.55,79.22C40.239,78.392 38.721,77.948 37.17,77.94M31.93,79.82C28.93,82.18 26.85,86.53 26.85,91.5M86.68,91C86.68,83.52 82.05,77.44 76.35,77.44M70.48,79.85C69.416,80.834 68.53,81.995 67.86,83.28M52.86,117.7C49.16,119.76 46.56,124.58 46.56,130.19M103.48,121.29C101.59,118.44 98.8,116.63 95.7,116.63C93.278,116.676 90.977,117.714 89.34,119.5M86.55,123.91C85.761,125.909 85.361,128.041 85.37,130.19M28.73,130.19C28.73,122.7 24.1,116.63 18.4,116.63M12.04,119.51C9.389,122.425 7.956,126.25 8.04,130.19" style="fill:none;fill-rule:nonzero;stroke:rgb(119,66,30);stroke-width:3.07px;stroke-linejoin:miter;stroke-miterlimit:4;"/>
                </g>
            </g>
        </g>
    </g>
</svg>
