<?xml version="1.0" encoding="UTF-8" standalone="no"?>
<!DOCTYPE svg PUBLIC "-//W3C//DTD SVG 1.1//EN" "http://www.w3.org/Graphics/SVG/1.1/DTD/svg11.dtd">
<svg width="100%" height="100%" viewBox="0 0 101 101" version="1.1" xmlns="http://www.w3.org/2000/svg" xmlns:xlink="http://www.w3.org/1999/xlink" xml:space="preserve" xmlns:serif="http://www.serif.com/" style="fill-rule:evenodd;clip-rule:evenodd;stroke-linecap:round;stroke-linejoin:round;stroke-miterlimit:1.5;">
    <g transform="matrix(1,0,0,1,-500,-570)">
        <g id="hex_winery" transform="matrix(1,0,0,1,-2972.84,-57.4879)">
            <rect x="3473" y="628" width="100" height="100" style="fill:none;"/>
            <g transform="matrix(0.0778197,0,0,0.0778197,3487.24,663.356)">
                <g transform="matrix(12.8502,0,0,12.8502,-4992.19,-8447.16)">
                    <path d="M396.005,675.283C394.435,671.885 394.655,664.649 398.274,662.21C402.696,659.231 415.916,659.504 419.917,662.077C423.778,664.56 422.843,672.659 421.981,675.21C427.69,676.761 427.481,683.492 427.529,685.192C427.522,687.428 426.41,691.097 425.199,692.265C422.327,695.039 415.357,694.792 410.073,694.785C404.434,694.777 395.582,694.712 392.178,692.546C389.774,690.294 389.546,688.1 389.255,684.724C389.183,677.826 393.2,676.807 396.005,675.283Z" style="fill:rgb(66,34,8);stroke:rgb(48,23,6);stroke-width:1px;"/>
                </g>
                <path d="M266.5,45.39C246.6,45.39 226.7,46.9 206.8,49.9C177.2,75.98 161.4,121.2 161.4,165.3C161.4,185.5 164.7,205.1 171,222.3C177.5,222 183.9,221.8 190.4,221.8C208.9,221 221.6,221.8 237,224.4C230.9,206 227.9,185.7 227.9,165.3C227.9,121.6 241.5,76.2 270,45.47L266.5,45.47L266.5,45.39ZM295.4,46.53C263.1,71.95 245.9,119.2 245.9,165.3C245.9,187.5 249.8,208.9 257.4,227.2C269.4,229.1 281.3,231.5 293.3,234.4C299.1,234.6 304.8,235.8 310.2,237.8C298.2,216.6 291.2,189.1 291.2,159C291.2,127.2 299,98.23 312.3,76.62C318.5,66.47 326.2,57.81 334.9,51.49C321.7,49.19 308.6,47.52 295.4,46.53ZM177.1,55.48C173.9,56.22 170.6,56.99 167.3,57.81L166.9,57.91L166.6,58.01C96.79,69.64 80.62,173.7 118.1,228.1C129.5,226.1 140.9,224.6 152.3,223.5C146.4,205.4 143.4,185.4 143.4,165.3C143.4,126.1 154.3,85.6 177.1,55.48ZM367.8,58.19C353.1,58.19 338.8,67.93 327.7,86.06C316.5,104.2 309.2,130.2 309.2,159C309.2,187.8 316.5,213.8 327.7,231.9C338.8,250.1 353.1,259.8 367.8,259.8C382.5,259.8 396.8,250.1 407.9,231.9C419.1,213.8 426.4,187.8 426.4,159C426.4,130.2 419.1,104.2 407.9,86.06C396.8,67.93 382.5,58.19 367.8,58.19ZM367.7,192.2L367.9,192.2C375.1,192.3 379.5,197.5 381.8,202.2C384.1,206.9 385.2,212.2 385.2,218.1C385.2,224 384.1,229.3 381.8,234C379.5,238.7 375.1,243.9 367.9,244L367.7,244C360.5,243.9 356.1,238.7 353.8,234C351.5,229.3 350.4,224 350.4,218.1C350.4,212.2 351.5,206.9 353.8,202.2C356.1,197.5 360.5,192.3 367.7,192.2ZM190.4,239.7C170.6,239.7 150.7,241.2 130.8,244.2C101.2,270.3 85.35,315.4 85.35,359.5C85.35,401.5 99.39,440.8 125.7,461.4C146.8,464.8 167.9,466.6 188.9,466.6C163.9,440.7 151.9,400.3 151.9,359.6C151.9,315.8 165.4,270.4 194,239.7L190.4,239.7ZM219.4,240.8C187,266.2 169.8,313.5 169.8,359.6C169.8,404.6 186,446.6 216.3,465.8C230.5,464.8 244.7,463.1 258.9,460.7C250.2,454.3 242.6,445.7 236.4,435.6C223.1,413.9 215.3,385 215.3,353.2C215.3,321.4 223.1,292.5 236.4,270.9C242.6,260.8 250.2,252.1 258.8,245.8C245.6,243.5 232.5,241.8 219.4,240.8ZM101,249.9C97.69,250.6 94.5,251.4 91.27,252.2L90.84,252.2L90.53,252.3C-0.301,267.4 -0.301,439.1 90.53,454.2L90.84,454.3L91.27,454.3L94.92,455.2C76.31,429.6 67.4,394.7 67.4,359.5C67.4,320.4 78.28,279.9 101,249.9ZM291.8,252.4C277.1,252.4 262.9,262.2 251.7,280.3C240.5,298.4 233.2,324.4 233.2,353.2C233.2,382.1 240.5,408 251.7,426.2C262.9,444.3 277.1,454.1 291.8,454.1C306.5,454.1 320.7,444.3 331.9,426.2C343.1,408 350.4,382.1 350.4,353.2C350.4,324.4 343.1,298.4 331.9,280.3C320.7,262.2 306.5,252.4 291.8,252.4ZM430.8,252.4C421.9,252.5 413.1,256.1 405,263.1C404.8,263.3 404.6,263.5 404.4,263.6C399.5,268 394.9,273.6 390.8,280.4C379.7,298.5 372.4,324.4 372.4,353.2C372.4,382 379.7,408 390.9,426.1C402,444.3 416.3,454 431,454C445.7,454 460,444.3 471.1,426.1C482.3,408 489.6,382 489.6,353.2C489.6,324.4 482.3,298.4 471.1,280.3C460,262.1 445.7,252.4 431,252.4L430.8,252.4ZM291.8,386.5C299,386.5 303.5,391.7 305.9,396.4C308.2,401.1 309.2,406.4 309.2,412.4C309.2,418.3 308.2,423.7 305.9,428.3C303.5,433.1 299,438.2 291.8,438.2C284.6,438.2 280.1,433.1 277.8,428.3C275.4,423.7 274.4,418.3 274.4,412.4C274.4,406.4 275.4,401.1 277.8,396.4C280.1,391.7 284.6,386.5 291.8,386.5ZM430.9,386.5L431.1,386.5C438.3,386.6 442.7,391.8 445,396.5C447.3,401.2 448.4,406.5 448.4,412.4C448.4,418.3 447.3,423.6 445,428.3C442.7,433 438.3,438.2 431.1,438.3L430.9,438.3C423.7,438.2 419.3,433 417,428.3C414.7,423.6 413.6,418.3 413.6,412.4C413.6,406.5 414.7,401.2 417,396.5C419.3,391.8 423.7,386.6 430.9,386.5ZM361.4,403.3C357.9,415.2 353.1,426.1 347.3,435.6C338.8,449.2 327.9,460.2 315.4,466.4C342.9,467.3 370.5,465.5 398,460.7C389.4,454.4 381.7,445.7 375.5,435.6C369.7,426.1 364.9,415.2 361.4,403.3Z" style="fill:rgb(155,98,41);fill-rule:nonzero;"/>
            </g>
            <g>
                <g transform="matrix(0.094341,0,0,0.094341,3521.86,653.377)">
                    <path d="M150.991,48.31C141.602,48.31 133.99,55.922 133.99,65.312C133.99,96.618 133.99,160.215 133.99,160.215C107.98,177.555 90.643,199.229 90.643,216.568L90.643,477.303C90.643,477.303 90.64,494 107.98,494L211.947,494C229.358,494 229.357,476.66 229.357,476.66L229.357,216.568C229.357,199.228 212.019,177.554 186.01,160.215L186.01,65.312C186.01,55.922 178.398,48.31 169.009,48.31C163.229,48.31 156.771,48.31 150.991,48.31Z" style="fill:rgb(12,12,12);"/>
                </g>
                <g transform="matrix(0.135594,0,0,0.216094,3515.26,613.104)">
                    <path d="M139.886,270C135.938,270 132.152,270.984 129.36,272.736C126.568,274.488 125,276.863 125,279.341C125,302.656 125,363.211 125,386.595C125,391.789 131.711,396 139.989,396C151.975,396 168.675,396 180.524,396C188.519,396 195,391.933 195,386.916C195,363.711 195,302.445 195,279.158C195,276.729 193.462,274.4 190.725,272.682C187.988,270.965 184.275,270 180.404,270C168.529,270 151.839,270 139.886,270Z" style="fill:rgb(95,0,1);"/>
                </g>
                <g transform="matrix(1,0,0,0.643744,3098.75,247.486)">
                    <path d="M436.014,664.653L436.014,687.532" style="fill:none;stroke:white;stroke-opacity:0.55;stroke-width:3px;"/>
                </g>
            </g>
        </g>
    </g>
</svg>
