<?xml version="1.0" encoding="UTF-8" standalone="no"?>
<!DOCTYPE svg PUBLIC "-//W3C//DTD SVG 1.1//EN" "http://www.w3.org/Graphics/SVG/1.1/DTD/svg11.dtd">
<svg width="100%" height="100%" viewBox="0 0 101 101" version="1.1" xmlns="http://www.w3.org/2000/svg" xmlns:xlink="http://www.w3.org/1999/xlink" xml:space="preserve" xmlns:serif="http://www.serif.com/" style="fill-rule:evenodd;clip-rule:evenodd;stroke-linejoin:round;stroke-miterlimit:2;">
    <g transform="matrix(1,0,0,1,-126,-567)">
        <g id="hex_ranch" transform="matrix(1,0,0,1,-3099.42,62.2723)">
            <rect x="3225.67" y="505.41" width="100" height="100" style="fill:none;"/>
            <g transform="matrix(0.515793,0,0,0.515793,1609.34,250.998)">
                <g transform="matrix(0.0914765,0,0,0.156095,3252.25,503.432)">
                    <path d="M246.188,227.844C246.188,227.844 200.215,273.815 184.7,289.33C181.373,292.657 179.24,296.348 178.434,300.176C172.764,327.106 148.966,440.117 141.408,476.009C140.822,478.794 142.302,481.592 145.474,483.694C148.645,485.796 153.203,487 157.991,487C170.636,487 187.126,487 199.292,487C203.723,487 207.973,485.968 211.106,484.132C214.24,482.296 216,479.805 216,477.208C216,465.384 216,445.616 216,433.792C216,428.384 223.481,424 232.708,424C246.379,424 265.621,424 279.292,424C288.519,424 296,428.384 296,433.792C296,445.616 296,465.384 296,477.208C296,479.805 297.76,482.296 300.894,484.132C304.027,485.968 308.277,487 312.708,487C324.874,487 341.365,487 354.011,487C358.799,487 363.356,485.796 366.527,483.694C369.699,481.593 371.179,478.795 370.593,476.01C365.336,451.029 352.81,391.503 351.076,383.264C350.943,382.631 350.705,382.007 350.364,381.401C344.225,370.473 284.64,264.4 268.39,235.474C266.309,231.784 260.702,229.165 254.1,228.798C251.393,229.007 248.755,228.573 246.188,227.843L246.188,227.844Z" style="fill:rgb(112,109,109);"/>
                </g>
                <g transform="matrix(0.0760316,0,0,0.0732422,3256.21,517.198)">
                    <path d="M387.882,353.136C392.408,351.627 395.818,347.732 396.834,342.911C397.849,338.091 396.318,333.073 392.812,329.74C371.913,309.867 335.962,275.682 309.993,250.988C307.307,248.434 303.241,248.248 300.349,250.549C297.457,252.85 296.572,256.974 298.25,260.331C314.273,292.392 335.85,335.566 345.62,355.114C348.617,361.111 355.345,363.988 361.542,361.921C368.889,359.471 378.892,356.135 387.882,353.136Z" style="fill:rgb(194,194,194);stroke:rgb(194,194,194);stroke-width:25.97px;"/>
                </g>
                <g transform="matrix(0.0760316,0,0,0.0732422,3256.21,517.198)">
                    <path d="M198.047,248.496C200.614,245.796 200.937,241.571 198.813,238.484C196.69,235.398 192.734,234.345 189.442,235.99C157.553,251.927 114.658,273.365 94.957,283.211C88.854,286.261 85.922,293.574 88.138,300.219C90.631,307.695 93.941,317.619 96.884,326.444C98.392,330.968 102.045,334.362 106.542,335.42C111.04,336.477 115.744,335.049 118.984,331.642C138.502,311.116 172.979,274.858 198.047,248.496Z" style="fill:rgb(194,194,194);stroke:rgb(194,194,194);stroke-width:25.97px;"/>
                </g>
                <g transform="matrix(0.0654706,0,0,0.0630687,3258.91,519.169)">
                    <path d="M256,174.188C251.025,174.188 246.06,176.096 242.22,179.938C234.534,187.623 234.534,199.848 242.22,207.532C249.903,215.218 262.097,215.218 269.78,207.532C277.466,199.849 277.466,187.624 269.78,179.939C265.94,176.097 260.975,174.189 256,174.189L256,174.188Z" style="fill:rgb(194,194,194);"/>
                </g>
                <g transform="matrix(0.0760316,0,0,0.0732422,3256.21,517.198)">
                    <path d="M415.118,61.05C413.609,56.527 409.956,53.134 405.459,52.076C400.962,51.019 396.258,52.448 393.018,55.855C373.504,76.377 339.036,112.626 313.968,138.989C311.401,141.689 311.077,145.915 313.202,149.001C315.326,152.088 319.282,153.14 322.575,151.494C354.462,135.55 397.347,114.109 417.044,104.26C423.146,101.209 426.077,93.895 423.861,87.251C421.368,79.781 418.06,69.867 415.118,61.05Z" style="fill:rgb(194,194,194);stroke:rgb(194,194,194);stroke-width:25.97px;"/>
                </g>
                <g transform="matrix(0.0760316,0,0,0.0732422,3256.21,517.198)">
                    <path d="M166.38,32.382C163.382,26.387 156.655,23.512 150.46,25.578C143.114,28.028 133.112,31.363 124.122,34.361C119.596,35.871 116.186,39.767 115.17,44.588C114.155,49.41 115.688,54.428 119.195,57.76C140.1,77.629 176.055,111.802 202.028,136.487C204.716,139.041 208.781,139.225 211.673,136.923C214.564,134.622 215.448,130.498 213.769,127.141C197.739,95.087 176.153,51.924 166.38,32.382Z" style="fill:rgb(194,194,194);stroke:rgb(194,194,194);stroke-width:25.97px;"/>
                </g>
                <g transform="matrix(0.0552861,0.0521943,-0.0502794,0.0532578,3271.26,507.709)">
                    <path d="M387.882,353.136C392.408,351.627 395.818,347.732 396.834,342.911C397.849,338.091 396.318,333.073 392.812,329.74C371.913,309.867 335.962,275.682 309.993,250.988C307.307,248.434 303.241,248.248 300.349,250.549C297.457,252.85 296.572,256.974 298.25,260.331C314.273,292.392 335.85,335.566 345.62,355.114C348.617,361.111 355.345,363.988 361.542,361.921C368.889,359.471 378.892,356.135 387.882,353.136Z" style="fill:rgb(194,194,194);stroke:rgb(194,194,194);stroke-width:25.97px;"/>
                </g>
                <g transform="matrix(0.0552861,0.0521943,-0.0502794,0.0532578,3271.26,507.709)">
                    <path d="M198.047,248.496C200.614,245.796 200.937,241.571 198.813,238.484C196.69,235.398 192.734,234.345 189.442,235.99C157.553,251.927 114.658,273.365 94.957,283.211C88.854,286.261 85.922,293.574 88.138,300.219C90.631,307.695 93.941,317.619 96.884,326.444C98.392,330.968 102.045,334.362 106.542,335.42C111.04,336.477 115.744,335.049 118.984,331.642C138.502,311.116 172.979,274.858 198.047,248.496Z" style="fill:rgb(194,194,194);stroke:rgb(194,194,194);stroke-width:25.97px;"/>
                </g>
                <g transform="matrix(0.0552861,0.0521943,-0.0502794,0.0532578,3271.26,507.709)">
                    <path d="M415.118,61.05C413.609,56.527 409.956,53.134 405.459,52.076C400.962,51.019 396.258,52.448 393.018,55.855C373.504,76.377 339.036,112.626 313.968,138.989C311.401,141.689 311.077,145.915 313.202,149.001C315.326,152.088 319.282,153.14 322.575,151.494C354.462,135.55 397.347,114.109 417.044,104.26C423.146,101.209 426.077,93.895 423.861,87.251C421.368,79.781 418.06,69.867 415.118,61.05Z" style="fill:rgb(194,194,194);stroke:rgb(194,194,194);stroke-width:25.97px;"/>
                </g>
                <g transform="matrix(0.0552861,0.0521943,-0.0502794,0.0532578,3271.26,507.709)">
                    <path d="M166.38,32.382C163.382,26.387 156.655,23.512 150.46,25.578C143.114,28.028 133.112,31.363 124.122,34.361C119.596,35.871 116.186,39.767 115.17,44.588C114.155,49.41 115.688,54.428 119.195,57.76C140.1,77.629 176.055,111.802 202.028,136.487C204.716,139.041 208.781,139.225 211.673,136.923C214.564,134.622 215.448,130.498 213.769,127.141C197.739,95.087 176.153,51.924 166.38,32.382Z" style="fill:rgb(194,194,194);stroke:rgb(194,194,194);stroke-width:25.97px;"/>
                </g>
            </g>
            <g transform="matrix(-0.37726,0,0,0.37726,3289.09,358.123)">
                <g transform="matrix(1,0,0,1,-1301.93,426.623)">
                    <path d="M1347.67,174.52C1346.95,174.529 1346.27,174.215 1345.82,173.665C1345.36,173.115 1345.18,172.389 1345.32,171.69C1346.63,164.659 1345.32,158.003 1345.32,158.003L1350.86,161.826C1350.86,161.826 1350.23,168.868 1349.91,172.445C1349.8,173.608 1348.84,174.505 1347.67,174.521C1347.67,174.52 1347.67,174.52 1347.67,174.52Z" style="fill:rgb(150,90,52);stroke:black;stroke-width:1px;stroke-linecap:round;stroke-miterlimit:1.5;"/>
                </g>
                <g transform="matrix(1,0,0,1,-1301.93,426.623)">
                    <path d="M1373.32,158.649C1373.32,158.649 1373.7,163.766 1370.53,171.966C1370.3,172.596 1370.39,173.299 1370.77,173.853C1371.15,174.407 1371.77,174.743 1372.44,174.757C1372.44,174.774 1372.44,174.774 1372.44,174.774C1373.03,174.786 1373.55,174.416 1373.73,173.864C1374.88,170.34 1378.92,158.034 1378.92,158.034L1373.32,158.649Z" style="fill:rgb(150,90,52);stroke:black;stroke-width:1px;stroke-linecap:round;stroke-miterlimit:1.5;"/>
                </g>
                <g transform="matrix(1,0,0,1,-1301.93,426.623)">
                    <path d="M1333.62,135.802C1332.44,134.032 1329.56,132.389 1326.95,131.175C1326.67,131.025 1326.55,130.69 1326.67,130.399C1326.8,130.109 1327.12,129.956 1327.42,130.045C1330.69,130.846 1334.66,132.297 1337.11,134.9C1335.3,135.329 1334.92,135.409 1333.62,135.802Z" style="fill:rgb(237,237,237);"/>
                </g>
                <g transform="matrix(1,0,0,1,-1301.93,426.623)">
                    <path d="M1355.51,174.519C1354.97,174.524 1354.44,174.305 1354.07,173.914C1353.69,173.522 1353.49,172.993 1353.51,172.448C1354.06,165.458 1351.8,162.364 1351.8,162.364C1351.8,162.364 1345.14,158.106 1341.36,154.54C1338.41,151.758 1336.65,147.848 1336.65,147.848L1340.23,137.58C1340.23,137.58 1362.7,140.661 1378.37,139.959C1382.28,139.578 1385.82,142.296 1386.47,146.177C1386.8,147.988 1387.05,149.851 1387.14,151.552C1387.43,157.084 1387.7,164.292 1386.94,172.981C1386.85,173.929 1386.06,174.655 1385.11,174.654C1383.79,174.649 1382.51,174.633 1382.51,174.633C1382.51,174.633 1383.39,172.245 1383.53,169.273C1383.57,168.106 1383.1,166.981 1382.24,166.191C1380.82,164.817 1379.65,163.266 1378.78,161.91C1377.48,159.929 1375.1,158.944 1372.78,159.425C1370.3,159.89 1366.93,160.349 1363.34,160.25C1360.43,160.086 1357.9,162.23 1357.59,165.126C1357.38,167.109 1357.28,169.626 1357.3,172.712C1357.3,173.702 1356.51,174.508 1355.52,174.518C1355.52,174.519 1355.51,174.519 1355.51,174.519Z" style="fill:rgb(199,120,69);stroke:black;stroke-width:1px;stroke-linecap:round;stroke-miterlimit:1.5;"/>
                </g>
                <g transform="matrix(1,0,0,1,-1301.93,426.623)">
                    <path d="M1336.71,147.681C1336.71,147.681 1327.26,148.286 1325.06,147.815C1323.98,147.582 1323.13,145.737 1323.52,144.857C1324.32,143.087 1329.62,138.944 1332.23,136.478C1334.1,135.358 1337.07,134.9 1337.07,134.9C1337.07,134.9 1337.2,134.504 1337.38,133.935C1337.63,133.182 1338.37,132.702 1339.15,132.787C1339.94,132.872 1340.56,133.498 1340.64,134.286C1340.77,135.414 1340.8,136.618 1340.41,137.745C1339.2,140.411 1336.71,147.681 1336.71,147.681Z" style="fill:rgb(199,120,69);stroke:black;stroke-width:1px;stroke-linecap:round;stroke-miterlimit:1.5;"/>
                </g>
                <g transform="matrix(1,0,0,1,-1541.6,485.813)">
                    <path d="M1577.88,82.852C1572.2,88.358 1564.7,88.104 1564.7,88.104C1564.7,88.104 1571.74,89.019 1576.07,88.068C1577.12,84.511 1577.41,84.717 1577.88,82.852Z" style="fill-opacity:0.25;"/>
                </g>
                <g transform="matrix(1.08386,0,0,0.980455,-1417.8,430.948)">
                    <path d="M1385.14,139.719C1385.14,139.719 1390.67,139.786 1391.04,148.34C1390.87,153.169 1389.8,156.811 1390.4,159.084C1390.83,160.677 1392.62,161.879 1392.51,162.376C1391.73,163.867 1390.12,162.904 1389.72,162.061C1388.04,158.904 1388.38,153.72 1388.59,149.878C1388.73,147.436 1388.94,145.626 1387.57,144.277C1386.92,143.64 1386.12,144.285 1386.12,144.285L1385.14,139.719Z" style="fill:rgb(199,120,69);stroke:black;stroke-width:1px;stroke-linecap:round;stroke-miterlimit:1.5;"/>
                </g>
                <g transform="matrix(1,0,0,1,-1302.85,426.496)">
                    <circle cx="1334.12" cy="140.017" r="1.261"/>
                </g>
                <g transform="matrix(1,0,0,1,-1301.93,426.623)">
                    <path d="M1364.45,140.339C1361.44,141.629 1358.95,145.035 1359.88,149.051C1360.82,153.067 1366.27,155.654 1368.31,152.838C1370.35,150.022 1370.14,145.161 1374.2,146.584C1378.07,147.946 1379.33,148.552 1381.12,145.977C1382.9,143.403 1381.91,140.998 1380.12,140.392C1375.38,140.778 1368.68,140.477 1364.45,140.339Z" style="fill:rgb(230,226,224);"/>
                </g>
                <g transform="matrix(-0.818258,-0.574851,0.574851,-0.818258,1084.22,1485.99)">
                    <path d="M1365.83,139.835C1362.81,141.125 1364.72,142.295 1364.41,143.883C1364.1,145.471 1358.06,148.474 1363.85,150.371C1369.63,152.268 1366.57,147.132 1369.64,146.291C1374.4,146.364 1374.79,150.969 1376.77,147.86C1378.76,144.751 1382.18,146.706 1380.09,141.795C1376.11,140.035 1370.73,139.442 1365.83,139.835Z" style="fill:rgb(230,226,224);"/>
                </g>
            </g>
            <g transform="matrix(-0.321343,0,0,0.321343,3312.02,374.383)">
                <g transform="matrix(1,0,0,1,-1301.93,426.623)">
                    <path d="M1347.77,174.518C1347.03,174.528 1346.33,174.203 1345.86,173.635C1345.39,173.066 1345.2,172.315 1345.34,171.591C1346.62,164.597 1345.32,158.003 1345.32,158.003L1350.86,161.826C1350.86,161.826 1350.21,169.008 1349.9,172.55C1349.8,173.653 1348.88,174.504 1347.78,174.521C1347.78,174.518 1347.77,174.518 1347.77,174.518Z" style="fill:rgb(150,90,52);stroke:black;stroke-width:1px;stroke-linecap:round;stroke-miterlimit:1.5;"/>
                </g>
                <g transform="matrix(1,0,0,1,-1301.93,426.623)">
                    <path d="M1373.32,158.649C1373.32,158.649 1373.69,163.654 1370.63,171.696C1370.39,172.39 1370.49,173.16 1370.9,173.766C1371.32,174.373 1372.01,174.742 1372.74,174.758C1372.74,174.78 1372.74,174.78 1372.74,174.78C1373.15,174.789 1373.51,174.533 1373.63,174.151C1374.64,171.072 1378.92,158.034 1378.92,158.034L1373.32,158.649Z" style="fill:rgb(150,90,52);stroke:black;stroke-width:1px;stroke-linecap:round;stroke-miterlimit:1.5;"/>
                </g>
                <g transform="matrix(1,0,0,1,-1301.93,426.623)">
                    <path d="M1333.62,135.802C1332.57,134.238 1330.21,132.774 1327.87,131.617C1327.56,131.427 1327.43,131.029 1327.59,130.695C1327.75,130.361 1328.13,130.199 1328.48,130.32C1331.52,131.166 1334.92,132.573 1337.11,134.9C1335.3,135.329 1334.92,135.409 1333.62,135.802Z" style="fill:rgb(237,237,237);"/>
                </g>
                <g transform="matrix(1,0,0,1,-1301.93,426.623)">
                    <path d="M1355.62,174.519C1355.05,174.524 1354.5,174.295 1354.1,173.887C1353.7,173.478 1353.49,172.925 1353.51,172.356C1354.04,165.431 1351.8,162.364 1351.8,162.364C1351.8,162.364 1345.14,158.106 1341.36,154.54C1338.41,151.758 1336.65,147.848 1336.65,147.848L1340.23,137.58C1340.23,137.58 1361.63,140.515 1377.23,140.003C1381.89,139.591 1386.05,142.907 1386.69,147.541C1386.91,148.908 1387.08,150.276 1387.14,151.552C1387.44,157.095 1387.7,164.321 1386.93,173.035C1386.85,173.953 1386.08,174.656 1385.16,174.656C1383.83,174.649 1382.51,174.633 1382.51,174.633C1382.51,174.633 1383.31,172.463 1383.51,169.685C1383.59,168.299 1383.05,166.95 1382.04,166C1380.86,164.817 1379.86,163.522 1379.06,162.34C1377.54,160.13 1374.85,159.029 1372.22,159.534C1370,159.919 1367.18,160.278 1364.15,160.263C1360.75,160.149 1357.86,162.705 1357.54,166.092C1357.35,167.927 1357.28,170.16 1357.3,172.809C1357.31,173.745 1356.55,174.508 1355.62,174.517C1355.62,174.519 1355.62,174.519 1355.62,174.519Z" style="fill:rgb(199,120,69);stroke:black;stroke-width:1px;stroke-linecap:round;stroke-miterlimit:1.5;"/>
                </g>
                <g transform="matrix(1,0,0,1,-1301.93,426.623)">
                    <path d="M1336.71,147.681C1336.71,147.681 1327.26,148.286 1325.06,147.815C1323.98,147.582 1323.13,145.737 1323.52,144.857C1324.32,143.087 1329.62,138.944 1332.23,136.478C1334.1,135.358 1337.07,134.9 1337.07,134.9C1337.07,134.9 1337.07,134.9 1337.07,134.899C1337.37,133.982 1338.3,133.428 1339.25,133.608C1340.19,133.789 1340.86,134.646 1340.79,135.608C1340.73,136.32 1340.65,137.047 1340.41,137.745C1339.2,140.411 1336.71,147.681 1336.71,147.681Z" style="fill:rgb(199,120,69);stroke:black;stroke-width:1px;stroke-linecap:round;stroke-miterlimit:1.5;"/>
                </g>
                <g transform="matrix(1,0,0,1,-1541.6,485.813)">
                    <path d="M1577.88,82.852C1572.2,88.358 1564.7,88.104 1564.7,88.104C1564.7,88.104 1571.74,89.019 1576.07,88.068C1577.12,84.511 1577.41,84.717 1577.88,82.852Z" style="fill-opacity:0.25;"/>
                </g>
                <g transform="matrix(1.08386,0,0,0.980455,-1417.8,430.948)">
                    <path d="M1385.14,139.719C1385.14,139.719 1390.67,139.786 1391.04,148.34C1390.87,153.169 1389.8,156.811 1390.4,159.084C1390.83,160.677 1392.62,161.879 1392.51,162.376C1391.73,163.867 1390.12,162.904 1389.72,162.061C1388.04,158.904 1388.38,153.72 1388.59,149.878C1388.73,147.436 1388.94,145.626 1387.57,144.277C1386.92,143.64 1386.12,144.285 1386.12,144.285L1385.14,139.719Z" style="fill:rgb(199,120,69);stroke:black;stroke-width:1px;stroke-linecap:round;stroke-miterlimit:1.5;"/>
                </g>
                <g transform="matrix(1,0,0,1,-1302.85,426.496)">
                    <circle cx="1334.12" cy="140.017" r="1.261"/>
                </g>
                <g transform="matrix(1,0,0,1,-1301.93,426.623)">
                    <path d="M1364.45,140.339C1361.44,141.629 1358.95,145.035 1359.88,149.051C1360.82,153.067 1366.27,155.654 1368.31,152.838C1370.35,150.022 1370.14,145.161 1374.2,146.584C1378.07,147.946 1379.33,148.552 1381.12,145.977C1382.9,143.403 1381.91,140.998 1380.12,140.392C1375.38,140.778 1368.68,140.477 1364.45,140.339Z" style="fill:rgb(230,226,224);"/>
                </g>
                <g transform="matrix(-0.818258,-0.574851,0.574851,-0.818258,1084.22,1485.99)">
                    <path d="M1365.83,139.835C1362.81,141.125 1364.72,142.295 1364.41,143.883C1364.1,145.471 1358.06,148.474 1363.85,150.371C1369.63,152.268 1366.57,147.132 1369.64,146.291C1374.4,146.364 1374.79,150.969 1376.77,147.86C1378.76,144.751 1382.18,146.706 1380.09,141.795C1376.11,140.035 1370.73,139.442 1365.83,139.835Z" style="fill:rgb(230,226,224);"/>
                </g>
            </g>
            <g transform="matrix(-0.264439,0,0,0.264439,3272.67,399.597)">
                <g transform="matrix(1,0,0,1,-1301.93,426.623)">
                    <path d="M1348.03,174.514C1347.23,174.525 1346.47,174.175 1345.95,173.561C1345.44,172.947 1345.23,172.133 1345.38,171.347C1346.59,164.444 1345.32,158.003 1345.32,158.003L1350.86,161.826C1350.86,161.826 1350.18,169.38 1349.87,172.815C1349.79,173.766 1349,174.5 1348.05,174.515C1348.04,174.514 1348.04,174.514 1348.03,174.514Z" style="fill:rgb(150,90,52);stroke:black;stroke-width:1px;stroke-linecap:round;stroke-miterlimit:1.5;"/>
                </g>
                <g transform="matrix(1,0,0,1,-1301.93,426.623)">
                    <path d="M1373.32,158.649C1373.32,158.649 1373.69,163.709 1370.58,171.829C1370.35,172.491 1370.44,173.228 1370.84,173.809C1371.24,174.389 1371.89,174.743 1372.59,174.758C1372.6,174.777 1372.6,174.777 1372.6,174.777C1373.09,174.787 1373.53,174.477 1373.68,174.012C1374.76,170.701 1378.92,158.034 1378.92,158.034L1373.32,158.649Z" style="fill:rgb(150,90,52);stroke:black;stroke-width:1px;stroke-linecap:round;stroke-miterlimit:1.5;"/>
                </g>
                <g transform="matrix(1,0,0,1,-1301.93,426.623)">
                    <path d="M1333.62,135.802C1332.78,134.539 1331.07,133.341 1329.21,132.317C1328.85,132.06 1328.74,131.567 1328.95,131.177C1329.17,130.786 1329.65,130.624 1330.06,130.801C1332.64,131.674 1335.29,132.971 1337.11,134.9C1335.3,135.329 1334.92,135.409 1333.62,135.802Z" style="fill:rgb(237,237,237);"/>
                </g>
                <g transform="matrix(1,0,0,1,-1301.93,426.623)">
                    <path d="M1355.76,174.517C1355.16,174.523 1354.58,174.281 1354.15,173.848C1353.73,173.415 1353.5,172.828 1353.52,172.222C1354.01,165.391 1351.8,162.364 1351.8,162.364C1351.8,162.364 1345.14,158.106 1341.36,154.54C1338.41,151.758 1336.65,147.848 1336.65,147.848L1340.23,137.58C1340.23,137.58 1360.14,140.311 1375.55,140.045C1381.34,139.607 1386.42,143.893 1386.96,149.679C1387.06,150.316 1387.11,150.944 1387.14,151.552C1387.43,157.055 1387.7,164.216 1386.95,172.844C1386.86,173.869 1386,174.655 1384.97,174.654C1384.22,174.65 1383.49,174.644 1383.03,174.639C1382.91,174.637 1382.8,174.577 1382.73,174.479C1382.66,174.38 1382.64,174.255 1382.68,174.141C1382.89,173.435 1383.27,172.035 1383.45,170.34C1383.61,168.623 1382.99,166.923 1381.76,165.718C1380.88,164.799 1380.1,163.828 1379.45,162.902C1377.61,160.397 1374.51,159.143 1371.45,159.664C1369.66,159.945 1367.55,160.195 1365.29,160.251C1361.19,160.244 1357.78,163.414 1357.5,167.504C1357.32,169.074 1357.29,170.89 1357.3,172.957C1357.31,173.811 1356.62,174.507 1355.77,174.516C1355.77,174.517 1355.77,174.517 1355.76,174.517Z" style="fill:rgb(199,120,69);stroke:black;stroke-width:1px;stroke-linecap:round;stroke-miterlimit:1.5;"/>
                </g>
                <g transform="matrix(1,0,0,1,-1301.93,426.623)">
                    <path d="M1336.71,147.681C1336.71,147.681 1327.26,148.286 1325.06,147.815C1323.98,147.582 1323.13,145.737 1323.52,144.857C1324.32,143.087 1329.62,138.944 1332.23,136.478C1334.1,135.358 1337.07,134.9 1337.07,134.9C1337.07,134.9 1337.07,134.898 1337.07,134.894C1337.37,133.977 1338.3,133.424 1339.24,133.604C1340.19,133.784 1340.86,134.64 1340.79,135.601C1340.73,136.315 1340.65,137.045 1340.41,137.745C1339.2,140.411 1336.71,147.681 1336.71,147.681Z" style="fill:rgb(199,120,69);stroke:black;stroke-width:1px;stroke-linecap:round;stroke-miterlimit:1.5;"/>
                </g>
                <g transform="matrix(1,0,0,1,-1541.6,485.813)">
                    <path d="M1577.88,82.852C1572.2,88.358 1564.7,88.104 1564.7,88.104C1564.7,88.104 1571.74,89.019 1576.07,88.068C1577.12,84.511 1577.41,84.717 1577.88,82.852Z" style="fill-opacity:0.25;"/>
                </g>
                <g transform="matrix(1.08386,0,0,0.980455,-1417.8,430.948)">
                    <path d="M1385.14,139.719C1385.14,139.719 1390.67,139.786 1391.04,148.34C1390.87,153.169 1389.8,156.811 1390.4,159.084C1390.83,160.677 1392.62,161.879 1392.51,162.376C1391.73,163.867 1390.12,162.904 1389.72,162.061C1388.04,158.904 1388.38,153.72 1388.59,149.878C1388.73,147.436 1388.94,145.626 1387.57,144.277C1386.92,143.64 1386.12,144.285 1386.12,144.285L1385.14,139.719Z" style="fill:rgb(199,120,69);stroke:black;stroke-width:1px;stroke-linecap:round;stroke-miterlimit:1.5;"/>
                </g>
                <g transform="matrix(1,0,0,1,-1302.85,426.496)">
                    <circle cx="1334.12" cy="140.017" r="1.261"/>
                </g>
                <g transform="matrix(1,0,0,1,-1301.93,426.623)">
                    <path d="M1364.45,140.339C1361.44,141.629 1358.95,145.035 1359.88,149.051C1360.82,153.067 1366.27,155.654 1368.31,152.838C1370.35,150.022 1370.14,145.161 1374.2,146.584C1378.07,147.946 1379.33,148.552 1381.12,145.977C1382.9,143.403 1381.91,140.998 1380.12,140.392C1375.38,140.778 1368.68,140.477 1364.45,140.339Z" style="fill:rgb(230,226,224);"/>
                </g>
                <g transform="matrix(-0.818258,-0.574851,0.574851,-0.818258,1084.22,1485.99)">
                    <path d="M1365.83,139.835C1362.81,141.125 1364.72,142.295 1364.41,143.883C1364.1,145.471 1358.06,148.474 1363.85,150.371C1369.63,152.268 1366.57,147.132 1369.64,146.291C1374.4,146.364 1374.79,150.969 1376.77,147.86C1378.76,144.751 1382.18,146.706 1380.09,141.795C1376.11,140.035 1370.73,139.442 1365.83,139.835Z" style="fill:rgb(230,226,224);"/>
                </g>
            </g>
            <g transform="matrix(-0.216227,0,0,0.216227,3290.91,409.164)">
                <g transform="matrix(1,0,0,1,-1301.93,426.623)">
                    <path d="M1348.35,174.508C1347.48,174.523 1346.64,174.143 1346.07,173.473C1345.5,172.803 1345.27,171.914 1345.42,171.051C1346.56,164.262 1345.32,158.003 1345.32,158.003L1350.86,161.826C1350.86,161.826 1350.14,169.862 1349.85,173.126C1349.78,173.9 1349.14,174.497 1348.36,174.511C1348.36,174.508 1348.36,174.508 1348.35,174.508Z" style="fill:rgb(150,90,52);stroke:black;stroke-width:1px;stroke-linecap:round;stroke-miterlimit:1.5;"/>
                </g>
                <g transform="matrix(1,0,0,1,-1301.93,426.623)">
                    <path d="M1373.32,158.649C1373.32,158.649 1373.7,163.818 1370.48,172.092C1370.26,172.692 1370.34,173.363 1370.7,173.892C1371.07,174.421 1371.66,174.742 1372.3,174.754C1372.32,174.772 1372.34,174.772 1372.36,174.773C1373,174.778 1373.56,174.372 1373.76,173.77C1374.95,170.126 1378.92,158.034 1378.92,158.034L1373.32,158.649Z" style="fill:rgb(150,90,52);stroke:black;stroke-width:1px;stroke-linecap:round;stroke-miterlimit:1.5;"/>
                </g>
                <g transform="matrix(1,0,0,1,-1301.93,426.623)">
                    <path d="M1333.62,135.802C1333.04,134.935 1332.05,134.098 1330.89,133.328C1330.48,132.97 1330.4,132.354 1330.71,131.903C1331.03,131.452 1331.63,131.313 1332.11,131.582C1333.99,132.404 1335.77,133.481 1337.11,134.9C1335.3,135.329 1334.92,135.409 1333.62,135.802Z" style="fill:rgb(237,237,237);"/>
                </g>
                <g transform="matrix(1,0,0,1,-1301.93,426.623)">
                    <path d="M1355.71,174.518C1355.12,174.523 1354.55,174.286 1354.13,173.862C1353.72,173.438 1353.5,172.864 1353.52,172.272C1354.02,165.406 1351.8,162.364 1351.8,162.364C1351.8,162.364 1345.14,158.106 1341.36,154.54C1338.41,151.758 1336.65,147.848 1336.65,147.848L1340.23,137.58C1340.23,137.58 1358.97,140.149 1374.15,140.061C1377.4,139.849 1380.59,140.945 1383.02,143.104C1385.45,145.264 1386.92,148.307 1387.09,151.555C1387.14,151.552 1387.14,151.552 1387.14,151.552C1387.42,156.858 1387.68,163.704 1387.03,171.921C1386.9,173.468 1385.61,174.657 1384.06,174.648C1383.18,174.642 1382.51,174.633 1382.51,174.633C1382.51,174.633 1383.05,173.17 1383.35,171.108C1383.65,169.021 1382.95,166.915 1381.47,165.415C1380.9,164.79 1380.37,164.149 1379.9,163.518C1377.67,160.698 1374.12,159.279 1370.56,159.795C1369.36,159.963 1368.04,160.112 1366.64,160.194C1361.68,160.373 1357.69,164.338 1357.48,169.3C1357.3,170.399 1357.29,171.601 1357.3,172.903C1357.31,173.787 1356.6,174.507 1355.71,174.516C1355.71,174.518 1355.71,174.518 1355.71,174.518Z" style="fill:rgb(199,120,69);stroke:black;stroke-width:1px;stroke-linecap:round;stroke-miterlimit:1.5;"/>
                </g>
                <g transform="matrix(1,0,0,1,-1301.93,426.623)">
                    <path d="M1336.71,147.681C1336.71,147.681 1327.26,148.286 1325.06,147.815C1323.98,147.582 1323.13,145.737 1323.52,144.857C1324.32,143.087 1329.62,138.944 1332.23,136.478C1334.1,135.358 1337.07,134.9 1337.07,134.9C1337.07,134.9 1337.07,134.899 1337.07,134.896C1337.36,133.977 1338.3,133.421 1339.24,133.599C1340.19,133.777 1340.86,134.634 1340.8,135.596C1340.73,136.312 1340.65,137.044 1340.41,137.745C1339.2,140.411 1336.71,147.681 1336.71,147.681Z" style="fill:rgb(199,120,69);stroke:black;stroke-width:1px;stroke-linecap:round;stroke-miterlimit:1.5;"/>
                </g>
                <g transform="matrix(1,0,0,1,-1541.6,485.813)">
                    <path d="M1577.88,82.852C1572.2,88.358 1564.7,88.104 1564.7,88.104C1564.7,88.104 1571.74,89.019 1576.07,88.068C1577.12,84.511 1577.41,84.717 1577.88,82.852Z" style="fill-opacity:0.25;"/>
                </g>
                <g transform="matrix(1.08386,0,0,0.980455,-1417.8,430.948)">
                    <path d="M1385.14,139.719C1385.14,139.719 1390.67,139.786 1391.04,148.34C1390.87,153.169 1389.8,156.811 1390.4,159.084C1390.83,160.677 1392.62,161.879 1392.51,162.376C1391.73,163.867 1390.12,162.904 1389.72,162.061C1388.04,158.904 1388.38,153.72 1388.59,149.878C1388.73,147.436 1388.94,145.626 1387.57,144.277C1386.92,143.64 1386.12,144.285 1386.12,144.285L1385.14,139.719Z" style="fill:rgb(199,120,69);stroke:black;stroke-width:1px;stroke-linecap:round;stroke-miterlimit:1.5;"/>
                </g>
                <g transform="matrix(1,0,0,1,-1302.85,426.496)">
                    <circle cx="1334.12" cy="140.017" r="1.261"/>
                </g>
                <g transform="matrix(1,0,0,1,-1301.93,426.623)">
                    <path d="M1364.45,140.339C1361.44,141.629 1358.95,145.035 1359.88,149.051C1360.82,153.067 1366.27,155.654 1368.31,152.838C1370.35,150.022 1370.14,145.161 1374.2,146.584C1378.07,147.946 1379.33,148.552 1381.12,145.977C1382.9,143.403 1381.91,140.998 1380.12,140.392C1375.38,140.778 1368.68,140.477 1364.45,140.339Z" style="fill:rgb(230,226,224);"/>
                </g>
                <g transform="matrix(-0.818258,-0.574851,0.574851,-0.818258,1084.22,1485.99)">
                    <path d="M1365.83,139.835C1362.81,141.125 1364.72,142.295 1364.41,143.883C1364.1,145.471 1358.06,148.474 1363.85,150.371C1369.63,152.268 1366.57,147.132 1369.64,146.291C1374.4,146.364 1374.79,150.969 1376.77,147.86C1378.76,144.751 1382.18,146.706 1380.09,141.795C1376.11,140.035 1370.73,139.442 1365.83,139.835Z" style="fill:rgb(230,226,224);"/>
                </g>
            </g>
            <g transform="matrix(-0.188152,0,0,0.188152,3272.57,420.925)">
                <g transform="matrix(1,0,0,1,-1301.93,426.623)">
                    <path d="M1348.09,174.513C1347.27,174.525 1346.5,174.17 1345.97,173.546C1345.45,172.923 1345.24,172.097 1345.39,171.298C1346.59,164.414 1345.32,158.003 1345.32,158.003L1350.86,161.826C1350.86,161.826 1350.17,169.449 1349.87,172.862C1349.79,173.787 1349.02,174.502 1348.09,174.517C1348.09,174.513 1348.09,174.513 1348.09,174.513Z" style="fill:rgb(150,90,52);stroke:black;stroke-width:1px;stroke-linecap:round;stroke-miterlimit:1.5;"/>
                </g>
                <g transform="matrix(1,0,0,1,-1301.93,426.623)">
                    <path d="M1373.32,158.649C1373.32,158.649 1373.7,163.871 1370.43,172.219C1370.22,172.79 1370.3,173.429 1370.64,173.932C1370.98,174.436 1371.55,174.742 1372.16,174.753C1372.17,174.769 1372.17,174.769 1372.18,174.769C1372.92,174.775 1373.58,174.3 1373.82,173.595C1375.07,169.755 1378.92,158.034 1378.92,158.034L1373.32,158.649Z" style="fill:rgb(150,90,52);stroke:black;stroke-width:1px;stroke-linecap:round;stroke-miterlimit:1.5;"/>
                </g>
                <g transform="matrix(1,0,0,1,-1301.93,426.623)">
                    <path d="M1333.62,135.802C1333.27,135.272 1332.76,134.753 1332.15,134.254C1331.72,133.793 1331.7,133.078 1332.11,132.595C1332.52,132.113 1333.23,132.018 1333.76,132.376C1335.01,133.075 1336.17,133.903 1337.11,134.9C1335.3,135.329 1334.92,135.409 1333.62,135.802Z" style="fill:rgb(237,237,237);"/>
                </g>
                <g transform="matrix(1,0,0,1,-1301.93,426.623)">
                    <path d="M1355.71,174.518C1355.12,174.523 1354.55,174.286 1354.13,173.862C1353.72,173.438 1353.5,172.864 1353.52,172.272C1354.02,165.406 1351.8,162.364 1351.8,162.364C1351.8,162.364 1345.14,158.106 1341.36,154.54C1338.41,151.758 1336.65,147.848 1336.65,147.848L1340.23,137.58C1340.23,137.58 1358.97,140.15 1374.16,140.061C1377.4,139.849 1380.59,140.944 1383.02,143.102C1385.45,145.261 1386.92,148.303 1387.09,151.548C1387.14,151.548 1387.14,151.55 1387.14,151.552C1387.42,156.857 1387.68,163.703 1387.03,171.92C1386.9,173.467 1385.61,174.657 1384.06,174.648C1383.18,174.642 1382.51,174.633 1382.51,174.633C1382.51,174.633 1382.96,173.414 1383.27,171.633C1383.67,169.305 1382.94,166.924 1381.3,165.223C1380.93,164.806 1380.57,164.382 1380.24,163.959C1377.71,160.92 1373.82,159.38 1369.9,159.876C1369.15,159.979 1368.36,160.066 1367.54,160.132C1361.99,160.468 1357.62,164.991 1357.48,170.545C1357.3,171.29 1357.3,172.078 1357.3,172.907C1357.31,173.788 1356.6,174.507 1355.72,174.516C1355.71,174.518 1355.71,174.518 1355.71,174.518Z" style="fill:rgb(199,120,69);stroke:black;stroke-width:1px;stroke-linecap:round;stroke-miterlimit:1.5;"/>
                </g>
                <g transform="matrix(1,0,0,1,-1301.93,426.623)">
                    <path d="M1336.71,147.681C1336.71,147.681 1327.26,148.286 1325.06,147.815C1323.98,147.582 1323.13,145.737 1323.52,144.857C1324.32,143.087 1329.62,138.944 1332.23,136.478C1334.1,135.358 1337.07,134.9 1337.07,134.9C1337.07,134.9 1337.07,134.895 1337.07,134.885C1337.37,133.969 1338.3,133.414 1339.24,133.591C1340.19,133.768 1340.85,134.622 1340.8,135.583C1340.73,136.303 1340.65,137.039 1340.41,137.745C1339.2,140.411 1336.71,147.681 1336.71,147.681Z" style="fill:rgb(199,120,69);stroke:black;stroke-width:1px;stroke-linecap:round;stroke-miterlimit:1.5;"/>
                </g>
                <g transform="matrix(1,0,0,1,-1541.6,485.813)">
                    <path d="M1577.88,82.852C1572.2,88.358 1564.7,88.104 1564.7,88.104C1564.7,88.104 1571.74,89.019 1576.07,88.068C1577.12,84.511 1577.41,84.717 1577.88,82.852Z" style="fill-opacity:0.25;"/>
                </g>
                <g transform="matrix(1.08386,0,0,0.980455,-1417.8,430.948)">
                    <path d="M1385.14,139.719C1385.14,139.719 1390.67,139.786 1391.04,148.34C1390.87,153.169 1389.8,156.811 1390.4,159.084C1390.83,160.677 1392.62,161.879 1392.51,162.376C1391.73,163.867 1390.12,162.904 1389.72,162.061C1388.04,158.904 1388.38,153.72 1388.59,149.878C1388.73,147.436 1388.94,145.626 1387.57,144.277C1386.92,143.64 1386.12,144.285 1386.12,144.285L1385.14,139.719Z" style="fill:rgb(199,120,69);stroke:black;stroke-width:1px;stroke-linecap:round;stroke-miterlimit:1.5;"/>
                </g>
                <g transform="matrix(1,0,0,1,-1302.85,426.496)">
                    <circle cx="1334.12" cy="140.017" r="1.261"/>
                </g>
                <g transform="matrix(1,0,0,1,-1301.93,426.623)">
                    <path d="M1364.45,140.339C1361.44,141.629 1358.95,145.035 1359.88,149.051C1360.82,153.067 1366.27,155.654 1368.31,152.838C1370.35,150.022 1370.14,145.161 1374.2,146.584C1378.07,147.946 1379.33,148.552 1381.12,145.977C1382.9,143.403 1381.91,140.998 1380.12,140.392C1375.38,140.778 1368.68,140.477 1364.45,140.339Z" style="fill:rgb(230,226,224);"/>
                </g>
                <g transform="matrix(-0.818258,-0.574851,0.574851,-0.818258,1084.22,1485.99)">
                    <path d="M1365.83,139.835C1362.81,141.125 1364.72,142.295 1364.41,143.883C1364.1,145.471 1358.06,148.474 1363.85,150.371C1369.63,152.268 1366.57,147.132 1369.64,146.291C1374.4,146.364 1374.79,150.969 1376.77,147.86C1378.76,144.751 1382.18,146.706 1380.09,141.795C1376.11,140.035 1370.73,139.442 1365.83,139.835Z" style="fill:rgb(230,226,224);"/>
                </g>
            </g>
        </g>
    </g>
</svg>
