<?xml version="1.0" encoding="UTF-8" standalone="no"?>
<!DOCTYPE svg PUBLIC "-//W3C//DTD SVG 1.1//EN" "http://www.w3.org/Graphics/SVG/1.1/DTD/svg11.dtd">
<svg width="100%" height="100%" viewBox="0 0 101 101" version="1.1" xmlns="http://www.w3.org/2000/svg" xmlns:xlink="http://www.w3.org/1999/xlink" xml:space="preserve" xmlns:serif="http://www.serif.com/" style="fill-rule:evenodd;clip-rule:evenodd;stroke-linecap:round;stroke-linejoin:round;stroke-miterlimit:1.5;">
    <g transform="matrix(1,0,0,1,-376.947,-568.457)">
        <g id="hex_corral" transform="matrix(1,0,0,1,-2974.79,-59.5429)">
            <rect x="3351.73" y="628" width="100.045" height="100.045" style="fill:none;"/>
            <g transform="matrix(0.83816,0,0,0.726014,3180.68,155.857)">
                <path d="M263.496,669.623L263.496,690.287" style="fill:none;stroke:rgb(155,98,41);stroke-width:2.57px;"/>
            </g>
            <g transform="matrix(0.83816,0,0,0.726014,3207.08,166.232)">
                <path d="M263.496,669.623L263.496,690.287" style="fill:none;stroke:rgb(155,98,41);stroke-width:2.57px;"/>
            </g>
            <g transform="matrix(0.83816,0,0,0.726014,3195.82,209.67)">
                <path d="M263.496,669.623L263.496,690.287" style="fill:none;stroke:rgb(155,98,41);stroke-width:2.57px;"/>
            </g>
            <g transform="matrix(0.83816,0,0,0.726014,3166.24,209.609)">
                <path d="M263.496,669.623L263.496,690.287" style="fill:none;stroke:rgb(155,98,41);stroke-width:2.57px;"/>
            </g>
            <g transform="matrix(0.454749,0.704071,-0.704071,0.454749,3750.01,135.779)">
                <path d="M284.075,678.623L278.643,712.122" style="fill:none;stroke:rgb(66,34,8);stroke-width:2px;"/>
            </g>
            <g transform="matrix(0.454749,0.704071,-0.704071,0.454749,3750.01,135.779)">
                <path d="M284.075,678.623L289.872,718.839" style="fill:none;stroke:rgb(66,34,8);stroke-width:2px;"/>
            </g>
            <g transform="matrix(0.454749,0.704071,-0.704071,0.454749,3750.01,135.779)">
                <path d="M296.464,686.6L278.643,712.122" style="fill:none;stroke:rgb(66,34,8);stroke-width:2px;"/>
            </g>
            <g transform="matrix(0.454749,0.704071,-0.704071,0.454749,3776.18,140.791)">
                <path d="M301.679,689.528L274.884,709.284" style="fill:none;stroke:rgb(66,34,8);stroke-width:2px;"/>
            </g>
            <g transform="matrix(0.454749,0.704071,-0.704071,0.454749,3776.18,140.791)">
                <path d="M301.679,689.528L262.418,701.594" style="fill:none;stroke:rgb(66,34,8);stroke-width:2px;"/>
            </g>
            <g transform="matrix(0.454749,0.704071,-0.704071,0.454749,3792.36,156.299)">
                <path d="M275.762,695.642L304.878,705.212" style="fill:none;stroke:rgb(66,34,8);stroke-width:2px;"/>
            </g>
            <g transform="matrix(0.454749,0.704071,-0.704071,0.454749,3762.61,194.75)">
                <path d="M292.847,680.249L262.81,703.388" style="fill:none;stroke:rgb(66,34,8);stroke-width:2px;"/>
            </g>
            <g transform="matrix(0.454749,0.704071,-0.704071,0.454749,3762.61,194.75)">
                <path d="M292.847,680.249L273.545,710.081" style="fill:none;stroke:rgb(66,34,8);stroke-width:2px;"/>
            </g>
            <g transform="matrix(0.454749,0.704071,-0.704071,0.454749,3762.61,194.75)">
                <path d="M280.926,672.915L262.81,703.388" style="fill:none;stroke:rgb(66,34,8);stroke-width:2px;"/>
            </g>
            <g transform="matrix(0.454749,0.704071,-0.704071,0.454749,3751.96,137.622)">
                <path d="M293.427,687.252L286.791,720.264" style="fill:none;stroke:rgb(66,34,8);stroke-width:2px;"/>
            </g>
            <g transform="matrix(0.83816,0,0,0.726014,3154.53,166.478)">
                <path d="M263.496,669.623L263.496,690.287" style="fill:none;stroke:rgb(155,98,41);stroke-width:2.57px;"/>
            </g>
            <g transform="matrix(0.454749,0.704071,-0.704071,0.454749,3725.32,156.704)">
                <path d="M284.881,681.041L304.568,703.351" style="fill:none;stroke:rgb(66,34,8);stroke-width:2px;"/>
            </g>
            <g transform="matrix(0.454749,0.704071,-0.704071,0.454749,3778.13,142.634)">
                <path d="M287.294,682.949L259.25,702.134" style="fill:none;stroke:rgb(66,34,8);stroke-width:2px;"/>
            </g>
            <g transform="matrix(0.454749,0.704071,-0.704071,0.454749,3778.13,142.634)">
                <path d="M287.294,682.949L271.485,710.195" style="fill:none;stroke:rgb(66,34,8);stroke-width:2px;"/>
            </g>
            <g transform="matrix(0.454749,0.704071,-0.704071,0.454749,3794.31,158.142)">
                <path d="M261.313,689.187L289.981,698.305" style="fill:none;stroke:rgb(66,34,8);stroke-width:2px;"/>
            </g>
            <g transform="matrix(0.83816,0,0,0.726014,3213.56,190.724)">
                <path d="M263.496,669.623L263.496,690.287" style="fill:none;stroke:rgb(155,98,41);stroke-width:2.57px;"/>
            </g>
            <g transform="matrix(0.454749,0.704071,-0.704071,0.454749,3795.36,188.317)">
                <path d="M258.919,679.845L278.11,717.233" style="fill:none;stroke:rgb(66,34,8);stroke-width:2px;"/>
            </g>
            <g transform="matrix(0.454749,0.704071,-0.704071,0.454749,3727.27,158.546)">
                <path d="M270.546,674.65L289.559,696.245" style="fill:none;stroke:rgb(66,34,8);stroke-width:2px;"/>
            </g>
            <g transform="matrix(0.454749,0.704071,-0.704071,0.454749,3797.31,190.16)">
                <path d="M267.492,687.999L263.245,710.558" style="fill:none;stroke:rgb(66,34,8);stroke-width:2px;"/>
            </g>
            <g transform="matrix(0.454749,0.704071,-0.704071,0.454749,3797.31,190.16)">
                <path d="M255.718,680.534L263.245,710.558" style="fill:none;stroke:rgb(66,34,8);stroke-width:2px;"/>
            </g>
            <g transform="matrix(0.454749,0.704071,-0.704071,0.454749,3797.31,190.16)">
                <path d="M267.492,687.999L274.892,717.878" style="fill:none;stroke:rgb(66,34,8);stroke-width:2px;"/>
            </g>
            <g transform="matrix(0.454749,0.704071,-0.704071,0.454749,3764.56,196.592)">
                <path d="M277.956,673.542L270.404,710.826" style="fill:none;stroke:rgb(66,34,8);stroke-width:2px;"/>
            </g>
            <g transform="matrix(0.83816,0,0,0.726014,3147.93,190.519)">
                <path d="M263.496,669.623L263.496,690.287" style="fill:none;stroke:rgb(155,98,41);stroke-width:2.57px;"/>
            </g>
            <g transform="matrix(0.83816,0,0,0.83816,3143.08,114.868)">
                <path d="M269.103,687.155L290.868,697.782" style="fill:none;stroke:rgb(66,34,8);stroke-width:2px;"/>
            </g>
            <g transform="matrix(0.83816,0,0,0.83816,3143.08,114.868)">
                <path d="M269.111,673.51L291.083,710.406" style="fill:none;stroke:rgb(66,34,8);stroke-width:2px;"/>
            </g>
            <g transform="matrix(0.83816,0,0,0.83816,3143.08,114.868)">
                <path d="M269.081,687.192L291.083,710.406" style="fill:none;stroke:rgb(66,34,8);stroke-width:2px;"/>
            </g>
            <g transform="matrix(0.83816,0,0,0.83816,3143.08,114.868)">
                <path d="M269.111,673.51L291.227,697.863" style="fill:none;stroke:rgb(66,34,8);stroke-width:2px;"/>
            </g>
        </g>
    </g>
</svg>
