<?xml version="1.0" encoding="UTF-8" standalone="no"?>
<!DOCTYPE svg PUBLIC "-//W3C//DTD SVG 1.1//EN" "http://www.w3.org/Graphics/SVG/1.1/DTD/svg11.dtd">
<svg width="100%" height="100%" viewBox="0 0 101 101" version="1.1" xmlns="http://www.w3.org/2000/svg" xmlns:xlink="http://www.w3.org/1999/xlink" xml:space="preserve" xmlns:serif="http://www.serif.com/" style="fill-rule:evenodd;clip-rule:evenodd;stroke-linecap:round;stroke-linejoin:round;stroke-miterlimit:1.5;">
    <g transform="matrix(1,0,0,1,-126.337,-707.906)">
        <g id="hex_observatory" transform="matrix(1,0,0,1,-3592.64,-43.0154)">
            <rect x="3718.97" y="750.921" width="100.011" height="100.011" style="fill:none;"/>
            <g transform="matrix(0.0668051,0,0,0.0792407,3750.21,775.404)">
                <g transform="matrix(4.40846,-3.16859,4.91415,4.90868,-6530.02,-1476.02)">
                    <rect x="669.254" y="778.785" width="44.606" height="7.052" style="fill:rgb(247,225,222);stroke:black;stroke-width:2.5px;"/>
                </g>
                <g transform="matrix(4.57829,-3.29066,4.91415,4.90868,-6483.6,-1309.21)">
                    <rect x="701.95" y="750.442" width="8.116" height="16.149" style="fill:rgb(247,225,222);stroke:black;stroke-width:2.5px;"/>
                </g>
                <g transform="matrix(6.69234,0,0,5.7023,-4221.58,-4230.58)">
                    <path d="M698.799,798.488C698.799,796.014 696.77,794.005 694.27,794.005L644.264,794.005C641.764,794.005 639.734,796.014 639.734,798.488L639.734,819.326C639.734,821.8 641.764,823.808 644.264,823.808L694.27,823.808C696.77,823.808 698.799,821.8 698.799,819.326L698.799,798.488Z" style="fill:rgb(241,203,198);stroke:black;stroke-width:2.65px;"/>
                </g>
                <g transform="matrix(7.78165,0,0,1.46984,-4950.62,-913.41)">
                    <path d="M698.799,798.488C698.799,796.014 698.349,794.005 697.795,794.005L640.738,794.005C640.184,794.005 639.734,796.014 639.734,798.488L639.734,819.326C639.734,821.8 640.184,823.808 640.738,823.808L697.795,823.808C698.349,823.808 698.799,821.8 698.799,819.326L698.799,798.488Z" style="fill:rgb(247,225,222);stroke:black;stroke-width:2.82px;"/>
                </g>
                <g transform="matrix(9.68386,0,0,8.20534,-6217.37,-6232.79)">
                    <path d="M689.037,790.586C688.932,779.349 679.793,770.296 668.556,770.296C657.319,770.296 648.18,779.349 648.074,790.586L689.037,790.586Z" style="fill:rgb(247,225,222);stroke:black;stroke-width:1.57px;"/>
                </g>
                <g transform="matrix(7.5967,0,0,6.43684,-4799.3,-4809.77)">
                    <path d="M644.963,783.049C645.475,780.607 646.411,778.058 647.867,775.744" style="fill:none;stroke:white;stroke-opacity:0.76;stroke-width:2.5px;"/>
                </g>
                <g transform="matrix(7.5967,0,0,6.43684,-4799.3,-4809.77)">
                    <path d="M651.808,770.896C655.494,767.727 659.689,766.038 664.266,765.327" style="fill:none;stroke:white;stroke-opacity:0.76;stroke-width:2.5px;"/>
                </g>
                <g transform="matrix(5.89498,0,0,5.99777,-3648.66,-4467.38)">
                    <path d="M686.184,812.045C686.184,810.965 685.666,809.93 684.745,809.166C683.823,808.403 682.574,807.974 681.271,807.974C680.578,807.974 679.865,807.974 679.172,807.974C677.869,807.974 676.619,808.403 675.698,809.166C674.777,809.93 674.259,810.965 674.259,812.045C674.259,816.383 674.259,822.634 674.259,822.634L686.184,822.634L686.184,812.045Z" style="fill:rgb(225,225,225);stroke:rgb(2,1,0);stroke-width:2.43px;"/>
                </g>
                <g transform="matrix(7.5967,0,0,6.43684,-4828.96,-4830.75)">
                    <path d="M671.792,810.763C671.792,810.021 671.186,809.418 670.44,809.418L651.219,809.418C650.473,809.418 649.867,810.021 649.867,810.763L649.867,813.452C649.867,814.194 650.473,814.797 651.219,814.797L670.44,814.797C671.186,814.797 671.792,814.194 671.792,813.452L671.792,810.763Z" style="fill:rgb(218,217,255);stroke:rgb(2,1,0);stroke-width:2.09px;"/>
                </g>
            </g>
        </g>
    </g>
</svg>
