<?xml version="1.0" encoding="UTF-8" standalone="no"?>
<!DOCTYPE svg PUBLIC "-//W3C//DTD SVG 1.1//EN" "http://www.w3.org/Graphics/SVG/1.1/DTD/svg11.dtd">
<svg width="100%" height="100%" viewBox="0 0 101 101" version="1.1" xmlns="http://www.w3.org/2000/svg" xmlns:xlink="http://www.w3.org/1999/xlink" xml:space="preserve" xmlns:serif="http://www.serif.com/" style="fill-rule:evenodd;clip-rule:evenodd;stroke-linejoin:round;stroke-miterlimit:2;">
    <g transform="matrix(1,0,0,1,-377,-706)">
        <g id="hex_oilwell" transform="matrix(1,0,0,1,-3340.63,-166.082)">
            <rect x="3718" y="872.92" width="100.011" height="100.011" style="fill:none;"/>
            <g transform="matrix(0.113547,-1.39055e-17,1.39055e-17,0.113547,3738.94,893.858)">
                <g transform="matrix(1,4.93038e-32,-4.93038e-32,1,4.43685e-31,8.42283)">
                    <path d="M38.275,408.018C35.682,408.018 33.196,409.048 31.363,410.881C29.53,412.714 28.5,415.2 28.5,417.793C28.5,429.398 28.5,448.638 28.5,460.243C28.5,462.836 29.53,465.322 31.363,467.155C33.196,468.988 35.682,470.018 38.275,470.018C56.323,470.018 94.677,470.018 112.725,470.018C115.318,470.018 117.804,468.988 119.637,467.155C121.47,465.322 122.5,462.836 122.5,460.243C122.5,448.638 122.5,429.398 122.5,417.793C122.5,415.2 121.47,412.714 119.637,410.881C117.804,409.048 115.318,408.018 112.725,408.018C94.677,408.018 56.323,408.018 38.275,408.018Z" style="fill:rgb(226,142,6);"/>
                </g>
                <g transform="matrix(1.46337,2.02972e-31,-2.02972e-31,1.46337,-304.244,97.3183)">
                    <path d="M259.5,141.089C246.69,141.089 236.5,151.279 236.5,164.089C236.5,176.898 246.69,187.089 259.5,187.089C272.31,187.089 282.5,176.898 282.5,164.089C282.5,151.279 272.31,141.089 259.5,141.089Z" style="fill:rgb(75,75,75);"/>
                </g>
                <g transform="matrix(1,2.46519e-32,-2.46519e-32,1,0,26.4208)">
                    <path d="M96.621,336.299C92.026,340.15 86.381,342.78 80.201,343.676L92.66,390.02L112.464,390.02L96.621,336.299Z" style="fill:rgb(15,15,15);"/>
                </g>
                <g transform="matrix(1,2.46519e-32,-2.46519e-32,1,0,26.4208)">
                    <path d="M54.389,336.307L38.536,390.02L58.344,390.02L70.813,343.678C64.632,342.785 58.985,340.157 54.389,336.307Z" style="fill:rgb(15,15,15);"/>
                </g>
                <g transform="matrix(1,4.93038e-32,-4.93038e-32,1,1.15389e-30,-20.3863)">
                    <path d="M394.5,180.013L394.5,504.509L412.5,504.509L412.5,195.063L405.418,205.503L398.965,190.284C397.505,186.848 396.016,183.424 394.5,180.013Z" style="fill:rgb(69,69,69);"/>
                </g>
                <g transform="matrix(1,7.39557e-32,-7.39557e-32,1,0,-20.3863)">
                    <path d="M385.457,442.018C384.143,442.018 382.882,442.54 381.952,443.47C381.022,444.4 380.5,445.661 380.5,446.975C380.5,452.072 380.5,459.964 380.5,465.061C380.5,466.375 381.022,467.636 381.952,468.566C382.882,469.496 384.143,470.018 385.457,470.018C394.301,470.018 412.699,470.018 421.543,470.018C422.857,470.018 424.118,469.496 425.048,468.566C425.978,467.636 426.5,466.375 426.5,465.061C426.5,459.964 426.5,452.072 426.5,446.975C426.5,445.661 425.978,444.4 425.048,443.47C424.118,442.54 422.857,442.018 421.543,442.018C412.699,442.018 394.301,442.018 385.457,442.018Z" style="fill:rgb(43,43,43);"/>
                </g>
                <g transform="matrix(1,7.39557e-32,-7.39557e-32,1,0,-20.3863)">
                    <path d="M385.457,408.018C384.143,408.018 382.882,408.54 381.952,409.47C381.022,410.4 380.5,411.661 380.5,412.976C380.5,414.911 380.5,417.125 380.5,419.06C380.5,420.375 381.022,421.636 381.952,422.566C382.882,423.496 384.143,424.018 385.457,424.018C394.301,424.018 412.699,424.018 421.543,424.018C422.857,424.018 424.118,423.496 425.048,422.566C425.978,421.636 426.5,420.375 426.5,419.06C426.5,417.125 426.5,414.911 426.5,412.976C426.5,411.661 425.978,410.4 425.048,409.47C424.118,408.54 422.857,408.018 421.543,408.018C412.699,408.018 394.301,408.018 385.457,408.018Z" style="fill:rgb(43,43,43);"/>
                </g>
                <g transform="matrix(1,2.46519e-32,-2.46519e-32,1,0,26.4208)">
                    <path d="M75.5,296.02C67.11,296.02 60.5,302.629 60.5,311.02C60.5,319.41 67.11,326.02 75.5,326.02C83.89,326.02 90.5,319.41 90.5,311.02C90.5,302.629 83.89,296.02 75.5,296.02Z" style="fill:rgb(226,142,6);"/>
                </g>
                <g transform="matrix(8.80694,1.07854e-15,-1.07854e-15,8.80694,-32928.6,-7864.05)">
                    <path d="M3773.21,913.439L3771.42,914.829L3771.85,916.875L3770.2,915.773L3768.49,917.092C3768.49,917.092 3769.61,917.838 3770.54,918.458C3770.79,918.624 3770.93,918.911 3770.9,919.209C3770.88,919.507 3770.7,919.769 3770.43,919.894C3768.97,920.562 3766.67,921.625 3765.16,922.319C3764.88,922.449 3764.54,922.409 3764.3,922.214C3764.06,922.02 3763.94,921.704 3764.01,921.399C3764.12,920.866 3764.22,920.405 3764.22,920.405L3761.72,922.337L3758.95,935.472L3758.9,935.494L3758.93,935.563C3758.93,935.563 3757.36,943.062 3756.84,945.53C3756.74,945.983 3756.34,946.307 3755.88,946.307C3755.88,946.307 3755.87,946.307 3755.87,946.307C3755.61,946.307 3755.36,946.41 3755.18,946.593C3754.99,946.777 3754.89,947.026 3754.89,947.285C3754.89,947.314 3754.89,947.343 3754.89,947.372C3754.89,947.631 3754.99,947.88 3755.18,948.064C3755.36,948.247 3755.61,948.351 3755.87,948.351C3759.88,948.351 3775.03,948.351 3779.09,948.351C3779.36,948.351 3779.61,948.244 3779.8,948.055C3779.99,947.866 3780.1,947.61 3780.1,947.342C3780.1,946.906 3780.1,946.449 3780.1,946.248C3780.1,946.178 3780.09,946.109 3780.08,946.041C3779.66,944.039 3773.21,913.439 3773.21,913.439ZM3776.1,941.652C3776.33,941.571 3776.58,941.591 3776.78,941.707C3776.99,941.823 3777.14,942.024 3777.19,942.258C3777.38,943.127 3777.65,944.422 3777.83,945.311C3777.89,945.555 3777.82,945.808 3777.67,946.001C3777.51,946.194 3777.28,946.307 3777.03,946.307C3775.19,946.307 3771.19,946.307 3767.99,946.307C3767.59,946.307 3767.24,946.019 3767.18,945.624C3767.11,945.23 3767.33,944.843 3767.7,944.706C3770.7,943.615 3774.43,942.262 3776.1,941.652ZM3760.56,937.776C3760.6,937.556 3760.74,937.365 3760.93,937.246C3761.12,937.127 3761.35,937.091 3761.57,937.145C3763.49,937.625 3768.33,938.833 3771.37,939.591C3771.73,939.678 3771.98,939.986 3772,940.348C3772.02,940.711 3771.8,941.043 3771.46,941.167C3768.24,942.335 3762.82,944.308 3760.28,945.232C3759.99,945.335 3759.68,945.277 3759.45,945.08C3759.23,944.884 3759.12,944.58 3759.19,944.287C3759.58,942.429 3760.24,939.274 3760.56,937.776ZM3773.82,931.1C3774.05,930.999 3774.31,931.006 3774.53,931.12C3774.76,931.233 3774.91,931.441 3774.97,931.684C3775.27,933.142 3775.84,935.854 3776.18,937.461C3776.24,937.739 3776.15,938.028 3775.95,938.225C3775.74,938.423 3775.45,938.501 3775.17,938.432C3773.05,937.901 3768.75,936.829 3766.07,936.161C3765.73,936.076 3765.48,935.783 3765.45,935.432C3765.42,935.081 3765.61,934.75 3765.93,934.607C3768.34,933.537 3772.09,931.869 3773.82,931.1ZM3762.84,926.949C3762.89,926.719 3763.03,926.52 3763.23,926.403C3763.44,926.286 3763.68,926.262 3763.91,926.336C3765.45,926.848 3768.69,927.923 3770.82,928.628C3771.14,928.736 3771.37,929.031 3771.38,929.371C3771.4,929.712 3771.2,930.027 3770.89,930.166C3768.59,931.189 3764.81,932.87 3762.73,933.792C3762.45,933.918 3762.12,933.874 3761.88,933.679C3761.64,933.485 3761.53,933.171 3761.59,932.868C3761.96,931.12 3762.54,928.364 3762.84,926.949ZM3771.79,921.513C3772.02,921.408 3772.28,921.413 3772.51,921.526C3772.73,921.638 3772.89,921.847 3772.95,922.093C3773.18,923.185 3773.54,924.932 3773.8,926.158C3773.86,926.447 3773.76,926.746 3773.54,926.943C3773.32,927.14 3773.01,927.204 3772.74,927.111C3771.24,926.614 3768.82,925.811 3767.11,925.244C3766.78,925.138 3766.56,924.845 3766.54,924.507C3766.52,924.168 3766.71,923.853 3767.02,923.711C3768.54,923.011 3770.61,922.059 3771.79,921.513Z" style="fill:rgb(157,157,157);"/>
                </g>
                <g transform="matrix(1,2.46519e-32,-2.46519e-32,1,0,26.4208)">
                    <path d="M220.158,175.565L87.49,280.304C99.328,284.974 107.896,296.317 108.465,309.61L244.5,202.214C232.824,197.579 223.734,187.722 220.158,175.565Z"/>
                </g>
                <g transform="matrix(1.83335,1.35587e-31,-1.35587e-31,1.83335,-216.254,-110.322)">
                    <path d="M259.5,141.089C246.69,141.089 236.5,151.279 236.5,164.089C236.5,176.898 246.69,187.089 259.5,187.089C272.31,187.089 282.5,176.898 282.5,164.089C282.5,151.279 272.31,141.089 259.5,141.089Z" style="fill:rgb(75,75,75);"/>
                </g>
                <g transform="matrix(1,2.46519e-32,-2.46519e-32,1,0,26.4208)">
                    <path d="M259.5,141.089C246.69,141.089 236.5,151.279 236.5,164.089C236.5,176.898 246.69,187.089 259.5,187.089C272.31,187.089 282.5,176.898 282.5,164.089C282.5,151.279 272.31,141.089 259.5,141.089Z" style="fill:rgb(226,142,6);"/>
                </g>
                <g transform="matrix(1.08708,5.14505e-32,-5.14505e-32,1.08708,-32.1149,18.0432)">
                    <path d="M333.694,26.715C329.145,25.082 324.069,26.779 321.416,30.819C319.851,33.199 318.095,35.873 316.524,38.267C313.999,42.119 315.01,47.284 318.802,49.9C351.052,72.499 377.136,103.083 402.55,155.127C403.885,157.825 406.552,159.611 409.556,159.817C412.559,160.023 415.446,158.617 417.136,156.126C419.454,152.748 421.762,149.346 423.39,146.947C424.819,144.841 425.227,142.204 424.501,139.765C419.663,123.518 414.463,106.621 409.646,92.27C404.049,75.588 398.108,61.404 396.541,59.076C395.221,57.116 385.793,49.624 372.011,42.736C361.544,37.505 348.39,32.001 333.694,26.715Z" style="fill:rgb(226,142,6);"/>
                    <path d="M339.178,11.468C339.175,11.467 339.172,11.466 339.169,11.465C327.572,7.302 314.633,11.627 307.871,21.928L302.973,29.385C295.624,40.596 298.566,55.623 309.6,63.236C339.812,84.408 364.106,113.325 387.99,162.236C388.002,162.261 388.014,162.285 388.026,162.309C391.916,170.175 399.693,175.382 408.448,175.982C417.204,176.582 425.618,172.484 430.545,165.222C432.831,161.892 435.157,158.463 436.798,156.044C440.956,149.915 442.143,142.243 440.031,135.144C440.031,135.143 440.03,135.141 440.03,135.14C435.138,118.712 429.877,101.627 425.007,87.115C418.731,68.411 411.74,52.639 409.983,50.028C409.982,50.027 409.981,50.026 409.98,50.025C408.294,47.52 396.866,37.044 379.255,28.243C368.305,22.77 354.552,16.998 339.178,11.468ZM333.694,26.715C329.145,25.082 324.069,26.779 321.416,30.819C319.851,33.199 318.095,35.873 316.524,38.267C313.999,42.119 315.01,47.284 318.802,49.9C351.052,72.499 377.136,103.083 402.55,155.127C403.885,157.825 406.552,159.611 409.556,159.817C412.559,160.023 415.446,158.617 417.136,156.126C419.454,152.748 421.762,149.346 423.39,146.947C424.819,144.841 425.227,142.204 424.501,139.765C419.663,123.518 414.463,106.621 409.646,92.27C404.049,75.588 398.108,61.404 396.541,59.076C395.221,57.116 385.793,49.624 372.011,42.736C361.544,37.505 348.39,32.001 333.694,26.715Z"/>
                </g>
                <g transform="matrix(1,2.46519e-32,-2.46519e-32,1,0,26.4208)">
                    <path d="M334.23,85.511L279.77,128.505C290.531,134.68 298.27,145.587 300.084,158.333L357.584,112.937C350.062,102.448 342.346,93.452 334.23,85.511Z" style="fill:rgb(15,15,15);"/>
                </g>
            </g>
        </g>
    </g>
</svg>
