<?xml version="1.0" encoding="UTF-8" standalone="no"?>
<!DOCTYPE svg PUBLIC "-//W3C//DTD SVG 1.1//EN" "http://www.w3.org/Graphics/SVG/1.1/DTD/svg11.dtd">
<svg width="100%" height="100%" viewBox="0 0 101 101" version="1.1" xmlns="http://www.w3.org/2000/svg" xmlns:xlink="http://www.w3.org/1999/xlink" xml:space="preserve" xmlns:serif="http://www.serif.com/" style="fill-rule:evenodd;clip-rule:evenodd;stroke-linecap:round;stroke-linejoin:round;stroke-miterlimit:1.5;">
    <g transform="matrix(1,0,0,1,-250,-705)">
        <g id="hex_offshoreoil" transform="matrix(1,0,0,1,-3343.02,-166.519)">
            <rect x="3593.67" y="872" width="100" height="100" style="fill:none;"/>
            <g transform="matrix(0.128279,0,0,0.128279,3610.83,888.543)">
                <g transform="matrix(1,0,0,1,0,-15.5911)">
                    <path d="M198.102,443.854L180.102,447.214L180.102,329L198.102,329L198.102,443.854Z" style="fill:rgb(15,15,15);"/>
                </g>
                <g transform="matrix(7.79553,0,0,7.79553,-3986.7,-6879.89)">
                    <path d="M524.507,934.846C524.507,933.82 524.174,932.822 523.558,932.001C521.461,929.205 516.617,922.747 516.617,922.747L519.504,922.747C519.504,922.747 521.592,925.531 523.07,927.502C523.276,927.777 523.635,927.889 523.961,927.78C524.287,927.672 524.507,927.367 524.507,927.023L524.507,922.749C524.507,922.747 528.355,922.747 528.355,922.747L528.355,938.134L524.507,937.911L524.507,934.846Z" style="fill:rgb(15,15,15);"/>
                </g>
                <g transform="matrix(7.79553,0,0,7.79553,-3986.7,-6879.89)">
                    <path d="M553.241,934.513C553.241,933.703 552.978,932.915 552.492,932.267C550.524,929.642 545.352,922.747 545.352,922.747L548.238,922.747C548.238,922.747 550.482,925.738 551.964,927.714C552.147,927.959 552.466,928.058 552.756,927.962C553.046,927.865 553.241,927.594 553.241,927.289L553.241,922.747L557.089,922.747L557.089,927.289C557.089,927.594 557.285,927.865 557.574,927.962C557.864,928.058 558.183,927.959 558.366,927.714C559.849,925.738 562.092,922.747 562.092,922.747L564.978,922.747C564.978,922.747 559.807,929.642 557.838,932.267C557.352,932.915 557.089,933.703 557.089,934.513C557.089,935.416 557.089,936.643 557.089,937.609C554.918,937.126 553.241,937.058 553.241,937.058L553.241,934.513Z" style="fill:rgb(15,15,15);"/>
                </g>
                <g transform="matrix(7.79553,0,0,7.79553,-3986.7,-6879.89)">
                    <path d="M553.241,918C553.241,918 551.362,914.46 550.427,912.699C550.088,912.06 549.911,911.348 549.911,910.626C549.911,908.815 549.911,905.25 549.911,903.667C549.911,903.458 549.994,903.257 550.142,903.109C550.29,902.961 550.491,902.878 550.7,902.878C550.7,902.878 550.7,902.878 550.701,902.878C551.426,902.878 552.015,902.29 552.015,901.564C552.015,900.023 552.015,897.473 552.015,895.845C552.015,895.439 552.176,895.051 552.462,894.764C552.749,894.478 553.137,894.317 553.543,894.317C555.735,894.317 559.752,894.317 561.945,894.317C562.789,894.317 563.473,895.001 563.473,895.845C563.473,897.443 563.473,899.927 563.473,901.443C563.473,902.171 564.063,902.761 564.791,902.761C565.149,902.761 565.525,902.761 565.843,902.761C566.054,902.761 566.256,902.845 566.404,902.994C566.553,903.142 566.637,903.344 566.637,903.555C566.637,905.197 566.637,908.964 566.637,910.751C566.637,911.394 566.497,912.028 566.226,912.611C565.424,914.34 563.727,918 563.727,918L553.241,918Z" style="fill:rgb(188,188,188);stroke:rgb(157,157,157);stroke-width:1.5px;"/>
                </g>
                <g transform="matrix(1.09474,0,0,0.97807,-30.279,9.24396)">
                    <path d="M48.443,265C42.732,265 38.102,270.182 38.102,276.574C38.102,283.562 38.102,292.438 38.102,299.426C38.102,305.818 42.732,311 48.443,311C104.334,311 369.87,311 425.761,311C431.472,311 436.102,305.818 436.102,299.426C436.102,292.438 436.102,283.562 436.102,276.574C436.102,270.182 431.472,265 425.761,265C369.87,265 104.334,265 48.443,265Z" style="fill:rgb(15,15,15);"/>
                </g>
                <path d="M348.405,233C346.734,233 345.13,233.664 343.948,234.846C342.766,236.028 342.102,237.631 342.102,239.303C342.102,239.766 342.102,240.234 342.102,240.697C342.102,242.369 342.766,243.972 343.948,245.154C345.13,246.336 346.734,247 348.405,247C357.188,247 373.016,247 381.799,247C383.47,247 385.074,246.336 386.256,245.154C387.438,243.972 388.102,242.369 388.102,240.697C388.102,240.234 388.102,239.766 388.102,239.303C388.102,237.631 387.438,236.028 386.256,234.846C385.074,233.664 383.47,233 381.799,233C373.016,233 357.188,233 348.405,233Z" style="fill:rgb(49,49,49);"/>
                <path d="M317.494,169C313.412,169 310.102,172.309 310.102,176.392C310.102,184.97 310.102,199.03 310.102,207.608C310.102,211.691 313.412,215 317.494,215C337.524,215 392.68,215 412.71,215C416.792,215 420.102,211.691 420.102,207.608C420.102,199.03 420.102,184.97 420.102,176.392C420.102,172.309 416.792,169 412.71,169C392.68,169 337.524,169 317.494,169Z" style="fill:rgb(49,49,49);"/>
                <path d="M332.699,105C330.95,105 329.272,105.695 328.034,106.932C326.797,108.17 326.102,109.848 326.102,111.597C326.102,120.337 326.102,135.663 326.102,144.403C326.102,146.152 326.797,147.83 328.034,149.068C329.272,150.305 330.95,151 332.699,151C337.69,151 344.514,151 349.505,151C351.254,151 352.932,150.305 354.17,149.068C355.407,147.83 356.102,146.152 356.102,144.403C356.102,135.663 356.102,120.337 356.102,111.597C356.102,109.848 355.407,108.17 354.17,106.932C352.932,105.695 351.254,105 349.505,105C344.514,105 337.69,105 332.699,105Z" style="fill:rgb(49,49,49);"/>
                <g transform="matrix(7.79553,0,0,7.79553,-28143.1,-6926.66)">
                    <path d="M3659.19,899.703C3658.47,899.703 3657.89,900.283 3657.89,900.999C3657.89,902.536 3657.89,905.081 3657.89,906.617C3657.89,907.333 3658.47,907.913 3659.19,907.913C3659.63,907.913 3660.01,907.913 3660.01,907.913C3660.01,907.913 3664.87,906.29 3667.88,905.287C3668.42,905.107 3669.01,905.197 3669.47,905.529C3669.93,905.861 3670.21,906.394 3670.21,906.962C3670.21,913.537 3670.21,931.325 3670.21,935.057C3670.21,935.439 3670.52,935.75 3670.9,935.75C3671.19,935.75 3671.53,935.75 3671.83,935.75C3672.21,935.75 3672.52,935.439 3672.52,935.057C3672.52,930.679 3672.52,906.847 3672.52,900.999C3672.52,900.655 3672.38,900.326 3672.14,900.083C3671.89,899.84 3671.57,899.703 3671.22,899.703C3668.45,899.703 3661.96,899.703 3659.19,899.703ZM3660.2,903.744C3660.2,903.6 3660.28,903.468 3660.41,903.4C3660.53,903.332 3660.69,903.339 3660.81,903.419C3661.15,903.649 3661.58,903.936 3661.94,904.171C3662.06,904.254 3662.13,904.4 3662.11,904.548C3662.09,904.695 3661.99,904.819 3661.84,904.866C3661.48,904.988 3661.04,905.132 3660.72,905.242C3660.6,905.282 3660.47,905.262 3660.36,905.188C3660.26,905.115 3660.2,904.997 3660.2,904.872C3660.2,904.539 3660.2,904.107 3660.2,903.744ZM3664.15,902.012C3663.98,902.012 3663.83,902.125 3663.78,902.289C3663.73,902.454 3663.79,902.631 3663.93,902.727C3664.43,903.055 3664.95,903.409 3665.22,903.581C3665.32,903.649 3665.44,903.665 3665.56,903.625C3666.15,903.422 3668.01,902.775 3669.19,902.365C3669.28,902.336 3669.33,902.251 3669.31,902.163C3669.3,902.076 3669.22,902.012 3669.13,902.012C3667.81,902.012 3665.56,902.012 3664.15,902.012Z" style="fill:rgb(49,49,49);"/>
                </g>
                <g transform="matrix(7.79553,0,0,7.79553,-28142.6,-6905.25)">
                    <path d="M3633.8,892.648C3633.66,892.648 3633.52,892.705 3633.42,892.806C3633.32,892.908 3633.26,893.045 3633.26,893.188C3633.26,893.597 3633.26,894.169 3633.26,894.653C3633.26,895.175 3632.84,895.598 3632.32,895.598C3631.65,895.598 3630.76,895.598 3630.12,895.598C3629.63,895.598 3629.22,895.973 3629.18,896.461C3628.79,900.853 3627.06,920.534 3627.06,920.534L3630.2,912.018C3630.2,912.018 3630.51,908.321 3630.65,906.616C3630.66,906.437 3630.77,906.28 3630.93,906.201C3631.09,906.122 3631.28,906.132 3631.43,906.229C3632.39,906.839 3634.07,907.915 3635.03,908.529C3635.18,908.626 3635.27,908.796 3635.26,908.977C3635.26,909.157 3635.16,909.32 3635,909.406C3633.68,910.121 3631.06,911.552 3630.37,911.926C3630.26,911.985 3630.18,912.082 3630.13,912.198C3629.68,913.426 3627.06,920.534 3627.06,920.534C3627.06,920.534 3628.54,919.956 3629.19,919.704C3629.37,919.633 3629.49,919.467 3629.51,919.274C3629.59,918.435 3629.79,916.123 3629.9,914.917C3629.92,914.748 3630.01,914.597 3630.16,914.515C3630.31,914.434 3630.49,914.431 3630.64,914.509C3631.65,915.031 3633.57,916.02 3634.74,916.627C3634.92,916.718 3635.03,916.906 3635.02,917.106C3635.01,917.306 3634.88,917.482 3634.7,917.554C3632.38,918.457 3627.06,920.534 3627.06,920.534L3634.26,920.228L3639.16,918.267L3639.32,920.228L3641.64,920.228C3641.64,920.228 3640.02,900.833 3639.66,896.465C3639.62,895.975 3639.21,895.598 3638.72,895.598C3638.07,895.598 3637.18,895.598 3636.52,895.598C3636.27,895.598 3636.03,895.499 3635.85,895.322C3635.67,895.144 3635.57,894.904 3635.57,894.653C3635.57,894.169 3635.57,893.597 3635.57,893.188C3635.57,893.045 3635.52,892.908 3635.41,892.806C3635.31,892.705 3635.18,892.648 3635.03,892.648C3634.66,892.648 3634.17,892.648 3633.8,892.648ZM3637.79,910.507C3637.94,910.424 3638.12,910.423 3638.28,910.504C3638.43,910.586 3638.53,910.739 3638.55,910.911C3638.64,912.037 3638.81,914.105 3638.91,915.3C3638.93,915.485 3638.84,915.663 3638.69,915.766C3638.53,915.869 3638.33,915.88 3638.17,915.795C3637.04,915.212 3635.01,914.167 3633.87,913.577C3633.7,913.49 3633.6,913.319 3633.59,913.131C3633.59,912.943 3633.69,912.768 3633.86,912.677C3634.93,912.083 3636.79,911.06 3637.79,910.507ZM3637.21,903.365C3637.36,903.287 3637.54,903.29 3637.69,903.372C3637.84,903.455 3637.94,903.606 3637.95,903.776C3638.02,904.603 3638.13,905.93 3638.21,906.85C3638.22,907.043 3638.13,907.228 3637.96,907.329C3637.8,907.429 3637.59,907.426 3637.42,907.321C3636.61,906.803 3635.42,906.038 3634.65,905.547C3634.5,905.448 3634.41,905.276 3634.42,905.094C3634.42,904.912 3634.53,904.748 3634.69,904.664C3635.43,904.285 3636.51,903.725 3637.21,903.365ZM3631.13,900.81C3631.15,900.661 3631.22,900.525 3631.35,900.438C3631.47,900.351 3631.62,900.322 3631.76,900.358C3632.48,900.537 3633.71,900.844 3634.66,901.081C3634.86,901.132 3635.01,901.306 3635.04,901.516C3635.06,901.727 3634.95,901.931 3634.76,902.028C3633.82,902.518 3632.52,903.189 3631.68,903.619C3631.52,903.704 3631.32,903.693 3631.17,903.59C3631.01,903.487 3630.93,903.308 3630.94,903.124C3631,902.406 3631.08,901.43 3631.13,900.81ZM3633.11,898.315C3633.01,898.289 3632.94,898.192 3632.96,898.089C3632.97,897.985 3633.06,897.907 3633.16,897.907C3634.46,897.907 3636.18,897.907 3636.99,897.907C3637.26,897.907 3637.48,898.11 3637.5,898.375C3637.51,898.485 3637.52,898.606 3637.53,898.724C3637.54,898.888 3637.48,899.049 3637.35,899.155C3637.23,899.262 3637.06,899.301 3636.9,899.261C3635.98,899.033 3634.35,898.624 3633.11,898.315Z" style="fill:rgb(157,157,157);"/>
                </g>
                <g transform="matrix(1,0,0,1,0.365959,27.0155)">
                    <g transform="matrix(7.79553,0,0,7.79553,-3966.82,-6877.5)">
                        <ellipse cx="531.961" cy="907.41" rx="3.653" ry="6.818" style="fill:rgb(157,157,157);stroke:rgb(51,51,51);stroke-width:1.5px;"/>
                    </g>
                    <g transform="matrix(7.79553,0,0,7.79553,-3986.7,-6879.89)">
                        <path d="M518.532,914.534C518.532,914.534 514.879,913.921 514.879,907.716C514.879,901.511 518.532,900.898 518.532,900.898L534.512,900.898C534.512,900.898 530.859,901.488 530.859,907.716C530.859,913.944 534.512,914.534 534.512,914.534L518.532,914.534Z" style="fill:url(#_Linear1);stroke:rgb(51,51,51);stroke-width:1.5px;"/>
                    </g>
                </g>
                <g transform="matrix(7.79553,0,0,7.79553,-3986.67,-6881.2)">
                    <path d="M518.031,937.394C526.739,939.361 534.517,938.092 544.248,937.252C553.655,936.441 560.207,939.698 568.767,937.722" style="fill:none;stroke:white;stroke-width:1.5px;"/>
                </g>
            </g>
        </g>
    </g>
    <defs>
        <linearGradient id="_Linear1" x1="0" y1="0" x2="1" y2="0" gradientUnits="userSpaceOnUse" gradientTransform="matrix(-1.13699e-13,13.9433,-9.90214,-8.07462e-14,524.695,900.591)"><stop offset="0" style="stop-color:rgb(197,197,197);stop-opacity:1"/><stop offset="1" style="stop-color:rgb(62,62,62);stop-opacity:1"/></linearGradient>
    </defs>
</svg>
