<?xml version="1.0" encoding="UTF-8" standalone="no"?>
<!DOCTYPE svg PUBLIC "-//W3C//DTD SVG 1.1//EN" "http://www.w3.org/Graphics/SVG/1.1/DTD/svg11.dtd">
<svg width="100%" height="100%" viewBox="0 0 100 100" version="1.1" xmlns="http://www.w3.org/2000/svg" xmlns:xlink="http://www.w3.org/1999/xlink" xml:space="preserve" xmlns:serif="http://www.serif.com/" style="fill-rule:evenodd;clip-rule:evenodd;stroke-linejoin:round;stroke-miterlimit:2;">
    <g transform="matrix(1,0,0,1,-1620.47,-151)">
        <g id="Layer3">
        </g>
        <g id="bookmark_icon" transform="matrix(1,0,0,1,-2824.2,20)">
            <rect x="4444.67" y="131" width="100" height="100" style="fill:none;"/>
            <g transform="matrix(0.794536,0,0,0.794536,924.027,43.314)">
                <path d="M4494,191.412L4511.55,208.963C4513.89,211.299 4517.4,211.998 4520.45,210.734C4523.51,209.469 4525.5,206.491 4525.5,203.187L4525.5,138.963C4525.5,134.451 4521.84,130.794 4517.33,130.794L4470.67,130.794C4466.16,130.794 4462.5,134.451 4462.5,138.963L4462.5,203.187C4462.5,206.491 4464.49,209.469 4467.55,210.734C4470.6,211.998 4474.11,211.299 4476.45,208.963L4494,191.412ZM4467.54,138.963C4467.54,137.232 4468.94,135.828 4470.67,135.828C4480.07,135.828 4507.93,135.828 4517.33,135.828C4519.06,135.828 4520.46,137.232 4520.46,138.963C4520.46,149.973 4520.46,187.079 4520.46,203.187C4520.46,204.455 4519.7,205.597 4518.53,206.083C4517.36,206.568 4516.01,206.3 4515.11,205.403C4509.31,199.607 4500.34,190.637 4496.22,186.509C4494.99,185.285 4493.01,185.285 4491.78,186.509C4487.66,190.637 4478.69,199.607 4472.89,205.403C4471.99,206.3 4470.65,206.568 4469.47,206.083C4468.3,205.597 4467.54,204.455 4467.54,203.187C4467.54,187.079 4467.54,149.973 4467.54,138.963Z" style="fill:rgb(214,121,195);"/>
                <path d="M4467.54,138.963C4467.54,137.232 4468.94,135.828 4470.67,135.828C4480.07,135.828 4507.93,135.828 4517.33,135.828C4519.06,135.828 4520.46,137.232 4520.46,138.963C4520.46,149.973 4520.46,187.079 4520.46,203.187C4520.46,204.455 4519.7,205.597 4518.53,206.083C4517.36,206.568 4516.01,206.3 4515.11,205.403C4509.31,199.607 4500.34,190.637 4496.22,186.509C4494.99,185.285 4493.01,185.285 4491.78,186.509C4487.66,190.637 4478.69,199.607 4472.89,205.403C4471.99,206.3 4470.65,206.568 4469.47,206.083C4468.3,205.597 4467.54,204.455 4467.54,203.187C4467.54,187.079 4467.54,149.973 4467.54,138.963Z" style="fill:rgb(190,71,165);"/>
            </g>
        </g>
    </g>
</svg>
