<?xml version="1.0" encoding="UTF-8" standalone="no"?>
<!DOCTYPE svg PUBLIC "-//W3C//DTD SVG 1.1//EN" "http://www.w3.org/Graphics/SVG/1.1/DTD/svg11.dtd">
<svg width="100%" height="100%" viewBox="0 0 101 101" version="1.1" xmlns="http://www.w3.org/2000/svg" xmlns:xlink="http://www.w3.org/1999/xlink" xml:space="preserve" xmlns:serif="http://www.serif.com/" style="fill-rule:evenodd;clip-rule:evenodd;stroke-linejoin:round;stroke-miterlimit:2;">
    <g transform="matrix(1,0,0,1,-3993,-388)">
        <g id="export_icon" transform="matrix(1,0,0,1,0,-0.758191)">
            <rect x="3993" y="388.758" width="100.045" height="100.045" style="fill:none;"/>
            <g transform="matrix(1,0,0,1,3993,388.758)">
                <path d="M48.469,5C47.804,5.088 47.188,5.396 46.719,5.875L26.719,25.875C26.012,26.444 25.601,27.304 25.601,28.211C25.601,29.857 26.955,31.211 28.601,31.211C29.508,31.211 30.368,30.8 30.938,30.094L45.813,15.188L45.813,72C45.812,72.014 45.812,72.028 45.812,72.042C45.812,73.688 47.167,75.043 48.813,75.043C50.458,75.043 51.813,73.688 51.813,72.042C51.813,72.028 51.813,72.014 51.813,72L51.813,15.188L66.719,30.094C67.288,30.8 68.148,31.211 69.055,31.211C70.701,31.211 72.055,29.857 72.055,28.211C72.055,27.304 71.644,26.444 70.938,25.875L50.938,5.875C50.292,5.221 49.382,4.898 48.469,5ZM6.781,68.938C5.147,68.954 3.812,70.303 3.812,71.938C3.812,71.958 3.812,71.979 3.813,72L3.813,79C3.813,87.812 11,95 19.813,95L77.813,95C86.625,95 93.813,87.812 93.813,79L93.813,72C93.813,71.986 93.813,71.972 93.813,71.958C93.813,70.312 92.458,68.957 90.813,68.957C89.167,68.957 87.812,70.312 87.812,71.958C87.812,71.972 87.812,71.986 87.813,72L87.813,79C87.813,84.592 83.404,89 77.813,89L19.813,89C14.221,89 9.813,84.592 9.813,79L9.813,72C9.813,71.979 9.813,71.958 9.813,71.938C9.813,70.292 8.459,68.937 6.813,68.937C6.802,68.937 6.792,68.937 6.781,68.938Z" style="fill:white;fill-rule:nonzero;"/>
                <path d="M6.921,67.716L7.029,67.721L7.136,67.727L7.243,67.737L7.349,67.749L7.454,67.764L7.558,67.782L7.662,67.802L7.765,67.824L7.866,67.849L7.967,67.877L8.067,67.907L8.166,67.939L8.263,67.974L8.359,68.011L8.455,68.05L8.549,68.092L8.642,68.135L8.734,68.181L8.824,68.229L8.912,68.279L9,68.331L9.086,68.385L9.171,68.441L9.255,68.499L9.336,68.559L9.416,68.62L9.495,68.684L9.572,68.749L9.649,68.817L9.722,68.886L9.794,68.956L9.865,69.028L9.934,69.102L10.001,69.178L10.067,69.255L10.13,69.333L10.191,69.413L10.251,69.495L10.31,69.58L10.366,69.665L10.419,69.749L10.472,69.838L10.522,69.927L10.569,70.016L10.615,70.108L10.659,70.201L10.7,70.294L10.74,70.391L10.777,70.488L10.811,70.584L10.844,70.683L10.874,70.785L10.901,70.885L10.926,70.986L10.948,71.087L10.969,71.191L10.987,71.298L11.001,71.402L11.013,71.508L11.023,71.615L11.03,71.721L11.034,71.829L11.035,71.936L11.035,72.006L11.035,78.996L11.035,79.115L11.038,79.231L11.041,79.346L11.046,79.461L11.052,79.575L11.06,79.687L11.069,79.8L11.08,79.913L11.092,80.025L11.105,80.137L11.119,80.248L11.135,80.358L11.152,80.468L11.171,80.578L11.19,80.688L11.211,80.794L11.234,80.902L11.257,81.011L11.282,81.117L11.308,81.222L11.335,81.328L11.364,81.434L11.394,81.539L11.425,81.641L11.457,81.744L11.491,81.848L11.525,81.95L11.561,82.051L11.599,82.152L11.637,82.252L11.676,82.352L11.717,82.452L11.758,82.549L11.801,82.646L11.845,82.743L11.891,82.841L11.937,82.936L11.984,83.03L12.032,83.124L12.082,83.218L12.132,83.31L12.185,83.403L12.238,83.495L12.291,83.586L12.345,83.674L12.402,83.764L12.46,83.854L12.517,83.941L12.576,84.027L12.636,84.113L12.697,84.199L12.759,84.283L12.823,84.367L12.887,84.45L12.952,84.532L13.017,84.613L13.084,84.693L13.152,84.773L13.222,84.852L13.292,84.93L13.362,85.007L13.433,85.083L13.506,85.158L13.58,85.233L13.655,85.306L13.73,85.379L13.805,85.45L13.883,85.521L13.96,85.591L14.039,85.66L14.119,85.728L14.199,85.795L14.28,85.86L14.363,85.926L14.446,85.99L14.529,86.053L14.614,86.115L14.699,86.176L14.785,86.236L14.872,86.296L14.96,86.353L15.049,86.411L15.138,86.467L15.227,86.521L15.318,86.575L15.409,86.628L15.502,86.68L15.594,86.731L15.688,86.78L15.782,86.829L15.877,86.876L15.973,86.922L16.069,86.967L16.166,87.011L16.263,87.054L16.362,87.096L16.46,87.136L16.56,87.176L16.661,87.214L16.761,87.251L16.862,87.287L16.964,87.322L17.067,87.355L17.17,87.387L17.274,87.419L17.379,87.448L17.484,87.477L17.59,87.504L17.696,87.53L17.802,87.555L17.91,87.579L18.018,87.601L18.126,87.622L18.235,87.642L18.344,87.66L18.454,87.678L18.565,87.693L18.676,87.708L18.787,87.721L18.899,87.733L19.012,87.743L19.125,87.752L19.238,87.76L19.352,87.766L19.467,87.771L19.581,87.775L19.697,87.777L19.816,87.778L77.809,87.778L77.928,87.777L78.044,87.775L78.158,87.771L78.273,87.766L78.387,87.76L78.5,87.752L78.613,87.743L78.726,87.733L78.838,87.721L78.949,87.708L79.06,87.693L79.171,87.678L79.281,87.66L79.39,87.642L79.499,87.622L79.607,87.601L79.715,87.579L79.823,87.555L79.929,87.531L80.035,87.504L80.141,87.477L80.246,87.448L80.35,87.419L80.454,87.387L80.558,87.355L80.66,87.322L80.762,87.287L80.864,87.251L80.965,87.214L81.065,87.176L81.165,87.136L81.263,87.096L81.361,87.054L81.459,87.011L81.556,86.967L81.653,86.922L81.748,86.876L81.843,86.829L81.937,86.78L82.031,86.731L82.124,86.68L82.216,86.628L82.307,86.576L82.397,86.522L82.488,86.466L82.577,86.41L82.666,86.353L82.753,86.296L82.84,86.236L82.926,86.176L83.011,86.115L83.096,86.053L83.179,85.99L83.262,85.926L83.344,85.861L83.426,85.794L83.506,85.728L83.585,85.66L83.665,85.591L83.743,85.521L83.819,85.451L83.896,85.379L83.971,85.306L84.045,85.233L84.119,85.158L84.192,85.083L84.263,85.007L84.333,84.93L84.404,84.852L84.472,84.774L84.54,84.694L84.607,84.613L84.673,84.532L84.738,84.45L84.803,84.366L84.866,84.282L84.928,84.199L84.988,84.114L85.048,84.028L85.108,83.94L85.166,83.853L85.223,83.765L85.279,83.675L85.334,83.585L85.388,83.494L85.44,83.403L85.493,83.31L85.543,83.218L85.592,83.126L85.641,83.031L85.688,82.935L85.735,82.84L85.78,82.744L85.824,82.647L85.867,82.548L85.909,82.45L85.949,82.352L85.989,82.252L86.027,82.152L86.063,82.052L86.099,81.95L86.135,81.847L86.168,81.746L86.2,81.643L86.231,81.538L86.261,81.433L86.29,81.328L86.317,81.223L86.343,81.117L86.368,81.01L86.391,80.904L86.414,80.795L86.435,80.686L86.455,80.577L86.473,80.468L86.49,80.358L86.506,80.248L86.52,80.137L86.534,80.025L86.545,79.913L86.556,79.802L86.565,79.687L86.573,79.574L86.579,79.461L86.584,79.346L86.587,79.231L86.59,79.115L86.59,78.996L86.59,72.008L86.59,71.957L86.591,71.849L86.595,71.741L86.602,71.633L86.612,71.528L86.624,71.422L86.639,71.318L86.657,71.211L86.677,71.107L86.699,71.006L86.724,70.905L86.751,70.805L86.782,70.703L86.814,70.604L86.848,70.508L86.886,70.411L86.925,70.314L86.967,70.221L87.01,70.128L87.056,70.036L87.103,69.947L87.154,69.858L87.206,69.769L87.259,69.685L87.315,69.6L87.374,69.515L87.433,69.434L87.495,69.353L87.56,69.274L87.624,69.198L87.691,69.122L87.76,69.048L87.831,68.976L87.903,68.906L87.976,68.837L88.053,68.769L88.13,68.704L88.209,68.64L88.289,68.579L88.37,68.519L88.454,68.461L88.539,68.405L88.625,68.351L88.713,68.299L88.801,68.249L88.891,68.201L88.983,68.155L89.076,68.111L89.17,68.07L89.266,68.031L89.362,67.994L89.46,67.959L89.558,67.927L89.658,67.897L89.759,67.869L89.861,67.844L89.963,67.822L90.067,67.802L90.171,67.784L90.276,67.769L90.383,67.757L90.489,67.747L90.596,67.74L90.704,67.736L90.812,67.735L90.921,67.736L91.029,67.741L91.136,67.747L91.242,67.757L91.349,67.769L91.454,67.784L91.558,67.802L91.662,67.822L91.764,67.844L91.866,67.869L91.967,67.897L92.066,67.927L92.166,67.959L92.263,67.994L92.359,68.031L92.455,68.07L92.549,68.111L92.642,68.155L92.734,68.201L92.824,68.249L92.912,68.299L93,68.351L93.086,68.405L93.171,68.461L93.255,68.519L93.336,68.579L93.416,68.64L93.495,68.704L93.572,68.769L93.649,68.837L93.722,68.906L93.794,68.976L93.865,69.048L93.934,69.122L94.001,69.198L94.065,69.274L94.13,69.353L94.192,69.434L94.251,69.515L94.309,69.598L94.366,69.685L94.42,69.771L94.471,69.858L94.522,69.947L94.569,70.036L94.615,70.128L94.658,70.221L94.7,70.314L94.739,70.411L94.777,70.508L94.811,70.604L94.843,70.703L94.874,70.805L94.901,70.905L94.926,71.006L94.948,71.107L94.968,71.211L94.986,71.318L95.001,71.422L95.013,71.528L95.023,71.633L95.03,71.741L95.034,71.849L95.035,71.953L95.035,72.004L95.035,79.004L95.033,79.222L95.029,79.443L95.022,79.664L95.012,79.883L95,80.103L94.984,80.322L94.966,80.539L94.946,80.756L94.922,80.972L94.896,81.187L94.867,81.403L94.836,81.616L94.802,81.83L94.765,82.042L94.726,82.253L94.684,82.464L94.639,82.673L94.592,82.882L94.542,83.09L94.491,83.296L94.436,83.502L94.379,83.707L94.32,83.91L94.258,84.113L94.193,84.315L94.126,84.516L94.058,84.715L93.986,84.913L93.912,85.11L93.836,85.307L93.758,85.501L93.677,85.695L93.594,85.887L93.509,86.078L93.421,86.269L93.331,86.458L93.239,86.645L93.145,86.831L93.048,87.017L92.95,87.2L92.849,87.382L92.746,87.564L92.641,87.743L92.535,87.921L92.425,88.098L92.314,88.274L92.201,88.447L92.086,88.619L91.969,88.791L91.849,88.961L91.728,89.129L91.605,89.295L91.48,89.46L91.353,89.623L91.224,89.786L91.093,89.946L90.961,90.104L90.826,90.261L90.69,90.417L90.552,90.571L90.412,90.723L90.27,90.873L90.127,91.022L89.981,91.169L89.834,91.314L89.686,91.458L89.535,91.599L89.384,91.739L89.229,91.877L89.074,92.014L88.917,92.148L88.758,92.281L88.598,92.411L88.436,92.541L88.273,92.667L88.107,92.793L87.941,92.916L87.773,93.037L87.604,93.156L87.433,93.273L87.26,93.389L87.086,93.502L86.911,93.613L86.734,93.722L86.555,93.829L86.376,93.934L86.195,94.037L86.013,94.138L85.829,94.236L85.644,94.332L85.458,94.427L85.27,94.518L85.081,94.608L84.891,94.696L84.7,94.781L84.507,94.864L84.314,94.945L84.119,95.024L83.923,95.1L83.725,95.174L83.527,95.245L83.328,95.314L83.127,95.381L82.926,95.445L82.723,95.507L82.519,95.567L82.315,95.624L82.109,95.678L81.902,95.73L81.694,95.78L81.486,95.827L81.276,95.871L81.066,95.913L80.854,95.952L80.642,95.989L80.429,96.023L80.215,96.055L80,96.083L79.785,96.11L79.568,96.133L79.352,96.154L79.134,96.172L78.915,96.187L78.696,96.2L78.476,96.21L78.255,96.217L78.034,96.221L77.816,96.222L19.809,96.222L19.591,96.221L19.369,96.217L19.149,96.21L18.929,96.2L18.71,96.187L18.491,96.172L18.273,96.154L18.056,96.133L17.84,96.11L17.625,96.083L17.41,96.055L17.196,96.023L16.983,95.989L16.771,95.952L16.559,95.913L16.349,95.871L16.139,95.827L15.931,95.78L15.723,95.73L15.516,95.678L15.311,95.624L15.106,95.567L14.902,95.507L14.699,95.445L14.498,95.381L14.297,95.314L14.098,95.245L13.9,95.174L13.702,95.1L13.506,95.024L13.311,94.945L13.118,94.864L12.925,94.781L12.734,94.696L12.544,94.608L12.355,94.519L12.167,94.427L11.981,94.332L11.796,94.236L11.612,94.137L11.43,94.037L11.249,93.934L11.07,93.829L10.891,93.722L10.714,93.613L10.539,93.502L10.365,93.389L10.193,93.273L10.021,93.156L9.852,93.037L9.684,92.916L9.517,92.792L9.352,92.667L9.189,92.541L9.027,92.412L8.867,92.281L8.708,92.148L8.551,92.014L8.396,91.877L8.242,91.739L8.09,91.599L7.939,91.457L7.791,91.314L7.644,91.169L7.499,91.022L7.355,90.873L7.213,90.723L7.073,90.571L6.935,90.417L6.799,90.261L6.664,90.104L6.532,89.946L6.401,89.785L6.272,89.624L6.145,89.46L6.02,89.295L5.897,89.128L5.775,88.96L5.656,88.791L5.539,88.62L5.424,88.448L5.311,88.273L5.199,88.098L5.091,87.921L4.983,87.743L4.879,87.563L4.776,87.383L4.675,87.2L4.576,87.016L4.48,86.831L4.386,86.645L4.294,86.458L4.204,86.269L4.117,86.079L4.031,85.887L3.948,85.695L3.867,85.501L3.789,85.306L3.713,85.11L3.639,84.913L3.567,84.715L3.498,84.515L3.431,84.314L3.367,84.113L3.305,83.911L3.246,83.706L3.189,83.502L3.134,83.297L3.082,83.089L3.033,82.881L2.986,82.673L2.941,82.464L2.899,82.253L2.86,82.042L2.823,81.829L2.789,81.616L2.758,81.403L2.729,81.188L2.703,80.972L2.68,80.756L2.659,80.539L2.641,80.321L2.625,80.103L2.613,79.883L2.603,79.663L2.596,79.443L2.592,79.222L2.59,79.004L2.59,72.006L2.59,71.936L2.591,71.83L2.595,71.722L2.602,71.616L2.611,71.511L2.623,71.406L2.638,71.302L2.655,71.198L2.675,71.094L2.697,70.993L2.722,70.89L2.75,70.79L2.779,70.691L2.811,70.593L2.845,70.497L2.881,70.402L2.92,70.306L2.961,70.212L3.003,70.122L3.049,70.028L3.097,69.938L3.146,69.85L3.197,69.763L3.251,69.678L3.306,69.593L3.363,69.51L3.423,69.427L3.484,69.348L3.546,69.27L3.61,69.193L3.677,69.118L3.745,69.043L3.815,68.971L3.886,68.901L3.959,68.832L4.035,68.764L4.11,68.7L4.188,68.636L4.268,68.574L4.349,68.514L4.431,68.456L4.515,68.4L4.601,68.345L4.687,68.293L4.775,68.243L4.865,68.195L4.955,68.149L5.048,68.104L5.141,68.062L5.234,68.023L5.33,67.986L5.427,67.95L5.525,67.917L5.623,67.887L5.724,67.859L5.825,67.833L5.926,67.81L6.029,67.789L6.132,67.77L6.237,67.755L6.342,67.741L6.448,67.731L6.554,67.723L6.661,67.718L6.764,67.715L6.817,67.715L6.921,67.716ZM6.781,68.938L6.705,68.939L6.629,68.943L6.554,68.949L6.479,68.956L6.404,68.965L6.33,68.976L6.257,68.989L6.184,69.004L6.112,69.021L6.041,69.039L5.97,69.059L5.9,69.081L5.831,69.104L5.763,69.129L5.695,69.155L5.628,69.184L5.562,69.213L5.496,69.245L5.432,69.277L5.368,69.312L5.306,69.347L5.244,69.385L5.183,69.423L5.124,69.463L5.065,69.505L5.007,69.547L4.95,69.592L4.895,69.637L4.84,69.684L4.787,69.732L4.735,69.781L4.684,69.831L4.634,69.883L4.585,69.935L4.538,69.989L4.492,70.044L4.447,70.1L4.403,70.157L4.361,70.215L4.321,70.275L4.281,70.335L4.243,70.396L4.207,70.458L4.171,70.521L4.138,70.585L4.106,70.65L4.075,70.715L4.046,70.782L4.019,70.849L3.993,70.917L3.968,70.986L3.946,71.055L3.925,71.126L3.906,71.196L3.888,71.268L3.872,71.34L3.858,71.413L3.846,71.486L3.836,71.56L3.827,71.635L3.821,71.71L3.816,71.785L3.813,71.861L3.812,71.938L3.813,72L3.813,79L3.814,79.206L3.818,79.412L3.824,79.617L3.833,79.821L3.845,80.025L3.859,80.228L3.876,80.43L3.895,80.632L3.917,80.833L3.941,81.033L3.968,81.232L3.997,81.431L4.029,81.629L4.063,81.826L4.1,82.022L4.139,82.218L4.18,82.412L4.223,82.606L4.269,82.799L4.318,82.99L4.368,83.181L4.421,83.372L4.476,83.561L4.534,83.749L4.594,83.936L4.656,84.122L4.72,84.307L4.786,84.492L4.855,84.675L4.925,84.857L4.998,85.038L5.073,85.218L5.15,85.396L5.23,85.574L5.311,85.751L5.394,85.926L5.48,86.1L5.567,86.273L5.657,86.445L5.749,86.616L5.842,86.785L5.938,86.953L6.035,87.12L6.135,87.286L6.236,87.45L6.339,87.613L6.444,87.775L6.551,87.935L6.66,88.094L6.771,88.252L6.884,88.408L6.998,88.563L7.115,88.716L7.233,88.868L7.352,89.018L7.474,89.167L7.597,89.315L7.722,89.461L7.849,89.605L7.978,89.748L8.108,89.89L8.239,90.03L8.373,90.168L8.508,90.305L8.645,90.44L8.783,90.573L8.923,90.705L9.064,90.835L9.207,90.963L9.352,91.09L9.498,91.215L9.645,91.338L9.794,91.46L9.945,91.58L10.097,91.698L10.25,91.814L10.405,91.929L10.561,92.041L10.719,92.152L10.877,92.261L11.038,92.368L11.199,92.473L11.362,92.577L11.527,92.678L11.692,92.777L11.859,92.875L12.027,92.97L12.197,93.064L12.367,93.156L12.539,93.245L12.712,93.333L12.886,93.418L13.062,93.501L13.238,93.583L13.416,93.662L13.595,93.739L13.775,93.814L13.956,93.887L14.138,93.958L14.321,94.026L14.505,94.093L14.69,94.157L14.876,94.219L15.064,94.279L15.252,94.336L15.441,94.391L15.631,94.444L15.822,94.495L16.014,94.543L16.207,94.589L16.4,94.633L16.595,94.674L16.79,94.713L16.987,94.749L17.184,94.783L17.382,94.815L17.58,94.844L17.78,94.871L17.98,94.895L18.181,94.917L18.382,94.936L18.585,94.953L18.788,94.967L18.991,94.979L19.196,94.988L19.401,94.995L19.606,94.999L19.813,95L77.813,95L78.019,94.999L78.224,94.995L78.429,94.988L78.634,94.979L78.837,94.967L79.04,94.953L79.243,94.936L79.444,94.917L79.645,94.895L79.845,94.871L80.045,94.844L80.243,94.815L80.441,94.783L80.638,94.749L80.835,94.713L81.03,94.674L81.225,94.633L81.418,94.589L81.611,94.543L81.803,94.495L81.994,94.444L82.184,94.391L82.373,94.336L82.561,94.279L82.749,94.219L82.935,94.157L83.12,94.093L83.304,94.026L83.487,93.958L83.669,93.887L83.85,93.814L84.03,93.739L84.209,93.662L84.387,93.583L84.563,93.501L84.739,93.418L84.913,93.333L85.086,93.245L85.258,93.156L85.428,93.064L85.598,92.97L85.766,92.875L85.933,92.777L86.098,92.678L86.263,92.577L86.426,92.473L86.587,92.368L86.748,92.261L86.906,92.152L87.064,92.041L87.22,91.929L87.375,91.814L87.528,91.698L87.68,91.58L87.831,91.46L87.98,91.338L88.127,91.215L88.273,91.09L88.418,90.963L88.561,90.835L88.702,90.705L88.842,90.573L88.98,90.44L89.117,90.305L89.252,90.168L89.386,90.03L89.517,89.89L89.647,89.748L89.776,89.605L89.903,89.461L90.028,89.315L90.151,89.167L90.273,89.018L90.392,88.868L90.51,88.716L90.627,88.563L90.741,88.408L90.854,88.252L90.965,88.094L91.074,87.935L91.181,87.775L91.286,87.613L91.389,87.45L91.49,87.286L91.59,87.12L91.687,86.953L91.783,86.785L91.876,86.616L91.968,86.445L92.058,86.273L92.145,86.1L92.231,85.926L92.314,85.751L92.395,85.574L92.475,85.396L92.552,85.218L92.627,85.038L92.7,84.857L92.77,84.675L92.839,84.492L92.905,84.307L92.969,84.122L93.031,83.936L93.091,83.749L93.149,83.561L93.204,83.372L93.257,83.181L93.307,82.99L93.356,82.799L93.402,82.606L93.445,82.412L93.486,82.218L93.525,82.022L93.562,81.826L93.596,81.629L93.628,81.431L93.657,81.232L93.684,81.033L93.708,80.833L93.73,80.632L93.749,80.43L93.766,80.228L93.78,80.025L93.792,79.821L93.801,79.617L93.807,79.412L93.811,79.206L93.813,79L93.813,72L93.813,71.958L93.812,71.881L93.809,71.804L93.804,71.728L93.797,71.653L93.789,71.578L93.778,71.503L93.766,71.429L93.751,71.356L93.735,71.283L93.718,71.211L93.698,71.14L93.677,71.069L93.654,71L93.629,70.93L93.603,70.862L93.575,70.794L93.546,70.728L93.515,70.662L93.483,70.597L93.448,70.532L93.413,70.469L93.376,70.407L93.337,70.345L93.297,70.285L93.256,70.226L93.213,70.167L93.169,70.11L93.124,70.054L93.077,69.999L93.029,69.945L92.98,69.892L92.93,69.84L92.878,69.79L92.825,69.741L92.771,69.693L92.716,69.646L92.66,69.601L92.603,69.557L92.545,69.514L92.485,69.473L92.425,69.433L92.363,69.394L92.301,69.357L92.238,69.322L92.174,69.288L92.108,69.255L92.042,69.224L91.976,69.195L91.908,69.167L91.84,69.141L91.77,69.116L91.701,69.093L91.63,69.072L91.559,69.052L91.487,69.035L91.414,69.019L91.341,69.004L91.267,68.992L91.192,68.982L91.117,68.973L91.042,68.966L90.966,68.961L90.889,68.958L90.813,68.957L90.736,68.958L90.659,68.961L90.583,68.966L90.508,68.973L90.433,68.982L90.358,68.992L90.284,69.004L90.211,69.019L90.138,69.035L90.066,69.052L89.995,69.072L89.924,69.093L89.855,69.116L89.785,69.141L89.717,69.167L89.649,69.195L89.583,69.224L89.517,69.255L89.451,69.288L89.387,69.322L89.324,69.357L89.262,69.394L89.2,69.433L89.14,69.473L89.08,69.514L89.022,69.557L88.965,69.601L88.909,69.646L88.854,69.693L88.8,69.741L88.747,69.79L88.695,69.84L88.645,69.892L88.596,69.945L88.548,69.999L88.501,70.054L88.456,70.11L88.412,70.167L88.369,70.226L88.328,70.285L88.288,70.345L88.249,70.407L88.212,70.469L88.177,70.532L88.142,70.597L88.11,70.662L88.079,70.728L88.05,70.794L88.022,70.862L87.996,70.93L87.971,71L87.948,71.069L87.927,71.14L87.907,71.211L87.89,71.283L87.874,71.356L87.859,71.429L87.847,71.503L87.836,71.578L87.828,71.653L87.821,71.728L87.816,71.804L87.813,71.881L87.812,71.958L87.813,72L87.813,79L87.812,79.131L87.809,79.261L87.805,79.391L87.8,79.521L87.793,79.65L87.784,79.778L87.773,79.906L87.762,80.034L87.748,80.161L87.733,80.287L87.717,80.413L87.699,80.539L87.679,80.664L87.659,80.788L87.636,80.912L87.612,81.035L87.587,81.158L87.56,81.28L87.532,81.401L87.502,81.522L87.471,81.642L87.438,81.762L87.404,81.881L87.369,81.999L87.332,82.117L87.294,82.234L87.254,82.35L87.213,82.466L87.171,82.581L87.128,82.695L87.083,82.809L87.036,82.922L86.989,83.034L86.94,83.145L86.89,83.256L86.838,83.366L86.785,83.475L86.731,83.583L86.676,83.69L86.619,83.797L86.562,83.903L86.503,84.008L86.442,84.113L86.381,84.216L86.318,84.319L86.254,84.42L86.189,84.521L86.123,84.621L86.055,84.721L85.987,84.819L85.917,84.916L85.846,85.013L85.774,85.108L85.701,85.203L85.627,85.297L85.551,85.39L85.475,85.481L85.397,85.572L85.319,85.662L85.239,85.751L85.158,85.839L85.076,85.926L84.993,86.012L84.909,86.097L84.825,86.181L84.739,86.264L84.652,86.346L84.564,86.426L84.475,86.506L84.385,86.585L84.294,86.662L84.202,86.739L84.109,86.814L84.016,86.888L83.921,86.962L83.825,87.034L83.729,87.105L83.631,87.174L83.533,87.243L83.434,87.31L83.334,87.377L83.233,87.442L83.131,87.506L83.029,87.568L82.925,87.63L82.821,87.69L82.716,87.749L82.61,87.807L82.503,87.864L82.395,87.919L82.287,87.973L82.178,88.026L82.068,88.077L81.958,88.127L81.846,88.176L81.734,88.224L81.621,88.27L81.508,88.315L81.393,88.359L81.278,88.401L81.163,88.442L81.047,88.481L80.93,88.52L80.812,88.556L80.694,88.592L80.575,88.626L80.455,88.658L80.335,88.689L80.214,88.719L80.092,88.747L79.97,88.774L79.848,88.8L79.724,88.824L79.601,88.846L79.476,88.867L79.351,88.886L79.226,88.904L79.1,88.921L78.973,88.936L78.846,88.949L78.719,88.961L78.591,88.971L78.462,88.98L78.333,88.987L78.204,88.993L78.074,88.997L77.943,88.999L77.813,89L19.813,89L19.682,88.999L19.551,88.997L19.421,88.993L19.292,88.987L19.163,88.98L19.034,88.971L18.906,88.961L18.779,88.949L18.652,88.936L18.525,88.921L18.399,88.904L18.274,88.886L18.149,88.867L18.024,88.846L17.901,88.824L17.777,88.8L17.655,88.774L17.533,88.747L17.411,88.719L17.29,88.689L17.17,88.658L17.05,88.626L16.931,88.592L16.813,88.556L16.695,88.52L16.578,88.481L16.462,88.442L16.347,88.401L16.232,88.359L16.117,88.315L16.004,88.27L15.891,88.224L15.779,88.176L15.667,88.127L15.557,88.077L15.447,88.026L15.338,87.973L15.23,87.919L15.122,87.864L15.015,87.807L14.909,87.749L14.804,87.69L14.7,87.63L14.596,87.568L14.494,87.506L14.392,87.442L14.291,87.377L14.191,87.31L14.092,87.243L13.994,87.174L13.896,87.105L13.8,87.034L13.704,86.962L13.609,86.888L13.516,86.814L13.423,86.739L13.331,86.662L13.24,86.585L13.15,86.506L13.061,86.426L12.973,86.346L12.886,86.264L12.8,86.181L12.716,86.097L12.632,86.012L12.549,85.926L12.467,85.839L12.386,85.751L12.306,85.662L12.228,85.572L12.15,85.481L12.074,85.39L11.998,85.297L11.924,85.203L11.851,85.108L11.779,85.013L11.708,84.916L11.638,84.819L11.57,84.721L11.502,84.621L11.436,84.521L11.371,84.42L11.307,84.319L11.244,84.216L11.183,84.113L11.122,84.008L11.063,83.903L11.006,83.797L10.949,83.69L10.894,83.583L10.84,83.475L10.787,83.366L10.735,83.256L10.685,83.145L10.636,83.034L10.589,82.922L10.542,82.809L10.497,82.695L10.454,82.581L10.412,82.466L10.371,82.35L10.331,82.234L10.293,82.117L10.256,81.999L10.221,81.881L10.187,81.762L10.154,81.642L10.123,81.522L10.093,81.401L10.065,81.28L10.038,81.158L10.013,81.035L9.989,80.912L9.966,80.788L9.946,80.664L9.926,80.539L9.908,80.413L9.892,80.287L9.877,80.161L9.863,80.034L9.852,79.906L9.841,79.778L9.832,79.65L9.825,79.521L9.82,79.391L9.816,79.261L9.813,79.131L9.813,79L9.813,72L9.813,71.938L9.812,71.861L9.809,71.784L9.804,71.708L9.798,71.633L9.789,71.558L9.778,71.483L9.766,71.409L9.752,71.336L9.736,71.264L9.718,71.192L9.699,71.12L9.677,71.05L9.654,70.98L9.63,70.91L9.604,70.842L9.576,70.774L9.546,70.708L9.515,70.642L9.483,70.577L9.449,70.512L9.413,70.449L9.376,70.387L9.338,70.325L9.298,70.265L9.257,70.206L9.214,70.147L9.17,70.09L9.124,70.034L9.078,69.979L9.03,69.925L8.981,69.872L8.93,69.82L8.879,69.77L8.826,69.721L8.772,69.673L8.717,69.626L8.66,69.581L8.603,69.537L8.545,69.494L8.485,69.453L8.425,69.413L8.364,69.374L8.301,69.337L8.238,69.302L8.174,69.268L8.109,69.235L8.043,69.204L7.976,69.175L7.908,69.147L7.84,69.121L7.771,69.096L7.701,69.073L7.63,69.052L7.559,69.032L7.487,69.015L7.414,68.999L7.341,68.985L7.267,68.972L7.193,68.962L7.118,68.953L7.042,68.946L6.966,68.941L6.89,68.938L6.813,68.937L6.781,68.938ZM48.934,3.761L49.054,3.767L49.172,3.776L49.291,3.788L49.409,3.803L49.526,3.822L49.642,3.844L49.758,3.869L49.873,3.898L49.987,3.929L50.1,3.964L50.212,4.002L50.322,4.043L50.433,4.087L50.541,4.134L50.648,4.185L50.754,4.238L50.859,4.294L50.962,4.354L51.062,4.415L51.162,4.481L51.26,4.549L51.356,4.62L51.451,4.694L51.542,4.77L51.633,4.849L51.722,4.932L51.799,5.008L71.762,24.971L71.797,25L71.886,25.078L71.973,25.159L72.058,25.243L72.139,25.327L72.218,25.414L72.296,25.504L72.371,25.596L72.441,25.689L72.509,25.783L72.577,25.881L72.639,25.98L72.699,26.078L72.757,26.181L72.812,26.285L72.864,26.388L72.913,26.495L72.959,26.602L73.002,26.711L73.042,26.82L73.079,26.932L73.113,27.045L73.144,27.157L73.171,27.27L73.196,27.385L73.218,27.502L73.236,27.62L73.251,27.737L73.262,27.853L73.271,27.973L73.276,28.092L73.277,28.21L73.276,28.32L73.272,28.428L73.265,28.533L73.256,28.641L73.243,28.749L73.228,28.853L73.211,28.956L73.191,29.06L73.168,29.163L73.143,29.264L73.115,29.366L73.085,29.466L73.054,29.562L73.018,29.663L72.981,29.76L72.943,29.852L72.902,29.946L72.857,30.041L72.811,30.132L72.764,30.221L72.714,30.311L72.661,30.4L72.607,30.485L72.551,30.57L72.494,30.652L72.434,30.734L72.372,30.815L72.309,30.894L72.244,30.971L72.176,31.046L72.107,31.12L72.037,31.193L71.963,31.264L71.89,31.333L71.815,31.399L71.739,31.464L71.658,31.529L71.579,31.59L71.496,31.65L71.413,31.708L71.33,31.763L71.242,31.818L71.154,31.87L71.066,31.92L70.975,31.968L70.884,32.014L70.791,32.057L70.697,32.099L70.602,32.138L70.505,32.175L70.408,32.209L70.309,32.242L70.209,32.272L70.109,32.299L70.007,32.324L69.904,32.347L69.8,32.367L69.696,32.385L69.591,32.399L69.485,32.412L69.378,32.421L69.271,32.428L69.163,32.432L69.054,32.434L68.936,32.432L68.816,32.427L68.698,32.419L68.58,32.407L68.463,32.392L68.346,32.374L68.23,32.352L68.115,32.328L68.001,32.3L67.888,32.269L67.776,32.235L67.664,32.198L67.555,32.158L67.446,32.115L67.338,32.069L67.233,32.02L67.128,31.969L67.024,31.913L66.922,31.855L66.823,31.795L66.725,31.733L66.628,31.667L66.532,31.597L66.439,31.526L66.349,31.453L66.258,31.375L66.172,31.296L66.086,31.214L66.003,31.129L65.922,31.042L65.843,30.952L65.815,30.918L53.035,18.138L53.035,71.996L53.035,72.047L53.034,72.151L53.03,72.257L53.023,72.367L53.013,72.472L53.001,72.578L52.986,72.685L52.969,72.787L52.949,72.891L52.926,72.994L52.9,73.097L52.873,73.197L52.844,73.295L52.811,73.396L52.776,73.494L52.739,73.589L52.7,73.684L52.659,73.779L52.615,73.872L52.57,73.962L52.521,74.054L52.471,74.142L52.42,74.229L52.365,74.317L52.309,74.402L52.251,74.485L52.192,74.566L52.131,74.645L52.066,74.725L52,74.803L51.933,74.879L51.865,74.952L51.795,75.023L51.722,75.094L51.647,75.164L51.572,75.231L51.495,75.296L51.417,75.359L51.336,75.421L51.254,75.481L51.171,75.539L51.086,75.595L51.001,75.649L50.913,75.701L50.823,75.752L50.733,75.799L50.642,75.844L50.549,75.889L50.454,75.93L50.36,75.969L50.263,76.006L50.165,76.041L50.066,76.073L49.967,76.103L49.866,76.131L49.764,76.156L49.661,76.178L49.558,76.198L49.454,76.216L49.349,76.231L49.242,76.243L49.136,76.253L49.029,76.26L48.921,76.264L48.812,76.265L48.704,76.264L48.596,76.26L48.489,76.253L48.382,76.243L48.277,76.231L48.171,76.216L48.067,76.198L47.964,76.178L47.861,76.156L47.759,76.131L47.658,76.103L47.558,76.073L47.459,76.041L47.362,76.006L47.266,75.969L47.17,75.93L47.075,75.888L46.984,75.845L46.892,75.799L46.801,75.751L46.713,75.701L46.625,75.649L46.539,75.595L46.454,75.539L46.37,75.481L46.289,75.421L46.209,75.36L46.129,75.295L46.052,75.23L45.978,75.164L45.904,75.096L45.831,75.024L45.76,74.952L45.691,74.878L45.624,74.802L45.559,74.725L45.496,74.647L45.433,74.566L45.373,74.483L45.316,74.402L45.26,74.317L45.206,74.231L45.154,74.142L45.103,74.053L45.056,73.964L45.01,73.872L44.966,73.777L44.925,73.684L44.887,73.591L44.849,73.494L44.814,73.394L44.782,73.297L44.752,73.197L44.724,73.095L44.699,72.994L44.676,72.891L44.656,72.787L44.639,72.685L44.624,72.58L44.612,72.472L44.602,72.365L44.596,72.259L44.591,72.151L44.59,72.045L44.59,71.996L44.59,18.143L31.842,30.918L31.813,30.952L31.734,31.042L31.653,31.13L31.57,31.214L31.485,31.296L31.398,31.375L31.309,31.452L31.217,31.526L31.124,31.597L31.028,31.667L30.931,31.733L30.833,31.795L30.733,31.856L30.631,31.914L30.528,31.968L30.424,32.02L30.318,32.069L30.21,32.115L30.101,32.158L29.991,32.198L29.881,32.235L29.769,32.269L29.655,32.3L29.541,32.328L29.426,32.352L29.311,32.374L29.194,32.392L29.076,32.407L28.959,32.419L28.84,32.427L28.721,32.432L28.602,32.434L28.493,32.432L28.385,32.428L28.278,32.421L28.171,32.412L28.065,32.399L27.96,32.385L27.856,32.367L27.752,32.347L27.649,32.324L27.548,32.299L27.447,32.272L27.347,32.242L27.248,32.209L27.151,32.175L27.055,32.138L26.959,32.099L26.865,32.057L26.772,32.014L26.68,31.967L26.59,31.92L26.502,31.87L26.414,31.818L26.328,31.764L26.243,31.708L26.159,31.649L26.078,31.59L25.998,31.529L25.919,31.465L25.841,31.399L25.765,31.332L25.693,31.264L25.62,31.193L25.549,31.12L25.48,31.046L25.413,30.971L25.348,30.894L25.285,30.815L25.223,30.736L25.162,30.652L25.104,30.569L25.049,30.485L24.995,30.4L24.942,30.311L24.892,30.221L24.845,30.132L24.799,30.041L24.756,29.948L24.714,29.854L24.674,29.758L24.637,29.661L24.603,29.564L24.571,29.466L24.54,29.364L24.513,29.264L24.488,29.163L24.466,29.062L24.445,28.958L24.428,28.851L24.413,28.746L24.401,28.641L24.391,28.533L24.384,28.428L24.38,28.32L24.379,28.21L24.38,28.092L24.386,27.973L24.394,27.855L24.405,27.737L24.421,27.618L24.439,27.502L24.46,27.387L24.485,27.272L24.512,27.157L24.543,27.043L24.578,26.931L24.615,26.82L24.654,26.711L24.697,26.602L24.743,26.495L24.793,26.388L24.844,26.285L24.899,26.181L24.956,26.08L25.016,25.98L25.081,25.88L25.146,25.784L25.215,25.689L25.287,25.595L25.361,25.504L25.437,25.415L25.516,25.328L25.599,25.242L25.684,25.158L25.771,25.078L25.86,25L25.894,24.971L45.855,5.011L45.908,4.957L45.972,4.896L46.037,4.836L46.102,4.779L46.169,4.722L46.238,4.666L46.308,4.612L46.378,4.56L46.448,4.51L46.52,4.461L46.595,4.412L46.669,4.366L46.743,4.322L46.819,4.279L46.896,4.238L46.973,4.198L47.053,4.159L47.132,4.122L47.21,4.088L47.292,4.055L47.374,4.023L47.456,3.993L47.538,3.965L47.621,3.938L47.706,3.913L47.791,3.89L47.875,3.869L47.961,3.849L48.048,3.831L48.134,3.815L48.22,3.801L48.323,3.786L48.454,3.773L48.574,3.765L48.694,3.761L48.814,3.759L48.934,3.761ZM48.725,4.982L48.64,4.986L48.554,4.992L48.469,5L48.407,5.009L48.345,5.019L48.283,5.03L48.222,5.043L48.161,5.057L48.101,5.072L48.041,5.089L47.981,5.106L47.922,5.125L47.863,5.145L47.805,5.167L47.747,5.189L47.689,5.213L47.632,5.238L47.576,5.264L47.52,5.291L47.465,5.319L47.411,5.349L47.357,5.379L47.303,5.411L47.251,5.444L47.199,5.478L47.147,5.513L47.097,5.549L47.047,5.586L46.997,5.624L46.949,5.663L46.901,5.704L46.854,5.745L46.808,5.787L46.763,5.831L46.719,5.875L26.719,25.875L26.653,25.929L26.59,25.985L26.528,26.043L26.468,26.102L26.41,26.162L26.353,26.224L26.299,26.288L26.246,26.353L26.195,26.419L26.147,26.486L26.1,26.555L26.055,26.625L26.012,26.696L25.971,26.769L25.932,26.842L25.895,26.916L25.86,26.992L25.828,27.068L25.797,27.145L25.768,27.223L25.742,27.302L25.718,27.382L25.696,27.462L25.676,27.543L25.659,27.625L25.644,27.708L25.631,27.79L25.62,27.874L25.612,27.957L25.606,28.042L25.602,28.126L25.601,28.211L25.602,28.288L25.605,28.365L25.61,28.441L25.617,28.516L25.625,28.591L25.636,28.666L25.648,28.739L25.662,28.813L25.678,28.885L25.696,28.957L25.716,29.029L25.737,29.099L25.76,29.169L25.784,29.238L25.811,29.307L25.838,29.374L25.868,29.441L25.899,29.507L25.931,29.572L25.965,29.636L26.001,29.7L26.038,29.762L26.076,29.823L26.116,29.884L26.158,29.943L26.2,30.002L26.244,30.059L26.29,30.115L26.336,30.17L26.384,30.224L26.434,30.277L26.484,30.329L26.536,30.379L26.588,30.428L26.642,30.476L26.697,30.523L26.754,30.568L26.811,30.612L26.869,30.655L26.929,30.696L26.989,30.736L27.05,30.775L27.113,30.812L27.176,30.847L27.24,30.881L27.305,30.914L27.371,30.945L27.438,30.974L27.506,31.002L27.574,31.028L27.643,31.053L27.713,31.076L27.784,31.097L27.855,31.116L27.927,31.134L28,31.15L28.073,31.164L28.147,31.177L28.221,31.187L28.296,31.196L28.372,31.203L28.448,31.208L28.524,31.21L28.601,31.211L28.686,31.21L28.771,31.207L28.855,31.201L28.939,31.192L29.022,31.182L29.105,31.169L29.187,31.154L29.269,31.136L29.35,31.116L29.43,31.095L29.51,31.07L29.589,31.044L29.667,31.016L29.744,30.985L29.821,30.952L29.896,30.917L29.971,30.881L30.044,30.842L30.116,30.801L30.187,30.758L30.257,30.713L30.326,30.666L30.394,30.617L30.46,30.566L30.525,30.514L30.588,30.459L30.65,30.403L30.711,30.345L30.77,30.285L30.827,30.223L30.883,30.159L30.938,30.094L45.813,15.188L45.813,72L45.812,72.042L45.813,72.119L45.816,72.196L45.821,72.272L45.828,72.347L45.836,72.422L45.847,72.497L45.859,72.571L45.874,72.644L45.89,72.717L45.907,72.789L45.927,72.86L45.948,72.931L45.971,73L45.996,73.07L46.022,73.138L46.05,73.206L46.079,73.272L46.11,73.338L46.142,73.403L46.177,73.468L46.212,73.531L46.249,73.593L46.288,73.655L46.328,73.715L46.369,73.774L46.412,73.833L46.456,73.89L46.501,73.946L46.548,74.001L46.596,74.055L46.645,74.108L46.695,74.16L46.747,74.21L46.8,74.259L46.854,74.307L46.909,74.354L46.965,74.399L47.022,74.443L47.08,74.486L47.14,74.527L47.2,74.567L47.262,74.606L47.324,74.643L47.387,74.678L47.451,74.712L47.517,74.745L47.583,74.776L47.649,74.805L47.717,74.833L47.785,74.859L47.855,74.884L47.924,74.907L47.995,74.928L48.066,74.948L48.138,74.965L48.211,74.981L48.284,74.996L48.358,75.008L48.433,75.018L48.508,75.027L48.583,75.034L48.659,75.039L48.736,75.042L48.813,75.043L48.889,75.042L48.966,75.039L49.042,75.034L49.117,75.027L49.192,75.018L49.267,75.008L49.341,74.996L49.414,74.981L49.487,74.965L49.559,74.948L49.63,74.928L49.701,74.907L49.77,74.884L49.84,74.859L49.908,74.833L49.976,74.805L50.042,74.776L50.108,74.745L50.174,74.712L50.238,74.678L50.301,74.643L50.363,74.606L50.425,74.567L50.485,74.527L50.545,74.486L50.603,74.443L50.66,74.399L50.716,74.354L50.771,74.307L50.825,74.259L50.878,74.21L50.93,74.16L50.98,74.108L51.029,74.055L51.077,74.001L51.124,73.946L51.169,73.89L51.213,73.833L51.256,73.774L51.297,73.715L51.337,73.655L51.376,73.593L51.413,73.531L51.448,73.468L51.483,73.403L51.515,73.338L51.546,73.272L51.575,73.206L51.603,73.138L51.629,73.07L51.654,73L51.677,72.931L51.698,72.86L51.718,72.789L51.735,72.717L51.751,72.644L51.766,72.571L51.778,72.497L51.789,72.422L51.797,72.347L51.804,72.272L51.809,72.196L51.812,72.119L51.813,72.042L51.813,72L51.813,15.188L66.719,30.094L66.773,30.159L66.829,30.223L66.886,30.285L66.945,30.345L67.006,30.403L67.068,30.459L67.131,30.514L67.196,30.566L67.263,30.617L67.33,30.666L67.399,30.713L67.469,30.758L67.54,30.801L67.612,30.842L67.686,30.881L67.76,30.917L67.836,30.952L67.912,30.985L67.989,31.016L68.067,31.044L68.146,31.07L68.226,31.095L68.306,31.116L68.387,31.136L68.469,31.154L68.551,31.169L68.634,31.182L68.717,31.192L68.801,31.201L68.885,31.207L68.97,31.21L69.055,31.211L69.132,31.21L69.208,31.208L69.284,31.203L69.36,31.196L69.435,31.187L69.509,31.177L69.583,31.164L69.656,31.15L69.729,31.134L69.801,31.116L69.872,31.097L69.943,31.076L70.013,31.053L70.082,31.028L70.15,31.002L70.218,30.974L70.285,30.945L70.351,30.914L70.416,30.881L70.48,30.847L70.543,30.812L70.606,30.775L70.667,30.736L70.728,30.696L70.787,30.655L70.845,30.612L70.903,30.568L70.959,30.523L71.014,30.476L71.068,30.428L71.121,30.379L71.172,30.329L71.223,30.277L71.272,30.224L71.32,30.17L71.367,30.115L71.412,30.059L71.456,30.002L71.499,29.943L71.54,29.884L71.58,29.823L71.618,29.762L71.655,29.7L71.691,29.636L71.725,29.572L71.757,29.507L71.788,29.441L71.818,29.374L71.846,29.307L71.872,29.238L71.896,29.169L71.919,29.099L71.941,29.029L71.96,28.957L71.978,28.885L71.994,28.813L72.008,28.739L72.02,28.666L72.031,28.591L72.04,28.516L72.046,28.441L72.051,28.365L72.054,28.288L72.055,28.211L72.054,28.126L72.05,28.042L72.044,27.957L72.036,27.874L72.026,27.79L72.013,27.708L71.997,27.625L71.98,27.543L71.96,27.462L71.938,27.382L71.914,27.302L71.888,27.223L71.859,27.145L71.829,27.068L71.796,26.992L71.761,26.916L71.724,26.842L71.685,26.769L71.645,26.696L71.602,26.625L71.557,26.555L71.51,26.486L71.461,26.419L71.41,26.353L71.357,26.288L71.303,26.224L71.247,26.162L71.188,26.102L71.128,26.043L71.066,25.985L71.003,25.929L70.938,25.875L50.938,5.875L50.876,5.815L50.814,5.756L50.749,5.7L50.684,5.645L50.617,5.593L50.548,5.543L50.479,5.494L50.408,5.448L50.336,5.404L50.263,5.362L50.189,5.322L50.114,5.284L50.037,5.248L49.96,5.215L49.882,5.183L49.804,5.154L49.724,5.127L49.644,5.102L49.563,5.08L49.481,5.06L49.399,5.042L49.316,5.026L49.233,5.013L49.149,5.002L49.065,4.993L48.98,4.987L48.896,4.983L48.81,4.982L48.725,4.982Z" style="fill:white;"/>
            </g>
        </g>
    </g>
</svg>
