<?xml version="1.0" encoding="UTF-8" standalone="no"?>
<!DOCTYPE svg PUBLIC "-//W3C//DTD SVG 1.1//EN" "http://www.w3.org/Graphics/SVG/1.1/DTD/svg11.dtd">
<svg width="100%" height="100%" viewBox="0 0 101 101" version="1.1" xmlns="http://www.w3.org/2000/svg" xmlns:xlink="http://www.w3.org/1999/xlink" xml:space="preserve" xmlns:serif="http://www.serif.com/" style="fill-rule:evenodd;clip-rule:evenodd;stroke-linecap:round;stroke-linejoin:round;stroke-miterlimit:1.5;">
    <rect id="factory_1" x="0.868" y="0.44" width="100" height="100" style="fill:none;"/>
    <g id="Factory">
        <g id="Layer17">
            <path d="M11.036,60.76L39.525,57.647L39.78,66.566L11.493,69.873L11.036,60.76Z" style="fill:rgb(83,83,83);"/>
            <path d="M40.042,66.646C39.696,66.508 39.323,66.456 38.953,66.494C34.879,66.911 10.088,69.448 10.088,69.448L60.527,90.889L90.052,86.562C90.052,86.562 45.41,68.784 40.042,66.646Z" style="fill:rgb(83,83,83);"/>
            <path d="M91.146,87.756L61.481,91.045L61.066,81.841L91.185,78.506L91.187,78.537C93.521,78.317 95.541,80.152 95.711,82.664C95.882,85.2 94.104,87.472 91.741,87.734C91.54,87.756 91.342,87.763 91.146,87.756Z" style="fill:rgb(91,91,91);"/>
            <path d="M61.118,81.835C63.074,81.618 64.801,83.501 64.972,86.037C65.143,88.573 63.695,90.808 61.739,91.025C59.784,91.242 58.057,89.359 57.885,86.823C57.714,84.286 59.162,82.051 61.118,81.835Z" style="fill:rgb(147,147,147);"/>
            <path d="M61.118,81.835C63.074,81.618 64.801,83.501 64.972,86.037C65.143,88.573 63.695,90.808 61.739,91.025C59.784,91.242 58.057,89.359 57.885,86.823C57.714,84.286 59.162,82.051 61.118,81.835ZM61.283,83.325C61.789,83.269 62.248,83.524 62.609,83.917C63.101,84.454 63.415,85.243 63.475,86.138C63.538,87.059 63.32,87.929 62.895,88.584C62.567,89.089 62.12,89.473 61.574,89.534C61.068,89.59 60.609,89.335 60.249,88.942C59.756,88.405 59.442,87.617 59.382,86.721C59.32,85.8 59.538,84.931 59.963,84.275C60.29,83.77 60.737,83.386 61.283,83.325Z" style="fill:rgb(91,91,91);"/>
            <path d="M40.209,57.798C39.857,57.658 39.476,57.606 39.1,57.648C35.06,58.096 11.036,60.76 11.036,60.76L63.593,83.021L92.875,78.772C92.875,78.772 45.777,60.015 40.209,57.798Z" style="fill:rgb(91,91,91);"/>
            <path d="M11.21,60.746C13.166,60.529 14.891,62.385 15.06,64.887C15.229,67.389 13.778,69.596 11.823,69.813C9.867,70.03 8.142,68.175 7.973,65.673C7.804,63.171 9.254,60.963 11.21,60.746Z" style="fill:rgb(147,147,147);"/>
            <path d="M11.21,60.746C13.166,60.529 14.891,62.385 15.06,64.887C15.229,67.389 13.778,69.596 11.823,69.813C9.867,70.03 8.142,68.175 7.973,65.673C7.804,63.171 9.254,60.963 11.21,60.746ZM11.375,62.237C12.591,62.102 13.458,63.433 13.563,64.988C13.624,65.889 13.407,66.741 12.984,67.383C12.656,67.883 12.205,68.262 11.657,68.322C10.442,68.457 9.575,67.127 9.469,65.572C9.408,64.67 9.626,63.819 10.048,63.176C10.377,62.677 10.827,62.298 11.375,62.237L11.375,62.237Z" style="fill:rgb(91,91,91);"/>
        </g>
        <g id="Layer18">
            <g>
                <g id="Layer9">
                    <path d="M36.436,59.988L37.614,60.047L39.002,60.797L39.002,64.49C39.002,64.49 36.242,63.741 35.085,63.426C34.964,63.394 34.866,63.307 34.817,63.192C34.769,63.077 34.777,62.946 34.838,62.838C35.345,61.933 36.436,59.988 36.436,59.988Z" style="fill:rgb(206,206,206);"/>
                    <path d="M37.614,60.047L38.691,59.328L40.304,59.665L41.05,60.446L39.002,60.797L37.614,60.047Z" style="fill:rgb(234,234,234);"/>
                    <path d="M37.614,60.047L38.691,59.328L36.436,59.988L37.614,60.047Z" style="fill:rgb(173,170,170);"/>
                    <path d="M39.002,60.797L41.05,60.446C41.05,60.446 42.059,62.29 42.569,63.222C42.637,63.345 42.641,63.492 42.581,63.619C42.522,63.745 42.405,63.836 42.268,63.862C41.188,64.07 39.002,64.49 39.002,64.49L39.002,60.797Z" style="fill:rgb(213,213,213);"/>
                </g>
            </g>
            <g>
                <g id="Layer91" serif:id="Layer9">
                    <path d="M30.82,59.375L31.507,59.409L32.316,59.846L32.316,61.999C32.316,61.999 30.99,61.639 30.241,61.435C30.121,61.403 30.022,61.316 29.974,61.201C29.926,61.086 29.933,60.956 29.994,60.847C30.313,60.278 30.82,59.375 30.82,59.375Z" style="fill:rgb(206,206,206);"/>
                    <path d="M31.507,59.409L32.134,58.99L33.074,59.186L33.51,59.642L32.316,59.846L31.507,59.409Z" style="fill:rgb(234,234,234);"/>
                    <path d="M31.507,59.409L32.134,58.99L30.82,59.375L31.507,59.409Z" style="fill:rgb(173,170,170);"/>
                    <path d="M32.316,59.846L33.51,59.642C33.51,59.642 33.963,60.47 34.275,61.04C34.342,61.163 34.346,61.31 34.287,61.437C34.227,61.563 34.111,61.654 33.974,61.68C33.308,61.808 32.316,61.999 32.316,61.999L32.316,59.846Z" style="fill:rgb(213,213,213);"/>
                </g>
            </g>
            <g>
                <g id="Layer92" serif:id="Layer9">
                    <path d="M24.646,61.026L25.465,61.067L26.43,61.588L26.43,64.157C26.43,64.157 24.729,63.695 23.858,63.459C23.738,63.426 23.639,63.34 23.591,63.225C23.543,63.11 23.55,62.979 23.611,62.87C23.987,62.201 24.646,61.026 24.646,61.026Z" style="fill:rgb(206,206,206);"/>
                    <path d="M25.465,61.067L26.214,60.567L27.336,60.801L27.855,61.345L26.43,61.588L25.465,61.067Z" style="fill:rgb(234,234,234);"/>
                    <path d="M25.465,61.067L26.214,60.567L24.646,61.026L25.465,61.067Z" style="fill:rgb(173,170,170);"/>
                    <path d="M26.43,61.588L27.855,61.345C27.855,61.345 28.453,62.437 28.824,63.115C28.891,63.238 28.895,63.385 28.836,63.511C28.776,63.638 28.66,63.728 28.522,63.755C27.733,63.907 26.43,64.157 26.43,64.157L26.43,61.588Z" style="fill:rgb(213,213,213);"/>
                </g>
            </g>
            <g>
                <g id="Layer93" serif:id="Layer9">
                    <path d="M45.128,67.033L45.948,67.097L46.913,67.907L46.913,71.9C46.913,71.9 45.002,71.093 44.194,70.752C43.996,70.668 43.897,70.444 43.97,70.242C44.298,69.335 45.128,67.033 45.128,67.033Z" style="fill:rgb(206,206,206);"/>
                    <path d="M45.948,67.097L46.697,66.319L47.818,66.683L48.338,67.528L46.913,67.907L45.948,67.097Z" style="fill:rgb(234,234,234);"/>
                    <path d="M45.948,67.097L46.697,66.319L45.128,67.033L45.948,67.097Z" style="fill:rgb(173,170,170);"/>
                    <path d="M46.913,67.907L48.338,67.528C48.338,67.528 49.107,69.714 49.442,70.665C49.482,70.778 49.474,70.902 49.419,71.009C49.365,71.116 49.269,71.195 49.155,71.23C48.394,71.457 46.913,71.9 46.913,71.9L46.913,67.907Z" style="fill:rgb(213,213,213);"/>
                </g>
            </g>
            <g>
                <g id="Layer94" serif:id="Layer9">
                    <path d="M39.808,65.451L40.301,65.489L40.881,65.976L40.881,68.375C40.881,68.375 39.924,67.971 39.388,67.745C39.19,67.661 39.092,67.437 39.165,67.235C39.385,66.624 39.808,65.451 39.808,65.451Z" style="fill:rgb(206,206,206);"/>
                    <path d="M40.301,65.489L40.751,65.022L41.425,65.24L41.737,65.748L40.881,65.976L40.301,65.489Z" style="fill:rgb(234,234,234);"/>
                    <path d="M40.301,65.489L40.751,65.022L39.808,65.451L40.301,65.489Z" style="fill:rgb(173,170,170);"/>
                    <path d="M40.881,65.976L41.737,65.748C41.737,65.748 42.119,66.834 42.34,67.46C42.38,67.573 42.372,67.698 42.317,67.804C42.263,67.911 42.167,67.991 42.053,68.025C41.575,68.168 40.881,68.375 40.881,68.375L40.881,65.976Z" style="fill:rgb(213,213,213);"/>
                </g>
            </g>
            <g id="Stone">
                <g id="Rock_Base">
                    <path d="M34.115,65.606L32.169,62.115C32.116,62.146 32.067,62.182 32.022,62.224L31.02,63.163C30.858,63.317 30.759,63.527 30.745,63.75L30.733,63.919L30.608,65.705C30.598,65.839 30.619,65.974 30.667,66.099L30.853,66.579C30.904,66.71 30.986,66.826 31.092,66.918L34.115,65.606Z" style="fill:rgb(206,206,206);fill-rule:nonzero;"/>
                    <path d="M36.041,66.754C36.096,66.703 36.139,66.659 36.139,66.659L34.115,65.606L31.092,66.917C31.145,66.963 31.204,67.002 31.268,67.032C31.34,67.066 31.42,67.082 31.5,67.078L35.737,66.883C35.85,66.877 35.958,66.831 36.041,66.754Z" style="fill:rgb(128,128,128);fill-rule:nonzero;"/>
                    <path d="M36.775,63.932L36.349,63.054L36.048,62.433C35.998,62.329 35.928,62.237 35.841,62.161L34.115,65.606L36.135,66.665C36.204,66.577 36.257,66.477 36.289,66.37L36.55,65.508L36.827,64.594C36.893,64.374 36.875,64.138 36.775,63.932Z" style="fill:rgb(213,213,213);fill-rule:nonzero;"/>
                    <path d="M32.169,62.115L34.116,65.606L35.842,62.161C35.756,62.087 35.655,62.032 35.546,62.001L34.231,61.625L34.159,61.604C34.017,61.563 33.866,61.565 33.725,61.609L33.65,61.633L32.329,62.044C32.274,62.062 32.22,62.085 32.169,62.115Z" style="fill:rgb(234,234,234);fill-rule:nonzero;"/>
                </g>
                <g id="Rock_Base1" serif:id="Rock_Base">
                    <path d="M59.462,74.959L56.413,69.488C56.33,69.536 56.252,69.593 56.182,69.659L54.612,71.13C54.357,71.371 54.203,71.7 54.18,72.051L54.161,72.316L53.966,75.114C53.951,75.325 53.983,75.536 54.059,75.732L54.351,76.484C54.43,76.689 54.559,76.872 54.725,77.015L59.462,74.959Z" style="fill:rgb(206,206,206);fill-rule:nonzero;"/>
                    <path d="M62.481,76.758C62.567,76.679 62.635,76.609 62.635,76.609L59.462,74.959L54.725,77.015C54.808,77.086 54.901,77.147 55,77.194C55.114,77.248 55.239,77.272 55.364,77.266L62.005,76.96C62.183,76.951 62.351,76.879 62.481,76.758Z" style="fill:rgb(128,128,128);fill-rule:nonzero;"/>
                    <path d="M63.632,72.336L62.964,70.959L62.493,69.986C62.414,69.824 62.303,69.679 62.167,69.561L59.462,74.959L62.628,76.619C62.737,76.481 62.819,76.324 62.87,76.156L63.278,74.806L63.713,73.372C63.817,73.029 63.788,72.659 63.632,72.336Z" style="fill:rgb(213,213,213);fill-rule:nonzero;"/>
                    <path d="M56.413,69.488L59.464,74.959L62.169,69.561C62.035,69.444 61.877,69.358 61.706,69.308L59.644,68.719L59.531,68.687C59.308,68.623 59.072,68.626 58.851,68.695L58.734,68.732L56.664,69.377C56.576,69.404 56.492,69.441 56.413,69.488Z" style="fill:rgb(234,234,234);fill-rule:nonzero;"/>
                </g>
                <g id="Rock_Base2" serif:id="Rock_Base">
                    <path d="M47.871,65.05L46.546,62.671C46.51,62.692 46.476,62.717 46.445,62.746L45.763,63.385C45.652,63.49 45.585,63.633 45.575,63.785L45.567,63.901L45.482,65.117C45.475,65.209 45.489,65.3 45.522,65.386L45.649,65.713C45.684,65.802 45.74,65.881 45.812,65.944L47.871,65.05Z" style="fill:rgb(206,206,206);fill-rule:nonzero;"/>
                    <path d="M49.184,65.832C49.221,65.798 49.25,65.767 49.25,65.767L47.871,65.05L45.812,65.943C45.848,65.975 45.888,66.001 45.931,66.021C45.981,66.045 46.035,66.056 46.09,66.053L48.977,65.92C49.054,65.916 49.127,65.885 49.184,65.832Z" style="fill:rgb(128,128,128);fill-rule:nonzero;"/>
                    <path d="M49.684,63.91L49.394,63.311L49.189,62.888C49.155,62.817 49.106,62.754 49.047,62.703L47.871,65.05L49.248,65.771C49.295,65.712 49.331,65.643 49.353,65.57L49.53,64.983L49.719,64.36C49.764,64.211 49.752,64.05 49.684,63.91Z" style="fill:rgb(213,213,213);fill-rule:nonzero;"/>
                    <path d="M46.546,62.671L47.872,65.05L49.048,62.703C48.99,62.652 48.921,62.615 48.847,62.593L47.95,62.337L47.901,62.323C47.804,62.295 47.702,62.297 47.606,62.327L47.555,62.343L46.655,62.623C46.617,62.635 46.58,62.651 46.546,62.671Z" style="fill:rgb(234,234,234);fill-rule:nonzero;"/>
                </g>
            </g>
            <g>
                <path d="M70.147,77.776C70.097,77.907 70.111,78.053 70.186,78.172C70.26,78.29 70.385,78.367 70.524,78.379C72.266,78.533 77.284,78.976 77.284,78.976C77.284,78.976 80.419,77.366 81.45,76.836C81.535,76.793 81.599,76.716 81.627,76.625C81.655,76.534 81.645,76.435 81.599,76.351C80.954,75.178 78.722,71.113 78.049,69.889C77.937,69.685 77.695,69.59 77.474,69.663C76.45,70.002 73.661,70.925 72.853,71.192C72.712,71.239 72.6,71.346 72.547,71.484C72.18,72.447 70.7,76.326 70.147,77.776Z" style="fill:rgb(255,203,0);"/>
                <path d="M75.719,73.334L77.284,78.976C77.284,78.976 72.266,78.533 70.524,78.379C70.385,78.367 70.26,78.29 70.186,78.172C70.111,78.053 70.097,77.907 70.147,77.776C70.618,76.542 71.716,73.664 71.716,73.664L75.719,73.334Z" style="fill-opacity:0.15;"/>
                <path d="M77.855,69.537L75.719,73.334L77.284,78.976C77.284,78.976 80.419,77.366 81.45,76.836C81.535,76.793 81.599,76.716 81.627,76.625C81.655,76.534 81.645,76.435 81.599,76.351C80.837,74.965 77.855,69.537 77.855,69.537Z" style="fill:white;fill-opacity:0.15;"/>
                <path d="M78.407,70.54L76.338,74.3C76.192,74.565 76.289,74.899 76.554,75.045C76.82,75.191 77.154,75.094 77.3,74.829L79.033,71.68L78.407,70.54Z" style="fill:white;fill-opacity:0.85;"/>
                <path d="M79.544,72.611L79.324,72.98L77.223,76.798C76.998,77.208 77.147,77.724 77.558,77.95C77.968,78.176 78.484,78.026 78.71,77.616L80.503,74.356L79.544,72.611Z" style="fill:white;fill-opacity:0.85;"/>
                <path d="M71.97,73.643L75.719,73.334L77.667,69.872" style="fill:none;stroke:white;stroke-opacity:0.85;stroke-width:0.5px;"/>
            </g>
            <g>
                <path d="M63.939,74.435C63.89,74.566 63.904,74.712 63.978,74.83C64.052,74.949 64.177,75.026 64.316,75.038C65.521,75.144 68.158,75.377 68.158,75.377C68.158,75.377 69.822,74.522 70.541,74.153C70.626,74.11 70.69,74.033 70.718,73.942C70.746,73.85 70.736,73.752 70.689,73.668C70.258,72.882 69.146,70.858 68.696,70.039C68.584,69.835 68.342,69.74 68.121,69.813C67.457,70.033 66.107,70.48 65.575,70.656C65.435,70.702 65.323,70.81 65.27,70.948C65.025,71.59 64.301,73.488 63.939,74.435Z" style="fill:rgb(255,203,0);"/>
                <path d="M67.215,71.976L68.158,75.377C68.158,75.377 65.521,75.144 64.316,75.038C64.177,75.026 64.052,74.949 63.978,74.83C63.904,74.712 63.89,74.566 63.939,74.435C64.252,73.617 64.802,72.175 64.802,72.175L67.215,71.976Z" style="fill-opacity:0.15;"/>
                <path d="M68.503,69.687L67.215,71.976L68.158,75.377C68.158,75.377 69.822,74.522 70.541,74.153C70.626,74.11 70.69,74.033 70.718,73.942C70.746,73.85 70.736,73.752 70.689,73.668C70.142,72.672 68.503,69.687 68.503,69.687Z" style="fill:white;fill-opacity:0.15;"/>
                <path d="M68.835,70.292L67.588,72.558C67.5,72.718 67.558,72.92 67.718,73.008C67.879,73.096 68.08,73.037 68.168,72.877L69.212,70.979L68.835,70.292Z" style="fill:white;fill-opacity:0.85;"/>
                <path d="M69.521,71.54L69.388,71.763L68.122,74.064C67.986,74.311 68.076,74.623 68.323,74.759C68.57,74.895 68.882,74.804 69.018,74.557L70.099,72.592L69.521,71.54Z" style="fill:white;fill-opacity:0.85;"/>
                <path d="M65.084,72.152L67.215,71.976L68.292,70.061" style="fill:none;stroke:white;stroke-opacity:0.85;stroke-width:0.5px;"/>
            </g>
            <g>
                <path d="M61.136,79.792C61.086,79.922 61.1,80.069 61.175,80.187C61.249,80.305 61.374,80.382 61.513,80.394C62.717,80.501 65.355,80.734 65.355,80.734C65.355,80.734 67.019,79.879 67.737,79.51C67.822,79.466 67.886,79.39 67.914,79.299C67.942,79.207 67.932,79.108 67.886,79.024C67.454,78.238 66.343,76.214 65.893,75.395C65.781,75.191 65.539,75.096 65.318,75.17C64.653,75.39 63.303,75.836 62.772,76.012C62.631,76.059 62.519,76.166 62.466,76.304C62.221,76.947 61.497,78.845 61.136,79.792Z" style="fill:rgb(255,203,0);"/>
                <path d="M64.412,77.332L65.355,80.734C65.355,80.734 62.717,80.501 61.513,80.394C61.374,80.382 61.249,80.305 61.175,80.187C61.1,80.069 61.086,79.922 61.136,79.792C61.448,78.973 61.998,77.531 61.998,77.531L64.412,77.332Z" style="fill-opacity:0.15;"/>
                <path d="M65.699,75.043L64.412,77.332L65.355,80.734C65.355,80.734 67.019,79.879 67.737,79.51C67.822,79.466 67.886,79.39 67.914,79.299C67.942,79.207 67.932,79.108 67.886,79.024C67.339,78.028 65.699,75.043 65.699,75.043Z" style="fill:white;fill-opacity:0.15;"/>
                <path d="M66.032,75.648L64.785,77.915C64.697,78.075 64.755,78.276 64.915,78.364C65.075,78.452 65.276,78.394 65.364,78.234L66.409,76.335L66.032,75.648Z" style="fill:white;fill-opacity:0.85;"/>
                <path d="M66.717,76.897L66.584,77.119L65.318,79.421C65.182,79.668 65.272,79.979 65.52,80.115C65.767,80.251 66.078,80.161 66.214,79.914L67.295,77.949L66.717,76.897Z" style="fill:white;fill-opacity:0.85;"/>
                <path d="M62.249,77.511L64.412,77.332L65.495,75.407" style="fill:none;stroke:white;stroke-opacity:0.85;stroke-width:0.5px;"/>
            </g>
        </g>
        <g id="Layer16">
            <path d="M58.861,36.387C57.582,36.962 56.077,36.391 55.502,35.113C54.927,33.834 55.498,32.329 56.777,31.753L66.693,27.292C67.972,26.717 69.477,27.288 70.052,28.567C70.627,29.846 70.056,31.351 68.778,31.926L58.861,36.387Z" style="fill:rgb(188,54,86);"/>
            <path d="M77.871,41.731C78.569,43.339 77.831,45.21 76.223,45.908C74.616,46.606 72.744,45.868 72.046,44.26L66.571,31.649C65.874,30.041 66.612,28.169 68.22,27.472C69.827,26.774 71.699,27.512 72.397,29.12L77.871,41.731Z" style="fill:rgb(188,54,86);"/>
            <g>
                <path d="M52.816,35.275C53.524,34.065 55.082,33.658 56.292,34.367C57.502,35.075 57.909,36.633 57.2,37.843L53.38,44.366C52.672,45.576 51.114,45.983 49.904,45.275C48.694,44.566 48.287,43.009 48.995,41.799L52.816,35.275Z" style="fill:rgb(188,54,86);"/>
                <g>
                    <path d="M48.301,48.207L40.82,61" style="fill:none;stroke:rgb(128,238,35);stroke-width:3.84px;"/>
                    <path d="M45.675,46.394C44.96,47.961 45.652,49.813 47.218,50.528C48.785,51.243 50.638,50.552 51.352,48.985C52.067,47.418 51.376,45.566 49.809,44.851C48.242,44.136 46.39,44.828 45.675,46.394Z" style="fill:rgb(128,238,35);"/>
                    <path d="M48.301,48.207L40.82,61" style="fill:none;stroke:white;stroke-width:1.59px;"/>
                    <path d="M46.636,46.833C46.163,47.869 46.621,49.094 47.657,49.567C48.693,50.04 49.918,49.583 50.391,48.546C50.864,47.51 50.407,46.285 49.37,45.812C48.334,45.339 47.109,45.797 46.636,46.833Z" style="fill:white;"/>
                </g>
                <path d="M44.977,44.525C44.561,44.511 44.206,44.219 44.112,43.813C44.018,43.407 44.208,42.989 44.576,42.794C46.425,41.761 48.931,41.796 51.097,43.064C53.262,44.332 54.519,46.501 54.548,48.618C54.557,49.045 54.278,49.425 53.867,49.545C53.457,49.664 53.017,49.494 52.795,49.128C52.023,47.957 50.853,46.82 49.397,45.967C47.94,45.114 46.376,44.651 44.977,44.525Z" style="fill:rgb(188,54,86);"/>
            </g>
            <path d="M82.331,49.861C80.911,48.026 78.721,46.951 76.4,46.951C74.079,46.951 71.889,48.026 70.469,49.861C69.225,51.469 67.974,53.087 66.925,54.443C66.428,55.085 66.34,55.954 66.697,56.683C67.055,57.411 67.796,57.873 68.608,57.873C73.011,57.873 79.79,57.873 84.193,57.873C85.004,57.873 85.745,57.411 86.103,56.683C86.46,55.954 86.372,55.085 85.876,54.443C84.826,53.087 83.575,51.469 82.331,49.861Z" style="fill:rgb(188,54,86);"/>
            <circle cx="76.301" cy="46.369" r="4.082" style="fill:rgb(188,54,86);"/>
            <path d="M76.301,42.287C74.048,42.287 72.219,44.116 72.219,46.369C72.219,48.622 74.048,50.451 76.301,50.451C78.553,50.451 80.382,48.622 80.382,46.369C80.382,44.116 78.553,42.287 76.301,42.287ZM76.301,43.202C78.048,43.202 79.468,44.621 79.468,46.369C79.468,48.117 78.048,49.536 76.301,49.536C74.553,49.536 73.133,48.117 73.133,46.369C73.133,44.621 74.553,43.202 76.301,43.202Z" style="fill:rgb(255,198,198);"/>
            <circle cx="69.104" cy="29.881" r="3.463" style="fill:rgb(188,54,86);"/>
            <path d="M69.104,26.418C67.192,26.418 65.64,27.97 65.64,29.881C65.64,31.792 67.192,33.344 69.104,33.344C71.015,33.344 72.567,31.792 72.567,29.881C72.567,27.97 71.015,26.418 69.104,26.418ZM69.104,27.333C70.51,27.333 71.652,28.475 71.652,29.881C71.652,31.288 70.51,32.429 69.104,32.429C67.697,32.429 66.555,31.288 66.555,29.881C66.555,28.475 67.697,27.333 69.104,27.333Z" style="fill:rgb(255,198,198);"/>
            <path d="M54.822,31.914C53.436,32.787 53.019,34.621 53.893,36.007C54.766,37.393 56.601,37.809 57.987,36.936C59.373,36.063 59.789,34.228 58.915,32.842C58.042,31.456 56.208,31.04 54.822,31.914Z" style="fill:rgb(188,54,86);"/>
            <path d="M54.822,31.914C53.436,32.787 53.019,34.621 53.893,36.007C54.766,37.393 56.601,37.809 57.987,36.936C59.373,36.063 59.789,34.228 58.915,32.842C58.042,31.456 56.208,31.04 54.822,31.914ZM55.309,32.688C56.268,32.083 57.537,32.371 58.141,33.33C58.746,34.289 58.458,35.558 57.499,36.162C56.54,36.766 55.271,36.478 54.667,35.52C54.063,34.561 54.351,33.292 55.309,32.688Z" style="fill:rgb(255,198,198);"/>
            <path d="M66.472,55.762C66.472,54.597 67.418,53.651 68.583,53.651L84.158,53.651C85.323,53.651 86.269,54.597 86.269,55.762C86.269,56.927 85.323,57.873 84.158,57.873L68.583,57.873C67.418,57.873 66.472,56.927 66.472,55.762Z" style="fill-opacity:0.41;"/>
        </g>
        <g id="Layer161" serif:id="Layer16">
            <path d="M40.318,50.112C41.777,49.603 42.548,48.004 42.038,46.545C41.529,45.086 39.931,44.315 38.472,44.825L24.182,49.813C22.723,50.322 21.952,51.92 22.461,53.379C22.97,54.838 24.568,55.609 26.027,55.1L40.318,50.112Z" style="fill:rgb(188,54,86);"/>
            <path d="M16.344,69.216C15.889,71.093 17.043,72.986 18.92,73.441C20.797,73.897 22.691,72.742 23.146,70.865L26.717,56.139C27.173,54.262 26.018,52.368 24.141,51.913C22.264,51.458 20.37,52.612 19.915,54.489L16.344,69.216Z" style="fill:rgb(188,54,86);"/>
            <g>
                <path d="M44.19,45.754C43.318,44.479 41.574,44.152 40.298,45.024C39.023,45.897 38.695,47.641 39.568,48.916L46.313,58.776C47.186,60.051 48.93,60.378 50.205,59.506C51.481,58.633 51.808,56.889 50.935,55.614L44.19,45.754Z" style="fill:rgb(188,54,86);"/>
                <g>
                    <path d="M52.194,62.605L58.144,71.313" style="fill:none;stroke:rgb(128,238,35);stroke-width:4.23px;"/>
                    <path d="M54.942,60.409C55.849,62.077 55.232,64.167 53.564,65.074C51.897,65.981 49.807,65.364 48.9,63.697C47.993,62.03 48.61,59.94 50.277,59.032C51.944,58.125 54.034,58.742 54.942,60.409Z" style="fill:rgb(128,238,35);"/>
                    <path d="M52.194,62.605L58.144,71.313" style="fill:none;stroke:white;stroke-width:1.76px;"/>
                    <path d="M53.919,60.966C54.519,62.069 54.111,63.451 53.008,64.051C51.905,64.651 50.523,64.243 49.923,63.14C49.323,62.038 49.731,60.655 50.834,60.055C51.936,59.455 53.319,59.863 53.919,60.966Z" style="fill:white;"/>
                </g>
                <path d="M55.849,58.258C56.261,58.229 56.604,57.929 56.687,57.524C56.77,57.119 56.573,56.709 56.206,56.52C54.051,55.352 51.126,55.523 48.723,57.167C46.32,58.811 45.101,61.476 45.39,63.909C45.435,64.327 45.752,64.665 46.168,64.736C46.583,64.806 46.994,64.592 47.175,64.212C47.935,62.788 49.185,61.344 50.817,60.227C52.448,59.111 54.248,58.469 55.849,58.258Z" style="fill:rgb(188,54,86);"/>
            </g>
            <path d="M13.15,75.635C14.571,73.799 16.761,72.725 19.082,72.725C21.403,72.725 23.593,73.799 25.013,75.635C26.686,77.798 28.423,80.043 29.796,81.819C30.293,82.461 30.381,83.33 30.024,84.059C29.666,84.787 28.925,85.249 28.113,85.249C23.138,85.249 15.026,85.249 10.05,85.249C9.238,85.249 8.497,84.787 8.14,84.059C7.782,83.33 7.87,82.461 8.367,81.819C9.741,80.043 11.478,77.798 13.15,75.635Z" style="fill:rgb(188,54,86);"/>
            <circle cx="18.626" cy="72.408" r="4.499" style="fill:rgb(188,54,86);"/>
            <path d="M18.626,67.909C21.109,67.909 23.125,69.925 23.125,72.408C23.125,74.891 21.109,76.907 18.626,76.907C16.143,76.907 14.127,74.891 14.127,72.408C14.127,69.925 16.143,67.909 18.626,67.909ZM18.626,68.824C20.604,68.824 22.21,70.43 22.21,72.408C22.21,74.386 20.604,75.992 18.626,75.992C16.648,75.992 15.042,74.386 15.042,72.408C15.042,70.43 16.648,68.824 18.626,68.824Z" style="fill:rgb(255,198,198);"/>
            <circle cx="23.796" cy="53.474" r="3.817" style="fill:rgb(188,54,86);"/>
            <path d="M23.796,49.657C25.903,49.657 27.613,51.368 27.613,53.474C27.613,55.581 25.903,57.291 23.796,57.291C21.689,57.291 19.979,55.581 19.979,53.474C19.979,51.368 21.689,49.657 23.796,49.657ZM23.796,50.572C25.398,50.572 26.698,51.872 26.698,53.474C26.698,55.076 25.398,56.376 23.796,56.376C22.194,56.376 20.894,55.076 20.894,53.474C20.894,51.872 22.194,50.572 23.796,50.572Z" style="fill:rgb(255,198,198);"/>
            <circle cx="41.205" cy="47.473" r="3.272" style="fill:rgb(188,54,86);"/>
            <path d="M41.205,44.201C43.01,44.201 44.476,45.667 44.476,47.473C44.476,49.279 43.01,50.745 41.205,50.745C39.399,50.745 37.933,49.279 37.933,47.473C37.933,45.667 39.399,44.201 41.205,44.201ZM41.205,45.116C42.505,45.116 43.561,46.172 43.561,47.473C43.561,48.774 42.505,49.83 41.205,49.83C39.904,49.83 38.848,48.774 38.848,47.473C38.848,46.172 39.904,45.116 41.205,45.116Z" style="fill:rgb(255,198,198);"/>
            <path d="M30.241,83.099C30.241,81.912 29.278,80.949 28.091,80.949L10.072,80.949C8.886,80.949 7.922,81.912 7.922,83.099C7.922,84.286 8.886,85.249 10.072,85.249L28.091,85.249C29.278,85.249 30.241,84.286 30.241,83.099Z" style="fill-opacity:0.41;"/>
        </g>
    </g>
    <g transform="matrix(0.31024,0,0,0.817245,-398.959,-582.459)">
        <g transform="matrix(3.22331,0,0,1.22362,-3324.92,-162.235)">
            <path d="M1512.46,724.856C1512.05,724.872 1511.65,724.937 1511.28,725.053L1511.15,725.093C1510.41,725.331 1509.75,725.747 1509.15,726.339L1504.87,729.959C1503.76,730.851 1503.15,732.01 1503.03,733.431L1503.03,733.431C1502.91,734.826 1503.3,736.062 1504.2,737.137C1504.2,737.137 1504.2,737.137 1504.2,737.137C1505.11,738.217 1506.26,738.817 1507.66,738.936L1507.66,751.032C1507.66,752.436 1508.16,753.635 1509.15,754.63C1509.15,754.63 1509.15,754.63 1509.15,754.63C1510.15,755.624 1511.35,756.12 1512.75,756.12C1514.15,756.12 1515.35,755.624 1516.35,754.63C1517.34,753.635 1517.84,752.436 1517.84,751.032L1517.84,730.195C1517.89,729.328 1517.73,728.53 1517.38,727.799L1517.32,727.662C1517.08,727.186 1516.75,726.746 1516.35,726.339C1515.35,725.345 1514.15,724.848 1512.75,724.848C1512.65,724.848 1512.56,724.851 1512.46,724.856ZM1514.84,730.116C1514.79,730.692 1514.55,731.172 1514.12,731.556L1510.66,734.427L1510.66,751.032C1510.66,751.608 1510.87,752.1 1511.28,752.508C1511.68,752.916 1512.17,753.12 1512.75,753.12C1513.33,753.12 1513.82,752.916 1514.23,752.508C1514.63,752.1 1514.84,751.608 1514.84,751.032L1514.84,730.116C1514.87,729.695 1514.8,729.312 1514.61,728.967L1514.6,728.955L1514.59,728.942L1514.59,728.938C1514.5,728.767 1514.37,728.608 1514.23,728.46C1513.82,728.052 1513.33,727.848 1512.75,727.848C1512.17,727.848 1511.68,728.052 1511.28,728.46L1511.21,728.532L1506.78,732.276C1506.32,732.636 1506.07,733.104 1506.02,733.68C1505.97,734.256 1506.13,734.766 1506.51,735.21C1506.88,735.654 1507.35,735.9 1507.93,735.948C1508.5,735.996 1509.01,735.828 1509.44,735.444L1510.66,734.427L1510.66,729.936C1510.66,729.393 1510.84,728.925 1511.21,728.532L1511.42,728.352C1511.85,727.968 1512.36,727.806 1512.93,727.866C1513.51,727.926 1513.98,728.172 1514.35,728.604C1514.44,728.711 1514.52,728.822 1514.59,728.938L1514.59,728.945L1514.61,728.967C1514.76,729.258 1514.84,729.581 1514.84,729.936L1514.84,730.116Z"/>
        </g>
        <g transform="matrix(3.22331,0,0,1.22362,-3324.92,-162.235)">
            <g transform="matrix(36,0,0,36,1505.41,753.12)">
                <path d="M0.017,-0.54C0.016,-0.524 0.02,-0.51 0.031,-0.498C0.041,-0.485 0.054,-0.478 0.07,-0.477C0.086,-0.476 0.1,-0.48 0.112,-0.491L0.242,-0.599C0.254,-0.61 0.261,-0.623 0.262,-0.639C0.263,-0.655 0.259,-0.669 0.249,-0.681C0.238,-0.693 0.225,-0.7 0.209,-0.702C0.193,-0.703 0.179,-0.699 0.167,-0.688L0.038,-0.579C0.025,-0.569 0.018,-0.556 0.017,-0.54ZM0.163,-0.017C0.174,-0.006 0.188,-0 0.204,-0C0.22,-0 0.234,-0.006 0.245,-0.017C0.256,-0.028 0.262,-0.042 0.262,-0.058L0.262,-0.644C0.262,-0.66 0.256,-0.674 0.245,-0.685C0.234,-0.696 0.22,-0.702 0.204,-0.702C0.188,-0.702 0.174,-0.696 0.163,-0.685C0.152,-0.674 0.146,-0.66 0.146,-0.644L0.146,-0.058C0.146,-0.042 0.152,-0.028 0.163,-0.017Z" style="fill:white;fill-rule:nonzero;"/>
            </g>
        </g>
    </g>
</svg>
