<?xml version="1.0" encoding="UTF-8" standalone="no"?>
<!DOCTYPE svg PUBLIC "-//W3C//DTD SVG 1.1//EN" "http://www.w3.org/Graphics/SVG/1.1/DTD/svg11.dtd">
<svg width="100%" height="100%" viewBox="0 0 101 101" version="1.1" xmlns="http://www.w3.org/2000/svg" xmlns:xlink="http://www.w3.org/1999/xlink" xml:space="preserve" xmlns:serif="http://www.serif.com/" style="fill-rule:evenodd;clip-rule:evenodd;stroke-linecap:round;stroke-linejoin:round;stroke-miterlimit:1.5;">
    <rect id="factory_3" x="0.663" y="0.44" width="100" height="100" style="fill:none;"/>
    <g id="Factory">
        <g id="Layer17">
            <path d="M10.831,60.76L39.32,57.647L39.575,66.566L11.287,69.873L10.831,60.76Z" style="fill:rgb(83,83,83);"/>
            <path d="M39.837,66.646C39.491,66.508 39.117,66.456 38.747,66.494C34.674,66.911 9.883,69.448 9.883,69.448L60.322,90.889L89.847,86.562C89.847,86.562 45.205,68.784 39.837,66.646Z" style="fill:rgb(83,83,83);"/>
            <path d="M90.941,87.756L61.276,91.045L60.861,81.841L90.98,78.506L90.982,78.537C93.316,78.317 95.336,80.152 95.506,82.664C95.677,85.2 93.898,87.472 91.536,87.734C91.335,87.756 91.137,87.763 90.941,87.756Z" style="fill:rgb(91,91,91);"/>
            <path d="M60.913,81.835C62.869,81.618 64.596,83.501 64.767,86.037C64.938,88.573 63.49,90.808 61.534,91.025C59.578,91.242 57.851,89.359 57.68,86.823C57.509,84.286 58.957,82.051 60.913,81.835Z" style="fill:rgb(147,147,147);"/>
            <path d="M60.913,81.835C62.869,81.618 64.596,83.501 64.767,86.037C64.938,88.573 63.49,90.808 61.534,91.025C59.578,91.242 57.851,89.359 57.68,86.823C57.509,84.286 58.957,82.051 60.913,81.835ZM61.078,83.325C61.584,83.269 62.043,83.524 62.404,83.917C62.896,84.454 63.21,85.243 63.27,86.138C63.333,87.059 63.114,87.929 62.689,88.584C62.362,89.089 61.915,89.473 61.369,89.534C60.863,89.59 60.404,89.335 60.043,88.942C59.551,88.405 59.237,87.617 59.177,86.721C59.114,85.8 59.333,84.931 59.758,84.275C60.085,83.77 60.532,83.386 61.078,83.325Z" style="fill:rgb(91,91,91);"/>
            <path d="M40.004,57.798C39.652,57.658 39.271,57.606 38.895,57.648C34.855,58.096 10.831,60.76 10.831,60.76L63.388,83.021L92.67,78.772C92.67,78.772 45.572,60.015 40.004,57.798Z" style="fill:rgb(91,91,91);"/>
            <path d="M11.005,60.746C12.96,60.529 14.685,62.385 14.855,64.887C15.024,67.389 13.573,69.596 11.617,69.813C9.662,70.03 7.937,68.175 7.768,65.673C7.599,63.171 9.049,60.963 11.005,60.746Z" style="fill:rgb(147,147,147);"/>
            <path d="M11.005,60.746C12.96,60.529 14.685,62.385 14.855,64.887C15.024,67.389 13.573,69.596 11.617,69.813C9.662,70.03 7.937,68.175 7.768,65.673C7.599,63.171 9.049,60.963 11.005,60.746ZM11.17,62.237C12.386,62.102 13.253,63.433 13.358,64.988C13.419,65.889 13.201,66.741 12.779,67.383C12.451,67.883 12,68.262 11.452,68.322C10.236,68.457 9.369,67.127 9.264,65.572C9.203,64.67 9.421,63.819 9.843,63.176C10.171,62.677 10.622,62.298 11.17,62.237L11.17,62.237Z" style="fill:rgb(91,91,91);"/>
        </g>
        <g id="Layer18">
            <g>
                <g id="Layer9">
                    <path d="M36.231,59.988L37.409,60.047L38.797,60.797L38.797,64.49C38.797,64.49 36.036,63.741 34.88,63.426C34.759,63.394 34.661,63.307 34.612,63.192C34.564,63.077 34.572,62.946 34.633,62.838C35.14,61.933 36.231,59.988 36.231,59.988Z" style="fill:rgb(206,206,206);"/>
                    <path d="M37.409,60.047L38.486,59.328L40.099,59.665L40.845,60.446L38.797,60.797L37.409,60.047Z" style="fill:rgb(234,234,234);"/>
                    <path d="M37.409,60.047L38.486,59.328L36.231,59.988L37.409,60.047Z" style="fill:rgb(173,170,170);"/>
                    <path d="M38.797,60.797L40.845,60.446C40.845,60.446 41.854,62.29 42.364,63.222C42.431,63.345 42.436,63.492 42.376,63.619C42.317,63.745 42.2,63.836 42.063,63.862C40.983,64.07 38.797,64.49 38.797,64.49L38.797,60.797Z" style="fill:rgb(213,213,213);"/>
                </g>
            </g>
            <g>
                <g id="Layer91" serif:id="Layer9">
                    <path d="M30.615,59.375L31.301,59.409L32.11,59.846L32.11,61.999C32.11,61.999 30.785,61.639 30.036,61.435C29.916,61.403 29.817,61.316 29.769,61.201C29.721,61.086 29.728,60.956 29.789,60.847C30.108,60.278 30.615,59.375 30.615,59.375Z" style="fill:rgb(206,206,206);"/>
                    <path d="M31.301,59.409L31.929,58.99L32.869,59.186L33.305,59.642L32.11,59.846L31.301,59.409Z" style="fill:rgb(234,234,234);"/>
                    <path d="M31.301,59.409L31.929,58.99L30.615,59.375L31.301,59.409Z" style="fill:rgb(173,170,170);"/>
                    <path d="M32.11,59.846L33.305,59.642C33.305,59.642 33.758,60.47 34.07,61.04C34.137,61.163 34.141,61.31 34.082,61.437C34.022,61.563 33.906,61.654 33.768,61.68C33.103,61.808 32.11,61.999 32.11,61.999L32.11,59.846Z" style="fill:rgb(213,213,213);"/>
                </g>
            </g>
            <g>
                <g id="Layer92" serif:id="Layer9">
                    <path d="M24.44,61.026L25.26,61.067L26.225,61.588L26.225,64.157C26.225,64.157 24.524,63.695 23.653,63.459C23.533,63.426 23.434,63.34 23.386,63.225C23.338,63.11 23.345,62.979 23.406,62.87C23.781,62.201 24.44,61.026 24.44,61.026Z" style="fill:rgb(206,206,206);"/>
                    <path d="M25.26,61.067L26.009,60.567L27.131,60.801L27.65,61.345L26.225,61.588L25.26,61.067Z" style="fill:rgb(234,234,234);"/>
                    <path d="M25.26,61.067L26.009,60.567L24.44,61.026L25.26,61.067Z" style="fill:rgb(173,170,170);"/>
                    <path d="M26.225,61.588L27.65,61.345C27.65,61.345 28.248,62.437 28.619,63.115C28.686,63.238 28.69,63.385 28.631,63.511C28.571,63.638 28.455,63.728 28.317,63.755C27.528,63.907 26.225,64.157 26.225,64.157L26.225,61.588Z" style="fill:rgb(213,213,213);"/>
                </g>
            </g>
            <g>
                <g id="Layer93" serif:id="Layer9">
                    <path d="M44.923,67.033L45.742,67.097L46.708,67.907L46.708,71.9C46.708,71.9 44.796,71.093 43.989,70.752C43.79,70.668 43.692,70.444 43.765,70.242C44.093,69.335 44.923,67.033 44.923,67.033Z" style="fill:rgb(206,206,206);"/>
                    <path d="M45.742,67.097L46.491,66.319L47.613,66.683L48.133,67.528L46.708,67.907L45.742,67.097Z" style="fill:rgb(234,234,234);"/>
                    <path d="M45.742,67.097L46.491,66.319L44.923,67.033L45.742,67.097Z" style="fill:rgb(173,170,170);"/>
                    <path d="M46.708,67.907L48.133,67.528C48.133,67.528 48.902,69.714 49.237,70.665C49.277,70.778 49.268,70.902 49.214,71.009C49.16,71.116 49.064,71.195 48.949,71.23C48.189,71.457 46.708,71.9 46.708,71.9L46.708,67.907Z" style="fill:rgb(213,213,213);"/>
                </g>
            </g>
            <g>
                <g id="Layer94" serif:id="Layer9">
                    <path d="M39.603,65.451L40.096,65.489L40.676,65.976L40.676,68.375C40.676,68.375 39.719,67.971 39.183,67.745C38.985,67.661 38.886,67.437 38.959,67.235C39.18,66.624 39.603,65.451 39.603,65.451Z" style="fill:rgb(206,206,206);"/>
                    <path d="M40.096,65.489L40.546,65.022L41.22,65.24L41.532,65.748L40.676,65.976L40.096,65.489Z" style="fill:rgb(234,234,234);"/>
                    <path d="M40.096,65.489L40.546,65.022L39.603,65.451L40.096,65.489Z" style="fill:rgb(173,170,170);"/>
                    <path d="M40.676,65.976L41.532,65.748C41.532,65.748 41.914,66.834 42.135,67.46C42.175,67.573 42.166,67.698 42.112,67.804C42.058,67.911 41.962,67.991 41.847,68.025C41.37,68.168 40.676,68.375 40.676,68.375L40.676,65.976Z" style="fill:rgb(213,213,213);"/>
                </g>
            </g>
            <g id="Stone">
                <g id="Rock_Base">
                    <path d="M33.909,65.606L31.964,62.115C31.911,62.146 31.861,62.182 31.817,62.224L30.815,63.163C30.652,63.317 30.554,63.527 30.54,63.75L30.528,63.919L30.403,65.705C30.393,65.839 30.413,65.974 30.462,66.099L30.648,66.579C30.699,66.71 30.781,66.826 30.887,66.918L33.909,65.606Z" style="fill:rgb(206,206,206);fill-rule:nonzero;"/>
                    <path d="M35.836,66.754C35.891,66.703 35.934,66.659 35.934,66.659L33.909,65.606L30.887,66.917C30.94,66.963 30.999,67.002 31.063,67.032C31.135,67.066 31.215,67.082 31.295,67.078L35.532,66.883C35.645,66.877 35.753,66.831 35.836,66.754Z" style="fill:rgb(128,128,128);fill-rule:nonzero;"/>
                    <path d="M36.57,63.932L36.144,63.054L35.843,62.433C35.793,62.329 35.722,62.237 35.636,62.161L33.909,65.606L35.93,66.665C35.999,66.577 36.052,66.477 36.084,66.37L36.344,65.508L36.622,64.594C36.688,64.374 36.669,64.138 36.57,63.932Z" style="fill:rgb(213,213,213);fill-rule:nonzero;"/>
                    <path d="M31.964,62.115L33.911,65.606L35.637,62.161C35.551,62.087 35.45,62.032 35.341,62.001L34.025,61.625L33.954,61.604C33.812,61.563 33.661,61.565 33.52,61.609L33.445,61.633L32.124,62.044C32.068,62.062 32.015,62.085 31.964,62.115Z" style="fill:rgb(234,234,234);fill-rule:nonzero;"/>
                </g>
                <g id="Rock_Base1" serif:id="Rock_Base">
                    <path d="M59.257,74.959L56.208,69.488C56.125,69.536 56.047,69.593 55.977,69.659L54.406,71.13C54.152,71.371 53.998,71.7 53.975,72.051L53.956,72.316L53.761,75.114C53.746,75.325 53.778,75.536 53.854,75.732L54.146,76.484C54.225,76.689 54.353,76.872 54.52,77.015L59.257,74.959Z" style="fill:rgb(206,206,206);fill-rule:nonzero;"/>
                    <path d="M62.276,76.758C62.362,76.679 62.43,76.609 62.43,76.609L59.257,74.959L54.52,77.015C54.603,77.086 54.696,77.147 54.795,77.194C54.909,77.248 55.034,77.272 55.159,77.266L61.8,76.96C61.977,76.951 62.146,76.879 62.276,76.758Z" style="fill:rgb(128,128,128);fill-rule:nonzero;"/>
                    <path d="M63.427,72.336L62.759,70.959L62.287,69.986C62.209,69.824 62.098,69.679 61.962,69.561L59.257,74.959L62.423,76.619C62.532,76.481 62.614,76.324 62.665,76.156L63.073,74.806L63.508,73.372C63.612,73.029 63.582,72.659 63.427,72.336Z" style="fill:rgb(213,213,213);fill-rule:nonzero;"/>
                    <path d="M56.208,69.488L59.259,74.959L61.964,69.561C61.83,69.444 61.672,69.358 61.5,69.308L59.439,68.719L59.326,68.687C59.103,68.623 58.867,68.626 58.646,68.695L58.529,68.732L56.459,69.377C56.371,69.404 56.287,69.441 56.208,69.488Z" style="fill:rgb(234,234,234);fill-rule:nonzero;"/>
                </g>
                <g id="Rock_Base2" serif:id="Rock_Base">
                    <path d="M47.666,65.05L46.341,62.671C46.304,62.692 46.271,62.717 46.24,62.746L45.557,63.385C45.447,63.49 45.38,63.633 45.37,63.785L45.362,63.901L45.277,65.117C45.27,65.209 45.284,65.3 45.317,65.386L45.444,65.713C45.479,65.802 45.534,65.881 45.607,65.944L47.666,65.05Z" style="fill:rgb(206,206,206);fill-rule:nonzero;"/>
                    <path d="M48.979,65.832C49.016,65.798 49.045,65.767 49.045,65.767L47.666,65.05L45.607,65.943C45.643,65.975 45.683,66.001 45.726,66.021C45.776,66.045 45.83,66.056 45.885,66.053L48.772,65.92C48.849,65.916 48.922,65.885 48.979,65.832Z" style="fill:rgb(128,128,128);fill-rule:nonzero;"/>
                    <path d="M49.479,63.91L49.189,63.311L48.984,62.888C48.949,62.817 48.901,62.754 48.842,62.703L47.666,65.05L49.042,65.771C49.09,65.712 49.126,65.643 49.148,65.57L49.325,64.983L49.514,64.36C49.559,64.211 49.547,64.05 49.479,63.91Z" style="fill:rgb(213,213,213);fill-rule:nonzero;"/>
                    <path d="M46.341,62.671L47.667,65.05L48.843,62.703C48.785,62.652 48.716,62.615 48.641,62.593L47.745,62.337L47.696,62.323C47.599,62.295 47.496,62.297 47.4,62.327L47.349,62.343L46.45,62.623C46.412,62.635 46.375,62.651 46.341,62.671Z" style="fill:rgb(234,234,234);fill-rule:nonzero;"/>
                </g>
            </g>
            <g>
                <path d="M69.942,77.776C69.892,77.907 69.906,78.053 69.98,78.172C70.055,78.29 70.18,78.367 70.319,78.379C72.061,78.533 77.079,78.976 77.079,78.976C77.079,78.976 80.214,77.366 81.245,76.836C81.33,76.793 81.394,76.716 81.422,76.625C81.45,76.534 81.439,76.435 81.393,76.351C80.749,75.178 78.516,71.113 77.844,69.889C77.732,69.685 77.49,69.59 77.269,69.663C76.245,70.002 73.455,70.925 72.648,71.192C72.507,71.239 72.395,71.346 72.342,71.484C71.975,72.447 70.495,76.326 69.942,77.776Z" style="fill:rgb(255,203,0);"/>
                <path d="M75.514,73.334L77.079,78.976C77.079,78.976 72.061,78.533 70.319,78.379C70.18,78.367 70.055,78.29 69.98,78.172C69.906,78.053 69.892,77.907 69.942,77.776C70.413,76.542 71.511,73.664 71.511,73.664L75.514,73.334Z" style="fill-opacity:0.15;"/>
                <path d="M77.65,69.537L75.514,73.334L77.079,78.976C77.079,78.976 80.214,77.366 81.245,76.836C81.33,76.793 81.394,76.716 81.422,76.625C81.45,76.534 81.439,76.435 81.393,76.351C80.632,74.965 77.65,69.537 77.65,69.537Z" style="fill:white;fill-opacity:0.15;"/>
                <path d="M78.201,70.54L76.133,74.3C75.987,74.565 76.084,74.899 76.349,75.045C76.615,75.191 76.949,75.094 77.095,74.829L78.827,71.68L78.201,70.54Z" style="fill:white;fill-opacity:0.85;"/>
                <path d="M79.339,72.611L79.119,72.98L77.018,76.798C76.792,77.208 76.942,77.724 77.352,77.95C77.763,78.176 78.279,78.026 78.504,77.616L80.298,74.356L79.339,72.611Z" style="fill:white;fill-opacity:0.85;"/>
                <path d="M71.764,73.643L75.514,73.334L77.462,69.872" style="fill:none;stroke:white;stroke-opacity:0.85;stroke-width:0.5px;"/>
            </g>
            <g>
                <path d="M63.734,74.435C63.684,74.566 63.699,74.712 63.773,74.83C63.847,74.949 63.972,75.026 64.111,75.038C65.316,75.144 67.953,75.377 67.953,75.377C67.953,75.377 69.617,74.522 70.336,74.153C70.421,74.11 70.485,74.033 70.513,73.942C70.541,73.85 70.53,73.752 70.484,73.668C70.053,72.882 68.941,70.858 68.491,70.039C68.379,69.835 68.137,69.74 67.916,69.813C67.252,70.033 65.901,70.48 65.37,70.656C65.23,70.702 65.117,70.81 65.065,70.948C64.82,71.59 64.096,73.488 63.734,74.435Z" style="fill:rgb(255,203,0);"/>
                <path d="M67.01,71.976L67.953,75.377C67.953,75.377 65.316,75.144 64.111,75.038C63.972,75.026 63.847,74.949 63.773,74.83C63.699,74.712 63.684,74.566 63.734,74.435C64.046,73.617 64.597,72.175 64.597,72.175L67.01,71.976Z" style="fill-opacity:0.15;"/>
                <path d="M68.298,69.687L67.01,71.976L67.953,75.377C67.953,75.377 69.617,74.522 70.336,74.153C70.421,74.11 70.485,74.033 70.513,73.942C70.541,73.85 70.53,73.752 70.484,73.668C69.937,72.672 68.298,69.687 68.298,69.687Z" style="fill:white;fill-opacity:0.15;"/>
                <path d="M68.63,70.292L67.383,72.558C67.295,72.718 67.353,72.92 67.513,73.008C67.673,73.096 67.875,73.037 67.963,72.877L69.007,70.979L68.63,70.292Z" style="fill:white;fill-opacity:0.85;"/>
                <path d="M69.316,71.54L69.183,71.763L67.916,74.064C67.78,74.311 67.871,74.623 68.118,74.759C68.365,74.895 68.676,74.804 68.812,74.557L69.893,72.592L69.316,71.54Z" style="fill:white;fill-opacity:0.85;"/>
                <path d="M64.878,72.152L67.01,71.976L68.087,70.061" style="fill:none;stroke:white;stroke-opacity:0.85;stroke-width:0.5px;"/>
            </g>
            <g>
                <path d="M60.931,79.792C60.881,79.922 60.895,80.069 60.969,80.187C61.043,80.305 61.169,80.382 61.308,80.394C62.512,80.501 65.15,80.734 65.15,80.734C65.15,80.734 66.814,79.879 67.532,79.51C67.617,79.466 67.681,79.39 67.709,79.299C67.737,79.207 67.727,79.108 67.681,79.024C67.249,78.238 66.137,76.214 65.687,75.395C65.575,75.191 65.334,75.096 65.113,75.17C64.448,75.39 63.098,75.836 62.567,76.012C62.426,76.059 62.314,76.166 62.261,76.304C62.016,76.947 61.292,78.845 60.931,79.792Z" style="fill:rgb(255,203,0);"/>
                <path d="M64.206,77.332L65.15,80.734C65.15,80.734 62.512,80.501 61.308,80.394C61.169,80.382 61.043,80.305 60.969,80.187C60.895,80.069 60.881,79.922 60.931,79.792C61.243,78.973 61.793,77.531 61.793,77.531L64.206,77.332Z" style="fill-opacity:0.15;"/>
                <path d="M65.494,75.043L64.206,77.332L65.15,80.734C65.15,80.734 66.814,79.879 67.532,79.51C67.617,79.466 67.681,79.39 67.709,79.299C67.737,79.207 67.727,79.108 67.681,79.024C67.134,78.028 65.494,75.043 65.494,75.043Z" style="fill:white;fill-opacity:0.15;"/>
                <path d="M65.826,75.648L64.579,77.915C64.491,78.075 64.55,78.276 64.71,78.364C64.87,78.452 65.071,78.394 65.159,78.234L66.204,76.335L65.826,75.648Z" style="fill:white;fill-opacity:0.85;"/>
                <path d="M66.512,76.897L66.379,77.119L65.113,79.421C64.977,79.668 65.067,79.979 65.315,80.115C65.562,80.251 65.873,80.161 66.009,79.914L67.09,77.949L66.512,76.897Z" style="fill:white;fill-opacity:0.85;"/>
                <path d="M62.044,77.511L64.206,77.332L65.289,75.407" style="fill:none;stroke:white;stroke-opacity:0.85;stroke-width:0.5px;"/>
            </g>
        </g>
        <g id="Layer16">
            <path d="M58.656,36.387C57.377,36.962 55.872,36.391 55.297,35.113C54.721,33.834 55.293,32.329 56.571,31.753L66.488,27.292C67.767,26.717 69.272,27.288 69.847,28.567C70.422,29.846 69.851,31.351 68.572,31.926L58.656,36.387Z" style="fill:rgb(188,54,86);"/>
            <path d="M77.666,41.731C78.364,43.339 77.626,45.21 76.018,45.908C74.411,46.606 72.539,45.868 71.841,44.26L66.366,31.649C65.668,30.041 66.407,28.169 68.015,27.472C69.622,26.774 71.494,27.512 72.192,29.12L77.666,41.731Z" style="fill:rgb(188,54,86);"/>
            <g>
                <path d="M52.61,35.275C53.319,34.065 54.877,33.658 56.087,34.367C57.297,35.075 57.704,36.633 56.995,37.843L53.175,44.366C52.466,45.576 50.909,45.983 49.699,45.275C48.489,44.566 48.082,43.009 48.79,41.799L52.61,35.275Z" style="fill:rgb(188,54,86);"/>
                <g>
                    <path d="M48.096,48.207L40.615,61" style="fill:none;stroke:rgb(128,238,35);stroke-width:3.84px;"/>
                    <path d="M45.47,46.394C44.755,47.961 45.447,49.813 47.013,50.528C48.58,51.243 50.432,50.552 51.147,48.985C51.862,47.418 51.171,45.566 49.604,44.851C48.037,44.136 46.185,44.828 45.47,46.394Z" style="fill:rgb(128,238,35);"/>
                    <path d="M48.096,48.207L40.615,61" style="fill:none;stroke:white;stroke-width:1.59px;"/>
                    <path d="M46.431,46.833C45.958,47.869 46.416,49.094 47.452,49.567C48.488,50.04 49.713,49.583 50.186,48.546C50.659,47.51 50.201,46.285 49.165,45.812C48.129,45.339 46.904,45.797 46.431,46.833Z" style="fill:white;"/>
                </g>
                <path d="M44.772,44.525C44.356,44.511 44.001,44.219 43.907,43.813C43.813,43.407 44.003,42.989 44.371,42.794C46.22,41.761 48.726,41.796 50.891,43.064C53.057,44.332 54.314,46.501 54.343,48.618C54.352,49.045 54.073,49.425 53.662,49.545C53.252,49.664 52.812,49.494 52.59,49.128C51.817,47.957 50.648,46.82 49.191,45.967C47.735,45.114 46.171,44.651 44.772,44.525Z" style="fill:rgb(188,54,86);"/>
            </g>
            <path d="M82.126,49.861C80.706,48.026 78.516,46.951 76.195,46.951C73.874,46.951 71.684,48.026 70.264,49.861C69.02,51.469 67.769,53.087 66.719,54.443C66.223,55.085 66.135,55.954 66.492,56.683C66.85,57.411 67.591,57.873 68.403,57.873C72.805,57.873 79.584,57.873 83.987,57.873C84.799,57.873 85.54,57.411 85.898,56.683C86.255,55.954 86.167,55.085 85.671,54.443C84.621,53.087 83.37,51.469 82.126,49.861Z" style="fill:rgb(188,54,86);"/>
            <circle cx="76.095" cy="46.369" r="4.082" style="fill:rgb(188,54,86);"/>
            <path d="M76.095,42.287C73.842,42.287 72.013,44.116 72.013,46.369C72.013,48.622 73.842,50.451 76.095,50.451C78.348,50.451 80.177,48.622 80.177,46.369C80.177,44.116 78.348,42.287 76.095,42.287ZM76.095,43.202C77.843,43.202 79.262,44.621 79.262,46.369C79.262,48.117 77.843,49.536 76.095,49.536C74.347,49.536 72.928,48.117 72.928,46.369C72.928,44.621 74.347,43.202 76.095,43.202Z" style="fill:rgb(255,198,198);"/>
            <circle cx="68.898" cy="29.881" r="3.463" style="fill:rgb(188,54,86);"/>
            <path d="M68.898,26.418C66.987,26.418 65.435,27.97 65.435,29.881C65.435,31.792 66.987,33.344 68.898,33.344C70.81,33.344 72.362,31.792 72.362,29.881C72.362,27.97 70.81,26.418 68.898,26.418ZM68.898,27.333C70.305,27.333 71.447,28.475 71.447,29.881C71.447,31.288 70.305,32.429 68.898,32.429C67.492,32.429 66.35,31.288 66.35,29.881C66.35,28.475 67.492,27.333 68.898,27.333Z" style="fill:rgb(255,198,198);"/>
            <path d="M54.616,31.914C53.23,32.787 52.814,34.621 53.688,36.007C54.561,37.393 56.396,37.809 57.781,36.936C59.167,36.063 59.584,34.228 58.71,32.842C57.837,31.456 56.002,31.04 54.616,31.914Z" style="fill:rgb(188,54,86);"/>
            <path d="M54.616,31.914C53.23,32.787 52.814,34.621 53.688,36.007C54.561,37.393 56.396,37.809 57.781,36.936C59.167,36.063 59.584,34.228 58.71,32.842C57.837,31.456 56.002,31.04 54.616,31.914ZM55.104,32.688C56.063,32.083 57.332,32.371 57.936,33.33C58.54,34.289 58.253,35.558 57.294,36.162C56.335,36.766 55.066,36.478 54.462,35.52C53.858,34.561 54.145,33.292 55.104,32.688Z" style="fill:rgb(255,198,198);"/>
            <path d="M66.266,55.762C66.266,54.597 67.212,53.651 68.378,53.651L83.953,53.651C85.118,53.651 86.064,54.597 86.064,55.762C86.064,56.927 85.118,57.873 83.953,57.873L68.378,57.873C67.212,57.873 66.266,56.927 66.266,55.762Z" style="fill-opacity:0.41;"/>
        </g>
        <g id="Layer161" serif:id="Layer16">
            <path d="M40.112,50.112C41.572,49.603 42.343,48.004 41.833,46.545C41.324,45.086 39.726,44.315 38.267,44.825L23.977,49.813C22.518,50.322 21.746,51.92 22.256,53.379C22.765,54.838 24.363,55.609 25.822,55.1L40.112,50.112Z" style="fill:rgb(188,54,86);"/>
            <path d="M16.139,69.216C15.684,71.093 16.838,72.986 18.715,73.441C20.592,73.897 22.486,72.742 22.941,70.865L26.512,56.139C26.967,54.262 25.813,52.368 23.936,51.913C22.059,51.458 20.165,52.612 19.71,54.489L16.139,69.216Z" style="fill:rgb(188,54,86);"/>
            <g>
                <path d="M43.985,45.754C43.112,44.479 41.368,44.152 40.093,45.024C38.817,45.897 38.49,47.641 39.363,48.916L46.108,58.776C46.981,60.051 48.725,60.378 50,59.506C51.276,58.633 51.603,56.889 50.73,55.614L43.985,45.754Z" style="fill:rgb(188,54,86);"/>
                <g>
                    <path d="M51.989,62.605L57.939,71.313" style="fill:none;stroke:rgb(128,238,35);stroke-width:4.23px;"/>
                    <path d="M54.736,60.409C55.644,62.077 55.027,64.167 53.359,65.074C51.692,65.981 49.602,65.364 48.695,63.697C47.788,62.03 48.405,59.94 50.072,59.032C51.739,58.125 53.829,58.742 54.736,60.409Z" style="fill:rgb(128,238,35);"/>
                    <path d="M51.989,62.605L57.939,71.313" style="fill:none;stroke:white;stroke-width:1.76px;"/>
                    <path d="M53.714,60.966C54.314,62.069 53.905,63.451 52.803,64.051C51.7,64.651 50.318,64.243 49.718,63.14C49.118,62.038 49.526,60.655 50.628,60.055C51.731,59.455 53.114,59.863 53.714,60.966Z" style="fill:white;"/>
                </g>
                <path d="M55.644,58.258C56.056,58.229 56.398,57.929 56.482,57.524C56.565,57.119 56.368,56.709 56.001,56.52C53.846,55.352 50.921,55.523 48.518,57.167C46.115,58.811 44.896,61.476 45.185,63.909C45.23,64.327 45.547,64.665 45.962,64.736C46.377,64.806 46.789,64.592 46.969,64.212C47.73,62.788 48.98,61.344 50.612,60.227C52.243,59.111 54.043,58.469 55.644,58.258Z" style="fill:rgb(188,54,86);"/>
            </g>
            <path d="M12.945,75.635C14.365,73.799 16.556,72.725 18.877,72.725C21.198,72.725 23.388,73.799 24.808,75.635C26.481,77.798 28.217,80.043 29.591,81.819C30.088,82.461 30.176,83.33 29.818,84.059C29.461,84.787 28.72,85.249 27.908,85.249C22.932,85.249 14.821,85.249 9.845,85.249C9.033,85.249 8.292,84.787 7.935,84.059C7.577,83.33 7.665,82.461 8.162,81.819C9.536,80.043 11.272,77.798 12.945,75.635Z" style="fill:rgb(188,54,86);"/>
            <circle cx="18.421" cy="72.408" r="4.499" style="fill:rgb(188,54,86);"/>
            <path d="M18.421,67.909C20.904,67.909 22.92,69.925 22.92,72.408C22.92,74.891 20.904,76.907 18.421,76.907C15.937,76.907 13.922,74.891 13.922,72.408C13.922,69.925 15.937,67.909 18.421,67.909ZM18.421,68.824C20.399,68.824 22.005,70.43 22.005,72.408C22.005,74.386 20.399,75.992 18.421,75.992C16.442,75.992 14.836,74.386 14.836,72.408C14.836,70.43 16.442,68.824 18.421,68.824Z" style="fill:rgb(255,198,198);"/>
            <circle cx="23.591" cy="53.474" r="3.817" style="fill:rgb(188,54,86);"/>
            <path d="M23.591,49.657C25.698,49.657 27.408,51.368 27.408,53.474C27.408,55.581 25.698,57.291 23.591,57.291C21.484,57.291 19.774,55.581 19.774,53.474C19.774,51.368 21.484,49.657 23.591,49.657ZM23.591,50.572C25.193,50.572 26.493,51.872 26.493,53.474C26.493,55.076 25.193,56.376 23.591,56.376C21.989,56.376 20.689,55.076 20.689,53.474C20.689,51.872 21.989,50.572 23.591,50.572Z" style="fill:rgb(255,198,198);"/>
            <circle cx="41" cy="47.473" r="3.272" style="fill:rgb(188,54,86);"/>
            <path d="M41,44.201C42.805,44.201 44.271,45.667 44.271,47.473C44.271,49.279 42.805,50.745 41,50.745C39.194,50.745 37.728,49.279 37.728,47.473C37.728,45.667 39.194,44.201 41,44.201ZM41,45.116C42.3,45.116 43.356,46.172 43.356,47.473C43.356,48.774 42.3,49.83 41,49.83C39.699,49.83 38.643,48.774 38.643,47.473C38.643,46.172 39.699,45.116 41,45.116Z" style="fill:rgb(255,198,198);"/>
            <path d="M30.036,83.099C30.036,81.912 29.073,80.949 27.886,80.949L9.867,80.949C8.681,80.949 7.717,81.912 7.717,83.099C7.717,84.286 8.681,85.249 9.867,85.249L27.886,85.249C29.073,85.249 30.036,84.286 30.036,83.099Z" style="fill-opacity:0.41;"/>
        </g>
    </g>
    <g transform="matrix(0.31024,0,0,0.817245,-399.164,-582.459)">
        <g transform="matrix(3.22331,0,0,1.22362,-3324.92,-162.235)">
            <path d="M1505.03,739.919L1505.04,740.171L1505.06,740.366C1504.77,740.316 1504.47,740.292 1504.16,740.292C1502.76,740.292 1501.56,740.789 1500.57,741.783C1499.57,742.777 1499.08,743.977 1499.08,745.38C1499.08,748.301 1500.08,750.746 1502.05,752.731C1504.15,754.945 1506.94,756.12 1510.46,756.12C1513.95,756.12 1516.75,754.953 1518.92,752.726C1518.92,752.725 1518.92,752.723 1518.92,752.722C1520.9,750.677 1521.89,748.23 1521.89,745.38C1521.89,743.021 1521.22,741.024 1519.9,739.385C1520.64,738.069 1521.03,736.542 1521.03,734.796C1521.03,732.174 1520.12,729.913 1518.29,728.014C1516.35,725.952 1513.77,724.848 1510.46,724.848C1507.24,724.848 1504.65,725.933 1502.66,727.994C1502.65,727.996 1502.65,727.997 1502.65,727.999C1500.82,729.901 1499.9,732.167 1499.9,734.796C1499.9,736.241 1500.41,737.447 1501.39,738.43C1501.39,738.43 1501.39,738.43 1501.39,738.43C1502.39,739.424 1503.59,739.92 1504.99,739.92L1505.03,739.919ZM1510.46,753.12C1513.06,753.12 1515.16,752.292 1516.77,750.636C1518.18,749.172 1518.89,747.42 1518.89,745.38C1518.89,743.004 1517.92,741.156 1515.97,739.836C1515.9,739.764 1515.82,739.704 1515.72,739.656C1517.26,738.48 1518.03,736.86 1518.03,734.796C1518.03,732.972 1517.39,731.4 1516.12,730.08C1514.73,728.592 1512.84,727.848 1510.46,727.848C1508.14,727.848 1506.25,728.592 1504.81,730.08C1503.54,731.4 1502.9,732.972 1502.9,734.796C1502.9,735.396 1503.11,735.9 1503.52,736.308C1503.92,736.716 1504.42,736.92 1504.99,736.92C1505.57,736.92 1506.06,736.716 1506.47,736.308C1506.88,735.9 1507.08,735.396 1507.08,734.796C1507.08,734.124 1507.35,733.494 1507.89,732.906C1508.43,732.318 1509.29,732.024 1510.46,732.024C1511.64,732.024 1512.5,732.318 1513.04,732.906C1513.58,733.494 1513.85,734.124 1513.85,734.796C1513.85,735.492 1513.6,736.02 1513.09,736.38C1512.59,736.74 1511.5,737.16 1509.82,737.64L1509.75,737.676C1509.31,737.748 1508.93,737.946 1508.61,738.27C1508.29,738.594 1508.1,738.984 1508.05,739.44C1507.98,739.944 1508.08,740.418 1508.36,740.862C1508.63,741.306 1509.03,741.6 1509.53,741.744L1509.82,741.816C1511.76,742.368 1513.06,742.872 1513.7,743.328C1514.35,743.784 1514.68,744.468 1514.68,745.38C1514.68,746.244 1514.35,747.054 1513.69,747.81C1513.03,748.566 1511.95,748.944 1510.46,748.944C1508.98,748.944 1507.9,748.566 1507.24,747.81C1506.58,747.054 1506.25,746.244 1506.25,745.38C1506.25,744.804 1506.05,744.312 1505.64,743.904C1505.23,743.496 1504.74,743.292 1504.16,743.292C1503.59,743.292 1503.1,743.496 1502.69,743.904C1502.28,744.312 1502.08,744.804 1502.08,745.38C1502.08,747.468 1502.79,749.22 1504.2,750.636C1505.76,752.292 1507.85,753.12 1510.46,753.12ZM1509.22,744.766C1509.24,744.966 1509.25,745.171 1509.25,745.38C1509.25,745.552 1509.37,745.687 1509.5,745.837C1509.69,746.052 1510.04,745.944 1510.46,745.944C1510.89,745.944 1511.24,746.052 1511.43,745.837C1511.5,745.749 1511.58,745.666 1511.62,745.578C1511.1,745.323 1510.29,745.072 1509.22,744.766ZM1509.21,744.721L1509.21,744.732L1509.82,744.816L1509.21,744.721ZM1509.21,744.7L1509.21,744.706L1509.53,744.744L1509.21,744.7Z"/>
        </g>
        <g transform="matrix(3.22331,0,0,1.22362,-3324.92,-162.235)">
            <g transform="matrix(36,0,0,36,1501.36,753.12)">
                <path d="M0.253,-0C0.325,-0 0.383,-0.023 0.428,-0.069C0.467,-0.11 0.487,-0.158 0.487,-0.215C0.487,-0.281 0.46,-0.332 0.406,-0.369C0.404,-0.371 0.402,-0.373 0.399,-0.374C0.442,-0.407 0.463,-0.452 0.463,-0.509C0.463,-0.56 0.445,-0.603 0.41,-0.64C0.371,-0.681 0.319,-0.702 0.253,-0.702C0.188,-0.702 0.136,-0.681 0.096,-0.64C0.061,-0.603 0.043,-0.56 0.043,-0.509C0.043,-0.492 0.049,-0.478 0.06,-0.467C0.071,-0.456 0.085,-0.45 0.101,-0.45C0.117,-0.45 0.131,-0.456 0.142,-0.467C0.153,-0.478 0.159,-0.492 0.159,-0.509C0.159,-0.528 0.167,-0.545 0.182,-0.562C0.197,-0.578 0.22,-0.586 0.253,-0.586C0.286,-0.586 0.31,-0.578 0.325,-0.562C0.34,-0.545 0.347,-0.528 0.347,-0.509C0.347,-0.49 0.34,-0.475 0.326,-0.465C0.312,-0.455 0.282,-0.443 0.235,-0.43L0.233,-0.429C0.221,-0.427 0.211,-0.422 0.202,-0.412C0.193,-0.404 0.187,-0.393 0.186,-0.38C0.184,-0.366 0.187,-0.353 0.195,-0.341C0.202,-0.328 0.213,-0.32 0.227,-0.316L0.235,-0.314C0.289,-0.299 0.325,-0.285 0.343,-0.272C0.361,-0.259 0.37,-0.24 0.37,-0.215C0.37,-0.191 0.361,-0.169 0.343,-0.148C0.324,-0.127 0.294,-0.116 0.253,-0.116C0.212,-0.116 0.182,-0.127 0.164,-0.148C0.145,-0.169 0.136,-0.191 0.136,-0.215C0.136,-0.231 0.13,-0.245 0.119,-0.256C0.108,-0.267 0.094,-0.273 0.078,-0.273C0.062,-0.273 0.048,-0.267 0.037,-0.256C0.026,-0.245 0.02,-0.231 0.02,-0.215C0.02,-0.157 0.04,-0.108 0.079,-0.069C0.122,-0.023 0.18,-0 0.253,-0Z" style="fill:white;fill-rule:nonzero;"/>
            </g>
        </g>
    </g>
</svg>
