<?xml version="1.0" encoding="UTF-8" standalone="no"?>
<!DOCTYPE svg PUBLIC "-//W3C//DTD SVG 1.1//EN" "http://www.w3.org/Graphics/SVG/1.1/DTD/svg11.dtd">
<svg width="100%" height="100%" viewBox="0 0 101 101" version="1.1" xmlns="http://www.w3.org/2000/svg" xmlns:xlink="http://www.w3.org/1999/xlink" xml:space="preserve" xmlns:serif="http://www.serif.com/" style="fill-rule:evenodd;clip-rule:evenodd;stroke-linecap:round;stroke-linejoin:round;stroke-miterlimit:1.5;">
    <rect id="factory_2" x="0.548" y="0.44" width="100" height="100" style="fill:none;"/>
    <g id="Factory">
        <g id="Layer17">
            <path d="M10.716,60.76L39.206,57.647L39.46,66.566L11.173,69.873L10.716,60.76Z" style="fill:rgb(83,83,83);"/>
            <path d="M39.722,66.646C39.377,66.508 39.003,66.456 38.633,66.494C34.559,66.911 9.769,69.448 9.769,69.448L60.207,90.889L89.732,86.562C89.732,86.562 45.09,68.784 39.722,66.646Z" style="fill:rgb(83,83,83);"/>
            <path d="M90.827,87.756L61.161,91.045L60.746,81.841L90.865,78.506L90.867,78.537C93.202,78.317 95.222,80.152 95.391,82.664C95.563,85.2 93.784,87.472 91.421,87.734C91.221,87.756 91.022,87.763 90.827,87.756Z" style="fill:rgb(91,91,91);"/>
            <path d="M60.798,81.835C62.754,81.618 64.481,83.501 64.652,86.037C64.824,88.573 63.375,90.808 61.419,91.025C59.464,91.242 57.737,89.359 57.565,86.823C57.394,84.286 58.843,82.051 60.798,81.835Z" style="fill:rgb(147,147,147);"/>
            <path d="M60.798,81.835C62.754,81.618 64.481,83.501 64.652,86.037C64.824,88.573 63.375,90.808 61.419,91.025C59.464,91.242 57.737,89.359 57.565,86.823C57.394,84.286 58.843,82.051 60.798,81.835ZM60.964,83.325C61.469,83.269 61.928,83.524 62.289,83.917C62.782,84.454 63.095,85.243 63.156,86.138C63.218,87.059 63,87.929 62.575,88.584C62.248,89.089 61.801,89.473 61.254,89.534C60.749,89.59 60.289,89.335 59.929,88.942C59.436,88.405 59.123,87.617 59.062,86.721C59,85.8 59.218,84.931 59.643,84.275C59.97,83.77 60.417,83.386 60.964,83.325Z" style="fill:rgb(91,91,91);"/>
            <path d="M39.889,57.798C39.537,57.658 39.156,57.606 38.78,57.648C34.741,58.096 10.716,60.76 10.716,60.76L63.273,83.021L92.556,78.772C92.556,78.772 45.457,60.015 39.889,57.798Z" style="fill:rgb(91,91,91);"/>
            <path d="M10.89,60.746C12.846,60.529 14.571,62.385 14.74,64.887C14.909,67.389 13.459,69.596 11.503,69.813C9.547,70.03 7.822,68.175 7.653,65.673C7.484,63.171 8.934,60.963 10.89,60.746Z" style="fill:rgb(147,147,147);"/>
            <path d="M10.89,60.746C12.846,60.529 14.571,62.385 14.74,64.887C14.909,67.389 13.459,69.596 11.503,69.813C9.547,70.03 7.822,68.175 7.653,65.673C7.484,63.171 8.934,60.963 10.89,60.746ZM11.055,62.237C12.271,62.102 13.138,63.433 13.243,64.988C13.304,65.889 13.087,66.741 12.665,67.383C12.336,67.883 11.886,68.262 11.338,68.322C10.122,68.457 9.255,67.127 9.15,65.572C9.089,64.67 9.306,63.819 9.728,63.176C10.057,62.677 10.507,62.298 11.055,62.237L11.055,62.237Z" style="fill:rgb(91,91,91);"/>
        </g>
        <g id="Layer18">
            <g>
                <g id="Layer9">
                    <path d="M36.116,59.988L37.294,60.047L38.682,60.797L38.682,64.49C38.682,64.49 35.922,63.741 34.765,63.426C34.645,63.394 34.546,63.307 34.498,63.192C34.449,63.077 34.457,62.946 34.518,62.838C35.025,61.933 36.116,59.988 36.116,59.988Z" style="fill:rgb(206,206,206);"/>
                    <path d="M37.294,60.047L38.371,59.328L39.984,59.665L40.731,60.446L38.682,60.797L37.294,60.047Z" style="fill:rgb(234,234,234);"/>
                    <path d="M37.294,60.047L38.371,59.328L36.116,59.988L37.294,60.047Z" style="fill:rgb(173,170,170);"/>
                    <path d="M38.682,60.797L40.731,60.446C40.731,60.446 41.74,62.29 42.25,63.222C42.317,63.345 42.321,63.492 42.262,63.619C42.202,63.745 42.086,63.836 41.948,63.862C40.868,64.07 38.682,64.49 38.682,64.49L38.682,60.797Z" style="fill:rgb(213,213,213);"/>
                </g>
            </g>
            <g>
                <g id="Layer91" serif:id="Layer9">
                    <path d="M30.5,59.375L31.187,59.409L31.996,59.846L31.996,61.999C31.996,61.999 30.671,61.639 29.921,61.435C29.801,61.403 29.703,61.316 29.654,61.201C29.606,61.086 29.613,60.956 29.674,60.847C29.994,60.278 30.5,59.375 30.5,59.375Z" style="fill:rgb(206,206,206);"/>
                    <path d="M31.187,59.409L31.815,58.99L32.755,59.186L33.19,59.642L31.996,59.846L31.187,59.409Z" style="fill:rgb(234,234,234);"/>
                    <path d="M31.187,59.409L31.815,58.99L30.5,59.375L31.187,59.409Z" style="fill:rgb(173,170,170);"/>
                    <path d="M31.996,59.846L33.19,59.642C33.19,59.642 33.643,60.47 33.955,61.04C34.022,61.163 34.027,61.31 33.967,61.437C33.908,61.563 33.791,61.654 33.654,61.68C32.988,61.808 31.996,61.999 31.996,61.999L31.996,59.846Z" style="fill:rgb(213,213,213);"/>
                </g>
            </g>
            <g>
                <g id="Layer92" serif:id="Layer9">
                    <path d="M24.326,61.026L25.145,61.067L26.11,61.588L26.11,64.157C26.11,64.157 24.409,63.695 23.539,63.459C23.418,63.426 23.32,63.34 23.271,63.225C23.223,63.11 23.231,62.979 23.292,62.87C23.667,62.201 24.326,61.026 24.326,61.026Z" style="fill:rgb(206,206,206);"/>
                    <path d="M25.145,61.067L25.894,60.567L27.016,60.801L27.535,61.345L26.11,61.588L25.145,61.067Z" style="fill:rgb(234,234,234);"/>
                    <path d="M25.145,61.067L25.894,60.567L24.326,61.026L25.145,61.067Z" style="fill:rgb(173,170,170);"/>
                    <path d="M26.11,61.588L27.535,61.345C27.535,61.345 28.133,62.437 28.504,63.115C28.571,63.238 28.576,63.385 28.516,63.511C28.456,63.638 28.34,63.728 28.203,63.755C27.413,63.907 26.11,64.157 26.11,64.157L26.11,61.588Z" style="fill:rgb(213,213,213);"/>
                </g>
            </g>
            <g>
                <g id="Layer93" serif:id="Layer9">
                    <path d="M44.808,67.033L45.628,67.097L46.593,67.907L46.593,71.9C46.593,71.9 44.682,71.093 43.874,70.752C43.676,70.668 43.578,70.444 43.651,70.242C43.978,69.335 44.808,67.033 44.808,67.033Z" style="fill:rgb(206,206,206);"/>
                    <path d="M45.628,67.097L46.377,66.319L47.499,66.683L48.018,67.528L46.593,67.907L45.628,67.097Z" style="fill:rgb(234,234,234);"/>
                    <path d="M45.628,67.097L46.377,66.319L44.808,67.033L45.628,67.097Z" style="fill:rgb(173,170,170);"/>
                    <path d="M46.593,67.907L48.018,67.528C48.018,67.528 48.788,69.714 49.122,70.665C49.162,70.778 49.154,70.902 49.1,71.009C49.045,71.116 48.95,71.195 48.835,71.23C48.074,71.457 46.593,71.9 46.593,71.9L46.593,67.907Z" style="fill:rgb(213,213,213);"/>
                </g>
            </g>
            <g>
                <g id="Layer94" serif:id="Layer9">
                    <path d="M39.489,65.451L39.981,65.489L40.561,65.976L40.561,68.375C40.561,68.375 39.604,67.971 39.068,67.745C38.87,67.661 38.772,67.437 38.845,67.235C39.065,66.624 39.489,65.451 39.489,65.451Z" style="fill:rgb(206,206,206);"/>
                    <path d="M39.981,65.489L40.431,65.022L41.105,65.24L41.417,65.748L40.561,65.976L39.981,65.489Z" style="fill:rgb(234,234,234);"/>
                    <path d="M39.981,65.489L40.431,65.022L39.489,65.451L39.981,65.489Z" style="fill:rgb(173,170,170);"/>
                    <path d="M40.561,65.976L41.417,65.748C41.417,65.748 41.8,66.834 42.02,67.46C42.06,67.573 42.052,67.698 41.997,67.804C41.943,67.911 41.847,67.991 41.733,68.025C41.256,68.168 40.561,68.375 40.561,68.375L40.561,65.976Z" style="fill:rgb(213,213,213);"/>
                </g>
            </g>
            <g id="Stone">
                <g id="Rock_Base">
                    <path d="M33.795,65.606L31.85,62.115C31.796,62.146 31.747,62.182 31.702,62.224L30.7,63.163C30.538,63.317 30.439,63.527 30.425,63.75L30.413,63.919L30.288,65.705C30.279,65.839 30.299,65.974 30.347,66.099L30.534,66.579C30.584,66.71 30.666,66.826 30.773,66.918L33.795,65.606Z" style="fill:rgb(206,206,206);fill-rule:nonzero;"/>
                    <path d="M35.721,66.754C35.776,66.703 35.819,66.659 35.819,66.659L33.795,65.606L30.773,66.917C30.826,66.963 30.885,67.002 30.948,67.032C31.02,67.066 31.1,67.082 31.18,67.078L35.418,66.883C35.531,66.877 35.638,66.831 35.721,66.754Z" style="fill:rgb(128,128,128);fill-rule:nonzero;"/>
                    <path d="M36.455,63.932L36.029,63.054L35.728,62.433C35.678,62.329 35.608,62.237 35.521,62.161L33.795,65.606L35.815,66.665C35.885,66.577 35.937,66.477 35.969,66.37L36.23,65.508L36.507,64.594C36.573,64.374 36.555,64.138 36.455,63.932Z" style="fill:rgb(213,213,213);fill-rule:nonzero;"/>
                    <path d="M31.85,62.115L33.796,65.606L35.522,62.161C35.437,62.087 35.336,62.032 35.226,62.001L33.911,61.625L33.839,61.604C33.697,61.563 33.546,61.565 33.405,61.609L33.33,61.633L32.01,62.044C31.954,62.062 31.9,62.085 31.85,62.115Z" style="fill:rgb(234,234,234);fill-rule:nonzero;"/>
                </g>
                <g id="Rock_Base1" serif:id="Rock_Base">
                    <path d="M59.142,74.959L56.093,69.488C56.01,69.536 55.932,69.593 55.862,69.659L54.292,71.13C54.037,71.371 53.883,71.7 53.861,72.051L53.842,72.316L53.646,75.114C53.631,75.325 53.663,75.536 53.739,75.732L54.031,76.484C54.11,76.689 54.239,76.872 54.405,77.015L59.142,74.959Z" style="fill:rgb(206,206,206);fill-rule:nonzero;"/>
                    <path d="M62.162,76.758C62.248,76.679 62.315,76.609 62.315,76.609L59.142,74.959L54.405,77.015C54.489,77.086 54.581,77.147 54.68,77.194C54.794,77.248 54.919,77.272 55.045,77.266L61.686,76.96C61.863,76.951 62.031,76.879 62.162,76.758Z" style="fill:rgb(128,128,128);fill-rule:nonzero;"/>
                    <path d="M63.312,72.336L62.644,70.959L62.173,69.986C62.094,69.824 61.984,69.679 61.847,69.561L59.142,74.959L62.308,76.619C62.417,76.481 62.499,76.324 62.55,76.156L62.958,74.806L63.394,73.372C63.497,73.029 63.468,72.659 63.312,72.336Z" style="fill:rgb(213,213,213);fill-rule:nonzero;"/>
                    <path d="M56.093,69.488L59.144,74.959L61.85,69.561C61.715,69.444 61.557,69.358 61.386,69.308L59.324,68.719L59.211,68.687C58.989,68.623 58.752,68.626 58.531,68.695L58.414,68.732L56.344,69.377C56.257,69.404 56.173,69.441 56.093,69.488Z" style="fill:rgb(234,234,234);fill-rule:nonzero;"/>
                </g>
                <g id="Rock_Base2" serif:id="Rock_Base">
                    <path d="M47.551,65.05L46.226,62.671C46.19,62.692 46.156,62.717 46.126,62.746L45.443,63.385C45.332,63.49 45.265,63.633 45.255,63.785L45.247,63.901L45.162,65.117C45.156,65.209 45.169,65.3 45.202,65.386L45.329,65.713C45.364,65.802 45.42,65.881 45.492,65.944L47.551,65.05Z" style="fill:rgb(206,206,206);fill-rule:nonzero;"/>
                    <path d="M48.864,65.832C48.901,65.798 48.931,65.767 48.931,65.767L47.551,65.05L45.492,65.943C45.528,65.975 45.569,66.001 45.612,66.021C45.661,66.045 45.716,66.056 45.77,66.053L48.657,65.92C48.734,65.916 48.807,65.885 48.864,65.832Z" style="fill:rgb(128,128,128);fill-rule:nonzero;"/>
                    <path d="M49.364,63.91L49.074,63.311L48.869,62.888C48.835,62.817 48.787,62.754 48.727,62.703L47.551,65.05L48.928,65.771C48.975,65.712 49.011,65.643 49.033,65.57L49.21,64.983L49.4,64.36C49.445,64.211 49.432,64.05 49.364,63.91Z" style="fill:rgb(213,213,213);fill-rule:nonzero;"/>
                    <path d="M46.226,62.671L47.552,65.05L48.728,62.703C48.67,62.652 48.601,62.615 48.527,62.593L47.63,62.337L47.581,62.323C47.485,62.295 47.382,62.297 47.286,62.327L47.235,62.343L46.335,62.623C46.297,62.635 46.26,62.651 46.226,62.671Z" style="fill:rgb(234,234,234);fill-rule:nonzero;"/>
                </g>
            </g>
            <g>
                <path d="M69.827,77.776C69.777,77.907 69.792,78.053 69.866,78.172C69.94,78.29 70.065,78.367 70.204,78.379C71.946,78.533 76.964,78.976 76.964,78.976C76.964,78.976 80.099,77.366 81.13,76.836C81.215,76.793 81.279,76.716 81.307,76.625C81.335,76.534 81.325,76.435 81.279,76.351C80.635,75.178 78.402,71.113 77.729,69.889C77.617,69.685 77.375,69.59 77.154,69.663C76.13,70.002 73.341,70.925 72.533,71.192C72.393,71.239 72.28,71.346 72.228,71.484C71.86,72.447 70.381,76.326 69.827,77.776Z" style="fill:rgb(255,203,0);"/>
                <path d="M75.4,73.334L76.964,78.976C76.964,78.976 71.946,78.533 70.204,78.379C70.065,78.367 69.94,78.29 69.866,78.172C69.792,78.053 69.777,77.907 69.827,77.776C70.298,76.542 71.396,73.664 71.396,73.664L75.4,73.334Z" style="fill-opacity:0.15;"/>
                <path d="M77.536,69.537L75.4,73.334L76.964,78.976C76.964,78.976 80.099,77.366 81.13,76.836C81.215,76.793 81.279,76.716 81.307,76.625C81.335,76.534 81.325,76.435 81.279,76.351C80.517,74.965 77.536,69.537 77.536,69.537Z" style="fill:white;fill-opacity:0.15;"/>
                <path d="M78.087,70.54L76.018,74.3C75.872,74.565 75.969,74.899 76.235,75.045C76.5,75.191 76.834,75.094 76.98,74.829L78.713,71.68L78.087,70.54Z" style="fill:white;fill-opacity:0.85;"/>
                <path d="M79.224,72.611L79.004,72.98L76.903,76.798C76.678,77.208 76.828,77.724 77.238,77.95C77.648,78.176 78.164,78.026 78.39,77.616L80.183,74.356L79.224,72.611Z" style="fill:white;fill-opacity:0.85;"/>
                <path d="M71.65,73.643L75.4,73.334L77.347,69.872" style="fill:none;stroke:white;stroke-opacity:0.85;stroke-width:0.5px;"/>
            </g>
            <g>
                <path d="M63.62,74.435C63.57,74.566 63.584,74.712 63.658,74.83C63.732,74.949 63.858,75.026 63.997,75.038C65.201,75.144 67.838,75.377 67.838,75.377C67.838,75.377 69.503,74.522 70.221,74.153C70.306,74.11 70.37,74.033 70.398,73.942C70.426,73.85 70.416,73.752 70.37,73.668C69.938,72.882 68.826,70.858 68.376,70.039C68.264,69.835 68.023,69.74 67.802,69.813C67.137,70.033 65.787,70.48 65.255,70.656C65.115,70.702 65.003,70.81 64.95,70.948C64.705,71.59 63.981,73.488 63.62,74.435Z" style="fill:rgb(255,203,0);"/>
                <path d="M66.895,71.976L67.838,75.377C67.838,75.377 65.201,75.144 63.997,75.038C63.858,75.026 63.732,74.949 63.658,74.83C63.584,74.712 63.57,74.566 63.62,74.435C63.932,73.617 64.482,72.175 64.482,72.175L66.895,71.976Z" style="fill-opacity:0.15;"/>
                <path d="M68.183,69.687L66.895,71.976L67.838,75.377C67.838,75.377 69.503,74.522 70.221,74.153C70.306,74.11 70.37,74.033 70.398,73.942C70.426,73.85 70.416,73.752 70.37,73.668C69.823,72.672 68.183,69.687 68.183,69.687Z" style="fill:white;fill-opacity:0.15;"/>
                <path d="M68.515,70.292L67.268,72.558C67.18,72.718 67.239,72.92 67.399,73.008C67.559,73.096 67.76,73.037 67.848,72.877L68.893,70.979L68.515,70.292Z" style="fill:white;fill-opacity:0.85;"/>
                <path d="M69.201,71.54L69.068,71.763L67.802,74.064C67.666,74.311 67.756,74.623 68.003,74.759C68.251,74.895 68.562,74.804 68.698,74.557L69.779,72.592L69.201,71.54Z" style="fill:white;fill-opacity:0.85;"/>
                <path d="M64.764,72.152L66.895,71.976L67.973,70.061" style="fill:none;stroke:white;stroke-opacity:0.85;stroke-width:0.5px;"/>
            </g>
            <g>
                <path d="M60.816,79.792C60.766,79.922 60.781,80.069 60.855,80.187C60.929,80.305 61.054,80.382 61.193,80.394C62.398,80.501 65.035,80.734 65.035,80.734C65.035,80.734 66.699,79.879 67.418,79.51C67.503,79.466 67.567,79.39 67.595,79.299C67.623,79.207 67.612,79.108 67.566,79.024C67.135,78.238 66.023,76.214 65.573,75.395C65.461,75.191 65.219,75.096 64.998,75.17C64.334,75.39 62.983,75.836 62.452,76.012C62.312,76.059 62.199,76.166 62.147,76.304C61.902,76.947 61.178,78.845 60.816,79.792Z" style="fill:rgb(255,203,0);"/>
                <path d="M64.092,77.332L65.035,80.734C65.035,80.734 62.398,80.501 61.193,80.394C61.054,80.382 60.929,80.305 60.855,80.187C60.781,80.069 60.766,79.922 60.816,79.792C61.128,78.973 61.679,77.531 61.679,77.531L64.092,77.332Z" style="fill-opacity:0.15;"/>
                <path d="M65.38,75.043L64.092,77.332L65.035,80.734C65.035,80.734 66.699,79.879 67.418,79.51C67.503,79.466 67.567,79.39 67.595,79.299C67.623,79.207 67.612,79.108 67.566,79.024C67.019,78.028 65.38,75.043 65.38,75.043Z" style="fill:white;fill-opacity:0.15;"/>
                <path d="M65.712,75.648L64.465,77.915C64.377,78.075 64.435,78.276 64.595,78.364C64.755,78.452 64.957,78.394 65.045,78.234L66.089,76.335L65.712,75.648Z" style="fill:white;fill-opacity:0.85;"/>
                <path d="M66.398,76.897L66.265,77.119L64.998,79.421C64.862,79.668 64.953,79.979 65.2,80.115C65.447,80.251 65.758,80.161 65.894,79.914L66.975,77.949L66.398,76.897Z" style="fill:white;fill-opacity:0.85;"/>
                <path d="M61.929,77.511L64.092,77.332L65.175,75.407" style="fill:none;stroke:white;stroke-opacity:0.85;stroke-width:0.5px;"/>
            </g>
        </g>
        <g id="Layer16">
            <path d="M58.541,36.387C57.263,36.962 55.757,36.391 55.182,35.113C54.607,33.834 55.178,32.329 56.457,31.753L66.373,27.292C67.652,26.717 69.157,27.288 69.733,28.567C70.308,29.846 69.737,31.351 68.458,31.926L58.541,36.387Z" style="fill:rgb(188,54,86);"/>
            <path d="M77.552,41.731C78.25,43.339 77.511,45.21 75.904,45.908C74.296,46.606 72.424,45.868 71.726,44.26L66.252,31.649C65.554,30.041 66.292,28.169 67.9,27.472C69.508,26.774 71.379,27.512 72.077,29.12L77.552,41.731Z" style="fill:rgb(188,54,86);"/>
            <g>
                <path d="M52.496,35.275C53.204,34.065 54.762,33.658 55.972,34.367C57.182,35.075 57.589,36.633 56.88,37.843L53.06,44.366C52.352,45.576 50.794,45.983 49.584,45.275C48.374,44.566 47.967,43.009 48.676,41.799L52.496,35.275Z" style="fill:rgb(188,54,86);"/>
                <g>
                    <path d="M47.981,48.207L40.5,61" style="fill:none;stroke:rgb(128,238,35);stroke-width:3.84px;"/>
                    <path d="M45.355,46.394C44.64,47.961 45.332,49.813 46.899,50.528C48.465,51.243 50.318,50.552 51.033,48.985C51.748,47.418 51.056,45.566 49.489,44.851C47.922,44.136 46.07,44.828 45.355,46.394Z" style="fill:rgb(128,238,35);"/>
                    <path d="M47.981,48.207L40.5,61" style="fill:none;stroke:white;stroke-width:1.59px;"/>
                    <path d="M46.316,46.833C45.844,47.869 46.301,49.094 47.337,49.567C48.373,50.04 49.599,49.583 50.071,48.546C50.544,47.51 50.087,46.285 49.051,45.812C48.014,45.339 46.789,45.797 46.316,46.833Z" style="fill:white;"/>
                </g>
                <path d="M44.658,44.525C44.241,44.511 43.886,44.219 43.792,43.813C43.698,43.407 43.889,42.989 44.256,42.794C46.105,41.761 48.612,41.796 50.777,43.064C52.942,44.332 54.199,46.501 54.228,48.618C54.237,49.045 53.958,49.425 53.548,49.545C53.137,49.664 52.698,49.494 52.475,49.128C51.703,47.957 50.533,46.82 49.077,45.967C47.62,45.114 46.056,44.651 44.658,44.525Z" style="fill:rgb(188,54,86);"/>
            </g>
            <path d="M82.012,49.861C80.592,48.026 78.401,46.951 76.08,46.951C73.759,46.951 71.569,48.026 70.149,49.861C68.905,51.469 67.654,53.087 66.605,54.443C66.108,55.085 66.02,55.954 66.378,56.683C66.735,57.411 67.476,57.873 68.288,57.873C72.691,57.873 79.47,57.873 83.873,57.873C84.685,57.873 85.426,57.411 85.783,56.683C86.141,55.954 86.053,55.085 85.556,54.443C84.507,53.087 83.255,51.469 82.012,49.861Z" style="fill:rgb(188,54,86);"/>
            <circle cx="75.981" cy="46.369" r="4.082" style="fill:rgb(188,54,86);"/>
            <path d="M75.981,42.287C73.728,42.287 71.899,44.116 71.899,46.369C71.899,48.622 73.728,50.451 75.981,50.451C78.234,50.451 80.063,48.622 80.063,46.369C80.063,44.116 78.234,42.287 75.981,42.287ZM75.981,43.202C77.729,43.202 79.148,44.621 79.148,46.369C79.148,48.117 77.729,49.536 75.981,49.536C74.233,49.536 72.814,48.117 72.814,46.369C72.814,44.621 74.233,43.202 75.981,43.202Z" style="fill:rgb(255,198,198);"/>
            <circle cx="68.784" cy="29.881" r="3.463" style="fill:rgb(188,54,86);"/>
            <path d="M68.784,26.418C66.872,26.418 65.321,27.97 65.321,29.881C65.321,31.792 66.872,33.344 68.784,33.344C70.695,33.344 72.247,31.792 72.247,29.881C72.247,27.97 70.695,26.418 68.784,26.418ZM68.784,27.333C70.19,27.333 71.332,28.475 71.332,29.881C71.332,31.288 70.19,32.429 68.784,32.429C67.377,32.429 66.235,31.288 66.235,29.881C66.235,28.475 67.377,27.333 68.784,27.333Z" style="fill:rgb(255,198,198);"/>
            <path d="M54.502,31.914C53.116,32.787 52.7,34.621 53.573,36.007C54.447,37.393 56.281,37.809 57.667,36.936C59.053,36.063 59.469,34.228 58.596,32.842C57.722,31.456 55.888,31.04 54.502,31.914Z" style="fill:rgb(188,54,86);"/>
            <path d="M54.502,31.914C53.116,32.787 52.7,34.621 53.573,36.007C54.447,37.393 56.281,37.809 57.667,36.936C59.053,36.063 59.469,34.228 58.596,32.842C57.722,31.456 55.888,31.04 54.502,31.914ZM54.99,32.688C55.948,32.083 57.217,32.371 57.822,33.33C58.426,34.289 58.138,35.558 57.179,36.162C56.22,36.766 54.951,36.478 54.347,35.52C53.743,34.561 54.031,33.292 54.99,32.688Z" style="fill:rgb(255,198,198);"/>
            <path d="M66.152,55.762C66.152,54.597 67.098,53.651 68.263,53.651L83.838,53.651C85.003,53.651 85.949,54.597 85.949,55.762C85.949,56.927 85.003,57.873 83.838,57.873L68.263,57.873C67.098,57.873 66.152,56.927 66.152,55.762Z" style="fill-opacity:0.41;"/>
        </g>
        <g id="Layer161" serif:id="Layer16">
            <path d="M39.998,50.112C41.457,49.603 42.228,48.004 41.719,46.545C41.209,45.086 39.611,44.315 38.152,44.825L23.862,49.813C22.403,50.322 21.632,51.92 22.141,53.379C22.65,54.838 24.249,55.609 25.708,55.1L39.998,50.112Z" style="fill:rgb(188,54,86);"/>
            <path d="M16.024,69.216C15.569,71.093 16.723,72.986 18.601,73.441C20.478,73.897 22.371,72.742 22.826,70.865L26.398,56.139C26.853,54.262 25.698,52.368 23.821,51.913C21.944,51.458 20.051,52.612 19.595,54.489L16.024,69.216Z" style="fill:rgb(188,54,86);"/>
            <g>
                <path d="M43.87,45.754C42.998,44.479 41.254,44.152 39.978,45.024C38.703,45.897 38.376,47.641 39.248,48.916L45.993,58.776C46.866,60.051 48.61,60.378 49.886,59.506C51.161,58.633 51.488,56.889 50.616,55.614L43.87,45.754Z" style="fill:rgb(188,54,86);"/>
                <g>
                    <path d="M51.875,62.605L57.824,71.313" style="fill:none;stroke:rgb(128,238,35);stroke-width:4.23px;"/>
                    <path d="M54.622,60.409C55.529,62.077 54.912,64.167 53.245,65.074C51.577,65.981 49.487,65.364 48.58,63.697C47.673,62.03 48.29,59.94 49.957,59.032C51.625,58.125 53.715,58.742 54.622,60.409Z" style="fill:rgb(128,238,35);"/>
                    <path d="M51.875,62.605L57.824,71.313" style="fill:none;stroke:white;stroke-width:1.76px;"/>
                    <path d="M53.599,60.966C54.199,62.069 53.791,63.451 52.688,64.051C51.585,64.651 50.203,64.243 49.603,63.14C49.003,62.038 49.411,60.655 50.514,60.055C51.617,59.455 52.999,59.863 53.599,60.966Z" style="fill:white;"/>
                </g>
                <path d="M55.529,58.258C55.941,58.229 56.284,57.929 56.367,57.524C56.45,57.119 56.254,56.709 55.886,56.52C53.732,55.352 50.807,55.523 48.403,57.167C46,58.811 44.781,61.476 45.07,63.909C45.115,64.327 45.433,64.665 45.848,64.736C46.263,64.806 46.674,64.592 46.855,64.212C47.615,62.788 48.865,61.344 50.497,60.227C52.129,59.111 53.928,58.469 55.529,58.258Z" style="fill:rgb(188,54,86);"/>
            </g>
            <path d="M12.831,75.635C14.251,73.799 16.441,72.725 18.762,72.725C21.083,72.725 23.273,73.799 24.693,75.635C26.366,77.798 28.103,80.043 29.477,81.819C29.973,82.461 30.061,83.33 29.704,84.059C29.346,84.787 28.605,85.249 27.794,85.249C22.818,85.249 14.706,85.249 9.73,85.249C8.919,85.249 8.178,84.787 7.82,84.059C7.462,83.33 7.551,82.461 8.047,81.819C9.421,80.043 11.158,77.798 12.831,75.635Z" style="fill:rgb(188,54,86);"/>
            <circle cx="18.306" cy="72.408" r="4.499" style="fill:rgb(188,54,86);"/>
            <path d="M18.306,67.909C20.789,67.909 22.805,69.925 22.805,72.408C22.805,74.891 20.789,76.907 18.306,76.907C15.823,76.907 13.807,74.891 13.807,72.408C13.807,69.925 15.823,67.909 18.306,67.909ZM18.306,68.824C20.284,68.824 21.89,70.43 21.89,72.408C21.89,74.386 20.284,75.992 18.306,75.992C16.328,75.992 14.722,74.386 14.722,72.408C14.722,70.43 16.328,68.824 18.306,68.824Z" style="fill:rgb(255,198,198);"/>
            <circle cx="23.476" cy="53.474" r="3.817" style="fill:rgb(188,54,86);"/>
            <path d="M23.476,49.657C25.583,49.657 27.294,51.368 27.294,53.474C27.294,55.581 25.583,57.291 23.476,57.291C21.37,57.291 19.659,55.581 19.659,53.474C19.659,51.368 21.37,49.657 23.476,49.657ZM23.476,50.572C25.078,50.572 26.379,51.872 26.379,53.474C26.379,55.076 25.078,56.376 23.476,56.376C21.875,56.376 20.574,55.076 20.574,53.474C20.574,51.872 21.875,50.572 23.476,50.572Z" style="fill:rgb(255,198,198);"/>
            <circle cx="40.885" cy="47.473" r="3.272" style="fill:rgb(188,54,86);"/>
            <path d="M40.885,44.201C42.691,44.201 44.156,45.667 44.156,47.473C44.156,49.279 42.691,50.745 40.885,50.745C39.079,50.745 37.613,49.279 37.613,47.473C37.613,45.667 39.079,44.201 40.885,44.201ZM40.885,45.116C42.186,45.116 43.242,46.172 43.242,47.473C43.242,48.774 42.186,49.83 40.885,49.83C39.584,49.83 38.528,48.774 38.528,47.473C38.528,46.172 39.584,45.116 40.885,45.116Z" style="fill:rgb(255,198,198);"/>
            <path d="M29.922,83.099C29.922,81.912 28.958,80.949 27.771,80.949L9.753,80.949C8.566,80.949 7.602,81.912 7.602,83.099C7.602,84.286 8.566,85.249 9.753,85.249L27.771,85.249C28.958,85.249 29.922,84.286 29.922,83.099Z" style="fill-opacity:0.41;"/>
        </g>
    </g>
    <g transform="matrix(0.31024,0,0,0.817245,-399.279,-582.459)">
        <g transform="matrix(3.22331,0,0,1.22362,-3324.92,-162.235)">
            <path d="M1505.16,740.456C1504.68,740.849 1504.11,741.359 1503.45,741.985C1502.49,742.883 1501.77,743.722 1501.27,744.484C1500.75,745.258 1500.29,746.198 1499.88,747.313C1499.45,748.503 1499.24,749.743 1499.24,751.032C1499.24,752.436 1499.74,753.635 1500.73,754.63C1500.73,754.63 1500.73,754.63 1500.73,754.63C1501.72,755.624 1502.92,756.12 1504.33,756.12L1516.64,756.12C1518.04,756.12 1519.24,755.624 1520.24,754.63C1521.23,753.635 1521.73,752.436 1521.73,751.032C1521.73,749.629 1521.23,748.429 1520.24,747.435C1519.24,746.441 1518.04,745.944 1516.64,745.944L1514.82,745.944C1515.43,745.492 1515.92,745.106 1516.3,744.791C1516.94,744.266 1517.71,743.536 1518.61,742.595C1519.7,741.449 1520.48,740.252 1520.97,739.024C1521.47,737.782 1521.73,736.434 1521.73,734.976C1521.73,732.31 1520.8,729.999 1518.92,728.048C1516.96,725.965 1514.34,724.848 1510.99,724.848C1507.77,724.848 1505.19,725.958 1503.2,728.083C1501.21,730.201 1500.25,732.637 1500.25,735.372C1500.25,736.776 1500.74,737.975 1501.74,738.97C1501.74,738.97 1501.74,738.97 1501.74,738.97C1502.69,739.922 1503.83,740.417 1505.16,740.456ZM1516.64,753.12C1517.21,753.12 1517.71,752.916 1518.12,752.508C1518.52,752.1 1518.73,751.608 1518.73,751.032C1518.73,750.456 1518.52,749.964 1518.12,749.556C1517.71,749.148 1517.21,748.944 1516.64,748.944L1506.95,748.944C1507.34,748.248 1507.91,747.564 1508.66,746.892C1509.42,746.22 1510.5,745.38 1511.89,744.372C1512.99,743.58 1513.83,742.95 1514.39,742.482C1514.95,742.014 1515.64,741.36 1516.44,740.52C1517.25,739.68 1517.83,738.81 1518.19,737.91C1518.55,737.01 1518.73,736.032 1518.73,734.976C1518.73,733.104 1518.07,731.484 1516.75,730.116C1515.33,728.604 1513.41,727.848 1510.99,727.848C1508.68,727.848 1506.82,728.61 1505.39,730.134C1503.96,731.658 1503.25,733.404 1503.25,735.372C1503.25,735.948 1503.45,736.44 1503.86,736.848C1504.27,737.256 1504.76,737.46 1505.34,737.46C1505.91,737.46 1506.4,737.256 1506.81,736.848C1507.22,736.44 1507.42,735.948 1507.42,735.372C1507.42,734.652 1507.7,733.914 1508.25,733.158C1508.8,732.402 1509.71,732.024 1510.99,732.024C1512.24,732.024 1513.14,732.336 1513.7,732.96C1514.27,733.584 1514.55,734.256 1514.55,734.976C1514.55,735.528 1514.44,736.05 1514.21,736.542C1513.98,737.034 1513.57,737.568 1512.97,738.144C1512.37,738.72 1511.86,739.164 1511.45,739.476C1511.05,739.788 1510.38,740.292 1509.44,740.988C1508.53,741.636 1507.83,742.152 1507.35,742.536C1506.87,742.92 1506.25,743.466 1505.5,744.174C1504.74,744.882 1504.16,745.536 1503.77,746.136C1503.37,746.736 1503.02,747.468 1502.71,748.332C1502.39,749.196 1502.24,750.096 1502.24,751.032C1502.24,751.608 1502.44,752.1 1502.85,752.508C1503.26,752.916 1503.75,753.12 1504.33,753.12L1516.64,753.12ZM1511.54,735.084C1511.41,735.061 1511.16,735.024 1510.99,735.024C1510.85,735.024 1510.67,735.051 1510.57,735.068C1510.49,735.17 1510.42,735.264 1510.42,735.372C1510.42,735.775 1510.38,736.161 1510.3,736.53C1510.48,736.367 1510.68,736.183 1510.89,735.98C1511.16,735.719 1511.38,735.504 1511.49,735.281C1511.52,735.218 1511.53,735.152 1511.54,735.084Z"/>
        </g>
        <g transform="matrix(3.22331,0,0,1.22362,-3324.92,-162.235)">
            <g transform="matrix(36,0,0,36,1501.52,753.12)">
                <path d="M0.42,-0C0.436,-0 0.45,-0.006 0.461,-0.017C0.472,-0.028 0.478,-0.042 0.478,-0.058C0.478,-0.074 0.472,-0.088 0.461,-0.099C0.45,-0.11 0.436,-0.116 0.42,-0.116L0.151,-0.116C0.162,-0.135 0.178,-0.154 0.199,-0.173C0.22,-0.192 0.249,-0.215 0.288,-0.243C0.319,-0.265 0.342,-0.282 0.358,-0.296C0.373,-0.309 0.392,-0.327 0.414,-0.35C0.437,-0.373 0.453,-0.398 0.463,-0.423C0.473,-0.448 0.478,-0.475 0.478,-0.504C0.478,-0.556 0.46,-0.601 0.423,-0.639C0.384,-0.681 0.33,-0.702 0.263,-0.702C0.199,-0.702 0.147,-0.681 0.108,-0.639C0.068,-0.596 0.048,-0.548 0.048,-0.493C0.048,-0.477 0.054,-0.463 0.065,-0.452C0.076,-0.441 0.09,-0.435 0.106,-0.435C0.122,-0.435 0.136,-0.441 0.147,-0.452C0.158,-0.463 0.164,-0.477 0.164,-0.493C0.164,-0.513 0.172,-0.534 0.187,-0.555C0.202,-0.576 0.228,-0.586 0.263,-0.586C0.298,-0.586 0.323,-0.577 0.339,-0.56C0.354,-0.543 0.362,-0.524 0.362,-0.504C0.362,-0.489 0.359,-0.474 0.353,-0.461C0.346,-0.447 0.335,-0.432 0.318,-0.416C0.301,-0.4 0.287,-0.388 0.276,-0.379C0.265,-0.37 0.246,-0.356 0.22,-0.337C0.195,-0.319 0.175,-0.305 0.162,-0.294C0.149,-0.283 0.132,-0.268 0.111,-0.249C0.09,-0.229 0.074,-0.211 0.063,-0.194C0.051,-0.177 0.042,-0.157 0.033,-0.133C0.024,-0.109 0.02,-0.084 0.02,-0.058C0.02,-0.042 0.026,-0.028 0.037,-0.017C0.048,-0.006 0.062,-0 0.078,-0L0.42,-0Z" style="fill:white;fill-rule:nonzero;"/>
            </g>
        </g>
    </g>
</svg>
