<?xml version="1.0" encoding="UTF-8" standalone="no"?>
<!DOCTYPE svg PUBLIC "-//W3C//DTD SVG 1.1//EN" "http://www.w3.org/Graphics/SVG/1.1/DTD/svg11.dtd">
<svg width="100%" height="100%" viewBox="0 0 101 101" version="1.1" xmlns="http://www.w3.org/2000/svg" xmlns:xlink="http://www.w3.org/1999/xlink" xml:space="preserve" xmlns:serif="http://www.serif.com/" style="fill-rule:evenodd;clip-rule:evenodd;stroke-linecap:round;stroke-linejoin:round;stroke-miterlimit:1.5;">
    <rect id="factory_5" x="0.918" y="0.44" width="100" height="100" style="fill:none;"/>
    <g id="Factory">
        <g id="Layer17">
            <path d="M11.087,60.76L39.576,57.647L39.831,66.566L11.543,69.873L11.087,60.76Z" style="fill:rgb(83,83,83);"/>
            <path d="M40.093,66.646C39.747,66.508 39.373,66.456 39.003,66.494C34.93,66.911 10.139,69.448 10.139,69.448L60.577,90.889L90.103,86.562C90.103,86.562 45.461,68.784 40.093,66.646Z" style="fill:rgb(83,83,83);"/>
            <path d="M91.197,87.756L61.532,91.045L61.117,81.841L91.236,78.506L91.238,78.537C93.572,78.317 95.592,80.152 95.762,82.664C95.933,85.2 94.154,87.472 91.792,87.734C91.591,87.756 91.393,87.763 91.197,87.756Z" style="fill:rgb(91,91,91);"/>
            <path d="M61.169,81.835C63.125,81.618 64.851,83.501 65.023,86.037C65.194,88.573 63.746,90.808 61.79,91.025C59.834,91.242 58.107,89.359 57.936,86.823C57.765,84.286 59.213,82.051 61.169,81.835Z" style="fill:rgb(147,147,147);"/>
            <path d="M61.169,81.835C63.125,81.618 64.851,83.501 65.023,86.037C65.194,88.573 63.746,90.808 61.79,91.025C59.834,91.242 58.107,89.359 57.936,86.823C57.765,84.286 59.213,82.051 61.169,81.835ZM61.334,83.325C61.84,83.269 62.299,83.524 62.66,83.917C63.152,84.454 63.466,85.243 63.526,86.138C63.589,87.059 63.37,87.929 62.945,88.584C62.618,89.089 62.171,89.473 61.625,89.534C61.119,89.59 60.66,89.335 60.299,88.942C59.807,88.405 59.493,87.617 59.433,86.721C59.37,85.8 59.588,84.931 60.014,84.275C60.341,83.77 60.788,83.386 61.334,83.325Z" style="fill:rgb(91,91,91);"/>
            <path d="M40.26,57.798C39.908,57.658 39.527,57.606 39.151,57.648C35.111,58.096 11.087,60.76 11.087,60.76L63.644,83.021L92.926,78.772C92.926,78.772 45.828,60.015 40.26,57.798Z" style="fill:rgb(91,91,91);"/>
            <path d="M11.261,60.746C13.216,60.529 14.941,62.385 15.11,64.887C15.28,67.389 13.829,69.596 11.873,69.813C9.918,70.03 8.193,68.175 8.024,65.673C7.855,63.171 9.305,60.963 11.261,60.746Z" style="fill:rgb(147,147,147);"/>
            <path d="M11.261,60.746C13.216,60.529 14.941,62.385 15.11,64.887C15.28,67.389 13.829,69.596 11.873,69.813C9.918,70.03 8.193,68.175 8.024,65.673C7.855,63.171 9.305,60.963 11.261,60.746ZM11.426,62.237C12.642,62.102 13.509,63.432 13.614,64.988C13.675,65.889 13.457,66.741 13.035,67.383C12.707,67.883 12.256,68.262 11.708,68.322C10.492,68.457 9.625,67.127 9.52,65.572C9.459,64.67 9.677,63.819 10.099,63.176C10.427,62.677 10.878,62.298 11.426,62.237Z" style="fill:rgb(91,91,91);"/>
        </g>
        <g id="Layer18">
            <g>
                <g id="Layer9">
                    <path d="M36.486,59.988L37.665,60.047L39.053,60.797L39.053,64.49C39.053,64.49 36.292,63.741 35.135,63.426C35.015,63.394 34.917,63.307 34.868,63.192C34.82,63.077 34.827,62.946 34.888,62.838C35.396,61.933 36.486,59.988 36.486,59.988Z" style="fill:rgb(206,206,206);"/>
                    <path d="M37.665,60.047L38.742,59.328L40.355,59.665L41.101,60.446L39.053,60.797L37.665,60.047Z" style="fill:rgb(234,234,234);"/>
                    <path d="M37.665,60.047L38.742,59.328L36.486,59.988L37.665,60.047Z" style="fill:rgb(173,170,170);"/>
                    <path d="M39.053,60.797L41.101,60.446C41.101,60.446 42.11,62.29 42.62,63.222C42.687,63.345 42.692,63.492 42.632,63.619C42.573,63.745 42.456,63.836 42.319,63.862C41.239,64.07 39.053,64.49 39.053,64.49L39.053,60.797Z" style="fill:rgb(213,213,213);"/>
                </g>
            </g>
            <g>
                <g id="Layer91" serif:id="Layer9">
                    <path d="M30.871,59.375L31.557,59.409L32.366,59.846L32.366,61.999C32.366,61.999 31.041,61.639 30.292,61.435C30.172,61.403 30.073,61.316 30.025,61.201C29.977,61.086 29.984,60.956 30.045,60.847C30.364,60.278 30.871,59.375 30.871,59.375Z" style="fill:rgb(206,206,206);"/>
                    <path d="M31.557,59.409L32.185,58.99L33.125,59.186L33.56,59.642L32.366,59.846L31.557,59.409Z" style="fill:rgb(234,234,234);"/>
                    <path d="M31.557,59.409L32.185,58.99L30.871,59.375L31.557,59.409Z" style="fill:rgb(173,170,170);"/>
                    <path d="M32.366,59.846L33.56,59.642C33.56,59.642 34.014,60.47 34.326,61.04C34.393,61.163 34.397,61.31 34.338,61.437C34.278,61.563 34.162,61.654 34.024,61.68C33.358,61.808 32.366,61.999 32.366,61.999L32.366,59.846Z" style="fill:rgb(213,213,213);"/>
                </g>
            </g>
            <g>
                <g id="Layer92" serif:id="Layer9">
                    <path d="M24.696,61.026L25.516,61.067L26.481,61.588L26.481,64.157C26.481,64.157 24.78,63.695 23.909,63.459C23.789,63.426 23.69,63.34 23.642,63.225C23.594,63.11 23.601,62.979 23.662,62.87C24.037,62.201 24.696,61.026 24.696,61.026Z" style="fill:rgb(206,206,206);"/>
                    <path d="M25.516,61.067L26.265,60.567L27.387,60.801L27.906,61.345L26.481,61.588L25.516,61.067Z" style="fill:rgb(234,234,234);"/>
                    <path d="M25.516,61.067L26.265,60.567L24.696,61.026L25.516,61.067Z" style="fill:rgb(173,170,170);"/>
                    <path d="M26.481,61.588L27.906,61.345C27.906,61.345 28.504,62.437 28.875,63.115C28.942,63.238 28.946,63.385 28.887,63.511C28.827,63.638 28.711,63.728 28.573,63.755C27.784,63.907 26.481,64.157 26.481,64.157L26.481,61.588Z" style="fill:rgb(213,213,213);"/>
                </g>
            </g>
            <g>
                <g id="Layer93" serif:id="Layer9">
                    <path d="M45.179,67.033L45.998,67.097L46.964,67.907L46.964,71.9C46.964,71.9 45.052,71.093 44.245,70.752C44.046,70.668 43.948,70.444 44.021,70.242C44.349,69.335 45.179,67.033 45.179,67.033Z" style="fill:rgb(206,206,206);"/>
                    <path d="M45.998,67.097L46.747,66.319L47.869,66.683L48.389,67.528L46.964,67.907L45.998,67.097Z" style="fill:rgb(234,234,234);"/>
                    <path d="M45.998,67.097L46.747,66.319L45.179,67.033L45.998,67.097Z" style="fill:rgb(173,170,170);"/>
                    <path d="M46.964,67.907L48.389,67.528C48.389,67.528 49.158,69.714 49.493,70.665C49.533,70.778 49.524,70.902 49.47,71.009C49.416,71.116 49.32,71.195 49.205,71.23C48.445,71.457 46.964,71.9 46.964,71.9L46.964,67.907Z" style="fill:rgb(213,213,213);"/>
                </g>
            </g>
            <g>
                <g id="Layer94" serif:id="Layer9">
                    <path d="M39.859,65.451L40.352,65.489L40.932,65.976L40.932,68.375C40.932,68.375 39.975,67.971 39.439,67.745C39.24,67.661 39.142,67.437 39.215,67.235C39.436,66.624 39.859,65.451 39.859,65.451Z" style="fill:rgb(206,206,206);"/>
                    <path d="M40.352,65.489L40.802,65.022L41.476,65.24L41.788,65.748L40.932,65.976L40.352,65.489Z" style="fill:rgb(234,234,234);"/>
                    <path d="M40.352,65.489L40.802,65.022L39.859,65.451L40.352,65.489Z" style="fill:rgb(173,170,170);"/>
                    <path d="M40.932,65.976L41.788,65.748C41.788,65.748 42.17,66.834 42.391,67.46C42.431,67.573 42.422,67.698 42.368,67.804C42.314,67.911 42.218,67.991 42.103,68.025C41.626,68.168 40.932,68.375 40.932,68.375L40.932,65.976Z" style="fill:rgb(213,213,213);"/>
                </g>
            </g>
            <g id="Stone">
                <g id="Rock_Base">
                    <path d="M34.165,65.606L32.22,62.115C32.167,62.146 32.117,62.182 32.073,62.224L31.071,63.163C30.908,63.317 30.81,63.527 30.795,63.75L30.783,63.919L30.659,65.705C30.649,65.839 30.669,65.974 30.718,66.099L30.904,66.579C30.955,66.71 31.037,66.826 31.143,66.918L34.165,65.606Z" style="fill:rgb(206,206,206);fill-rule:nonzero;"/>
                    <path d="M36.092,66.754C36.147,66.703 36.19,66.659 36.19,66.659L34.165,65.606L31.143,66.917C31.196,66.963 31.255,67.002 31.319,67.032C31.391,67.066 31.471,67.082 31.551,67.078L35.788,66.883C35.901,66.877 36.009,66.831 36.092,66.754Z" style="fill:rgb(128,128,128);fill-rule:nonzero;"/>
                    <path d="M36.826,63.932L36.4,63.054L36.099,62.433C36.049,62.329 35.978,62.237 35.891,62.161L34.165,65.606L36.185,66.665C36.255,66.577 36.307,66.477 36.34,66.37L36.6,65.508L36.878,64.594C36.944,64.374 36.925,64.138 36.826,63.932Z" style="fill:rgb(213,213,213);fill-rule:nonzero;"/>
                    <path d="M32.22,62.115L34.167,65.606L35.893,62.161C35.807,62.087 35.706,62.032 35.597,62.001L34.281,61.625L34.21,61.604C34.067,61.563 33.917,61.565 33.775,61.609L33.701,61.633L32.38,62.044C32.324,62.062 32.271,62.085 32.22,62.115Z" style="fill:rgb(234,234,234);fill-rule:nonzero;"/>
                </g>
                <g id="Rock_Base1" serif:id="Rock_Base">
                    <path d="M59.513,74.959L56.464,69.488C56.38,69.536 56.303,69.593 56.233,69.659L54.662,71.13C54.408,71.371 54.254,71.7 54.231,72.051L54.212,72.316L54.017,75.114C54.002,75.325 54.033,75.536 54.11,75.732L54.402,76.484C54.481,76.689 54.609,76.872 54.776,77.015L59.513,74.959Z" style="fill:rgb(206,206,206);fill-rule:nonzero;"/>
                    <path d="M62.532,76.758C62.618,76.679 62.686,76.609 62.686,76.609L59.513,74.959L54.776,77.015C54.859,77.086 54.952,77.147 55.051,77.194C55.165,77.248 55.29,77.272 55.415,77.266L62.056,76.96C62.233,76.951 62.402,76.879 62.532,76.758Z" style="fill:rgb(128,128,128);fill-rule:nonzero;"/>
                    <path d="M63.683,72.336L63.015,70.959L62.543,69.986C62.465,69.824 62.354,69.679 62.218,69.561L59.513,74.959L62.679,76.619C62.788,76.481 62.87,76.324 62.921,76.156L63.329,74.806L63.764,73.372C63.868,73.029 63.838,72.659 63.683,72.336Z" style="fill:rgb(213,213,213);fill-rule:nonzero;"/>
                    <path d="M56.464,69.488L59.515,74.959L62.22,69.561C62.086,69.444 61.927,69.358 61.756,69.308L59.695,68.719L59.582,68.687C59.359,68.623 59.123,68.626 58.902,68.695L58.785,68.732L56.715,69.377C56.627,69.404 56.543,69.441 56.464,69.488Z" style="fill:rgb(234,234,234);fill-rule:nonzero;"/>
                </g>
                <g id="Rock_Base2" serif:id="Rock_Base">
                    <path d="M47.922,65.05L46.597,62.671C46.56,62.692 46.527,62.717 46.496,62.746L45.813,63.385C45.703,63.49 45.636,63.633 45.626,63.785L45.618,63.901L45.533,65.117C45.526,65.209 45.54,65.3 45.573,65.386L45.7,65.713C45.734,65.802 45.79,65.881 45.863,65.944L47.922,65.05Z" style="fill:rgb(206,206,206);fill-rule:nonzero;"/>
                    <path d="M49.235,65.832C49.272,65.798 49.301,65.767 49.301,65.767L47.922,65.05L45.863,65.943C45.899,65.975 45.939,66.001 45.982,66.021C46.032,66.045 46.086,66.056 46.141,66.053L49.028,65.92C49.105,65.916 49.178,65.885 49.235,65.832Z" style="fill:rgb(128,128,128);fill-rule:nonzero;"/>
                    <path d="M49.735,63.91L49.444,63.311L49.239,62.888C49.205,62.817 49.157,62.754 49.098,62.703L47.922,65.05L49.298,65.771C49.346,65.712 49.381,65.643 49.403,65.57L49.581,64.983L49.77,64.36C49.815,64.211 49.802,64.05 49.735,63.91Z" style="fill:rgb(213,213,213);fill-rule:nonzero;"/>
                    <path d="M46.597,62.671L47.923,65.05L49.099,62.703C49.041,62.652 48.972,62.615 48.897,62.593L48.001,62.337L47.952,62.323C47.855,62.295 47.752,62.297 47.656,62.327L47.605,62.343L46.706,62.623C46.668,62.635 46.631,62.651 46.597,62.671Z" style="fill:rgb(234,234,234);fill-rule:nonzero;"/>
                </g>
            </g>
            <g>
                <path d="M70.198,77.776C70.148,77.907 70.162,78.053 70.236,78.172C70.31,78.29 70.436,78.367 70.575,78.379C72.317,78.533 77.335,78.976 77.335,78.976C77.335,78.976 80.47,77.366 81.501,76.836C81.586,76.793 81.65,76.716 81.678,76.625C81.706,76.534 81.695,76.435 81.649,76.351C81.005,75.178 78.772,71.113 78.1,69.889C77.988,69.685 77.746,69.59 77.525,69.663C76.501,70.002 73.711,70.925 72.904,71.192C72.763,71.239 72.651,71.346 72.598,71.484C72.231,72.447 70.751,76.326 70.198,77.776Z" style="fill:rgb(255,203,0);"/>
                <path d="M75.77,73.334L77.335,78.976C77.335,78.976 72.317,78.533 70.575,78.379C70.436,78.367 70.31,78.29 70.236,78.172C70.162,78.053 70.148,77.907 70.198,77.776C70.669,76.542 71.767,73.664 71.767,73.664L75.77,73.334Z" style="fill-opacity:0.15;"/>
                <path d="M77.906,69.537L75.77,73.334L77.335,78.976C77.335,78.976 80.47,77.366 81.501,76.836C81.586,76.793 81.65,76.716 81.678,76.625C81.706,76.534 81.695,76.435 81.649,76.351C80.888,74.965 77.906,69.537 77.906,69.537Z" style="fill:white;fill-opacity:0.15;"/>
                <path d="M78.457,70.54L76.389,74.3C76.243,74.565 76.34,74.899 76.605,75.045C76.871,75.191 77.205,75.094 77.351,74.829L79.083,71.68L78.457,70.54Z" style="fill:white;fill-opacity:0.85;"/>
                <path d="M79.595,72.611L79.375,72.98L77.274,76.798C77.048,77.208 77.198,77.724 77.608,77.95C78.018,78.176 78.535,78.026 78.76,77.616L80.554,74.356L79.595,72.611Z" style="fill:white;fill-opacity:0.85;"/>
                <path d="M72.02,73.643L75.77,73.334L77.718,69.872" style="fill:none;stroke:white;stroke-opacity:0.85;stroke-width:0.5px;"/>
            </g>
            <g>
                <path d="M63.99,74.435C63.94,74.566 63.955,74.712 64.029,74.83C64.103,74.949 64.228,75.026 64.367,75.038C65.572,75.144 68.209,75.377 68.209,75.377C68.209,75.377 69.873,74.522 70.592,74.153C70.677,74.11 70.741,74.033 70.769,73.942C70.797,73.85 70.786,73.752 70.74,73.668C70.309,72.882 69.197,70.858 68.747,70.039C68.635,69.835 68.393,69.74 68.172,69.813C67.508,70.033 66.157,70.48 65.626,70.656C65.486,70.702 65.373,70.81 65.321,70.948C65.076,71.59 64.352,73.488 63.99,74.435Z" style="fill:rgb(255,203,0);"/>
                <path d="M67.266,71.976L68.209,75.377C68.209,75.377 65.572,75.144 64.367,75.038C64.228,75.026 64.103,74.949 64.029,74.83C63.955,74.712 63.94,74.566 63.99,74.435C64.302,73.617 64.853,72.175 64.853,72.175L67.266,71.976Z" style="fill-opacity:0.15;"/>
                <path d="M68.554,69.687L67.266,71.976L68.209,75.377C68.209,75.377 69.873,74.522 70.592,74.153C70.677,74.11 70.741,74.033 70.769,73.942C70.797,73.85 70.786,73.752 70.74,73.668C70.193,72.672 68.554,69.687 68.554,69.687Z" style="fill:white;fill-opacity:0.15;"/>
                <path d="M68.886,70.292L67.639,72.558C67.551,72.718 67.609,72.92 67.769,73.008C67.929,73.096 68.131,73.037 68.219,72.877L69.263,70.979L68.886,70.292Z" style="fill:white;fill-opacity:0.85;"/>
                <path d="M69.571,71.54L69.439,71.763L68.172,74.064C68.036,74.311 68.127,74.623 68.374,74.759C68.621,74.895 68.932,74.804 69.068,74.557L70.149,72.592L69.571,71.54Z" style="fill:white;fill-opacity:0.85;"/>
                <path d="M65.134,72.152L67.266,71.976L68.343,70.061" style="fill:none;stroke:white;stroke-opacity:0.85;stroke-width:0.5px;"/>
            </g>
            <g>
                <path d="M61.187,79.792C61.137,79.922 61.151,80.069 61.225,80.187C61.299,80.305 61.425,80.382 61.564,80.394C62.768,80.501 65.406,80.734 65.406,80.734C65.406,80.734 67.07,79.879 67.788,79.51C67.873,79.466 67.937,79.39 67.965,79.299C67.993,79.207 67.983,79.108 67.937,79.024C67.505,78.238 66.393,76.214 65.943,75.395C65.831,75.191 65.59,75.096 65.369,75.17C64.704,75.39 63.354,75.836 62.823,76.012C62.682,76.059 62.57,76.166 62.517,76.304C62.272,76.947 61.548,78.845 61.187,79.792Z" style="fill:rgb(255,203,0);"/>
                <path d="M64.462,77.332L65.406,80.734C65.406,80.734 62.768,80.501 61.564,80.394C61.425,80.382 61.299,80.305 61.225,80.187C61.151,80.069 61.137,79.922 61.187,79.792C61.499,78.973 62.049,77.531 62.049,77.531L64.462,77.332Z" style="fill-opacity:0.15;"/>
                <path d="M65.75,75.043L64.462,77.332L65.406,80.734C65.406,80.734 67.07,79.879 67.788,79.51C67.873,79.466 67.937,79.39 67.965,79.299C67.993,79.207 67.983,79.108 67.937,79.024C67.39,78.028 65.75,75.043 65.75,75.043Z" style="fill:white;fill-opacity:0.15;"/>
                <path d="M66.082,75.648L64.835,77.915C64.747,78.075 64.806,78.276 64.966,78.364C65.126,78.452 65.327,78.394 65.415,78.234L66.46,76.335L66.082,75.648Z" style="fill:white;fill-opacity:0.85;"/>
                <path d="M66.768,76.897L66.635,77.119L65.369,79.421C65.233,79.668 65.323,79.979 65.57,80.115C65.818,80.251 66.129,80.161 66.265,79.914L67.346,77.949L66.768,76.897Z" style="fill:white;fill-opacity:0.85;"/>
                <path d="M62.3,77.511L64.462,77.332L65.545,75.407" style="fill:none;stroke:white;stroke-opacity:0.85;stroke-width:0.5px;"/>
            </g>
        </g>
        <g id="Layer16">
            <path d="M58.912,36.387C57.633,36.962 56.128,36.391 55.553,35.113C54.977,33.834 55.549,32.329 56.827,31.753L66.744,27.292C68.023,26.717 69.528,27.288 70.103,28.567C70.678,29.846 70.107,31.351 68.828,31.926L58.912,36.387Z" style="fill:rgb(188,54,86);"/>
            <path d="M77.922,41.731C78.62,43.339 77.882,45.21 76.274,45.908C74.667,46.606 72.795,45.868 72.097,44.26L66.622,31.649C65.924,30.041 66.663,28.169 68.271,27.472C69.878,26.774 71.75,27.512 72.448,29.12L77.922,41.731Z" style="fill:rgb(188,54,86);"/>
            <g>
                <path d="M52.866,35.275C53.575,34.065 55.133,33.658 56.342,34.367C57.552,35.075 57.96,36.633 57.251,37.843L53.431,44.366C52.722,45.576 51.165,45.983 49.955,45.275C48.745,44.566 48.338,43.009 49.046,41.799L52.866,35.275Z" style="fill:rgb(188,54,86);"/>
                <g>
                    <path d="M48.352,48.207L40.871,61" style="fill:none;stroke:rgb(128,238,35);stroke-width:3.84px;"/>
                    <path d="M45.726,46.394C45.011,47.961 45.702,49.813 47.269,50.528C48.836,51.243 50.688,50.552 51.403,48.985C52.118,47.418 51.426,45.566 49.86,44.851C48.293,44.136 46.441,44.828 45.726,46.394Z" style="fill:rgb(128,238,35);"/>
                    <path d="M48.352,48.207L40.871,61" style="fill:none;stroke:white;stroke-width:1.59px;"/>
                    <path d="M46.687,46.833C46.214,47.869 46.672,49.094 47.708,49.567C48.744,50.04 49.969,49.583 50.442,48.546C50.915,47.51 50.457,46.285 49.421,45.812C48.385,45.339 47.16,45.797 46.687,46.833Z" style="fill:white;"/>
                </g>
                <path d="M45.028,44.525C44.612,44.511 44.257,44.219 44.163,43.813C44.068,43.407 44.259,42.989 44.627,42.794C46.476,41.761 48.982,41.796 51.147,43.064C53.313,44.332 54.57,46.501 54.599,48.618C54.608,49.045 54.328,49.425 53.918,49.545C53.508,49.664 53.068,49.494 52.846,49.128C52.073,47.957 50.904,46.82 49.447,45.967C47.991,45.114 46.427,44.651 45.028,44.525Z" style="fill:rgb(188,54,86);"/>
            </g>
            <path d="M82.382,49.861C80.962,48.026 78.772,46.951 76.451,46.951C74.13,46.951 71.94,48.026 70.52,49.861C69.276,51.469 68.025,53.087 66.975,54.443C66.479,55.085 66.391,55.954 66.748,56.683C67.106,57.411 67.847,57.873 68.659,57.873C73.061,57.873 79.84,57.873 84.243,57.873C85.055,57.873 85.796,57.411 86.154,56.683C86.511,55.954 86.423,55.085 85.926,54.443C84.877,53.087 83.626,51.469 82.382,49.861Z" style="fill:rgb(188,54,86);"/>
            <circle cx="76.351" cy="46.369" r="4.082" style="fill:rgb(188,54,86);"/>
            <path d="M76.351,42.287C74.098,42.287 72.269,44.116 72.269,46.369C72.269,48.622 74.098,50.451 76.351,50.451C78.604,50.451 80.433,48.622 80.433,46.369C80.433,44.116 78.604,42.287 76.351,42.287ZM76.351,43.202C78.099,43.202 79.518,44.621 79.518,46.369C79.518,48.117 78.099,49.536 76.351,49.536C74.603,49.536 73.184,48.117 73.184,46.369C73.184,44.621 74.603,43.202 76.351,43.202Z" style="fill:rgb(255,198,198);"/>
            <circle cx="69.154" cy="29.881" r="3.463" style="fill:rgb(188,54,86);"/>
            <path d="M69.154,26.418C67.243,26.418 65.691,27.97 65.691,29.881C65.691,31.792 67.243,33.344 69.154,33.344C71.066,33.344 72.618,31.792 72.618,29.881C72.618,27.97 71.066,26.418 69.154,26.418ZM69.154,27.333C70.561,27.333 71.703,28.475 71.703,29.881C71.703,31.288 70.561,32.429 69.154,32.429C67.748,32.429 66.606,31.288 66.606,29.881C66.606,28.475 67.748,27.333 69.154,27.333Z" style="fill:rgb(255,198,198);"/>
            <path d="M54.872,31.914C53.486,32.787 53.07,34.621 53.944,36.007C54.817,37.393 56.651,37.809 58.037,36.936C59.423,36.063 59.84,34.228 58.966,32.842C58.093,31.456 56.258,31.04 54.872,31.914Z" style="fill:rgb(188,54,86);"/>
            <path d="M54.872,31.914C53.486,32.787 53.07,34.621 53.944,36.007C54.817,37.393 56.651,37.809 58.037,36.936C59.423,36.063 59.84,34.228 58.966,32.842C58.093,31.456 56.258,31.04 54.872,31.914ZM55.36,32.688C56.319,32.083 57.588,32.371 58.192,33.33C58.796,34.289 58.509,35.558 57.55,36.162C56.591,36.766 55.322,36.478 54.718,35.52C54.113,34.561 54.401,33.292 55.36,32.688Z" style="fill:rgb(255,198,198);"/>
            <path d="M66.522,55.762C66.522,54.597 67.468,53.651 68.634,53.651L84.209,53.651C85.374,53.651 86.32,54.597 86.32,55.762C86.32,56.927 85.374,57.873 84.209,57.873L68.634,57.873C67.468,57.873 66.522,56.927 66.522,55.762Z" style="fill-opacity:0.41;"/>
        </g>
        <g id="Layer161" serif:id="Layer16">
            <path d="M40.368,50.112C41.827,49.603 42.599,48.004 42.089,46.545C41.58,45.086 39.982,44.315 38.523,44.825L24.233,49.813C22.773,50.322 22.002,51.92 22.512,53.379C23.021,54.838 24.619,55.609 26.078,55.1L40.368,50.112Z" style="fill:rgb(188,54,86);"/>
            <path d="M16.395,69.216C15.94,71.093 17.094,72.986 18.971,73.441C20.848,73.897 22.742,72.742 23.197,70.865L26.768,56.139C27.223,54.262 26.069,52.368 24.192,51.913C22.315,51.458 20.421,52.612 19.966,54.489L16.395,69.216Z" style="fill:rgb(188,54,86);"/>
            <g>
                <path d="M44.241,45.754C43.368,44.479 41.624,44.152 40.349,45.024C39.073,45.897 38.746,47.641 39.619,48.916L46.364,58.776C47.237,60.051 48.981,60.378 50.256,59.506C51.532,58.633 51.859,56.889 50.986,55.614L44.241,45.754Z" style="fill:rgb(188,54,86);"/>
                <g>
                    <path d="M52.245,62.605L58.195,71.313" style="fill:none;stroke:rgb(128,238,35);stroke-width:4.23px;"/>
                    <path d="M54.992,60.409C55.9,62.077 55.282,64.167 53.615,65.074C51.948,65.981 49.858,65.364 48.951,63.697C48.043,62.03 48.661,59.94 50.328,59.032C51.995,58.125 54.085,58.742 54.992,60.409Z" style="fill:rgb(128,238,35);"/>
                    <path d="M52.245,62.605L58.195,71.313" style="fill:none;stroke:white;stroke-width:1.76px;"/>
                    <path d="M53.969,60.966C54.569,62.069 54.161,63.451 53.059,64.051C51.956,64.651 50.574,64.243 49.974,63.14C49.374,62.038 49.782,60.655 50.884,60.055C51.987,59.455 53.369,59.863 53.969,60.966Z" style="fill:white;"/>
                </g>
                <path d="M55.9,58.258C56.312,58.229 56.654,57.929 56.737,57.524C56.821,57.119 56.624,56.709 56.257,56.52C54.102,55.352 51.177,55.523 48.774,57.167C46.371,58.811 45.152,61.476 45.441,63.909C45.486,64.327 45.803,64.665 46.218,64.736C46.633,64.806 47.045,64.592 47.225,64.212C47.986,62.788 49.236,61.344 50.868,60.227C52.499,59.111 54.299,58.469 55.9,58.258Z" style="fill:rgb(188,54,86);"/>
            </g>
            <path d="M13.201,75.635C14.621,73.799 16.812,72.725 19.132,72.725C21.453,72.725 23.644,73.799 25.064,75.635C26.737,77.798 28.473,80.043 29.847,81.819C30.344,82.461 30.432,83.33 30.074,84.059C29.717,84.787 28.976,85.249 28.164,85.249C23.188,85.249 15.077,85.249 10.101,85.249C9.289,85.249 8.548,84.787 8.191,84.059C7.833,83.33 7.921,82.461 8.418,81.819C9.792,80.043 11.528,77.798 13.201,75.635Z" style="fill:rgb(188,54,86);"/>
            <circle cx="18.677" cy="72.408" r="4.499" style="fill:rgb(188,54,86);"/>
            <path d="M18.677,67.909C21.16,67.909 23.176,69.925 23.176,72.408C23.176,74.891 21.16,76.907 18.677,76.907C16.193,76.907 14.177,74.891 14.177,72.408C14.177,69.925 16.193,67.909 18.677,67.909ZM18.677,68.824C20.655,68.824 22.261,70.43 22.261,72.408C22.261,74.386 20.655,75.992 18.677,75.992C16.698,75.992 15.092,74.386 15.092,72.408C15.092,70.43 16.698,68.824 18.677,68.824Z" style="fill:rgb(255,198,198);"/>
            <circle cx="23.847" cy="53.474" r="3.817" style="fill:rgb(188,54,86);"/>
            <path d="M23.847,49.657C25.954,49.657 27.664,51.368 27.664,53.474C27.664,55.581 25.954,57.291 23.847,57.291C21.74,57.291 20.03,55.581 20.03,53.474C20.03,51.368 21.74,49.657 23.847,49.657ZM23.847,50.572C25.449,50.572 26.749,51.872 26.749,53.474C26.749,55.076 25.449,56.376 23.847,56.376C22.245,56.376 20.945,55.076 20.945,53.474C20.945,51.872 22.245,50.572 23.847,50.572Z" style="fill:rgb(255,198,198);"/>
            <circle cx="41.255" cy="47.473" r="3.272" style="fill:rgb(188,54,86);"/>
            <path d="M41.255,44.201C43.061,44.201 44.527,45.667 44.527,47.473C44.527,49.279 43.061,50.745 41.255,50.745C39.45,50.745 37.984,49.279 37.984,47.473C37.984,45.667 39.45,44.201 41.255,44.201ZM41.255,45.116C42.556,45.116 43.612,46.172 43.612,47.473C43.612,48.774 42.556,49.83 41.255,49.83C39.955,49.83 38.899,48.774 38.899,47.473C38.899,46.172 39.955,45.116 41.255,45.116Z" style="fill:rgb(255,198,198);"/>
            <path d="M30.292,83.099C30.292,81.912 29.329,80.949 28.142,80.949L10.123,80.949C8.936,80.949 7.973,81.912 7.973,83.099C7.973,84.286 8.936,85.249 10.123,85.249L28.142,85.249C29.329,85.249 30.292,84.286 30.292,83.099Z" style="fill-opacity:0.41;"/>
        </g>
    </g>
    <g transform="matrix(0.31024,0,0,0.817245,-398.908,-582.459)">
        <g transform="matrix(3.22331,0,0,1.22362,-3324.92,-162.235)">
            <path d="M1501.67,741.162C1501.33,741.371 1501.01,741.627 1500.71,741.927C1499.72,742.921 1499.22,744.121 1499.22,745.524C1499.22,748.227 1500.17,750.638 1502.1,752.74C1502.13,752.771 1502.16,752.8 1502.19,752.83C1504.35,754.993 1507.11,756.12 1510.5,756.12C1513.86,756.12 1516.61,754.996 1518.78,752.83C1518.8,752.812 1518.81,752.794 1518.83,752.775C1520.78,750.728 1521.75,748.31 1521.75,745.524C1521.75,744.031 1521.46,742.707 1520.94,741.544C1520.42,740.368 1519.8,739.453 1519.13,738.769C1518.69,738.323 1518.15,737.889 1517.49,737.481C1518.07,737.24 1518.6,736.882 1519.09,736.408C1520.12,735.406 1520.63,734.195 1520.63,732.78C1520.63,732.78 1520.63,729.936 1520.63,729.936C1520.63,728.522 1520.12,727.31 1519.09,726.308C1518.08,725.33 1516.88,724.848 1515.51,724.848C1515.51,724.848 1504.81,724.848 1504.81,724.848C1503.41,724.848 1502.21,725.345 1501.21,726.339C1500.22,727.333 1499.73,728.533 1499.73,729.936C1499.73,729.936 1499.73,735.372 1499.73,735.372C1499.73,737.687 1500.38,739.613 1501.67,741.162ZM1510.5,753.12C1513,753.12 1515.05,752.316 1516.66,750.708C1518.05,749.244 1518.75,747.516 1518.75,745.524C1518.75,744.492 1518.57,743.574 1518.2,742.77C1517.85,741.966 1517.44,741.33 1516.98,740.862C1516.53,740.394 1515.88,739.962 1515.06,739.566C1514.23,739.17 1513.57,738.894 1513.09,738.738C1512.61,738.582 1511.94,738.396 1511.08,738.18C1509.35,737.724 1508.22,737.322 1507.69,736.974C1507.16,736.626 1506.9,736.092 1506.9,735.372L1506.9,732.024L1513.42,732.024L1513.42,732.78C1513.42,733.356 1513.62,733.848 1514.03,734.256C1514.44,734.664 1514.93,734.868 1515.51,734.868C1516.08,734.868 1516.58,734.664 1517,734.256C1517.42,733.848 1517.63,733.356 1517.63,732.78L1517.63,729.936C1517.63,729.36 1517.42,728.868 1517,728.46C1516.58,728.052 1516.08,727.848 1515.51,727.848L1504.81,727.848C1504.24,727.848 1503.75,728.052 1503.34,728.46C1502.93,728.868 1502.73,729.36 1502.73,729.936L1502.73,735.372C1502.73,737.628 1503.64,739.344 1505.46,740.52C1506.3,741.072 1507.83,741.648 1510.03,742.248C1511.88,742.704 1513.1,743.136 1513.69,743.544C1514.28,743.952 1514.57,744.612 1514.57,745.524C1514.57,746.34 1514.25,747.114 1513.6,747.846C1512.95,748.578 1511.92,748.944 1510.5,748.944C1509.06,748.944 1508.02,748.584 1507.39,747.864C1506.75,747.144 1506.43,746.364 1506.43,745.524C1506.43,744.948 1506.23,744.456 1505.82,744.048C1505.41,743.64 1504.92,743.436 1504.35,743.436C1503.75,743.436 1503.24,743.64 1502.83,744.048C1502.42,744.456 1502.22,744.948 1502.22,745.524C1502.22,747.468 1502.92,749.196 1504.31,750.708C1505.92,752.316 1507.98,753.12 1510.5,753.12ZM1509.42,745.188C1509.43,745.298 1509.43,745.411 1509.43,745.524C1509.43,745.636 1509.5,745.725 1509.58,745.818C1509.69,745.842 1510.16,745.944 1510.5,745.944C1510.87,745.944 1511.18,746.048 1511.35,745.858C1511.38,745.821 1511.42,745.787 1511.45,745.753C1510.97,745.573 1510.29,745.402 1509.42,745.188ZM1510.93,735.036L1510.92,735.024L1510.89,735.024L1510.93,735.036Z"/>
        </g>
        <g transform="matrix(3.22331,0,0,1.22362,-3324.92,-162.235)">
            <g transform="matrix(36,0,0,36,1501.5,753.12)">
                <path d="M0.25,-0C0.319,-0 0.376,-0.022 0.421,-0.067C0.46,-0.108 0.479,-0.156 0.479,-0.211C0.479,-0.24 0.474,-0.265 0.464,-0.288C0.454,-0.31 0.443,-0.328 0.43,-0.341C0.417,-0.354 0.4,-0.366 0.377,-0.377C0.354,-0.388 0.335,-0.395 0.322,-0.4C0.309,-0.404 0.29,-0.409 0.266,-0.415C0.218,-0.428 0.187,-0.439 0.172,-0.449C0.157,-0.458 0.15,-0.473 0.15,-0.493L0.15,-0.586L0.331,-0.586L0.331,-0.565C0.331,-0.549 0.337,-0.535 0.348,-0.524C0.359,-0.513 0.373,-0.507 0.389,-0.507C0.405,-0.507 0.419,-0.513 0.431,-0.524C0.442,-0.535 0.448,-0.549 0.448,-0.565L0.448,-0.644C0.448,-0.66 0.442,-0.674 0.431,-0.685C0.419,-0.696 0.405,-0.702 0.389,-0.702L0.092,-0.702C0.076,-0.702 0.062,-0.696 0.051,-0.685C0.04,-0.674 0.034,-0.66 0.034,-0.644L0.034,-0.493C0.034,-0.43 0.059,-0.383 0.11,-0.35C0.133,-0.335 0.176,-0.319 0.237,-0.302C0.288,-0.289 0.322,-0.277 0.339,-0.266C0.355,-0.255 0.363,-0.236 0.363,-0.211C0.363,-0.188 0.354,-0.167 0.336,-0.147C0.318,-0.126 0.289,-0.116 0.25,-0.116C0.21,-0.116 0.181,-0.126 0.164,-0.146C0.146,-0.166 0.137,-0.188 0.137,-0.211C0.137,-0.227 0.131,-0.241 0.12,-0.252C0.109,-0.263 0.095,-0.269 0.079,-0.269C0.062,-0.269 0.048,-0.263 0.037,-0.252C0.026,-0.241 0.02,-0.227 0.02,-0.211C0.02,-0.157 0.039,-0.109 0.078,-0.067C0.123,-0.022 0.18,-0 0.25,-0Z" style="fill:white;fill-rule:nonzero;"/>
            </g>
        </g>
    </g>
</svg>
