<?xml version="1.0" encoding="UTF-8" standalone="no"?>
<!DOCTYPE svg PUBLIC "-//W3C//DTD SVG 1.1//EN" "http://www.w3.org/Graphics/SVG/1.1/DTD/svg11.dtd">
<svg width="100%" height="100%" viewBox="0 0 101 101" version="1.1" xmlns="http://www.w3.org/2000/svg" xmlns:xlink="http://www.w3.org/1999/xlink" xml:space="preserve" xmlns:serif="http://www.serif.com/" style="fill-rule:evenodd;clip-rule:evenodd;stroke-linecap:round;stroke-linejoin:round;stroke-miterlimit:1.5;">
    <rect id="factory_4" x="0.075" y="0.44" width="100" height="100" style="fill:none;"/>
    <g id="Factory">
        <g id="Layer17">
            <path d="M10.244,60.76L38.733,57.647L38.987,66.566L10.7,69.873L10.244,60.76Z" style="fill:rgb(83,83,83);"/>
            <path d="M39.25,66.646C38.904,66.508 38.53,66.456 38.16,66.494C34.086,66.911 9.296,69.448 9.296,69.448L59.734,90.889L89.26,86.562C89.26,86.562 44.618,68.784 39.25,66.646Z" style="fill:rgb(83,83,83);"/>
            <path d="M90.354,87.756L60.689,91.045L60.273,81.841L90.393,78.506L90.395,78.537C92.729,78.317 94.749,80.152 94.919,82.664C95.09,85.2 93.311,87.472 90.949,87.734C90.748,87.756 90.55,87.763 90.354,87.756Z" style="fill:rgb(91,91,91);"/>
            <path d="M60.326,81.835C62.281,81.618 64.008,83.501 64.18,86.037C64.351,88.573 62.903,90.808 60.947,91.025C58.991,91.242 57.264,89.359 57.093,86.823C56.922,84.286 58.37,82.051 60.326,81.835Z" style="fill:rgb(147,147,147);"/>
            <path d="M60.326,81.835C62.281,81.618 64.008,83.501 64.18,86.037C64.351,88.573 62.903,90.808 60.947,91.025C58.991,91.242 57.264,89.359 57.093,86.823C56.922,84.286 58.37,82.051 60.326,81.835ZM60.491,83.325C60.997,83.269 61.456,83.524 61.816,83.917C62.309,84.454 62.623,85.243 62.683,86.138C62.745,87.059 62.527,87.929 62.102,88.584C61.775,89.089 61.328,89.473 60.782,89.534C60.276,89.59 59.817,89.335 59.456,88.942C58.964,88.405 58.65,87.617 58.59,86.721C58.527,85.8 58.745,84.931 59.17,84.275C59.498,83.77 59.945,83.386 60.491,83.325Z" style="fill:rgb(91,91,91);"/>
            <path d="M39.416,57.798C39.065,57.658 38.684,57.606 38.308,57.648C34.268,58.096 10.244,60.76 10.244,60.76L62.801,83.021L92.083,78.772C92.083,78.772 44.985,60.015 39.416,57.798Z" style="fill:rgb(91,91,91);"/>
            <path d="M10.418,60.746C12.373,60.529 14.098,62.385 14.267,64.887C14.436,67.389 12.986,69.596 11.03,69.813C9.075,70.03 7.35,68.175 7.181,65.673C7.011,63.171 8.462,60.963 10.418,60.746Z" style="fill:rgb(147,147,147);"/>
            <path d="M10.418,60.746C12.373,60.529 14.098,62.385 14.267,64.887C14.436,67.389 12.986,69.596 11.03,69.813C9.075,70.03 7.35,68.175 7.181,65.673C7.011,63.171 8.462,60.963 10.418,60.746ZM10.583,62.237C11.799,62.102 12.666,63.433 12.771,64.988C12.832,65.889 12.614,66.741 12.192,67.383C11.864,67.883 11.413,68.262 10.865,68.322C9.649,68.457 8.782,67.127 8.677,65.572C8.616,64.67 8.834,63.819 9.256,63.176C9.584,62.677 10.035,62.298 10.583,62.237L10.583,62.237Z" style="fill:rgb(91,91,91);"/>
        </g>
        <g id="Layer18">
            <g>
                <g id="Layer9">
                    <path d="M35.643,59.988L36.822,60.047L38.209,60.797L38.209,64.49C38.209,64.49 35.449,63.741 34.292,63.426C34.172,63.394 34.073,63.307 34.025,63.192C33.977,63.077 33.984,62.946 34.045,62.838C34.553,61.933 35.643,59.988 35.643,59.988Z" style="fill:rgb(206,206,206);"/>
                    <path d="M36.822,60.047L37.899,59.328L39.511,59.665L40.258,60.446L38.209,60.797L36.822,60.047Z" style="fill:rgb(234,234,234);"/>
                    <path d="M36.822,60.047L37.899,59.328L35.643,59.988L36.822,60.047Z" style="fill:rgb(173,170,170);"/>
                    <path d="M38.209,60.797L40.258,60.446C40.258,60.446 41.267,62.29 41.777,63.222C41.844,63.345 41.849,63.492 41.789,63.619C41.73,63.745 41.613,63.836 41.476,63.862C40.396,64.07 38.209,64.49 38.209,64.49L38.209,60.797Z" style="fill:rgb(213,213,213);"/>
                </g>
            </g>
            <g>
                <g id="Layer91" serif:id="Layer9">
                    <path d="M30.028,59.375L30.714,59.409L31.523,59.846L31.523,61.999C31.523,61.999 30.198,61.639 29.449,61.435C29.329,61.403 29.23,61.316 29.182,61.201C29.133,61.086 29.141,60.956 29.202,60.847C29.521,60.278 30.028,59.375 30.028,59.375Z" style="fill:rgb(206,206,206);"/>
                    <path d="M30.714,59.409L31.342,58.99L32.282,59.186L32.717,59.642L31.523,59.846L30.714,59.409Z" style="fill:rgb(234,234,234);"/>
                    <path d="M30.714,59.409L31.342,58.99L30.028,59.375L30.714,59.409Z" style="fill:rgb(173,170,170);"/>
                    <path d="M31.523,59.846L32.717,59.642C32.717,59.642 33.171,60.47 33.483,61.04C33.55,61.163 33.554,61.31 33.495,61.437C33.435,61.563 33.319,61.654 33.181,61.68C32.515,61.808 31.523,61.999 31.523,61.999L31.523,59.846Z" style="fill:rgb(213,213,213);"/>
                </g>
            </g>
            <g>
                <g id="Layer92" serif:id="Layer9">
                    <path d="M23.853,61.026L24.673,61.067L25.638,61.588L25.638,64.157C25.638,64.157 23.937,63.695 23.066,63.459C22.946,63.426 22.847,63.34 22.799,63.225C22.751,63.11 22.758,62.979 22.819,62.87C23.194,62.201 23.853,61.026 23.853,61.026Z" style="fill:rgb(206,206,206);"/>
                    <path d="M24.673,61.067L25.422,60.567L26.543,60.801L27.063,61.345L25.638,61.588L24.673,61.067Z" style="fill:rgb(234,234,234);"/>
                    <path d="M24.673,61.067L25.422,60.567L23.853,61.026L24.673,61.067Z" style="fill:rgb(173,170,170);"/>
                    <path d="M25.638,61.588L27.063,61.345C27.063,61.345 27.66,62.437 28.032,63.115C28.099,63.238 28.103,63.385 28.044,63.511C27.984,63.638 27.868,63.728 27.73,63.755C26.941,63.907 25.638,64.157 25.638,64.157L25.638,61.588Z" style="fill:rgb(213,213,213);"/>
                </g>
            </g>
            <g>
                <g id="Layer93" serif:id="Layer9">
                    <path d="M44.336,67.033L45.155,67.097L46.121,67.907L46.121,71.9C46.121,71.9 44.209,71.093 43.402,70.752C43.203,70.668 43.105,70.444 43.178,70.242C43.505,69.335 44.336,67.033 44.336,67.033Z" style="fill:rgb(206,206,206);"/>
                    <path d="M45.155,67.097L45.904,66.319L47.026,66.683L47.545,67.528L46.121,67.907L45.155,67.097Z" style="fill:rgb(234,234,234);"/>
                    <path d="M45.155,67.097L45.904,66.319L44.336,67.033L45.155,67.097Z" style="fill:rgb(173,170,170);"/>
                    <path d="M46.121,67.907L47.545,67.528C47.545,67.528 48.315,69.714 48.65,70.665C48.69,70.778 48.681,70.902 48.627,71.009C48.573,71.116 48.477,71.195 48.362,71.23C47.601,71.457 46.121,71.9 46.121,71.9L46.121,67.907Z" style="fill:rgb(213,213,213);"/>
                </g>
            </g>
            <g>
                <g id="Layer94" serif:id="Layer9">
                    <path d="M39.016,65.451L39.508,65.489L40.089,65.976L40.089,68.375C40.089,68.375 39.132,67.971 38.596,67.745C38.397,67.661 38.299,67.437 38.372,67.235C38.593,66.624 39.016,65.451 39.016,65.451Z" style="fill:rgb(206,206,206);"/>
                    <path d="M39.508,65.489L39.959,65.022L40.633,65.24L40.945,65.748L40.089,65.976L39.508,65.489Z" style="fill:rgb(234,234,234);"/>
                    <path d="M39.508,65.489L39.959,65.022L39.016,65.451L39.508,65.489Z" style="fill:rgb(173,170,170);"/>
                    <path d="M40.089,65.976L40.945,65.748C40.945,65.748 41.327,66.834 41.548,67.46C41.587,67.573 41.579,67.698 41.525,67.804C41.471,67.911 41.375,67.991 41.26,68.025C40.783,68.168 40.089,68.375 40.089,68.375L40.089,65.976Z" style="fill:rgb(213,213,213);"/>
                </g>
            </g>
            <g id="Stone">
                <g id="Rock_Base">
                    <path d="M33.322,65.606L31.377,62.115C31.324,62.146 31.274,62.182 31.23,62.224L30.228,63.163C30.065,63.317 29.967,63.527 29.952,63.75L29.94,63.919L29.816,65.705C29.806,65.839 29.826,65.974 29.875,66.099L30.061,66.579C30.112,66.71 30.194,66.826 30.3,66.918L33.322,65.606Z" style="fill:rgb(206,206,206);fill-rule:nonzero;"/>
                    <path d="M35.249,66.754C35.304,66.703 35.347,66.659 35.347,66.659L33.322,65.606L30.3,66.917C30.353,66.963 30.412,67.002 30.475,67.032C30.548,67.066 30.628,67.082 30.708,67.078L34.945,66.883C35.058,66.877 35.166,66.831 35.249,66.754Z" style="fill:rgb(128,128,128);fill-rule:nonzero;"/>
                    <path d="M35.983,63.932L35.557,63.054L35.256,62.433C35.206,62.329 35.135,62.237 35.048,62.161L33.322,65.606L35.342,66.665C35.412,66.577 35.464,66.477 35.497,66.37L35.757,65.508L36.035,64.594C36.101,64.374 36.082,64.138 35.983,63.932Z" style="fill:rgb(213,213,213);fill-rule:nonzero;"/>
                    <path d="M31.377,62.115L33.324,65.606L35.05,62.161C34.964,62.087 34.863,62.032 34.754,62.001L33.438,61.625L33.366,61.604C33.224,61.563 33.073,61.565 32.932,61.609L32.858,61.633L31.537,62.044C31.481,62.062 31.428,62.085 31.377,62.115Z" style="fill:rgb(234,234,234);fill-rule:nonzero;"/>
                </g>
                <g id="Rock_Base1" serif:id="Rock_Base">
                    <path d="M58.67,74.959L55.621,69.488C55.537,69.536 55.46,69.593 55.39,69.659L53.819,71.13C53.565,71.371 53.411,71.7 53.388,72.051L53.369,72.316L53.174,75.114C53.159,75.325 53.19,75.536 53.266,75.732L53.559,76.484C53.638,76.689 53.766,76.872 53.933,77.015L58.67,74.959Z" style="fill:rgb(206,206,206);fill-rule:nonzero;"/>
                    <path d="M61.689,76.758C61.775,76.679 61.842,76.609 61.842,76.609L58.67,74.959L53.933,77.015C54.016,77.086 54.109,77.147 54.208,77.194C54.321,77.248 54.447,77.272 54.572,77.266L61.213,76.96C61.39,76.951 61.559,76.879 61.689,76.758Z" style="fill:rgb(128,128,128);fill-rule:nonzero;"/>
                    <path d="M62.84,72.336L62.172,70.959L61.7,69.986C61.622,69.824 61.511,69.679 61.375,69.561L58.67,74.959L61.836,76.619C61.945,76.481 62.027,76.324 62.078,76.156L62.486,74.806L62.921,73.372C63.025,73.029 62.995,72.659 62.84,72.336Z" style="fill:rgb(213,213,213);fill-rule:nonzero;"/>
                    <path d="M55.621,69.488L58.672,74.959L61.377,69.561C61.243,69.444 61.084,69.358 60.913,69.308L58.851,68.719L58.739,68.687C58.516,68.623 58.28,68.626 58.059,68.695L57.941,68.732L55.872,69.377C55.784,69.404 55.7,69.441 55.621,69.488Z" style="fill:rgb(234,234,234);fill-rule:nonzero;"/>
                </g>
                <g id="Rock_Base2" serif:id="Rock_Base">
                    <path d="M47.079,65.05L45.753,62.671C45.717,62.692 45.684,62.717 45.653,62.746L44.97,63.385C44.86,63.49 44.793,63.633 44.783,63.785L44.775,63.901L44.69,65.117C44.683,65.209 44.697,65.3 44.73,65.386L44.857,65.713C44.891,65.802 44.947,65.881 45.02,65.944L47.079,65.05Z" style="fill:rgb(206,206,206);fill-rule:nonzero;"/>
                    <path d="M48.391,65.832C48.429,65.798 48.458,65.767 48.458,65.767L47.079,65.05L45.02,65.943C45.056,65.975 45.096,66.001 45.139,66.021C45.189,66.045 45.243,66.056 45.298,66.053L48.185,65.92C48.262,65.916 48.335,65.885 48.391,65.832Z" style="fill:rgb(128,128,128);fill-rule:nonzero;"/>
                    <path d="M48.892,63.91L48.601,63.311L48.396,62.888C48.362,62.817 48.314,62.754 48.255,62.703L47.079,65.05L48.455,65.771C48.503,65.712 48.538,65.643 48.56,65.57L48.738,64.983L48.927,64.36C48.972,64.211 48.959,64.05 48.892,63.91Z" style="fill:rgb(213,213,213);fill-rule:nonzero;"/>
                    <path d="M45.753,62.671L47.08,65.05L48.256,62.703C48.197,62.652 48.129,62.615 48.054,62.593L47.158,62.337L47.109,62.323C47.012,62.295 46.909,62.297 46.813,62.327L46.762,62.343L45.862,62.623C45.824,62.635 45.788,62.651 45.753,62.671Z" style="fill:rgb(234,234,234);fill-rule:nonzero;"/>
                </g>
            </g>
            <g>
                <path d="M69.355,77.776C69.305,77.907 69.319,78.053 69.393,78.172C69.467,78.29 69.593,78.367 69.732,78.379C71.474,78.533 76.492,78.976 76.492,78.976C76.492,78.976 79.627,77.366 80.658,76.836C80.743,76.793 80.806,76.716 80.834,76.625C80.862,76.534 80.852,76.435 80.806,76.351C80.162,75.178 77.929,71.113 77.256,69.889C77.144,69.685 76.903,69.59 76.682,69.663C75.658,70.002 72.868,70.925 72.06,71.192C71.92,71.239 71.808,71.346 71.755,71.484C71.388,72.447 69.908,76.326 69.355,77.776Z" style="fill:rgb(255,203,0);"/>
                <path d="M74.927,73.334L76.492,78.976C76.492,78.976 71.474,78.533 69.732,78.379C69.593,78.367 69.467,78.29 69.393,78.172C69.319,78.053 69.305,77.907 69.355,77.776C69.825,76.542 70.924,73.664 70.924,73.664L74.927,73.334Z" style="fill-opacity:0.15;"/>
                <path d="M77.063,69.537L74.927,73.334L76.492,78.976C76.492,78.976 79.627,77.366 80.658,76.836C80.743,76.793 80.806,76.716 80.834,76.625C80.862,76.534 80.852,76.435 80.806,76.351C80.045,74.965 77.063,69.537 77.063,69.537Z" style="fill:white;fill-opacity:0.15;"/>
                <path d="M77.614,70.54L75.546,74.3C75.4,74.565 75.497,74.899 75.762,75.045C76.028,75.191 76.362,75.094 76.508,74.829L78.24,71.68L77.614,70.54Z" style="fill:white;fill-opacity:0.85;"/>
                <path d="M78.752,72.611L78.531,72.98L76.431,76.798C76.205,77.208 76.355,77.724 76.765,77.95C77.175,78.176 77.692,78.026 77.917,77.616L79.711,74.356L78.752,72.611Z" style="fill:white;fill-opacity:0.85;"/>
                <path d="M71.177,73.643L74.927,73.334L76.875,69.872" style="fill:none;stroke:white;stroke-opacity:0.85;stroke-width:0.5px;"/>
            </g>
            <g>
                <path d="M63.147,74.435C63.097,74.566 63.112,74.712 63.186,74.83C63.26,74.949 63.385,75.026 63.524,75.038C64.729,75.144 67.366,75.377 67.366,75.377C67.366,75.377 69.03,74.522 69.749,74.153C69.834,74.11 69.897,74.033 69.925,73.942C69.953,73.85 69.943,73.752 69.897,73.668C69.465,72.882 68.354,70.858 67.904,70.039C67.792,69.835 67.55,69.74 67.329,69.813C66.665,70.033 65.314,70.48 64.783,70.656C64.642,70.702 64.53,70.81 64.478,70.948C64.232,71.59 63.508,73.488 63.147,74.435Z" style="fill:rgb(255,203,0);"/>
                <path d="M66.423,71.976L67.366,75.377C67.366,75.377 64.729,75.144 63.524,75.038C63.385,75.026 63.26,74.949 63.186,74.83C63.112,74.712 63.097,74.566 63.147,74.435C63.459,73.617 64.009,72.175 64.009,72.175L66.423,71.976Z" style="fill-opacity:0.15;"/>
                <path d="M67.71,69.687L66.423,71.976L67.366,75.377C67.366,75.377 69.03,74.522 69.749,74.153C69.834,74.11 69.897,74.033 69.925,73.942C69.953,73.85 69.943,73.752 69.897,73.668C69.35,72.672 67.71,69.687 67.71,69.687Z" style="fill:white;fill-opacity:0.15;"/>
                <path d="M68.043,70.292L66.796,72.558C66.708,72.718 66.766,72.92 66.926,73.008C67.086,73.096 67.288,73.037 67.376,72.877L68.42,70.979L68.043,70.292Z" style="fill:white;fill-opacity:0.85;"/>
                <path d="M68.728,71.54L68.596,71.763L67.329,74.064C67.193,74.311 67.284,74.623 67.531,74.759C67.778,74.895 68.089,74.804 68.225,74.557L69.306,72.592L68.728,71.54Z" style="fill:white;fill-opacity:0.85;"/>
                <path d="M64.291,72.152L66.423,71.976L67.5,70.061" style="fill:none;stroke:white;stroke-opacity:0.85;stroke-width:0.5px;"/>
            </g>
            <g>
                <path d="M60.344,79.792C60.294,79.922 60.308,80.069 60.382,80.187C60.456,80.305 60.582,80.382 60.721,80.394C61.925,80.501 64.563,80.734 64.563,80.734C64.563,80.734 66.227,79.879 66.945,79.51C67.03,79.466 67.094,79.39 67.122,79.299C67.15,79.207 67.14,79.108 67.094,79.024C66.662,78.238 65.55,76.214 65.1,75.395C64.988,75.191 64.747,75.096 64.526,75.17C63.861,75.39 62.511,75.836 61.979,76.012C61.839,76.059 61.727,76.166 61.674,76.304C61.429,76.947 60.705,78.845 60.344,79.792Z" style="fill:rgb(255,203,0);"/>
                <path d="M63.619,77.332L64.563,80.734C64.563,80.734 61.925,80.501 60.721,80.394C60.582,80.382 60.456,80.305 60.382,80.187C60.308,80.069 60.294,79.922 60.344,79.792C60.656,78.973 61.206,77.531 61.206,77.531L63.619,77.332Z" style="fill-opacity:0.15;"/>
                <path d="M64.907,75.043L63.619,77.332L64.563,80.734C64.563,80.734 66.227,79.879 66.945,79.51C67.03,79.466 67.094,79.39 67.122,79.299C67.15,79.207 67.14,79.108 67.094,79.024C66.547,78.028 64.907,75.043 64.907,75.043Z" style="fill:white;fill-opacity:0.15;"/>
                <path d="M65.239,75.648L63.992,77.915C63.904,78.075 63.963,78.276 64.123,78.364C64.283,78.452 64.484,78.394 64.572,78.234L65.617,76.335L65.239,75.648Z" style="fill:white;fill-opacity:0.85;"/>
                <path d="M65.925,76.897L65.792,77.119L64.526,79.421C64.39,79.668 64.48,79.979 64.727,80.115C64.975,80.251 65.286,80.161 65.422,79.914L66.503,77.949L65.925,76.897Z" style="fill:white;fill-opacity:0.85;"/>
                <path d="M61.457,77.511L63.619,77.332L64.702,75.407" style="fill:none;stroke:white;stroke-opacity:0.85;stroke-width:0.5px;"/>
            </g>
        </g>
        <g id="Layer16">
            <path d="M58.069,36.387C56.79,36.962 55.285,36.391 54.71,35.113C54.134,33.834 54.705,32.329 55.984,31.753L65.901,27.292C67.18,26.717 68.685,27.288 69.26,28.567C69.835,29.846 69.264,31.351 67.985,31.926L58.069,36.387Z" style="fill:rgb(188,54,86);"/>
            <path d="M77.079,41.731C77.777,43.339 77.038,45.21 75.431,45.908C73.823,46.606 71.952,45.868 71.254,44.26L65.779,31.649C65.081,30.041 65.82,28.169 67.427,27.472C69.035,26.774 70.907,27.512 71.604,29.12L77.079,41.731Z" style="fill:rgb(188,54,86);"/>
            <g>
                <path d="M52.023,35.275C52.732,34.065 54.289,33.658 55.499,34.367C56.709,35.075 57.116,36.633 56.408,37.843L52.588,44.366C51.879,45.576 50.322,45.983 49.112,45.275C47.902,44.566 47.495,43.009 48.203,41.799L52.023,35.275Z" style="fill:rgb(188,54,86);"/>
                <g>
                    <path d="M47.509,48.207L40.028,61" style="fill:none;stroke:rgb(128,238,35);stroke-width:3.84px;"/>
                    <path d="M44.883,46.394C44.168,47.961 44.859,49.813 46.426,50.528C47.993,51.243 49.845,50.552 50.56,48.985C51.275,47.418 50.583,45.566 49.017,44.851C47.45,44.136 45.598,44.828 44.883,46.394Z" style="fill:rgb(128,238,35);"/>
                    <path d="M47.509,48.207L40.028,61" style="fill:none;stroke:white;stroke-width:1.59px;"/>
                    <path d="M45.844,46.833C45.371,47.869 45.828,49.094 46.865,49.567C47.901,50.04 49.126,49.583 49.599,48.546C50.072,47.51 49.614,46.285 48.578,45.812C47.542,45.339 46.317,45.797 45.844,46.833Z" style="fill:white;"/>
                </g>
                <path d="M44.185,44.525C43.769,44.511 43.413,44.219 43.319,43.813C43.225,43.407 43.416,42.989 43.784,42.794C45.633,41.761 48.139,41.796 50.304,43.064C52.469,44.332 53.726,46.501 53.756,48.618C53.764,49.045 53.485,49.425 53.075,49.545C52.665,49.664 52.225,49.494 52.003,49.128C51.23,47.957 50.061,46.82 48.604,45.967C47.148,45.114 45.583,44.651 44.185,44.525Z" style="fill:rgb(188,54,86);"/>
            </g>
            <path d="M81.539,49.861C80.119,48.026 77.929,46.951 75.608,46.951C73.287,46.951 71.097,48.026 69.677,49.861C68.433,51.469 67.182,53.087 66.132,54.443C65.636,55.085 65.548,55.954 65.905,56.683C66.263,57.411 67.004,57.873 67.815,57.873C72.218,57.873 78.997,57.873 83.4,57.873C84.212,57.873 84.953,57.411 85.311,56.683C85.668,55.954 85.58,55.085 85.083,54.443C84.034,53.087 82.783,51.469 81.539,49.861Z" style="fill:rgb(188,54,86);"/>
            <circle cx="75.508" cy="46.369" r="4.082" style="fill:rgb(188,54,86);"/>
            <path d="M75.508,42.287C73.255,42.287 71.426,44.116 71.426,46.369C71.426,48.622 73.255,50.451 75.508,50.451C77.761,50.451 79.59,48.622 79.59,46.369C79.59,44.116 77.761,42.287 75.508,42.287ZM75.508,43.202C77.256,43.202 78.675,44.621 78.675,46.369C78.675,48.117 77.256,49.536 75.508,49.536C73.76,49.536 72.341,48.117 72.341,46.369C72.341,44.621 73.76,43.202 75.508,43.202Z" style="fill:rgb(255,198,198);"/>
            <circle cx="68.311" cy="29.881" r="3.463" style="fill:rgb(188,54,86);"/>
            <path d="M68.311,26.418C66.4,26.418 64.848,27.97 64.848,29.881C64.848,31.792 66.4,33.344 68.311,33.344C70.223,33.344 71.775,31.792 71.775,29.881C71.775,27.97 70.223,26.418 68.311,26.418ZM68.311,27.333C69.718,27.333 70.86,28.475 70.86,29.881C70.86,31.288 69.718,32.429 68.311,32.429C66.905,32.429 65.763,31.288 65.763,29.881C65.763,28.475 66.905,27.333 68.311,27.333Z" style="fill:rgb(255,198,198);"/>
            <path d="M54.029,31.914C52.643,32.787 52.227,34.621 53.101,36.007C53.974,37.393 55.808,37.809 57.194,36.936C58.58,36.063 58.996,34.228 58.123,32.842C57.25,31.456 55.415,31.04 54.029,31.914Z" style="fill:rgb(188,54,86);"/>
            <path d="M54.029,31.914C52.643,32.787 52.227,34.621 53.101,36.007C53.974,37.393 55.808,37.809 57.194,36.936C58.58,36.063 58.996,34.228 58.123,32.842C57.25,31.456 55.415,31.04 54.029,31.914ZM54.517,32.688C55.476,32.083 56.745,32.371 57.349,33.33C57.953,34.289 57.665,35.558 56.707,36.162C55.748,36.766 54.479,36.478 53.875,35.52C53.27,34.561 53.558,33.292 54.517,32.688Z" style="fill:rgb(255,198,198);"/>
            <path d="M65.679,55.762C65.679,54.597 66.625,53.651 67.79,53.651L83.365,53.651C84.531,53.651 85.477,54.597 85.477,55.762C85.477,56.927 84.531,57.873 83.365,57.873L67.79,57.873C66.625,57.873 65.679,56.927 65.679,55.762Z" style="fill-opacity:0.41;"/>
        </g>
        <g id="Layer161" serif:id="Layer16">
            <path d="M39.525,50.112C40.984,49.603 41.755,48.004 41.246,46.545C40.737,45.086 39.139,44.315 37.68,44.825L23.389,49.813C21.93,50.322 21.159,51.92 21.669,53.379C22.178,54.838 23.776,55.609 25.235,55.1L39.525,50.112Z" style="fill:rgb(188,54,86);"/>
            <path d="M15.552,69.216C15.096,71.093 16.251,72.986 18.128,73.441C20.005,73.897 21.899,72.742 22.354,70.865L25.925,56.139C26.38,54.262 25.226,52.368 23.349,51.913C21.472,51.458 19.578,52.612 19.123,54.489L15.552,69.216Z" style="fill:rgb(188,54,86);"/>
            <g>
                <path d="M43.398,45.754C42.525,44.479 40.781,44.152 39.506,45.024C38.23,45.897 37.903,47.641 38.776,48.916L45.521,58.776C46.394,60.051 48.138,60.378 49.413,59.506C50.689,58.633 51.016,56.889 50.143,55.614L43.398,45.754Z" style="fill:rgb(188,54,86);"/>
                <g>
                    <path d="M51.402,62.605L57.352,71.313" style="fill:none;stroke:rgb(128,238,35);stroke-width:4.23px;"/>
                    <path d="M54.149,60.409C55.056,62.077 54.439,64.167 52.772,65.074C51.105,65.981 49.015,65.364 48.108,63.697C47.2,62.03 47.817,59.94 49.485,59.032C51.152,58.125 53.242,58.742 54.149,60.409Z" style="fill:rgb(128,238,35);"/>
                    <path d="M51.402,62.605L57.352,71.313" style="fill:none;stroke:white;stroke-width:1.76px;"/>
                    <path d="M53.126,60.966C53.726,62.069 53.318,63.451 52.216,64.051C51.113,64.651 49.731,64.243 49.131,63.14C48.531,62.038 48.939,60.655 50.041,60.055C51.144,59.455 52.526,59.863 53.126,60.966Z" style="fill:white;"/>
                </g>
                <path d="M55.057,58.258C55.469,58.229 55.811,57.929 55.894,57.524C55.977,57.119 55.781,56.709 55.414,56.52C53.259,55.352 50.334,55.523 47.931,57.167C45.528,58.811 44.309,61.476 44.598,63.909C44.643,64.327 44.96,64.665 45.375,64.736C45.79,64.806 46.202,64.592 46.382,64.212C47.142,62.788 48.393,61.344 50.024,60.227C51.656,59.111 53.455,58.469 55.057,58.258Z" style="fill:rgb(188,54,86);"/>
            </g>
            <path d="M12.358,75.635C13.778,73.799 15.968,72.725 18.289,72.725C20.61,72.725 22.801,73.799 24.221,75.635C25.894,77.798 27.63,80.043 29.004,81.819C29.501,82.461 29.589,83.33 29.231,84.059C28.874,84.787 28.133,85.249 27.321,85.249C22.345,85.249 14.233,85.249 9.258,85.249C8.446,85.249 7.705,84.787 7.347,84.059C6.99,83.33 7.078,82.461 7.575,81.819C8.949,80.043 10.685,77.798 12.358,75.635Z" style="fill:rgb(188,54,86);"/>
            <circle cx="17.833" cy="72.408" r="4.499" style="fill:rgb(188,54,86);"/>
            <path d="M17.833,67.909C20.317,67.909 22.333,69.925 22.333,72.408C22.333,74.891 20.317,76.907 17.833,76.907C15.35,76.907 13.334,74.891 13.334,72.408C13.334,69.925 15.35,67.909 17.833,67.909ZM17.833,68.824C19.812,68.824 21.418,70.43 21.418,72.408C21.418,74.386 19.812,75.992 17.833,75.992C15.855,75.992 14.249,74.386 14.249,72.408C14.249,70.43 15.855,68.824 17.833,68.824Z" style="fill:rgb(255,198,198);"/>
            <circle cx="23.004" cy="53.474" r="3.817" style="fill:rgb(188,54,86);"/>
            <path d="M23.004,49.657C25.111,49.657 26.821,51.368 26.821,53.474C26.821,55.581 25.111,57.291 23.004,57.291C20.897,57.291 19.187,55.581 19.187,53.474C19.187,51.368 20.897,49.657 23.004,49.657ZM23.004,50.572C24.606,50.572 25.906,51.872 25.906,53.474C25.906,55.076 24.606,56.376 23.004,56.376C21.402,56.376 20.102,55.076 20.102,53.474C20.102,51.872 21.402,50.572 23.004,50.572Z" style="fill:rgb(255,198,198);"/>
            <circle cx="40.412" cy="47.473" r="3.272" style="fill:rgb(188,54,86);"/>
            <path d="M40.412,44.201C42.218,44.201 43.684,45.667 43.684,47.473C43.684,49.279 42.218,50.745 40.412,50.745C38.607,50.745 37.141,49.279 37.141,47.473C37.141,45.667 38.607,44.201 40.412,44.201ZM40.412,45.116C41.713,45.116 42.769,46.172 42.769,47.473C42.769,48.774 41.713,49.83 40.412,49.83C39.112,49.83 38.056,48.774 38.056,47.473C38.056,46.172 39.112,45.116 40.412,45.116Z" style="fill:rgb(255,198,198);"/>
            <path d="M29.449,83.099C29.449,81.912 28.485,80.949 27.299,80.949L9.28,80.949C8.093,80.949 7.13,81.912 7.13,83.099C7.13,84.286 8.093,85.249 9.28,85.249L27.299,85.249C28.485,85.249 29.449,84.286 29.449,83.099Z" style="fill-opacity:0.41;"/>
        </g>
    </g>
    <g transform="matrix(0.31024,0,0,0.817245,-399.751,-582.459)">
        <g transform="matrix(3.22331,0,0,1.22362,-3324.92,-162.235)">
            <path d="M1517.44,750.542C1518.48,750.376 1519.38,749.902 1520.16,749.122C1521.15,748.139 1521.65,746.933 1521.65,745.488C1521.65,744.085 1521.16,742.885 1520.16,741.891C1519.31,741.037 1518.31,740.551 1517.15,740.431C1516.9,739.75 1516.51,739.133 1515.95,738.579C1515.11,737.737 1514.12,737.252 1512.99,737.125L1515.03,731.682C1515.49,730.415 1515.46,729.149 1514.91,727.883C1514.36,726.601 1513.42,725.687 1512.08,725.163C1512.04,725.149 1512.01,725.135 1511.97,725.123C1510.66,724.667 1509.38,724.727 1508.12,725.297C1506.82,725.89 1505.94,726.849 1505.47,728.153C1505.48,728.134 1499.61,743.711 1499.61,743.711C1499.6,743.747 1499.59,743.783 1499.57,743.82C1499,745.536 1499.25,747.073 1500.22,748.446C1500.23,748.453 1500.23,748.459 1500.24,748.465C1501.27,749.908 1502.67,750.612 1504.4,750.612C1504.4,750.612 1507.27,750.612 1507.27,750.612C1507.27,750.612 1507.27,751.032 1507.27,751.032C1507.27,752.436 1507.76,753.635 1508.76,754.63C1508.76,754.63 1508.76,754.63 1508.76,754.63C1509.75,755.624 1510.95,756.12 1512.36,756.12C1513.76,756.12 1514.96,755.624 1515.95,754.63C1516.95,753.635 1517.44,752.436 1517.44,751.032L1517.44,750.542ZM1516.57,743.4C1517.14,743.4 1517.63,743.604 1518.04,744.012C1518.45,744.42 1518.65,744.912 1518.65,745.488C1518.65,746.088 1518.45,746.592 1518.04,747C1517.63,747.408 1517.14,747.612 1516.57,747.612L1514.44,747.612L1514.44,751.032C1514.44,751.608 1514.24,752.1 1513.83,752.508C1513.42,752.916 1512.93,753.12 1512.36,753.12C1511.78,753.12 1511.29,752.916 1510.88,752.508C1510.47,752.1 1510.27,751.608 1510.27,751.032L1510.27,747.612L1504.4,747.612C1503.68,747.612 1503.1,747.312 1502.67,746.712C1502.26,746.136 1502.18,745.488 1502.42,744.768L1508.29,729.18C1508.48,728.652 1508.84,728.268 1509.37,728.028C1509.89,727.788 1510.43,727.764 1510.99,727.956C1511.54,728.172 1511.93,728.544 1512.16,729.072C1512.38,729.6 1512.4,730.128 1512.21,730.656L1507.42,743.4L1510.27,743.4L1510.27,742.176C1510.27,741.6 1510.47,741.108 1510.88,740.7C1511.29,740.292 1511.78,740.088 1512.36,740.088C1512.93,740.088 1513.42,740.292 1513.83,740.7C1514.24,741.108 1514.44,741.6 1514.44,742.176L1514.44,743.4L1516.57,743.4Z"/>
        </g>
        <g transform="matrix(3.22331,0,0,1.22362,-3324.92,-162.235)">
            <g transform="matrix(36,0,0,36,1501.59,753.12)">
                <path d="M0.416,-0.27C0.432,-0.27 0.446,-0.264 0.457,-0.253C0.468,-0.242 0.474,-0.228 0.474,-0.212C0.474,-0.195 0.468,-0.181 0.457,-0.17C0.446,-0.159 0.432,-0.153 0.416,-0.153L0.357,-0.153L0.357,-0.058C0.357,-0.042 0.351,-0.028 0.34,-0.017C0.329,-0.006 0.315,-0 0.299,-0C0.283,-0 0.269,-0.006 0.258,-0.017C0.247,-0.028 0.241,-0.042 0.241,-0.058L0.241,-0.153L0.078,-0.153C0.058,-0.153 0.042,-0.161 0.03,-0.178C0.019,-0.194 0.016,-0.212 0.023,-0.232L0.186,-0.665C0.191,-0.68 0.201,-0.69 0.216,-0.697C0.231,-0.704 0.246,-0.704 0.261,-0.699C0.276,-0.693 0.287,-0.683 0.294,-0.668C0.3,-0.653 0.3,-0.639 0.295,-0.624L0.162,-0.27L0.241,-0.27L0.241,-0.304C0.241,-0.32 0.247,-0.334 0.258,-0.345C0.269,-0.356 0.283,-0.362 0.299,-0.362C0.315,-0.362 0.329,-0.356 0.34,-0.345C0.351,-0.334 0.357,-0.32 0.357,-0.304L0.357,-0.27L0.416,-0.27Z" style="fill:white;fill-rule:nonzero;"/>
            </g>
        </g>
    </g>
</svg>
