<?xml version="1.0" encoding="UTF-8" standalone="no"?>
<!DOCTYPE svg PUBLIC "-//W3C//DTD SVG 1.1//EN" "http://www.w3.org/Graphics/SVG/1.1/DTD/svg11.dtd">
<svg width="100%" height="100%" viewBox="0 0 101 101" version="1.1" xmlns="http://www.w3.org/2000/svg" xmlns:xlink="http://www.w3.org/1999/xlink" xml:space="preserve" xmlns:serif="http://www.serif.com/" style="fill-rule:evenodd;clip-rule:evenodd;stroke-linejoin:round;stroke-miterlimit:1.41421;">
    <g transform="matrix(1,0,0,1,-381.67,-372.489)">
        <g id="ff_icon" transform="matrix(1,0,0,1,131.574,-6.5111)">
            <rect x="250.096" y="379" width="100.045" height="100.045" style="fill:none;"/>
            <g transform="matrix(1,0,0,1,-131.574,6.5111)">
                <path d="M422.202,409.548L422.202,402.441C422.202,400.997 422.972,399.663 424.222,398.941C425.473,398.219 427.013,398.219 428.264,398.941C435.21,402.952 445.645,408.976 445.645,408.976C445.645,408.976 456.08,415.001 463.026,419.011C464.277,419.733 465.047,421.067 465.047,422.511C465.047,423.955 464.277,425.29 463.026,426.011C456.08,430.022 445.645,436.046 445.645,436.046C445.645,436.046 435.21,442.071 428.264,446.081C427.013,446.803 425.473,446.803 424.222,446.081C422.972,445.36 422.202,444.025 422.202,442.581L422.202,435.474L421.211,436.046C421.211,436.046 410.776,442.071 403.83,446.081C402.579,446.803 401.039,446.803 399.788,446.081C398.538,445.36 397.767,444.025 397.767,442.581L397.767,402.441C397.767,400.997 398.538,399.663 399.788,398.941C401.039,398.219 402.579,398.219 403.83,398.941C410.776,402.952 421.211,408.976 421.211,408.976L422.202,409.548Z" style="fill:white;fill-rule:nonzero;stroke:rgb(25,25,55);stroke-width:3px;"/>
            </g>
        </g>
    </g>
</svg>
