<?xml version="1.0" encoding="UTF-8" standalone="no"?>
<!DOCTYPE svg PUBLIC "-//W3C//DTD SVG 1.1//EN" "http://www.w3.org/Graphics/SVG/1.1/DTD/svg11.dtd">
<svg width="100%" height="100%" viewBox="0 0 101 101" version="1.1" xmlns="http://www.w3.org/2000/svg" xmlns:xlink="http://www.w3.org/1999/xlink" xml:space="preserve" xmlns:serif="http://www.serif.com/" style="fill-rule:evenodd;clip-rule:evenodd;stroke-linejoin:round;stroke-miterlimit:1.41421;">
    <g transform="matrix(1,0,0,1,-513.007,-372.374)">
        <g id="fff_icon" transform="matrix(1,0,0,1,262.911,-6.62645)">
            <rect x="250.096" y="379" width="100.045" height="100.045" style="fill:none;"/>
            <g transform="matrix(1,0,0,1,-262.911,6.62645)">
                <path d="M566.856,409.767L566.856,402.326C566.856,400.882 567.627,399.548 568.877,398.826C570.128,398.104 571.668,398.104 572.919,398.826C579.865,402.836 590.3,408.861 590.3,408.861C590.3,408.861 600.735,414.886 607.681,418.896C608.932,419.618 609.702,420.952 609.702,422.396C609.702,423.84 608.932,425.174 607.681,425.896C600.735,429.907 590.3,435.931 590.3,435.931C590.3,435.931 579.865,441.956 572.919,445.966C571.668,446.688 570.128,446.688 568.877,445.966C567.627,445.244 566.856,443.91 566.856,442.466L566.856,435.025L565.287,435.931C565.287,435.931 554.852,441.956 547.906,445.966C546.655,446.688 545.115,446.688 543.864,445.966C542.614,445.244 541.843,443.91 541.843,442.466L541.843,434.751L539.8,435.931C539.8,435.931 529.365,441.956 522.419,445.966C521.168,446.688 519.628,446.688 518.377,445.966C517.127,445.244 516.356,443.91 516.356,442.466L516.356,402.326C516.356,400.882 517.127,399.548 518.377,398.826C519.628,398.104 521.168,398.104 522.419,398.826C529.365,402.836 539.8,408.861 539.8,408.861L541.843,410.041L541.843,402.326C541.843,400.882 542.614,399.548 543.864,398.826C545.115,398.104 546.655,398.104 547.906,398.826C554.852,402.836 565.287,408.861 565.287,408.861L566.856,409.767Z" style="fill:white;fill-rule:nonzero;stroke:rgb(25,25,55);stroke-width:3px;"/>
            </g>
        </g>
    </g>
</svg>
