<?xml version="1.0" encoding="UTF-8" standalone="no"?>
<!DOCTYPE svg PUBLIC "-//W3C//DTD SVG 1.1//EN" "http://www.w3.org/Graphics/SVG/1.1/DTD/svg11.dtd">
<svg width="100%" height="100%" viewBox="0 0 100 100" version="1.1" xmlns="http://www.w3.org/2000/svg" xmlns:xlink="http://www.w3.org/1999/xlink" xml:space="preserve" xmlns:serif="http://www.serif.com/" style="fill-rule:evenodd;clip-rule:evenodd;">
    <g transform="matrix(1,0,0,1,-4599.67,0)">
        <g id="galaxy_route_button" transform="matrix(1,0,0,1,23.3748,0)">
            <rect x="4576.3" y="0" width="100" height="100" style="fill:none;"/>
            <g transform="matrix(0.865933,0,0,0.865933,4664.4,50)">
                <path d="M0,0C0,-24.3 -19.7,-44 -44,-44C-68.3,-44 -88,-24.3 -88,0C-88,24.3 -68.3,44 -44,44C-19.7,44 0,24.3 0,0" style="fill:rgb(236,228,207);fill-rule:nonzero;"/>
            </g>
            <g transform="matrix(1,0,0,1,-28.7583,9.03488)">
                <path d="M4619.46,54.583L4668.67,5.37" style="fill:none;stroke:rgb(158,1,66);stroke-width:6px;"/>
            </g>
            <g transform="matrix(1,0,0,1,-24.3335,12.5747)">
                <path d="M4617.6,56.438L4669.64,4.4" style="fill:none;stroke:rgb(213,62,79);stroke-width:6px;"/>
            </g>
            <g transform="matrix(1,0,0,1,-19.9087,16.4096)">
                <path d="M4616.54,57.503L4670.12,3.926" style="fill:none;stroke:rgb(50,136,189);stroke-width:6px;"/>
            </g>
            <g transform="matrix(1,0,0,1,-15.4838,20.2445)">
                <path d="M4616.12,57.922L4669.94,4.097" style="fill:none;stroke:rgb(253,174,97);stroke-width:6px;"/>
            </g>
            <g transform="matrix(1,0,0,1,-11.649,24.3743)">
                <path d="M4616.75,57.292L4669.61,4.431" style="fill:none;stroke:rgb(94,209,111);stroke-width:6px;"/>
            </g>
            <g transform="matrix(1,0,0,1,-7.51912,28.2092)">
                <path d="M4617.71,56.331L4668.36,5.687" style="fill:none;stroke:rgb(102,68,102);stroke-width:6px;"/>
            </g>
            <g transform="matrix(1,0,0,1,-3.53677,32.1915)">
                <path d="M4619.54,54.503L4666.53,7.516" style="fill:none;stroke:rgb(244,109,67);stroke-width:6px;"/>
            </g>
            <g transform="matrix(0.865933,0,0,0.865933,4664.4,50)">
                <path d="M2.583,1.203C1.946,26.381 -18.666,46.598 -44,46.598C-69.735,46.598 -90.598,25.735 -90.598,0C-90.598,-25.735 -69.735,-46.598 -44,-46.598C-18.265,-46.598 2.598,-25.735 2.598,0L2.595,0.602L2.583,1.203ZM-2.612,-1.069C-3.178,-23.439 -21.492,-41.402 -44,-41.402C-66.865,-41.402 -85.402,-22.865 -85.402,0C-85.402,22.865 -66.865,41.402 -44,41.402C-21.135,41.402 -2.598,22.865 -2.598,0L-2.602,-0.535L-2.612,-1.069Z"/>
            </g>
        </g>
    </g>
</svg>
