<?xml version="1.0" encoding="UTF-8" standalone="no"?>
<!DOCTYPE svg PUBLIC "-//W3C//DTD SVG 1.1//EN" "http://www.w3.org/Graphics/SVG/1.1/DTD/svg11.dtd">
<svg width="100%" height="100%" viewBox="0 0 100 100" version="1.1" xmlns="http://www.w3.org/2000/svg" xmlns:xlink="http://www.w3.org/1999/xlink" xml:space="preserve" xmlns:serif="http://www.serif.com/" style="fill-rule:evenodd;clip-rule:evenodd;stroke-linejoin:round;stroke-miterlimit:2;">
    <g transform="matrix(1,0,0,1,-1226.14,-531)">
        <g id="import_icon" transform="matrix(1,0,0,1,-2632.86,142.242)">
            <rect x="3859" y="388.758" width="100" height="100" style="fill:none;"/>
            <g transform="matrix(1,0,0,1,3859,388.758)">
                <path d="M7.956,67.715C5.733,67.738 3.736,69.795 3.778,72.018C3.778,72.01 3.778,79 3.778,79C3.778,88.485 11.515,96.222 21,96.222C21,96.222 79,96.222 79,96.222C88.485,96.222 96.222,88.485 96.222,79C96.222,79 96.222,72.005 96.222,72.005C96.245,69.78 94.226,67.737 92,67.737C89.774,67.737 87.755,69.78 87.778,72.005C87.778,72.005 87.778,79 87.778,79C87.778,83.908 83.908,87.778 79,87.778C79,87.778 21,87.778 21,87.778C16.092,87.778 12.222,83.908 12.222,79C12.222,79 12.222,72.01 12.222,72.01C12.259,69.761 10.206,67.692 7.956,67.715L7.956,67.715ZM7.969,68.938C6.387,68.954 4.967,70.419 5,72L5,79C5,87.812 12.188,95 21,95L79,95C87.812,95 95,87.812 95,79L95,72C95.021,70.416 93.584,68.96 92,68.96C90.416,68.96 88.979,70.416 89,72L89,79C89,84.592 84.592,89 79,89L21,89C15.408,89 11,84.592 11,79L11,72C11.033,70.398 9.571,68.921 7.969,68.938ZM49.956,3.778C47.733,3.801 45.736,5.858 45.778,8.08C45.778,8.073 45.778,61.799 45.778,61.799C45.778,61.799 32.996,49.017 32.996,49.017C32.111,48.104 30.797,47.624 29.532,47.753C29.53,47.753 29.528,47.753 29.526,47.753C27.945,47.923 26.51,49.064 25.988,50.566C25.466,52.067 25.884,53.853 27.019,54.966C27.011,54.958 47.011,74.958 47.011,74.958C48.573,76.526 51.427,76.526 52.991,74.957C52.989,74.958 72.966,54.981 72.966,54.981C74.658,53.448 74.733,50.463 73.11,48.852C71.486,47.24 68.501,47.337 66.98,49.042C66.985,49.037 54.222,61.799 54.222,61.799C54.222,61.799 54.222,8.073 54.222,8.073C54.259,5.824 52.206,3.754 49.956,3.778L49.956,3.778ZM49.969,5C48.387,5.016 46.967,6.481 47,8.063L47,64.75L32.125,49.875C31.496,49.221 30.559,48.876 29.656,48.969C28.533,49.089 27.513,49.9 27.142,50.967C26.771,52.034 27.069,53.303 27.875,54.094L47.875,74.094C48.986,75.209 51.014,75.209 52.125,74.094L72.125,54.094C73.348,53.009 73.409,50.871 72.249,49.719C71.088,48.567 68.95,48.644 67.875,49.875L53,64.75L53,8.063C53.033,6.461 51.571,4.983 49.969,5Z" style="fill:white;"/>
                <path d="M49.969,5C48.387,5.016 46.967,6.481 47,8.063L47,64.75L32.125,49.875C31.496,49.221 30.559,48.876 29.656,48.969C28.533,49.089 27.513,49.9 27.142,50.967C26.771,52.034 27.069,53.303 27.875,54.094L47.875,74.094C48.986,75.209 51.014,75.209 52.125,74.094L72.125,54.094C73.348,53.009 73.409,50.871 72.249,49.719C71.088,48.567 68.95,48.644 67.875,49.875L53,64.75L53,8.063C53.033,6.461 51.571,4.983 49.969,5ZM7.969,68.938C6.387,68.954 4.967,70.419 5,72L5,79C5,87.812 12.188,95 21,95L79,95C87.812,95 95,87.812 95,79L95,72C95.021,70.416 93.584,68.96 92,68.96C90.416,68.96 88.979,70.416 89,72L89,79C89,84.592 84.592,89 79,89L21,89C15.408,89 11,84.592 11,79L11,72C11.033,70.398 9.571,68.921 7.969,68.938Z" style="fill:white;fill-rule:nonzero;"/>
            </g>
        </g>
        <g id="Layer3">
        </g>
    </g>
</svg>
