<?xml version="1.0" encoding="UTF-8" standalone="no"?>
<!DOCTYPE svg PUBLIC "-//W3C//DTD SVG 1.1//EN" "http://www.w3.org/Graphics/SVG/1.1/DTD/svg11.dtd">
<svg width="100%" height="100%" viewBox="0 0 100 101" version="1.1" xmlns="http://www.w3.org/2000/svg" xmlns:xlink="http://www.w3.org/1999/xlink" xml:space="preserve" xmlns:serif="http://www.serif.com/" style="fill-rule:evenodd;clip-rule:evenodd;stroke-linecap:round;stroke-linejoin:round;stroke-miterlimit:1.5;">
    <rect id="miner_1" x="0" y="0.785" width="100" height="100" style="fill:none;"/>
    <g id="Layer10">
        <g id="Stone">
            <g id="Rock_Base">
                <path d="M33.503,63.422L24.188,46.706C23.933,46.854 23.696,47.03 23.482,47.231L18.684,51.724C17.907,52.462 17.436,53.467 17.366,54.537L17.309,55.347L16.711,63.898C16.665,64.54 16.762,65.185 16.995,65.785L17.887,68.083C18.129,68.71 18.522,69.267 19.031,69.706L33.503,63.422Z" style="fill:rgb(206,206,206);fill-rule:nonzero;"/>
                <path d="M42.728,68.921C42.992,68.679 43.197,68.464 43.197,68.464L33.503,63.422L19.031,69.703C19.285,69.923 19.568,70.107 19.871,70.252C20.218,70.416 20.601,70.492 20.984,70.471L41.274,69.538C41.816,69.508 42.331,69.29 42.728,68.921Z" style="fill:rgb(128,128,128);fill-rule:nonzero;"/>
                <path d="M46.243,55.41L44.203,51.203L42.763,48.231C42.523,47.734 42.185,47.292 41.769,46.93L33.503,63.422L43.177,68.494C43.51,68.074 43.761,67.594 43.916,67.081L45.163,62.956L46.493,58.576C46.809,57.527 46.72,56.397 46.243,55.41Z" style="fill:rgb(213,213,213);fill-rule:nonzero;"/>
                <path d="M24.188,46.706L33.51,63.422L41.776,46.93C41.365,46.573 40.881,46.31 40.358,46.159L34.059,44.359L33.715,44.26C33.034,44.066 32.312,44.074 31.636,44.285L31.278,44.398L24.954,46.368C24.687,46.451 24.43,46.565 24.188,46.706Z" style="fill:rgb(234,234,234);fill-rule:nonzero;"/>
            </g>
        </g>
        <g id="Layer8">
            <path d="M48.493,67.484C47.865,67.396 47.324,66.995 47.057,66.42C46.789,65.844 46.832,65.172 47.169,64.635C49.648,60.685 54.457,53.022 56.457,49.837C57.022,48.936 58.001,48.376 59.065,48.346C63.536,48.219 75.476,47.878 78.522,47.792C78.991,47.778 79.456,47.885 79.872,48.101C81.846,49.124 87.915,52.271 90.902,53.819C91.945,54.36 92.606,55.432 92.621,56.607C92.661,59.686 92.74,65.735 92.782,69.037C92.799,70.319 91.812,71.39 90.534,71.478C87.611,71.681 82.778,72.015 81.625,72.095C81.457,72.107 81.288,72.101 81.122,72.077C78.524,71.712 56.466,68.606 48.493,67.484Z" style="fill:rgb(206,206,206);"/>
            <path d="M76.235,65.071L66.034,63.707L57.252,68.717L81.275,72.094L76.235,65.071Z" style="fill:rgb(128,128,128);"/>
            <path d="M79.237,47.771L76.235,65.071L81.244,72.095C81.244,72.095 87.158,71.699 90.529,71.473C91.809,71.388 92.799,70.315 92.782,69.032C92.739,65.729 92.661,59.684 92.621,56.607C92.606,55.432 91.945,54.36 90.902,53.819C87.305,51.955 79.237,47.771 79.237,47.771Z" style="fill:rgb(213,213,213);"/>
            <path d="M59.084,48.345C59.084,48.345 62.887,58.833 64.306,62.745C64.626,63.627 65.432,64.24 66.368,64.312C68.859,64.504 73.686,64.875 75.512,65.016C75.983,65.052 76.455,64.948 76.866,64.716C77.749,64.219 79.377,63.302 80.585,62.622C81.489,62.114 81.961,61.079 81.753,60.063C80.989,56.331 79.237,47.771 79.237,47.771L59.084,48.345Z" style="fill:rgb(234,234,234);"/>
        </g>
        <circle cx="58.903" cy="59.493" r="2.182" style="fill:rgb(245,218,66);"/>
        <circle cx="61.213" cy="50.908" r="1.668" style="fill:rgb(255,249,215);"/>
        <circle cx="38.669" cy="44.62" r="1.882" style="fill:rgb(255,249,215);"/>
        <circle cx="60.956" cy="65.196" r="2.011" style="fill:rgb(255,249,215);"/>
        <circle cx="41.364" cy="58.352" r="2.011" style="fill:rgb(255,249,215);"/>
        <circle cx="69.982" cy="25.456" r="1.882" style="fill:rgb(255,249,215);"/>
        <circle cx="31.482" cy="30.846" r="1.882" style="fill:rgb(255,249,215);"/>
        <circle cx="55.66" cy="51.572" r="2.096" style="fill:rgb(245,164,66);"/>
        <circle cx="67.268" cy="47.575" r="2.015" style="fill:rgb(245,164,66);"/>
        <circle cx="64.257" cy="33.886" r="1.978" style="fill:rgb(245,164,66);"/>
        <circle cx="34.525" cy="33.393" r="1.892" style="fill:rgb(245,164,66);"/>
        <circle cx="26.311" cy="27.973" r="2.02" style="fill:rgb(245,164,66);"/>
        <circle cx="26.038" cy="42.976" r="1.892" style="fill:rgb(245,164,66);"/>
        <g id="Layer5">
            <path d="M48.18,70.651C48.292,71.094 48.69,71.404 49.147,71.404C49.604,71.404 50.002,71.095 50.115,70.652C52.799,60.079 60.216,30.865 61.457,25.978C61.564,25.555 61.386,25.112 61.015,24.883C53.718,20.407 45.842,20.426 37.389,24.895C36.984,25.109 36.778,25.574 36.89,26.018C38.163,31.058 45.514,60.113 48.18,70.651Z" style="fill:rgb(209,86,54);"/>
            <path d="M46.907,65.619C48.444,64.73 50.03,64.403 51.659,64.571" style="fill:none;stroke:rgb(242,145,120);stroke-width:1.46px;"/>
            <path d="M45.746,61.032C48.015,59.72 50.416,59.165 52.961,59.441" style="fill:none;stroke:rgb(242,145,120);stroke-width:1.46px;"/>
            <path d="M44.605,56.52C47.688,54.923 50.887,54.126 54.242,54.395" style="fill:none;stroke:rgb(242,145,120);stroke-width:1.46px;"/>
            <path d="M43.379,51.674C47.526,49.216 51.614,48.133 55.618,48.976" style="fill:none;stroke:rgb(242,145,120);stroke-width:1.46px;"/>
            <path d="M42.138,46.77C46.897,43.928 51.844,42.745 57.011,43.491" style="fill:none;stroke:rgb(242,145,120);stroke-width:1.46px;"/>
            <path d="M40.778,41.396C46.768,38.105 52.689,36.748 58.537,37.481" style="fill:none;stroke:rgb(242,145,120);stroke-width:1.46px;"/>
            <path d="M39.515,36.403C45.765,32.135 52.556,30.522 59.954,31.896" style="fill:none;stroke:rgb(242,145,120);stroke-width:1.46px;"/>
            <path d="M38.224,31.299C44.474,27.031 53.898,25.236 61.296,26.611" style="fill:none;stroke:rgb(242,145,120);stroke-width:1.46px;"/>
            <path d="M37.393,26.537C42.569,21.965 49.481,21.536 49.481,21.536" style="fill:none;stroke:rgb(242,145,120);stroke-width:1.46px;"/>
            <path d="M43.452,28.562L40.082,30.153" style="fill:none;stroke:white;stroke-opacity:0.94;stroke-width:2px;"/>
            <path d="M42.356,23.363L38.987,24.954" style="fill:none;stroke:white;stroke-opacity:0.94;stroke-width:2px;"/>
            <path d="M44.622,33.565L41.114,35.376" style="fill:none;stroke:white;stroke-opacity:0.94;stroke-width:2px;"/>
            <path d="M45.26,39.292L42.493,40.506" style="fill:none;stroke:white;stroke-opacity:0.94;stroke-width:2px;"/>
            <path d="M46.237,44.757L43.541,45.984" style="fill:none;stroke:white;stroke-opacity:0.94;stroke-width:2px;"/>
            <path d="M46.938,49.909L44.859,50.855" style="fill:none;stroke:white;stroke-opacity:0.94;stroke-width:2px;"/>
            <path d="M48.036,55.102L45.985,55.862" style="fill:none;stroke:white;stroke-opacity:0.94;stroke-width:2px;"/>
            <path d="M48.785,59.755L46.971,60.404" style="fill:none;stroke:white;stroke-opacity:0.94;stroke-width:2px;"/>
            <path d="M49.213,64.706L48.21,65.003" style="fill:none;stroke:white;stroke-opacity:0.94;stroke-width:2px;"/>
        </g>
        <circle cx="52.438" cy="56.876" r="2.46" style="fill:rgb(255,249,215);"/>
        <circle cx="56.587" cy="44.171" r="1.818" style="fill:rgb(255,249,215);"/>
        <g id="Layer9">
            <path d="M47.138,67.748C57.703,67.748 66.805,71.649 67.451,76.453C68.096,81.258 60.042,85.158 49.477,85.158C38.911,85.158 29.809,81.258 29.163,76.453C28.518,71.649 36.572,67.748 47.138,67.748Z" style="fill:rgb(128,128,128);fill-opacity:0.74;"/>
            <path d="M37.121,59.822L42.92,60.114L49.751,63.803L49.751,81.981C49.751,81.981 36.118,78.279 30.441,76.738C29.856,76.579 29.376,76.159 29.142,75.6C28.907,75.041 28.943,74.405 29.24,73.876C31.73,69.435 37.121,59.822 37.121,59.822Z" style="fill:rgb(206,206,206);"/>
            <path d="M42.92,60.114L48.221,56.571L56.16,58.23L59.835,62.078L49.751,63.803L42.92,60.114Z" style="fill:rgb(234,234,234);"/>
            <path d="M42.92,60.114L48.221,56.571L37.121,59.822L42.92,60.114Z" style="fill:rgb(173,170,170);"/>
            <path d="M49.751,63.803L59.835,62.078C59.835,62.078 64.967,71.455 67.434,75.964C67.736,76.516 67.756,77.179 67.488,77.748C67.221,78.316 66.697,78.723 66.08,78.842C60.86,79.845 49.751,81.981 49.751,81.981L49.751,63.803Z" style="fill:rgb(213,213,213);"/>
        </g>
        <circle cx="39.61" cy="54.744" r="3.166" style="fill:rgb(245,218,66);"/>
        <circle cx="37.813" cy="50.908" r="2.524" style="fill:rgb(245,164,66);"/>
        <circle cx="49.065" cy="48.386" r="1.627" style="fill:rgb(245,164,66);"/>
        <circle cx="62.881" cy="43.109" r="3.294" style="fill:rgb(245,218,66);"/>
        <circle cx="74.859" cy="34.382" r="2.224" style="fill:rgb(245,218,66);"/>
        <circle cx="32.851" cy="29.078" r="2.011" style="fill:rgb(245,218,66);"/>
        <circle cx="68.87" cy="45.505" r="2.224" style="fill:rgb(245,218,66);"/>
    </g>
    <g transform="matrix(0.31024,0,0,0.817245,-398.959,-582.113)">
        <g transform="matrix(3.22331,0,0,1.22362,-3324.92,-162.235)">
            <path d="M1512.46,724.856C1512.05,724.872 1511.65,724.937 1511.28,725.053L1511.15,725.093C1510.41,725.331 1509.75,725.747 1509.15,726.339L1504.87,729.959C1503.76,730.851 1503.15,732.01 1503.03,733.431L1503.03,733.431C1502.91,734.826 1503.3,736.062 1504.2,737.137C1504.2,737.137 1504.2,737.137 1504.2,737.137C1505.11,738.217 1506.26,738.817 1507.66,738.936L1507.66,751.032C1507.66,752.436 1508.16,753.635 1509.15,754.63C1509.15,754.63 1509.15,754.63 1509.15,754.63C1510.15,755.624 1511.35,756.12 1512.75,756.12C1514.15,756.12 1515.35,755.624 1516.35,754.63C1517.34,753.635 1517.84,752.436 1517.84,751.032L1517.84,730.195C1517.89,729.328 1517.73,728.53 1517.38,727.799L1517.32,727.662C1517.08,727.186 1516.75,726.746 1516.35,726.339C1515.35,725.345 1514.15,724.848 1512.75,724.848C1512.65,724.848 1512.56,724.851 1512.46,724.856ZM1514.59,728.938C1514.5,728.767 1514.37,728.608 1514.23,728.46C1513.82,728.052 1513.33,727.848 1512.75,727.848C1512.17,727.848 1511.68,728.052 1511.28,728.46L1511.21,728.532L1506.78,732.276C1506.32,732.636 1506.07,733.104 1506.02,733.68C1505.97,734.256 1506.13,734.766 1506.51,735.21C1506.88,735.654 1507.35,735.9 1507.93,735.948C1508.5,735.996 1509.01,735.828 1509.44,735.444L1510.66,734.427L1510.66,729.936C1510.66,729.393 1510.84,728.925 1511.21,728.532L1511.42,728.352C1511.85,727.968 1512.36,727.806 1512.93,727.866C1513.51,727.926 1513.98,728.172 1514.35,728.604C1514.44,728.711 1514.52,728.822 1514.59,728.938L1514.59,728.945L1514.61,728.967C1514.76,729.258 1514.84,729.581 1514.84,729.936L1514.84,730.116C1514.79,730.692 1514.55,731.172 1514.12,731.556L1510.66,734.427L1510.66,751.032C1510.66,751.608 1510.87,752.1 1511.28,752.508C1511.68,752.916 1512.17,753.12 1512.75,753.12C1513.33,753.12 1513.82,752.916 1514.23,752.508C1514.63,752.1 1514.84,751.608 1514.84,751.032L1514.84,730.116C1514.87,729.695 1514.8,729.312 1514.61,728.967L1514.6,728.955L1514.59,728.942L1514.59,728.938Z"/>
        </g>
        <g transform="matrix(3.22331,0,0,1.22362,-3324.92,-162.235)">
            <g transform="matrix(36,0,0,36,1505.41,753.12)">
                <path d="M0.017,-0.54C0.016,-0.524 0.02,-0.51 0.031,-0.498C0.041,-0.485 0.054,-0.478 0.07,-0.477C0.086,-0.476 0.1,-0.48 0.112,-0.491L0.242,-0.599C0.254,-0.61 0.261,-0.623 0.262,-0.639C0.263,-0.655 0.259,-0.669 0.249,-0.681C0.238,-0.693 0.225,-0.7 0.209,-0.702C0.193,-0.703 0.179,-0.699 0.167,-0.688L0.038,-0.579C0.025,-0.569 0.018,-0.556 0.017,-0.54ZM0.163,-0.017C0.174,-0.006 0.188,-0 0.204,-0C0.22,-0 0.234,-0.006 0.245,-0.017C0.256,-0.028 0.262,-0.042 0.262,-0.058L0.262,-0.644C0.262,-0.66 0.256,-0.674 0.245,-0.685C0.234,-0.696 0.22,-0.702 0.204,-0.702C0.188,-0.702 0.174,-0.696 0.163,-0.685C0.152,-0.674 0.146,-0.66 0.146,-0.644L0.146,-0.058C0.146,-0.042 0.152,-0.028 0.163,-0.017Z" style="fill:white;fill-rule:nonzero;"/>
            </g>
        </g>
    </g>
</svg>
