<?xml version="1.0" encoding="UTF-8" standalone="no"?>
<!DOCTYPE svg PUBLIC "-//W3C//DTD SVG 1.1//EN" "http://www.w3.org/Graphics/SVG/1.1/DTD/svg11.dtd">
<svg width="100%" height="100%" viewBox="0 0 101 101" version="1.1" xmlns="http://www.w3.org/2000/svg" xmlns:xlink="http://www.w3.org/1999/xlink" xml:space="preserve" xmlns:serif="http://www.serif.com/" style="fill-rule:evenodd;clip-rule:evenodd;stroke-linecap:round;stroke-linejoin:round;stroke-miterlimit:1.5;">
    <rect id="miner_3" x="0.885" y="0.785" width="100" height="100" style="fill:none;"/>
    <g id="Layer10">
        <g id="Stone">
            <g id="Rock_Base">
                <path d="M34.388,63.422L25.073,46.706C24.818,46.854 24.581,47.03 24.367,47.231L19.569,51.724C18.792,52.462 18.321,53.467 18.251,54.537L18.194,55.347L17.596,63.898C17.55,64.54 17.647,65.185 17.88,65.785L18.772,68.083C19.014,68.71 19.407,69.267 19.916,69.706L34.388,63.422Z" style="fill:rgb(206,206,206);fill-rule:nonzero;"/>
                <path d="M43.613,68.921C43.877,68.679 44.082,68.464 44.082,68.464L34.388,63.422L19.916,69.703C20.17,69.923 20.453,70.107 20.756,70.252C21.103,70.416 21.486,70.492 21.869,70.471L42.159,69.538C42.701,69.508 43.216,69.29 43.613,68.921Z" style="fill:rgb(128,128,128);fill-rule:nonzero;"/>
                <path d="M47.128,55.41L45.088,51.203L43.648,48.231C43.408,47.734 43.07,47.292 42.654,46.93L34.388,63.422L44.062,68.494C44.395,68.074 44.646,67.594 44.801,67.081L46.048,62.956L47.378,58.576C47.694,57.527 47.605,56.397 47.128,55.41Z" style="fill:rgb(213,213,213);fill-rule:nonzero;"/>
                <path d="M25.073,46.706L34.395,63.422L42.661,46.93C42.25,46.573 41.766,46.31 41.243,46.159L34.944,44.359L34.6,44.26C33.919,44.066 33.197,44.074 32.521,44.285L32.163,44.398L25.839,46.368C25.572,46.451 25.315,46.565 25.073,46.706Z" style="fill:rgb(234,234,234);fill-rule:nonzero;"/>
            </g>
        </g>
        <g id="Layer8">
            <path d="M49.378,67.484C48.75,67.396 48.209,66.995 47.942,66.42C47.674,65.844 47.717,65.172 48.054,64.635C50.533,60.685 55.342,53.022 57.342,49.837C57.907,48.936 58.886,48.376 59.95,48.346C64.421,48.219 76.361,47.878 79.407,47.792C79.876,47.778 80.341,47.885 80.757,48.101C82.731,49.124 88.8,52.271 91.787,53.819C92.83,54.36 93.491,55.432 93.506,56.607C93.546,59.686 93.625,65.735 93.667,69.037C93.684,70.319 92.697,71.39 91.419,71.478C88.496,71.681 83.663,72.015 82.51,72.095C82.342,72.107 82.173,72.101 82.007,72.077C79.409,71.712 57.351,68.606 49.378,67.484Z" style="fill:rgb(206,206,206);"/>
            <path d="M77.12,65.071L66.919,63.707L58.138,68.717L82.16,72.094L77.12,65.071Z" style="fill:rgb(128,128,128);"/>
            <path d="M80.122,47.771L77.12,65.071L82.129,72.095C82.129,72.095 88.043,71.699 91.414,71.473C92.694,71.388 93.684,70.315 93.667,69.032C93.624,65.729 93.546,59.684 93.506,56.607C93.491,55.432 92.83,54.36 91.787,53.819C88.19,51.955 80.122,47.771 80.122,47.771Z" style="fill:rgb(213,213,213);"/>
            <path d="M59.969,48.345C59.969,48.345 63.772,58.833 65.191,62.745C65.511,63.627 66.317,64.24 67.253,64.312C69.744,64.504 74.571,64.875 76.397,65.016C76.868,65.052 77.34,64.948 77.751,64.716C78.634,64.219 80.262,63.302 81.47,62.622C82.374,62.114 82.846,61.079 82.638,60.063C81.874,56.331 80.122,47.771 80.122,47.771L59.969,48.345Z" style="fill:rgb(234,234,234);"/>
        </g>
        <circle cx="59.788" cy="59.493" r="2.182" style="fill:rgb(245,218,66);"/>
        <circle cx="62.098" cy="50.908" r="1.668" style="fill:rgb(255,249,215);"/>
        <circle cx="39.554" cy="44.62" r="1.882" style="fill:rgb(255,249,215);"/>
        <circle cx="61.841" cy="65.196" r="2.011" style="fill:rgb(255,249,215);"/>
        <circle cx="42.249" cy="58.352" r="2.011" style="fill:rgb(255,249,215);"/>
        <circle cx="70.867" cy="25.456" r="1.882" style="fill:rgb(255,249,215);"/>
        <circle cx="32.367" cy="30.846" r="1.882" style="fill:rgb(255,249,215);"/>
        <circle cx="56.545" cy="51.572" r="2.096" style="fill:rgb(245,164,66);"/>
        <circle cx="68.153" cy="47.575" r="2.015" style="fill:rgb(245,164,66);"/>
        <circle cx="65.142" cy="33.886" r="1.978" style="fill:rgb(245,164,66);"/>
        <circle cx="35.41" cy="33.393" r="1.892" style="fill:rgb(245,164,66);"/>
        <circle cx="27.197" cy="27.973" r="2.02" style="fill:rgb(245,164,66);"/>
        <circle cx="26.923" cy="42.976" r="1.892" style="fill:rgb(245,164,66);"/>
        <g id="Layer5">
            <path d="M49.065,70.651C49.177,71.094 49.575,71.404 50.032,71.404C50.489,71.404 50.887,71.095 51,70.652C53.684,60.079 61.101,30.865 62.342,25.978C62.449,25.555 62.271,25.112 61.9,24.883C54.603,20.407 46.727,20.426 38.274,24.895C37.869,25.109 37.663,25.574 37.775,26.018C39.048,31.058 46.399,60.113 49.065,70.651Z" style="fill:rgb(209,86,54);"/>
            <path d="M47.792,65.619C49.329,64.73 50.915,64.403 52.544,64.571" style="fill:none;stroke:rgb(242,145,120);stroke-width:1.46px;"/>
            <path d="M46.631,61.032C48.9,59.72 51.301,59.165 53.846,59.441" style="fill:none;stroke:rgb(242,145,120);stroke-width:1.46px;"/>
            <path d="M45.49,56.52C48.573,54.923 51.772,54.126 55.127,54.395" style="fill:none;stroke:rgb(242,145,120);stroke-width:1.46px;"/>
            <path d="M44.264,51.674C48.411,49.216 52.499,48.133 56.503,48.976" style="fill:none;stroke:rgb(242,145,120);stroke-width:1.46px;"/>
            <path d="M43.023,46.77C47.782,43.928 52.729,42.745 57.896,43.491" style="fill:none;stroke:rgb(242,145,120);stroke-width:1.46px;"/>
            <path d="M41.663,41.396C47.653,38.105 53.574,36.748 59.422,37.481" style="fill:none;stroke:rgb(242,145,120);stroke-width:1.46px;"/>
            <path d="M40.4,36.403C46.65,32.135 53.441,30.522 60.839,31.896" style="fill:none;stroke:rgb(242,145,120);stroke-width:1.46px;"/>
            <path d="M39.109,31.299C45.359,27.031 54.783,25.236 62.181,26.611" style="fill:none;stroke:rgb(242,145,120);stroke-width:1.46px;"/>
            <path d="M38.278,26.537C43.454,21.965 50.366,21.536 50.366,21.536" style="fill:none;stroke:rgb(242,145,120);stroke-width:1.46px;"/>
            <path d="M44.337,28.562L40.967,30.153" style="fill:none;stroke:white;stroke-opacity:0.94;stroke-width:2px;"/>
            <path d="M43.241,23.363L39.872,24.954" style="fill:none;stroke:white;stroke-opacity:0.94;stroke-width:2px;"/>
            <path d="M45.507,33.565L41.999,35.376" style="fill:none;stroke:white;stroke-opacity:0.94;stroke-width:2px;"/>
            <path d="M46.145,39.292L43.378,40.506" style="fill:none;stroke:white;stroke-opacity:0.94;stroke-width:2px;"/>
            <path d="M47.122,44.757L44.426,45.984" style="fill:none;stroke:white;stroke-opacity:0.94;stroke-width:2px;"/>
            <path d="M47.823,49.909L45.744,50.855" style="fill:none;stroke:white;stroke-opacity:0.94;stroke-width:2px;"/>
            <path d="M48.921,55.102L46.871,55.862" style="fill:none;stroke:white;stroke-opacity:0.94;stroke-width:2px;"/>
            <path d="M49.67,59.755L47.856,60.404" style="fill:none;stroke:white;stroke-opacity:0.94;stroke-width:2px;"/>
            <path d="M50.098,64.706L49.095,65.003" style="fill:none;stroke:white;stroke-opacity:0.94;stroke-width:2px;"/>
        </g>
        <circle cx="53.323" cy="56.876" r="2.46" style="fill:rgb(255,249,215);"/>
        <circle cx="57.472" cy="44.171" r="1.818" style="fill:rgb(255,249,215);"/>
        <g id="Layer9">
            <path d="M48.023,67.748C58.588,67.748 67.69,71.649 68.336,76.453C68.981,81.258 60.928,85.158 50.362,85.158C39.796,85.158 30.694,81.258 30.048,76.453C29.403,71.649 37.457,67.748 48.023,67.748Z" style="fill:rgb(128,128,128);fill-opacity:0.74;"/>
            <path d="M38.006,59.822L43.805,60.114L50.636,63.803L50.636,81.981C50.636,81.981 37.003,78.279 31.326,76.738C30.741,76.579 30.261,76.159 30.027,75.6C29.792,75.041 29.828,74.405 30.125,73.876C32.615,69.435 38.006,59.822 38.006,59.822Z" style="fill:rgb(206,206,206);"/>
            <path d="M43.805,60.114L49.106,56.571L57.045,58.23L60.72,62.078L50.636,63.803L43.805,60.114Z" style="fill:rgb(234,234,234);"/>
            <path d="M43.805,60.114L49.106,56.571L38.006,59.822L43.805,60.114Z" style="fill:rgb(173,170,170);"/>
            <path d="M50.636,63.803L60.72,62.078C60.72,62.078 65.852,71.455 68.319,75.964C68.621,76.516 68.641,77.179 68.373,77.748C68.106,78.316 67.582,78.723 66.965,78.842C61.745,79.845 50.636,81.981 50.636,81.981L50.636,63.803Z" style="fill:rgb(213,213,213);"/>
        </g>
        <circle cx="40.495" cy="54.744" r="3.166" style="fill:rgb(245,218,66);"/>
        <circle cx="38.698" cy="50.908" r="2.524" style="fill:rgb(245,164,66);"/>
        <circle cx="49.95" cy="48.386" r="1.627" style="fill:rgb(245,164,66);"/>
        <circle cx="63.766" cy="43.109" r="3.294" style="fill:rgb(245,218,66);"/>
        <circle cx="75.744" cy="34.382" r="2.224" style="fill:rgb(245,218,66);"/>
        <circle cx="33.736" cy="29.078" r="2.011" style="fill:rgb(245,218,66);"/>
        <circle cx="69.755" cy="45.505" r="2.224" style="fill:rgb(245,218,66);"/>
    </g>
    <g transform="matrix(0.31024,0,0,0.817245,-398.074,-582.113)">
        <g transform="matrix(3.22331,0,0,1.22362,-3324.92,-162.235)">
            <path d="M1505.03,739.919L1505.04,740.171L1505.06,740.366C1504.77,740.316 1504.47,740.292 1504.16,740.292C1502.76,740.292 1501.56,740.789 1500.57,741.783C1499.57,742.777 1499.08,743.977 1499.08,745.38C1499.08,748.301 1500.08,750.746 1502.05,752.731C1504.15,754.945 1506.94,756.12 1510.46,756.12C1513.95,756.12 1516.75,754.953 1518.92,752.726C1518.92,752.725 1518.92,752.723 1518.92,752.722C1520.9,750.677 1521.89,748.23 1521.89,745.38C1521.89,743.021 1521.22,741.024 1519.9,739.385C1520.64,738.069 1521.03,736.542 1521.03,734.796C1521.03,732.174 1520.12,729.913 1518.29,728.014C1516.35,725.952 1513.77,724.848 1510.46,724.848C1507.24,724.848 1504.65,725.933 1502.66,727.994C1502.65,727.996 1502.65,727.997 1502.65,727.999C1500.82,729.901 1499.9,732.167 1499.9,734.796C1499.9,736.241 1500.41,737.447 1501.39,738.43C1501.39,738.43 1501.39,738.43 1501.39,738.43C1502.39,739.424 1503.59,739.92 1504.99,739.92L1505.03,739.919ZM1510.46,753.12C1513.06,753.12 1515.16,752.292 1516.77,750.636C1518.18,749.172 1518.89,747.42 1518.89,745.38C1518.89,743.004 1517.92,741.156 1515.97,739.836C1515.9,739.764 1515.82,739.704 1515.72,739.656C1517.26,738.48 1518.03,736.86 1518.03,734.796C1518.03,732.972 1517.39,731.4 1516.12,730.08C1514.73,728.592 1512.84,727.848 1510.46,727.848C1508.14,727.848 1506.25,728.592 1504.81,730.08C1503.54,731.4 1502.9,732.972 1502.9,734.796C1502.9,735.396 1503.11,735.9 1503.52,736.308C1503.92,736.716 1504.42,736.92 1504.99,736.92C1505.57,736.92 1506.06,736.716 1506.47,736.308C1506.88,735.9 1507.08,735.396 1507.08,734.796C1507.08,734.124 1507.35,733.494 1507.89,732.906C1508.43,732.318 1509.29,732.024 1510.46,732.024C1511.64,732.024 1512.5,732.318 1513.04,732.906C1513.58,733.494 1513.85,734.124 1513.85,734.796C1513.85,735.492 1513.6,736.02 1513.09,736.38C1512.59,736.74 1511.5,737.16 1509.82,737.64L1509.75,737.676C1509.31,737.748 1508.93,737.946 1508.61,738.27C1508.29,738.594 1508.1,738.984 1508.05,739.44C1507.98,739.944 1508.08,740.418 1508.36,740.862C1508.63,741.306 1509.03,741.6 1509.53,741.744L1509.82,741.816C1511.76,742.368 1513.06,742.872 1513.7,743.328C1514.35,743.784 1514.68,744.468 1514.68,745.38C1514.68,746.244 1514.35,747.054 1513.69,747.81C1513.03,748.566 1511.95,748.944 1510.46,748.944C1508.98,748.944 1507.9,748.566 1507.24,747.81C1506.58,747.054 1506.25,746.244 1506.25,745.38C1506.25,744.804 1506.05,744.312 1505.64,743.904C1505.23,743.496 1504.74,743.292 1504.16,743.292C1503.59,743.292 1503.1,743.496 1502.69,743.904C1502.28,744.312 1502.08,744.804 1502.08,745.38C1502.08,747.468 1502.79,749.22 1504.2,750.636C1505.76,752.292 1507.85,753.12 1510.46,753.12ZM1509.22,744.766C1509.24,744.966 1509.25,745.171 1509.25,745.38C1509.25,745.552 1509.37,745.687 1509.5,745.837C1509.69,746.052 1510.04,745.944 1510.46,745.944C1510.89,745.944 1511.24,746.052 1511.43,745.837C1511.5,745.749 1511.58,745.666 1511.62,745.578C1511.1,745.323 1510.29,745.072 1509.22,744.766ZM1509.21,744.721L1509.21,744.732L1509.82,744.816L1509.21,744.721ZM1509.21,744.7L1509.21,744.706L1509.53,744.744L1509.21,744.7Z"/>
        </g>
        <g transform="matrix(3.22331,0,0,1.22362,-3324.92,-162.235)">
            <g transform="matrix(36,0,0,36,1501.36,753.12)">
                <path d="M0.253,-0C0.325,-0 0.383,-0.023 0.428,-0.069C0.467,-0.11 0.487,-0.158 0.487,-0.215C0.487,-0.281 0.46,-0.332 0.406,-0.369C0.404,-0.371 0.402,-0.373 0.399,-0.374C0.442,-0.407 0.463,-0.452 0.463,-0.509C0.463,-0.56 0.445,-0.603 0.41,-0.64C0.371,-0.681 0.319,-0.702 0.253,-0.702C0.188,-0.702 0.136,-0.681 0.096,-0.64C0.061,-0.603 0.043,-0.56 0.043,-0.509C0.043,-0.492 0.049,-0.478 0.06,-0.467C0.071,-0.456 0.085,-0.45 0.101,-0.45C0.117,-0.45 0.131,-0.456 0.142,-0.467C0.153,-0.478 0.159,-0.492 0.159,-0.509C0.159,-0.528 0.167,-0.545 0.182,-0.562C0.197,-0.578 0.22,-0.586 0.253,-0.586C0.286,-0.586 0.31,-0.578 0.325,-0.562C0.34,-0.545 0.347,-0.528 0.347,-0.509C0.347,-0.49 0.34,-0.475 0.326,-0.465C0.312,-0.455 0.282,-0.443 0.235,-0.43L0.233,-0.429C0.221,-0.427 0.211,-0.422 0.202,-0.412C0.193,-0.404 0.187,-0.393 0.186,-0.38C0.184,-0.366 0.187,-0.353 0.195,-0.341C0.202,-0.328 0.213,-0.32 0.227,-0.316L0.235,-0.314C0.289,-0.299 0.325,-0.285 0.343,-0.272C0.361,-0.259 0.37,-0.24 0.37,-0.215C0.37,-0.191 0.361,-0.169 0.343,-0.148C0.324,-0.127 0.294,-0.116 0.253,-0.116C0.212,-0.116 0.182,-0.127 0.164,-0.148C0.145,-0.169 0.136,-0.191 0.136,-0.215C0.136,-0.231 0.13,-0.245 0.119,-0.256C0.108,-0.267 0.094,-0.273 0.078,-0.273C0.062,-0.273 0.048,-0.267 0.037,-0.256C0.026,-0.245 0.02,-0.231 0.02,-0.215C0.02,-0.157 0.04,-0.108 0.079,-0.069C0.122,-0.023 0.18,-0 0.253,-0Z" style="fill:white;fill-rule:nonzero;"/>
            </g>
        </g>
    </g>
</svg>
