<?xml version="1.0" encoding="UTF-8" standalone="no"?>
<!DOCTYPE svg PUBLIC "-//W3C//DTD SVG 1.1//EN" "http://www.w3.org/Graphics/SVG/1.1/DTD/svg11.dtd">
<svg width="100%" height="100%" viewBox="0 0 101 101" version="1.1" xmlns="http://www.w3.org/2000/svg" xmlns:xlink="http://www.w3.org/1999/xlink" xml:space="preserve" xmlns:serif="http://www.serif.com/" style="fill-rule:evenodd;clip-rule:evenodd;stroke-linecap:round;stroke-linejoin:round;stroke-miterlimit:1.5;">
    <rect id="miner_5" x="0.992" y="0.785" width="100" height="100" style="fill:none;"/>
    <g id="Layer10">
        <g id="Stone">
            <g id="Rock_Base">
                <path d="M34.495,63.422L25.18,46.706C24.925,46.854 24.688,47.03 24.474,47.231L19.675,51.724C18.898,52.462 18.428,53.467 18.358,54.537L18.3,55.347L17.703,63.898C17.657,64.54 17.754,65.185 17.987,65.785L18.879,68.083C19.121,68.71 19.514,69.267 20.022,69.706L34.495,63.422Z" style="fill:rgb(206,206,206);fill-rule:nonzero;"/>
                <path d="M43.72,68.921C43.983,68.679 44.189,68.464 44.189,68.464L34.495,63.422L20.022,69.703C20.277,69.923 20.56,70.107 20.863,70.252C21.21,70.416 21.592,70.492 21.976,70.471L42.266,69.538C42.808,69.508 43.322,69.29 43.72,68.921Z" style="fill:rgb(128,128,128);fill-rule:nonzero;"/>
                <path d="M47.235,55.41L45.195,51.203L43.754,48.231C43.515,47.734 43.176,47.292 42.76,46.93L34.495,63.422L44.168,68.494C44.502,68.074 44.752,67.594 44.907,67.081L46.155,62.956L47.485,58.576C47.8,57.527 47.711,56.397 47.235,55.41Z" style="fill:rgb(213,213,213);fill-rule:nonzero;"/>
                <path d="M25.18,46.706L34.502,63.422L42.767,46.93C42.357,46.573 41.873,46.31 41.35,46.159L35.05,44.359L34.706,44.26C34.026,44.066 33.303,44.074 32.628,44.285L32.27,44.398L25.946,46.368C25.679,46.451 25.422,46.565 25.18,46.706Z" style="fill:rgb(234,234,234);fill-rule:nonzero;"/>
            </g>
        </g>
        <g id="Layer8">
            <path d="M49.485,67.484C48.857,67.396 48.316,66.995 48.049,66.42C47.781,65.844 47.823,65.172 48.161,64.635C50.64,60.685 55.449,53.022 57.448,49.837C58.014,48.936 58.993,48.376 60.057,48.346C64.528,48.219 76.468,47.878 79.514,47.792C79.983,47.778 80.448,47.885 80.864,48.101C82.837,49.124 88.907,52.271 91.893,53.819C92.937,54.36 93.598,55.432 93.613,56.607C93.653,59.686 93.731,65.735 93.774,69.037C93.791,70.319 92.804,71.39 91.526,71.478C88.603,71.681 83.77,72.015 82.617,72.095C82.449,72.107 82.28,72.101 82.114,72.077C79.516,71.712 57.458,68.606 49.485,67.484Z" style="fill:rgb(206,206,206);"/>
            <path d="M77.226,65.071L67.026,63.707L58.244,68.717L82.267,72.094L77.226,65.071Z" style="fill:rgb(128,128,128);"/>
            <path d="M80.229,47.771L77.226,65.071L82.236,72.095C82.236,72.095 88.15,71.699 91.52,71.473C92.801,71.388 93.791,70.315 93.774,69.032C93.731,65.729 93.653,59.684 93.613,56.607C93.598,55.432 92.937,54.36 91.893,53.819C88.297,51.955 80.229,47.771 80.229,47.771Z" style="fill:rgb(213,213,213);"/>
            <path d="M60.076,48.345C60.076,48.345 63.879,58.833 65.298,62.745C65.618,63.627 66.424,64.24 67.359,64.312C69.851,64.504 74.678,64.875 76.504,65.016C76.975,65.052 77.446,64.948 77.858,64.716C78.74,64.219 80.369,63.302 81.577,62.622C82.48,62.114 82.952,61.079 82.744,60.063C81.981,56.331 80.229,47.771 80.229,47.771L60.076,48.345Z" style="fill:rgb(234,234,234);"/>
        </g>
        <circle cx="59.895" cy="59.493" r="2.182" style="fill:rgb(245,218,66);"/>
        <circle cx="62.205" cy="50.908" r="1.668" style="fill:rgb(255,249,215);"/>
        <circle cx="39.661" cy="44.62" r="1.882" style="fill:rgb(255,249,215);"/>
        <circle cx="61.948" cy="65.196" r="2.011" style="fill:rgb(255,249,215);"/>
        <circle cx="42.356" cy="58.352" r="2.011" style="fill:rgb(255,249,215);"/>
        <circle cx="70.974" cy="25.456" r="1.882" style="fill:rgb(255,249,215);"/>
        <circle cx="32.474" cy="30.846" r="1.882" style="fill:rgb(255,249,215);"/>
        <circle cx="56.652" cy="51.572" r="2.096" style="fill:rgb(245,164,66);"/>
        <circle cx="68.26" cy="47.575" r="2.015" style="fill:rgb(245,164,66);"/>
        <circle cx="65.249" cy="33.886" r="1.978" style="fill:rgb(245,164,66);"/>
        <circle cx="35.517" cy="33.393" r="1.892" style="fill:rgb(245,164,66);"/>
        <circle cx="27.303" cy="27.973" r="2.02" style="fill:rgb(245,164,66);"/>
        <circle cx="27.03" cy="42.976" r="1.892" style="fill:rgb(245,164,66);"/>
        <g id="Layer5">
            <path d="M49.172,70.651C49.284,71.094 49.682,71.404 50.139,71.404C50.596,71.404 50.994,71.095 51.107,70.652C53.791,60.079 61.208,30.865 62.449,25.978C62.556,25.555 62.377,25.112 62.007,24.883C54.71,20.407 46.833,20.426 38.381,24.895C37.976,25.109 37.769,25.574 37.882,26.018C39.154,31.058 46.506,60.113 49.172,70.651Z" style="fill:rgb(209,86,54);"/>
            <path d="M47.899,65.619C49.436,64.73 51.021,64.403 52.65,64.571" style="fill:none;stroke:rgb(242,145,120);stroke-width:1.46px;"/>
            <path d="M46.738,61.032C49.007,59.72 51.407,59.165 53.953,59.441" style="fill:none;stroke:rgb(242,145,120);stroke-width:1.46px;"/>
            <path d="M45.597,56.52C48.68,54.923 51.879,54.126 55.234,54.395" style="fill:none;stroke:rgb(242,145,120);stroke-width:1.46px;"/>
            <path d="M44.371,51.674C48.518,49.216 52.605,48.133 56.61,48.976" style="fill:none;stroke:rgb(242,145,120);stroke-width:1.46px;"/>
            <path d="M43.13,46.77C47.889,43.928 52.836,42.745 58.002,43.491" style="fill:none;stroke:rgb(242,145,120);stroke-width:1.46px;"/>
            <path d="M41.77,41.396C47.759,38.105 53.681,36.748 59.528,37.481" style="fill:none;stroke:rgb(242,145,120);stroke-width:1.46px;"/>
            <path d="M40.507,36.403C46.757,32.135 53.548,30.522 60.946,31.896" style="fill:none;stroke:rgb(242,145,120);stroke-width:1.46px;"/>
            <path d="M39.215,31.299C45.466,27.031 54.89,25.236 62.288,26.611" style="fill:none;stroke:rgb(242,145,120);stroke-width:1.46px;"/>
            <path d="M38.385,26.537C43.561,21.965 50.472,21.536 50.472,21.536" style="fill:none;stroke:rgb(242,145,120);stroke-width:1.46px;"/>
            <path d="M44.444,28.562L41.074,30.153" style="fill:none;stroke:white;stroke-opacity:0.94;stroke-width:2px;"/>
            <path d="M43.348,23.363L39.978,24.954" style="fill:none;stroke:white;stroke-opacity:0.94;stroke-width:2px;"/>
            <path d="M45.613,33.565L42.105,35.376" style="fill:none;stroke:white;stroke-opacity:0.94;stroke-width:2px;"/>
            <path d="M46.251,39.292L43.485,40.506" style="fill:none;stroke:white;stroke-opacity:0.94;stroke-width:2px;"/>
            <path d="M47.229,44.757L44.532,45.984" style="fill:none;stroke:white;stroke-opacity:0.94;stroke-width:2px;"/>
            <path d="M47.93,49.909L45.85,50.855" style="fill:none;stroke:white;stroke-opacity:0.94;stroke-width:2px;"/>
            <path d="M49.028,55.102L46.977,55.862" style="fill:none;stroke:white;stroke-opacity:0.94;stroke-width:2px;"/>
            <path d="M49.777,59.755L47.962,60.404" style="fill:none;stroke:white;stroke-opacity:0.94;stroke-width:2px;"/>
            <path d="M50.205,64.706L49.202,65.003" style="fill:none;stroke:white;stroke-opacity:0.94;stroke-width:2px;"/>
        </g>
        <circle cx="53.43" cy="56.876" r="2.46" style="fill:rgb(255,249,215);"/>
        <circle cx="57.579" cy="44.171" r="1.818" style="fill:rgb(255,249,215);"/>
        <g id="Layer9">
            <path d="M48.129,67.748C58.695,67.748 67.797,71.649 68.443,76.453C69.088,81.258 61.034,85.158 50.469,85.158C39.903,85.158 30.801,81.258 30.155,76.453C29.51,71.649 37.564,67.748 48.129,67.748Z" style="fill:rgb(128,128,128);fill-opacity:0.74;"/>
            <path d="M38.113,59.822L43.912,60.114L50.743,63.803L50.743,81.981C50.743,81.981 37.109,78.279 31.433,76.738C30.847,76.579 30.368,76.159 30.134,75.6C29.899,75.041 29.935,74.405 30.232,73.876C32.722,69.435 38.113,59.822 38.113,59.822Z" style="fill:rgb(206,206,206);"/>
            <path d="M43.912,60.114L49.213,56.571L57.152,58.23L60.827,62.078L50.743,63.803L43.912,60.114Z" style="fill:rgb(234,234,234);"/>
            <path d="M43.912,60.114L49.213,56.571L38.113,59.822L43.912,60.114Z" style="fill:rgb(173,170,170);"/>
            <path d="M50.743,63.803L60.827,62.078C60.827,62.078 65.958,71.455 68.426,75.964C68.728,76.516 68.748,77.179 68.48,77.748C68.212,78.316 67.689,78.723 67.071,78.842C61.852,79.845 50.743,81.981 50.743,81.981L50.743,63.803Z" style="fill:rgb(213,213,213);"/>
        </g>
        <circle cx="40.602" cy="54.744" r="3.166" style="fill:rgb(245,218,66);"/>
        <circle cx="38.805" cy="50.908" r="2.524" style="fill:rgb(245,164,66);"/>
        <circle cx="50.057" cy="48.386" r="1.627" style="fill:rgb(245,164,66);"/>
        <circle cx="63.873" cy="43.109" r="3.294" style="fill:rgb(245,218,66);"/>
        <circle cx="75.85" cy="34.382" r="2.224" style="fill:rgb(245,218,66);"/>
        <circle cx="33.843" cy="29.078" r="2.011" style="fill:rgb(245,218,66);"/>
        <circle cx="69.862" cy="45.505" r="2.224" style="fill:rgb(245,218,66);"/>
    </g>
    <g transform="matrix(0.31024,0,0,0.817245,-397.967,-582.113)">
        <g transform="matrix(3.22331,0,0,1.22362,-3324.92,-162.235)">
            <path d="M1501.67,741.162C1501.33,741.371 1501.01,741.627 1500.71,741.927C1499.72,742.921 1499.22,744.121 1499.22,745.524C1499.22,748.227 1500.17,750.638 1502.1,752.74C1502.13,752.771 1502.16,752.8 1502.19,752.83C1504.35,754.993 1507.11,756.12 1510.5,756.12C1513.86,756.12 1516.61,754.996 1518.78,752.83C1518.8,752.812 1518.81,752.794 1518.83,752.775C1520.78,750.728 1521.75,748.31 1521.75,745.524C1521.75,744.031 1521.46,742.707 1520.94,741.544C1520.42,740.368 1519.8,739.453 1519.13,738.769C1518.69,738.323 1518.15,737.889 1517.49,737.481C1518.07,737.24 1518.6,736.882 1519.09,736.408C1520.12,735.406 1520.63,734.195 1520.63,732.78L1520.63,729.936C1520.63,728.522 1520.12,727.31 1519.09,726.308C1518.08,725.33 1516.88,724.848 1515.51,724.848C1515.51,724.848 1504.81,724.848 1504.81,724.848C1503.41,724.848 1502.21,725.345 1501.21,726.339C1500.22,727.333 1499.73,728.533 1499.73,729.936L1499.73,735.372C1499.73,737.687 1500.38,739.613 1501.67,741.162ZM1510.5,753.12C1513,753.12 1515.05,752.316 1516.66,750.708C1518.05,749.244 1518.75,747.516 1518.75,745.524C1518.75,744.492 1518.57,743.574 1518.2,742.77C1517.85,741.966 1517.44,741.33 1516.98,740.862C1516.53,740.394 1515.88,739.962 1515.06,739.566C1514.23,739.17 1513.57,738.894 1513.09,738.738C1512.61,738.582 1511.94,738.396 1511.08,738.18C1509.35,737.724 1508.22,737.322 1507.69,736.974C1507.16,736.626 1506.9,736.092 1506.9,735.372L1506.9,732.024L1513.42,732.024L1513.42,732.78C1513.42,733.356 1513.62,733.848 1514.03,734.256C1514.44,734.664 1514.93,734.868 1515.51,734.868C1516.08,734.868 1516.58,734.664 1517,734.256C1517.42,733.848 1517.63,733.356 1517.63,732.78L1517.63,729.936C1517.63,729.36 1517.42,728.868 1517,728.46C1516.58,728.052 1516.08,727.848 1515.51,727.848L1504.81,727.848C1504.24,727.848 1503.75,728.052 1503.34,728.46C1502.93,728.868 1502.73,729.36 1502.73,729.936L1502.73,735.372C1502.73,737.628 1503.64,739.344 1505.46,740.52C1506.3,741.072 1507.83,741.648 1510.03,742.248C1511.88,742.704 1513.1,743.136 1513.69,743.544C1514.28,743.952 1514.57,744.612 1514.57,745.524C1514.57,746.34 1514.25,747.114 1513.6,747.846C1512.95,748.578 1511.92,748.944 1510.5,748.944C1509.06,748.944 1508.02,748.584 1507.39,747.864C1506.75,747.144 1506.43,746.364 1506.43,745.524C1506.43,744.948 1506.23,744.456 1505.82,744.048C1505.41,743.64 1504.92,743.436 1504.35,743.436C1503.75,743.436 1503.24,743.64 1502.83,744.048C1502.42,744.456 1502.22,744.948 1502.22,745.524C1502.22,747.468 1502.92,749.196 1504.31,750.708C1505.92,752.316 1507.98,753.12 1510.5,753.12ZM1509.42,745.188C1509.43,745.298 1509.43,745.411 1509.43,745.524C1509.43,745.636 1509.5,745.725 1509.58,745.818C1509.69,745.842 1510.16,745.944 1510.5,745.944C1510.87,745.944 1511.18,746.048 1511.35,745.858C1511.38,745.821 1511.42,745.787 1511.45,745.753C1510.97,745.573 1510.29,745.402 1509.42,745.188ZM1510.93,735.036L1510.92,735.024L1510.89,735.024L1510.93,735.036Z"/>
        </g>
        <g transform="matrix(3.22331,0,0,1.22362,-3324.92,-162.235)">
            <g transform="matrix(36,0,0,36,1501.5,753.12)">
                <path d="M0.25,-0C0.319,-0 0.376,-0.022 0.421,-0.067C0.46,-0.108 0.479,-0.156 0.479,-0.211C0.479,-0.24 0.474,-0.265 0.464,-0.288C0.454,-0.31 0.443,-0.328 0.43,-0.341C0.417,-0.354 0.4,-0.366 0.377,-0.377C0.354,-0.388 0.335,-0.395 0.322,-0.4C0.309,-0.404 0.29,-0.409 0.266,-0.415C0.218,-0.428 0.187,-0.439 0.172,-0.449C0.157,-0.458 0.15,-0.473 0.15,-0.493L0.15,-0.586L0.331,-0.586L0.331,-0.565C0.331,-0.549 0.337,-0.535 0.348,-0.524C0.359,-0.513 0.373,-0.507 0.389,-0.507C0.405,-0.507 0.419,-0.513 0.431,-0.524C0.442,-0.535 0.448,-0.549 0.448,-0.565L0.448,-0.644C0.448,-0.66 0.442,-0.674 0.431,-0.685C0.419,-0.696 0.405,-0.702 0.389,-0.702L0.092,-0.702C0.076,-0.702 0.062,-0.696 0.051,-0.685C0.04,-0.674 0.034,-0.66 0.034,-0.644L0.034,-0.493C0.034,-0.43 0.059,-0.383 0.11,-0.35C0.133,-0.335 0.176,-0.319 0.237,-0.302C0.288,-0.289 0.322,-0.277 0.339,-0.266C0.355,-0.255 0.363,-0.236 0.363,-0.211C0.363,-0.188 0.354,-0.167 0.336,-0.147C0.318,-0.126 0.289,-0.116 0.25,-0.116C0.21,-0.116 0.181,-0.126 0.164,-0.146C0.146,-0.166 0.137,-0.188 0.137,-0.211C0.137,-0.227 0.131,-0.241 0.12,-0.252C0.109,-0.263 0.095,-0.269 0.079,-0.269C0.062,-0.269 0.048,-0.263 0.037,-0.252C0.026,-0.241 0.02,-0.227 0.02,-0.211C0.02,-0.157 0.039,-0.109 0.078,-0.067C0.123,-0.022 0.18,-0 0.25,-0Z" style="fill:white;fill-rule:nonzero;"/>
            </g>
        </g>
    </g>
</svg>
