<?xml version="1.0" encoding="UTF-8" standalone="no"?>
<!DOCTYPE svg PUBLIC "-//W3C//DTD SVG 1.1//EN" "http://www.w3.org/Graphics/SVG/1.1/DTD/svg11.dtd">
<svg width="100%" height="100%" viewBox="0 0 101 101" version="1.1" xmlns="http://www.w3.org/2000/svg" xmlns:xlink="http://www.w3.org/1999/xlink" xml:space="preserve" xmlns:serif="http://www.serif.com/" style="fill-rule:evenodd;clip-rule:evenodd;stroke-linecap:round;stroke-linejoin:round;stroke-miterlimit:1.5;">
    <rect id="miner_4" x="0.833" y="0.785" width="100" height="100" style="fill:none;"/>
    <g id="Layer10">
        <g id="Stone">
            <g id="Rock_Base">
                <path d="M34.337,63.422L25.021,46.706C24.767,46.854 24.53,47.03 24.315,47.231L19.517,51.724C18.74,52.462 18.269,53.467 18.2,54.537L18.142,55.347L17.544,63.898C17.499,64.54 17.596,65.185 17.828,65.785L18.721,68.083C18.963,68.71 19.355,69.267 19.864,69.706L34.337,63.422Z" style="fill:rgb(206,206,206);fill-rule:nonzero;"/>
                <path d="M43.562,68.921C43.825,68.679 44.031,68.464 44.031,68.464L34.337,63.422L19.864,69.703C20.119,69.923 20.401,70.107 20.704,70.252C21.051,70.416 21.434,70.492 21.817,70.471L42.107,69.538C42.649,69.508 43.164,69.29 43.562,68.921Z" style="fill:rgb(128,128,128);fill-rule:nonzero;"/>
                <path d="M47.077,55.41L45.037,51.203L43.596,48.231C43.356,47.734 43.018,47.292 42.602,46.93L34.337,63.422L44.01,68.494C44.343,68.074 44.594,67.594 44.749,67.081L45.996,62.956L47.326,58.576C47.642,57.527 47.553,56.397 47.077,55.41Z" style="fill:rgb(213,213,213);fill-rule:nonzero;"/>
                <path d="M25.021,46.706L34.344,63.422L42.609,46.93C42.198,46.573 41.714,46.31 41.191,46.159L34.892,44.359L34.548,44.26C33.868,44.066 33.145,44.074 32.47,44.285L32.112,44.398L25.788,46.368C25.52,46.451 25.263,46.565 25.021,46.706Z" style="fill:rgb(234,234,234);fill-rule:nonzero;"/>
            </g>
        </g>
        <g id="Layer8">
            <path d="M49.327,67.484C48.698,67.396 48.158,66.995 47.89,66.42C47.623,65.844 47.665,65.172 48.002,64.635C50.482,60.685 55.291,53.022 57.29,49.837C57.856,48.936 58.834,48.376 59.898,48.346C64.37,48.219 76.309,47.878 79.355,47.792C79.824,47.778 80.289,47.885 80.706,48.101C82.679,49.124 88.749,52.271 91.735,53.819C92.778,54.36 93.439,55.432 93.454,56.607C93.494,59.686 93.573,65.735 93.616,69.037C93.632,70.319 92.646,71.39 91.368,71.478C88.445,71.681 83.612,72.015 82.459,72.095C82.291,72.107 82.122,72.101 81.955,72.077C79.357,71.712 57.299,68.606 49.327,67.484Z" style="fill:rgb(206,206,206);"/>
            <path d="M77.068,65.071L66.867,63.707L58.086,68.717L82.109,72.094L77.068,65.071Z" style="fill:rgb(128,128,128);"/>
            <path d="M80.071,47.771L77.068,65.071L82.077,72.095C82.077,72.095 87.991,71.699 91.362,71.473C92.642,71.388 93.632,70.315 93.616,69.032C93.573,65.729 93.494,59.684 93.454,56.607C93.439,55.432 92.778,54.36 91.735,53.819C88.139,51.955 80.071,47.771 80.071,47.771Z" style="fill:rgb(213,213,213);"/>
            <path d="M59.918,48.345C59.918,48.345 63.721,58.833 65.139,62.745C65.459,63.627 66.266,64.24 67.201,64.312C69.692,64.504 74.52,64.875 76.345,65.016C76.816,65.052 77.288,64.948 77.7,64.716C78.582,64.219 80.211,63.302 81.418,62.622C82.322,62.114 82.794,61.079 82.586,60.063C81.822,56.331 80.071,47.771 80.071,47.771L59.918,48.345Z" style="fill:rgb(234,234,234);"/>
        </g>
        <circle cx="59.736" cy="59.493" r="2.182" style="fill:rgb(245,218,66);"/>
        <circle cx="62.046" cy="50.908" r="1.668" style="fill:rgb(255,249,215);"/>
        <circle cx="39.502" cy="44.62" r="1.882" style="fill:rgb(255,249,215);"/>
        <circle cx="61.789" cy="65.196" r="2.011" style="fill:rgb(255,249,215);"/>
        <circle cx="42.197" cy="58.352" r="2.011" style="fill:rgb(255,249,215);"/>
        <circle cx="70.815" cy="25.456" r="1.882" style="fill:rgb(255,249,215);"/>
        <circle cx="32.316" cy="30.846" r="1.882" style="fill:rgb(255,249,215);"/>
        <circle cx="56.494" cy="51.572" r="2.096" style="fill:rgb(245,164,66);"/>
        <circle cx="68.102" cy="47.575" r="2.015" style="fill:rgb(245,164,66);"/>
        <circle cx="65.09" cy="33.886" r="1.978" style="fill:rgb(245,164,66);"/>
        <circle cx="35.358" cy="33.393" r="1.892" style="fill:rgb(245,164,66);"/>
        <circle cx="27.145" cy="27.973" r="2.02" style="fill:rgb(245,164,66);"/>
        <circle cx="26.871" cy="42.976" r="1.892" style="fill:rgb(245,164,66);"/>
        <g id="Layer5">
            <path d="M49.013,70.651C49.125,71.094 49.524,71.404 49.98,71.404C50.437,71.404 50.836,71.095 50.948,70.652C53.632,60.079 61.05,30.865 62.29,25.978C62.398,25.555 62.219,25.112 61.849,24.883C54.552,20.407 46.675,20.426 38.223,24.895C37.817,25.109 37.611,25.574 37.724,26.018C38.996,31.058 46.347,60.113 49.013,70.651Z" style="fill:rgb(209,86,54);"/>
            <path d="M47.74,65.619C49.277,64.73 50.863,64.403 52.492,64.571" style="fill:none;stroke:rgb(242,145,120);stroke-width:1.46px;"/>
            <path d="M46.58,61.032C48.848,59.72 51.249,59.165 53.794,59.441" style="fill:none;stroke:rgb(242,145,120);stroke-width:1.46px;"/>
            <path d="M45.438,56.52C48.521,54.923 51.721,54.126 55.076,54.395" style="fill:none;stroke:rgb(242,145,120);stroke-width:1.46px;"/>
            <path d="M44.212,51.674C48.359,49.216 52.447,48.133 56.451,48.976" style="fill:none;stroke:rgb(242,145,120);stroke-width:1.46px;"/>
            <path d="M42.971,46.77C47.73,43.928 52.678,42.745 57.844,43.491" style="fill:none;stroke:rgb(242,145,120);stroke-width:1.46px;"/>
            <path d="M41.612,41.396C47.601,38.105 53.522,36.748 59.37,37.481" style="fill:none;stroke:rgb(242,145,120);stroke-width:1.46px;"/>
            <path d="M40.348,36.403C46.599,32.135 53.389,30.522 60.788,31.896" style="fill:none;stroke:rgb(242,145,120);stroke-width:1.46px;"/>
            <path d="M39.057,31.299C45.308,27.031 54.731,25.236 62.13,26.611" style="fill:none;stroke:rgb(242,145,120);stroke-width:1.46px;"/>
            <path d="M38.226,26.537C43.402,21.965 50.314,21.536 50.314,21.536" style="fill:none;stroke:rgb(242,145,120);stroke-width:1.46px;"/>
            <path d="M44.285,28.562L40.916,30.153" style="fill:none;stroke:white;stroke-opacity:0.94;stroke-width:2px;"/>
            <path d="M43.19,23.363L39.82,24.954" style="fill:none;stroke:white;stroke-opacity:0.94;stroke-width:2px;"/>
            <path d="M45.455,33.565L41.947,35.376" style="fill:none;stroke:white;stroke-opacity:0.94;stroke-width:2px;"/>
            <path d="M46.093,39.292L43.326,40.506" style="fill:none;stroke:white;stroke-opacity:0.94;stroke-width:2px;"/>
            <path d="M47.07,44.757L44.374,45.984" style="fill:none;stroke:white;stroke-opacity:0.94;stroke-width:2px;"/>
            <path d="M47.772,49.909L45.692,50.855" style="fill:none;stroke:white;stroke-opacity:0.94;stroke-width:2px;"/>
            <path d="M48.869,55.102L46.819,55.862" style="fill:none;stroke:white;stroke-opacity:0.94;stroke-width:2px;"/>
            <path d="M49.619,59.755L47.804,60.404" style="fill:none;stroke:white;stroke-opacity:0.94;stroke-width:2px;"/>
            <path d="M50.046,64.706L49.043,65.003" style="fill:none;stroke:white;stroke-opacity:0.94;stroke-width:2px;"/>
        </g>
        <circle cx="53.271" cy="56.876" r="2.46" style="fill:rgb(255,249,215);"/>
        <circle cx="57.421" cy="44.171" r="1.818" style="fill:rgb(255,249,215);"/>
        <g id="Layer9">
            <path d="M47.971,67.748C58.537,67.748 67.639,71.649 68.284,76.453C68.93,81.258 60.876,85.158 50.31,85.158C39.744,85.158 30.642,81.258 29.997,76.453C29.351,71.649 37.405,67.748 47.971,67.748Z" style="fill:rgb(128,128,128);fill-opacity:0.74;"/>
            <path d="M37.954,59.822L43.753,60.114L50.585,63.803L50.585,81.981C50.585,81.981 36.951,78.279 31.274,76.738C30.689,76.579 30.21,76.159 29.975,75.6C29.741,75.041 29.777,74.405 30.073,73.876C32.564,69.435 37.954,59.822 37.954,59.822Z" style="fill:rgb(206,206,206);"/>
            <path d="M43.753,60.114L49.054,56.571L56.993,58.23L60.669,62.078L50.585,63.803L43.753,60.114Z" style="fill:rgb(234,234,234);"/>
            <path d="M43.753,60.114L49.054,56.571L37.954,59.822L43.753,60.114Z" style="fill:rgb(173,170,170);"/>
            <path d="M50.585,63.803L60.669,62.078C60.669,62.078 65.8,71.455 68.268,75.964C68.57,76.516 68.59,77.179 68.322,77.748C68.054,78.316 67.53,78.723 66.913,78.842C61.693,79.845 50.585,81.981 50.585,81.981L50.585,63.803Z" style="fill:rgb(213,213,213);"/>
        </g>
        <circle cx="40.443" cy="54.744" r="3.166" style="fill:rgb(245,218,66);"/>
        <circle cx="38.647" cy="50.908" r="2.524" style="fill:rgb(245,164,66);"/>
        <circle cx="49.899" cy="48.386" r="1.627" style="fill:rgb(245,164,66);"/>
        <circle cx="63.714" cy="43.109" r="3.294" style="fill:rgb(245,218,66);"/>
        <circle cx="75.692" cy="34.382" r="2.224" style="fill:rgb(245,218,66);"/>
        <circle cx="33.685" cy="29.078" r="2.011" style="fill:rgb(245,218,66);"/>
        <circle cx="69.703" cy="45.505" r="2.224" style="fill:rgb(245,218,66);"/>
    </g>
    <g transform="matrix(0.31024,0,0,0.817245,-398.126,-582.113)">
        <g transform="matrix(3.22331,0,0,1.22362,-3324.92,-162.235)">
            <path d="M1517.44,750.542C1518.48,750.376 1519.38,749.902 1520.16,749.122C1521.15,748.139 1521.65,746.933 1521.65,745.488C1521.65,744.085 1521.16,742.885 1520.16,741.891C1519.31,741.037 1518.31,740.551 1517.15,740.431C1516.9,739.75 1516.51,739.133 1515.95,738.579C1515.11,737.737 1514.12,737.252 1512.99,737.125L1515.03,731.682C1515.49,730.415 1515.46,729.149 1514.91,727.883C1514.36,726.601 1513.42,725.687 1512.08,725.163C1512.04,725.149 1512.01,725.135 1511.97,725.123C1510.66,724.667 1509.38,724.727 1508.12,725.297C1506.82,725.89 1505.94,726.849 1505.47,728.153C1505.48,728.134 1499.61,743.711 1499.61,743.711C1499.6,743.747 1499.59,743.783 1499.57,743.82C1499,745.536 1499.25,747.073 1500.22,748.446C1500.23,748.453 1500.23,748.459 1500.24,748.465C1501.27,749.908 1502.67,750.612 1504.4,750.612L1507.27,750.612C1507.27,750.612 1507.27,751.032 1507.27,751.032C1507.27,752.436 1507.76,753.635 1508.76,754.63C1508.76,754.63 1508.76,754.63 1508.76,754.63C1509.75,755.624 1510.95,756.12 1512.36,756.12C1513.76,756.12 1514.96,755.624 1515.95,754.63C1516.95,753.635 1517.44,752.436 1517.44,751.032L1517.44,750.542ZM1516.57,743.4C1517.14,743.4 1517.63,743.604 1518.04,744.012C1518.45,744.42 1518.65,744.912 1518.65,745.488C1518.65,746.088 1518.45,746.592 1518.04,747C1517.63,747.408 1517.14,747.612 1516.57,747.612L1514.44,747.612L1514.44,751.032C1514.44,751.608 1514.24,752.1 1513.83,752.508C1513.42,752.916 1512.93,753.12 1512.36,753.12C1511.78,753.12 1511.29,752.916 1510.88,752.508C1510.47,752.1 1510.27,751.608 1510.27,751.032L1510.27,747.612L1504.4,747.612C1503.68,747.612 1503.1,747.312 1502.67,746.712C1502.26,746.136 1502.18,745.488 1502.42,744.768L1508.29,729.18C1508.48,728.652 1508.84,728.268 1509.37,728.028C1509.89,727.788 1510.43,727.764 1510.99,727.956C1511.54,728.172 1511.93,728.544 1512.16,729.072C1512.38,729.6 1512.4,730.128 1512.21,730.656L1507.42,743.4L1510.27,743.4L1510.27,742.176C1510.27,741.6 1510.47,741.108 1510.88,740.7C1511.29,740.292 1511.78,740.088 1512.36,740.088C1512.93,740.088 1513.42,740.292 1513.83,740.7C1514.24,741.108 1514.44,741.6 1514.44,742.176L1514.44,743.4L1516.57,743.4Z"/>
        </g>
        <g transform="matrix(3.22331,0,0,1.22362,-3324.92,-162.235)">
            <g transform="matrix(36,0,0,36,1501.59,753.12)">
                <path d="M0.416,-0.27C0.432,-0.27 0.446,-0.264 0.457,-0.253C0.468,-0.242 0.474,-0.228 0.474,-0.212C0.474,-0.195 0.468,-0.181 0.457,-0.17C0.446,-0.159 0.432,-0.153 0.416,-0.153L0.357,-0.153L0.357,-0.058C0.357,-0.042 0.351,-0.028 0.34,-0.017C0.329,-0.006 0.315,-0 0.299,-0C0.283,-0 0.269,-0.006 0.258,-0.017C0.247,-0.028 0.241,-0.042 0.241,-0.058L0.241,-0.153L0.078,-0.153C0.058,-0.153 0.042,-0.161 0.03,-0.178C0.019,-0.194 0.016,-0.212 0.023,-0.232L0.186,-0.665C0.191,-0.68 0.201,-0.69 0.216,-0.697C0.231,-0.704 0.246,-0.704 0.261,-0.699C0.276,-0.693 0.287,-0.683 0.294,-0.668C0.3,-0.653 0.3,-0.639 0.295,-0.624L0.162,-0.27L0.241,-0.27L0.241,-0.304C0.241,-0.32 0.247,-0.334 0.258,-0.345C0.269,-0.356 0.283,-0.362 0.299,-0.362C0.315,-0.362 0.329,-0.356 0.34,-0.345C0.351,-0.334 0.357,-0.32 0.357,-0.304L0.357,-0.27L0.416,-0.27Z" style="fill:white;fill-rule:nonzero;"/>
            </g>
        </g>
    </g>
</svg>
