<?xml version="1.0" encoding="UTF-8" standalone="no"?>
<!DOCTYPE svg PUBLIC "-//W3C//DTD SVG 1.1//EN" "http://www.w3.org/Graphics/SVG/1.1/DTD/svg11.dtd">
<svg width="100%" height="100%" viewBox="0 0 101 101" version="1.1" xmlns="http://www.w3.org/2000/svg" xmlns:xlink="http://www.w3.org/1999/xlink" xml:space="preserve" xmlns:serif="http://www.serif.com/" style="fill-rule:evenodd;clip-rule:evenodd;stroke-linecap:round;stroke-linejoin:round;stroke-miterlimit:1.5;">
    <rect id="miner_2" x="0.458" y="0.785" width="100" height="100" style="fill:none;"/>
    <g id="Layer10">
        <g id="Stone">
            <g id="Rock_Base">
                <path d="M33.962,63.422L24.646,46.706C24.392,46.854 24.155,47.03 23.94,47.231L19.142,51.724C18.365,52.462 17.894,53.467 17.824,54.537L17.767,55.347L17.169,63.898C17.124,64.54 17.221,65.185 17.453,65.785L18.345,68.083C18.588,68.71 18.98,69.267 19.489,69.706L33.962,63.422Z" style="fill:rgb(206,206,206);fill-rule:nonzero;"/>
                <path d="M43.187,68.921C43.45,68.679 43.655,68.464 43.655,68.464L33.962,63.422L19.489,69.703C19.743,69.923 20.026,70.107 20.329,70.252C20.676,70.416 21.059,70.492 21.442,70.471L41.732,69.538C42.274,69.508 42.789,69.29 43.187,68.921Z" style="fill:rgb(128,128,128);fill-rule:nonzero;"/>
                <path d="M46.702,55.41L44.662,51.203L43.221,48.231C42.981,47.734 42.643,47.292 42.227,46.93L33.962,63.422L43.635,68.494C43.968,68.074 44.219,67.594 44.374,67.081L45.621,62.956L46.951,58.576C47.267,57.527 47.178,56.397 46.702,55.41Z" style="fill:rgb(213,213,213);fill-rule:nonzero;"/>
                <path d="M24.646,46.706L33.968,63.422L42.234,46.93C41.823,46.573 41.339,46.31 40.816,46.159L34.517,44.359L34.173,44.26C33.492,44.066 32.77,44.074 32.094,44.285L31.737,44.398L25.413,46.368C25.145,46.451 24.888,46.565 24.646,46.706Z" style="fill:rgb(234,234,234);fill-rule:nonzero;"/>
            </g>
        </g>
        <g id="Layer8">
            <path d="M48.952,67.484C48.323,67.396 47.783,66.995 47.515,66.42C47.248,65.844 47.29,65.172 47.627,64.635C50.106,60.685 54.916,53.022 56.915,49.837C57.481,48.936 58.459,48.376 59.523,48.346C63.995,48.219 75.934,47.878 78.98,47.792C79.449,47.778 79.914,47.885 80.331,48.101C82.304,49.124 88.374,52.271 91.36,53.819C92.403,54.36 93.064,55.432 93.079,56.607C93.119,59.686 93.198,65.735 93.241,69.037C93.257,70.319 92.271,71.39 90.993,71.478C88.069,71.681 83.237,72.015 82.083,72.095C81.915,72.107 81.747,72.101 81.58,72.077C78.982,71.712 56.924,68.606 48.952,67.484Z" style="fill:rgb(206,206,206);"/>
            <path d="M76.693,65.071L66.492,63.707L57.711,68.717L81.733,72.094L76.693,65.071Z" style="fill:rgb(128,128,128);"/>
            <path d="M79.695,47.771L76.693,65.071L81.702,72.095C81.702,72.095 87.616,71.699 90.987,71.473C92.267,71.388 93.257,70.315 93.241,69.032C93.198,65.729 93.119,59.684 93.079,56.607C93.064,55.432 92.403,54.36 91.36,53.819C87.764,51.955 79.695,47.771 79.695,47.771Z" style="fill:rgb(213,213,213);"/>
            <path d="M59.542,48.345C59.542,48.345 63.346,58.833 64.764,62.745C65.084,63.627 65.891,64.24 66.826,64.312C69.317,64.504 74.145,64.875 75.97,65.016C76.441,65.052 76.913,64.948 77.325,64.716C78.207,64.219 79.836,63.302 81.043,62.622C81.947,62.114 82.419,61.079 82.211,60.063C81.447,56.331 79.695,47.771 79.695,47.771L59.542,48.345Z" style="fill:rgb(234,234,234);"/>
        </g>
        <circle cx="59.361" cy="59.493" r="2.182" style="fill:rgb(245,218,66);"/>
        <circle cx="61.671" cy="50.908" r="1.668" style="fill:rgb(255,249,215);"/>
        <circle cx="39.127" cy="44.62" r="1.882" style="fill:rgb(255,249,215);"/>
        <circle cx="61.414" cy="65.196" r="2.011" style="fill:rgb(255,249,215);"/>
        <circle cx="41.822" cy="58.352" r="2.011" style="fill:rgb(255,249,215);"/>
        <circle cx="70.44" cy="25.456" r="1.882" style="fill:rgb(255,249,215);"/>
        <circle cx="31.941" cy="30.846" r="1.882" style="fill:rgb(255,249,215);"/>
        <circle cx="56.118" cy="51.572" r="2.096" style="fill:rgb(245,164,66);"/>
        <circle cx="67.727" cy="47.575" r="2.015" style="fill:rgb(245,164,66);"/>
        <circle cx="64.715" cy="33.886" r="1.978" style="fill:rgb(245,164,66);"/>
        <circle cx="34.983" cy="33.393" r="1.892" style="fill:rgb(245,164,66);"/>
        <circle cx="26.77" cy="27.973" r="2.02" style="fill:rgb(245,164,66);"/>
        <circle cx="26.496" cy="42.976" r="1.892" style="fill:rgb(245,164,66);"/>
        <g id="Layer5">
            <path d="M48.638,70.651C48.75,71.094 49.149,71.404 49.605,71.404C50.062,71.404 50.461,71.095 50.573,70.652C53.257,60.079 60.674,30.865 61.915,25.978C62.023,25.555 61.844,25.112 61.473,24.883C54.177,20.407 46.3,20.426 37.848,24.895C37.442,25.109 37.236,25.574 37.348,26.018C38.621,31.058 45.972,60.113 48.638,70.651Z" style="fill:rgb(209,86,54);"/>
            <path d="M47.365,65.619C48.902,64.73 50.488,64.403 52.117,64.571" style="fill:none;stroke:rgb(242,145,120);stroke-width:1.46px;"/>
            <path d="M46.205,61.032C48.473,59.72 50.874,59.165 53.419,59.441" style="fill:none;stroke:rgb(242,145,120);stroke-width:1.46px;"/>
            <path d="M45.063,56.52C48.146,54.923 51.346,54.126 54.7,54.395" style="fill:none;stroke:rgb(242,145,120);stroke-width:1.46px;"/>
            <path d="M43.837,51.674C47.984,49.216 52.072,48.133 56.076,48.976" style="fill:none;stroke:rgb(242,145,120);stroke-width:1.46px;"/>
            <path d="M42.596,46.77C47.355,43.928 52.302,42.745 57.469,43.491" style="fill:none;stroke:rgb(242,145,120);stroke-width:1.46px;"/>
            <path d="M41.236,41.396C47.226,38.105 53.147,36.748 58.995,37.481" style="fill:none;stroke:rgb(242,145,120);stroke-width:1.46px;"/>
            <path d="M39.973,36.403C46.224,32.135 53.014,30.522 60.413,31.896" style="fill:none;stroke:rgb(242,145,120);stroke-width:1.46px;"/>
            <path d="M38.682,31.299C44.932,27.031 54.356,25.236 61.755,26.611" style="fill:none;stroke:rgb(242,145,120);stroke-width:1.46px;"/>
            <path d="M37.851,26.537C43.027,21.965 49.939,21.536 49.939,21.536" style="fill:none;stroke:rgb(242,145,120);stroke-width:1.46px;"/>
            <path d="M43.91,28.562L40.54,30.153" style="fill:none;stroke:white;stroke-opacity:0.94;stroke-width:2px;"/>
            <path d="M42.814,23.363L39.445,24.954" style="fill:none;stroke:white;stroke-opacity:0.94;stroke-width:2px;"/>
            <path d="M45.08,33.565L41.572,35.376" style="fill:none;stroke:white;stroke-opacity:0.94;stroke-width:2px;"/>
            <path d="M45.718,39.292L42.951,40.506" style="fill:none;stroke:white;stroke-opacity:0.94;stroke-width:2px;"/>
            <path d="M46.695,44.757L43.999,45.984" style="fill:none;stroke:white;stroke-opacity:0.94;stroke-width:2px;"/>
            <path d="M47.397,49.909L45.317,50.855" style="fill:none;stroke:white;stroke-opacity:0.94;stroke-width:2px;"/>
            <path d="M48.494,55.102L46.444,55.862" style="fill:none;stroke:white;stroke-opacity:0.94;stroke-width:2px;"/>
            <path d="M49.244,59.755L47.429,60.404" style="fill:none;stroke:white;stroke-opacity:0.94;stroke-width:2px;"/>
            <path d="M49.671,64.706L48.668,65.003" style="fill:none;stroke:white;stroke-opacity:0.94;stroke-width:2px;"/>
        </g>
        <circle cx="52.896" cy="56.876" r="2.46" style="fill:rgb(255,249,215);"/>
        <circle cx="57.045" cy="44.171" r="1.818" style="fill:rgb(255,249,215);"/>
        <g id="Layer9">
            <path d="M47.596,67.748C58.162,67.748 67.264,71.649 67.909,76.453C68.555,81.258 60.501,85.158 49.935,85.158C39.369,85.158 30.267,81.258 29.622,76.453C28.976,71.649 37.03,67.748 47.596,67.748Z" style="fill:rgb(128,128,128);fill-opacity:0.74;"/>
            <path d="M37.579,59.822L43.378,60.114L50.21,63.803L50.21,81.981C50.21,81.981 36.576,78.279 30.899,76.738C30.314,76.579 29.835,76.159 29.6,75.6C29.365,75.041 29.402,74.405 29.698,73.876C32.188,69.435 37.579,59.822 37.579,59.822Z" style="fill:rgb(206,206,206);"/>
            <path d="M43.378,60.114L48.679,56.571L56.618,58.23L60.294,62.078L50.21,63.803L43.378,60.114Z" style="fill:rgb(234,234,234);"/>
            <path d="M43.378,60.114L48.679,56.571L37.579,59.822L43.378,60.114Z" style="fill:rgb(173,170,170);"/>
            <path d="M50.21,63.803L60.294,62.078C60.294,62.078 65.425,71.455 67.893,75.964C68.194,76.516 68.215,77.179 67.947,77.748C67.679,78.316 67.155,78.723 66.538,78.842C61.318,79.845 50.21,81.981 50.21,81.981L50.21,63.803Z" style="fill:rgb(213,213,213);"/>
        </g>
        <circle cx="40.068" cy="54.744" r="3.166" style="fill:rgb(245,218,66);"/>
        <circle cx="38.272" cy="50.908" r="2.524" style="fill:rgb(245,164,66);"/>
        <circle cx="49.523" cy="48.386" r="1.627" style="fill:rgb(245,164,66);"/>
        <circle cx="63.339" cy="43.109" r="3.294" style="fill:rgb(245,218,66);"/>
        <circle cx="75.317" cy="34.382" r="2.224" style="fill:rgb(245,218,66);"/>
        <circle cx="33.31" cy="29.078" r="2.011" style="fill:rgb(245,218,66);"/>
        <circle cx="69.328" cy="45.505" r="2.224" style="fill:rgb(245,218,66);"/>
    </g>
    <g transform="matrix(0.31024,0,0,0.817245,-398.501,-582.113)">
        <g transform="matrix(3.22331,0,0,1.22362,-3324.92,-162.235)">
            <path d="M1505.16,740.456C1504.68,740.849 1504.11,741.359 1503.45,741.985C1502.49,742.883 1501.77,743.722 1501.27,744.484C1500.75,745.258 1500.29,746.198 1499.88,747.313C1499.45,748.503 1499.24,749.743 1499.24,751.032C1499.24,752.436 1499.74,753.635 1500.73,754.63C1500.73,754.63 1500.73,754.63 1500.73,754.63C1501.72,755.624 1502.92,756.12 1504.33,756.12C1504.33,756.12 1516.64,756.12 1516.64,756.12C1518.04,756.12 1519.24,755.624 1520.24,754.63C1521.23,753.635 1521.73,752.436 1521.73,751.032C1521.73,749.629 1521.23,748.429 1520.24,747.435C1519.24,746.441 1518.04,745.944 1516.64,745.944L1514.82,745.944C1515.43,745.492 1515.92,745.106 1516.3,744.791C1516.94,744.266 1517.71,743.536 1518.61,742.595C1519.7,741.449 1520.48,740.252 1520.97,739.024C1521.47,737.782 1521.73,736.434 1521.73,734.976C1521.73,732.31 1520.8,729.999 1518.92,728.048C1516.96,725.965 1514.34,724.848 1510.99,724.848C1507.77,724.848 1505.19,725.958 1503.2,728.083C1501.21,730.201 1500.25,732.637 1500.25,735.372C1500.25,736.776 1500.74,737.975 1501.74,738.97C1501.74,738.97 1501.74,738.97 1501.74,738.97C1502.69,739.922 1503.83,740.417 1505.16,740.456ZM1516.64,753.12C1517.21,753.12 1517.71,752.916 1518.12,752.508C1518.52,752.1 1518.73,751.608 1518.73,751.032C1518.73,750.456 1518.52,749.964 1518.12,749.556C1517.71,749.148 1517.21,748.944 1516.64,748.944L1506.95,748.944C1507.34,748.248 1507.91,747.564 1508.66,746.892C1509.42,746.22 1510.5,745.38 1511.89,744.372C1512.99,743.58 1513.83,742.95 1514.39,742.482C1514.95,742.014 1515.64,741.36 1516.44,740.52C1517.25,739.68 1517.83,738.81 1518.19,737.91C1518.55,737.01 1518.73,736.032 1518.73,734.976C1518.73,733.104 1518.07,731.484 1516.75,730.116C1515.33,728.604 1513.41,727.848 1510.99,727.848C1508.68,727.848 1506.82,728.61 1505.39,730.134C1503.96,731.658 1503.25,733.404 1503.25,735.372C1503.25,735.948 1503.45,736.44 1503.86,736.848C1504.27,737.256 1504.76,737.46 1505.34,737.46C1505.91,737.46 1506.4,737.256 1506.81,736.848C1507.22,736.44 1507.42,735.948 1507.42,735.372C1507.42,734.652 1507.7,733.914 1508.25,733.158C1508.8,732.402 1509.71,732.024 1510.99,732.024C1512.24,732.024 1513.14,732.336 1513.7,732.96C1514.27,733.584 1514.55,734.256 1514.55,734.976C1514.55,735.528 1514.44,736.05 1514.21,736.542C1513.98,737.034 1513.57,737.568 1512.97,738.144C1512.37,738.72 1511.86,739.164 1511.45,739.476C1511.05,739.788 1510.38,740.292 1509.44,740.988C1508.53,741.636 1507.83,742.152 1507.35,742.536C1506.87,742.92 1506.25,743.466 1505.5,744.174C1504.74,744.882 1504.16,745.536 1503.77,746.136C1503.37,746.736 1503.02,747.468 1502.71,748.332C1502.39,749.196 1502.24,750.096 1502.24,751.032C1502.24,751.608 1502.44,752.1 1502.85,752.508C1503.26,752.916 1503.75,753.12 1504.33,753.12L1516.64,753.12ZM1511.54,735.084C1511.41,735.061 1511.16,735.024 1510.99,735.024C1510.85,735.024 1510.67,735.051 1510.57,735.068C1510.49,735.17 1510.42,735.264 1510.42,735.372C1510.42,735.775 1510.38,736.161 1510.3,736.53C1510.48,736.367 1510.68,736.183 1510.89,735.98C1511.16,735.719 1511.38,735.504 1511.49,735.281C1511.52,735.218 1511.53,735.152 1511.54,735.084Z"/>
        </g>
        <g transform="matrix(3.22331,0,0,1.22362,-3324.92,-162.235)">
            <g transform="matrix(36,0,0,36,1501.52,753.12)">
                <path d="M0.42,-0C0.436,-0 0.45,-0.006 0.461,-0.017C0.472,-0.028 0.478,-0.042 0.478,-0.058C0.478,-0.074 0.472,-0.088 0.461,-0.099C0.45,-0.11 0.436,-0.116 0.42,-0.116L0.151,-0.116C0.162,-0.135 0.178,-0.154 0.199,-0.173C0.22,-0.192 0.249,-0.215 0.288,-0.243C0.319,-0.265 0.342,-0.282 0.358,-0.296C0.373,-0.309 0.392,-0.327 0.414,-0.35C0.437,-0.373 0.453,-0.398 0.463,-0.423C0.473,-0.448 0.478,-0.475 0.478,-0.504C0.478,-0.556 0.46,-0.601 0.423,-0.639C0.384,-0.681 0.33,-0.702 0.263,-0.702C0.199,-0.702 0.147,-0.681 0.108,-0.639C0.068,-0.596 0.048,-0.548 0.048,-0.493C0.048,-0.477 0.054,-0.463 0.065,-0.452C0.076,-0.441 0.09,-0.435 0.106,-0.435C0.122,-0.435 0.136,-0.441 0.147,-0.452C0.158,-0.463 0.164,-0.477 0.164,-0.493C0.164,-0.513 0.172,-0.534 0.187,-0.555C0.202,-0.576 0.228,-0.586 0.263,-0.586C0.298,-0.586 0.323,-0.577 0.339,-0.56C0.354,-0.543 0.362,-0.524 0.362,-0.504C0.362,-0.489 0.359,-0.474 0.353,-0.461C0.346,-0.447 0.335,-0.432 0.318,-0.416C0.301,-0.4 0.287,-0.388 0.276,-0.379C0.265,-0.37 0.246,-0.356 0.22,-0.337C0.195,-0.319 0.175,-0.305 0.162,-0.294C0.149,-0.283 0.132,-0.268 0.111,-0.249C0.09,-0.229 0.074,-0.211 0.063,-0.194C0.051,-0.177 0.042,-0.157 0.033,-0.133C0.024,-0.109 0.02,-0.084 0.02,-0.058C0.02,-0.042 0.026,-0.028 0.037,-0.017C0.048,-0.006 0.062,-0 0.078,-0L0.42,-0Z" style="fill:white;fill-rule:nonzero;"/>
            </g>
        </g>
    </g>
</svg>
