<?xml version="1.0" encoding="UTF-8" standalone="no"?>
<!DOCTYPE svg PUBLIC "-//W3C//DTD SVG 1.1//EN" "http://www.w3.org/Graphics/SVG/1.1/DTD/svg11.dtd">
<svg width="100%" height="100%" viewBox="0 0 101 101" version="1.1" xmlns="http://www.w3.org/2000/svg" xmlns:xlink="http://www.w3.org/1999/xlink" xml:space="preserve" xmlns:serif="http://www.serif.com/" style="fill-rule:evenodd;clip-rule:evenodd;stroke-linecap:round;stroke-linejoin:round;stroke-miterlimit:1.5;">
    <rect id="miner_0" x="0.656" y="0.785" width="100" height="100" style="fill:none;"/>
    <g id="Layer10">
        <g id="Stone">
            <g id="Rock_Base">
                <path d="M34.181,63.299L24.866,46.583C24.611,46.731 24.374,46.907 24.159,47.108L19.361,51.601C18.584,52.339 18.113,53.344 18.044,54.414L17.986,55.224L17.388,63.775C17.343,64.417 17.44,65.062 17.672,65.662L18.565,67.96C18.807,68.587 19.2,69.144 19.708,69.583L34.181,63.299Z" style="fill:rgb(206,206,206);fill-rule:nonzero;"/>
                <path d="M43.406,68.798C43.669,68.556 43.875,68.341 43.875,68.341L34.181,63.299L19.708,69.581C19.963,69.8 20.245,69.984 20.548,70.129C20.896,70.293 21.278,70.369 21.662,70.348L41.951,69.415C42.493,69.385 43.008,69.167 43.406,68.798Z" style="fill:rgb(128,128,128);fill-rule:nonzero;"/>
                <path d="M46.921,55.287L44.881,51.08L43.44,48.108C43.2,47.611 42.862,47.169 42.446,46.807L34.181,63.299L43.854,68.371C44.187,67.951 44.438,67.471 44.593,66.958L45.841,62.833L47.17,58.453C47.486,57.404 47.397,56.274 46.921,55.287Z" style="fill:rgb(213,213,213);fill-rule:nonzero;"/>
                <path d="M24.866,46.583L34.188,63.299L42.453,46.807C42.042,46.45 41.559,46.187 41.036,46.036L34.736,44.236L34.392,44.138C33.712,43.943 32.989,43.951 32.314,44.162L31.956,44.275L25.632,46.245C25.365,46.329 25.108,46.442 24.866,46.583Z" style="fill:rgb(234,234,234);fill-rule:nonzero;"/>
            </g>
        </g>
        <g id="Layer8">
            <path d="M49.171,67.361C48.543,67.273 48.002,66.872 47.734,66.297C47.467,65.721 47.509,65.05 47.846,64.512C50.326,60.562 55.135,52.9 57.134,49.714C57.7,48.813 58.679,48.253 59.743,48.223C64.214,48.096 76.153,47.755 79.2,47.669C79.669,47.655 80.133,47.762 80.55,47.978C82.523,49.001 88.593,52.148 91.579,53.696C92.623,54.237 93.283,55.309 93.299,56.484C93.339,59.563 93.417,65.612 93.46,68.915C93.477,70.196 92.49,71.267 91.212,71.355C88.289,71.558 83.456,71.892 82.303,71.972C82.135,71.984 81.966,71.978 81.799,71.954C79.202,71.589 57.143,68.483 49.171,67.361Z" style="fill:rgb(206,206,206);"/>
            <path d="M76.912,64.948L66.711,63.584L57.93,68.594L81.953,71.971L76.912,64.948Z" style="fill:rgb(128,128,128);"/>
            <path d="M79.915,47.648L76.912,64.948L81.922,71.972C81.922,71.972 87.835,71.576 91.206,71.35C92.487,71.265 93.477,70.192 93.46,68.909C93.417,65.606 93.339,59.561 93.299,56.484C93.283,55.309 92.623,54.237 91.579,53.696C87.983,51.832 79.915,47.648 79.915,47.648Z" style="fill:rgb(213,213,213);"/>
            <path d="M59.762,48.222C59.762,48.222 63.565,58.71 64.984,62.622C65.303,63.504 66.11,64.117 67.045,64.189C69.537,64.381 74.364,64.752 76.189,64.893C76.661,64.929 77.132,64.825 77.544,64.593C78.426,64.096 80.055,63.179 81.262,62.499C82.166,61.991 82.638,60.956 82.43,59.94C81.666,56.208 79.915,47.648 79.915,47.648L59.762,48.222Z" style="fill:rgb(234,234,234);"/>
        </g>
        <circle cx="59.58" cy="59.37" r="2.182" style="fill:rgb(245,218,66);"/>
        <circle cx="61.89" cy="50.785" r="1.668" style="fill:rgb(255,249,215);"/>
        <circle cx="39.347" cy="44.497" r="1.882" style="fill:rgb(255,249,215);"/>
        <circle cx="61.634" cy="65.073" r="2.011" style="fill:rgb(255,249,215);"/>
        <circle cx="42.042" cy="58.229" r="2.011" style="fill:rgb(255,249,215);"/>
        <circle cx="70.66" cy="25.333" r="1.882" style="fill:rgb(255,249,215);"/>
        <circle cx="32.16" cy="30.723" r="1.882" style="fill:rgb(255,249,215);"/>
        <circle cx="56.338" cy="51.449" r="2.096" style="fill:rgb(245,164,66);"/>
        <circle cx="67.946" cy="47.452" r="2.015" style="fill:rgb(245,164,66);"/>
        <circle cx="64.934" cy="33.763" r="1.978" style="fill:rgb(245,164,66);"/>
        <circle cx="35.202" cy="33.27" r="1.892" style="fill:rgb(245,164,66);"/>
        <circle cx="26.989" cy="27.85" r="2.02" style="fill:rgb(245,164,66);"/>
        <circle cx="26.715" cy="42.853" r="1.892" style="fill:rgb(245,164,66);"/>
        <g id="Layer5">
            <path d="M48.858,70.528C48.97,70.971 49.368,71.281 49.825,71.281C50.281,71.281 50.68,70.972 50.792,70.529C53.477,59.956 60.894,30.742 62.135,25.855C62.242,25.432 62.063,24.989 61.693,24.76C54.396,20.284 46.519,20.303 38.067,24.772C37.661,24.986 37.455,25.451 37.568,25.895C38.84,30.935 46.191,59.99 48.858,70.528Z" style="fill:rgb(209,86,54);"/>
            <path d="M47.584,65.496C49.121,64.607 50.707,64.28 52.336,64.448" style="fill:none;stroke:rgb(242,145,120);stroke-width:1.46px;"/>
            <path d="M46.424,60.909C48.693,59.598 51.093,59.042 53.639,59.318" style="fill:none;stroke:rgb(242,145,120);stroke-width:1.46px;"/>
            <path d="M45.282,56.397C48.365,54.8 51.565,54.004 54.92,54.272" style="fill:none;stroke:rgb(242,145,120);stroke-width:1.46px;"/>
            <path d="M44.056,51.551C48.203,49.093 52.291,48.01 56.296,48.853" style="fill:none;stroke:rgb(242,145,120);stroke-width:1.46px;"/>
            <path d="M42.816,46.648C47.575,43.806 52.522,42.622 57.688,43.368" style="fill:none;stroke:rgb(242,145,120);stroke-width:1.46px;"/>
            <path d="M41.456,41.273C47.445,37.982 53.367,36.625 59.214,37.358" style="fill:none;stroke:rgb(242,145,120);stroke-width:1.46px;"/>
            <path d="M40.192,36.28C46.443,32.012 53.234,30.399 60.632,31.773" style="fill:none;stroke:rgb(242,145,120);stroke-width:1.46px;"/>
            <path d="M38.901,31.177C45.152,26.908 54.576,25.113 61.974,26.488" style="fill:none;stroke:rgb(242,145,120);stroke-width:1.46px;"/>
            <path d="M38.071,26.414C43.246,21.842 50.158,21.413 50.158,21.413" style="fill:none;stroke:rgb(242,145,120);stroke-width:1.46px;"/>
            <path d="M44.129,28.44L40.76,30.03" style="fill:none;stroke:white;stroke-opacity:0.94;stroke-width:2px;"/>
            <path d="M43.034,23.24L39.664,24.831" style="fill:none;stroke:white;stroke-opacity:0.94;stroke-width:2px;"/>
            <path d="M45.299,33.442L41.791,35.253" style="fill:none;stroke:white;stroke-opacity:0.94;stroke-width:2px;"/>
            <path d="M45.937,39.169L43.17,40.383" style="fill:none;stroke:white;stroke-opacity:0.94;stroke-width:2px;"/>
            <path d="M46.915,44.634L44.218,45.861" style="fill:none;stroke:white;stroke-opacity:0.94;stroke-width:2px;"/>
            <path d="M47.616,49.786L45.536,50.732" style="fill:none;stroke:white;stroke-opacity:0.94;stroke-width:2px;"/>
            <path d="M48.714,54.979L46.663,55.74" style="fill:none;stroke:white;stroke-opacity:0.94;stroke-width:2px;"/>
            <path d="M49.463,59.632L47.648,60.281" style="fill:none;stroke:white;stroke-opacity:0.94;stroke-width:2px;"/>
            <path d="M49.89,64.583L48.887,64.88" style="fill:none;stroke:white;stroke-opacity:0.94;stroke-width:2px;"/>
        </g>
        <circle cx="53.115" cy="56.753" r="2.46" style="fill:rgb(255,249,215);"/>
        <circle cx="57.265" cy="44.048" r="1.818" style="fill:rgb(255,249,215);"/>
        <g id="Layer9">
            <path d="M47.815,67.625C58.381,67.625 67.483,71.526 68.129,76.33C68.774,81.135 60.72,85.036 50.154,85.036C39.589,85.036 30.486,81.135 29.841,76.33C29.195,71.526 37.249,67.625 47.815,67.625Z" style="fill:rgb(128,128,128);fill-opacity:0.74;"/>
            <path d="M37.799,59.699L43.597,59.991L50.429,63.68L50.429,81.858C50.429,81.858 36.795,78.156 31.118,76.615C30.533,76.456 30.054,76.036 29.819,75.477C29.585,74.918 29.621,74.282 29.918,73.753C32.408,69.312 37.799,59.699 37.799,59.699Z" style="fill:rgb(206,206,206);"/>
            <path d="M43.597,59.991L48.899,56.448L56.838,58.107L60.513,61.955L50.429,63.68L43.597,59.991Z" style="fill:rgb(234,234,234);"/>
            <path d="M43.597,59.991L48.899,56.448L37.799,59.699L43.597,59.991Z" style="fill:rgb(173,170,170);"/>
            <path d="M50.429,63.68L60.513,61.955C60.513,61.955 65.644,71.332 68.112,75.841C68.414,76.393 68.434,77.056 68.166,77.625C67.898,78.193 67.375,78.6 66.757,78.719C61.537,79.722 50.429,81.858 50.429,81.858L50.429,63.68Z" style="fill:rgb(213,213,213);"/>
        </g>
        <circle cx="40.288" cy="54.622" r="3.166" style="fill:rgb(245,218,66);"/>
        <circle cx="38.491" cy="50.785" r="2.524" style="fill:rgb(245,164,66);"/>
        <circle cx="49.743" cy="48.263" r="1.627" style="fill:rgb(245,164,66);"/>
        <circle cx="63.559" cy="42.986" r="3.294" style="fill:rgb(245,218,66);"/>
        <circle cx="75.536" cy="34.26" r="2.224" style="fill:rgb(245,218,66);"/>
        <circle cx="33.529" cy="28.955" r="2.011" style="fill:rgb(245,218,66);"/>
        <circle cx="69.547" cy="45.382" r="2.224" style="fill:rgb(245,218,66);"/>
    </g>
</svg>
