<?xml version="1.0" encoding="UTF-8" standalone="no"?>
<!DOCTYPE svg PUBLIC "-//W3C//DTD SVG 1.1//EN" "http://www.w3.org/Graphics/SVG/1.1/DTD/svg11.dtd">
<svg width="100%" height="100%" viewBox="0 0 100 100" version="1.1" xmlns="http://www.w3.org/2000/svg" xmlns:xlink="http://www.w3.org/1999/xlink" xml:space="preserve" xmlns:serif="http://www.serif.com/" style="fill-rule:evenodd;clip-rule:evenodd;stroke-linejoin:round;stroke-miterlimit:2;">
    <g transform="matrix(1,0,0,1,-131.67,-372.489)">
        <g id="pause_icon" transform="matrix(1,0,0,1,131.67,-6.5111)">
            <rect x="0" y="379" width="100" height="100" style="fill:none;"/>
            <g transform="matrix(0.821176,0,0,1.07192,10.8165,-36.4823)">
                <path d="M38.04,410.135C38.04,406.308 33.984,403.201 28.989,403.201L18.195,403.201C13.2,403.201 9.145,406.308 9.145,410.135L9.145,458.365C9.145,462.192 13.2,465.299 18.195,465.299L28.989,465.299C33.984,465.299 38.04,462.192 38.04,458.365C38.04,458.365 38.04,410.135 38.04,410.135ZM34.386,410.135C34.386,407.853 31.968,406 28.989,406L18.195,406C15.217,406 12.798,407.853 12.798,410.135L12.798,458.365C12.798,460.647 15.217,462.5 18.195,462.5L28.989,462.5C31.968,462.5 34.386,460.647 34.386,458.365L34.386,410.135Z" style="fill:rgb(25,25,55);"/>
                <path d="M34.386,410.135C34.386,407.853 31.968,406 28.989,406L18.195,406C15.217,406 12.798,407.853 12.798,410.135L12.798,458.365C12.798,460.647 15.217,462.5 18.195,462.5L28.989,462.5C31.968,462.5 34.386,460.647 34.386,458.365L34.386,410.135Z" style="fill:white;"/>
            </g>
            <g transform="matrix(0.821176,0,0,1.07192,50.4367,-36.4823)">
                <path d="M38.04,410.135C38.04,406.308 33.984,403.201 28.989,403.201L18.195,403.201C13.2,403.201 9.145,406.308 9.145,410.135L9.145,458.365C9.145,462.192 13.2,465.299 18.195,465.299L28.989,465.299C33.984,465.299 38.04,462.192 38.04,458.365L38.04,410.135ZM34.386,410.135C34.386,407.853 31.968,406 28.989,406L18.195,406C15.217,406 12.798,407.853 12.798,410.135L12.798,458.365C12.798,460.647 15.217,462.5 18.195,462.5L28.989,462.5C31.968,462.5 34.386,460.647 34.386,458.365L34.386,410.135Z" style="fill:rgb(25,25,55);"/>
                <path d="M34.386,410.135C34.386,407.853 31.968,406 28.989,406L18.195,406C15.217,406 12.798,407.853 12.798,410.135L12.798,458.365C12.798,460.647 15.217,462.5 18.195,462.5L28.989,462.5C31.968,462.5 34.386,460.647 34.386,458.365L34.386,410.135Z" style="fill:white;"/>
            </g>
        </g>
    </g>
</svg>
