<?xml version="1.0" encoding="UTF-8" standalone="no"?>
<!DOCTYPE svg PUBLIC "-//W3C//DTD SVG 1.1//EN" "http://www.w3.org/Graphics/SVG/1.1/DTD/svg11.dtd">
<svg width="100%" height="100%" viewBox="0 0 100 100" version="1.1" xmlns="http://www.w3.org/2000/svg" xmlns:xlink="http://www.w3.org/1999/xlink" xml:space="preserve" xmlns:serif="http://www.serif.com/" style="fill-rule:evenodd;clip-rule:evenodd;stroke-linecap:round;stroke-linejoin:round;">
    <g transform="matrix(1,0,0,1,-2712.59,-123)">
        <g id="Layer3">
        </g>
        <g id="settlement_1" transform="matrix(0.99859,0,0,0.99859,516.898,142.81)">
            <rect x="2198.79" y="-19.838" width="100.141" height="100.141" style="fill:none;"/>
            <g transform="matrix(0.491124,0.491124,-0.937146,0.937146,-262.914,-2813.57)">
                <path d="M5488.41,169.591C5488.41,163.336 5478.72,158.257 5466.78,158.257C5466.78,158.257 5437.94,158.257 5437.94,158.257C5426.01,158.257 5416.32,163.336 5416.32,169.591C5416.32,169.591 5416.32,184.703 5416.32,184.703C5416.32,190.958 5426.01,196.037 5437.94,196.037L5466.78,196.037C5478.72,196.037 5488.41,190.958 5488.41,184.703L5488.41,169.591ZM5481.2,169.591C5481.2,165.421 5474.74,162.035 5466.78,162.035L5437.94,162.035C5429.99,162.035 5423.53,165.421 5423.53,169.591L5423.53,184.703C5423.53,188.873 5429.99,192.259 5437.94,192.259L5466.78,192.259C5474.74,192.259 5481.2,188.873 5481.2,184.703L5481.2,169.591Z" style="fill:rgb(255,176,203);"/>
                <path d="M5481.2,169.591C5481.2,165.421 5474.74,162.035 5466.78,162.035L5437.94,162.035C5429.99,162.035 5423.53,165.421 5423.53,169.591L5423.53,184.703C5423.53,188.873 5429.99,192.259 5437.94,192.259L5466.78,192.259C5474.74,192.259 5481.2,188.873 5481.2,184.703L5481.2,169.591Z" style="fill:rgb(241,87,140);"/>
            </g>
            <g transform="matrix(0.512599,0.512599,0.708105,-0.708105,-680.393,-2630.23)">
                <path d="M5426.83,183.603L5426.83,179.806C5426.83,175.077 5432.12,171.243 5438.65,171.243C5445.32,171.243 5452.33,171.243 5452.33,171.243" style="fill:none;stroke:white;stroke-opacity:0.65;stroke-width:3.44px;"/>
            </g>
            <g transform="matrix(0.708105,0.708105,0.708105,-0.708105,-1750.1,-3725.96)">
                <circle cx="5457.53" cy="171.418" r="1.488" style="fill:white;fill-opacity:0.65;"/>
            </g>
        </g>
    </g>
</svg>
