<?xml version="1.0" encoding="UTF-8" standalone="no"?>
<!DOCTYPE svg PUBLIC "-//W3C//DTD SVG 1.1//EN" "http://www.w3.org/Graphics/SVG/1.1/DTD/svg11.dtd">
<svg width="100%" height="100%" viewBox="0 0 100 100" version="1.1" xmlns="http://www.w3.org/2000/svg" xmlns:xlink="http://www.w3.org/1999/xlink" xml:space="preserve" xmlns:serif="http://www.serif.com/" style="fill-rule:evenodd;clip-rule:evenodd;stroke-linecap:round;stroke-linejoin:round;">
    <g transform="matrix(1,0,0,1,-2576.93,-123)">
        <g id="Layer3">
        </g>
        <g id="settlement_2" transform="matrix(0.99859,0,0,0.99859,381.238,142.81)">
            <rect x="2198.79" y="-19.838" width="100.141" height="100.141" style="fill:none;"/>
            <g transform="matrix(0.736687,-0.736687,0.423141,0.423141,-1842.76,3973.35)">
                <path d="M5486,184.703L5486,169.591C5486,160.803 5481.91,153.668 5476.86,153.668L5427.87,153.668C5422.82,153.668 5418.72,160.803 5418.72,169.591L5418.72,184.703C5418.72,193.491 5422.82,200.626 5427.87,200.626L5476.86,200.626C5481.91,200.626 5486,193.491 5486,184.703ZM5481.2,169.591C5481.2,165.421 5479.25,162.035 5476.86,162.035L5427.87,162.035C5425.47,162.035 5423.53,165.421 5423.53,169.591L5423.53,184.703C5423.53,188.873 5425.47,192.259 5427.87,192.259L5476.86,192.259C5479.25,192.259 5481.2,188.873 5481.2,184.703L5481.2,169.591Z" style="fill:rgb(255,176,203);"/>
                <path d="M5481.2,169.591C5481.2,165.421 5479.25,162.035 5476.86,162.035L5427.87,162.035C5425.47,162.035 5423.53,165.421 5423.53,169.591L5423.53,184.703C5423.53,188.873 5425.47,192.259 5427.87,192.259L5476.86,192.259C5479.25,192.259 5481.2,188.873 5481.2,184.703L5481.2,169.591Z" style="fill:rgb(241,87,140);"/>
            </g>
            <g transform="matrix(0.545846,-0.545846,0.708105,0.708105,-857.821,2885.11)">
                <path d="M5422.68,179.067L5422.68,174.221C5422.68,172.577 5424.41,171.244 5426.55,171.243C5434.58,171.243 5452.33,171.243 5452.33,171.243" style="fill:none;stroke:white;stroke-opacity:0.65;stroke-width:3.36px;"/>
            </g>
            <g transform="matrix(0.708105,-0.708105,0.708105,0.708105,-1739.93,3766.99)">
                <circle cx="5457.53" cy="171.418" r="1.488" style="fill:white;fill-opacity:0.65;"/>
            </g>
        </g>
    </g>
</svg>
