<?xml version="1.0" encoding="UTF-8" standalone="no"?>
<!DOCTYPE svg PUBLIC "-//W3C//DTD SVG 1.1//EN" "http://www.w3.org/Graphics/SVG/1.1/DTD/svg11.dtd">
<svg width="100%" height="100%" viewBox="0 0 100 100" version="1.1" xmlns="http://www.w3.org/2000/svg" xmlns:xlink="http://www.w3.org/1999/xlink" xml:space="preserve" xmlns:serif="http://www.serif.com/" style="fill-rule:evenodd;clip-rule:evenodd;stroke-linecap:round;stroke-linejoin:round;">
    <g transform="matrix(1,0,0,1,-2325.22,-123)">
        <g id="Layer3">
        </g>
        <g id="settlement_4" transform="matrix(0.99859,0,0,0.99859,129.529,142.81)">
            <rect x="2198.79" y="-19.838" width="100.141" height="100.141" style="fill:none;"/>
            <g transform="matrix(1.35718,0,0,1.35718,-993.349,-47.9819)">
                <path d="M2387.84,30.392C2387.99,29.916 2388.44,29.594 2388.94,29.594C2389.44,29.594 2389.89,29.916 2390.04,30.392L2396.51,50.058L2416.18,56.527C2416.66,56.684 2416.98,57.129 2416.98,57.631C2416.98,58.132 2416.66,58.577 2416.18,58.734L2396.51,65.203L2390.04,84.869C2389.89,85.345 2389.44,85.667 2388.94,85.667C2388.44,85.667 2387.99,85.345 2387.84,84.869L2381.37,65.203L2361.7,58.734C2361.23,58.577 2360.9,58.132 2360.9,57.631C2360.9,57.129 2361.23,56.684 2361.7,56.527L2381.37,50.058L2387.84,30.392Z" style="fill:rgb(241,87,140);"/>
                <path d="M2384.33,29.24L2378.45,47.136C2378.45,47.136 2360.55,53.023 2360.55,53.023C2358.56,53.677 2357.22,55.536 2357.22,57.631C2357.22,59.725 2358.56,61.584 2360.55,62.238C2360.55,62.238 2378.45,68.125 2378.45,68.125C2378.45,68.125 2384.33,86.022 2384.33,86.022C2384.99,88.012 2386.85,89.356 2388.94,89.356C2391.04,89.356 2392.89,88.012 2393.55,86.022C2393.55,86.022 2399.44,68.125 2399.44,68.125C2399.44,68.125 2417.33,62.238 2417.33,62.238C2419.32,61.584 2420.67,59.725 2420.67,57.631C2420.67,55.536 2419.32,53.677 2417.33,53.023C2417.33,53.023 2399.44,47.136 2399.44,47.136C2399.44,47.136 2393.55,29.24 2393.55,29.24C2392.89,27.25 2391.04,25.905 2388.94,25.905C2386.85,25.905 2384.99,27.25 2384.33,29.24ZM2387.84,30.392C2387.99,29.916 2388.44,29.594 2388.94,29.594C2389.44,29.594 2389.89,29.916 2390.04,30.392L2396.51,50.058L2416.18,56.527C2416.66,56.684 2416.98,57.129 2416.98,57.631C2416.98,58.132 2416.66,58.577 2416.18,58.734L2396.51,65.203L2390.04,84.869C2389.89,85.345 2389.44,85.667 2388.94,85.667C2388.44,85.667 2387.99,85.345 2387.84,84.869L2381.37,65.203L2361.7,58.734C2361.23,58.577 2360.9,58.132 2360.9,57.631C2360.9,57.129 2361.23,56.684 2361.7,56.527L2381.37,50.058L2387.84,30.392Z" style="fill:rgb(255,176,203);"/>
            </g>
            <g transform="matrix(1.08586,0,0,1.08586,-3526.74,-166.654)">
                <path d="M5298.04,177.324L5310.77,173.122L5315.25,159.515" style="fill:none;stroke:white;stroke-opacity:0.65;stroke-width:3.69px;"/>
            </g>
            <g transform="matrix(1.44708,0,0,1.44708,-5650.06,-248.14)">
                <circle cx="5457.53" cy="171.418" r="1.488" style="fill:white;fill-opacity:0.65;"/>
            </g>
        </g>
    </g>
</svg>
