<?xml version="1.0" encoding="UTF-8" standalone="no"?>
<!DOCTYPE svg PUBLIC "-//W3C//DTD SVG 1.1//EN" "http://www.w3.org/Graphics/SVG/1.1/DTD/svg11.dtd">
<svg width="100%" height="100%" viewBox="0 0 100 100" version="1.1" xmlns="http://www.w3.org/2000/svg" xmlns:xlink="http://www.w3.org/1999/xlink" xml:space="preserve" xmlns:serif="http://www.serif.com/" style="fill-rule:evenodd;clip-rule:evenodd;stroke-linecap:round;stroke-linejoin:round;">
    <g transform="matrix(1,0,0,1,-2452.03,-123)">
        <g id="Layer3">
        </g>
        <g id="settlement_3" transform="matrix(0.99859,0,0,0.99859,256.335,142.81)">
            <rect x="2198.79" y="-19.838" width="100.141" height="100.141" style="fill:none;"/>
            <g transform="matrix(1.5476,0,0,1.5476,-1448.25,-48.6121)">
                <path d="M2387.68,30.564C2387.83,29.992 2388.35,29.594 2388.94,29.594C2389.53,29.594 2390.05,29.992 2390.2,30.564L2396.22,53.425L2413.01,70.074C2413.43,70.491 2413.52,71.137 2413.22,71.649C2412.93,72.161 2412.32,72.409 2411.75,72.254L2388.94,66.042L2366.13,72.254C2365.56,72.409 2364.96,72.161 2364.66,71.649C2364.37,71.137 2364.45,70.491 2364.87,70.074L2381.66,53.425L2387.68,30.564Z" style="fill:rgb(241,87,140);"/>
                <path d="M2384.55,29.739L2378.75,51.748C2378.75,51.748 2362.59,67.777 2362.59,67.777C2361.13,69.228 2360.83,71.482 2361.86,73.267C2362.89,75.051 2364.99,75.917 2366.98,75.375C2366.98,75.375 2388.94,69.395 2388.94,69.395C2388.94,69.395 2410.9,75.375 2410.9,75.375C2412.89,75.917 2414.99,75.051 2416.02,73.267C2417.05,71.482 2416.75,69.228 2415.29,67.777C2415.29,67.777 2399.13,51.748 2399.13,51.748C2399.13,51.748 2393.33,29.739 2393.33,29.739C2392.8,27.747 2391,26.359 2388.94,26.359C2386.88,26.359 2385.08,27.747 2384.55,29.739ZM2387.68,30.564C2387.83,29.992 2388.35,29.594 2388.94,29.594C2389.53,29.594 2390.05,29.992 2390.2,30.564L2396.22,53.425L2413.01,70.074C2413.43,70.491 2413.52,71.137 2413.22,71.649C2412.93,72.161 2412.32,72.409 2411.75,72.254L2388.94,66.042L2366.13,72.254C2365.56,72.409 2364.96,72.161 2364.66,71.649C2364.37,71.137 2364.45,70.491 2364.87,70.074L2381.66,53.425L2387.68,30.564Z" style="fill:rgb(255,176,203);"/>
            </g>
            <g transform="matrix(1.23821,0,0,1.23821,-4337.73,-179.752)">
                <path d="M5301.75,183.458L5311.8,173.519L5314.43,163.425" style="fill:none;stroke:white;stroke-opacity:0.65;stroke-width:3.24px;"/>
            </g>
            <g transform="matrix(1.33358,0,0,1.33358,-5032.47,-217.011)">
                <circle cx="5457.53" cy="171.418" r="1.488" style="fill:white;fill-opacity:0.65;"/>
            </g>
        </g>
    </g>
</svg>
