<?xml version="1.0" encoding="UTF-8" standalone="no"?>
<!DOCTYPE svg PUBLIC "-//W3C//DTD SVG 1.1//EN" "http://www.w3.org/Graphics/SVG/1.1/DTD/svg11.dtd">
<svg width="100%" height="100%" viewBox="0 0 100 100" version="1.1" xmlns="http://www.w3.org/2000/svg" xmlns:xlink="http://www.w3.org/1999/xlink" xml:space="preserve" xmlns:serif="http://www.serif.com/" style="fill-rule:evenodd;clip-rule:evenodd;stroke-linecap:round;stroke-linejoin:round;">
    <g transform="matrix(1,0,0,1,-2196.56,-123)">
        <g id="Layer3">
        </g>
        <g id="settlement_5" transform="matrix(0.99859,0,0,0.99859,0.867985,142.81)">
            <rect x="2198.79" y="-19.838" width="100.141" height="100.141" style="fill:none;"/>
            <g transform="matrix(1.45804,0,0,1.45804,-1233.1,-50.8914)">
                <path d="M2387.96,30.304C2388.1,29.88 2388.49,29.594 2388.94,29.594C2389.39,29.594 2389.78,29.88 2389.93,30.304L2395.86,48.104L2414.63,48.25C2415.07,48.253 2415.47,48.542 2415.61,48.967C2415.74,49.392 2415.59,49.857 2415.24,50.122L2400.14,61.269L2405.8,79.16C2405.93,79.586 2405.78,80.05 2405.42,80.313C2405.06,80.575 2404.57,80.577 2404.21,80.317L2388.94,69.406L2373.68,80.317C2373.31,80.577 2372.82,80.575 2372.46,80.313C2372.1,80.05 2371.95,79.586 2372.08,79.16L2377.74,61.269L2362.65,50.122C2362.29,49.857 2362.14,49.392 2362.28,48.967C2362.41,48.542 2362.81,48.253 2363.26,48.25L2382.02,48.104L2387.96,30.304Z" style="fill:rgb(241,87,140);"/>
                <path d="M2384.7,29.217L2379.54,44.689C2379.54,44.689 2363.23,44.816 2363.23,44.816C2361.3,44.831 2359.61,46.075 2359.01,47.906C2358.42,49.736 2359.06,51.742 2360.61,52.885C2360.61,52.885 2373.73,62.574 2373.73,62.574C2373.73,62.574 2368.81,78.124 2368.81,78.124C2368.23,79.959 2368.89,81.96 2370.44,83.091C2372,84.222 2374.11,84.23 2375.67,83.111C2375.67,83.111 2388.94,73.627 2388.94,73.627C2388.94,73.627 2402.21,83.111 2402.21,83.111C2403.78,84.23 2405.88,84.222 2407.44,83.091C2409,81.96 2409.66,79.959 2409.07,78.124C2409.07,78.124 2404.16,62.574 2404.16,62.574C2404.16,62.574 2417.28,52.885 2417.28,52.885C2418.82,51.742 2419.47,49.736 2418.87,47.906C2418.28,46.075 2416.58,44.831 2414.65,44.816C2414.65,44.816 2398.34,44.689 2398.34,44.689C2398.34,44.689 2393.18,29.217 2393.18,29.217C2392.57,27.391 2390.87,26.16 2388.94,26.16C2387.02,26.16 2385.31,27.391 2384.7,29.217ZM2387.96,30.304C2388.1,29.88 2388.49,29.594 2388.94,29.594C2389.39,29.594 2389.78,29.88 2389.93,30.304L2395.86,48.104L2414.63,48.25C2415.07,48.253 2415.47,48.542 2415.61,48.967C2415.74,49.392 2415.59,49.857 2415.24,50.122L2400.14,61.269L2405.8,79.16C2405.93,79.586 2405.78,80.05 2405.42,80.313C2405.06,80.575 2404.57,80.577 2404.21,80.317L2388.94,69.406L2373.68,80.317C2373.31,80.577 2372.82,80.575 2372.46,80.313C2372.1,80.05 2371.95,79.586 2372.08,79.16L2377.74,61.269L2362.65,50.122C2362.29,49.857 2362.14,49.392 2362.28,48.967C2362.41,48.542 2362.81,48.253 2363.26,48.25L2382.02,48.104L2387.96,30.304Z" style="fill:rgb(255,176,203);"/>
            </g>
            <g transform="matrix(1.1065,0,0,1.1065,-3636.76,-167.243)">
                <path d="M5298.12,170.181L5312.29,170.223L5315.03,161.824" style="fill:none;stroke:white;stroke-opacity:0.65;stroke-width:3.62px;"/>
            </g>
            <g transform="matrix(1.47459,0,0,1.47459,-5799.92,-249.564)">
                <circle cx="5457.53" cy="171.418" r="1.488" style="fill:white;fill-opacity:0.65;"/>
            </g>
        </g>
    </g>
</svg>
