<?xml version="1.0" encoding="UTF-8" standalone="no"?>
<!DOCTYPE svg PUBLIC "-//W3C//DTD SVG 1.1//EN" "http://www.w3.org/Graphics/SVG/1.1/DTD/svg11.dtd">
<svg width="100%" height="100%" viewBox="0 0 100 100" version="1.1" xmlns="http://www.w3.org/2000/svg" xmlns:xlink="http://www.w3.org/1999/xlink" xml:space="preserve" xmlns:serif="http://www.serif.com/" style="fill-rule:evenodd;clip-rule:evenodd;stroke-linecap:round;stroke-linejoin:round;stroke-miterlimit:1.5;">
    <g transform="matrix(1,0,0,1,-3096.75,1.77636e-15)">
        <g id="victory_7" transform="matrix(0.99595,0,0,0.99595,911.311,10.1101)">
            <rect x="2194.33" y="-10.151" width="100.407" height="100.407" style="fill:none;"/>
            <clipPath id="_clip1">
                <rect x="2194.33" y="-10.151" width="100.407" height="100.407"/>
            </clipPath>
            <g clip-path="url(#_clip1)">
                <g id="Layer19" transform="matrix(1.00407,0,0,1.00407,-138.991,-10.2676)">
                    <g transform="matrix(0.545329,-0.545329,0.340714,0.340714,1044.67,1317.36)">
                        <path d="M2361.14,27.086C2361.14,24.073 2369.87,21.626 2380.62,21.626C2391.37,21.626 2400.09,24.073 2400.09,27.086" style="fill:none;stroke:rgb(172,172,172);stroke-width:3.11px;stroke-dasharray:1.56,4.67,1.56,4.67;stroke-dashoffset:3.11;"/>
                    </g>
                    <g transform="matrix(1.16859,-1.16859,1.16138,1.16138,-447.667,2792.51)">
                        <path d="M2361.14,27.086C2361.14,24.073 2369.87,21.626 2380.62,21.626C2391.37,21.626 2400.09,24.073 2400.09,27.086" style="fill:none;stroke:rgb(172,172,172);stroke-width:1.21px;stroke-dasharray:0.61,1.82,0.61,1.82;stroke-dashoffset:1.21;"/>
                    </g>
                    <g transform="matrix(1.23762,-1.23762,1.25047,1.25047,-606.376,2962.46)">
                        <path d="M2361.14,27.086C2361.14,24.073 2369.87,21.626 2380.62,21.626C2391.37,21.626 2400.09,24.073 2400.09,27.086" style="fill:none;stroke:rgb(172,172,172);stroke-width:1.14px;stroke-dasharray:0.57,1.71,0.57,1.71;stroke-dashoffset:1.14;"/>
                    </g>
                    <g transform="matrix(0.974969,-0.974969,0.634726,0.634726,21.4725,2339.78)">
                        <path d="M2361.14,27.086C2361.14,24.073 2369.87,21.626 2380.62,21.626C2391.37,21.626 2400.09,24.073 2400.09,27.086" style="fill:none;stroke:rgb(172,172,172);stroke-width:1.72px;stroke-dasharray:0.86,2.58,0.86,2.58;stroke-dashoffset:1.72;"/>
                    </g>
                    <g transform="matrix(1.12458,-1.12458,0.818462,0.818462,-315.45,2715.2)">
                        <path d="M2361.14,27.086C2361.14,24.073 2369.87,21.626 2380.62,21.626C2391.37,21.626 2400.09,24.073 2400.09,27.086" style="fill:none;stroke:rgb(172,172,172);stroke-width:1.44px;stroke-dasharray:0.72,2.16,0.72,2.16;stroke-dashoffset:1.44;"/>
                    </g>
                    <g transform="matrix(0.725414,-0.725414,0.489147,0.489147,653.161,1783.28)">
                        <path d="M2361.14,27.086C2361.14,24.073 2369.87,21.626 2380.62,21.626C2391.37,21.626 2400.09,24.073 2400.09,27.086" style="fill:none;stroke:rgb(172,172,172);stroke-width:2.29px;stroke-dasharray:1.14,3.43,1.14,3.43;stroke-dashoffset:2.29;"/>
                    </g>
                    <g transform="matrix(0.503707,-0.503707,0.503707,0.503707,1152.87,1220.58)">
                        <circle cx="2373.87" cy="50" r="21.484" style="fill:white;"/>
                        <path d="M2373.87,18.891C2356.7,18.891 2342.76,32.831 2342.76,50C2342.76,67.169 2356.7,81.109 2373.87,81.109C2391.04,81.109 2404.98,67.169 2404.98,50C2404.98,32.831 2391.04,18.891 2373.87,18.891ZM2373.87,28.516C2385.72,28.516 2395.35,38.143 2395.35,50C2395.35,61.857 2385.72,71.484 2373.87,71.484C2362.01,71.484 2352.38,61.857 2352.38,50C2352.38,38.143 2362.01,28.516 2373.87,28.516Z" style="fill:rgb(255,214,59);"/>
                        <path d="M2373.87,23.704C2359.35,23.704 2347.57,35.487 2347.57,50C2347.57,64.513 2359.35,76.296 2373.87,76.296C2388.38,76.296 2400.16,64.513 2400.16,50C2400.16,35.487 2388.38,23.704 2373.87,23.704ZM2373.87,28.516C2385.72,28.516 2395.35,38.143 2395.35,50C2395.35,61.857 2385.72,71.484 2373.87,71.484C2362.01,71.484 2352.38,61.857 2352.38,50C2352.38,38.143 2362.01,28.516 2373.87,28.516Z" style="fill:rgb(255,232,145);"/>
                    </g>
                    <g transform="matrix(-0.707107,0.707107,-0.707107,-0.707107,4047.82,-1633.67)">
                        <path d="M2391.24,52.155L2357.32,52.155L2365.8,5.303L2382.76,5.303L2391.24,52.155Z" style="fill:url(#_Linear2);"/>
                    </g>
                    <g transform="matrix(0.707107,-0.707107,0.707107,0.707107,699.916,1733.9)">
                        <path d="M2391.24,52.155L2357.32,52.155L2365.8,5.303L2382.76,5.303L2391.24,52.155Z" style="fill:url(#_Linear3);"/>
                    </g>
                    <g transform="matrix(0.545329,-0.545329,0.340714,0.340714,1044.67,1317.36)">
                        <path d="M2400.09,27.086C2400.09,30.099 2391.37,32.546 2380.62,32.546C2369.87,32.546 2361.14,30.099 2361.14,27.086" style="fill:none;stroke:black;stroke-width:3.11px;stroke-dasharray:1.56,4.67,1.56,4.67;stroke-dashoffset:3.11;"/>
                    </g>
                    <g transform="matrix(0.974969,-0.974969,0.634726,0.634726,21.4725,2339.78)">
                        <path d="M2400.09,27.086C2400.09,30.099 2391.37,32.546 2380.62,32.546C2369.87,32.546 2361.14,30.099 2361.14,27.086" style="fill:none;stroke:black;stroke-width:1.72px;stroke-dasharray:0.86,2.58,0.86,2.58;stroke-dashoffset:1.72;"/>
                    </g>
                    <g transform="matrix(1.12458,-1.12458,0.818462,0.818462,-315.45,2715.2)">
                        <path d="M2400.09,27.086C2400.09,30.099 2391.37,32.546 2380.62,32.546C2369.87,32.546 2361.14,30.099 2361.14,27.086" style="fill:none;stroke:black;stroke-width:1.44px;stroke-dasharray:0.72,2.16,0.72,2.16;stroke-dashoffset:1.44;"/>
                    </g>
                    <g transform="matrix(0.725414,-0.725414,0.489147,0.489147,653.161,1783.28)">
                        <path d="M2400.09,27.086C2400.09,30.099 2391.37,32.546 2380.62,32.546C2369.87,32.546 2361.14,30.099 2361.14,27.086" style="fill:none;stroke:black;stroke-width:2.29px;stroke-dasharray:1.14,3.43,1.14,3.43;stroke-dashoffset:2.29;"/>
                    </g>
                    <g transform="matrix(1.16859,-1.16859,1.16138,1.16138,-447.667,2792.51)">
                        <path d="M2400.09,27.086C2400.09,30.099 2391.37,32.546 2380.62,32.546C2369.87,32.546 2361.14,30.099 2361.14,27.086" style="fill:none;stroke:black;stroke-width:1.21px;stroke-dasharray:0.61,1.82,0.61,1.82;stroke-dashoffset:1.21;"/>
                    </g>
                    <g transform="matrix(1.23762,-1.23762,1.25047,1.25047,-606.376,2962.46)">
                        <path d="M2400.09,27.086C2400.09,30.099 2391.37,32.546 2380.62,32.546C2369.87,32.546 2361.14,30.099 2361.14,27.086" style="fill:none;stroke:black;stroke-width:1.14px;stroke-dasharray:0.57,1.71,0.57,1.71;stroke-dashoffset:1.14;"/>
                    </g>
                </g>
                <g transform="matrix(0.311502,0,0,0.820568,1792.87,-595.42)">
                    <g transform="matrix(3.22331,0,0,1.22362,-3324.92,-162.235)">
                        <path d="M1505.8,756.12C1507.9,756.12 1509.41,755.187 1510.35,753.33C1510.35,753.33 1521.14,732.239 1521.14,732.239C1521.15,732.231 1521.15,732.222 1521.16,732.214C1522.05,730.431 1521.93,728.77 1520.92,727.224C1519.95,725.655 1518.51,724.848 1516.6,724.848C1516.6,724.848 1504.33,724.848 1504.33,724.848C1502.92,724.848 1501.72,725.345 1500.73,726.339C1499.74,727.333 1499.24,728.533 1499.24,729.936C1499.24,731.34 1499.74,732.539 1500.73,733.534C1500.73,733.534 1500.73,733.534 1500.73,733.534C1501.72,734.528 1502.92,735.024 1504.33,735.024L1508.28,735.024L1501.28,748.719C1500.66,749.968 1500.56,751.247 1500.95,752.554C1500.95,752.554 1500.95,752.554 1500.95,752.554C1501.37,753.919 1502.22,754.935 1503.53,755.588C1504.23,755.938 1504.98,756.12 1505.8,756.12ZM1505.8,753.12C1506.67,753.12 1507.29,752.736 1507.67,751.968L1518.48,730.872C1518.84,730.152 1518.81,729.48 1518.4,728.856C1518,728.184 1517.39,727.848 1516.6,727.848L1504.33,727.848C1503.75,727.848 1503.26,728.052 1502.85,728.46C1502.44,728.868 1502.24,729.36 1502.24,729.936C1502.24,730.512 1502.44,731.004 1502.85,731.412C1503.26,731.82 1503.75,732.024 1504.33,732.024L1513.18,732.024L1503.97,750.06C1503.7,750.588 1503.65,751.128 1503.82,751.68C1503.99,752.232 1504.34,752.64 1504.87,752.904C1505.15,753.048 1505.47,753.12 1505.8,753.12Z"/>
                    </g>
                    <g transform="matrix(3.22331,0,0,1.22362,-3324.92,-162.235)">
                        <g transform="matrix(36,0,0,36,1501.52,753.12)">
                            <path d="M0.119,-0C0.143,-0 0.16,-0.011 0.171,-0.032L0.471,-0.618C0.481,-0.638 0.48,-0.657 0.469,-0.674C0.458,-0.693 0.441,-0.702 0.419,-0.702L0.078,-0.702C0.062,-0.702 0.048,-0.696 0.037,-0.685C0.026,-0.674 0.02,-0.66 0.02,-0.644C0.02,-0.628 0.026,-0.614 0.037,-0.603C0.048,-0.592 0.062,-0.586 0.078,-0.586L0.324,-0.586L0.068,-0.085C0.061,-0.07 0.059,-0.055 0.064,-0.04C0.069,-0.025 0.078,-0.013 0.093,-0.006C0.101,-0.002 0.11,-0 0.119,-0Z" style="fill:white;fill-rule:nonzero;"/>
                        </g>
                    </g>
                </g>
            </g>
        </g>
        <g id="Layer3">
        </g>
    </g>
    <defs>
        <linearGradient id="_Linear2" x1="0" y1="0" x2="1" y2="0" gradientUnits="userSpaceOnUse" gradientTransform="matrix(2.86886e-15,46.852,-64.7115,3.96243e-15,2373.87,5.30258)"><stop offset="0" style="stop-color:white;stop-opacity:1"/><stop offset="1" style="stop-color:white;stop-opacity:0"/></linearGradient>
        <linearGradient id="_Linear3" x1="0" y1="0" x2="1" y2="0" gradientUnits="userSpaceOnUse" gradientTransform="matrix(2.86886e-15,46.852,-64.7115,3.96243e-15,2373.87,5.30258)"><stop offset="0" style="stop-color:white;stop-opacity:1"/><stop offset="1" style="stop-color:white;stop-opacity:0"/></linearGradient>
    </defs>
</svg>
