<?xml version="1.0" encoding="UTF-8" standalone="no"?>
<!DOCTYPE svg PUBLIC "-//W3C//DTD SVG 1.1//EN" "http://www.w3.org/Graphics/SVG/1.1/DTD/svg11.dtd">
<svg width="100%" height="100%" viewBox="0 0 101 100" version="1.1" xmlns="http://www.w3.org/2000/svg" xmlns:xlink="http://www.w3.org/1999/xlink" xml:space="preserve" xmlns:serif="http://www.serif.com/" style="fill-rule:evenodd;clip-rule:evenodd;stroke-linecap:round;stroke-linejoin:round;stroke-miterlimit:1.5;">
    <rect id="victory_2" x="0.592" y="-0" width="100" height="100" style="fill:none;"/>
    <clipPath id="_clip1">
        <rect x="0.592" y="-0" width="100" height="100"/>
    </clipPath>
    <g clip-path="url(#_clip1)">
        <g id="Layer19">
            <path d="M18.222,38.869C17.195,37.843 21.12,32.251 26.982,26.389C32.843,20.528 38.435,16.603 39.462,17.63" style="fill:none;stroke:rgb(172,172,172);stroke-width:2px;stroke-dasharray:1,3,1,3;stroke-dashoffset:2;"/>
            <path d="M19.721,64.644C16.222,61.144 23.578,48.106 36.138,35.546C48.698,22.985 61.737,15.629 65.236,19.129" style="fill:none;stroke:rgb(172,172,172);stroke-width:2px;stroke-dasharray:1,3,1,3;stroke-dashoffset:2;"/>
            <path d="M26.409,74.02C22.641,70.252 30.381,56.393 43.683,43.091C56.985,29.789 70.844,22.048 74.612,25.816" style="fill:none;stroke:rgb(172,172,172);stroke-width:2px;stroke-dasharray:1,3,1,3;stroke-dashoffset:2;"/>
            <path d="M17.43,54.812C15.518,52.899 22.472,42.838 32.952,32.359C43.431,21.88 53.491,14.925 55.404,16.838" style="fill:none;stroke:rgb(172,172,172);stroke-width:2px;stroke-dasharray:1,3,1,3;stroke-dashoffset:2;"/>
            <path d="M38.744,81.953C36.278,79.486 44.089,67.671 56.176,55.584C68.263,43.496 80.079,35.685 82.545,38.152" style="fill:none;stroke:rgb(172,172,172);stroke-width:2px;stroke-dasharray:1,3,1,3;stroke-dashoffset:2;"/>
            <path d="M55.941,83.603C54.467,82.129 59.6,74.602 67.397,66.805C75.194,59.008 82.721,53.875 84.195,55.349" style="fill:none;stroke:rgb(172,172,172);stroke-width:2px;stroke-dasharray:1,3,1,3;stroke-dashoffset:2;"/>
            <path d="M39.689,39.097C45.661,33.124 55.359,33.124 61.332,39.097C67.304,45.069 67.304,54.767 61.332,60.739C55.359,66.712 45.661,66.712 39.689,60.739C33.716,54.767 33.716,45.069 39.689,39.097Z" style="fill:white;"/>
            <path d="M34.841,34.248C26.192,42.897 26.192,56.939 34.841,65.588C43.489,74.236 57.532,74.236 66.18,65.588C74.828,56.939 74.828,42.897 66.18,34.248C57.532,25.6 43.489,25.6 34.841,34.248ZM39.689,39.097C45.661,33.124 55.359,33.124 61.332,39.097C67.304,45.069 67.304,54.767 61.332,60.739C55.359,66.712 45.661,66.712 39.689,60.739C33.716,54.767 33.716,45.069 39.689,39.097Z" style="fill:rgb(255,214,59);"/>
            <path d="M37.265,36.672C29.954,43.983 29.954,55.853 37.265,63.164C44.575,70.474 56.445,70.474 63.756,63.164C71.066,55.853 71.066,43.983 63.756,36.672C56.445,29.362 44.575,29.362 37.265,36.672ZM39.689,39.097C45.661,33.124 55.359,33.124 61.332,39.097C67.304,45.069 67.304,54.767 61.332,60.739C55.359,66.712 45.661,66.712 39.689,60.739C33.716,54.767 33.716,45.069 39.689,39.097Z" style="fill:rgb(255,232,145);"/>
            <path d="M-3.196,20.198L20.79,-3.788L47.923,35.338L35.93,47.331L-3.196,20.198Z" style="fill:url(#_Linear2);"/>
            <path d="M104.381,79.802L80.395,103.788L53.262,64.662L65.255,52.669L104.381,79.802Z" style="fill:url(#_Linear3);"/>
            <path d="M39.462,17.63C40.488,18.656 36.563,24.248 30.702,30.11C24.841,35.971 19.249,39.896 18.222,38.869" style="fill:none;stroke:black;stroke-width:2px;stroke-dasharray:1,3,1,3;stroke-dashoffset:2;"/>
            <path d="M55.404,16.838C57.316,18.75 50.362,28.811 39.882,39.29C29.403,49.769 19.343,56.724 17.43,54.812" style="fill:none;stroke:black;stroke-width:2px;stroke-dasharray:1,3,1,3;stroke-dashoffset:2;"/>
            <path d="M82.545,38.152C85.011,40.618 77.2,52.433 65.113,64.521C53.026,76.608 41.21,84.419 38.744,81.953" style="fill:none;stroke:black;stroke-width:2px;stroke-dasharray:1,3,1,3;stroke-dashoffset:2;"/>
            <path d="M84.195,55.349C85.669,56.823 80.535,64.349 72.739,72.146C64.942,79.943 57.415,85.076 55.941,83.603" style="fill:none;stroke:black;stroke-width:2px;stroke-dasharray:1,3,1,3;stroke-dashoffset:2;"/>
            <path d="M65.236,19.129C68.736,22.628 61.38,35.667 48.819,48.227C36.259,60.787 23.221,68.143 19.721,64.644" style="fill:none;stroke:black;stroke-width:2px;stroke-dasharray:1,3,1,3;stroke-dashoffset:2;"/>
            <path d="M74.612,25.816C78.38,29.584 70.64,43.443 57.338,56.745C44.035,70.047 30.177,77.788 26.409,74.02" style="fill:none;stroke:black;stroke-width:2px;stroke-dasharray:1,3,1,3;stroke-dashoffset:2;"/>
        </g>
        <g transform="matrix(0.31024,0,0,0.817245,-399.234,-582.899)">
            <g transform="matrix(3.22331,0,0,1.22362,-3324.92,-162.235)">
                <path d="M1505.16,740.456C1504.68,740.849 1504.11,741.359 1503.45,741.985C1502.49,742.883 1501.77,743.722 1501.27,744.484C1500.75,745.258 1500.29,746.198 1499.88,747.313C1499.45,748.503 1499.24,749.743 1499.24,751.032C1499.24,752.436 1499.74,753.635 1500.73,754.63C1500.73,754.63 1500.73,754.63 1500.73,754.63C1501.72,755.624 1502.92,756.12 1504.33,756.12L1516.64,756.12C1518.04,756.12 1519.24,755.624 1520.24,754.63C1521.23,753.635 1521.73,752.436 1521.73,751.032C1521.73,749.629 1521.23,748.429 1520.24,747.435C1519.24,746.441 1518.04,745.944 1516.64,745.944L1514.82,745.944C1515.43,745.492 1515.92,745.106 1516.3,744.791C1516.94,744.266 1517.71,743.536 1518.61,742.595C1519.7,741.449 1520.48,740.252 1520.97,739.024C1521.47,737.782 1521.73,736.434 1521.73,734.976C1521.73,732.31 1520.8,729.999 1518.92,728.048C1516.96,725.965 1514.34,724.848 1510.99,724.848C1507.77,724.848 1505.19,725.958 1503.2,728.083C1501.21,730.201 1500.25,732.637 1500.25,735.372C1500.25,736.776 1500.74,737.975 1501.74,738.97C1501.74,738.97 1501.74,738.97 1501.74,738.97C1502.69,739.922 1503.83,740.417 1505.16,740.456ZM1516.64,753.12C1517.21,753.12 1517.71,752.916 1518.12,752.508C1518.52,752.1 1518.73,751.608 1518.73,751.032C1518.73,750.456 1518.52,749.964 1518.12,749.556C1517.71,749.148 1517.21,748.944 1516.64,748.944L1506.95,748.944C1507.34,748.248 1507.91,747.564 1508.66,746.892C1509.42,746.22 1510.5,745.38 1511.89,744.372C1512.99,743.58 1513.83,742.95 1514.39,742.482C1514.95,742.014 1515.64,741.36 1516.44,740.52C1517.25,739.68 1517.83,738.81 1518.19,737.91C1518.55,737.01 1518.73,736.032 1518.73,734.976C1518.73,733.104 1518.07,731.484 1516.75,730.116C1515.33,728.604 1513.41,727.848 1510.99,727.848C1508.68,727.848 1506.82,728.61 1505.39,730.134C1503.96,731.658 1503.25,733.404 1503.25,735.372C1503.25,735.948 1503.45,736.44 1503.86,736.848C1504.27,737.256 1504.76,737.46 1505.34,737.46C1505.91,737.46 1506.4,737.256 1506.81,736.848C1507.22,736.44 1507.42,735.948 1507.42,735.372C1507.42,734.652 1507.7,733.914 1508.25,733.158C1508.8,732.402 1509.71,732.024 1510.99,732.024C1512.24,732.024 1513.14,732.336 1513.7,732.96C1514.27,733.584 1514.55,734.256 1514.55,734.976C1514.55,735.528 1514.44,736.05 1514.21,736.542C1513.98,737.034 1513.57,737.568 1512.97,738.144C1512.37,738.72 1511.86,739.164 1511.45,739.476C1511.05,739.788 1510.38,740.292 1509.44,740.988C1508.53,741.636 1507.83,742.152 1507.35,742.536C1506.87,742.92 1506.25,743.466 1505.5,744.174C1504.74,744.882 1504.16,745.536 1503.77,746.136C1503.37,746.736 1503.02,747.468 1502.71,748.332C1502.39,749.196 1502.24,750.096 1502.24,751.032C1502.24,751.608 1502.44,752.1 1502.85,752.508C1503.26,752.916 1503.75,753.12 1504.33,753.12L1516.64,753.12ZM1511.54,735.084C1511.41,735.061 1511.16,735.024 1510.99,735.024C1510.85,735.024 1510.67,735.051 1510.57,735.068C1510.49,735.17 1510.42,735.264 1510.42,735.372C1510.42,735.775 1510.38,736.161 1510.3,736.53C1510.48,736.367 1510.68,736.183 1510.89,735.98C1511.16,735.719 1511.38,735.504 1511.49,735.281C1511.52,735.218 1511.53,735.152 1511.54,735.084Z"/>
            </g>
            <g transform="matrix(3.22331,0,0,1.22362,-3324.92,-162.235)">
                <g transform="matrix(36,0,0,36,1501.52,753.12)">
                    <path d="M0.42,-0C0.436,-0 0.45,-0.006 0.461,-0.017C0.472,-0.028 0.478,-0.042 0.478,-0.058C0.478,-0.074 0.472,-0.088 0.461,-0.099C0.45,-0.11 0.436,-0.116 0.42,-0.116L0.151,-0.116C0.162,-0.135 0.178,-0.154 0.199,-0.173C0.22,-0.192 0.249,-0.215 0.288,-0.243C0.319,-0.265 0.342,-0.282 0.358,-0.296C0.373,-0.309 0.392,-0.327 0.414,-0.35C0.437,-0.373 0.453,-0.398 0.463,-0.423C0.473,-0.448 0.478,-0.475 0.478,-0.504C0.478,-0.556 0.46,-0.601 0.423,-0.639C0.384,-0.681 0.33,-0.702 0.263,-0.702C0.199,-0.702 0.147,-0.681 0.108,-0.639C0.068,-0.596 0.048,-0.548 0.048,-0.493C0.048,-0.477 0.054,-0.463 0.065,-0.452C0.076,-0.441 0.09,-0.435 0.106,-0.435C0.122,-0.435 0.136,-0.441 0.147,-0.452C0.158,-0.463 0.164,-0.477 0.164,-0.493C0.164,-0.513 0.172,-0.534 0.187,-0.555C0.202,-0.576 0.228,-0.586 0.263,-0.586C0.298,-0.586 0.323,-0.577 0.339,-0.56C0.354,-0.543 0.362,-0.524 0.362,-0.504C0.362,-0.489 0.359,-0.474 0.353,-0.461C0.346,-0.447 0.335,-0.432 0.318,-0.416C0.301,-0.4 0.287,-0.388 0.276,-0.379C0.265,-0.37 0.246,-0.356 0.22,-0.337C0.195,-0.319 0.175,-0.305 0.162,-0.294C0.149,-0.283 0.132,-0.268 0.111,-0.249C0.09,-0.229 0.074,-0.211 0.063,-0.194C0.051,-0.177 0.042,-0.157 0.033,-0.133C0.024,-0.109 0.02,-0.084 0.02,-0.058C0.02,-0.042 0.026,-0.028 0.037,-0.017C0.048,-0.006 0.062,-0 0.078,-0L0.42,-0Z" style="fill:white;fill-rule:nonzero;"/>
                </g>
            </g>
        </g>
    </g>
    <defs>
        <linearGradient id="_Linear2" x1="0" y1="0" x2="1" y2="0" gradientUnits="userSpaceOnUse" gradientTransform="matrix(-33.1294,-33.1294,45.7579,-45.7579,42.2163,41.0442)"><stop offset="0" style="stop-color:white;stop-opacity:1"/><stop offset="1" style="stop-color:white;stop-opacity:0"/></linearGradient>
        <linearGradient id="_Linear3" x1="0" y1="0" x2="1" y2="0" gradientUnits="userSpaceOnUse" gradientTransform="matrix(33.1294,33.1294,-45.7579,45.7579,58.9684,58.9558)"><stop offset="0" style="stop-color:white;stop-opacity:1"/><stop offset="1" style="stop-color:white;stop-opacity:0"/></linearGradient>
    </defs>
</svg>
