<?xml version="1.0" encoding="UTF-8" standalone="no"?>
<!DOCTYPE svg PUBLIC "-//W3C//DTD SVG 1.1//EN" "http://www.w3.org/Graphics/SVG/1.1/DTD/svg11.dtd">
<svg width="100%" height="100%" viewBox="0 0 101 100" version="1.1" xmlns="http://www.w3.org/2000/svg" xmlns:xlink="http://www.w3.org/1999/xlink" xml:space="preserve" xmlns:serif="http://www.serif.com/" style="fill-rule:evenodd;clip-rule:evenodd;stroke-linecap:round;stroke-linejoin:round;stroke-miterlimit:1.5;">
    <rect id="victory_5" x="0.025" y="-0" width="100" height="100" style="fill:none;"/>
    <clipPath id="_clip1">
        <rect x="0.025" y="-0" width="100" height="100"/>
    </clipPath>
    <g clip-path="url(#_clip1)">
        <g id="Layer19">
            <path d="M17.654,38.869C16.628,37.843 20.553,32.251 26.414,26.389C32.275,20.528 37.867,16.603 38.894,17.63" style="fill:none;stroke:rgb(172,172,172);stroke-width:2px;stroke-dasharray:1,3,1,3;stroke-dashoffset:2;"/>
            <path d="M19.154,64.644C15.654,61.144 23.01,48.106 35.57,35.546C48.13,22.985 61.169,15.629 64.668,19.129" style="fill:none;stroke:rgb(172,172,172);stroke-width:2px;stroke-dasharray:1,3,1,3;stroke-dashoffset:2;"/>
            <path d="M25.841,74.02C22.073,70.252 29.813,56.393 43.115,43.091C56.418,29.789 70.276,22.048 74.044,25.816" style="fill:none;stroke:rgb(172,172,172);stroke-width:2px;stroke-dasharray:1,3,1,3;stroke-dashoffset:2;"/>
            <path d="M16.862,54.812C14.95,52.899 21.905,42.838 32.384,32.359C42.863,21.88 52.924,14.925 54.836,16.838" style="fill:none;stroke:rgb(172,172,172);stroke-width:2px;stroke-dasharray:1,3,1,3;stroke-dashoffset:2;"/>
            <path d="M38.176,81.953C35.71,79.486 43.521,67.671 55.608,55.584C67.695,43.496 79.511,35.685 81.977,38.152" style="fill:none;stroke:rgb(172,172,172);stroke-width:2px;stroke-dasharray:1,3,1,3;stroke-dashoffset:2;"/>
            <path d="M55.373,83.603C53.899,82.129 59.033,74.602 66.83,66.805C74.626,59.008 82.153,53.875 83.627,55.349" style="fill:none;stroke:rgb(172,172,172);stroke-width:2px;stroke-dasharray:1,3,1,3;stroke-dashoffset:2;"/>
            <path d="M39.121,39.097C45.094,33.124 54.792,33.124 60.764,39.097C66.737,45.069 66.737,54.767 60.764,60.739C54.792,66.712 45.094,66.712 39.121,60.739C33.149,54.767 33.149,45.069 39.121,39.097Z" style="fill:white;"/>
            <path d="M34.273,34.248C25.625,42.897 25.625,56.939 34.273,65.588C42.921,74.236 56.964,74.236 65.612,65.588C74.261,56.939 74.261,42.897 65.612,34.248C56.964,25.6 42.921,25.6 34.273,34.248ZM39.121,39.097C45.094,33.124 54.792,33.124 60.764,39.097C66.737,45.069 66.737,54.767 60.764,60.739C54.792,66.712 45.094,66.712 39.121,60.739C33.149,54.767 33.149,45.069 39.121,39.097Z" style="fill:rgb(255,214,59);"/>
            <path d="M36.697,36.672C29.387,43.983 29.387,55.853 36.697,63.164C44.008,70.474 55.878,70.474 63.188,63.164C70.499,55.853 70.499,43.983 63.188,36.672C55.878,29.362 44.008,29.362 36.697,36.672ZM39.121,39.097C45.094,33.124 54.792,33.124 60.764,39.097C66.737,45.069 66.737,54.767 60.764,60.739C54.792,66.712 45.094,66.712 39.121,60.739C33.149,54.767 33.149,45.069 39.121,39.097Z" style="fill:rgb(255,232,145);"/>
            <path d="M-3.764,20.198L20.222,-3.788L47.355,35.338L35.362,47.331L-3.764,20.198Z" style="fill:url(#_Linear2);"/>
            <path d="M103.813,79.802L79.827,103.788L52.694,64.662L64.687,52.669L103.813,79.802Z" style="fill:url(#_Linear3);"/>
            <path d="M38.894,17.63C39.921,18.656 35.996,24.248 30.134,30.11C24.273,35.971 18.681,39.896 17.654,38.869" style="fill:none;stroke:black;stroke-width:2px;stroke-dasharray:1,3,1,3;stroke-dashoffset:2;"/>
            <path d="M54.836,16.838C56.749,18.75 49.794,28.811 39.315,39.29C28.836,49.769 18.775,56.724 16.862,54.812" style="fill:none;stroke:black;stroke-width:2px;stroke-dasharray:1,3,1,3;stroke-dashoffset:2;"/>
            <path d="M81.977,38.152C84.443,40.618 76.632,52.433 64.545,64.521C52.458,76.608 40.643,84.419 38.176,81.953" style="fill:none;stroke:black;stroke-width:2px;stroke-dasharray:1,3,1,3;stroke-dashoffset:2;"/>
            <path d="M83.627,55.349C85.101,56.823 79.968,64.349 72.171,72.146C64.374,79.943 56.847,85.076 55.373,83.603" style="fill:none;stroke:black;stroke-width:2px;stroke-dasharray:1,3,1,3;stroke-dashoffset:2;"/>
            <path d="M64.668,19.129C68.168,22.628 60.812,35.667 48.252,48.227C35.692,60.787 22.653,68.143 19.154,64.644" style="fill:none;stroke:black;stroke-width:2px;stroke-dasharray:1,3,1,3;stroke-dashoffset:2;"/>
            <path d="M74.044,25.816C77.812,29.584 70.072,43.443 56.77,56.745C43.468,70.047 29.609,77.788 25.841,74.02" style="fill:none;stroke:black;stroke-width:2px;stroke-dasharray:1,3,1,3;stroke-dashoffset:2;"/>
        </g>
        <g transform="matrix(0.31024,0,0,0.817245,-399.802,-582.899)">
            <g transform="matrix(3.22331,0,0,1.22362,-3324.92,-162.235)">
                <path d="M1501.67,741.162C1501.33,741.371 1501.01,741.627 1500.71,741.927C1499.72,742.921 1499.22,744.121 1499.22,745.524C1499.22,748.227 1500.17,750.638 1502.1,752.74C1502.13,752.771 1502.16,752.8 1502.19,752.83C1504.35,754.993 1507.11,756.12 1510.5,756.12C1513.86,756.12 1516.61,754.996 1518.78,752.83C1518.8,752.812 1518.81,752.794 1518.83,752.775C1520.78,750.728 1521.75,748.31 1521.75,745.524C1521.75,744.031 1521.46,742.707 1520.94,741.544C1520.42,740.368 1519.8,739.453 1519.13,738.769C1518.69,738.323 1518.15,737.889 1517.49,737.481C1518.07,737.24 1518.6,736.882 1519.09,736.408C1520.12,735.406 1520.63,734.195 1520.63,732.78C1520.63,732.78 1520.63,729.936 1520.63,729.936C1520.63,728.522 1520.12,727.31 1519.09,726.308C1518.08,725.33 1516.88,724.848 1515.51,724.848C1515.51,724.848 1504.81,724.848 1504.81,724.848C1503.41,724.848 1502.21,725.345 1501.21,726.339C1500.22,727.333 1499.73,728.533 1499.73,729.936L1499.73,735.372C1499.73,737.687 1500.38,739.613 1501.67,741.162ZM1510.5,753.12C1513,753.12 1515.05,752.316 1516.66,750.708C1518.05,749.244 1518.75,747.516 1518.75,745.524C1518.75,744.492 1518.57,743.574 1518.2,742.77C1517.85,741.966 1517.44,741.33 1516.98,740.862C1516.53,740.394 1515.88,739.962 1515.06,739.566C1514.23,739.17 1513.57,738.894 1513.09,738.738C1512.61,738.582 1511.94,738.396 1511.08,738.18C1509.35,737.724 1508.22,737.322 1507.69,736.974C1507.16,736.626 1506.9,736.092 1506.9,735.372L1506.9,732.024L1513.42,732.024L1513.42,732.78C1513.42,733.356 1513.62,733.848 1514.03,734.256C1514.44,734.664 1514.93,734.868 1515.51,734.868C1516.08,734.868 1516.58,734.664 1517,734.256C1517.42,733.848 1517.63,733.356 1517.63,732.78L1517.63,729.936C1517.63,729.36 1517.42,728.868 1517,728.46C1516.58,728.052 1516.08,727.848 1515.51,727.848L1504.81,727.848C1504.24,727.848 1503.75,728.052 1503.34,728.46C1502.93,728.868 1502.73,729.36 1502.73,729.936L1502.73,735.372C1502.73,737.628 1503.64,739.344 1505.46,740.52C1506.3,741.072 1507.83,741.648 1510.03,742.248C1511.88,742.704 1513.1,743.136 1513.69,743.544C1514.28,743.952 1514.57,744.612 1514.57,745.524C1514.57,746.34 1514.25,747.114 1513.6,747.846C1512.95,748.578 1511.92,748.944 1510.5,748.944C1509.06,748.944 1508.02,748.584 1507.39,747.864C1506.75,747.144 1506.43,746.364 1506.43,745.524C1506.43,744.948 1506.23,744.456 1505.82,744.048C1505.41,743.64 1504.92,743.436 1504.35,743.436C1503.75,743.436 1503.24,743.64 1502.83,744.048C1502.42,744.456 1502.22,744.948 1502.22,745.524C1502.22,747.468 1502.92,749.196 1504.31,750.708C1505.92,752.316 1507.98,753.12 1510.5,753.12ZM1509.42,745.188C1509.43,745.298 1509.43,745.411 1509.43,745.524C1509.43,745.636 1509.5,745.725 1509.58,745.818C1509.69,745.842 1510.16,745.944 1510.5,745.944C1510.87,745.944 1511.18,746.048 1511.35,745.858C1511.38,745.821 1511.42,745.787 1511.45,745.753C1510.97,745.573 1510.29,745.402 1509.42,745.188ZM1510.93,735.036L1510.92,735.024L1510.89,735.024L1510.93,735.036Z"/>
            </g>
            <g transform="matrix(3.22331,0,0,1.22362,-3324.92,-162.235)">
                <g transform="matrix(36,0,0,36,1501.5,753.12)">
                    <path d="M0.25,-0C0.319,-0 0.376,-0.022 0.421,-0.067C0.46,-0.108 0.479,-0.156 0.479,-0.211C0.479,-0.24 0.474,-0.265 0.464,-0.288C0.454,-0.31 0.443,-0.328 0.43,-0.341C0.417,-0.354 0.4,-0.366 0.377,-0.377C0.354,-0.388 0.335,-0.395 0.322,-0.4C0.309,-0.404 0.29,-0.409 0.266,-0.415C0.218,-0.428 0.187,-0.439 0.172,-0.449C0.157,-0.458 0.15,-0.473 0.15,-0.493L0.15,-0.586L0.331,-0.586L0.331,-0.565C0.331,-0.549 0.337,-0.535 0.348,-0.524C0.359,-0.513 0.373,-0.507 0.389,-0.507C0.405,-0.507 0.419,-0.513 0.431,-0.524C0.442,-0.535 0.448,-0.549 0.448,-0.565L0.448,-0.644C0.448,-0.66 0.442,-0.674 0.431,-0.685C0.419,-0.696 0.405,-0.702 0.389,-0.702L0.092,-0.702C0.076,-0.702 0.062,-0.696 0.051,-0.685C0.04,-0.674 0.034,-0.66 0.034,-0.644L0.034,-0.493C0.034,-0.43 0.059,-0.383 0.11,-0.35C0.133,-0.335 0.176,-0.319 0.237,-0.302C0.288,-0.289 0.322,-0.277 0.339,-0.266C0.355,-0.255 0.363,-0.236 0.363,-0.211C0.363,-0.188 0.354,-0.167 0.336,-0.147C0.318,-0.126 0.289,-0.116 0.25,-0.116C0.21,-0.116 0.181,-0.126 0.164,-0.146C0.146,-0.166 0.137,-0.188 0.137,-0.211C0.137,-0.227 0.131,-0.241 0.12,-0.252C0.109,-0.263 0.095,-0.269 0.079,-0.269C0.062,-0.269 0.048,-0.263 0.037,-0.252C0.026,-0.241 0.02,-0.227 0.02,-0.211C0.02,-0.157 0.039,-0.109 0.078,-0.067C0.123,-0.022 0.18,-0 0.25,-0Z" style="fill:white;fill-rule:nonzero;"/>
                </g>
            </g>
        </g>
    </g>
    <defs>
        <linearGradient id="_Linear2" x1="0" y1="0" x2="1" y2="0" gradientUnits="userSpaceOnUse" gradientTransform="matrix(-33.1294,-33.1294,45.7579,-45.7579,41.6486,41.0442)"><stop offset="0" style="stop-color:white;stop-opacity:1"/><stop offset="1" style="stop-color:white;stop-opacity:0"/></linearGradient>
        <linearGradient id="_Linear3" x1="0" y1="0" x2="1" y2="0" gradientUnits="userSpaceOnUse" gradientTransform="matrix(33.1294,33.1294,-45.7579,45.7579,58.4006,58.9558)"><stop offset="0" style="stop-color:white;stop-opacity:1"/><stop offset="1" style="stop-color:white;stop-opacity:0"/></linearGradient>
    </defs>
</svg>
