<?xml version="1.0" encoding="UTF-8" standalone="no"?>
<!DOCTYPE svg PUBLIC "-//W3C//DTD SVG 1.1//EN" "http://www.w3.org/Graphics/SVG/1.1/DTD/svg11.dtd">
<svg width="100%" height="100%" viewBox="0 0 101 100" version="1.1" xmlns="http://www.w3.org/2000/svg" xmlns:xlink="http://www.w3.org/1999/xlink" xml:space="preserve" xmlns:serif="http://www.serif.com/" style="fill-rule:evenodd;clip-rule:evenodd;stroke-linecap:round;stroke-linejoin:round;stroke-miterlimit:1.5;">
    <rect id="victory_3" x="0.049" y="-0" width="100" height="100" style="fill:none;"/>
    <clipPath id="_clip1">
        <rect x="0.049" y="-0" width="100" height="100"/>
    </clipPath>
    <g clip-path="url(#_clip1)">
        <g id="Layer19">
            <path d="M17.679,38.869C16.652,37.843 20.577,32.251 26.439,26.389C32.3,20.528 37.892,16.603 38.919,17.63" style="fill:none;stroke:rgb(172,172,172);stroke-width:2px;stroke-dasharray:1,3,1,3;stroke-dashoffset:2;"/>
            <path d="M19.178,64.644C15.679,61.144 23.035,48.106 35.595,35.546C48.155,22.985 61.194,15.629 64.693,19.129" style="fill:none;stroke:rgb(172,172,172);stroke-width:2px;stroke-dasharray:1,3,1,3;stroke-dashoffset:2;"/>
            <path d="M25.866,74.02C22.098,70.252 29.838,56.393 43.14,43.091C56.442,29.789 70.301,22.048 74.069,25.816" style="fill:none;stroke:rgb(172,172,172);stroke-width:2px;stroke-dasharray:1,3,1,3;stroke-dashoffset:2;"/>
            <path d="M16.887,54.812C14.974,52.899 21.929,42.838 32.409,32.359C42.888,21.88 52.948,14.925 54.861,16.838" style="fill:none;stroke:rgb(172,172,172);stroke-width:2px;stroke-dasharray:1,3,1,3;stroke-dashoffset:2;"/>
            <path d="M38.201,81.953C35.735,79.486 43.546,67.671 55.633,55.584C67.72,43.496 79.536,35.685 82.002,38.152" style="fill:none;stroke:rgb(172,172,172);stroke-width:2px;stroke-dasharray:1,3,1,3;stroke-dashoffset:2;"/>
            <path d="M55.398,83.603C53.924,82.129 59.057,74.602 66.854,66.805C74.651,59.008 82.178,53.875 83.652,55.349" style="fill:none;stroke:rgb(172,172,172);stroke-width:2px;stroke-dasharray:1,3,1,3;stroke-dashoffset:2;"/>
            <path d="M39.146,39.097C45.118,33.124 54.816,33.124 60.789,39.097C66.761,45.069 66.761,54.767 60.789,60.739C54.816,66.712 45.118,66.712 39.146,60.739C33.173,54.767 33.173,45.069 39.146,39.097Z" style="fill:white;"/>
            <path d="M34.298,34.248C25.649,42.897 25.649,56.939 34.298,65.588C42.946,74.236 56.989,74.236 65.637,65.588C74.285,56.939 74.285,42.897 65.637,34.248C56.989,25.6 42.946,25.6 34.298,34.248ZM39.146,39.097C45.118,33.124 54.816,33.124 60.789,39.097C66.761,45.069 66.761,54.767 60.789,60.739C54.816,66.712 45.118,66.712 39.146,60.739C33.173,54.767 33.173,45.069 39.146,39.097Z" style="fill:rgb(255,214,59);"/>
            <path d="M36.722,36.672C29.411,43.983 29.411,55.853 36.722,63.164C44.032,70.474 55.902,70.474 63.213,63.164C70.523,55.853 70.523,43.983 63.213,36.672C55.902,29.362 44.032,29.362 36.722,36.672ZM39.146,39.097C45.118,33.124 54.816,33.124 60.789,39.097C66.761,45.069 66.761,54.767 60.789,60.739C54.816,66.712 45.118,66.712 39.146,60.739C33.173,54.767 33.173,45.069 39.146,39.097Z" style="fill:rgb(255,232,145);"/>
            <path d="M-3.739,20.198L20.247,-3.788L47.38,35.338L35.387,47.331L-3.739,20.198Z" style="fill:url(#_Linear2);"/>
            <path d="M103.838,79.802L79.851,103.788L52.719,64.662L64.712,52.669L103.838,79.802Z" style="fill:url(#_Linear3);"/>
            <path d="M38.919,17.63C39.945,18.656 36.02,24.248 30.159,30.11C24.298,35.971 18.706,39.896 17.679,38.869" style="fill:none;stroke:black;stroke-width:2px;stroke-dasharray:1,3,1,3;stroke-dashoffset:2;"/>
            <path d="M54.861,16.838C56.773,18.75 49.818,28.811 39.339,39.29C28.86,49.769 18.8,56.724 16.887,54.812" style="fill:none;stroke:black;stroke-width:2px;stroke-dasharray:1,3,1,3;stroke-dashoffset:2;"/>
            <path d="M82.002,38.152C84.468,40.618 76.657,52.433 64.57,64.521C52.483,76.608 40.667,84.419 38.201,81.953" style="fill:none;stroke:black;stroke-width:2px;stroke-dasharray:1,3,1,3;stroke-dashoffset:2;"/>
            <path d="M83.652,55.349C85.126,56.823 79.992,64.349 72.195,72.146C64.399,79.943 56.872,85.076 55.398,83.603" style="fill:none;stroke:black;stroke-width:2px;stroke-dasharray:1,3,1,3;stroke-dashoffset:2;"/>
            <path d="M64.693,19.129C68.193,22.628 60.837,35.667 48.276,48.227C35.716,60.787 22.678,68.143 19.178,64.644" style="fill:none;stroke:black;stroke-width:2px;stroke-dasharray:1,3,1,3;stroke-dashoffset:2;"/>
            <path d="M74.069,25.816C77.837,29.584 70.097,43.443 56.794,56.745C43.492,70.047 29.634,77.788 25.866,74.02" style="fill:none;stroke:black;stroke-width:2px;stroke-dasharray:1,3,1,3;stroke-dashoffset:2;"/>
        </g>
        <g transform="matrix(0.31024,0,0,0.817245,-399.777,-582.899)">
            <g transform="matrix(3.22331,0,0,1.22362,-3324.92,-162.235)">
                <path d="M1505.03,739.919L1505.04,740.171L1505.06,740.366C1504.77,740.316 1504.47,740.292 1504.16,740.292C1502.76,740.292 1501.56,740.789 1500.57,741.783C1499.57,742.777 1499.08,743.977 1499.08,745.38C1499.08,748.301 1500.08,750.746 1502.05,752.731C1504.15,754.945 1506.94,756.12 1510.46,756.12C1513.95,756.12 1516.75,754.953 1518.92,752.726C1518.92,752.725 1518.92,752.723 1518.92,752.722C1520.9,750.677 1521.89,748.23 1521.89,745.38C1521.89,743.021 1521.22,741.024 1519.9,739.385C1520.64,738.069 1521.03,736.542 1521.03,734.796C1521.03,732.174 1520.12,729.913 1518.29,728.014C1516.35,725.952 1513.77,724.848 1510.46,724.848C1507.24,724.848 1504.65,725.933 1502.66,727.994C1502.65,727.996 1502.65,727.997 1502.65,727.999C1500.82,729.901 1499.9,732.167 1499.9,734.796C1499.9,736.241 1500.41,737.447 1501.39,738.43C1501.39,738.43 1501.39,738.43 1501.39,738.43C1502.39,739.424 1503.59,739.92 1504.99,739.92L1505.03,739.919ZM1510.46,753.12C1513.06,753.12 1515.16,752.292 1516.77,750.636C1518.18,749.172 1518.89,747.42 1518.89,745.38C1518.89,743.004 1517.92,741.156 1515.97,739.836C1515.9,739.764 1515.82,739.704 1515.72,739.656C1517.26,738.48 1518.03,736.86 1518.03,734.796C1518.03,732.972 1517.39,731.4 1516.12,730.08C1514.73,728.592 1512.84,727.848 1510.46,727.848C1508.14,727.848 1506.25,728.592 1504.81,730.08C1503.54,731.4 1502.9,732.972 1502.9,734.796C1502.9,735.396 1503.11,735.9 1503.52,736.308C1503.92,736.716 1504.42,736.92 1504.99,736.92C1505.57,736.92 1506.06,736.716 1506.47,736.308C1506.88,735.9 1507.08,735.396 1507.08,734.796C1507.08,734.124 1507.35,733.494 1507.89,732.906C1508.43,732.318 1509.29,732.024 1510.46,732.024C1511.64,732.024 1512.5,732.318 1513.04,732.906C1513.58,733.494 1513.85,734.124 1513.85,734.796C1513.85,735.492 1513.6,736.02 1513.09,736.38C1512.59,736.74 1511.5,737.16 1509.82,737.64L1509.75,737.676C1509.31,737.748 1508.93,737.946 1508.61,738.27C1508.29,738.594 1508.1,738.984 1508.05,739.44C1507.98,739.944 1508.08,740.418 1508.36,740.862C1508.63,741.306 1509.03,741.6 1509.53,741.744L1509.82,741.816C1511.76,742.368 1513.06,742.872 1513.7,743.328C1514.35,743.784 1514.68,744.468 1514.68,745.38C1514.68,746.244 1514.35,747.054 1513.69,747.81C1513.03,748.566 1511.95,748.944 1510.46,748.944C1508.98,748.944 1507.9,748.566 1507.24,747.81C1506.58,747.054 1506.25,746.244 1506.25,745.38C1506.25,744.804 1506.05,744.312 1505.64,743.904C1505.23,743.496 1504.74,743.292 1504.16,743.292C1503.59,743.292 1503.1,743.496 1502.69,743.904C1502.28,744.312 1502.08,744.804 1502.08,745.38C1502.08,747.468 1502.79,749.22 1504.2,750.636C1505.76,752.292 1507.85,753.12 1510.46,753.12ZM1509.22,744.766C1509.24,744.966 1509.25,745.171 1509.25,745.38C1509.25,745.552 1509.37,745.687 1509.5,745.837C1509.69,746.052 1510.04,745.944 1510.46,745.944C1510.89,745.944 1511.24,746.052 1511.43,745.837C1511.5,745.749 1511.58,745.666 1511.62,745.578C1511.1,745.323 1510.29,745.072 1509.22,744.766ZM1509.21,744.721L1509.21,744.732L1509.82,744.816L1509.21,744.721ZM1509.21,744.7L1509.21,744.706L1509.53,744.744L1509.21,744.7Z"/>
            </g>
            <g transform="matrix(3.22331,0,0,1.22362,-3324.92,-162.235)">
                <g transform="matrix(36,0,0,36,1501.36,753.12)">
                    <path d="M0.253,-0C0.325,-0 0.383,-0.023 0.428,-0.069C0.467,-0.11 0.487,-0.158 0.487,-0.215C0.487,-0.281 0.46,-0.332 0.406,-0.369C0.404,-0.371 0.402,-0.373 0.399,-0.374C0.442,-0.407 0.463,-0.452 0.463,-0.509C0.463,-0.56 0.445,-0.603 0.41,-0.64C0.371,-0.681 0.319,-0.702 0.253,-0.702C0.188,-0.702 0.136,-0.681 0.096,-0.64C0.061,-0.603 0.043,-0.56 0.043,-0.509C0.043,-0.492 0.049,-0.478 0.06,-0.467C0.071,-0.456 0.085,-0.45 0.101,-0.45C0.117,-0.45 0.131,-0.456 0.142,-0.467C0.153,-0.478 0.159,-0.492 0.159,-0.509C0.159,-0.528 0.167,-0.545 0.182,-0.562C0.197,-0.578 0.22,-0.586 0.253,-0.586C0.286,-0.586 0.31,-0.578 0.325,-0.562C0.34,-0.545 0.347,-0.528 0.347,-0.509C0.347,-0.49 0.34,-0.475 0.326,-0.465C0.312,-0.455 0.282,-0.443 0.235,-0.43L0.233,-0.429C0.221,-0.427 0.211,-0.422 0.202,-0.412C0.193,-0.404 0.187,-0.393 0.186,-0.38C0.184,-0.366 0.187,-0.353 0.195,-0.341C0.202,-0.328 0.213,-0.32 0.227,-0.316L0.235,-0.314C0.289,-0.299 0.325,-0.285 0.343,-0.272C0.361,-0.259 0.37,-0.24 0.37,-0.215C0.37,-0.191 0.361,-0.169 0.343,-0.148C0.324,-0.127 0.294,-0.116 0.253,-0.116C0.212,-0.116 0.182,-0.127 0.164,-0.148C0.145,-0.169 0.136,-0.191 0.136,-0.215C0.136,-0.231 0.13,-0.245 0.119,-0.256C0.108,-0.267 0.094,-0.273 0.078,-0.273C0.062,-0.273 0.048,-0.267 0.037,-0.256C0.026,-0.245 0.02,-0.231 0.02,-0.215C0.02,-0.157 0.04,-0.108 0.079,-0.069C0.122,-0.023 0.18,-0 0.253,-0Z" style="fill:white;fill-rule:nonzero;"/>
                </g>
            </g>
        </g>
    </g>
    <defs>
        <linearGradient id="_Linear2" x1="0" y1="0" x2="1" y2="0" gradientUnits="userSpaceOnUse" gradientTransform="matrix(-33.1294,-33.1294,45.7579,-45.7579,41.6733,41.0442)"><stop offset="0" style="stop-color:white;stop-opacity:1"/><stop offset="1" style="stop-color:white;stop-opacity:0"/></linearGradient>
        <linearGradient id="_Linear3" x1="0" y1="0" x2="1" y2="0" gradientUnits="userSpaceOnUse" gradientTransform="matrix(33.1294,33.1294,-45.7579,45.7579,58.4253,58.9558)"><stop offset="0" style="stop-color:white;stop-opacity:1"/><stop offset="1" style="stop-color:white;stop-opacity:0"/></linearGradient>
    </defs>
</svg>
