<?xml version="1.0" encoding="UTF-8" standalone="no"?>
<!DOCTYPE svg PUBLIC "-//W3C//DTD SVG 1.1//EN" "http://www.w3.org/Graphics/SVG/1.1/DTD/svg11.dtd">
<svg width="100%" height="100%" viewBox="0 0 100 100" version="1.1" xmlns="http://www.w3.org/2000/svg" xmlns:xlink="http://www.w3.org/1999/xlink" xml:space="preserve" xmlns:serif="http://www.serif.com/" style="fill-rule:evenodd;clip-rule:evenodd;stroke-linecap:round;stroke-linejoin:round;stroke-miterlimit:1.5;">
    <g transform="matrix(1,0,0,1,-2969.14,1.77636e-15)">
        <g id="victory_6" transform="matrix(0.99595,0,0,0.99595,783.704,10.1101)">
            <rect x="2194.33" y="-10.151" width="100.407" height="100.407" style="fill:none;"/>
            <clipPath id="_clip1">
                <rect x="2194.33" y="-10.151" width="100.407" height="100.407"/>
            </clipPath>
            <g clip-path="url(#_clip1)">
                <g id="Layer19" transform="matrix(1.00407,0,0,1.00407,-138.991,-10.2676)">
                    <g transform="matrix(0.545329,-0.545329,0.340714,0.340714,1044.67,1317.36)">
                        <path d="M2361.14,27.086C2361.14,24.073 2369.87,21.626 2380.62,21.626C2391.37,21.626 2400.09,24.073 2400.09,27.086" style="fill:none;stroke:rgb(172,172,172);stroke-width:3.11px;stroke-dasharray:1.56,4.67,1.56,4.67;stroke-dashoffset:3.11;"/>
                    </g>
                    <g transform="matrix(1.16859,-1.16859,1.16138,1.16138,-447.667,2792.51)">
                        <path d="M2361.14,27.086C2361.14,24.073 2369.87,21.626 2380.62,21.626C2391.37,21.626 2400.09,24.073 2400.09,27.086" style="fill:none;stroke:rgb(172,172,172);stroke-width:1.21px;stroke-dasharray:0.61,1.82,0.61,1.82;stroke-dashoffset:1.21;"/>
                    </g>
                    <g transform="matrix(1.23762,-1.23762,1.25047,1.25047,-606.376,2962.46)">
                        <path d="M2361.14,27.086C2361.14,24.073 2369.87,21.626 2380.62,21.626C2391.37,21.626 2400.09,24.073 2400.09,27.086" style="fill:none;stroke:rgb(172,172,172);stroke-width:1.14px;stroke-dasharray:0.57,1.71,0.57,1.71;stroke-dashoffset:1.14;"/>
                    </g>
                    <g transform="matrix(0.974969,-0.974969,0.634726,0.634726,21.4725,2339.78)">
                        <path d="M2361.14,27.086C2361.14,24.073 2369.87,21.626 2380.62,21.626C2391.37,21.626 2400.09,24.073 2400.09,27.086" style="fill:none;stroke:rgb(172,172,172);stroke-width:1.72px;stroke-dasharray:0.86,2.58,0.86,2.58;stroke-dashoffset:1.72;"/>
                    </g>
                    <g transform="matrix(1.12458,-1.12458,0.818462,0.818462,-315.45,2715.2)">
                        <path d="M2361.14,27.086C2361.14,24.073 2369.87,21.626 2380.62,21.626C2391.37,21.626 2400.09,24.073 2400.09,27.086" style="fill:none;stroke:rgb(172,172,172);stroke-width:1.44px;stroke-dasharray:0.72,2.16,0.72,2.16;stroke-dashoffset:1.44;"/>
                    </g>
                    <g transform="matrix(0.725414,-0.725414,0.489147,0.489147,653.161,1783.28)">
                        <path d="M2361.14,27.086C2361.14,24.073 2369.87,21.626 2380.62,21.626C2391.37,21.626 2400.09,24.073 2400.09,27.086" style="fill:none;stroke:rgb(172,172,172);stroke-width:2.29px;stroke-dasharray:1.14,3.43,1.14,3.43;stroke-dashoffset:2.29;"/>
                    </g>
                    <g transform="matrix(0.503707,-0.503707,0.503707,0.503707,1152.87,1220.58)">
                        <circle cx="2373.87" cy="50" r="21.484" style="fill:white;"/>
                        <path d="M2373.87,18.891C2356.7,18.891 2342.76,32.831 2342.76,50C2342.76,67.169 2356.7,81.109 2373.87,81.109C2391.04,81.109 2404.98,67.169 2404.98,50C2404.98,32.831 2391.04,18.891 2373.87,18.891ZM2373.87,28.516C2385.72,28.516 2395.35,38.143 2395.35,50C2395.35,61.857 2385.72,71.484 2373.87,71.484C2362.01,71.484 2352.38,61.857 2352.38,50C2352.38,38.143 2362.01,28.516 2373.87,28.516Z" style="fill:rgb(255,214,59);"/>
                        <path d="M2373.87,23.704C2359.35,23.704 2347.57,35.487 2347.57,50C2347.57,64.513 2359.35,76.296 2373.87,76.296C2388.38,76.296 2400.16,64.513 2400.16,50C2400.16,35.487 2388.38,23.704 2373.87,23.704ZM2373.87,28.516C2385.72,28.516 2395.35,38.143 2395.35,50C2395.35,61.857 2385.72,71.484 2373.87,71.484C2362.01,71.484 2352.38,61.857 2352.38,50C2352.38,38.143 2362.01,28.516 2373.87,28.516Z" style="fill:rgb(255,232,145);"/>
                    </g>
                    <g transform="matrix(-0.707107,0.707107,-0.707107,-0.707107,4047.82,-1633.67)">
                        <path d="M2391.24,52.155L2357.32,52.155L2365.8,5.303L2382.76,5.303L2391.24,52.155Z" style="fill:url(#_Linear2);"/>
                    </g>
                    <g transform="matrix(0.707107,-0.707107,0.707107,0.707107,699.916,1733.9)">
                        <path d="M2391.24,52.155L2357.32,52.155L2365.8,5.303L2382.76,5.303L2391.24,52.155Z" style="fill:url(#_Linear3);"/>
                    </g>
                    <g transform="matrix(0.545329,-0.545329,0.340714,0.340714,1044.67,1317.36)">
                        <path d="M2400.09,27.086C2400.09,30.099 2391.37,32.546 2380.62,32.546C2369.87,32.546 2361.14,30.099 2361.14,27.086" style="fill:none;stroke:black;stroke-width:3.11px;stroke-dasharray:1.56,4.67,1.56,4.67;stroke-dashoffset:3.11;"/>
                    </g>
                    <g transform="matrix(0.974969,-0.974969,0.634726,0.634726,21.4725,2339.78)">
                        <path d="M2400.09,27.086C2400.09,30.099 2391.37,32.546 2380.62,32.546C2369.87,32.546 2361.14,30.099 2361.14,27.086" style="fill:none;stroke:black;stroke-width:1.72px;stroke-dasharray:0.86,2.58,0.86,2.58;stroke-dashoffset:1.72;"/>
                    </g>
                    <g transform="matrix(1.12458,-1.12458,0.818462,0.818462,-315.45,2715.2)">
                        <path d="M2400.09,27.086C2400.09,30.099 2391.37,32.546 2380.62,32.546C2369.87,32.546 2361.14,30.099 2361.14,27.086" style="fill:none;stroke:black;stroke-width:1.44px;stroke-dasharray:0.72,2.16,0.72,2.16;stroke-dashoffset:1.44;"/>
                    </g>
                    <g transform="matrix(0.725414,-0.725414,0.489147,0.489147,653.161,1783.28)">
                        <path d="M2400.09,27.086C2400.09,30.099 2391.37,32.546 2380.62,32.546C2369.87,32.546 2361.14,30.099 2361.14,27.086" style="fill:none;stroke:black;stroke-width:2.29px;stroke-dasharray:1.14,3.43,1.14,3.43;stroke-dashoffset:2.29;"/>
                    </g>
                    <g transform="matrix(1.16859,-1.16859,1.16138,1.16138,-447.667,2792.51)">
                        <path d="M2400.09,27.086C2400.09,30.099 2391.37,32.546 2380.62,32.546C2369.87,32.546 2361.14,30.099 2361.14,27.086" style="fill:none;stroke:black;stroke-width:1.21px;stroke-dasharray:0.61,1.82,0.61,1.82;stroke-dashoffset:1.21;"/>
                    </g>
                    <g transform="matrix(1.23762,-1.23762,1.25047,1.25047,-606.376,2962.46)">
                        <path d="M2400.09,27.086C2400.09,30.099 2391.37,32.546 2380.62,32.546C2369.87,32.546 2361.14,30.099 2361.14,27.086" style="fill:none;stroke:black;stroke-width:1.14px;stroke-dasharray:0.57,1.71,0.57,1.71;stroke-dashoffset:1.14;"/>
                    </g>
                </g>
                <g transform="matrix(0.311502,0,0,0.820568,1792.87,-595.42)">
                    <g transform="matrix(3.22331,0,0,1.22362,-3324.92,-162.235)">
                        <path d="M1514.63,735.437C1515.21,735.166 1515.81,735.024 1516.46,735.024C1517.86,735.024 1519.06,734.528 1520.06,733.534C1521.05,732.539 1521.55,731.34 1521.55,729.936C1521.55,728.533 1521.05,727.333 1520.06,726.339C1519.06,725.345 1517.86,724.848 1516.46,724.848C1514.04,724.848 1511.73,725.44 1509.53,726.636C1507.44,727.776 1505.58,729.388 1503.96,731.494C1503.96,731.497 1503.96,731.499 1503.96,731.502C1500.95,735.452 1499.42,740.085 1499.42,745.416C1499.42,748.531 1500.55,751.122 1502.79,753.198C1502.8,753.205 1502.81,753.211 1502.81,753.218C1504.93,755.141 1507.48,756.12 1510.48,756.12C1513.48,756.12 1516.03,755.141 1518.15,753.218C1518.16,753.211 1518.16,753.205 1518.17,753.198C1520.42,751.122 1521.55,748.531 1521.55,745.416C1521.55,742.26 1520.4,739.666 1518.15,737.618C1518.15,737.617 1518.15,737.616 1518.15,737.615C1517.09,736.649 1515.91,735.922 1514.63,735.437ZM1516.13,739.836C1517.74,741.3 1518.55,743.16 1518.55,745.416C1518.55,747.648 1517.74,749.508 1516.13,750.996C1514.58,752.412 1512.69,753.12 1510.48,753.12C1508.28,753.12 1506.39,752.412 1504.83,750.996C1503.22,749.508 1502.42,747.648 1502.42,745.416C1502.42,740.784 1503.73,736.752 1506.34,733.32C1507.69,731.568 1509.23,730.218 1510.97,729.27C1512.71,728.322 1514.54,727.848 1516.46,727.848C1517.04,727.848 1517.53,728.052 1517.93,728.46C1518.34,728.868 1518.55,729.36 1518.55,729.936C1518.55,730.512 1518.34,731.004 1517.93,731.412C1517.53,731.82 1517.04,732.024 1516.46,732.024C1513.89,732.024 1511.62,733.308 1509.65,735.876C1509.17,736.548 1508.74,737.244 1508.36,737.964C1509.01,737.796 1509.71,737.712 1510.48,737.712C1512.69,737.712 1514.58,738.42 1516.13,739.836ZM1507.75,748.008C1508.52,748.632 1509.43,748.944 1510.48,748.944C1511.54,748.944 1512.45,748.632 1513.22,748.008C1513.99,747.384 1514.37,746.52 1514.37,745.416C1514.37,744.312 1513.99,743.448 1513.22,742.824C1512.45,742.2 1511.54,741.888 1510.48,741.888C1509.43,741.888 1508.52,742.2 1507.75,742.824C1506.98,743.448 1506.6,744.312 1506.6,745.416C1506.6,746.52 1506.98,747.384 1507.75,748.008ZM1509.64,745.68C1509.57,745.621 1509.6,745.52 1509.6,745.416C1509.6,745.312 1509.57,745.211 1509.64,745.153C1509.87,744.962 1510.16,744.888 1510.48,744.888C1510.81,744.888 1511.09,744.962 1511.33,745.153C1511.4,745.211 1511.37,745.312 1511.37,745.416C1511.37,745.52 1511.4,745.621 1511.33,745.68C1511.09,745.871 1510.81,745.944 1510.48,745.944C1510.16,745.944 1509.87,745.871 1509.64,745.68L1509.64,745.68Z"/>
                    </g>
                    <g transform="matrix(3.22331,0,0,1.22362,-3324.92,-162.235)">
                        <g transform="matrix(36,0,0,36,1501.7,753.12)">
                            <path d="M0.401,-0.369C0.446,-0.328 0.468,-0.277 0.468,-0.214C0.468,-0.152 0.446,-0.1 0.401,-0.059C0.358,-0.02 0.305,-0 0.244,-0C0.183,-0 0.13,-0.02 0.087,-0.059C0.042,-0.1 0.02,-0.152 0.02,-0.214C0.02,-0.343 0.056,-0.455 0.129,-0.55C0.166,-0.599 0.209,-0.636 0.258,-0.663C0.306,-0.689 0.357,-0.702 0.41,-0.702C0.426,-0.702 0.44,-0.696 0.451,-0.685C0.462,-0.674 0.468,-0.66 0.468,-0.644C0.468,-0.628 0.462,-0.614 0.451,-0.603C0.44,-0.592 0.426,-0.586 0.41,-0.586C0.339,-0.586 0.276,-0.55 0.221,-0.479C0.208,-0.46 0.196,-0.441 0.185,-0.421C0.203,-0.426 0.223,-0.428 0.244,-0.428C0.305,-0.428 0.358,-0.408 0.401,-0.369ZM0.168,-0.142C0.189,-0.125 0.215,-0.116 0.244,-0.116C0.273,-0.116 0.299,-0.125 0.32,-0.142C0.341,-0.159 0.352,-0.183 0.352,-0.214C0.352,-0.245 0.341,-0.269 0.32,-0.286C0.299,-0.303 0.273,-0.312 0.244,-0.312C0.215,-0.312 0.189,-0.303 0.168,-0.286C0.147,-0.269 0.136,-0.245 0.136,-0.214C0.136,-0.183 0.147,-0.159 0.168,-0.142Z" style="fill:white;fill-rule:nonzero;"/>
                        </g>
                    </g>
                </g>
            </g>
        </g>
        <g id="Layer3">
        </g>
    </g>
    <defs>
        <linearGradient id="_Linear2" x1="0" y1="0" x2="1" y2="0" gradientUnits="userSpaceOnUse" gradientTransform="matrix(2.86886e-15,46.852,-64.7115,3.96243e-15,2373.87,5.30258)"><stop offset="0" style="stop-color:white;stop-opacity:1"/><stop offset="1" style="stop-color:white;stop-opacity:0"/></linearGradient>
        <linearGradient id="_Linear3" x1="0" y1="0" x2="1" y2="0" gradientUnits="userSpaceOnUse" gradientTransform="matrix(2.86886e-15,46.852,-64.7115,3.96243e-15,2373.87,5.30258)"><stop offset="0" style="stop-color:white;stop-opacity:1"/><stop offset="1" style="stop-color:white;stop-opacity:0"/></linearGradient>
    </defs>
</svg>
