<?xml version="1.0" encoding="UTF-8" standalone="no"?>
<!DOCTYPE svg PUBLIC "-//W3C//DTD SVG 1.1//EN" "http://www.w3.org/Graphics/SVG/1.1/DTD/svg11.dtd">
<svg width="100%" height="100%" viewBox="0 0 101 100" version="1.1" xmlns="http://www.w3.org/2000/svg" xmlns:xlink="http://www.w3.org/1999/xlink" xml:space="preserve" xmlns:serif="http://www.serif.com/" style="fill-rule:evenodd;clip-rule:evenodd;stroke-linecap:round;stroke-linejoin:round;stroke-miterlimit:1.5;">
    <rect id="victory_1" x="0.868" y="-0" width="100" height="100" style="fill:none;"/>
    <clipPath id="_clip1">
        <rect x="0.868" y="-0" width="100" height="100"/>
    </clipPath>
    <g clip-path="url(#_clip1)">
        <g id="Layer19">
            <path d="M18.497,38.869C17.471,37.843 21.396,32.251 27.257,26.389C33.118,20.528 38.711,16.603 39.737,17.63" style="fill:none;stroke:rgb(172,172,172);stroke-width:2px;stroke-dasharray:1,3,1,3;stroke-dashoffset:2;"/>
            <path d="M19.997,64.644C16.497,61.144 23.853,48.106 36.413,35.546C48.973,22.985 62.012,15.629 65.512,19.129" style="fill:none;stroke:rgb(172,172,172);stroke-width:2px;stroke-dasharray:1,3,1,3;stroke-dashoffset:2;"/>
            <path d="M26.684,74.02C22.916,70.252 30.656,56.393 43.959,43.091C57.261,29.789 71.119,22.048 74.887,25.816" style="fill:none;stroke:rgb(172,172,172);stroke-width:2px;stroke-dasharray:1,3,1,3;stroke-dashoffset:2;"/>
            <path d="M17.705,54.812C15.793,52.899 22.748,42.838 33.227,32.359C43.706,21.88 53.767,14.925 55.679,16.838" style="fill:none;stroke:rgb(172,172,172);stroke-width:2px;stroke-dasharray:1,3,1,3;stroke-dashoffset:2;"/>
            <path d="M39.019,81.953C36.553,79.486 44.364,67.671 56.451,55.584C68.538,43.496 80.354,35.685 82.82,38.152" style="fill:none;stroke:rgb(172,172,172);stroke-width:2px;stroke-dasharray:1,3,1,3;stroke-dashoffset:2;"/>
            <path d="M56.216,83.603C54.742,82.129 59.876,74.602 67.673,66.805C75.47,59.008 82.996,53.875 84.47,55.349" style="fill:none;stroke:rgb(172,172,172);stroke-width:2px;stroke-dasharray:1,3,1,3;stroke-dashoffset:2;"/>
            <path d="M39.964,39.097C45.937,33.124 55.635,33.124 61.607,39.097C67.58,45.069 67.58,54.767 61.607,60.739C55.635,66.712 45.937,66.712 39.964,60.739C33.992,54.767 33.992,45.069 39.964,39.097Z" style="fill:white;"/>
            <path d="M35.116,34.248C26.468,42.897 26.468,56.939 35.116,65.588C43.764,74.236 57.807,74.236 66.455,65.588C75.104,56.939 75.104,42.897 66.455,34.248C57.807,25.6 43.764,25.6 35.116,34.248ZM39.964,39.097C45.937,33.124 55.635,33.124 61.607,39.097C67.58,45.069 67.58,54.767 61.607,60.739C55.635,66.712 45.937,66.712 39.964,60.739C33.992,54.767 33.992,45.069 39.964,39.097Z" style="fill:rgb(255,214,59);"/>
            <path d="M37.54,36.672C30.23,43.983 30.23,55.853 37.54,63.164C44.851,70.474 56.721,70.474 64.031,63.164C71.342,55.853 71.342,43.983 64.031,36.672C56.721,29.362 44.851,29.362 37.54,36.672ZM39.964,39.097C45.937,33.124 55.635,33.124 61.607,39.097C67.58,45.069 67.58,54.767 61.607,60.739C55.635,66.712 45.937,66.712 39.964,60.739C33.992,54.767 33.992,45.069 39.964,39.097Z" style="fill:rgb(255,232,145);"/>
            <path d="M-2.921,20.198L21.066,-3.788L48.198,35.338L36.205,47.331L-2.921,20.198Z" style="fill:url(#_Linear2);"/>
            <path d="M104.656,79.802L80.67,103.788L53.537,64.662L65.53,52.669L104.656,79.802Z" style="fill:url(#_Linear3);"/>
            <path d="M39.737,17.63C40.764,18.656 36.839,24.248 30.977,30.11C25.116,35.971 19.524,39.896 18.497,38.869" style="fill:none;stroke:black;stroke-width:2px;stroke-dasharray:1,3,1,3;stroke-dashoffset:2;"/>
            <path d="M55.679,16.838C57.592,18.75 50.637,28.811 40.158,39.29C29.679,49.769 19.618,56.724 17.705,54.812" style="fill:none;stroke:black;stroke-width:2px;stroke-dasharray:1,3,1,3;stroke-dashoffset:2;"/>
            <path d="M82.82,38.152C85.287,40.618 77.476,52.433 65.388,64.521C53.301,76.608 41.486,84.419 39.019,81.953" style="fill:none;stroke:black;stroke-width:2px;stroke-dasharray:1,3,1,3;stroke-dashoffset:2;"/>
            <path d="M84.47,55.349C85.944,56.823 80.811,64.349 73.014,72.146C65.217,79.943 57.69,85.076 56.216,83.603" style="fill:none;stroke:black;stroke-width:2px;stroke-dasharray:1,3,1,3;stroke-dashoffset:2;"/>
            <path d="M65.512,19.129C69.011,22.628 61.655,35.667 49.095,48.227C36.535,60.787 23.496,68.143 19.997,64.644" style="fill:none;stroke:black;stroke-width:2px;stroke-dasharray:1,3,1,3;stroke-dashoffset:2;"/>
            <path d="M74.887,25.816C78.655,29.584 70.915,43.443 57.613,56.745C44.311,70.047 30.452,77.788 26.684,74.02" style="fill:none;stroke:black;stroke-width:2px;stroke-dasharray:1,3,1,3;stroke-dashoffset:2;"/>
        </g>
        <g transform="matrix(0.31024,0,0,0.817245,-398.959,-582.899)">
            <g transform="matrix(3.22331,0,0,1.22362,-3324.92,-162.235)">
                <path d="M1512.46,724.856C1512.05,724.872 1511.65,724.937 1511.28,725.053L1511.15,725.093C1510.41,725.331 1509.75,725.747 1509.15,726.339L1504.87,729.959C1503.76,730.851 1503.15,732.01 1503.03,733.431L1503.03,733.431C1502.91,734.826 1503.3,736.062 1504.2,737.137C1504.2,737.137 1504.2,737.137 1504.2,737.137C1505.11,738.217 1506.26,738.817 1507.66,738.936L1507.66,751.032C1507.66,752.436 1508.16,753.635 1509.15,754.63C1509.15,754.63 1509.15,754.63 1509.15,754.63C1510.15,755.624 1511.35,756.12 1512.75,756.12C1514.15,756.12 1515.35,755.624 1516.35,754.63C1517.34,753.635 1517.84,752.436 1517.84,751.032L1517.84,730.195C1517.89,729.328 1517.73,728.53 1517.38,727.799L1517.32,727.662C1517.08,727.186 1516.75,726.746 1516.35,726.339C1515.35,725.345 1514.15,724.848 1512.75,724.848C1512.65,724.848 1512.56,724.851 1512.46,724.856ZM1514.84,730.116C1514.79,730.692 1514.55,731.172 1514.12,731.556L1510.66,734.427L1510.66,751.032C1510.66,751.608 1510.87,752.1 1511.28,752.508C1511.68,752.916 1512.17,753.12 1512.75,753.12C1513.33,753.12 1513.82,752.916 1514.23,752.508C1514.63,752.1 1514.84,751.608 1514.84,751.032L1514.84,730.116C1514.87,729.695 1514.8,729.312 1514.61,728.967L1514.6,728.955L1514.59,728.942L1514.59,728.938C1514.5,728.767 1514.37,728.608 1514.23,728.46C1513.82,728.052 1513.33,727.848 1512.75,727.848C1512.17,727.848 1511.68,728.052 1511.28,728.46L1511.21,728.532L1506.78,732.276C1506.32,732.636 1506.07,733.104 1506.02,733.68C1505.97,734.256 1506.13,734.766 1506.51,735.21C1506.88,735.654 1507.35,735.9 1507.93,735.948C1508.5,735.996 1509.01,735.828 1509.44,735.444L1510.66,734.427L1510.66,729.936C1510.66,729.393 1510.84,728.925 1511.21,728.532L1511.42,728.352C1511.85,727.968 1512.36,727.806 1512.93,727.866C1513.51,727.926 1513.98,728.172 1514.35,728.604C1514.44,728.711 1514.52,728.822 1514.59,728.938L1514.59,728.945L1514.61,728.967C1514.76,729.258 1514.84,729.581 1514.84,729.936L1514.84,730.116Z"/>
            </g>
            <g transform="matrix(3.22331,0,0,1.22362,-3324.92,-162.235)">
                <g transform="matrix(36,0,0,36,1505.41,753.12)">
                    <path d="M0.017,-0.54C0.016,-0.524 0.02,-0.51 0.031,-0.498C0.041,-0.485 0.054,-0.478 0.07,-0.477C0.086,-0.476 0.1,-0.48 0.112,-0.491L0.242,-0.599C0.254,-0.61 0.261,-0.623 0.262,-0.639C0.263,-0.655 0.259,-0.669 0.249,-0.681C0.238,-0.693 0.225,-0.7 0.209,-0.702C0.193,-0.703 0.179,-0.699 0.167,-0.688L0.038,-0.579C0.025,-0.569 0.018,-0.556 0.017,-0.54ZM0.163,-0.017C0.174,-0.006 0.188,-0 0.204,-0C0.22,-0 0.234,-0.006 0.245,-0.017C0.256,-0.028 0.262,-0.042 0.262,-0.058L0.262,-0.644C0.262,-0.66 0.256,-0.674 0.245,-0.685C0.234,-0.696 0.22,-0.702 0.204,-0.702C0.188,-0.702 0.174,-0.696 0.163,-0.685C0.152,-0.674 0.146,-0.66 0.146,-0.644L0.146,-0.058C0.146,-0.042 0.152,-0.028 0.163,-0.017Z" style="fill:white;fill-rule:nonzero;"/>
                </g>
            </g>
        </g>
    </g>
    <defs>
        <linearGradient id="_Linear2" x1="0" y1="0" x2="1" y2="0" gradientUnits="userSpaceOnUse" gradientTransform="matrix(-33.1294,-33.1294,45.7579,-45.7579,42.4917,41.0442)"><stop offset="0" style="stop-color:white;stop-opacity:1"/><stop offset="1" style="stop-color:white;stop-opacity:0"/></linearGradient>
        <linearGradient id="_Linear3" x1="0" y1="0" x2="1" y2="0" gradientUnits="userSpaceOnUse" gradientTransform="matrix(33.1294,33.1294,-45.7579,45.7579,59.2437,58.9558)"><stop offset="0" style="stop-color:white;stop-opacity:1"/><stop offset="1" style="stop-color:white;stop-opacity:0"/></linearGradient>
    </defs>
</svg>
