<?xml version="1.0" encoding="UTF-8" standalone="no"?>
<!DOCTYPE svg PUBLIC "-//W3C//DTD SVG 1.1//EN" "http://www.w3.org/Graphics/SVG/1.1/DTD/svg11.dtd">
<svg width="100%" height="100%" viewBox="0 0 101 100" version="1.1" xmlns="http://www.w3.org/2000/svg" xmlns:xlink="http://www.w3.org/1999/xlink" xml:space="preserve" xmlns:serif="http://www.serif.com/" style="fill-rule:evenodd;clip-rule:evenodd;stroke-linecap:round;stroke-linejoin:round;stroke-miterlimit:1.5;">
    <rect id="victory_4" x="0.493" y="-0" width="100" height="100" style="fill:none;"/>
    <clipPath id="_clip1">
        <rect x="0.493" y="-0" width="100" height="100"/>
    </clipPath>
    <g clip-path="url(#_clip1)">
        <g id="Layer19">
            <path d="M18.122,38.869C17.096,37.843 21.021,32.251 26.882,26.389C32.743,20.528 38.336,16.603 39.362,17.63" style="fill:none;stroke:rgb(172,172,172);stroke-width:2px;stroke-dasharray:1,3,1,3;stroke-dashoffset:2;"/>
            <path d="M19.622,64.644C16.122,61.144 23.478,48.106 36.038,35.546C48.599,22.985 61.637,15.629 65.137,19.129" style="fill:none;stroke:rgb(172,172,172);stroke-width:2px;stroke-dasharray:1,3,1,3;stroke-dashoffset:2;"/>
            <path d="M26.309,74.02C22.541,70.252 30.282,56.393 43.584,43.091C56.886,29.789 70.745,22.048 74.513,25.816" style="fill:none;stroke:rgb(172,172,172);stroke-width:2px;stroke-dasharray:1,3,1,3;stroke-dashoffset:2;"/>
            <path d="M17.331,54.812C15.418,52.899 22.373,42.838 32.852,32.359C43.331,21.88 53.392,14.925 55.304,16.838" style="fill:none;stroke:rgb(172,172,172);stroke-width:2px;stroke-dasharray:1,3,1,3;stroke-dashoffset:2;"/>
            <path d="M38.644,81.953C36.178,79.486 43.989,67.671 56.076,55.584C68.164,43.496 79.979,35.685 82.445,38.152" style="fill:none;stroke:rgb(172,172,172);stroke-width:2px;stroke-dasharray:1,3,1,3;stroke-dashoffset:2;"/>
            <path d="M55.841,83.603C54.368,82.129 59.501,74.602 67.298,66.805C75.095,59.008 82.621,53.875 84.095,55.349" style="fill:none;stroke:rgb(172,172,172);stroke-width:2px;stroke-dasharray:1,3,1,3;stroke-dashoffset:2;"/>
            <path d="M39.589,39.097C45.562,33.124 55.26,33.124 61.232,39.097C67.205,45.069 67.205,54.767 61.232,60.739C55.26,66.712 45.562,66.712 39.589,60.739C33.617,54.767 33.617,45.069 39.589,39.097Z" style="fill:white;"/>
            <path d="M34.741,34.248C26.093,42.897 26.093,56.939 34.741,65.588C43.39,74.236 57.432,74.236 66.08,65.588C74.729,56.939 74.729,42.897 66.08,34.248C57.432,25.6 43.39,25.6 34.741,34.248ZM39.589,39.097C45.562,33.124 55.26,33.124 61.232,39.097C67.205,45.069 67.205,54.767 61.232,60.739C55.26,66.712 45.562,66.712 39.589,60.739C33.617,54.767 33.617,45.069 39.589,39.097Z" style="fill:rgb(255,214,59);"/>
            <path d="M37.165,36.672C29.855,43.983 29.855,55.853 37.165,63.164C44.476,70.474 56.346,70.474 63.656,63.164C70.967,55.853 70.967,43.983 63.656,36.672C56.346,29.362 44.476,29.362 37.165,36.672ZM39.589,39.097C45.562,33.124 55.26,33.124 61.232,39.097C67.205,45.069 67.205,54.767 61.232,60.739C55.26,66.712 45.562,66.712 39.589,60.739C33.617,54.767 33.617,45.069 39.589,39.097Z" style="fill:rgb(255,232,145);"/>
            <path d="M-3.296,20.198L20.691,-3.788L47.823,35.338L35.83,47.331L-3.296,20.198Z" style="fill:url(#_Linear2);"/>
            <path d="M104.281,79.802L80.295,103.788L53.162,64.662L65.155,52.669L104.281,79.802Z" style="fill:url(#_Linear3);"/>
            <path d="M39.362,17.63C40.389,18.656 36.464,24.248 30.603,30.11C24.741,35.971 19.149,39.896 18.122,38.869" style="fill:none;stroke:black;stroke-width:2px;stroke-dasharray:1,3,1,3;stroke-dashoffset:2;"/>
            <path d="M55.304,16.838C57.217,18.75 50.262,28.811 39.783,39.29C29.304,49.769 19.243,56.724 17.331,54.812" style="fill:none;stroke:black;stroke-width:2px;stroke-dasharray:1,3,1,3;stroke-dashoffset:2;"/>
            <path d="M82.445,38.152C84.912,40.618 77.101,52.433 65.013,64.521C52.926,76.608 41.111,84.419 38.644,81.953" style="fill:none;stroke:black;stroke-width:2px;stroke-dasharray:1,3,1,3;stroke-dashoffset:2;"/>
            <path d="M84.095,55.349C85.569,56.823 80.436,64.349 72.639,72.146C64.842,79.943 57.315,85.076 55.841,83.603" style="fill:none;stroke:black;stroke-width:2px;stroke-dasharray:1,3,1,3;stroke-dashoffset:2;"/>
            <path d="M65.137,19.129C68.636,22.628 61.28,35.667 48.72,48.227C36.16,60.787 23.121,68.143 19.622,64.644" style="fill:none;stroke:black;stroke-width:2px;stroke-dasharray:1,3,1,3;stroke-dashoffset:2;"/>
            <path d="M74.513,25.816C78.281,29.584 70.54,43.443 57.238,56.745C43.936,70.047 30.077,77.788 26.309,74.02" style="fill:none;stroke:black;stroke-width:2px;stroke-dasharray:1,3,1,3;stroke-dashoffset:2;"/>
        </g>
        <g transform="matrix(0.31024,0,0,0.817245,-399.334,-582.899)">
            <g transform="matrix(3.22331,0,0,1.22362,-3324.92,-162.235)">
                <path d="M1517.44,750.542C1518.48,750.376 1519.38,749.902 1520.16,749.122C1521.15,748.139 1521.65,746.933 1521.65,745.488C1521.65,744.085 1521.16,742.885 1520.16,741.891C1519.31,741.037 1518.31,740.551 1517.15,740.431C1516.9,739.75 1516.51,739.133 1515.95,738.579C1515.11,737.737 1514.12,737.252 1512.99,737.125L1515.03,731.682C1515.49,730.415 1515.46,729.149 1514.91,727.883C1514.36,726.601 1513.42,725.687 1512.08,725.163C1512.04,725.149 1512.01,725.135 1511.97,725.123C1510.66,724.667 1509.38,724.727 1508.12,725.297C1506.82,725.89 1505.94,726.849 1505.47,728.153C1505.48,728.134 1499.61,743.711 1499.61,743.711C1499.6,743.747 1499.59,743.783 1499.57,743.82C1499,745.536 1499.25,747.073 1500.22,748.446C1500.23,748.453 1500.23,748.459 1500.24,748.465C1501.27,749.908 1502.67,750.612 1504.4,750.612C1504.4,750.612 1507.27,750.612 1507.27,750.612C1507.27,750.612 1507.27,751.032 1507.27,751.032C1507.27,752.436 1507.76,753.635 1508.76,754.63C1508.76,754.63 1508.76,754.63 1508.76,754.63C1509.75,755.624 1510.95,756.12 1512.36,756.12C1513.76,756.12 1514.96,755.624 1515.95,754.63C1516.95,753.635 1517.44,752.436 1517.44,751.032L1517.44,750.542ZM1516.57,743.4C1517.14,743.4 1517.63,743.604 1518.04,744.012C1518.45,744.42 1518.65,744.912 1518.65,745.488C1518.65,746.088 1518.45,746.592 1518.04,747C1517.63,747.408 1517.14,747.612 1516.57,747.612L1514.44,747.612L1514.44,751.032C1514.44,751.608 1514.24,752.1 1513.83,752.508C1513.42,752.916 1512.93,753.12 1512.36,753.12C1511.78,753.12 1511.29,752.916 1510.88,752.508C1510.47,752.1 1510.27,751.608 1510.27,751.032L1510.27,747.612L1504.4,747.612C1503.68,747.612 1503.1,747.312 1502.67,746.712C1502.26,746.136 1502.18,745.488 1502.42,744.768L1508.29,729.18C1508.48,728.652 1508.84,728.268 1509.37,728.028C1509.89,727.788 1510.43,727.764 1510.99,727.956C1511.54,728.172 1511.93,728.544 1512.16,729.072C1512.38,729.6 1512.4,730.128 1512.21,730.656L1507.42,743.4L1510.27,743.4L1510.27,742.176C1510.27,741.6 1510.47,741.108 1510.88,740.7C1511.29,740.292 1511.78,740.088 1512.36,740.088C1512.93,740.088 1513.42,740.292 1513.83,740.7C1514.24,741.108 1514.44,741.6 1514.44,742.176L1514.44,743.4L1516.57,743.4Z"/>
            </g>
            <g transform="matrix(3.22331,0,0,1.22362,-3324.92,-162.235)">
                <g transform="matrix(36,0,0,36,1501.59,753.12)">
                    <path d="M0.416,-0.27C0.432,-0.27 0.446,-0.264 0.457,-0.253C0.468,-0.242 0.474,-0.228 0.474,-0.212C0.474,-0.195 0.468,-0.181 0.457,-0.17C0.446,-0.159 0.432,-0.153 0.416,-0.153L0.357,-0.153L0.357,-0.058C0.357,-0.042 0.351,-0.028 0.34,-0.017C0.329,-0.006 0.315,-0 0.299,-0C0.283,-0 0.269,-0.006 0.258,-0.017C0.247,-0.028 0.241,-0.042 0.241,-0.058L0.241,-0.153L0.078,-0.153C0.058,-0.153 0.042,-0.161 0.03,-0.178C0.019,-0.194 0.016,-0.212 0.023,-0.232L0.186,-0.665C0.191,-0.68 0.201,-0.69 0.216,-0.697C0.231,-0.704 0.246,-0.704 0.261,-0.699C0.276,-0.693 0.287,-0.683 0.294,-0.668C0.3,-0.653 0.3,-0.639 0.295,-0.624L0.162,-0.27L0.241,-0.27L0.241,-0.304C0.241,-0.32 0.247,-0.334 0.258,-0.345C0.269,-0.356 0.283,-0.362 0.299,-0.362C0.315,-0.362 0.329,-0.356 0.34,-0.345C0.351,-0.334 0.357,-0.32 0.357,-0.304L0.357,-0.27L0.416,-0.27Z" style="fill:white;fill-rule:nonzero;"/>
                </g>
            </g>
        </g>
    </g>
    <defs>
        <linearGradient id="_Linear2" x1="0" y1="0" x2="1" y2="0" gradientUnits="userSpaceOnUse" gradientTransform="matrix(-33.1294,-33.1294,45.7579,-45.7579,42.1168,41.0442)"><stop offset="0" style="stop-color:white;stop-opacity:1"/><stop offset="1" style="stop-color:white;stop-opacity:0"/></linearGradient>
        <linearGradient id="_Linear3" x1="0" y1="0" x2="1" y2="0" gradientUnits="userSpaceOnUse" gradientTransform="matrix(33.1294,33.1294,-45.7579,45.7579,58.8688,58.9558)"><stop offset="0" style="stop-color:white;stop-opacity:1"/><stop offset="1" style="stop-color:white;stop-opacity:0"/></linearGradient>
    </defs>
</svg>
