<?xml version="1.0" encoding="UTF-8" standalone="no"?>
<!DOCTYPE svg PUBLIC "-//W3C//DTD SVG 1.1//EN" "http://www.w3.org/Graphics/SVG/1.1/DTD/svg11.dtd">
<svg width="100%" height="100%" viewBox="0 0 129 101" version="1.1" xmlns="http://www.w3.org/2000/svg" xmlns:xlink="http://www.w3.org/1999/xlink" xml:space="preserve" xmlns:serif="http://www.serif.com/" style="fill-rule:evenodd;clip-rule:evenodd;stroke-linejoin:round;stroke-miterlimit:2;">
    <g transform="matrix(1,0,0,1,-1548.68,-628.856)">
        <g transform="matrix(1,0,0,1,1628.71,655.084)">
            <path d="M0,-9.315C1.18,-12.757 2.701,-17.228 4.007,-17.228C5.313,-17.228 6.834,-12.757 8.014,-9.315L8.551,-7.767C9.3,-5.661 10.264,-2.631 11.115,0.092L11.813,2.338C12.078,3.195 12.318,3.97 12.519,4.613C13.456,7.619 11.581,7.913 10.932,7.913L-2.918,7.913C-3.567,7.913 -5.442,7.619 -4.505,4.613C-4.305,3.97 -4.064,3.195 -3.799,2.338L-3.101,0.092C-2.25,-2.631 -1.286,-5.661 -0.537,-7.767L0,-9.315Z" style="fill:rgb(76,122,61);fill-rule:nonzero;"/>
        </g>
        <g transform="matrix(1,0,0,1,1618.71,646.084)">
            <path d="M0,-9.315C1.18,-12.757 2.701,-17.228 4.007,-17.228C5.313,-17.228 6.834,-12.757 8.014,-9.315L8.551,-7.767C9.3,-5.661 10.264,-2.631 11.115,0.092L11.812,2.338C12.078,3.195 12.318,3.97 12.519,4.613C13.456,7.619 11.581,7.913 10.932,7.913L-2.918,7.913C-3.567,7.913 -5.442,7.619 -4.505,4.613C-4.305,3.97 -4.064,3.195 -3.799,2.338L-3.101,0.092C-2.25,-2.631 -1.286,-5.661 -0.537,-7.767L0,-9.315Z" style="fill:rgb(76,122,61);fill-rule:nonzero;"/>
        </g>
        <g transform="matrix(1,0,0,1,1556.19,643.94)">
            <path d="M0,85.685C-9.108,85.685 -8.816,75.272 -5.01,66.389C-0.455,55.762 21.079,0.813 54.426,0.407C87.772,0 113.538,58.647 117.182,65.251C120.825,71.855 126.158,85.685 108.395,85.685L0,85.685Z" style="fill:rgb(76,122,61);fill-rule:nonzero;"/>
        </g>
        <g transform="matrix(1,0,0,1,176.242,8.59926)">
            <path d="M1456.2,684.823C1456.21,684.836 1456.22,684.848 1456.23,684.86C1456.95,685.657 1457.39,686.713 1457.39,687.871C1457.39,688.699 1458.06,689.371 1458.89,689.371C1459.72,689.371 1460.39,688.699 1460.39,687.871C1460.39,686.715 1460.13,685.619 1459.66,684.642C1463.18,683.888 1467.19,685.217 1468.65,688.484C1468.99,689.239 1469.87,689.579 1470.63,689.241C1471.38,688.902 1471.72,688.014 1471.38,687.259C1469.17,682.31 1462.79,680.346 1457.66,682.089C1456.37,681.017 1454.7,680.373 1452.89,680.373C1452.06,680.373 1451.39,681.045 1451.39,681.873C1451.39,682.701 1452.06,683.373 1452.89,683.373C1454.2,683.373 1455.38,683.932 1456.2,684.823Z" style="fill:white;fill-opacity:0.5;"/>
        </g>
        <g transform="matrix(-1,0,0,1,3058.9,-9.87364)">
            <path d="M1456.2,684.823C1456.21,684.836 1456.22,684.848 1456.23,684.86C1456.95,685.657 1457.39,686.713 1457.39,687.871C1457.39,688.699 1458.06,689.371 1458.89,689.371C1459.72,689.371 1460.39,688.699 1460.39,687.871C1460.39,686.715 1460.13,685.619 1459.66,684.642C1463.18,683.888 1467.19,685.217 1468.65,688.484C1468.99,689.239 1469.87,689.579 1470.63,689.241C1471.38,688.902 1471.72,688.014 1471.38,687.259C1469.17,682.31 1462.79,680.346 1457.66,682.089C1456.37,681.017 1454.7,680.373 1452.89,680.373C1452.06,680.373 1451.39,681.045 1451.39,681.873C1451.39,682.701 1452.06,683.373 1452.89,683.373C1454.2,683.373 1455.38,683.932 1456.2,684.823Z" style="fill-opacity:0.3;"/>
        </g>
    </g>
</svg>
