<?xml version="1.0" encoding="UTF-8" standalone="no"?>
<!DOCTYPE svg PUBLIC "-//W3C//DTD SVG 1.1//EN" "http://www.w3.org/Graphics/SVG/1.1/DTD/svg11.dtd">
<svg width="100%" height="100%" viewBox="0 0 339 140" version="1.1" xmlns="http://www.w3.org/2000/svg" xmlns:xlink="http://www.w3.org/1999/xlink" xml:space="preserve" xmlns:serif="http://www.serif.com/" style="fill-rule:evenodd;clip-rule:evenodd;stroke-linejoin:round;stroke-miterlimit:2;">
    <g transform="matrix(1,0,0,1,-1622.57,-758.352)">
        <g transform="matrix(1,0,0,1,1641.75,774.496)">
            <path d="M0,123.755C-11.47,123.755 -22.325,115.125 -18.331,100.972C-14.746,88.274 -7.755,73.268 0.171,60.761C14.911,37.499 40.449,0 73.22,0.41C105.989,0.819 112.172,29.156 141.644,38.22C179.553,49.879 176.033,22.94 214.947,20.482C253.861,18.024 283.259,43.783 296.871,66.769C305.2,80.832 316.123,98.856 318.309,104.044C320.493,109.233 321.583,123.755 305.745,123.755L0,123.755Z" style="fill:rgb(142,201,129);fill-rule:nonzero;"/>
        </g>
        <g transform="matrix(1,0,0,1,1899.32,807.729)">
            <path d="M0,-12.265C1.555,-16.797 3.557,-22.683 5.276,-22.683C6.996,-22.683 8.998,-16.797 10.552,-12.265L11.26,-10.227C12.245,-7.454 13.515,-3.466 14.635,0.121L15.554,3.078C15.903,4.205 16.219,5.226 16.482,6.072C17.718,10.03 15.248,10.418 14.394,10.418L-3.841,10.418C-4.695,10.418 -7.165,10.03 -5.931,6.072C-5.667,5.226 -5.351,4.205 -5.001,3.078L-4.082,0.121C-2.962,-3.466 -1.693,-7.454 -0.707,-10.227L0,-12.265Z" style="fill:rgb(142,201,129);fill-rule:nonzero;"/>
        </g>
        <g transform="matrix(1,0,0,1,1687.83,781.035)">
            <path d="M0,-12.265C1.555,-16.797 3.557,-22.683 5.276,-22.683C6.996,-22.683 8.998,-16.797 10.552,-12.265L11.26,-10.226C12.245,-7.453 13.515,-3.465 14.635,0.122L15.554,3.078C15.903,4.206 16.219,5.226 16.482,6.072C17.718,10.03 15.248,10.418 14.394,10.418L-3.841,10.418C-4.695,10.418 -7.165,10.03 -5.931,6.072C-5.667,5.226 -5.351,4.206 -5.001,3.078L-4.082,0.122C-2.962,-3.465 -1.693,-7.453 -0.707,-10.226L0,-12.265Z" style="fill:rgb(142,201,129);fill-rule:nonzero;"/>
        </g>
        <g transform="matrix(1,0,0,1,1913.29,821.362)">
            <path d="M0,-12.265C1.555,-16.797 3.557,-22.683 5.276,-22.683C6.996,-22.683 8.998,-16.797 10.552,-12.265L11.26,-10.226C12.245,-7.453 13.515,-3.465 14.635,0.122L15.554,3.078C15.903,4.206 16.219,5.226 16.482,6.072C17.718,10.03 15.248,10.418 14.394,10.418L-3.841,10.418C-4.696,10.418 -7.165,10.03 -5.931,6.072C-5.667,5.226 -5.351,4.206 -5.002,3.078L-4.082,0.122C-2.962,-3.465 -1.693,-7.453 -0.707,-10.226L0,-12.265Z" style="fill:rgb(142,201,129);fill-rule:nonzero;"/>
        </g>
        <g transform="matrix(1,0,0,1,326.738,164.467)">
            <path d="M1456.2,684.823C1456.21,684.836 1456.22,684.848 1456.23,684.86C1456.95,685.657 1457.39,686.713 1457.39,687.871C1457.39,688.699 1458.06,689.371 1458.89,689.371C1459.72,689.371 1460.39,688.699 1460.39,687.871C1460.39,686.715 1460.13,685.619 1459.66,684.642C1463.18,683.888 1467.19,685.217 1468.65,688.484C1468.99,689.239 1469.87,689.579 1470.63,689.241C1471.38,688.902 1471.72,688.014 1471.38,687.259C1469.17,682.31 1462.79,680.346 1457.66,682.089C1456.37,681.017 1454.7,680.373 1452.89,680.373C1452.06,680.373 1451.39,681.045 1451.39,681.873C1451.39,682.701 1452.06,683.373 1452.89,683.373C1454.2,683.373 1455.38,683.932 1456.2,684.823Z" style="fill:white;fill-opacity:0.5;"/>
        </g>
        <g transform="matrix(-1,0,0,1,3281.84,152.683)">
            <path d="M1456.2,684.823C1456.21,684.836 1456.22,684.848 1456.23,684.86C1456.95,685.657 1457.39,686.713 1457.39,687.871C1457.39,688.699 1458.06,689.371 1458.89,689.371C1459.72,689.371 1460.39,688.699 1460.39,687.871C1460.39,686.715 1460.13,685.619 1459.66,684.642C1463.18,683.888 1467.19,685.217 1468.65,688.484C1468.99,689.239 1469.87,689.579 1470.63,689.241C1471.38,688.902 1471.72,688.014 1471.38,687.259C1469.17,682.31 1462.79,680.346 1457.66,682.089C1456.37,681.017 1454.7,680.373 1452.89,680.373C1452.06,680.373 1451.39,681.045 1451.39,681.873C1451.39,682.701 1452.06,683.373 1452.89,683.373C1454.2,683.373 1455.38,683.932 1456.2,684.823Z" style="fill-opacity:0.3;"/>
        </g>
    </g>
</svg>
