<?xml version="1.0" encoding="UTF-8" standalone="no"?>
<!DOCTYPE svg PUBLIC "-//W3C//DTD SVG 1.1//EN" "http://www.w3.org/Graphics/SVG/1.1/DTD/svg11.dtd">
<svg width="100%" height="100%" viewBox="0 0 220 159" version="1.1" xmlns="http://www.w3.org/2000/svg" xmlns:xlink="http://www.w3.org/1999/xlink" xml:space="preserve" xmlns:serif="http://www.serif.com/" style="fill-rule:evenodd;clip-rule:evenodd;stroke-linejoin:round;stroke-miterlimit:2;">
    <g transform="matrix(1,0,0,1,-1010.97,-732.823)">
        <g transform="matrix(1,0,0,1,718.424,584.181)">
            <g transform="matrix(1,0,0,1,307.612,176.085)">
                <path d="M0,130.998C-4.997,130.998 -21.634,130.829 -12.254,109.983C-1.899,86.976 30.402,-0.48 95.007,-0.48C166.397,-0.48 194.628,88.875 202.268,109.983C210.047,131.478 196.368,130.998 191.371,130.998L0,130.998Z" style="fill:rgb(92,109,140);fill-rule:nonzero;"/>
            </g>
        </g>
        <g transform="matrix(1,0,0,1,718.424,584.181)">
            <g transform="matrix(1,0,0,1,401.769,171.325)">
                <path d="M0,-12.264C1.554,-16.796 3.557,-22.683 5.276,-22.683C6.996,-22.683 8.998,-16.796 10.552,-12.264L11.26,-10.226C12.245,-7.453 13.515,-3.465 14.635,0.122L15.554,3.079C15.903,4.206 16.219,5.227 16.482,6.073C17.718,10.031 15.248,10.419 14.394,10.419L-3.841,10.419C-4.696,10.419 -7.165,10.031 -5.931,6.073C-5.667,5.227 -5.351,4.206 -5.002,3.079L-4.082,0.122C-2.962,-3.465 -1.693,-7.453 -0.707,-10.226L0,-12.264Z" style="fill:rgb(92,109,140);fill-rule:nonzero;"/>
            </g>
        </g>
        <g transform="matrix(1,0,0,1,718.424,584.181)">
            <g transform="matrix(1,0,0,1,418.783,176.431)">
                <path d="M0,-8.61C1.091,-11.792 2.496,-15.923 3.703,-15.923C4.91,-15.923 6.316,-11.792 7.407,-8.61L7.903,-7.179C8.596,-5.233 9.486,-2.433 10.272,0.084L10.918,2.161C11.163,2.952 11.385,3.668 11.57,4.262C12.437,7.04 10.703,7.313 10.104,7.313L-2.696,7.313C-3.297,7.313 -5.03,7.04 -4.163,4.262C-3.979,3.668 -3.757,2.952 -3.512,2.161L-2.866,0.084C-2.08,-2.433 -1.188,-5.233 -0.497,-7.179L0,-8.61Z" style="fill:rgb(92,109,140);fill-rule:nonzero;"/>
            </g>
        </g>
    </g>
</svg>
