<?xml version="1.0" encoding="UTF-8" standalone="no"?>
<!DOCTYPE svg PUBLIC "-//W3C//DTD SVG 1.1//EN" "http://www.w3.org/Graphics/SVG/1.1/DTD/svg11.dtd">
<svg width="100%" height="100%" viewBox="0 0 270 191" version="1.1" xmlns="http://www.w3.org/2000/svg" xmlns:xlink="http://www.w3.org/1999/xlink" xml:space="preserve" xmlns:serif="http://www.serif.com/" style="fill-rule:evenodd;clip-rule:evenodd;stroke-linejoin:round;stroke-miterlimit:2;">
    <g transform="matrix(1,0,0,1,-844.801,-700.324)">
        <g transform="matrix(1,0,0,1,718.424,584.181)">
            <g transform="matrix(1,0,0,1,144.841,146.602)">
                <path d="M0,160.481C-6.122,160.481 -26.504,160.274 -15.013,134.737C-2.328,106.55 37.244,-0.588 116.389,-0.588C203.848,-0.588 238.432,108.877 247.79,134.737C257.32,161.069 240.563,160.481 234.441,160.481L0,160.481Z" style="fill:rgb(92,109,140);fill-rule:nonzero;"/>
            </g>
        </g>
        <g transform="matrix(1,0,0,1,718.424,584.181)">
            <g transform="matrix(1,0,0,1,283.448,155.237)">
                <path d="M0,-21.138C2.679,-28.949 6.13,-39.094 9.094,-39.094C12.058,-39.094 15.509,-28.949 18.187,-21.138L19.405,-17.624C21.105,-12.846 23.293,-5.972 25.223,0.21L26.808,5.306C27.409,7.249 27.954,9.008 28.408,10.466C30.536,17.289 26.28,17.956 24.808,17.956L-6.62,17.956C-8.094,17.956 -12.35,17.289 -10.222,10.466C-9.767,9.008 -9.223,7.249 -8.62,5.306L-7.036,0.21C-5.105,-5.972 -2.918,-12.846 -1.219,-17.624L0,-21.138Z" style="fill:rgb(92,109,140);fill-rule:nonzero;"/>
            </g>
        </g>
        <g transform="matrix(1,0,0,1,718.424,584.181)">
            <g transform="matrix(1,0,0,1,270.553,146.335)">
                <path d="M0,-12.824C1.625,-17.564 3.719,-23.72 5.518,-23.72C7.316,-23.72 9.41,-17.564 11.035,-12.824L11.774,-10.693C12.806,-7.793 14.133,-3.622 15.305,0.128L16.266,3.221C16.631,4.4 16.961,5.467 17.237,6.352C18.528,10.49 15.946,10.896 15.052,10.896L-4.017,10.896C-4.911,10.896 -7.493,10.49 -6.202,6.352C-5.926,5.467 -5.596,4.4 -5.23,3.221L-4.27,0.128C-3.098,-3.622 -1.771,-7.793 -0.739,-10.693L0,-12.824Z" style="fill:rgb(92,109,140);fill-rule:nonzero;"/>
            </g>
        </g>
        <g transform="matrix(1,0,0,1,718.424,584.181)">
            <g transform="matrix(1,0,0,1,303.06,157.899)">
                <path d="M0,-12.265C1.554,-16.797 3.556,-22.683 5.275,-22.683C6.995,-22.683 8.998,-16.797 10.552,-12.265L11.259,-10.226C12.245,-7.453 13.515,-3.465 14.635,0.122L15.554,3.078C15.903,4.206 16.219,5.226 16.482,6.072C17.717,10.03 15.248,10.418 14.394,10.418L-3.842,10.418C-4.696,10.418 -7.165,10.03 -5.931,6.072C-5.667,5.226 -5.352,4.206 -5.002,3.078L-4.083,0.122C-2.963,-3.465 -1.693,-7.453 -0.707,-10.226L0,-12.265Z" style="fill:rgb(92,109,140);fill-rule:nonzero;"/>
            </g>
        </g>
    </g>
</svg>
