<?xml version="1.0" encoding="UTF-8" standalone="no"?>
<!DOCTYPE svg PUBLIC "-//W3C//DTD SVG 1.1//EN" "http://www.w3.org/Graphics/SVG/1.1/DTD/svg11.dtd">
<svg width="100%" height="100%" viewBox="0 0 57 18" version="1.1" xmlns="http://www.w3.org/2000/svg" xmlns:xlink="http://www.w3.org/1999/xlink" xml:space="preserve" xmlns:serif="http://www.serif.com/" style="fill-rule:evenodd;clip-rule:evenodd;stroke-linejoin:round;stroke-miterlimit:2;">
    <g transform="matrix(1,0,0,1,-1100.72,-1196.3)">
        <g transform="matrix(1,0,0,1,1135.04,1201.92)">
            <path d="M0,10.299C0,3.481 -7.683,-2.048 -17.16,-2.048C-26.637,-2.048 -34.319,3.481 -34.319,10.299C-34.319,10.299 -34.319,12.347 -31.473,12.347L-2.606,12.347C-0.719,12.347 0,11.678 0,10.299" style="fill:rgb(66,99,57);fill-rule:nonzero;"/>
        </g>
        <g transform="matrix(1,0,0,1,1157.21,1198.52)">
            <path d="M0,11.155C0,3.768 -8.321,-2.219 -18.587,-2.219C-28.853,-2.219 -37.175,3.768 -37.175,11.155C-37.175,11.155 -37.175,13.374 -34.091,13.374L-2.822,13.374C-0.778,13.374 0,12.649 0,11.155" style="fill:rgb(66,99,57);fill-rule:nonzero;"/>
        </g>
    </g>
</svg>
