<?xml version="1.0" encoding="UTF-8" standalone="no"?>
<!DOCTYPE svg PUBLIC "-//W3C//DTD SVG 1.1//EN" "http://www.w3.org/Graphics/SVG/1.1/DTD/svg11.dtd">
<svg width="100%" height="100%" viewBox="0 0 11 14" version="1.1" xmlns="http://www.w3.org/2000/svg" xmlns:xlink="http://www.w3.org/1999/xlink" xml:space="preserve" xmlns:serif="http://www.serif.com/" style="fill-rule:evenodd;clip-rule:evenodd;stroke-linejoin:round;stroke-miterlimit:2;">
    <g transform="matrix(1,0,0,1,-1295.28,-1135.07)">
        <g transform="matrix(0.908948,-0.416911,-0.416911,-0.908948,1303.84,1139.34)">
            <path d="M-0.502,-0.111C-2.18,-0.11 -3.298,1.101 -3.298,1.101C-3.298,1.101 -2.303,2.312 -0.502,2.312C1.144,2.312 2.295,1.1 2.295,1.1C2.295,1.1 1.03,-0.111 -0.502,-0.111" style="fill:rgb(66,99,57);fill-rule:nonzero;"/>
        </g>
        <g transform="matrix(0.391027,-0.920379,-0.920379,-0.391027,1302.39,1136.76)">
            <path d="M-1.147,-0.786C-2.825,-0.787 -3.944,0.424 -3.944,0.424C-3.944,0.424 -2.948,1.636 -1.147,1.636C0.499,1.636 1.65,0.425 1.65,0.425C1.65,0.425 0.385,-0.786 -1.147,-0.786" style="fill:rgb(66,99,57);fill-rule:nonzero;"/>
        </g>
        <g transform="matrix(0,-1,-1,0,1300.38,1138.22)">
            <path d="M-5.098,-5.098C-7.912,-5.098 -10.195,-2.816 -10.195,0C-10.195,2.816 -7.912,5.098 -5.098,5.098C-2.283,5.098 0,2.816 0,0C0,-2.816 -2.283,-5.098 -5.098,-5.098" style="fill:rgb(193,39,45);fill-rule:nonzero;"/>
        </g>
        <g transform="matrix(1,0,0,1,892.963,730.154)">
            <g opacity="0.3">
                <g transform="matrix(1,0,0,1,407.418,414.367)">
                    <path d="M0,3.051C-0.553,3.051 -1,2.604 -1,2.051C-1,1.498 -0.553,1.051 0,1.051C0.602,1.051 1.168,0.817 1.595,0.391C1.983,0.002 2.618,0 3.009,0.393C3.398,0.783 3.398,1.416 3.007,1.807C2.203,2.609 1.136,3.051 0,3.051" style="fill-rule:nonzero;"/>
                </g>
            </g>
        </g>
        <g transform="matrix(1,0,0,1,892.963,730.154)">
            <g opacity="0.5">
                <g transform="matrix(1,0,0,1,404.21,408.957)">
                    <path d="M0,5.208C-0.553,5.208 -1,4.761 -1,4.208C-1,1.888 0.888,0 3.208,0C3.761,0 4.208,0.447 4.208,1C4.208,1.553 3.761,2 3.208,2C1.99,2 1,2.99 1,4.208C1,4.761 0.553,5.208 0,5.208" style="fill:white;fill-rule:nonzero;"/>
                </g>
            </g>
        </g>
        <g transform="matrix(1,0,0,1,892.963,730.154)">
            <g opacity="0.5">
                <g transform="matrix(0,-1,-1,0,409.859,409.906)">
                    <path d="M-0.675,-0.675C-1.047,-0.675 -1.35,-0.373 -1.35,-0.001C-1.35,0.372 -1.047,0.675 -0.675,0.675C-0.303,0.675 0,0.372 0,-0.001C0,-0.373 -0.303,-0.675 -0.675,-0.675" style="fill:white;fill-rule:nonzero;"/>
                </g>
            </g>
        </g>
    </g>
</svg>
