<?xml version="1.0" encoding="UTF-8" standalone="no"?>
<!DOCTYPE svg PUBLIC "-//W3C//DTD SVG 1.1//EN" "http://www.w3.org/Graphics/SVG/1.1/DTD/svg11.dtd">
<svg width="100%" height="100%" viewBox="0 0 81 144" version="1.1" xmlns="http://www.w3.org/2000/svg" xmlns:xlink="http://www.w3.org/1999/xlink" xml:space="preserve" xmlns:serif="http://www.serif.com/" style="fill-rule:evenodd;clip-rule:evenodd;stroke-linecap:round;stroke-miterlimit:10;">
    <g transform="matrix(1,0,0,1,-1440.32,-1123.75)">
        <g transform="matrix(1,0,0,1,1480.52,1123.75)">
            <path d="M-24.871,90.295L24.87,90.295C27.202,90.295 33.938,89.238 30.57,78.441C29.851,76.134 28.989,73.349 28.036,70.274C27.611,68.901 22.02,70.336 21.562,68.864C21.177,67.626 25.931,63.494 25.528,62.208C22.474,52.424 19.011,41.544 16.321,33.981C15.985,33.036 12.184,35.375 11.825,34.337C11.536,33.5 14.693,29.301 14.392,28.42C10.152,16.057 4.691,0 0,0C-4.691,0 -10.153,16.057 -14.393,28.42C-14.694,29.301 -11.537,33.5 -11.826,34.337C-12.185,35.375 -15.997,33.032 -16.322,33.981C-18.815,41.252 -22.474,52.424 -25.529,62.208C-25.931,63.494 -21.178,67.626 -21.562,68.864C-22.021,70.336 -27.611,68.901 -28.037,70.274C-28.989,73.349 -29.852,76.134 -30.571,78.441C-33.938,89.238 -27.203,90.295 -24.871,90.295Z" style="fill:rgb(55,81,47);fill-rule:nonzero;"/>
        </g>
        <g transform="matrix(0,1,1,0,1509.15,1198.37)">
            <path d="M-28.63,-28.63L28.63,-28.63" style="fill:none;fill-rule:nonzero;stroke:rgb(115,99,87);stroke-width:8px;"/>
        </g>
        <g transform="matrix(1,0,0,1,1491.44,1224.67)">
            <path d="M0,7.279C0,2.46 -5.429,-1.447 -12.126,-1.447C-18.823,-1.447 -24.252,2.46 -24.252,7.279C-24.252,7.279 -24.252,8.726 -22.241,8.726L-1.842,8.726C-0.508,8.726 0,8.254 0,7.279" style="fill:rgb(66,99,57);fill-rule:nonzero;"/>
        </g>
        <g transform="matrix(1,0,0,1,1476.08,1227.01)">
            <path d="M0,5.331C0,1.802 -3.978,-1.061 -8.883,-1.061C-13.789,-1.061 -17.766,1.802 -17.766,5.331C-17.766,5.331 -17.766,6.392 -16.293,6.392L-1.35,6.392C-0.372,6.392 0,6.045 0,5.331" style="fill:rgb(66,99,57);fill-rule:nonzero;"/>
        </g>
        <g transform="matrix(1,0,0,1,1498.8,1228.98)">
            <path d="M0,3.688C0,1.246 -2.752,-0.734 -6.146,-0.734C-9.541,-0.734 -12.293,1.246 -12.293,3.688C-12.293,3.688 -12.293,4.422 -11.273,4.422L-0.933,4.422C-0.257,4.422 0,4.182 0,3.688" style="fill:rgb(66,99,57);fill-rule:nonzero;"/>
        </g>
        <g transform="matrix(1,0,0,1,1247.79,876.383)">
            <g opacity="0.5">
                <g transform="matrix(1,0,0,1,239.205,350.167)">
                    <path d="M0,2.346C0,0.792 -1.75,-0.467 -3.909,-0.467C-6.068,-0.467 -7.819,0.792 -7.819,2.346C-7.819,2.346 -7.819,2.813 -7.17,2.813L-0.594,2.813C-0.237,2.813 0,2.66 0,2.346" style="fill:white;fill-rule:nonzero;"/>
                </g>
            </g>
        </g>
    </g>
</svg>
