<?xml version="1.0" encoding="UTF-8" standalone="no"?>
<!DOCTYPE svg PUBLIC "-//W3C//DTD SVG 1.1//EN" "http://www.w3.org/Graphics/SVG/1.1/DTD/svg11.dtd">
<svg width="100%" height="100%" viewBox="0 0 101 191" version="1.1" xmlns="http://www.w3.org/2000/svg" xmlns:xlink="http://www.w3.org/1999/xlink" xml:space="preserve" xmlns:serif="http://www.serif.com/" style="fill-rule:evenodd;clip-rule:evenodd;stroke-linecap:round;stroke-miterlimit:10;">
    <g transform="matrix(1,0,0,1,-1462.33,-900.897)">
        <g transform="matrix(1,0,0,1,1512.58,900.897)">
            <path d="M-33.834,122.834L33.833,122.834C37.005,122.834 46.168,121.397 41.587,106.708C40.607,103.569 39.436,99.78 38.14,95.598C37.561,93.73 29.954,95.682 29.332,93.681C28.809,91.996 35.274,86.375 34.729,84.625C30.572,71.315 25.861,56.515 22.203,46.226C21.746,44.94 16.575,48.123 16.087,46.71C15.693,45.573 19.989,39.859 19.578,38.662C13.812,21.843 6.382,0 0,0C-6.382,0 -13.813,21.843 -19.579,38.662C-19.99,39.859 -15.694,45.573 -16.088,46.71C-16.575,48.123 -21.761,44.936 -22.203,46.226C-25.596,56.118 -30.572,71.315 -34.729,84.625C-35.275,86.375 -28.81,91.996 -29.333,93.681C-29.955,95.682 -37.562,93.73 -38.141,95.598C-39.437,99.78 -40.608,103.569 -41.587,106.708C-46.169,121.397 -37.006,122.834 -33.834,122.834Z" style="fill:rgb(55,81,47);fill-rule:nonzero;"/>
        </g>
        <g transform="matrix(0,1,1,0,1551.53,1002.41)">
            <path d="M-38.947,-38.947L38.947,-38.947" style="fill:none;fill-rule:nonzero;stroke:rgb(115,99,87);stroke-width:10px;"/>
        </g>
        <g transform="matrix(1,0,0,1,1527.44,1038.2)">
            <path d="M0,9.9C0,3.344 -7.386,-1.969 -16.496,-1.969C-25.606,-1.969 -32.992,3.344 -32.992,9.9C-32.992,9.9 -32.992,11.869 -30.256,11.869L-2.505,11.869C-0.69,11.869 0,11.225 0,9.9" style="fill:rgb(66,99,57);fill-rule:nonzero;"/>
        </g>
        <g transform="matrix(1,0,0,1,1541.44,1041.37)">
            <path d="M0,7.252C0,2.45 -5.41,-1.442 -12.084,-1.442C-18.758,-1.442 -24.168,2.45 -24.168,7.252C-24.168,7.252 -24.168,8.694 -22.163,8.694L-1.835,8.694C-0.506,8.694 0,8.223 0,7.252" style="fill:rgb(66,99,57);fill-rule:nonzero;"/>
        </g>
        <g transform="matrix(1,0,0,1,1137.11,677.045)">
            <g opacity="0.5">
                <g transform="matrix(1,0,0,1,374.616,363.703)">
                    <path d="M0,3.192C0,1.079 -2.381,-0.635 -5.318,-0.635C-8.256,-0.635 -10.637,1.079 -10.637,3.192C-10.637,3.192 -10.637,3.827 -9.754,3.827L-0.808,3.827C-0.323,3.827 0,3.619 0,3.192" style="fill:white;fill-rule:nonzero;"/>
                </g>
            </g>
        </g>
    </g>
</svg>
