<?xml version="1.0" encoding="UTF-8" standalone="no"?>
<!DOCTYPE svg PUBLIC "-//W3C//DTD SVG 1.1//EN" "http://www.w3.org/Graphics/SVG/1.1/DTD/svg11.dtd">
<svg width="100%" height="100%" viewBox="0 0 559 141" version="1.1" xmlns="http://www.w3.org/2000/svg" xmlns:xlink="http://www.w3.org/1999/xlink" xml:space="preserve" xmlns:serif="http://www.serif.com/" style="fill-rule:evenodd;clip-rule:evenodd;stroke-linejoin:round;stroke-miterlimit:2;">
    <g transform="matrix(1,0,0,1,-82.8868,251.024)">
        <g transform="matrix(1,0,0,1,43.0299,-579.403)">
            <g opacity="0.2">
                <g transform="matrix(1,0,0,1,39.8569,392.491)">
                    <path d="M0,8.502C90.399,36.493 119.276,76.842 251.743,76.842C296.942,76.842 361.298,65.314 405.626,32.851C471.472,-15.37 558.742,8.502 558.742,8.502L558.742,-64.031C558.742,-64.031 495.568,-68.34 427.88,-14.349C363.375,37.103 316.382,51.404 275.033,51.404C107.836,51.404 93.885,-64.031 0,-64.031" style="fill-rule:nonzero;"/>
                </g>
            </g>
        </g>
    </g>
</svg>
