<?xml version="1.0" encoding="UTF-8" standalone="no"?>
<!DOCTYPE svg PUBLIC "-//W3C//DTD SVG 1.1//EN" "http://www.w3.org/Graphics/SVG/1.1/DTD/svg11.dtd">
<svg width="100%" height="100%" viewBox="0 0 101 100" version="1.1" xmlns="http://www.w3.org/2000/svg" xmlns:xlink="http://www.w3.org/1999/xlink" xml:space="preserve" xmlns:serif="http://www.serif.com/" style="fill-rule:evenodd;clip-rule:evenodd;stroke-linejoin:round;stroke-miterlimit:2;">
    <rect id="_10" serif:id="10" x="0.412" y="0" width="100" height="100" style="fill:none;"/>
    <path id="number-big-stroke" serif:id="number big stroke" d="M23.913,61.306C21.859,58.481 20.833,55.238 20.833,51.576C20.833,47.914 21.859,44.671 23.913,41.847L23.913,37.883C23.982,36.574 23.751,35.367 23.226,34.261L23.12,34.043C22.754,33.311 22.257,32.634 21.633,32.009C20.111,30.488 18.276,29.728 16.129,29.728C15.99,29.728 15.852,29.731 15.716,29.738C14.986,29.763 14.29,29.891 13.627,30.12C12.534,30.481 11.547,31.098 10.666,31.97L4.985,36.77C3.29,38.136 2.352,39.912 2.17,42.089L2.17,42.089C1.993,44.222 2.591,46.111 3.968,47.755C3.968,47.755 3.968,47.755 3.968,47.755C5.151,49.167 6.61,50.042 8.345,50.379L8.345,65.64C8.345,67.788 9.104,69.623 10.625,71.144C10.625,71.144 10.625,71.144 10.625,71.144C12.147,72.665 13.981,73.424 16.129,73.424C18.276,73.424 20.111,72.665 21.633,71.144C23.154,69.623 23.913,67.788 23.913,65.64L23.913,61.306ZM18.913,37.752C18.849,38.52 18.529,39.16 17.953,39.672L13.345,43.5L13.345,65.64C13.345,66.408 13.617,67.064 14.161,67.608C14.705,68.152 15.361,68.424 16.129,68.424C16.897,68.424 17.553,68.152 18.097,67.608C18.641,67.064 18.913,66.408 18.913,65.64L18.913,37.752C18.959,37.198 18.86,36.694 18.612,36.241L18.594,36.204L18.588,36.194L18.584,36.186L18.568,36.161C18.446,35.941 18.288,35.736 18.097,35.544C17.553,35 16.897,34.728 16.129,34.728C15.361,34.728 14.705,35 14.161,35.544L14.088,35.624L8.161,40.632C7.553,41.112 7.217,41.736 7.153,42.504C7.089,43.272 7.305,43.952 7.801,44.544C8.297,45.136 8.929,45.464 9.697,45.528C10.465,45.592 11.137,45.368 11.713,44.856L13.345,43.5L13.345,37.512C13.345,36.781 13.592,36.151 14.088,35.624L14.353,35.4C14.929,34.888 15.601,34.672 16.369,34.752C17.137,34.832 17.769,35.16 18.265,35.736C18.382,35.872 18.483,36.013 18.568,36.161L18.588,36.194L18.612,36.241C18.813,36.623 18.913,37.047 18.913,37.512L18.913,37.752Z" style="fill:rgb(0,79,73);"/>
    <path d="M18.913,40.317L18.913,62.836C19.821,64.312 20.93,65.705 22.241,67.016C26.516,71.29 31.663,73.424 37.681,73.424C43.692,73.424 48.845,71.294 53.136,67.024C57.433,62.748 59.577,57.597 59.577,51.576C59.577,45.559 57.443,40.411 53.169,36.137C48.897,31.866 43.735,29.728 37.681,29.728C31.663,29.728 26.516,31.862 22.241,36.137C20.93,37.448 19.821,38.841 18.913,40.317ZM25.777,63.48C29.073,66.776 33.041,68.424 37.681,68.424C42.321,68.424 46.297,66.776 49.609,63.48C52.921,60.184 54.577,56.216 54.577,51.576C54.577,46.936 52.929,42.968 49.633,39.672C46.337,36.376 42.353,34.728 37.681,34.728C33.041,34.728 29.073,36.376 25.777,39.672C22.481,42.968 20.833,46.936 20.833,51.576C20.833,56.216 22.481,60.184 25.777,63.48ZM29.737,43.608C31.929,41.4 34.577,40.296 37.681,40.296C40.785,40.296 43.441,41.4 45.649,43.608C47.857,45.816 48.961,48.472 48.961,51.576C48.961,54.68 47.857,57.336 45.649,59.544C43.441,61.752 40.785,62.856 37.681,62.856C34.577,62.856 31.929,61.752 29.737,59.544C27.545,57.336 26.449,54.68 26.449,51.576C26.449,48.472 27.545,45.816 29.737,43.608ZM33.285,47.131C34.498,45.909 35.963,45.296 37.681,45.296C39.408,45.296 40.885,45.915 42.113,47.144C43.342,48.373 43.961,49.849 43.961,51.576C43.961,53.304 43.342,54.78 42.113,56.009C40.885,57.238 39.408,57.856 37.681,57.856C35.963,57.856 34.498,57.244 33.285,56.022C32.062,54.79 31.449,53.308 31.449,51.576C31.449,49.844 32.062,48.363 33.285,47.131L33.285,47.131Z" style="fill:rgb(0,79,73);"/>
    <g id="letter" transform="matrix(0.575721,0,0,0.764002,-468.798,7.7279)">
        <g transform="matrix(1.73695,0,0,1.3089,-673.431,-9.64201)">
            <path d="M936.711,67.02C936.141,66.646 935.606,66.184 935.107,65.633C933.667,64.093 932.947,62.173 932.947,59.873C932.947,57.513 933.682,55.543 935.152,53.963C935.642,53.435 936.174,52.996 936.747,52.647L936.747,48.743C936.747,46.835 936.069,45.245 934.772,43.947C933.455,42.63 931.866,41.973 930.007,41.973C928.147,41.973 926.558,42.63 925.241,43.947C924.336,44.853 923.732,45.902 923.451,47.101L921.491,44.616C920.639,43.484 919.513,42.692 918.118,42.266C916.688,41.829 915.258,41.867 913.828,42.409C910.888,43.465 909.407,45.591 909.407,48.743C909.407,48.743 909.407,66.323 909.407,66.323C909.407,68.182 910.064,69.771 911.381,71.088C911.381,71.088 911.381,71.088 911.381,71.088C912.698,72.406 914.287,73.063 916.147,73.063C918.006,73.063 919.595,72.406 920.912,71.088C921.83,70.17 922.428,69.12 922.705,67.938L924.664,70.422C925.985,72.171 927.763,73.063 930.007,73.063C930.957,73.063 931.784,72.87 932.506,72.558C933.668,72.102 934.662,71.342 935.449,70.27C936.181,69.272 936.596,68.186 936.711,67.02ZM930.007,68.063C930.227,68.063 930.417,68.023 930.577,67.943C930.917,67.823 931.197,67.613 931.417,67.313C931.637,67.013 931.747,66.683 931.747,66.323L931.747,48.743C931.747,48.243 931.577,47.823 931.237,47.483C930.897,47.143 930.487,46.973 930.007,46.973C929.527,46.973 929.117,47.143 928.777,47.483C928.437,47.823 928.267,48.243 928.267,48.743L928.267,61.283L917.527,47.663C917.307,47.363 917.017,47.158 916.657,47.048C916.297,46.938 915.937,46.953 915.577,47.093C914.797,47.373 914.407,47.923 914.407,48.743L914.407,66.323C914.407,66.803 914.577,67.213 914.917,67.553C915.257,67.893 915.667,68.063 916.147,68.063C916.627,68.063 917.037,67.893 917.377,67.553C917.717,67.213 917.887,66.803 917.887,66.323L917.887,53.753L928.627,67.373C928.967,67.833 929.427,68.063 930.007,68.063ZM936.747,61.613L936.747,61.753L936.697,61.613L936.747,61.613ZM936.747,57.871L936.747,58.103L936.667,58.103L936.747,57.871Z" style="fill:rgb(0,79,73);"/>
            <path d="M931.747,50.29L931.747,66.323C931.747,66.683 931.637,67.013 931.417,67.313C931.197,67.613 930.917,67.823 930.577,67.943L930.54,67.958C930.813,68.325 931.111,68.678 931.429,69.02C933.994,71.835 937.129,73.213 940.807,73.213L940.807,73.213C945.975,73.213 949.491,71.099 951.599,67.332C952.356,66.039 952.653,64.638 952.452,63.135C953.003,62.161 953.277,61.073 953.277,59.873C953.277,56.09 952.06,53 949.791,50.541C947.378,47.928 944.342,46.593 940.657,46.593C937.118,46.593 934.151,47.834 931.747,50.29ZM940.807,68.213C943.867,68.213 946.017,67.093 947.257,64.853C947.497,64.453 947.562,64.018 947.452,63.548C947.342,63.078 947.077,62.713 946.657,62.453C946.257,62.213 945.822,62.148 945.352,62.258C944.882,62.368 944.517,62.633 944.257,63.053C943.637,64.173 942.487,64.733 940.807,64.733C939.847,64.733 938.997,64.448 938.257,63.878C937.517,63.308 936.997,62.553 936.697,61.613L946.507,61.613C947.007,61.613 947.427,61.443 947.767,61.103C948.107,60.763 948.277,60.353 948.277,59.873C948.277,57.473 947.557,55.493 946.117,53.933C944.677,52.373 942.857,51.593 940.657,51.593C938.457,51.593 936.622,52.383 935.152,53.963C933.682,55.543 932.947,57.513 932.947,59.873C932.947,62.173 933.667,64.093 935.107,65.633C936.667,67.353 938.567,68.213 940.807,68.213ZM928.267,61.283L928.267,56.723C928.054,57.718 927.947,58.767 927.947,59.873C927.947,60.23 927.958,60.58 927.984,60.925L928.267,61.283ZM936.667,58.103C936.967,57.123 937.487,56.373 938.227,55.853C938.967,55.333 939.777,55.073 940.657,55.073C941.537,55.073 942.337,55.333 943.057,55.853C943.777,56.373 944.277,57.123 944.557,58.103L936.667,58.103Z" style="fill:rgb(0,79,73);"/>
        </g>
        <g transform="matrix(1.73695,0,0,1.3089,-673.431,-9.64201)">
            <g transform="matrix(30,0,0,30,913.807,68.0629)">
                <path d="M0.54,-0C0.547,-0 0.554,-0.001 0.559,-0.004C0.57,-0.008 0.58,-0.015 0.587,-0.025C0.594,-0.035 0.598,-0.046 0.598,-0.058L0.598,-0.644C0.598,-0.661 0.592,-0.675 0.581,-0.686C0.57,-0.697 0.556,-0.703 0.54,-0.703C0.524,-0.703 0.51,-0.697 0.499,-0.686C0.488,-0.675 0.482,-0.661 0.482,-0.644L0.482,-0.226L0.124,-0.68C0.117,-0.69 0.107,-0.697 0.095,-0.701C0.083,-0.704 0.071,-0.704 0.059,-0.699C0.033,-0.69 0.02,-0.671 0.02,-0.644L0.02,-0.058C0.02,-0.042 0.026,-0.028 0.037,-0.017C0.048,-0.006 0.062,-0 0.078,-0C0.094,-0 0.108,-0.006 0.119,-0.017C0.13,-0.028 0.136,-0.042 0.136,-0.058L0.136,-0.477L0.494,-0.023C0.505,-0.008 0.521,-0 0.54,-0Z" style="fill:white;fill-rule:nonzero;"/>
            </g>
            <g transform="matrix(30,0,0,30,932.347,68.0629)">
                <path d="M0.282,0.005C0.384,0.005 0.456,-0.032 0.497,-0.107C0.505,-0.12 0.507,-0.135 0.503,-0.151C0.5,-0.166 0.491,-0.178 0.477,-0.187C0.464,-0.195 0.449,-0.197 0.434,-0.194C0.418,-0.19 0.406,-0.181 0.397,-0.167C0.376,-0.13 0.338,-0.111 0.282,-0.111C0.25,-0.111 0.222,-0.121 0.197,-0.14C0.172,-0.159 0.155,-0.184 0.145,-0.215L0.472,-0.215C0.489,-0.215 0.503,-0.221 0.514,-0.232C0.525,-0.243 0.531,-0.257 0.531,-0.273C0.531,-0.353 0.507,-0.419 0.459,-0.471C0.411,-0.523 0.35,-0.549 0.277,-0.549C0.204,-0.549 0.142,-0.523 0.094,-0.47C0.045,-0.417 0.02,-0.352 0.02,-0.273C0.02,-0.196 0.044,-0.132 0.092,-0.081C0.144,-0.024 0.207,0.005 0.282,0.005ZM0.144,-0.332C0.154,-0.365 0.171,-0.39 0.196,-0.407C0.221,-0.424 0.248,-0.433 0.277,-0.433C0.306,-0.433 0.333,-0.424 0.357,-0.407C0.381,-0.39 0.398,-0.365 0.407,-0.332L0.144,-0.332Z" style="fill:white;fill-rule:nonzero;"/>
            </g>
        </g>
    </g>
    <path id="number-face" serif:id="number face" d="M7.153,42.504C7.089,43.272 7.305,43.952 7.801,44.544C8.297,45.136 8.929,45.464 9.697,45.528C10.465,45.592 11.137,45.368 11.713,44.856L17.953,39.672C18.529,39.16 18.849,38.52 18.913,37.752C18.977,36.984 18.761,36.312 18.265,35.736C17.769,35.16 17.137,34.832 16.369,34.752C15.601,34.672 14.929,34.888 14.353,35.4L8.161,40.632C7.553,41.112 7.217,41.736 7.153,42.504ZM14.161,67.608C14.705,68.152 15.361,68.424 16.129,68.424C16.897,68.424 17.553,68.152 18.097,67.608C18.641,67.064 18.913,66.408 18.913,65.64L18.913,37.512C18.913,36.744 18.641,36.088 18.097,35.544C17.553,35 16.897,34.728 16.129,34.728C15.361,34.728 14.705,35 14.161,35.544C13.617,36.088 13.345,36.744 13.345,37.512L13.345,65.64C13.345,66.408 13.617,67.064 14.161,67.608Z" style="fill:white;fill-rule:nonzero;"/>
    <path d="M25.777,63.48C29.073,66.776 33.041,68.424 37.681,68.424C42.321,68.424 46.297,66.776 49.609,63.48C52.921,60.184 54.577,56.216 54.577,51.576C54.577,46.936 52.929,42.968 49.633,39.672C46.337,36.376 42.353,34.728 37.681,34.728C33.041,34.728 29.073,36.376 25.777,39.672C22.481,42.968 20.833,46.936 20.833,51.576C20.833,56.216 22.481,60.184 25.777,63.48ZM29.737,43.608C31.929,41.4 34.577,40.296 37.681,40.296C40.785,40.296 43.441,41.4 45.649,43.608C47.857,45.816 48.961,48.472 48.961,51.576C48.961,54.68 47.857,57.336 45.649,59.544C43.441,61.752 40.785,62.856 37.681,62.856C34.577,62.856 31.929,61.752 29.737,59.544C27.545,57.336 26.449,54.68 26.449,51.576C26.449,48.472 27.545,45.816 29.737,43.608Z" style="fill:white;fill-rule:nonzero;"/>
</svg>
