<?xml version="1.0" encoding="UTF-8" standalone="no"?>
<!DOCTYPE svg PUBLIC "-//W3C//DTD SVG 1.1//EN" "http://www.w3.org/Graphics/SVG/1.1/DTD/svg11.dtd">
<svg width="100%" height="100%" viewBox="0 0 100 101" version="1.1" xmlns="http://www.w3.org/2000/svg" xmlns:xlink="http://www.w3.org/1999/xlink" xml:space="preserve" xmlns:serif="http://www.serif.com/" style="fill-rule:evenodd;clip-rule:evenodd;stroke-linejoin:round;stroke-miterlimit:2;">
    <rect id="_11" serif:id="11" x="0" y="0.33" width="100" height="100" style="fill:none;"/>
    <ellipse cx="79.111" cy="61.259" rx="5.506" ry="5.707" style="fill:rgb(52,39,97);"/>
    <path id="number-big-stroke" serif:id="number big stroke" d="M40.504,46.526C40.287,46.564 40.06,46.572 39.824,46.552C39.056,46.488 38.424,46.16 37.928,45.568C37.432,44.976 37.216,44.296 37.28,43.528C37.344,42.76 37.68,42.136 38.288,41.656L40.504,39.784L40.504,38.907C40.573,37.598 40.342,36.391 39.817,35.285L39.711,35.067C39.345,34.335 38.848,33.658 38.224,33.033C36.702,31.512 34.868,30.752 32.72,30.752C32.581,30.752 32.443,30.755 32.307,30.762C31.578,30.787 30.881,30.915 30.218,31.144C29.125,31.505 28.139,32.122 27.257,32.994L21.576,37.794C19.881,39.16 18.943,40.936 18.761,43.113L18.761,43.113C18.584,45.246 19.182,47.135 20.559,48.779C20.559,48.779 20.559,48.779 20.559,48.779C21.742,50.191 23.201,51.066 24.936,51.403L24.936,66.664C24.936,68.812 25.695,70.647 27.216,72.168C27.216,72.168 27.216,72.168 27.216,72.168C28.738,73.689 30.572,74.448 32.72,74.448C34.868,74.448 36.702,73.689 38.224,72.168C39.745,70.647 40.504,68.812 40.504,66.664L40.504,46.526ZM35.159,37.185C35.037,36.965 34.879,36.76 34.688,36.568C34.144,36.024 33.488,35.752 32.72,35.752C31.952,35.752 31.296,36.024 30.752,36.568L30.679,36.648L24.752,41.656C24.144,42.136 23.808,42.76 23.744,43.528C23.68,44.296 23.896,44.976 24.392,45.568C24.888,46.16 25.52,46.488 26.288,46.552C27.056,46.616 27.728,46.392 28.304,45.88L29.936,44.524L29.936,38.536C29.936,37.805 30.183,37.175 30.679,36.648L30.944,36.424C31.52,35.912 32.192,35.696 32.96,35.776C33.728,35.856 34.36,36.184 34.856,36.76C34.973,36.896 35.075,37.037 35.159,37.185L35.179,37.218L35.203,37.265C35.404,37.647 35.504,38.071 35.504,38.536L35.504,38.776C35.44,39.544 35.12,40.184 34.544,40.696L29.936,44.524L29.936,66.664C29.936,67.432 30.208,68.088 30.752,68.632C31.296,69.176 31.952,69.448 32.72,69.448C33.488,69.448 34.144,69.176 34.688,68.632C35.232,68.088 35.504,67.432 35.504,66.664L35.504,38.776C35.55,38.222 35.451,37.718 35.203,37.265L35.185,37.228L35.179,37.218L35.176,37.21L35.159,37.185Z" style="fill:rgb(52,39,97);"/>
    <path d="M35.351,37.592C35.489,37.957 35.539,38.352 35.504,38.776L35.504,50.112C36.382,50.759 37.371,51.189 38.472,51.403L38.472,66.664C38.472,68.812 39.231,70.647 40.752,72.168C40.752,72.168 40.752,72.168 40.752,72.168C42.274,73.689 44.108,74.448 46.256,74.448C48.404,74.448 50.238,73.689 51.76,72.168C53.281,70.647 54.04,68.812 54.04,66.664L54.04,38.907C54.109,37.598 53.878,36.391 53.353,35.285L53.247,35.067C52.881,34.335 52.384,33.658 51.76,33.033C50.238,31.512 48.404,30.752 46.256,30.752C46.117,30.752 45.979,30.755 45.843,30.762C45.114,30.787 44.417,30.915 43.754,31.144C42.661,31.505 41.675,32.122 40.793,32.994L35.351,37.592ZM48.695,37.185C48.573,36.965 48.415,36.76 48.224,36.568C47.68,36.024 47.024,35.752 46.256,35.752C45.488,35.752 44.832,36.024 44.288,36.568L44.215,36.648L38.288,41.656C37.68,42.136 37.344,42.76 37.28,43.528C37.216,44.296 37.432,44.976 37.928,45.568C38.424,46.16 39.056,46.488 39.824,46.552C40.592,46.616 41.264,46.392 41.84,45.88L43.472,44.524L43.472,38.536C43.472,37.805 43.719,37.175 44.215,36.648L44.48,36.424C45.056,35.912 45.728,35.696 46.496,35.776C47.264,35.856 47.896,36.184 48.392,36.76C48.509,36.896 48.611,37.037 48.695,37.185L48.715,37.218L48.739,37.265C48.94,37.647 49.04,38.071 49.04,38.536L49.04,38.776C48.976,39.544 48.656,40.184 48.08,40.696L43.472,44.524L43.472,66.664C43.472,67.432 43.744,68.088 44.288,68.632C44.832,69.176 45.488,69.448 46.256,69.448C47.024,69.448 47.68,69.176 48.224,68.632C48.768,68.088 49.04,67.432 49.04,66.664L49.04,38.776C49.086,38.222 48.987,37.718 48.739,37.265L48.721,37.228L48.715,37.218L48.712,37.21L48.695,37.185ZM35.346,37.597L35.112,37.794C33.579,39.03 32.665,40.601 32.372,42.5L34.544,40.696C35.12,40.184 35.44,39.544 35.504,38.776L35.504,38.536C35.504,38.201 35.452,37.888 35.346,37.597Z" style="fill:rgb(52,39,97);"/>
    <g id="letter" transform="matrix(0.553202,0,0,0.764002,-453.757,8.75191)">
        <g transform="matrix(1.80766,0,0,1.3089,-738.042,-9.64201)">
            <path d="M936.719,66.94C936.614,68.137 936.197,69.249 935.449,70.27C934.662,71.342 933.668,72.102 932.506,72.558C931.784,72.87 930.957,73.063 930.007,73.063C927.763,73.063 925.985,72.171 924.664,70.422L922.705,67.938C922.428,69.12 921.83,70.17 920.912,71.088C919.595,72.406 918.006,73.063 916.147,73.063C914.287,73.063 912.698,72.406 911.381,71.088C911.381,71.088 911.381,71.088 911.381,71.088C910.064,69.771 909.407,68.182 909.407,66.323C909.407,66.323 909.407,48.743 909.407,48.743C909.407,45.591 910.888,43.465 913.828,42.409C915.258,41.867 916.688,41.829 918.118,42.266C919.513,42.692 920.639,43.484 921.491,44.616L923.451,47.101C923.732,45.902 924.336,44.853 925.241,43.947C926.558,42.63 928.147,41.973 930.007,41.973C931.866,41.973 933.455,42.63 934.772,43.947C936.069,45.245 936.747,46.835 936.747,48.743L936.747,52.638C936.154,53.006 935.608,53.468 935.107,54.023C933.667,55.583 932.947,57.513 932.947,59.813C932.947,62.093 933.667,64.013 935.107,65.573C935.6,66.119 936.137,66.576 936.719,66.94ZM930.007,68.063C930.227,68.063 930.417,68.023 930.577,67.943C930.917,67.823 931.197,67.613 931.417,67.313C931.637,67.013 931.747,66.683 931.747,66.323L931.747,48.743C931.747,48.243 931.577,47.823 931.237,47.483C930.897,47.143 930.487,46.973 930.007,46.973C929.527,46.973 929.117,47.143 928.777,47.483C928.437,47.823 928.267,48.243 928.267,48.743L928.267,61.283L917.527,47.663C917.307,47.363 917.017,47.158 916.657,47.048C916.297,46.938 915.937,46.953 915.577,47.093C914.797,47.373 914.407,47.923 914.407,48.743L914.407,66.323C914.407,66.803 914.577,67.213 914.917,67.553C915.257,67.893 915.667,68.063 916.147,68.063C916.627,68.063 917.037,67.893 917.377,67.553C917.717,67.213 917.887,66.803 917.887,66.323L917.887,53.753L928.627,67.373C928.967,67.833 929.427,68.063 930.007,68.063ZM936.747,57.868C936.533,58.451 936.427,59.1 936.427,59.813C936.427,60.516 936.533,61.157 936.747,61.735L936.747,57.868Z" style="fill:rgb(52,39,97);"/>
            <path d="M931.747,50.298L931.747,66.323C931.747,66.683 931.637,67.013 931.417,67.313C931.197,67.613 930.917,67.823 930.577,67.943C930.837,68.287 931.117,68.621 931.415,68.946C933.891,71.675 937.015,73.063 940.807,73.063C942.056,73.063 943.243,72.901 944.371,72.578C945.153,72.898 946.004,73.063 946.927,73.063C948.786,73.063 950.375,72.406 951.692,71.088C953.009,69.771 953.667,68.182 953.667,66.323C953.667,66.323 953.667,53.273 953.667,53.273C953.667,51.413 953.009,49.825 951.692,48.507C950.375,47.19 948.786,46.533 946.927,46.533C946.004,46.533 945.153,46.698 944.371,47.018C943.243,46.695 942.056,46.533 940.807,46.533C937.182,46.533 934.167,47.801 931.747,50.298ZM946.927,51.533C947.407,51.533 947.817,51.703 948.157,52.043C948.497,52.383 948.667,52.793 948.667,53.273L948.667,66.323C948.667,66.803 948.497,67.213 948.157,67.553C947.817,67.893 947.407,68.063 946.927,68.063C946.507,68.063 946.142,67.938 945.832,67.688C945.522,67.438 945.317,67.113 945.217,66.713C943.917,67.613 942.447,68.063 940.807,68.063C938.507,68.063 936.607,67.233 935.107,65.573C933.667,64.013 932.947,62.093 932.947,59.813C932.947,57.513 933.667,55.583 935.107,54.023C936.607,52.363 938.507,51.533 940.807,51.533C942.447,51.533 943.917,51.983 945.217,52.883C945.317,52.483 945.522,52.158 945.832,51.908C946.142,51.658 946.507,51.533 946.927,51.533ZM940.807,64.583C942.067,64.583 943.112,64.133 943.942,63.233C944.772,62.333 945.187,61.193 945.187,59.813C945.187,58.413 944.772,57.263 943.942,56.363C943.112,55.463 942.067,55.013 940.807,55.013C939.527,55.013 938.477,55.463 937.657,56.363C936.837,57.263 936.427,58.413 936.427,59.813C936.427,61.193 936.837,62.333 937.657,63.233C938.477,64.133 939.527,64.583 940.807,64.583ZM928.267,61.283L928.267,56.7C928.053,57.684 927.947,58.721 927.947,59.813C927.947,60.192 927.96,60.565 927.989,60.93L928.267,61.283ZM941.283,59.798C941.154,59.925 941.002,60.013 940.807,60.013C940.608,60.013 940.448,59.931 940.314,59.798C940.448,59.665 940.608,59.583 940.807,59.583C941.002,59.583 941.154,59.671 941.283,59.798Z" style="fill:rgb(52,39,97);"/>
        </g>
        <g transform="matrix(1.80766,0,0,1.3089,-738.042,-9.64201)">
            <g transform="matrix(30,0,0,30,913.807,68.0629)">
                <path d="M0.54,-0C0.547,-0 0.554,-0.001 0.559,-0.004C0.57,-0.008 0.58,-0.015 0.587,-0.025C0.594,-0.035 0.598,-0.046 0.598,-0.058L0.598,-0.644C0.598,-0.661 0.592,-0.675 0.581,-0.686C0.57,-0.697 0.556,-0.703 0.54,-0.703C0.524,-0.703 0.51,-0.697 0.499,-0.686C0.488,-0.675 0.482,-0.661 0.482,-0.644L0.482,-0.226L0.124,-0.68C0.117,-0.69 0.107,-0.697 0.095,-0.701C0.083,-0.704 0.071,-0.704 0.059,-0.699C0.033,-0.69 0.02,-0.671 0.02,-0.644L0.02,-0.058C0.02,-0.042 0.026,-0.028 0.037,-0.017C0.048,-0.006 0.062,-0 0.078,-0C0.094,-0 0.108,-0.006 0.119,-0.017C0.13,-0.028 0.136,-0.042 0.136,-0.058L0.136,-0.477L0.494,-0.023C0.505,-0.008 0.521,-0 0.54,-0Z" style="fill:white;fill-rule:nonzero;"/>
            </g>
            <g transform="matrix(30,0,0,30,932.347,68.0629)">
                <path d="M0.486,-0.551C0.502,-0.551 0.516,-0.545 0.527,-0.534C0.538,-0.523 0.544,-0.509 0.544,-0.493L0.544,-0.058C0.544,-0.042 0.538,-0.028 0.527,-0.017C0.516,-0.006 0.502,-0 0.486,-0C0.472,-0 0.46,-0.004 0.45,-0.013C0.439,-0.021 0.432,-0.032 0.429,-0.045C0.386,-0.015 0.337,-0 0.282,-0C0.205,-0 0.142,-0.028 0.092,-0.083C0.044,-0.135 0.02,-0.199 0.02,-0.275C0.02,-0.352 0.044,-0.416 0.092,-0.468C0.142,-0.523 0.205,-0.551 0.282,-0.551C0.337,-0.551 0.386,-0.536 0.429,-0.506C0.432,-0.519 0.439,-0.53 0.45,-0.539C0.46,-0.547 0.472,-0.551 0.486,-0.551ZM0.282,-0.116C0.324,-0.116 0.359,-0.131 0.387,-0.161C0.414,-0.191 0.428,-0.229 0.428,-0.275C0.428,-0.322 0.414,-0.36 0.387,-0.39C0.359,-0.42 0.324,-0.435 0.282,-0.435C0.239,-0.435 0.204,-0.42 0.177,-0.39C0.15,-0.36 0.136,-0.322 0.136,-0.275C0.136,-0.229 0.15,-0.191 0.177,-0.161C0.204,-0.131 0.239,-0.116 0.282,-0.116Z" style="fill:white;fill-rule:nonzero;"/>
            </g>
        </g>
    </g>
    <path id="number-face" serif:id="number face" d="M23.744,43.528C23.68,44.296 23.896,44.976 24.392,45.568C24.888,46.16 25.52,46.488 26.288,46.552C27.056,46.616 27.728,46.392 28.304,45.88L34.544,40.696C35.12,40.184 35.44,39.544 35.504,38.776C35.568,38.008 35.352,37.336 34.856,36.76C34.36,36.184 33.728,35.856 32.96,35.776C32.192,35.696 31.52,35.912 30.944,36.424L24.752,41.656C24.144,42.136 23.808,42.76 23.744,43.528ZM30.752,68.632C31.296,69.176 31.952,69.448 32.72,69.448C33.488,69.448 34.144,69.176 34.688,68.632C35.232,68.088 35.504,67.432 35.504,66.664L35.504,38.536C35.504,37.768 35.232,37.112 34.688,36.568C34.144,36.024 33.488,35.752 32.72,35.752C31.952,35.752 31.296,36.024 30.752,36.568C30.208,37.112 29.936,37.768 29.936,38.536L29.936,66.664C29.936,67.432 30.208,68.088 30.752,68.632Z" style="fill:white;fill-rule:nonzero;"/>
    <path d="M37.28,43.528C37.216,44.296 37.432,44.976 37.928,45.568C38.424,46.16 39.056,46.488 39.824,46.552C40.592,46.616 41.264,46.392 41.84,45.88L48.08,40.696C48.656,40.184 48.976,39.544 49.04,38.776C49.104,38.008 48.888,37.336 48.392,36.76C47.896,36.184 47.264,35.856 46.496,35.776C45.728,35.696 45.056,35.912 44.48,36.424L38.288,41.656C37.68,42.136 37.344,42.76 37.28,43.528ZM44.288,68.632C44.832,69.176 45.488,69.448 46.256,69.448C47.024,69.448 47.68,69.176 48.224,68.632C48.768,68.088 49.04,67.432 49.04,66.664L49.04,38.536C49.04,37.768 48.768,37.112 48.224,36.568C47.68,36.024 47.024,35.752 46.256,35.752C45.488,35.752 44.832,36.024 44.288,36.568C43.744,37.112 43.472,37.768 43.472,38.536L43.472,66.664C43.472,67.432 43.744,68.088 44.288,68.632Z" style="fill:white;fill-rule:nonzero;"/>
</svg>
