<?xml version="1.0" encoding="UTF-8" standalone="no"?>
<!DOCTYPE svg PUBLIC "-//W3C//DTD SVG 1.1//EN" "http://www.w3.org/Graphics/SVG/1.1/DTD/svg11.dtd">
<svg width="100%" height="100%" viewBox="0 0 101 101" version="1.1" xmlns="http://www.w3.org/2000/svg" xmlns:xlink="http://www.w3.org/1999/xlink" xml:space="preserve" xmlns:serif="http://www.serif.com/" style="fill-rule:evenodd;clip-rule:evenodd;stroke-linejoin:round;stroke-miterlimit:2;">
    <rect id="_12" serif:id="12" x="0.564" y="0.33" width="100" height="100" style="fill:none;"/>
    <ellipse cx="49.368" cy="59.947" rx="5.652" ry="5.966" style="fill:rgb(2,89,50);"/>
    <ellipse cx="81.52" cy="61.796" rx="5.652" ry="5.966" style="fill:rgb(2,89,50);"/>
    <path id="number-big-stroke" serif:id="number big stroke" d="M30.211,69.44C29.526,69.4 28.934,69.13 28.436,68.632C27.892,68.088 27.62,67.432 27.62,66.664C27.62,65.416 27.828,64.216 28.244,63.064C28.66,61.912 29.132,60.936 29.66,60.136C29.939,59.713 30.286,59.27 30.7,58.807L30.7,48.371C30.364,48.236 30.057,48.03 29.78,47.752C29.236,47.208 28.964,46.552 28.964,45.784C28.964,43.74 29.542,41.875 30.7,40.192L30.7,38.907C30.769,37.598 30.538,36.391 30.012,35.285L29.906,35.067C29.541,34.335 29.044,33.658 28.419,33.033C26.898,31.512 25.063,30.752 22.916,30.752C22.777,30.752 22.639,30.755 22.502,30.762C21.773,30.787 21.077,30.915 20.414,31.144C19.321,31.505 18.334,32.122 17.453,32.994L11.771,37.794C10.076,39.16 9.139,40.936 8.957,43.113L8.957,43.113C8.779,45.246 9.378,47.135 10.755,48.779C10.755,48.779 10.755,48.779 10.755,48.779C11.938,50.191 13.397,51.066 15.132,51.403L15.132,66.664C15.132,68.812 15.891,70.647 17.412,72.168C17.412,72.168 17.412,72.168 17.412,72.168C18.933,73.689 20.768,74.448 22.916,74.448C25.063,74.448 26.898,73.689 28.419,72.168C29.238,71.349 29.836,70.44 30.211,69.44ZM25.355,37.185C25.233,36.965 25.075,36.76 24.884,36.568C24.34,36.024 23.684,35.752 22.916,35.752C22.148,35.752 21.492,36.024 20.948,36.568L20.875,36.648L14.948,41.656C14.34,42.136 14.004,42.76 13.94,43.528C13.876,44.296 14.092,44.976 14.588,45.568C15.084,46.16 15.716,46.488 16.484,46.552C17.252,46.616 17.924,46.392 18.5,45.88L20.132,44.524L20.132,38.536C20.132,37.805 20.379,37.175 20.875,36.648L21.14,36.424C21.716,35.912 22.388,35.696 23.156,35.776C23.924,35.856 24.556,36.184 25.052,36.76C25.169,36.896 25.27,37.037 25.355,37.185L25.375,37.218L25.399,37.265C25.6,37.647 25.7,38.071 25.7,38.536L25.7,38.776C25.636,39.544 25.316,40.184 24.74,40.696L20.132,44.524L20.132,66.664C20.132,67.432 20.404,68.088 20.948,68.632C21.492,69.176 22.148,69.448 22.916,69.448C23.684,69.448 24.34,69.176 24.884,68.632C25.428,68.088 25.7,67.432 25.7,66.664L25.7,38.776C25.746,38.222 25.646,37.718 25.399,37.265L25.381,37.228L25.375,37.218L25.371,37.21L25.355,37.185Z" style="fill:rgb(2,89,50);"/>
    <path d="M25.7,38.778L25.7,50.69C25.869,50.895 26.05,51.094 26.244,51.288C26.244,51.288 26.244,51.288 26.244,51.288C27.147,52.19 28.16,52.825 29.284,53.189L28.546,53.871C27.329,55.011 26.389,56.085 25.7,57.072L25.7,66.664C25.7,67.432 25.428,68.088 24.884,68.632C24.386,69.13 23.794,69.4 23.108,69.44C23.484,70.44 24.082,71.349 24.9,72.168C24.9,72.168 24.9,72.168 24.9,72.168C26.421,73.689 28.256,74.448 30.404,74.448L46.82,74.448C48.967,74.448 50.802,73.689 52.323,72.168C53.845,70.647 54.604,68.812 54.604,66.664C54.604,64.517 53.845,62.682 52.323,61.161C50.91,59.747 49.226,58.992 47.272,58.893C48.087,58.196 49.054,57.269 50.168,56.106C51.727,54.476 52.828,52.771 53.526,51.025C54.234,49.255 54.604,47.334 54.604,45.256C54.604,41.436 53.272,38.125 50.587,35.33C47.792,32.361 44.058,30.752 39.284,30.752C34.697,30.752 31.014,32.347 28.171,35.382C27.164,36.456 26.342,37.588 25.7,38.778ZM46.82,69.448C47.588,69.448 48.244,69.176 48.788,68.632C49.332,68.088 49.604,67.432 49.604,66.664C49.604,65.896 49.332,65.24 48.788,64.696C48.244,64.152 47.588,63.88 46.82,63.88L33.908,63.88C34.42,62.952 35.18,62.04 36.188,61.144C37.196,60.248 38.628,59.128 40.484,57.784C41.956,56.728 43.068,55.888 43.82,55.264C44.572,54.64 45.484,53.768 46.556,52.648C47.628,51.528 48.404,50.368 48.884,49.168C49.364,47.968 49.604,46.664 49.604,45.256C49.604,42.76 48.724,40.6 46.964,38.776C45.076,36.76 42.516,35.752 39.284,35.752C36.212,35.752 33.724,36.768 31.82,38.8C29.916,40.832 28.964,43.16 28.964,45.784C28.964,46.552 29.236,47.208 29.78,47.752C30.324,48.296 30.98,48.568 31.748,48.568C32.516,48.568 33.172,48.296 33.716,47.752C34.26,47.208 34.532,46.552 34.532,45.784C34.532,44.824 34.9,43.84 35.636,42.832C36.372,41.824 37.588,41.32 39.284,41.32C40.948,41.32 42.156,41.736 42.908,42.568C43.66,43.4 44.036,44.296 44.036,45.256C44.036,45.992 43.884,46.688 43.58,47.344C43.276,48 42.724,48.712 41.924,49.48C41.124,50.248 40.452,50.84 39.908,51.256C39.364,51.672 38.468,52.344 37.22,53.272C36.004,54.136 35.076,54.824 34.436,55.336C33.796,55.848 32.972,56.576 31.964,57.52C30.956,58.464 30.188,59.336 29.66,60.136C29.132,60.936 28.66,61.912 28.244,63.064C27.828,64.216 27.62,65.416 27.62,66.664C27.62,67.432 27.892,68.088 28.436,68.632C28.98,69.176 29.636,69.448 30.404,69.448L46.82,69.448ZM25.7,38.778C25.641,39.475 25.372,40.066 24.89,40.55C25.117,39.946 25.387,39.355 25.7,38.778Z" style="fill:rgb(2,89,50);"/>
    <g id="letter" transform="matrix(0.638887,0,0,0.764002,-531.492,8.75191)">
        <g transform="matrix(1.56522,0,0,1.3089,-516.505,-9.64201)">
            <path d="M935.638,71.982C934.56,72.703 933.332,73.063 931.957,73.063C930.097,73.063 928.508,72.406 927.191,71.088C927.191,71.088 927.191,71.088 927.191,71.088C926.093,69.99 925.439,68.682 925.266,67.15C924.881,67.212 924.481,67.243 924.067,67.243C923.641,67.243 923.231,67.211 922.837,67.147C922.665,68.681 922.011,69.99 920.912,71.088C919.595,72.406 918.006,73.063 916.147,73.063C914.287,73.063 912.698,72.406 911.381,71.088C911.381,71.088 911.381,71.088 911.381,71.088C910.084,69.791 909.407,68.201 909.407,66.293C909.407,66.293 909.407,48.713 909.407,48.713C909.407,47.24 909.845,45.9 910.736,44.699C911.644,43.475 912.813,42.674 914.207,42.271C915.766,41.795 917.167,41.888 918.407,42.327C919.653,42.768 920.811,43.584 921.733,44.959C921.733,44.959 924.057,48.402 924.057,48.402C924.057,48.402 926.366,44.964 926.356,44.979C927.281,43.593 928.444,42.77 929.696,42.327C930.949,41.884 932.364,41.793 933.889,42.269C935.296,42.678 936.462,43.479 937.367,44.699C938.259,45.9 938.697,47.24 938.697,48.713L938.697,52.788C938.104,53.156 937.558,53.618 937.057,54.173C935.617,55.713 934.897,57.643 934.897,59.963C934.897,62.263 935.617,64.183 937.057,65.723C937.546,66.265 938.079,66.718 938.655,67.082C938.57,67.899 938.35,68.653 937.998,69.345C937.822,69.206 937.618,69.103 937.387,69.038C936.927,68.908 936.487,68.953 936.067,69.173C935.647,69.413 935.372,69.763 935.242,70.223C935.112,70.683 935.157,71.123 935.377,71.543C935.46,71.693 935.547,71.84 935.638,71.982ZM930.727,67.553C931.067,67.893 931.477,68.063 931.957,68.063C932.437,68.063 932.847,67.893 933.187,67.553C933.527,67.213 933.697,66.793 933.697,66.293L933.697,48.713C933.697,48.333 933.582,47.988 933.352,47.678C933.122,47.368 932.827,47.163 932.467,47.063C931.647,46.803 930.997,47.033 930.517,47.753L924.067,57.353L917.587,47.753C917.107,47.033 916.457,46.803 915.637,47.063C915.277,47.163 914.982,47.368 914.752,47.678C914.522,47.988 914.407,48.333 914.407,48.713L914.407,66.293C914.407,66.793 914.577,67.213 914.917,67.553C915.257,67.893 915.667,68.063 916.147,68.063C916.627,68.063 917.037,67.893 917.377,67.553C917.717,67.213 917.887,66.793 917.887,66.293L917.887,54.443L922.597,61.463C922.957,61.983 923.447,62.243 924.067,62.243C924.667,62.243 925.147,61.983 925.507,61.463L930.217,54.443L930.217,66.293C930.217,66.793 930.387,67.213 930.727,67.553ZM938.697,58.018C938.483,58.601 938.377,59.25 938.377,59.963C938.377,60.666 938.483,61.307 938.697,61.885L938.697,58.018Z" style="fill:rgb(2,89,50);"/>
            <path d="M933.697,50.448L933.697,66.293C933.697,66.793 933.527,67.213 933.187,67.553C932.847,67.893 932.437,68.063 931.957,68.063C931.544,68.063 931.183,67.937 930.875,67.686C930.696,68.055 930.548,68.447 930.43,68.863C929.938,70.606 930.114,72.272 930.947,73.863C930.965,73.897 930.984,73.931 931.003,73.965C932.166,76.065 933.781,77.72 935.849,78.932C937.916,80.143 940.129,80.743 942.487,80.743C946.105,80.743 949.199,79.462 951.767,76.893C954.335,74.325 955.617,71.231 955.617,67.613C955.617,67.613 955.617,53.423 955.617,53.423C955.617,51.563 954.959,49.975 953.642,48.657C952.325,47.34 950.736,46.683 948.877,46.683C947.954,46.683 947.103,46.848 946.321,47.168C945.193,46.845 944.006,46.683 942.757,46.683C939.132,46.683 936.118,47.951 933.697,50.448ZM948.877,51.683C949.357,51.683 949.767,51.853 950.107,52.193C950.447,52.533 950.617,52.943 950.617,53.423L950.617,67.613C950.617,69.853 949.822,71.768 948.232,73.358C946.642,74.948 944.727,75.743 942.487,75.743C941.027,75.743 939.657,75.368 938.377,74.618C937.097,73.868 936.097,72.843 935.377,71.543C935.157,71.123 935.112,70.683 935.242,70.223C935.372,69.763 935.647,69.413 936.067,69.173C936.487,68.953 936.927,68.908 937.387,69.038C937.847,69.168 938.197,69.443 938.437,69.863C938.837,70.603 939.402,71.183 940.132,71.603C940.862,72.023 941.647,72.233 942.487,72.233C943.767,72.233 944.862,71.783 945.772,70.883C946.682,69.983 947.137,68.893 947.137,67.613L947.137,66.893C945.837,67.773 944.377,68.213 942.757,68.213C940.457,68.213 938.557,67.383 937.057,65.723C935.617,64.183 934.897,62.263 934.897,59.963C934.897,57.643 935.617,55.713 937.057,54.173C938.557,52.513 940.457,51.683 942.757,51.683C944.397,51.683 945.867,52.133 947.167,53.033C947.267,52.633 947.472,52.308 947.782,52.058C948.092,51.808 948.457,51.683 948.877,51.683ZM942.757,64.733C944.017,64.733 945.062,64.283 945.892,63.383C946.722,62.483 947.137,61.343 947.137,59.963C947.137,58.563 946.722,57.413 945.892,56.513C945.062,55.613 944.017,55.163 942.757,55.163C941.477,55.163 940.427,55.613 939.607,56.513C938.787,57.413 938.377,58.563 938.377,59.963C938.377,61.343 938.787,62.483 939.607,63.383C940.427,64.283 941.477,64.733 942.757,64.733ZM930.217,56.838C930.004,57.823 929.897,58.865 929.897,59.963C929.897,61.059 930.004,62.099 930.217,63.084L930.217,56.838ZM943.233,59.948C943.104,60.075 942.952,60.163 942.757,60.163C942.558,60.163 942.398,60.081 942.264,59.948C942.398,59.815 942.558,59.733 942.757,59.733C942.952,59.733 943.104,59.821 943.233,59.948Z" style="fill:rgb(2,89,50);"/>
        </g>
        <g transform="matrix(1.56522,0,0,1.3089,-516.505,-9.64201)">
            <g transform="matrix(30,0,0,30,913.807,68.0629)">
                <path d="M0.564,-0.017C0.575,-0.006 0.589,-0 0.605,-0C0.621,-0 0.635,-0.006 0.646,-0.017C0.657,-0.028 0.663,-0.042 0.663,-0.059L0.663,-0.645C0.663,-0.658 0.659,-0.669 0.652,-0.68C0.644,-0.69 0.634,-0.697 0.622,-0.7C0.595,-0.709 0.573,-0.701 0.557,-0.677L0.342,-0.357L0.126,-0.677C0.11,-0.701 0.088,-0.709 0.061,-0.7C0.049,-0.697 0.039,-0.69 0.032,-0.68C0.024,-0.669 0.02,-0.658 0.02,-0.645L0.02,-0.059C0.02,-0.042 0.026,-0.028 0.037,-0.017C0.048,-0.006 0.062,-0 0.078,-0C0.094,-0 0.108,-0.006 0.119,-0.017C0.13,-0.028 0.136,-0.042 0.136,-0.059L0.136,-0.454L0.293,-0.22C0.305,-0.203 0.321,-0.194 0.342,-0.194C0.362,-0.194 0.378,-0.203 0.39,-0.22L0.547,-0.454L0.547,-0.059C0.547,-0.042 0.553,-0.028 0.564,-0.017Z" style="fill:white;fill-rule:nonzero;"/>
            </g>
            <g transform="matrix(30,0,0,30,934.297,68.0629)">
                <path d="M0.486,-0.546C0.502,-0.546 0.516,-0.54 0.527,-0.529C0.538,-0.518 0.544,-0.504 0.544,-0.488L0.544,-0.015C0.544,0.06 0.518,0.123 0.465,0.176C0.411,0.229 0.348,0.256 0.273,0.256C0.224,0.256 0.179,0.243 0.136,0.218C0.093,0.193 0.06,0.159 0.036,0.116C0.029,0.102 0.027,0.087 0.032,0.072C0.036,0.057 0.045,0.045 0.059,0.037C0.073,0.03 0.088,0.028 0.103,0.032C0.118,0.037 0.13,0.046 0.138,0.06C0.151,0.085 0.17,0.104 0.195,0.118C0.219,0.132 0.245,0.139 0.273,0.139C0.316,0.139 0.352,0.124 0.383,0.094C0.413,0.064 0.428,0.028 0.428,-0.015L0.428,-0.039C0.385,-0.01 0.336,0.005 0.282,0.005C0.205,0.005 0.142,-0.023 0.092,-0.078C0.044,-0.129 0.02,-0.193 0.02,-0.27C0.02,-0.347 0.044,-0.412 0.092,-0.463C0.142,-0.518 0.205,-0.546 0.282,-0.546C0.337,-0.546 0.386,-0.531 0.429,-0.501C0.432,-0.514 0.439,-0.525 0.45,-0.534C0.46,-0.542 0.472,-0.546 0.486,-0.546ZM0.282,-0.111C0.324,-0.111 0.359,-0.126 0.387,-0.156C0.414,-0.186 0.428,-0.224 0.428,-0.27C0.428,-0.317 0.414,-0.355 0.387,-0.385C0.359,-0.415 0.324,-0.43 0.282,-0.43C0.239,-0.43 0.204,-0.415 0.177,-0.385C0.15,-0.355 0.136,-0.317 0.136,-0.27C0.136,-0.224 0.15,-0.186 0.177,-0.156C0.204,-0.126 0.239,-0.111 0.282,-0.111Z" style="fill:white;fill-rule:nonzero;"/>
            </g>
        </g>
    </g>
    <path id="number-face" serif:id="number face" d="M13.94,43.528C13.876,44.296 14.092,44.976 14.588,45.568C15.084,46.16 15.716,46.488 16.484,46.552C17.252,46.616 17.924,46.392 18.5,45.88L24.74,40.696C25.316,40.184 25.636,39.544 25.7,38.776C25.764,38.008 25.548,37.336 25.052,36.76C24.556,36.184 23.924,35.856 23.156,35.776C22.388,35.696 21.716,35.912 21.14,36.424L14.948,41.656C14.34,42.136 14.004,42.76 13.94,43.528ZM20.948,68.632C21.492,69.176 22.148,69.448 22.916,69.448C23.684,69.448 24.34,69.176 24.884,68.632C25.428,68.088 25.7,67.432 25.7,66.664L25.7,38.536C25.7,37.768 25.428,37.112 24.884,36.568C24.34,36.024 23.684,35.752 22.916,35.752C22.148,35.752 21.492,36.024 20.948,36.568C20.404,37.112 20.132,37.768 20.132,38.536L20.132,66.664C20.132,67.432 20.404,68.088 20.948,68.632Z" style="fill:white;fill-rule:nonzero;"/>
    <path d="M46.82,69.448C47.588,69.448 48.244,69.176 48.788,68.632C49.332,68.088 49.604,67.432 49.604,66.664C49.604,65.896 49.332,65.24 48.788,64.696C48.244,64.152 47.588,63.88 46.82,63.88L33.908,63.88C34.42,62.952 35.18,62.04 36.188,61.144C37.196,60.248 38.628,59.128 40.484,57.784C41.956,56.728 43.068,55.888 43.82,55.264C44.572,54.64 45.484,53.768 46.556,52.648C47.628,51.528 48.404,50.368 48.884,49.168C49.364,47.968 49.604,46.664 49.604,45.256C49.604,42.76 48.724,40.6 46.964,38.776C45.076,36.76 42.516,35.752 39.284,35.752C36.212,35.752 33.724,36.768 31.82,38.8C29.916,40.832 28.964,43.16 28.964,45.784C28.964,46.552 29.236,47.208 29.78,47.752C30.324,48.296 30.98,48.568 31.748,48.568C32.516,48.568 33.172,48.296 33.716,47.752C34.26,47.208 34.532,46.552 34.532,45.784C34.532,44.824 34.9,43.84 35.636,42.832C36.372,41.824 37.588,41.32 39.284,41.32C40.948,41.32 42.156,41.736 42.908,42.568C43.66,43.4 44.036,44.296 44.036,45.256C44.036,45.992 43.884,46.688 43.58,47.344C43.276,48 42.724,48.712 41.924,49.48C41.124,50.248 40.452,50.84 39.908,51.256C39.364,51.672 38.468,52.344 37.22,53.272C36.004,54.136 35.076,54.824 34.436,55.336C33.796,55.848 32.972,56.576 31.964,57.52C30.956,58.464 30.188,59.336 29.66,60.136C29.132,60.936 28.66,61.912 28.244,63.064C27.828,64.216 27.62,65.416 27.62,66.664C27.62,67.432 27.892,68.088 28.436,68.632C28.98,69.176 29.636,69.448 30.404,69.448L46.82,69.448Z" style="fill:white;fill-rule:nonzero;"/>
</svg>
