<?xml version="1.0" encoding="UTF-8" standalone="no"?>
<!DOCTYPE svg PUBLIC "-//W3C//DTD SVG 1.1//EN" "http://www.w3.org/Graphics/SVG/1.1/DTD/svg11.dtd">
<svg width="100%" height="100%" viewBox="0 0 101 101" version="1.1" xmlns="http://www.w3.org/2000/svg" xmlns:xlink="http://www.w3.org/1999/xlink" xml:space="preserve" xmlns:serif="http://www.serif.com/" style="fill-rule:evenodd;clip-rule:evenodd;stroke-linejoin:round;stroke-miterlimit:2;">
    <rect id="_13" serif:id="13" x="0.361" y="0.33" width="100" height="100" style="fill:none;"/>
    <path id="number-big-stroke" serif:id="number big stroke" d="M43.408,66.386L43.16,66.136C41.272,64.248 40.328,61.912 40.328,59.128C40.328,58.36 40.6,57.704 41.144,57.16C41.688,56.616 42.344,56.344 43.112,56.344C43.213,56.344 43.312,56.349 43.408,56.359L43.408,47.736C42.977,47.609 42.591,47.375 42.248,47.032C41.704,46.488 41.432,45.816 41.432,45.016C41.432,42.873 42.091,40.991 43.408,39.371L43.408,38.907C43.478,37.598 43.247,36.391 42.721,35.285L42.615,35.067C42.249,34.335 41.753,33.658 41.128,33.033C39.607,31.512 37.772,30.752 35.624,30.752C35.485,30.752 35.347,30.755 35.211,30.762C34.482,30.787 33.786,30.915 33.122,31.144C32.03,31.505 31.043,32.122 30.161,32.994L24.48,37.794C22.785,39.16 21.847,40.936 21.666,43.113L21.666,43.113C21.488,45.246 22.086,47.135 23.464,48.779C23.464,48.779 23.464,48.779 23.464,48.779C24.646,50.191 26.105,51.066 27.84,51.403L27.84,66.664C27.84,68.812 28.6,70.647 30.121,72.168C30.121,72.168 30.121,72.168 30.121,72.168C31.642,73.689 33.477,74.448 35.624,74.448C37.772,74.448 39.607,73.689 41.128,72.168C42.649,70.647 43.408,68.812 43.408,66.664L43.408,66.386ZM38.064,37.185C37.941,36.965 37.784,36.76 37.592,36.568C37.048,36.024 36.392,35.752 35.624,35.752C34.856,35.752 34.2,36.024 33.656,36.568L33.583,36.648L27.656,41.656C27.048,42.136 26.712,42.76 26.648,43.528C26.584,44.296 26.8,44.976 27.296,45.568C27.792,46.16 28.424,46.488 29.192,46.552C29.96,46.616 30.632,46.392 31.208,45.88L32.84,44.524L32.84,38.536C32.84,37.805 33.087,37.175 33.583,36.648L33.848,36.424C34.424,35.912 35.096,35.696 35.864,35.776C36.632,35.856 37.264,36.184 37.76,36.76C37.878,36.896 37.979,37.037 38.064,37.185L38.084,37.218L38.107,37.265C38.309,37.647 38.408,38.071 38.408,38.536L38.408,38.776C38.344,39.544 38.024,40.184 37.448,40.696L32.84,44.524L32.84,66.664C32.84,67.432 33.112,68.088 33.656,68.632C34.2,69.176 34.856,69.448 35.624,69.448C36.392,69.448 37.048,69.176 37.592,68.632C38.136,68.088 38.408,67.432 38.408,66.664L38.408,38.776C38.455,38.222 38.355,37.718 38.107,37.265L38.09,37.228L38.084,37.218L38.08,37.21L38.064,37.185Z" style="fill:rgb(99,9,42);"/>
    <path d="M38.346,37.889C38.414,38.169 38.434,38.465 38.408,38.776L38.408,50.246C38.506,50.356 38.608,50.463 38.713,50.568C38.713,50.568 38.713,50.568 38.713,50.568C39.22,51.075 39.761,51.497 40.338,51.832C39.651,52.09 39.008,52.453 38.408,52.921L38.408,66.664C38.408,67.124 38.311,67.544 38.114,67.923C38.55,68.513 39.038,69.08 39.576,69.623C42.55,72.76 46.506,74.448 51.512,74.448C56.459,74.448 60.431,72.78 63.5,69.619C63.502,69.617 63.504,69.615 63.506,69.612C66.331,66.692 67.744,63.198 67.744,59.128C67.744,55.984 66.922,53.287 65.281,51.034C66.15,49.277 66.592,47.274 66.592,45.016C66.592,41.255 65.288,38.01 62.673,35.284C59.909,32.344 56.221,30.752 51.512,30.752C46.914,30.752 43.228,32.312 40.383,35.251C40.381,35.254 40.379,35.256 40.376,35.259C39.578,36.087 38.901,36.964 38.346,37.889ZM51.512,69.448C54.968,69.448 57.768,68.344 59.912,66.136C61.8,64.184 62.744,61.848 62.744,59.128C62.744,55.96 61.448,53.496 58.856,51.736C58.76,51.64 58.648,51.56 58.52,51.496C60.568,49.928 61.592,47.768 61.592,45.016C61.592,42.584 60.744,40.488 59.048,38.728C57.192,36.744 54.68,35.752 51.512,35.752C48.408,35.752 45.896,36.744 43.976,38.728C42.28,40.488 41.432,42.584 41.432,45.016C41.432,45.816 41.704,46.488 42.248,47.032C42.792,47.576 43.448,47.848 44.216,47.848C44.984,47.848 45.64,47.576 46.184,47.032C46.728,46.488 47,45.816 47,45.016C47,44.12 47.36,43.28 48.08,42.496C48.8,41.712 49.944,41.32 51.512,41.32C53.08,41.32 54.224,41.712 54.944,42.496C55.664,43.28 56.024,44.12 56.024,45.016C56.024,45.944 55.688,46.648 55.016,47.128C54.344,47.608 52.888,48.168 50.648,48.808L50.552,48.856C49.976,48.952 49.472,49.216 49.04,49.648C48.608,50.08 48.36,50.6 48.296,51.208C48.2,51.88 48.336,52.512 48.704,53.104C49.072,53.696 49.592,54.088 50.264,54.28L50.648,54.376C53.24,55.112 54.968,55.784 55.832,56.392C56.696,57 57.128,57.912 57.128,59.128C57.128,60.28 56.688,61.36 55.808,62.368C54.928,63.376 53.496,63.88 51.512,63.88C49.528,63.88 48.096,63.376 47.216,62.368C46.336,61.36 45.896,60.28 45.896,59.128C45.896,58.36 45.624,57.704 45.08,57.16C44.536,56.616 43.88,56.344 43.112,56.344C42.344,56.344 41.688,56.616 41.144,57.16C40.6,57.704 40.328,58.36 40.328,59.128C40.328,61.912 41.272,64.248 43.16,66.136C45.24,68.344 48.024,69.448 51.512,69.448ZM51.995,45.253C51.998,45.213 51.999,45.174 52,45.134C52,45.095 52,45.055 52,45.016L51.995,45.253ZM38.338,37.902C37.732,38.912 37.27,39.981 36.954,41.107L37.448,40.696C38.024,40.184 38.344,39.544 38.408,38.776L38.408,38.536C38.408,38.315 38.386,38.103 38.338,37.902Z" style="fill:rgb(99,9,42);"/>
    <g id="letter" transform="matrix(0.42038,0,0,0.764002,-319.679,8.75191)">
        <g transform="matrix(2.3788,0,0,1.3089,-1259.96,-9.64201)">
            <path d="M938.137,64.897L938.137,66.323C938.137,66.803 937.962,67.213 937.612,67.553C937.262,67.893 936.847,68.063 936.367,68.063C935.887,68.063 935.477,67.893 935.137,67.553C934.797,67.213 934.627,66.803 934.627,66.323L934.627,56.604L930.021,46.104C928.912,43.407 926.87,42.003 923.827,42.003C920.779,42.003 918.735,43.411 917.624,46.122C917.632,46.104 909.948,63.625 909.948,63.625C909.931,63.663 909.915,63.701 909.899,63.74C909.215,65.411 909.202,67.083 909.848,68.755C909.848,68.755 909.848,68.755 909.848,68.755C910.502,70.449 911.663,71.695 913.358,72.465C913.358,72.465 913.358,72.465 913.358,72.465C915.092,73.253 916.845,73.295 918.619,72.585C920.313,71.907 921.535,70.739 922.288,69.082L922.815,67.873C922.815,67.873 924.838,67.873 924.838,67.873L925.369,69.092C926.597,71.777 928.668,73.063 931.507,73.063C932.617,73.063 933.563,72.817 934.367,72.432C935.979,71.683 937.116,70.48 937.784,68.846C938.323,67.53 938.444,66.214 938.137,64.897ZM933.127,65.633C933.327,66.073 933.337,66.513 933.157,66.953C932.977,67.393 932.667,67.713 932.227,67.913C932.027,68.013 931.787,68.063 931.507,68.063C930.767,68.063 930.237,67.713 929.917,67.013L928.117,62.873L919.537,62.873L917.737,67.013C917.537,67.453 917.212,67.763 916.762,67.943C916.312,68.123 915.867,68.113 915.427,67.913C914.987,67.713 914.682,67.393 914.512,66.953C914.342,66.513 914.347,66.073 914.527,65.633L922.237,48.053C922.517,47.353 923.047,47.003 923.827,47.003C924.607,47.003 925.137,47.353 925.417,48.053L933.127,65.633ZM921.067,59.393L926.587,59.393L923.827,53.093L921.067,59.393Z" style="fill:rgb(99,9,42);"/>
            <path d="M929.627,57.652L929.627,48.743C929.627,46.883 930.284,45.294 931.601,43.977C932.918,42.66 934.507,42.003 936.367,42.003C938.188,42.003 939.767,42.636 941.096,43.927C942.465,45.256 943.137,46.865 943.137,48.743L943.137,66.323C943.137,68.2 942.465,69.809 941.096,71.139C939.767,72.429 938.188,73.063 936.367,73.063C934.507,73.063 932.918,72.406 931.601,71.088C931.601,71.088 931.601,71.088 931.601,71.088C930.29,69.777 929.632,68.196 929.627,66.347L929.917,67.013C930.237,67.713 930.767,68.063 931.507,68.063C931.787,68.063 932.027,68.013 932.227,67.913C932.667,67.713 932.977,67.393 933.157,66.953C933.337,66.513 933.327,66.073 933.127,65.633L929.627,57.652ZM935.137,67.553C935.477,67.893 935.887,68.063 936.367,68.063C936.847,68.063 937.262,67.893 937.612,67.553C937.962,67.213 938.137,66.803 938.137,66.323L938.137,48.743C938.137,48.263 937.962,47.853 937.612,47.513C937.262,47.173 936.847,47.003 936.367,47.003C935.887,47.003 935.477,47.173 935.137,47.513C934.797,47.853 934.627,48.263 934.627,48.743L934.627,66.323C934.627,66.803 934.797,67.213 935.137,67.553Z" style="fill:rgb(99,9,42);"/>
        </g>
        <g transform="matrix(2.3788,0,0,1.3089,-1259.96,-9.64201)">
            <g transform="matrix(30,0,0,30,913.807,68.0629)">
                <path d="M0.644,-0.081C0.651,-0.066 0.651,-0.052 0.645,-0.037C0.639,-0.022 0.629,-0.012 0.614,-0.005C0.607,-0.002 0.599,-0 0.59,-0C0.565,-0 0.548,-0.012 0.537,-0.035L0.477,-0.173L0.191,-0.173L0.131,-0.035C0.124,-0.02 0.114,-0.01 0.099,-0.004C0.084,0.002 0.069,0.002 0.054,-0.005C0.039,-0.012 0.029,-0.022 0.024,-0.037C0.018,-0.052 0.018,-0.066 0.024,-0.081L0.281,-0.667C0.29,-0.69 0.308,-0.702 0.334,-0.702C0.36,-0.702 0.378,-0.69 0.387,-0.667L0.644,-0.081ZM0.242,-0.289L0.426,-0.289L0.334,-0.499L0.242,-0.289Z" style="fill:white;fill-rule:nonzero;"/>
            </g>
            <g transform="matrix(30,0,0,30,933.877,68.0629)">
                <path d="M0.042,-0.017C0.053,-0.006 0.067,-0 0.083,-0C0.099,-0 0.113,-0.006 0.125,-0.017C0.136,-0.028 0.142,-0.042 0.142,-0.058L0.142,-0.644C0.142,-0.66 0.136,-0.674 0.125,-0.685C0.113,-0.696 0.099,-0.702 0.083,-0.702C0.067,-0.702 0.053,-0.696 0.042,-0.685C0.031,-0.674 0.025,-0.66 0.025,-0.644L0.025,-0.058C0.025,-0.042 0.031,-0.028 0.042,-0.017Z" style="fill:white;fill-rule:nonzero;"/>
            </g>
        </g>
    </g>
    <path id="number-face" serif:id="number face" d="M26.648,43.528C26.584,44.296 26.8,44.976 27.296,45.568C27.792,46.16 28.424,46.488 29.192,46.552C29.96,46.616 30.632,46.392 31.208,45.88L37.448,40.696C38.024,40.184 38.344,39.544 38.408,38.776C38.472,38.008 38.256,37.336 37.76,36.76C37.264,36.184 36.632,35.856 35.864,35.776C35.096,35.696 34.424,35.912 33.848,36.424L27.656,41.656C27.048,42.136 26.712,42.76 26.648,43.528ZM33.656,68.632C34.2,69.176 34.856,69.448 35.624,69.448C36.392,69.448 37.048,69.176 37.592,68.632C38.136,68.088 38.408,67.432 38.408,66.664L38.408,38.536C38.408,37.768 38.136,37.112 37.592,36.568C37.048,36.024 36.392,35.752 35.624,35.752C34.856,35.752 34.2,36.024 33.656,36.568C33.112,37.112 32.84,37.768 32.84,38.536L32.84,66.664C32.84,67.432 33.112,68.088 33.656,68.632Z" style="fill:white;fill-rule:nonzero;"/>
    <path d="M51.512,69.448C54.968,69.448 57.768,68.344 59.912,66.136C61.8,64.184 62.744,61.848 62.744,59.128C62.744,55.96 61.448,53.496 58.856,51.736C58.76,51.64 58.648,51.56 58.52,51.496C60.568,49.928 61.592,47.768 61.592,45.016C61.592,42.584 60.744,40.488 59.048,38.728C57.192,36.744 54.68,35.752 51.512,35.752C48.408,35.752 45.896,36.744 43.976,38.728C42.28,40.488 41.432,42.584 41.432,45.016C41.432,45.816 41.704,46.488 42.248,47.032C42.792,47.576 43.448,47.848 44.216,47.848C44.984,47.848 45.64,47.576 46.184,47.032C46.728,46.488 47,45.816 47,45.016C47,44.12 47.36,43.28 48.08,42.496C48.8,41.712 49.944,41.32 51.512,41.32C53.08,41.32 54.224,41.712 54.944,42.496C55.664,43.28 56.024,44.12 56.024,45.016C56.024,45.944 55.688,46.648 55.016,47.128C54.344,47.608 52.888,48.168 50.648,48.808L50.552,48.856C49.976,48.952 49.472,49.216 49.04,49.648C48.608,50.08 48.36,50.6 48.296,51.208C48.2,51.88 48.336,52.512 48.704,53.104C49.072,53.696 49.592,54.088 50.264,54.28L50.648,54.376C53.24,55.112 54.968,55.784 55.832,56.392C56.696,57 57.128,57.912 57.128,59.128C57.128,60.28 56.688,61.36 55.808,62.368C54.928,63.376 53.496,63.88 51.512,63.88C49.528,63.88 48.096,63.376 47.216,62.368C46.336,61.36 45.896,60.28 45.896,59.128C45.896,58.36 45.624,57.704 45.08,57.16C44.536,56.616 43.88,56.344 43.112,56.344C42.344,56.344 41.688,56.616 41.144,57.16C40.6,57.704 40.328,58.36 40.328,59.128C40.328,61.912 41.272,64.248 43.16,66.136C45.24,68.344 48.024,69.448 51.512,69.448Z" style="fill:white;fill-rule:nonzero;"/>
</svg>
