<?xml version="1.0" encoding="UTF-8" standalone="no"?>
<!DOCTYPE svg PUBLIC "-//W3C//DTD SVG 1.1//EN" "http://www.w3.org/Graphics/SVG/1.1/DTD/svg11.dtd">
<svg width="100%" height="100%" viewBox="0 0 101 101" version="1.1" xmlns="http://www.w3.org/2000/svg" xmlns:xlink="http://www.w3.org/1999/xlink" xml:space="preserve" xmlns:serif="http://www.serif.com/" style="fill-rule:evenodd;clip-rule:evenodd;stroke-linejoin:round;stroke-miterlimit:2;">
    <rect id="_14" serif:id="14" x="0.429" y="0.33" width="100" height="100" style="fill:none;"/>
    <path id="number-big-stroke" serif:id="number big stroke" d="M39.741,62.104L39.741,66.664C39.741,68.812 38.981,70.647 37.46,72.168C35.939,73.689 34.104,74.448 31.957,74.448C29.809,74.448 27.974,73.689 26.453,72.168C26.453,72.168 26.453,72.168 26.453,72.168C24.932,70.647 24.173,68.812 24.173,66.664L24.173,51.403C22.438,51.066 20.978,50.191 19.796,48.779C19.796,48.779 19.796,48.779 19.796,48.779C18.418,47.135 17.82,45.246 17.998,43.113L17.998,43.113C18.179,40.936 19.117,39.16 20.812,37.794L26.493,32.994C27.375,32.122 28.362,31.505 29.454,31.144C30.118,30.915 30.814,30.787 31.543,30.762C31.68,30.755 31.817,30.752 31.957,30.752C34.104,30.752 35.939,31.512 37.46,33.033C38.085,33.658 38.581,34.335 38.947,35.067L39.053,35.285C39.579,36.391 39.81,37.598 39.741,38.907L39.741,50.513L36.805,58.312C36.485,59.272 36.597,60.136 37.141,60.904C37.717,61.704 38.485,62.104 39.445,62.104L39.741,62.104ZM34.741,38.776C34.677,39.544 34.357,40.184 33.781,40.696L29.173,44.524L29.173,66.664C29.173,67.432 29.445,68.088 29.989,68.632C30.533,69.176 31.189,69.448 31.957,69.448C32.725,69.448 33.381,69.176 33.925,68.632C34.469,68.088 34.741,67.432 34.741,66.664L34.741,38.776C34.787,38.222 34.687,37.718 34.439,37.265L34.422,37.228L34.416,37.218L34.412,37.21L34.396,37.185C34.274,36.965 34.116,36.76 33.925,36.568C33.381,36.024 32.725,35.752 31.957,35.752C31.189,35.752 30.533,36.024 29.989,36.568L29.915,36.648L23.989,41.656C23.381,42.136 23.045,42.76 22.981,43.528C22.917,44.296 23.133,44.976 23.629,45.568C24.125,46.16 24.757,46.488 25.525,46.552C26.293,46.616 26.965,46.392 27.541,45.88L29.173,44.524L29.173,38.536C29.173,37.805 29.419,37.175 29.915,36.648L30.181,36.424C30.757,35.912 31.429,35.696 32.197,35.776C32.965,35.856 33.597,36.184 34.093,36.76C34.21,36.896 34.311,37.037 34.396,37.185L34.416,37.218L34.439,37.265C34.641,37.647 34.741,38.071 34.741,38.536L34.741,38.776Z" style="fill:rgb(36,36,36);"/>
    <path d="M34.741,49.603L34.741,65.571C36.06,66.599 37.632,67.104 39.445,67.104L42.28,67.104C42.377,69.063 43.133,70.752 44.549,72.168C44.549,72.168 44.549,72.168 44.549,72.168C46.07,73.689 47.905,74.448 50.053,74.448C52.2,74.448 54.035,73.689 55.556,72.168C57.041,70.683 57.8,68.898 57.833,66.816C59.077,66.47 60.19,65.806 61.172,64.824C62.673,63.323 63.453,61.48 63.453,59.272C63.453,57.125 62.693,55.29 61.172,53.769C60.015,52.611 58.676,51.895 57.156,51.62C56.78,50.799 56.247,50.044 55.556,49.353C54.581,48.378 53.477,47.716 52.244,47.368L54.559,41.205C55.263,39.271 55.214,37.336 54.379,35.402C53.532,33.441 52.1,32.042 50.051,31.24C49.991,31.217 49.931,31.195 49.871,31.174C47.87,30.478 45.913,30.571 44,31.44C42.005,32.347 40.662,33.814 39.934,35.807L34.741,49.603ZM55.669,56.488C56.437,56.488 57.093,56.76 57.637,57.304C58.181,57.848 58.453,58.504 58.453,59.272C58.453,60.072 58.181,60.744 57.637,61.288C57.093,61.832 56.437,62.104 55.669,62.104L52.837,62.104L52.837,66.664C52.837,67.432 52.565,68.088 52.021,68.632C51.477,69.176 50.821,69.448 50.053,69.448C49.285,69.448 48.629,69.176 48.085,68.632C47.541,68.088 47.269,67.432 47.269,66.664L47.269,62.104L39.445,62.104C38.485,62.104 37.717,61.704 37.141,60.904C36.597,60.136 36.485,59.272 36.805,58.312L44.629,37.528C44.885,36.824 45.365,36.312 46.069,35.992C46.773,35.672 47.493,35.64 48.229,35.896C48.965,36.184 49.485,36.68 49.789,37.384C50.093,38.088 50.117,38.792 49.861,39.496L43.477,56.488L47.269,56.488L47.269,54.856C47.269,54.088 47.541,53.432 48.085,52.888C48.629,52.344 49.285,52.072 50.053,52.072C50.821,52.072 51.477,52.344 52.021,52.888C52.565,53.432 52.837,54.088 52.837,54.856L52.837,56.488L55.669,56.488Z" style="fill:rgb(36,36,36);"/>
    <g id="letter" transform="matrix(0.42038,0,0,0.764002,-323.971,8.75191)">
        <g transform="matrix(2.3788,0,0,1.3089,-1259.96,-9.64201)">
            <path d="M929.995,67.406C929.711,67.802 929.392,68.186 929.04,68.557C929.032,68.566 929.023,68.574 929.015,68.583C927.047,70.612 924.486,71.697 921.277,71.697C918.147,71.697 915.594,70.639 913.577,68.622C913.556,68.601 913.534,68.579 913.513,68.557C911.682,66.63 910.773,64.354 910.773,61.733C910.773,60.25 911.297,58.984 912.347,57.933L912.525,57.764C911.639,56.404 911.193,54.798 911.193,52.943C911.193,50.421 912.063,48.237 913.809,46.394C913.818,46.384 913.827,46.375 913.836,46.365C915.723,44.417 918.184,43.369 921.277,43.369C924.37,43.369 926.83,44.417 928.717,46.365C928.719,46.367 928.72,46.368 928.721,46.37C929.048,46.708 929.345,47.059 929.611,47.42C929.534,47.614 929.497,47.825 929.497,48.053C929.497,48.553 929.677,48.973 930.037,49.313C930.276,49.539 930.551,49.69 930.862,49.764C931.064,50.333 931.208,50.923 931.294,51.536C930.841,51.548 930.452,51.718 930.127,52.043C929.787,52.383 929.617,52.793 929.617,53.273L929.617,66.323C929.617,66.736 929.742,67.097 929.995,67.406ZM921.277,68.063C923.397,68.063 925.107,67.393 926.407,66.053C927.567,64.833 928.147,63.393 928.147,61.733C928.147,59.733 927.367,58.193 925.807,57.113C925.007,56.533 923.677,55.983 921.817,55.463C920.337,55.023 919.382,54.643 918.952,54.323C918.522,54.003 918.307,53.543 918.307,52.943C918.307,52.343 918.542,51.783 919.012,51.263C919.482,50.743 920.237,50.483 921.277,50.483C922.317,50.483 923.072,50.743 923.542,51.263C924.012,51.783 924.247,52.343 924.247,52.943C924.247,53.423 924.417,53.833 924.757,54.173C925.097,54.513 925.507,54.683 925.987,54.683C926.487,54.683 926.907,54.513 927.247,54.173C927.587,53.833 927.757,53.423 927.757,52.943C927.757,51.383 927.207,50.033 926.107,48.893C924.887,47.633 923.277,47.003 921.277,47.003C919.277,47.003 917.667,47.633 916.447,48.893C915.367,50.033 914.827,51.383 914.827,52.943C914.827,54.803 915.577,56.243 917.077,57.263C917.797,57.763 919.057,58.283 920.857,58.823C922.377,59.263 923.392,59.668 923.902,60.038C924.412,60.408 924.667,60.973 924.667,61.733C924.667,62.413 924.397,63.058 923.857,63.668C923.317,64.278 922.457,64.583 921.277,64.583C920.097,64.583 919.237,64.278 918.697,63.668C918.157,63.058 917.887,62.413 917.887,61.733C917.887,61.253 917.717,60.843 917.377,60.503C917.037,60.163 916.627,59.993 916.147,59.993C915.667,59.993 915.257,60.163 914.917,60.503C914.577,60.843 914.407,61.253 914.407,61.733C914.407,63.393 914.987,64.833 916.147,66.053C917.487,67.393 919.197,68.063 921.277,68.063ZM921.515,61.485L921.52,61.733C921.52,61.653 921.526,61.568 921.515,61.485Z" style="fill:rgb(36,36,36);"/>
            <path d="M925.897,48.687L926.107,48.893C927.207,50.033 927.757,51.383 927.757,52.943C927.757,53.423 927.587,53.833 927.247,54.173C926.907,54.513 926.487,54.683 925.987,54.683L925.983,54.683L925.983,57.242C927.426,58.313 928.147,59.81 928.147,61.733C928.147,63.393 927.567,64.833 926.407,66.053C926.271,66.193 926.131,66.325 925.986,66.448C926.013,67.877 926.537,69.102 927.557,70.122C927.557,70.122 927.557,70.122 927.557,70.122C928.607,71.172 929.874,71.697 931.357,71.697C932.88,71.697 934.15,71.158 935.186,70.122C936.236,69.072 936.76,67.805 936.76,66.323L936.76,53.273C936.76,52.347 936.556,51.505 936.146,50.748C936.595,49.994 936.84,49.145 936.877,48.198C936.881,48.101 936.881,48.004 936.877,47.908C936.818,46.416 936.246,45.165 935.172,44.151C934.129,43.166 932.863,42.649 931.357,42.649C929.85,42.649 928.585,43.166 927.542,44.151C926.426,45.205 925.863,46.504 925.863,48.053C925.863,48.269 925.874,48.481 925.897,48.687ZM931.357,51.533C931.857,51.533 932.277,51.703 932.617,52.043C932.957,52.383 933.127,52.793 933.127,53.273L933.127,66.323C933.127,66.803 932.957,67.213 932.617,67.553C932.277,67.893 931.857,68.063 931.357,68.063C930.877,68.063 930.467,67.893 930.127,67.553C929.787,67.213 929.617,66.803 929.617,66.323L929.617,53.273C929.617,52.793 929.787,52.383 930.127,52.043C930.467,51.703 930.877,51.533 931.357,51.533ZM932.518,46.659C932.198,46.361 931.817,46.189 931.357,46.189C930.896,46.189 930.515,46.361 930.195,46.659C930.14,46.7 930.088,46.745 930.037,46.793C929.677,47.133 929.497,47.553 929.497,48.053C929.497,48.553 929.677,48.973 930.037,49.313C930.397,49.653 930.837,49.823 931.357,49.823C931.877,49.823 932.317,49.653 932.677,49.313C933.037,48.973 933.227,48.553 933.247,48.053C933.227,47.553 933.037,47.133 932.677,46.793C932.626,46.745 932.573,46.7 932.518,46.659Z" style="fill:rgb(36,36,36);"/>
        </g>
        <g transform="matrix(2.3788,0,0,1.3089,-1259.96,-9.64201)">
            <g transform="matrix(30,0,0,30,913.807,68.0629)">
                <path d="M0.249,-0C0.32,-0 0.377,-0.022 0.42,-0.067C0.459,-0.108 0.478,-0.156 0.478,-0.211C0.478,-0.278 0.452,-0.329 0.4,-0.365C0.373,-0.384 0.329,-0.403 0.267,-0.42C0.218,-0.435 0.186,-0.447 0.172,-0.458C0.157,-0.469 0.15,-0.484 0.15,-0.504C0.15,-0.524 0.158,-0.543 0.173,-0.56C0.189,-0.577 0.214,-0.586 0.249,-0.586C0.284,-0.586 0.309,-0.577 0.325,-0.56C0.34,-0.543 0.348,-0.524 0.348,-0.504C0.348,-0.488 0.354,-0.474 0.365,-0.463C0.376,-0.452 0.39,-0.446 0.406,-0.446C0.423,-0.446 0.437,-0.452 0.448,-0.463C0.459,-0.474 0.465,-0.488 0.465,-0.504C0.465,-0.556 0.447,-0.601 0.41,-0.639C0.369,-0.681 0.316,-0.702 0.249,-0.702C0.182,-0.702 0.129,-0.681 0.088,-0.639C0.052,-0.601 0.034,-0.556 0.034,-0.504C0.034,-0.442 0.059,-0.394 0.109,-0.36C0.133,-0.343 0.175,-0.326 0.235,-0.308C0.286,-0.293 0.32,-0.28 0.337,-0.268C0.354,-0.255 0.362,-0.236 0.362,-0.211C0.362,-0.188 0.353,-0.167 0.335,-0.147C0.317,-0.126 0.288,-0.116 0.249,-0.116C0.21,-0.116 0.181,-0.126 0.163,-0.147C0.145,-0.167 0.136,-0.188 0.136,-0.211C0.136,-0.227 0.13,-0.241 0.119,-0.252C0.108,-0.263 0.094,-0.269 0.078,-0.269C0.062,-0.269 0.048,-0.263 0.037,-0.252C0.026,-0.241 0.02,-0.227 0.02,-0.211C0.02,-0.156 0.039,-0.108 0.078,-0.067C0.123,-0.022 0.18,-0 0.249,-0Z" style="fill:white;fill-rule:nonzero;"/>
            </g>
            <g transform="matrix(30,0,0,30,928.747,68.0629)">
                <path d="M0.131,-0.625C0.119,-0.614 0.104,-0.608 0.087,-0.608C0.07,-0.608 0.055,-0.614 0.043,-0.625C0.031,-0.636 0.025,-0.65 0.025,-0.667C0.025,-0.684 0.031,-0.698 0.043,-0.709C0.055,-0.72 0.07,-0.726 0.087,-0.726C0.104,-0.726 0.119,-0.72 0.131,-0.709C0.143,-0.698 0.149,-0.684 0.15,-0.667C0.149,-0.65 0.143,-0.636 0.131,-0.625ZM0.087,-0.551C0.104,-0.551 0.118,-0.545 0.129,-0.534C0.14,-0.523 0.146,-0.509 0.146,-0.493L0.146,-0.058C0.146,-0.042 0.14,-0.028 0.129,-0.017C0.118,-0.006 0.104,-0 0.087,-0C0.071,-0 0.057,-0.006 0.046,-0.017C0.035,-0.028 0.029,-0.042 0.029,-0.058L0.029,-0.493C0.029,-0.509 0.035,-0.523 0.046,-0.534C0.057,-0.545 0.071,-0.551 0.087,-0.551Z" style="fill:white;fill-rule:nonzero;"/>
            </g>
        </g>
    </g>
    <path id="number-face" serif:id="number face" d="M22.981,43.528C22.917,44.296 23.133,44.976 23.629,45.568C24.125,46.16 24.757,46.488 25.525,46.552C26.293,46.616 26.965,46.392 27.541,45.88L33.781,40.696C34.357,40.184 34.677,39.544 34.741,38.776C34.805,38.008 34.589,37.336 34.093,36.76C33.597,36.184 32.965,35.856 32.197,35.776C31.429,35.696 30.757,35.912 30.181,36.424L23.989,41.656C23.381,42.136 23.045,42.76 22.981,43.528ZM29.989,68.632C30.533,69.176 31.189,69.448 31.957,69.448C32.725,69.448 33.381,69.176 33.925,68.632C34.469,68.088 34.741,67.432 34.741,66.664L34.741,38.536C34.741,37.768 34.469,37.112 33.925,36.568C33.381,36.024 32.725,35.752 31.957,35.752C31.189,35.752 30.533,36.024 29.989,36.568C29.445,37.112 29.173,37.768 29.173,38.536L29.173,66.664C29.173,67.432 29.445,68.088 29.989,68.632Z" style="fill:white;fill-rule:nonzero;"/>
    <path d="M55.669,56.488C56.437,56.488 57.093,56.76 57.637,57.304C58.181,57.848 58.453,58.504 58.453,59.272C58.453,60.072 58.181,60.744 57.637,61.288C57.093,61.832 56.437,62.104 55.669,62.104L52.837,62.104L52.837,66.664C52.837,67.432 52.565,68.088 52.021,68.632C51.477,69.176 50.821,69.448 50.053,69.448C49.285,69.448 48.629,69.176 48.085,68.632C47.541,68.088 47.269,67.432 47.269,66.664L47.269,62.104L39.445,62.104C38.485,62.104 37.717,61.704 37.141,60.904C36.597,60.136 36.485,59.272 36.805,58.312L44.629,37.528C44.885,36.824 45.365,36.312 46.069,35.992C46.773,35.672 47.493,35.64 48.229,35.896C48.965,36.184 49.485,36.68 49.789,37.384C50.093,38.088 50.117,38.792 49.861,39.496L43.477,56.488L47.269,56.488L47.269,54.856C47.269,54.088 47.541,53.432 48.085,52.888C48.629,52.344 49.285,52.072 50.053,52.072C50.821,52.072 51.477,52.344 52.021,52.888C52.565,53.432 52.837,54.088 52.837,54.856L52.837,56.488L55.669,56.488Z" style="fill:white;fill-rule:nonzero;"/>
</svg>
