<?xml version="1.0" encoding="UTF-8" standalone="no"?>
<!DOCTYPE svg PUBLIC "-//W3C//DTD SVG 1.1//EN" "http://www.w3.org/Graphics/SVG/1.1/DTD/svg11.dtd">
<svg width="100%" height="100%" viewBox="0 0 101 101" version="1.1" xmlns="http://www.w3.org/2000/svg" xmlns:xlink="http://www.w3.org/1999/xlink" xml:space="preserve" xmlns:serif="http://www.serif.com/" style="fill-rule:evenodd;clip-rule:evenodd;stroke-linejoin:round;stroke-miterlimit:2;">
    <rect id="_15" serif:id="15" x="0.918" y="0.33" width="100" height="100" style="fill:none;"/>
    <path id="number-big-stroke" serif:id="number big stroke" d="M44.551,66.514L44.255,66.232C42.399,64.216 41.471,61.912 41.471,59.32C41.471,58.552 41.743,57.896 42.287,57.352C42.831,56.808 43.503,56.536 44.303,56.536L44.551,56.547L44.551,51.69C42.945,50.197 42.143,48.228 42.143,45.784L42.143,38.536C42.143,37.768 42.415,37.112 42.959,36.568C43.298,36.229 43.68,35.996 44.106,35.868C44.036,35.67 43.954,35.476 43.863,35.285L43.757,35.067C43.391,34.335 42.895,33.658 42.27,33.033C40.749,31.512 38.914,30.752 36.767,30.752C36.627,30.752 36.49,30.755 36.353,30.762C35.624,30.787 34.928,30.915 34.264,31.144C33.172,31.505 32.185,32.122 31.303,32.994L25.622,37.794C23.927,39.16 22.989,40.936 22.808,43.113L22.808,43.113C22.63,45.246 23.228,47.135 24.606,48.779C24.606,48.779 24.606,48.779 24.606,48.779C25.789,50.191 27.248,51.066 28.983,51.403L28.983,66.664C28.983,68.812 29.742,70.647 31.263,72.168C31.263,72.168 31.263,72.168 31.263,72.168C32.784,73.689 34.619,74.448 36.767,74.448C38.914,74.448 40.749,73.689 42.27,72.168C43.791,70.647 44.551,68.812 44.551,66.664L44.551,66.514ZM39.551,38.776C39.487,39.544 39.167,40.184 38.591,40.696L33.983,44.524L33.983,66.664C33.983,67.432 34.255,68.088 34.799,68.632C35.343,69.176 35.999,69.448 36.767,69.448C37.535,69.448 38.191,69.176 38.735,68.632C39.279,68.088 39.551,67.432 39.551,66.664L39.551,38.776C39.597,38.222 39.497,37.718 39.25,37.265L39.232,37.228L39.226,37.218L39.222,37.21L39.206,37.185C39.084,36.965 38.926,36.76 38.735,36.568C38.191,36.024 37.535,35.752 36.767,35.752C35.999,35.752 35.343,36.024 34.799,36.568L34.725,36.648L28.799,41.656C28.191,42.136 27.855,42.76 27.791,43.528C27.727,44.296 27.943,44.976 28.439,45.568C28.935,46.16 29.567,46.488 30.335,46.552C31.103,46.616 31.775,46.392 32.351,45.88L33.983,44.524L33.983,38.536C33.983,37.805 34.229,37.175 34.725,36.648L34.991,36.424C35.567,35.912 36.239,35.696 37.007,35.776C37.775,35.856 38.407,36.184 38.903,36.76C39.02,36.896 39.121,37.037 39.206,37.185L39.226,37.218L39.25,37.265C39.451,37.647 39.551,38.071 39.551,38.536L39.551,38.776Z" style="fill:rgb(90,18,21);"/>
    <path d="M37.59,35.869C38.015,35.997 38.396,36.23 38.735,36.568C38.926,36.76 39.084,36.965 39.206,37.185L39.222,37.21L39.226,37.218L39.232,37.228L39.25,37.265C39.497,37.718 39.597,38.222 39.551,38.776L39.551,66.664C39.551,67.143 39.445,67.578 39.233,67.97C39.635,68.534 40.083,69.083 40.576,69.619C40.623,69.669 40.67,69.719 40.719,69.768C43.789,72.838 47.7,74.448 52.511,74.448C57.283,74.448 61.18,72.842 64.254,69.768C64.284,69.738 64.313,69.708 64.342,69.678C67.122,66.754 68.503,63.299 68.503,59.32C68.503,57.176 68.094,55.276 67.346,53.605C66.588,51.913 65.691,50.6 64.732,49.615C64.426,49.301 64.083,48.99 63.699,48.688C64.031,48.451 64.35,48.182 64.659,47.883C66.238,46.349 67.015,44.494 67.015,42.328C67.015,42.328 67.015,38.536 67.015,38.536C67.015,36.371 66.238,34.516 64.659,32.982C63.12,31.488 61.292,30.752 59.183,30.752L44.927,30.752C42.779,30.752 40.944,31.512 39.423,33.033C38.575,33.881 37.964,34.826 37.59,35.869ZM52.511,69.448C55.839,69.448 58.575,68.376 60.719,66.232C62.575,64.28 63.503,61.976 63.503,59.32C63.503,57.944 63.263,56.72 62.783,55.648C62.303,54.576 61.759,53.728 61.151,53.104C60.543,52.48 59.687,51.904 58.583,51.376C57.479,50.848 56.607,50.48 55.967,50.272C55.327,50.064 54.431,49.816 53.279,49.528C50.975,48.92 49.471,48.384 48.767,47.92C48.063,47.456 47.711,46.744 47.711,45.784L47.711,41.32L56.399,41.32L56.399,42.328C56.399,43.096 56.671,43.752 57.215,44.296C57.759,44.84 58.415,45.112 59.183,45.112C59.951,45.112 60.615,44.84 61.175,44.296C61.735,43.752 62.015,43.096 62.015,42.328L62.015,38.536C62.015,37.768 61.735,37.112 61.175,36.568C60.615,36.024 59.951,35.752 59.183,35.752L44.927,35.752C44.159,35.752 43.503,36.024 42.959,36.568C42.415,37.112 42.143,37.768 42.143,38.536L42.143,45.784C42.143,48.792 43.359,51.08 45.791,52.648C46.911,53.384 48.943,54.152 51.887,54.952C54.351,55.56 55.975,56.136 56.759,56.68C57.543,57.224 57.935,58.104 57.935,59.32C57.935,60.408 57.503,61.44 56.639,62.416C55.775,63.392 54.399,63.88 52.511,63.88C50.591,63.88 49.207,63.4 48.359,62.44C47.511,61.48 47.087,60.44 47.087,59.32C47.087,58.552 46.815,57.896 46.271,57.352C45.727,56.808 45.071,56.536 44.303,56.536C43.503,56.536 42.831,56.808 42.287,57.352C41.743,57.896 41.471,58.552 41.471,59.32C41.471,61.912 42.399,64.216 44.255,66.232C46.399,68.376 49.151,69.448 52.511,69.448ZM39.551,38.776L39.551,38.536C39.551,38.071 39.451,37.647 39.25,37.265L39.226,37.218L39.206,37.185C39.121,37.037 39.02,36.896 38.903,36.76C38.536,36.335 38.096,36.045 37.581,35.891C37.289,36.713 37.143,37.594 37.143,38.536L37.143,41.899L38.591,40.696C39.167,40.184 39.487,39.544 39.551,38.776Z" style="fill:rgb(90,18,21);"/>
    <g id="letter" transform="matrix(0.42038,0,0,0.764002,-317.921,8.75191)">
        <g transform="matrix(2.3788,0,0,1.3089,-1259.96,-9.64201)">
            <path d="M922.829,67.216C925.952,67.036 928.648,65.812 930.917,63.543C933.381,61.08 934.617,58.098 934.617,54.593C934.617,51.115 933.385,48.14 930.917,45.672C928.449,43.204 925.475,41.973 921.997,41.973L916.147,41.973C914.287,41.973 912.698,42.63 911.381,43.947C910.064,45.264 909.407,46.853 909.407,48.713L909.407,66.293C909.407,68.201 910.084,69.791 911.381,71.088C911.381,71.088 911.381,71.088 911.381,71.088C912.698,72.406 914.287,73.063 916.147,73.063C918.006,73.063 919.595,72.406 920.912,71.088C921.994,70.006 922.645,68.72 922.829,67.216ZM921.997,46.973C924.097,46.973 925.892,47.718 927.382,49.208C928.872,50.698 929.617,52.493 929.617,54.593C929.617,56.713 928.872,58.518 927.382,60.008C925.892,61.498 924.097,62.243 921.997,62.243L917.887,62.243L917.887,66.293C917.887,66.793 917.717,67.213 917.377,67.553C917.037,67.893 916.627,68.063 916.147,68.063C915.667,68.063 915.257,67.893 914.917,67.553C914.577,67.213 914.407,66.793 914.407,66.293L914.407,48.713C914.407,48.233 914.577,47.823 914.917,47.483C915.257,47.143 915.667,46.973 916.147,46.973L921.997,46.973ZM921.997,58.733C923.137,58.733 924.112,58.333 924.922,57.533C925.732,56.733 926.137,55.753 926.137,54.593C926.137,53.453 925.732,52.483 924.922,51.683C924.112,50.883 923.137,50.483 921.997,50.483L917.887,50.483L917.887,58.733L921.997,58.733Z" style="fill:rgb(90,18,21);"/>
        </g>
        <g transform="matrix(2.3788,0,0,1.3089,-1259.96,-9.64201)">
            <g transform="matrix(30,0,0,30,913.807,68.0629)">
                <path d="M0.273,-0.703C0.343,-0.703 0.403,-0.678 0.453,-0.628C0.502,-0.579 0.527,-0.519 0.527,-0.449C0.527,-0.378 0.502,-0.318 0.453,-0.269C0.403,-0.219 0.343,-0.194 0.273,-0.194L0.136,-0.194L0.136,-0.059C0.136,-0.042 0.13,-0.028 0.119,-0.017C0.108,-0.006 0.094,-0 0.078,-0C0.062,-0 0.048,-0.006 0.037,-0.017C0.026,-0.028 0.02,-0.042 0.02,-0.059L0.02,-0.645C0.02,-0.661 0.026,-0.675 0.037,-0.686C0.048,-0.697 0.062,-0.703 0.078,-0.703L0.273,-0.703ZM0.273,-0.311C0.311,-0.311 0.344,-0.324 0.371,-0.351C0.398,-0.378 0.411,-0.41 0.411,-0.449C0.411,-0.487 0.398,-0.519 0.371,-0.546C0.344,-0.573 0.311,-0.586 0.273,-0.586L0.136,-0.586L0.136,-0.311L0.273,-0.311Z" style="fill:white;fill-rule:nonzero;"/>
            </g>
        </g>
    </g>
    <path id="number-face" serif:id="number face" d="M27.791,43.528C27.727,44.296 27.943,44.976 28.439,45.568C28.935,46.16 29.567,46.488 30.335,46.552C31.103,46.616 31.775,46.392 32.351,45.88L38.591,40.696C39.167,40.184 39.487,39.544 39.551,38.776C39.615,38.008 39.399,37.336 38.903,36.76C38.407,36.184 37.775,35.856 37.007,35.776C36.239,35.696 35.567,35.912 34.991,36.424L28.799,41.656C28.191,42.136 27.855,42.76 27.791,43.528ZM34.799,68.632C35.343,69.176 35.999,69.448 36.767,69.448C37.535,69.448 38.191,69.176 38.735,68.632C39.279,68.088 39.551,67.432 39.551,66.664L39.551,38.536C39.551,37.768 39.279,37.112 38.735,36.568C38.191,36.024 37.535,35.752 36.767,35.752C35.999,35.752 35.343,36.024 34.799,36.568C34.255,37.112 33.983,37.768 33.983,38.536L33.983,66.664C33.983,67.432 34.255,68.088 34.799,68.632Z" style="fill:white;fill-rule:nonzero;"/>
    <path d="M52.511,69.448C55.839,69.448 58.575,68.376 60.719,66.232C62.575,64.28 63.503,61.976 63.503,59.32C63.503,57.944 63.263,56.72 62.783,55.648C62.303,54.576 61.759,53.728 61.151,53.104C60.543,52.48 59.687,51.904 58.583,51.376C57.479,50.848 56.607,50.48 55.967,50.272C55.327,50.064 54.431,49.816 53.279,49.528C50.975,48.92 49.471,48.384 48.767,47.92C48.063,47.456 47.711,46.744 47.711,45.784L47.711,41.32L56.399,41.32L56.399,42.328C56.399,43.096 56.671,43.752 57.215,44.296C57.759,44.84 58.415,45.112 59.183,45.112C59.951,45.112 60.615,44.84 61.175,44.296C61.735,43.752 62.015,43.096 62.015,42.328L62.015,38.536C62.015,37.768 61.735,37.112 61.175,36.568C60.615,36.024 59.951,35.752 59.183,35.752L44.927,35.752C44.159,35.752 43.503,36.024 42.959,36.568C42.415,37.112 42.143,37.768 42.143,38.536L42.143,45.784C42.143,48.792 43.359,51.08 45.791,52.648C46.911,53.384 48.943,54.152 51.887,54.952C54.351,55.56 55.975,56.136 56.759,56.68C57.543,57.224 57.935,58.104 57.935,59.32C57.935,60.408 57.503,61.44 56.639,62.416C55.775,63.392 54.399,63.88 52.511,63.88C50.591,63.88 49.207,63.4 48.359,62.44C47.511,61.48 47.087,60.44 47.087,59.32C47.087,58.552 46.815,57.896 46.271,57.352C45.727,56.808 45.071,56.536 44.303,56.536C43.503,56.536 42.831,56.808 42.287,57.352C41.743,57.896 41.471,58.552 41.471,59.32C41.471,61.912 42.399,64.216 44.255,66.232C46.399,68.376 49.151,69.448 52.511,69.448Z" style="fill:white;fill-rule:nonzero;"/>
</svg>
