<?xml version="1.0" encoding="UTF-8" standalone="no"?>
<!DOCTYPE svg PUBLIC "-//W3C//DTD SVG 1.1//EN" "http://www.w3.org/Graphics/SVG/1.1/DTD/svg11.dtd">
<svg width="100%" height="100%" viewBox="0 0 101 101" version="1.1" xmlns="http://www.w3.org/2000/svg" xmlns:xlink="http://www.w3.org/1999/xlink" xml:space="preserve" xmlns:serif="http://www.serif.com/" style="fill-rule:evenodd;clip-rule:evenodd;stroke-linejoin:round;stroke-miterlimit:2;">
    <rect id="_16" serif:id="16" x="0.557" y="0.293" width="100" height="100" style="fill:none;"/>
    <path id="number-big-stroke" serif:id="number big stroke" d="M41.932,64.484L41.932,64.664C41.932,66.812 41.172,68.647 39.651,70.168C38.13,71.689 36.295,72.448 34.148,72.448C32,72.448 30.165,71.689 28.644,70.168C28.644,70.168 28.644,70.168 28.644,70.168C27.123,68.647 26.364,66.812 26.364,64.664L26.364,49.403C24.629,49.066 23.17,48.191 21.987,46.779C21.987,46.779 21.987,46.779 21.987,46.779C20.609,45.135 20.011,43.246 20.189,41.113L20.189,41.113C20.37,38.936 21.308,37.16 23.003,35.794L28.684,30.994C29.566,30.122 30.553,29.505 31.645,29.144C32.309,28.915 33.005,28.787 33.734,28.762C33.871,28.755 34.008,28.752 34.148,28.752C36.295,28.752 38.13,29.512 39.651,31.033C40.276,31.658 40.772,32.335 41.138,33.067L41.244,33.285C41.77,34.391 42.001,35.598 41.932,36.907L41.932,44.376C39.878,48.172 38.852,52.439 38.852,57.176C38.852,60.088 39.878,62.524 41.932,64.484ZM36.587,35.185C36.465,34.965 36.307,34.76 36.116,34.568C35.572,34.024 34.916,33.752 34.148,33.752C33.38,33.752 32.724,34.024 32.18,34.568L32.106,34.648L26.18,39.656C25.572,40.136 25.236,40.76 25.172,41.528C25.108,42.296 25.324,42.976 25.82,43.568C26.316,44.16 26.948,44.488 27.716,44.552C28.484,44.616 29.156,44.392 29.732,43.88L31.364,42.524L31.364,36.536C31.364,35.805 31.61,35.175 32.106,34.648L32.372,34.424C32.948,33.912 33.62,33.696 34.388,33.776C35.156,33.856 35.788,34.184 36.284,34.76C36.401,34.896 36.502,35.037 36.587,35.185L36.607,35.218L36.631,35.265C36.832,35.647 36.932,36.071 36.932,36.536L36.932,36.776C36.868,37.544 36.548,38.184 35.972,38.696L31.364,42.524L31.364,64.664C31.364,65.432 31.636,66.088 32.18,66.632C32.724,67.176 33.38,67.448 34.148,67.448C34.916,67.448 35.572,67.176 36.116,66.632C36.66,66.088 36.932,65.432 36.932,64.664L36.932,36.776C36.978,36.222 36.878,35.718 36.631,35.265L36.613,35.228L36.607,35.218L36.603,35.21L36.587,35.185Z" style="fill:rgb(99,9,42);"/>
    <path d="M36.932,43.162L36.932,64.664C36.932,65.147 36.824,65.586 36.608,65.98C37.201,66.793 37.889,67.562 38.672,68.286C38.683,68.297 38.695,68.308 38.707,68.319C41.718,71.051 45.342,72.448 49.604,72.448C53.865,72.448 57.489,71.051 60.5,68.319C60.512,68.308 60.524,68.297 60.536,68.286C63.739,65.322 65.356,61.623 65.356,57.176C65.356,52.668 63.719,48.965 60.506,46.039C60.504,46.037 60.502,46.036 60.5,46.034C59.775,45.376 59.015,44.796 58.219,44.294C60.09,44.157 61.709,43.406 63.075,42.04C64.596,40.519 65.356,38.684 65.356,36.536C65.356,34.389 64.596,32.554 63.075,31.033C61.554,29.512 59.719,28.752 57.572,28.752C54.176,28.752 50.937,29.581 47.859,31.258C44.953,32.841 42.362,35.078 40.116,38.005C40.113,38.009 40.11,38.013 40.107,38.017C38.865,39.647 37.805,41.362 36.932,43.162ZM57.14,49.736C59.284,51.688 60.356,54.168 60.356,57.176C60.356,60.152 59.284,62.632 57.14,64.616C55.06,66.504 52.548,67.448 49.604,67.448C46.66,67.448 44.148,66.504 42.068,64.616C39.924,62.632 38.852,60.152 38.852,57.176C38.852,51 40.596,45.624 44.084,41.048C45.876,38.712 47.932,36.912 50.252,35.648C52.572,34.384 55.012,33.752 57.572,33.752C58.34,33.752 58.996,34.024 59.54,34.568C60.084,35.112 60.356,35.768 60.356,36.536C60.356,37.304 60.084,37.96 59.54,38.504C58.996,39.048 58.34,39.32 57.572,39.32C54.148,39.32 51.124,41.032 48.5,44.456C47.86,45.352 47.284,46.28 46.772,47.24C47.636,47.016 48.58,46.904 49.604,46.904C52.548,46.904 55.06,47.848 57.14,49.736ZM45.956,60.632C46.98,61.464 48.196,61.88 49.604,61.88C51.012,61.88 52.228,61.464 53.252,60.632C54.276,59.8 54.788,58.648 54.788,57.176C54.788,55.704 54.276,54.552 53.252,53.72C52.228,52.888 51.012,52.472 49.604,52.472C48.196,52.472 46.98,52.888 45.956,53.72C44.932,54.552 44.42,55.704 44.42,57.176C44.42,58.648 44.932,59.8 45.956,60.632Z" style="fill:rgb(99,9,42);"/>
    <g id="letter" transform="matrix(0.42038,0,0,0.764002,-321.068,6.75191)">
        <g transform="matrix(2.3788,0,0,1.3089,-1259.96,-9.64201)">
            <path d="M910.837,57.577C909.882,58.765 909.407,60.151 909.407,61.733C909.407,64.715 910.439,67.306 912.523,69.498C912.552,69.529 912.581,69.559 912.611,69.588C914.882,71.859 917.752,73.063 921.277,73.063C924.896,73.063 927.776,71.822 929.995,69.534C930.007,69.522 930.019,69.51 930.03,69.498C932.114,67.306 933.147,64.715 933.147,61.733C933.147,59.692 932.702,57.912 931.829,56.385C932.448,55.365 932.757,54.218 932.757,52.943C932.757,50.047 931.747,47.537 929.705,45.421C929.703,45.419 929.701,45.417 929.699,45.415C927.561,43.207 924.781,42.003 921.277,42.003C917.773,42.003 914.992,43.207 912.855,45.415C912.842,45.428 912.829,45.441 912.817,45.454C910.82,47.562 909.827,50.059 909.827,52.943C909.827,54.676 910.165,56.219 910.837,57.577ZM921.277,68.063C923.397,68.063 925.107,67.393 926.407,66.053C927.567,64.833 928.147,63.393 928.147,61.733C928.147,59.733 927.367,58.193 925.807,57.113C925.007,56.533 923.677,55.983 921.817,55.463C920.337,55.023 919.382,54.643 918.952,54.323C918.522,54.003 918.307,53.543 918.307,52.943C918.307,52.343 918.542,51.783 919.012,51.263C919.482,50.743 920.237,50.483 921.277,50.483C922.317,50.483 923.072,50.743 923.542,51.263C924.012,51.783 924.247,52.343 924.247,52.943C924.247,53.423 924.417,53.833 924.757,54.173C925.097,54.513 925.507,54.683 925.987,54.683C926.487,54.683 926.907,54.513 927.247,54.173C927.587,53.833 927.757,53.423 927.757,52.943C927.757,51.383 927.207,50.033 926.107,48.893C924.887,47.633 923.277,47.003 921.277,47.003C919.277,47.003 917.667,47.633 916.447,48.893C915.367,50.033 914.827,51.383 914.827,52.943C914.827,54.803 915.577,56.243 917.077,57.263C917.797,57.763 919.057,58.283 920.857,58.823C922.377,59.263 923.392,59.668 923.902,60.038C924.412,60.408 924.667,60.973 924.667,61.733C924.667,62.413 924.397,63.058 923.857,63.668C923.317,64.278 922.457,64.583 921.277,64.583C920.097,64.583 919.237,64.278 918.697,63.668C918.157,63.058 917.887,62.413 917.887,61.733C917.887,61.253 917.717,60.843 917.377,60.503C917.037,60.163 916.627,59.993 916.147,59.993C915.667,59.993 915.257,60.163 914.917,60.503C914.577,60.843 914.407,61.253 914.407,61.733C914.407,63.393 914.987,64.833 916.147,66.053C917.487,67.393 919.197,68.063 921.277,68.063Z" style="fill:rgb(99,9,42);"/>
        </g>
        <g transform="matrix(2.3788,0,0,1.3089,-1259.96,-9.64201)">
            <g transform="matrix(30,0,0,30,913.807,68.0629)">
                <path d="M0.249,-0C0.32,-0 0.377,-0.022 0.42,-0.067C0.459,-0.108 0.478,-0.156 0.478,-0.211C0.478,-0.278 0.452,-0.329 0.4,-0.365C0.373,-0.384 0.329,-0.403 0.267,-0.42C0.218,-0.435 0.186,-0.447 0.172,-0.458C0.157,-0.469 0.15,-0.484 0.15,-0.504C0.15,-0.524 0.158,-0.543 0.173,-0.56C0.189,-0.577 0.214,-0.586 0.249,-0.586C0.284,-0.586 0.309,-0.577 0.325,-0.56C0.34,-0.543 0.348,-0.524 0.348,-0.504C0.348,-0.488 0.354,-0.474 0.365,-0.463C0.376,-0.452 0.39,-0.446 0.406,-0.446C0.423,-0.446 0.437,-0.452 0.448,-0.463C0.459,-0.474 0.465,-0.488 0.465,-0.504C0.465,-0.556 0.447,-0.601 0.41,-0.639C0.369,-0.681 0.316,-0.702 0.249,-0.702C0.182,-0.702 0.129,-0.681 0.088,-0.639C0.052,-0.601 0.034,-0.556 0.034,-0.504C0.034,-0.442 0.059,-0.394 0.109,-0.36C0.133,-0.343 0.175,-0.326 0.235,-0.308C0.286,-0.293 0.32,-0.28 0.337,-0.268C0.354,-0.255 0.362,-0.236 0.362,-0.211C0.362,-0.188 0.353,-0.167 0.335,-0.147C0.317,-0.126 0.288,-0.116 0.249,-0.116C0.21,-0.116 0.181,-0.126 0.163,-0.147C0.145,-0.167 0.136,-0.188 0.136,-0.211C0.136,-0.227 0.13,-0.241 0.119,-0.252C0.108,-0.263 0.094,-0.269 0.078,-0.269C0.062,-0.269 0.048,-0.263 0.037,-0.252C0.026,-0.241 0.02,-0.227 0.02,-0.211C0.02,-0.156 0.039,-0.108 0.078,-0.067C0.123,-0.022 0.18,-0 0.249,-0Z" style="fill:white;fill-rule:nonzero;"/>
            </g>
        </g>
    </g>
    <path id="number-face" serif:id="number face" d="M25.172,41.528C25.108,42.296 25.324,42.976 25.82,43.568C26.316,44.16 26.948,44.488 27.716,44.552C28.484,44.616 29.156,44.392 29.732,43.88L35.972,38.696C36.548,38.184 36.868,37.544 36.932,36.776C36.996,36.008 36.78,35.336 36.284,34.76C35.788,34.184 35.156,33.856 34.388,33.776C33.62,33.696 32.948,33.912 32.372,34.424L26.18,39.656C25.572,40.136 25.236,40.76 25.172,41.528ZM32.18,66.632C32.724,67.176 33.38,67.448 34.148,67.448C34.916,67.448 35.572,67.176 36.116,66.632C36.66,66.088 36.932,65.432 36.932,64.664L36.932,36.536C36.932,35.768 36.66,35.112 36.116,34.568C35.572,34.024 34.916,33.752 34.148,33.752C33.38,33.752 32.724,34.024 32.18,34.568C31.636,35.112 31.364,35.768 31.364,36.536L31.364,64.664C31.364,65.432 31.636,66.088 32.18,66.632Z" style="fill:white;fill-rule:nonzero;"/>
    <path d="M57.14,49.736C59.284,51.688 60.356,54.168 60.356,57.176C60.356,60.152 59.284,62.632 57.14,64.616C55.06,66.504 52.548,67.448 49.604,67.448C46.66,67.448 44.148,66.504 42.068,64.616C39.924,62.632 38.852,60.152 38.852,57.176C38.852,51 40.596,45.624 44.084,41.048C45.876,38.712 47.932,36.912 50.252,35.648C52.572,34.384 55.012,33.752 57.572,33.752C58.34,33.752 58.996,34.024 59.54,34.568C60.084,35.112 60.356,35.768 60.356,36.536C60.356,37.304 60.084,37.96 59.54,38.504C58.996,39.048 58.34,39.32 57.572,39.32C54.148,39.32 51.124,41.032 48.5,44.456C47.86,45.352 47.284,46.28 46.772,47.24C47.636,47.016 48.58,46.904 49.604,46.904C52.548,46.904 55.06,47.848 57.14,49.736ZM45.956,60.632C46.98,61.464 48.196,61.88 49.604,61.88C51.012,61.88 52.228,61.464 53.252,60.632C54.276,59.8 54.788,58.648 54.788,57.176C54.788,55.704 54.276,54.552 53.252,53.72C52.228,52.888 51.012,52.472 49.604,52.472C48.196,52.472 46.98,52.888 45.956,53.72C44.932,54.552 44.42,55.704 44.42,57.176C44.42,58.648 44.932,59.8 45.956,60.632Z" style="fill:white;fill-rule:nonzero;"/>
</svg>
