<?xml version="1.0" encoding="UTF-8" standalone="no"?>
<!DOCTYPE svg PUBLIC "-//W3C//DTD SVG 1.1//EN" "http://www.w3.org/Graphics/SVG/1.1/DTD/svg11.dtd">
<svg width="100%" height="100%" viewBox="0 0 101 101" version="1.1" xmlns="http://www.w3.org/2000/svg" xmlns:xlink="http://www.w3.org/1999/xlink" xml:space="preserve" xmlns:serif="http://www.serif.com/" style="fill-rule:evenodd;clip-rule:evenodd;stroke-linejoin:round;stroke-miterlimit:2;">
    <rect id="_17" serif:id="17" x="0.542" y="0.293" width="100" height="100" style="fill:none;"/>
    <ellipse cx="66.893" cy="57.64" rx="7.001" ry="7.347" style="fill:rgb(67,101,45);"/>
    <ellipse cx="42.177" cy="46.588" rx="7.001" ry="7.347" style="fill:rgb(67,101,45);"/>
    <path id="number-big-stroke" serif:id="number big stroke" d="M39.776,66.696C39.441,66.384 39.202,65.995 39.06,65.528C38.836,64.792 38.9,64.072 39.252,63.368L40.028,61.85L40.028,39.32L39.732,39.32C38.964,39.32 38.308,39.048 37.764,38.504C37.22,37.96 36.948,37.304 36.948,36.536C36.948,35.768 37.22,35.112 37.764,34.568C38.263,34.069 38.857,33.799 39.545,33.761C39.484,33.6 39.415,33.442 39.341,33.285L39.235,33.067C38.869,32.335 38.373,31.658 37.748,31.033C36.227,29.512 34.392,28.752 32.244,28.752C32.105,28.752 31.967,28.755 31.831,28.762C31.102,28.787 30.405,28.915 29.742,29.144C28.65,29.505 27.663,30.122 26.781,30.994L21.1,35.794C19.405,37.16 18.467,38.936 18.286,41.113L18.286,41.113C18.108,43.246 18.706,45.135 20.084,46.779C20.084,46.779 20.084,46.779 20.084,46.779C21.266,48.191 22.725,49.066 24.46,49.403L24.46,64.664C24.46,66.812 25.22,68.647 26.741,70.168C26.741,70.168 26.741,70.168 26.741,70.168C28.262,71.689 30.097,72.448 32.244,72.448C34.392,72.448 36.227,71.689 37.748,70.168C38.765,69.151 39.441,67.993 39.776,66.696ZM34.684,35.185C34.561,34.965 34.404,34.76 34.212,34.568C33.668,34.024 33.012,33.752 32.244,33.752C31.476,33.752 30.82,34.024 30.276,34.568L30.203,34.648L24.276,39.656C23.668,40.136 23.332,40.76 23.268,41.528C23.204,42.296 23.42,42.976 23.916,43.568C24.412,44.16 25.044,44.488 25.812,44.552C26.58,44.616 27.252,44.392 27.828,43.88L29.46,42.524L29.46,36.536C29.46,35.805 29.707,35.175 30.203,34.648L30.468,34.424C31.044,33.912 31.716,33.696 32.484,33.776C33.252,33.856 33.884,34.184 34.38,34.76C34.497,34.896 34.599,35.037 34.684,35.185L34.703,35.218L34.727,35.265C34.928,35.647 35.028,36.071 35.028,36.536L35.028,36.776C34.964,37.544 34.644,38.184 34.068,38.696L29.46,42.524L29.46,64.664C29.46,65.432 29.732,66.088 30.276,66.632C30.82,67.176 31.476,67.448 32.244,67.448C33.012,67.448 33.668,67.176 34.212,66.632C34.756,66.088 35.028,65.432 35.028,64.664L35.028,36.776C35.074,36.222 34.975,35.718 34.727,35.265L34.71,35.228L34.703,35.218L34.7,35.21L34.684,35.185Z" style="fill:rgb(67,101,45);"/>
    <path d="M32.437,33.761C33.123,33.8 33.714,34.07 34.212,34.568C34.404,34.76 34.561,34.965 34.684,35.185L34.7,35.21L34.703,35.218L34.71,35.228L34.727,35.265C34.975,35.718 35.074,36.222 35.028,36.776L35.028,42.744C36.379,43.796 37.948,44.32 39.732,44.32L43.37,44.32L35.028,60.646L35.028,64.664C35.028,65.432 34.756,66.088 34.212,66.632L34.185,66.657L34.277,66.984C34.913,69.075 36.216,70.633 38.216,71.632C39.289,72.169 40.449,72.448 41.7,72.448C44.906,72.448 47.22,71.021 48.652,68.182C48.651,68.182 63.047,40.063 63.047,40.063C63.054,40.049 63.061,40.035 63.068,40.02C64.432,37.293 64.238,34.752 62.703,32.388C61.221,29.986 59.013,28.752 56.1,28.752L39.732,28.752C37.585,28.752 35.75,29.512 34.229,31.033C33.41,31.851 32.812,32.76 32.437,33.761ZM41.7,67.448C42.852,67.448 43.684,66.936 44.196,65.912L58.596,37.784C59.076,36.824 59.044,35.928 58.5,35.096C57.956,34.2 57.156,33.752 56.1,33.752L39.732,33.752C38.964,33.752 38.308,34.024 37.764,34.568C37.22,35.112 36.948,35.768 36.948,36.536C36.948,37.304 37.22,37.96 37.764,38.504C38.308,39.048 38.964,39.32 39.732,39.32L51.54,39.32L39.252,63.368C38.9,64.072 38.836,64.792 39.06,65.528C39.284,66.264 39.748,66.808 40.452,67.16C40.836,67.352 41.252,67.448 41.7,67.448ZM32.432,33.773C32.109,34.628 31.948,35.549 31.948,36.536C31.948,37.743 32.188,38.851 32.668,39.86L34.068,38.696C34.644,38.184 34.964,37.544 35.028,36.776L35.028,36.536C35.028,36.071 34.928,35.647 34.727,35.265L34.703,35.218L34.684,35.185C34.599,35.037 34.497,34.896 34.38,34.76C33.884,34.184 33.252,33.856 32.484,33.776L32.432,33.773Z" style="fill:rgb(67,101,45);"/>
    <g id="letter" transform="matrix(0.42038,0,0,0.764002,-328.491,6.75191)">
        <g transform="matrix(2.3788,0,0,1.3089,-1259.96,-9.64201)">
            <path d="M936.347,68.062C935.875,68.058 935.472,67.888 935.137,67.553C934.797,67.213 934.627,66.803 934.627,66.323L934.627,48.743C934.627,48.263 934.797,47.853 935.137,47.513C935.477,47.173 935.887,47.003 936.367,47.003L936.374,47.003C934.972,45.457 933.304,44.242 931.366,43.364C929.318,42.436 927.175,41.973 924.937,41.973C920.659,41.973 917,43.489 913.961,46.527C910.923,49.566 909.407,53.225 909.407,57.503C909.407,61.805 910.926,65.473 913.961,68.508C917,71.547 920.659,73.063 924.937,73.063C927.175,73.063 929.318,72.6 931.366,71.672C933.292,70.799 934.951,69.594 936.347,68.062ZM924.937,68.063C926.457,68.063 927.912,67.748 929.302,67.118C930.692,66.488 931.877,65.603 932.857,64.463C933.177,64.083 933.322,63.658 933.292,63.188C933.262,62.718 933.067,62.323 932.707,62.003C932.347,61.683 931.927,61.538 931.447,61.568C930.967,61.598 930.567,61.793 930.247,62.153C928.827,63.753 927.057,64.553 924.937,64.553C922.997,64.553 921.337,63.863 919.957,62.483C918.577,61.103 917.887,59.443 917.887,57.503C917.887,55.563 918.577,53.908 919.957,52.538C921.337,51.168 922.997,50.483 924.937,50.483C927.057,50.483 928.827,51.283 930.247,52.883C930.567,53.243 930.967,53.438 931.447,53.468C931.927,53.498 932.347,53.353 932.707,53.033C933.067,52.713 933.262,52.318 933.292,51.848C933.322,51.378 933.177,50.953 932.857,50.573C931.877,49.433 930.692,48.548 929.302,47.918C927.912,47.288 926.457,46.973 924.937,46.973C922.037,46.973 919.557,48.003 917.497,50.063C915.437,52.123 914.407,54.603 914.407,57.503C914.407,60.423 915.437,62.913 917.497,64.973C919.557,67.033 922.037,68.063 924.937,68.063ZM938.137,61.816L938.137,64.817C938.278,64.192 938.324,63.542 938.281,62.869C938.258,62.507 938.211,62.156 938.137,61.816ZM928.063,57.518C927.5,57.174 926.982,56.736 926.51,56.205C926.509,56.204 926.508,56.203 926.507,56.202C926.086,55.728 925.565,55.483 924.937,55.483C924.369,55.483 923.883,55.685 923.479,56.086C923.085,56.477 922.887,56.949 922.887,57.503C922.887,58.066 923.091,58.547 923.492,58.947C923.893,59.348 924.373,59.553 924.937,59.553C925.565,59.553 926.086,59.308 926.507,58.834C926.508,58.833 926.509,58.832 926.51,58.831C926.982,58.3 927.5,57.862 928.063,57.518ZM938.137,50.219L938.137,53.22C938.211,52.88 938.258,52.529 938.281,52.166C938.324,51.494 938.278,50.844 938.137,50.219Z" style="fill:rgb(67,101,45);"/>
            <path d="M929.655,48.089C930.895,48.703 931.961,49.531 932.857,50.573C933.177,50.953 933.322,51.378 933.292,51.848C933.262,52.318 933.067,52.713 932.707,53.033C932.347,53.353 931.927,53.498 931.447,53.468C930.967,53.438 930.567,53.243 930.247,52.883C930.047,52.658 929.841,52.449 929.627,52.258L929.627,62.778C929.841,62.586 930.047,62.378 930.247,62.153C930.567,61.793 930.967,61.598 931.447,61.568C931.927,61.538 932.347,61.683 932.707,62.003C933.067,62.323 933.262,62.718 933.292,63.188C933.322,63.658 933.177,64.083 932.857,64.463C931.961,65.505 930.893,66.334 929.653,66.947C929.785,68.54 930.434,69.921 931.601,71.088C931.601,71.088 931.601,71.088 931.601,71.088C932.918,72.406 934.507,73.063 936.367,73.063C938.188,73.063 939.767,72.429 941.096,71.139C942.465,69.809 943.137,68.2 943.137,66.323L943.137,48.743C943.137,46.865 942.465,45.256 941.096,43.927C939.767,42.636 938.188,42.003 936.367,42.003C934.507,42.003 932.918,42.66 931.601,43.977C930.441,45.137 929.793,46.508 929.655,48.089ZM935.137,67.553C935.477,67.893 935.887,68.063 936.367,68.063C936.847,68.063 937.262,67.893 937.612,67.553C937.962,67.213 938.137,66.803 938.137,66.323L938.137,48.743C938.137,48.263 937.962,47.853 937.612,47.513C937.262,47.173 936.847,47.003 936.367,47.003C935.887,47.003 935.477,47.173 935.137,47.513C934.797,47.853 934.627,48.263 934.627,48.743L934.627,66.323C934.627,66.803 934.797,67.213 935.137,67.553Z" style="fill:rgb(67,101,45);"/>
        </g>
        <g transform="matrix(2.3788,0,0,1.3089,-1259.96,-9.64201)">
            <g transform="matrix(30,0,0,30,913.807,68.0629)">
                <path d="M0.371,-0C0.422,-0 0.47,-0.011 0.517,-0.032C0.563,-0.053 0.602,-0.082 0.635,-0.12C0.646,-0.133 0.651,-0.147 0.65,-0.163C0.649,-0.178 0.642,-0.191 0.63,-0.202C0.618,-0.213 0.604,-0.218 0.588,-0.217C0.572,-0.216 0.559,-0.209 0.548,-0.197C0.501,-0.144 0.442,-0.117 0.371,-0.117C0.306,-0.117 0.251,-0.14 0.205,-0.186C0.159,-0.232 0.136,-0.287 0.136,-0.352C0.136,-0.417 0.159,-0.472 0.205,-0.518C0.251,-0.563 0.306,-0.586 0.371,-0.586C0.442,-0.586 0.501,-0.559 0.548,-0.506C0.559,-0.494 0.572,-0.488 0.588,-0.487C0.604,-0.486 0.618,-0.49 0.63,-0.501C0.642,-0.512 0.649,-0.525 0.65,-0.541C0.651,-0.556 0.646,-0.57 0.635,-0.583C0.602,-0.621 0.563,-0.651 0.517,-0.672C0.47,-0.693 0.422,-0.703 0.371,-0.703C0.274,-0.703 0.192,-0.669 0.123,-0.6C0.054,-0.531 0.02,-0.449 0.02,-0.352C0.02,-0.255 0.054,-0.172 0.123,-0.103C0.192,-0.034 0.274,-0 0.371,-0Z" style="fill:white;fill-rule:nonzero;"/>
            </g>
            <g transform="matrix(30,0,0,30,933.877,68.0629)">
                <path d="M0.042,-0.017C0.053,-0.006 0.067,-0 0.083,-0C0.099,-0 0.113,-0.006 0.125,-0.017C0.136,-0.028 0.142,-0.042 0.142,-0.058L0.142,-0.644C0.142,-0.66 0.136,-0.674 0.125,-0.685C0.113,-0.696 0.099,-0.702 0.083,-0.702C0.067,-0.702 0.053,-0.696 0.042,-0.685C0.031,-0.674 0.025,-0.66 0.025,-0.644L0.025,-0.058C0.025,-0.042 0.031,-0.028 0.042,-0.017Z" style="fill:white;fill-rule:nonzero;"/>
            </g>
        </g>
    </g>
    <path id="number-face" serif:id="number face" d="M23.268,41.528C23.204,42.296 23.42,42.976 23.916,43.568C24.412,44.16 25.044,44.488 25.812,44.552C26.58,44.616 27.252,44.392 27.828,43.88L34.068,38.696C34.644,38.184 34.964,37.544 35.028,36.776C35.092,36.008 34.876,35.336 34.38,34.76C33.884,34.184 33.252,33.856 32.484,33.776C31.716,33.696 31.044,33.912 30.468,34.424L24.276,39.656C23.668,40.136 23.332,40.76 23.268,41.528ZM30.276,66.632C30.82,67.176 31.476,67.448 32.244,67.448C33.012,67.448 33.668,67.176 34.212,66.632C34.756,66.088 35.028,65.432 35.028,64.664L35.028,36.536C35.028,35.768 34.756,35.112 34.212,34.568C33.668,34.024 33.012,33.752 32.244,33.752C31.476,33.752 30.82,34.024 30.276,34.568C29.732,35.112 29.46,35.768 29.46,36.536L29.46,64.664C29.46,65.432 29.732,66.088 30.276,66.632Z" style="fill:white;fill-rule:nonzero;"/>
    <path d="M41.7,67.448C42.852,67.448 43.684,66.936 44.196,65.912L58.596,37.784C59.076,36.824 59.044,35.928 58.5,35.096C57.956,34.2 57.156,33.752 56.1,33.752L39.732,33.752C38.964,33.752 38.308,34.024 37.764,34.568C37.22,35.112 36.948,35.768 36.948,36.536C36.948,37.304 37.22,37.96 37.764,38.504C38.308,39.048 38.964,39.32 39.732,39.32L51.54,39.32L39.252,63.368C38.9,64.072 38.836,64.792 39.06,65.528C39.284,66.264 39.748,66.808 40.452,67.16C40.836,67.352 41.252,67.448 41.7,67.448Z" style="fill:white;fill-rule:nonzero;"/>
</svg>
