<?xml version="1.0" encoding="UTF-8" standalone="no"?>
<!DOCTYPE svg PUBLIC "-//W3C//DTD SVG 1.1//EN" "http://www.w3.org/Graphics/SVG/1.1/DTD/svg11.dtd">
<svg width="100%" height="100%" viewBox="0 0 101 101" version="1.1" xmlns="http://www.w3.org/2000/svg" xmlns:xlink="http://www.w3.org/1999/xlink" xml:space="preserve" xmlns:serif="http://www.serif.com/" style="fill-rule:evenodd;clip-rule:evenodd;stroke-linejoin:round;stroke-miterlimit:2;">
    <rect id="_18" serif:id="18" x="0.601" y="0.293" width="100" height="100" style="fill:none;"/>
    <circle cx="50.601" cy="43.355" r="8.036" style="fill:rgb(0,79,73);"/>
    <path id="number-big-stroke" serif:id="number big stroke" d="M42.313,64.44L42.313,64.664C42.313,66.812 41.554,68.647 40.033,70.168C38.512,71.689 36.677,72.448 34.529,72.448C32.382,72.448 30.547,71.689 29.026,70.168C29.026,70.168 29.026,70.168 29.026,70.168C27.505,68.647 26.745,66.812 26.745,64.664L26.745,49.403C25.01,49.066 23.551,48.191 22.369,46.779C22.369,46.779 22.369,46.779 22.369,46.779C20.991,45.135 20.393,43.246 20.571,41.113L20.571,41.113C20.752,38.936 21.69,37.16 23.385,35.794L29.066,30.994C29.948,30.122 30.935,29.505 32.027,29.144C32.69,28.915 33.387,28.787 34.116,28.762C34.252,28.755 34.39,28.752 34.529,28.752C36.677,28.752 38.512,29.512 40.033,31.033C40.658,31.658 41.154,32.335 41.52,33.067L41.626,33.285C42.152,34.391 42.383,35.598 42.313,36.907L42.313,37.187C40.899,38.842 40.193,40.818 40.193,43.112C40.193,45.361 40.899,47.329 42.313,49.016L42.313,49.907C40.259,51.801 39.233,54.224 39.233,57.176C39.233,60.066 40.259,62.489 42.313,64.44ZM36.969,35.185C36.846,34.965 36.689,34.76 36.497,34.568C35.953,34.024 35.297,33.752 34.529,33.752C33.761,33.752 33.105,34.024 32.561,34.568L32.488,34.648L26.561,39.656C25.953,40.136 25.617,40.76 25.553,41.528C25.489,42.296 25.705,42.976 26.201,43.568C26.697,44.16 27.329,44.488 28.097,44.552C28.865,44.616 29.537,44.392 30.113,43.88L31.745,42.524L31.745,36.536C31.745,35.805 31.992,35.175 32.488,34.648L32.753,34.424C33.329,33.912 34.001,33.696 34.769,33.776C35.537,33.856 36.169,34.184 36.665,34.76C36.782,34.896 36.884,35.037 36.969,35.185L36.988,35.218L37.012,35.265C37.213,35.647 37.313,36.071 37.313,36.536L37.313,36.776C37.249,37.544 36.929,38.184 36.353,38.696L31.745,42.524L31.745,64.664C31.745,65.432 32.017,66.088 32.561,66.632C33.105,67.176 33.761,67.448 34.529,67.448C35.297,67.448 35.953,67.176 36.497,66.632C37.041,66.088 37.313,65.432 37.313,64.664L37.313,36.776C37.359,36.222 37.26,35.718 37.012,35.265L36.995,35.228L36.988,35.218L36.985,35.21L36.969,35.185Z" style="fill:rgb(0,79,73);"/>
    <path d="M37.203,35.71C37.308,36.042 37.345,36.397 37.313,36.776L37.313,64.664C37.313,65.139 37.209,65.571 37.001,65.96C37.61,66.79 38.319,67.573 39.128,68.311C42.103,71.045 45.713,72.448 49.985,72.448C54.306,72.448 57.937,71.034 60.91,68.292C64.148,65.341 65.785,61.632 65.785,57.176C65.785,54.105 65.03,51.42 63.542,49.114C64.398,47.283 64.825,45.282 64.825,43.112C64.825,38.922 63.29,35.425 60.233,32.615C60.219,32.602 60.205,32.59 60.191,32.577C57.38,30.052 53.987,28.752 49.985,28.752C46.023,28.752 42.644,30.047 39.828,32.577C39.814,32.59 39.799,32.602 39.785,32.615C38.749,33.568 37.888,34.599 37.203,35.71ZM60.074,53.294C59.536,51.947 58.684,50.762 57.521,49.736L57.281,49.496C58.977,47.704 59.825,45.576 59.825,43.112C59.825,40.392 58.833,38.12 56.849,36.296C54.961,34.6 52.673,33.752 49.985,33.752C47.329,33.752 45.057,34.6 43.169,36.296C41.185,38.12 40.193,40.392 40.193,43.112C40.193,45.576 41.041,47.704 42.737,49.496C42.641,49.56 42.561,49.64 42.497,49.736C40.321,51.656 39.233,54.136 39.233,57.176C39.233,60.152 40.321,62.632 42.497,64.616C44.545,66.504 47.041,67.448 49.985,67.448C52.961,67.448 55.473,66.504 57.521,64.616C59.697,62.632 60.785,60.152 60.785,57.176C60.785,55.998 60.622,54.904 60.293,53.895C61.144,53.33 61.82,52.505 62.198,51.505C62.226,51.43 62.253,51.355 62.276,51.28C61.871,51.85 61.416,52.401 60.913,52.933L60.074,53.294ZM49.985,61.88C51.393,61.88 52.617,61.456 53.657,60.608C54.697,59.76 55.217,58.616 55.217,57.176C55.217,55.736 54.697,54.592 53.657,53.744C52.617,52.896 51.393,52.472 49.985,52.472C48.609,52.472 47.401,52.896 46.361,53.744C45.321,54.592 44.801,55.736 44.801,57.176C44.801,58.616 45.321,59.76 46.361,60.608C47.401,61.456 48.609,61.88 49.985,61.88ZM47.057,40.328C46.225,41 45.809,41.928 45.809,43.112C45.809,44.296 46.225,45.224 47.057,45.896C47.889,46.568 48.865,46.904 49.985,46.904C51.137,46.904 52.129,46.568 52.961,45.896C53.793,45.224 54.209,44.296 54.209,43.112C54.209,41.928 53.793,41 52.961,40.328C52.129,39.656 51.137,39.32 49.985,39.32C48.865,39.32 47.889,39.656 47.057,40.328ZM50.199,44.218C50.135,44.269 50.071,44.32 49.985,44.32C49.914,44.32 49.871,44.26 49.82,44.218C49.475,43.94 49.209,43.602 49.209,43.112C49.209,42.622 49.475,42.285 49.82,42.007C49.871,41.965 49.914,41.904 49.985,41.904C50.071,41.904 50.135,41.955 50.199,42.007C50.543,42.285 50.809,42.622 50.809,43.112C50.809,43.602 50.543,43.94 50.199,44.218L50.199,44.218ZM37.198,35.718C36.518,36.82 36.011,38 35.678,39.258L36.353,38.696C36.929,38.184 37.249,37.544 37.313,36.776L37.313,36.536C37.313,36.248 37.275,35.975 37.198,35.718Z" style="fill:rgb(0,79,73);"/>
    <g id="letter" transform="matrix(0.506249,0,0,0.764002,-400.106,6.75191)">
        <g transform="matrix(1.97531,0,0,1.3089,-891.247,-9.64201)">
            <path d="M937.957,64.267C938.472,65.793 938.409,67.32 937.784,68.846C937.116,70.48 935.979,71.683 934.367,72.432C933.563,72.817 932.617,73.063 931.507,73.063C928.668,73.063 926.597,71.777 925.369,69.092L924.838,67.873C924.838,67.873 922.815,67.873 922.815,67.873L922.288,69.082C921.535,70.739 920.313,71.907 918.619,72.585C916.845,73.295 915.092,73.253 913.358,72.465C913.358,72.465 913.358,72.465 913.358,72.465C911.663,71.695 910.502,70.449 909.848,68.755C909.848,68.755 909.848,68.755 909.848,68.755C909.202,67.083 909.215,65.411 909.899,63.74C909.915,63.701 909.931,63.663 909.948,63.625C909.948,63.625 917.632,46.104 917.624,46.122C918.735,43.411 920.779,42.003 923.827,42.003C926.87,42.003 928.912,43.407 930.021,46.104L934.477,56.262L934.477,66.323C934.477,66.803 934.647,67.213 934.987,67.553C935.327,67.893 935.737,68.063 936.217,68.063C936.697,68.063 937.107,67.893 937.447,67.553C937.787,67.213 937.957,66.803 937.957,66.323L937.957,64.267ZM933.127,65.633C933.327,66.073 933.337,66.513 933.157,66.953C932.977,67.393 932.667,67.713 932.227,67.913C932.027,68.013 931.787,68.063 931.507,68.063C930.767,68.063 930.237,67.713 929.917,67.013L928.117,62.873L919.537,62.873L917.737,67.013C917.537,67.453 917.212,67.763 916.762,67.943C916.312,68.123 915.867,68.113 915.427,67.913C914.987,67.713 914.682,67.393 914.512,66.953C914.342,66.513 914.347,66.073 914.527,65.633L922.237,48.053C922.517,47.353 923.047,47.003 923.827,47.003C924.607,47.003 925.137,47.353 925.417,48.053L933.127,65.633ZM921.067,59.393L926.587,59.393L923.827,53.093L921.067,59.393Z" style="fill:rgb(0,79,73);"/>
            <path d="M929.477,57.31L929.477,53.273C929.477,51.413 930.134,49.824 931.451,48.507C932.768,47.19 934.357,46.533 936.217,46.533C937.215,46.533 938.139,46.73 938.991,47.119C939.746,46.968 940.522,46.893 941.317,46.893C943.224,46.893 944.815,47.57 946.112,48.867C947.429,50.185 948.087,51.773 948.087,53.633C948.087,55.492 947.429,57.081 946.112,58.398C945.206,59.304 944.157,59.908 942.957,60.188L942.957,66.323C942.957,68.182 942.299,69.771 940.982,71.088C939.665,72.406 938.076,73.063 936.217,73.063C934.357,73.063 932.768,72.406 931.451,71.088C931.451,71.088 931.451,71.088 931.451,71.088C930.134,69.771 929.477,68.182 929.477,66.323L929.477,66.001L929.917,67.013C930.237,67.713 930.767,68.063 931.507,68.063C931.787,68.063 932.027,68.013 932.227,67.913C932.667,67.713 932.977,67.393 933.157,66.953C933.337,66.513 933.327,66.073 933.127,65.633L929.477,57.31ZM941.317,51.893C941.817,51.893 942.237,52.063 942.577,52.403C942.917,52.743 943.087,53.153 943.087,53.633C943.087,54.113 942.917,54.523 942.577,54.863C942.237,55.203 941.817,55.373 941.317,55.373C940.357,55.373 939.557,55.723 938.917,56.423C938.277,57.123 937.957,58.003 937.957,59.063L937.957,66.323C937.957,66.803 937.787,67.213 937.447,67.553C937.107,67.893 936.697,68.063 936.217,68.063C935.737,68.063 935.327,67.893 934.987,67.553C934.647,67.213 934.477,66.803 934.477,66.323L934.477,53.273C934.477,52.793 934.647,52.383 934.987,52.043C935.327,51.703 935.737,51.533 936.217,51.533C936.617,51.533 936.972,51.653 937.282,51.893C937.592,52.133 937.797,52.443 937.897,52.823C938.957,52.203 940.097,51.893 941.317,51.893Z" style="fill:rgb(0,79,73);"/>
        </g>
        <g transform="matrix(1.97531,0,0,1.3089,-891.247,-9.64201)">
            <g transform="matrix(30,0,0,30,913.807,68.0629)">
                <path d="M0.644,-0.081C0.651,-0.066 0.651,-0.052 0.645,-0.037C0.639,-0.022 0.629,-0.012 0.614,-0.005C0.607,-0.002 0.599,-0 0.59,-0C0.565,-0 0.548,-0.012 0.537,-0.035L0.477,-0.173L0.191,-0.173L0.131,-0.035C0.124,-0.02 0.114,-0.01 0.099,-0.004C0.084,0.002 0.069,0.002 0.054,-0.005C0.039,-0.012 0.029,-0.022 0.024,-0.037C0.018,-0.052 0.018,-0.066 0.024,-0.081L0.281,-0.667C0.29,-0.69 0.308,-0.702 0.334,-0.702C0.36,-0.702 0.378,-0.69 0.387,-0.667L0.644,-0.081ZM0.242,-0.289L0.426,-0.289L0.334,-0.499L0.242,-0.289Z" style="fill:white;fill-rule:nonzero;"/>
            </g>
            <g transform="matrix(30,0,0,30,933.877,68.0629)">
                <path d="M0.248,-0.539C0.265,-0.539 0.279,-0.533 0.29,-0.522C0.301,-0.511 0.307,-0.497 0.307,-0.481C0.307,-0.465 0.301,-0.451 0.29,-0.44C0.279,-0.429 0.265,-0.423 0.248,-0.423C0.216,-0.423 0.189,-0.411 0.168,-0.388C0.147,-0.365 0.136,-0.335 0.136,-0.3L0.136,-0.058C0.136,-0.042 0.13,-0.028 0.119,-0.017C0.108,-0.006 0.094,-0 0.078,-0C0.062,-0 0.048,-0.006 0.037,-0.017C0.026,-0.028 0.02,-0.042 0.02,-0.058L0.02,-0.493C0.02,-0.509 0.026,-0.523 0.037,-0.534C0.048,-0.545 0.062,-0.551 0.078,-0.551C0.091,-0.551 0.103,-0.547 0.114,-0.539C0.124,-0.531 0.131,-0.521 0.134,-0.508C0.169,-0.529 0.207,-0.539 0.248,-0.539Z" style="fill:white;fill-rule:nonzero;"/>
            </g>
        </g>
    </g>
    <path id="number-face" serif:id="number face" d="M25.553,41.528C25.489,42.296 25.705,42.976 26.201,43.568C26.697,44.16 27.329,44.488 28.097,44.552C28.865,44.616 29.537,44.392 30.113,43.88L36.353,38.696C36.929,38.184 37.249,37.544 37.313,36.776C37.377,36.008 37.161,35.336 36.665,34.76C36.169,34.184 35.537,33.856 34.769,33.776C34.001,33.696 33.329,33.912 32.753,34.424L26.561,39.656C25.953,40.136 25.617,40.76 25.553,41.528ZM32.561,66.632C33.105,67.176 33.761,67.448 34.529,67.448C35.297,67.448 35.953,67.176 36.497,66.632C37.041,66.088 37.313,65.432 37.313,64.664L37.313,36.536C37.313,35.768 37.041,35.112 36.497,34.568C35.953,34.024 35.297,33.752 34.529,33.752C33.761,33.752 33.105,34.024 32.561,34.568C32.017,35.112 31.745,35.768 31.745,36.536L31.745,64.664C31.745,65.432 32.017,66.088 32.561,66.632Z" style="fill:white;fill-rule:nonzero;"/>
    <path d="M57.521,49.736C59.697,51.656 60.785,54.136 60.785,57.176C60.785,60.152 59.697,62.632 57.521,64.616C55.473,66.504 52.961,67.448 49.985,67.448C47.041,67.448 44.545,66.504 42.497,64.616C40.321,62.632 39.233,60.152 39.233,57.176C39.233,54.136 40.321,51.656 42.497,49.736C42.561,49.64 42.641,49.56 42.737,49.496C41.041,47.704 40.193,45.576 40.193,43.112C40.193,40.392 41.185,38.12 43.169,36.296C45.057,34.6 47.329,33.752 49.985,33.752C52.673,33.752 54.961,34.6 56.849,36.296C58.833,38.12 59.825,40.392 59.825,43.112C59.825,45.576 58.977,47.704 57.281,49.496L57.521,49.736ZM47.057,40.328C46.225,41 45.809,41.928 45.809,43.112C45.809,44.296 46.225,45.224 47.057,45.896C47.889,46.568 48.865,46.904 49.985,46.904C51.137,46.904 52.129,46.568 52.961,45.896C53.793,45.224 54.209,44.296 54.209,43.112C54.209,41.928 53.793,41 52.961,40.328C52.129,39.656 51.137,39.32 49.985,39.32C48.865,39.32 47.889,39.656 47.057,40.328ZM49.985,61.88C51.393,61.88 52.617,61.456 53.657,60.608C54.697,59.76 55.217,58.616 55.217,57.176C55.217,55.736 54.697,54.592 53.657,53.744C52.617,52.896 51.393,52.472 49.985,52.472C48.609,52.472 47.401,52.896 46.361,53.744C45.321,54.592 44.801,55.736 44.801,57.176C44.801,58.616 45.321,59.76 46.361,60.608C47.401,61.456 48.609,61.88 49.985,61.88Z" style="fill:white;fill-rule:nonzero;"/>
</svg>
