<?xml version="1.0" encoding="UTF-8" standalone="no"?>
<!DOCTYPE svg PUBLIC "-//W3C//DTD SVG 1.1//EN" "http://www.w3.org/Graphics/SVG/1.1/DTD/svg11.dtd">
<svg width="100%" height="100%" viewBox="0 0 101 101" version="1.1" xmlns="http://www.w3.org/2000/svg" xmlns:xlink="http://www.w3.org/1999/xlink" xml:space="preserve" xmlns:serif="http://www.serif.com/" style="fill-rule:evenodd;clip-rule:evenodd;stroke-linejoin:round;stroke-miterlimit:2;">
    <rect id="_19" serif:id="19" x="0.315" y="0.293" width="100" height="100" style="fill:none;"/>
    <path id="number-big-stroke" serif:id="number big stroke" d="M42.002,67.44C41.626,68.44 41.029,69.349 40.21,70.168C38.689,71.689 36.854,72.448 34.707,72.448C32.559,72.448 30.724,71.689 29.203,70.168C29.203,70.168 29.203,70.168 29.203,70.168C27.682,68.647 26.923,66.812 26.923,64.664L26.923,49.403C25.188,49.066 23.729,48.191 22.546,46.779C22.546,46.779 22.546,46.779 22.546,46.779C21.168,45.135 20.57,43.246 20.748,41.113L20.748,41.113C20.929,38.936 21.867,37.16 23.562,35.794L29.243,30.994C30.125,30.122 31.112,29.505 32.204,29.144C32.868,28.915 33.564,28.787 34.293,28.762C34.43,28.755 34.567,28.752 34.707,28.752C36.854,28.752 38.689,29.512 40.21,31.033C40.835,31.658 41.331,32.335 41.697,33.067L41.803,33.285C42.303,34.336 42.536,35.477 42.495,36.712C40.438,38.672 39.411,41.11 39.411,44.024C39.411,46.967 40.437,49.404 42.491,51.334L42.491,61.876L42.195,61.88C41.427,61.88 40.771,62.152 40.227,62.696C39.683,63.24 39.411,63.896 39.411,64.664C39.411,65.432 39.683,66.088 40.227,66.632C40.725,67.13 41.316,67.4 42.002,67.44ZM37.146,35.185C37.024,34.965 36.866,34.76 36.675,34.568C36.131,34.024 35.475,33.752 34.707,33.752C33.939,33.752 33.283,34.024 32.739,34.568L32.665,34.648L26.739,39.656C26.131,40.136 25.795,40.76 25.731,41.528C25.667,42.296 25.883,42.976 26.379,43.568C26.875,44.16 27.507,44.488 28.275,44.552C29.043,44.616 29.715,44.392 30.291,43.88L31.923,42.524L31.923,36.536C31.923,35.805 32.169,35.175 32.665,34.648L32.931,34.424C33.507,33.912 34.179,33.696 34.947,33.776C35.715,33.856 36.347,34.184 36.843,34.76C36.96,34.896 37.061,35.037 37.146,35.185L37.166,35.218L37.19,35.265C37.391,35.647 37.491,36.071 37.491,36.536L37.491,36.776C37.427,37.544 37.107,38.184 36.531,38.696L31.923,42.524L31.923,64.664C31.923,65.432 32.195,66.088 32.739,66.632C33.283,67.176 33.939,67.448 34.707,67.448C35.475,67.448 36.131,67.176 36.675,66.632C37.219,66.088 37.491,65.432 37.491,64.664L37.491,36.776C37.537,36.222 37.437,35.718 37.19,35.265L37.172,35.228L37.166,35.218L37.162,35.21L37.146,35.185Z" style="fill:rgb(52,39,97);"/>
    <path d="M37.167,35.22L37.172,35.228L37.19,35.265C37.437,35.718 37.537,36.222 37.491,36.776L37.491,53.271C38.014,53.934 38.604,54.564 39.26,55.161C39.262,55.163 39.264,55.165 39.266,55.167C39.991,55.824 40.751,56.405 41.548,56.906C40.029,57.017 38.676,57.533 37.491,58.454L37.491,64.664C37.491,65.432 37.219,66.088 36.675,66.632C36.177,67.13 35.585,67.4 34.899,67.44C35.275,68.44 35.873,69.349 36.691,70.168C36.691,70.168 36.691,70.168 36.691,70.168C38.212,71.689 40.047,72.448 42.195,72.448C45.59,72.448 48.829,71.62 51.907,69.943C54.813,68.359 57.405,66.122 59.65,63.196C59.653,63.191 59.656,63.187 59.659,63.183C63.805,57.744 65.915,51.365 65.915,44.024C65.915,39.578 64.298,35.879 61.095,32.914C61.083,32.904 61.071,32.893 61.059,32.882C58.048,30.149 54.424,28.752 50.163,28.752C45.901,28.752 42.277,30.149 39.266,32.882C39.254,32.893 39.242,32.904 39.231,32.914C38.448,33.639 37.76,34.407 37.167,35.22ZM42.627,51.464C40.483,49.512 39.411,47.032 39.411,44.024C39.411,41.048 40.483,38.568 42.627,36.584C44.707,34.696 47.219,33.752 50.163,33.752C53.107,33.752 55.619,34.696 57.699,36.584C59.843,38.568 60.915,41.048 60.915,44.024C60.915,50.2 59.171,55.576 55.683,60.152C53.891,62.488 51.835,64.288 49.515,65.552C47.195,66.816 44.755,67.448 42.195,67.448C41.427,67.448 40.771,67.176 40.227,66.632C39.683,66.088 39.411,65.432 39.411,64.664C39.411,63.896 39.683,63.24 40.227,62.696C40.771,62.152 41.427,61.88 42.195,61.88C45.619,61.88 48.643,60.168 51.267,56.744C51.907,55.848 52.483,54.92 52.995,53.96C52.131,54.184 51.187,54.296 50.163,54.296C47.219,54.296 44.707,53.352 42.627,51.464ZM53.811,40.568C52.787,39.736 51.571,39.32 50.163,39.32C48.755,39.32 47.539,39.736 46.515,40.568C45.491,41.4 44.979,42.552 44.979,44.024C44.979,45.496 45.491,46.648 46.515,47.48C47.539,48.312 48.755,48.728 50.163,48.728C51.571,48.728 52.787,48.312 53.811,47.48C54.835,46.648 55.347,45.496 55.347,44.024C55.347,42.552 54.835,41.4 53.811,40.568ZM37.167,35.22C36.094,36.689 35.333,38.303 34.887,40.062L36.531,38.696C37.107,38.184 37.427,37.544 37.491,36.776L37.491,36.536C37.491,36.071 37.391,35.647 37.19,35.265L37.167,35.22Z" style="fill:rgb(52,39,97);"/>
    <g id="letter" transform="matrix(0.42038,0,0,0.764002,-320.509,6.75191)">
        <g transform="matrix(2.3788,0,0,1.3089,-1259.96,-9.64201)">
            <path d="M921.83,70.011L921.952,70.183C922.96,71.635 924.378,72.588 926.268,72.936C926.268,72.936 926.268,72.936 926.268,72.936C928.215,73.293 929.933,72.871 931.443,71.758C932.862,70.713 933.76,69.307 934.096,67.514C934.444,65.657 934.076,63.954 932.993,62.406L929.238,57.142L932.646,53.055C932.675,53.021 932.703,52.986 932.731,52.951C933.848,51.536 934.328,49.935 934.179,48.148C934.023,46.272 933.221,44.737 931.765,43.549C930.362,42.338 928.692,41.817 926.789,42.015C924.941,42.207 923.45,43.016 922.296,44.402L921.807,44.987C921.56,44.623 921.272,44.277 920.942,43.947C919.645,42.65 918.054,41.973 916.147,41.973C914.287,41.973 912.698,42.63 911.381,43.947C910.064,45.264 909.407,46.853 909.407,48.713L909.407,66.293C909.407,68.201 910.084,69.791 911.381,71.088C911.381,71.088 911.381,71.088 911.381,71.088C912.698,72.406 914.287,73.063 916.147,73.063C918.054,73.063 919.645,72.386 920.942,71.088C921.281,70.749 921.578,70.39 921.83,70.011ZM922.927,56.903L928.897,65.273C929.177,65.673 929.272,66.113 929.182,66.593C929.092,67.073 928.857,67.453 928.477,67.733C928.097,68.013 927.662,68.108 927.172,68.018C926.682,67.928 926.307,67.693 926.047,67.313L920.617,59.663L917.917,62.903L917.917,66.293C917.917,66.793 917.747,67.213 917.407,67.553C917.067,67.893 916.647,68.063 916.147,68.063C915.667,68.063 915.257,67.893 914.917,67.553C914.577,67.213 914.407,66.793 914.407,66.293L914.407,48.713C914.407,48.233 914.577,47.823 914.917,47.483C915.257,47.143 915.667,46.973 916.147,46.973C916.647,46.973 917.067,47.143 917.407,47.483C917.747,47.823 917.917,48.233 917.917,48.713L917.917,57.443L926.137,47.603C926.437,47.243 926.827,47.038 927.307,46.988C927.787,46.938 928.207,47.073 928.567,47.393C928.947,47.693 929.157,48.083 929.197,48.563C929.237,49.043 929.107,49.473 928.807,49.853L922.927,56.903Z" style="fill:rgb(52,39,97);"/>
        </g>
        <g transform="matrix(2.3788,0,0,1.3089,-1259.96,-9.64201)">
            <g transform="matrix(30,0,0,30,913.807,68.0629)">
                <path d="M0.304,-0.372L0.503,-0.093C0.512,-0.08 0.516,-0.065 0.513,-0.049C0.509,-0.033 0.502,-0.02 0.489,-0.011C0.476,-0.002 0.462,0.001 0.446,-0.002C0.429,-0.005 0.417,-0.012 0.408,-0.025L0.227,-0.28L0.137,-0.172L0.137,-0.059C0.137,-0.042 0.131,-0.028 0.12,-0.017C0.109,-0.006 0.095,-0 0.078,-0C0.062,-0 0.048,-0.006 0.037,-0.017C0.026,-0.028 0.02,-0.042 0.02,-0.059L0.02,-0.645C0.02,-0.661 0.026,-0.675 0.037,-0.686C0.048,-0.697 0.062,-0.703 0.078,-0.703C0.095,-0.703 0.109,-0.697 0.12,-0.686C0.131,-0.675 0.137,-0.661 0.137,-0.645L0.137,-0.354L0.411,-0.682C0.421,-0.694 0.434,-0.701 0.45,-0.703C0.466,-0.704 0.48,-0.7 0.492,-0.689C0.505,-0.679 0.512,-0.666 0.513,-0.65C0.514,-0.634 0.51,-0.62 0.5,-0.607L0.304,-0.372Z" style="fill:white;fill-rule:nonzero;"/>
            </g>
        </g>
    </g>
    <path id="number-face" serif:id="number face" d="M25.731,41.528C25.667,42.296 25.883,42.976 26.379,43.568C26.875,44.16 27.507,44.488 28.275,44.552C29.043,44.616 29.715,44.392 30.291,43.88L36.531,38.696C37.107,38.184 37.427,37.544 37.491,36.776C37.555,36.008 37.339,35.336 36.843,34.76C36.347,34.184 35.715,33.856 34.947,33.776C34.179,33.696 33.507,33.912 32.931,34.424L26.739,39.656C26.131,40.136 25.795,40.76 25.731,41.528ZM32.739,66.632C33.283,67.176 33.939,67.448 34.707,67.448C35.475,67.448 36.131,67.176 36.675,66.632C37.219,66.088 37.491,65.432 37.491,64.664L37.491,36.536C37.491,35.768 37.219,35.112 36.675,34.568C36.131,34.024 35.475,33.752 34.707,33.752C33.939,33.752 33.283,34.024 32.739,34.568C32.195,35.112 31.923,35.768 31.923,36.536L31.923,64.664C31.923,65.432 32.195,66.088 32.739,66.632Z" style="fill:white;fill-rule:nonzero;"/>
    <path d="M42.627,51.464C40.483,49.512 39.411,47.032 39.411,44.024C39.411,41.048 40.483,38.568 42.627,36.584C44.707,34.696 47.219,33.752 50.163,33.752C53.107,33.752 55.619,34.696 57.699,36.584C59.843,38.568 60.915,41.048 60.915,44.024C60.915,50.2 59.171,55.576 55.683,60.152C53.891,62.488 51.835,64.288 49.515,65.552C47.195,66.816 44.755,67.448 42.195,67.448C41.427,67.448 40.771,67.176 40.227,66.632C39.683,66.088 39.411,65.432 39.411,64.664C39.411,63.896 39.683,63.24 40.227,62.696C40.771,62.152 41.427,61.88 42.195,61.88C45.619,61.88 48.643,60.168 51.267,56.744C51.907,55.848 52.483,54.92 52.995,53.96C52.131,54.184 51.187,54.296 50.163,54.296C47.219,54.296 44.707,53.352 42.627,51.464ZM53.811,40.568C52.787,39.736 51.571,39.32 50.163,39.32C48.755,39.32 47.539,39.736 46.515,40.568C45.491,41.4 44.979,42.552 44.979,44.024C44.979,45.496 45.491,46.648 46.515,47.48C47.539,48.312 48.755,48.728 50.163,48.728C51.571,48.728 52.787,48.312 53.811,47.48C54.835,46.648 55.347,45.496 55.347,44.024C55.347,42.552 54.835,41.4 53.811,40.568Z" style="fill:white;fill-rule:nonzero;"/>
</svg>
