<?xml version="1.0" encoding="UTF-8" standalone="no"?>
<!DOCTYPE svg PUBLIC "-//W3C//DTD SVG 1.1//EN" "http://www.w3.org/Graphics/SVG/1.1/DTD/svg11.dtd">
<svg width="100%" height="100%" viewBox="0 0 120 101" version="1.1" xmlns="http://www.w3.org/2000/svg" xmlns:xlink="http://www.w3.org/1999/xlink" xml:space="preserve" xmlns:serif="http://www.serif.com/" style="fill-rule:evenodd;clip-rule:evenodd;stroke-linejoin:round;stroke-miterlimit:2;">
    <rect id="_20" serif:id="20" x="0.412" y="0.293" width="118.616" height="100" style="fill:none;"/>
    <rect x="18.685" y="39.006" width="19.31" height="23.486" style="fill:rgb(2,89,50);"/>
    <rect x="72.564" y="50.293" width="32.435" height="16.617" style="fill:rgb(2,89,50);"/>
    <path id="number-big-stroke" serif:id="number big stroke" d="M33.633,52.404C33.575,51.814 33.546,51.213 33.546,50.6C33.546,47.03 34.522,43.858 36.474,41.084C36.056,38.167 34.772,35.581 32.609,33.33C29.814,30.361 26.08,28.752 21.306,28.752C16.719,28.752 13.036,30.347 10.194,33.382C7.362,36.403 5.986,39.882 5.986,43.784C5.986,45.932 6.745,47.767 8.267,49.288C8.267,49.288 8.267,49.288 8.267,49.288C9.169,50.19 10.182,50.825 11.306,51.189L10.568,51.871C9.222,53.132 8.214,54.313 7.509,55.382C6.789,56.473 6.13,57.796 5.563,59.366C4.951,61.062 4.642,62.827 4.642,64.664C4.642,66.812 5.401,68.647 6.923,70.168C6.923,70.168 6.923,70.168 6.923,70.168C8.444,71.689 10.279,72.448 12.426,72.448L28.842,72.448C30.99,72.448 32.825,71.689 34.346,70.168C35.867,68.647 36.626,66.812 36.626,64.664C36.626,62.517 35.867,60.682 34.346,59.161C32.932,57.747 31.248,56.992 29.294,56.893C30.109,56.196 31.077,55.269 32.19,54.106C32.725,53.547 33.205,52.98 33.633,52.404ZM28.842,67.448C29.61,67.448 30.266,67.176 30.81,66.632C31.354,66.088 31.626,65.432 31.626,64.664C31.626,63.896 31.354,63.24 30.81,62.696C30.266,62.152 29.61,61.88 28.842,61.88L15.93,61.88C16.442,60.952 17.202,60.04 18.21,59.144C19.218,58.248 20.65,57.128 22.506,55.784C23.978,54.728 25.09,53.888 25.842,53.264C26.594,52.64 27.506,51.768 28.578,50.648C29.65,49.528 30.426,48.368 30.906,47.168C31.386,45.968 31.626,44.664 31.626,43.256C31.626,40.76 30.746,38.6 28.986,36.776C27.098,34.76 24.538,33.752 21.306,33.752C18.234,33.752 15.746,34.768 13.842,36.8C11.938,38.832 10.986,41.16 10.986,43.784C10.986,44.552 11.258,45.208 11.802,45.752C12.346,46.296 13.002,46.568 13.77,46.568C14.538,46.568 15.194,46.296 15.738,45.752C16.282,45.208 16.554,44.552 16.554,43.784C16.554,42.824 16.922,41.84 17.658,40.832C18.394,39.824 19.61,39.32 21.306,39.32C22.97,39.32 24.178,39.736 24.93,40.568C25.682,41.4 26.058,42.296 26.058,43.256C26.058,43.992 25.906,44.688 25.602,45.344C25.298,46 24.746,46.712 23.946,47.48C23.146,48.248 22.474,48.84 21.93,49.256C21.386,49.672 20.49,50.344 19.242,51.272C18.026,52.136 17.098,52.824 16.458,53.336C15.818,53.848 14.994,54.576 13.986,55.52C12.978,56.464 12.21,57.336 11.682,58.136C11.154,58.936 10.682,59.912 10.266,61.064C9.85,62.216 9.642,63.416 9.642,64.664C9.642,65.432 9.914,66.088 10.458,66.632C11.002,67.176 11.658,67.448 12.426,67.448L28.842,67.448Z" style="fill:rgb(2,89,50);"/>
    <path d="M31.128,40.195C31.46,41.152 31.626,42.173 31.626,43.256C31.626,44.664 31.386,45.968 30.906,47.168C30.426,48.368 29.65,49.528 28.578,50.648L28.547,50.68C28.565,56.663 30.699,61.784 34.955,66.04C39.229,70.314 44.377,72.448 50.394,72.448C56.405,72.448 61.558,70.318 65.849,66.048C70.147,61.772 72.29,56.621 72.29,50.6C72.29,44.583 70.156,39.435 65.882,35.161C61.61,30.89 56.448,28.752 50.394,28.752C44.377,28.752 39.229,30.886 34.955,35.161C33.393,36.722 32.117,38.4 31.128,40.195ZM38.49,62.504C41.786,65.8 45.754,67.448 50.394,67.448C55.034,67.448 59.01,65.8 62.322,62.504C65.634,59.208 67.29,55.24 67.29,50.6C67.29,45.96 65.642,41.992 62.346,38.696C59.05,35.4 55.066,33.752 50.394,33.752C45.754,33.752 41.786,35.4 38.49,38.696C35.194,41.992 33.546,45.96 33.546,50.6C33.546,55.24 35.194,59.208 38.49,62.504ZM42.45,42.632C44.642,40.424 47.29,39.32 50.394,39.32C53.498,39.32 56.154,40.424 58.362,42.632C60.57,44.84 61.674,47.496 61.674,50.6C61.674,53.704 60.57,56.36 58.362,58.568C56.154,60.776 53.498,61.88 50.394,61.88C47.29,61.88 44.642,60.776 42.45,58.568C40.258,56.36 39.162,53.704 39.162,50.6C39.162,47.496 40.258,44.84 42.45,42.632ZM45.999,46.155C47.212,44.933 48.676,44.32 50.394,44.32C52.122,44.32 53.598,44.939 54.827,46.168C56.055,47.397 56.674,48.873 56.674,50.6C56.674,52.328 56.055,53.804 54.827,55.033C53.598,56.262 52.122,56.88 50.394,56.88C48.676,56.88 47.212,56.268 45.999,55.046C44.775,53.814 44.162,52.332 44.162,50.6C44.162,48.868 44.775,47.387 45.998,46.155L45.999,46.155Z" style="fill:rgb(2,89,50);"/>
    <g id="letter" transform="matrix(0.621559,0,0,0.764002,-497.972,6.75191)">
        <g transform="matrix(1.60886,0,0,1.3089,-556.377,-9.64201)">
            <path d="M937.355,66.744C937.163,67.066 936.938,67.379 936.681,67.684C936.67,67.697 936.659,67.709 936.648,67.722C935.191,69.417 933.432,70.735 931.366,71.672C929.318,72.6 927.175,73.063 924.937,73.063C920.659,73.063 917,71.547 913.961,68.508C910.926,65.473 909.407,61.805 909.407,57.503C909.407,53.225 910.923,49.566 913.961,46.527C917,43.489 920.659,41.973 924.937,41.973C927.175,41.973 929.318,42.436 931.366,43.364C933.432,44.3 935.191,45.619 936.648,47.313C936.659,47.326 936.67,47.339 936.681,47.352C937.886,48.783 938.394,50.396 938.281,52.166L938.27,52.304C937.446,52.713 936.702,53.286 936.037,54.023C934.597,55.583 933.877,57.513 933.877,59.813C933.877,62.093 934.597,64.013 936.037,65.573C936.446,66.026 936.885,66.417 937.355,66.744ZM924.937,68.063C926.457,68.063 927.912,67.748 929.302,67.118C930.692,66.488 931.877,65.603 932.857,64.463C933.177,64.083 933.322,63.658 933.292,63.188C933.262,62.718 933.067,62.323 932.707,62.003C932.347,61.683 931.927,61.538 931.447,61.568C930.967,61.598 930.567,61.793 930.247,62.153C928.827,63.753 927.057,64.553 924.937,64.553C922.997,64.553 921.337,63.863 919.957,62.483C918.577,61.103 917.887,59.443 917.887,57.503C917.887,55.563 918.577,53.908 919.957,52.538C921.337,51.168 922.997,50.483 924.937,50.483C927.057,50.483 928.827,51.283 930.247,52.883C930.567,53.243 930.967,53.438 931.447,53.468C931.927,53.498 932.347,53.353 932.707,53.033C933.067,52.713 933.262,52.318 933.292,51.848C933.322,51.378 933.177,50.953 932.857,50.573C931.877,49.433 930.692,48.548 929.302,47.918C927.912,47.288 926.457,46.973 924.937,46.973C922.037,46.973 919.557,48.003 917.497,50.063C915.437,52.123 914.407,54.603 914.407,57.503C914.407,60.423 915.437,62.913 917.497,64.973C919.557,67.033 922.037,68.063 924.937,68.063ZM937.357,59.843C937.903,60.74 938.208,61.747 938.281,62.859C937.67,62.031 937.362,61.026 937.357,59.843ZM928.063,57.518C927.5,57.174 926.982,56.736 926.51,56.205C926.509,56.204 926.508,56.203 926.507,56.202C926.086,55.728 925.565,55.483 924.937,55.483C924.369,55.483 923.883,55.685 923.479,56.086C923.085,56.477 922.887,56.949 922.887,57.503C922.887,58.066 923.091,58.547 923.492,58.947C923.893,59.348 924.373,59.553 924.937,59.553C925.565,59.553 926.086,59.308 926.507,58.834C926.508,58.833 926.509,58.832 926.51,58.831C926.982,58.3 927.5,57.862 928.063,57.518Z" style="fill:rgb(2,89,50);"/>
            <path d="M932.643,50.333C932.716,50.411 932.787,50.491 932.857,50.573C933.177,50.953 933.322,51.378 933.292,51.848C933.262,52.318 933.067,52.713 932.707,53.033C932.347,53.353 931.927,53.498 931.447,53.468C931.099,53.446 930.793,53.338 930.53,53.142C929.439,55.088 928.877,57.308 928.877,59.813C928.877,60.97 928.998,62.067 929.239,63.105C929.594,62.829 929.929,62.511 930.247,62.153C930.567,61.793 930.967,61.598 931.447,61.568C931.927,61.538 932.347,61.683 932.707,62.003C933.067,62.323 933.262,62.718 933.292,63.188C933.322,63.658 933.177,64.083 932.857,64.463C932.18,65.251 931.405,65.916 930.532,66.46C931.028,67.343 931.633,68.171 932.345,68.946C934.821,71.675 937.945,73.063 941.737,73.063C942.986,73.063 944.173,72.901 945.301,72.578C946.083,72.898 946.934,73.063 947.857,73.063C949.716,73.063 951.305,72.406 952.622,71.088C953.939,69.771 954.597,68.182 954.597,66.323C954.597,66.323 954.597,53.273 954.597,53.273C954.597,51.413 953.939,49.825 952.622,48.507C951.305,47.19 949.716,46.533 947.857,46.533C946.934,46.533 946.083,46.698 945.301,47.018C944.173,46.695 942.986,46.533 941.737,46.533C938.095,46.533 935.07,47.813 932.643,50.333ZM947.857,51.533C948.337,51.533 948.747,51.703 949.087,52.043C949.427,52.383 949.597,52.793 949.597,53.273L949.597,66.323C949.597,66.803 949.427,67.213 949.087,67.553C948.747,67.893 948.337,68.063 947.857,68.063C947.437,68.063 947.072,67.938 946.762,67.688C946.452,67.438 946.247,67.113 946.147,66.713C944.847,67.613 943.377,68.063 941.737,68.063C939.437,68.063 937.537,67.233 936.037,65.573C934.597,64.013 933.877,62.093 933.877,59.813C933.877,57.513 934.597,55.583 936.037,54.023C937.537,52.363 939.437,51.533 941.737,51.533C943.377,51.533 944.847,51.983 946.147,52.883C946.247,52.483 946.452,52.158 946.762,51.908C947.072,51.658 947.437,51.533 947.857,51.533ZM941.737,64.583C942.997,64.583 944.042,64.133 944.872,63.233C945.702,62.333 946.117,61.193 946.117,59.813C946.117,58.413 945.702,57.263 944.872,56.363C944.042,55.463 942.997,55.013 941.737,55.013C940.457,55.013 939.407,55.463 938.587,56.363C937.767,57.263 937.357,58.413 937.357,59.813C937.357,61.193 937.767,62.333 938.587,63.233C939.407,64.133 940.457,64.583 941.737,64.583ZM942.213,59.798C942.084,59.925 941.932,60.013 941.737,60.013C941.538,60.013 941.378,59.931 941.244,59.798C941.378,59.665 941.538,59.583 941.737,59.583C941.932,59.583 942.084,59.671 942.213,59.798Z" style="fill:rgb(2,89,50);"/>
        </g>
        <g transform="matrix(1.60886,0,0,1.3089,-556.377,-9.64201)">
            <g transform="matrix(30,0,0,30,913.807,68.0629)">
                <path d="M0.371,-0C0.422,-0 0.47,-0.011 0.517,-0.032C0.563,-0.053 0.602,-0.082 0.635,-0.12C0.646,-0.133 0.651,-0.147 0.65,-0.163C0.649,-0.178 0.642,-0.191 0.63,-0.202C0.618,-0.213 0.604,-0.218 0.588,-0.217C0.572,-0.216 0.559,-0.209 0.548,-0.197C0.501,-0.144 0.442,-0.117 0.371,-0.117C0.306,-0.117 0.251,-0.14 0.205,-0.186C0.159,-0.232 0.136,-0.287 0.136,-0.352C0.136,-0.417 0.159,-0.472 0.205,-0.518C0.251,-0.563 0.306,-0.586 0.371,-0.586C0.442,-0.586 0.501,-0.559 0.548,-0.506C0.559,-0.494 0.572,-0.488 0.588,-0.487C0.604,-0.486 0.618,-0.49 0.63,-0.501C0.642,-0.512 0.649,-0.525 0.65,-0.541C0.651,-0.556 0.646,-0.57 0.635,-0.583C0.602,-0.621 0.563,-0.651 0.517,-0.672C0.47,-0.693 0.422,-0.703 0.371,-0.703C0.274,-0.703 0.192,-0.669 0.123,-0.6C0.054,-0.531 0.02,-0.449 0.02,-0.352C0.02,-0.255 0.054,-0.172 0.123,-0.103C0.192,-0.034 0.274,-0 0.371,-0Z" style="fill:white;fill-rule:nonzero;"/>
            </g>
            <g transform="matrix(30,0,0,30,933.277,68.0629)">
                <path d="M0.486,-0.551C0.502,-0.551 0.516,-0.545 0.527,-0.534C0.538,-0.523 0.544,-0.509 0.544,-0.493L0.544,-0.058C0.544,-0.042 0.538,-0.028 0.527,-0.017C0.516,-0.006 0.502,-0 0.486,-0C0.472,-0 0.46,-0.004 0.45,-0.013C0.439,-0.021 0.432,-0.032 0.429,-0.045C0.386,-0.015 0.337,-0 0.282,-0C0.205,-0 0.142,-0.028 0.092,-0.083C0.044,-0.135 0.02,-0.199 0.02,-0.275C0.02,-0.352 0.044,-0.416 0.092,-0.468C0.142,-0.523 0.205,-0.551 0.282,-0.551C0.337,-0.551 0.386,-0.536 0.429,-0.506C0.432,-0.519 0.439,-0.53 0.45,-0.539C0.46,-0.547 0.472,-0.551 0.486,-0.551ZM0.282,-0.116C0.324,-0.116 0.359,-0.131 0.387,-0.161C0.414,-0.191 0.428,-0.229 0.428,-0.275C0.428,-0.322 0.414,-0.36 0.387,-0.39C0.359,-0.42 0.324,-0.435 0.282,-0.435C0.239,-0.435 0.204,-0.42 0.177,-0.39C0.15,-0.36 0.136,-0.322 0.136,-0.275C0.136,-0.229 0.15,-0.191 0.177,-0.161C0.204,-0.131 0.239,-0.116 0.282,-0.116Z" style="fill:white;fill-rule:nonzero;"/>
            </g>
        </g>
    </g>
    <path id="number-face" serif:id="number face" d="M28.842,67.448C29.61,67.448 30.266,67.176 30.81,66.632C31.354,66.088 31.626,65.432 31.626,64.664C31.626,63.896 31.354,63.24 30.81,62.696C30.266,62.152 29.61,61.88 28.842,61.88L15.93,61.88C16.442,60.952 17.202,60.04 18.21,59.144C19.218,58.248 20.65,57.128 22.506,55.784C23.978,54.728 25.09,53.888 25.842,53.264C26.594,52.64 27.506,51.768 28.578,50.648C29.65,49.528 30.426,48.368 30.906,47.168C31.386,45.968 31.626,44.664 31.626,43.256C31.626,40.76 30.746,38.6 28.986,36.776C27.098,34.76 24.538,33.752 21.306,33.752C18.234,33.752 15.746,34.768 13.842,36.8C11.938,38.832 10.986,41.16 10.986,43.784C10.986,44.552 11.258,45.208 11.802,45.752C12.346,46.296 13.002,46.568 13.77,46.568C14.538,46.568 15.194,46.296 15.738,45.752C16.282,45.208 16.554,44.552 16.554,43.784C16.554,42.824 16.922,41.84 17.658,40.832C18.394,39.824 19.61,39.32 21.306,39.32C22.97,39.32 24.178,39.736 24.93,40.568C25.682,41.4 26.058,42.296 26.058,43.256C26.058,43.992 25.906,44.688 25.602,45.344C25.298,46 24.746,46.712 23.946,47.48C23.146,48.248 22.474,48.84 21.93,49.256C21.386,49.672 20.49,50.344 19.242,51.272C18.026,52.136 17.098,52.824 16.458,53.336C15.818,53.848 14.994,54.576 13.986,55.52C12.978,56.464 12.21,57.336 11.682,58.136C11.154,58.936 10.682,59.912 10.266,61.064C9.85,62.216 9.642,63.416 9.642,64.664C9.642,65.432 9.914,66.088 10.458,66.632C11.002,67.176 11.658,67.448 12.426,67.448L28.842,67.448Z" style="fill:white;fill-rule:nonzero;"/>
    <path d="M38.49,62.504C41.786,65.8 45.754,67.448 50.394,67.448C55.034,67.448 59.01,65.8 62.322,62.504C65.634,59.208 67.29,55.24 67.29,50.6C67.29,45.96 65.642,41.992 62.346,38.696C59.05,35.4 55.066,33.752 50.394,33.752C45.754,33.752 41.786,35.4 38.49,38.696C35.194,41.992 33.546,45.96 33.546,50.6C33.546,55.24 35.194,59.208 38.49,62.504ZM42.45,42.632C44.642,40.424 47.29,39.32 50.394,39.32C53.498,39.32 56.154,40.424 58.362,42.632C60.57,44.84 61.674,47.496 61.674,50.6C61.674,53.704 60.57,56.36 58.362,58.568C56.154,60.776 53.498,61.88 50.394,61.88C47.29,61.88 44.642,60.776 42.45,58.568C40.258,56.36 39.162,53.704 39.162,50.6C39.162,47.496 40.258,44.84 42.45,42.632Z" style="fill:white;fill-rule:nonzero;"/>
</svg>
