<?xml version="1.0" encoding="UTF-8" standalone="no"?>
<!DOCTYPE svg PUBLIC "-//W3C//DTD SVG 1.1//EN" "http://www.w3.org/Graphics/SVG/1.1/DTD/svg11.dtd">
<svg width="100%" height="100%" viewBox="0 0 100 101" version="1.1" xmlns="http://www.w3.org/2000/svg" xmlns:xlink="http://www.w3.org/1999/xlink" xml:space="preserve" xmlns:serif="http://www.serif.com/" style="fill-rule:evenodd;clip-rule:evenodd;stroke-linejoin:round;stroke-miterlimit:2;">
    <rect id="_21" serif:id="21" x="0" y="0.542" width="100" height="100" style="fill:none;"/>
    <path id="number-big-stroke" serif:id="number big stroke" d="M52.191,41.821C51.988,41.852 51.778,41.857 51.56,41.839C50.792,41.775 50.16,41.447 49.664,40.855C49.168,40.263 48.952,39.583 49.016,38.815C49.08,38.047 49.416,37.423 50.024,36.943L51.444,35.743C50.785,33.876 49.712,32.167 48.222,30.617C45.428,27.648 41.693,26.039 36.92,26.039C32.333,26.039 28.65,27.634 25.807,30.668C22.976,33.69 21.6,37.169 21.6,41.071C21.6,43.219 22.359,45.053 23.88,46.575C23.88,46.575 23.88,46.575 23.88,46.575C24.783,47.477 25.796,48.111 26.92,48.476L26.182,49.158C24.835,50.419 23.828,51.6 23.123,52.669C22.403,53.759 21.744,55.082 21.177,56.653C20.565,58.348 20.256,60.114 20.256,61.951C20.256,64.099 21.015,65.933 22.536,67.455C22.536,67.455 22.536,67.455 22.536,67.455C24.057,68.976 25.892,69.735 28.04,69.735L44.456,69.735C46.603,69.735 48.438,68.976 49.959,67.455C51.48,65.933 52.24,64.099 52.24,61.951C52.24,59.804 51.48,57.969 49.959,56.448C48.546,55.034 46.862,54.279 44.907,54.18C45.723,53.482 46.69,52.556 47.804,51.392C49.363,49.763 50.464,48.057 51.162,46.312C51.723,44.91 52.071,43.414 52.191,41.821ZM44.456,64.735C45.224,64.735 45.88,64.463 46.424,63.919C46.968,63.375 47.24,62.719 47.24,61.951C47.24,61.183 46.968,60.527 46.424,59.983C45.88,59.439 45.224,59.167 44.456,59.167L31.544,59.167C32.056,58.239 32.816,57.327 33.824,56.431C34.832,55.535 36.264,54.415 38.12,53.071C39.592,52.015 40.704,51.175 41.456,50.551C42.208,49.927 43.12,49.055 44.192,47.935C45.264,46.815 46.04,45.655 46.52,44.455C47,43.255 47.24,41.951 47.24,40.543C47.24,38.047 46.36,35.887 44.6,34.063C42.712,32.047 40.152,31.039 36.92,31.039C33.848,31.039 31.36,32.055 29.456,34.087C27.552,36.119 26.6,38.447 26.6,41.071C26.6,41.839 26.872,42.495 27.416,43.039C27.96,43.583 28.616,43.855 29.384,43.855C30.152,43.855 30.808,43.583 31.352,43.039C31.896,42.495 32.168,41.839 32.168,41.071C32.168,40.111 32.536,39.127 33.272,38.119C34.008,37.111 35.224,36.607 36.92,36.607C38.584,36.607 39.792,37.023 40.544,37.855C41.296,38.687 41.672,39.583 41.672,40.543C41.672,41.279 41.52,41.975 41.216,42.631C40.912,43.287 40.36,43.999 39.56,44.767C38.76,45.535 38.088,46.127 37.544,46.543C37,46.959 36.104,47.631 34.856,48.559C33.64,49.423 32.712,50.111 32.072,50.623C31.432,51.135 30.608,51.863 29.6,52.807C28.592,53.751 27.824,54.623 27.296,55.423C26.768,56.223 26.296,57.199 25.88,58.351C25.464,59.503 25.256,60.703 25.256,61.951C25.256,62.719 25.528,63.375 26.072,63.919C26.616,64.463 27.272,64.735 28.04,64.735L44.456,64.735Z" style="fill:rgb(113,21,108);"/>
    <path d="M45.251,34.805C46.577,36.464 47.24,38.377 47.24,40.543C47.24,41.951 47,43.255 46.52,44.455L46.416,44.696C47.483,45.741 48.748,46.406 50.208,46.69L50.208,61.951C50.208,64.099 50.967,65.933 52.488,67.455C52.488,67.455 52.488,67.455 52.488,67.455C54.009,68.976 55.844,69.735 57.992,69.735C60.139,69.735 61.974,68.976 63.495,67.455C65.016,65.933 65.776,64.099 65.776,61.951L65.776,34.194C65.845,32.885 65.614,31.678 65.088,30.572L64.982,30.354C64.616,29.622 64.12,28.944 63.495,28.32C61.974,26.798 60.139,26.039 57.992,26.039C57.853,26.039 57.715,26.042 57.578,26.049C56.849,26.074 56.153,26.202 55.489,26.431C54.397,26.792 53.41,27.409 52.528,28.281L46.847,33.081C46.207,33.597 45.675,34.172 45.251,34.805ZM60.776,34.063C60.712,34.831 60.392,35.471 59.816,35.983L55.208,39.811L55.208,61.951C55.208,62.719 55.48,63.375 56.024,63.919C56.568,64.463 57.224,64.735 57.992,64.735C58.76,64.735 59.416,64.463 59.96,63.919C60.504,63.375 60.776,62.719 60.776,61.951L60.776,34.063C60.822,33.509 60.722,33.005 60.475,32.551L60.457,32.514L60.451,32.504L60.447,32.497L60.431,32.472C60.309,32.252 60.151,32.046 59.96,31.855C59.416,31.311 58.76,31.039 57.992,31.039C57.224,31.039 56.568,31.311 56.024,31.855L55.951,31.935L50.024,36.943C49.416,37.423 49.08,38.047 49.016,38.815C48.952,39.583 49.168,40.263 49.664,40.855C50.16,41.447 50.792,41.775 51.56,41.839C52.328,41.903 53,41.679 53.576,41.167L55.208,39.811L55.208,33.823C55.208,33.091 55.455,32.461 55.951,31.935L56.216,31.711C56.792,31.199 57.464,30.983 58.232,31.063C59,31.143 59.632,31.471 60.128,32.047C60.245,32.183 60.346,32.324 60.431,32.472L60.451,32.504L60.475,32.551C60.676,32.934 60.776,33.358 60.776,33.823L60.776,34.063Z" style="fill:rgb(113,21,108);"/>
    <g id="letter" transform="matrix(0.553202,0,0,0.764002,-442.022,4.0387)">
        <g transform="matrix(1.80766,0,0,1.3089,-738.042,-9.64201)">
            <path d="M932.223,66.254C931.711,67.419 930.979,68.5 930.03,69.498C930.019,69.51 930.007,69.522 929.995,69.534C927.776,71.822 924.896,73.063 921.277,73.063C917.752,73.063 914.882,71.859 912.611,69.588C912.581,69.559 912.552,69.529 912.523,69.498C910.439,67.306 909.407,64.715 909.407,61.733C909.407,60.151 909.882,58.765 910.837,57.577C910.165,56.219 909.827,54.676 909.827,52.943C909.827,50.059 910.82,47.562 912.817,45.454C912.829,45.441 912.842,45.428 912.855,45.415C914.992,43.207 917.773,42.003 921.277,42.003C924.781,42.003 927.561,43.207 929.699,45.415C929.701,45.417 929.703,45.419 929.705,45.421C931.739,47.529 932.749,50.029 932.756,52.911C932.322,53.226 931.916,53.597 931.537,54.023C930.077,55.583 929.347,57.503 929.347,59.783C929.347,62.083 930.077,64.013 931.537,65.573C931.756,65.819 931.984,66.046 932.223,66.254ZM921.277,68.063C923.397,68.063 925.107,67.393 926.407,66.053C927.567,64.833 928.147,63.393 928.147,61.733C928.147,59.733 927.367,58.193 925.807,57.113C925.007,56.533 923.677,55.983 921.817,55.463C920.337,55.023 919.382,54.643 918.952,54.323C918.522,54.003 918.307,53.543 918.307,52.943C918.307,52.343 918.542,51.783 919.012,51.263C919.482,50.743 920.237,50.483 921.277,50.483C922.317,50.483 923.072,50.743 923.542,51.263C924.012,51.783 924.247,52.343 924.247,52.943C924.247,53.423 924.417,53.833 924.757,54.173C925.097,54.513 925.507,54.683 925.987,54.683C926.487,54.683 926.907,54.513 927.247,54.173C927.587,53.833 927.757,53.423 927.757,52.943C927.757,51.383 927.207,50.033 926.107,48.893C924.887,47.633 923.277,47.003 921.277,47.003C919.277,47.003 917.667,47.633 916.447,48.893C915.367,50.033 914.827,51.383 914.827,52.943C914.827,54.803 915.577,56.243 917.077,57.263C917.797,57.763 919.057,58.283 920.857,58.823C922.377,59.263 923.392,59.668 923.902,60.038C924.412,60.408 924.667,60.973 924.667,61.733C924.667,62.413 924.397,63.058 923.857,63.668C923.317,64.278 922.457,64.583 921.277,64.583C920.097,64.583 919.237,64.278 918.697,63.668C918.157,63.058 917.887,62.413 917.887,61.733C917.887,61.253 917.717,60.843 917.377,60.503C917.037,60.163 916.627,59.993 916.147,59.993C915.667,59.993 915.257,60.163 914.917,60.503C914.577,60.843 914.407,61.253 914.407,61.733C914.407,63.393 914.987,64.833 916.147,66.053C917.487,67.393 919.197,68.063 921.277,68.063ZM932.886,59.174C933.053,59.948 933.14,60.77 933.145,61.638C932.953,61.078 932.857,60.46 932.857,59.783C932.857,59.574 932.866,59.372 932.886,59.174Z" style="fill:rgb(113,21,108);"/>
            <path d="M927.462,51.082C927.659,51.665 927.757,52.285 927.757,52.943C927.757,53.423 927.587,53.833 927.247,54.173C926.907,54.513 926.487,54.683 925.987,54.683C925.75,54.683 925.53,54.642 925.328,54.558C925.072,55.176 924.867,55.82 924.713,56.488C925.149,56.692 925.513,56.9 925.807,57.113C927.367,58.193 928.147,59.733 928.147,61.733C928.147,63.393 927.567,64.833 926.407,66.053C926.277,66.187 926.142,66.314 926.003,66.433C926.507,67.331 927.124,68.169 927.851,68.952C930.296,71.672 933.409,73.063 937.207,73.063C939.303,73.063 941.258,72.589 943.076,71.656C944.894,70.722 946.419,69.398 947.636,67.668C948.726,66.162 949.124,64.458 948.766,62.551C948.569,61.503 948.18,60.586 947.605,59.798C948.18,59.009 948.569,58.093 948.766,57.044C949.124,55.136 948.726,53.431 947.628,51.917C946.438,50.215 944.906,48.88 943.076,47.94C941.258,47.007 939.303,46.533 937.207,46.533C933.405,46.533 930.29,47.927 927.837,50.659L927.462,51.082ZM943.147,62.333C943.527,62.613 943.762,62.993 943.852,63.473C943.942,63.953 943.847,64.383 943.567,64.763C942.827,65.823 941.902,66.638 940.792,67.208C939.682,67.778 938.487,68.063 937.207,68.063C934.907,68.063 933.017,67.233 931.537,65.573C930.077,64.013 929.347,62.083 929.347,59.783C929.347,57.503 930.077,55.583 931.537,54.023C933.017,52.363 934.907,51.533 937.207,51.533C938.487,51.533 939.682,51.818 940.792,52.388C941.902,52.958 942.827,53.773 943.567,54.833C943.847,55.213 943.942,55.643 943.852,56.123C943.762,56.603 943.527,56.983 943.147,57.263C942.747,57.543 942.307,57.638 941.827,57.548C941.347,57.458 940.977,57.213 940.717,56.813C939.857,55.613 938.687,55.013 937.207,55.013C935.947,55.013 934.907,55.463 934.087,56.363C933.267,57.263 932.857,58.403 932.857,59.783C932.857,61.183 933.267,62.333 934.087,63.233C934.907,64.133 935.947,64.583 937.207,64.583C938.687,64.583 939.857,63.983 940.717,62.783C940.977,62.383 941.347,62.138 941.827,62.048C942.307,61.958 942.747,62.053 943.147,62.333ZM944.81,65.653C944.827,65.629 944.843,65.605 944.86,65.581C944.876,65.557 944.893,65.533 944.909,65.508L944.81,65.653ZM924.365,60.533C924.394,61.178 924.463,61.804 924.571,62.411C924.636,62.189 924.667,61.963 924.667,61.733C924.667,61.256 924.566,60.856 924.365,60.533ZM936.653,59.87L936.524,60.058L936.653,59.87ZM936.653,59.726L936.524,59.538L936.653,59.726Z" style="fill:rgb(113,21,108);"/>
        </g>
        <g transform="matrix(1.80766,0,0,1.3089,-738.042,-9.64201)">
            <g transform="matrix(30,0,0,30,913.807,68.0629)">
                <path d="M0.249,-0C0.32,-0 0.377,-0.022 0.42,-0.067C0.459,-0.108 0.478,-0.156 0.478,-0.211C0.478,-0.278 0.452,-0.329 0.4,-0.365C0.373,-0.384 0.329,-0.403 0.267,-0.42C0.218,-0.435 0.186,-0.447 0.172,-0.458C0.157,-0.469 0.15,-0.484 0.15,-0.504C0.15,-0.524 0.158,-0.543 0.173,-0.56C0.189,-0.577 0.214,-0.586 0.249,-0.586C0.284,-0.586 0.309,-0.577 0.325,-0.56C0.34,-0.543 0.348,-0.524 0.348,-0.504C0.348,-0.488 0.354,-0.474 0.365,-0.463C0.376,-0.452 0.39,-0.446 0.406,-0.446C0.423,-0.446 0.437,-0.452 0.448,-0.463C0.459,-0.474 0.465,-0.488 0.465,-0.504C0.465,-0.556 0.447,-0.601 0.41,-0.639C0.369,-0.681 0.316,-0.702 0.249,-0.702C0.182,-0.702 0.129,-0.681 0.088,-0.639C0.052,-0.601 0.034,-0.556 0.034,-0.504C0.034,-0.442 0.059,-0.394 0.109,-0.36C0.133,-0.343 0.175,-0.326 0.235,-0.308C0.286,-0.293 0.32,-0.28 0.337,-0.268C0.354,-0.255 0.362,-0.236 0.362,-0.211C0.362,-0.188 0.353,-0.167 0.335,-0.147C0.317,-0.126 0.288,-0.116 0.249,-0.116C0.21,-0.116 0.181,-0.126 0.163,-0.147C0.145,-0.167 0.136,-0.188 0.136,-0.211C0.136,-0.227 0.13,-0.241 0.119,-0.252C0.108,-0.263 0.094,-0.269 0.078,-0.269C0.062,-0.269 0.048,-0.263 0.037,-0.252C0.026,-0.241 0.02,-0.227 0.02,-0.211C0.02,-0.156 0.039,-0.108 0.078,-0.067C0.123,-0.022 0.18,-0 0.249,-0Z" style="fill:white;fill-rule:nonzero;"/>
            </g>
            <g transform="matrix(30,0,0,30,928.747,68.0629)">
                <path d="M0.48,-0.191C0.493,-0.182 0.5,-0.169 0.503,-0.153C0.506,-0.137 0.503,-0.123 0.494,-0.11C0.469,-0.075 0.439,-0.048 0.402,-0.029C0.365,-0.01 0.325,-0 0.282,-0C0.205,-0 0.142,-0.028 0.093,-0.083C0.044,-0.135 0.02,-0.199 0.02,-0.276C0.02,-0.352 0.044,-0.416 0.093,-0.468C0.142,-0.523 0.205,-0.551 0.282,-0.551C0.325,-0.551 0.365,-0.542 0.402,-0.523C0.439,-0.503 0.469,-0.476 0.494,-0.441C0.503,-0.428 0.506,-0.414 0.503,-0.398C0.5,-0.382 0.493,-0.369 0.48,-0.36C0.467,-0.351 0.452,-0.347 0.436,-0.35C0.42,-0.354 0.408,-0.362 0.399,-0.375C0.37,-0.415 0.331,-0.435 0.282,-0.435C0.24,-0.435 0.205,-0.42 0.178,-0.39C0.151,-0.36 0.137,-0.322 0.137,-0.276C0.137,-0.229 0.151,-0.191 0.178,-0.161C0.205,-0.131 0.24,-0.116 0.282,-0.116C0.331,-0.116 0.37,-0.136 0.399,-0.176C0.408,-0.189 0.42,-0.198 0.436,-0.201C0.452,-0.203 0.467,-0.2 0.48,-0.191Z" style="fill:white;fill-rule:nonzero;"/>
            </g>
        </g>
    </g>
    <path id="number-face" serif:id="number face" d="M44.456,64.735C45.224,64.735 45.88,64.463 46.424,63.919C46.968,63.375 47.24,62.719 47.24,61.951C47.24,61.183 46.968,60.527 46.424,59.983C45.88,59.439 45.224,59.167 44.456,59.167L31.544,59.167C32.056,58.239 32.816,57.327 33.824,56.431C34.832,55.535 36.264,54.415 38.12,53.071C39.592,52.015 40.704,51.175 41.456,50.551C42.208,49.927 43.12,49.055 44.192,47.935C45.264,46.815 46.04,45.655 46.52,44.455C47,43.255 47.24,41.951 47.24,40.543C47.24,38.047 46.36,35.887 44.6,34.063C42.712,32.047 40.152,31.039 36.92,31.039C33.848,31.039 31.36,32.055 29.456,34.087C27.552,36.119 26.6,38.447 26.6,41.071C26.6,41.839 26.872,42.495 27.416,43.039C27.96,43.583 28.616,43.855 29.384,43.855C30.152,43.855 30.808,43.583 31.352,43.039C31.896,42.495 32.168,41.839 32.168,41.071C32.168,40.111 32.536,39.127 33.272,38.119C34.008,37.111 35.224,36.607 36.92,36.607C38.584,36.607 39.792,37.023 40.544,37.855C41.296,38.687 41.672,39.583 41.672,40.543C41.672,41.279 41.52,41.975 41.216,42.631C40.912,43.287 40.36,43.999 39.56,44.767C38.76,45.535 38.088,46.127 37.544,46.543C37,46.959 36.104,47.631 34.856,48.559C33.64,49.423 32.712,50.111 32.072,50.623C31.432,51.135 30.608,51.863 29.6,52.807C28.592,53.751 27.824,54.623 27.296,55.423C26.768,56.223 26.296,57.199 25.88,58.351C25.464,59.503 25.256,60.703 25.256,61.951C25.256,62.719 25.528,63.375 26.072,63.919C26.616,64.463 27.272,64.735 28.04,64.735L44.456,64.735Z" style="fill:white;fill-rule:nonzero;"/>
    <path d="M49.016,38.815C48.952,39.583 49.168,40.263 49.664,40.855C50.16,41.447 50.792,41.775 51.56,41.839C52.328,41.903 53,41.679 53.576,41.167L59.816,35.983C60.392,35.471 60.712,34.831 60.776,34.063C60.84,33.295 60.624,32.623 60.128,32.047C59.632,31.471 59,31.143 58.232,31.063C57.464,30.983 56.792,31.199 56.216,31.711L50.024,36.943C49.416,37.423 49.08,38.047 49.016,38.815ZM56.024,63.919C56.568,64.463 57.224,64.735 57.992,64.735C58.76,64.735 59.416,64.463 59.96,63.919C60.504,63.375 60.776,62.719 60.776,61.951L60.776,33.823C60.776,33.055 60.504,32.399 59.96,31.855C59.416,31.311 58.76,31.039 57.992,31.039C57.224,31.039 56.568,31.311 56.024,31.855C55.48,32.399 55.208,33.055 55.208,33.823L55.208,61.951C55.208,62.719 55.48,63.375 56.024,63.919Z" style="fill:white;fill-rule:nonzero;"/>
</svg>
