<?xml version="1.0" encoding="UTF-8" standalone="no"?>
<!DOCTYPE svg PUBLIC "-//W3C//DTD SVG 1.1//EN" "http://www.w3.org/Graphics/SVG/1.1/DTD/svg11.dtd">
<svg width="100%" height="100%" viewBox="0 0 101 101" version="1.1" xmlns="http://www.w3.org/2000/svg" xmlns:xlink="http://www.w3.org/1999/xlink" xml:space="preserve" xmlns:serif="http://www.serif.com/" style="fill-rule:evenodd;clip-rule:evenodd;stroke-linejoin:round;stroke-miterlimit:2;">
    <rect id="_22" serif:id="22" x="0.564" y="0.542" width="100" height="100" style="fill:none;"/>
    <rect x="34.638" y="45.238" width="15.699" height="15.307" style="fill:rgb(113,21,108);"/>
    <rect x="73.12" y="40.415" width="15.699" height="15.307" style="fill:rgb(113,21,108);"/>
    <path id="number-big-stroke" serif:id="number big stroke" d="M43.196,64.726C42.511,64.687 41.919,64.417 41.421,63.919C40.877,63.375 40.605,62.719 40.605,61.951C40.605,60.703 40.813,59.503 41.229,58.351C41.416,57.833 41.615,57.35 41.826,56.903C41.694,56.747 41.553,56.596 41.405,56.448C39.991,55.034 38.307,54.279 36.353,54.18C37.168,53.482 38.136,52.556 39.249,51.392C40.808,49.763 41.909,48.057 42.607,46.312C42.963,45.423 43.233,44.496 43.414,43.53C43.182,43.404 42.966,43.24 42.765,43.039C42.221,42.495 41.949,41.839 41.949,41.071C41.949,39.4 42.335,37.849 43.109,36.418C42.481,34.287 41.335,32.352 39.668,30.617C36.873,27.648 33.139,26.039 28.365,26.039C23.778,26.039 20.095,27.634 17.252,30.668C14.421,33.69 13.045,37.169 13.045,41.071C13.045,43.219 13.804,45.053 15.326,46.575C15.326,46.575 15.326,46.575 15.326,46.575C16.228,47.477 17.241,48.111 18.365,48.476L17.627,49.158C16.281,50.419 15.273,51.6 14.568,52.669C13.848,53.759 13.189,55.082 12.622,56.653C12.01,58.348 11.701,60.114 11.701,61.951C11.701,64.099 12.46,65.933 13.982,67.455C13.982,67.455 13.982,67.455 13.982,67.455C15.503,68.976 17.338,69.735 19.485,69.735L35.901,69.735C38.049,69.735 39.883,68.976 41.405,67.455C42.223,66.636 42.821,65.727 43.196,64.726ZM35.901,64.735C36.669,64.735 37.325,64.463 37.869,63.919C38.413,63.375 38.685,62.719 38.685,61.951C38.685,61.183 38.413,60.527 37.869,59.983C37.325,59.439 36.669,59.167 35.901,59.167L22.989,59.167C23.501,58.239 24.261,57.327 25.269,56.431C26.277,55.535 27.709,54.415 29.565,53.071C31.037,52.015 32.149,51.175 32.901,50.551C33.653,49.927 34.565,49.055 35.637,47.935C36.709,46.815 37.485,45.655 37.965,44.455C38.445,43.255 38.685,41.951 38.685,40.543C38.685,38.047 37.805,35.887 36.045,34.063C34.157,32.047 31.597,31.039 28.365,31.039C25.293,31.039 22.805,32.055 20.901,34.087C18.997,36.119 18.045,38.447 18.045,41.071C18.045,41.839 18.317,42.495 18.861,43.039C19.405,43.583 20.061,43.855 20.829,43.855C21.597,43.855 22.253,43.583 22.797,43.039C23.341,42.495 23.613,41.839 23.613,41.071C23.613,40.111 23.981,39.127 24.717,38.119C25.453,37.111 26.669,36.607 28.365,36.607C30.029,36.607 31.237,37.023 31.989,37.855C32.741,38.687 33.117,39.583 33.117,40.543C33.117,41.279 32.965,41.975 32.661,42.631C32.357,43.287 31.805,43.999 31.005,44.767C30.205,45.535 29.533,46.127 28.989,46.543C28.445,46.959 27.549,47.631 26.301,48.559C25.085,49.423 24.157,50.111 23.517,50.623C22.877,51.135 22.053,51.863 21.045,52.807C20.037,53.751 19.269,54.623 18.741,55.423C18.213,56.223 17.741,57.199 17.325,58.351C16.909,59.503 16.701,60.703 16.701,61.951C16.701,62.719 16.973,63.375 17.517,63.919C18.061,64.463 18.717,64.735 19.485,64.735L35.901,64.735Z" style="fill:rgb(113,21,108);"/>
    <path d="M37.697,36.343C38.356,37.617 38.685,39.017 38.685,40.543C38.685,41.951 38.445,43.255 37.965,44.455L37.843,44.737C38.199,45.394 38.661,46.006 39.23,46.575C39.23,46.575 39.23,46.575 39.23,46.575C40.132,47.477 41.145,48.111 42.269,48.476L41.531,49.158C40.185,50.419 39.177,51.6 38.472,52.669C37.752,53.759 37.093,55.082 36.526,56.653C36.23,57.474 36.004,58.312 35.852,59.167L35.901,59.167C36.669,59.167 37.325,59.439 37.869,59.983C38.413,60.527 38.685,61.183 38.685,61.951C38.685,62.719 38.413,63.375 37.869,63.919C37.371,64.417 36.779,64.687 36.094,64.726C36.469,65.727 37.067,66.636 37.886,67.455C37.886,67.455 37.886,67.455 37.886,67.455C39.407,68.976 41.242,69.735 43.389,69.735L59.805,69.735C61.953,69.735 63.787,68.976 65.309,67.455C66.83,65.933 67.589,64.099 67.589,61.951C67.589,59.804 66.83,57.969 65.309,56.448C63.895,55.034 62.211,54.279 60.257,54.18C61.072,53.482 62.04,52.556 63.153,51.392C64.712,49.763 65.813,48.057 66.511,46.312C67.22,44.542 67.589,42.62 67.589,40.543C67.589,36.723 66.257,33.412 63.572,30.617C60.777,27.648 57.043,26.039 52.269,26.039C47.682,26.039 43.999,27.634 41.156,30.668C39.524,32.41 38.376,34.304 37.697,36.343ZM59.805,64.735C60.573,64.735 61.229,64.463 61.773,63.919C62.317,63.375 62.589,62.719 62.589,61.951C62.589,61.183 62.317,60.527 61.773,59.983C61.229,59.439 60.573,59.167 59.805,59.167L46.893,59.167C47.405,58.239 48.165,57.327 49.173,56.431C50.181,55.535 51.613,54.415 53.469,53.071C54.941,52.015 56.053,51.175 56.805,50.551C57.557,49.927 58.469,49.055 59.541,47.935C60.613,46.815 61.389,45.655 61.869,44.455C62.349,43.255 62.589,41.951 62.589,40.543C62.589,38.047 61.709,35.887 59.949,34.063C58.061,32.047 55.501,31.039 52.269,31.039C49.197,31.039 46.709,32.055 44.805,34.087C42.901,36.119 41.949,38.447 41.949,41.071C41.949,41.839 42.221,42.495 42.765,43.039C43.309,43.583 43.965,43.855 44.733,43.855C45.501,43.855 46.157,43.583 46.701,43.039C47.245,42.495 47.517,41.839 47.517,41.071C47.517,40.111 47.885,39.127 48.621,38.119C49.357,37.111 50.573,36.607 52.269,36.607C53.933,36.607 55.141,37.023 55.893,37.855C56.645,38.687 57.021,39.583 57.021,40.543C57.021,41.279 56.869,41.975 56.565,42.631C56.261,43.287 55.709,43.999 54.909,44.767C54.109,45.535 53.437,46.127 52.893,46.543C52.349,46.959 51.453,47.631 50.205,48.559C48.989,49.423 48.061,50.111 47.421,50.623C46.781,51.135 45.957,51.863 44.949,52.807C43.941,53.751 43.173,54.623 42.645,55.423C42.117,56.223 41.645,57.199 41.229,58.351C40.813,59.503 40.605,60.703 40.605,61.951C40.605,62.719 40.877,63.375 41.421,63.919C41.965,64.463 42.621,64.735 43.389,64.735L59.805,64.735Z" style="fill:rgb(113,21,108);"/>
    <g id="letter" transform="matrix(0.42038,0,0,0.764002,-318.834,4.0387)">
        <g transform="matrix(2.3788,0,0,1.3089,-1259.96,-9.64201)">
            <path d="M931.207,55.194C930.645,55.366 930.051,55.46 929.427,55.478L929.427,66.323C929.427,68.182 928.769,69.771 927.452,71.088C926.155,72.386 924.564,73.063 922.657,73.063C920.797,73.063 919.208,72.406 917.891,71.088C917.891,71.088 917.891,71.088 917.891,71.088C916.574,69.771 915.917,68.182 915.917,66.323L915.917,55.478C914.156,55.427 912.644,54.771 911.381,53.508C911.381,53.508 911.381,53.508 911.381,53.508C910.064,52.191 909.407,50.602 909.407,48.743C909.407,46.883 910.064,45.294 911.381,43.977C912.698,42.66 914.287,42.003 916.147,42.003L929.197,42.003C931.056,42.003 932.645,42.66 933.962,43.977C935.279,45.295 935.937,46.883 935.937,48.743C935.937,50.252 935.503,51.584 934.636,52.736C934.555,52.479 934.412,52.248 934.207,52.043C933.867,51.703 933.447,51.533 932.947,51.533C932.467,51.533 932.057,51.703 931.717,52.043C931.377,52.383 931.207,52.793 931.207,53.273L931.207,55.194ZM929.197,47.003C929.677,47.003 930.087,47.173 930.427,47.513C930.767,47.853 930.937,48.263 930.937,48.743C930.937,49.223 930.767,49.633 930.427,49.973C930.087,50.313 929.677,50.483 929.197,50.483L924.427,50.483L924.427,66.323C924.427,66.803 924.257,67.213 923.917,67.553C923.577,67.893 923.157,68.063 922.657,68.063C922.177,68.063 921.767,67.893 921.427,67.553C921.087,67.213 920.917,66.803 920.917,66.323L920.917,50.483L916.147,50.483C915.667,50.483 915.257,50.313 914.917,49.973C914.577,49.633 914.407,49.223 914.407,48.743C914.407,48.263 914.577,47.853 914.917,47.513C915.257,47.173 915.667,47.003 916.147,47.003L929.197,47.003ZM934.267,49.313C933.907,49.653 933.467,49.823 932.947,49.823C932.427,49.823 931.987,49.653 931.627,49.313C931.267,48.973 931.087,48.553 931.087,48.053C931.087,47.553 931.267,47.133 931.627,46.793C931.987,46.453 932.427,46.283 932.947,46.283C933.467,46.283 933.907,46.453 934.267,46.793C934.627,47.133 934.817,47.553 934.837,48.053C934.817,48.553 934.627,48.973 934.267,49.313Z" style="fill:rgb(113,21,108);"/>
            <path d="M926.16,47.003C926.373,45.515 927.054,44.234 928.194,43.158C929.493,41.93 931.069,41.283 932.947,41.283C934.824,41.283 936.4,41.93 937.7,43.158C939.042,44.426 939.758,45.989 939.833,47.853C939.838,47.986 939.838,48.12 939.833,48.253C939.796,49.168 939.605,50.011 939.26,50.781C939.565,51.549 939.717,52.38 939.717,53.273L939.717,66.323C939.717,68.182 939.059,69.771 937.742,71.088C936.445,72.386 934.854,73.063 932.947,73.063C931.087,73.063 929.498,72.406 928.181,71.088C928.181,71.088 928.181,71.088 928.181,71.088C926.864,69.771 926.207,68.182 926.207,66.323L926.207,53.273C926.207,52.392 926.354,51.571 926.652,50.812C926.603,50.704 926.557,50.594 926.515,50.483L929.197,50.483C929.677,50.483 930.087,50.313 930.427,49.973C930.767,49.633 930.937,49.223 930.937,48.743C930.937,48.263 930.767,47.853 930.427,47.513C930.295,47.381 930.152,47.274 929.998,47.194C930.575,46.908 931.191,46.715 931.845,46.617C931.769,46.668 931.696,46.727 931.627,46.793C931.267,47.133 931.087,47.553 931.087,48.053C931.087,48.553 931.267,48.973 931.627,49.313C931.987,49.653 932.427,49.823 932.947,49.823C933.467,49.823 933.907,49.653 934.267,49.313C934.627,48.973 934.817,48.553 934.837,48.053C934.817,47.553 934.627,47.133 934.267,46.793C934.196,46.727 934.123,46.667 934.046,46.615C934.741,46.717 935.388,46.922 935.988,47.226C935.842,46.638 935.53,46.122 935.06,45.678C934.48,45.13 933.784,44.823 932.947,44.823C932.109,44.823 931.413,45.13 930.834,45.678L930.834,45.678C930.384,46.103 930.084,46.598 929.94,47.167C929.715,47.057 929.467,47.003 929.197,47.003L926.16,47.003ZM932.947,51.533C933.447,51.533 933.867,51.703 934.207,52.043C934.547,52.383 934.717,52.793 934.717,53.273L934.717,66.323C934.717,66.803 934.547,67.213 934.207,67.553C933.867,67.893 933.447,68.063 932.947,68.063C932.467,68.063 932.057,67.893 931.717,67.553C931.377,67.213 931.207,66.803 931.207,66.323L931.207,53.273C931.207,52.793 931.377,52.383 931.717,52.043C932.057,51.703 932.467,51.533 932.947,51.533Z" style="fill:rgb(113,21,108);"/>
        </g>
        <g transform="matrix(2.3788,0,0,1.3089,-1259.96,-9.64201)">
            <g transform="matrix(30,0,0,30,913.807,68.0629)">
                <path d="M0.513,-0.702C0.529,-0.702 0.543,-0.696 0.554,-0.685C0.565,-0.674 0.571,-0.66 0.571,-0.644C0.571,-0.628 0.565,-0.614 0.554,-0.603C0.543,-0.592 0.529,-0.586 0.513,-0.586L0.354,-0.586L0.354,-0.058C0.354,-0.042 0.348,-0.028 0.337,-0.017C0.326,-0.006 0.312,-0 0.295,-0C0.279,-0 0.265,-0.006 0.254,-0.017C0.243,-0.028 0.237,-0.042 0.237,-0.058L0.237,-0.586L0.078,-0.586C0.062,-0.586 0.048,-0.592 0.037,-0.603C0.026,-0.614 0.02,-0.628 0.02,-0.644C0.02,-0.66 0.026,-0.674 0.037,-0.685C0.048,-0.696 0.062,-0.702 0.078,-0.702L0.513,-0.702Z" style="fill:white;fill-rule:nonzero;"/>
            </g>
            <g transform="matrix(30,0,0,30,930.337,68.0629)">
                <path d="M0.131,-0.625C0.119,-0.614 0.104,-0.608 0.087,-0.608C0.07,-0.608 0.055,-0.614 0.043,-0.625C0.031,-0.636 0.025,-0.65 0.025,-0.667C0.025,-0.684 0.031,-0.698 0.043,-0.709C0.055,-0.72 0.07,-0.726 0.087,-0.726C0.104,-0.726 0.119,-0.72 0.131,-0.709C0.143,-0.698 0.149,-0.684 0.15,-0.667C0.149,-0.65 0.143,-0.636 0.131,-0.625ZM0.087,-0.551C0.104,-0.551 0.118,-0.545 0.129,-0.534C0.14,-0.523 0.146,-0.509 0.146,-0.493L0.146,-0.058C0.146,-0.042 0.14,-0.028 0.129,-0.017C0.118,-0.006 0.104,-0 0.087,-0C0.071,-0 0.057,-0.006 0.046,-0.017C0.035,-0.028 0.029,-0.042 0.029,-0.058L0.029,-0.493C0.029,-0.509 0.035,-0.523 0.046,-0.534C0.057,-0.545 0.071,-0.551 0.087,-0.551Z" style="fill:white;fill-rule:nonzero;"/>
            </g>
        </g>
    </g>
    <path id="number-face" serif:id="number face" d="M35.901,64.735C36.669,64.735 37.325,64.463 37.869,63.919C38.413,63.375 38.685,62.719 38.685,61.951C38.685,61.183 38.413,60.527 37.869,59.983C37.325,59.439 36.669,59.167 35.901,59.167L22.989,59.167C23.501,58.239 24.261,57.327 25.269,56.431C26.277,55.535 27.709,54.415 29.565,53.071C31.037,52.015 32.149,51.175 32.901,50.551C33.653,49.927 34.565,49.055 35.637,47.935C36.709,46.815 37.485,45.655 37.965,44.455C38.445,43.255 38.685,41.951 38.685,40.543C38.685,38.047 37.805,35.887 36.045,34.063C34.157,32.047 31.597,31.039 28.365,31.039C25.293,31.039 22.805,32.055 20.901,34.087C18.997,36.119 18.045,38.447 18.045,41.071C18.045,41.839 18.317,42.495 18.861,43.039C19.405,43.583 20.061,43.855 20.829,43.855C21.597,43.855 22.253,43.583 22.797,43.039C23.341,42.495 23.613,41.839 23.613,41.071C23.613,40.111 23.981,39.127 24.717,38.119C25.453,37.111 26.669,36.607 28.365,36.607C30.029,36.607 31.237,37.023 31.989,37.855C32.741,38.687 33.117,39.583 33.117,40.543C33.117,41.279 32.965,41.975 32.661,42.631C32.357,43.287 31.805,43.999 31.005,44.767C30.205,45.535 29.533,46.127 28.989,46.543C28.445,46.959 27.549,47.631 26.301,48.559C25.085,49.423 24.157,50.111 23.517,50.623C22.877,51.135 22.053,51.863 21.045,52.807C20.037,53.751 19.269,54.623 18.741,55.423C18.213,56.223 17.741,57.199 17.325,58.351C16.909,59.503 16.701,60.703 16.701,61.951C16.701,62.719 16.973,63.375 17.517,63.919C18.061,64.463 18.717,64.735 19.485,64.735L35.901,64.735Z" style="fill:white;fill-rule:nonzero;"/>
    <path d="M59.805,64.735C60.573,64.735 61.229,64.463 61.773,63.919C62.317,63.375 62.589,62.719 62.589,61.951C62.589,61.183 62.317,60.527 61.773,59.983C61.229,59.439 60.573,59.167 59.805,59.167L46.893,59.167C47.405,58.239 48.165,57.327 49.173,56.431C50.181,55.535 51.613,54.415 53.469,53.071C54.941,52.015 56.053,51.175 56.805,50.551C57.557,49.927 58.469,49.055 59.541,47.935C60.613,46.815 61.389,45.655 61.869,44.455C62.349,43.255 62.589,41.951 62.589,40.543C62.589,38.047 61.709,35.887 59.949,34.063C58.061,32.047 55.501,31.039 52.269,31.039C49.197,31.039 46.709,32.055 44.805,34.087C42.901,36.119 41.949,38.447 41.949,41.071C41.949,41.839 42.221,42.495 42.765,43.039C43.309,43.583 43.965,43.855 44.733,43.855C45.501,43.855 46.157,43.583 46.701,43.039C47.245,42.495 47.517,41.839 47.517,41.071C47.517,40.111 47.885,39.127 48.621,38.119C49.357,37.111 50.573,36.607 52.269,36.607C53.933,36.607 55.141,37.023 55.893,37.855C56.645,38.687 57.021,39.583 57.021,40.543C57.021,41.279 56.869,41.975 56.565,42.631C56.261,43.287 55.709,43.999 54.909,44.767C54.109,45.535 53.437,46.127 52.893,46.543C52.349,46.959 51.453,47.631 50.205,48.559C48.989,49.423 48.061,50.111 47.421,50.623C46.781,51.135 45.957,51.863 44.949,52.807C43.941,53.751 43.173,54.623 42.645,55.423C42.117,56.223 41.645,57.199 41.229,58.351C40.813,59.503 40.605,60.703 40.605,61.951C40.605,62.719 40.877,63.375 41.421,63.919C41.965,64.463 42.621,64.735 43.389,64.735L59.805,64.735Z" style="fill:white;fill-rule:nonzero;"/>
</svg>
