<?xml version="1.0" encoding="UTF-8" standalone="no"?>
<!DOCTYPE svg PUBLIC "-//W3C//DTD SVG 1.1//EN" "http://www.w3.org/Graphics/SVG/1.1/DTD/svg11.dtd">
<svg width="100%" height="100%" viewBox="0 0 101 101" version="1.1" xmlns="http://www.w3.org/2000/svg" xmlns:xlink="http://www.w3.org/1999/xlink" xml:space="preserve" xmlns:serif="http://www.serif.com/" style="fill-rule:evenodd;clip-rule:evenodd;stroke-linejoin:round;stroke-miterlimit:2;">
    <rect id="_23" serif:id="23" x="0.361" y="0.542" width="100" height="100" style="fill:none;"/>
    <path id="number-big-stroke" serif:id="number big stroke" d="M40.731,62.505C40.312,62.18 39.915,61.819 39.542,61.423C37.815,59.696 36.878,57.594 36.733,55.118C35.732,54.553 34.627,54.241 33.418,54.18C34.233,53.482 35.201,52.556 36.314,51.392C37.873,49.763 38.974,48.057 39.673,46.312C40.077,45.302 40.37,44.242 40.548,43.133C39.801,43.123 39.162,42.851 38.63,42.319C38.086,41.775 37.814,41.103 37.814,40.303C37.814,38.257 38.414,36.449 39.616,34.88C38.95,33.346 37.99,31.925 36.733,30.617C33.938,27.648 30.204,26.039 25.43,26.039C20.843,26.039 17.16,27.634 14.318,30.668C11.486,33.69 10.11,37.169 10.11,41.071C10.11,43.219 10.869,45.053 12.391,46.575C12.391,46.575 12.391,46.575 12.391,46.575C13.293,47.477 14.306,48.111 15.43,48.476L14.692,49.158C13.346,50.419 12.338,51.6 11.633,52.669C10.913,53.759 10.254,55.082 9.687,56.653C9.075,58.348 8.766,60.114 8.766,61.951C8.766,64.099 9.525,65.933 11.047,67.455C11.047,67.455 11.047,67.455 11.047,67.455C12.568,68.976 14.403,69.735 16.55,69.735L32.966,69.735C35.114,69.735 36.948,68.976 38.47,67.455C39.858,66.066 40.612,64.416 40.731,62.505ZM32.966,64.735C33.734,64.735 34.39,64.463 34.934,63.919C35.478,63.375 35.75,62.719 35.75,61.951C35.75,61.183 35.478,60.527 34.934,59.983C34.39,59.439 33.734,59.167 32.966,59.167L20.054,59.167C20.566,58.239 21.326,57.327 22.334,56.431C23.342,55.535 24.774,54.415 26.63,53.071C28.102,52.015 29.214,51.175 29.966,50.551C30.718,49.927 31.63,49.055 32.702,47.935C33.774,46.815 34.55,45.655 35.03,44.455C35.51,43.255 35.75,41.951 35.75,40.543C35.75,38.047 34.87,35.887 33.11,34.063C31.222,32.047 28.662,31.039 25.43,31.039C22.358,31.039 19.87,32.055 17.966,34.087C16.062,36.119 15.11,38.447 15.11,41.071C15.11,41.839 15.382,42.495 15.926,43.039C16.47,43.583 17.126,43.855 17.894,43.855C18.662,43.855 19.318,43.583 19.862,43.039C20.406,42.495 20.678,41.839 20.678,41.071C20.678,40.111 21.046,39.127 21.782,38.119C22.518,37.111 23.734,36.607 25.43,36.607C27.094,36.607 28.302,37.023 29.054,37.855C29.806,38.687 30.182,39.583 30.182,40.543C30.182,41.279 30.03,41.975 29.726,42.631C29.422,43.287 28.87,43.999 28.07,44.767C27.27,45.535 26.598,46.127 26.054,46.543C25.51,46.959 24.614,47.631 23.366,48.559C22.15,49.423 21.222,50.111 20.582,50.623C19.942,51.135 19.118,51.863 18.11,52.807C17.102,53.751 16.334,54.623 15.806,55.423C15.278,56.223 14.806,57.199 14.39,58.351C13.974,59.503 13.766,60.703 13.766,61.951C13.766,62.719 14.038,63.375 14.582,63.919C15.126,64.463 15.782,64.735 16.55,64.735L32.966,64.735Z" style="fill:rgb(113,21,108);"/>
    <path d="M33.848,34.917C35.117,36.55 35.75,38.425 35.75,40.543C35.75,41.951 35.51,43.255 35.03,44.455C34.911,44.752 34.775,45.046 34.62,45.338C34.768,45.515 34.927,45.687 35.095,45.855C35.095,45.855 35.095,45.855 35.095,45.855C35.601,46.361 36.143,46.783 36.72,47.119C35.719,47.495 34.809,48.093 33.991,48.912C32.469,50.433 31.71,52.268 31.71,54.415C31.71,56.111 31.948,57.694 32.419,59.167L32.966,59.167C33.734,59.167 34.39,59.439 34.934,59.983C35.478,60.527 35.75,61.183 35.75,61.951C35.75,62.688 35.5,63.321 34.997,63.85C35.297,64.213 35.617,64.566 35.958,64.909C38.931,68.047 42.887,69.735 47.894,69.735C52.84,69.735 56.813,68.066 59.881,64.906C59.884,64.904 59.886,64.902 59.888,64.899C62.713,61.979 64.126,58.484 64.126,54.415C64.126,51.271 63.303,48.574 61.662,46.321C62.532,44.564 62.974,42.561 62.974,40.303C62.974,36.541 61.67,33.297 59.055,30.571C56.291,27.631 52.603,26.039 47.894,26.039C43.295,26.039 39.61,27.599 36.765,30.538C36.763,30.54 36.76,30.543 36.758,30.546C35.474,31.878 34.504,33.335 33.848,34.917ZM47.894,64.735C51.35,64.735 54.15,63.631 56.294,61.423C58.182,59.471 59.126,57.135 59.126,54.415C59.126,51.247 57.83,48.783 55.238,47.023C55.142,46.927 55.03,46.847 54.902,46.783C56.95,45.215 57.974,43.055 57.974,40.303C57.974,37.871 57.126,35.775 55.43,34.015C53.574,32.031 51.062,31.039 47.894,31.039C44.79,31.039 42.278,32.031 40.358,34.015C38.662,35.775 37.814,37.871 37.814,40.303C37.814,41.103 38.086,41.775 38.63,42.319C39.174,42.863 39.83,43.135 40.598,43.135C41.366,43.135 42.022,42.863 42.566,42.319C43.11,41.775 43.382,41.103 43.382,40.303C43.382,39.407 43.742,38.567 44.462,37.783C45.182,36.999 46.326,36.607 47.894,36.607C49.462,36.607 50.606,36.999 51.326,37.783C52.046,38.567 52.406,39.407 52.406,40.303C52.406,41.231 52.07,41.935 51.398,42.415C50.726,42.895 49.27,43.455 47.03,44.095L46.934,44.143C46.358,44.239 45.854,44.503 45.422,44.935C44.99,45.367 44.742,45.887 44.678,46.495C44.582,47.167 44.718,47.799 45.086,48.391C45.454,48.983 45.974,49.375 46.646,49.567L47.03,49.663C49.622,50.399 51.35,51.071 52.214,51.679C53.078,52.287 53.51,53.199 53.51,54.415C53.51,55.567 53.07,56.647 52.19,57.655C51.31,58.663 49.878,59.167 47.894,59.167C45.91,59.167 44.478,58.663 43.598,57.655C42.718,56.647 42.278,55.567 42.278,54.415C42.278,53.647 42.006,52.991 41.462,52.447C40.918,51.903 40.262,51.631 39.494,51.631C38.726,51.631 38.07,51.903 37.526,52.447C36.982,52.991 36.71,53.647 36.71,54.415C36.71,57.199 37.654,59.535 39.542,61.423C41.622,63.631 44.406,64.735 47.894,64.735ZM48.377,40.54C48.379,40.5 48.381,40.46 48.381,40.421C48.382,40.381 48.382,40.342 48.382,40.303L48.377,40.54Z" style="fill:rgb(113,21,108);"/>
    <g id="letter" transform="matrix(0.42038,0,0,0.764002,-322.297,4.0387)">
        <g transform="matrix(2.3788,0,0,1.3089,-1259.96,-9.64201)">
            <path d="M922.657,73.063C925.7,73.063 927.816,71.65 928.957,68.759C928.97,68.726 928.983,68.692 928.995,68.659L935.516,51.052C936.124,49.38 936.086,47.687 935.326,45.977C934.541,44.211 933.242,43.017 931.443,42.382C929.755,41.777 928.066,41.834 926.378,42.601C924.659,43.382 923.477,44.662 922.842,46.45C922.847,46.435 922.671,46.908 922.671,46.908C922.671,46.908 922.498,46.441 922.498,46.441C921.865,44.661 920.683,43.382 918.966,42.601C917.316,41.851 915.629,41.77 913.904,42.37C913.882,42.378 913.86,42.386 913.838,42.394C912.103,43.025 910.823,44.189 910.035,45.924C909.285,47.574 909.204,49.261 909.804,50.985C909.815,51.017 909.826,51.048 909.838,51.079L916.339,68.635C916.812,69.95 917.629,71.025 918.799,71.844C919.967,72.662 921.255,73.063 922.657,73.063ZM922.657,68.063C923.457,68.063 924.007,67.683 924.307,66.923L930.817,49.343C930.977,48.903 930.957,48.458 930.757,48.008C930.557,47.558 930.227,47.253 929.767,47.093C929.327,46.933 928.887,46.953 928.447,47.153C928.007,47.353 927.707,47.683 927.547,48.143L922.657,61.283L917.797,48.143C917.637,47.683 917.337,47.353 916.897,47.153C916.457,46.953 916.007,46.933 915.547,47.093C915.107,47.253 914.787,47.553 914.587,47.993C914.387,48.433 914.367,48.883 914.527,49.343L921.037,66.923C921.157,67.263 921.367,67.538 921.667,67.748C921.967,67.958 922.297,68.063 922.657,68.063Z" style="fill:rgb(113,21,108);"/>
        </g>
        <g transform="matrix(2.3788,0,0,1.3089,-1259.96,-9.64201)">
            <g transform="matrix(30,0,0,30,913.807,68.0629)">
                <path d="M0.295,-0C0.322,-0 0.34,-0.013 0.35,-0.038L0.567,-0.624C0.572,-0.639 0.572,-0.654 0.565,-0.669C0.558,-0.684 0.547,-0.694 0.532,-0.699C0.517,-0.704 0.503,-0.704 0.488,-0.697C0.473,-0.69 0.463,-0.679 0.458,-0.664L0.295,-0.226L0.133,-0.664C0.128,-0.679 0.118,-0.69 0.103,-0.697C0.088,-0.704 0.073,-0.704 0.058,-0.699C0.043,-0.694 0.033,-0.684 0.026,-0.669C0.019,-0.654 0.019,-0.639 0.024,-0.624L0.241,-0.038C0.245,-0.027 0.252,-0.018 0.262,-0.011C0.272,-0.004 0.283,-0 0.295,-0Z" style="fill:white;fill-rule:nonzero;"/>
            </g>
        </g>
    </g>
    <path id="number-face" serif:id="number face" d="M32.966,64.735C33.734,64.735 34.39,64.463 34.934,63.919C35.478,63.375 35.75,62.719 35.75,61.951C35.75,61.183 35.478,60.527 34.934,59.983C34.39,59.439 33.734,59.167 32.966,59.167L20.054,59.167C20.566,58.239 21.326,57.327 22.334,56.431C23.342,55.535 24.774,54.415 26.63,53.071C28.102,52.015 29.214,51.175 29.966,50.551C30.718,49.927 31.63,49.055 32.702,47.935C33.774,46.815 34.55,45.655 35.03,44.455C35.51,43.255 35.75,41.951 35.75,40.543C35.75,38.047 34.87,35.887 33.11,34.063C31.222,32.047 28.662,31.039 25.43,31.039C22.358,31.039 19.87,32.055 17.966,34.087C16.062,36.119 15.11,38.447 15.11,41.071C15.11,41.839 15.382,42.495 15.926,43.039C16.47,43.583 17.126,43.855 17.894,43.855C18.662,43.855 19.318,43.583 19.862,43.039C20.406,42.495 20.678,41.839 20.678,41.071C20.678,40.111 21.046,39.127 21.782,38.119C22.518,37.111 23.734,36.607 25.43,36.607C27.094,36.607 28.302,37.023 29.054,37.855C29.806,38.687 30.182,39.583 30.182,40.543C30.182,41.279 30.03,41.975 29.726,42.631C29.422,43.287 28.87,43.999 28.07,44.767C27.27,45.535 26.598,46.127 26.054,46.543C25.51,46.959 24.614,47.631 23.366,48.559C22.15,49.423 21.222,50.111 20.582,50.623C19.942,51.135 19.118,51.863 18.11,52.807C17.102,53.751 16.334,54.623 15.806,55.423C15.278,56.223 14.806,57.199 14.39,58.351C13.974,59.503 13.766,60.703 13.766,61.951C13.766,62.719 14.038,63.375 14.582,63.919C15.126,64.463 15.782,64.735 16.55,64.735L32.966,64.735Z" style="fill:white;fill-rule:nonzero;"/>
    <path d="M47.894,64.735C51.35,64.735 54.15,63.631 56.294,61.423C58.182,59.471 59.126,57.135 59.126,54.415C59.126,51.247 57.83,48.783 55.238,47.023C55.142,46.927 55.03,46.847 54.902,46.783C56.95,45.215 57.974,43.055 57.974,40.303C57.974,37.871 57.126,35.775 55.43,34.015C53.574,32.031 51.062,31.039 47.894,31.039C44.79,31.039 42.278,32.031 40.358,34.015C38.662,35.775 37.814,37.871 37.814,40.303C37.814,41.103 38.086,41.775 38.63,42.319C39.174,42.863 39.83,43.135 40.598,43.135C41.366,43.135 42.022,42.863 42.566,42.319C43.11,41.775 43.382,41.103 43.382,40.303C43.382,39.407 43.742,38.567 44.462,37.783C45.182,36.999 46.326,36.607 47.894,36.607C49.462,36.607 50.606,36.999 51.326,37.783C52.046,38.567 52.406,39.407 52.406,40.303C52.406,41.231 52.07,41.935 51.398,42.415C50.726,42.895 49.27,43.455 47.03,44.095L46.934,44.143C46.358,44.239 45.854,44.503 45.422,44.935C44.99,45.367 44.742,45.887 44.678,46.495C44.582,47.167 44.718,47.799 45.086,48.391C45.454,48.983 45.974,49.375 46.646,49.567L47.03,49.663C49.622,50.399 51.35,51.071 52.214,51.679C53.078,52.287 53.51,53.199 53.51,54.415C53.51,55.567 53.07,56.647 52.19,57.655C51.31,58.663 49.878,59.167 47.894,59.167C45.91,59.167 44.478,58.663 43.598,57.655C42.718,56.647 42.278,55.567 42.278,54.415C42.278,53.647 42.006,52.991 41.462,52.447C40.918,51.903 40.262,51.631 39.494,51.631C38.726,51.631 38.07,51.903 37.526,52.447C36.982,52.991 36.71,53.647 36.71,54.415C36.71,57.199 37.654,59.535 39.542,61.423C41.622,63.631 44.406,64.735 47.894,64.735Z" style="fill:white;fill-rule:nonzero;"/>
</svg>
