<?xml version="1.0" encoding="UTF-8" standalone="no"?>
<!DOCTYPE svg PUBLIC "-//W3C//DTD SVG 1.1//EN" "http://www.w3.org/Graphics/SVG/1.1/DTD/svg11.dtd">
<svg width="100%" height="100%" viewBox="0 0 101 101" version="1.1" xmlns="http://www.w3.org/2000/svg" xmlns:xlink="http://www.w3.org/1999/xlink" xml:space="preserve" xmlns:serif="http://www.serif.com/" style="fill-rule:evenodd;clip-rule:evenodd;stroke-linejoin:round;stroke-miterlimit:2;">
    <rect id="_24" serif:id="24" x="0.429" y="0.542" width="100" height="100" style="fill:none;"/>
    <path id="number-big-stroke" serif:id="number big stroke" d="M42.278,56.966C43.482,58.379 44.083,60.041 44.083,61.951C44.083,64.099 43.323,65.933 41.802,67.455C40.281,68.976 38.446,69.735 36.299,69.735L19.883,69.735C17.735,69.735 15.9,68.976 14.379,67.455C14.379,67.455 14.379,67.455 14.379,67.455C12.858,65.933 12.099,64.099 12.099,61.951C12.099,60.114 12.407,58.348 13.02,56.653C13.587,55.082 14.246,53.759 14.966,52.669C15.671,51.6 16.678,50.419 18.025,49.158L18.762,48.476C17.638,48.111 16.626,47.477 15.723,46.575C15.723,46.575 15.723,46.575 15.723,46.575C14.202,45.053 13.443,43.219 13.443,41.071C13.443,37.169 14.818,33.69 17.65,30.668C20.493,27.634 24.176,26.039 28.763,26.039C33.536,26.039 37.271,27.648 40.065,30.617C42.751,33.412 44.083,36.723 44.083,40.543C44.083,42.62 43.713,44.542 43.005,46.312C42.307,48.057 41.206,49.763 39.647,51.392C38.533,52.556 37.565,53.482 36.75,54.18C38.527,54.27 40.08,54.902 41.408,56.079L41.483,56.191C41.716,56.515 41.981,56.774 42.278,56.966ZM36.299,64.735C37.067,64.735 37.723,64.463 38.267,63.919C38.811,63.375 39.083,62.719 39.083,61.951C39.083,61.183 38.811,60.527 38.267,59.983C37.723,59.439 37.067,59.167 36.299,59.167L23.387,59.167C23.899,58.239 24.659,57.327 25.667,56.431C26.675,55.535 28.107,54.415 29.963,53.071C31.435,52.015 32.547,51.175 33.299,50.551C34.051,49.927 34.963,49.055 36.035,47.935C37.107,46.815 37.883,45.655 38.363,44.455C38.843,43.255 39.083,41.951 39.083,40.543C39.083,38.047 38.203,35.887 36.443,34.063C34.555,32.047 31.995,31.039 28.763,31.039C25.691,31.039 23.203,32.055 21.299,34.087C19.395,36.119 18.443,38.447 18.443,41.071C18.443,41.839 18.715,42.495 19.259,43.039C19.803,43.583 20.459,43.855 21.227,43.855C21.995,43.855 22.651,43.583 23.195,43.039C23.739,42.495 24.011,41.839 24.011,41.071C24.011,40.111 24.379,39.127 25.115,38.119C25.851,37.111 27.067,36.607 28.763,36.607C30.427,36.607 31.635,37.023 32.387,37.855C33.139,38.687 33.515,39.583 33.515,40.543C33.515,41.279 33.363,41.975 33.059,42.631C32.755,43.287 32.203,43.999 31.403,44.767C30.603,45.535 29.931,46.127 29.387,46.543C28.843,46.959 27.947,47.631 26.699,48.559C25.483,49.423 24.555,50.111 23.915,50.623C23.275,51.135 22.451,51.863 21.443,52.807C20.435,53.751 19.667,54.623 19.139,55.423C18.611,56.223 18.139,57.199 17.723,58.351C17.307,59.503 17.099,60.703 17.099,61.951C17.099,62.719 17.371,63.375 17.915,63.919C18.459,64.463 19.115,64.735 19.883,64.735L36.299,64.735Z" style="fill:rgb(113,21,108);"/>
    <path d="M37.811,59.61C37.971,59.715 38.123,59.839 38.267,59.983C38.441,60.157 38.587,60.343 38.702,60.541C40.097,61.782 41.796,62.391 43.787,62.391L46.622,62.391C46.719,64.35 47.475,66.038 48.891,67.455C48.891,67.455 48.891,67.455 48.891,67.455C50.412,68.976 52.247,69.735 54.395,69.735C56.542,69.735 58.377,68.976 59.898,67.455C61.383,65.969 62.142,64.185 62.175,62.103C63.419,61.757 64.532,61.093 65.514,60.111C67.015,58.609 67.795,56.767 67.795,54.559C67.795,52.412 67.035,50.577 65.514,49.056C64.357,47.898 63.018,47.182 61.498,46.907C61.123,46.086 60.589,45.33 59.898,44.64C58.923,43.665 57.819,43.003 56.586,42.655L58.902,36.492C59.605,34.558 59.556,32.623 58.721,30.689C57.874,28.728 56.443,27.329 54.393,26.527C54.333,26.504 54.273,26.482 54.213,26.461C52.212,25.765 50.255,25.857 48.342,26.727C46.347,27.634 45.004,29.101 44.276,31.094C44.284,31.071 36.467,51.838 36.467,51.838C36.445,51.897 36.423,51.957 36.403,52.018C35.53,54.638 35.918,56.985 37.402,59.081C37.41,59.092 37.417,59.102 37.425,59.113C37.55,59.286 37.678,59.452 37.811,59.61ZM60.011,51.775C60.779,51.775 61.435,52.047 61.979,52.591C62.523,53.135 62.795,53.791 62.795,54.559C62.795,55.359 62.523,56.031 61.979,56.575C61.435,57.119 60.779,57.391 60.011,57.391L57.179,57.391L57.179,61.951C57.179,62.719 56.907,63.375 56.363,63.919C55.819,64.463 55.163,64.735 54.395,64.735C53.627,64.735 52.971,64.463 52.427,63.919C51.883,63.375 51.611,62.719 51.611,61.951L51.611,57.391L43.787,57.391C42.827,57.391 42.059,56.991 41.483,56.191C40.939,55.423 40.827,54.559 41.147,53.599L48.971,32.815C49.227,32.111 49.707,31.599 50.411,31.279C51.115,30.959 51.835,30.927 52.571,31.183C53.307,31.471 53.827,31.967 54.131,32.671C54.435,33.375 54.459,34.079 54.203,34.783L47.819,51.775L51.611,51.775L51.611,50.143C51.611,49.375 51.883,48.719 52.427,48.175C52.971,47.631 53.627,47.359 54.395,47.359C55.163,47.359 55.819,47.631 56.363,48.175C56.907,48.719 57.179,49.375 57.179,50.143L57.179,51.775L60.011,51.775Z" style="fill:rgb(113,21,108);"/>
    <g id="letter" transform="matrix(0.529111,0,0,0.764002,-417.988,4.0387)">
        <g transform="matrix(1.88996,0,0,1.3089,-813.254,-9.64201)">
            <path d="M936.352,68.057C934.955,69.591 933.294,70.798 931.366,71.672C929.318,72.6 927.175,73.063 924.937,73.063C920.659,73.063 917,71.547 913.961,68.508C910.926,65.473 909.407,61.805 909.407,57.503C909.407,53.225 910.923,49.566 913.961,46.527C917,43.489 920.659,41.973 924.937,41.973C927.175,41.973 929.318,42.436 931.366,43.364C933.432,44.3 935.191,45.619 936.648,47.313C936.659,47.326 936.67,47.339 936.681,47.352C937.886,48.783 938.394,50.396 938.281,52.166C938.271,52.326 938.256,52.484 938.235,52.639L937.897,52.823C937.797,52.443 937.592,52.133 937.282,51.893C936.972,51.653 936.617,51.533 936.217,51.533C935.737,51.533 935.327,51.703 934.987,52.043C934.647,52.383 934.477,52.793 934.477,53.273L934.477,66.323C934.477,66.803 934.647,67.213 934.987,67.553C935.327,67.893 935.737,68.063 936.217,68.063L936.352,68.057ZM924.937,68.063C926.457,68.063 927.912,67.748 929.302,67.118C930.692,66.488 931.877,65.603 932.857,64.463C933.177,64.083 933.322,63.658 933.292,63.188C933.262,62.718 933.067,62.323 932.707,62.003C932.347,61.683 931.927,61.538 931.447,61.568C930.967,61.598 930.567,61.793 930.247,62.153C928.827,63.753 927.057,64.553 924.937,64.553C922.997,64.553 921.337,63.863 919.957,62.483C918.577,61.103 917.887,59.443 917.887,57.503C917.887,55.563 918.577,53.908 919.957,52.538C921.337,51.168 922.997,50.483 924.937,50.483C927.057,50.483 928.827,51.283 930.247,52.883C930.567,53.243 930.967,53.438 931.447,53.468C931.927,53.498 932.347,53.353 932.707,53.033C933.067,52.713 933.262,52.318 933.292,51.848C933.322,51.378 933.177,50.953 932.857,50.573C931.877,49.433 930.692,48.548 929.302,47.918C927.912,47.288 926.457,46.973 924.937,46.973C922.037,46.973 919.557,48.003 917.497,50.063C915.437,52.123 914.407,54.603 914.407,57.503C914.407,60.423 915.437,62.913 917.497,64.973C919.557,67.033 922.037,68.063 924.937,68.063ZM937.957,61.149L937.957,65.457C938.235,64.638 938.339,63.774 938.281,62.869C938.243,62.264 938.135,61.691 937.957,61.149ZM928.063,57.518C927.5,57.174 926.982,56.736 926.51,56.205C926.509,56.204 926.508,56.203 926.507,56.202C926.086,55.728 925.565,55.483 924.937,55.483C924.369,55.483 923.883,55.685 923.479,56.086C923.085,56.477 922.887,56.949 922.887,57.503C922.887,58.066 923.091,58.547 923.492,58.947C923.893,59.348 924.373,59.553 924.937,59.553C925.565,59.553 926.086,59.308 926.507,58.834C926.508,58.833 926.509,58.832 926.51,58.831C926.982,58.3 927.5,57.862 928.063,57.518Z" style="fill:rgb(113,21,108);"/>
            <path d="M931.062,48.93C931.722,49.401 932.32,49.948 932.857,50.573C933.177,50.953 933.322,51.378 933.292,51.848C933.262,52.318 933.067,52.713 932.707,53.033C932.347,53.353 931.927,53.498 931.447,53.468C930.967,53.438 930.567,53.243 930.247,52.883C930.025,52.634 929.796,52.404 929.556,52.195C929.503,52.544 929.477,52.903 929.477,53.273L929.477,62.911C929.745,62.683 930.001,62.43 930.247,62.153C930.567,61.793 930.967,61.598 931.447,61.568C931.927,61.538 932.347,61.683 932.707,62.003C933.067,62.323 933.262,62.718 933.292,63.188C933.322,63.658 933.177,64.083 932.857,64.463C931.926,65.545 930.811,66.398 929.509,67.017C929.654,68.581 930.301,69.938 931.451,71.088C931.451,71.088 931.451,71.088 931.451,71.088C932.768,72.406 934.357,73.063 936.217,73.063C938.076,73.063 939.665,72.406 940.982,71.088C942.299,69.771 942.957,68.182 942.957,66.323L942.957,60.188C944.157,59.908 945.206,59.304 946.112,58.398C947.429,57.081 948.087,55.492 948.087,53.633C948.087,51.773 947.429,50.185 946.112,48.867C944.815,47.57 943.224,46.893 941.317,46.893C940.522,46.893 939.746,46.968 938.991,47.119C938.139,46.73 937.215,46.533 936.217,46.533C934.357,46.533 932.768,47.19 931.451,48.507C931.314,48.645 931.183,48.785 931.062,48.93ZM941.317,51.893C941.817,51.893 942.237,52.063 942.577,52.403C942.917,52.743 943.087,53.153 943.087,53.633C943.087,54.113 942.917,54.523 942.577,54.863C942.237,55.203 941.817,55.373 941.317,55.373C940.357,55.373 939.557,55.723 938.917,56.423C938.277,57.123 937.957,58.003 937.957,59.063L937.957,66.323C937.957,66.803 937.787,67.213 937.447,67.553C937.107,67.893 936.697,68.063 936.217,68.063C935.737,68.063 935.327,67.893 934.987,67.553C934.647,67.213 934.477,66.803 934.477,66.323L934.477,53.273C934.477,52.793 934.647,52.383 934.987,52.043C935.327,51.703 935.737,51.533 936.217,51.533C936.617,51.533 936.972,51.653 937.282,51.893C937.592,52.133 937.797,52.443 937.897,52.823C938.957,52.203 940.097,51.893 941.317,51.893Z" style="fill:rgb(113,21,108);"/>
        </g>
        <g transform="matrix(1.88996,0,0,1.3089,-813.254,-9.64201)">
            <g transform="matrix(30,0,0,30,913.807,68.0629)">
                <path d="M0.371,-0C0.422,-0 0.47,-0.011 0.517,-0.032C0.563,-0.053 0.602,-0.082 0.635,-0.12C0.646,-0.133 0.651,-0.147 0.65,-0.163C0.649,-0.178 0.642,-0.191 0.63,-0.202C0.618,-0.213 0.604,-0.218 0.588,-0.217C0.572,-0.216 0.559,-0.209 0.548,-0.197C0.501,-0.144 0.442,-0.117 0.371,-0.117C0.306,-0.117 0.251,-0.14 0.205,-0.186C0.159,-0.232 0.136,-0.287 0.136,-0.352C0.136,-0.417 0.159,-0.472 0.205,-0.518C0.251,-0.563 0.306,-0.586 0.371,-0.586C0.442,-0.586 0.501,-0.559 0.548,-0.506C0.559,-0.494 0.572,-0.488 0.588,-0.487C0.604,-0.486 0.618,-0.49 0.63,-0.501C0.642,-0.512 0.649,-0.525 0.65,-0.541C0.651,-0.556 0.646,-0.57 0.635,-0.583C0.602,-0.621 0.563,-0.651 0.517,-0.672C0.47,-0.693 0.422,-0.703 0.371,-0.703C0.274,-0.703 0.192,-0.669 0.123,-0.6C0.054,-0.531 0.02,-0.449 0.02,-0.352C0.02,-0.255 0.054,-0.172 0.123,-0.103C0.192,-0.034 0.274,-0 0.371,-0Z" style="fill:white;fill-rule:nonzero;"/>
            </g>
            <g transform="matrix(30,0,0,30,933.877,68.0629)">
                <path d="M0.248,-0.539C0.265,-0.539 0.279,-0.533 0.29,-0.522C0.301,-0.511 0.307,-0.497 0.307,-0.481C0.307,-0.465 0.301,-0.451 0.29,-0.44C0.279,-0.429 0.265,-0.423 0.248,-0.423C0.216,-0.423 0.189,-0.411 0.168,-0.388C0.147,-0.365 0.136,-0.335 0.136,-0.3L0.136,-0.058C0.136,-0.042 0.13,-0.028 0.119,-0.017C0.108,-0.006 0.094,-0 0.078,-0C0.062,-0 0.048,-0.006 0.037,-0.017C0.026,-0.028 0.02,-0.042 0.02,-0.058L0.02,-0.493C0.02,-0.509 0.026,-0.523 0.037,-0.534C0.048,-0.545 0.062,-0.551 0.078,-0.551C0.091,-0.551 0.103,-0.547 0.114,-0.539C0.124,-0.531 0.131,-0.521 0.134,-0.508C0.169,-0.529 0.207,-0.539 0.248,-0.539Z" style="fill:white;fill-rule:nonzero;"/>
            </g>
        </g>
    </g>
    <path id="number-face" serif:id="number face" d="M36.299,64.735C37.067,64.735 37.723,64.463 38.267,63.919C38.811,63.375 39.083,62.719 39.083,61.951C39.083,61.183 38.811,60.527 38.267,59.983C37.723,59.439 37.067,59.167 36.299,59.167L23.387,59.167C23.899,58.239 24.659,57.327 25.667,56.431C26.675,55.535 28.107,54.415 29.963,53.071C31.435,52.015 32.547,51.175 33.299,50.551C34.051,49.927 34.963,49.055 36.035,47.935C37.107,46.815 37.883,45.655 38.363,44.455C38.843,43.255 39.083,41.951 39.083,40.543C39.083,38.047 38.203,35.887 36.443,34.063C34.555,32.047 31.995,31.039 28.763,31.039C25.691,31.039 23.203,32.055 21.299,34.087C19.395,36.119 18.443,38.447 18.443,41.071C18.443,41.839 18.715,42.495 19.259,43.039C19.803,43.583 20.459,43.855 21.227,43.855C21.995,43.855 22.651,43.583 23.195,43.039C23.739,42.495 24.011,41.839 24.011,41.071C24.011,40.111 24.379,39.127 25.115,38.119C25.851,37.111 27.067,36.607 28.763,36.607C30.427,36.607 31.635,37.023 32.387,37.855C33.139,38.687 33.515,39.583 33.515,40.543C33.515,41.279 33.363,41.975 33.059,42.631C32.755,43.287 32.203,43.999 31.403,44.767C30.603,45.535 29.931,46.127 29.387,46.543C28.843,46.959 27.947,47.631 26.699,48.559C25.483,49.423 24.555,50.111 23.915,50.623C23.275,51.135 22.451,51.863 21.443,52.807C20.435,53.751 19.667,54.623 19.139,55.423C18.611,56.223 18.139,57.199 17.723,58.351C17.307,59.503 17.099,60.703 17.099,61.951C17.099,62.719 17.371,63.375 17.915,63.919C18.459,64.463 19.115,64.735 19.883,64.735L36.299,64.735Z" style="fill:white;fill-rule:nonzero;"/>
    <path d="M60.011,51.775C60.779,51.775 61.435,52.047 61.979,52.591C62.523,53.135 62.795,53.791 62.795,54.559C62.795,55.359 62.523,56.031 61.979,56.575C61.435,57.119 60.779,57.391 60.011,57.391L57.179,57.391L57.179,61.951C57.179,62.719 56.907,63.375 56.363,63.919C55.819,64.463 55.163,64.735 54.395,64.735C53.627,64.735 52.971,64.463 52.427,63.919C51.883,63.375 51.611,62.719 51.611,61.951L51.611,57.391L43.787,57.391C42.827,57.391 42.059,56.991 41.483,56.191C40.939,55.423 40.827,54.559 41.147,53.599L48.971,32.815C49.227,32.111 49.707,31.599 50.411,31.279C51.115,30.959 51.835,30.927 52.571,31.183C53.307,31.471 53.827,31.967 54.131,32.671C54.435,33.375 54.459,34.079 54.203,34.783L47.819,51.775L51.611,51.775L51.611,50.143C51.611,49.375 51.883,48.719 52.427,48.175C52.971,47.631 53.627,47.359 54.395,47.359C55.163,47.359 55.819,47.631 56.363,48.175C56.907,48.719 57.179,49.375 57.179,50.143L57.179,51.775L60.011,51.775Z" style="fill:white;fill-rule:nonzero;"/>
</svg>
