<?xml version="1.0" encoding="UTF-8" standalone="no"?>
<!DOCTYPE svg PUBLIC "-//W3C//DTD SVG 1.1//EN" "http://www.w3.org/Graphics/SVG/1.1/DTD/svg11.dtd">
<svg width="100%" height="100%" viewBox="0 0 101 101" version="1.1" xmlns="http://www.w3.org/2000/svg" xmlns:xlink="http://www.w3.org/1999/xlink" xml:space="preserve" xmlns:serif="http://www.serif.com/" style="fill-rule:evenodd;clip-rule:evenodd;stroke-linejoin:round;stroke-miterlimit:2;">
    <rect id="_25" serif:id="25" x="0.918" y="0.542" width="100" height="100" style="fill:none;"/>
    <path id="number-big-stroke" serif:id="number big stroke" d="M33.664,61.798L33.372,61.519C31.805,59.817 30.9,57.91 30.658,55.798C29.406,54.801 27.965,54.262 26.335,54.18C27.151,53.482 28.118,52.556 29.232,51.392C30.791,49.763 31.892,48.057 32.59,46.312C32.64,46.187 32.689,46.061 32.735,45.934C31.751,44.604 31.26,42.983 31.26,41.071L31.26,33.823C31.26,33.473 31.316,33.146 31.432,32.843C30.925,32.068 30.332,31.326 29.651,30.617C26.856,27.648 23.121,26.039 18.348,26.039C13.761,26.039 10.078,27.634 7.235,30.668C4.404,33.69 3.028,37.169 3.028,41.071C3.028,43.219 3.787,45.053 5.308,46.575C5.308,46.575 5.308,46.575 5.308,46.575C6.211,47.477 7.224,48.111 8.348,48.476L7.61,49.158C6.263,50.419 5.256,51.6 4.551,52.669C3.831,53.759 3.172,55.082 2.605,56.653C1.993,58.348 1.684,60.114 1.684,61.951C1.684,64.099 2.443,65.933 3.964,67.455C3.964,67.455 3.964,67.455 3.964,67.455C5.485,68.976 7.32,69.735 9.468,69.735L25.884,69.735C28.031,69.735 29.866,68.976 31.387,67.455C32.908,65.933 33.668,64.099 33.668,61.951L33.664,61.798ZM25.884,64.735C26.652,64.735 27.308,64.463 27.852,63.919C28.396,63.375 28.668,62.719 28.668,61.951C28.668,61.183 28.396,60.527 27.852,59.983C27.308,59.439 26.652,59.167 25.884,59.167L12.972,59.167C13.484,58.239 14.244,57.327 15.252,56.431C16.26,55.535 17.692,54.415 19.548,53.071C21.02,52.015 22.132,51.175 22.884,50.551C23.636,49.927 24.548,49.055 25.62,47.935C26.692,46.815 27.468,45.655 27.948,44.455C28.428,43.255 28.668,41.951 28.668,40.543C28.668,38.047 27.788,35.887 26.028,34.063C24.14,32.047 21.58,31.039 18.348,31.039C15.276,31.039 12.788,32.055 10.884,34.087C8.98,36.119 8.028,38.447 8.028,41.071C8.028,41.839 8.3,42.495 8.844,43.039C9.388,43.583 10.044,43.855 10.812,43.855C11.58,43.855 12.236,43.583 12.78,43.039C13.324,42.495 13.596,41.839 13.596,41.071C13.596,40.111 13.964,39.127 14.7,38.119C15.436,37.111 16.652,36.607 18.348,36.607C20.012,36.607 21.22,37.023 21.972,37.855C22.724,38.687 23.1,39.583 23.1,40.543C23.1,41.279 22.948,41.975 22.644,42.631C22.34,43.287 21.788,43.999 20.988,44.767C20.188,45.535 19.516,46.127 18.972,46.543C18.428,46.959 17.532,47.631 16.284,48.559C15.068,49.423 14.14,50.111 13.5,50.623C12.86,51.135 12.036,51.863 11.028,52.807C10.02,53.751 9.252,54.623 8.724,55.423C8.196,56.223 7.724,57.199 7.308,58.351C6.892,59.503 6.684,60.703 6.684,61.951C6.684,62.719 6.956,63.375 7.5,63.919C8.044,64.463 8.7,64.735 9.468,64.735L25.884,64.735Z" style="fill:rgb(113,21,108);"/>
    <path d="M26.26,34.314C27.866,36.083 28.668,38.16 28.668,40.543C28.668,41.951 28.428,43.255 27.948,44.455C27.73,44.999 27.452,45.534 27.111,46.06C27.451,46.961 27.894,47.802 28.437,48.583C28.242,48.745 28.053,48.919 27.868,49.104C26.347,50.625 25.588,52.46 25.588,54.607C25.588,56.209 25.82,57.74 26.29,59.197C26.886,59.275 27.406,59.538 27.852,59.983C28.396,60.527 28.668,61.183 28.668,61.951C28.668,62.43 28.562,62.865 28.35,63.257C28.753,63.821 29.2,64.37 29.693,64.906C29.74,64.956 29.788,65.006 29.836,65.055C32.906,68.124 36.817,69.735 41.628,69.735C46.4,69.735 50.297,68.129 53.371,65.055C53.401,65.025 53.43,64.995 53.459,64.964C56.239,62.04 57.62,58.585 57.62,54.607C57.62,52.463 57.211,50.562 56.463,48.892C55.706,47.2 54.808,45.887 53.849,44.902C53.543,44.588 53.2,44.277 52.816,43.975C53.148,43.738 53.468,43.469 53.776,43.169C55.355,41.636 56.132,39.781 56.132,37.615L56.132,33.823C56.132,31.658 55.355,29.803 53.776,28.269C52.238,26.775 50.409,26.039 48.3,26.039C48.3,26.039 34.044,26.039 34.044,26.039C31.896,26.039 30.061,26.798 28.54,28.32C27.019,29.841 26.26,31.676 26.26,33.823L26.26,34.314ZM41.628,64.735C44.956,64.735 47.692,63.663 49.836,61.519C51.692,59.567 52.62,57.263 52.62,54.607C52.62,53.231 52.38,52.007 51.9,50.935C51.42,49.863 50.876,49.015 50.268,48.391C49.66,47.767 48.804,47.191 47.7,46.663C46.596,46.135 45.724,45.767 45.084,45.559C44.444,45.351 43.548,45.103 42.396,44.815C40.092,44.207 38.588,43.671 37.884,43.207C37.18,42.743 36.828,42.031 36.828,41.071L36.828,36.607L45.516,36.607L45.516,37.615C45.516,38.383 45.788,39.039 46.332,39.583C46.876,40.127 47.532,40.399 48.3,40.399C49.068,40.399 49.732,40.127 50.292,39.583C50.852,39.039 51.132,38.383 51.132,37.615L51.132,33.823C51.132,33.055 50.852,32.399 50.292,31.855C49.732,31.311 49.068,31.039 48.3,31.039L34.044,31.039C33.276,31.039 32.62,31.311 32.076,31.855C31.532,32.399 31.26,33.055 31.26,33.823L31.26,41.071C31.26,44.079 32.476,46.367 34.908,47.935C36.028,48.671 38.06,49.439 41.004,50.239C43.468,50.847 45.092,51.423 45.876,51.967C46.66,52.511 47.052,53.391 47.052,54.607C47.052,55.695 46.62,56.727 45.756,57.703C44.892,58.679 43.516,59.167 41.628,59.167C39.708,59.167 38.324,58.687 37.476,57.727C36.628,56.767 36.204,55.727 36.204,54.607C36.204,53.839 35.932,53.183 35.388,52.639C34.844,52.095 34.188,51.823 33.42,51.823C32.62,51.823 31.948,52.095 31.404,52.639C30.86,53.183 30.588,53.839 30.588,54.607C30.588,57.199 31.516,59.503 33.372,61.519C35.516,63.663 38.268,64.735 41.628,64.735Z" style="fill:rgb(113,21,108);"/>
    <g id="letter" transform="matrix(0.650387,0,0,0.764002,-538.985,4.0387)">
        <g transform="matrix(1.53755,0,0,1.3089,-491.213,-9.64201)">
            <path d="M938.697,57.081L938.697,66.293C938.697,68.201 938.019,69.791 936.722,71.088C935.405,72.406 933.816,73.063 931.957,73.063C930.097,73.063 928.508,72.406 927.191,71.088C927.191,71.088 927.191,71.088 927.191,71.088C926.093,69.99 925.439,68.682 925.266,67.15C924.881,67.212 924.481,67.243 924.067,67.243C923.641,67.243 923.231,67.211 922.837,67.147C922.665,68.681 922.011,69.99 920.912,71.088C919.595,72.406 918.006,73.063 916.147,73.063C914.287,73.063 912.698,72.406 911.381,71.088C911.381,71.088 911.381,71.088 911.381,71.088C910.084,69.791 909.407,68.201 909.407,66.293L909.407,48.713C909.407,47.24 909.845,45.9 910.736,44.699C911.644,43.475 912.813,42.674 914.207,42.271C915.766,41.795 917.167,41.888 918.407,42.327C919.653,42.768 920.811,43.584 921.733,44.959C921.733,44.959 924.057,48.402 924.057,48.402C924.057,48.402 926.366,44.964 926.356,44.979C927.281,43.593 928.444,42.77 929.696,42.327C930.949,41.884 932.364,41.793 933.889,42.269C935.296,42.678 936.462,43.479 937.367,44.699C938.259,45.9 938.697,47.24 938.697,48.713L938.697,52.284C938.537,52.366 938.38,52.456 938.227,52.553C937.927,51.873 937.397,51.533 936.637,51.533C936.157,51.533 935.747,51.703 935.407,52.043C935.067,52.383 934.897,52.793 934.897,53.273L934.897,66.323C934.897,66.803 935.067,67.213 935.407,67.553C935.747,67.893 936.157,68.063 936.637,68.063C937.117,68.063 937.527,67.893 937.867,67.553C938.207,67.213 938.377,66.803 938.377,66.323L938.377,58.703C938.377,58.105 938.483,57.564 938.697,57.081ZM930.727,67.553C931.067,67.893 931.477,68.063 931.957,68.063C932.437,68.063 932.847,67.893 933.187,67.553C933.527,67.213 933.697,66.793 933.697,66.293L933.697,48.713C933.697,48.333 933.582,47.988 933.352,47.678C933.122,47.368 932.827,47.163 932.467,47.063C931.647,46.803 930.997,47.033 930.517,47.753L924.067,57.353L917.587,47.753C917.107,47.033 916.457,46.803 915.637,47.063C915.277,47.163 914.982,47.368 914.752,47.678C914.522,47.988 914.407,48.333 914.407,48.713L914.407,66.293C914.407,66.793 914.577,67.213 914.917,67.553C915.257,67.893 915.667,68.063 916.147,68.063C916.627,68.063 917.037,67.893 917.377,67.553C917.717,67.213 917.887,66.793 917.887,66.293L917.887,54.443L922.597,61.463C922.957,61.983 923.447,62.243 924.067,62.243C924.667,62.243 925.147,61.983 925.507,61.463L930.217,54.443L930.217,66.293C930.217,66.793 930.387,67.213 930.727,67.553Z" style="fill:rgb(113,21,108);"/>
            <path d="M933.174,47.473C934.199,46.846 935.354,46.533 936.637,46.533C937.493,46.533 938.272,46.647 938.974,46.873C939.899,46.647 940.869,46.533 941.887,46.533C945.233,46.533 948.04,47.747 950.312,50.16C952.472,52.454 953.607,55.287 953.607,58.703L953.607,66.323C953.607,68.182 952.949,69.771 951.632,71.088C950.335,72.386 948.744,73.063 946.837,73.063C944.977,73.063 943.388,72.406 942.071,71.088L941.737,70.729C941.631,70.852 941.519,70.971 941.402,71.088C940.085,72.406 938.496,73.063 936.637,73.063C934.777,73.063 933.188,72.406 931.871,71.088C931.871,71.088 931.871,71.088 931.871,71.088C930.554,69.771 929.897,68.182 929.897,66.323L929.897,58.709L929.897,54.92L930.217,54.443L930.217,66.293C930.217,66.793 930.387,67.213 930.727,67.553C931.067,67.893 931.477,68.063 931.957,68.063C932.437,68.063 932.847,67.893 933.187,67.553C933.527,67.213 933.697,66.793 933.697,66.293L933.697,60.522C933.972,61.239 934.404,61.796 934.897,62.229L934.897,66.323C934.897,66.803 935.067,67.213 935.407,67.553C935.747,67.893 936.157,68.063 936.637,68.063C937.117,68.063 937.527,67.893 937.867,67.553C938.207,67.213 938.377,66.803 938.377,66.323L938.377,58.703C938.377,57.643 938.712,56.763 939.382,56.063C940.052,55.363 940.887,55.013 941.887,55.013C942.927,55.013 943.722,55.383 944.272,56.123C944.822,56.863 945.097,57.723 945.097,58.703L945.097,66.323C945.097,66.803 945.267,67.213 945.607,67.553C945.947,67.893 946.357,68.063 946.837,68.063C947.337,68.063 947.757,67.893 948.097,67.553C948.437,67.213 948.607,66.803 948.607,66.323L948.607,58.703C948.607,56.663 947.962,54.958 946.672,53.588C945.382,52.218 943.787,51.533 941.887,51.533C940.527,51.533 939.307,51.873 938.227,52.553C937.927,51.873 937.397,51.533 936.637,51.533C936.157,51.533 935.747,51.703 935.407,52.043C935.067,52.383 934.897,52.793 934.897,53.273L934.897,59.857C934.405,59.338 933.974,58.928 933.697,58.761L933.697,48.713C933.697,48.333 933.582,47.988 933.352,47.678C933.296,47.603 933.237,47.535 933.174,47.473ZM934.897,60.223L934.897,60.463L933.697,59.263L933.697,59.023L934.897,60.223ZM943.375,58.722L943.375,58.73L943.376,58.71L943.375,58.722Z" style="fill:rgb(113,21,108);"/>
        </g>
        <g transform="matrix(1.53755,0,0,1.3089,-491.213,-9.64201)">
            <g transform="matrix(30,0,0,30,913.807,68.0629)">
                <path d="M0.564,-0.017C0.575,-0.006 0.589,-0 0.605,-0C0.621,-0 0.635,-0.006 0.646,-0.017C0.657,-0.028 0.663,-0.042 0.663,-0.059L0.663,-0.645C0.663,-0.658 0.659,-0.669 0.652,-0.68C0.644,-0.69 0.634,-0.697 0.622,-0.7C0.595,-0.709 0.573,-0.701 0.557,-0.677L0.342,-0.357L0.126,-0.677C0.11,-0.701 0.088,-0.709 0.061,-0.7C0.049,-0.697 0.039,-0.69 0.032,-0.68C0.024,-0.669 0.02,-0.658 0.02,-0.645L0.02,-0.059C0.02,-0.042 0.026,-0.028 0.037,-0.017C0.048,-0.006 0.062,-0 0.078,-0C0.094,-0 0.108,-0.006 0.119,-0.017C0.13,-0.028 0.136,-0.042 0.136,-0.059L0.136,-0.454L0.293,-0.22C0.305,-0.203 0.321,-0.194 0.342,-0.194C0.362,-0.194 0.378,-0.203 0.39,-0.22L0.547,-0.454L0.547,-0.059C0.547,-0.042 0.553,-0.028 0.564,-0.017Z" style="fill:white;fill-rule:nonzero;"/>
            </g>
            <g transform="matrix(30,0,0,30,934.297,68.0629)">
                <path d="M0.253,-0.551C0.316,-0.551 0.37,-0.528 0.412,-0.483C0.456,-0.437 0.477,-0.38 0.477,-0.312L0.477,-0.058C0.477,-0.042 0.471,-0.028 0.46,-0.017C0.449,-0.006 0.435,-0 0.418,-0C0.402,-0 0.388,-0.006 0.377,-0.017C0.366,-0.028 0.36,-0.042 0.36,-0.058L0.36,-0.312C0.36,-0.345 0.351,-0.373 0.333,-0.398C0.314,-0.423 0.288,-0.435 0.253,-0.435C0.22,-0.435 0.192,-0.423 0.17,-0.4C0.147,-0.377 0.136,-0.347 0.136,-0.312L0.136,-0.058C0.136,-0.042 0.13,-0.028 0.119,-0.017C0.108,-0.006 0.094,-0 0.078,-0C0.062,-0 0.048,-0.006 0.037,-0.017C0.026,-0.028 0.02,-0.042 0.02,-0.058L0.02,-0.493C0.02,-0.509 0.026,-0.523 0.037,-0.534C0.048,-0.545 0.062,-0.551 0.078,-0.551C0.103,-0.551 0.121,-0.54 0.131,-0.517C0.167,-0.54 0.208,-0.551 0.253,-0.551Z" style="fill:white;fill-rule:nonzero;"/>
            </g>
        </g>
    </g>
    <path id="number-face" serif:id="number face" d="M25.884,64.735C26.652,64.735 27.308,64.463 27.852,63.919C28.396,63.375 28.668,62.719 28.668,61.951C28.668,61.183 28.396,60.527 27.852,59.983C27.308,59.439 26.652,59.167 25.884,59.167L12.972,59.167C13.484,58.239 14.244,57.327 15.252,56.431C16.26,55.535 17.692,54.415 19.548,53.071C21.02,52.015 22.132,51.175 22.884,50.551C23.636,49.927 24.548,49.055 25.62,47.935C26.692,46.815 27.468,45.655 27.948,44.455C28.428,43.255 28.668,41.951 28.668,40.543C28.668,38.047 27.788,35.887 26.028,34.063C24.14,32.047 21.58,31.039 18.348,31.039C15.276,31.039 12.788,32.055 10.884,34.087C8.98,36.119 8.028,38.447 8.028,41.071C8.028,41.839 8.3,42.495 8.844,43.039C9.388,43.583 10.044,43.855 10.812,43.855C11.58,43.855 12.236,43.583 12.78,43.039C13.324,42.495 13.596,41.839 13.596,41.071C13.596,40.111 13.964,39.127 14.7,38.119C15.436,37.111 16.652,36.607 18.348,36.607C20.012,36.607 21.22,37.023 21.972,37.855C22.724,38.687 23.1,39.583 23.1,40.543C23.1,41.279 22.948,41.975 22.644,42.631C22.34,43.287 21.788,43.999 20.988,44.767C20.188,45.535 19.516,46.127 18.972,46.543C18.428,46.959 17.532,47.631 16.284,48.559C15.068,49.423 14.14,50.111 13.5,50.623C12.86,51.135 12.036,51.863 11.028,52.807C10.02,53.751 9.252,54.623 8.724,55.423C8.196,56.223 7.724,57.199 7.308,58.351C6.892,59.503 6.684,60.703 6.684,61.951C6.684,62.719 6.956,63.375 7.5,63.919C8.044,64.463 8.7,64.735 9.468,64.735L25.884,64.735Z" style="fill:white;fill-rule:nonzero;"/>
    <path d="M41.628,64.735C44.956,64.735 47.692,63.663 49.836,61.519C51.692,59.567 52.62,57.263 52.62,54.607C52.62,53.231 52.38,52.007 51.9,50.935C51.42,49.863 50.876,49.015 50.268,48.391C49.66,47.767 48.804,47.191 47.7,46.663C46.596,46.135 45.724,45.767 45.084,45.559C44.444,45.351 43.548,45.103 42.396,44.815C40.092,44.207 38.588,43.671 37.884,43.207C37.18,42.743 36.828,42.031 36.828,41.071L36.828,36.607L45.516,36.607L45.516,37.615C45.516,38.383 45.788,39.039 46.332,39.583C46.876,40.127 47.532,40.399 48.3,40.399C49.068,40.399 49.732,40.127 50.292,39.583C50.852,39.039 51.132,38.383 51.132,37.615L51.132,33.823C51.132,33.055 50.852,32.399 50.292,31.855C49.732,31.311 49.068,31.039 48.3,31.039L34.044,31.039C33.276,31.039 32.62,31.311 32.076,31.855C31.532,32.399 31.26,33.055 31.26,33.823L31.26,41.071C31.26,44.079 32.476,46.367 34.908,47.935C36.028,48.671 38.06,49.439 41.004,50.239C43.468,50.847 45.092,51.423 45.876,51.967C46.66,52.511 47.052,53.391 47.052,54.607C47.052,55.695 46.62,56.727 45.756,57.703C44.892,58.679 43.516,59.167 41.628,59.167C39.708,59.167 38.324,58.687 37.476,57.727C36.628,56.767 36.204,55.727 36.204,54.607C36.204,53.839 35.932,53.183 35.388,52.639C34.844,52.095 34.188,51.823 33.42,51.823C32.62,51.823 31.948,52.095 31.404,52.639C30.86,53.183 30.588,53.839 30.588,54.607C30.588,57.199 31.516,59.503 33.372,61.519C35.516,63.663 38.268,64.735 41.628,64.735Z" style="fill:white;fill-rule:nonzero;"/>
</svg>
