<?xml version="1.0" encoding="UTF-8" standalone="no"?>
<!DOCTYPE svg PUBLIC "-//W3C//DTD SVG 1.1//EN" "http://www.w3.org/Graphics/SVG/1.1/DTD/svg11.dtd">
<svg width="100%" height="100%" viewBox="0 0 101 101" version="1.1" xmlns="http://www.w3.org/2000/svg" xmlns:xlink="http://www.w3.org/1999/xlink" xml:space="preserve" xmlns:serif="http://www.serif.com/" style="fill-rule:evenodd;clip-rule:evenodd;stroke-linejoin:round;stroke-miterlimit:2;">
    <rect id="_26" serif:id="26" x="0.557" y="0.504" width="100" height="100" style="fill:none;"/>
    <path id="number-big-stroke" serif:id="number big stroke" d="M42.651,59.767L42.655,59.951C42.655,62.099 41.896,63.933 40.375,65.455C38.854,66.976 37.019,67.735 34.871,67.735L18.455,67.735C16.308,67.735 14.473,66.976 12.952,65.455C12.952,65.455 12.952,65.455 12.952,65.455C11.431,63.933 10.671,62.099 10.671,59.951C10.671,58.114 10.98,56.348 11.593,54.653C12.16,53.082 12.818,51.759 13.538,50.669C14.244,49.6 15.251,48.419 16.598,47.158L17.335,46.476C16.211,46.111 15.198,45.477 14.296,44.575C14.296,44.575 14.296,44.575 14.296,44.575C12.775,43.053 12.015,41.219 12.015,39.071C12.015,35.169 13.391,31.69 16.223,28.668C19.066,25.634 22.748,24.039 27.335,24.039C32.109,24.039 35.843,25.648 38.638,28.617C41.323,31.412 42.655,34.723 42.655,38.543C42.655,38.949 42.641,39.348 42.613,39.742C41.378,42.044 40.52,44.518 40.039,47.166C39.521,47.921 38.916,48.664 38.219,49.392C37.106,50.556 36.138,51.482 35.323,52.18C36.956,52.262 38.401,52.804 39.655,53.806C39.925,56.13 40.924,58.118 42.651,59.767ZM34.871,62.735C35.639,62.735 36.295,62.463 36.839,61.919C37.383,61.375 37.655,60.719 37.655,59.951C37.655,59.183 37.383,58.527 36.839,57.983C36.295,57.439 35.639,57.167 34.871,57.167L21.959,57.167C22.471,56.239 23.231,55.327 24.239,54.431C25.247,53.535 26.679,52.415 28.535,51.071C30.007,50.015 31.119,49.175 31.871,48.551C32.623,47.927 33.535,47.055 34.607,45.935C35.679,44.815 36.455,43.655 36.935,42.455C37.415,41.255 37.655,39.951 37.655,38.543C37.655,36.047 36.775,33.887 35.015,32.063C33.127,30.047 30.567,29.039 27.335,29.039C24.263,29.039 21.775,30.055 19.871,32.087C17.967,34.119 17.015,36.447 17.015,39.071C17.015,39.839 17.287,40.495 17.831,41.039C18.375,41.583 19.031,41.855 19.799,41.855C20.567,41.855 21.223,41.583 21.767,41.039C22.311,40.495 22.583,39.839 22.583,39.071C22.583,38.111 22.951,37.127 23.687,36.119C24.423,35.111 25.639,34.607 27.335,34.607C28.999,34.607 30.207,35.023 30.959,35.855C31.711,36.687 32.087,37.583 32.087,38.543C32.087,39.279 31.935,39.975 31.631,40.631C31.327,41.287 30.775,41.999 29.975,42.767C29.175,43.535 28.503,44.127 27.959,44.543C27.415,44.959 26.519,45.631 25.271,46.559C24.055,47.423 23.127,48.111 22.487,48.623C21.847,49.135 21.023,49.863 20.015,50.807C19.007,51.751 18.239,52.623 17.711,53.423C17.183,54.223 16.711,55.199 16.295,56.351C15.879,57.503 15.671,58.703 15.671,59.951C15.671,60.719 15.943,61.375 16.487,61.919C17.031,62.463 17.687,62.735 18.455,62.735L34.871,62.735Z" style="fill:rgb(113,21,108);"/>
    <path d="M37.653,38.453L37.655,38.543C37.655,39.951 37.415,41.255 36.935,42.455C36.575,43.357 36.047,44.236 35.352,45.092C34.835,47.431 34.575,49.888 34.575,52.463C34.575,54.148 34.807,55.725 35.271,57.196C35.869,57.273 36.392,57.536 36.839,57.983C37.383,58.527 37.655,59.183 37.655,59.951C37.655,60.434 37.548,60.873 37.332,61.267C37.924,62.08 38.612,62.848 39.395,63.573C39.407,63.584 39.419,63.595 39.431,63.605C42.441,66.338 46.066,67.735 50.327,67.735C54.589,67.735 58.213,66.338 61.224,63.605C61.236,63.595 61.247,63.584 61.259,63.573C64.463,60.609 66.079,56.91 66.079,52.463C66.079,47.955 64.443,44.251 61.229,41.326C61.228,41.324 61.226,41.322 61.224,41.321C60.499,40.663 59.739,40.083 58.942,39.581C60.814,39.444 62.433,38.693 63.799,37.327C65.32,35.805 66.079,33.971 66.079,31.823C66.079,29.676 65.32,27.841 63.799,26.32C62.278,24.798 60.443,24.039 58.295,24.039C54.9,24.039 51.661,24.868 48.583,26.544C45.677,28.128 43.085,30.365 40.84,33.292C40.837,33.296 40.834,33.3 40.831,33.304C39.587,34.935 38.527,36.651 37.653,38.453ZM57.863,45.023C60.007,46.975 61.079,49.455 61.079,52.463C61.079,55.439 60.007,57.919 57.863,59.903C55.783,61.791 53.271,62.735 50.327,62.735C47.383,62.735 44.871,61.791 42.791,59.903C40.647,57.919 39.575,55.439 39.575,52.463C39.575,46.287 41.319,40.911 44.807,36.335C46.599,33.999 48.655,32.199 50.975,30.935C53.295,29.671 55.735,29.039 58.295,29.039C59.063,29.039 59.719,29.311 60.263,29.855C60.807,30.399 61.079,31.055 61.079,31.823C61.079,32.591 60.807,33.247 60.263,33.791C59.719,34.335 59.063,34.607 58.295,34.607C54.871,34.607 51.847,36.319 49.223,39.743C48.583,40.639 48.007,41.567 47.495,42.527C48.359,42.303 49.303,42.191 50.327,42.191C53.271,42.191 55.783,43.135 57.863,45.023ZM46.679,55.919C47.703,56.751 48.919,57.167 50.327,57.167C51.735,57.167 52.951,56.751 53.975,55.919C54.999,55.087 55.511,53.935 55.511,52.463C55.511,50.991 54.999,49.839 53.975,49.007C52.951,48.175 51.735,47.759 50.327,47.759C48.919,47.759 47.703,48.175 46.679,49.007C45.655,49.839 45.143,50.991 45.143,52.463C45.143,53.935 45.655,55.087 46.679,55.919Z" style="fill:rgb(113,21,108);"/>
    <g id="letter" transform="matrix(0.557042,0,0,0.764002,-445.227,2.0387)">
        <g transform="matrix(1.7952,0,0,1.3089,-726.655,-9.64201)">
            <path d="M928.083,62.94C927.745,62.007 927.577,60.984 927.577,59.873C927.577,57.513 928.312,55.543 929.782,53.963C930.881,52.782 932.184,52.042 933.691,51.744C934.149,50.838 934.377,49.837 934.377,48.743C934.377,46.883 933.719,45.295 932.402,43.977C931.105,42.68 929.514,42.003 927.607,42.003L916.147,42.003C914.287,42.003 912.698,42.66 911.381,43.977C910.064,45.294 909.407,46.883 909.407,48.743L909.407,66.323C909.407,68.182 910.064,69.771 911.381,71.088C911.381,71.088 911.381,71.088 911.381,71.088C912.698,72.406 914.287,73.063 916.147,73.063C917.968,73.063 919.547,72.429 920.876,71.139C922.245,69.809 922.917,68.2 922.917,66.323L922.917,63.853C922.917,63.853 924.667,63.853 924.667,63.853C925.931,63.853 927.07,63.549 928.083,62.94ZM927.607,47.003C928.107,47.003 928.527,47.173 928.867,47.513C929.207,47.853 929.377,48.263 929.377,48.743C929.377,49.223 929.207,49.633 928.867,49.973C928.527,50.313 928.107,50.483 927.607,50.483L917.917,50.483L917.917,55.343L924.667,55.343C925.147,55.343 925.557,55.518 925.897,55.868C926.237,56.218 926.407,56.633 926.407,57.113C926.407,57.593 926.237,58.003 925.897,58.343C925.557,58.683 925.147,58.853 924.667,58.853L917.917,58.853L917.917,66.323C917.917,66.803 917.742,67.213 917.392,67.553C917.042,67.893 916.627,68.063 916.147,68.063C915.667,68.063 915.257,67.893 914.917,67.553C914.577,67.213 914.407,66.803 914.407,66.323L914.407,48.743C914.407,48.263 914.577,47.853 914.917,47.513C915.257,47.173 915.667,47.003 916.147,47.003L927.607,47.003ZM931.363,57.911L931.34,58.103L931.297,58.103L931.363,57.911Z" style="fill:rgb(113,21,108);"/>
            <path d="M929.251,48.08C931.035,47.09 933.046,46.593 935.287,46.593C938.972,46.593 942.008,47.928 944.421,50.541C946.69,53 947.907,56.09 947.907,59.873C947.907,61.073 947.633,62.161 947.082,63.135C947.283,64.638 946.986,66.039 946.229,67.332C944.121,71.099 940.605,73.213 935.437,73.213L935.437,73.213C931.759,73.213 928.624,71.835 926.059,69.02C923.776,66.566 922.577,63.532 922.577,59.873C922.577,59.527 922.587,59.187 922.612,58.853L924.667,58.853C925.147,58.853 925.557,58.683 925.897,58.343C926.237,58.003 926.407,57.593 926.407,57.113C926.407,56.633 926.237,56.218 925.897,55.868C925.557,55.518 925.147,55.343 924.667,55.343L923.268,55.343C923.856,53.554 924.814,51.962 926.121,50.557L926.192,50.483L927.607,50.483C928.107,50.483 928.527,50.313 928.867,49.973C929.207,49.633 929.377,49.223 929.377,48.743C929.377,48.505 929.335,48.283 929.251,48.08ZM935.437,68.213C938.497,68.213 940.647,67.093 941.887,64.853C942.127,64.453 942.192,64.018 942.082,63.548C941.972,63.078 941.707,62.713 941.287,62.453C940.887,62.213 940.452,62.148 939.982,62.258C939.512,62.368 939.147,62.633 938.887,63.053C938.267,64.173 937.117,64.733 935.437,64.733C934.477,64.733 933.627,64.448 932.887,63.878C932.147,63.308 931.627,62.553 931.327,61.613L941.137,61.613C941.637,61.613 942.057,61.443 942.397,61.103C942.737,60.763 942.907,60.353 942.907,59.873C942.907,57.473 942.187,55.493 940.747,53.933C939.307,52.373 937.487,51.593 935.287,51.593C933.087,51.593 931.252,52.383 929.782,53.963C928.312,55.543 927.577,57.513 927.577,59.873C927.577,62.173 928.297,64.093 929.737,65.633C931.297,67.353 933.197,68.213 935.437,68.213ZM931.297,58.103C931.597,57.123 932.117,56.373 932.857,55.853C933.597,55.333 934.407,55.073 935.287,55.073C936.167,55.073 936.967,55.333 937.687,55.853C938.407,56.373 938.907,57.123 939.187,58.103L931.297,58.103Z" style="fill:rgb(113,21,108);"/>
        </g>
        <g transform="matrix(1.7952,0,0,1.3089,-726.655,-9.64201)">
            <g transform="matrix(30,0,0,30,913.807,68.0629)">
                <path d="M0.46,-0.702C0.477,-0.702 0.491,-0.696 0.502,-0.685C0.513,-0.674 0.519,-0.66 0.519,-0.644C0.519,-0.628 0.513,-0.614 0.502,-0.603C0.491,-0.592 0.477,-0.586 0.46,-0.586L0.137,-0.586L0.137,-0.424L0.362,-0.424C0.378,-0.424 0.392,-0.418 0.403,-0.406C0.414,-0.395 0.42,-0.381 0.42,-0.365C0.42,-0.349 0.414,-0.335 0.403,-0.324C0.392,-0.313 0.378,-0.307 0.362,-0.307L0.137,-0.307L0.137,-0.058C0.137,-0.042 0.131,-0.028 0.119,-0.017C0.108,-0.006 0.094,-0 0.078,-0C0.062,-0 0.048,-0.006 0.037,-0.017C0.026,-0.028 0.02,-0.042 0.02,-0.058L0.02,-0.644C0.02,-0.66 0.026,-0.674 0.037,-0.685C0.048,-0.696 0.062,-0.702 0.078,-0.702L0.46,-0.702Z" style="fill:white;fill-rule:nonzero;"/>
            </g>
            <g transform="matrix(30,0,0,30,926.977,68.0629)">
                <path d="M0.282,0.005C0.384,0.005 0.456,-0.032 0.497,-0.107C0.505,-0.12 0.507,-0.135 0.503,-0.151C0.5,-0.166 0.491,-0.178 0.477,-0.187C0.464,-0.195 0.449,-0.197 0.434,-0.194C0.418,-0.19 0.406,-0.181 0.397,-0.167C0.376,-0.13 0.338,-0.111 0.282,-0.111C0.25,-0.111 0.222,-0.121 0.197,-0.14C0.172,-0.159 0.155,-0.184 0.145,-0.215L0.472,-0.215C0.489,-0.215 0.503,-0.221 0.514,-0.232C0.525,-0.243 0.531,-0.257 0.531,-0.273C0.531,-0.353 0.507,-0.419 0.459,-0.471C0.411,-0.523 0.35,-0.549 0.277,-0.549C0.204,-0.549 0.142,-0.523 0.094,-0.47C0.045,-0.417 0.02,-0.352 0.02,-0.273C0.02,-0.196 0.044,-0.132 0.092,-0.081C0.144,-0.024 0.207,0.005 0.282,0.005ZM0.144,-0.332C0.154,-0.365 0.171,-0.39 0.196,-0.407C0.221,-0.424 0.248,-0.433 0.277,-0.433C0.306,-0.433 0.333,-0.424 0.357,-0.407C0.381,-0.39 0.398,-0.365 0.407,-0.332L0.144,-0.332Z" style="fill:white;fill-rule:nonzero;"/>
            </g>
        </g>
    </g>
    <path id="number-face" serif:id="number face" d="M34.871,62.735C35.639,62.735 36.295,62.463 36.839,61.919C37.383,61.375 37.655,60.719 37.655,59.951C37.655,59.183 37.383,58.527 36.839,57.983C36.295,57.439 35.639,57.167 34.871,57.167L21.959,57.167C22.471,56.239 23.231,55.327 24.239,54.431C25.247,53.535 26.679,52.415 28.535,51.071C30.007,50.015 31.119,49.175 31.871,48.551C32.623,47.927 33.535,47.055 34.607,45.935C35.679,44.815 36.455,43.655 36.935,42.455C37.415,41.255 37.655,39.951 37.655,38.543C37.655,36.047 36.775,33.887 35.015,32.063C33.127,30.047 30.567,29.039 27.335,29.039C24.263,29.039 21.775,30.055 19.871,32.087C17.967,34.119 17.015,36.447 17.015,39.071C17.015,39.839 17.287,40.495 17.831,41.039C18.375,41.583 19.031,41.855 19.799,41.855C20.567,41.855 21.223,41.583 21.767,41.039C22.311,40.495 22.583,39.839 22.583,39.071C22.583,38.111 22.951,37.127 23.687,36.119C24.423,35.111 25.639,34.607 27.335,34.607C28.999,34.607 30.207,35.023 30.959,35.855C31.711,36.687 32.087,37.583 32.087,38.543C32.087,39.279 31.935,39.975 31.631,40.631C31.327,41.287 30.775,41.999 29.975,42.767C29.175,43.535 28.503,44.127 27.959,44.543C27.415,44.959 26.519,45.631 25.271,46.559C24.055,47.423 23.127,48.111 22.487,48.623C21.847,49.135 21.023,49.863 20.015,50.807C19.007,51.751 18.239,52.623 17.711,53.423C17.183,54.223 16.711,55.199 16.295,56.351C15.879,57.503 15.671,58.703 15.671,59.951C15.671,60.719 15.943,61.375 16.487,61.919C17.031,62.463 17.687,62.735 18.455,62.735L34.871,62.735Z" style="fill:white;fill-rule:nonzero;"/>
    <path d="M57.863,45.023C60.007,46.975 61.079,49.455 61.079,52.463C61.079,55.439 60.007,57.919 57.863,59.903C55.783,61.791 53.271,62.735 50.327,62.735C47.383,62.735 44.871,61.791 42.791,59.903C40.647,57.919 39.575,55.439 39.575,52.463C39.575,46.287 41.319,40.911 44.807,36.335C46.599,33.999 48.655,32.199 50.975,30.935C53.295,29.671 55.735,29.039 58.295,29.039C59.063,29.039 59.719,29.311 60.263,29.855C60.807,30.399 61.079,31.055 61.079,31.823C61.079,32.591 60.807,33.247 60.263,33.791C59.719,34.335 59.063,34.607 58.295,34.607C54.871,34.607 51.847,36.319 49.223,39.743C48.583,40.639 48.007,41.567 47.495,42.527C48.359,42.303 49.303,42.191 50.327,42.191C53.271,42.191 55.783,43.135 57.863,45.023ZM46.679,55.919C47.703,56.751 48.919,57.167 50.327,57.167C51.735,57.167 52.951,56.751 53.975,55.919C54.999,55.087 55.511,53.935 55.511,52.463C55.511,50.991 54.999,49.839 53.975,49.007C52.951,48.175 51.735,47.759 50.327,47.759C48.919,47.759 47.703,48.175 46.679,49.007C45.655,49.839 45.143,50.991 45.143,52.463C45.143,53.935 45.655,55.087 46.679,55.919Z" style="fill:white;fill-rule:nonzero;"/>
</svg>
