<?xml version="1.0" encoding="UTF-8" standalone="no"?>
<!DOCTYPE svg PUBLIC "-//W3C//DTD SVG 1.1//EN" "http://www.w3.org/Graphics/SVG/1.1/DTD/svg11.dtd">
<svg width="100%" height="100%" viewBox="0 0 101 101" version="1.1" xmlns="http://www.w3.org/2000/svg" xmlns:xlink="http://www.w3.org/1999/xlink" xml:space="preserve" xmlns:serif="http://www.serif.com/" style="fill-rule:evenodd;clip-rule:evenodd;stroke-linejoin:round;stroke-miterlimit:2;">
    <rect id="_27" serif:id="27" x="0.542" y="0.504" width="100" height="100" style="fill:none;"/>
    <rect x="57.513" y="46.998" width="27.731" height="13.564" style="fill:rgb(84,84,84);"/>
    <path id="number-big-stroke" serif:id="number big stroke" d="M35.101,61.982C34.765,61.671 34.527,61.282 34.385,60.815C34.161,60.079 34.225,59.359 34.577,58.655L35.05,57.73C34.699,56.509 34.04,55.415 33.072,54.448C31.659,53.034 29.975,52.279 28.021,52.18C28.836,51.482 29.804,50.556 30.917,49.392C32.476,47.763 33.577,46.057 34.275,44.312C34.984,42.542 35.353,40.62 35.353,38.543C35.353,37.161 35.179,35.845 34.828,34.597C34.158,34.549 33.578,34.28 33.089,33.791C32.545,33.247 32.273,32.591 32.273,31.823C32.273,31.247 32.426,30.734 32.732,30.284C32.317,29.709 31.851,29.153 31.336,28.617C28.541,25.648 24.807,24.039 20.033,24.039C15.446,24.039 11.763,25.634 8.92,28.668C6.089,31.69 4.713,35.169 4.713,39.071C4.713,41.219 5.472,43.053 6.993,44.575C6.993,44.575 6.993,44.575 6.993,44.575C7.896,45.477 8.909,46.111 10.033,46.476L9.295,47.158C7.949,48.419 6.941,49.6 6.236,50.669C5.516,51.759 4.857,53.082 4.29,54.653C3.678,56.348 3.369,58.114 3.369,59.951C3.369,62.099 4.128,63.933 5.649,65.455C5.649,65.455 5.649,65.455 5.649,65.455C7.171,66.976 9.005,67.735 11.153,67.735L27.569,67.735C29.716,67.735 31.551,66.976 33.072,65.455C34.09,64.438 34.766,63.28 35.101,61.982ZM27.569,62.735C28.337,62.735 28.993,62.463 29.537,61.919C30.081,61.375 30.353,60.719 30.353,59.951C30.353,59.183 30.081,58.527 29.537,57.983C28.993,57.439 28.337,57.167 27.569,57.167L14.657,57.167C15.169,56.239 15.929,55.327 16.937,54.431C17.945,53.535 19.377,52.415 21.233,51.071C22.705,50.015 23.817,49.175 24.569,48.551C25.321,47.927 26.233,47.055 27.305,45.935C28.377,44.815 29.153,43.655 29.633,42.455C30.113,41.255 30.353,39.951 30.353,38.543C30.353,36.047 29.473,33.887 27.713,32.063C25.825,30.047 23.265,29.039 20.033,29.039C16.961,29.039 14.473,30.055 12.569,32.087C10.665,34.119 9.713,36.447 9.713,39.071C9.713,39.839 9.985,40.495 10.529,41.039C11.073,41.583 11.729,41.855 12.497,41.855C13.265,41.855 13.921,41.583 14.465,41.039C15.009,40.495 15.281,39.839 15.281,39.071C15.281,38.111 15.649,37.127 16.385,36.119C17.121,35.111 18.337,34.607 20.033,34.607C21.697,34.607 22.905,35.023 23.657,35.855C24.409,36.687 24.785,37.583 24.785,38.543C24.785,39.279 24.633,39.975 24.329,40.631C24.025,41.287 23.473,41.999 22.673,42.767C21.873,43.535 21.201,44.127 20.657,44.543C20.113,44.959 19.217,45.631 17.969,46.559C16.753,47.423 15.825,48.111 15.185,48.623C14.545,49.135 13.721,49.863 12.713,50.807C11.705,51.751 10.937,52.623 10.409,53.423C9.881,54.223 9.409,55.199 8.993,56.351C8.577,57.503 8.369,58.703 8.369,59.951C8.369,60.719 8.641,61.375 9.185,61.919C9.729,62.463 10.385,62.735 11.153,62.735L27.569,62.735Z" style="fill:rgb(84,84,84);"/>
    <path d="M27.277,31.63C27.427,31.767 27.572,31.912 27.713,32.063C29.349,33.758 30.224,35.744 30.339,38.02C31.693,39.079 33.266,39.607 35.057,39.607C35.057,39.607 38.695,39.607 38.695,39.607C38.695,39.607 30.125,56.38 30.125,56.38C30.118,56.393 30.111,56.406 30.105,56.419C29.85,56.929 29.652,57.443 29.512,57.96L29.537,57.983C30.081,58.527 30.353,59.183 30.353,59.951C30.353,60.719 30.081,61.375 29.537,61.919L29.51,61.944L29.602,62.271C30.238,64.362 31.541,65.919 33.541,66.919C34.614,67.456 35.773,67.735 37.025,67.735C40.231,67.735 42.544,66.307 43.976,63.469C43.976,63.469 58.372,35.35 58.372,35.35C58.379,35.335 58.386,35.321 58.393,35.307C59.757,32.58 59.563,30.039 58.028,27.674C56.546,25.273 54.338,24.039 51.425,24.039C51.425,24.039 35.057,24.039 35.057,24.039C32.909,24.039 31.075,24.798 29.553,26.32C28.078,27.795 27.319,29.565 27.277,31.63ZM37.025,62.735C38.177,62.735 39.009,62.223 39.521,61.199L53.921,33.071C54.401,32.111 54.369,31.215 53.825,30.383C53.281,29.487 52.481,29.039 51.425,29.039L35.057,29.039C34.289,29.039 33.633,29.311 33.089,29.855C32.545,30.399 32.273,31.055 32.273,31.823C32.273,32.591 32.545,33.247 33.089,33.791C33.633,34.335 34.289,34.607 35.057,34.607L46.865,34.607L34.577,58.655C34.225,59.359 34.161,60.079 34.385,60.815C34.609,61.551 35.073,62.095 35.777,62.447C36.161,62.639 36.577,62.735 37.025,62.735Z" style="fill:rgb(84,84,84);"/>
    <g id="letter" transform="matrix(0.589349,0,0,0.764002,-487.571,2.0387)">
        <g transform="matrix(1.69679,0,0,1.3089,-636.73,-9.64201)">
            <path d="M937.579,66.346C937.343,66.155 937.114,65.947 936.892,65.723C935.282,64.103 934.477,62.163 934.477,59.903C934.477,57.623 935.282,55.673 936.892,54.053C937.301,53.641 937.731,53.282 938.183,52.976C938.232,52.713 938.264,52.443 938.281,52.166C938.394,50.396 937.886,48.783 936.681,47.352C936.67,47.339 936.659,47.326 936.648,47.313C935.191,45.619 933.432,44.3 931.366,43.364C929.318,42.436 927.175,41.973 924.937,41.973C920.659,41.973 917,43.489 913.961,46.527C910.923,49.566 909.407,53.225 909.407,57.503C909.407,61.805 910.926,65.473 913.961,68.508C917,71.547 920.659,73.063 924.937,73.063C927.175,73.063 929.318,72.6 931.366,71.672C933.432,70.735 935.191,69.417 936.648,67.722C936.659,67.709 936.67,67.697 936.681,67.684C937.043,67.254 937.342,66.808 937.579,66.346ZM924.937,68.063C926.457,68.063 927.912,67.748 929.302,67.118C930.692,66.488 931.877,65.603 932.857,64.463C933.177,64.083 933.322,63.658 933.292,63.188C933.262,62.718 933.067,62.323 932.707,62.003C932.347,61.683 931.927,61.538 931.447,61.568C930.967,61.598 930.567,61.793 930.247,62.153C928.827,63.753 927.057,64.553 924.937,64.553C922.997,64.553 921.337,63.863 919.957,62.483C918.577,61.103 917.887,59.443 917.887,57.503C917.887,55.563 918.577,53.908 919.957,52.538C921.337,51.168 922.997,50.483 924.937,50.483C927.057,50.483 928.827,51.283 930.247,52.883C930.567,53.243 930.967,53.438 931.447,53.468C931.927,53.498 932.347,53.353 932.707,53.033C933.067,52.713 933.262,52.318 933.292,51.848C933.322,51.378 933.177,50.953 932.857,50.573C931.877,49.433 930.692,48.548 929.302,47.918C927.912,47.288 926.457,46.973 924.937,46.973C922.037,46.973 919.557,48.003 917.497,50.063C915.437,52.123 914.407,54.603 914.407,57.503C914.407,60.423 915.437,62.913 917.497,64.973C919.557,67.033 922.037,68.063 924.937,68.063ZM928.063,57.518C927.5,57.174 926.982,56.736 926.51,56.205C926.509,56.204 926.508,56.203 926.507,56.202C926.086,55.728 925.565,55.483 924.937,55.483C924.369,55.483 923.883,55.685 923.479,56.086C923.085,56.477 922.887,56.949 922.887,57.503C922.887,58.066 923.091,58.547 923.492,58.947C923.893,59.348 924.373,59.553 924.937,59.553C925.565,59.553 926.086,59.308 926.507,58.834C926.508,58.833 926.509,58.832 926.51,58.831C926.982,58.3 927.5,57.862 928.063,57.518Z" style="fill:rgb(84,84,84);"/>
            <path d="M933.046,50.839C933.233,51.148 933.315,51.484 933.292,51.848C933.262,52.318 933.067,52.713 932.707,53.033C932.347,53.353 931.927,53.498 931.447,53.468C931.336,53.461 931.229,53.445 931.127,53.42C930.027,55.355 929.477,57.516 929.477,59.903C929.477,60.86 929.566,61.782 929.746,62.668C929.918,62.507 930.085,62.335 930.247,62.153C930.567,61.793 930.967,61.598 931.447,61.568C931.927,61.538 932.347,61.683 932.707,62.003C933.067,62.323 933.262,62.718 933.292,63.188C933.322,63.658 933.177,64.083 932.857,64.463C932.305,65.104 931.689,65.665 931.008,66.145C931.609,67.25 932.388,68.284 933.345,69.247C935.934,71.852 939.061,73.153 942.727,73.153C946.384,73.153 949.514,71.857 952.112,69.258C954.715,66.655 956.007,63.534 956.007,59.903C956.007,56.245 954.711,53.116 952.112,50.517C949.514,47.919 946.384,46.623 942.727,46.623C939.061,46.623 935.934,47.924 933.345,50.528C933.243,50.631 933.143,50.734 933.046,50.839ZM936.892,65.723C938.502,67.343 940.447,68.153 942.727,68.153C945.007,68.153 946.957,67.343 948.577,65.723C950.197,64.103 951.007,62.163 951.007,59.903C951.007,57.623 950.197,55.673 948.577,54.053C946.957,52.433 945.007,51.623 942.727,51.623C940.447,51.623 938.502,52.433 936.892,54.053C935.282,55.673 934.477,57.623 934.477,59.903C934.477,62.163 935.282,64.103 936.892,65.723ZM939.352,56.513C940.282,55.573 941.407,55.103 942.727,55.103C944.047,55.103 945.172,55.573 946.102,56.513C947.032,57.453 947.497,58.583 947.497,59.903C947.497,61.203 947.032,62.323 946.102,63.263C945.172,64.203 944.047,64.673 942.727,64.673C941.407,64.673 940.282,64.203 939.352,63.263C938.422,62.323 937.957,61.203 937.957,59.903C937.957,58.583 938.422,57.453 939.352,56.513ZM942.906,60.029C942.857,60.079 942.797,60.103 942.727,60.103C942.657,60.103 942.597,60.079 942.547,60.029C942.513,59.994 942.497,59.952 942.497,59.903C942.497,59.844 942.505,59.789 942.547,59.746C942.597,59.696 942.657,59.673 942.727,59.673C942.797,59.673 942.857,59.696 942.906,59.746C942.948,59.789 942.957,59.844 942.957,59.903C942.957,59.952 942.941,59.994 942.906,60.029L942.906,60.029Z" style="fill:rgb(84,84,84);"/>
        </g>
        <g transform="matrix(1.69679,0,0,1.3089,-636.73,-9.64201)">
            <g transform="matrix(30,0,0,30,913.807,68.0629)">
                <path d="M0.371,-0C0.422,-0 0.47,-0.011 0.517,-0.032C0.563,-0.053 0.602,-0.082 0.635,-0.12C0.646,-0.133 0.651,-0.147 0.65,-0.163C0.649,-0.178 0.642,-0.191 0.63,-0.202C0.618,-0.213 0.604,-0.218 0.588,-0.217C0.572,-0.216 0.559,-0.209 0.548,-0.197C0.501,-0.144 0.442,-0.117 0.371,-0.117C0.306,-0.117 0.251,-0.14 0.205,-0.186C0.159,-0.232 0.136,-0.287 0.136,-0.352C0.136,-0.417 0.159,-0.472 0.205,-0.518C0.251,-0.563 0.306,-0.586 0.371,-0.586C0.442,-0.586 0.501,-0.559 0.548,-0.506C0.559,-0.494 0.572,-0.488 0.588,-0.487C0.604,-0.486 0.618,-0.49 0.63,-0.501C0.642,-0.512 0.649,-0.525 0.65,-0.541C0.651,-0.556 0.646,-0.57 0.635,-0.583C0.602,-0.621 0.563,-0.651 0.517,-0.672C0.47,-0.693 0.422,-0.703 0.371,-0.703C0.274,-0.703 0.192,-0.669 0.123,-0.6C0.054,-0.531 0.02,-0.449 0.02,-0.352C0.02,-0.255 0.054,-0.172 0.123,-0.103C0.192,-0.034 0.274,-0 0.371,-0Z" style="fill:white;fill-rule:nonzero;"/>
            </g>
            <g transform="matrix(30,0,0,30,933.877,68.0629)">
                <path d="M0.101,-0.078C0.154,-0.024 0.219,0.003 0.295,0.003C0.371,0.003 0.436,-0.024 0.49,-0.078C0.544,-0.132 0.571,-0.197 0.571,-0.272C0.571,-0.348 0.544,-0.413 0.49,-0.467C0.436,-0.521 0.371,-0.548 0.295,-0.548C0.219,-0.548 0.154,-0.521 0.101,-0.467C0.047,-0.413 0.02,-0.348 0.02,-0.272C0.02,-0.197 0.047,-0.132 0.101,-0.078ZM0.183,-0.385C0.214,-0.416 0.251,-0.432 0.295,-0.432C0.339,-0.432 0.377,-0.416 0.407,-0.385C0.439,-0.354 0.454,-0.316 0.454,-0.272C0.454,-0.229 0.439,-0.191 0.407,-0.16C0.377,-0.129 0.339,-0.113 0.295,-0.113C0.251,-0.113 0.214,-0.129 0.183,-0.16C0.152,-0.191 0.136,-0.229 0.136,-0.272C0.136,-0.316 0.152,-0.354 0.183,-0.385Z" style="fill:white;fill-rule:nonzero;"/>
            </g>
        </g>
    </g>
    <path id="number-face" serif:id="number face" d="M27.569,62.735C28.337,62.735 28.993,62.463 29.537,61.919C30.081,61.375 30.353,60.719 30.353,59.951C30.353,59.183 30.081,58.527 29.537,57.983C28.993,57.439 28.337,57.167 27.569,57.167L14.657,57.167C15.169,56.239 15.929,55.327 16.937,54.431C17.945,53.535 19.377,52.415 21.233,51.071C22.705,50.015 23.817,49.175 24.569,48.551C25.321,47.927 26.233,47.055 27.305,45.935C28.377,44.815 29.153,43.655 29.633,42.455C30.113,41.255 30.353,39.951 30.353,38.543C30.353,36.047 29.473,33.887 27.713,32.063C25.825,30.047 23.265,29.039 20.033,29.039C16.961,29.039 14.473,30.055 12.569,32.087C10.665,34.119 9.713,36.447 9.713,39.071C9.713,39.839 9.985,40.495 10.529,41.039C11.073,41.583 11.729,41.855 12.497,41.855C13.265,41.855 13.921,41.583 14.465,41.039C15.009,40.495 15.281,39.839 15.281,39.071C15.281,38.111 15.649,37.127 16.385,36.119C17.121,35.111 18.337,34.607 20.033,34.607C21.697,34.607 22.905,35.023 23.657,35.855C24.409,36.687 24.785,37.583 24.785,38.543C24.785,39.279 24.633,39.975 24.329,40.631C24.025,41.287 23.473,41.999 22.673,42.767C21.873,43.535 21.201,44.127 20.657,44.543C20.113,44.959 19.217,45.631 17.969,46.559C16.753,47.423 15.825,48.111 15.185,48.623C14.545,49.135 13.721,49.863 12.713,50.807C11.705,51.751 10.937,52.623 10.409,53.423C9.881,54.223 9.409,55.199 8.993,56.351C8.577,57.503 8.369,58.703 8.369,59.951C8.369,60.719 8.641,61.375 9.185,61.919C9.729,62.463 10.385,62.735 11.153,62.735L27.569,62.735Z" style="fill:white;fill-rule:nonzero;"/>
    <path d="M37.025,62.735C38.177,62.735 39.009,62.223 39.521,61.199L53.921,33.071C54.401,32.111 54.369,31.215 53.825,30.383C53.281,29.487 52.481,29.039 51.425,29.039L35.057,29.039C34.289,29.039 33.633,29.311 33.089,29.855C32.545,30.399 32.273,31.055 32.273,31.823C32.273,32.591 32.545,33.247 33.089,33.791C33.633,34.335 34.289,34.607 35.057,34.607L46.865,34.607L34.577,58.655C34.225,59.359 34.161,60.079 34.385,60.815C34.609,61.551 35.073,62.095 35.777,62.447C36.161,62.639 36.577,62.735 37.025,62.735Z" style="fill:white;fill-rule:nonzero;"/>
</svg>
