<?xml version="1.0" encoding="UTF-8" standalone="no"?>
<!DOCTYPE svg PUBLIC "-//W3C//DTD SVG 1.1//EN" "http://www.w3.org/Graphics/SVG/1.1/DTD/svg11.dtd">
<svg width="100%" height="100%" viewBox="0 0 101 101" version="1.1" xmlns="http://www.w3.org/2000/svg" xmlns:xlink="http://www.w3.org/1999/xlink" xml:space="preserve" xmlns:serif="http://www.serif.com/" style="fill-rule:evenodd;clip-rule:evenodd;stroke-linejoin:round;stroke-miterlimit:2;">
    <rect id="_28" serif:id="28" x="0.601" y="0.504" width="100" height="100" style="fill:none;"/>
    <circle cx="51.828" cy="39.592" r="8.036" style="fill:rgb(84,84,84);"/>
    <path id="number-big-stroke" serif:id="number big stroke" d="M44.479,59.722L44.484,59.951C44.484,62.099 43.725,63.933 42.204,65.455C40.683,66.976 38.848,67.735 36.7,67.735L20.284,67.735C18.137,67.735 16.302,66.976 14.781,65.455C14.781,65.455 14.781,65.455 14.781,65.455C13.26,63.933 12.5,62.099 12.5,59.951C12.5,58.114 12.809,56.348 13.422,54.653C13.989,53.082 14.647,51.759 15.367,50.669C16.073,49.6 17.08,48.419 18.427,47.158L19.164,46.476C18.04,46.111 17.027,45.477 16.125,44.575C16.125,44.575 16.125,44.575 16.125,44.575C14.604,43.053 13.844,41.219 13.844,39.071C13.844,35.169 15.22,31.69 18.052,28.668C20.895,25.634 24.577,24.039 29.164,24.039C33.938,24.039 37.672,25.648 40.467,28.617C41.925,30.135 42.985,31.805 43.647,33.627C42.791,35.024 42.364,36.615 42.364,38.399C42.364,40.225 42.83,41.866 43.762,43.322C43.655,43.657 43.537,43.987 43.407,44.312C42.708,46.057 41.608,47.763 40.048,49.392C38.935,50.556 37.967,51.482 37.152,52.18C38.786,52.262 40.231,52.804 41.486,53.807C41.757,56.11 42.755,58.082 44.479,59.722ZM36.7,62.735C37.468,62.735 38.124,62.463 38.668,61.919C39.212,61.375 39.484,60.719 39.484,59.951C39.484,59.183 39.212,58.527 38.668,57.983C38.124,57.439 37.468,57.167 36.7,57.167L23.788,57.167C24.3,56.239 25.06,55.327 26.068,54.431C27.076,53.535 28.508,52.415 30.364,51.071C31.836,50.015 32.948,49.175 33.7,48.551C34.452,47.927 35.364,47.055 36.436,45.935C37.508,44.815 38.284,43.655 38.764,42.455C39.244,41.255 39.484,39.951 39.484,38.543C39.484,36.047 38.604,33.887 36.844,32.063C34.956,30.047 32.396,29.039 29.164,29.039C26.092,29.039 23.604,30.055 21.7,32.087C19.796,34.119 18.844,36.447 18.844,39.071C18.844,39.839 19.116,40.495 19.66,41.039C20.204,41.583 20.86,41.855 21.628,41.855C22.396,41.855 23.052,41.583 23.596,41.039C24.14,40.495 24.412,39.839 24.412,39.071C24.412,38.111 24.78,37.127 25.516,36.119C26.252,35.111 27.468,34.607 29.164,34.607C30.828,34.607 32.036,35.023 32.788,35.855C33.54,36.687 33.916,37.583 33.916,38.543C33.916,39.279 33.764,39.975 33.46,40.631C33.156,41.287 32.604,41.999 31.804,42.767C31.004,43.535 30.332,44.127 29.788,44.543C29.244,44.959 28.348,45.631 27.1,46.559C25.884,47.423 24.956,48.111 24.316,48.623C23.676,49.135 22.852,49.863 21.844,50.807C20.836,51.751 20.068,52.623 19.54,53.423C19.012,54.223 18.54,55.199 18.124,56.351C17.708,57.503 17.5,58.703 17.5,59.951C17.5,60.719 17.772,61.375 18.316,61.919C18.86,62.463 19.516,62.735 20.284,62.735L36.7,62.735Z" style="fill:rgb(84,84,84);"/>
    <path d="M38.111,33.672C39.027,35.121 39.484,36.745 39.484,38.543C39.484,39.951 39.244,41.255 38.764,42.455C38.624,42.806 38.459,43.153 38.265,43.495C38.38,43.801 38.508,44.102 38.646,44.398C37.161,46.702 36.404,49.389 36.404,52.463C36.404,54.148 36.638,55.725 37.106,57.197C37.702,57.274 38.223,57.538 38.668,57.983C39.212,58.527 39.484,59.183 39.484,59.951C39.484,60.426 39.38,60.858 39.172,61.247C39.781,62.076 40.49,62.86 41.299,63.598C44.274,66.332 47.884,67.735 52.156,67.735C56.477,67.735 60.108,66.32 63.081,63.579C66.319,60.628 67.956,56.918 67.956,52.463C67.956,49.391 67.201,46.707 65.713,44.401C66.569,42.57 66.996,40.569 66.996,38.399C66.996,34.209 65.461,30.712 62.404,27.902C62.39,27.889 62.376,27.876 62.362,27.863C59.551,25.338 56.158,24.039 52.156,24.039C48.194,24.039 44.816,25.333 41.999,27.863C41.985,27.876 41.97,27.889 41.956,27.902C40.131,29.58 38.848,31.503 38.111,33.672ZM62.245,48.581C61.707,47.234 60.855,46.049 59.692,45.023L59.452,44.783C61.148,42.991 61.996,40.863 61.996,38.399C61.996,35.679 61.004,33.407 59.02,31.583C57.132,29.887 54.844,29.039 52.156,29.039C49.5,29.039 47.228,29.887 45.34,31.583C43.356,33.407 42.364,35.679 42.364,38.399C42.364,40.863 43.212,42.991 44.908,44.783C44.812,44.847 44.732,44.927 44.668,45.023C42.492,46.943 41.404,49.423 41.404,52.463C41.404,55.439 42.492,57.919 44.668,59.903C46.716,61.791 49.212,62.735 52.156,62.735C55.132,62.735 57.644,61.791 59.692,59.903C61.868,57.919 62.956,55.439 62.956,52.463C62.956,51.285 62.793,50.191 62.464,49.181C63.315,48.617 63.991,47.791 64.369,46.791C64.397,46.717 64.424,46.642 64.447,46.567C64.042,47.137 63.587,47.688 63.084,48.22L62.245,48.581ZM52.156,57.167C53.564,57.167 54.788,56.743 55.828,55.895C56.868,55.047 57.388,53.903 57.388,52.463C57.388,51.023 56.868,49.879 55.828,49.031C54.788,48.183 53.564,47.759 52.156,47.759C50.78,47.759 49.572,48.183 48.532,49.031C47.492,49.879 46.972,51.023 46.972,52.463C46.972,53.903 47.492,55.047 48.532,55.895C49.572,56.743 50.78,57.167 52.156,57.167ZM49.228,35.615C48.396,36.287 47.98,37.215 47.98,38.399C47.98,39.583 48.396,40.511 49.228,41.183C50.06,41.855 51.036,42.191 52.156,42.191C53.308,42.191 54.3,41.855 55.132,41.183C55.964,40.511 56.38,39.583 56.38,38.399C56.38,37.215 55.964,36.287 55.132,35.615C54.3,34.943 53.308,34.607 52.156,34.607C51.036,34.607 50.06,34.943 49.228,35.615ZM52.37,39.505C52.306,39.556 52.242,39.607 52.156,39.607C52.085,39.607 52.042,39.546 51.991,39.505C51.646,39.227 51.38,38.889 51.38,38.399C51.38,37.909 51.646,37.572 51.991,37.293C52.042,37.252 52.085,37.191 52.156,37.191C52.242,37.191 52.306,37.242 52.37,37.293C52.714,37.572 52.98,37.909 52.98,38.399C52.98,38.889 52.714,39.227 52.37,39.505L52.37,39.505Z" style="fill:rgb(84,84,84);"/>
    <g id="letter" transform="matrix(0.42038,0,0,0.764002,-318.467,2.0387)">
        <g transform="matrix(2.3788,0,0,1.3089,-1259.96,-9.64201)">
            <path d="M935.092,68.057C934.922,68.547 934.674,69.015 934.347,69.462C933.714,70.325 932.912,70.936 931.975,71.299C931.407,71.546 930.755,71.697 930.007,71.697C928.218,71.697 926.8,70.986 925.746,69.588C925.746,69.588 921.52,64.229 921.52,64.229L921.52,66.323C921.52,67.805 920.996,69.072 919.946,70.122C918.896,71.172 917.629,71.697 916.147,71.697C914.664,71.697 913.397,71.172 912.347,70.122C912.347,70.122 912.347,70.122 912.347,70.122C911.297,69.072 910.773,67.805 910.773,66.323C910.773,66.323 910.773,48.743 910.773,48.743C910.773,46.242 911.943,44.552 914.299,43.691C915.439,43.257 916.579,43.225 917.719,43.573C918.829,43.912 919.726,44.542 920.408,45.449C920.408,45.449 924.633,50.806 924.633,50.806L924.633,48.743C924.633,47.22 925.172,45.949 926.207,44.913C927.257,43.863 928.524,43.339 930.007,43.339C931.489,43.339 932.756,43.863 933.806,44.914C934.225,45.333 934.563,45.79 934.815,46.289C934.356,46.316 933.964,46.484 933.637,46.793C933.277,47.133 933.097,47.553 933.097,48.053C933.097,48.553 933.277,48.973 933.637,49.313C933.997,49.653 934.437,49.823 934.957,49.823C935.104,49.823 935.246,49.809 935.38,49.78L935.38,51.58C935.246,51.548 935.105,51.533 934.957,51.533C934.477,51.533 934.067,51.703 933.727,52.043C933.387,52.383 933.217,52.793 933.217,53.273L933.217,66.323C933.217,66.803 933.387,67.213 933.727,67.553C934.067,67.893 934.477,68.063 934.957,68.063L935.092,68.057ZM930.007,68.063C930.227,68.063 930.417,68.023 930.577,67.943C930.917,67.823 931.197,67.613 931.417,67.313C931.637,67.013 931.747,66.683 931.747,66.323L931.747,48.743C931.747,48.243 931.577,47.823 931.237,47.483C930.897,47.143 930.487,46.973 930.007,46.973C929.527,46.973 929.117,47.143 928.777,47.483C928.437,47.823 928.267,48.243 928.267,48.743L928.267,61.283L917.527,47.663C917.307,47.363 917.017,47.158 916.657,47.048C916.297,46.938 915.937,46.953 915.577,47.093C914.797,47.373 914.407,47.923 914.407,48.743L914.407,66.323C914.407,66.803 914.577,67.213 914.917,67.553C915.257,67.893 915.667,68.063 916.147,68.063C916.627,68.063 917.037,67.893 917.377,67.553C917.717,67.213 917.887,66.803 917.887,66.323L917.887,53.753L928.627,67.373C928.967,67.833 929.427,68.063 930.007,68.063Z" style="fill:rgb(84,84,84);"/>
            <path d="M929.553,47.031C929.696,46.992 929.847,46.973 930.007,46.973C930.487,46.973 930.897,47.143 931.237,47.483C931.577,47.823 931.747,48.243 931.747,48.743L931.747,66.323C931.747,66.683 931.637,67.013 931.417,67.313C931.197,67.613 930.917,67.823 930.577,67.943C930.417,68.023 930.227,68.063 930.007,68.063C929.955,68.063 929.905,68.061 929.855,68.057C930.109,68.82 930.543,69.508 931.157,70.122C931.157,70.122 931.157,70.122 931.157,70.122C932.207,71.172 933.474,71.697 934.957,71.697C936.48,71.697 937.75,71.158 938.786,70.122C939.836,69.072 940.36,67.805 940.36,66.323L940.36,53.273C940.36,52.347 940.156,51.505 939.746,50.748C940.195,49.994 940.44,49.145 940.477,48.198C940.481,48.101 940.481,48.004 940.477,47.908C940.418,46.416 939.846,45.165 938.772,44.151C937.729,43.166 936.463,42.649 934.957,42.649C933.45,42.649 932.185,43.166 931.142,44.151C930.281,44.964 929.749,45.923 929.553,47.031ZM934.957,51.533C935.457,51.533 935.877,51.703 936.217,52.043C936.557,52.383 936.727,52.793 936.727,53.273L936.727,66.323C936.727,66.803 936.557,67.213 936.217,67.553C935.877,67.893 935.457,68.063 934.957,68.063C934.477,68.063 934.067,67.893 933.727,67.553C933.387,67.213 933.217,66.803 933.217,66.323L933.217,53.273C933.217,52.793 933.387,52.383 933.727,52.043C934.067,51.703 934.477,51.533 934.957,51.533ZM936.118,46.659C935.798,46.361 935.417,46.189 934.957,46.189C934.496,46.189 934.115,46.361 933.795,46.659C933.74,46.7 933.688,46.745 933.637,46.793C933.277,47.133 933.097,47.553 933.097,48.053C933.097,48.553 933.277,48.973 933.637,49.313C933.997,49.653 934.437,49.823 934.957,49.823C935.477,49.823 935.917,49.653 936.277,49.313C936.637,48.973 936.827,48.553 936.847,48.053C936.827,47.553 936.637,47.133 936.277,46.793C936.226,46.745 936.173,46.7 936.118,46.659Z" style="fill:rgb(84,84,84);"/>
        </g>
        <g transform="matrix(2.3788,0,0,1.3089,-1259.96,-9.64201)">
            <g transform="matrix(30,0,0,30,913.807,68.0629)">
                <path d="M0.54,-0C0.547,-0 0.554,-0.001 0.559,-0.004C0.57,-0.008 0.58,-0.015 0.587,-0.025C0.594,-0.035 0.598,-0.046 0.598,-0.058L0.598,-0.644C0.598,-0.661 0.592,-0.675 0.581,-0.686C0.57,-0.697 0.556,-0.703 0.54,-0.703C0.524,-0.703 0.51,-0.697 0.499,-0.686C0.488,-0.675 0.482,-0.661 0.482,-0.644L0.482,-0.226L0.124,-0.68C0.117,-0.69 0.107,-0.697 0.095,-0.701C0.083,-0.704 0.071,-0.704 0.059,-0.699C0.033,-0.69 0.02,-0.671 0.02,-0.644L0.02,-0.058C0.02,-0.042 0.026,-0.028 0.037,-0.017C0.048,-0.006 0.062,-0 0.078,-0C0.094,-0 0.108,-0.006 0.119,-0.017C0.13,-0.028 0.136,-0.042 0.136,-0.058L0.136,-0.477L0.494,-0.023C0.505,-0.008 0.521,-0 0.54,-0Z" style="fill:white;fill-rule:nonzero;"/>
            </g>
            <g transform="matrix(30,0,0,30,932.347,68.0629)">
                <path d="M0.131,-0.625C0.119,-0.614 0.104,-0.608 0.087,-0.608C0.07,-0.608 0.055,-0.614 0.043,-0.625C0.031,-0.636 0.025,-0.65 0.025,-0.667C0.025,-0.684 0.031,-0.698 0.043,-0.709C0.055,-0.72 0.07,-0.726 0.087,-0.726C0.104,-0.726 0.119,-0.72 0.131,-0.709C0.143,-0.698 0.149,-0.684 0.15,-0.667C0.149,-0.65 0.143,-0.636 0.131,-0.625ZM0.087,-0.551C0.104,-0.551 0.118,-0.545 0.129,-0.534C0.14,-0.523 0.146,-0.509 0.146,-0.493L0.146,-0.058C0.146,-0.042 0.14,-0.028 0.129,-0.017C0.118,-0.006 0.104,-0 0.087,-0C0.071,-0 0.057,-0.006 0.046,-0.017C0.035,-0.028 0.029,-0.042 0.029,-0.058L0.029,-0.493C0.029,-0.509 0.035,-0.523 0.046,-0.534C0.057,-0.545 0.071,-0.551 0.087,-0.551Z" style="fill:white;fill-rule:nonzero;"/>
            </g>
        </g>
    </g>
    <path id="number-face" serif:id="number face" d="M36.7,62.735C37.468,62.735 38.124,62.463 38.668,61.919C39.212,61.375 39.484,60.719 39.484,59.951C39.484,59.183 39.212,58.527 38.668,57.983C38.124,57.439 37.468,57.167 36.7,57.167L23.788,57.167C24.3,56.239 25.06,55.327 26.068,54.431C27.076,53.535 28.508,52.415 30.364,51.071C31.836,50.015 32.948,49.175 33.7,48.551C34.452,47.927 35.364,47.055 36.436,45.935C37.508,44.815 38.284,43.655 38.764,42.455C39.244,41.255 39.484,39.951 39.484,38.543C39.484,36.047 38.604,33.887 36.844,32.063C34.956,30.047 32.396,29.039 29.164,29.039C26.092,29.039 23.604,30.055 21.7,32.087C19.796,34.119 18.844,36.447 18.844,39.071C18.844,39.839 19.116,40.495 19.66,41.039C20.204,41.583 20.86,41.855 21.628,41.855C22.396,41.855 23.052,41.583 23.596,41.039C24.14,40.495 24.412,39.839 24.412,39.071C24.412,38.111 24.78,37.127 25.516,36.119C26.252,35.111 27.468,34.607 29.164,34.607C30.828,34.607 32.036,35.023 32.788,35.855C33.54,36.687 33.916,37.583 33.916,38.543C33.916,39.279 33.764,39.975 33.46,40.631C33.156,41.287 32.604,41.999 31.804,42.767C31.004,43.535 30.332,44.127 29.788,44.543C29.244,44.959 28.348,45.631 27.1,46.559C25.884,47.423 24.956,48.111 24.316,48.623C23.676,49.135 22.852,49.863 21.844,50.807C20.836,51.751 20.068,52.623 19.54,53.423C19.012,54.223 18.54,55.199 18.124,56.351C17.708,57.503 17.5,58.703 17.5,59.951C17.5,60.719 17.772,61.375 18.316,61.919C18.86,62.463 19.516,62.735 20.284,62.735L36.7,62.735Z" style="fill:white;fill-rule:nonzero;"/>
    <path d="M59.692,45.023C61.868,46.943 62.956,49.423 62.956,52.463C62.956,55.439 61.868,57.919 59.692,59.903C57.644,61.791 55.132,62.735 52.156,62.735C49.212,62.735 46.716,61.791 44.668,59.903C42.492,57.919 41.404,55.439 41.404,52.463C41.404,49.423 42.492,46.943 44.668,45.023C44.732,44.927 44.812,44.847 44.908,44.783C43.212,42.991 42.364,40.863 42.364,38.399C42.364,35.679 43.356,33.407 45.34,31.583C47.228,29.887 49.5,29.039 52.156,29.039C54.844,29.039 57.132,29.887 59.02,31.583C61.004,33.407 61.996,35.679 61.996,38.399C61.996,40.863 61.148,42.991 59.452,44.783L59.692,45.023ZM49.228,35.615C48.396,36.287 47.98,37.215 47.98,38.399C47.98,39.583 48.396,40.511 49.228,41.183C50.06,41.855 51.036,42.191 52.156,42.191C53.308,42.191 54.3,41.855 55.132,41.183C55.964,40.511 56.38,39.583 56.38,38.399C56.38,37.215 55.964,36.287 55.132,35.615C54.3,34.943 53.308,34.607 52.156,34.607C51.036,34.607 50.06,34.943 49.228,35.615ZM52.156,57.167C53.564,57.167 54.788,56.743 55.828,55.895C56.868,55.047 57.388,53.903 57.388,52.463C57.388,51.023 56.868,49.879 55.828,49.031C54.788,48.183 53.564,47.759 52.156,47.759C50.78,47.759 49.572,48.183 48.532,49.031C47.492,49.879 46.972,51.023 46.972,52.463C46.972,53.903 47.492,55.047 48.532,55.895C49.572,56.743 50.78,57.167 52.156,57.167Z" style="fill:white;fill-rule:nonzero;"/>
</svg>
