<?xml version="1.0" encoding="UTF-8" standalone="no"?>
<!DOCTYPE svg PUBLIC "-//W3C//DTD SVG 1.1//EN" "http://www.w3.org/Graphics/SVG/1.1/DTD/svg11.dtd">
<svg width="100%" height="100%" viewBox="0 0 101 101" version="1.1" xmlns="http://www.w3.org/2000/svg" xmlns:xlink="http://www.w3.org/1999/xlink" xml:space="preserve" xmlns:serif="http://www.serif.com/" style="fill-rule:evenodd;clip-rule:evenodd;stroke-linejoin:round;stroke-miterlimit:2;">
    <rect id="_29" serif:id="29" x="0.315" y="0.504" width="100" height="100" style="fill:none;"/>
    <path id="number-big-stroke" serif:id="number big stroke" d="M35.128,62.726C34.752,63.727 34.154,64.636 33.336,65.455C31.814,66.976 29.98,67.735 27.832,67.735L11.416,67.735C9.269,67.735 7.434,66.976 5.913,65.455C5.913,65.455 5.913,65.455 5.913,65.455C4.391,63.933 3.632,62.099 3.632,59.951C3.632,58.114 3.941,56.348 4.553,54.653C5.12,53.082 5.779,51.759 6.499,50.669C7.204,49.6 8.212,48.419 9.558,47.158L10.296,46.476C9.172,46.111 8.159,45.477 7.257,44.575C7.257,44.575 7.257,44.575 7.257,44.575C5.735,43.053 4.976,41.219 4.976,39.071C4.976,35.169 6.352,31.69 9.184,28.668C12.026,25.634 15.709,24.039 20.296,24.039C25.07,24.039 28.804,25.648 31.599,28.617C32.924,29.996 33.92,31.502 34.588,33.133C33.219,34.875 32.536,36.935 32.536,39.311C32.536,41.493 33.1,43.397 34.231,45.021C33.533,46.52 32.528,47.985 31.18,49.392C30.067,50.556 29.099,51.482 28.284,52.18C30.238,52.279 31.922,53.034 33.336,54.448C34.154,55.266 34.752,56.175 35.128,57.176C34.442,57.215 33.85,57.485 33.352,57.983C32.808,58.527 32.536,59.183 32.536,59.951C32.536,60.719 32.808,61.375 33.352,61.919C33.85,62.417 34.442,62.687 35.128,62.726ZM27.832,62.735C28.6,62.735 29.256,62.463 29.8,61.919C30.344,61.375 30.616,60.719 30.616,59.951C30.616,59.183 30.344,58.527 29.8,57.983C29.256,57.439 28.6,57.167 27.832,57.167L14.92,57.167C15.432,56.239 16.192,55.327 17.2,54.431C18.208,53.535 19.64,52.415 21.496,51.071C22.968,50.015 24.08,49.175 24.832,48.551C25.584,47.927 26.496,47.055 27.568,45.935C28.64,44.815 29.416,43.655 29.896,42.455C30.376,41.255 30.616,39.951 30.616,38.543C30.616,36.047 29.736,33.887 27.976,32.063C26.088,30.047 23.528,29.039 20.296,29.039C17.224,29.039 14.736,30.055 12.832,32.087C10.928,34.119 9.976,36.447 9.976,39.071C9.976,39.839 10.248,40.495 10.792,41.039C11.336,41.583 11.992,41.855 12.76,41.855C13.528,41.855 14.184,41.583 14.728,41.039C15.272,40.495 15.544,39.839 15.544,39.071C15.544,38.111 15.912,37.127 16.648,36.119C17.384,35.111 18.6,34.607 20.296,34.607C21.96,34.607 23.168,35.023 23.92,35.855C24.672,36.687 25.048,37.583 25.048,38.543C25.048,39.279 24.896,39.975 24.592,40.631C24.288,41.287 23.736,41.999 22.936,42.767C22.136,43.535 21.464,44.127 20.92,44.543C20.376,44.959 19.48,45.631 18.232,46.559C17.016,47.423 16.088,48.111 15.448,48.623C14.808,49.135 13.984,49.863 12.976,50.807C11.968,51.751 11.2,52.623 10.672,53.423C10.144,54.223 9.672,55.199 9.256,56.351C8.84,57.503 8.632,58.703 8.632,59.951C8.632,60.719 8.904,61.375 9.448,61.919C9.992,62.463 10.648,62.735 11.416,62.735L27.832,62.735Z" style="fill:rgb(84,84,84);"/>
    <path d="M28.814,33.047C30.016,34.649 30.616,36.482 30.616,38.543C30.616,39.951 30.376,41.255 29.896,42.455C29.569,43.272 29.105,44.07 28.502,44.848C29.303,46.958 30.601,48.823 32.386,50.448C32.388,50.45 32.39,50.452 32.392,50.453C33.116,51.111 33.877,51.692 34.673,52.193C32.802,52.33 31.183,53.082 29.817,54.448C28.998,55.266 28.4,56.175 28.025,57.176C28.71,57.215 29.302,57.485 29.8,57.983C30.344,58.527 30.616,59.183 30.616,59.951C30.616,60.719 30.344,61.375 29.8,61.919C29.302,62.417 28.71,62.687 28.025,62.726C28.4,63.727 28.998,64.636 29.817,65.455C29.817,65.455 29.817,65.455 29.817,65.455C31.338,66.976 33.173,67.735 35.32,67.735C38.716,67.735 41.955,66.906 45.032,65.23C47.939,63.646 50.53,61.409 52.775,58.482C52.778,58.478 52.782,58.474 52.785,58.47C56.931,53.031 59.04,46.652 59.04,39.311C59.04,34.865 57.423,31.166 54.22,28.201C54.208,28.19 54.197,28.18 54.185,28.169C51.174,25.436 47.549,24.039 43.288,24.039C39.027,24.039 35.402,25.436 32.392,28.169C32.38,28.18 32.368,28.19 32.356,28.201C30.799,29.642 29.617,31.257 28.814,33.047ZM35.752,46.751C33.608,44.799 32.536,42.319 32.536,39.311C32.536,36.335 33.608,33.855 35.752,31.871C37.832,29.983 40.344,29.039 43.288,29.039C46.232,29.039 48.744,29.983 50.824,31.871C52.968,33.855 54.04,36.335 54.04,39.311C54.04,45.487 52.296,50.863 48.808,55.439C47.016,57.775 44.96,59.575 42.64,60.839C40.32,62.103 37.88,62.735 35.32,62.735C34.552,62.735 33.896,62.463 33.352,61.919C32.808,61.375 32.536,60.719 32.536,59.951C32.536,59.183 32.808,58.527 33.352,57.983C33.896,57.439 34.552,57.167 35.32,57.167C38.744,57.167 41.768,55.455 44.392,52.031C45.032,51.135 45.608,50.207 46.12,49.247C45.256,49.471 44.312,49.583 43.288,49.583C40.344,49.583 37.832,48.639 35.752,46.751ZM46.936,35.855C45.912,35.023 44.696,34.607 43.288,34.607C41.88,34.607 40.664,35.023 39.64,35.855C38.616,36.687 38.104,37.839 38.104,39.311C38.104,40.783 38.616,41.935 39.64,42.767C40.664,43.599 41.88,44.015 43.288,44.015C44.696,44.015 45.912,43.599 46.936,42.767C47.96,41.935 48.472,40.783 48.472,39.311C48.472,37.839 47.96,36.687 46.936,35.855Z" style="fill:rgb(84,84,84);"/>
    <g id="letter" transform="matrix(0.589052,0,0,0.764002,-481.517,2.0387)">
        <g transform="matrix(1.69764,0,0,1.3089,-637.512,-9.64201)">
            <path d="M937.307,66.824C937.125,67.118 936.916,67.404 936.681,67.684C936.67,67.697 936.659,67.709 936.648,67.722C935.191,69.417 933.432,70.735 931.366,71.672C929.318,72.6 927.175,73.063 924.937,73.063C920.659,73.063 917,71.547 913.961,68.508C910.926,65.473 909.407,61.805 909.407,57.503C909.407,53.225 910.923,49.566 913.961,46.527C917,43.489 920.659,41.973 924.937,41.973C927.175,41.973 929.318,42.436 931.366,43.364C933.432,44.3 935.191,45.619 936.648,47.313C936.659,47.326 936.67,47.339 936.681,47.352C937.886,48.783 938.394,50.396 938.281,52.166C938.243,52.771 938.135,53.345 937.957,53.886L937.957,53.273C937.957,52.793 937.787,52.383 937.447,52.043C937.107,51.703 936.697,51.533 936.217,51.533C935.737,51.533 935.327,51.703 934.987,52.043C934.647,52.383 934.477,52.793 934.477,53.273L934.477,60.893C934.477,62.933 935.117,64.638 936.397,66.008C936.684,66.315 936.987,66.588 937.307,66.824ZM924.937,68.063C926.457,68.063 927.912,67.748 929.302,67.118C930.692,66.488 931.877,65.603 932.857,64.463C933.177,64.083 933.322,63.658 933.292,63.188C933.262,62.718 933.067,62.323 932.707,62.003C932.347,61.683 931.927,61.538 931.447,61.568C930.967,61.598 930.567,61.793 930.247,62.153C928.827,63.753 927.057,64.553 924.937,64.553C922.997,64.553 921.337,63.863 919.957,62.483C918.577,61.103 917.887,59.443 917.887,57.503C917.887,55.563 918.577,53.908 919.957,52.538C921.337,51.168 922.997,50.483 924.937,50.483C927.057,50.483 928.827,51.283 930.247,52.883C930.567,53.243 930.967,53.438 931.447,53.468C931.927,53.498 932.347,53.353 932.707,53.033C933.067,52.713 933.262,52.318 933.292,51.848C933.322,51.378 933.177,50.953 932.857,50.573C931.877,49.433 930.692,48.548 929.302,47.918C927.912,47.288 926.457,46.973 924.937,46.973C922.037,46.973 919.557,48.003 917.497,50.063C915.437,52.123 914.407,54.603 914.407,57.503C914.407,60.423 915.437,62.913 917.497,64.973C919.557,67.033 922.037,68.063 924.937,68.063ZM937.967,61.18C938.102,61.597 938.195,62.033 938.247,62.487C938.085,62.081 937.992,61.645 937.967,61.18ZM928.063,57.518C927.5,57.174 926.982,56.736 926.51,56.205C926.509,56.204 926.508,56.203 926.507,56.202C926.086,55.728 925.565,55.483 924.937,55.483C924.369,55.483 923.883,55.685 923.479,56.086C923.085,56.477 922.887,56.949 922.887,57.503C922.887,58.066 923.091,58.547 923.492,58.947C923.893,59.348 924.373,59.553 924.937,59.553C925.565,59.553 926.086,59.308 926.507,58.834C926.508,58.833 926.509,58.832 926.51,58.831C926.982,58.3 927.5,57.862 928.063,57.518Z" style="fill:rgb(84,84,84);"/>
            <path d="M931.062,48.93C931.722,49.401 932.32,49.948 932.857,50.573C933.177,50.953 933.322,51.378 933.292,51.848C933.262,52.318 933.067,52.713 932.707,53.033C932.347,53.353 931.927,53.498 931.447,53.468C930.967,53.438 930.567,53.243 930.247,52.883C930.025,52.634 929.796,52.404 929.556,52.195C929.503,52.544 929.477,52.903 929.477,53.273L929.477,60.893C929.477,61.55 929.518,62.186 929.602,62.8C929.825,62.602 930.04,62.386 930.247,62.153C930.567,61.793 930.967,61.598 931.447,61.568C931.927,61.538 932.347,61.683 932.707,62.003C933.067,62.323 933.262,62.718 933.292,63.188C933.322,63.658 933.177,64.083 932.857,64.463C932.212,65.212 931.48,65.852 930.657,66.38C931.18,67.484 931.879,68.497 932.743,69.421C935,71.836 937.812,73.063 941.197,73.063C942.211,73.063 943.182,72.947 944.109,72.718C944.813,72.949 945.583,73.063 946.417,73.063C948.324,73.063 949.915,72.386 951.212,71.088C952.529,69.771 953.187,68.182 953.187,66.323C953.187,66.323 953.187,53.273 953.187,53.273C953.187,51.413 952.529,49.825 951.212,48.507C949.915,47.21 948.324,46.533 946.417,46.533C944.557,46.533 942.968,47.19 941.651,48.507C941.534,48.625 941.422,48.744 941.317,48.867C941.211,48.744 941.099,48.625 940.982,48.507C939.665,47.19 938.076,46.533 936.217,46.533C934.357,46.533 932.768,47.19 931.451,48.507C931.314,48.645 931.183,48.785 931.062,48.93ZM946.417,51.533C946.917,51.533 947.337,51.703 947.677,52.043C948.017,52.383 948.187,52.793 948.187,53.273L948.187,66.323C948.187,66.803 948.017,67.213 947.677,67.553C947.337,67.893 946.917,68.063 946.417,68.063C945.697,68.063 945.167,67.723 944.827,67.043C943.747,67.723 942.537,68.063 941.197,68.063C939.277,68.063 937.677,67.378 936.397,66.008C935.117,64.638 934.477,62.933 934.477,60.893L934.477,53.273C934.477,52.793 934.647,52.383 934.987,52.043C935.327,51.703 935.737,51.533 936.217,51.533C936.697,51.533 937.107,51.703 937.447,52.043C937.787,52.383 937.957,52.793 937.957,53.273L937.957,60.893C937.957,61.873 938.237,62.733 938.797,63.473C939.357,64.213 940.157,64.583 941.197,64.583C942.197,64.583 943.027,64.228 943.687,63.518C944.347,62.808 944.677,61.933 944.677,60.893L944.677,53.273C944.677,52.793 944.847,52.383 945.187,52.043C945.527,51.703 945.937,51.533 946.417,51.533Z" style="fill:rgb(84,84,84);"/>
        </g>
        <g transform="matrix(1.69764,0,0,1.3089,-637.512,-9.64201)">
            <g transform="matrix(30,0,0,30,913.807,68.0629)">
                <path d="M0.371,-0C0.422,-0 0.47,-0.011 0.517,-0.032C0.563,-0.053 0.602,-0.082 0.635,-0.12C0.646,-0.133 0.651,-0.147 0.65,-0.163C0.649,-0.178 0.642,-0.191 0.63,-0.202C0.618,-0.213 0.604,-0.218 0.588,-0.217C0.572,-0.216 0.559,-0.209 0.548,-0.197C0.501,-0.144 0.442,-0.117 0.371,-0.117C0.306,-0.117 0.251,-0.14 0.205,-0.186C0.159,-0.232 0.136,-0.287 0.136,-0.352C0.136,-0.417 0.159,-0.472 0.205,-0.518C0.251,-0.563 0.306,-0.586 0.371,-0.586C0.442,-0.586 0.501,-0.559 0.548,-0.506C0.559,-0.494 0.572,-0.488 0.588,-0.487C0.604,-0.486 0.618,-0.49 0.63,-0.501C0.642,-0.512 0.649,-0.525 0.65,-0.541C0.651,-0.556 0.646,-0.57 0.635,-0.583C0.602,-0.621 0.563,-0.651 0.517,-0.672C0.47,-0.693 0.422,-0.703 0.371,-0.703C0.274,-0.703 0.192,-0.669 0.123,-0.6C0.054,-0.531 0.02,-0.449 0.02,-0.352C0.02,-0.255 0.054,-0.172 0.123,-0.103C0.192,-0.034 0.274,-0 0.371,-0Z" style="fill:white;fill-rule:nonzero;"/>
            </g>
            <g transform="matrix(30,0,0,30,933.877,68.0629)">
                <path d="M0.418,-0.551C0.435,-0.551 0.449,-0.545 0.46,-0.534C0.471,-0.523 0.477,-0.509 0.477,-0.493L0.477,-0.058C0.477,-0.042 0.471,-0.028 0.46,-0.017C0.449,-0.006 0.435,-0 0.418,-0C0.394,-0 0.376,-0.011 0.365,-0.034C0.329,-0.011 0.289,-0 0.244,-0C0.18,-0 0.127,-0.023 0.084,-0.069C0.041,-0.114 0.02,-0.171 0.02,-0.239L0.02,-0.493C0.02,-0.509 0.026,-0.523 0.037,-0.534C0.048,-0.545 0.062,-0.551 0.078,-0.551C0.094,-0.551 0.108,-0.545 0.119,-0.534C0.13,-0.523 0.136,-0.509 0.136,-0.493L0.136,-0.239C0.136,-0.206 0.145,-0.178 0.164,-0.153C0.183,-0.128 0.209,-0.116 0.244,-0.116C0.277,-0.116 0.305,-0.128 0.327,-0.152C0.349,-0.175 0.36,-0.204 0.36,-0.239L0.36,-0.493C0.36,-0.509 0.366,-0.523 0.377,-0.534C0.388,-0.545 0.402,-0.551 0.418,-0.551Z" style="fill:white;fill-rule:nonzero;"/>
            </g>
        </g>
    </g>
    <path id="number-face" serif:id="number face" d="M27.832,62.735C28.6,62.735 29.256,62.463 29.8,61.919C30.344,61.375 30.616,60.719 30.616,59.951C30.616,59.183 30.344,58.527 29.8,57.983C29.256,57.439 28.6,57.167 27.832,57.167L14.92,57.167C15.432,56.239 16.192,55.327 17.2,54.431C18.208,53.535 19.64,52.415 21.496,51.071C22.968,50.015 24.08,49.175 24.832,48.551C25.584,47.927 26.496,47.055 27.568,45.935C28.64,44.815 29.416,43.655 29.896,42.455C30.376,41.255 30.616,39.951 30.616,38.543C30.616,36.047 29.736,33.887 27.976,32.063C26.088,30.047 23.528,29.039 20.296,29.039C17.224,29.039 14.736,30.055 12.832,32.087C10.928,34.119 9.976,36.447 9.976,39.071C9.976,39.839 10.248,40.495 10.792,41.039C11.336,41.583 11.992,41.855 12.76,41.855C13.528,41.855 14.184,41.583 14.728,41.039C15.272,40.495 15.544,39.839 15.544,39.071C15.544,38.111 15.912,37.127 16.648,36.119C17.384,35.111 18.6,34.607 20.296,34.607C21.96,34.607 23.168,35.023 23.92,35.855C24.672,36.687 25.048,37.583 25.048,38.543C25.048,39.279 24.896,39.975 24.592,40.631C24.288,41.287 23.736,41.999 22.936,42.767C22.136,43.535 21.464,44.127 20.92,44.543C20.376,44.959 19.48,45.631 18.232,46.559C17.016,47.423 16.088,48.111 15.448,48.623C14.808,49.135 13.984,49.863 12.976,50.807C11.968,51.751 11.2,52.623 10.672,53.423C10.144,54.223 9.672,55.199 9.256,56.351C8.84,57.503 8.632,58.703 8.632,59.951C8.632,60.719 8.904,61.375 9.448,61.919C9.992,62.463 10.648,62.735 11.416,62.735L27.832,62.735Z" style="fill:white;fill-rule:nonzero;"/>
    <path d="M35.752,46.751C33.608,44.799 32.536,42.319 32.536,39.311C32.536,36.335 33.608,33.855 35.752,31.871C37.832,29.983 40.344,29.039 43.288,29.039C46.232,29.039 48.744,29.983 50.824,31.871C52.968,33.855 54.04,36.335 54.04,39.311C54.04,45.487 52.296,50.863 48.808,55.439C47.016,57.775 44.96,59.575 42.64,60.839C40.32,62.103 37.88,62.735 35.32,62.735C34.552,62.735 33.896,62.463 33.352,61.919C32.808,61.375 32.536,60.719 32.536,59.951C32.536,59.183 32.808,58.527 33.352,57.983C33.896,57.439 34.552,57.167 35.32,57.167C38.744,57.167 41.768,55.455 44.392,52.031C45.032,51.135 45.608,50.207 46.12,49.247C45.256,49.471 44.312,49.583 43.288,49.583C40.344,49.583 37.832,48.639 35.752,46.751ZM46.936,35.855C45.912,35.023 44.696,34.607 43.288,34.607C41.88,34.607 40.664,35.023 39.64,35.855C38.616,36.687 38.104,37.839 38.104,39.311C38.104,40.783 38.616,41.935 39.64,42.767C40.664,43.599 41.88,44.015 43.288,44.015C44.696,44.015 45.912,43.599 46.936,42.767C47.96,41.935 48.472,40.783 48.472,39.311C48.472,37.839 47.96,36.687 46.936,35.855Z" style="fill:white;fill-rule:nonzero;"/>
</svg>
