<?xml version="1.0" encoding="UTF-8" standalone="no"?>
<!DOCTYPE svg PUBLIC "-//W3C//DTD SVG 1.1//EN" "http://www.w3.org/Graphics/SVG/1.1/DTD/svg11.dtd">
<svg width="100%" height="100%" viewBox="0 0 122 101" version="1.1" xmlns="http://www.w3.org/2000/svg" xmlns:xlink="http://www.w3.org/1999/xlink" xml:space="preserve" xmlns:serif="http://www.serif.com/" style="fill-rule:evenodd;clip-rule:evenodd;stroke-linejoin:round;stroke-miterlimit:2;">
    <rect id="_30" serif:id="30" x="0.412" y="0.504" width="121.247" height="100" style="fill:none;"/>
    <path id="number-big-stroke" serif:id="number big stroke" d="M35.766,55.265C33.879,52.524 32.935,49.398 32.935,45.887C32.935,42.992 33.576,40.359 34.859,37.987C34.789,34.36 33.485,31.22 30.944,28.571C28.179,25.631 24.492,24.039 19.783,24.039C15.184,24.039 11.498,25.599 8.654,28.538C8.651,28.54 8.649,28.543 8.646,28.546C6.015,31.276 4.703,34.53 4.703,38.303C4.703,40.511 5.482,42.353 6.983,43.855C6.983,43.855 6.983,43.855 6.983,43.855C7.49,44.361 8.032,44.783 8.609,45.119C7.608,45.495 6.698,46.093 5.879,46.912C4.358,48.433 3.599,50.268 3.599,52.415C3.599,56.584 5.035,60.074 7.846,62.909C10.82,66.047 14.776,67.735 19.783,67.735C24.729,67.735 28.701,66.066 31.77,62.906C31.772,62.904 31.775,62.902 31.777,62.899C33.919,60.685 35.249,58.14 35.766,55.265ZM19.783,62.735C23.239,62.735 26.039,61.631 28.183,59.423C30.071,57.471 31.015,55.135 31.015,52.415C31.015,49.247 29.719,46.783 27.127,45.023C27.031,44.927 26.919,44.847 26.791,44.783C28.839,43.215 29.863,41.055 29.863,38.303C29.863,35.871 29.015,33.775 27.319,32.015C25.463,30.031 22.951,29.039 19.783,29.039C16.679,29.039 14.167,30.031 12.247,32.015C10.551,33.775 9.703,35.871 9.703,38.303C9.703,39.103 9.975,39.775 10.519,40.319C11.063,40.863 11.719,41.135 12.487,41.135C13.255,41.135 13.911,40.863 14.455,40.319C14.999,39.775 15.271,39.103 15.271,38.303C15.271,37.407 15.631,36.567 16.351,35.783C17.071,34.999 18.215,34.607 19.783,34.607C21.351,34.607 22.495,34.999 23.215,35.783C23.935,36.567 24.295,37.407 24.295,38.303C24.295,39.231 23.959,39.935 23.287,40.415C22.615,40.895 21.159,41.455 18.919,42.095L18.823,42.143C18.247,42.239 17.743,42.503 17.311,42.935C16.879,43.367 16.631,43.887 16.567,44.495C16.471,45.167 16.607,45.799 16.975,46.391C17.343,46.983 17.863,47.375 18.535,47.567L18.919,47.663C21.511,48.399 23.239,49.071 24.103,49.679C24.967,50.287 25.399,51.199 25.399,52.415C25.399,53.567 24.959,54.647 24.079,55.655C23.199,56.663 21.767,57.167 19.783,57.167C17.799,57.167 16.367,56.663 15.487,55.655C14.607,54.647 14.167,53.567 14.167,52.415C14.167,51.647 13.895,50.991 13.351,50.447C12.807,49.903 12.151,49.631 11.383,49.631C10.615,49.631 9.959,49.903 9.415,50.447C8.871,50.991 8.599,51.647 8.599,52.415C8.599,55.199 9.543,57.535 11.431,59.423C13.511,61.631 16.295,62.735 19.783,62.735ZM20.266,38.54C20.268,38.5 20.269,38.46 20.27,38.421C20.271,38.381 20.271,38.342 20.271,38.303L20.266,38.54Z" style="fill:rgb(84,84,84);"/>
    <path d="M29.773,36.968C29.833,37.401 29.863,37.846 29.863,38.303C29.863,40.42 29.257,42.187 28.042,43.602C27.979,44.268 27.944,44.944 27.938,45.633C29.989,47.336 31.015,49.597 31.015,52.415C31.015,53.707 30.802,54.911 30.374,56.029C31.382,57.923 32.706,59.689 34.343,61.327C38.618,65.601 43.765,67.735 49.783,67.735C55.794,67.735 60.947,65.605 65.238,61.335C69.535,57.058 71.679,51.908 71.679,45.887C71.679,39.869 69.545,34.722 65.27,30.448C60.999,26.176 55.837,24.039 49.783,24.039C43.765,24.039 38.618,26.173 34.343,30.448C32.358,32.433 30.835,34.606 29.773,36.968ZM37.879,57.791C41.175,61.087 45.143,62.735 49.783,62.735C54.423,62.735 58.399,61.087 61.711,57.791C65.023,54.495 66.679,50.527 66.679,45.887C66.679,41.247 65.031,37.279 61.735,33.983C58.439,30.687 54.455,29.039 49.783,29.039C45.143,29.039 41.175,30.687 37.879,33.983C34.583,37.279 32.935,41.247 32.935,45.887C32.935,50.527 34.583,54.495 37.879,57.791ZM41.839,37.919C44.031,35.711 46.679,34.607 49.783,34.607C52.887,34.607 55.543,35.711 57.751,37.919C59.959,40.127 61.063,42.783 61.063,45.887C61.063,48.991 59.959,51.647 57.751,53.855C55.543,56.063 52.887,57.167 49.783,57.167C46.679,57.167 44.031,56.063 41.839,53.855C39.647,51.647 38.551,48.991 38.551,45.887C38.551,42.783 39.647,40.127 41.839,37.919ZM45.387,41.442C46.6,40.22 48.065,39.607 49.783,39.607C51.51,39.607 52.987,40.226 54.215,41.455C55.444,42.683 56.063,44.16 56.063,45.887C56.063,47.614 55.444,49.091 54.215,50.32C52.987,51.548 51.51,52.167 49.783,52.167C48.065,52.167 46.6,51.554 45.387,50.332C44.164,49.1 43.551,47.619 43.551,45.887C43.551,44.155 44.164,42.674 45.387,41.442L45.387,41.442Z" style="fill:rgb(84,84,84);"/>
    <g id="letter" transform="matrix(0.582918,0,0,0.764002,-464.273,2.0387)">
        <g transform="matrix(1.71551,0,0,1.3089,-653.835,-9.64201)">
            <path d="M936.487,64.215C936.701,64.873 936.807,65.576 936.807,66.323C936.807,68.182 936.149,69.771 934.832,71.088C933.515,72.406 931.926,73.063 930.067,73.063L916.147,73.063C913.478,73.063 911.467,71.889 910.171,69.449C910.161,69.43 910.151,69.411 910.142,69.393C908.802,66.791 909.062,64.389 910.834,62.184L916.005,55.405C914.599,55.197 913.368,54.565 912.311,53.508C912.311,53.508 912.311,53.508 912.311,53.508C910.994,52.191 910.337,50.602 910.337,48.743C910.337,46.883 910.994,45.294 912.311,43.977C913.628,42.66 915.217,42.003 917.077,42.003C917.077,42.003 929.587,42.003 929.587,42.003C932.363,42.003 934.366,43.241 935.605,45.7C936.707,47.856 936.709,49.874 935.661,51.757C935.407,51.607 935.102,51.533 934.747,51.533C934.267,51.533 933.857,51.703 933.517,52.043C933.177,52.383 933.007,52.793 933.007,53.273L933.007,55.363L929.788,59.583L930.067,59.583C931.136,59.583 932.117,59.8 933.007,60.237L933.007,66.323C933.007,66.803 933.177,67.213 933.517,67.553C933.857,67.893 934.267,68.063 934.747,68.063C935.227,68.063 935.637,67.893 935.977,67.553C936.317,67.213 936.487,66.803 936.487,66.323L936.487,64.215ZM930.067,68.063C930.547,68.063 930.957,67.893 931.297,67.553C931.637,67.213 931.807,66.803 931.807,66.323C931.807,65.843 931.637,65.433 931.297,65.093C930.957,64.753 930.547,64.583 930.067,64.583L919.687,64.583L930.967,49.793C931.427,49.233 931.487,48.623 931.147,47.963C930.827,47.323 930.307,47.003 929.587,47.003L917.077,47.003C916.597,47.003 916.187,47.173 915.847,47.513C915.507,47.853 915.337,48.263 915.337,48.743C915.337,49.223 915.507,49.633 915.847,49.973C916.187,50.313 916.597,50.483 917.077,50.483L926.047,50.483L914.767,65.273C914.307,65.833 914.247,66.443 914.587,67.103C914.927,67.743 915.447,68.063 916.147,68.063L930.067,68.063Z" style="fill:rgb(84,84,84);"/>
            <path d="M930.974,47.676C931.037,47.763 931.095,47.859 931.147,47.963C931.487,48.623 931.427,49.233 930.967,49.793L928.007,53.674L928.007,58.709L928.007,64.583L930.067,64.583C930.547,64.583 930.957,64.753 931.297,65.093C931.637,65.433 931.807,65.843 931.807,66.323C931.807,66.803 931.637,67.213 931.297,67.553C930.957,67.893 930.547,68.063 930.067,68.063L928.22,68.063C928.508,69.194 929.095,70.203 929.981,71.088C929.981,71.088 929.981,71.088 929.981,71.088C931.298,72.406 932.887,73.063 934.747,73.063C936.606,73.063 938.195,72.406 939.512,71.088C939.629,70.971 939.741,70.852 939.847,70.729L940.181,71.088C941.498,72.406 943.087,73.063 944.947,73.063C946.854,73.063 948.445,72.386 949.742,71.088C951.059,69.771 951.717,68.182 951.717,66.323L951.717,58.703C951.717,55.287 950.582,52.454 948.422,50.16C946.15,47.747 943.343,46.533 939.997,46.533C938.979,46.533 938.009,46.647 937.084,46.873C936.382,46.647 935.603,46.533 934.747,46.533C933.332,46.533 932.074,46.913 930.974,47.676ZM939.997,51.533C941.897,51.533 943.492,52.218 944.782,53.588C946.072,54.958 946.717,56.663 946.717,58.703L946.717,66.323C946.717,66.803 946.547,67.213 946.207,67.553C945.867,67.893 945.447,68.063 944.947,68.063C944.467,68.063 944.057,67.893 943.717,67.553C943.377,67.213 943.207,66.803 943.207,66.323L943.207,58.703C943.207,57.723 942.932,56.863 942.382,56.123C941.832,55.383 941.037,55.013 939.997,55.013C938.997,55.013 938.162,55.363 937.492,56.063C936.822,56.763 936.487,57.643 936.487,58.703L936.487,66.323C936.487,66.803 936.317,67.213 935.977,67.553C935.637,67.893 935.227,68.063 934.747,68.063C934.267,68.063 933.857,67.893 933.517,67.553C933.177,67.213 933.007,66.803 933.007,66.323L933.007,53.273C933.007,52.793 933.177,52.383 933.517,52.043C933.857,51.703 934.267,51.533 934.747,51.533C935.507,51.533 936.037,51.873 936.337,52.553C937.417,51.873 938.637,51.533 939.997,51.533ZM941.485,58.722L941.485,58.73L941.486,58.71L941.485,58.722Z" style="fill:rgb(84,84,84);"/>
        </g>
        <g transform="matrix(1.71551,0,0,1.3089,-653.835,-9.64201)">
            <g transform="matrix(30,0,0,30,913.807,68.0629)">
                <path d="M0.542,-0C0.558,-0 0.572,-0.006 0.583,-0.017C0.594,-0.028 0.6,-0.042 0.6,-0.058C0.6,-0.074 0.594,-0.088 0.583,-0.099C0.572,-0.11 0.558,-0.116 0.542,-0.116L0.196,-0.116L0.572,-0.609C0.587,-0.628 0.589,-0.648 0.578,-0.67C0.567,-0.691 0.55,-0.702 0.526,-0.702L0.109,-0.702C0.093,-0.702 0.079,-0.696 0.068,-0.685C0.057,-0.674 0.051,-0.66 0.051,-0.644C0.051,-0.628 0.057,-0.614 0.068,-0.603C0.079,-0.592 0.093,-0.586 0.109,-0.586L0.408,-0.586L0.032,-0.093C0.017,-0.074 0.015,-0.054 0.026,-0.032C0.037,-0.011 0.055,-0 0.078,-0L0.542,-0Z" style="fill:white;fill-rule:nonzero;"/>
            </g>
            <g transform="matrix(30,0,0,30,932.407,68.0629)">
                <path d="M0.253,-0.551C0.316,-0.551 0.37,-0.528 0.412,-0.483C0.456,-0.437 0.477,-0.38 0.477,-0.312L0.477,-0.058C0.477,-0.042 0.471,-0.028 0.46,-0.017C0.449,-0.006 0.435,-0 0.418,-0C0.402,-0 0.388,-0.006 0.377,-0.017C0.366,-0.028 0.36,-0.042 0.36,-0.058L0.36,-0.312C0.36,-0.345 0.351,-0.373 0.333,-0.398C0.314,-0.423 0.288,-0.435 0.253,-0.435C0.22,-0.435 0.192,-0.423 0.17,-0.4C0.147,-0.377 0.136,-0.347 0.136,-0.312L0.136,-0.058C0.136,-0.042 0.13,-0.028 0.119,-0.017C0.108,-0.006 0.094,-0 0.078,-0C0.062,-0 0.048,-0.006 0.037,-0.017C0.026,-0.028 0.02,-0.042 0.02,-0.058L0.02,-0.493C0.02,-0.509 0.026,-0.523 0.037,-0.534C0.048,-0.545 0.062,-0.551 0.078,-0.551C0.103,-0.551 0.121,-0.54 0.131,-0.517C0.167,-0.54 0.208,-0.551 0.253,-0.551Z" style="fill:white;fill-rule:nonzero;"/>
            </g>
        </g>
    </g>
    <path id="number-face" serif:id="number face" d="M19.783,62.735C23.239,62.735 26.039,61.631 28.183,59.423C30.071,57.471 31.015,55.135 31.015,52.415C31.015,49.247 29.719,46.783 27.127,45.023C27.031,44.927 26.919,44.847 26.791,44.783C28.839,43.215 29.863,41.055 29.863,38.303C29.863,35.871 29.015,33.775 27.319,32.015C25.463,30.031 22.951,29.039 19.783,29.039C16.679,29.039 14.167,30.031 12.247,32.015C10.551,33.775 9.703,35.871 9.703,38.303C9.703,39.103 9.975,39.775 10.519,40.319C11.063,40.863 11.719,41.135 12.487,41.135C13.255,41.135 13.911,40.863 14.455,40.319C14.999,39.775 15.271,39.103 15.271,38.303C15.271,37.407 15.631,36.567 16.351,35.783C17.071,34.999 18.215,34.607 19.783,34.607C21.351,34.607 22.495,34.999 23.215,35.783C23.935,36.567 24.295,37.407 24.295,38.303C24.295,39.231 23.959,39.935 23.287,40.415C22.615,40.895 21.159,41.455 18.919,42.095L18.823,42.143C18.247,42.239 17.743,42.503 17.311,42.935C16.879,43.367 16.631,43.887 16.567,44.495C16.471,45.167 16.607,45.799 16.975,46.391C17.343,46.983 17.863,47.375 18.535,47.567L18.919,47.663C21.511,48.399 23.239,49.071 24.103,49.679C24.967,50.287 25.399,51.199 25.399,52.415C25.399,53.567 24.959,54.647 24.079,55.655C23.199,56.663 21.767,57.167 19.783,57.167C17.799,57.167 16.367,56.663 15.487,55.655C14.607,54.647 14.167,53.567 14.167,52.415C14.167,51.647 13.895,50.991 13.351,50.447C12.807,49.903 12.151,49.631 11.383,49.631C10.615,49.631 9.959,49.903 9.415,50.447C8.871,50.991 8.599,51.647 8.599,52.415C8.599,55.199 9.543,57.535 11.431,59.423C13.511,61.631 16.295,62.735 19.783,62.735Z" style="fill:white;fill-rule:nonzero;"/>
    <path d="M37.879,57.791C41.175,61.087 45.143,62.735 49.783,62.735C54.423,62.735 58.399,61.087 61.711,57.791C65.023,54.495 66.679,50.527 66.679,45.887C66.679,41.247 65.031,37.279 61.735,33.983C58.439,30.687 54.455,29.039 49.783,29.039C45.143,29.039 41.175,30.687 37.879,33.983C34.583,37.279 32.935,41.247 32.935,45.887C32.935,50.527 34.583,54.495 37.879,57.791ZM41.839,37.919C44.031,35.711 46.679,34.607 49.783,34.607C52.887,34.607 55.543,35.711 57.751,37.919C59.959,40.127 61.063,42.783 61.063,45.887C61.063,48.991 59.959,51.647 57.751,53.855C55.543,56.063 52.887,57.167 49.783,57.167C46.679,57.167 44.031,56.063 41.839,53.855C39.647,51.647 38.551,48.991 38.551,45.887C38.551,42.783 39.647,40.127 41.839,37.919Z" style="fill:white;fill-rule:nonzero;"/>
</svg>
