<?xml version="1.0" encoding="UTF-8" standalone="no"?>
<!DOCTYPE svg PUBLIC "-//W3C//DTD SVG 1.1//EN" "http://www.w3.org/Graphics/SVG/1.1/DTD/svg11.dtd">
<svg width="100%" height="100%" viewBox="0 0 100 101" version="1.1" xmlns="http://www.w3.org/2000/svg" xmlns:xlink="http://www.w3.org/1999/xlink" xml:space="preserve" xmlns:serif="http://www.serif.com/" style="fill-rule:evenodd;clip-rule:evenodd;stroke-linejoin:round;stroke-miterlimit:2;">
    <rect id="_31" serif:id="31" x="0" y="0.709" width="100" height="100" style="fill:none;"/>
    <rect x="28.106" y="47.868" width="55.732" height="17.74" style="fill:rgb(84,84,84);"/>
    <path id="number-big-stroke" serif:id="number big stroke" d="M39.288,44.097C38.756,43.952 38.303,43.655 37.928,43.208C37.432,42.616 37.216,41.936 37.28,41.168C37.344,40.4 37.68,39.776 38.288,39.296L38.851,38.82C38.252,36.64 37.113,34.675 35.433,32.924C32.668,29.983 28.981,28.392 24.272,28.392C19.673,28.392 15.988,29.951 13.143,32.89C13.141,32.893 13.138,32.896 13.136,32.898C10.504,35.629 9.192,38.882 9.192,42.656C9.192,44.863 9.971,46.706 11.472,48.207C11.472,48.207 11.472,48.207 11.472,48.207C11.979,48.714 12.521,49.136 13.098,49.472C12.097,49.847 11.187,50.445 10.368,51.264C8.847,52.785 8.088,54.62 8.088,56.768C8.088,60.937 9.524,64.427 12.336,67.262C15.309,70.399 19.265,72.088 24.272,72.088C29.218,72.088 33.191,70.419 36.259,67.259C36.261,67.256 36.264,67.254 36.266,67.252C39.091,64.331 40.504,60.837 40.504,56.768C40.504,53.623 39.681,50.926 38.04,48.673C38.72,47.3 39.139,45.776 39.288,44.097ZM24.272,67.088C27.728,67.088 30.528,65.984 32.672,63.776C34.56,61.824 35.504,59.488 35.504,56.768C35.504,53.6 34.208,51.136 31.616,49.376C31.52,49.28 31.408,49.2 31.28,49.136C33.328,47.568 34.352,45.408 34.352,42.656C34.352,40.224 33.504,38.128 31.808,36.368C29.952,34.384 27.44,33.392 24.272,33.392C21.168,33.392 18.656,34.384 16.736,36.368C15.04,38.128 14.192,40.224 14.192,42.656C14.192,43.456 14.464,44.128 15.008,44.672C15.552,45.216 16.208,45.488 16.976,45.488C17.744,45.488 18.4,45.216 18.944,44.672C19.488,44.128 19.76,43.456 19.76,42.656C19.76,41.76 20.12,40.92 20.84,40.136C21.56,39.352 22.704,38.96 24.272,38.96C25.84,38.96 26.984,39.352 27.704,40.136C28.424,40.92 28.784,41.76 28.784,42.656C28.784,43.584 28.448,44.288 27.776,44.768C27.104,45.248 25.648,45.808 23.408,46.448L23.312,46.496C22.736,46.592 22.232,46.856 21.8,47.288C21.368,47.72 21.12,48.24 21.056,48.848C20.96,49.52 21.096,50.152 21.464,50.744C21.832,51.336 22.352,51.728 23.024,51.92L23.408,52.016C26,52.752 27.728,53.424 28.592,54.032C29.456,54.64 29.888,55.552 29.888,56.768C29.888,57.92 29.448,59 28.568,60.008C27.688,61.016 26.256,61.52 24.272,61.52C22.288,61.52 20.856,61.016 19.976,60.008C19.096,59 18.656,57.92 18.656,56.768C18.656,56 18.384,55.344 17.84,54.8C17.296,54.256 16.64,53.984 15.872,53.984C15.104,53.984 14.448,54.256 13.904,54.8C13.36,55.344 13.088,56 13.088,56.768C13.088,59.552 14.032,61.888 15.92,63.776C18,65.984 20.784,67.088 24.272,67.088ZM24.755,42.892C24.757,42.853 24.759,42.813 24.759,42.773C24.76,42.734 24.76,42.694 24.76,42.656L24.755,42.892Z" style="fill:rgb(84,84,84);"/>
    <path d="M33.052,37.96C33.919,39.353 34.352,40.919 34.352,42.656C34.352,43.877 34.15,44.982 33.746,45.969C33.855,46.122 33.972,46.271 34.095,46.419C34.095,46.419 34.095,46.419 34.095,46.419C35.278,47.83 36.737,48.705 38.472,49.043L38.472,64.304C38.472,66.451 39.231,68.286 40.752,69.807C40.752,69.807 40.752,69.807 40.752,69.807C42.274,71.328 44.108,72.088 46.256,72.088C48.404,72.088 50.238,71.328 51.76,69.807C53.281,68.286 54.04,66.451 54.04,64.304L54.04,36.546C54.109,35.237 53.878,34.03 53.353,32.925L53.247,32.706C52.881,31.975 52.384,31.297 51.76,30.672C50.238,29.151 48.404,28.392 46.256,28.392C46.117,28.392 45.979,28.395 45.843,28.401C45.114,28.427 44.417,28.554 43.754,28.783C42.661,29.144 41.675,29.762 40.793,30.633L35.112,35.434C34.21,36.16 33.523,37.002 33.052,37.96ZM49.04,36.416C48.976,37.184 48.656,37.824 48.08,38.336L43.472,42.164L43.472,64.304C43.472,65.072 43.744,65.728 44.288,66.272C44.832,66.816 45.488,67.088 46.256,67.088C47.024,67.088 47.68,66.816 48.224,66.272C48.768,65.728 49.04,65.072 49.04,64.304L49.04,36.416C49.086,35.861 48.987,35.357 48.739,34.904L48.721,34.867L48.715,34.857L48.712,34.85L48.695,34.824C48.573,34.604 48.415,34.399 48.224,34.208C47.68,33.664 47.024,33.392 46.256,33.392C45.488,33.392 44.832,33.664 44.288,34.208L44.215,34.288L38.288,39.296C37.68,39.776 37.344,40.4 37.28,41.168C37.216,41.936 37.432,42.616 37.928,43.208C38.424,43.8 39.056,44.128 39.824,44.192C40.592,44.256 41.264,44.032 41.84,43.52L43.472,42.164L43.472,36.176C43.472,35.444 43.719,34.814 44.215,34.288L44.48,34.064C45.056,33.552 45.728,33.336 46.496,33.416C47.264,33.496 47.896,33.824 48.392,34.4C48.509,34.535 48.611,34.677 48.695,34.824L48.715,34.857L48.739,34.904C48.94,35.286 49.04,35.71 49.04,36.176L49.04,36.416Z" style="fill:rgb(84,84,84);"/>
    <g id="letter" transform="matrix(0.612052,0,0,0.764002,-507.535,6.39118)">
        <g transform="matrix(1.63385,0,0,1.3089,-579.214,-9.64201)">
            <path d="M937.565,66.428C937.324,66.89 937.023,67.326 936.665,67.737C935.181,69.457 933.413,70.774 931.366,71.694C929.34,72.604 927.197,73.063 924.937,73.063C920.659,73.063 917,71.547 913.961,68.508C910.923,65.47 909.407,61.81 909.407,57.533C909.407,53.255 910.923,49.596 913.961,46.557C917,43.519 920.659,42.003 924.937,42.003C927.175,42.003 929.318,42.466 931.366,43.394C933.411,44.321 935.169,45.624 936.641,47.3C937.898,48.724 938.447,50.383 938.289,52.278C938.278,52.412 938.264,52.545 938.245,52.676C937.677,53.038 937.151,53.487 936.667,54.023C935.227,55.583 934.507,57.513 934.507,59.813C934.507,62.093 935.227,64.013 936.667,65.573C936.951,65.888 937.251,66.173 937.565,66.428ZM924.937,68.063C926.477,68.063 927.937,67.753 929.317,67.133C930.697,66.513 931.887,65.623 932.887,64.463C933.167,64.143 933.307,63.763 933.307,63.323L933.307,58.223C933.307,57.743 933.137,57.333 932.797,56.993C932.457,56.653 932.047,56.483 931.567,56.483L925.597,56.483C925.117,56.483 924.707,56.653 924.367,56.993C924.027,57.333 923.857,57.743 923.857,58.223C923.857,58.703 924.027,59.113 924.367,59.453C924.707,59.793 925.117,59.963 925.597,59.963L929.827,59.963L929.827,62.633C928.427,63.933 926.797,64.583 924.937,64.583C922.997,64.583 921.337,63.893 919.957,62.513C918.577,61.133 917.887,59.473 917.887,57.533C917.887,55.593 918.577,53.933 919.957,52.553C921.337,51.173 922.997,50.483 924.937,50.483C927.057,50.483 928.827,51.293 930.247,52.913C930.567,53.273 930.967,53.468 931.447,53.498C931.927,53.528 932.347,53.383 932.707,53.063C933.067,52.743 933.267,52.343 933.307,51.863C933.347,51.383 933.207,50.963 932.887,50.603C931.887,49.463 930.692,48.578 929.302,47.948C927.912,47.318 926.457,47.003 924.937,47.003C922.037,47.003 919.557,48.033 917.497,50.093C915.437,52.153 914.407,54.633 914.407,57.533C914.407,60.433 915.437,62.913 917.497,64.973C919.557,67.033 922.037,68.063 924.937,68.063ZM938.307,58.223L938.297,57.892C938.09,58.47 937.987,59.11 937.987,59.813C937.987,60.516 938.093,61.157 938.307,61.735L938.307,58.223Z" style="fill:rgb(84,84,84);"/>
            <path d="M932.949,50.68C933.225,51.022 933.344,51.416 933.307,51.863C933.267,52.343 933.067,52.743 932.707,53.063C932.347,53.383 931.927,53.528 931.447,53.498C931.294,53.488 931.15,53.462 931.014,53.417C930.506,54.373 930.125,55.395 929.874,56.483L931.567,56.483C932.047,56.483 932.457,56.653 932.797,56.993C933.137,57.333 933.307,57.743 933.307,58.223L933.307,63.323C933.307,63.763 933.167,64.143 932.887,64.463C932.321,65.119 931.695,65.688 931.008,66.171C931.529,67.164 932.187,68.088 932.975,68.946C935.451,71.675 938.575,73.063 942.367,73.063C943.616,73.063 944.803,72.901 945.931,72.578C946.713,72.898 947.564,73.063 948.487,73.063C950.346,73.063 951.935,72.406 953.252,71.088C954.569,69.771 955.227,68.182 955.227,66.323C955.227,66.323 955.227,53.273 955.227,53.273C955.227,51.413 954.569,49.825 953.252,48.507C951.935,47.19 950.346,46.533 948.487,46.533C947.564,46.533 946.713,46.698 945.931,47.018C944.803,46.695 943.616,46.533 942.367,46.533C938.575,46.533 935.451,47.92 932.975,50.65L932.949,50.68ZM948.487,51.533C948.967,51.533 949.377,51.703 949.717,52.043C950.057,52.383 950.227,52.793 950.227,53.273L950.227,66.323C950.227,66.803 950.057,67.213 949.717,67.553C949.377,67.893 948.967,68.063 948.487,68.063C948.067,68.063 947.702,67.938 947.392,67.688C947.082,67.438 946.877,67.113 946.777,66.713C945.477,67.613 944.007,68.063 942.367,68.063C940.067,68.063 938.167,67.233 936.667,65.573C935.227,64.013 934.507,62.093 934.507,59.813C934.507,57.513 935.227,55.583 936.667,54.023C938.167,52.363 940.067,51.533 942.367,51.533C944.007,51.533 945.477,51.983 946.777,52.883C946.877,52.483 947.082,52.158 947.392,51.908C947.702,51.658 948.067,51.533 948.487,51.533ZM942.367,64.583C943.627,64.583 944.672,64.133 945.502,63.233C946.332,62.333 946.747,61.193 946.747,59.813C946.747,58.413 946.332,57.263 945.502,56.363C944.672,55.463 943.627,55.013 942.367,55.013C941.087,55.013 940.037,55.463 939.217,56.363C938.397,57.263 937.987,58.413 937.987,59.813C937.987,61.193 938.397,62.333 939.217,63.233C940.037,64.133 941.087,64.583 942.367,64.583ZM929.51,59.963C929.516,60.907 929.606,61.811 929.779,62.675L929.827,62.633L929.827,59.963L929.51,59.963ZM942.843,59.798C942.714,59.925 942.562,60.013 942.367,60.013C942.168,60.013 942.008,59.931 941.874,59.798C942.008,59.665 942.168,59.583 942.367,59.583C942.562,59.583 942.714,59.671 942.843,59.798Z" style="fill:rgb(84,84,84);"/>
        </g>
        <g transform="matrix(1.63385,0,0,1.3089,-579.214,-9.64201)">
            <g transform="matrix(30,0,0,30,913.807,68.0629)">
                <path d="M0.371,-0C0.422,-0 0.471,-0.01 0.517,-0.031C0.563,-0.052 0.603,-0.081 0.636,-0.12C0.645,-0.131 0.65,-0.143 0.65,-0.158L0.65,-0.328C0.65,-0.344 0.644,-0.358 0.633,-0.369C0.622,-0.38 0.608,-0.386 0.592,-0.386L0.393,-0.386C0.377,-0.386 0.363,-0.38 0.352,-0.369C0.341,-0.358 0.335,-0.344 0.335,-0.328C0.335,-0.312 0.341,-0.298 0.352,-0.287C0.363,-0.276 0.377,-0.27 0.393,-0.27L0.534,-0.27L0.534,-0.181C0.487,-0.138 0.433,-0.116 0.371,-0.116C0.306,-0.116 0.251,-0.139 0.205,-0.185C0.159,-0.231 0.136,-0.286 0.136,-0.351C0.136,-0.416 0.159,-0.471 0.205,-0.517C0.251,-0.563 0.306,-0.586 0.371,-0.586C0.442,-0.586 0.501,-0.559 0.548,-0.505C0.559,-0.493 0.572,-0.487 0.588,-0.486C0.604,-0.485 0.618,-0.489 0.63,-0.5C0.642,-0.511 0.649,-0.524 0.65,-0.54C0.651,-0.556 0.647,-0.57 0.636,-0.582C0.603,-0.62 0.563,-0.65 0.517,-0.671C0.47,-0.692 0.422,-0.702 0.371,-0.702C0.274,-0.702 0.192,-0.668 0.123,-0.599C0.054,-0.53 0.02,-0.448 0.02,-0.351C0.02,-0.254 0.054,-0.172 0.123,-0.103C0.192,-0.034 0.274,-0 0.371,-0Z" style="fill:white;fill-rule:nonzero;"/>
            </g>
            <g transform="matrix(30,0,0,30,933.907,68.0629)">
                <path d="M0.486,-0.551C0.502,-0.551 0.516,-0.545 0.527,-0.534C0.538,-0.523 0.544,-0.509 0.544,-0.493L0.544,-0.058C0.544,-0.042 0.538,-0.028 0.527,-0.017C0.516,-0.006 0.502,-0 0.486,-0C0.472,-0 0.46,-0.004 0.45,-0.013C0.439,-0.021 0.432,-0.032 0.429,-0.045C0.386,-0.015 0.337,-0 0.282,-0C0.205,-0 0.142,-0.028 0.092,-0.083C0.044,-0.135 0.02,-0.199 0.02,-0.275C0.02,-0.352 0.044,-0.416 0.092,-0.468C0.142,-0.523 0.205,-0.551 0.282,-0.551C0.337,-0.551 0.386,-0.536 0.429,-0.506C0.432,-0.519 0.439,-0.53 0.45,-0.539C0.46,-0.547 0.472,-0.551 0.486,-0.551ZM0.282,-0.116C0.324,-0.116 0.359,-0.131 0.387,-0.161C0.414,-0.191 0.428,-0.229 0.428,-0.275C0.428,-0.322 0.414,-0.36 0.387,-0.39C0.359,-0.42 0.324,-0.435 0.282,-0.435C0.239,-0.435 0.204,-0.42 0.177,-0.39C0.15,-0.36 0.136,-0.322 0.136,-0.275C0.136,-0.229 0.15,-0.191 0.177,-0.161C0.204,-0.131 0.239,-0.116 0.282,-0.116Z" style="fill:white;fill-rule:nonzero;"/>
            </g>
        </g>
    </g>
    <path id="number-face" serif:id="number face" d="M24.272,67.088C27.728,67.088 30.528,65.984 32.672,63.776C34.56,61.824 35.504,59.488 35.504,56.768C35.504,53.6 34.208,51.136 31.616,49.376C31.52,49.28 31.408,49.2 31.28,49.136C33.328,47.568 34.352,45.408 34.352,42.656C34.352,40.224 33.504,38.128 31.808,36.368C29.952,34.384 27.44,33.392 24.272,33.392C21.168,33.392 18.656,34.384 16.736,36.368C15.04,38.128 14.192,40.224 14.192,42.656C14.192,43.456 14.464,44.128 15.008,44.672C15.552,45.216 16.208,45.488 16.976,45.488C17.744,45.488 18.4,45.216 18.944,44.672C19.488,44.128 19.76,43.456 19.76,42.656C19.76,41.76 20.12,40.92 20.84,40.136C21.56,39.352 22.704,38.96 24.272,38.96C25.84,38.96 26.984,39.352 27.704,40.136C28.424,40.92 28.784,41.76 28.784,42.656C28.784,43.584 28.448,44.288 27.776,44.768C27.104,45.248 25.648,45.808 23.408,46.448L23.312,46.496C22.736,46.592 22.232,46.856 21.8,47.288C21.368,47.72 21.12,48.24 21.056,48.848C20.96,49.52 21.096,50.152 21.464,50.744C21.832,51.336 22.352,51.728 23.024,51.92L23.408,52.016C26,52.752 27.728,53.424 28.592,54.032C29.456,54.64 29.888,55.552 29.888,56.768C29.888,57.92 29.448,59 28.568,60.008C27.688,61.016 26.256,61.52 24.272,61.52C22.288,61.52 20.856,61.016 19.976,60.008C19.096,59 18.656,57.92 18.656,56.768C18.656,56 18.384,55.344 17.84,54.8C17.296,54.256 16.64,53.984 15.872,53.984C15.104,53.984 14.448,54.256 13.904,54.8C13.36,55.344 13.088,56 13.088,56.768C13.088,59.552 14.032,61.888 15.92,63.776C18,65.984 20.784,67.088 24.272,67.088Z" style="fill:white;fill-rule:nonzero;"/>
    <path d="M37.28,41.168C37.216,41.936 37.432,42.616 37.928,43.208C38.424,43.8 39.056,44.128 39.824,44.192C40.592,44.256 41.264,44.032 41.84,43.52L48.08,38.336C48.656,37.824 48.976,37.184 49.04,36.416C49.104,35.648 48.888,34.976 48.392,34.4C47.896,33.824 47.264,33.496 46.496,33.416C45.728,33.336 45.056,33.552 44.48,34.064L38.288,39.296C37.68,39.776 37.344,40.4 37.28,41.168ZM44.288,66.272C44.832,66.816 45.488,67.088 46.256,67.088C47.024,67.088 47.68,66.816 48.224,66.272C48.768,65.728 49.04,65.072 49.04,64.304L49.04,36.176C49.04,35.408 48.768,34.752 48.224,34.208C47.68,33.664 47.024,33.392 46.256,33.392C45.488,33.392 44.832,33.664 44.288,34.208C43.744,34.752 43.472,35.408 43.472,36.176L43.472,64.304C43.472,65.072 43.744,65.728 44.288,66.272Z" style="fill:white;fill-rule:nonzero;"/>
</svg>
