<?xml version="1.0" encoding="UTF-8" standalone="no"?>
<!DOCTYPE svg PUBLIC "-//W3C//DTD SVG 1.1//EN" "http://www.w3.org/Graphics/SVG/1.1/DTD/svg11.dtd">
<svg width="100%" height="100%" viewBox="0 0 101 101" version="1.1" xmlns="http://www.w3.org/2000/svg" xmlns:xlink="http://www.w3.org/1999/xlink" xml:space="preserve" xmlns:serif="http://www.serif.com/" style="fill-rule:evenodd;clip-rule:evenodd;stroke-linejoin:round;stroke-miterlimit:2;">
    <rect id="_32" serif:id="32" x="0.564" y="0.709" width="100" height="100" style="fill:none;"/>
    <rect x="27.014" y="47.868" width="55.732" height="17.74" style="fill:rgb(84,84,84);"/>
    <path id="number-big-stroke" serif:id="number big stroke" d="M33.026,65.543C32.835,65.17 32.741,64.756 32.741,64.304C32.741,63.056 32.949,61.856 33.365,60.704C33.781,59.552 34.253,58.576 34.781,57.776C35.059,57.354 35.403,56.913 35.816,56.452C35.764,53.443 34.943,50.851 33.357,48.673C33.926,47.524 34.312,46.269 34.509,44.906C34.226,44.471 34.085,43.976 34.085,43.424C34.085,42.405 34.228,41.43 34.517,40.501C34.107,37.641 32.852,35.114 30.75,32.924C27.985,29.983 24.297,28.392 19.589,28.392C14.99,28.392 11.304,29.951 8.46,32.89C8.457,32.893 8.455,32.896 8.452,32.898C5.821,35.629 4.509,38.882 4.509,42.656C4.509,44.863 5.288,46.706 6.789,48.207C6.789,48.207 6.789,48.207 6.789,48.207C7.296,48.714 7.837,49.136 8.415,49.472C7.413,49.847 6.504,50.445 5.685,51.264C4.164,52.785 3.405,54.62 3.405,56.768C3.405,60.937 4.841,64.427 7.652,67.262C10.626,70.399 14.582,72.088 19.589,72.088C24.535,72.088 28.507,70.419 31.576,67.259C31.578,67.256 31.58,67.254 31.583,67.252C32.114,66.702 32.595,66.133 33.026,65.543ZM19.589,67.088C23.045,67.088 25.845,65.984 27.989,63.776C29.877,61.824 30.821,59.488 30.821,56.768C30.821,53.6 29.525,51.136 26.933,49.376C26.837,49.28 26.725,49.2 26.597,49.136C28.645,47.568 29.669,45.408 29.669,42.656C29.669,40.224 28.821,38.128 27.125,36.368C25.269,34.384 22.757,33.392 19.589,33.392C16.485,33.392 13.973,34.384 12.053,36.368C10.357,38.128 9.509,40.224 9.509,42.656C9.509,43.456 9.781,44.128 10.325,44.672C10.869,45.216 11.525,45.488 12.293,45.488C13.061,45.488 13.717,45.216 14.261,44.672C14.805,44.128 15.077,43.456 15.077,42.656C15.077,41.76 15.437,40.92 16.157,40.136C16.877,39.352 18.021,38.96 19.589,38.96C21.157,38.96 22.301,39.352 23.021,40.136C23.741,40.92 24.101,41.76 24.101,42.656C24.101,43.584 23.765,44.288 23.093,44.768C22.421,45.248 20.965,45.808 18.725,46.448L18.629,46.496C18.053,46.592 17.549,46.856 17.117,47.288C16.685,47.72 16.437,48.24 16.373,48.848C16.277,49.52 16.413,50.152 16.781,50.744C17.149,51.336 17.669,51.728 18.341,51.92L18.725,52.016C21.317,52.752 23.045,53.424 23.909,54.032C24.773,54.64 25.205,55.552 25.205,56.768C25.205,57.92 24.765,59 23.885,60.008C23.005,61.016 21.573,61.52 19.589,61.52C17.605,61.52 16.173,61.016 15.293,60.008C14.413,59 13.973,57.92 13.973,56.768C13.973,56 13.701,55.344 13.157,54.8C12.613,54.256 11.957,53.984 11.189,53.984C10.421,53.984 9.765,54.256 9.221,54.8C8.677,55.344 8.405,56 8.405,56.768C8.405,59.552 9.349,61.888 11.237,63.776C13.317,65.984 16.101,67.088 19.589,67.088ZM20.071,42.892C20.074,42.853 20.075,42.813 20.076,42.773C20.077,42.734 20.077,42.694 20.077,42.656L20.071,42.892Z" style="fill:rgb(84,84,84);"/>
    <path d="M29.389,40.354C29.576,41.084 29.669,41.852 29.669,42.656C29.669,43.608 29.546,44.49 29.297,45.3C29.618,46.66 30.308,47.87 31.365,48.927C31.365,48.927 31.365,48.927 31.365,48.927C32.268,49.83 33.281,50.464 34.405,50.828L33.667,51.51C32.354,52.74 31.364,53.893 30.662,54.942C30.768,55.522 30.821,56.13 30.821,56.768C30.821,59.488 29.877,61.824 27.989,63.776L27.747,64.012L27.741,64.304C27.741,66.451 28.5,68.286 30.021,69.807C30.021,69.807 30.021,69.807 30.021,69.807C31.542,71.328 33.377,72.088 35.525,72.088C35.525,72.088 51.941,72.088 51.941,72.088C54.088,72.088 55.923,71.328 57.444,69.807C58.965,68.286 59.725,66.451 59.725,64.304C59.725,62.156 58.965,60.321 57.444,58.8C56.031,57.387 54.347,56.631 52.392,56.532C53.208,55.835 54.175,54.908 55.289,53.745C56.848,52.116 57.949,50.41 58.647,48.664C59.355,46.894 59.725,44.973 59.725,42.896C59.725,39.076 58.393,35.764 55.708,32.969C52.913,30 49.178,28.392 44.405,28.392C39.818,28.392 36.135,29.987 33.292,33.021C31.226,35.226 29.934,37.675 29.389,40.354ZM51.941,67.088C52.709,67.088 53.365,66.816 53.909,66.272C54.453,65.728 54.725,65.072 54.725,64.304C54.725,63.536 54.453,62.88 53.909,62.336C53.365,61.792 52.709,61.52 51.941,61.52L39.029,61.52C39.541,60.592 40.301,59.68 41.309,58.784C42.317,57.888 43.749,56.768 45.605,55.424C47.077,54.368 48.189,53.528 48.941,52.904C49.693,52.28 50.605,51.408 51.677,50.288C52.749,49.168 53.525,48.008 54.005,46.808C54.485,45.608 54.725,44.304 54.725,42.896C54.725,40.4 53.845,38.24 52.085,36.416C50.197,34.4 47.637,33.392 44.405,33.392C41.333,33.392 38.845,34.408 36.941,36.44C35.037,38.472 34.085,40.8 34.085,43.424C34.085,44.192 34.357,44.848 34.901,45.392C35.445,45.936 36.101,46.208 36.869,46.208C37.637,46.208 38.293,45.936 38.837,45.392C39.381,44.848 39.653,44.192 39.653,43.424C39.653,42.464 40.021,41.48 40.757,40.472C41.493,39.464 42.709,38.96 44.405,38.96C46.069,38.96 47.277,39.376 48.029,40.208C48.781,41.04 49.157,41.936 49.157,42.896C49.157,43.632 49.005,44.328 48.701,44.984C48.397,45.64 47.845,46.352 47.045,47.12C46.245,47.888 45.573,48.48 45.029,48.896C44.485,49.312 43.589,49.984 42.341,50.912C41.125,51.776 40.197,52.464 39.557,52.976C38.917,53.488 38.093,54.216 37.085,55.16C36.077,56.104 35.309,56.976 34.781,57.776C34.253,58.576 33.781,59.552 33.365,60.704C32.949,61.856 32.741,63.056 32.741,64.304C32.741,65.072 33.013,65.728 33.557,66.272C34.101,66.816 34.757,67.088 35.525,67.088L51.941,67.088Z" style="fill:rgb(84,84,84);"/>
    <g id="letter" transform="matrix(0.653454,0,0,0.764002,-539.683,6.39118)">
        <g transform="matrix(1.53033,0,0,1.3089,-484.62,-9.64201)">
            <path d="M937.541,66.475C937.238,66.223 936.947,65.942 936.667,65.633C935.227,64.093 934.507,62.173 934.507,59.873C934.507,57.513 935.242,55.543 936.712,53.963C937.184,53.455 937.695,53.028 938.244,52.685C938.263,52.551 938.278,52.415 938.289,52.278C938.447,50.383 937.898,48.724 936.641,47.3C935.169,45.624 933.411,44.321 931.366,43.394C929.318,42.466 927.175,42.003 924.937,42.003C920.659,42.003 917,43.519 913.961,46.557C910.923,49.596 909.407,53.255 909.407,57.533C909.407,61.81 910.923,65.47 913.961,68.508C917,71.547 920.659,73.063 924.937,73.063C927.197,73.063 929.34,72.604 931.366,71.694C933.413,70.774 935.181,69.457 936.665,67.737C937.011,67.34 937.303,66.92 937.541,66.475ZM924.937,68.063C926.477,68.063 927.937,67.753 929.317,67.133C930.697,66.513 931.887,65.623 932.887,64.463C933.167,64.143 933.307,63.763 933.307,63.323L933.307,58.223C933.307,57.743 933.137,57.333 932.797,56.993C932.457,56.653 932.047,56.483 931.567,56.483L925.597,56.483C925.117,56.483 924.707,56.653 924.367,56.993C924.027,57.333 923.857,57.743 923.857,58.223C923.857,58.703 924.027,59.113 924.367,59.453C924.707,59.793 925.117,59.963 925.597,59.963L929.827,59.963L929.827,62.633C928.427,63.933 926.797,64.583 924.937,64.583C922.997,64.583 921.337,63.893 919.957,62.513C918.577,61.133 917.887,59.473 917.887,57.533C917.887,55.593 918.577,53.933 919.957,52.553C921.337,51.173 922.997,50.483 924.937,50.483C927.057,50.483 928.827,51.293 930.247,52.913C930.567,53.273 930.967,53.468 931.447,53.498C931.927,53.528 932.347,53.383 932.707,53.063C933.067,52.743 933.267,52.343 933.307,51.863C933.347,51.383 933.207,50.963 932.887,50.603C931.887,49.463 930.692,48.578 929.302,47.948C927.912,47.318 926.457,47.003 924.937,47.003C922.037,47.003 919.557,48.033 917.497,50.093C915.437,52.153 914.407,54.633 914.407,57.533C914.407,60.433 915.437,62.913 917.497,64.973C919.557,67.033 922.037,68.063 924.937,68.063ZM938.307,61.613L938.307,61.753L938.257,61.613L938.307,61.613ZM938.297,57.898L938.303,58.103L938.227,58.103L938.297,57.898Z" style="fill:rgb(84,84,84);"/>
            <path d="M932.946,50.676C933.224,51.018 933.344,51.414 933.307,51.863C933.267,52.343 933.067,52.743 932.707,53.063C932.347,53.383 931.927,53.528 931.447,53.498C931.294,53.488 931.149,53.462 931.013,53.417C930.511,54.373 930.132,55.394 929.88,56.483L931.567,56.483C932.047,56.483 932.457,56.653 932.797,56.993C933.137,57.333 933.307,57.743 933.307,58.223L933.307,63.323C933.307,63.763 933.167,64.143 932.887,64.463C932.313,65.128 931.678,65.704 930.979,66.191C931.508,67.209 932.181,68.151 932.989,69.02C935.554,71.835 938.689,73.213 942.367,73.213L942.367,73.213C947.535,73.213 951.051,71.099 953.159,67.332C953.916,66.039 954.213,64.638 954.012,63.135C954.563,62.161 954.837,61.073 954.837,59.873C954.837,56.09 953.62,53 951.351,50.541C948.938,47.928 945.902,46.593 942.217,46.593C938.551,46.593 935.5,47.925 933.051,50.557L932.946,50.676ZM942.367,68.213C945.427,68.213 947.577,67.093 948.817,64.853C949.057,64.453 949.122,64.018 949.012,63.548C948.902,63.078 948.637,62.713 948.217,62.453C947.817,62.213 947.382,62.148 946.912,62.258C946.442,62.368 946.077,62.633 945.817,63.053C945.197,64.173 944.047,64.733 942.367,64.733C941.407,64.733 940.557,64.448 939.817,63.878C939.077,63.308 938.557,62.553 938.257,61.613L948.067,61.613C948.567,61.613 948.987,61.443 949.327,61.103C949.667,60.763 949.837,60.353 949.837,59.873C949.837,57.473 949.117,55.493 947.677,53.933C946.237,52.373 944.417,51.593 942.217,51.593C940.017,51.593 938.182,52.383 936.712,53.963C935.242,55.543 934.507,57.513 934.507,59.873C934.507,62.173 935.227,64.093 936.667,65.633C938.227,67.353 940.127,68.213 942.367,68.213ZM929.508,59.963C929.512,60.913 929.598,61.821 929.767,62.686L929.827,62.633L929.827,59.963L929.508,59.963ZM938.227,58.103C938.527,57.123 939.047,56.373 939.787,55.853C940.527,55.333 941.337,55.073 942.217,55.073C943.097,55.073 943.897,55.333 944.617,55.853C945.337,56.373 945.837,57.123 946.117,58.103L938.227,58.103Z" style="fill:rgb(84,84,84);"/>
        </g>
        <g transform="matrix(1.53033,0,0,1.3089,-484.62,-9.64201)">
            <g transform="matrix(30,0,0,30,913.807,68.0629)">
                <path d="M0.371,-0C0.422,-0 0.471,-0.01 0.517,-0.031C0.563,-0.052 0.603,-0.081 0.636,-0.12C0.645,-0.131 0.65,-0.143 0.65,-0.158L0.65,-0.328C0.65,-0.344 0.644,-0.358 0.633,-0.369C0.622,-0.38 0.608,-0.386 0.592,-0.386L0.393,-0.386C0.377,-0.386 0.363,-0.38 0.352,-0.369C0.341,-0.358 0.335,-0.344 0.335,-0.328C0.335,-0.312 0.341,-0.298 0.352,-0.287C0.363,-0.276 0.377,-0.27 0.393,-0.27L0.534,-0.27L0.534,-0.181C0.487,-0.138 0.433,-0.116 0.371,-0.116C0.306,-0.116 0.251,-0.139 0.205,-0.185C0.159,-0.231 0.136,-0.286 0.136,-0.351C0.136,-0.416 0.159,-0.471 0.205,-0.517C0.251,-0.563 0.306,-0.586 0.371,-0.586C0.442,-0.586 0.501,-0.559 0.548,-0.505C0.559,-0.493 0.572,-0.487 0.588,-0.486C0.604,-0.485 0.618,-0.489 0.63,-0.5C0.642,-0.511 0.649,-0.524 0.65,-0.54C0.651,-0.556 0.647,-0.57 0.636,-0.582C0.603,-0.62 0.563,-0.65 0.517,-0.671C0.47,-0.692 0.422,-0.702 0.371,-0.702C0.274,-0.702 0.192,-0.668 0.123,-0.599C0.054,-0.53 0.02,-0.448 0.02,-0.351C0.02,-0.254 0.054,-0.172 0.123,-0.103C0.192,-0.034 0.274,-0 0.371,-0Z" style="fill:white;fill-rule:nonzero;"/>
            </g>
            <g transform="matrix(30,0,0,30,933.907,68.0629)">
                <path d="M0.282,0.005C0.384,0.005 0.456,-0.032 0.497,-0.107C0.505,-0.12 0.507,-0.135 0.503,-0.151C0.5,-0.166 0.491,-0.178 0.477,-0.187C0.464,-0.195 0.449,-0.197 0.434,-0.194C0.418,-0.19 0.406,-0.181 0.397,-0.167C0.376,-0.13 0.338,-0.111 0.282,-0.111C0.25,-0.111 0.222,-0.121 0.197,-0.14C0.172,-0.159 0.155,-0.184 0.145,-0.215L0.472,-0.215C0.489,-0.215 0.503,-0.221 0.514,-0.232C0.525,-0.243 0.531,-0.257 0.531,-0.273C0.531,-0.353 0.507,-0.419 0.459,-0.471C0.411,-0.523 0.35,-0.549 0.277,-0.549C0.204,-0.549 0.142,-0.523 0.094,-0.47C0.045,-0.417 0.02,-0.352 0.02,-0.273C0.02,-0.196 0.044,-0.132 0.092,-0.081C0.144,-0.024 0.207,0.005 0.282,0.005ZM0.144,-0.332C0.154,-0.365 0.171,-0.39 0.196,-0.407C0.221,-0.424 0.248,-0.433 0.277,-0.433C0.306,-0.433 0.333,-0.424 0.357,-0.407C0.381,-0.39 0.398,-0.365 0.407,-0.332L0.144,-0.332Z" style="fill:white;fill-rule:nonzero;"/>
            </g>
        </g>
    </g>
    <path id="number-face" serif:id="number face" d="M19.589,67.088C23.045,67.088 25.845,65.984 27.989,63.776C29.877,61.824 30.821,59.488 30.821,56.768C30.821,53.6 29.525,51.136 26.933,49.376C26.837,49.28 26.725,49.2 26.597,49.136C28.645,47.568 29.669,45.408 29.669,42.656C29.669,40.224 28.821,38.128 27.125,36.368C25.269,34.384 22.757,33.392 19.589,33.392C16.485,33.392 13.973,34.384 12.053,36.368C10.357,38.128 9.509,40.224 9.509,42.656C9.509,43.456 9.781,44.128 10.325,44.672C10.869,45.216 11.525,45.488 12.293,45.488C13.061,45.488 13.717,45.216 14.261,44.672C14.805,44.128 15.077,43.456 15.077,42.656C15.077,41.76 15.437,40.92 16.157,40.136C16.877,39.352 18.021,38.96 19.589,38.96C21.157,38.96 22.301,39.352 23.021,40.136C23.741,40.92 24.101,41.76 24.101,42.656C24.101,43.584 23.765,44.288 23.093,44.768C22.421,45.248 20.965,45.808 18.725,46.448L18.629,46.496C18.053,46.592 17.549,46.856 17.117,47.288C16.685,47.72 16.437,48.24 16.373,48.848C16.277,49.52 16.413,50.152 16.781,50.744C17.149,51.336 17.669,51.728 18.341,51.92L18.725,52.016C21.317,52.752 23.045,53.424 23.909,54.032C24.773,54.64 25.205,55.552 25.205,56.768C25.205,57.92 24.765,59 23.885,60.008C23.005,61.016 21.573,61.52 19.589,61.52C17.605,61.52 16.173,61.016 15.293,60.008C14.413,59 13.973,57.92 13.973,56.768C13.973,56 13.701,55.344 13.157,54.8C12.613,54.256 11.957,53.984 11.189,53.984C10.421,53.984 9.765,54.256 9.221,54.8C8.677,55.344 8.405,56 8.405,56.768C8.405,59.552 9.349,61.888 11.237,63.776C13.317,65.984 16.101,67.088 19.589,67.088Z" style="fill:white;fill-rule:nonzero;"/>
    <path d="M51.941,67.088C52.709,67.088 53.365,66.816 53.909,66.272C54.453,65.728 54.725,65.072 54.725,64.304C54.725,63.536 54.453,62.88 53.909,62.336C53.365,61.792 52.709,61.52 51.941,61.52L39.029,61.52C39.541,60.592 40.301,59.68 41.309,58.784C42.317,57.888 43.749,56.768 45.605,55.424C47.077,54.368 48.189,53.528 48.941,52.904C49.693,52.28 50.605,51.408 51.677,50.288C52.749,49.168 53.525,48.008 54.005,46.808C54.485,45.608 54.725,44.304 54.725,42.896C54.725,40.4 53.845,38.24 52.085,36.416C50.197,34.4 47.637,33.392 44.405,33.392C41.333,33.392 38.845,34.408 36.941,36.44C35.037,38.472 34.085,40.8 34.085,43.424C34.085,44.192 34.357,44.848 34.901,45.392C35.445,45.936 36.101,46.208 36.869,46.208C37.637,46.208 38.293,45.936 38.837,45.392C39.381,44.848 39.653,44.192 39.653,43.424C39.653,42.464 40.021,41.48 40.757,40.472C41.493,39.464 42.709,38.96 44.405,38.96C46.069,38.96 47.277,39.376 48.029,40.208C48.781,41.04 49.157,41.936 49.157,42.896C49.157,43.632 49.005,44.328 48.701,44.984C48.397,45.64 47.845,46.352 47.045,47.12C46.245,47.888 45.573,48.48 45.029,48.896C44.485,49.312 43.589,49.984 42.341,50.912C41.125,51.776 40.197,52.464 39.557,52.976C38.917,53.488 38.093,54.216 37.085,55.16C36.077,56.104 35.309,56.976 34.781,57.776C34.253,58.576 33.781,59.552 33.365,60.704C32.949,61.856 32.741,63.056 32.741,64.304C32.741,65.072 33.013,65.728 33.557,66.272C34.101,66.816 34.757,67.088 35.525,67.088L51.941,67.088Z" style="fill:white;fill-rule:nonzero;"/>
</svg>
