<?xml version="1.0" encoding="UTF-8" standalone="no"?>
<!DOCTYPE svg PUBLIC "-//W3C//DTD SVG 1.1//EN" "http://www.w3.org/Graphics/SVG/1.1/DTD/svg11.dtd">
<svg width="100%" height="100%" viewBox="0 0 101 100" version="1.1" xmlns="http://www.w3.org/2000/svg" xmlns:xlink="http://www.w3.org/1999/xlink" xml:space="preserve" xmlns:serif="http://www.serif.com/" style="fill-rule:evenodd;clip-rule:evenodd;stroke-linejoin:round;stroke-miterlimit:2;">
    <rect id="_5" serif:id="5" x="0.3" y="0" width="100" height="100" style="fill:none;"/>
    <path id="number-big-stroke" serif:id="number big stroke" d="M22.642,52.272C22.447,52.435 22.257,52.608 22.073,52.793C20.551,54.314 19.792,56.149 19.792,58.296C19.792,62.153 21.136,65.595 23.898,68.595C23.944,68.645 23.992,68.695 24.041,68.744C27.11,71.814 31.021,73.424 35.832,73.424C40.605,73.424 44.501,71.818 47.576,68.744C47.605,68.714 47.635,68.684 47.664,68.654C50.444,65.73 51.824,62.275 51.824,58.296C51.824,56.152 51.415,54.252 50.668,52.581C49.91,50.889 49.013,49.576 48.053,48.591C47.747,48.277 47.404,47.966 47.02,47.664C47.352,47.427 47.672,47.158 47.98,46.859C49.559,45.325 50.336,43.47 50.336,41.304C50.336,41.304 50.336,37.512 50.336,37.512C50.336,35.347 49.559,33.492 47.98,31.958C46.442,30.464 44.613,29.728 42.504,29.728L28.248,29.728C26.101,29.728 24.266,30.488 22.745,32.009C21.223,33.53 20.464,35.365 20.464,37.512C20.464,37.512 20.464,44.76 20.464,44.76C20.464,47.694 21.196,50.195 22.642,52.272ZM35.832,68.424C39.16,68.424 41.896,67.352 44.04,65.208C45.896,63.256 46.824,60.952 46.824,58.296C46.824,56.92 46.584,55.696 46.104,54.624C45.624,53.552 45.08,52.704 44.472,52.08C43.864,51.456 43.008,50.88 41.904,50.352C40.8,49.824 39.928,49.456 39.288,49.248C38.648,49.04 37.752,48.792 36.6,48.504C34.296,47.896 32.792,47.36 32.088,46.896C31.384,46.432 31.032,45.72 31.032,44.76L31.032,40.296L39.72,40.296L39.72,41.304C39.72,42.072 39.992,42.728 40.536,43.272C41.08,43.816 41.736,44.088 42.504,44.088C43.272,44.088 43.936,43.816 44.496,43.272C45.056,42.728 45.336,42.072 45.336,41.304L45.336,37.512C45.336,36.744 45.056,36.088 44.496,35.544C43.936,35 43.272,34.728 42.504,34.728L28.248,34.728C27.48,34.728 26.824,35 26.28,35.544C25.736,36.088 25.464,36.744 25.464,37.512L25.464,44.76C25.464,47.768 26.68,50.056 29.112,51.624C30.232,52.36 32.264,53.128 35.208,53.928C37.672,54.536 39.296,55.112 40.08,55.656C40.864,56.2 41.256,57.08 41.256,58.296C41.256,59.384 40.824,60.416 39.96,61.392C39.096,62.368 37.72,62.856 35.832,62.856C33.912,62.856 32.528,62.376 31.68,61.416C30.832,60.456 30.408,59.416 30.408,58.296C30.408,57.528 30.136,56.872 29.592,56.328C29.048,55.784 28.392,55.512 27.624,55.512C26.824,55.512 26.152,55.784 25.608,56.328C25.064,56.872 24.792,57.528 24.792,58.296C24.792,60.888 25.72,63.192 27.576,65.208C29.72,67.352 32.472,68.424 35.832,68.424Z" style="fill:rgb(99,9,42);"/>
    <g id="letter" transform="matrix(0.42038,0,0,0.764002,-335.03,7.7279)">
        <g transform="matrix(2.3788,0,0,1.3089,-1259.96,-9.64201)">
            <path d="M934.052,55.768C934.288,54.868 934.407,53.926 934.407,52.943C934.407,49.922 933.339,47.344 931.202,45.207C929.06,43.065 926.489,42.003 923.497,42.003L916.147,42.003C914.287,42.003 912.698,42.66 911.381,43.977C910.064,45.294 909.407,46.883 909.407,48.743C909.407,48.743 909.407,66.323 909.407,66.323C909.407,68.182 910.064,69.771 911.381,71.088C911.381,71.088 911.381,71.088 911.381,71.088C912.698,72.406 914.287,73.063 916.147,73.063L924.337,73.063C927.452,73.063 930.122,71.959 932.342,69.738C934.562,67.518 935.667,64.848 935.667,61.733C935.667,59.479 935.129,57.49 934.052,55.768ZM928.117,56.633C929.817,57.913 930.667,59.613 930.667,61.733C930.667,63.473 930.047,64.963 928.807,66.203C927.567,67.443 926.077,68.063 924.337,68.063L916.147,68.063C915.667,68.063 915.257,67.893 914.917,67.553C914.577,67.213 914.407,66.803 914.407,66.323L914.407,48.743C914.407,48.263 914.577,47.853 914.917,47.513C915.257,47.173 915.667,47.003 916.147,47.003L923.497,47.003C925.117,47.003 926.507,47.583 927.667,48.743C928.827,49.903 929.407,51.303 929.407,52.943C929.407,54.323 928.977,55.553 928.117,56.633ZM924.337,64.583C925.117,64.583 925.787,64.303 926.347,63.743C926.907,63.183 927.187,62.513 927.187,61.733C927.187,60.933 926.907,60.253 926.347,59.693C925.787,59.133 925.117,58.853 924.337,58.853L917.887,58.853L917.887,64.583L924.337,64.583ZM925.207,54.668C925.687,54.198 925.927,53.623 925.927,52.943C925.927,52.263 925.687,51.683 925.207,51.203C924.727,50.723 924.157,50.483 923.497,50.483L917.887,50.483L917.887,55.373L923.497,55.373C924.157,55.373 924.727,55.138 925.207,54.668Z" style="fill:rgb(99,9,42);"/>
        </g>
        <g transform="matrix(2.3788,0,0,1.3089,-1259.96,-9.64201)">
            <g transform="matrix(30,0,0,30,913.807,68.0629)">
                <path d="M0.477,-0.381C0.534,-0.338 0.562,-0.282 0.562,-0.211C0.562,-0.153 0.541,-0.103 0.5,-0.062C0.459,-0.021 0.409,-0 0.351,-0L0.078,-0C0.062,-0 0.048,-0.006 0.037,-0.017C0.026,-0.028 0.02,-0.042 0.02,-0.058L0.02,-0.644C0.02,-0.66 0.026,-0.674 0.037,-0.685C0.048,-0.696 0.062,-0.702 0.078,-0.702L0.323,-0.702C0.377,-0.702 0.423,-0.683 0.462,-0.644C0.501,-0.605 0.52,-0.559 0.52,-0.504C0.52,-0.458 0.506,-0.417 0.477,-0.381ZM0.38,-0.447C0.396,-0.462 0.404,-0.481 0.404,-0.504C0.404,-0.527 0.396,-0.546 0.38,-0.562C0.364,-0.578 0.345,-0.586 0.323,-0.586L0.136,-0.586L0.136,-0.423L0.323,-0.423C0.345,-0.423 0.364,-0.431 0.38,-0.447ZM0.351,-0.116C0.377,-0.116 0.399,-0.125 0.418,-0.144C0.437,-0.163 0.446,-0.185 0.446,-0.211C0.446,-0.238 0.437,-0.26 0.418,-0.279C0.399,-0.298 0.377,-0.307 0.351,-0.307L0.136,-0.307L0.136,-0.116L0.351,-0.116Z" style="fill:white;fill-rule:nonzero;"/>
            </g>
        </g>
    </g>
    <path id="number-face" serif:id="number face" d="M35.832,68.424C39.16,68.424 41.896,67.352 44.04,65.208C45.896,63.256 46.824,60.952 46.824,58.296C46.824,56.92 46.584,55.696 46.104,54.624C45.624,53.552 45.08,52.704 44.472,52.08C43.864,51.456 43.008,50.88 41.904,50.352C40.8,49.824 39.928,49.456 39.288,49.248C38.648,49.04 37.752,48.792 36.6,48.504C34.296,47.896 32.792,47.36 32.088,46.896C31.384,46.432 31.032,45.72 31.032,44.76L31.032,40.296L39.72,40.296L39.72,41.304C39.72,42.072 39.992,42.728 40.536,43.272C41.08,43.816 41.736,44.088 42.504,44.088C43.272,44.088 43.936,43.816 44.496,43.272C45.056,42.728 45.336,42.072 45.336,41.304L45.336,37.512C45.336,36.744 45.056,36.088 44.496,35.544C43.936,35 43.272,34.728 42.504,34.728L28.248,34.728C27.48,34.728 26.824,35 26.28,35.544C25.736,36.088 25.464,36.744 25.464,37.512L25.464,44.76C25.464,47.768 26.68,50.056 29.112,51.624C30.232,52.36 32.264,53.128 35.208,53.928C37.672,54.536 39.296,55.112 40.08,55.656C40.864,56.2 41.256,57.08 41.256,58.296C41.256,59.384 40.824,60.416 39.96,61.392C39.096,62.368 37.72,62.856 35.832,62.856C33.912,62.856 32.528,62.376 31.68,61.416C30.832,60.456 30.408,59.416 30.408,58.296C30.408,57.528 30.136,56.872 29.592,56.328C29.048,55.784 28.392,55.512 27.624,55.512C26.824,55.512 26.152,55.784 25.608,56.328C25.064,56.872 24.792,57.528 24.792,58.296C24.792,60.888 25.72,63.192 27.576,65.208C29.72,67.352 32.472,68.424 35.832,68.424Z" style="fill:white;fill-rule:nonzero;"/>
</svg>
