<?xml version="1.0" encoding="UTF-8" standalone="no"?>
<!DOCTYPE svg PUBLIC "-//W3C//DTD SVG 1.1//EN" "http://www.w3.org/Graphics/SVG/1.1/DTD/svg11.dtd">
<svg width="100%" height="100%" viewBox="0 0 101 100" version="1.1" xmlns="http://www.w3.org/2000/svg" xmlns:xlink="http://www.w3.org/1999/xlink" xml:space="preserve" xmlns:serif="http://www.serif.com/" style="fill-rule:evenodd;clip-rule:evenodd;stroke-linejoin:round;stroke-miterlimit:2;">
    <rect id="_6" serif:id="6" x="0.557" y="0" width="100" height="100" style="fill:none;"/>
    <path id="number-big-stroke" serif:id="number big stroke" d="M46.024,45.27C47.896,45.133 49.515,44.382 50.881,43.016C52.402,41.495 53.161,39.66 53.161,37.512C53.161,35.365 52.402,33.53 50.881,32.009C49.36,30.488 47.525,29.728 45.377,29.728C41.981,29.728 38.742,30.557 35.665,32.234C32.758,33.817 30.167,36.054 27.922,38.981C27.919,38.985 27.916,38.989 27.913,38.993C23.767,44.433 21.657,50.811 21.657,58.152C21.657,62.599 23.274,66.298 26.477,69.262C26.489,69.273 26.501,69.284 26.513,69.295C29.523,72.027 33.148,73.424 37.409,73.424C41.67,73.424 45.295,72.027 48.306,69.295C48.318,69.284 48.329,69.273 48.341,69.262C51.545,66.298 53.161,62.599 53.161,58.152C53.161,53.644 51.524,49.941 48.311,47.015C48.309,47.013 48.308,47.012 48.306,47.01C47.581,46.352 46.821,45.772 46.024,45.27ZM44.945,50.712C47.089,52.664 48.161,55.144 48.161,58.152C48.161,61.128 47.089,63.608 44.945,65.592C42.865,67.48 40.353,68.424 37.409,68.424C34.465,68.424 31.953,67.48 29.873,65.592C27.729,63.608 26.657,61.128 26.657,58.152C26.657,51.976 28.401,46.6 31.889,42.024C33.681,39.688 35.737,37.888 38.057,36.624C40.377,35.36 42.817,34.728 45.377,34.728C46.145,34.728 46.801,35 47.345,35.544C47.889,36.088 48.161,36.744 48.161,37.512C48.161,38.28 47.889,38.936 47.345,39.48C46.801,40.024 46.145,40.296 45.377,40.296C41.953,40.296 38.929,42.008 36.305,45.432C35.665,46.328 35.089,47.256 34.577,48.216C35.441,47.992 36.385,47.88 37.409,47.88C40.353,47.88 42.865,48.824 44.945,50.712ZM33.761,61.608C34.785,62.44 36.001,62.856 37.409,62.856C38.817,62.856 40.033,62.44 41.057,61.608C42.081,60.776 42.593,59.624 42.593,58.152C42.593,56.68 42.081,55.528 41.057,54.696C40.033,53.864 38.817,53.448 37.409,53.448C36.001,53.448 34.785,53.864 33.761,54.696C32.737,55.528 32.225,56.68 32.225,58.152C32.225,59.624 32.737,60.776 33.761,61.608Z" style="fill:rgb(36,36,36);"/>
    <g id="letter" transform="matrix(0.42038,0,0,0.764002,-333.165,7.7279)">
        <g transform="matrix(2.3788,0,0,1.3089,-1259.96,-9.64201)">
            <path d="M935.026,57.518C935.373,57.306 935.707,57.056 936.028,56.77C937.425,55.529 938.165,53.989 938.281,52.166C938.394,50.396 937.886,48.783 936.681,47.352C936.67,47.339 936.659,47.326 936.648,47.313C935.191,45.619 933.432,44.3 931.366,43.364C929.318,42.436 927.175,41.973 924.937,41.973C920.659,41.973 917,43.489 913.961,46.527C910.923,49.566 909.407,53.225 909.407,57.503C909.407,61.805 910.926,65.473 913.961,68.508C917,71.547 920.659,73.063 924.937,73.063C927.175,73.063 929.318,72.6 931.366,71.672C933.432,70.735 935.191,69.417 936.648,67.722C936.659,67.709 936.67,67.697 936.681,67.684C937.886,66.253 938.394,64.639 938.281,62.869C938.165,61.047 937.425,59.507 936.028,58.266C935.707,57.98 935.373,57.73 935.026,57.518ZM924.937,68.063C926.457,68.063 927.912,67.748 929.302,67.118C930.692,66.488 931.877,65.603 932.857,64.463C933.177,64.083 933.322,63.658 933.292,63.188C933.262,62.718 933.067,62.323 932.707,62.003C932.347,61.683 931.927,61.538 931.447,61.568C930.967,61.598 930.567,61.793 930.247,62.153C928.827,63.753 927.057,64.553 924.937,64.553C922.997,64.553 921.337,63.863 919.957,62.483C918.577,61.103 917.887,59.443 917.887,57.503C917.887,55.563 918.577,53.908 919.957,52.538C921.337,51.168 922.997,50.483 924.937,50.483C927.057,50.483 928.827,51.283 930.247,52.883C930.567,53.243 930.967,53.438 931.447,53.468C931.927,53.498 932.347,53.353 932.707,53.033C933.067,52.713 933.262,52.318 933.292,51.848C933.322,51.378 933.177,50.953 932.857,50.573C931.877,49.433 930.692,48.548 929.302,47.918C927.912,47.288 926.457,46.973 924.937,46.973C922.037,46.973 919.557,48.003 917.497,50.063C915.437,52.123 914.407,54.603 914.407,57.503C914.407,60.423 915.437,62.913 917.497,64.973C919.557,67.033 922.037,68.063 924.937,68.063ZM928.063,57.518C927.5,57.174 926.982,56.736 926.51,56.205C926.509,56.204 926.508,56.203 926.507,56.202C926.086,55.728 925.565,55.483 924.937,55.483C924.369,55.483 923.883,55.685 923.479,56.086C923.085,56.477 922.887,56.949 922.887,57.503C922.887,58.066 923.091,58.547 923.492,58.947C923.893,59.348 924.373,59.553 924.937,59.553C925.565,59.553 926.086,59.308 926.507,58.834C926.508,58.833 926.509,58.832 926.51,58.831C926.982,58.3 927.5,57.862 928.063,57.518Z" style="fill:rgb(36,36,36);"/>
        </g>
        <g transform="matrix(2.3788,0,0,1.3089,-1259.96,-9.64201)">
            <g transform="matrix(30,0,0,30,913.807,68.0629)">
                <path d="M0.371,-0C0.422,-0 0.47,-0.011 0.517,-0.032C0.563,-0.053 0.602,-0.082 0.635,-0.12C0.646,-0.133 0.651,-0.147 0.65,-0.163C0.649,-0.178 0.642,-0.191 0.63,-0.202C0.618,-0.213 0.604,-0.218 0.588,-0.217C0.572,-0.216 0.559,-0.209 0.548,-0.197C0.501,-0.144 0.442,-0.117 0.371,-0.117C0.306,-0.117 0.251,-0.14 0.205,-0.186C0.159,-0.232 0.136,-0.287 0.136,-0.352C0.136,-0.417 0.159,-0.472 0.205,-0.518C0.251,-0.563 0.306,-0.586 0.371,-0.586C0.442,-0.586 0.501,-0.559 0.548,-0.506C0.559,-0.494 0.572,-0.488 0.588,-0.487C0.604,-0.486 0.618,-0.49 0.63,-0.501C0.642,-0.512 0.649,-0.525 0.65,-0.541C0.651,-0.556 0.646,-0.57 0.635,-0.583C0.602,-0.621 0.563,-0.651 0.517,-0.672C0.47,-0.693 0.422,-0.703 0.371,-0.703C0.274,-0.703 0.192,-0.669 0.123,-0.6C0.054,-0.531 0.02,-0.449 0.02,-0.352C0.02,-0.255 0.054,-0.172 0.123,-0.103C0.192,-0.034 0.274,-0 0.371,-0Z" style="fill:white;fill-rule:nonzero;"/>
            </g>
        </g>
    </g>
    <path id="number-face" serif:id="number face" d="M44.945,50.712C47.089,52.664 48.161,55.144 48.161,58.152C48.161,61.128 47.089,63.608 44.945,65.592C42.865,67.48 40.353,68.424 37.409,68.424C34.465,68.424 31.953,67.48 29.873,65.592C27.729,63.608 26.657,61.128 26.657,58.152C26.657,51.976 28.401,46.6 31.889,42.024C33.681,39.688 35.737,37.888 38.057,36.624C40.377,35.36 42.817,34.728 45.377,34.728C46.145,34.728 46.801,35 47.345,35.544C47.889,36.088 48.161,36.744 48.161,37.512C48.161,38.28 47.889,38.936 47.345,39.48C46.801,40.024 46.145,40.296 45.377,40.296C41.953,40.296 38.929,42.008 36.305,45.432C35.665,46.328 35.089,47.256 34.577,48.216C35.441,47.992 36.385,47.88 37.409,47.88C40.353,47.88 42.865,48.824 44.945,50.712ZM33.761,61.608C34.785,62.44 36.001,62.856 37.409,62.856C38.817,62.856 40.033,62.44 41.057,61.608C42.081,60.776 42.593,59.624 42.593,58.152C42.593,56.68 42.081,55.528 41.057,54.696C40.033,53.864 38.817,53.448 37.409,53.448C36.001,53.448 34.785,53.864 33.761,54.696C32.737,55.528 32.225,56.68 32.225,58.152C32.225,59.624 32.737,60.776 33.761,61.608Z" style="fill:white;fill-rule:nonzero;"/>
</svg>
