<?xml version="1.0" encoding="UTF-8" standalone="no"?>
<!DOCTYPE svg PUBLIC "-//W3C//DTD SVG 1.1//EN" "http://www.w3.org/Graphics/SVG/1.1/DTD/svg11.dtd">
<svg width="100%" height="100%" viewBox="0 0 101 100" version="1.1" xmlns="http://www.w3.org/2000/svg" xmlns:xlink="http://www.w3.org/1999/xlink" xml:space="preserve" xmlns:serif="http://www.serif.com/" style="fill-rule:evenodd;clip-rule:evenodd;stroke-linejoin:round;stroke-miterlimit:2;">
    <rect id="_7" serif:id="7" x="0.542" y="0" width="100" height="100" style="fill:none;"/>
    <path id="number-big-stroke" serif:id="number big stroke" d="M31.422,73.424C34.628,73.424 36.941,71.997 38.373,69.158C38.373,69.158 52.768,41.039 52.768,41.039C52.776,41.025 52.783,41.011 52.79,40.996C54.153,38.269 53.959,35.728 52.424,33.364C50.942,30.962 48.734,29.728 45.822,29.728L29.454,29.728C27.306,29.728 25.471,30.488 23.95,32.009C22.429,33.53 21.67,35.365 21.67,37.512C21.67,39.66 22.429,41.495 23.95,43.016C23.95,43.016 23.95,43.016 23.95,43.016C25.471,44.537 27.306,45.296 29.454,45.296C29.454,45.296 33.092,45.296 33.092,45.296C33.092,45.296 24.521,62.069 24.521,62.069C24.515,62.082 24.508,62.095 24.502,62.108C23.548,64.015 23.392,65.967 23.998,67.96C23.998,67.96 23.998,67.96 23.998,67.96C24.635,70.051 25.938,71.609 27.938,72.608C29.01,73.145 30.17,73.424 31.422,73.424ZM31.422,68.424C32.574,68.424 33.406,67.912 33.918,66.888L48.318,38.76C48.798,37.8 48.766,36.904 48.222,36.072C47.678,35.176 46.878,34.728 45.822,34.728L29.454,34.728C28.686,34.728 28.03,35 27.486,35.544C26.942,36.088 26.67,36.744 26.67,37.512C26.67,38.28 26.942,38.936 27.486,39.48C28.03,40.024 28.686,40.296 29.454,40.296L41.262,40.296L28.974,64.344C28.622,65.048 28.558,65.768 28.782,66.504C29.006,67.24 29.47,67.784 30.174,68.136C30.558,68.328 30.974,68.424 31.422,68.424Z" style="fill:rgb(0,53,88);"/>
    <g id="letter" transform="matrix(0.42038,0,0,0.764002,-335.152,7.7279)">
        <g transform="matrix(2.3788,0,0,1.3089,-1259.96,-9.64201)">
            <path d="M922.705,67.938L924.664,70.422C925.985,72.171 927.763,73.063 930.007,73.063C930.957,73.063 931.784,72.87 932.506,72.558C933.668,72.102 934.662,71.342 935.449,70.27C936.325,69.075 936.747,67.756 936.747,66.323C936.747,66.323 936.747,48.743 936.747,48.743C936.747,46.835 936.069,45.245 934.772,43.947C933.455,42.63 931.866,41.973 930.007,41.973C928.147,41.973 926.558,42.63 925.241,43.947C924.336,44.853 923.732,45.902 923.451,47.101L921.491,44.616C920.639,43.484 919.513,42.692 918.118,42.266C916.688,41.829 915.258,41.867 913.828,42.409C910.888,43.465 909.407,45.591 909.407,48.743L909.407,66.323C909.407,68.182 910.064,69.771 911.381,71.088C911.381,71.088 911.381,71.088 911.381,71.088C912.698,72.406 914.287,73.063 916.147,73.063C918.006,73.063 919.595,72.406 920.912,71.088C921.83,70.17 922.428,69.12 922.705,67.938ZM930.007,68.063C930.227,68.063 930.417,68.023 930.577,67.943C930.917,67.823 931.197,67.613 931.417,67.313C931.637,67.013 931.747,66.683 931.747,66.323L931.747,48.743C931.747,48.243 931.577,47.823 931.237,47.483C930.897,47.143 930.487,46.973 930.007,46.973C929.527,46.973 929.117,47.143 928.777,47.483C928.437,47.823 928.267,48.243 928.267,48.743L928.267,61.283L917.527,47.663C917.307,47.363 917.017,47.158 916.657,47.048C916.297,46.938 915.937,46.953 915.577,47.093C914.797,47.373 914.407,47.923 914.407,48.743L914.407,66.323C914.407,66.803 914.577,67.213 914.917,67.553C915.257,67.893 915.667,68.063 916.147,68.063C916.627,68.063 917.037,67.893 917.377,67.553C917.717,67.213 917.887,66.803 917.887,66.323L917.887,53.753L928.627,67.373C928.967,67.833 929.427,68.063 930.007,68.063Z" style="fill:rgb(0,53,88);"/>
        </g>
        <g transform="matrix(2.3788,0,0,1.3089,-1259.96,-9.64201)">
            <g transform="matrix(30,0,0,30,913.807,68.0629)">
                <path d="M0.54,-0C0.547,-0 0.554,-0.001 0.559,-0.004C0.57,-0.008 0.58,-0.015 0.587,-0.025C0.594,-0.035 0.598,-0.046 0.598,-0.058L0.598,-0.644C0.598,-0.661 0.592,-0.675 0.581,-0.686C0.57,-0.697 0.556,-0.703 0.54,-0.703C0.524,-0.703 0.51,-0.697 0.499,-0.686C0.488,-0.675 0.482,-0.661 0.482,-0.644L0.482,-0.226L0.124,-0.68C0.117,-0.69 0.107,-0.697 0.095,-0.701C0.083,-0.704 0.071,-0.704 0.059,-0.699C0.033,-0.69 0.02,-0.671 0.02,-0.644L0.02,-0.058C0.02,-0.042 0.026,-0.028 0.037,-0.017C0.048,-0.006 0.062,-0 0.078,-0C0.094,-0 0.108,-0.006 0.119,-0.017C0.13,-0.028 0.136,-0.042 0.136,-0.058L0.136,-0.477L0.494,-0.023C0.505,-0.008 0.521,-0 0.54,-0Z" style="fill:white;fill-rule:nonzero;"/>
            </g>
        </g>
    </g>
    <path id="number-face" serif:id="number face" d="M31.422,68.424C32.574,68.424 33.406,67.912 33.918,66.888L48.318,38.76C48.798,37.8 48.766,36.904 48.222,36.072C47.678,35.176 46.878,34.728 45.822,34.728L29.454,34.728C28.686,34.728 28.03,35 27.486,35.544C26.942,36.088 26.67,36.744 26.67,37.512C26.67,38.28 26.942,38.936 27.486,39.48C28.03,40.024 28.686,40.296 29.454,40.296L41.262,40.296L28.974,64.344C28.622,65.048 28.558,65.768 28.782,66.504C29.006,67.24 29.47,67.784 30.174,68.136C30.558,68.328 30.974,68.424 31.422,68.424Z" style="fill:white;fill-rule:nonzero;"/>
</svg>
