<?xml version="1.0" encoding="UTF-8" standalone="no"?>
<!DOCTYPE svg PUBLIC "-//W3C//DTD SVG 1.1//EN" "http://www.w3.org/Graphics/SVG/1.1/DTD/svg11.dtd">
<svg width="100%" height="100%" viewBox="0 0 101 100" version="1.1" xmlns="http://www.w3.org/2000/svg" xmlns:xlink="http://www.w3.org/1999/xlink" xml:space="preserve" xmlns:serif="http://www.serif.com/" style="fill-rule:evenodd;clip-rule:evenodd;stroke-linejoin:round;stroke-miterlimit:2;">
    <rect id="_8" serif:id="8" x="0.601" y="0" width="100" height="100" style="fill:none;"/>
    <circle cx="60.879" cy="59.04" r="8.036" style="fill:rgb(90,18,21);"/>
    <circle cx="34.655" cy="43.969" r="8.036" style="fill:rgb(90,18,21);"/>
    <path id="number-big-stroke" serif:id="number big stroke" d="M22.292,50.088C20.807,52.392 20.05,55.078 20.05,58.152C20.05,62.608 21.688,66.317 24.945,69.287C27.92,72.021 31.53,73.424 35.802,73.424C40.123,73.424 43.754,72.01 46.727,69.268C49.965,66.317 51.602,62.608 51.602,58.152C51.602,55.081 50.847,52.396 49.359,50.09C50.215,48.259 50.642,46.258 50.642,44.088C50.642,39.898 49.107,36.401 46.05,33.591C46.036,33.578 46.022,33.565 46.008,33.553C43.197,31.028 39.804,29.728 35.802,29.728C31.84,29.728 28.462,31.023 25.645,33.553C25.631,33.565 25.616,33.578 25.602,33.591C22.546,36.401 21.01,39.898 21.01,44.088C21.01,46.257 21.437,48.258 22.292,50.088ZM45.891,54.27C45.353,52.923 44.501,51.738 43.338,50.712L43.098,50.472C44.794,48.68 45.642,46.552 45.642,44.088C45.642,41.368 44.65,39.096 42.666,37.272C40.778,35.576 38.49,34.728 35.802,34.728C33.146,34.728 30.874,35.576 28.986,37.272C27.002,39.096 26.01,41.368 26.01,44.088C26.01,46.552 26.858,48.68 28.554,50.472C28.458,50.536 28.378,50.616 28.314,50.712C26.138,52.632 25.05,55.112 25.05,58.152C25.05,61.128 26.138,63.608 28.314,65.592C30.362,67.48 32.858,68.424 35.802,68.424C38.778,68.424 41.29,67.48 43.338,65.592C45.514,63.608 46.602,61.128 46.602,58.152C46.602,56.974 46.439,55.88 46.11,54.871C46.961,54.306 47.637,53.481 48.015,52.481C48.043,52.406 48.07,52.331 48.093,52.256C47.688,52.826 47.233,53.377 46.73,53.909L45.891,54.27ZM35.802,62.856C37.21,62.856 38.434,62.432 39.474,61.584C40.514,60.736 41.034,59.592 41.034,58.152C41.034,56.712 40.514,55.568 39.474,54.72C38.434,53.872 37.21,53.448 35.802,53.448C34.426,53.448 33.218,53.872 32.178,54.72C31.138,55.568 30.618,56.712 30.618,58.152C30.618,59.592 31.138,60.736 32.178,61.584C33.218,62.432 34.426,62.856 35.802,62.856ZM32.874,41.304C32.042,41.976 31.626,42.904 31.626,44.088C31.626,45.272 32.042,46.2 32.874,46.872C33.706,47.544 34.682,47.88 35.802,47.88C36.954,47.88 37.946,47.544 38.778,46.872C39.61,46.2 40.026,45.272 40.026,44.088C40.026,42.904 39.61,41.976 38.778,41.304C37.946,40.632 36.954,40.296 35.802,40.296C34.682,40.296 33.706,40.632 32.874,41.304ZM36.016,45.194C35.952,45.245 35.888,45.296 35.802,45.296C35.731,45.296 35.688,45.236 35.637,45.194C35.292,44.916 35.026,44.578 35.026,44.088C35.026,43.598 35.292,43.261 35.637,42.983C35.688,42.941 35.731,42.88 35.802,42.88C35.888,42.88 35.952,42.931 36.016,42.983C36.36,43.261 36.626,43.598 36.626,44.088C36.626,44.578 36.36,44.916 36.016,45.194L36.016,45.194Z" style="fill:rgb(90,18,21);"/>
    <g id="letter" transform="matrix(0.42038,0,0,0.764002,-334.771,7.7279)">
        <g transform="matrix(2.3788,0,0,1.3089,-1259.96,-9.64201)">
            <path d="M913.961,68.508C917,71.547 920.659,73.063 924.937,73.063C929.214,73.063 932.874,71.547 935.912,68.508C938.951,65.47 940.467,61.81 940.467,57.533C940.467,53.255 938.951,49.596 935.912,46.557C932.874,43.519 929.214,42.003 924.937,42.003C920.659,42.003 917,43.519 913.961,46.557C910.923,49.596 909.407,53.255 909.407,57.533C909.407,61.81 910.923,65.47 913.961,68.508ZM917.497,64.973C919.557,67.033 922.037,68.063 924.937,68.063C927.837,68.063 930.317,67.033 932.377,64.973C934.437,62.913 935.467,60.433 935.467,57.533C935.467,54.633 934.437,52.153 932.377,50.093C930.317,48.033 927.837,47.003 924.937,47.003C922.037,47.003 919.557,48.033 917.497,50.093C915.437,52.153 914.407,54.633 914.407,57.533C914.407,60.433 915.437,62.913 917.497,64.973ZM919.957,52.553C921.337,51.173 922.997,50.483 924.937,50.483C926.877,50.483 928.537,51.173 929.917,52.553C931.297,53.933 931.987,55.593 931.987,57.533C931.987,59.473 931.297,61.133 929.917,62.513C928.537,63.893 926.877,64.583 924.937,64.583C922.997,64.583 921.337,63.893 919.957,62.513C918.577,61.133 917.887,59.473 917.887,57.533C917.887,55.593 918.577,53.933 919.957,52.553ZM923.492,56.088C923.893,55.688 924.373,55.483 924.937,55.483C925.5,55.483 925.98,55.688 926.381,56.088C926.782,56.489 926.987,56.969 926.987,57.533C926.987,58.096 926.782,58.577 926.381,58.977C925.98,59.378 925.5,59.583 924.937,59.583C924.373,59.583 923.893,59.378 923.492,58.977C923.091,58.577 922.887,58.096 922.887,57.533C922.887,56.969 923.091,56.489 923.492,56.088Z" style="fill:rgb(90,18,21);"/>
        </g>
        <g transform="matrix(2.3788,0,0,1.3089,-1259.96,-9.64201)">
            <g transform="matrix(30,0,0,30,913.807,68.0629)">
                <path d="M0.123,-0.103C0.192,-0.034 0.274,-0 0.371,-0C0.468,-0 0.55,-0.034 0.619,-0.103C0.688,-0.172 0.722,-0.254 0.722,-0.351C0.722,-0.448 0.688,-0.53 0.619,-0.599C0.55,-0.668 0.468,-0.702 0.371,-0.702C0.274,-0.702 0.192,-0.668 0.123,-0.599C0.054,-0.53 0.02,-0.448 0.02,-0.351C0.02,-0.254 0.054,-0.172 0.123,-0.103ZM0.205,-0.517C0.251,-0.563 0.306,-0.586 0.371,-0.586C0.436,-0.586 0.491,-0.563 0.537,-0.517C0.583,-0.471 0.606,-0.416 0.606,-0.351C0.606,-0.286 0.583,-0.231 0.537,-0.185C0.491,-0.139 0.436,-0.116 0.371,-0.116C0.306,-0.116 0.251,-0.139 0.205,-0.185C0.159,-0.231 0.136,-0.286 0.136,-0.351C0.136,-0.416 0.159,-0.471 0.205,-0.517Z" style="fill:white;fill-rule:nonzero;"/>
            </g>
        </g>
    </g>
    <path id="number-face" serif:id="number face" d="M43.338,50.712C45.514,52.632 46.602,55.112 46.602,58.152C46.602,61.128 45.514,63.608 43.338,65.592C41.29,67.48 38.778,68.424 35.802,68.424C32.858,68.424 30.362,67.48 28.314,65.592C26.138,63.608 25.05,61.128 25.05,58.152C25.05,55.112 26.138,52.632 28.314,50.712C28.378,50.616 28.458,50.536 28.554,50.472C26.858,48.68 26.01,46.552 26.01,44.088C26.01,41.368 27.002,39.096 28.986,37.272C30.874,35.576 33.146,34.728 35.802,34.728C38.49,34.728 40.778,35.576 42.666,37.272C44.65,39.096 45.642,41.368 45.642,44.088C45.642,46.552 44.794,48.68 43.098,50.472L43.338,50.712ZM32.874,41.304C32.042,41.976 31.626,42.904 31.626,44.088C31.626,45.272 32.042,46.2 32.874,46.872C33.706,47.544 34.682,47.88 35.802,47.88C36.954,47.88 37.946,47.544 38.778,46.872C39.61,46.2 40.026,45.272 40.026,44.088C40.026,42.904 39.61,41.976 38.778,41.304C37.946,40.632 36.954,40.296 35.802,40.296C34.682,40.296 33.706,40.632 32.874,41.304ZM35.802,62.856C37.21,62.856 38.434,62.432 39.474,61.584C40.514,60.736 41.034,59.592 41.034,58.152C41.034,56.712 40.514,55.568 39.474,54.72C38.434,53.872 37.21,53.448 35.802,53.448C34.426,53.448 33.218,53.872 32.178,54.72C31.138,55.568 30.618,56.712 30.618,58.152C30.618,59.592 31.138,60.736 32.178,61.584C33.218,62.432 34.426,62.856 35.802,62.856Z" style="fill:white;fill-rule:nonzero;"/>
</svg>
