<?xml version="1.0" encoding="UTF-8" standalone="no"?>
<!DOCTYPE svg PUBLIC "-//W3C//DTD SVG 1.1//EN" "http://www.w3.org/Graphics/SVG/1.1/DTD/svg11.dtd">
<svg width="100%" height="100%" viewBox="0 0 101 100" version="1.1" xmlns="http://www.w3.org/2000/svg" xmlns:xlink="http://www.w3.org/1999/xlink" xml:space="preserve" xmlns:serif="http://www.serif.com/" style="fill-rule:evenodd;clip-rule:evenodd;stroke-linejoin:round;stroke-miterlimit:2;">
    <rect id="_9" serif:id="9" x="0.315" y="0" width="100" height="100" style="fill:none;"/>
    <path id="number-big-stroke" serif:id="number big stroke" d="M24.716,57.882C22.845,58.019 21.226,58.771 19.86,60.137C18.338,61.658 17.579,63.493 17.579,65.64C17.579,67.788 18.338,69.623 19.86,71.144C19.86,71.144 19.86,71.144 19.86,71.144C21.381,72.665 23.216,73.424 25.363,73.424C28.759,73.424 31.998,72.596 35.075,70.919C37.982,69.335 40.573,67.098 42.818,64.172C42.821,64.167 42.825,64.163 42.828,64.159C46.974,58.72 49.083,52.341 49.083,45C49.083,40.554 47.466,36.855 44.263,33.89C44.251,33.88 44.24,33.869 44.228,33.858C41.217,31.125 37.592,29.728 33.331,29.728C29.07,29.728 25.445,31.125 22.435,33.858C22.423,33.869 22.411,33.88 22.399,33.89C19.196,36.855 17.579,40.554 17.579,45C17.579,49.508 19.216,53.212 22.429,56.137C22.431,56.139 22.433,56.141 22.435,56.143C23.159,56.8 23.92,57.381 24.716,57.882ZM25.795,52.44C23.651,50.488 22.579,48.008 22.579,45C22.579,42.024 23.651,39.544 25.795,37.56C27.875,35.672 30.387,34.728 33.331,34.728C36.275,34.728 38.787,35.672 40.867,37.56C43.011,39.544 44.083,42.024 44.083,45C44.083,51.176 42.339,56.552 38.851,61.128C37.059,63.464 35.003,65.264 32.683,66.528C30.363,67.792 27.923,68.424 25.363,68.424C24.595,68.424 23.939,68.152 23.395,67.608C22.851,67.064 22.579,66.408 22.579,65.64C22.579,64.872 22.851,64.216 23.395,63.672C23.939,63.128 24.595,62.856 25.363,62.856C28.787,62.856 31.811,61.144 34.435,57.72C35.075,56.824 35.651,55.896 36.163,54.936C35.299,55.16 34.355,55.272 33.331,55.272C30.387,55.272 27.875,54.328 25.795,52.44ZM36.979,41.544C35.955,40.712 34.739,40.296 33.331,40.296C31.923,40.296 30.707,40.712 29.683,41.544C28.659,42.376 28.147,43.528 28.147,45C28.147,46.472 28.659,47.624 29.683,48.456C30.707,49.288 31.923,49.704 33.331,49.704C34.739,49.704 35.955,49.288 36.979,48.456C38.003,47.624 38.515,46.472 38.515,45C38.515,43.528 38.003,42.376 36.979,41.544Z" style="fill:rgb(67,101,45);"/>
    <g id="letter" transform="matrix(0.42038,0,0,0.764002,-337.243,7.7279)">
        <g transform="matrix(2.3788,0,0,1.3089,-1259.96,-9.64201)">
            <path d="M930.952,54.626C931.472,54.33 931.955,53.956 932.402,53.508C933.719,52.191 934.377,50.602 934.377,48.743C934.377,46.883 933.719,45.295 932.402,43.977C931.105,42.68 929.514,42.003 927.607,42.003L916.147,42.003C914.287,42.003 912.698,42.66 911.381,43.977C910.064,45.294 909.407,46.883 909.407,48.743C909.407,48.743 909.407,66.323 909.407,66.323C909.407,68.182 910.064,69.771 911.381,71.088C911.381,71.088 911.381,71.088 911.381,71.088C912.698,72.406 914.287,73.063 916.147,73.063C917.968,73.063 919.547,72.429 920.876,71.139C922.245,69.809 922.917,68.2 922.917,66.323C922.917,66.323 922.917,63.853 922.917,63.853C922.917,63.853 924.667,63.853 924.667,63.853C926.526,63.853 928.115,63.196 929.432,61.878C930.749,60.561 931.407,58.972 931.407,57.113C931.407,56.226 931.256,55.397 930.952,54.626ZM927.607,47.003C928.107,47.003 928.527,47.173 928.867,47.513C929.207,47.853 929.377,48.263 929.377,48.743C929.377,49.223 929.207,49.633 928.867,49.973C928.527,50.313 928.107,50.483 927.607,50.483L917.917,50.483L917.917,55.343L924.667,55.343C925.147,55.343 925.557,55.518 925.897,55.868C926.237,56.218 926.407,56.633 926.407,57.113C926.407,57.593 926.237,58.003 925.897,58.343C925.557,58.683 925.147,58.853 924.667,58.853L917.917,58.853L917.917,66.323C917.917,66.803 917.742,67.213 917.392,67.553C917.042,67.893 916.627,68.063 916.147,68.063C915.667,68.063 915.257,67.893 914.917,67.553C914.577,67.213 914.407,66.803 914.407,66.323L914.407,48.743C914.407,48.263 914.577,47.853 914.917,47.513C915.257,47.173 915.667,47.003 916.147,47.003L927.607,47.003Z" style="fill:rgb(67,101,45);"/>
        </g>
        <g transform="matrix(2.3788,0,0,1.3089,-1259.96,-9.64201)">
            <g transform="matrix(30,0,0,30,913.807,68.0629)">
                <path d="M0.46,-0.702C0.477,-0.702 0.491,-0.696 0.502,-0.685C0.513,-0.674 0.519,-0.66 0.519,-0.644C0.519,-0.628 0.513,-0.614 0.502,-0.603C0.491,-0.592 0.477,-0.586 0.46,-0.586L0.137,-0.586L0.137,-0.424L0.362,-0.424C0.378,-0.424 0.392,-0.418 0.403,-0.406C0.414,-0.395 0.42,-0.381 0.42,-0.365C0.42,-0.349 0.414,-0.335 0.403,-0.324C0.392,-0.313 0.378,-0.307 0.362,-0.307L0.137,-0.307L0.137,-0.058C0.137,-0.042 0.131,-0.028 0.119,-0.017C0.108,-0.006 0.094,-0 0.078,-0C0.062,-0 0.048,-0.006 0.037,-0.017C0.026,-0.028 0.02,-0.042 0.02,-0.058L0.02,-0.644C0.02,-0.66 0.026,-0.674 0.037,-0.685C0.048,-0.696 0.062,-0.702 0.078,-0.702L0.46,-0.702Z" style="fill:white;fill-rule:nonzero;"/>
            </g>
        </g>
    </g>
    <path id="number-face" serif:id="number face" d="M25.795,52.44C23.651,50.488 22.579,48.008 22.579,45C22.579,42.024 23.651,39.544 25.795,37.56C27.875,35.672 30.387,34.728 33.331,34.728C36.275,34.728 38.787,35.672 40.867,37.56C43.011,39.544 44.083,42.024 44.083,45C44.083,51.176 42.339,56.552 38.851,61.128C37.059,63.464 35.003,65.264 32.683,66.528C30.363,67.792 27.923,68.424 25.363,68.424C24.595,68.424 23.939,68.152 23.395,67.608C22.851,67.064 22.579,66.408 22.579,65.64C22.579,64.872 22.851,64.216 23.395,63.672C23.939,63.128 24.595,62.856 25.363,62.856C28.787,62.856 31.811,61.144 34.435,57.72C35.075,56.824 35.651,55.896 36.163,54.936C35.299,55.16 34.355,55.272 33.331,55.272C30.387,55.272 27.875,54.328 25.795,52.44ZM36.979,41.544C35.955,40.712 34.739,40.296 33.331,40.296C31.923,40.296 30.707,40.712 29.683,41.544C28.659,42.376 28.147,43.528 28.147,45C28.147,46.472 28.659,47.624 29.683,48.456C30.707,49.288 31.923,49.704 33.331,49.704C34.739,49.704 35.955,49.288 36.979,48.456C38.003,47.624 38.515,46.472 38.515,45C38.515,43.528 38.003,42.376 36.979,41.544Z" style="fill:white;fill-rule:nonzero;"/>
</svg>
