<?xml version="1.0" encoding="UTF-8" standalone="no"?>
<!DOCTYPE svg PUBLIC "-//W3C//DTD SVG 1.1//EN" "http://www.w3.org/Graphics/SVG/1.1/DTD/svg11.dtd">
<svg width="100%" height="100%" viewBox="0 0 100 100" version="1.1" xmlns="http://www.w3.org/2000/svg" xmlns:xlink="http://www.w3.org/1999/xlink" xml:space="preserve" xmlns:serif="http://www.serif.com/" style="fill-rule:evenodd;clip-rule:evenodd;stroke-linejoin:round;stroke-miterlimit:2;">
    <g transform="matrix(1,0,0,1,-1637.23,-1876)">
        <g id="terrestrial_craters_3" transform="matrix(0.994066,0,0,0.994066,299.902,11.0917)">
            <rect x="1345.31" y="1876.04" width="100.597" height="100.597" style="fill:none;"/>
            <g transform="matrix(0.30828,0,0,0.30828,946.562,1309.92)">
                <circle cx="1380.14" cy="1896.43" r="10.002" style="fill:white;"/>
            </g>
            <g transform="matrix(0.249665,0,0,0.249665,1036.11,1444.81)">
                <circle cx="1380.14" cy="1896.43" r="10.002" style="fill:white;"/>
            </g>
            <g transform="matrix(0.249665,0,0,0.249665,1088.73,1435.29)">
                <circle cx="1380.14" cy="1896.43" r="10.002" style="fill:white;"/>
            </g>
            <g transform="matrix(0.249665,0,0,0.249665,1051.26,1449.94)">
                <circle cx="1380.14" cy="1896.43" r="10.002" style="fill:rgb(232,232,232);"/>
            </g>
            <path d="M1368.55,1932.9C1368.69,1932.63 1368.67,1932.32 1368.5,1932.07C1368.33,1931.82 1368.05,1931.68 1367.75,1931.71C1367.6,1931.72 1367.44,1931.73 1367.29,1931.73C1364.1,1931.73 1361.5,1929.14 1361.5,1925.94C1361.5,1922.75 1364.1,1920.15 1367.29,1920.15C1370.49,1920.15 1373.08,1922.75 1373.08,1925.94C1373.08,1927.61 1372.37,1929.12 1371.23,1930.17C1371.02,1930.38 1370.92,1930.68 1371,1930.97C1371.07,1931.26 1371.29,1931.49 1371.57,1931.57C1372.66,1931.87 1373.45,1932.87 1373.45,1934.05C1373.45,1935.48 1372.29,1936.64 1370.87,1936.64C1369.44,1936.64 1368.28,1935.48 1368.28,1934.05C1368.28,1933.64 1368.38,1933.25 1368.55,1932.9Z" style="fill:white;"/>
            <g transform="matrix(0.795947,0,0,0.795947,290.138,436.521)">
                <circle cx="1380.14" cy="1896.43" r="10.002" style="fill:white;"/>
            </g>
            <path d="M1405.09,1944.45C1404.82,1944.02 1404.37,1943.73 1403.86,1943.66C1400.59,1943.22 1398.07,1940.42 1398.07,1937.03C1398.07,1933.34 1401.07,1930.34 1404.77,1930.34C1407.21,1930.34 1409.35,1931.65 1410.52,1933.61C1410.83,1934.14 1411.4,1934.46 1412.01,1934.45C1412.63,1934.44 1413.19,1934.1 1413.48,1933.57C1414.06,1932.52 1415.18,1931.81 1416.46,1931.81C1418.35,1931.81 1419.88,1933.34 1419.88,1935.22C1419.88,1937.11 1418.35,1938.63 1416.46,1938.63C1416.3,1938.63 1416.13,1938.62 1415.97,1938.59C1415.39,1938.49 1414.81,1938.68 1414.41,1939.1C1414.02,1939.53 1413.86,1940.12 1414,1940.69C1414.1,1941.06 1414.14,1941.46 1414.14,1941.86C1414.14,1944.57 1411.95,1946.76 1409.24,1946.76C1407.49,1946.76 1405.95,1945.84 1405.09,1944.45Z" style="fill:white;"/>
            <path d="M1431.72,1921.57C1431.69,1921.16 1431.45,1920.79 1431.08,1920.62C1430.71,1920.44 1430.27,1920.48 1429.93,1920.71C1429.05,1921.34 1427.96,1921.71 1426.79,1921.71C1423.77,1921.71 1421.32,1919.25 1421.32,1916.23C1421.32,1913.21 1423.77,1910.76 1426.79,1910.76C1429.81,1910.76 1432.27,1913.21 1432.27,1916.23C1432.27,1916.39 1432.26,1916.54 1432.25,1916.7C1432.21,1917.11 1432.39,1917.51 1432.74,1917.74C1433.08,1917.97 1433.52,1918 1433.89,1917.82C1434.41,1917.55 1435,1917.4 1435.62,1917.4C1437.78,1917.4 1439.53,1919.16 1439.53,1921.32C1439.53,1923.48 1437.78,1925.24 1435.62,1925.24C1433.54,1925.24 1431.84,1923.62 1431.72,1921.57Z" style="fill:rgb(228,228,228);"/>
            <g transform="matrix(0.660698,0,0,0.660698,500.767,713.15)">
                <circle cx="1380.14" cy="1896.43" r="10.002" style="fill:rgb(231,231,231);"/>
            </g>
            <g transform="matrix(0.46467,0,0,0.46467,761.914,1084.88)">
                <circle cx="1380.14" cy="1896.43" r="10.002" style="fill:white;"/>
            </g>
            <g transform="matrix(0.523282,0,0,0.523282,640.841,963.879)">
                <circle cx="1380.14" cy="1896.43" r="10.002" style="fill:rgb(235,235,235);"/>
            </g>
            <g transform="matrix(0.469282,0,0,0.469282,763.756,1030.22)">
                <circle cx="1380.14" cy="1896.43" r="10.002" style="fill:white;"/>
            </g>
            <g transform="matrix(0.511899,0,0,0.511899,686.479,911.552)">
                <circle cx="1380.14" cy="1896.43" r="10.002" style="fill:white;"/>
            </g>
            <g transform="matrix(0.511899,0,0,0.511899,730.239,911.763)">
                <circle cx="1380.14" cy="1896.43" r="10.002" style="fill:white;"/>
            </g>
            <g transform="matrix(0.369853,0,0,0.369853,894.315,1250.76)">
                <circle cx="1380.14" cy="1896.43" r="10.002" style="fill:white;"/>
            </g>
            <g transform="matrix(1.00597,0,0,1.00597,-301.692,-11.1579)">
                <path d="M1717.04,1946.95C1716.81,1946.95 1716.59,1946.84 1716.46,1946.64C1716.33,1946.45 1716.3,1946.2 1716.39,1945.99C1716.8,1945.05 1717.33,1944.19 1717.99,1943.42C1718.46,1942.87 1718.43,1942.03 1717.91,1941.51C1717.24,1940.85 1716.82,1939.92 1716.82,1938.9C1716.82,1936.87 1718.48,1935.22 1720.51,1935.22C1722.45,1935.22 1724.04,1936.72 1724.18,1938.62C1724.23,1939.35 1724.84,1939.92 1725.58,1939.92C1731.05,1939.93 1735.5,1944.38 1735.5,1949.87C1735.5,1952.56 1734.42,1955.01 1732.67,1956.8C1732.19,1957.3 1732.14,1958.08 1732.56,1958.63C1733.02,1959.24 1733.29,1960 1733.29,1960.82C1733.29,1962.86 1731.64,1964.51 1729.61,1964.51C1727.66,1964.51 1726.06,1962.99 1725.94,1961.08C1725.89,1960.38 1725.35,1959.83 1724.66,1959.77C1724.06,1959.72 1723.48,1959.61 1722.92,1959.45C1722.5,1959.34 1722.15,1959.03 1722.01,1958.62C1721.86,1958.2 1721.91,1957.75 1722.16,1957.38C1722.88,1956.34 1723.29,1955.07 1723.29,1953.71C1723.29,1949.98 1720.77,1946.95 1717.04,1946.95C1717.04,1946.95 1717.04,1946.95 1717.04,1946.95Z" style="fill:white;"/>
                <clipPath id="_clip1">
                    <path d="M1717.04,1946.95C1716.81,1946.95 1716.59,1946.84 1716.46,1946.64C1716.33,1946.45 1716.3,1946.2 1716.39,1945.99C1716.8,1945.05 1717.33,1944.19 1717.99,1943.42C1718.46,1942.87 1718.43,1942.03 1717.91,1941.51C1717.24,1940.85 1716.82,1939.92 1716.82,1938.9C1716.82,1936.87 1718.48,1935.22 1720.51,1935.22C1722.45,1935.22 1724.04,1936.72 1724.18,1938.62C1724.23,1939.35 1724.84,1939.92 1725.58,1939.92C1731.05,1939.93 1735.5,1944.38 1735.5,1949.87C1735.5,1952.56 1734.42,1955.01 1732.67,1956.8C1732.19,1957.3 1732.14,1958.08 1732.56,1958.63C1733.02,1959.24 1733.29,1960 1733.29,1960.82C1733.29,1962.86 1731.64,1964.51 1729.61,1964.51C1727.66,1964.51 1726.06,1962.99 1725.94,1961.08C1725.89,1960.38 1725.35,1959.83 1724.66,1959.77C1724.06,1959.72 1723.48,1959.61 1722.92,1959.45C1722.5,1959.34 1722.15,1959.03 1722.01,1958.62C1721.86,1958.2 1721.91,1957.75 1722.16,1957.38C1722.88,1956.34 1723.29,1955.07 1723.29,1953.71C1723.29,1949.98 1720.77,1946.95 1717.04,1946.95C1717.04,1946.95 1717.04,1946.95 1717.04,1946.95Z"/>
                </clipPath>
                <g clip-path="url(#_clip1)">
                    <g transform="matrix(1.13471,0,0,1.13471,159.493,-202.027)">
                        <circle cx="1380.14" cy="1896.43" r="10.002" style="fill:white;"/>
                    </g>
                    <g transform="matrix(0.508862,0,0,0.508862,1018.21,973.884)">
                        <circle cx="1380.14" cy="1896.43" r="10.002" style="fill:white;"/>
                    </g>
                    <g transform="matrix(0.508862,0,0,0.508862,1027.3,995.802)">
                        <circle cx="1380.14" cy="1896.43" r="10.002" style="fill:white;"/>
                    </g>
                </g>
            </g>
            <g transform="matrix(0.511899,0,0,0.511899,649.503,946.124)">
                <circle cx="1380.14" cy="1896.43" r="10.002" style="fill:white;"/>
            </g>
            <g transform="matrix(1.01685,0,0,1.01685,-47.1435,-27.7796)">
                <circle cx="1380.14" cy="1896.43" r="10.002" style="fill:white;"/>
            </g>
            <g transform="matrix(0.535852,0,0,0.535852,612.796,867.174)">
                <circle cx="1380.14" cy="1896.43" r="10.002" style="fill:white;"/>
            </g>
            <g transform="matrix(0.660698,0,0,0.660698,440.76,683.45)">
                <circle cx="1380.14" cy="1896.43" r="10.002" style="fill:white;"/>
            </g>
            <g transform="matrix(0.660698,0,0,0.660698,470.089,715.272)">
                <circle cx="1380.14" cy="1896.43" r="10.002" style="fill:white;"/>
            </g>
            <g transform="matrix(0.316124,0,0,0.316124,970.325,1338.57)">
                <circle cx="1380.14" cy="1896.43" r="10.002" style="fill:rgb(237,237,237);"/>
            </g>
            <g transform="matrix(0.249665,0,0,0.249665,1050.83,1481.27)">
                <circle cx="1380.14" cy="1896.43" r="10.002" style="fill:rgb(236,236,236);"/>
            </g>
            <g transform="matrix(0.430148,0,0,0.430148,772.038,1091.37)">
                <circle cx="1380.14" cy="1896.43" r="10.002" style="fill:rgb(236,236,236);"/>
            </g>
            <g transform="matrix(0.249665,0,0,0.249665,1021.75,1473.02)">
                <circle cx="1380.14" cy="1896.43" r="10.002" style="fill:rgb(235,235,235);"/>
            </g>
            <g transform="matrix(0.249665,0,0,0.249665,1014.05,1464.79)">
                <circle cx="1380.14" cy="1896.43" r="10.002" style="fill:rgb(228,228,228);"/>
            </g>
            <g transform="matrix(1.00597,0,0,1.00597,-301.692,-11.1579)">
                <path d="M1690.09,1896.86C1691.2,1896.98 1692.2,1896.21 1692.38,1895.11C1693.27,1889.49 1698.15,1885.19 1704.02,1885.19C1707.98,1885.19 1711.49,1887.15 1713.62,1890.15C1714.05,1890.75 1714.76,1891.08 1715.49,1891.02C1716.23,1890.96 1716.88,1890.52 1717.2,1889.86C1717.92,1888.38 1719.45,1887.36 1721.21,1887.36C1723.68,1887.36 1725.69,1889.37 1725.69,1891.84C1725.69,1894.31 1723.68,1896.32 1721.21,1896.32C1720.39,1896.32 1719.62,1896.1 1718.96,1895.7C1718.32,1895.33 1717.54,1895.31 1716.89,1895.66C1716.24,1896.01 1715.83,1896.68 1715.8,1897.42C1715.57,1903.73 1710.38,1908.78 1704.02,1908.78C1702.51,1908.78 1701.07,1908.49 1699.75,1907.97C1698.71,1907.57 1697.54,1908.04 1697.08,1909.06C1695.72,1912.07 1692.69,1914.16 1689.18,1914.16C1686.62,1914.16 1684.32,1913.05 1682.73,1911.29C1682.36,1910.87 1681.82,1910.62 1681.26,1910.6C1680.69,1910.58 1680.15,1910.79 1679.74,1911.18C1678.94,1911.94 1677.86,1912.41 1676.66,1912.41C1674.19,1912.41 1672.18,1910.4 1672.18,1907.93C1672.18,1905.46 1674.19,1903.45 1676.66,1903.45C1677.23,1903.45 1677.78,1903.56 1678.28,1903.76C1678.81,1903.97 1679.39,1903.95 1679.91,1903.72C1680.43,1903.49 1680.83,1903.06 1681.02,1902.53C1682.23,1899.2 1685.43,1896.81 1689.18,1896.81C1689.49,1896.81 1689.79,1896.83 1690.09,1896.86ZM1707.57,1897.09C1709.61,1897.09 1711.26,1898.74 1711.26,1900.78C1711.26,1902.81 1709.61,1904.47 1707.57,1904.47C1705.54,1904.47 1703.88,1902.81 1703.88,1900.78C1703.88,1898.74 1705.54,1897.09 1707.57,1897.09Z" style="fill:rgb(247,247,247);"/>
                <clipPath id="_clip2">
                    <path d="M1690.09,1896.86C1691.2,1896.98 1692.2,1896.21 1692.38,1895.11C1693.27,1889.49 1698.15,1885.19 1704.02,1885.19C1707.98,1885.19 1711.49,1887.15 1713.62,1890.15C1714.05,1890.75 1714.76,1891.08 1715.49,1891.02C1716.23,1890.96 1716.88,1890.52 1717.2,1889.86C1717.92,1888.38 1719.45,1887.36 1721.21,1887.36C1723.68,1887.36 1725.69,1889.37 1725.69,1891.84C1725.69,1894.31 1723.68,1896.32 1721.21,1896.32C1720.39,1896.32 1719.62,1896.1 1718.96,1895.7C1718.32,1895.33 1717.54,1895.31 1716.89,1895.66C1716.24,1896.01 1715.83,1896.68 1715.8,1897.42C1715.57,1903.73 1710.38,1908.78 1704.02,1908.78C1702.51,1908.78 1701.07,1908.49 1699.75,1907.97C1698.71,1907.57 1697.54,1908.04 1697.08,1909.06C1695.72,1912.07 1692.69,1914.16 1689.18,1914.16C1686.62,1914.16 1684.32,1913.05 1682.73,1911.29C1682.36,1910.87 1681.82,1910.62 1681.26,1910.6C1680.69,1910.58 1680.15,1910.79 1679.74,1911.18C1678.94,1911.94 1677.86,1912.41 1676.66,1912.41C1674.19,1912.41 1672.18,1910.4 1672.18,1907.93C1672.18,1905.46 1674.19,1903.45 1676.66,1903.45C1677.23,1903.45 1677.78,1903.56 1678.28,1903.76C1678.81,1903.97 1679.39,1903.95 1679.91,1903.72C1680.43,1903.49 1680.83,1903.06 1681.02,1902.53C1682.23,1899.2 1685.43,1896.81 1689.18,1896.81C1689.49,1896.81 1689.79,1896.83 1690.09,1896.86ZM1707.57,1897.09C1709.61,1897.09 1711.26,1898.74 1711.26,1900.78C1711.26,1902.81 1709.61,1904.47 1707.57,1904.47C1705.54,1904.47 1703.88,1902.81 1703.88,1900.78C1703.88,1898.74 1705.54,1897.09 1707.57,1897.09Z"/>
                </clipPath>
                <g clip-path="url(#_clip2)">
                    <g transform="matrix(0.656778,0,0,0.656778,770.214,662.395)">
                        <circle cx="1380.14" cy="1896.43" r="10.002" style="fill:white;"/>
                    </g>
                    <g transform="matrix(0.656778,0,0,0.656778,814.762,646.304)">
                        <circle cx="1380.14" cy="1896.43" r="10.002" style="fill:white;"/>
                    </g>
                    <g transform="matrix(1.38767,0,0,1.38767,-211.163,-734.629)">
                        <circle cx="1380.14" cy="1896.43" r="10.002" style="fill:white;"/>
                    </g>
                    <g transform="matrix(1.07606,0,0,1.07606,204.056,-135.191)">
                        <circle cx="1380.14" cy="1896.43" r="10.002" style="fill:white;"/>
                    </g>
                </g>
            </g>
            <g transform="matrix(0.391928,0,0,0.391928,838.066,1143.78)">
                <circle cx="1380.14" cy="1896.43" r="10.002" style="fill:rgb(228,228,228);"/>
            </g>
        </g>
        <g id="Layer3">
        </g>
    </g>
</svg>
