<?xml version="1.0" encoding="UTF-8" standalone="no"?>
<!DOCTYPE svg PUBLIC "-//W3C//DTD SVG 1.1//EN" "http://www.w3.org/Graphics/SVG/1.1/DTD/svg11.dtd">
<svg width="100%" height="100%" viewBox="0 0 100 100" version="1.1" xmlns="http://www.w3.org/2000/svg" xmlns:xlink="http://www.w3.org/1999/xlink" xml:space="preserve" xmlns:serif="http://www.serif.com/" style="fill-rule:evenodd;clip-rule:evenodd;stroke-linejoin:round;stroke-miterlimit:2;">
    <g transform="matrix(1,0,0,1,-1500.15,-2018.11)">
        <g id="terrestrial_land_2" transform="matrix(0.994066,0,0,0.994066,162.822,153.207)">
            <rect x="1345.31" y="1876.04" width="100.597" height="100.597" style="fill:none;"/>
            <g transform="matrix(1.00597,0,0,1.00597,-53.633,-185.6)">
                <path d="M1418.94,2050.19C1419.71,2049.74 1420.66,2049.74 1421.44,2050.19C1422.28,2050.67 1423.38,2051.3 1424.21,2051.79C1424.99,2052.24 1425.46,2053.06 1425.46,2053.95L1425.46,2057.16C1425.46,2058.05 1424.99,2058.88 1424.21,2059.32C1423.38,2059.81 1422.28,2060.44 1421.44,2060.93C1420.66,2061.38 1419.71,2061.38 1418.94,2060.93C1418.1,2060.44 1417,2059.81 1416.16,2059.32C1415.39,2058.88 1414.91,2058.05 1414.91,2057.16L1414.91,2053.95C1414.91,2053.06 1415.39,2052.24 1416.16,2051.79C1417,2051.3 1418.1,2050.67 1418.94,2050.19Z" style="fill:white;"/>
            </g>
            <g transform="matrix(1.00597,0,0,1.00597,-163.794,-154.121)">
                <path d="M1516.77,2086.35C1516.77,2085.46 1516.3,2084.64 1515.53,2084.19C1514.73,2083.72 1513.67,2083.1 1512.87,2082.62C1512.1,2082.17 1511.63,2081.35 1511.63,2080.47C1511.63,2079.5 1511.63,2078.22 1511.63,2077.25C1511.63,2076.36 1512.11,2075.53 1512.88,2075.08C1513.72,2074.6 1514.82,2073.96 1515.66,2073.48C1516.43,2073.03 1517.39,2073.03 1518.16,2073.48C1519,2073.96 1520.1,2074.6 1520.94,2075.08C1521.71,2075.53 1522.19,2076.36 1522.19,2077.25L1522.19,2080.47C1522.19,2081.35 1522.66,2082.17 1523.42,2082.62C1524.23,2083.1 1525.28,2083.72 1526.09,2084.19C1526.85,2084.64 1527.32,2085.46 1527.32,2086.35C1527.32,2087.32 1527.32,2088.59 1527.32,2089.56C1527.32,2090.46 1526.84,2091.28 1526.07,2091.73C1525.23,2092.21 1524.13,2092.85 1523.29,2093.33C1522.51,2093.78 1522.04,2094.6 1522.04,2095.5C1522.04,2096.46 1522.04,2097.73 1522.04,2098.7C1522.04,2099.59 1522.51,2100.41 1523.28,2100.86C1524.12,2101.34 1525.21,2101.97 1526.04,2102.45C1526.81,2102.9 1527.29,2103.72 1527.29,2104.62C1527.29,2105.59 1527.29,2106.86 1527.29,2107.82C1527.29,2108.72 1526.81,2109.54 1526.04,2109.99C1525.2,2110.47 1524.1,2111.11 1523.26,2111.59C1522.49,2112.04 1521.53,2112.04 1520.76,2111.59C1519.92,2111.11 1518.83,2110.48 1517.99,2109.99C1517.22,2109.55 1516.26,2109.55 1515.49,2109.99C1514.65,2110.48 1513.56,2111.11 1512.72,2111.59C1511.95,2112.04 1510.99,2112.04 1510.22,2111.59C1509.38,2111.11 1508.28,2110.47 1507.44,2109.99C1506.67,2109.54 1506.19,2108.72 1506.19,2107.82L1506.19,2104.62C1506.19,2103.73 1505.72,2102.9 1504.94,2102.45C1504.12,2101.98 1503.06,2101.36 1502.23,2100.89C1501.46,2100.44 1500.99,2099.62 1500.99,2098.72L1500.99,2095.52C1500.99,2094.62 1501.46,2093.8 1502.24,2093.35C1503.07,2092.87 1504.17,2092.23 1505.01,2091.75C1505.79,2091.3 1506.74,2091.3 1507.51,2091.75C1508.34,2092.22 1509.41,2092.85 1510.24,2093.32C1511.01,2093.77 1511.96,2093.77 1512.74,2093.32C1513.57,2092.84 1514.67,2092.2 1515.51,2091.72C1516.28,2091.27 1516.76,2090.45 1516.76,2089.56C1516.76,2088.59 1516.77,2087.32 1516.77,2086.35Z" style="fill:white;"/>
            </g>
            <g transform="matrix(1.00597,0,0,1.00597,-163.794,-154.121)">
                <path d="M1567.58,2091.66C1568.35,2091.21 1568.82,2090.39 1568.83,2089.5C1568.83,2088.58 1568.84,2087.39 1568.84,2086.47C1568.85,2085.59 1569.33,2084.77 1570.09,2084.32C1570.94,2083.83 1572.06,2083.19 1572.9,2082.7C1573.66,2082.26 1574.6,2082.26 1575.37,2082.68C1576.22,2083.15 1577.34,2083.78 1578.18,2084.25C1578.95,2084.68 1579.89,2084.67 1580.65,2084.23C1581.49,2083.74 1582.6,2083.1 1583.45,2082.61C1584.22,2082.16 1585.18,2082.16 1585.95,2082.61C1586.79,2083.1 1587.89,2083.73 1588.73,2084.21C1589.5,2084.66 1589.98,2085.49 1589.98,2086.38L1589.98,2089.59C1589.98,2090.48 1589.5,2091.3 1588.73,2091.75C1587.9,2092.23 1586.81,2092.86 1585.98,2093.34C1585.21,2093.78 1584.73,2094.61 1584.73,2095.5L1584.73,2098.67C1584.73,2099.57 1584.25,2100.39 1583.48,2100.84C1582.64,2101.32 1581.55,2101.95 1580.71,2102.44C1579.94,2102.88 1579.46,2103.71 1579.46,2104.6L1579.46,2107.8C1579.46,2108.69 1578.99,2109.52 1578.21,2109.96C1577.37,2110.45 1576.27,2111.08 1575.43,2111.57C1574.66,2112.01 1573.71,2112.01 1572.93,2111.57C1572.1,2111.08 1571,2110.45 1570.16,2109.96C1569.38,2109.52 1568.91,2108.69 1568.91,2107.8L1568.91,2104.6C1568.91,2103.7 1568.43,2102.87 1567.65,2102.43C1566.8,2101.94 1565.67,2101.29 1564.81,2100.8C1564.03,2100.36 1563.08,2100.36 1562.3,2100.82C1561.5,2101.29 1560.47,2101.89 1559.68,2102.36C1558.91,2102.81 1558.44,2103.63 1558.44,2104.52L1558.44,2107.74C1558.44,2108.63 1557.97,2109.45 1557.19,2109.9C1556.36,2110.38 1555.26,2111.02 1554.42,2111.5C1553.64,2111.95 1552.69,2111.95 1551.92,2111.5C1551.06,2111 1549.93,2110.35 1549.08,2109.85C1548.31,2109.41 1547.35,2109.4 1546.58,2109.85C1545.74,2110.34 1544.64,2110.97 1543.8,2111.45C1543.03,2111.9 1542.08,2111.9 1541.3,2111.45C1540.46,2110.97 1539.36,2110.33 1538.53,2109.85C1537.75,2109.4 1537.28,2108.58 1537.28,2107.68L1537.28,2104.48C1537.28,2103.59 1537.75,2102.76 1538.53,2102.31C1539.35,2101.84 1540.44,2101.21 1541.27,2100.73C1542.04,2100.28 1542.52,2099.46 1542.52,2098.57C1542.52,2097.62 1542.52,2096.38 1542.52,2095.43C1542.52,2094.53 1542.99,2093.71 1543.77,2093.26C1544.6,2092.78 1545.7,2092.14 1546.54,2091.66C1547.32,2091.21 1548.27,2091.21 1549.04,2091.66C1549.87,2092.14 1550.96,2092.77 1551.79,2093.24C1552.56,2093.69 1553.51,2093.69 1554.29,2093.24C1555.12,2092.77 1556.2,2092.14 1557.04,2091.66C1557.81,2091.21 1558.76,2091.21 1559.54,2091.66C1560.37,2092.14 1561.47,2092.78 1562.3,2093.26C1563.08,2093.7 1564.03,2093.7 1564.8,2093.26C1565.64,2092.77 1566.74,2092.14 1567.58,2091.66Z" style="fill:white;"/>
            </g>
            <g transform="matrix(1.00597,0,0,1.00597,-163.794,-154.121)">
                <path d="M1512.47,2045.7C1513.25,2045.25 1513.73,2044.42 1513.72,2043.52C1513.72,2042.6 1513.72,2041.4 1513.71,2040.48C1513.71,2039.59 1513.24,2038.77 1512.46,2038.32C1511.62,2037.84 1510.52,2037.2 1509.68,2036.72C1508.91,2036.27 1508.43,2035.44 1508.43,2034.55L1508.43,2031.34C1508.43,2030.45 1508.91,2029.62 1509.68,2029.18C1510.52,2028.69 1511.62,2028.06 1512.46,2027.58C1513.23,2027.13 1514.18,2027.13 1514.96,2027.58C1515.8,2028.06 1516.9,2028.69 1517.74,2029.18C1518.51,2029.62 1518.99,2030.45 1518.99,2031.34C1518.99,2032.28 1518.99,2033.5 1518.99,2034.44C1518.99,2035.34 1519.46,2036.16 1520.24,2036.61C1521.09,2037.09 1522.19,2037.72 1523.03,2038.21C1523.81,2038.65 1524.28,2039.47 1524.29,2040.37C1524.29,2041.33 1524.29,2042.58 1524.3,2043.53C1524.3,2044.42 1524.78,2045.25 1525.55,2045.69C1526.38,2046.17 1527.49,2046.81 1528.33,2047.3C1529.1,2047.74 1529.58,2048.57 1529.58,2049.46L1529.58,2052.67C1529.58,2053.56 1529.1,2054.39 1528.33,2054.83C1527.49,2055.32 1526.39,2055.95 1525.55,2056.43C1524.78,2056.88 1523.82,2056.88 1523.05,2056.43C1522.21,2055.95 1521.11,2055.32 1520.27,2054.83C1519.5,2054.39 1518.55,2054.38 1517.78,2054.83C1516.95,2055.31 1515.86,2055.93 1515.04,2056.41C1514.26,2056.85 1513.31,2056.85 1512.54,2056.41C1511.7,2055.92 1510.6,2055.29 1509.76,2054.8C1508.99,2054.36 1508.51,2053.53 1508.51,2052.64L1508.51,2049.43C1508.51,2048.54 1508.99,2047.71 1509.76,2047.27C1510.58,2046.79 1511.65,2046.17 1512.47,2045.7Z" style="fill:white;"/>
            </g>
            <g transform="matrix(1.00597,0,0,1.00597,-163.794,-154.121)">
                <path d="M1552.6,2057.99C1552.6,2057.1 1552.12,2056.27 1551.35,2055.82C1550.53,2055.35 1549.47,2054.74 1548.66,2054.27C1547.88,2053.82 1547.41,2052.99 1547.41,2052.1C1547.41,2051.15 1547.41,2049.91 1547.41,2048.96C1547.41,2048.07 1546.93,2047.24 1546.16,2046.8C1545.33,2046.32 1544.25,2045.7 1543.43,2045.22C1542.65,2044.77 1542.18,2043.95 1542.18,2043.05C1542.18,2042.09 1542.18,2040.82 1542.18,2039.85C1542.18,2038.96 1542.65,2038.13 1543.43,2037.68C1544.27,2037.2 1545.38,2036.56 1546.22,2036.07C1546.98,2035.63 1547.93,2035.63 1548.7,2036.07C1549.53,2036.54 1550.62,2037.16 1551.46,2037.63C1552.23,2038.07 1553.17,2038.06 1553.94,2037.62C1554.78,2037.13 1555.89,2036.49 1556.74,2036.01C1557.51,2035.56 1557.98,2034.75 1557.99,2033.86C1558,2032.89 1558,2031.63 1558.01,2030.66C1558.02,2029.78 1558.49,2028.96 1559.26,2028.52C1560.1,2028.03 1561.21,2027.39 1562.05,2026.91C1562.82,2026.46 1563.78,2026.46 1564.55,2026.91C1565.39,2027.39 1566.49,2028.03 1567.33,2028.52C1568.1,2028.96 1569.05,2028.96 1569.82,2028.52C1570.65,2028.05 1571.74,2027.43 1572.57,2026.95C1573.34,2026.51 1574.29,2026.51 1575.06,2026.96C1575.9,2027.44 1577,2028.08 1577.84,2028.56C1578.61,2029.01 1579.09,2029.84 1579.09,2030.73L1579.09,2033.93C1579.09,2034.83 1578.61,2035.65 1577.84,2036.1C1577,2036.58 1575.9,2037.22 1575.06,2037.7C1574.29,2038.15 1573.34,2038.15 1572.56,2037.7C1571.72,2037.22 1570.62,2036.58 1569.78,2036.1C1569.01,2035.65 1568.06,2035.65 1567.29,2036.09C1566.46,2036.57 1565.38,2037.19 1564.55,2037.66C1563.77,2038.1 1563.3,2038.92 1563.29,2039.81C1563.28,2040.76 1563.27,2042.01 1563.27,2042.96C1563.26,2043.87 1563.74,2044.71 1564.53,2045.15C1565.34,2045.62 1566.38,2046.21 1567.19,2046.67C1567.96,2047.11 1568.91,2047.11 1569.67,2046.66C1570.51,2046.18 1571.62,2045.54 1572.46,2045.06C1573.23,2044.61 1574.19,2044.61 1574.96,2045.06C1575.8,2045.54 1576.9,2046.18 1577.74,2046.66C1578.51,2047.11 1579.46,2047.11 1580.23,2046.67C1581.03,2046.21 1582.06,2045.62 1582.85,2045.17C1583.63,2044.72 1584.11,2043.9 1584.11,2043C1584.11,2042.03 1584.11,2040.77 1584.11,2039.81C1584.11,2038.92 1584.59,2038.09 1585.36,2037.64C1586.2,2037.16 1587.3,2036.53 1588.14,2036.04C1588.91,2035.59 1589.87,2035.59 1590.64,2036.04C1591.48,2036.53 1592.58,2037.16 1593.41,2037.64C1594.19,2038.09 1594.66,2038.92 1594.66,2039.81L1594.66,2043.02C1594.66,2043.91 1594.19,2044.73 1593.41,2045.18C1592.61,2045.65 1591.56,2046.25 1590.75,2046.72C1589.98,2047.16 1589.5,2047.99 1589.5,2048.88C1589.5,2049.85 1589.5,2051.12 1589.5,2052.08C1589.5,2052.97 1589.03,2053.8 1588.25,2054.25C1587.41,2054.73 1586.31,2055.37 1585.48,2055.85C1584.7,2056.3 1583.75,2056.3 1582.98,2055.85C1582.13,2055.36 1581.03,2054.73 1580.19,2054.24C1579.42,2053.8 1578.47,2053.8 1577.7,2054.24C1576.87,2054.71 1575.78,2055.34 1574.95,2055.81C1574.18,2056.25 1573.7,2057.06 1573.69,2057.95C1573.68,2058.91 1573.67,2060.16 1573.65,2061.13C1573.64,2062.03 1574.12,2062.87 1574.9,2063.32C1575.74,2063.8 1576.82,2064.43 1577.65,2064.91C1578.43,2065.36 1578.9,2066.18 1578.9,2067.07C1578.9,2068.04 1578.9,2069.31 1578.9,2070.28C1578.9,2071.18 1578.43,2072 1577.65,2072.45C1576.81,2072.93 1575.71,2073.57 1574.88,2074.05C1574.1,2074.5 1573.15,2074.5 1572.38,2074.05C1571.54,2073.57 1570.43,2072.93 1569.6,2072.44C1568.82,2072 1567.87,2072 1567.1,2072.44C1566.27,2072.92 1565.17,2073.55 1564.34,2074.02C1563.57,2074.47 1562.62,2074.47 1561.85,2074.02C1561.07,2073.57 1560.06,2072.99 1559.27,2072.54C1558.49,2072.09 1557.53,2072.09 1556.75,2072.55C1555.92,2073.04 1554.85,2073.68 1554.03,2074.16C1553.27,2074.61 1552.8,2075.43 1552.8,2076.32C1552.8,2077.28 1552.8,2078.57 1552.8,2079.54C1552.8,2080.43 1552.32,2081.26 1551.55,2081.7C1550.71,2082.19 1549.61,2082.82 1548.77,2083.31C1548,2083.75 1547.05,2083.75 1546.27,2083.31C1545.43,2082.82 1544.34,2082.19 1543.5,2081.7C1542.72,2081.26 1542.25,2080.43 1542.25,2079.54L1542.25,2076.32C1542.25,2075.43 1542.71,2074.61 1543.47,2074.16C1544.3,2073.67 1545.4,2073.03 1546.23,2072.53C1546.99,2072.09 1547.45,2071.27 1547.45,2070.38C1547.45,2069.4 1547.45,2068.11 1547.45,2067.13C1547.45,2066.26 1547.92,2065.44 1548.67,2064.99C1549.49,2064.5 1550.56,2063.86 1551.38,2063.37C1552.13,2062.92 1552.59,2062.11 1552.59,2061.23C1552.59,2060.26 1552.6,2058.97 1552.6,2057.99Z" style="fill:white;"/>
            </g>
        </g>
        <g id="Layer3">
        </g>
    </g>
</svg>
