<?xml version="1.0" encoding="UTF-8" standalone="no"?>
<!DOCTYPE svg PUBLIC "-//W3C//DTD SVG 1.1//EN" "http://www.w3.org/Graphics/SVG/1.1/DTD/svg11.dtd">
<svg width="100%" height="100%" viewBox="0 0 100 100" version="1.1" xmlns="http://www.w3.org/2000/svg" xmlns:xlink="http://www.w3.org/1999/xlink" xml:space="preserve" xmlns:serif="http://www.serif.com/" style="fill-rule:evenodd;clip-rule:evenodd;stroke-linejoin:round;stroke-miterlimit:2;">
    <g transform="matrix(1,0,0,1,-1362.16,-2018.11)">
        <g id="terrestrial_land_1" transform="matrix(0.994066,0,0,0.994066,24.8357,153.207)">
            <rect x="1345.31" y="1876.04" width="100.597" height="100.597" style="fill:none;"/>
            <g transform="matrix(1.00597,0,0,1.00597,-24.9839,-154.121)">
                <path d="M1423.95,2086.59C1424.72,2087.04 1425.67,2087.04 1426.45,2086.59C1427.28,2086.11 1428.38,2085.48 1429.21,2084.99C1429.99,2084.55 1430.94,2084.55 1431.71,2084.99C1432.55,2085.48 1433.65,2086.11 1434.49,2086.6C1435.26,2087.04 1435.74,2087.87 1435.74,2088.76L1435.74,2091.97C1435.74,2092.86 1435.26,2093.69 1434.49,2094.13C1433.65,2094.62 1432.55,2095.25 1431.71,2095.74C1430.94,2096.18 1429.99,2096.18 1429.21,2095.74C1428.38,2095.26 1427.29,2094.63 1426.46,2094.14C1425.68,2093.69 1424.72,2093.7 1423.94,2094.15C1423.14,2094.62 1422.11,2095.23 1421.32,2095.7C1420.56,2096.14 1420.09,2096.96 1420.09,2097.85L1420.09,2101.07C1420.09,2101.96 1419.61,2102.79 1418.84,2103.24C1418,2103.72 1416.9,2104.35 1416.06,2104.84C1415.29,2105.28 1414.33,2105.28 1413.56,2104.84C1412.71,2104.35 1411.6,2103.71 1410.76,2103.22C1410,2102.78 1409.53,2101.98 1409.51,2101.1C1409.49,2100.13 1409.47,2098.84 1409.46,2097.87C1409.44,2096.99 1408.97,2096.19 1408.21,2095.75C1407.37,2095.26 1406.25,2094.62 1405.41,2094.13C1404.63,2093.69 1404.16,2092.86 1404.16,2091.97L1404.16,2088.76C1404.16,2087.87 1404.63,2087.04 1405.41,2086.6C1406.25,2086.11 1407.35,2085.48 1408.18,2084.99C1408.96,2084.55 1409.91,2084.55 1410.68,2084.99C1411.52,2085.47 1412.6,2086.1 1413.43,2086.58C1414.2,2087.03 1415.16,2087.03 1415.93,2086.58C1416.76,2086.1 1417.85,2085.47 1418.68,2084.99C1419.45,2084.55 1420.4,2084.55 1421.18,2084.99C1422.01,2085.48 1423.11,2086.11 1423.95,2086.59Z" style="fill:white;"/>
            </g>
            <g transform="matrix(1.00597,0,0,1.00597,-24.9839,-154.121)">
                <path d="M1375.27,2056.33C1376.05,2055.88 1376.52,2055.06 1376.52,2054.17C1376.52,2053.22 1376.52,2051.99 1376.52,2051.04C1376.52,2050.14 1377,2049.32 1377.77,2048.87C1378.61,2048.39 1379.71,2047.75 1380.55,2047.27C1381.32,2046.82 1382.28,2046.82 1383.05,2047.27C1383.89,2047.75 1384.99,2048.39 1385.83,2048.87C1386.6,2049.32 1387.08,2050.14 1387.08,2051.04L1387.08,2054.24C1387.08,2055.14 1386.6,2055.96 1385.83,2056.41C1384.99,2056.89 1383.89,2057.53 1383.05,2058.01C1382.28,2058.46 1381.8,2059.28 1381.8,2060.18C1381.8,2061.12 1381.8,2062.35 1381.8,2063.3C1381.8,2064.19 1382.28,2065.02 1383.05,2065.46C1383.88,2065.95 1384.98,2066.58 1385.82,2067.06C1386.59,2067.51 1387.07,2068.34 1387.07,2069.23C1387.07,2070.2 1387.07,2071.47 1387.07,2072.43C1387.07,2073.33 1386.59,2074.15 1385.82,2074.6C1384.98,2075.08 1383.88,2075.72 1383.04,2076.2C1382.27,2076.65 1381.32,2076.65 1380.54,2076.2C1379.7,2075.72 1378.6,2075.08 1377.77,2074.6C1376.99,2074.15 1376.52,2073.33 1376.52,2072.43C1376.52,2071.47 1376.52,2070.2 1376.52,2069.24C1376.52,2068.34 1376.04,2067.52 1375.27,2067.07C1374.43,2066.59 1373.33,2065.95 1372.5,2065.47C1371.72,2065.02 1371.25,2064.2 1371.25,2063.3C1371.25,2062.34 1371.25,2061.07 1371.25,2060.1C1371.25,2059.21 1371.72,2058.38 1372.5,2057.93C1373.33,2057.45 1374.43,2056.82 1375.27,2056.33Z" style="fill:white;"/>
            </g>
            <g transform="matrix(1.00597,0,0,1.00597,-52.5783,-174.226)">
                <path d="M1418.94,2050.19C1419.71,2049.74 1420.66,2049.74 1421.44,2050.19C1422.28,2050.67 1423.38,2051.3 1424.21,2051.79C1424.99,2052.24 1425.46,2053.06 1425.46,2053.95L1425.46,2057.16C1425.46,2058.05 1424.99,2058.88 1424.21,2059.32C1423.38,2059.81 1422.28,2060.44 1421.44,2060.93C1420.66,2061.38 1419.71,2061.38 1418.94,2060.93C1418.1,2060.44 1417,2059.81 1416.16,2059.32C1415.39,2058.88 1414.91,2058.05 1414.91,2057.16L1414.91,2053.95C1414.91,2053.06 1415.39,2052.24 1416.16,2051.79C1417,2051.3 1418.1,2050.67 1418.94,2050.19Z" style="fill:white;"/>
            </g>
            <g transform="matrix(1.00597,0,0,1.00597,-24.9839,-154.121)">
                <path d="M1381.96,2110.4C1381.96,2109.51 1381.49,2108.68 1380.72,2108.24C1379.89,2107.76 1378.81,2107.13 1377.98,2106.65C1377.21,2106.2 1376.73,2105.38 1376.73,2104.49C1376.73,2103.52 1376.73,2102.25 1376.73,2101.28C1376.73,2100.39 1377.21,2099.56 1377.98,2099.12C1378.82,2098.63 1379.92,2098 1380.76,2097.51C1381.53,2097.07 1382.49,2097.07 1383.26,2097.51C1384.1,2098 1385.2,2098.63 1386.04,2099.12C1386.81,2099.56 1387.29,2100.39 1387.29,2101.28L1387.29,2104.49C1387.29,2105.38 1387.76,2106.2 1388.53,2106.65C1389.36,2107.13 1390.44,2107.76 1391.27,2108.24C1392.04,2108.68 1392.52,2109.51 1392.52,2110.4C1392.52,2111.37 1392.52,2112.64 1392.52,2113.61C1392.52,2114.5 1392.04,2115.33 1391.27,2115.77C1390.43,2116.26 1389.33,2116.89 1388.49,2117.38C1387.72,2117.82 1386.77,2117.82 1385.99,2117.38C1385.15,2116.89 1384.05,2116.26 1383.21,2115.77C1382.44,2115.33 1381.96,2114.5 1381.96,2113.61L1381.96,2110.4Z" style="fill:white;"/>
            </g>
            <g transform="matrix(1.00597,0,0,1.00597,-24.9839,-154.121)">
                <path d="M1424.22,2041.08C1425,2040.62 1425.49,2039.8 1425.49,2038.89C1425.5,2037.94 1425.51,2036.7 1425.52,2035.75C1425.52,2034.85 1426.01,2034.02 1426.79,2033.57C1427.62,2033.09 1428.7,2032.46 1429.53,2031.98C1430.32,2031.53 1431.29,2031.53 1432.07,2031.98C1432.9,2032.46 1433.99,2033.08 1434.82,2033.56C1435.6,2034.02 1436.56,2034.02 1437.35,2033.57C1438.17,2033.1 1439.23,2032.49 1440.05,2032.02C1440.84,2031.57 1441.8,2031.58 1442.58,2032.03C1443.41,2032.51 1444.49,2033.13 1445.33,2033.61C1446.11,2034.07 1446.6,2034.9 1446.6,2035.81L1446.6,2038.97C1446.6,2039.88 1446.11,2040.72 1445.33,2041.17C1444.5,2041.65 1443.42,2042.27 1442.59,2042.75C1441.8,2043.2 1440.83,2043.2 1440.05,2042.75C1439.22,2042.27 1438.13,2041.64 1437.31,2041.17C1436.52,2040.72 1435.56,2040.71 1434.78,2041.16C1433.95,2041.63 1432.89,2042.24 1432.07,2042.71C1431.29,2043.16 1430.8,2043.99 1430.79,2044.89C1430.78,2046.68 1430.76,2049.49 1430.76,2049.49C1430.76,2049.49 1430.76,2049.49 1430.76,2049.49C1430.75,2049.49 1430.75,2049.49 1430.74,2049.5C1430.74,2049.51 1430.75,2049.51 1430.75,2049.52C1430.99,2049.66 1433.25,2050.96 1434.73,2051.81C1435.51,2052.26 1436,2053.1 1436,2054.01C1436,2054.97 1436,2056.21 1436,2057.17C1436,2058.08 1435.51,2058.92 1434.73,2059.37C1433.9,2059.85 1432.82,2060.47 1431.99,2060.95C1431.2,2061.4 1430.24,2061.4 1429.45,2060.95C1428.62,2060.47 1427.54,2059.85 1426.71,2059.37C1425.92,2058.92 1424.96,2058.91 1424.17,2059.36C1423.35,2059.84 1422.28,2060.45 1421.46,2060.92C1420.67,2061.37 1419.71,2061.37 1418.92,2060.92C1418.09,2060.44 1417.01,2059.82 1416.18,2059.34C1415.4,2058.88 1414.91,2058.05 1414.91,2057.14C1414.91,2056.2 1414.91,2054.98 1414.91,2054.04C1414.91,2053.13 1414.43,2052.3 1413.64,2051.84C1412.83,2051.37 1411.77,2050.76 1410.95,2050.29C1410.17,2049.84 1409.68,2049 1409.68,2048.09C1409.68,2047.13 1409.68,2045.89 1409.68,2044.93C1409.68,2044.02 1410.17,2043.18 1410.95,2042.73C1411.79,2042.25 1412.87,2041.62 1413.7,2041.14C1414.48,2040.69 1415.44,2040.69 1416.22,2041.13C1417.05,2041.6 1418.12,2042.21 1418.94,2042.68C1419.72,2043.12 1420.68,2043.12 1421.46,2042.67C1422.3,2042.19 1423.39,2041.56 1424.22,2041.08ZM1425.46,2052.53C1425.46,2052.53 1425.46,2052.53 1425.46,2052.53C1425.46,2052.53 1425.47,2052.53 1425.47,2052.53C1425.47,2052.53 1425.47,2052.53 1425.47,2052.53C1425.47,2052.53 1425.47,2052.53 1425.47,2052.53C1425.47,2052.53 1425.46,2052.53 1425.46,2052.53C1425.46,2052.53 1425.46,2052.53 1425.46,2052.53C1425.46,2052.53 1425.46,2052.53 1425.46,2052.53Z" style="fill:white;"/>
            </g>
        </g>
        <g id="Layer3">
        </g>
    </g>
</svg>
