<?xml version="1.0" encoding="UTF-8" standalone="no"?>
<!DOCTYPE svg PUBLIC "-//W3C//DTD SVG 1.1//EN" "http://www.w3.org/Graphics/SVG/1.1/DTD/svg11.dtd">
<svg width="100%" height="100%" viewBox="0 0 100 100" version="1.1" xmlns="http://www.w3.org/2000/svg" xmlns:xlink="http://www.w3.org/1999/xlink" xml:space="preserve" xmlns:serif="http://www.serif.com/" style="fill-rule:evenodd;clip-rule:evenodd;stroke-linejoin:round;stroke-miterlimit:2;">
    <g transform="matrix(1,0,0,1,-1500.22,-1876)">
        <g id="terrestrial_craters_2" transform="matrix(0.994066,0,0,0.994066,162.897,11.0917)">
            <rect x="1345.31" y="1876.04" width="100.597" height="100.597" style="fill:none;"/>
            <g transform="matrix(1.00597,0,0,1.00597,-7.72274,-11.1579)">
                <circle cx="1372.17" cy="1908.33" r="11.499" style="fill:white;"/>
            </g>
            <path d="M1396.19,1942.8C1396.47,1942.45 1396.53,1941.98 1396.35,1941.57C1396.17,1941.16 1395.77,1940.89 1395.33,1940.86C1393.09,1940.72 1391.32,1938.85 1391.32,1936.58C1391.32,1934.21 1393.24,1932.29 1395.6,1932.29C1397.97,1932.29 1399.89,1934.21 1399.89,1936.58C1399.89,1937.13 1399.79,1937.66 1399.6,1938.14C1399.43,1938.56 1399.51,1939.03 1399.8,1939.37C1400.1,1939.71 1400.55,1939.86 1400.99,1939.76C1401.62,1939.61 1402.27,1939.53 1402.94,1939.53C1407.13,1939.53 1410.62,1942.52 1411.39,1946.48C1411.45,1946.8 1411.65,1947.09 1411.93,1947.26C1412.2,1947.44 1412.54,1947.49 1412.86,1947.41C1413.04,1947.37 1413.22,1947.34 1413.41,1947.34C1414.75,1947.34 1415.83,1948.43 1415.83,1949.76C1415.83,1951.1 1414.75,1952.18 1413.41,1952.18C1412.96,1952.18 1412.53,1952.06 1412.17,1951.83C1411.89,1951.66 1411.55,1951.61 1411.24,1951.69C1410.92,1951.78 1410.65,1951.99 1410.49,1952.28C1409.03,1954.94 1406.19,1956.75 1402.94,1956.75C1398.19,1956.75 1394.33,1952.89 1394.33,1948.14C1394.33,1946.12 1395.03,1944.27 1396.19,1942.8Z" style="fill:white;"/>
            <path d="M1426.83,1911.6C1426.93,1911.47 1427,1911.32 1427.02,1911.16C1427.3,1908.48 1429.57,1906.39 1432.32,1906.39C1435.27,1906.39 1437.66,1908.78 1437.66,1911.73C1437.66,1912.22 1437.59,1912.7 1437.46,1913.16C1437.41,1913.32 1437.41,1913.49 1437.47,1913.64C1437.69,1914.27 1437.8,1914.94 1437.8,1915.63C1437.8,1919.08 1435.01,1921.87 1431.57,1921.87C1428.13,1921.87 1425.34,1919.08 1425.34,1915.63C1425.34,1914.09 1425.9,1912.68 1426.83,1911.6Z" style="fill:white;"/>
            <g transform="matrix(0.752345,0,0,0.752345,366.172,456.506)">
                <circle cx="1372.17" cy="1908.33" r="11.499" style="fill:white;"/>
            </g>
            <g transform="matrix(0.314676,0,0,0.314676,942.408,1335.75)">
                <circle cx="1372.17" cy="1908.33" r="11.499" style="fill:rgb(227,227,227);"/>
            </g>
            <g transform="matrix(0.211287,0,0,0.211287,1116.23,1541.56)">
                <circle cx="1372.17" cy="1908.33" r="11.499" style="fill:rgb(227,227,227);"/>
            </g>
            <path d="M1403.19,1911.63C1403.53,1911.81 1403.92,1911.83 1404.28,1911.69C1404.63,1911.55 1404.9,1911.26 1405.02,1910.9C1405.68,1908.87 1407.59,1907.41 1409.83,1907.41C1412.63,1907.41 1414.9,1909.68 1414.9,1912.47C1414.9,1915.27 1412.63,1917.54 1409.83,1917.54C1408.88,1917.54 1407.99,1917.28 1407.24,1916.82C1406.91,1916.62 1406.51,1916.57 1406.15,1916.69C1405.79,1916.82 1405.5,1917.09 1405.37,1917.45C1404.69,1919.19 1403,1920.43 1401.02,1920.43C1398.44,1920.43 1396.35,1918.34 1396.35,1915.76C1396.35,1913.18 1398.44,1911.09 1401.02,1911.09C1401.8,1911.09 1402.55,1911.29 1403.19,1911.63Z" style="fill:white;"/>
            <g transform="matrix(0.349379,0,0,0.349379,907.62,1299.47)">
                <circle cx="1372.17" cy="1908.33" r="11.499" style="fill:rgb(237,237,237);"/>
            </g>
            <g transform="matrix(0.279515,0,0,0.279515,969.84,1436.89)">
                <circle cx="1372.17" cy="1908.33" r="11.499" style="fill:white;"/>
            </g>
            <g transform="matrix(0.471605,0,0,0.471605,783.227,988.633)">
                <circle cx="1372.17" cy="1908.33" r="11.499" style="fill:rgb(237,237,237);"/>
            </g>
            <g transform="matrix(0.311675,0,0,0.311675,988.573,1327.87)">
                <circle cx="1372.17" cy="1908.33" r="11.499" style="fill:white;"/>
            </g>
            <g transform="matrix(0.219806,0,0,0.219806,1122.31,1510.41)">
                <circle cx="1372.17" cy="1908.33" r="11.499" style="fill:rgb(218,218,218);"/>
            </g>
            <g transform="matrix(0.434658,0,0,0.434658,822.902,1066.2)">
                <circle cx="1372.17" cy="1908.33" r="11.499" style="fill:white;"/>
            </g>
            <g transform="matrix(0.434658,0,0,0.434658,834.868,1129.13)">
                <circle cx="1372.17" cy="1908.33" r="11.499" style="fill:white;"/>
            </g>
            <g transform="matrix(0.519695,0,0,0.519695,654.71,965.129)">
                <circle cx="1372.17" cy="1908.33" r="11.499" style="fill:white;"/>
            </g>
            <g transform="matrix(0.575557,0,0,0.575557,564.943,790.585)">
                <circle cx="1372.17" cy="1908.33" r="11.499" style="fill:rgb(238,238,238);"/>
            </g>
        </g>
        <g id="Layer3">
        </g>
    </g>
</svg>
