<?xml version="1.0" encoding="UTF-8" standalone="no"?>
<!DOCTYPE svg PUBLIC "-//W3C//DTD SVG 1.1//EN" "http://www.w3.org/Graphics/SVG/1.1/DTD/svg11.dtd">
<svg width="100%" height="100%" viewBox="0 0 100 100" version="1.1" xmlns="http://www.w3.org/2000/svg" xmlns:xlink="http://www.w3.org/1999/xlink" xml:space="preserve" xmlns:serif="http://www.serif.com/" style="fill-rule:evenodd;clip-rule:evenodd;stroke-linejoin:round;stroke-miterlimit:2;">
    <g transform="matrix(1,0,0,1,-1362.16,-1876)">
        <g id="terrestrial_craters_1" transform="matrix(0.994066,0,0,0.994066,24.8357,11.0917)">
            <rect x="1345.31" y="1876.04" width="100.597" height="100.597" style="fill:none;"/>
            <g transform="matrix(0.402639,0,0,0.402639,807.699,1133.02)">
                <circle cx="1380.14" cy="1896.43" r="10.002" style="fill:rgb(222,222,222);"/>
            </g>
            <g transform="matrix(1,0,0,1,-0.770661,-0.989342)">
                <path d="M1366.61,1923.81C1366.05,1923.03 1365.09,1922.65 1364.15,1922.83C1363.93,1922.88 1363.7,1922.89 1363.47,1922.89C1361.29,1922.89 1359.52,1921.13 1359.52,1918.95C1359.52,1916.77 1361.29,1915 1363.47,1915C1364.33,1915 1365.13,1915.28 1365.78,1915.76C1366.54,1916.33 1367.57,1916.4 1368.4,1915.94C1369.16,1915.53 1370.04,1915.29 1370.97,1915.29C1373.94,1915.29 1376.35,1917.7 1376.35,1920.67C1376.35,1923.64 1373.94,1926.05 1370.97,1926.05C1369.17,1926.05 1367.58,1925.16 1366.61,1923.81Z" style="fill:rgb(241,241,241);"/>
            </g>
            <g transform="matrix(0.417205,0,0,0.417205,819.813,1145.02)">
                <circle cx="1380.14" cy="1896.43" r="10.002" style="fill:white;"/>
            </g>
            <path d="M1424.2,1922.69C1424.54,1922.88 1424.95,1922.89 1425.3,1922.71C1425.64,1922.54 1425.88,1922.2 1425.92,1921.82C1426.24,1919.28 1428.42,1917.31 1431.04,1917.31C1433.89,1917.31 1436.21,1919.63 1436.21,1922.48C1436.21,1925.33 1433.89,1927.64 1431.04,1927.64C1430.17,1927.64 1429.35,1927.43 1428.64,1927.05C1428.3,1926.86 1427.88,1926.86 1427.54,1927.04C1427.2,1927.23 1426.97,1927.56 1426.93,1927.95C1426.75,1929.51 1425.9,1930.87 1424.66,1931.72C1424.24,1932.01 1424.06,1932.54 1424.2,1933.02C1424.34,1933.45 1424.4,1933.91 1424.4,1934.38C1424.4,1937.1 1422.2,1939.3 1419.49,1939.3C1416.78,1939.3 1414.58,1937.1 1414.58,1934.38C1414.58,1932.87 1415.27,1931.51 1416.36,1930.6C1416.75,1930.28 1416.89,1929.74 1416.7,1929.27C1416.46,1928.68 1416.34,1928.03 1416.34,1927.35C1416.34,1924.42 1418.72,1922.04 1421.65,1922.04C1422.57,1922.04 1423.44,1922.28 1424.2,1922.69Z" style="fill:rgb(229,229,229);"/>
            <g transform="matrix(0.463549,0,0,0.463549,780.95,1021.05)">
                <circle cx="1380.14" cy="1896.43" r="10.002" style="fill:white;"/>
            </g>
            <g transform="matrix(1,0,0,1,-6.33885,-12.5265)">
                <path d="M1401.62,1904.71C1402.02,1904.68 1402.39,1904.46 1402.6,1904.11C1402.82,1903.77 1402.86,1903.34 1402.71,1902.97C1402.56,1902.58 1402.48,1902.17 1402.48,1901.73C1402.48,1899.8 1404.05,1898.23 1405.98,1898.23C1407.92,1898.23 1409.49,1899.8 1409.49,1901.73C1409.49,1903.07 1408.74,1904.23 1407.64,1904.82C1407.29,1905.01 1407.05,1905.36 1406.99,1905.76C1406.93,1906.15 1407.06,1906.56 1407.34,1906.84C1408.62,1908.14 1409.4,1909.92 1409.4,1911.88C1409.4,1915.85 1406.17,1919.08 1402.2,1919.08C1398.23,1919.08 1395,1915.85 1395,1911.88C1395,1908.1 1397.91,1905 1401.62,1904.71Z" style="fill:rgb(249,249,249);"/>
            </g>
            <g transform="matrix(0.289948,0,0,0.289948,1024.75,1414.4)">
                <circle cx="1380.14" cy="1896.43" r="10.002" style="fill:white;"/>
            </g>
            <g transform="matrix(0.566412,0,0,0.566412,614.76,889.736)">
                <circle cx="1380.14" cy="1896.43" r="10.002" style="fill:rgb(226,226,226);"/>
            </g>
            <g transform="matrix(0.205692,0,0,0.205692,1096.48,1547.21)">
                <circle cx="1380.14" cy="1896.43" r="10.002" style="fill:white;"/>
            </g>
            <g transform="matrix(0.546973,0,0,0.546973,619.627,919.165)">
                <circle cx="1380.14" cy="1896.43" r="10.002" style="fill:rgb(240,240,240);"/>
            </g>
            <g transform="matrix(0.660698,0,0,0.660698,523.635,633.007)">
                <circle cx="1380.14" cy="1896.43" r="10.002" style="fill:white;"/>
            </g>
        </g>
        <g id="Layer3">
        </g>
    </g>
</svg>
