<?xml version="1.0" encoding="UTF-8" standalone="no"?>
<!DOCTYPE svg PUBLIC "-//W3C//DTD SVG 1.1//EN" "http://www.w3.org/Graphics/SVG/1.1/DTD/svg11.dtd">
<svg width="100%" height="100%" viewBox="0 0 100 100" version="1.1" xmlns="http://www.w3.org/2000/svg" xmlns:xlink="http://www.w3.org/1999/xlink" xml:space="preserve" xmlns:serif="http://www.serif.com/" style="fill-rule:evenodd;clip-rule:evenodd;stroke-linejoin:round;stroke-miterlimit:2;">
    <g transform="matrix(1,0,0,1,-1637.72,-2018.11)">
        <g id="terrestrial_land_3" transform="matrix(0.994066,0,0,0.994066,300.401,153.207)">
            <rect x="1345.31" y="1876.04" width="100.597" height="100.597" style="fill:none;"/>
            <clipPath id="_clip1">
                <rect x="1345.31" y="1876.04" width="100.597" height="100.597"/>
            </clipPath>
            <g clip-path="url(#_clip1)">
                <g transform="matrix(1.00597,0,0,1.00597,-302.194,-154.121)">
                    <path d="M1737.72,2018.12L1637.72,2018.12L1637.72,2118.12L1737.72,2118.12L1737.72,2018.12ZM1672.08,2097.57C1672.85,2097.12 1673.33,2096.3 1673.33,2095.4C1673.33,2094.44 1673.33,2093.18 1673.33,2092.22C1673.33,2091.33 1673.81,2090.51 1674.58,2090.06C1675.42,2089.58 1676.52,2088.94 1677.36,2088.46C1678.13,2088.01 1679.09,2088.01 1679.86,2088.46C1680.7,2088.94 1681.8,2089.58 1682.63,2090.06C1683.41,2090.51 1683.88,2091.33 1683.88,2092.22L1683.88,2095.43C1683.88,2096.32 1683.41,2097.15 1682.63,2097.6C1681.8,2098.08 1680.7,2098.72 1679.86,2099.2C1679.09,2099.65 1678.61,2100.47 1678.61,2101.36C1678.61,2102.32 1678.61,2103.58 1678.61,2104.55C1678.61,2105.44 1678.13,2106.26 1677.36,2106.71C1676.52,2107.19 1675.42,2107.83 1674.58,2108.31C1673.81,2108.76 1672.85,2108.76 1672.08,2108.31C1671.24,2107.83 1670.14,2107.19 1669.3,2106.71C1668.53,2106.26 1667.58,2106.26 1666.8,2106.71C1665.98,2107.18 1664.91,2107.8 1664.08,2108.27C1663.31,2108.72 1662.83,2109.54 1662.83,2110.43C1662.83,2111.39 1662.83,2112.64 1662.83,2113.6C1662.83,2114.49 1662.35,2115.31 1661.58,2115.76C1660.74,2116.24 1659.64,2116.88 1658.8,2117.36C1658.03,2117.81 1657.07,2117.81 1656.3,2117.36C1655.46,2116.88 1654.36,2116.24 1653.52,2115.76C1652.75,2115.31 1652.27,2114.49 1652.27,2113.59L1652.27,2110.39C1652.27,2109.49 1652.75,2108.67 1653.52,2108.22C1654.36,2107.74 1655.46,2107.1 1656.3,2106.62C1657.07,2106.17 1657.55,2105.35 1657.55,2104.45C1657.55,2103.5 1657.55,2102.25 1657.55,2101.29C1657.56,2100.4 1658.03,2099.58 1658.8,2099.13C1659.64,2098.65 1660.74,2098.01 1661.58,2097.53C1662.36,2097.08 1663.31,2097.08 1664.08,2097.53C1664.92,2098.01 1666.02,2098.65 1666.86,2099.13C1667.63,2099.58 1668.59,2099.58 1669.36,2099.13C1670.18,2098.66 1671.25,2098.04 1672.08,2097.57ZM1712.25,2068.85C1713.02,2068.4 1713.5,2067.58 1713.5,2066.68C1713.5,2065.72 1713.5,2064.47 1713.5,2063.51C1713.5,2062.62 1713.98,2061.8 1714.75,2061.35C1715.59,2060.86 1716.69,2060.23 1717.53,2059.74C1718.3,2059.3 1719.25,2059.3 1720.03,2059.74C1720.87,2060.23 1721.97,2060.86 1722.8,2061.35C1723.58,2061.8 1724.05,2062.62 1724.05,2063.51L1724.05,2066.72C1724.05,2067.61 1723.58,2068.44 1722.8,2068.88C1721.97,2069.37 1720.88,2070 1720.04,2070.48C1719.27,2070.93 1718.79,2071.76 1718.79,2072.66C1718.8,2073.61 1718.8,2074.85 1718.81,2075.8C1718.81,2076.69 1719.29,2077.51 1720.06,2077.96C1720.9,2078.44 1722,2079.08 1722.84,2079.56C1723.61,2080.01 1724.57,2080.01 1725.34,2079.56C1726.16,2079.09 1727.23,2078.47 1728.05,2078C1728.82,2077.55 1729.78,2077.55 1730.55,2078C1731.39,2078.48 1732.49,2079.12 1733.33,2079.6C1734.1,2080.05 1734.58,2080.88 1734.58,2081.77L1734.58,2084.97C1734.58,2085.87 1734.1,2086.69 1733.33,2087.14C1732.49,2087.62 1731.39,2088.26 1730.55,2088.74C1729.78,2089.19 1728.82,2089.19 1728.05,2088.74C1727.21,2088.26 1726.11,2087.62 1725.27,2087.14C1724.5,2086.69 1723.55,2086.69 1722.77,2087.14C1721.95,2087.61 1720.89,2088.23 1720.07,2088.7C1719.3,2089.14 1718.82,2089.97 1718.82,2090.86L1718.82,2094.06C1718.82,2094.96 1718.34,2095.78 1717.57,2096.23C1716.73,2096.71 1715.63,2097.35 1714.79,2097.83C1714.02,2098.28 1713.07,2098.28 1712.29,2097.83C1711.45,2097.35 1710.36,2096.71 1709.52,2096.23C1708.74,2095.78 1708.27,2094.96 1708.27,2094.06L1708.27,2090.86C1708.27,2089.96 1708.74,2089.14 1709.52,2088.69C1710.35,2088.21 1711.44,2087.58 1712.28,2087.1C1713.06,2086.65 1713.53,2085.82 1713.53,2084.92C1713.53,2083.96 1713.52,2082.7 1713.52,2081.74C1713.51,2080.85 1713.04,2080.03 1712.27,2079.59C1711.43,2079.11 1710.32,2078.47 1709.48,2077.98C1708.71,2077.54 1708.23,2076.71 1708.23,2075.82L1708.23,2072.61C1708.23,2071.72 1708.71,2070.89 1709.48,2070.45C1710.32,2069.96 1711.41,2069.33 1712.25,2068.85ZM1657.48,2046.26C1657.48,2045.36 1657,2044.54 1656.23,2044.09C1655.39,2043.61 1654.29,2042.98 1653.46,2042.49C1652.68,2042.05 1652.21,2041.22 1652.21,2040.33C1652.21,2039.36 1652.21,2038.09 1652.21,2037.12C1652.21,2036.23 1652.68,2035.4 1653.46,2034.96C1654.3,2034.47 1655.39,2033.84 1656.23,2033.35C1657.01,2032.91 1657.96,2032.91 1658.73,2033.35C1659.57,2033.84 1660.67,2034.47 1661.51,2034.96C1662.28,2035.4 1662.76,2036.23 1662.76,2037.12C1662.76,2038.07 1662.76,2039.32 1662.76,2040.27C1662.76,2041.16 1663.24,2041.99 1664.01,2042.43C1664.85,2042.92 1665.94,2043.55 1666.78,2044.03C1667.55,2044.48 1668.03,2045.3 1668.03,2046.2C1668.03,2047.16 1668.03,2048.43 1668.03,2049.4C1668.03,2050.3 1667.55,2051.12 1666.78,2051.57C1665.25,2052.45 1662.86,2053.83 1662.79,2053.87L1662.8,2053.87L1662.8,2058.49C1662.8,2059.38 1663.27,2060.2 1664.05,2060.65C1664.88,2061.13 1665.96,2061.76 1666.79,2062.24C1667.57,2062.68 1668.04,2063.51 1668.04,2064.4C1668.04,2065.37 1668.04,2066.63 1668.04,2067.6C1668.04,2068.49 1668.52,2069.32 1669.29,2069.76C1670.13,2070.25 1671.22,2070.88 1672.06,2071.36C1672.83,2071.81 1673.31,2072.63 1673.31,2073.53L1673.31,2076.73C1673.31,2077.63 1672.83,2078.45 1672.06,2078.9C1671.22,2079.38 1670.12,2080.02 1669.28,2080.5C1668.51,2080.95 1667.56,2080.95 1666.78,2080.5C1665.94,2080.02 1664.85,2079.38 1664.01,2078.9C1663.23,2078.45 1662.76,2077.63 1662.76,2076.73L1662.76,2073.55C1662.76,2072.65 1662.27,2071.82 1661.49,2071.38C1660.68,2070.92 1659.65,2070.33 1658.85,2069.88C1658.07,2069.44 1657.13,2069.44 1656.36,2069.89C1655.52,2070.37 1654.42,2071.01 1653.57,2071.5C1652.8,2071.94 1651.85,2071.94 1651.07,2071.5C1650.24,2071.01 1649.13,2070.38 1648.3,2069.89C1647.52,2069.45 1647.05,2068.62 1647.05,2067.73L1647.05,2064.49C1647.05,2063.62 1647.51,2062.8 1648.26,2062.35C1649.09,2061.85 1650.19,2061.19 1651.03,2060.69C1651.78,2060.24 1652.24,2059.43 1652.24,2058.55C1652.24,2057.58 1652.24,2056.29 1652.24,2055.32C1652.24,2054.42 1652.72,2053.6 1653.49,2053.15C1654.32,2052.67 1655.4,2052.05 1656.23,2051.57C1657,2051.12 1657.48,2050.3 1657.48,2049.4C1657.48,2048.45 1657.48,2047.21 1657.48,2046.26ZM1686.19,2036.12C1686.96,2035.68 1687.44,2034.85 1687.44,2033.96C1687.44,2032.99 1687.44,2031.72 1687.44,2030.75C1687.44,2029.86 1687.91,2029.03 1688.69,2028.59C1689.53,2028.1 1690.62,2027.47 1691.46,2026.99C1692.24,2026.54 1693.19,2026.54 1693.96,2026.99C1694.8,2027.47 1695.9,2028.1 1696.74,2028.59C1697.51,2029.03 1697.99,2029.86 1697.99,2030.75L1697.99,2033.97C1697.99,2034.86 1698.46,2035.68 1699.23,2036.13C1700.05,2036.61 1701.13,2037.23 1701.95,2037.71C1702.72,2038.16 1703.19,2038.98 1703.19,2039.87C1703.19,2040.84 1703.19,2042.11 1703.19,2043.08C1703.19,2043.98 1702.71,2044.8 1701.94,2045.25C1701.1,2045.73 1700,2046.37 1699.16,2046.85C1698.39,2047.3 1697.44,2047.3 1696.66,2046.85C1695.84,2046.38 1694.76,2045.75 1693.94,2045.28C1693.16,2044.83 1692.21,2044.83 1691.44,2045.28C1690.61,2045.75 1689.54,2046.38 1688.71,2046.85C1687.94,2047.3 1686.98,2047.3 1686.21,2046.85C1685.37,2046.37 1684.27,2045.73 1683.43,2045.25C1682.66,2044.8 1682.18,2043.98 1682.18,2043.08L1682.18,2039.88C1682.18,2038.98 1682.66,2038.16 1683.43,2037.71C1684.27,2037.23 1685.35,2036.6 1686.19,2036.12Z" style="fill:white;"/>
                </g>
            </g>
        </g>
        <g id="Layer3">
        </g>
    </g>
</svg>
