<?xml version="1.0" encoding="UTF-8" standalone="no"?>
<!DOCTYPE svg PUBLIC "-//W3C//DTD SVG 1.1//EN" "http://www.w3.org/Graphics/SVG/1.1/DTD/svg11.dtd">
<svg width="100%" height="100%" viewBox="0 0 100 100" version="1.1" xmlns="http://www.w3.org/2000/svg" xmlns:xlink="http://www.w3.org/1999/xlink" xml:space="preserve" xmlns:serif="http://www.serif.com/" style="fill-rule:evenodd;clip-rule:evenodd;stroke-linejoin:round;stroke-miterlimit:2;">
    <g transform="matrix(1,0,0,1,-1775.62,-2407.9)">
        <g id="terrestrial_land_overlay" transform="matrix(0.994066,0,0,0.994066,438.292,542.988)">
            <rect x="1345.31" y="1876.04" width="100.597" height="100.597" style="fill:none;"/>
            <g transform="matrix(0.514325,0.890837,-0.890837,0.514325,2547.52,-396.22)">
                <path d="M1375.3,2056.32C1376.06,2055.88 1376.52,2055.07 1376.52,2054.2C1376.52,2053.24 1376.52,2051.97 1376.52,2051.01C1376.52,2050.13 1376.99,2049.33 1377.75,2048.89C1378.6,2048.4 1379.73,2047.75 1380.58,2047.25C1381.33,2046.82 1382.27,2046.82 1383.02,2047.25C1383.87,2047.75 1385,2048.4 1385.85,2048.89C1386.61,2049.33 1387.08,2050.13 1387.08,2051.01L1387.08,2054.28C1387.08,2055.15 1386.61,2055.96 1385.85,2056.39C1385,2056.88 1383.87,2057.54 1383.02,2058.03C1382.26,2058.46 1381.8,2059.27 1381.8,2060.14C1381.8,2061.11 1381.8,2062.37 1381.8,2063.33C1381.8,2064.2 1382.26,2065.01 1383.02,2065.45C1383.87,2065.94 1385,2066.59 1385.85,2067.08C1386.6,2067.51 1387.07,2068.32 1387.07,2069.2C1387.07,2070.18 1387.07,2071.48 1387.07,2072.47C1387.07,2073.34 1386.6,2074.15 1385.85,2074.58C1385,2075.07 1383.87,2075.73 1383.02,2076.22C1382.26,2076.66 1381.33,2076.66 1380.57,2076.22C1379.72,2075.73 1378.59,2075.07 1377.74,2074.58C1376.98,2074.15 1376.52,2073.34 1376.52,2072.47C1376.52,2071.49 1376.52,2070.18 1376.52,2069.2C1376.52,2068.33 1376.05,2067.52 1375.29,2067.09C1374.44,2066.6 1373.32,2065.95 1372.47,2065.45C1371.71,2065.02 1371.25,2064.21 1371.25,2063.34C1371.25,2062.36 1371.25,2061.05 1371.25,2060.07C1371.25,2059.19 1371.71,2058.39 1372.47,2057.95C1373.32,2057.46 1374.45,2056.81 1375.3,2056.32Z" style="fill:white;"/>
            </g>
            <g transform="matrix(1.04337,0,0,1.04337,-106.794,-244.928)">
                <path d="M1418.98,2050.16C1419.73,2049.73 1420.65,2049.73 1421.39,2050.16C1422.25,2050.66 1423.4,2051.32 1424.26,2051.82C1425.01,2052.24 1425.46,2053.04 1425.46,2053.9L1425.46,2057.21C1425.46,2058.07 1425.01,2058.87 1424.26,2059.3C1423.4,2059.8 1422.25,2060.46 1421.39,2060.95C1420.65,2061.39 1419.73,2061.39 1418.98,2060.95C1418.12,2060.46 1416.98,2059.8 1416.12,2059.3C1415.37,2058.87 1414.91,2058.07 1414.91,2057.21L1414.91,2053.9C1414.91,2053.04 1415.37,2052.24 1416.12,2051.82C1416.98,2051.32 1418.12,2050.66 1418.98,2050.16Z" style="fill:white;"/>
            </g>
            <g transform="matrix(1.00597,0,0,1.00597,-36.2787,-131.796)">
                <path d="M1418.94,2050.19C1419.71,2049.74 1420.66,2049.74 1421.44,2050.19C1422.28,2050.67 1423.38,2051.3 1424.21,2051.79C1424.99,2052.24 1425.46,2053.06 1425.46,2053.95L1425.46,2057.16C1425.46,2058.05 1424.99,2058.88 1424.21,2059.32C1423.38,2059.81 1422.28,2060.44 1421.44,2060.93C1420.66,2061.38 1419.71,2061.38 1418.94,2060.93C1418.1,2060.44 1417,2059.81 1416.16,2059.32C1415.39,2058.88 1414.91,2058.05 1414.91,2057.16L1414.91,2053.95C1414.91,2053.06 1415.39,2052.24 1416.16,2051.79C1417,2051.3 1418.1,2050.67 1418.94,2050.19Z" style="fill:white;"/>
            </g>
            <g transform="matrix(-1.03904,-1.27246e-16,1.27246e-16,-1.03904,2812.58,4150.93)">
                <path d="M1381.96,2110.35C1381.96,2109.49 1381.5,2108.69 1380.76,2108.26C1379.91,2107.77 1378.79,2107.12 1377.94,2106.63C1377.19,2106.2 1376.73,2105.4 1376.73,2104.53C1376.73,2103.55 1376.73,2102.22 1376.73,2101.23C1376.73,2100.37 1377.19,2099.57 1377.94,2099.14C1378.8,2098.64 1379.94,2097.98 1380.8,2097.49C1381.55,2097.06 1382.47,2097.06 1383.22,2097.49C1384.08,2097.98 1385.22,2098.64 1386.08,2099.14C1386.83,2099.57 1387.29,2100.37 1387.29,2101.23L1387.29,2104.53C1387.29,2105.4 1387.75,2106.2 1388.49,2106.63C1389.34,2107.12 1390.46,2107.77 1391.31,2108.26C1392.06,2108.69 1392.52,2109.49 1392.52,2110.35C1392.52,2111.34 1392.52,2112.66 1392.52,2113.65C1392.52,2114.52 1392.06,2115.32 1391.31,2115.75C1390.45,2116.24 1389.31,2116.9 1388.45,2117.4C1387.7,2117.83 1386.78,2117.83 1386.03,2117.4C1385.17,2116.9 1384.03,2116.24 1383.17,2115.75C1382.43,2115.32 1381.96,2114.52 1381.96,2113.65L1381.96,2110.35Z" style="fill:white;"/>
            </g>
            <g transform="matrix(0.518368,0.89784,-0.89784,0.518368,2585.91,-394.243)">
                <path d="M1381.96,2110.36C1381.96,2109.49 1381.5,2108.69 1380.75,2108.26C1379.91,2107.77 1378.79,2107.12 1377.94,2106.63C1377.19,2106.2 1376.73,2105.4 1376.73,2104.53C1376.73,2103.54 1376.73,2102.22 1376.73,2101.24C1376.73,2100.37 1377.19,2099.57 1377.95,2099.14C1378.8,2098.64 1379.94,2097.98 1380.8,2097.49C1381.55,2097.06 1382.47,2097.06 1383.22,2097.49C1384.08,2097.98 1385.22,2098.64 1386.07,2099.14C1386.82,2099.57 1387.29,2100.37 1387.29,2101.24L1387.29,2104.53C1387.29,2105.4 1387.75,2106.2 1388.5,2106.63C1389.34,2107.12 1390.46,2107.77 1391.31,2108.26C1392.06,2108.69 1392.52,2109.49 1392.52,2110.36C1392.52,2111.34 1392.52,2112.66 1392.52,2113.65C1392.52,2114.52 1392.06,2115.32 1391.31,2115.75C1390.45,2116.24 1389.31,2116.9 1388.45,2117.4C1387.7,2117.83 1386.78,2117.83 1386.03,2117.4C1385.17,2116.9 1384.03,2116.24 1383.18,2115.75C1382.43,2115.32 1381.96,2114.52 1381.96,2113.65L1381.96,2110.36Z" style="fill:white;"/>
            </g>
        </g>
        <g id="Layer3">
        </g>
    </g>
</svg>
