<?xml version="1.0" encoding="UTF-8" standalone="no"?>
<!DOCTYPE svg PUBLIC "-//W3C//DTD SVG 1.1//EN" "http://www.w3.org/Graphics/SVG/1.1/DTD/svg11.dtd">
<svg width="100%" height="100%" viewBox="0 0 11 17" version="1.1" xmlns="http://www.w3.org/2000/svg" xmlns:xlink="http://www.w3.org/1999/xlink" xml:space="preserve" xmlns:serif="http://www.serif.com/" style="fill-rule:evenodd;clip-rule:evenodd;stroke-linejoin:round;stroke-miterlimit:2;">
    <g transform="matrix(1,0,0,1,-148,-123)">
        <g id="Background---Hand" serif:id="Background - Hand">
            <g transform="matrix(1,0,0,1,152.948,138.014)">
                <path d="M0,-3.694C0,-3.694 0.117,-1.758 -2.167,1.536C-2.167,1.536 3.818,0.697 5.641,-5.23L0,-3.694Z" style="fill:white;fill-rule:nonzero;"/>
            </g>
            <g opacity="0.5">
                <g transform="matrix(1,0,0,1,152.948,138.014)">
                    <path d="M0,-3.694C0,-3.694 0.117,-1.758 -2.167,1.536C-2.167,1.536 3.818,0.697 5.641,-5.23L0,-3.694Z" style="fill-rule:nonzero;"/>
                </g>
            </g>
            <g transform="matrix(1,0,0,1,150.17,132.104)">
                <path d="M0,-7.382C-1.516,-5.834 -2.218,-3.983 -1.254,-2.736C-0.291,-1.488 1.107,-1.156 1.46,0.614C1.812,2.384 1.772,3.511 4.513,3.156C7.253,2.802 9.083,1.679 8.577,-1.973C8.07,-5.626 3.437,-10.893 0,-7.382" style="fill:rgb(146,217,0);fill-rule:nonzero;"/>
            </g>
            <g opacity="0.5">
                <g transform="matrix(1,0,0,1,150.17,132.104)">
                    <path d="M0,-7.382C-1.516,-5.834 -2.218,-3.983 -1.254,-2.736C-0.291,-1.488 1.107,-1.156 1.46,0.614C1.812,2.384 1.772,3.511 4.513,3.156C7.253,2.802 9.083,1.679 8.577,-1.973C8.07,-5.626 3.437,-10.893 0,-7.382" style="fill-rule:nonzero;"/>
                </g>
            </g>
            <g transform="matrix(1,0,0,1,150.17,135.568)">
                <path d="M0,-10.846C-0.673,-9.854 -1.27,-8.768 -1.296,-7.712C-1.288,-7.189 -1.152,-6.742 -0.79,-6.379C-0.44,-5.975 0.011,-5.638 0.494,-5.242C0.966,-4.842 1.46,-4.303 1.712,-3.646C1.948,-2.966 1.968,-2.366 2.065,-1.809C2.164,-1.249 2.316,-0.807 2.806,-0.597C3.289,-0.373 3.911,-0.345 4.513,-0.308C3.931,-0.131 3.323,0 2.651,-0.132C2.32,-0.205 1.974,-0.407 1.748,-0.701C1.519,-0.992 1.406,-1.321 1.307,-1.624C1.111,-2.228 1.048,-2.845 0.837,-3.284C0.63,-3.744 0.293,-4.118 -0.155,-4.482C-0.583,-4.86 -1.103,-5.247 -1.516,-5.775C-1.97,-6.303 -2.188,-7.106 -2.071,-7.774C-1.85,-9.136 -0.962,-10.128 0,-10.846" style="fill:rgb(56,66,0);fill-rule:nonzero;"/>
            </g>
        </g>
    </g>
</svg>
