<?xml version="1.0" encoding="UTF-8" standalone="no"?>
<!DOCTYPE svg PUBLIC "-//W3C//DTD SVG 1.1//EN" "http://www.w3.org/Graphics/SVG/1.1/DTD/svg11.dtd">
<svg width="100%" height="100%" viewBox="0 0 22 12" version="1.1" xmlns="http://www.w3.org/2000/svg" xmlns:xlink="http://www.w3.org/1999/xlink" xml:space="preserve" xmlns:serif="http://www.serif.com/" style="fill-rule:evenodd;clip-rule:evenodd;stroke-linejoin:round;stroke-miterlimit:2;">
    <g transform="matrix(1,0,0,1,-132,-118)">
        <g id="Background---Lower-Arm" serif:id="Background - Lower Arm">
            <g transform="matrix(1,0,0,1,148.504,118.37)">
                <path d="M0,10.277C-3.45,10.465 -7.513,10.484 -10.321,10.535C-13.13,10.587 -16.553,7.809 -14.866,4.088C-13.178,0.366 -9.228,-0.31 -6.115,0.542C-3.001,1.394 1.674,3.415 4.212,5.201C6.75,6.987 3.45,10.088 0,10.277" style="fill:rgb(146,217,0);fill-rule:nonzero;"/>
            </g>
            <g opacity="0.5">
                <g transform="matrix(1,0,0,1,148.504,118.37)">
                    <path d="M0,10.277C-3.45,10.465 -7.513,10.484 -10.321,10.535C-13.13,10.587 -16.553,7.809 -14.866,4.088C-13.178,0.366 -9.228,-0.31 -6.115,0.542C-3.001,1.394 1.674,3.415 4.212,5.201C6.75,6.987 3.45,10.088 0,10.277" style="fill-rule:nonzero;"/>
                </g>
            </g>
            <g transform="matrix(1,0,0,1,148.504,118.964)">
                <path d="M0,9.683C-2.485,9.924 -4.96,10.266 -7.474,10.36C-8.726,10.393 -10.005,10.391 -11.29,10.086C-12.555,9.784 -13.803,9.134 -14.666,8.037C-15.087,7.489 -15.389,6.838 -15.537,6.155C-15.678,5.468 -15.636,4.772 -15.522,4.106C-15.275,2.801 -14.61,1.508 -13.532,0.662C-12.463,-0.192 -11.13,-0.554 -9.854,-0.64C-8.567,-0.71 -7.287,-0.497 -6.115,-0.052C-7.35,-0.259 -8.598,-0.29 -9.794,-0.094C-10.988,0.085 -12.129,0.552 -12.976,1.32C-13.839,2.076 -14.341,3.151 -14.557,4.289C-14.639,4.854 -14.663,5.419 -14.567,5.963C-14.458,6.503 -14.233,7.012 -13.901,7.458C-13.256,8.375 -12.199,8.992 -11.088,9.391C-9.969,9.8 -8.711,9.799 -7.479,9.834C-4.997,9.894 -2.5,9.685 0,9.683" style="fill:rgb(56,66,0);fill-rule:nonzero;"/>
            </g>
        </g>
    </g>
</svg>
