<?xml version="1.0" encoding="UTF-8" standalone="no"?>
<!DOCTYPE svg PUBLIC "-//W3C//DTD SVG 1.1//EN" "http://www.w3.org/Graphics/SVG/1.1/DTD/svg11.dtd">
<svg width="100%" height="100%" viewBox="0 0 24 13" version="1.1" xmlns="http://www.w3.org/2000/svg" xmlns:xlink="http://www.w3.org/1999/xlink" xml:space="preserve" xmlns:serif="http://www.serif.com/" style="fill-rule:evenodd;clip-rule:evenodd;stroke-linejoin:round;stroke-miterlimit:2;">
    <g transform="matrix(1,0,0,1,-117,-121)">
        <g id="Foreground---Lower-Arm" serif:id="Foreground - Lower Arm">
            <g transform="matrix(1,0,0,1,134.431,121.513)">
                <path d="M0,12.105C-3.777,12.105 -8.211,11.882 -11.28,11.771C-14.348,11.659 -17.918,8.423 -15.854,4.462C-13.79,0.502 -9.439,0 -6.092,1.115C-2.745,2.231 2.237,4.716 4.901,6.817C7.564,8.918 3.777,12.105 0,12.105" style="fill:rgb(146,217,0);fill-rule:nonzero;"/>
            </g>
            <g opacity="0.3">
                <g transform="matrix(1,0,0,1,123.527,128.996)">
                    <path d="M0,1.603C-3.583,0.686 -4.951,-3.02 -4.951,-3.02C-7.015,0.941 -3.444,4.176 -0.376,4.288C2.692,4.399 7.127,4.623 10.904,4.623C12.796,4.623 14.69,3.823 15.776,2.76C15.776,2.76 8.405,3.753 0,1.603" style="fill-rule:nonzero;"/>
                </g>
            </g>
            <g opacity="0.5">
                <g transform="matrix(-0.112743,0.993624,0.993624,0.112743,129.076,114.492)">
                    <path d="M12.595,-9.139C8.427,-7.534 7.437,-3.267 8.168,0.185C8.676,2.582 10.45,8.497 12.595,11.75C12.595,11.75 8.941,3.737 9.197,-1.468C9.4,-5.595 12.595,-9.139 12.595,-9.139" style="fill:white;fill-rule:nonzero;"/>
                </g>
            </g>
            <g transform="matrix(1,0,0,1,134.431,122.107)">
                <path d="M0,11.511C-2.727,11.615 -5.449,11.834 -8.196,11.779C-9.564,11.738 -10.958,11.659 -12.334,11.245C-13.689,10.836 -15.004,10.053 -15.87,8.814C-16.294,8.196 -16.582,7.474 -16.7,6.727C-16.812,5.975 -16.725,5.224 -16.563,4.509C-16.217,3.106 -15.422,1.744 -14.206,0.889C-12.998,0.025 -11.53,-0.297 -10.136,-0.319C-8.731,-0.323 -7.348,-0.023 -6.092,0.521C-7.424,0.211 -8.786,0.094 -10.107,0.23C-11.424,0.349 -12.705,0.785 -13.686,1.577C-14.684,2.353 -15.304,3.508 -15.609,4.744C-15.734,5.36 -15.796,5.981 -15.722,6.588C-15.633,7.19 -15.415,7.766 -15.076,8.278C-14.416,9.326 -13.291,10.064 -12.095,10.562C-10.89,11.072 -9.516,11.146 -8.172,11.255C-5.465,11.461 -2.729,11.375 0,11.511" style="fill:rgb(69,86,0);fill-rule:nonzero;"/>
            </g>
        </g>
    </g>
</svg>
