<?xml version="1.0" encoding="UTF-8" standalone="no"?>
<!DOCTYPE svg PUBLIC "-//W3C//DTD SVG 1.1//EN" "http://www.w3.org/Graphics/SVG/1.1/DTD/svg11.dtd">
<svg width="100%" height="100%" viewBox="0 0 17 29" version="1.1" xmlns="http://www.w3.org/2000/svg" xmlns:xlink="http://www.w3.org/1999/xlink" xml:space="preserve" xmlns:serif="http://www.serif.com/" style="fill-rule:evenodd;clip-rule:evenodd;stroke-linejoin:round;stroke-miterlimit:2;">
    <g transform="matrix(1,0,0,1,-114,-101)">
        <g id="Foreground---Upper-Arm" serif:id="Foreground - Upper Arm">
            <g transform="matrix(1,0,0,1,117.523,106.389)">
                <path d="M0,19.194C-1.314,15.047 -2.461,13.227 -2.461,5.919C-2.461,-1.389 1.276,-4.848 5.293,-4.848C9.31,-4.848 12.769,-2.393 12.769,5.027C12.769,12.446 11.915,13.712 10.035,18.471C8.155,23.23 1.536,24.042 0,19.194" style="fill:rgb(146,217,0);fill-rule:nonzero;"/>
            </g>
            <g opacity="0.3">
                <g transform="matrix(1,0,0,1,130.291,130.432)">
                    <path d="M0,-19.016C0,-11.597 -0.854,-10.331 -2.733,-5.572C-4.613,-0.812 -11.232,0 -12.769,-4.849C-14.083,-8.996 -15.229,-10.815 -15.229,-18.123C-15.229,-18.123 -14.173,-12.775 -7.615,-12.775C-1.056,-12.775 0,-19.016 0,-19.016" style="fill-rule:nonzero;"/>
                </g>
            </g>
            <g opacity="0.5">
                <g transform="matrix(0.00841587,-0.999965,-0.999965,-0.00841587,125.6,97.3651)">
                    <path d="M-9.525,-4.222C-5.576,-3.059 -4.175,-0.311 -4.2,2.749C-4.224,5.573 -5.957,8.245 -9.525,9.561C-9.525,9.561 -5.481,6.914 -5.446,2.704C-5.411,-1.507 -9.525,-4.222 -9.525,-4.222" style="fill:white;fill-rule:nonzero;"/>
                </g>
            </g>
            <g transform="matrix(1,0,0,1,130.291,129.732)">
                <path d="M0,-18.316C0.214,-16.635 0.311,-14.945 0.287,-13.236C0.247,-11.534 0.077,-9.791 -0.431,-8.099C-0.674,-7.253 -0.984,-6.423 -1.354,-5.637C-1.537,-5.242 -1.727,-4.856 -1.921,-4.472C-2.135,-4.069 -2.365,-3.659 -2.64,-3.281C-3.72,-1.767 -5.361,-0.531 -7.344,-0.163C-8.332,0 -9.388,-0.094 -10.344,-0.472C-11.295,-0.858 -12.131,-1.504 -12.717,-2.29C-13.014,-2.68 -13.266,-3.094 -13.467,-3.523C-13.676,-3.954 -13.822,-4.322 -13.992,-4.734C-14.322,-5.538 -14.591,-6.376 -14.803,-7.221C-15.66,-10.618 -15.624,-14.071 -15.229,-17.423C-14.805,-14.073 -14.39,-10.731 -13.318,-7.669C-13.047,-6.905 -12.73,-6.165 -12.391,-5.427C-12.028,-4.669 -11.708,-3.985 -11.245,-3.471C-10.357,-2.381 -9.025,-1.876 -7.678,-2.133C-6.323,-2.345 -5.058,-3.238 -4.148,-4.406C-3.91,-4.695 -3.71,-5.009 -3.511,-5.337C-3.305,-5.693 -3.104,-6.05 -2.914,-6.408C-2.54,-7.127 -2.186,-7.845 -1.894,-8.593C-0.731,-11.586 -0.433,-14.972 0,-18.316" style="fill:rgb(69,86,0);fill-rule:nonzero;"/>
            </g>
        </g>
    </g>
</svg>
