<?xml version="1.0" encoding="UTF-8" standalone="no"?>
<!DOCTYPE svg PUBLIC "-//W3C//DTD SVG 1.1//EN" "http://www.w3.org/Graphics/SVG/1.1/DTD/svg11.dtd">
<svg width="100%" height="100%" viewBox="0 0 12 18" version="1.1" xmlns="http://www.w3.org/2000/svg" xmlns:xlink="http://www.w3.org/1999/xlink" xml:space="preserve" xmlns:serif="http://www.serif.com/" style="fill-rule:evenodd;clip-rule:evenodd;stroke-linejoin:round;stroke-miterlimit:2;">
    <g transform="matrix(1,0,0,1,-134,-128)">
        <g id="Foreground---Hand" serif:id="Foreground - Hand">
            <g transform="matrix(1,0,0,1,138.941,144.316)">
                <path d="M0,-4.24C0,-4.24 0.012,-2.12 -2.678,1.339C-2.678,1.339 3.905,0.781 6.248,-5.579L0,-4.24Z" style="fill:white;fill-rule:nonzero;"/>
            </g>
            <g transform="matrix(1,0,0,1,136.483,137.803)">
                <path d="M0,-8.368C-1.747,-6.769 -2.623,-4.791 -1.646,-3.372C-0.669,-1.953 0.837,-1.507 1.116,0.446C1.395,2.399 1.283,3.626 4.296,3.403C7.308,3.179 9.372,2.064 9.038,-1.953C8.703,-5.97 3.961,-11.994 0,-8.368" style="fill:rgb(146,217,0);fill-rule:nonzero;"/>
            </g>
            <g opacity="0.3">
                <g transform="matrix(1,0,0,1,144.926,131.553)">
                    <path d="M0,7.757C-0.797,9.039 -2.292,9.515 -4.146,9.652C-7.159,9.875 -7.047,8.648 -7.327,6.695C-7.605,4.743 -9.112,4.297 -10.088,2.878C-11.065,1.459 -10.189,-0.519 -8.442,-2.118C-8.442,-2.118 -9.951,1.186 -8.442,2.322C-6.934,3.458 -5.802,5.009 -5.594,6.673C-5.248,9.444 0,7.757 0,7.757" style="fill-rule:nonzero;"/>
                </g>
            </g>
            <g transform="matrix(1,0,0,1,136.483,141.439)">
                <path d="M0,-12.004C-0.817,-10.983 -1.53,-9.825 -1.638,-8.665C-1.666,-8.087 -1.542,-7.576 -1.164,-7.15C-0.804,-6.682 -0.329,-6.285 0.173,-5.824C0.663,-5.361 1.163,-4.752 1.397,-4.029C1.614,-3.283 1.602,-2.627 1.679,-2.011C1.755,-1.393 1.909,-0.885 2.441,-0.63C2.963,-0.345 3.643,-0.301 4.296,-0.233C3.649,-0.083 2.98,0 2.262,-0.173C1.909,-0.275 1.552,-0.513 1.328,-0.843C1.1,-1.171 0.999,-1.532 0.912,-1.867C0.738,-2.536 0.708,-3.212 0.504,-3.715C0.303,-4.239 -0.049,-4.675 -0.517,-5.101C-0.964,-5.541 -1.505,-5.991 -1.921,-6.586C-2.382,-7.181 -2.57,-8.055 -2.408,-8.77C-2.101,-10.234 -1.07,-11.255 0,-12.004" style="fill:rgb(69,86,0);fill-rule:nonzero;"/>
            </g>
            <g opacity="0.5">
                <g transform="matrix(1,0,0,1,136.483,132.224)">
                    <path d="M0,-2.789C3.961,-6.415 8.703,-0.391 9.038,3.626C9.038,3.626 7.716,-1.225 4.401,-2.621C1.63,-3.789 0,-2.789 0,-2.789" style="fill:white;fill-rule:nonzero;"/>
                </g>
            </g>
        </g>
    </g>
</svg>
