<?xml version="1.0" encoding="UTF-8" standalone="no"?>
<!DOCTYPE svg PUBLIC "-//W3C//DTD SVG 1.1//EN" "http://www.w3.org/Graphics/SVG/1.1/DTD/svg11.dtd">
<svg width="100%" height="100%" viewBox="0 0 22 36" version="1.1" xmlns="http://www.w3.org/2000/svg" xmlns:xlink="http://www.w3.org/1999/xlink" xml:space="preserve" xmlns:serif="http://www.serif.com/" style="fill-rule:evenodd;clip-rule:evenodd;stroke-linejoin:round;stroke-miterlimit:2;">
    <g transform="matrix(1,0,0,1,-69,-140)">
        <g id="Foreground---Lower-Leg" serif:id="Foreground - Lower Leg">
            <g transform="matrix(0.969319,0.245808,0.245808,-0.969319,68.4536,172.987)">
                <path d="M4.554,-1.51C4.554,-1.51 3.668,8.797 1.058,12.28C-1.551,15.761 -10.37,30.79 4.554,34.575C18.424,38.092 18.71,13.474 13.152,0.67L4.554,-1.51Z" style="fill:rgb(146,217,0);fill-rule:nonzero;"/>
            </g>
            <g opacity="0.4">
                <g transform="matrix(0.969319,0.245808,0.245808,-0.969319,68.4536,172.987)">
                    <path d="M4.554,-1.51C4.554,-1.51 3.668,8.797 1.058,12.28C-1.551,15.761 -10.37,30.79 4.554,34.575C18.424,38.092 18.71,13.474 13.152,0.67L4.554,-1.51Z" style="fill-rule:nonzero;"/>
                </g>
            </g>
            <g transform="matrix(1,0,0,1,86.9785,164.896)">
                <path d="M0,-22.437C1.629,-21.276 2.647,-19.349 3.104,-17.396C3.599,-15.428 3.636,-13.391 3.496,-11.397C3.138,-7.409 1.99,-3.535 0.217,0C1.249,-3.813 2.178,-7.614 2.5,-11.479C2.655,-13.404 2.66,-15.345 2.343,-17.235C2.024,-19.113 1.358,-20.981 0,-22.437" style="fill:rgb(69,86,0);fill-rule:nonzero;"/>
            </g>
            <g transform="matrix(1,0,0,1,72.4971,140.2)">
                <path d="M0,21.145C-1.248,19.141 -2.07,16.888 -2.569,14.557C-3.064,12.225 -3.2,9.753 -2.643,7.298C-2.335,6.085 -1.847,4.879 -1.099,3.822C-0.335,2.782 0.646,1.881 1.777,1.302C4.047,0.124 6.569,0 8.87,0.393C6.564,0.825 4.334,1.419 2.589,2.635C0.86,3.857 -0.234,5.686 -0.7,7.766C-1.212,9.839 -1.194,12.089 -1.031,14.331C-0.84,16.583 -0.474,18.846 0,21.145" style="fill:rgb(69,86,0);fill-rule:nonzero;"/>
            </g>
            <g transform="matrix(0.620373,0.784307,0.784307,-0.620373,80.7636,171.03)">
                <path d="M3.804,-2.508C3.804,-2.508 1.236,2.87 2.176,4.058L3.804,6.117C4.305,6.75 9.379,4.54 9.379,4.54L3.804,-2.508Z" style="fill:rgb(204,204,204);fill-rule:nonzero;"/>
            </g>
            <g transform="matrix(0.620373,0.784307,0.784307,-0.620373,77.6268,171.03)">
                <path d="M3.804,-2.508C3.804,-2.508 1.236,2.87 2.176,4.058L3.804,6.117C4.305,6.751 9.379,4.54 9.379,4.54L3.804,-2.508Z" style="fill:white;fill-rule:nonzero;"/>
            </g>
        </g>
    </g>
</svg>
