<?xml version="1.0" encoding="UTF-8" standalone="no"?>
<!DOCTYPE svg PUBLIC "-//W3C//DTD SVG 1.1//EN" "http://www.w3.org/Graphics/SVG/1.1/DTD/svg11.dtd">
<svg width="100%" height="100%" viewBox="0 0 36 49" version="1.1" xmlns="http://www.w3.org/2000/svg" xmlns:xlink="http://www.w3.org/1999/xlink" xml:space="preserve" xmlns:serif="http://www.serif.com/" style="fill-rule:evenodd;clip-rule:evenodd;stroke-linejoin:round;stroke-miterlimit:2;">
    <g transform="matrix(1,0,0,1,-65,-113)">
        <g id="Foreground---Upper-Leg" serif:id="Foreground - Upper Leg">
            <g transform="matrix(1,0,0,1,69.5864,123.657)">
                <path d="M0,27.266C-2.125,23.64 -4.007,19.492 -4.007,8.344C-4.007,-4.152 5.11,-10.456 14.303,-10.456C23.496,-10.456 30.581,-5.603 30.581,10.408C30.581,26.418 22.332,32.638 20.48,34.117C18.628,35.596 13.883,37.722 8.433,35.192C4.796,33.503 2.125,30.892 0,27.266" style="fill:rgb(146,217,0);fill-rule:nonzero;"/>
            </g>
            <g opacity="0.3">
                <g transform="matrix(1,0,0,1,99.6899,160.161)">
                    <path d="M0,-32.664C2.861,-12.57 -7.771,-4.512 -9.624,-3.033C-11.476,-1.554 -16.221,0.572 -21.67,-1.958C-25.308,-3.646 -27.91,-6.664 -29.952,-10.338C-34.11,-17.82 -34.69,-23.549 -33.555,-33.236C-33.555,-33.236 -28.398,-21.353 -16.417,-21.353C-4.436,-21.353 0,-32.664 0,-32.664" style="fill-rule:nonzero;"/>
                </g>
            </g>
            <g transform="matrix(1,0,0,1,98.2358,161.051)">
                <path d="M0,-38.938C1.668,-35.395 2.204,-31.413 2.414,-27.514C2.541,-23.597 2.265,-19.601 1.123,-15.772C0.049,-11.939 -1.865,-8.284 -4.582,-5.28C-5.25,-4.52 -6,-3.831 -6.766,-3.174C-7.49,-2.548 -8.398,-1.849 -9.345,-1.399C-11.23,-0.449 -13.338,0.01 -15.449,-0.036C-16.505,-0.075 -17.548,-0.26 -18.56,-0.536C-19.561,-0.836 -20.541,-1.243 -21.436,-1.716C-23.247,-2.665 -24.917,-3.917 -26.31,-5.411C-27.706,-6.9 -28.845,-8.607 -29.788,-10.351C-30.752,-12.094 -31.544,-13.987 -32.027,-15.93C-33.041,-19.816 -33.176,-23.778 -33.131,-27.68C-33.136,-31.581 -32.386,-35.655 -30.261,-38.948C-31.112,-37.197 -31.673,-35.332 -31.975,-33.438C-32.284,-31.532 -32.282,-29.632 -32.151,-27.694C-31.967,-23.842 -31.608,-19.97 -30.525,-16.354C-29.988,-14.543 -29.206,-12.851 -28.261,-11.211C-27.317,-9.562 -26.238,-8.039 -24.941,-6.72C-23.654,-5.4 -22.175,-4.287 -20.534,-3.449C-19.707,-3.022 -18.881,-2.693 -18.02,-2.438C-17.156,-2.211 -16.274,-2.064 -15.386,-2.034C-13.613,-1.98 -11.812,-2.356 -10.219,-3.145C-9.403,-3.531 -8.756,-4.021 -8.003,-4.654C-7.29,-5.256 -6.603,-5.882 -5.967,-6.563C-3.386,-9.264 -1.554,-12.644 -0.363,-16.23C0.849,-19.826 1.333,-23.662 1.439,-27.504C1.555,-31.349 1.241,-35.242 0,-38.938" style="fill:rgb(69,86,0);fill-rule:nonzero;"/>
            </g>
            <g opacity="0.5">
                <g transform="matrix(-0.000330458,1,1,0.000330458,78.6641,102.525)">
                    <path d="M19.581,-10.683C19.581,-10.683 10.678,-6.398 10.674,5.229C10.67,16.992 19.581,19.578 19.581,19.578C19.581,19.578 13.406,14.927 13.409,4.967C13.413,-4.981 19.581,-10.683 19.581,-10.683" style="fill:white;fill-rule:nonzero;"/>
                </g>
            </g>
        </g>
    </g>
</svg>
