<?xml version="1.0" encoding="UTF-8" standalone="no"?>
<!DOCTYPE svg PUBLIC "-//W3C//DTD SVG 1.1//EN" "http://www.w3.org/Graphics/SVG/1.1/DTD/svg11.dtd">
<svg width="100%" height="100%" viewBox="0 0 20 36" version="1.1" xmlns="http://www.w3.org/2000/svg" xmlns:xlink="http://www.w3.org/1999/xlink" xml:space="preserve" xmlns:serif="http://www.serif.com/" style="fill-rule:evenodd;clip-rule:evenodd;stroke-linejoin:round;stroke-miterlimit:2;">
    <g transform="matrix(1,0,0,1,-91,-140)">
        <g id="Background---Lower-Leg" serif:id="Background - Lower Leg">
            <g transform="matrix(0.969319,0.245808,0.245808,-0.969319,89.1753,172.987)">
                <path d="M4.554,-1.51C4.554,-1.51 3.667,8.797 1.058,12.28C-1.552,15.761 -10.37,30.79 4.554,34.575C18.424,38.092 18.71,13.474 13.152,0.67L4.554,-1.51Z" style="fill:rgb(146,217,0);fill-rule:nonzero;"/>
            </g>
            <g opacity="0.5">
                <g transform="matrix(0.969319,0.245808,0.245808,-0.969319,89.1753,172.987)">
                    <path d="M4.554,-1.51C4.554,-1.51 3.667,8.797 1.058,12.28C-1.552,15.761 -10.37,30.79 4.554,34.575C18.424,38.092 18.71,13.474 13.152,0.67L4.554,-1.51Z" style="fill-rule:nonzero;"/>
                </g>
            </g>
            <g transform="matrix(0.620373,0.784307,0.784307,-0.620373,101.409,171.03)">
                <path d="M3.804,-2.508C3.804,-2.508 1.236,2.87 2.176,4.058L3.804,6.117C4.305,6.75 9.379,4.54 9.379,4.54L3.804,-2.508Z" style="fill:rgb(204,204,204);fill-rule:nonzero;"/>
            </g>
            <g opacity="0.3">
                <g transform="matrix(0.620373,0.784307,0.784307,-0.620373,101.409,171.03)">
                    <path d="M3.804,-2.508C3.804,-2.508 1.236,2.87 2.176,4.058L3.804,6.117C4.305,6.75 9.379,4.54 9.379,4.54L3.804,-2.508Z" style="fill-rule:nonzero;"/>
                </g>
            </g>
            <g transform="matrix(0.620373,0.784307,0.784307,-0.620373,98.2728,171.03)">
                <path d="M3.804,-2.508C3.804,-2.508 1.236,2.87 2.176,4.058L3.804,6.117C4.305,6.75 9.379,4.54 9.379,4.54L3.804,-2.508Z" style="fill:white;fill-rule:nonzero;"/>
            </g>
            <g opacity="0.3">
                <g transform="matrix(0.620373,0.784307,0.784307,-0.620373,98.2728,171.03)">
                    <path d="M3.804,-2.508C3.804,-2.508 1.236,2.87 2.176,4.058L3.804,6.117C4.305,6.75 9.379,4.54 9.379,4.54L3.804,-2.508Z" style="fill-rule:nonzero;"/>
                </g>
            </g>
        </g>
    </g>
</svg>
