<?xml version="1.0" encoding="UTF-8" standalone="no"?>
<!DOCTYPE svg PUBLIC "-//W3C//DTD SVG 1.1//EN" "http://www.w3.org/Graphics/SVG/1.1/DTD/svg11.dtd">
<svg width="100%" height="100%" viewBox="0 0 78 55" version="1.1" xmlns="http://www.w3.org/2000/svg" xmlns:xlink="http://www.w3.org/1999/xlink" xml:space="preserve" xmlns:serif="http://www.serif.com/" style="fill-rule:evenodd;clip-rule:evenodd;stroke-linejoin:round;stroke-miterlimit:2;">
    <g transform="matrix(1,0,0,1,-243,-33)">
        <g id="Carnivore-Head" serif:id="Carnivore Head">
            <g transform="matrix(1,0,0,1,301.027,73.2698)">
                <path d="M0,-25.035C-7.705,-25.766 -12.15,-31.751 -19.493,-34.885C-26.836,-38.019 -35.164,-41.691 -45.462,-37.303C-55.76,-32.915 -57.372,-23.871 -57.192,-16.438C-57.014,-9.006 -50.835,0.575 -42.686,5.501C-34.537,10.425 -27.105,9.172 -17.255,12.306C-7.404,15.44 4.685,16.656 7.908,6.288C11.132,-4.081 7.704,-24.304 0,-25.035" style="fill:rgb(146,217,0);fill-rule:nonzero;"/>
            </g>
            <g transform="matrix(1,0,0,1,290.802,77.6048)">
                <path d="M0,-29.415C0,-29.415 14.238,-34.25 22.566,-27.4C30.894,-20.55 29.404,-10.073 27.536,-5.237C25.601,-0.23 19.787,4.835 9.134,0.002C-5.373,-6.581 -10.074,-18.266 -25.118,-18.266C-40.162,-18.266 -41.371,-6.983 -35.058,-0.805" style="fill:rgb(146,217,0);fill-rule:nonzero;"/>
            </g>
            <g opacity="0.5">
                <g transform="matrix(1,0,0,1,244.382,33.0051)">
                    <path d="M0,16.672C0,16.672 0.91,9.006 8.017,4.617C12.714,1.717 19.005,0 26.124,1.514C26.124,1.514 7.762,0.221 0,16.672" style="fill:white;fill-rule:nonzero;"/>
                </g>
            </g>
            <g transform="matrix(1,0,0,1,280.392,72.8375)">
                <path d="M0,-8.361L0.47,0L5.578,-4.18L0,-8.361Z" style="fill:white;fill-rule:nonzero;"/>
            </g>
            <g transform="matrix(1,0,0,1,286.335,76.397)">
                <path d="M0,-7.32L0.172,0L5.239,-3.358L0,-7.32Z" style="fill:white;fill-rule:nonzero;"/>
            </g>
            <g transform="matrix(1,0,0,1,291.978,80.595)">
                <path d="M0,-7.119L0.905,0L6.177,-3.559L0,-7.119Z" style="fill:white;fill-rule:nonzero;"/>
            </g>
            <g transform="matrix(1,0,0,1,298.488,83.2814)">
                <path d="M0,-5.843L1.243,0L5.742,-3.895L0,-5.843Z" style="fill:white;fill-rule:nonzero;"/>
            </g>
            <g transform="matrix(1,0,0,1,264.744,37.748)">
                <path d="M0,2.517C0,2.517 4.57,-3.356 11.96,-3.712C18.536,-4.03 17.864,2.114 21.223,6.547" style="fill:rgb(146,217,0);fill-rule:nonzero;"/>
            </g>
            <g transform="matrix(1,0,0,1,264.744,37.073)">
                <path d="M0,3.192C1.238,1.088 3.081,-0.675 5.234,-1.954C7.393,-3.244 9.894,-4.025 12.507,-4.03C13.814,-4.02 15.292,-3.714 16.446,-2.816C17.585,-1.913 18.278,-0.705 18.734,0.452C19.664,2.782 20.106,5.045 21.223,7.222C19.42,5.54 18.428,3.13 17.329,1.13C16.753,0.14 16.147,-0.764 15.333,-1.284C14.55,-1.835 13.557,-2.049 12.484,-2.032C11.962,-2.077 11.387,-1.981 10.834,-1.951C10.282,-1.859 9.725,-1.787 9.18,-1.647C8.069,-1.437 7.013,-1.006 5.951,-0.575C3.847,0.351 1.86,1.638 0,3.192" style="fill-rule:nonzero;"/>
            </g>
            <g opacity="0.5">
                <g transform="matrix(-0.109604,0.993975,0.993975,0.109604,274.152,27.9317)">
                    <path d="M12.08,-7.116C12.08,-7.116 5.773,-2.289 5.678,4.856C5.678,4.856 5.539,8.292 12.08,11.45C12.08,11.45 7.943,8.302 8.208,3.753C8.497,-1.228 12.08,-7.116 12.08,-7.116" style="fill:white;fill-rule:nonzero;"/>
                </g>
            </g>
            <g opacity="0.5">
                <g transform="matrix(-0.366538,0.930403,0.930403,0.366538,314.164,40.813)">
                    <path d="M14.67,-18.065C14.67,-18.065 8.879,-10.317 8.377,-2.945C7.873,4.428 12.386,9.015 14.67,10.922C14.67,10.922 9.402,3.421 10.075,-3.58C10.749,-10.583 14.67,-18.065 14.67,-18.065" style="fill:white;fill-rule:nonzero;"/>
                </g>
            </g>
            <g opacity="0.3">
                <g transform="matrix(0.648912,0.760863,0.760863,-0.648912,306.657,56.934)">
                    <path d="M1.686,-0.778C-0.015,-0.778 -1.395,0.213 -1.396,1.438C-1.396,2.66 -0.017,3.652 1.685,3.653C3.386,3.653 4.766,2.662 4.766,1.438C4.767,0.214 3.387,-0.778 1.686,-0.778" style="fill-rule:nonzero;"/>
                </g>
            </g>
            <g transform="matrix(0.649015,0.760776,0.760776,-0.649015,306.947,56.4568)">
                <path d="M1.43,-0.659C-0.089,-0.66 -1.32,0.182 -1.32,1.22C-1.321,2.258 -0.089,3.1 1.43,3.099C2.949,3.099 4.18,2.258 4.181,1.22C4.18,0.182 2.949,-0.659 1.43,-0.659" style="fill:rgb(61,81,0);fill-rule:nonzero;"/>
            </g>
            <g opacity="0.3">
                <g transform="matrix(1,0,0,1,274.341,80.3976)">
                    <path d="M0,-20.217C0,-20.217 7.513,-20.217 19.196,-10.983C23.212,-7.809 30.293,-5.087 35.802,-6.084C41.31,-7.082 44.638,-10.299 45.385,-14.385C45.385,-14.385 44.41,0 33.533,-0.841C22.656,-1.682 11.628,-11.74 11.628,-11.74L0,-20.217Z" style="fill-rule:nonzero;"/>
                </g>
            </g>
            <g transform="matrix(1,0,0,1,264.744,37.073)">
                <path d="M0,3.192C1.239,1.088 3.081,-0.675 5.234,-1.954C7.393,-3.244 9.894,-4.025 12.507,-4.03C13.814,-4.02 15.292,-3.714 16.446,-2.816C17.585,-1.913 18.278,-0.705 18.734,0.452C19.664,2.782 20.106,5.045 21.223,7.222C19.42,5.54 18.428,3.13 17.329,1.13C16.753,0.14 16.147,-0.764 15.333,-1.284C14.55,-1.835 13.557,-2.049 12.484,-2.032C11.962,-2.077 11.387,-1.981 10.834,-1.951C10.282,-1.859 9.725,-1.787 9.18,-1.647C8.069,-1.437 7.013,-1.006 5.951,-0.575C3.847,0.351 1.86,1.638 0,3.192" style="fill:rgb(69,86,0);fill-rule:nonzero;"/>
            </g>
            <g opacity="0.3">
                <g transform="matrix(1,0,0,1,273.392,66.3978)">
                    <path d="M0,13.962C6.207,15.096 11.972,17.098 18.183,18.151C24.393,19.204 27.656,17.984 28.599,16.883C29.541,15.782 27.379,14.825 23.642,13.16C19.905,11.494 8.757,2.355 6.097,0.083C3.437,-2.19 -4.815,-6.906 -4.815,-6.906L1.591,-5.281C6.673,-3.107 16.695,5.516 22.388,9.051C28.081,12.587 35.543,13.16 35.543,13.16C32.32,23.528 20.231,22.312 10.38,19.178C0.53,16.044 -6.902,17.297 -15.051,12.373C-23.2,7.447 -29.378,-2.134 -29.557,-9.566C-29.557,-9.566 -25.605,9.283 0,13.962" style="fill-rule:nonzero;"/>
                </g>
            </g>
            <g transform="matrix(1,0,0,1,290.802,78.7178)">
                <path d="M0,-30.528C2.687,-31.473 5.499,-32.086 8.354,-32.363C11.205,-32.623 14.127,-32.554 16.966,-31.854C18.388,-31.513 19.752,-30.943 21.057,-30.247C21.696,-29.879 22.29,-29.428 22.909,-29.018C23.466,-28.539 24.024,-28.058 24.561,-27.554C26.655,-25.468 28.184,-22.816 29.039,-19.975C29.84,-17.115 30.028,-14.106 29.635,-11.183C29.444,-9.721 29.139,-8.274 28.68,-6.858C28.23,-5.443 27.538,-4.02 26.607,-2.803C25.683,-1.573 24.504,-0.518 23.157,0.264C21.802,1.037 20.288,1.498 18.766,1.695C15.69,2.095 12.674,1.377 9.943,0.299C4.49,-1.901 -0.236,-5.395 -4.646,-8.999C-6.851,-10.804 -9.019,-12.615 -11.33,-14.167C-13.637,-15.717 -16.104,-16.989 -18.747,-17.749C-21.381,-18.512 -24.181,-18.805 -26.95,-18.635C-29.7,-18.49 -32.486,-17.9 -34.751,-16.386C-35.059,-16.229 -35.296,-15.989 -35.551,-15.768C-35.796,-15.538 -36.081,-15.34 -36.298,-15.083C-36.71,-14.551 -37.178,-14.049 -37.449,-13.422C-37.82,-12.843 -37.956,-12.167 -38.181,-11.521C-38.258,-10.842 -38.421,-10.164 -38.354,-9.47C-38.383,-8.774 -38.216,-8.095 -38.103,-7.407C-38.021,-7.069 -37.893,-6.742 -37.791,-6.407L-37.627,-5.907L-37.402,-5.432C-36.878,-4.116 -35.982,-2.995 -35.058,-1.918C-37.104,-3.856 -38.718,-6.494 -38.883,-9.445C-38.99,-10.176 -38.862,-10.907 -38.812,-11.645C-38.612,-12.353 -38.494,-13.099 -38.126,-13.755C-37.859,-14.46 -37.385,-15.041 -36.953,-15.653C-36.725,-15.949 -36.431,-16.184 -36.171,-16.453C-35.902,-16.712 -35.646,-16.991 -35.325,-17.181C-32.899,-18.954 -29.929,-19.675 -27.043,-19.943C-24.141,-20.231 -21.183,-19.986 -18.334,-19.254C-15.481,-18.527 -12.795,-17.22 -10.365,-15.63C-7.922,-14.046 -5.686,-12.235 -3.458,-10.474C0.952,-6.939 5.526,-3.603 10.681,-1.559C13.207,-0.541 15.917,0.09 18.522,-0.242C19.816,-0.403 21.074,-0.779 22.201,-1.412C23.321,-2.055 24.304,-2.929 25.111,-3.955C26.737,-5.992 27.48,-8.718 27.904,-11.419C28.303,-14.132 28.197,-16.914 27.541,-19.559C26.145,-24.782 22.1,-29.457 16.706,-30.915C14.049,-31.721 11.208,-31.946 8.39,-31.837C6.98,-31.764 5.568,-31.633 4.169,-31.401C2.767,-31.189 1.371,-30.911 0,-30.528" style="fill:rgb(69,86,0);fill-rule:nonzero;"/>
            </g>
            <g opacity="0.3">
                <g transform="matrix(-0.999031,0.0440204,0.0440204,0.999031,274.588,54.5042)">
                    <path d="M-0.916,-14.55C3.48,-14.744 6.467,-11.518 6.636,-7.687C6.805,-3.856 3.938,-0.18 -0.916,0.034C-5.771,0.248 -7.08,-3.436 -7.192,-5.974C-7.304,-8.512 -6.046,-14.324 -0.916,-14.55" style="fill-rule:nonzero;"/>
                </g>
            </g>
            <g transform="matrix(-0.998943,0.0459704,0.0459704,0.998943,274.604,52.857)">
                <path d="M-0.863,-13.105C3.277,-13.296 6.09,-10.4 6.249,-6.949C6.408,-3.498 3.708,-0.177 -0.863,0.034C-5.436,0.244 -6.668,-3.07 -6.773,-5.356C-6.879,-7.642 -5.693,-12.883 -0.863,-13.105" style="fill:white;fill-rule:nonzero;"/>
            </g>
            <g transform="matrix(0,-1,-1,0,277.303,47.1431)">
                <path d="M-0.971,-0.971C-1.717,-0.971 -2.322,-0.536 -2.322,-0C-2.322,0.537 -1.717,0.971 -0.971,0.971C-0.225,0.971 0.38,0.537 0.38,-0C0.38,-0.536 -0.225,-0.971 -0.971,-0.971" style="fill-rule:nonzero;"/>
            </g>
            <g transform="matrix(1,0,0,1,243.834,83.7254)">
                <path d="M0,-26.894C0.83,-23.215 2.291,-19.769 4.188,-16.641C6.111,-13.528 8.515,-10.742 11.367,-8.492C14.197,-6.216 17.43,-4.446 20.859,-3.11C24.291,-1.764 27.907,-0.83 31.608,-0.076C27.83,0 24.016,-0.517 20.347,-1.636C18.496,-2.151 16.729,-2.937 14.993,-3.782C13.272,-4.665 11.653,-5.746 10.118,-6.932C7.092,-9.367 4.572,-12.437 2.831,-15.883C1.095,-19.315 0.006,-23.1 0,-26.894" style="fill:rgb(69,86,0);fill-rule:nonzero;"/>
            </g>
        </g>
    </g>
</svg>
