<?xml version="1.0" encoding="UTF-8" standalone="no"?>
<!DOCTYPE svg PUBLIC "-//W3C//DTD SVG 1.1//EN" "http://www.w3.org/Graphics/SVG/1.1/DTD/svg11.dtd">
<svg width="100%" height="100%" viewBox="0 0 71 46" version="1.1" xmlns="http://www.w3.org/2000/svg" xmlns:xlink="http://www.w3.org/1999/xlink" xml:space="preserve" xmlns:serif="http://www.serif.com/" style="fill-rule:evenodd;clip-rule:evenodd;stroke-linejoin:round;stroke-miterlimit:2;">
    <g transform="matrix(1,0,0,1,-246,-121)">
        <g id="Herbivore-Head" serif:id="Herbivore Head">
            <g transform="matrix(1,0,0,1,312.016,126.537)">
                <path d="M0,34.612C0,34.612 0.844,39.365 -5.113,39.559C-11.514,39.766 -10.945,36.353 -23.486,34.362C-38.482,31.982 -37.385,37.106 -51.959,32.575C-63.724,28.918 -65.672,21.809 -65.174,13.246C-64.632,3.951 -56.749,-5.154 -44.889,-5.154C-33.028,-5.154 -27.19,-0.445 -23.163,4.822C-18.373,11.085 -15.289,13.649 -9.561,17.707C-4.583,21.233 7.067,27.918 3.844,34.025C3.055,35.521 0,34.612 0,34.612" style="fill:rgb(146,217,0);fill-rule:nonzero;"/>
            </g>
            <g opacity="0.5">
                <g transform="matrix(0.00470433,-0.999989,-0.999989,-0.00470433,274.271,106.732)">
                    <path d="M-24.558,-14.698C-19.31,-10.645 -14.628,-4.786 -14.684,7.075C-14.722,15.123 -18.943,21.319 -24.558,24.628C-24.558,24.628 -16.447,17.845 -16.146,6.706C-15.804,-5.874 -24.558,-14.698 -24.558,-14.698" style="fill:white;fill-rule:nonzero;"/>
                </g>
            </g>
            <g opacity="0.3">
                <g transform="matrix(1,0,0,1,259.868,150.708)">
                    <path d="M0,4.672C6.019,6.759 12.858,6.445 23.278,6.335C33.698,6.224 41.956,11.655 45.281,12.099C48.606,12.542 48.789,10.052 48.789,10.052L52.147,10.442C52.147,10.442 52.992,15.195 47.035,15.388C40.633,15.596 41.202,12.183 28.662,10.192C13.666,7.812 14.763,12.936 0.188,8.405C-11.577,4.748 -13.525,-2.361 -13.026,-10.924C-13.026,-10.924 -11.029,0.848 0,4.672" style="fill-rule:nonzero;"/>
                </g>
            </g>
            <g opacity="0.3">
                <g transform="matrix(0.648912,0.760863,0.760863,-0.648912,305.68,153.514)">
                    <path d="M1.686,-0.778C-0.015,-0.778 -1.395,0.214 -1.395,1.438C-1.395,2.661 -0.016,3.653 1.686,3.653C3.387,3.653 4.766,2.662 4.766,1.438C4.766,0.215 3.387,-0.777 1.686,-0.778" style="fill-rule:nonzero;"/>
                </g>
            </g>
            <g transform="matrix(0.649015,0.760776,0.760776,-0.649015,306.012,153.136)">
                <path d="M1.43,-0.659C-0.089,-0.66 -1.32,0.182 -1.32,1.22C-1.321,2.258 -0.089,3.1 1.43,3.099C2.949,3.099 4.18,2.258 4.181,1.22C4.18,0.182 2.949,-0.659 1.43,-0.659" style="fill:rgb(61,81,0);fill-rule:nonzero;"/>
            </g>
            <g transform="matrix(1,0,0,1,256.778,149.791)">
                <path d="M0,8.124C-1.26,6.919 -2.238,5.284 -2.354,3.43C-2.411,2.513 -2.228,1.57 -1.838,0.718C-1.45,-0.139 -0.84,-0.879 -0.144,-1.496C1.278,-2.72 3.029,-3.425 4.785,-3.873C6.553,-4.305 8.362,-4.477 10.156,-4.492C11.959,-4.523 13.729,-4.352 15.498,-4.165C17.267,-3.933 19.045,-3.655 20.783,-3.169C24.291,-2.251 27.51,-0.622 30.641,0.919C36.861,4.11 43.21,6.914 49.743,9.394L52.195,10.31C53.021,10.605 53.83,10.959 54.603,11.153C55.391,11.354 56.208,11.446 56.973,11.341C57.736,11.237 58.422,10.898 58.812,10.299C59.224,9.703 59.267,8.875 59.218,8.03C59.174,7.198 58.957,6.387 58.562,5.64C58.173,4.888 57.642,4.198 57.083,3.53C56.529,2.856 55.943,2.204 55.354,1.553C56.655,2.724 58.028,3.845 59.013,5.38C59.505,6.142 59.832,7.041 59.956,7.951C60.076,8.825 60.155,9.855 59.639,10.79C59.139,11.734 58.118,12.272 57.171,12.456C56.205,12.647 55.243,12.586 54.325,12.413C53.383,12.236 52.565,11.919 51.731,11.66L49.222,10.847C42.542,8.663 36.013,5.874 29.75,2.707C26.618,1.136 23.549,-0.438 20.271,-1.339C17.024,-2.302 13.542,-2.73 10.139,-2.918C8.433,-2.986 6.728,-2.882 5.07,-2.579C3.421,-2.27 1.797,-1.718 0.483,-0.726C-0.851,0.221 -1.784,1.734 -1.818,3.42C-1.847,5.098 -1.102,6.771 0,8.124" style="fill:rgb(69,86,0);fill-rule:nonzero;"/>
            </g>
            <g opacity="0.3">
                <g transform="matrix(-0.999031,0.0440204,0.0440204,0.999031,273.025,142.167)">
                    <path d="M-0.916,-14.55C3.48,-14.744 6.467,-11.517 6.636,-7.687C6.805,-3.856 3.939,-0.18 -0.916,0.034C-5.771,0.248 -7.08,-3.436 -7.192,-5.973C-7.304,-8.512 -6.046,-14.324 -0.916,-14.55" style="fill-rule:nonzero;"/>
                </g>
            </g>
            <g transform="matrix(-0.998943,0.0459704,0.0459704,0.998943,273.041,140.52)">
                <path d="M-0.862,-13.105C3.278,-13.296 6.091,-10.4 6.25,-6.949C6.409,-3.498 3.709,-0.177 -0.862,0.034C-5.435,0.244 -6.668,-3.07 -6.773,-5.355C-6.879,-7.642 -5.693,-12.883 -0.862,-13.105" style="fill:white;fill-rule:nonzero;"/>
            </g>
            <g transform="matrix(0,-1,-1,0,275.739,134.806)">
                <path d="M-0.971,-0.971C-1.717,-0.971 -2.322,-0.536 -2.322,0.001C-2.322,0.537 -1.717,0.971 -0.971,0.971C-0.225,0.971 0.38,0.537 0.38,0.001C0.38,-0.536 -0.225,-0.971 -0.971,-0.971" style="fill-rule:nonzero;"/>
            </g>
            <g transform="matrix(1,0,0,1,247.757,161.653)">
                <path d="M0,-26.777C-0.608,-22.875 -0.68,-18.901 0.222,-15.211C0.705,-13.386 1.361,-11.612 2.422,-10.099C3.485,-8.589 4.783,-7.317 6.359,-6.241C7.907,-5.168 9.583,-4.281 11.352,-3.583C13.124,-2.887 14.982,-2.411 16.873,-2.027C20.666,-1.279 24.6,-1.214 28.568,-1.124C24.682,-0.387 20.663,0 16.639,-0.485C14.628,-0.698 12.639,-1.166 10.695,-1.806C8.767,-2.503 6.927,-3.454 5.213,-4.603C3.545,-5.781 1.979,-7.302 0.839,-9.07C-0.277,-10.865 -0.964,-12.873 -1.301,-14.897C-1.976,-18.955 -1.409,-23.072 0,-26.777" style="fill:rgb(69,86,0);fill-rule:nonzero;"/>
            </g>
        </g>
    </g>
</svg>
