<?xml version="1.0" encoding="UTF-8" standalone="no"?>
<!DOCTYPE svg PUBLIC "-//W3C//DTD SVG 1.1//EN" "http://www.w3.org/Graphics/SVG/1.1/DTD/svg11.dtd">
<svg width="100%" height="100%" viewBox="0 0 110 87" version="1.1" xmlns="http://www.w3.org/2000/svg" xmlns:xlink="http://www.w3.org/1999/xlink" xml:space="preserve" xmlns:serif="http://www.serif.com/" style="fill-rule:evenodd;clip-rule:evenodd;stroke-linejoin:round;stroke-miterlimit:2;">
    <g transform="matrix(1,0,0,1,-33,-72)">
        <g id="Small-Biped-Body" serif:id="Small Biped Body">
            <g transform="matrix(1,0,0,1,122.867,157.161)">
                <path d="M0,-83.898C0,-83.898 1.481,-63.314 -14.89,-57.236C-36.981,-49.036 -42.479,-60.999 -57.231,-62.09C-70.26,-63.053 -79.992,-58.073 -89.866,-47.028C-89.866,-47.028 -77.314,-51.714 -70.788,-41.949C-61.397,-27.9 -59.742,0 -21.417,0C16.908,0 21.246,-47.748 17.822,-76.675L0,-83.898Z" style="fill:rgb(146,217,0);fill-rule:nonzero;"/>
            </g>
            <g opacity="0.3">
                <g transform="matrix(1,0,0,1,33.001,126.418)">
                    <path d="M0,-16.285C0,-16.285 8.622,-20.982 16.568,-17.848C26.472,-13.942 38.659,19.195 66.552,19.195C94.445,19.195 101.69,-10.691 103.036,-19.743C104.263,-28 105.491,-39.38 102.032,-41.165C98.573,-42.951 92.895,-43.521 89.676,-47.873C89.676,-47.873 90.057,-51.416 89.866,-53.155C89.676,-54.894 98.518,-50.202 108.738,-46.632C108.738,-46.632 113.723,4.313 91.09,22.974C91.09,22.974 77.933,38.609 47.25,28.121C47.25,28.121 32.347,17.335 27.549,6.416C22.751,-4.503 19.079,-22.184 0,-16.285" style="fill-rule:nonzero;"/>
                </g>
            </g>
            <g transform="matrix(1,0,0,1,52.0796,158.17)">
                <path d="M0,-42.958C1.297,-41.207 2.402,-39.312 3.413,-37.378C4.431,-35.448 5.383,-33.486 6.345,-31.535C8.229,-27.617 10.158,-23.735 12.481,-20.128C14.828,-16.55 17.539,-13.201 20.867,-10.576C21.672,-9.889 22.556,-9.305 23.409,-8.683C24.312,-8.133 25.184,-7.533 26.133,-7.062C27.979,-6.028 29.958,-5.248 31.957,-4.546C35.984,-3.194 40.221,-2.461 44.493,-2.139C48.774,-1.825 53.08,-1.752 57.264,-2.566C59.365,-2.922 61.41,-3.543 63.398,-4.302C65.395,-5.051 67.301,-6.041 69.095,-7.209C72.747,-9.478 75.816,-12.61 78.483,-16.043C76.186,-12.349 73.217,-9.014 69.649,-6.4C66.088,-3.781 61.915,-1.976 57.575,-1.037C53.23,0 48.74,-0.04 44.361,-0.25C39.96,-0.524 35.555,-1.265 31.318,-2.652C29.222,-3.403 27.145,-4.242 25.199,-5.349C24.201,-5.854 23.279,-6.494 22.331,-7.084C21.431,-7.747 20.498,-8.37 19.666,-9.119C17.945,-10.545 16.378,-12.149 14.973,-13.871C13.557,-15.583 12.278,-17.403 11.162,-19.306C8.886,-23.092 7.129,-27.119 5.456,-31.135C3.803,-35.162 2.213,-39.203 0,-42.958" style="fill:rgb(69,86,0);fill-rule:nonzero;"/>
            </g>
            <g transform="matrix(0.882725,0.469889,0.469889,-0.882725,115.649,89.8078)">
                <path d="M2.697,-3.572C2.697,-3.572 10.283,3.177 18.84,2.297C18.84,2.297 14.538,8.848 2.697,7.348C2.697,7.348 3.241,4.876 3.29,2.116C3.324,0.196 3.087,-1.924 2.697,-3.572" style="fill:rgb(255,240,135);fill-rule:nonzero;"/>
            </g>
            <g transform="matrix(0.291923,0.956442,0.956442,-0.291923,116.081,102.757)">
                <path d="M-5.345,-16.138C-5.345,-16.138 6.132,-10.145 22.557,-16.337C22.557,-16.337 12.011,-4.233 -5.345,-4.535C-5.345,-4.535 -4.95,-8.373 -4.971,-10.329C-4.99,-12.09 -5.345,-16.138 -5.345,-16.138" style="fill:rgb(255,240,135);fill-rule:nonzero;"/>
            </g>
            <g transform="matrix(-0.192408,0.981315,0.981315,0.192408,95.5006,106.38)">
                <path d="M-3.356,-13.87C-3.356,-13.87 2.549,-7.991 13.727,-14.553C13.727,-14.553 10.266,-0.66 -3.356,-1.625C-3.356,-1.625 -2.663,-4.582 -2.728,-7.703C-2.777,-10.088 -3.356,-13.87 -3.356,-13.87" style="fill:rgb(255,240,135);fill-rule:nonzero;"/>
            </g>
            <g transform="matrix(1,0,0,1,64.3862,109.625)">
                <path d="M0,-14.629C0,-14.629 2.42,-7.692 -1.094,0.006C-1.094,0.006 8.656,-1.58 13.175,-11.286C13.175,-11.286 6.196,-14.635 0,-14.629" style="fill:rgb(255,240,135);fill-rule:nonzero;"/>
            </g>
            <g transform="matrix(1,0,0,1,138.917,80.3672)">
                <path d="M0,41.744C0.554,38.296 1.271,34.884 1.566,31.411C1.908,27.946 2.096,24.47 2.131,20.994C2.203,14.042 1.747,7.093 0.778,0.236L2.764,0C3.414,7.003 3.537,14.034 3.131,21.029C2.928,24.526 2.572,28.012 2.063,31.472C1.6,34.941 0.716,38.334 0,41.744" style="fill:rgb(69,86,0);fill-rule:nonzero;"/>
            </g>
            <g opacity="0.5">
                <g transform="matrix(1,0,0,1,98.2349,85.1293)">
                    <path d="M0,19.771C-14.365,21.667 -22.479,12.466 -32.655,11.122C-39.205,10.256 -46.451,11.503 -46.451,11.503C-42.194,10.086 -37.644,9.568 -32.599,9.941C-17.846,11.032 -12.349,22.995 9.742,14.795C19.067,11.333 22.6,3.166 23.914,-3.224C23.914,-3.224 25.255,16.438 0,19.771" style="fill:white;fill-rule:nonzero;"/>
                </g>
            </g>
        </g>
    </g>
</svg>
