<?xml version="1.0" encoding="UTF-8" standalone="no"?>
<!DOCTYPE svg PUBLIC "-//W3C//DTD SVG 1.1//EN" "http://www.w3.org/Graphics/SVG/1.1/DTD/svg11.dtd">
<svg width="100%" height="100%" viewBox="0 0 36 42" version="1.1" xmlns="http://www.w3.org/2000/svg" xmlns:xlink="http://www.w3.org/1999/xlink" xml:space="preserve" xmlns:serif="http://www.serif.com/" style="fill-rule:evenodd;clip-rule:evenodd;stroke-linejoin:round;stroke-miterlimit:2;">
    <g transform="matrix(1,0,0,1,-130,-141)">
        <g id="Background---Rear-Lower-Leg" serif:id="Background - Rear Lower Leg">
            <g transform="matrix(1,0,0,1,145.07,141.286)">
                <path d="M16.021,40.905L-4.93,40.905C-4.93,40.905 -6.093,33.312 -9.419,27.825C-12.744,22.338 -15.802,16.621 -13.243,9.535C-11.082,3.55 -6.514,0.018 0.472,0.011C10.035,0 14.05,6.709 14.715,14.856C15.38,23.003 10.367,31.814 16.021,40.905Z" style="fill:rgb(131,139,197);fill-rule:nonzero;"/>
            </g>
            <g opacity="0.5">
                <g transform="matrix(1,0,0,1,145.07,141.286)">
                    <path d="M16.021,40.905L-4.93,40.905C-4.93,40.905 -6.093,33.312 -9.419,27.825C-12.744,22.338 -15.802,16.621 -13.243,9.535C-11.082,3.55 -6.514,0.018 0.472,0.011C10.035,0 14.05,6.709 14.715,14.856C15.38,23.003 10.367,31.814 16.021,40.905Z" style="fill-rule:nonzero;"/>
                </g>
            </g>
            <g transform="matrix(0.620441,0.784253,0.784253,-0.620441,150.574,174.844)">
                <path d="M6.157,-4.059C6.157,-4.059 2,4.647 3.521,6.57L6.157,9.902C6.968,10.927 15.18,7.347 15.18,7.347L6.157,-4.059Z" style="fill:rgb(204,204,204);fill-rule:nonzero;"/>
            </g>
            <g opacity="0.3">
                <g transform="matrix(0.620441,0.784253,0.784253,-0.620441,150.574,174.844)">
                    <path d="M6.157,-4.059C6.157,-4.059 2,4.647 3.521,6.57L6.157,9.902C6.968,10.927 15.18,7.347 15.18,7.347L6.157,-4.059Z" style="fill-rule:nonzero;"/>
                </g>
            </g>
            <g transform="matrix(0.620406,0.784281,0.784281,-0.620406,145.498,174.844)">
                <path d="M6.157,-4.06C6.157,-4.06 2,4.647 3.521,6.57L6.157,9.902C6.968,10.927 15.181,7.348 15.181,7.348L6.157,-4.06Z" style="fill:white;fill-rule:nonzero;"/>
            </g>
            <g opacity="0.3">
                <g transform="matrix(0.620406,0.784281,0.784281,-0.620406,145.498,174.844)">
                    <path d="M6.157,-4.06C6.157,-4.06 2,4.647 3.521,6.57L6.157,9.902C6.968,10.927 15.181,7.348 15.181,7.348L6.157,-4.06Z" style="fill-rule:nonzero;"/>
                </g>
            </g>
        </g>
    </g>
</svg>
