<?xml version="1.0" encoding="UTF-8" standalone="no"?>
<!DOCTYPE svg PUBLIC "-//W3C//DTD SVG 1.1//EN" "http://www.w3.org/Graphics/SVG/1.1/DTD/svg11.dtd">
<svg width="100%" height="100%" viewBox="0 0 37 42" version="1.1" xmlns="http://www.w3.org/2000/svg" xmlns:xlink="http://www.w3.org/1999/xlink" xml:space="preserve" xmlns:serif="http://www.serif.com/" style="fill-rule:evenodd;clip-rule:evenodd;stroke-linejoin:round;stroke-miterlimit:2;">
    <g transform="matrix(1,0,0,1,-112,-141)">
        <g id="Foreground---Rear-Lower-Leg" serif:id="Foreground - Rear Lower Leg">
            <g transform="matrix(1,0,0,1,128.07,141.286)">
                <path d="M16.021,40.905L-4.93,40.905C-4.93,40.905 -6.093,33.312 -9.419,27.825C-12.744,22.338 -15.802,16.621 -13.243,9.535C-11.082,3.55 -6.514,0.018 0.472,0.011C10.035,0 14.05,6.709 14.715,14.856C15.38,23.003 10.367,31.814 16.021,40.905Z" style="fill:rgb(131,139,197);fill-rule:nonzero;"/>
            </g>
            <g opacity="0.4">
                <g transform="matrix(1,0,0,1,128.07,141.286)">
                    <path d="M16.021,40.905L-4.93,40.905C-4.93,40.905 -6.093,33.312 -9.419,27.825C-12.744,22.338 -15.802,16.621 -13.243,9.535C-11.082,3.55 -6.514,0.018 0.472,0.011C10.035,0 14.05,6.709 14.715,14.856C15.38,23.003 10.367,31.814 16.021,40.905Z" style="fill-rule:nonzero;"/>
                </g>
            </g>
            <g transform="matrix(0.620441,0.784253,0.784253,-0.620441,133.574,174.844)">
                <path d="M6.157,-4.059C6.157,-4.059 2,4.647 3.521,6.57L6.157,9.902C6.968,10.927 15.18,7.347 15.18,7.347L6.157,-4.059Z" style="fill:rgb(204,204,204);fill-rule:nonzero;"/>
            </g>
            <g transform="matrix(0.620406,0.784281,0.784281,-0.620406,128.498,174.844)">
                <path d="M6.157,-4.06C6.157,-4.06 2,4.647 3.521,6.57L6.157,9.902C6.968,10.927 15.181,7.348 15.181,7.348L6.157,-4.06Z" style="fill:white;fill-rule:nonzero;"/>
            </g>
            <g transform="matrix(1,0,0,1,121.454,174.318)">
                <path d="M0,-31.454C-2.651,-29.965 -4.565,-27.598 -5.572,-24.956C-5.853,-24.305 -5.99,-23.6 -6.199,-22.926C-6.297,-22.218 -6.49,-21.535 -6.501,-20.813L-6.59,-19.747L-6.587,-18.669C-6.602,-17.955 -6.542,-17.224 -6.482,-16.493C-6.372,-15.041 -6.176,-13.61 -5.756,-12.283C-5.371,-10.939 -4.667,-9.735 -3.888,-8.437C-3.097,-7.154 -2.346,-5.783 -1.749,-4.37C-1.149,-2.953 -0.715,-1.483 -0.381,0C-1.132,-1.329 -1.8,-2.672 -2.621,-3.917C-3.403,-5.185 -4.281,-6.357 -5.184,-7.567C-6.11,-8.748 -6.99,-10.148 -7.549,-11.676C-8.098,-13.208 -8.322,-14.785 -8.474,-16.331C-8.673,-19.397 -8.507,-22.731 -6.991,-25.591C-5.589,-28.452 -2.984,-30.746 0,-31.454" style="fill:rgb(48,53,71);fill-rule:nonzero;"/>
            </g>
            <g transform="matrix(1,0,0,1,138.398,165.501)">
                <path d="M0,-20.501C1.423,-19.363 2.451,-17.769 3.206,-16.102C3.966,-14.423 4.4,-12.615 4.647,-10.8C4.906,-8.979 4.854,-7.139 4.706,-5.326C4.612,-4.42 4.446,-3.523 4.304,-2.629C4.071,-1.748 3.874,-0.865 3.613,0C3.651,-0.909 3.751,-1.801 3.818,-2.694L3.927,-5.372C3.887,-6.262 3.975,-7.15 3.881,-8.033L3.813,-9.358L3.656,-10.672C3.437,-12.42 3.066,-14.149 2.484,-15.813C1.875,-17.459 1.139,-19.096 0,-20.501" style="fill:rgb(48,53,71);fill-rule:nonzero;"/>
            </g>
        </g>
    </g>
</svg>
