<?xml version="1.0" encoding="UTF-8" standalone="no"?>
<!DOCTYPE svg PUBLIC "-//W3C//DTD SVG 1.1//EN" "http://www.w3.org/Graphics/SVG/1.1/DTD/svg11.dtd">
<svg width="100%" height="100%" viewBox="0 0 44 59" version="1.1" xmlns="http://www.w3.org/2000/svg" xmlns:xlink="http://www.w3.org/1999/xlink" xml:space="preserve" xmlns:serif="http://www.serif.com/" style="fill-rule:evenodd;clip-rule:evenodd;stroke-linejoin:round;stroke-miterlimit:2;">
    <g transform="matrix(1,0,0,1,-105,-99)">
        <g id="Foreground---Rear-Upper-Leg" serif:id="Foreground - Rear Upper Leg">
            <g transform="matrix(1,0,0,1,114.354,104.735)">
                <path d="M0,46.765C-3.341,43.229 -7.538,38.286 -8.339,23.807C-9.175,8.699 -1.522,-5.071 12.445,-5.071C26.412,-5.071 33.432,7.346 33.432,19.317C33.432,37.729 27.16,45.879 25.883,47.555C24.606,49.231 21.726,51.836 13.745,51.836C5.764,51.836 2.099,48.987 0,46.765" style="fill:rgb(131,139,197);fill-rule:nonzero;"/>
            </g>
            <g opacity="0.3">
                <g transform="matrix(1,0,0,1,147.786,155.193)">
                    <path d="M0,-31.141C0,-12.729 -6.272,-4.579 -7.549,-2.903C-8.826,-1.227 -11.706,1.378 -19.687,1.378C-27.667,1.378 -31.333,-1.471 -33.432,-3.693C-36.772,-7.229 -40.969,-12.173 -41.771,-26.652C-41.881,-28.64 -41.844,-30.605 -41.665,-32.519C-41.665,-32.519 -38,-17.438 -20.987,-17.438C-3.974,-17.438 0,-31.141 0,-31.141" style="fill-rule:nonzero;"/>
                </g>
            </g>
            <g transform="matrix(1,0,0,1,146.653,157.606)">
                <path d="M0,-41.796C1.25,-37.661 1.525,-33.264 1.306,-28.935C1.036,-24.598 0.228,-20.296 -1.007,-16.127C-1.619,-14.04 -2.319,-11.977 -3.145,-9.958C-3.558,-8.949 -3.994,-7.948 -4.47,-6.957C-4.711,-6.461 -4.954,-5.969 -5.235,-5.471C-5.37,-5.232 -5.534,-4.95 -5.735,-4.685C-5.914,-4.448 -6.107,-4.221 -6.306,-3.998C-7.939,-2.196 -10.202,-1.254 -12.378,-0.706C-14.588,-0.179 -16.819,0 -19.029,-0.053C-21.242,-0.106 -23.485,-0.337 -25.657,-0.993C-27.829,-1.617 -29.913,-2.72 -31.623,-4.237C-32.467,-4.983 -33.262,-5.827 -33.931,-6.74C-34.604,-7.64 -35.178,-8.585 -35.72,-9.544C-36.794,-11.467 -37.687,-13.474 -38.428,-15.531C-41.388,-23.757 -41.751,-32.867 -39.394,-41.157C-41.099,-32.711 -40.251,-23.891 -37.108,-16.029C-36.331,-14.062 -35.409,-12.152 -34.33,-10.351C-33.789,-9.453 -33.208,-8.578 -32.578,-7.766C-31.963,-6.952 -31.254,-6.241 -30.469,-5.584C-27.357,-2.964 -23.141,-2.071 -19,-2.037C-16.913,-2.022 -14.819,-2.145 -12.838,-2.609C-10.868,-3.076 -9,-3.905 -7.672,-5.279C-7.509,-5.454 -7.348,-5.631 -7.198,-5.82C-7.069,-5.98 -6.958,-6.161 -6.823,-6.388C-6.566,-6.821 -6.321,-7.289 -6.082,-7.754C-5.607,-8.692 -5.163,-9.655 -4.74,-10.628C-3.908,-12.579 -3.135,-14.562 -2.47,-16.583C-1.137,-20.622 -0.139,-24.783 0.356,-29.018C0.886,-33.248 0.819,-37.566 0,-41.796" style="fill:rgb(48,53,71);fill-rule:nonzero;"/>
            </g>
            <g opacity="0.5">
                <g transform="matrix(-0.000988533,-1,-1,0.000988533,130.687,88.1621)">
                    <path d="M-18.834,-11.525C-14.442,-8.031 -11.505,-2.887 -11.498,3.9C-11.492,10.241 -14.325,15.284 -18.834,18.823C-18.834,18.823 -13.641,12.214 -13.649,3.902C-13.657,-4.409 -18.834,-11.525 -18.834,-11.525" style="fill:white;fill-rule:nonzero;"/>
                </g>
            </g>
        </g>
    </g>
</svg>
