<?xml version="1.0" encoding="UTF-8" standalone="no"?>
<!DOCTYPE svg PUBLIC "-//W3C//DTD SVG 1.1//EN" "http://www.w3.org/Graphics/SVG/1.1/DTD/svg11.dtd">
<svg width="100%" height="100%" viewBox="0 0 92 66" version="1.1" xmlns="http://www.w3.org/2000/svg" xmlns:xlink="http://www.w3.org/1999/xlink" xml:space="preserve" xmlns:serif="http://www.serif.com/" style="fill-rule:evenodd;clip-rule:evenodd;stroke-linejoin:round;stroke-miterlimit:2;">
    <g transform="matrix(1,0,0,1,-344,-31)">
        <g id="Carnivore-Head" serif:id="Carnivore Head">
            <g transform="matrix(1,0,0,1,412.592,78.8712)">
                <path d="M0,-29.636C-9.121,-30.502 -14.384,-37.586 -23.076,-41.296C-31.768,-45.007 -41.626,-49.353 -53.817,-44.158C-66.008,-38.964 -67.916,-28.258 -67.704,-19.459C-67.492,-10.661 -60.177,0.681 -50.531,6.511C-40.885,12.342 -32.086,10.858 -20.426,14.568C-8.766,18.278 5.545,19.717 9.361,7.443C13.177,-4.831 9.12,-28.77 0,-29.636" style="fill:rgb(131,139,197);fill-rule:nonzero;"/>
            </g>
            <g transform="matrix(1,0,0,1,400.488,84.0025)">
                <path d="M0,-34.82C0,-34.82 16.854,-40.544 26.713,-32.435C36.572,-24.326 34.808,-11.923 32.596,-6.199C30.306,-0.272 23.423,5.724 10.813,0.002C-6.36,-7.789 -11.925,-21.623 -29.734,-21.623C-47.543,-21.623 -48.974,-8.266 -41.5,-0.952" style="fill:rgb(131,139,197);fill-rule:nonzero;"/>
            </g>
            <g opacity="0.5">
                <g transform="matrix(1,0,0,1,345.538,31.2068)">
                    <path d="M0,19.736C0,19.736 1.077,10.661 9.49,5.466C15.051,2.032 22.498,0 30.925,1.792C30.925,1.792 9.188,0.262 0,19.736" style="fill:white;fill-rule:nonzero;"/>
                </g>
            </g>
            <g transform="matrix(1,0,0,1,388.165,78.3598)">
                <path d="M0,-9.898L0.556,0L6.602,-4.949L0,-9.898Z" style="fill:white;fill-rule:nonzero;"/>
            </g>
            <g transform="matrix(1,0,0,1,395.201,82.5736)">
                <path d="M0,-8.666L0.204,0L6.201,-3.975L0,-8.666Z" style="fill:white;fill-rule:nonzero;"/>
            </g>
            <g transform="matrix(1,0,0,1,401.881,87.5421)">
                <path d="M0,-8.427L1.071,0L7.312,-4.213L0,-8.427Z" style="fill:white;fill-rule:nonzero;"/>
            </g>
            <g transform="matrix(1,0,0,1,409.587,90.723)">
                <path d="M0,-6.917L1.471,0L6.798,-4.611L0,-6.917Z" style="fill:white;fill-rule:nonzero;"/>
            </g>
            <g transform="matrix(1,0,0,1,369.641,36.8212)">
                <path d="M0,2.98C0,2.98 5.41,-3.973 14.159,-4.395C21.943,-4.77 21.148,2.503 25.123,7.75" style="fill:rgb(131,139,197);fill-rule:nonzero;"/>
            </g>
            <g opacity="0.5">
                <g transform="matrix(-0.109603,0.993975,0.993975,0.109603,380.779,25.2011)">
                    <path d="M14.301,-8.424C14.301,-8.424 6.834,-2.709 6.722,5.748C6.722,5.748 6.556,9.816 14.301,13.555C14.301,13.555 9.403,9.828 9.717,4.442C10.059,-1.453 14.301,-8.424 14.301,-8.424" style="fill:white;fill-rule:nonzero;"/>
                </g>
            </g>
            <g opacity="0.5">
                <g transform="matrix(-0.366542,0.930401,0.930401,0.366542,428.144,40.4499)">
                    <path d="M17.367,-21.386C17.367,-21.386 10.511,-12.213 9.916,-3.486C9.32,5.241 14.663,10.671 17.367,12.929C17.367,12.929 11.129,4.049 11.927,-4.239C12.724,-12.528 17.367,-21.386 17.367,-21.386" style="fill:white;fill-rule:nonzero;"/>
                </g>
            </g>
            <g opacity="0.3">
                <g transform="matrix(0.649031,0.760762,0.760762,-0.649031,419.256,59.5341)">
                    <path d="M1.995,-0.92C-0.02,-0.921 -1.653,0.254 -1.653,1.702C-1.653,3.15 -0.02,4.324 1.995,4.325C4.009,4.324 5.642,3.15 5.642,1.702C5.642,0.254 4.009,-0.921 1.995,-0.92" style="fill-rule:nonzero;"/>
                </g>
            </g>
            <g transform="matrix(0.64905,0.760746,0.760746,-0.64905,419.601,58.9686)">
                <path d="M1.692,-0.781C-0.106,-0.781 -1.564,0.215 -1.563,1.444C-1.563,2.672 -0.106,3.668 1.692,3.668C3.49,3.668 4.948,2.673 4.948,1.443C4.949,0.214 3.49,-0.781 1.692,-0.781" style="fill:rgb(61,66,91);fill-rule:nonzero;"/>
            </g>
            <g opacity="0.3">
                <g transform="matrix(1,0,0,1,381.002,87.3094)">
                    <path d="M0,-23.933C0,-23.933 8.894,-23.933 22.724,-13.002C27.478,-9.245 35.86,-6.022 42.381,-7.203C48.902,-8.384 52.841,-12.192 53.725,-17.029C53.725,-17.029 52.571,0 39.696,-0.996C26.82,-1.991 13.765,-13.898 13.765,-13.898L0,-23.933Z" style="fill-rule:nonzero;"/>
                </g>
            </g>
            <g transform="matrix(1,0,0,1,369.641,36.2052)">
                <path d="M0,3.596C1.523,1.156 3.717,-0.887 6.263,-2.37C8.811,-3.86 11.75,-4.768 14.804,-4.77C16.33,-4.761 18.034,-4.407 19.367,-3.376C20.685,-2.342 21.498,-0.94 22.048,0.415C23.164,3.143 23.738,5.834 25.123,8.366C23.053,6.329 21.929,3.491 20.643,1.093C19.972,-0.095 19.247,-1.193 18.253,-1.844C17.292,-2.528 16.072,-2.79 14.781,-2.772C14.148,-2.824 13.464,-2.708 12.801,-2.67C12.141,-2.558 11.474,-2.472 10.823,-2.301C9.498,-2.039 8.237,-1.52 6.979,-0.99C4.483,0.139 2.145,1.705 0,3.596" style="fill:rgb(48,53,71);fill-rule:nonzero;"/>
            </g>
            <g opacity="0.3">
                <g transform="matrix(1,0,0,1,379.878,70.7355)">
                    <path d="M0,16.529C7.348,17.871 14.171,20.241 21.523,21.487C28.876,22.734 32.739,21.291 33.854,19.987C34.97,18.684 32.411,17.551 27.987,15.579C23.563,13.607 10.366,2.789 7.217,0.099C4.067,-2.591 -5.701,-8.174 -5.701,-8.174L1.883,-6.251C7.899,-3.677 19.762,6.531 26.501,10.716C33.241,14.901 42.075,15.579 42.075,15.579C38.259,27.853 23.948,26.414 12.288,22.703C0.627,18.993 -8.171,20.477 -17.817,14.647C-27.463,8.817 -34.778,-2.525 -34.99,-11.324C-34.99,-11.324 -30.312,10.99 0,16.529" style="fill-rule:nonzero;"/>
                </g>
            </g>
            <g transform="matrix(1,0,0,1,400.488,85.1825)">
                <path d="M0,-36C3.187,-37.1 6.517,-37.809 9.892,-38.124C13.265,-38.418 16.716,-38.322 20.061,-37.483C20.912,-37.333 21.7,-36.952 22.521,-36.687C23.337,-36.4 24.083,-35.938 24.868,-35.568C25.618,-35.131 26.313,-34.597 27.038,-34.112C27.69,-33.545 28.344,-32.977 28.972,-32.38C31.418,-29.915 33.225,-26.809 34.227,-23.466C35.17,-20.105 35.391,-16.561 34.913,-13.124C34.68,-11.403 34.315,-9.702 33.77,-8.041C33.236,-6.38 32.422,-4.726 31.332,-3.308C30.245,-1.879 28.877,-0.646 27.308,0.267C25.731,1.17 23.967,1.711 22.189,1.944C18.598,2.418 15.055,1.585 11.838,0.32C5.413,-2.278 -0.148,-6.419 -5.368,-10.679C-7.985,-12.805 -10.564,-14.943 -13.317,-16.777C-16.067,-18.604 -19.004,-20.115 -22.151,-21.021C-25.289,-21.926 -28.62,-22.286 -31.913,-22.065C-35.183,-21.875 -38.498,-21.154 -41.191,-19.333C-41.556,-19.144 -41.838,-18.855 -42.142,-18.59C-42.434,-18.314 -42.771,-18.077 -43.029,-17.769C-43.519,-17.133 -44.073,-16.53 -44.393,-15.78C-44.833,-15.089 -44.991,-14.282 -45.255,-13.511C-45.345,-12.703 -45.534,-11.895 -45.451,-11.07C-45.482,-10.242 -45.281,-9.437 -45.142,-8.62C-45.044,-8.218 -44.89,-7.831 -44.767,-7.435L-44.571,-6.842L-44.3,-6.28L-43.756,-5.152L-43.072,-4.1C-42.956,-3.926 -42.847,-3.745 -42.725,-3.575L-42.318,-3.095L-41.5,-2.132C-43.91,-4.44 -45.798,-7.566 -45.98,-11.045C-46.103,-11.907 -45.949,-12.768 -45.886,-13.635C-45.648,-14.468 -45.507,-15.345 -45.071,-16.113C-44.754,-16.941 -44.193,-17.622 -43.683,-18.339C-43.415,-18.687 -43.068,-18.961 -42.762,-19.276C-42.444,-19.579 -42.143,-19.906 -41.764,-20.128C-38.903,-22.197 -35.404,-23.028 -32.003,-23.326C-28.582,-23.646 -25.098,-23.372 -21.745,-22.505C-18.384,-21.652 -15.222,-20.111 -12.365,-18.22C-9.491,-16.342 -6.855,-14.192 -4.226,-12.096C-1.603,-9.994 1.045,-7.963 3.832,-6.159C5.208,-5.227 6.662,-4.436 8.099,-3.616C9.585,-2.903 11.052,-2.098 12.576,-1.537C15.582,-0.318 18.818,0.444 21.952,0.052C23.507,-0.139 25.025,-0.589 26.385,-1.35C27.738,-2.123 28.929,-3.174 29.892,-4.416C31.841,-6.883 32.71,-10.14 33.202,-13.356C33.66,-16.589 33.534,-19.901 32.751,-23.057C31.098,-29.299 26.224,-34.851 19.8,-36.544C16.638,-37.489 13.267,-37.742 9.929,-37.598C8.259,-37.504 6.586,-37.343 4.931,-37.061C3.271,-36.8 1.621,-36.462 0,-36" style="fill:rgb(48,53,71);fill-rule:nonzero;"/>
            </g>
            <g opacity="0.3">
                <g transform="matrix(-0.999031,0.0440204,0.0440204,0.999031,381.295,56.6569)">
                    <path d="M-1.085,-17.224C4.12,-17.453 7.656,-13.633 7.856,-9.1C8.056,-4.565 4.662,-0.213 -1.085,0.041C-6.832,0.294 -8.382,-4.068 -8.515,-7.072C-8.647,-10.075 -7.157,-16.957 -1.085,-17.224" style="fill-rule:nonzero;"/>
                </g>
            </g>
            <g transform="matrix(-0.998943,0.0459676,0.0459676,0.998943,381.313,54.7081)">
                <path d="M-1.022,-15.515C3.88,-15.74 7.21,-12.312 7.398,-8.227C7.586,-4.143 4.39,-0.209 -1.022,0.04C-6.434,0.289 -7.894,-3.635 -8.018,-6.341C-8.143,-9.047 -6.74,-15.251 -1.022,-15.515" style="fill:white;fill-rule:nonzero;"/>
            </g>
            <g transform="matrix(0,-1,-1,0,384.508,47.9431)">
                <path d="M-1.15,-1.15C-2.033,-1.15 -2.749,-0.635 -2.749,0C-2.749,0.635 -2.033,1.15 -1.15,1.15C-0.267,1.15 0.449,0.635 0.449,0C0.449,-0.635 -0.267,-1.15 -1.15,-1.15" style="fill-rule:nonzero;"/>
            </g>
            <g transform="matrix(1,0,0,1,344.889,91.172)">
                <path d="M0,-31.76C0.906,-27.395 2.602,-23.284 4.833,-19.552C7.093,-15.838 9.948,-12.513 13.341,-9.833C16.711,-7.126 20.562,-5.028 24.645,-3.469C28.729,-1.897 33.028,-0.83 37.417,-0.013C32.951,0 28.455,-0.65 24.133,-1.995C21.954,-2.619 19.872,-3.55 17.83,-4.554C15.805,-5.599 13.898,-6.873 12.091,-8.272C8.526,-11.138 5.553,-14.747 3.475,-18.795C1.405,-22.83 0.083,-27.28 0,-31.76" style="fill:rgb(48,53,71);fill-rule:nonzero;"/>
            </g>
        </g>
    </g>
</svg>
