<?xml version="1.0" encoding="UTF-8" standalone="no"?>
<!DOCTYPE svg PUBLIC "-//W3C//DTD SVG 1.1//EN" "http://www.w3.org/Graphics/SVG/1.1/DTD/svg11.dtd">
<svg width="100%" height="100%" viewBox="0 0 36 45" version="1.1" xmlns="http://www.w3.org/2000/svg" xmlns:xlink="http://www.w3.org/1999/xlink" xml:space="preserve" xmlns:serif="http://www.serif.com/" style="fill-rule:evenodd;clip-rule:evenodd;stroke-linejoin:round;stroke-miterlimit:2;">
    <g transform="matrix(1,0,0,1,-171,-119)">
        <g id="Foreground---Front-Upper-Leg" serif:id="Foreground - Front Upper Leg">
            <g transform="matrix(1,0,0,1,178.008,124.648)">
                <path d="M0,32.588C-1.65,30.671 -6.648,24.843 -6.648,13.537C-6.648,2.23 -0.672,-4.872 11.72,-4.872C24.111,-4.872 27.778,5.389 27.778,13.37C27.778,21.351 22.417,30.608 21.129,32.263C19.842,33.919 16.861,37.46 10.564,37.46C4.268,37.46 1.718,34.584 0,32.588" style="fill:rgb(131,139,197);fill-rule:nonzero;"/>
            </g>
            <g opacity="0.5">
                <g transform="matrix(0.0112317,-0.999937,-0.999937,-0.0112317,191.414,109.672)">
                    <path d="M-14.833,-10.158C-11.983,-7.621 -10.061,-3.848 -10.122,1.572C-10.189,7.501 -11.865,11.943 -14.833,14.949C-14.833,14.949 -12.192,8.84 -12.11,1.55C-12.028,-5.74 -14.833,-10.158 -14.833,-10.158" style="fill:white;fill-rule:nonzero;"/>
                </g>
            </g>
            <g opacity="0.3">
                <g transform="matrix(1,0,0,1,205.786,162.108)">
                    <path d="M0,-24.09C0,-16.109 -5.361,-6.853 -6.648,-5.197C-7.936,-3.542 -10.917,0 -17.213,0C-23.51,0 -26.06,-2.877 -27.778,-4.872C-29.428,-6.789 -34.426,-12.617 -34.426,-23.923C-34.426,-23.923 -30.798,-17.758 -18.079,-17.758C-5.359,-17.758 0,-24.09 0,-24.09" style="fill-rule:nonzero;"/>
                </g>
            </g>
            <g transform="matrix(1,0,0,1,204.468,163.122)">
                <path d="M0,-33.126C1.411,-30.013 1.734,-26.462 1.445,-23.043C1.15,-19.603 0.254,-16.236 -0.976,-13.021C-1.597,-11.413 -2.295,-9.835 -3.089,-8.296C-3.49,-7.522 -3.906,-6.776 -4.405,-6.014C-4.949,-5.234 -5.488,-4.584 -6.135,-3.923C-7.398,-2.62 -8.97,-1.579 -10.689,-0.938C-12.408,-0.302 -14.236,0 -16.03,-0.018C-17.807,-0.047 -19.626,-0.279 -21.355,-0.918C-23.094,-1.524 -24.672,-2.623 -25.909,-3.93C-26.531,-4.595 -27.085,-5.209 -27.636,-5.987C-28.146,-6.722 -28.596,-7.466 -29.015,-8.23C-29.845,-9.759 -30.567,-11.335 -31.181,-12.953C-32.41,-16.181 -33.209,-19.593 -33.37,-23.041C-33.515,-26.48 -33.075,-29.967 -31.79,-33.126C-32.688,-29.845 -32.91,-26.434 -32.487,-23.114C-32.093,-19.791 -31.13,-16.563 -29.824,-13.501C-29.17,-11.97 -28.412,-10.482 -27.563,-9.06C-27.138,-8.352 -26.697,-7.648 -26.221,-7.002C-25.782,-6.4 -25.173,-5.768 -24.617,-5.215C-23.472,-4.109 -22.168,-3.256 -20.694,-2.744C-19.228,-2.219 -17.627,-2.028 -16.017,-2.017C-14.417,-1.982 -12.84,-2.234 -11.368,-2.756C-9.904,-3.299 -8.557,-4.13 -7.41,-5.221C-6.849,-5.75 -6.277,-6.394 -5.837,-6.995C-5.386,-7.64 -4.964,-8.373 -4.551,-9.088C-3.729,-10.534 -2.988,-12.037 -2.323,-13.57C-1.003,-16.64 0.047,-19.841 0.573,-23.148C1.129,-26.445 1.029,-29.878 0,-33.126" style="fill:rgb(48,53,71);fill-rule:nonzero;"/>
            </g>
        </g>
    </g>
</svg>
