<?xml version="1.0" encoding="UTF-8" standalone="no"?>
<!DOCTYPE svg PUBLIC "-//W3C//DTD SVG 1.1//EN" "http://www.w3.org/Graphics/SVG/1.1/DTD/svg11.dtd">
<svg width="100%" height="100%" viewBox="0 0 35 36" version="1.1" xmlns="http://www.w3.org/2000/svg" xmlns:xlink="http://www.w3.org/1999/xlink" xml:space="preserve" xmlns:serif="http://www.serif.com/" style="fill-rule:evenodd;clip-rule:evenodd;stroke-linejoin:round;stroke-miterlimit:2;">
    <g transform="matrix(1,0,0,1,-175,-147)">
        <g id="Foreground---Front-Lower-Leg" serif:id="Foreground - Front Lower Leg">
            <g transform="matrix(1,0,0,1,182.832,147.828)">
                <path d="M0,34.363C0,34.363 0.166,28.931 -2.328,24.608C-4.822,20.285 -6.817,17.292 -6.651,12.47C-6.485,7.649 -3.326,0 6.983,0C17.292,0 20.451,8.48 20.451,16.461C20.451,24.442 17.292,27.158 19.287,34.363L0,34.363Z" style="fill:rgb(131,139,197);fill-rule:nonzero;"/>
            </g>
            <g opacity="0.4">
                <g transform="matrix(1,0,0,1,182.832,147.828)">
                    <path d="M0,34.363C0,34.363 0.166,28.931 -2.328,24.608C-4.822,20.285 -6.817,17.292 -6.651,12.47C-6.485,7.649 -3.326,0 6.983,0C17.292,0 20.451,8.48 20.451,16.461C20.451,24.442 17.292,27.158 19.287,34.363L0,34.363Z" style="fill-rule:nonzero;"/>
                </g>
            </g>
            <g transform="matrix(0.620441,0.784253,0.784253,-0.620441,194.574,174.844)">
                <path d="M6.157,-4.059C6.157,-4.059 2,4.647 3.521,6.57L6.157,9.902C6.968,10.927 15.18,7.347 15.18,7.347L6.157,-4.059Z" style="fill:rgb(204,204,204);fill-rule:nonzero;"/>
            </g>
            <g transform="matrix(0.620406,0.784281,0.784281,-0.620406,189.498,174.844)">
                <path d="M6.157,-4.06C6.157,-4.06 2,4.647 3.521,6.57L6.157,9.902C6.968,10.927 15.181,7.348 15.181,7.348L6.157,-4.06Z" style="fill:white;fill-rule:nonzero;"/>
            </g>
            <g transform="matrix(1,0,0,1,182.998,171.823)">
                <path d="M0,-22.551C-1.734,-21.197 -3.109,-19.568 -4.118,-17.799C-5.09,-15.999 -5.656,-14.069 -5.769,-12.024C-5.882,-10.998 -5.865,-9.975 -5.785,-8.964C-5.735,-7.945 -5.512,-6.954 -5.246,-5.965C-4.957,-4.982 -4.575,-4.008 -4.119,-3.036C-3.69,-2.055 -3.151,-1.072 -2.849,0C-3.542,-0.86 -4.269,-1.648 -4.958,-2.526C-5.63,-3.408 -6.251,-4.369 -6.71,-5.425C-7.674,-7.529 -7.937,-9.919 -7.761,-12.181C-7.674,-13.313 -7.43,-14.483 -7.065,-15.585C-6.645,-16.675 -6.119,-17.725 -5.42,-18.649C-4.025,-20.483 -2.135,-21.927 0,-22.551" style="fill:rgb(48,53,71);fill-rule:nonzero;"/>
            </g>
            <g transform="matrix(1,0,0,1,197.406,162.554)">
                <path d="M0,-12.584C1.121,-12.094 2.068,-11.255 2.866,-10.323C3.671,-9.386 4.295,-8.306 4.797,-7.18C5.262,-6.039 5.605,-4.85 5.771,-3.638C5.877,-3.037 5.88,-2.421 5.924,-1.818C5.917,-1.209 5.887,-0.601 5.825,0C5.665,-0.591 5.564,-1.179 5.436,-1.76C5.28,-2.335 5.174,-2.916 5.007,-3.48C4.695,-4.613 4.33,-5.72 3.878,-6.789C2.955,-8.913 1.741,-10.911 0,-12.584" style="fill:rgb(48,53,71);fill-rule:nonzero;"/>
            </g>
        </g>
    </g>
</svg>
