<?xml version="1.0" encoding="UTF-8" standalone="no"?>
<!DOCTYPE svg PUBLIC "-//W3C//DTD SVG 1.1//EN" "http://www.w3.org/Graphics/SVG/1.1/DTD/svg11.dtd">
<svg width="100%" height="100%" viewBox="0 0 34 36" version="1.1" xmlns="http://www.w3.org/2000/svg" xmlns:xlink="http://www.w3.org/1999/xlink" xml:space="preserve" xmlns:serif="http://www.serif.com/" style="fill-rule:evenodd;clip-rule:evenodd;stroke-linejoin:round;stroke-miterlimit:2;">
    <g transform="matrix(1,0,0,1,-192,-147)">
        <g id="Background---Front-Lower-Leg" serif:id="Background - Front Lower Leg">
            <g transform="matrix(1,0,0,1,198.832,147.828)">
                <path d="M0,34.363C0,34.363 0.166,28.931 -2.328,24.608C-4.822,20.285 -6.817,17.292 -6.651,12.47C-6.485,7.649 -3.326,0 6.983,0C17.292,0 20.451,8.48 20.451,16.461C20.451,24.442 17.292,27.158 19.287,34.363L0,34.363Z" style="fill:rgb(131,139,197);fill-rule:nonzero;"/>
            </g>
            <g opacity="0.5">
                <g transform="matrix(1,0,0,1,198.832,147.828)">
                    <path d="M0,34.363C0,34.363 0.166,28.931 -2.328,24.608C-4.822,20.285 -6.817,17.292 -6.651,12.47C-6.485,7.649 -3.326,0 6.983,0C17.292,0 20.451,8.48 20.451,16.461C20.451,24.442 17.292,27.158 19.287,34.363L0,34.363Z" style="fill-rule:nonzero;"/>
                </g>
            </g>
            <g transform="matrix(0.620441,0.784253,0.784253,-0.620441,210.574,174.844)">
                <path d="M6.157,-4.059C6.157,-4.059 2,4.647 3.521,6.57L6.157,9.902C6.968,10.927 15.18,7.347 15.18,7.347L6.157,-4.059Z" style="fill:rgb(204,204,204);fill-rule:nonzero;"/>
            </g>
            <g opacity="0.3">
                <g transform="matrix(0.620441,0.784253,0.784253,-0.620441,210.574,174.844)">
                    <path d="M6.157,-4.059C6.157,-4.059 2,4.647 3.521,6.57L6.157,9.902C6.968,10.927 15.18,7.347 15.18,7.347L6.157,-4.059Z" style="fill-rule:nonzero;"/>
                </g>
            </g>
            <g transform="matrix(0.620406,0.784281,0.784281,-0.620406,205.498,174.844)">
                <path d="M6.157,-4.06C6.157,-4.06 2,4.647 3.521,6.57L6.157,9.902C6.968,10.927 15.181,7.348 15.181,7.348L6.157,-4.06Z" style="fill:white;fill-rule:nonzero;"/>
            </g>
            <g opacity="0.3">
                <g transform="matrix(0.620406,0.784281,0.784281,-0.620406,205.498,174.844)">
                    <path d="M6.157,-4.06C6.157,-4.06 2,4.647 3.521,6.57L6.157,9.902C6.968,10.927 15.181,7.348 15.181,7.348L6.157,-4.06Z" style="fill-rule:nonzero;"/>
                </g>
            </g>
        </g>
    </g>
</svg>
