<?xml version="1.0" encoding="UTF-8" standalone="no"?>
<!DOCTYPE svg PUBLIC "-//W3C//DTD SVG 1.1//EN" "http://www.w3.org/Graphics/SVG/1.1/DTD/svg11.dtd">
<svg width="100%" height="100%" viewBox="0 0 92 59" version="1.1" xmlns="http://www.w3.org/2000/svg" xmlns:xlink="http://www.w3.org/1999/xlink" xml:space="preserve" xmlns:serif="http://www.serif.com/" style="fill-rule:evenodd;clip-rule:evenodd;stroke-linejoin:round;stroke-miterlimit:2;">
    <g transform="matrix(1,0,0,1,-344,-130)">
        <g id="Herbivore-Head" serif:id="Herbivore Head">
            <g transform="matrix(1,0,0,1,429.271,136.656)">
                <path d="M0,45.943C0,45.943 1.042,51.526 -6.669,51.776C-14.955,52.046 -14.218,47.627 -30.452,45.05C-49.864,41.969 -48.443,48.602 -67.31,42.737C-82.539,38.003 -85.061,28.8 -84.415,17.716C-83.714,5.684 -73.51,-6.103 -58.157,-6.103C-42.804,-6.103 -35.247,-0.007 -30.033,6.811C-23.833,14.918 -19.84,18.237 -12.426,23.49C-5.982,28.055 9.098,36.708 4.926,44.613C3.904,46.55 0,45.943 0,45.943" style="fill:rgb(131,139,197);fill-rule:nonzero;"/>
            </g>
            <g opacity="0.5">
                <g transform="matrix(0.0047147,-0.999989,-0.999989,-0.0047147,380.363,111.589)">
                    <path d="M-31.789,-19.025C-24.996,-13.779 -18.935,-6.193 -19.008,9.159C-19.057,19.577 -24.522,27.598 -31.789,31.879C-31.789,31.879 -21.29,23.101 -20.899,8.681C-20.458,-7.604 -31.789,-19.025 -31.789,-19.025" style="fill:white;fill-rule:nonzero;"/>
                </g>
            </g>
            <g opacity="0.3">
                <g transform="matrix(1,0,0,1,361.718,168.513)">
                    <path d="M0,6.048C7.791,8.749 16.645,8.344 30.133,8.2C43.621,8.057 54.311,15.088 58.615,15.662C62.919,16.236 63.156,13.012 63.156,13.012L67.553,14.086C67.553,14.086 67.511,13.735 67.553,14.086C67.788,16.061 67.15,19.716 60.884,19.92C52.598,20.189 53.335,15.77 37.102,13.194C17.689,10.112 19.11,16.745 0.243,10.88C-14.986,6.146 -17.508,-3.056 -16.862,-14.141C-16.862,-14.141 -14.277,1.097 0,6.048" style="fill-rule:nonzero;"/>
                </g>
            </g>
            <g opacity="0.3">
                <g transform="matrix(0.649009,0.760781,0.760781,-0.649009,421.021,172.147)">
                    <path d="M2.181,-1.006C-0.022,-1.007 -1.807,0.278 -1.807,1.861C-1.807,3.445 -0.021,4.729 2.182,4.728C4.385,4.729 6.17,3.445 6.17,1.862C6.17,0.277 4.385,-1.006 2.181,-1.006" style="fill-rule:nonzero;"/>
                </g>
            </g>
            <g transform="matrix(0.649097,0.760706,0.760706,-0.649097,421.451,171.657)">
                <path d="M1.85,-0.854C-0.116,-0.854 -1.71,0.236 -1.709,1.579C-1.709,2.922 -0.116,4.011 1.85,4.011C3.817,4.011 5.411,2.922 5.411,1.578C5.411,0.234 3.816,-0.855 1.85,-0.854" style="fill:rgb(61,66,91);fill-rule:nonzero;"/>
            </g>
            <g transform="matrix(1,0,0,1,357.719,167.395)">
                <path d="M0,10.449C-1.608,8.868 -2.84,6.745 -2.969,4.371C-3.031,3.196 -2.786,1.996 -2.279,0.914C-1.775,-0.174 -0.989,-1.111 -0.094,-1.891C1.731,-3.441 3.979,-4.331 6.235,-4.89C8.508,-5.43 10.834,-5.643 13.144,-5.651C15.463,-5.678 17.746,-5.448 20.027,-5.201C22.306,-4.896 24.594,-4.532 26.828,-3.901C31.334,-2.714 35.479,-0.614 39.532,1.386C47.591,5.512 55.835,9.14 64.313,12.306L67.497,13.478C68.567,13.854 69.615,14.307 70.641,14.555C71.681,14.812 72.759,14.927 73.779,14.778C74.794,14.631 75.73,14.163 76.251,13.337C76.801,12.515 76.838,11.414 76.765,10.316C76.695,9.227 76.398,8.165 75.872,7.195C75.355,6.22 74.657,5.33 73.924,4.473C73.195,3.61 72.426,2.775 71.654,1.943C73.315,3.48 75.075,4.954 76.324,6.936C76.947,7.92 77.354,9.071 77.502,10.237C77.646,11.364 77.731,12.667 77.079,13.828C76.448,14.999 75.175,15.666 73.977,15.892C72.756,16.127 71.532,16.044 70.363,15.815C69.169,15.584 68.11,15.168 67.032,14.827L63.793,13.76C55.167,10.889 46.743,7.278 38.641,3.173C34.588,1.145 30.592,-0.901 26.315,-2.071C22.074,-3.308 17.56,-3.86 13.127,-4.076C10.905,-4.153 8.683,-4.008 6.521,-3.596C4.371,-3.175 2.249,-2.438 0.533,-1.12C-1.208,0.143 -2.413,2.155 -2.433,4.362C-2.448,6.559 -1.45,8.72 0,10.449" style="fill:rgb(48,53,71);fill-rule:nonzero;"/>
            </g>
            <g opacity="0.3">
                <g transform="matrix(-0.999031,0.0440188,0.0440188,0.999031,378.749,157.458)">
                    <path d="M-1.186,-18.834C4.506,-19.085 8.372,-14.908 8.591,-9.95C8.809,-4.99 5.098,-0.232 -1.186,0.044C-7.471,0.321 -9.165,-4.448 -9.31,-7.733C-9.455,-11.017 -7.825,-18.541 -1.186,-18.834" style="fill-rule:nonzero;"/>
                </g>
            </g>
            <g transform="matrix(-0.99894,0.0460371,0.0460371,0.99894,378.77,155.326)">
                <path d="M-1.117,-16.964C4.243,-17.211 7.884,-13.463 8.09,-8.997C8.296,-4.53 4.802,-0.229 -1.117,0.044C-7.034,0.316 -8.631,-3.974 -8.767,-6.932C-8.903,-9.891 -7.37,-16.676 -1.117,-16.964" style="fill:white;fill-rule:nonzero;"/>
            </g>
            <g transform="matrix(0,-1,-1,0,382.263,147.929)">
                <path d="M-1.257,-1.257C-2.223,-1.257 -3.007,-0.694 -3.007,-0C-3.007,0.695 -2.223,1.257 -1.257,1.257C-0.292,1.257 0.492,0.695 0.492,-0C0.492,-0.694 -0.292,-1.257 -1.257,-1.257" style="fill-rule:nonzero;"/>
            </g>
            <g transform="matrix(1,0,0,1,346.118,182.494)">
                <path d="M0,-34.474C-0.905,-29.452 -1.071,-24.286 0.062,-19.455C0.667,-17.065 1.521,-14.733 2.902,-12.733C4.29,-10.741 6.009,-9.057 8.063,-7.649C10.091,-6.25 12.286,-5.092 14.598,-4.188C16.917,-3.296 19.342,-2.681 21.807,-2.21C26.751,-1.28 31.855,-1.262 36.98,-1.267C31.938,-0.435 26.748,0 21.573,-0.667C18.988,-0.968 16.432,-1.575 13.941,-2.412C11.469,-3.314 9.111,-4.536 6.917,-6.012C4.772,-7.522 2.784,-9.454 1.319,-11.704C-0.117,-13.986 -1.002,-16.552 -1.46,-19.141C-2.366,-24.341 -1.706,-29.649 0,-34.474" style="fill:rgb(48,53,71);fill-rule:nonzero;"/>
            </g>
        </g>
    </g>
</svg>
