<?xml version="1.0" encoding="UTF-8" standalone="no"?>
<!DOCTYPE svg PUBLIC "-//W3C//DTD SVG 1.1//EN" "http://www.w3.org/Graphics/SVG/1.1/DTD/svg11.dtd">
<svg width="100%" height="100%" viewBox="0 0 220 96" version="1.1" xmlns="http://www.w3.org/2000/svg" xmlns:xlink="http://www.w3.org/1999/xlink" xml:space="preserve" xmlns:serif="http://www.serif.com/" style="fill-rule:evenodd;clip-rule:evenodd;stroke-linejoin:round;stroke-miterlimit:2;">
    <g transform="matrix(1,0,0,1,-19,-70)">
        <g id="Medium-Quaruped-Body" serif:id="Medium Quaruped Body">
            <g transform="matrix(1,0,0,1,232.879,140.961)">
                <path d="M0,-45.791C-7.995,-57.504 -16.627,-72.444 -72.56,-69.783C-123.647,-67.353 -158.758,-31.541 -170.163,-16.577C-181.567,-1.612 -195.202,10.691 -213.159,19.005C-213.159,19.005 -186.359,26.653 -170.163,21.001C-153.966,15.347 -142.687,9.18 -126.698,10.359C-106.413,11.855 -88.487,24.393 -61.795,23.083C-32.921,21.666 -8.253,12.772 2.328,-10.386C8.147,-23.123 5.714,-37.418 0,-45.791" style="fill:rgb(131,139,197);fill-rule:nonzero;"/>
            </g>
            <g opacity="0.3">
                <g transform="matrix(1,0,0,1,235.207,159.369)">
                    <path d="M0,-28.794C-10.581,-5.636 -35.249,3.258 -64.123,4.675C-90.814,5.985 -108.741,-6.552 -129.026,-8.049C-145.014,-9.228 -156.294,-3.061 -172.491,2.593C-188.687,8.246 -215.486,0.597 -215.486,0.597C-215.486,0.597 -187.185,1.581 -177.948,-1.232C-168.711,-4.045 -154.412,-13.694 -130.137,-13.694C-105.861,-13.694 -83.082,0.943 -54.367,-2.798C-35.275,-5.285 -16.075,-17.144 -10.631,-29.698C-7.448,-37.04 0,-28.794 0,-28.794" style="fill-rule:nonzero;"/>
                </g>
            </g>
            <g opacity="0.15">
                <g transform="matrix(1,0,0,1,57.2588,69.5698)">
                    <path d="M0,61.56C3.658,59.463 8.487,60.742 12.005,61.005C21.107,61.687 16.999,53.318 17.497,49.122C17.996,44.926 24.958,45.253 29.303,45.253C37.616,45.253 34.248,41.122 35.455,35.105C36.84,28.197 47.068,24.333 51.25,25.069C56.618,26.012 60.038,30.59 64.195,27.227C68.352,23.865 67.378,17.238 71.875,12.499C76.372,7.761 81.678,13.247 85.222,16.879C88.766,20.512 91.682,24.055 98.36,23.556C105.038,23.057 98.97,11.252 104.623,8.646C110.276,6.04 114.301,13.128 118.913,12.499C131.313,10.809 126.112,21.949 131.101,22.447C136.088,22.946 139.196,14.485 145.08,12.499C151.731,10.254 162.894,11.595 165.062,13.091L165.075,13.076C155.888,5.62 139.527,-0.127 103.061,1.608C51.973,4.038 16.862,39.851 5.458,54.815C3.694,57.128 1.878,59.378 0,61.56" style="fill-rule:nonzero;"/>
                </g>
            </g>
            <g opacity="0.15">
                <g transform="matrix(-1,0,0,1,171.138,101.661)">
                    <path d="M2.439,-12.193C5.834,-11.627 5.167,-8.61 6.352,-6.079C7.538,-3.547 7.538,-1.321 2.439,-0.328C-2.66,0.665 -4.969,0.415 -5.034,-3.894C-5.099,-8.203 -1.552,-12.858 2.439,-12.193" style="fill-rule:nonzero;"/>
                </g>
            </g>
            <g opacity="0.15">
                <g transform="matrix(1,0,0,1,82.9033,127.06)">
                    <path d="M0,-5.986C-2.25,-4.432 -0.887,0.53 1.663,1.643C4.212,2.756 7.426,1.198 8.369,-1.016C9.311,-3.23 3.991,-8.742 0,-5.986" style="fill-rule:nonzero;"/>
                </g>
            </g>
            <g transform="matrix(1,0,0,1,62.7163,133.722)">
                <path d="M0,28.24C3.661,26.847 7.282,25.365 10.92,23.917C14.557,22.466 18.204,21.018 21.951,19.808C25.699,18.615 29.555,17.684 33.486,17.188C37.414,16.692 41.41,16.63 45.354,17.03C47.335,17.17 49.283,17.528 51.24,17.831C53.175,18.234 55.113,18.634 57.015,19.149C60.836,20.123 64.592,21.286 68.33,22.446C75.801,24.773 83.268,27.038 90.925,28.255L93.795,28.699C94.75,28.855 95.717,28.913 96.678,29.025C98.6,29.27 100.533,29.323 102.465,29.413C103.431,29.484 104.398,29.442 105.365,29.432L108.266,29.391C110.207,29.268 112.151,29.167 114.09,29.015C121.843,28.372 129.532,27.041 136.984,24.88C144.439,22.741 151.554,19.37 157.761,14.712C164.014,10.098 168.967,3.837 172.491,-3.147C170.843,0.394 169.039,3.923 166.566,6.998C165.444,8.624 164.052,10.024 162.736,11.495C162.084,12.238 161.306,12.851 160.595,13.536C159.856,14.189 159.172,14.912 158.365,15.484C152.165,20.391 144.972,23.992 137.439,26.349C129.917,28.786 122.083,30.084 114.248,30.829C112.286,30.997 110.321,31.116 108.356,31.255L105.387,31.321C104.396,31.339 103.406,31.387 102.417,31.324C100.438,31.247 98.456,31.206 96.488,30.972C95.504,30.866 94.513,30.812 93.535,30.662L90.599,30.226C82.787,28.922 75.233,26.561 67.786,24.179C64.056,22.99 60.338,21.808 56.58,20.82C52.825,19.819 49.034,18.983 45.194,18.553C41.36,18.073 37.477,18.043 33.629,18.438C29.779,18.828 25.975,19.666 22.234,20.741C14.733,22.867 7.474,25.897 0,28.24" style="fill:rgb(48,53,71);fill-rule:nonzero;"/>
            </g>
            <g opacity="0.5">
                <g transform="matrix(1,0,0,1,219.36,113.528)">
                    <path d="M0,-33.054C-9.674,-39.408 -26.208,-43.911 -59.041,-42.349C-110.128,-39.92 -145.239,-4.107 -156.644,10.857C-156.644,10.857 -134.111,-14.642 -107.477,-26.429C-90.876,-33.777 -77.046,-38.989 -49.204,-39.982C-15.802,-41.172 0,-33.054 0,-33.054" style="fill:white;fill-rule:nonzero;"/>
                </g>
            </g>
        </g>
    </g>
</svg>
