<?xml version="1.0" encoding="UTF-8" standalone="no"?>
<!DOCTYPE svg PUBLIC "-//W3C//DTD SVG 1.1//EN" "http://www.w3.org/Graphics/SVG/1.1/DTD/svg11.dtd">
<svg width="100%" height="100%" viewBox="0 0 94 66" version="1.1" xmlns="http://www.w3.org/2000/svg" xmlns:xlink="http://www.w3.org/1999/xlink" xml:space="preserve" xmlns:serif="http://www.serif.com/" style="fill-rule:evenodd;clip-rule:evenodd;stroke-linejoin:round;stroke-miterlimit:2;">
    <g transform="matrix(1,0,0,1,-212,-77)">
        <g id="Omnivore-Head" serif:id="Omnivore Head">
            <g transform="matrix(1,0,0,1,291.968,92.8135)">
                <path d="M0,37.287C0,37.287 2.593,43.416 -2.539,46.98C-10.433,52.462 -20.566,47.122 -27.694,45.982C-34.822,44.842 -43.881,46.552 -59.99,40.565C-76.099,34.578 -80.233,22.3 -79.663,8.489C-79.169,-3.475 -68.829,-15.175 -53.575,-15.175C-38.321,-15.175 -32.334,-7.62 -25.633,-2.345C-18.933,2.93 -7.814,9.202 -7.814,9.202C-7.814,9.202 3.68,13.053 0,37.287" style="fill:rgb(131,139,197);fill-rule:nonzero;"/>
            </g>
            <g opacity="0.5">
                <g transform="matrix(-0.0402257,-0.999191,-0.999191,0.0402257,244.713,58.9575)">
                    <path d="M-32.355,-20.337C-26.815,-13.854 -19.024,-8.175 -18.411,7.065C-17.951,18.497 -24.178,27.432 -32.355,31.595C-32.355,31.595 -19.64,23.544 -20.269,7.922C-20.898,-7.702 -32.355,-20.337 -32.355,-20.337" style="fill:white;fill-rule:nonzero;"/>
                </g>
            </g>
            <g transform="matrix(1,0,0,1,270.754,127.041)">
                <path d="M0,-23.742C0,-23.742 10.584,-28.939 21.241,-27.021C28.369,-25.738 32.218,-21.461 33.359,-16.044C34.499,-10.627 33.929,-1.075 24.948,2.061C15.967,5.197 5.988,3.097 -2.566,-0.505C-8.717,-3.096 -14.968,-7.776 -19.958,-10.627C-24.948,-13.478 -29.937,-15.759 -35.782,-15.046C-41.926,-14.297 -50.054,-8.346 -45.35,3.059" style="fill:rgb(131,139,197);fill-rule:nonzero;"/>
            </g>
            <g transform="matrix(1,0,0,1,270.754,127.5)">
                <path d="M0,-24.201C2.812,-25.591 5.799,-26.648 8.875,-27.347C11.944,-28.068 15.117,-28.437 18.303,-28.292C21.467,-28.141 24.72,-27.496 27.552,-25.823C30.385,-24.186 32.625,-21.451 33.643,-18.309C34.173,-16.742 34.455,-15.13 34.571,-13.508C34.691,-11.886 34.621,-10.244 34.333,-8.626C33.793,-5.409 32.266,-2.183 29.647,-0.007C28.357,1.085 26.857,1.894 25.295,2.459C23.753,2.966 22.191,3.428 20.586,3.667C17.391,4.236 14.13,4.187 10.94,3.84C7.755,3.416 4.631,2.656 1.617,1.627C0.104,1.124 -1.376,0.536 -2.843,-0.075C-4.321,-0.704 -5.751,-1.424 -7.144,-2.189C-12.725,-5.246 -17.728,-9.076 -23.184,-11.97C-25.908,-13.397 -28.781,-14.563 -31.8,-14.919C-33.3,-15.1 -34.841,-15.082 -36.327,-14.871C-37.809,-14.635 -39.25,-14.109 -40.583,-13.394C-43.255,-11.98 -45.409,-9.51 -46.183,-6.527C-46.97,-3.542 -46.443,-0.318 -45.35,2.6C-46.625,-0.238 -47.372,-3.481 -46.676,-6.646C-46.013,-9.807 -43.836,-12.568 -41.048,-14.206C-39.662,-15.048 -38.123,-15.637 -36.517,-15.946C-34.907,-16.222 -33.289,-16.289 -31.671,-16.146C-28.429,-15.863 -25.352,-14.713 -22.497,-13.326C-19.636,-11.939 -16.919,-10.282 -14.283,-8.592C-11.635,-6.913 -9.001,-5.246 -6.278,-3.782C-4.917,-3.051 -3.537,-2.373 -2.125,-1.787C-0.692,-1.209 0.75,-0.653 2.218,-0.183C5.144,0.788 8.153,1.469 11.185,1.859C14.213,2.219 17.289,2.296 20.28,1.794C21.783,1.589 23.242,1.169 24.68,0.715C26.069,0.226 27.373,-0.465 28.489,-1.39C30.746,-3.23 32.12,-6 32.646,-8.93C33.153,-11.854 33.074,-14.999 32.218,-17.845C31.377,-20.705 29.465,-23.189 26.914,-24.772C24.366,-26.393 21.3,-27.08 18.24,-27.356C15.167,-27.638 12.04,-27.422 8.978,-26.848C7.444,-26.575 5.926,-26.201 4.428,-25.758C2.928,-25.319 1.439,-24.824 0,-24.201" style="fill:rgb(146,217,0);fill-rule:nonzero;"/>
            </g>
            <g opacity="0.5">
                <g transform="matrix(-0.242648,0.970114,0.970114,0.242648,293.623,90.175)">
                    <path d="M17.006,-17.322C17.006,-17.322 11.779,-11.223 9.946,0.809C9.946,0.809 9.947,9.775 17.006,14.148C17.006,14.148 11.883,9.639 11.925,1.12C11.952,-4.273 12.602,-7.829 17.006,-17.322" style="fill:white;fill-rule:nonzero;"/>
                </g>
            </g>
            <g opacity="0.3">
                <g transform="matrix(0.648997,0.760791,0.760791,-0.648997,290.548,109.96)">
                    <path d="M2.167,-1C-0.021,-0.999 -1.795,0.275 -1.795,1.85C-1.796,3.422 -0.021,4.699 2.167,4.698C4.356,4.698 6.13,3.422 6.13,1.849C6.13,0.276 4.356,-1 2.167,-1" style="fill-rule:nonzero;"/>
                </g>
            </g>
            <g transform="matrix(0.649052,0.760744,0.760744,-0.649052,290.975,109.473)">
                <path d="M1.838,-0.848C-0.115,-0.848 -1.7,0.234 -1.699,1.569C-1.698,2.904 -0.115,3.986 1.838,3.987C3.792,3.985 5.376,2.904 5.375,1.569C5.376,0.234 3.792,-0.848 1.838,-0.848" style="fill:rgb(61,66,91);fill-rule:nonzero;"/>
            </g>
            <g opacity="0.3">
                <g transform="matrix(-0.999031,0.0440055,0.0440055,0.999031,245.979,104.732)">
                    <path d="M-1.17,-18.59C4.447,-18.838 8.264,-14.715 8.48,-9.82C8.696,-4.927 5.033,-0.229 -1.17,0.044C-7.373,0.317 -9.047,-4.391 -9.19,-7.633C-9.333,-10.876 -7.725,-18.302 -1.17,-18.59" style="fill-rule:nonzero;"/>
                </g>
            </g>
            <g transform="matrix(-0.998942,0.0459831,0.0459831,0.998942,246,102.629)">
                <path d="M-1.101,-16.746C4.189,-16.989 7.783,-13.289 7.986,-8.88C8.189,-4.472 4.74,-0.226 -1.101,0.043C-6.943,0.312 -8.519,-3.923 -8.654,-6.844C-8.788,-9.765 -7.274,-16.462 -1.101,-16.746" style="fill:white;fill-rule:nonzero;"/>
            </g>
            <g transform="matrix(0,-1,-1,0,249.447,95.3272)">
                <path d="M-1.241,-1.241C-2.194,-1.241 -2.967,-0.685 -2.967,0C-2.967,0.686 -2.194,1.241 -1.241,1.241C-0.288,1.241 0.485,0.686 0.485,0C0.485,-0.685 -0.288,-1.241 -1.241,-1.241" style="fill-rule:nonzero;"/>
            </g>
            <g opacity="0.3">
                <g transform="matrix(1,0,0,1,240.39,130.365)">
                    <path d="M0,-18.206C0,-18.206 9.57,-19.012 25.582,-9.773C34.974,-4.353 42.273,-3.723 49.437,-4.043C56.6,-4.364 60.453,-8.392 63.766,-15.252C63.766,-15.252 63.77,0.806 46.339,0.252C28.908,-0.301 19.96,-7.866 16.094,-10.178C12.229,-12.49 0,-18.206 0,-18.206" style="fill-rule:nonzero;"/>
                </g>
            </g>
            <g opacity="0.3">
                <g transform="matrix(1,0,0,1,261.183,112.48)">
                    <path d="M0,21.618C7.934,21.618 15.738,25.424 21.564,24.65C27.346,23.882 26.188,17.554 26.188,17.554L30.785,17.62C30.785,17.62 33.378,23.749 28.246,27.313C20.352,32.795 10.219,27.456 3.091,26.316C-4.037,25.175 -13.096,26.886 -29.205,20.898C-45.314,14.911 -49.448,2.633 -48.878,-11.177C-48.878,-11.177 -49.023,21.618 0,21.618" style="fill-rule:nonzero;"/>
                </g>
            </g>
            <g transform="matrix(1,0,0,1,270.754,127.5)">
                <path d="M0,-24.201C2.812,-25.591 5.799,-26.648 8.875,-27.347C11.944,-28.068 15.117,-28.437 18.303,-28.292C21.467,-28.141 24.72,-27.496 27.552,-25.823C30.385,-24.186 32.625,-21.451 33.643,-18.309C34.173,-16.742 34.455,-15.13 34.571,-13.508C34.691,-11.886 34.621,-10.244 34.333,-8.626C33.793,-5.409 32.266,-2.183 29.647,-0.007C28.357,1.085 26.857,1.894 25.295,2.459C23.753,2.966 22.191,3.428 20.586,3.667C17.391,4.236 14.13,4.187 10.94,3.84C7.755,3.416 4.631,2.656 1.617,1.627C0.104,1.124 -1.376,0.536 -2.843,-0.075C-4.321,-0.704 -5.751,-1.424 -7.144,-2.189C-12.725,-5.246 -17.728,-9.076 -23.184,-11.97C-25.908,-13.397 -28.781,-14.563 -31.8,-14.919C-33.3,-15.1 -34.841,-15.082 -36.327,-14.871C-37.809,-14.635 -39.25,-14.109 -40.583,-13.394C-43.255,-11.98 -45.409,-9.51 -46.183,-6.527C-46.97,-3.542 -46.443,-0.318 -45.35,2.6C-46.625,-0.238 -47.372,-3.481 -46.676,-6.646C-46.013,-9.807 -43.836,-12.568 -41.048,-14.206C-39.662,-15.048 -38.123,-15.637 -36.517,-15.946C-34.907,-16.222 -33.289,-16.289 -31.671,-16.146C-28.429,-15.863 -25.352,-14.713 -22.497,-13.326C-19.636,-11.939 -16.919,-10.282 -14.283,-8.592C-11.635,-6.913 -9.001,-5.246 -6.278,-3.782C-4.917,-3.051 -3.537,-2.373 -2.125,-1.787C-0.692,-1.209 0.75,-0.653 2.218,-0.183C5.144,0.788 8.153,1.469 11.185,1.859C14.213,2.219 17.289,2.296 20.28,1.794C21.783,1.589 23.242,1.169 24.68,0.715C26.069,0.226 27.373,-0.465 28.489,-1.39C30.746,-3.23 32.12,-6 32.646,-8.93C33.153,-11.854 33.074,-14.999 32.218,-17.845C31.377,-20.705 29.465,-23.189 26.914,-24.772C24.366,-26.393 21.3,-27.08 18.24,-27.356C15.167,-27.638 12.04,-27.422 8.978,-26.848C7.444,-26.575 5.926,-26.201 4.428,-25.758C2.928,-25.319 1.439,-24.824 0,-24.201" style="fill:rgb(48,53,71);fill-rule:nonzero;"/>
            </g>
            <g transform="matrix(1,0,0,1,264.274,101.303)">
                <path d="M0,37.493C-3.068,37.26 -6.122,37.347 -9.208,37.338C-12.29,37.292 -15.392,37.105 -18.464,36.648C-21.542,36.222 -24.574,35.506 -27.562,34.661C-30.542,33.804 -33.468,32.755 -36.333,31.411C-39.176,30.056 -41.835,28.244 -44.124,26.039C-46.394,23.818 -48.287,21.192 -49.574,18.303C-50.892,15.427 -51.646,12.344 -52.001,9.257C-52.309,6.161 -52.313,3.059 -51.969,0C-51.819,6.126 -50.894,12.298 -48.168,17.623C-45.46,22.946 -40.86,27.084 -35.455,29.616C-32.782,30.912 -29.913,31.955 -27.014,32.854C-24.125,33.782 -21.181,34.519 -18.205,35.115C-15.224,35.692 -12.205,36.086 -9.156,36.365C-6.117,36.701 -3.011,36.812 0,37.493" style="fill:rgb(48,53,71);fill-rule:nonzero;"/>
            </g>
        </g>
    </g>
</svg>
