<?xml version="1.0" encoding="UTF-8" standalone="no"?>
<!DOCTYPE svg PUBLIC "-//W3C//DTD SVG 1.1//EN" "http://www.w3.org/Graphics/SVG/1.1/DTD/svg11.dtd">
<svg width="100%" height="100%" viewBox="0 0 101 101" version="1.1" xmlns="http://www.w3.org/2000/svg" xmlns:xlink="http://www.w3.org/1999/xlink" xml:space="preserve" xmlns:serif="http://www.serif.com/" style="fill-rule:evenodd;clip-rule:evenodd;stroke-linecap:round;stroke-linejoin:round;">
    <g transform="matrix(1,0,0,1,-3159.6,-107.96)">
        <g id="Layer3">
        </g>
        <g id="atrocious" transform="matrix(1,0,0,1,2587.59,-413.04)">
            <rect x="572.007" y="521" width="100.045" height="100.045" style="fill:none;"/>
            <g transform="matrix(0.982093,0,0,0.916833,-2529.99,429.635)">
                <path d="M3251.1,130.853C3251.1,118.218 3241.52,107.96 3229.72,107.96L3186.94,107.96C3175.14,107.96 3165.57,118.218 3165.57,130.853L3165.57,176.641C3165.57,189.276 3175.14,199.534 3186.94,199.534L3229.72,199.534C3241.52,199.534 3251.1,189.276 3251.1,176.641L3251.1,130.853Z" style="fill:rgb(231,111,81);"/>
                <path d="M3256.19,130.853C3256.19,115.208 3244.33,102.506 3229.72,102.506C3229.72,102.506 3186.94,102.506 3186.94,102.506C3172.33,102.506 3160.47,115.208 3160.47,130.853L3160.47,176.641C3160.47,192.286 3172.33,204.988 3186.94,204.988L3229.72,204.988C3244.33,204.988 3256.19,192.286 3256.19,176.641L3256.19,130.853ZM3251.1,130.853C3251.1,118.218 3241.52,107.96 3229.72,107.96L3186.94,107.96C3175.14,107.96 3165.57,118.218 3165.57,130.853L3165.57,176.641C3165.57,189.276 3175.14,199.534 3186.94,199.534L3229.72,199.534C3241.52,199.534 3251.1,189.276 3251.1,176.641L3251.1,130.853Z"/>
            </g>
            <g transform="matrix(0.271861,0,0,0.271861,572.007,521)">
                <path d="M184,224C154.176,224 125.76,236.632 106.04,258.664C103.096,261.96 103.376,267.016 106.664,269.96C109.96,272.912 115.008,272.624 117.96,269.336C134.648,250.688 158.72,240 184,240C209.288,240 233.352,250.688 250.04,269.336C251.616,271.104 253.808,272 256,272C257.896,272 259.808,271.328 261.336,269.96C264.632,267.016 264.904,261.96 261.96,258.664C242.248,236.64 213.832,224 184,224Z" style="fill-rule:nonzero;"/>
            </g>
            <g transform="matrix(1,0,0,1,4.48983,2.449)">
                <g transform="matrix(0.687802,0.725898,-0.725898,0.687802,676.987,-359.635)">
                    <path d="M603.989,683.98L621.574,683.506" style="fill:none;stroke:black;stroke-width:4.5px;"/>
                </g>
                <g transform="matrix(-0.725898,0.687802,-0.687802,-0.725898,1517.23,630.317)">
                    <path d="M603.989,683.98L621.574,683.506" style="fill:none;stroke:black;stroke-width:4.5px;"/>
                </g>
            </g>
            <g transform="matrix(1,0,0,1,34.6942,2.449)">
                <g transform="matrix(0.687802,0.725898,-0.725898,0.687802,676.987,-359.635)">
                    <path d="M603.989,683.98L621.574,683.506" style="fill:none;stroke:black;stroke-width:4.5px;"/>
                </g>
                <g transform="matrix(-0.725898,0.687802,-0.687802,-0.725898,1517.23,630.317)">
                    <path d="M603.989,683.98L621.574,683.506" style="fill:none;stroke:black;stroke-width:4.5px;"/>
                </g>
            </g>
            <g transform="matrix(2.0167,0,0,2.0167,-10387.1,185.871)">
                <circle cx="5457.53" cy="171.418" r="1.488" style="fill:white;fill-opacity:0.4;"/>
            </g>
            <g transform="matrix(1.07491,0.611072,-0.611072,1.07491,-5012.02,-2880.08)">
                <path d="M5307.33,181.724C5298.59,169.058 5300.31,159.566 5313.2,153.459" style="fill:none;stroke:white;stroke-opacity:0.4;stroke-width:4.85px;"/>
            </g>
        </g>
    </g>
</svg>
