<?xml version="1.0" encoding="UTF-8" standalone="no"?>
<!DOCTYPE svg PUBLIC "-//W3C//DTD SVG 1.1//EN" "http://www.w3.org/Graphics/SVG/1.1/DTD/svg11.dtd">
<svg width="100%" height="100%" viewBox="0 0 101 101" version="1.1" xmlns="http://www.w3.org/2000/svg" xmlns:xlink="http://www.w3.org/1999/xlink" xml:space="preserve" xmlns:serif="http://www.serif.com/" style="fill-rule:evenodd;clip-rule:evenodd;stroke-linecap:round;stroke-linejoin:round;">
    <g transform="matrix(1,0,0,1,-3790.96,-107.781)">
        <g id="Layer3">
        </g>
        <g id="happy" transform="matrix(1,0,0,1,3101.31,-413.219)">
            <rect x="689.651" y="521" width="100.045" height="100.045" style="fill:none;"/>
            <g transform="matrix(1,0,0,1,-3097.04,522.281)">
                <g transform="matrix(0.982093,0,0,0.916833,685.921,-91.5528)">
                    <path d="M3251.1,130.853C3251.1,118.218 3241.52,107.96 3229.72,107.96L3186.94,107.96C3175.14,107.96 3165.57,118.218 3165.57,130.853L3165.57,176.641C3165.57,189.276 3175.14,199.534 3186.94,199.534L3229.72,199.534C3241.52,199.534 3251.1,189.276 3251.1,176.641L3251.1,130.853Z" style="fill:rgb(26,148,198);"/>
                    <path d="M3256.19,130.853C3256.19,115.208 3244.33,102.506 3229.72,102.506L3186.94,102.506C3172.33,102.506 3160.47,115.208 3160.47,130.853C3160.47,130.853 3160.47,176.641 3160.47,176.641C3160.47,192.286 3172.33,204.988 3186.94,204.988C3186.94,204.988 3229.72,204.988 3229.72,204.988C3244.33,204.988 3256.19,192.286 3256.19,176.641L3256.19,130.853ZM3251.1,130.853C3251.1,118.218 3241.52,107.96 3229.72,107.96L3186.94,107.96C3175.14,107.96 3165.57,118.218 3165.57,130.853L3165.57,176.641C3165.57,189.276 3175.14,199.534 3186.94,199.534L3229.72,199.534C3241.52,199.534 3251.1,189.276 3251.1,176.641L3251.1,130.853Z"/>
                </g>
                <g transform="matrix(2.0167,0,0,2.0167,-7171.23,-335.317)">
                    <circle cx="5457.53" cy="171.418" r="1.488" style="fill:white;fill-opacity:0.4;"/>
                </g>
                <g transform="matrix(1.07491,0.611072,-0.611072,1.07491,-1796.11,-3401.27)">
                    <path d="M5307.33,181.724C5298.59,169.058 5300.31,159.566 5313.2,153.459" style="fill:none;stroke:white;stroke-opacity:0.4;stroke-width:4.85px;"/>
                </g>
            </g>
            <g transform="matrix(0.271861,0,0,0.271861,689.651,521)">
                <path d="M248,112C234.768,112 224,122.768 224,136C224,149.232 234.768,160 248,160C261.232,160 272,149.232 272,136C272,122.768 261.232,112 248,112ZM248,144C243.584,144 240,140.408 240,136C240,131.592 243.584,128 248,128C252.416,128 256,131.592 256,136C256,140.408 252.416,144 248,144Z" style="fill-rule:nonzero;"/>
            </g>
            <g transform="matrix(0.271861,0,0,0.271861,689.651,521)">
                <path d="M120,160C133.232,160 144,149.232 144,136C144,122.768 133.232,112 120,112C106.768,112 96,122.768 96,136C96,149.232 106.768,160 120,160ZM120,128C124.416,128 128,131.592 128,136C128,140.408 124.416,144 120,144C115.584,144 112,140.408 112,136C112,131.592 115.584,128 120,128Z" style="fill-rule:nonzero;"/>
            </g>
            <g transform="matrix(0.271861,0,0,0.271861,689.651,521)">
                <path d="M264,208L104,208C99.576,208 96,211.584 96,216C96,264.52 135.48,304 184,304C232.52,304 272,264.52 272,216C272,211.584 268.424,208 264,208ZM184,288C147,288 116.44,259.952 112.448,224L255.552,224C251.56,259.952 221,288 184,288Z" style="fill-rule:nonzero;"/>
            </g>
        </g>
    </g>
</svg>
