<?xml version="1.0" encoding="UTF-8" standalone="no"?>
<!DOCTYPE svg PUBLIC "-//W3C//DTD SVG 1.1//EN" "http://www.w3.org/Graphics/SVG/1.1/DTD/svg11.dtd">
<svg width="100%" height="100%" viewBox="0 0 101 101" version="1.1" xmlns="http://www.w3.org/2000/svg" xmlns:xlink="http://www.w3.org/1999/xlink" xml:space="preserve" xmlns:serif="http://www.serif.com/" style="fill-rule:evenodd;clip-rule:evenodd;stroke-linecap:round;stroke-linejoin:round;">
    <g transform="matrix(1,0,0,1,-3284.65,-107.781)">
        <g id="Layer3">
        </g>
        <g id="pain" transform="matrix(1,0,0,1,2712.64,-413.219)">
            <rect x="572.007" y="521" width="100.045" height="100.045" style="fill:none;"/>
            <g transform="matrix(0.982093,0,0,0.916833,-2528.85,430.062)">
                <path d="M3251.1,130.853C3251.1,118.218 3241.52,107.96 3229.72,107.96L3186.94,107.96C3175.14,107.96 3165.57,118.218 3165.57,130.853L3165.57,176.641C3165.57,189.276 3175.14,199.534 3186.94,199.534L3229.72,199.534C3241.52,199.534 3251.1,189.276 3251.1,176.641L3251.1,130.853Z" style="fill:rgb(244,162,97);"/>
                <path d="M3256.19,130.853C3256.19,115.208 3244.33,102.506 3229.72,102.506C3229.72,102.506 3186.94,102.506 3186.94,102.506C3172.33,102.506 3160.47,115.208 3160.47,130.853C3160.47,130.853 3160.47,176.641 3160.47,176.641C3160.47,192.286 3172.33,204.988 3186.94,204.988C3186.94,204.988 3229.72,204.988 3229.72,204.988C3244.33,204.988 3256.19,192.286 3256.19,176.641C3256.19,176.641 3256.19,130.853 3256.19,130.853ZM3251.1,130.853C3251.1,118.218 3241.52,107.96 3229.72,107.96L3186.94,107.96C3175.14,107.96 3165.57,118.218 3165.57,130.853L3165.57,176.641C3165.57,189.276 3175.14,199.534 3186.94,199.534L3229.72,199.534C3241.52,199.534 3251.1,189.276 3251.1,176.641L3251.1,130.853Z"/>
            </g>
            <g transform="matrix(2.0167,0,0,2.0167,-10385.8,186.231)">
                <circle cx="5457.53" cy="171.418" r="1.488" style="fill:white;fill-opacity:0.4;"/>
            </g>
            <g transform="matrix(1.07491,0.611072,-0.611072,1.07491,-5010.72,-2879.72)">
                <path d="M5307.33,181.724C5298.59,169.058 5300.31,159.566 5313.2,153.459" style="fill:none;stroke:white;stroke-opacity:0.4;stroke-width:4.85px;"/>
            </g>
            <g transform="matrix(0.271861,0,0,0.271861,572.007,521)">
                <path d="M184,224C154.176,224 125.76,236.632 106.04,258.664C103.096,261.96 103.376,267.016 106.664,269.96C109.96,272.912 115.008,272.624 117.96,269.336C134.648,250.688 158.72,240 184,240C209.288,240 233.352,250.688 250.04,269.336C251.616,271.104 253.808,272 256,272C257.896,272 259.808,271.328 261.336,269.96C264.632,267.016 264.904,261.96 261.96,258.664C242.248,236.64 213.832,224 184,224Z" style="fill-rule:nonzero;"/>
            </g>
            <g transform="matrix(0.271861,0,0,0.271861,572.007,521)">
                <path d="M160,152C160,148.968 158.288,146.2 155.576,144.84L91.576,112.84C87.608,110.864 82.816,112.472 80.84,116.416C78.864,120.368 80.464,125.176 84.416,127.152L134.112,152L84.424,176.84C80.472,178.816 78.872,183.624 80.848,187.576C82.248,190.384 85.072,192 88.008,192C89.208,192 90.432,191.728 91.576,191.16L155.576,159.16C158.288,157.8 160,155.032 160,152Z" style="fill-rule:nonzero;"/>
            </g>
            <g transform="matrix(0.271861,0,0,0.271861,572.007,521)">
                <path d="M283.584,176.84L233.888,152L283.576,127.16C287.528,125.176 289.136,120.376 287.16,116.424C285.184,112.472 280.384,110.872 276.424,112.848L212.424,144.848C209.712,146.2 208,148.968 208,152C208,155.032 209.712,157.8 212.424,159.16L276.424,191.16C277.568,191.728 278.792,192 279.992,192C282.928,192 285.752,190.384 287.16,187.576C289.136,183.624 287.536,178.816 283.584,176.84Z" style="fill-rule:nonzero;"/>
            </g>
        </g>
    </g>
</svg>
