<?xml version="1.0" encoding="UTF-8" standalone="no"?>
<!DOCTYPE svg PUBLIC "-//W3C//DTD SVG 1.1//EN" "http://www.w3.org/Graphics/SVG/1.1/DTD/svg11.dtd">
<svg width="100%" height="100%" viewBox="0 0 100 100" version="1.1" xmlns="http://www.w3.org/2000/svg" xmlns:xlink="http://www.w3.org/1999/xlink" xml:space="preserve" xmlns:serif="http://www.serif.com/" style="fill-rule:evenodd;clip-rule:evenodd;stroke-linecap:round;stroke-linejoin:round;">
    <g transform="matrix(1,0,0,1,-3415.96,-107.781)">
        <g id="Layer3">
        </g>
        <g id="sad" transform="matrix(1,0,0,1,3101.29,-413.219)">
            <rect x="314.67" y="521" width="100" height="100" style="fill:none;"/>
            <g transform="matrix(1,0,0,1,-3100.98,522.119)">
                <g transform="matrix(0.982093,0,0,0.916833,314.64,-91.5528)">
                    <path d="M3251.1,130.853C3251.1,118.218 3241.52,107.96 3229.72,107.96L3186.94,107.96C3175.14,107.96 3165.57,118.218 3165.57,130.853L3165.57,176.641C3165.57,189.276 3175.14,199.534 3186.94,199.534L3229.72,199.534C3241.52,199.534 3251.1,189.276 3251.1,176.641L3251.1,130.853Z" style="fill:rgb(233,196,106);"/>
                    <path d="M3256.19,130.853C3256.19,115.208 3244.33,102.506 3229.72,102.506C3229.72,102.506 3186.94,102.506 3186.94,102.506C3172.33,102.506 3160.47,115.208 3160.47,130.853C3160.47,130.853 3160.47,176.641 3160.47,176.641C3160.47,192.286 3172.33,204.988 3186.94,204.988C3186.94,204.988 3229.72,204.988 3229.72,204.988C3244.33,204.988 3256.19,192.286 3256.19,176.641C3256.19,176.641 3256.19,130.853 3256.19,130.853ZM3251.1,130.853C3251.1,118.218 3241.52,107.96 3229.72,107.96L3186.94,107.96C3175.14,107.96 3165.57,118.218 3165.57,130.853L3165.57,176.641C3165.57,189.276 3175.14,199.534 3186.94,199.534L3229.72,199.534C3241.52,199.534 3251.1,189.276 3251.1,176.641L3251.1,130.853Z"/>
                </g>
                <g transform="matrix(2.0167,0,0,2.0167,-7542.52,-335.317)">
                    <circle cx="5457.53" cy="171.418" r="1.488" style="fill:white;fill-opacity:0.4;"/>
                </g>
                <g transform="matrix(1.07491,0.611072,-0.611072,1.07491,-2167.39,-3401.27)">
                    <path d="M5307.33,181.724C5298.59,169.058 5300.31,159.566 5313.2,153.459" style="fill:none;stroke:white;stroke-opacity:0.4;stroke-width:4.85px;"/>
                </g>
            </g>
            <g transform="matrix(0.271739,0,0,0.271739,314.67,521)">
                <path d="M144,152C144,138.768 133.232,128 120,128C106.768,128 96,138.768 96,152C96,165.232 106.768,176 120,176C133.232,176 144,165.232 144,152ZM112,152C112,147.592 115.592,144 120,144C124.408,144 128,147.592 128,152C128,156.408 124.408,160 120,160C115.592,160 112,156.408 112,152Z" style="fill-rule:nonzero;"/>
            </g>
            <g transform="matrix(0.271739,0,0,0.271739,314.67,521)">
                <path d="M248,128C234.768,128 224,138.768 224,152C224,165.232 234.768,176 248,176C261.232,176 272,165.232 272,152C272,138.768 261.232,128 248,128ZM248,160C243.584,160 240,156.408 240,152C240,147.592 243.584,144 248,144C252.416,144 256,147.592 256,152C256,156.408 252.416,160 248,160Z" style="fill-rule:nonzero;"/>
            </g>
            <g transform="matrix(0.271739,0,0,0.271739,314.67,521)">
                <path d="M184,224C154.176,224 125.76,236.632 106.04,258.664C103.096,261.96 103.376,267.016 106.664,269.96C109.96,272.912 115.016,272.624 117.96,269.336C134.648,250.688 158.72,240 184,240C209.28,240 233.352,250.688 250.04,269.336C251.616,271.104 253.808,272 256,272C257.896,272 259.816,271.328 261.336,269.96C264.624,267.016 264.904,261.96 261.96,258.664C242.24,236.64 213.832,224 184,224Z" style="fill-rule:nonzero;"/>
            </g>
        </g>
    </g>
</svg>
