<?xml version="1.0" encoding="UTF-8" standalone="no"?>
<!DOCTYPE svg PUBLIC "-//W3C//DTD SVG 1.1//EN" "http://www.w3.org/Graphics/SVG/1.1/DTD/svg11.dtd">
<svg width="100%" height="100%" viewBox="0 0 101 101" version="1.1" xmlns="http://www.w3.org/2000/svg" xmlns:xlink="http://www.w3.org/1999/xlink" xml:space="preserve" xmlns:serif="http://www.serif.com/" style="fill-rule:evenodd;clip-rule:evenodd;stroke-linecap:round;stroke-linejoin:round;">
    <g transform="matrix(1,0,0,1,-3668.67,-107.781)">
        <g id="Layer3">
        </g>
        <g id="smile" transform="matrix(1,0,0,1,3478,-413.219)">
            <rect x="190.67" y="521" width="100.045" height="100.045" style="fill:none;"/>
            <g transform="matrix(1,0,0,1,-3480.44,521.672)">
                <g transform="matrix(0.982093,0,0,0.916833,570.157,-91.5528)">
                    <path d="M3251.1,130.853C3251.1,118.218 3241.52,107.96 3229.72,107.96L3186.94,107.96C3175.14,107.96 3165.57,118.218 3165.57,130.853L3165.57,176.641C3165.57,189.276 3175.14,199.534 3186.94,199.534L3229.72,199.534C3241.52,199.534 3251.1,189.276 3251.1,176.641L3251.1,130.853Z" style="fill:rgb(42,157,143);"/>
                    <path d="M3256.19,130.853C3256.19,115.208 3244.33,102.506 3229.72,102.506C3229.72,102.506 3186.94,102.506 3186.94,102.506C3172.33,102.506 3160.47,115.208 3160.47,130.853L3160.47,176.641C3160.47,192.286 3172.33,204.988 3186.94,204.988L3229.72,204.988C3244.33,204.988 3256.19,192.286 3256.19,176.641L3256.19,130.853ZM3251.1,130.853C3251.1,118.218 3241.52,107.96 3229.72,107.96L3186.94,107.96C3175.14,107.96 3165.57,118.218 3165.57,130.853L3165.57,176.641C3165.57,189.276 3175.14,199.534 3186.94,199.534L3229.72,199.534C3241.52,199.534 3251.1,189.276 3251.1,176.641L3251.1,130.853Z"/>
                </g>
                <g transform="matrix(2.0167,0,0,2.0167,-7287,-335.317)">
                    <circle cx="5457.53" cy="171.418" r="1.488" style="fill:white;fill-opacity:0.4;"/>
                </g>
                <g transform="matrix(1.07491,0.611072,-0.611072,1.07491,-1911.88,-3401.27)">
                    <path d="M5307.33,181.724C5298.59,169.058 5300.31,159.566 5313.2,153.459" style="fill:none;stroke:white;stroke-opacity:0.4;stroke-width:4.85px;"/>
                </g>
            </g>
            <g transform="matrix(0.271861,0,0,0.271861,190.67,521)">
                <path d="M144,152C144,138.768 133.232,128 120,128C106.768,128 96,138.768 96,152C96,165.232 106.768,176 120,176C133.232,176 144,165.232 144,152ZM112,152C112,147.592 115.592,144 120,144C124.408,144 128,147.592 128,152C128,156.408 124.408,160 120,160C115.592,160 112,156.408 112,152Z" style="fill-rule:nonzero;"/>
            </g>
            <g transform="matrix(0.271861,0,0,0.271861,190.67,521)">
                <path d="M248,128C234.768,128 224,138.768 224,152C224,165.232 234.768,176 248,176C261.232,176 272,165.232 272,152C272,138.768 261.232,128 248,128ZM248,160C243.592,160 240,156.408 240,152C240,147.592 243.592,144 248,144C252.408,144 256,147.592 256,152C256,156.408 252.408,160 248,160Z" style="fill-rule:nonzero;"/>
            </g>
            <g transform="matrix(0.271861,0,0,0.271861,190.67,521)">
                <path d="M261.336,226.04C258.04,223.088 252.976,223.376 250.04,226.664C233.352,245.312 209.288,256 184,256C158.72,256 134.648,245.312 117.96,226.664C115.008,223.376 109.96,223.088 106.664,226.04C103.368,228.984 103.096,234.04 106.04,237.336C125.76,259.368 154.176,272 184,272C213.832,272 242.248,259.36 261.96,237.336C264.904,234.04 264.624,228.984 261.336,226.04Z" style="fill-rule:nonzero;"/>
            </g>
        </g>
    </g>
</svg>
