<?xml version="1.0" encoding="UTF-8" standalone="no"?>
<!DOCTYPE svg PUBLIC "-//W3C//DTD SVG 1.1//EN" "http://www.w3.org/Graphics/SVG/1.1/DTD/svg11.dtd">
<svg width="100%" height="100%" viewBox="0 0 163 80" version="1.1" xmlns="http://www.w3.org/2000/svg" xmlns:xlink="http://www.w3.org/1999/xlink" xml:space="preserve" xmlns:serif="http://www.serif.com/" style="fill-rule:evenodd;clip-rule:evenodd;stroke-linejoin:round;stroke-miterlimit:2;">
    <g transform="matrix(1,0,0,1,-62.0021,-36.676)">
        <g id="Back-Plates" serif:id="Back Plates">
            <g transform="matrix(1,0,0,1,82.1948,79.14)">
                <path d="M0,25.5C-2.255,25.32 -6.308,23.304 -8.434,20.875C-10.56,18.447 -11.929,3.263 -10.277,1.631C-8.625,0 7.057,5.533 8.648,7.743C10.239,9.953 10.999,17.211 10.999,17.211L0,25.5Z" style="fill:rgb(199,178,153);fill-rule:nonzero;"/>
            </g>
            <g opacity="0.3">
                <g transform="matrix(1,0,0,1,82.1948,79.14)">
                    <path d="M0,25.5C-2.255,25.32 -6.308,23.304 -8.434,20.875C-10.56,18.447 -11.929,3.263 -10.277,1.631C-8.625,0 7.057,5.533 8.648,7.743C10.239,9.953 10.999,17.211 10.999,17.211L0,25.5Z" style="fill-rule:nonzero;"/>
                </g>
            </g>
            <g transform="matrix(1,0,0,1,185.303,50.9434)">
                <path d="M0,21.471C-1.359,19.293 -2.258,14.234 -1.479,10.654C-0.7,7.075 12.225,-4.433 14.829,-4.029C17.433,-3.624 22.981,14.419 22.04,17.363C21.099,20.307 14.992,25.904 14.992,25.904L0,21.471Z" style="fill:rgb(199,178,153);fill-rule:nonzero;"/>
            </g>
            <g opacity="0.3">
                <g transform="matrix(1,0,0,1,185.303,50.9434)">
                    <path d="M0,21.471C-1.359,19.293 -2.258,14.234 -1.479,10.654C-0.7,7.075 12.225,-4.433 14.829,-4.029C17.433,-3.624 22.981,14.419 22.04,17.363C21.099,20.307 14.992,25.904 14.992,25.904L0,21.471Z" style="fill-rule:nonzero;"/>
                </g>
            </g>
            <g transform="matrix(1,0,0,1,73.8721,95.0371)">
                <path d="M0,20.829C-1.959,20.933 -5.675,19.665 -7.782,17.822C-9.888,15.978 -12.809,3.08 -11.577,1.488C-10.344,-0.104 3.774,2.851 5.396,4.569C7.018,6.287 8.504,12.439 8.504,12.439L0,20.829Z" style="fill:rgb(199,178,153);fill-rule:nonzero;"/>
            </g>
            <g opacity="0.2">
                <g transform="matrix(1,0,0,1,79.2681,115.97)">
                    <path d="M0,-16.364C1.622,-14.647 3.108,-8.494 3.108,-8.494L-5.396,-0.104C-7.355,0 -11.071,-1.268 -13.178,-3.112C-13.824,-3.677 -14.546,-5.281 -15.201,-7.279C-15.201,-7.279 -10.444,-7.118 -6.925,-9.253C-3.406,-11.386 0,-16.364 0,-16.364" style="fill-rule:nonzero;"/>
                </g>
            </g>
            <g transform="matrix(1,0,0,1,112.115,48.9647)">
                <path d="M0,35.69C-2.828,34.675 -7.321,30.678 -9.2,26.825C-11.08,22.972 -7.548,3.032 -4.863,1.516C-2.177,0 15.999,12.552 17.268,15.939C18.538,19.326 16.985,28.894 16.985,28.894L0,35.69Z" style="fill:rgb(199,178,153);fill-rule:nonzero;"/>
            </g>
            <g opacity="0.3">
                <g transform="matrix(1,0,0,1,112.115,48.9647)">
                    <path d="M0,35.69C-2.828,34.675 -7.321,30.678 -9.2,26.825C-11.08,22.972 -7.548,3.032 -4.863,1.516C-2.177,0 15.999,12.552 17.268,15.939C18.538,19.326 16.985,28.894 16.985,28.894L0,35.69Z" style="fill-rule:nonzero;"/>
                </g>
            </g>
            <g transform="matrix(1,0,0,1,94.499,62.1957)">
                <path d="M0,33.935C-2.688,32.97 -6.96,29.17 -8.748,25.506C-10.534,21.843 -7.176,2.883 -4.623,1.442C-2.07,0 15.212,11.935 16.419,15.155C17.626,18.376 16.149,27.473 16.149,27.473L0,33.935Z" style="fill:rgb(199,178,153);fill-rule:nonzero;"/>
            </g>
            <g opacity="0.2">
                <g transform="matrix(1,0,0,1,110.918,96.131)">
                    <path d="M0,-18.78C1.207,-15.559 -0.27,-6.462 -0.27,-6.462L-16.419,0C-19.107,-0.966 -23.379,-4.765 -25.167,-8.429C-25.167,-8.429 -17.653,-7.871 -11.556,-10.281C-5.459,-12.691 0,-18.78 0,-18.78" style="fill-rule:nonzero;"/>
                </g>
            </g>
            <g transform="matrix(1,0,0,1,202.914,54.4577)">
                <path d="M0,19.427C-1.208,17.256 -1.83,12.321 -0.902,8.899C0.025,5.477 13.08,-5.015 15.577,-4.497C18.075,-3.98 22.558,13.731 21.504,16.531C20.451,19.331 14.275,24.442 14.275,24.442L0,19.427Z" style="fill:rgb(199,178,153);fill-rule:nonzero;"/>
            </g>
            <g opacity="0.2">
                <g transform="matrix(1,0,0,1,224.418,71.2692)">
                    <path d="M0,-0.281C-1.053,2.519 -7.229,7.631 -7.229,7.631L-21.504,2.615C-22.711,0.444 -23.333,-4.49 -22.406,-7.912C-22.406,-7.912 -18.865,-2.821 -12.99,-0.923C-7.115,0.975 0,-0.281 0,-0.281" style="fill-rule:nonzero;"/>
                </g>
            </g>
            <g transform="matrix(1,0,0,1,148.322,36.1675)">
                <path d="M0,35.785C-2.407,33.77 -5.373,28.232 -5.827,23.776C-6.281,19.32 4.369,1.038 7.549,0.519C10.729,0 24.029,18.861 24.053,22.64C24.078,26.419 19.106,35.243 19.106,35.243L0,35.785Z" style="fill:rgb(199,178,153);fill-rule:nonzero;"/>
            </g>
            <g opacity="0.3">
                <g transform="matrix(1,0,0,1,148.322,36.1675)">
                    <path d="M0,35.785C-2.407,33.77 -5.373,28.232 -5.827,23.776C-6.281,19.32 4.369,1.038 7.549,0.519C10.729,0 24.029,18.861 24.053,22.64C24.078,26.419 19.106,35.243 19.106,35.243L0,35.785Z" style="fill-rule:nonzero;"/>
                </g>
            </g>
            <g transform="matrix(1,0,0,1,167.158,42.2894)">
                <path d="M0,28.919C-1.91,26.712 -3.811,21.188 -3.567,17.03C-3.322,12.873 9.168,-2.328 12.164,-2.332C15.16,-2.337 24.569,16.95 24.03,20.423C23.491,23.896 17.618,31.256 17.618,31.256L0,28.919Z" style="fill:rgb(199,178,153);fill-rule:nonzero;"/>
            </g>
            <g opacity="0.2">
                <g transform="matrix(1,0,0,1,191.189,70.1523)">
                    <path d="M0,-7.44C-0.539,-3.967 -6.412,3.393 -6.412,3.393L-24.03,1.056C-25.94,-1.15 -27.841,-6.675 -27.597,-10.833C-27.597,-10.833 -22.309,-6.904 -14.89,-5.732C-7.472,-4.559 0,-7.44 0,-7.44" style="fill-rule:nonzero;"/>
                </g>
            </g>
            <g transform="matrix(1,0,0,1,129.134,38.4231)">
                <path d="M0,41.401C-3.025,39.631 -7.323,34.085 -8.653,29.263C-9.983,24.441 -1.662,2.327 1.743,1.163C5.147,0 23.306,18.289 24.037,22.446C24.767,26.603 20.937,37.244 20.937,37.244L0,41.401Z" style="fill:rgb(199,178,153);fill-rule:nonzero;"/>
            </g>
            <g opacity="0.2">
                <g transform="matrix(1,0,0,1,153.17,79.824)">
                    <path d="M0,-18.955C0.73,-14.798 -3.1,-4.157 -3.1,-4.157L-24.037,0C-27.062,-1.77 -31.36,-7.316 -32.69,-12.138C-32.69,-12.138 -23.413,-10.183 -16.37,-11.459C-6.588,-13.233 0,-18.955 0,-18.955" style="fill-rule:nonzero;"/>
                </g>
            </g>
        </g>
    </g>
</svg>
