<?xml version="1.0" encoding="UTF-8" standalone="no"?>
<!DOCTYPE svg PUBLIC "-//W3C//DTD SVG 1.1//EN" "http://www.w3.org/Graphics/SVG/1.1/DTD/svg11.dtd">
<svg width="100%" height="100%" viewBox="0 0 24 34" version="1.1" xmlns="http://www.w3.org/2000/svg" xmlns:xlink="http://www.w3.org/1999/xlink" xml:space="preserve" xmlns:serif="http://www.serif.com/" style="fill-rule:evenodd;clip-rule:evenodd;stroke-linejoin:round;stroke-miterlimit:2;">
    <g transform="matrix(1,0,0,1,-531,-499)">
        <g id="Large-Horn---Background" serif:id="Large Horn - Background">
            <g transform="matrix(-0.862366,-0.506285,-0.506285,0.862366,522.631,524.807)">
                <path d="M-14.562,-37.968C-14.562,-37.968 -3.675,-33.259 -3.604,-18.322C-3.553,-7.57 -7.897,-1.113 -14.562,-0.732C-20.59,-0.387 -25.682,-8.028 -22.079,-14.189C-18.475,-20.35 -11.113,-21.961 -14.562,-37.968" style="fill:white;fill-rule:nonzero;"/>
            </g>
            <g opacity="0.3">
                <g transform="matrix(-0.862366,-0.506285,-0.506285,0.862366,522.631,524.807)">
                    <path d="M-14.562,-37.968C-14.562,-37.968 -3.675,-33.259 -3.604,-18.322C-3.553,-7.57 -7.897,-1.113 -14.562,-0.732C-20.59,-0.387 -25.682,-8.028 -22.079,-14.189C-18.475,-20.35 -11.113,-21.961 -14.562,-37.968" style="fill-rule:nonzero;"/>
                </g>
            </g>
        </g>
    </g>
</svg>
