<?xml version="1.0" encoding="UTF-8" standalone="no"?>
<!DOCTYPE svg PUBLIC "-//W3C//DTD SVG 1.1//EN" "http://www.w3.org/Graphics/SVG/1.1/DTD/svg11.dtd">
<svg width="100%" height="100%" viewBox="0 0 53 44" version="1.1" xmlns="http://www.w3.org/2000/svg" xmlns:xlink="http://www.w3.org/1999/xlink" xml:space="preserve" xmlns:serif="http://www.serif.com/" style="fill-rule:evenodd;clip-rule:evenodd;stroke-linejoin:round;stroke-miterlimit:2;">
    <g transform="matrix(1,0,0,1,-521,-257)">
        <g id="Large-Plume" serif:id="Large Plume">
            <g transform="matrix(1,0,0,1,524.09,255.392)">
                <path d="M0,44.983C0,44.983 -0.208,36.544 -2.034,29.762C-6.107,14.631 2.665,4.074 15.884,2.411C35.044,0 37.927,18.573 40.032,23.859C42.139,29.146 46.525,38.195 49.461,41.694C49.461,41.694 25.765,32.457 0,44.983" style="fill:rgb(168,132,173);fill-rule:nonzero;"/>
            </g>
            <g opacity="0.3">
                <g transform="matrix(-0.00522889,0.999986,0.999986,0.00522889,536.967,261.614)">
                    <path d="M32.562,-11.676C32.562,-11.676 14.605,-9.912 12.983,5.152C11.452,19.36 32.562,32.502 32.562,32.502C32.562,32.502 23.671,19.222 23.741,5.777C23.812,-7.668 32.562,-11.676 32.562,-11.676" style="fill-rule:nonzero;"/>
                </g>
            </g>
            <g opacity="0.5">
                <g transform="matrix(1,0,0,1,525.466,259.353)">
                    <path d="M0,8.471C1.401,6.367 3.395,4.686 5.567,3.352C7.756,2.023 10.197,1.087 12.722,0.575C15.256,0.108 17.863,0 20.391,0.407C22.91,0.78 25.389,1.553 27.533,2.885C25.089,2.332 22.662,2.034 20.249,1.961C19.043,1.941 17.843,1.93 16.651,2.053C15.458,2.12 14.277,2.306 13.11,2.535C11.939,2.756 10.784,3.056 9.651,3.434C8.5,3.765 7.408,4.26 6.297,4.725C4.112,5.738 1.992,6.951 0,8.471" style="fill:white;fill-rule:nonzero;"/>
                </g>
            </g>
            <g transform="matrix(1,0,0,1,553.67,284.7)">
                <path d="M0,-12.54C1.147,-10.751 1.99,-8.747 2.505,-6.63C2.771,-5.572 2.923,-4.477 2.973,-3.366C3.049,-2.251 2.927,-1.127 2.758,0L0.822,-0.503C1.113,-1.438 1.387,-2.406 1.474,-3.413C1.587,-4.415 1.61,-5.443 1.518,-6.47C1.351,-8.527 0.852,-10.599 0,-12.54" style="fill:rgb(97,70,102);fill-rule:nonzero;"/>
            </g>
            <g transform="matrix(1,0,0,1,539.862,282.509)">
                <path d="M0,-12.547C1.583,-10.937 2.901,-9.04 3.878,-6.937C4.378,-5.888 4.731,-4.763 4.989,-3.603C5.255,-2.439 5.3,-1.224 5.255,0L3.274,-0.275C3.457,-1.285 3.587,-2.335 3.503,-3.4C3.427,-4.46 3.264,-5.539 2.941,-6.587C2.322,-8.688 1.326,-10.726 0,-12.547" style="fill:rgb(97,70,102);fill-rule:nonzero;"/>
            </g>
            <g transform="matrix(1,0,0,1,526.139,285.821)">
                <path d="M0,-8.646C1.66,-7.803 3.208,-6.706 4.596,-5.39C5.296,-4.735 5.922,-3.993 6.501,-3.199C7.08,-2.402 7.543,-1.51 7.937,-0.567L6.019,0C5.836,-0.818 5.59,-1.647 5.208,-2.438C4.827,-3.226 4.384,-4.006 3.844,-4.73C2.777,-6.188 1.479,-7.524 0,-8.646" style="fill:rgb(97,70,102);fill-rule:nonzero;"/>
            </g>
        </g>
    </g>
</svg>
