<?xml version="1.0" encoding="UTF-8" standalone="no"?>
<!DOCTYPE svg PUBLIC "-//W3C//DTD SVG 1.1//EN" "http://www.w3.org/Graphics/SVG/1.1/DTD/svg11.dtd">
<svg width="100%" height="100%" viewBox="0 0 16 31" version="1.1" xmlns="http://www.w3.org/2000/svg" xmlns:xlink="http://www.w3.org/1999/xlink" xml:space="preserve" xmlns:serif="http://www.serif.com/" style="fill-rule:evenodd;clip-rule:evenodd;stroke-linejoin:round;stroke-miterlimit:2;">
    <g transform="matrix(1,0,0,1,-323,-504)">
        <g id="Medium-Horn---Foreground" serif:id="Medium Horn - Foreground">
            <g transform="matrix(-0.955262,-0.29576,-0.29576,0.955262,319.758,532.109)">
                <path d="M-9.471,-31.756C-9.471,-31.756 -0.71,-27.966 -0.653,-15.948C-0.613,-7.295 -4.108,-2.1 -9.471,-1.792C-14.321,-1.514 -18.418,-7.663 -15.519,-12.621C-12.619,-17.58 -6.695,-18.875 -9.471,-31.756" style="fill:white;fill-rule:nonzero;"/>
            </g>
            <g>
                <clipPath id="_clip1">
                    <path d="M325.099,517.068C322.501,525.321 324.302,531.318 329.335,533.198C333.887,534.898 339.62,530.236 338.316,524.642C337.012,519.048 331.736,516.059 338.197,504.576C338.197,504.576 328.708,505.604 325.099,517.068Z" clip-rule="nonzero"/>
                </clipPath>
                <g clip-path="url(#_clip1)">
                    <g opacity="0.3">
                        <g transform="matrix(-0.57584,0.817563,0.817563,0.57584,341.594,527.687)">
                            <path d="M1.858,-19.784C1.858,-19.784 9.302,-14.12 7.388,-8.913C5.475,-3.707 2.583,-2.267 1.858,-2.185C1.133,-2.104 10.765,0.253 12.657,-6.978C14.548,-14.209 5.603,-18.626 1.858,-19.784" style="fill-rule:nonzero;"/>
                        </g>
                    </g>
                </g>
            </g>
        </g>
    </g>
</svg>
