<?xml version="1.0" encoding="UTF-8" standalone="no"?>
<!DOCTYPE svg PUBLIC "-//W3C//DTD SVG 1.1//EN" "http://www.w3.org/Graphics/SVG/1.1/DTD/svg11.dtd">
<svg width="100%" height="100%" viewBox="0 0 45 37" version="1.1" xmlns="http://www.w3.org/2000/svg" xmlns:xlink="http://www.w3.org/1999/xlink" xml:space="preserve" xmlns:serif="http://www.serif.com/" style="fill-rule:evenodd;clip-rule:evenodd;stroke-linejoin:round;stroke-miterlimit:2;">
    <g transform="matrix(1,0,0,1,-324,-261)">
        <g id="Medium-Plume" serif:id="Medium Plume">
            <g transform="matrix(1,0,0,1,324.033,260.599)">
                <path d="M0,36.69C0,36.69 2.403,28.833 2.135,23.619C1.71,15.382 4.189,2.69 17.454,1.443C32.808,0 36.184,18.333 38.29,23.619C40.396,28.905 41.451,32.194 44.386,35.692C44.386,35.692 25.765,24.164 0,36.69" style="fill:rgb(168,132,173);fill-rule:nonzero;"/>
            </g>
            <g opacity="0.3">
                <g transform="matrix(0.0881532,0.996107,0.996107,-0.0881532,333.755,266.19)">
                    <path d="M27.72,-11.552C27.72,-11.552 9.519,-4.764 10.658,8.111C11.797,20.986 27.72,28.945 27.72,28.945C27.72,28.945 18.575,20.909 17.39,7.515C16.204,-5.877 27.72,-11.552 27.72,-11.552" style="fill-rule:nonzero;"/>
                </g>
            </g>
            <g opacity="0.5">
                <g transform="matrix(1,0,0,1,331.555,263.572)">
                    <path d="M0,5.083C1.26,3.414 3.029,2.144 4.964,1.262C6.904,0.379 9.068,-0.103 11.233,-0.075C13.4,-0.043 15.551,0.458 17.471,1.377C19.393,2.277 21.147,3.541 22.439,5.186C20.622,4.19 18.783,3.404 16.907,2.832C15.037,2.247 13.12,1.966 11.212,1.924C9.3,1.904 7.384,2.175 5.509,2.718C3.634,3.269 1.794,4.05 0,5.083" style="fill:white;fill-rule:nonzero;"/>
                </g>
            </g>
            <g transform="matrix(1,0,0,1,350.702,283.069)">
                <path d="M0,-10.067C0.981,-8.637 1.75,-7.042 2.307,-5.354C2.59,-4.511 2.806,-3.637 2.952,-2.742C3.117,-1.848 3.157,-0.93 3.166,0L1.177,-0.213C1.321,-1 1.449,-1.81 1.456,-2.635C1.482,-3.46 1.442,-4.297 1.332,-5.132C1.12,-6.803 0.688,-8.48 0,-10.067" style="fill:rgb(97,70,102);fill-rule:nonzero;"/>
            </g>
            <g transform="matrix(1,0,0,1,340.266,281.847)">
                <path d="M0,-9.522C1.052,-8.176 1.963,-6.708 2.731,-5.141C3.484,-3.568 4.083,-1.872 4.272,0L2.272,0C2.424,-1.532 2.21,-3.184 1.793,-4.794C1.365,-6.405 0.769,-8.001 0,-9.522" style="fill:rgb(97,70,102);fill-rule:nonzero;"/>
            </g>
            <g transform="matrix(1,0,0,1,330.589,284.396)">
                <path d="M0,-6.922C1.107,-6.099 2.154,-5.184 3.145,-4.187C4.127,-3.18 5.054,-2.088 5.799,-0.769L3.953,0C3.623,-1.201 3.039,-2.415 2.354,-3.574C1.66,-4.733 0.875,-5.86 0,-6.922" style="fill:rgb(97,70,102);fill-rule:nonzero;"/>
            </g>
        </g>
    </g>
</svg>
