<?xml version="1.0" encoding="UTF-8" standalone="no"?>
<!DOCTYPE svg PUBLIC "-//W3C//DTD SVG 1.1//EN" "http://www.w3.org/Graphics/SVG/1.1/DTD/svg11.dtd">
<svg width="100%" height="100%" viewBox="0 0 46 30" version="1.1" xmlns="http://www.w3.org/2000/svg" xmlns:xlink="http://www.w3.org/1999/xlink" xml:space="preserve" xmlns:serif="http://www.serif.com/" style="fill-rule:evenodd;clip-rule:evenodd;stroke-linejoin:round;stroke-miterlimit:2;">
    <g transform="matrix(1,0,0,1,-123,-268)">
        <g id="Small-Plume" serif:id="Small Plume">
            <g transform="matrix(1,0,0,1,123.991,267.696)">
                <path d="M0,29.827C0,29.827 2.446,21.736 2.177,16.522C1.753,8.285 7.355,1.273 17.896,0.665C29.421,0 36.226,11.236 38.333,16.522C40.438,21.808 41.494,25.097 44.429,28.596C44.429,28.596 25.765,17.301 0,29.827" style="fill:rgb(168,132,173);fill-rule:nonzero;"/>
            </g>
            <g opacity="0.3">
                <g transform="matrix(0.103774,0.994601,0.994601,-0.103774,133.476,267.112)">
                    <path d="M27.086,-11.745C27.086,-11.745 9.397,-4.801 10.738,8.054C12.08,20.91 27.086,28.593 27.086,28.593C27.086,28.593 17.461,20.872 16.065,7.499C14.67,-5.874 27.086,-11.745 27.086,-11.745" style="fill-rule:nonzero;"/>
                </g>
            </g>
            <g opacity="0.5">
                <g transform="matrix(1,0,0,1,130.588,269.652)">
                    <path d="M0,5.063C1.411,3.358 3.331,2.097 5.396,1.219C7.469,0.336 9.75,-0.103 12.026,-0.095C14.302,-0.039 16.574,0.408 18.626,1.335C20.681,2.227 22.583,3.491 24.026,5.166C22.08,4.157 20.107,3.372 18.099,2.803C17.092,2.533 16.087,2.282 15.065,2.153C14.052,1.975 13.027,1.917 12.006,1.903C10.984,1.885 9.959,1.943 8.943,2.09C7.917,2.187 6.917,2.447 5.906,2.688C3.899,3.239 1.923,4.012 0,5.063" style="fill:white;fill-rule:nonzero;"/>
                </g>
            </g>
            <g transform="matrix(1,0,0,1,149.749,282.983)">
                <path d="M0,-7.775C0.775,-6.671 1.401,-5.446 1.885,-4.147C2.376,-2.849 2.69,-1.456 2.79,0L0.793,-0.111C1.014,-1.324 1.062,-2.618 0.913,-3.914C0.772,-5.211 0.479,-6.519 0,-7.775" style="fill:rgb(97,70,102);fill-rule:nonzero;"/>
            </g>
            <g transform="matrix(1,0,0,1,140.2,281.632)">
                <path d="M0,-7.541C0.884,-6.523 1.633,-5.368 2.248,-4.126C2.87,-2.885 3.325,-1.532 3.574,-0.094L1.576,0C1.672,-1.229 1.586,-2.52 1.305,-3.794C1.031,-5.07 0.605,-6.341 0,-7.541" style="fill:rgb(97,70,102);fill-rule:nonzero;"/>
            </g>
            <g transform="matrix(-0.632867,0.774261,0.774261,0.632867,137.313,281.047)">
                <path d="M2.602,-6.743C2.226,-5.589 2.02,-4.364 1.985,-3.104C1.948,-1.845 2.122,-0.535 2.602,0.747L4.365,-0.196C3.093,-1.901 2.525,-4.345 2.602,-6.743" style="fill:rgb(97,70,102);fill-rule:nonzero;"/>
            </g>
        </g>
    </g>
</svg>
