<?xml version="1.0" encoding="UTF-8" standalone="no"?>
<!DOCTYPE svg PUBLIC "-//W3C//DTD SVG 1.1//EN" "http://www.w3.org/Graphics/SVG/1.1/DTD/svg11.dtd">
<svg width="100%" height="100%" viewBox="0 0 14 20" version="1.1" xmlns="http://www.w3.org/2000/svg" xmlns:xlink="http://www.w3.org/1999/xlink" xml:space="preserve" xmlns:serif="http://www.serif.com/" style="fill-rule:evenodd;clip-rule:evenodd;stroke-linejoin:round;stroke-miterlimit:2;">
    <g transform="matrix(1,0,0,1,-133,-512)">
        <g id="Small-Horn---Background" serif:id="Small Horn - Background">
            <g transform="matrix(-0.873888,-0.486128,-0.486128,0.873888,129.074,527.594)">
                <path d="M-8.226,-21.827C-8.226,-21.827 -2.028,-19.146 -1.988,-10.644C-1.959,-4.523 -4.432,-0.848 -8.226,-0.631C-11.657,-0.434 -14.556,-4.784 -12.504,-8.291C-10.454,-11.798 -6.261,-12.715 -8.226,-21.827" style="fill:white;fill-rule:nonzero;"/>
            </g>
            <g opacity="0.3">
                <g transform="matrix(-0.873888,-0.486128,-0.486128,0.873888,129.074,527.594)">
                    <path d="M-8.226,-21.827C-8.226,-21.827 -2.028,-19.146 -1.988,-10.644C-1.959,-4.523 -4.432,-0.848 -8.226,-0.631C-11.657,-0.434 -14.556,-4.784 -12.504,-8.291C-10.454,-11.798 -6.261,-12.715 -8.226,-21.827" style="fill-rule:nonzero;"/>
                </g>
            </g>
        </g>
    </g>
</svg>
