<?xml version="1.0" encoding="UTF-8" standalone="no"?>
<!DOCTYPE svg PUBLIC "-//W3C//DTD SVG 1.1//EN" "http://www.w3.org/Graphics/SVG/1.1/DTD/svg11.dtd">
<svg width="100%" height="100%" viewBox="0 0 12 23" version="1.1" xmlns="http://www.w3.org/2000/svg" xmlns:xlink="http://www.w3.org/1999/xlink" xml:space="preserve" xmlns:serif="http://www.serif.com/" style="fill-rule:evenodd;clip-rule:evenodd;stroke-linejoin:round;stroke-miterlimit:2;">
    <g transform="matrix(1,0,0,1,-126,-510)">
        <g id="Small-Horn---Foreground" serif:id="Small Horn - Foreground">
            <g transform="matrix(-0.969211,-0.246231,-0.246231,0.969211,125.402,530.887)">
                <path d="M-5.609,-22.28C-5.609,-22.28 0.588,-19.6 0.628,-11.097C0.657,-4.977 -1.816,-1.301 -5.609,-1.085C-9.041,-0.888 -11.939,-5.237 -9.888,-8.745C-7.837,-12.252 -3.646,-13.169 -5.609,-22.28" style="fill:white;fill-rule:nonzero;"/>
            </g>
            <g>
                <clipPath id="_clip1">
                    <path d="M127.525,519.976C125.991,525.901 127.482,530.073 131.106,531.217C134.383,532.252 138.263,528.75 137.139,524.846C136.015,520.941 132.178,519.021 136.325,510.674C136.325,510.674 129.658,511.746 127.525,519.976Z" clip-rule="nonzero"/>
                </clipPath>
                <g clip-path="url(#_clip1)">
                    <g opacity="0.3">
                        <g transform="matrix(-0.532956,0.846143,0.846143,0.532956,139.686,526.427)">
                            <path d="M1.759,-13.857C1.759,-13.857 7.025,-9.851 5.671,-6.167C4.319,-2.483 2.273,-1.465 1.759,-1.407C1.246,-1.35 8.06,0.317 9.398,-4.798C10.736,-9.913 4.409,-13.037 1.759,-13.857" style="fill-rule:nonzero;"/>
                        </g>
                    </g>
                </g>
            </g>
        </g>
    </g>
</svg>
