<?xml version="1.0" encoding="UTF-8" standalone="no"?>
<!DOCTYPE svg PUBLIC "-//W3C//DTD SVG 1.1//EN" "http://www.w3.org/Graphics/SVG/1.1/DTD/svg11.dtd">
<svg width="100%" height="100%" viewBox="0 0 132 72" version="1.1" xmlns="http://www.w3.org/2000/svg" xmlns:xlink="http://www.w3.org/1999/xlink" xml:space="preserve" xmlns:serif="http://www.serif.com/" style="fill-rule:evenodd;clip-rule:evenodd;stroke-linejoin:round;stroke-miterlimit:2;">
    <g transform="matrix(1,0,0,1,-48.797,-48.4387)">
        <g id="Small-Sail" serif:id="Small Sail">
            <g transform="matrix(1,0,0,1,52.7808,44.5429)">
                <path d="M0,69.082C0,69.082 7.86,59.961 10.596,49.881C14.809,34.363 28.886,8.979 61.475,4.49C94.064,0 112.687,22.114 116.843,32.09C121,42.067 120.333,44.775 125.904,50.82L0,69.082Z" style="fill:rgb(199,178,153);fill-rule:nonzero;"/>
            </g>
            <g opacity="0.5">
                <g transform="matrix(-0.109307,-0.994008,-0.994008,0.109307,112.871,23.7523)">
                    <path d="M-33.635,-30.165C-28.52,-22.156 -24.921,-11.719 -25.281,1.386C-25.604,13.218 -28.878,22.962 -33.635,30.865C-33.635,30.865 -27.202,17.058 -27.022,1.451C-26.842,-14.155 -33.635,-30.165 -33.635,-30.165" style="fill:white;fill-rule:nonzero;"/>
                </g>
            </g>
            <g opacity="0.15">
                <g transform="matrix(0.136398,0.990654,0.990654,-0.136398,87.2425,32.7402)">
                    <path d="M74.511,-43.264C74.511,-43.264 50.671,-25.176 48.328,22.889C46.415,62.133 74.511,82.047 74.511,82.047C74.511,82.047 56.372,48.295 60.345,14.04C64.318,-20.215 74.511,-43.264 74.511,-43.264" style="fill-rule:nonzero;"/>
                </g>
            </g>
            <g transform="matrix(1,0,0,1,148.081,98.5649)">
                <path d="M0,-43.878C3.994,-41.614 7.804,-39.006 11.326,-36.028C13.075,-34.527 14.745,-32.92 16.246,-31.148C17.758,-29.382 19.031,-27.397 20.065,-25.315C22.143,-21.138 23.414,-16.679 25.253,-12.54C26.166,-10.467 27.199,-8.463 28.422,-6.586C29.659,-4.719 31.079,-2.988 32.621,-1.374L31.167,0C29.6,-1.763 28.168,-3.647 26.941,-5.656C25.728,-7.674 24.73,-9.802 23.872,-11.963C22.142,-16.286 21.042,-20.756 19.167,-24.886C17.359,-29.056 14.361,-32.565 10.997,-35.657C7.614,-38.733 3.909,-41.473 0,-43.878" style="fill:rgb(115,99,87);fill-rule:nonzero;"/>
            </g>
            <g transform="matrix(1,0,0,1,80.479,119.605)">
                <path d="M0,-54.389C-3.668,-50.68 -6.748,-46.434 -9.424,-41.985C-12.043,-37.501 -14.264,-32.774 -15.777,-27.823C-16.524,-25.37 -17.159,-22.788 -18.099,-20.32C-19.038,-17.856 -20.133,-15.453 -21.361,-13.12C-23.866,-8.472 -26.76,-4.085 -30.203,0L-31.682,-1.347C-28.276,-5.126 -25.244,-9.389 -22.66,-13.837C-21.384,-16.078 -20.237,-18.391 -19.24,-20.768C-18.243,-23.146 -17.548,-25.617 -16.701,-28.127C-15.008,-33.105 -12.614,-37.81 -9.838,-42.24C-7.006,-46.633 -3.784,-50.794 0,-54.389" style="fill:rgb(115,99,87);fill-rule:nonzero;"/>
            </g>
            <g transform="matrix(1,0,0,1,72.9497,96.801)">
                <path d="M0,-14.637C2.251,-12.741 4.318,-10.613 6.204,-8.315C7.154,-7.17 8.023,-5.954 8.847,-4.698C9.671,-3.44 10.384,-2.102 11.036,-0.719L9.169,0C8.715,-1.337 8.192,-2.67 7.543,-3.956C6.896,-5.24 6.192,-6.51 5.395,-7.727C3.816,-10.17 2.02,-12.501 0,-14.637" style="fill:rgb(115,99,87);fill-rule:nonzero;"/>
            </g>
            <g transform="matrix(1,0,0,1,89.7241,91.478)">
                <path d="M0,-21.316C2.463,-18.305 4.575,-14.993 6.322,-11.475C7.2,-9.715 7.927,-7.876 8.55,-5.989C9.16,-4.096 9.564,-2.129 9.808,-0.117L7.812,0C7.744,-1.861 7.529,-3.741 7.103,-5.595C6.663,-7.443 6.115,-9.284 5.407,-11.073C3.998,-14.65 2.194,-18.108 0,-21.316" style="fill:rgb(115,99,87);fill-rule:nonzero;"/>
            </g>
            <g transform="matrix(1,0,0,1,109.376,86.8414)">
                <path d="M0,-26.278C1.4,-24.447 2.6,-22.46 3.659,-20.401C4.711,-18.336 5.592,-16.177 6.292,-13.953C7.013,-11.733 7.499,-9.429 7.761,-7.09C8.084,-4.75 7.991,-2.372 7.815,0L5.835,-0.283C6.154,-2.482 6.414,-4.722 6.266,-6.974C6.178,-9.222 5.873,-11.479 5.329,-13.687C4.804,-15.899 4.096,-18.079 3.206,-20.19C2.309,-22.296 1.264,-24.352 0,-26.278" style="fill:rgb(115,99,87);fill-rule:nonzero;"/>
            </g>
            <g transform="matrix(1,0,0,1,129.587,86.3691)">
                <path d="M0,-27.939C1.569,-26.026 2.91,-23.925 4.088,-21.738C5.272,-19.551 6.264,-17.254 7.054,-14.881C7.486,-13.706 7.771,-12.484 8.108,-11.275C8.35,-10.045 8.663,-8.822 8.796,-7.568C9.204,-5.076 9.222,-2.537 9.157,0L7.165,-0.174C7.384,-2.564 7.537,-4.989 7.306,-7.405C7.26,-8.62 7.036,-9.815 6.883,-11.023C6.636,-12.213 6.44,-13.422 6.096,-14.594C5.482,-16.959 4.663,-19.28 3.641,-21.516C2.623,-23.753 1.436,-25.926 0,-27.939" style="fill:rgb(115,99,87);fill-rule:nonzero;"/>
            </g>
            <g transform="matrix(1,0,0,1,153.255,88.4909)">
                <path d="M0,-21.927C1.75,-18.589 3.119,-15.042 4.138,-11.379C4.659,-9.549 5.035,-7.675 5.318,-5.778C5.61,-3.879 5.697,-1.946 5.691,0L3.695,-0.134C3.859,-1.946 3.945,-3.785 3.826,-5.63C3.715,-7.473 3.514,-9.325 3.163,-11.156C2.486,-14.823 1.447,-18.451 0,-21.927" style="fill:rgb(115,99,87);fill-rule:nonzero;"/>
            </g>
        </g>
    </g>
</svg>
