<?xml version="1.0" encoding="UTF-8" standalone="no"?>
<!DOCTYPE svg PUBLIC "-//W3C//DTD SVG 1.1//EN" "http://www.w3.org/Graphics/SVG/1.1/DTD/svg11.dtd">
<svg width="100%" height="100%" viewBox="0 0 24 23" version="1.1" xmlns="http://www.w3.org/2000/svg" xmlns:xlink="http://www.w3.org/1999/xlink" xml:space="preserve" xmlns:serif="http://www.serif.com/" style="fill-rule:evenodd;clip-rule:evenodd;stroke-linejoin:round;stroke-miterlimit:2;">
    <g transform="matrix(1,0,0,1,-431,-66)">
        <g id="Tail-Club" serif:id="Tail Club">
            <g transform="matrix(1,0,0,1,451.747,79.3737)">
                <path d="M0,-3.873C0,-3.873 0.007,-8.192 -2.732,-10.268C-5.472,-12.344 -11.783,-13.096 -13.637,-11.665C-15.491,-10.236 -19.896,-7.469 -19.289,-3.223C-18.682,1.023 -14.995,3.698 -14.995,3.698C-14.995,3.698 -12.801,7.62 -10.424,7.924C-8.048,8.229 -4.61,9.223 -3.021,7.327C-3.021,7.327 5.873,3.137 0,-3.873" style="fill:rgb(128,128,128);fill-rule:nonzero;"/>
            </g>
            <g transform="matrix(1,0,0,1,3.70729,-37.8144)">
                <clipPath id="_clip1">
                    <path d="M434.403,105.523C432.549,106.952 428.143,109.718 428.751,113.965C429.358,118.211 433.045,120.886 433.045,120.886C433.045,120.886 435.239,124.808 437.616,125.112C439.992,125.416 443.43,126.411 445.018,124.515C445.018,124.515 453.913,120.325 448.04,113.315C448.04,113.315 448.047,108.996 445.307,106.92C443.533,105.575 440.259,104.786 437.669,104.786C436.261,104.786 435.056,105.019 434.403,105.523Z" clip-rule="nonzero"/>
                </clipPath>
                <g clip-path="url(#_clip1)">
                    <g opacity="0.3">
                        <g transform="matrix(1,0,0,1,428.191,124.992)">
                            <path d="M0,-11.471C0.186,-12.044 1.637,-13.86 2.845,-13.008C4.053,-12.157 4.142,-10.915 5.604,-10.921C7.065,-10.928 8.412,-10.145 8.936,-9.448C9.46,-8.751 11.808,-4.37 14.19,-4.686C16.573,-5.001 20.077,-4.948 20.789,-3.221C20.789,-3.221 17.245,2.389 12.517,1.352C7.788,0.315 3.931,-2.287 2.086,-5.696C0.242,-9.104 0,-11.471 0,-11.471" style="fill-rule:nonzero;"/>
                        </g>
                    </g>
                </g>
            </g>
            <g transform="matrix(0.968002,-0.250941,-0.250941,-0.968002,447.044,76.5432)">
                <path d="M-0.121,0.619C-0.121,0.619 2.873,1.462 4.773,0.619" style="fill:rgb(128,128,128);fill-rule:nonzero;"/>
            </g>
            <g transform="matrix(1,0,0,1,446.772,73.7599)">
                <path d="M0,2.214C0.646,1.666 1.354,1.176 2.141,0.763C2.932,0.363 3.806,0.011 4.9,0L4.573,1.973C4.02,1.717 3.22,1.654 2.427,1.721C1.626,1.79 0.804,1.959 0,2.214" style="fill:rgb(77,77,77);fill-rule:nonzero;"/>
            </g>
            <g transform="matrix(1,0,0,1,440.766,84.6792)">
                <path d="M0,-4.01C-0.368,-3.247 -0.817,-2.512 -1.369,-1.816C-1.93,-1.13 -2.586,-0.454 -3.583,0L-4.083,-1.936C-3.473,-1.927 -2.717,-2.194 -2.019,-2.576C-1.314,-2.964 -0.631,-3.451 0,-4.01" style="fill:rgb(77,77,77);fill-rule:nonzero;"/>
            </g>
            <g transform="matrix(1,0,0,1,441.487,67.9141)">
                <path d="M0,3.09C-0.885,3.271 -1.892,3.178 -2.8,2.694C-3.246,2.453 -3.684,2.132 -4.027,1.729C-4.393,1.336 -4.666,0.88 -4.915,0.406L-3.003,-0.181C-2.961,0.186 -2.906,0.565 -2.77,0.911C-2.651,1.271 -2.448,1.592 -2.197,1.896C-1.689,2.501 -0.89,2.94 0,3.09" style="fill:rgb(77,77,77);fill-rule:nonzero;"/>
            </g>
            <g transform="matrix(1,0,0,1,3.70729,-37.8144)">
                <g opacity="0.3">
                    <g transform="matrix(1,0,0,1,443.875,109.659)">
                        <path d="M0,-2.345C-1.399,-3.247 -3.199,-3.883 -4.595,-3.65C-5.433,-3.511 -5.581,-1.956 -3.573,-1.406C-1.564,-0.855 -0.059,-0.308 0.301,0.615C0.66,1.538 2.449,0.926 2.018,-0.205C1.585,-1.336 1.022,-1.686 0,-2.345" style="fill:white;fill-rule:nonzero;"/>
                    </g>
                </g>
            </g>
            <g transform="matrix(1,0,0,1,439.609,83.3777)">
                <path d="M0,-9.252C0.71,-8.188 1.337,-7.15 2.014,-6.174C2.676,-5.195 3.368,-4.273 4.135,-3.522C4.313,-3.314 4.535,-3.183 4.722,-2.997C4.936,-2.854 5.118,-2.704 5.355,-2.567C5.813,-2.282 6.295,-2.039 6.802,-1.829C7.818,-1.398 8.926,-1.107 10.216,-0.944C9.126,-0.179 7.702,0 6.358,-0.204C5.686,-0.32 5.017,-0.528 4.409,-0.85C4.098,-0.989 3.798,-1.226 3.501,-1.419C3.237,-1.647 2.949,-1.869 2.726,-2.125C1.777,-3.13 1.123,-4.293 0.687,-5.501C0.261,-6.713 -0.024,-7.962 0,-9.252" style="fill:rgb(77,77,77);fill-rule:nonzero;"/>
            </g>
            <g transform="matrix(1,0,0,1,433.462,66.5539)">
                <path d="M0,5.482C0.325,4.511 0.896,3.631 1.579,2.856C2.263,2.077 3.104,1.427 4.035,0.934C4.499,0.682 5.002,0.513 5.5,0.342C6.02,0.245 6.526,0.086 7.057,0.096C8.104,0 9.146,0.229 10.091,0.583C9.065,0.639 8.095,0.641 7.158,0.87C6.224,1.06 5.324,1.366 4.495,1.821C2.807,2.684 1.357,3.982 0,5.482" style="fill:rgb(77,77,77);fill-rule:nonzero;"/>
            </g>
            <g transform="matrix(1,0,0,1,434.061,87.5171)">
                <path d="M0,-7.346C0.945,-6.384 1.9,-5.495 2.953,-4.821L3.036,-4.767L3.117,-4.613C3.367,-4.136 3.684,-3.61 4.048,-3.162C4.397,-2.694 4.811,-2.279 5.244,-1.888C5.686,-1.504 6.158,-1.149 6.68,-0.854C7.194,-0.54 7.758,-0.312 8.345,-0.055C7.078,0 5.757,-0.412 4.691,-1.188C4.148,-1.564 3.676,-2.035 3.263,-2.548C2.862,-3.08 2.515,-3.617 2.267,-4.279L2.43,-4.071C1.871,-4.502 1.387,-5.006 0.98,-5.559C0.571,-6.108 0.23,-6.706 0,-7.346" style="fill:rgb(77,77,77);fill-rule:nonzero;"/>
            </g>
            <g transform="matrix(1,0,0,1,450.612,81.8821)">
                <path d="M0,-10.875C0.508,-10.257 0.873,-9.533 1.153,-8.778C1.427,-8.019 1.587,-7.209 1.618,-6.382L1.488,-6.71C1.921,-6.235 2.268,-5.759 2.562,-5.22C2.862,-4.691 3.09,-4.119 3.246,-3.527C3.4,-2.935 3.448,-2.31 3.395,-1.704C3.349,-1.094 3.137,-0.51 2.851,0C2.893,-0.593 2.927,-1.148 2.839,-1.696C2.752,-2.24 2.631,-2.767 2.426,-3.27C2.231,-3.775 1.984,-4.26 1.711,-4.73C1.428,-5.187 1.117,-5.666 0.785,-6.052L0.651,-6.207L0.654,-6.38C0.683,-7.848 0.405,-9.347 0,-10.875" style="fill:rgb(77,77,77);fill-rule:nonzero;"/>
            </g>
        </g>
    </g>
</svg>
