<?xml version="1.0" encoding="UTF-8" standalone="no"?>
<!DOCTYPE svg PUBLIC "-//W3C//DTD SVG 1.1//EN" "http://www.w3.org/Graphics/SVG/1.1/DTD/svg11.dtd">
<svg width="100%" height="100%" viewBox="0 0 100 100" version="1.1" xmlns="http://www.w3.org/2000/svg" xmlns:xlink="http://www.w3.org/1999/xlink" xml:space="preserve" xmlns:serif="http://www.serif.com/" style="fill-rule:evenodd;clip-rule:evenodd;stroke-linecap:round;stroke-linejoin:round;stroke-miterlimit:1.5;">
    <g transform="matrix(1,0,0,1,-252.248,-1217.61)">
        <g id="hex_town_2" transform="matrix(1,0,0,1,-2782.75,968.612)">
            <rect x="3035" y="249" width="100" height="100" style="fill:none;"/>
            <g transform="matrix(0.595992,0,0,0.595992,3043.54,262.343)">
                <g transform="matrix(0.61774,0,0,0.570753,11.3021,12.6872)">
                    <rect x="2.967" y="38.356" width="24.066" height="17.644" style="fill:rgb(187,105,62);"/>
                </g>
                <g transform="matrix(0.61774,0,0,0.559705,11.3021,3.23574)">
                    <rect x="2.967" y="38.356" width="24.066" height="17.644" style="fill:rgb(195,184,163);"/>
                </g>
                <g transform="matrix(0.769312,0,0,0.559705,25.7193,3.23574)">
                    <rect x="2.967" y="38.356" width="24.066" height="17.644" style="fill:rgb(195,184,163);"/>
                </g>
                <g transform="matrix(0.769312,0,0,0.570753,25.7193,12.6872)">
                    <rect x="2.967" y="38.356" width="24.066" height="17.644" style="fill:rgb(187,105,62);"/>
                </g>
                <g transform="matrix(0.61774,0,0,0.61774,11.3021,10.0559)">
                    <path d="M1.972,14.694C1.987,12.033 4.149,9.884 6.81,9.884C15.941,9.884 34.881,9.884 34.881,9.884L26.336,23L1.923,23C1.923,23 1.95,18.437 1.972,14.694Z" style="fill:rgb(66,34,8);stroke:rgb(48,23,6);stroke-width:2px;"/>
                </g>
                <g transform="matrix(0.61774,0,0,0.61774,11.3021,10.0559)">
                    <path d="M25.927,23.008L41,1.146L56.078,23.008L25.927,23.008Z" style="fill:rgb(195,184,163);"/>
                </g>
                <g transform="matrix(0.61774,0,0,0.61774,11.3021,10.0559)">
                    <path d="M45,51L48,51C49.097,50.999 49.999,50.097 50,49L50,44C49.999,42.903 49.097,42.001 48,42L45,42C43.903,42.001 43.001,42.903 43,44L43,49C43.001,50.097 43.903,50.999 45,51ZM45,44L48,44L48.002,49L45,49L45,44Z" style="fill:rgb(48,23,6);fill-rule:nonzero;"/>
                </g>
                <g transform="matrix(0.61774,0,0,0.61774,11.3021,10.0559)">
                    <path d="M34,26C32.903,26.001 32.001,26.903 32,28L32,34C32.001,35.097 32.903,35.999 34,36L48,36C49.097,35.999 49.999,35.097 50,34L50,28C49.999,26.903 49.097,26.001 48,26L34,26ZM43,28L43,34L39,34L39,28L43,28ZM34,28L37,28L37,34L34,34L34,28ZM45,34L45,28L48,28L48.002,34L45,34Z" style="fill:rgb(48,23,6);fill-rule:nonzero;"/>
                </g>
                <g transform="matrix(0.61774,0,0,0.665203,14.612,7.99188)">
                    <rect x="26.003" y="43.488" width="7.991" height="11.619" style="fill:rgb(95,52,23);"/>
                </g>
                <g transform="matrix(0.649845,0,0,0.669033,13.7773,7.85258)">
                    <path d="M26.022,55C26.022,55 26.013,50.384 26.007,46.867C26.005,45.833 26.429,44.84 27.183,44.11C27.938,43.38 28.961,42.973 30.026,42.978C30.027,42.978 30.028,42.978 30.03,42.978C32.224,42.99 33.995,44.725 33.989,46.857C33.978,50.36 33.965,54.983 33.965,54.983" style="fill:none;stroke:rgb(48,23,6);stroke-width:1.87px;stroke-linecap:butt;"/>
                </g>
                <g transform="matrix(0.59546,-3.42915e-17,3.42915e-17,0.59546,18.7242,10.0876)">
                    <path d="M30,0.98L14.623,23.723" style="fill:none;stroke:rgb(48,23,6);stroke-width:2.07px;"/>
                </g>
                <g transform="matrix(0.558916,0,0,0.558916,19.8205,10.1234)">
                    <path d="M30,0.98L46.698,25.291" style="fill:none;stroke:rgb(48,23,6);stroke-width:2.21px;"/>
                </g>
                <g transform="matrix(0.61774,0,0,0.61774,18.0558,15.6254)">
                    <path d="M21.996,3.88L21.991,13.903" style="fill:none;stroke:rgb(48,23,6);stroke-width:2px;"/>
                </g>
                <g transform="matrix(0.61774,0,0,0.61774,20.5319,15.6254)">
                    <path d="M21.996,-2.12L21.991,13.903" style="fill:none;stroke:rgb(48,23,6);stroke-width:2px;"/>
                </g>
                <g transform="matrix(0.61774,0,0,0.61774,0.189298,25.5684)">
                    <path d="M21.996,-2.12L21.991,13.903" style="fill:none;stroke:rgb(48,23,6);stroke-width:2px;"/>
                </g>
                <g transform="matrix(0.61774,0,0,0.61774,2.64122,25.5684)">
                    <path d="M21.996,-2.12L21.991,13.903" style="fill:none;stroke:rgb(48,23,6);stroke-width:2px;"/>
                </g>
                <g transform="matrix(0.61774,0,0,0.61774,5.71858,25.5684)">
                    <path d="M21.996,-2.12L21.991,13.903" style="fill:none;stroke:rgb(48,23,6);stroke-width:2px;"/>
                </g>
                <g transform="matrix(0.61774,0,0,0.61774,8.22181,25.5684)">
                    <path d="M21.996,-2.12L21.991,13.903" style="fill:none;stroke:rgb(48,23,6);stroke-width:2px;"/>
                </g>
                <g transform="matrix(0.61774,0,0,0.61774,11.3022,25.5684)">
                    <path d="M21.996,-2.12L21.991,13.903" style="fill:none;stroke:rgb(48,23,6);stroke-width:2px;"/>
                </g>
                <g transform="matrix(0.61774,-0.000199951,-0.000199951,1.23294,13.7769,26.8768)">
                    <path d="M21.996,-2.12L21.991,13.903" style="fill:none;stroke:rgb(48,23,6);stroke-width:1.27px;"/>
                </g>
                <g transform="matrix(0.61774,0,0,0.61774,22.9995,15.6254)">
                    <path d="M21.996,-6.12L21.991,13.903" style="fill:none;stroke:rgb(48,23,6);stroke-width:2px;"/>
                </g>
                <g transform="matrix(0.61774,0,0,0.61774,25.4714,15.6254)">
                    <path d="M21.996,-2.12L21.991,13.903" style="fill:none;stroke:rgb(48,23,6);stroke-width:2px;"/>
                </g>
                <g transform="matrix(0.000200778,0.61774,-0.61774,0.000200778,40.5805,5.10347)">
                    <path d="M21.996,-2.12L21.991,13.903" style="fill:none;stroke:rgb(48,23,6);stroke-width:2px;"/>
                </g>
                <g transform="matrix(0.000661297,0.61774,-2.03463,0.000200778,41.3022,10.6265)">
                    <path d="M21.996,-2.12L21.993,6.857" style="fill:none;stroke:rgb(48,23,6);stroke-width:0.82px;"/>
                </g>
                <g transform="matrix(0.000651887,0.61774,-2.00568,0.000200778,41.6475,20.5695)">
                    <path d="M21.996,-2.12L21.991,13.903" style="fill:none;stroke:rgb(48,23,6);stroke-width:0.83px;"/>
                </g>
                <g transform="matrix(0.000651887,0.61774,-2.00568,0.000200778,41.6475,30.4266)">
                    <path d="M21.996,-2.12L21.991,13.903" style="fill:none;stroke:rgb(48,23,6);stroke-width:0.83px;"/>
                </g>
                <g transform="matrix(0.61774,0,0,0.61774,27.9429,15.6254)">
                    <path d="M21.996,3.88L21.991,13.903" style="fill:none;stroke:rgb(48,23,6);stroke-width:2px;"/>
                </g>
                <g transform="matrix(0.0788222,0,0,0.286389,21.5547,2.62526)">
                    <rect x="2.967" y="38.356" width="24.066" height="17.644" style="fill:rgb(187,105,62);"/>
                    <path d="M42.708,38.356C42.708,35.974 35.69,34.042 27.033,34.042L2.967,34.042C-5.69,34.042 -12.707,35.974 -12.707,38.356L-12.707,56C-12.707,58.383 -5.69,60.314 2.967,60.314L27.033,60.314C35.69,60.314 42.708,58.383 42.708,56L42.708,38.356ZM27.033,38.356L2.967,38.356L2.967,56L27.033,56L27.033,38.356Z" style="fill:rgb(48,23,6);"/>
                </g>
                <g transform="matrix(0.130043,0,0,0.0733742,20.778,8.46641)">
                    <path d="M27.033,55.987C27.033,46.25 22.58,38.356 17.086,38.356C15.708,38.356 14.292,38.356 12.915,38.356C7.421,38.356 2.967,46.25 2.967,55.987C2.967,55.996 2.967,56 2.967,56L27.033,56C27.033,56 27.033,55.996 27.033,55.987Z" style="fill:rgb(187,105,62);"/>
                    <path d="M18.086,21.563L17.086,21.518L12.914,21.518C2.671,21.518 -5.723,35.554 -6.473,53.367L-6.521,55.102C-6.159,41.477 2.967,72.838 2.967,72.838L27.033,72.838L27.442,72.762C29.26,72.344 36.534,69.809 36.534,55.987C36.534,55.987 36.534,55.987 36.534,55.987C36.534,37.546 28.363,22.488 18.086,21.563ZM9.692,67.894C8.291,70.148 6.61,71.384 5.279,72.057C3.948,72.729 2.967,72.838 2.967,72.838C5.594,72.838 7.972,70.948 9.692,67.894ZM12.467,55.993L12.447,57.046L12.467,55.993ZM27.033,55.987C27.033,46.25 22.58,38.356 17.086,38.356C15.708,38.356 14.292,38.356 12.915,38.356C7.421,38.356 2.967,46.25 2.967,55.987L27.033,55.987Z" style="fill:rgb(48,23,6);"/>
                </g>
            </g>
            <g transform="matrix(1,0,0,1,3043.83,243.377)">
                <g transform="matrix(0.533345,0,0,0.533345,19.9655,33.5724)">
                    <rect x="20.767" y="6.242" width="18.233" height="12.103" style="fill:rgb(187,105,62);"/>
                </g>
                <g transform="matrix(0.645246,0,0,0.645373,16.57,32.5994)">
                    <circle cx="30.06" cy="12.838" r="4.026" style="fill:rgb(227,208,111);"/>
                </g>
                <g transform="matrix(0.533345,0,0,0.533345,19.9655,33.5724)">
                    <path d="M53.979,30.814L30,21.139L6.386,30.814L6.386,55.641L53.979,55.641L53.979,30.814Z" style="fill:rgb(195,184,163);"/>
                </g>
                <g transform="matrix(0.508706,0,0,0.502777,20.2216,34.9138)">
                    <rect x="10.392" y="35.93" width="7.564" height="7.952" style="fill:rgb(227,208,111);"/>
                </g>
                <g transform="matrix(0.508706,0,0,0.502777,37.2999,34.9138)">
                    <rect x="10.392" y="35.93" width="7.564" height="7.952" style="fill:rgb(227,208,111);"/>
                </g>
                <g transform="matrix(0.533345,0,0,0.533345,19.9655,33.5724)">
                    <path d="M6.386,31.063L30,21.139L53.979,31.008L58.575,27.923L30,15.077L1.544,27.752L6.386,31.063Z" style="fill:rgb(155,98,41);stroke:black;stroke-width:1px;"/>
                </g>
                <g transform="matrix(0.533345,0,0,0.533345,19.9655,33.5724)">
                    <path d="M20.767,5.662L30.06,1.159L39,5.889L20.767,5.662Z" style="fill:rgb(155,98,41);stroke:black;stroke-width:1px;"/>
                </g>
                <g transform="matrix(0.533345,0,0,0.533345,19.9655,33.5724)">
                    <path d="M55,56L55,31.566L59.515,28.857C59.815,28.677 60,28.351 60,28C60,27.607 59.768,27.248 59.409,27.087L40,18.387L40,7L41,7C41.549,7 42,6.549 42,6C42,5.609 41.77,5.252 41.414,5.09L30.414,0.09C30.151,-0.03 29.849,-0.03 29.586,0.09L18.586,5.09C18.23,5.252 18,5.609 18,6C18,6.549 18.451,7 19,7L20,7L20,18.387L0.591,27.087C0.232,27.248 0,27.607 0,28C0,28.351 0.185,28.677 0.485,28.857L5,31.566L5,56L55,56ZM30,2.099L36.384,5L23.616,5L30,2.099ZM22,7L38,7L38,17.49L35.498,16.369C35.829,15.611 36,14.793 36,13.966C36,10.675 33.292,7.966 30,7.966C26.708,7.966 24,10.675 24,13.966C24,14.793 24.171,15.611 24.502,16.369L22,17.49L22,7ZM26.324,15.552C26.11,15.054 26,14.517 26,13.975C26,11.781 27.806,9.975 30,9.975C32.194,9.975 34,11.781 34,13.975C34,14.517 33.89,15.054 33.676,15.552L30.409,14.087C30.149,13.971 29.851,13.971 29.591,14.087L26.324,15.552ZM30,16.096L56.842,28.128L53.918,29.883L30.385,20.077C30.139,19.975 29.861,19.975 29.615,20.077L6.082,29.883L3.158,28.128L30,16.096ZM7,31.667L30,22.084L53,31.667L53,54L43.351,54L39,50.519L39,37C38.999,35.903 38.097,35.001 37,35L23,35C21.903,35.001 21.001,35.903 21,37L21,50.519L16.649,54L7,54L7,31.667ZM37,37L37,42L31,42L31,37L37,37ZM23,50L23,44L29,44L29,50L23,50ZM31,44L37,44L37,50L31,50L31,44ZM29,42L23,42L23,37L29,37L29,42ZM22.351,52L37.649,52L40.149,54L19.851,54L22.351,52Z" style="fill-rule:nonzero;"/>
                </g>
                <g transform="matrix(0.533345,0,0,0.533345,19.9655,33.5724)">
                    <path d="M17,45C18.097,44.999 18.999,44.097 19,43L19,37C18.999,35.903 18.097,35.001 17,35L11,35C9.903,35.001 9.001,35.903 9,37L9,43C9.001,44.097 9.903,44.999 11,45L17,45ZM11,37L17,37L17.001,43L11,43L11,37Z" style="fill-rule:nonzero;"/>
                </g>
                <g transform="matrix(0.533345,0,0,0.533345,19.9655,33.5724)">
                    <path d="M43,45L49,45C50.097,44.999 50.999,44.097 51,43L51,37C50.999,35.903 50.097,35.001 49,35L43,35C41.903,35.001 41.001,35.903 41,37L41,43C41.001,44.097 41.903,44.999 43,45ZM43,37L49,37L49.001,43L43,43L43,37Z" style="fill-rule:nonzero;"/>
                </g>
                <g transform="matrix(0.533345,0,0,0.533345,19.9655,33.5724)">
                    <path d="M24,31C23.451,31 23,31.451 23,32C23,32.549 23.451,33 24,33L38,33C38.549,33 39,32.549 39,32C39,31.451 38.549,31 38,31L33,31L33,29L34,29C34.549,29 35,28.549 35,28C35,27.451 34.549,27 34,27L24,27C23.451,27 23,27.451 23,28C23,28.549 23.451,29 24,29L31,29L31,31L24,31Z" style="fill-rule:nonzero;"/>
                </g>
            </g>
            <g transform="matrix(0.671165,0,0,0.671165,3041.9,291.711)">
                <g transform="matrix(1.42156,0,0,1.11386,-27.7211,0.145966)">
                    <path d="M40.613,1.194L51.797,13.353L29.429,13.353L40.613,1.194Z" style="fill:rgb(195,184,163);"/>
                </g>
                <g transform="matrix(1.02005,0,0,1.01685,-0.920569,0.478552)">
                    <path d="M45.912,15.574C45.912,14.871 45.343,14.3 44.642,14.3L16.009,14.3C15.308,14.3 14.739,14.871 14.739,15.574L14.739,36.65C14.739,37.353 15.308,37.924 16.009,37.924L44.642,37.924C45.343,37.924 45.912,37.353 45.912,36.65L45.912,15.574Z" style="fill:rgb(195,184,163);"/>
                </g>
                <g transform="matrix(0.832422,0,0,0.775119,4.78166,26.6046)">
                    <rect x="14.739" y="14.3" width="31.172" height="23.624" style="fill:rgb(195,184,163);"/>
                </g>
                <path d="M33,17L27,17C25.903,17.001 25.001,17.903 25,19L25,25C25.001,26.097 25.903,26.999 27,27L33,27C34.097,26.999 34.999,26.097 35,25L35,19C34.999,17.903 34.097,17.001 33,17ZM27,19L29,19L29,25L27,25L27,19ZM31,25L31,19L33,19L33.002,25L31,25Z" style="fill:rgb(48,23,6);fill-rule:nonzero;"/>
                <path d="M30,0.98L13.049,15.711" style="fill:none;stroke:rgb(48,23,6);stroke-width:2px;"/>
                <path d="M30,0.98L47.054,15.711" style="fill:none;stroke:rgb(48,23,6);stroke-width:2px;"/>
                <g transform="matrix(1,0,0,1,-0.00520768,0.397008)">
                    <path d="M15.256,13.903L44.742,13.925" style="fill:none;stroke:rgb(48,23,6);stroke-width:2px;"/>
                </g>
                <g transform="matrix(1,0,0,1,-0.00520768,16.1059)">
                    <path d="M15.256,13.903L44.742,13.925" style="fill:none;stroke:rgb(48,23,6);stroke-width:2px;"/>
                </g>
                <g transform="matrix(1,0,0,1,-0.00520768,24.1577)">
                    <path d="M15.256,13.903L44.742,13.925" style="fill:none;stroke:rgb(48,23,6);stroke-width:2px;"/>
                </g>
                <path d="M21.996,7.88L21.991,13.903" style="fill:none;stroke:rgb(48,23,6);stroke-width:2px;"/>
                <g transform="matrix(1,0,0,1,-2.01313,22.7858)">
                    <path d="M21.996,7.88L21.991,14.903" style="fill:none;stroke:rgb(48,23,6);stroke-width:2px;"/>
                </g>
                <g transform="matrix(1,0,0,1,2.01055,22.7858)">
                    <path d="M21.996,7.88L21.991,14.903" style="fill:none;stroke:rgb(48,23,6);stroke-width:2px;"/>
                </g>
                <g transform="matrix(1,0,0,1,5.99136,22.7858)">
                    <path d="M21.996,7.88L21.991,14.903" style="fill:none;stroke:rgb(48,23,6);stroke-width:2px;"/>
                </g>
                <g transform="matrix(1,0,0,1,9.98732,22.7858)">
                    <path d="M21.996,7.88L21.991,14.903" style="fill:none;stroke:rgb(48,23,6);stroke-width:2px;"/>
                </g>
                <g transform="matrix(1,0,0,1,13.9883,22.7858)">
                    <path d="M21.996,7.88L21.991,14.903" style="fill:none;stroke:rgb(48,23,6);stroke-width:2px;"/>
                </g>
                <g transform="matrix(1,0,0,1,17.9755,22.7858)">
                    <path d="M21.996,7.88L21.991,14.903" style="fill:none;stroke:rgb(48,23,6);stroke-width:2px;"/>
                </g>
                <g transform="matrix(1,0,0,1,4.0083,0)">
                    <path d="M21.996,4.88L21.991,13.903" style="fill:none;stroke:rgb(48,23,6);stroke-width:2px;"/>
                </g>
                <g transform="matrix(1,0,0,1,8.00283,0)">
                    <path d="M21.996,1.88L21.991,13.903" style="fill:none;stroke:rgb(48,23,6);stroke-width:2px;"/>
                </g>
                <g transform="matrix(1,0,0,1,12.0044,0)">
                    <path d="M21.996,4.88L21.991,13.903" style="fill:none;stroke:rgb(48,23,6);stroke-width:2px;"/>
                </g>
                <g transform="matrix(1,0,0,1,16.0052,0)">
                    <path d="M21.996,7.88L21.991,13.903" style="fill:none;stroke:rgb(48,23,6);stroke-width:2px;"/>
                </g>
                <g transform="matrix(1,0,0,1.07683,0,-3.34132)">
                    <rect x="26.003" y="43.488" width="7.991" height="11.619" style="fill:rgb(95,52,23);"/>
                </g>
                <g transform="matrix(1,0,0,1.08303,0,-3.56682)">
                    <path d="M26.022,55C26.022,55 26.012,49.376 26.005,45.814C26.004,45.058 26.329,44.333 26.909,43.8C27.489,43.266 28.276,42.969 29.095,42.973C29.7,42.977 30.334,42.98 30.938,42.983C32.631,42.993 33.996,44.264 33.992,45.827C33.981,49.37 33.965,54.983 33.965,54.983" style="fill:none;stroke:rgb(48,23,6);stroke-width:1.92px;stroke-linecap:butt;"/>
                </g>
            </g>
            <g id="Layer11" transform="matrix(0.976646,0,0,0.976646,2789.54,-939.613)">
                <g transform="matrix(0.394258,0,0,0.394258,321.132,1240.05)">
                    <g transform="matrix(1.42156,0,0,1.11386,-27.7211,0.145966)">
                        <path d="M40.613,1.194L51.797,13.353L29.429,13.353L40.613,1.194Z" style="fill:rgb(195,184,163);"/>
                    </g>
                    <g transform="matrix(1.02005,0,0,1.01685,-0.920569,0.478552)">
                        <path d="M45.912,15.574C45.912,14.871 45.343,14.3 44.642,14.3L16.009,14.3C15.308,14.3 14.739,14.871 14.739,15.574L14.739,36.65C14.739,37.353 15.308,37.924 16.009,37.924L44.642,37.924C45.343,37.924 45.912,37.353 45.912,36.65L45.912,15.574Z" style="fill:rgb(195,184,163);"/>
                    </g>
                    <g transform="matrix(0.832422,0,0,0.775119,4.78166,26.6046)">
                        <rect x="14.739" y="14.3" width="31.172" height="23.624" style="fill:rgb(195,184,163);"/>
                    </g>
                    <path d="M33,17L27,17C25.903,17.001 25.001,17.903 25,19L25,25C25.001,26.097 25.903,26.999 27,27L33,27C34.097,26.999 34.999,26.097 35,25L35,19C34.999,17.903 34.097,17.001 33,17ZM27,19L29,19L29,25L27,25L27,19ZM31,25L31,19L33,19L33.002,25L31,25Z" style="fill:rgb(48,23,6);fill-rule:nonzero;"/>
                    <path d="M30,0.98L13.049,15.711" style="fill:none;stroke:rgb(48,23,6);stroke-width:2px;"/>
                    <path d="M30,0.98L47.054,15.711" style="fill:none;stroke:rgb(48,23,6);stroke-width:2px;"/>
                    <g transform="matrix(1,0,0,1,-0.00520768,0.397008)">
                        <path d="M15.256,13.903L44.742,13.925" style="fill:none;stroke:rgb(48,23,6);stroke-width:2px;"/>
                    </g>
                    <g transform="matrix(1,0,0,1,-0.00520768,16.1059)">
                        <path d="M15.256,13.903L44.742,13.925" style="fill:none;stroke:rgb(48,23,6);stroke-width:2px;"/>
                    </g>
                    <g transform="matrix(1,0,0,1,-0.00520768,24.1577)">
                        <path d="M15.256,13.903L44.742,13.925" style="fill:none;stroke:rgb(48,23,6);stroke-width:2px;"/>
                    </g>
                    <path d="M21.996,7.88L21.991,13.903" style="fill:none;stroke:rgb(48,23,6);stroke-width:2px;"/>
                    <g transform="matrix(1,0,0,1,-2.01313,22.7858)">
                        <path d="M21.996,7.88L21.991,14.903" style="fill:none;stroke:rgb(48,23,6);stroke-width:2px;"/>
                    </g>
                    <g transform="matrix(1,0,0,1,2.01055,22.7858)">
                        <path d="M21.996,7.88L21.991,14.903" style="fill:none;stroke:rgb(48,23,6);stroke-width:2px;"/>
                    </g>
                    <g transform="matrix(1,0,0,1,5.99136,22.7858)">
                        <path d="M21.996,7.88L21.991,14.903" style="fill:none;stroke:rgb(48,23,6);stroke-width:2px;"/>
                    </g>
                    <g transform="matrix(1,0,0,1,9.98732,22.7858)">
                        <path d="M21.996,7.88L21.991,14.903" style="fill:none;stroke:rgb(48,23,6);stroke-width:2px;"/>
                    </g>
                    <g transform="matrix(1,0,0,1,13.9883,22.7858)">
                        <path d="M21.996,7.88L21.991,14.903" style="fill:none;stroke:rgb(48,23,6);stroke-width:2px;"/>
                    </g>
                    <g transform="matrix(1,0,0,1,17.9755,22.7858)">
                        <path d="M21.996,7.88L21.991,14.903" style="fill:none;stroke:rgb(48,23,6);stroke-width:2px;"/>
                    </g>
                    <g transform="matrix(1,0,0,1,4.0083,0)">
                        <path d="M21.996,4.88L21.991,13.903" style="fill:none;stroke:rgb(48,23,6);stroke-width:2px;"/>
                    </g>
                    <g transform="matrix(1,0,0,1,8.00283,0)">
                        <path d="M21.996,1.88L21.991,13.903" style="fill:none;stroke:rgb(48,23,6);stroke-width:2px;"/>
                    </g>
                    <g transform="matrix(1,0,0,1,12.0044,0)">
                        <path d="M21.996,4.88L21.991,13.903" style="fill:none;stroke:rgb(48,23,6);stroke-width:2px;"/>
                    </g>
                    <g transform="matrix(1,0,0,1,16.0052,0)">
                        <path d="M21.996,7.88L21.991,13.903" style="fill:none;stroke:rgb(48,23,6);stroke-width:2px;"/>
                    </g>
                    <g transform="matrix(1,0,0,1.07683,0,-3.34132)">
                        <rect x="26.003" y="43.488" width="7.991" height="11.619" style="fill:rgb(95,52,23);"/>
                    </g>
                    <g transform="matrix(1,0,0,1.08303,0,-3.56682)">
                        <path d="M26.022,55C26.022,55 26.013,50.215 26.007,46.677C26.005,45.693 26.429,44.749 27.184,44.055C27.939,43.36 28.964,42.973 30.03,42.978C30.031,42.978 30.032,42.978 30.034,42.978C32.226,42.99 33.995,44.638 33.989,46.662C33.979,50.186 33.965,54.983 33.965,54.983" style="fill:none;stroke:rgb(48,23,6);stroke-width:1.92px;stroke-linecap:butt;"/>
                    </g>
                </g>
                <g transform="matrix(0.394258,0,0,0.394258,309.286,1240.05)">
                    <g transform="matrix(1.42156,0,0,1.11386,-27.7211,0.145966)">
                        <path d="M40.613,1.194L51.797,13.353L29.429,13.353L40.613,1.194Z" style="fill:rgb(195,184,163);"/>
                    </g>
                    <g transform="matrix(1.02005,0,0,1.01685,-0.920569,0.478552)">
                        <path d="M45.912,15.574C45.912,14.871 45.343,14.3 44.642,14.3L16.009,14.3C15.308,14.3 14.739,14.871 14.739,15.574L14.739,36.65C14.739,37.353 15.308,37.924 16.009,37.924L44.642,37.924C45.343,37.924 45.912,37.353 45.912,36.65L45.912,15.574Z" style="fill:rgb(195,184,163);"/>
                    </g>
                    <g transform="matrix(0.832422,0,0,0.775119,4.78166,26.6046)">
                        <rect x="14.739" y="14.3" width="31.172" height="23.624" style="fill:rgb(195,184,163);"/>
                    </g>
                    <path d="M33,17L27,17C25.903,17.001 25.001,17.903 25,19L25,25C25.001,26.097 25.903,26.999 27,27L33,27C34.097,26.999 34.999,26.097 35,25L35,19C34.999,17.903 34.097,17.001 33,17ZM27,19L29,19L29,25L27,25L27,19ZM31,25L31,19L33,19L33.002,25L31,25Z" style="fill:rgb(48,23,6);fill-rule:nonzero;"/>
                    <path d="M30,0.98L13.049,15.711" style="fill:none;stroke:rgb(48,23,6);stroke-width:2px;"/>
                    <path d="M30,0.98L45.372,14.259" style="fill:none;stroke:rgb(48,23,6);stroke-width:2px;"/>
                    <g transform="matrix(1,0,0,1,-0.00520768,0.397008)">
                        <path d="M15.256,13.903L44.742,13.925" style="fill:none;stroke:rgb(48,23,6);stroke-width:2px;"/>
                    </g>
                    <g transform="matrix(1.07102,0,0,1,-1.08864,16.1059)">
                        <path d="M15.256,13.903L44.742,13.925" style="fill:none;stroke:rgb(48,23,6);stroke-width:2px;"/>
                    </g>
                    <g transform="matrix(1.07102,0,0,1,-1.08864,24.1577)">
                        <path d="M15.256,13.903L44.742,13.925" style="fill:none;stroke:rgb(48,23,6);stroke-width:2px;"/>
                    </g>
                    <path d="M21.996,7.88L21.991,13.903" style="fill:none;stroke:rgb(48,23,6);stroke-width:2px;"/>
                    <g transform="matrix(1,0,0,1,-2.01313,22.7858)">
                        <path d="M21.996,7.88L21.991,14.903" style="fill:none;stroke:rgb(48,23,6);stroke-width:2px;"/>
                    </g>
                    <g transform="matrix(1,0,0,1,2.01055,22.7858)">
                        <path d="M21.996,7.88L21.991,14.903" style="fill:none;stroke:rgb(48,23,6);stroke-width:2px;"/>
                    </g>
                    <g transform="matrix(1,0,0,1,5.99136,22.7858)">
                        <path d="M21.996,7.88L21.991,14.903" style="fill:none;stroke:rgb(48,23,6);stroke-width:2px;"/>
                    </g>
                    <g transform="matrix(1,0,0,1,9.98732,22.7858)">
                        <path d="M21.996,7.88L21.991,14.903" style="fill:none;stroke:rgb(48,23,6);stroke-width:2px;"/>
                    </g>
                    <g transform="matrix(1,0,0,1,13.9883,22.7858)">
                        <path d="M21.996,7.88L21.991,14.903" style="fill:none;stroke:rgb(48,23,6);stroke-width:2px;"/>
                    </g>
                    <g transform="matrix(1,0,0,1,17.9755,22.7858)">
                        <path d="M21.996,7.88L21.991,14.903" style="fill:none;stroke:rgb(48,23,6);stroke-width:2px;"/>
                    </g>
                    <g transform="matrix(1,0,0,1,4.0083,0)">
                        <path d="M21.996,4.88L21.991,13.903" style="fill:none;stroke:rgb(48,23,6);stroke-width:2px;"/>
                    </g>
                    <g transform="matrix(1,0,0,1,8.00283,0)">
                        <path d="M21.996,1.88L21.991,13.903" style="fill:none;stroke:rgb(48,23,6);stroke-width:2px;"/>
                    </g>
                    <g transform="matrix(1,0,0,1,12.0044,0)">
                        <path d="M21.996,4.88L21.991,13.903" style="fill:none;stroke:rgb(48,23,6);stroke-width:2px;"/>
                    </g>
                    <g transform="matrix(1,0,0,1,16.0052,0)">
                        <path d="M21.996,7.88L21.991,13.903" style="fill:none;stroke:rgb(48,23,6);stroke-width:2px;"/>
                    </g>
                    <g transform="matrix(1,0,0,1.07683,0,-3.34132)">
                        <rect x="26.003" y="43.488" width="7.991" height="11.619" style="fill:rgb(95,52,23);"/>
                    </g>
                    <g transform="matrix(1,0,0,1.08303,0,-3.56682)">
                        <path d="M26.022,55C26.022,55 26.013,50.215 26.007,46.677C26.005,45.693 26.429,44.749 27.184,44.055C27.939,43.36 28.964,42.973 30.03,42.978C30.031,42.978 30.032,42.978 30.034,42.978C32.226,42.99 33.995,44.638 33.989,46.662C33.979,50.186 33.965,54.983 33.965,54.983" style="fill:none;stroke:rgb(48,23,6);stroke-width:1.92px;stroke-linecap:butt;"/>
                    </g>
                </g>
            </g>
            <g transform="matrix(1,0,0,1,3072.65,284.647)">
                <g transform="matrix(0.61774,0,0,0.570753,11.3021,12.6872)">
                    <rect x="2.967" y="38.356" width="24.066" height="17.644" style="fill:rgb(187,105,62);"/>
                </g>
                <g transform="matrix(0.61774,0,0,0.559705,11.3021,3.23574)">
                    <rect x="2.967" y="38.356" width="24.066" height="17.644" style="fill:rgb(195,184,163);"/>
                </g>
                <g transform="matrix(0.769312,0,0,0.559705,25.7193,3.23574)">
                    <rect x="2.967" y="38.356" width="24.066" height="17.644" style="fill:rgb(195,184,163);"/>
                </g>
                <g transform="matrix(0.769312,0,0,0.570753,25.7193,12.6872)">
                    <rect x="2.967" y="38.356" width="24.066" height="17.644" style="fill:rgb(187,105,62);"/>
                </g>
                <g transform="matrix(0.61774,0,0,0.61774,11.3021,10.0559)">
                    <path d="M1.983,12.751C1.992,11.165 3.281,9.884 4.867,9.884C12.872,9.884 34.881,9.884 34.881,9.884L26.336,23L1.923,23C1.923,23 1.961,16.611 1.983,12.751Z" style="fill:rgb(66,34,8);stroke:rgb(48,23,6);stroke-width:2px;"/>
                </g>
                <g transform="matrix(0.61774,0,0,0.61774,11.3021,10.0559)">
                    <path d="M25.927,23.008L41,1.146L56.078,23.008L25.927,23.008Z" style="fill:rgb(195,184,163);"/>
                </g>
                <g transform="matrix(0.61774,0,0,0.61774,11.3021,10.0559)">
                    <path d="M45,51L48,51C49.097,50.999 49.999,50.097 50,49L50,44C49.999,42.903 49.097,42.001 48,42L45,42C43.903,42.001 43.001,42.903 43,44L43,49C43.001,50.097 43.903,50.999 45,51ZM45,44L48,44L48.002,49L45,49L45,44Z" style="fill:rgb(48,23,6);fill-rule:nonzero;"/>
                </g>
                <g transform="matrix(0.61774,0,0,0.61774,11.3021,10.0559)">
                    <path d="M34,26C32.903,26.001 32.001,26.903 32,28L32,34C32.001,35.097 32.903,35.999 34,36L48,36C49.097,35.999 49.999,35.097 50,34L50,28C49.999,26.903 49.097,26.001 48,26L34,26ZM43,28L43,34L39,34L39,28L43,28ZM34,28L37,28L37,34L34,34L34,28ZM45,34L45,28L48,28L48.002,34L45,34Z" style="fill:rgb(48,23,6);fill-rule:nonzero;"/>
                </g>
                <g transform="matrix(0.61774,0,0,0.665203,14.612,7.99188)">
                    <rect x="26.003" y="43.488" width="7.991" height="11.619" style="fill:rgb(95,52,23);"/>
                </g>
                <g transform="matrix(0.649845,0,0,0.669033,13.7773,7.85258)">
                    <path d="M26.022,55C26.022,55 26.012,49.629 26.006,46.06C26.004,45.239 26.34,44.452 26.939,43.872C27.538,43.293 28.35,42.969 29.195,42.974C29.736,42.977 30.297,42.98 30.837,42.983C32.585,42.992 33.996,44.374 33.991,46.073C33.981,49.623 33.965,54.983 33.965,54.983" style="fill:none;stroke:rgb(48,23,6);stroke-width:1.87px;stroke-linecap:butt;"/>
                </g>
                <g transform="matrix(0.59546,-3.42915e-17,3.42915e-17,0.59546,18.7242,10.0876)">
                    <path d="M30,0.98L14.623,23.723" style="fill:none;stroke:rgb(48,23,6);stroke-width:2.07px;"/>
                </g>
                <g transform="matrix(0.558916,0,0,0.558916,19.8205,10.1234)">
                    <path d="M30,0.98L46.698,25.291" style="fill:none;stroke:rgb(48,23,6);stroke-width:2.21px;"/>
                </g>
                <g transform="matrix(0.61774,0,0,0.61774,18.0558,15.6254)">
                    <path d="M21.996,3.88L21.991,13.903" style="fill:none;stroke:rgb(48,23,6);stroke-width:2px;"/>
                </g>
                <g transform="matrix(0.61774,0,0,0.61774,20.5319,15.6254)">
                    <path d="M21.996,-2.12L21.991,13.903" style="fill:none;stroke:rgb(48,23,6);stroke-width:2px;"/>
                </g>
                <g transform="matrix(0.61774,0,0,0.61774,0.189298,25.5684)">
                    <path d="M21.996,-2.12L21.991,13.903" style="fill:none;stroke:rgb(48,23,6);stroke-width:2px;"/>
                </g>
                <g transform="matrix(0.61774,0,0,0.61774,2.64122,25.5684)">
                    <path d="M21.996,-2.12L21.991,13.903" style="fill:none;stroke:rgb(48,23,6);stroke-width:2px;"/>
                </g>
                <g transform="matrix(0.61774,0,0,0.61774,5.71858,25.5684)">
                    <path d="M21.996,-2.12L21.991,13.903" style="fill:none;stroke:rgb(48,23,6);stroke-width:2px;"/>
                </g>
                <g transform="matrix(0.61774,0,0,0.61774,8.22181,25.5684)">
                    <path d="M21.996,-2.12L21.991,13.903" style="fill:none;stroke:rgb(48,23,6);stroke-width:2px;"/>
                </g>
                <g transform="matrix(0.61774,0,0,0.61774,11.3022,25.5684)">
                    <path d="M21.996,-2.12L21.991,13.903" style="fill:none;stroke:rgb(48,23,6);stroke-width:2px;"/>
                </g>
                <g transform="matrix(0.61774,-0.000199951,-0.000199951,1.23294,13.7769,26.8768)">
                    <path d="M21.996,-2.12L21.991,13.903" style="fill:none;stroke:rgb(48,23,6);stroke-width:1.27px;"/>
                </g>
                <g transform="matrix(0.61774,0,0,0.61774,22.9995,15.6254)">
                    <path d="M21.996,-6.12L21.991,13.903" style="fill:none;stroke:rgb(48,23,6);stroke-width:2px;"/>
                </g>
                <g transform="matrix(0.61774,0,0,0.61774,25.4714,15.6254)">
                    <path d="M21.996,-2.12L21.991,13.903" style="fill:none;stroke:rgb(48,23,6);stroke-width:2px;"/>
                </g>
                <g transform="matrix(0.000200778,0.61774,-0.61774,0.000200778,40.5805,5.10347)">
                    <path d="M21.996,-2.12L21.991,13.903" style="fill:none;stroke:rgb(48,23,6);stroke-width:2px;"/>
                </g>
                <g transform="matrix(0.000661297,0.61774,-2.03463,0.000200778,41.3022,10.6265)">
                    <path d="M21.996,-2.12L21.993,6.857" style="fill:none;stroke:rgb(48,23,6);stroke-width:0.82px;"/>
                </g>
                <g transform="matrix(0.000651887,0.61774,-2.00568,0.000200778,41.6475,20.5695)">
                    <path d="M21.996,-2.12L21.991,13.903" style="fill:none;stroke:rgb(48,23,6);stroke-width:0.83px;"/>
                </g>
                <g transform="matrix(0.000651887,0.61774,-2.00568,0.000200778,41.6475,30.4266)">
                    <path d="M21.996,-2.12L21.991,13.903" style="fill:none;stroke:rgb(48,23,6);stroke-width:0.83px;"/>
                </g>
                <g transform="matrix(0.61774,0,0,0.61774,27.9429,15.6254)">
                    <path d="M21.996,3.88L21.991,13.903" style="fill:none;stroke:rgb(48,23,6);stroke-width:2px;"/>
                </g>
                <g transform="matrix(0.0788222,0,0,0.286389,21.5547,2.62526)">
                    <rect x="2.967" y="38.356" width="24.066" height="17.644" style="fill:rgb(187,105,62);"/>
                    <path d="M42.708,38.356C42.708,35.974 35.69,34.042 27.033,34.042L2.967,34.042C-5.69,34.042 -12.707,35.974 -12.707,38.356C-12.707,38.356 -12.707,56 -12.707,56C-12.707,58.383 -5.69,60.314 2.967,60.314L27.033,60.314C35.69,60.314 42.708,58.383 42.708,56C42.708,56 42.708,38.356 42.708,38.356ZM27.033,38.356L2.967,38.356L2.967,56L27.033,56L27.033,38.356Z" style="fill:rgb(48,23,6);"/>
                </g>
                <g transform="matrix(0.130043,0,0,0.0733742,20.778,8.46641)">
                    <path d="M27.033,52.108C27.033,44.513 23.56,38.356 19.274,38.356C16.538,38.356 13.462,38.356 10.726,38.356C6.441,38.356 2.967,44.513 2.967,52.108C2.967,54.374 2.967,56 2.967,56L27.033,56L27.033,52.108Z" style="fill:rgb(187,105,62);"/>
                    <path d="M2.967,72.838L27.033,72.838L27.442,72.585C29.26,71.38 36.534,65.711 36.534,52.109L36.534,52.108C36.534,35.214 28.807,21.518 19.274,21.518L10.726,21.518C1.194,21.518 -6.534,35.214 -6.534,52.108C-6.533,67.654 2.967,72.838 2.967,72.838ZM27.033,52.108C27.033,44.513 23.56,38.356 19.274,38.356C16.538,38.356 13.462,38.356 10.726,38.356C6.441,38.356 2.967,44.513 2.967,52.108C2.967,54.374 2.967,56 2.967,56L27.033,56L27.033,52.108Z" style="fill:rgb(48,23,6);"/>
                </g>
            </g>
        </g>
    </g>
</svg>
