<?xml version="1.0" encoding="UTF-8" standalone="no"?>
<!DOCTYPE svg PUBLIC "-//W3C//DTD SVG 1.1//EN" "http://www.w3.org/Graphics/SVG/1.1/DTD/svg11.dtd">
<svg width="100%" height="100%" viewBox="0 0 100 100" version="1.1" xmlns="http://www.w3.org/2000/svg" xmlns:xlink="http://www.w3.org/1999/xlink" xml:space="preserve" xmlns:serif="http://www.serif.com/" style="fill-rule:evenodd;clip-rule:evenodd;stroke-linejoin:round;stroke-miterlimit:2;">
    <g transform="matrix(1,0,0,1,-3593,-1154.93)">
        <g id="hex_town_4" transform="matrix(1,0,0,1,558,905.93)">
            <rect x="3035" y="249" width="100" height="100" style="fill:none;"/>
            <g transform="matrix(0.952786,0,0,0.952786,146.239,15.8075)">
                <g transform="matrix(0.554592,0,0,1.14464,1069.13,-1096.43)">
                    <path d="M3619.21,1188.19C3619.21,1187.53 3618.67,1186.89 3617.7,1186.43C3616.74,1185.96 3615.43,1185.7 3614.07,1185.7C3611.83,1185.7 3609.22,1185.7 3606.98,1185.7C3605.62,1185.7 3604.32,1185.96 3603.35,1186.43C3602.39,1186.89 3601.85,1187.53 3601.85,1188.19C3601.85,1198.12 3601.85,1234.37 3601.85,1234.37L3619.21,1234.37L3619.21,1188.19Z" style="fill:rgb(70,100,133);"/>
                </g>
                <g transform="matrix(1.17931,0,0,1.17931,-1181.95,-1132.11)">
                    <path d="M3609.03,1190.34C3609.03,1189.7 3608.51,1189.17 3607.87,1189.17L3605.54,1189.17C3604.89,1189.17 3604.37,1189.7 3604.37,1190.34L3604.37,1192.67C3604.37,1193.31 3604.89,1193.83 3605.54,1193.83L3607.87,1193.83C3608.51,1193.83 3609.03,1193.31 3609.03,1192.67L3609.03,1190.34Z" style="fill:rgb(174,186,198);"/>
                </g>
                <g transform="matrix(1.17931,0,0,1.17931,-1181.95,-1139.36)">
                    <path d="M3609.03,1190.34C3609.03,1189.7 3608.51,1189.17 3607.87,1189.17L3605.54,1189.17C3604.89,1189.17 3604.37,1189.7 3604.37,1190.34L3604.37,1192.67C3604.37,1193.31 3604.89,1193.83 3605.54,1193.83L3607.87,1193.83C3608.51,1193.83 3609.03,1193.31 3609.03,1192.67L3609.03,1190.34Z" style="fill:rgb(174,186,198);"/>
                </g>
                <g transform="matrix(1.17931,0,0,1.17931,-1181.95,-1124.8)">
                    <path d="M3609.03,1190.34C3609.03,1189.7 3608.51,1189.17 3607.87,1189.17L3605.54,1189.17C3604.89,1189.17 3604.37,1189.7 3604.37,1190.34L3604.37,1192.67C3604.37,1193.31 3604.89,1193.83 3605.54,1193.83L3607.87,1193.83C3608.51,1193.83 3609.03,1193.31 3609.03,1192.67L3609.03,1190.34Z" style="fill:rgb(174,186,198);"/>
                </g>
                <g transform="matrix(1.17931,0,0,1.17931,-1181.95,-1117.17)">
                    <path d="M3609.03,1190.34C3609.03,1189.7 3608.51,1189.17 3607.87,1189.17L3605.54,1189.17C3604.89,1189.17 3604.37,1189.7 3604.37,1190.34L3604.37,1192.67C3604.37,1193.31 3604.89,1193.83 3605.54,1193.83L3607.87,1193.83C3608.51,1193.83 3609.03,1193.31 3609.03,1192.67L3609.03,1190.34Z" style="fill:rgb(174,186,198);"/>
                </g>
                <g transform="matrix(1.17931,0,0,1.17931,-1181.95,-1109.68)">
                    <path d="M3609.03,1190.34C3609.03,1189.7 3608.51,1189.17 3607.87,1189.17L3605.54,1189.17C3604.89,1189.17 3604.37,1189.7 3604.37,1190.34L3604.37,1192.67C3604.37,1193.31 3604.89,1193.83 3605.54,1193.83L3607.87,1193.83C3608.51,1193.83 3609.03,1193.31 3609.03,1192.67L3609.03,1190.34Z" style="fill:rgb(174,186,198);"/>
                </g>
                <g transform="matrix(1.17931,0,0,1.17931,-1181.95,-1102.25)">
                    <path d="M3609.03,1190.34C3609.03,1189.7 3608.51,1189.17 3607.87,1189.17L3605.54,1189.17C3604.89,1189.17 3604.37,1189.7 3604.37,1190.34L3604.37,1192.67C3604.37,1193.31 3604.89,1193.83 3605.54,1193.83L3607.87,1193.83C3608.51,1193.83 3609.03,1193.31 3609.03,1192.67L3609.03,1190.34Z" style="fill:rgb(174,186,198);"/>
                </g>
                <g transform="matrix(1.17931,0,0,1.17931,-1181.95,-1094.35)">
                    <path d="M3609.03,1190.34C3609.03,1189.7 3608.51,1189.17 3607.87,1189.17L3605.54,1189.17C3604.89,1189.17 3604.37,1189.7 3604.37,1190.34L3604.37,1192.67C3604.37,1193.31 3604.89,1193.83 3605.54,1193.83L3607.87,1193.83C3608.51,1193.83 3609.03,1193.31 3609.03,1192.67L3609.03,1190.34Z" style="fill:rgb(174,186,198);"/>
                </g>
            </g>
            <g transform="matrix(1,0,0,1,0.413425,4.87032)">
                <g transform="matrix(1.16341,0,0,0.790384,-1089.18,-670.942)">
                    <path d="M3619.21,1189.13C3619.21,1188.22 3618.96,1187.35 3618.52,1186.7C3618.09,1186.06 3617.49,1185.7 3616.87,1185.7C3613.55,1185.7 3607.5,1185.7 3604.18,1185.7C3603.56,1185.7 3602.97,1186.06 3602.53,1186.7C3602.09,1187.35 3601.85,1188.22 3601.85,1189.13C3601.85,1200.23 3601.85,1234.37 3601.85,1234.37L3619.21,1234.37L3619.21,1189.13Z" style="fill:rgb(210,218,227);"/>
                </g>
                <g transform="matrix(0.932107,0,0,0.932107,-256.801,-840.257)">
                    <path d="M3609.03,1190.34C3609.03,1189.7 3608.51,1189.17 3607.87,1189.17L3605.54,1189.17C3604.89,1189.17 3604.37,1189.7 3604.37,1190.34L3604.37,1192.67C3604.37,1193.31 3604.89,1193.83 3605.54,1193.83L3607.87,1193.83C3608.51,1193.83 3609.03,1193.31 3609.03,1192.67L3609.03,1190.34Z" style="fill:rgb(155,166,178);"/>
                </g>
                <g transform="matrix(0.932107,0,0,0.932107,-256.801,-834.479)">
                    <path d="M3609.03,1190.34C3609.03,1189.7 3608.51,1189.17 3607.87,1189.17L3605.54,1189.17C3604.89,1189.17 3604.37,1189.7 3604.37,1190.34L3604.37,1192.67C3604.37,1193.31 3604.89,1193.83 3605.54,1193.83L3607.87,1193.83C3608.51,1193.83 3609.03,1193.31 3609.03,1192.67L3609.03,1190.34Z" style="fill:rgb(155,166,178);"/>
                </g>
                <g transform="matrix(0.932107,0,0,0.932107,-256.801,-828.452)">
                    <path d="M3609.03,1190.34C3609.03,1189.7 3608.51,1189.17 3607.87,1189.17L3605.54,1189.17C3604.89,1189.17 3604.37,1189.7 3604.37,1190.34L3604.37,1192.67C3604.37,1193.31 3604.89,1193.83 3605.54,1193.83L3607.87,1193.83C3608.51,1193.83 3609.03,1193.31 3609.03,1192.67L3609.03,1190.34Z" style="fill:rgb(155,166,178);"/>
                </g>
                <g transform="matrix(0.932107,0,0,0.932107,-256.801,-822.528)">
                    <path d="M3609.03,1190.34C3609.03,1189.7 3608.51,1189.17 3607.87,1189.17L3605.54,1189.17C3604.89,1189.17 3604.37,1189.7 3604.37,1190.34L3604.37,1192.67C3604.37,1193.31 3604.89,1193.83 3605.54,1193.83L3607.87,1193.83C3608.51,1193.83 3609.03,1193.31 3609.03,1192.67L3609.03,1190.34Z" style="fill:rgb(155,166,178);"/>
                </g>
                <g transform="matrix(0.932107,0,0,0.932107,-256.801,-816.656)">
                    <path d="M3609.03,1190.34C3609.03,1189.7 3608.51,1189.17 3607.87,1189.17L3605.54,1189.17C3604.89,1189.17 3604.37,1189.7 3604.37,1190.34L3604.37,1192.67C3604.37,1193.31 3604.89,1193.83 3605.54,1193.83L3607.87,1193.83C3608.51,1193.83 3609.03,1193.31 3609.03,1192.67L3609.03,1190.34Z" style="fill:rgb(155,166,178);"/>
                </g>
                <g transform="matrix(0.932107,0,0,0.932107,-256.801,-810.412)">
                    <path d="M3609.03,1190.34C3609.03,1189.7 3608.51,1189.17 3607.87,1189.17L3605.54,1189.17C3604.89,1189.17 3604.37,1189.7 3604.37,1190.34L3604.37,1192.67C3604.37,1193.31 3604.89,1193.83 3605.54,1193.83L3607.87,1193.83C3608.51,1193.83 3609.03,1193.31 3609.03,1192.67L3609.03,1190.34Z" style="fill:rgb(155,166,178);"/>
                </g>
                <g transform="matrix(0.932107,0,0,0.932107,-250.689,-840.257)">
                    <path d="M3609.03,1190.34C3609.03,1189.7 3608.51,1189.17 3607.87,1189.17L3605.54,1189.17C3604.89,1189.17 3604.37,1189.7 3604.37,1190.34L3604.37,1192.67C3604.37,1193.31 3604.89,1193.83 3605.54,1193.83L3607.87,1193.83C3608.51,1193.83 3609.03,1193.31 3609.03,1192.67L3609.03,1190.34Z" style="fill:rgb(155,166,178);"/>
                </g>
                <g transform="matrix(0.932107,0,0,0.932107,-244.557,-840.257)">
                    <path d="M3609.03,1190.34C3609.03,1189.7 3608.51,1189.17 3607.87,1189.17L3605.54,1189.17C3604.89,1189.17 3604.37,1189.7 3604.37,1190.34L3604.37,1192.67C3604.37,1193.31 3604.89,1193.83 3605.54,1193.83L3607.87,1193.83C3608.51,1193.83 3609.03,1193.31 3609.03,1192.67L3609.03,1190.34Z" style="fill:rgb(155,166,178);"/>
                </g>
                <g transform="matrix(0.932107,0,0,0.932107,-250.689,-834.479)">
                    <path d="M3609.03,1190.34C3609.03,1189.7 3608.51,1189.17 3607.87,1189.17L3605.54,1189.17C3604.89,1189.17 3604.37,1189.7 3604.37,1190.34L3604.37,1192.67C3604.37,1193.31 3604.89,1193.83 3605.54,1193.83L3607.87,1193.83C3608.51,1193.83 3609.03,1193.31 3609.03,1192.67L3609.03,1190.34Z" style="fill:rgb(155,166,178);"/>
                </g>
                <g transform="matrix(0.932107,0,0,0.932107,-244.557,-834.479)">
                    <path d="M3609.03,1190.34C3609.03,1189.7 3608.51,1189.17 3607.87,1189.17L3605.54,1189.17C3604.89,1189.17 3604.37,1189.7 3604.37,1190.34L3604.37,1192.67C3604.37,1193.31 3604.89,1193.83 3605.54,1193.83L3607.87,1193.83C3608.51,1193.83 3609.03,1193.31 3609.03,1192.67L3609.03,1190.34Z" style="fill:rgb(155,166,178);"/>
                </g>
                <g transform="matrix(0.932107,0,0,0.932107,-250.689,-828.452)">
                    <path d="M3609.03,1190.34C3609.03,1189.7 3608.51,1189.17 3607.87,1189.17L3605.54,1189.17C3604.89,1189.17 3604.37,1189.7 3604.37,1190.34L3604.37,1192.67C3604.37,1193.31 3604.89,1193.83 3605.54,1193.83L3607.87,1193.83C3608.51,1193.83 3609.03,1193.31 3609.03,1192.67L3609.03,1190.34Z" style="fill:rgb(155,166,178);"/>
                </g>
                <g transform="matrix(0.932107,0,0,0.932107,-244.557,-828.452)">
                    <path d="M3609.03,1190.34C3609.03,1189.7 3608.51,1189.17 3607.87,1189.17L3605.54,1189.17C3604.89,1189.17 3604.37,1189.7 3604.37,1190.34L3604.37,1192.67C3604.37,1193.31 3604.89,1193.83 3605.54,1193.83L3607.87,1193.83C3608.51,1193.83 3609.03,1193.31 3609.03,1192.67L3609.03,1190.34Z" style="fill:rgb(155,166,178);"/>
                </g>
                <g transform="matrix(0.932107,0,0,0.932107,-250.689,-822.528)">
                    <path d="M3609.03,1190.34C3609.03,1189.7 3608.51,1189.17 3607.87,1189.17L3605.54,1189.17C3604.89,1189.17 3604.37,1189.7 3604.37,1190.34L3604.37,1192.67C3604.37,1193.31 3604.89,1193.83 3605.54,1193.83L3607.87,1193.83C3608.51,1193.83 3609.03,1193.31 3609.03,1192.67L3609.03,1190.34Z" style="fill:rgb(155,166,178);"/>
                </g>
                <g transform="matrix(0.932107,0,0,0.932107,-244.557,-822.528)">
                    <path d="M3609.03,1190.34C3609.03,1189.7 3608.51,1189.17 3607.87,1189.17L3605.54,1189.17C3604.89,1189.17 3604.37,1189.7 3604.37,1190.34L3604.37,1192.67C3604.37,1193.31 3604.89,1193.83 3605.54,1193.83L3607.87,1193.83C3608.51,1193.83 3609.03,1193.31 3609.03,1192.67L3609.03,1190.34Z" style="fill:rgb(155,166,178);"/>
                </g>
                <g transform="matrix(0.932107,0,0,0.932107,-250.689,-816.656)">
                    <path d="M3609.03,1190.34C3609.03,1189.7 3608.51,1189.17 3607.87,1189.17L3605.54,1189.17C3604.89,1189.17 3604.37,1189.7 3604.37,1190.34L3604.37,1192.67C3604.37,1193.31 3604.89,1193.83 3605.54,1193.83L3607.87,1193.83C3608.51,1193.83 3609.03,1193.31 3609.03,1192.67L3609.03,1190.34Z" style="fill:rgb(155,166,178);"/>
                </g>
                <g transform="matrix(0.932107,0,0,0.932107,-244.557,-816.656)">
                    <path d="M3609.03,1190.34C3609.03,1189.7 3608.51,1189.17 3607.87,1189.17L3605.54,1189.17C3604.89,1189.17 3604.37,1189.7 3604.37,1190.34L3604.37,1192.67C3604.37,1193.31 3604.89,1193.83 3605.54,1193.83L3607.87,1193.83C3608.51,1193.83 3609.03,1193.31 3609.03,1192.67L3609.03,1190.34Z" style="fill:rgb(155,166,178);"/>
                </g>
                <g transform="matrix(0.932107,0,0,0.932107,-250.689,-810.412)">
                    <path d="M3609.03,1190.34C3609.03,1189.7 3608.51,1189.17 3607.87,1189.17L3605.54,1189.17C3604.89,1189.17 3604.37,1189.7 3604.37,1190.34L3604.37,1192.67C3604.37,1193.31 3604.89,1193.83 3605.54,1193.83L3607.87,1193.83C3608.51,1193.83 3609.03,1193.31 3609.03,1192.67L3609.03,1190.34Z" style="fill:rgb(155,166,178);"/>
                </g>
                <g transform="matrix(0.932107,0,0,0.932107,-244.557,-810.412)">
                    <path d="M3609.03,1190.34C3609.03,1189.7 3608.51,1189.17 3607.87,1189.17L3605.54,1189.17C3604.89,1189.17 3604.37,1189.7 3604.37,1190.34L3604.37,1192.67C3604.37,1193.31 3604.89,1193.83 3605.54,1193.83L3607.87,1193.83C3608.51,1193.83 3609.03,1193.31 3609.03,1192.67L3609.03,1190.34Z" style="fill:rgb(155,166,178);"/>
                </g>
            </g>
            <g transform="matrix(0.709719,0,0,0.709719,410.553,-635.807)">
                <g transform="matrix(1,0,0,1,0.975429,0.808402)">
                    <path d="M3778.41,1293.41C3778.41,1292.49 3778.78,1291.6 3779.43,1290.95C3780.08,1290.3 3780.96,1289.94 3781.88,1289.94C3785.94,1289.94 3792.11,1289.94 3792.11,1289.94C3793.61,1289.94 3794.82,1291.15 3794.82,1292.65C3794.82,1302.89 3794.82,1355.61 3794.82,1355.61L3733.12,1355.61C3733.12,1355.61 3733.12,1319.89 3733.12,1309.65C3733.12,1308.15 3734.33,1306.94 3735.83,1306.94C3735.83,1306.94 3743.16,1306.94 3747.56,1306.94C3748.42,1306.94 3749.24,1307.28 3749.84,1307.88C3750.45,1308.49 3750.79,1309.31 3750.79,1310.17C3750.79,1317.04 3750.79,1332.49 3750.79,1332.49C3750.79,1334.57 3752.48,1336.27 3754.57,1336.27L3774.63,1336.27C3776.72,1336.27 3778.41,1334.57 3778.41,1332.49L3778.41,1293.41Z" style="fill:rgb(104,134,168);"/>
                </g>
                <g transform="matrix(1.17931,0,0,1.17931,-514.545,-92.1706)">
                    <path d="M3609.03,1190.34C3609.03,1189.7 3608.51,1189.17 3607.87,1189.17L3605.54,1189.17C3604.89,1189.17 3604.37,1189.7 3604.37,1190.34L3604.37,1192.67C3604.37,1193.31 3604.89,1193.83 3605.54,1193.83L3607.87,1193.83C3608.51,1193.83 3609.03,1193.31 3609.03,1192.67L3609.03,1190.34Z" style="fill:rgb(174,186,198);"/>
                </g>
                <g transform="matrix(1.17931,0,0,1.17931,-514.545,-84.8598)">
                    <path d="M3609.03,1190.34C3609.03,1189.7 3608.51,1189.17 3607.87,1189.17L3605.54,1189.17C3604.89,1189.17 3604.37,1189.7 3604.37,1190.34L3604.37,1192.67C3604.37,1193.31 3604.89,1193.83 3605.54,1193.83L3607.87,1193.83C3608.51,1193.83 3609.03,1193.31 3609.03,1192.67L3609.03,1190.34Z" style="fill:rgb(174,186,198);"/>
                </g>
                <g transform="matrix(1.17931,0,0,1.17931,-514.545,-77.2342)">
                    <path d="M3609.03,1190.34C3609.03,1189.7 3608.51,1189.17 3607.87,1189.17L3605.54,1189.17C3604.89,1189.17 3604.37,1189.7 3604.37,1190.34L3604.37,1192.67C3604.37,1193.31 3604.89,1193.83 3605.54,1193.83L3607.87,1193.83C3608.51,1193.83 3609.03,1193.31 3609.03,1192.67L3609.03,1190.34Z" style="fill:rgb(174,186,198);"/>
                </g>
                <g transform="matrix(1.17931,0,0,1.17931,-514.545,-69.7394)">
                    <path d="M3609.03,1190.34C3609.03,1189.7 3608.51,1189.17 3607.87,1189.17L3605.54,1189.17C3604.89,1189.17 3604.37,1189.7 3604.37,1190.34L3604.37,1192.67C3604.37,1193.31 3604.89,1193.83 3605.54,1193.83L3607.87,1193.83C3608.51,1193.83 3609.03,1193.31 3609.03,1192.67L3609.03,1190.34Z" style="fill:rgb(174,186,198);"/>
                </g>
                <g>
                    <g transform="matrix(1.17931,0,0,1.17931,-514.545,-62.3096)">
                        <path d="M3609.03,1190.34C3609.03,1189.7 3608.51,1189.17 3607.87,1189.17L3605.54,1189.17C3604.89,1189.17 3604.37,1189.7 3604.37,1190.34L3604.37,1192.67C3604.37,1193.31 3604.89,1193.83 3605.54,1193.83L3607.87,1193.83C3608.51,1193.83 3609.03,1193.31 3609.03,1192.67L3609.03,1190.34Z" style="fill:rgb(174,186,198);"/>
                    </g>
                    <g transform="matrix(1.17931,0,0,1.17931,-514.545,-54.4096)">
                        <path d="M3609.03,1190.34C3609.03,1189.7 3608.51,1189.17 3607.87,1189.17L3605.54,1189.17C3604.89,1189.17 3604.37,1189.7 3604.37,1190.34L3604.37,1192.67C3604.37,1193.31 3604.89,1193.83 3605.54,1193.83L3607.87,1193.83C3608.51,1193.83 3609.03,1193.31 3609.03,1192.67L3609.03,1190.34Z" style="fill:rgb(174,186,198);"/>
                    </g>
                </g>
                <g transform="matrix(1,0,0,1,-1.65429,0)">
                    <g transform="matrix(1.17931,0,0,1.17931,-497.823,-62.3096)">
                        <path d="M3609.03,1190.34C3609.03,1189.7 3608.51,1189.17 3607.87,1189.17L3605.54,1189.17C3604.89,1189.17 3604.37,1189.7 3604.37,1190.34L3604.37,1192.67C3604.37,1193.31 3604.89,1193.83 3605.54,1193.83L3607.87,1193.83C3608.51,1193.83 3609.03,1193.31 3609.03,1192.67L3609.03,1190.34Z" style="fill:rgb(174,186,198);"/>
                    </g>
                    <g transform="matrix(1.17931,0,0,1.17931,-497.823,-54.4096)">
                        <path d="M3609.03,1190.34C3609.03,1189.7 3608.51,1189.17 3607.87,1189.17L3605.54,1189.17C3604.89,1189.17 3604.37,1189.7 3604.37,1190.34L3604.37,1192.67C3604.37,1193.31 3604.89,1193.83 3605.54,1193.83L3607.87,1193.83C3608.51,1193.83 3609.03,1193.31 3609.03,1192.67L3609.03,1190.34Z" style="fill:rgb(174,186,198);"/>
                    </g>
                </g>
                <g transform="matrix(1,0,0,1,-2.7286,0)">
                    <g transform="matrix(1.17931,0,0,1.17931,-481.68,-62.3096)">
                        <path d="M3609.03,1190.34C3609.03,1189.7 3608.51,1189.17 3607.87,1189.17L3605.54,1189.17C3604.89,1189.17 3604.37,1189.7 3604.37,1190.34L3604.37,1192.67C3604.37,1193.31 3604.89,1193.83 3605.54,1193.83L3607.87,1193.83C3608.51,1193.83 3609.03,1193.31 3609.03,1192.67L3609.03,1190.34Z" style="fill:rgb(174,186,198);"/>
                    </g>
                    <g transform="matrix(1.17931,0,0,1.17931,-481.68,-54.4096)">
                        <path d="M3609.03,1190.34C3609.03,1189.7 3608.51,1189.17 3607.87,1189.17L3605.54,1189.17C3604.89,1189.17 3604.37,1189.7 3604.37,1190.34L3604.37,1192.67C3604.37,1193.31 3604.89,1193.83 3605.54,1193.83L3607.87,1193.83C3608.51,1193.83 3609.03,1193.31 3609.03,1192.67L3609.03,1190.34Z" style="fill:rgb(174,186,198);"/>
                    </g>
                </g>
                <g transform="matrix(1.17931,0,0,1.17931,-507.011,-92.1706)">
                    <path d="M3609.03,1190.34C3609.03,1189.7 3608.51,1189.17 3607.87,1189.17L3605.54,1189.17C3604.89,1189.17 3604.37,1189.7 3604.37,1190.34L3604.37,1192.67C3604.37,1193.31 3604.89,1193.83 3605.54,1193.83L3607.87,1193.83C3608.51,1193.83 3609.03,1193.31 3609.03,1192.67L3609.03,1190.34Z" style="fill:rgb(174,186,198);"/>
                </g>
                <g transform="matrix(1.17931,0,0,1.17931,-507.011,-84.8598)">
                    <path d="M3609.03,1190.34C3609.03,1189.7 3608.51,1189.17 3607.87,1189.17L3605.54,1189.17C3604.89,1189.17 3604.37,1189.7 3604.37,1190.34L3604.37,1192.67C3604.37,1193.31 3604.89,1193.83 3605.54,1193.83L3607.87,1193.83C3608.51,1193.83 3609.03,1193.31 3609.03,1192.67L3609.03,1190.34Z" style="fill:rgb(174,186,198);"/>
                </g>
                <g transform="matrix(1.17931,0,0,1.17931,-507.011,-77.2342)">
                    <path d="M3609.03,1190.34C3609.03,1189.7 3608.51,1189.17 3607.87,1189.17L3605.54,1189.17C3604.89,1189.17 3604.37,1189.7 3604.37,1190.34L3604.37,1192.67C3604.37,1193.31 3604.89,1193.83 3605.54,1193.83L3607.87,1193.83C3608.51,1193.83 3609.03,1193.31 3609.03,1192.67L3609.03,1190.34Z" style="fill:rgb(174,186,198);"/>
                </g>
                <g transform="matrix(1.17931,0,0,1.17931,-507.011,-69.7394)">
                    <path d="M3609.03,1190.34C3609.03,1189.7 3608.51,1189.17 3607.87,1189.17L3605.54,1189.17C3604.89,1189.17 3604.37,1189.7 3604.37,1190.34L3604.37,1192.67C3604.37,1193.31 3604.89,1193.83 3605.54,1193.83L3607.87,1193.83C3608.51,1193.83 3609.03,1193.31 3609.03,1192.67L3609.03,1190.34Z" style="fill:rgb(174,186,198);"/>
                </g>
                <g transform="matrix(1,0,0,1,-0.19887,0)">
                    <g transform="matrix(1.17931,0,0,1.17931,-506.812,-62.3096)">
                        <path d="M3609.03,1190.34C3609.03,1189.7 3608.51,1189.17 3607.87,1189.17L3605.54,1189.17C3604.89,1189.17 3604.37,1189.7 3604.37,1190.34L3604.37,1192.67C3604.37,1193.31 3604.89,1193.83 3605.54,1193.83L3607.87,1193.83C3608.51,1193.83 3609.03,1193.31 3609.03,1192.67L3609.03,1190.34Z" style="fill:rgb(174,186,198);"/>
                    </g>
                    <g transform="matrix(1.17931,0,0,1.17931,-506.812,-54.4096)">
                        <path d="M3609.03,1190.34C3609.03,1189.7 3608.51,1189.17 3607.87,1189.17L3605.54,1189.17C3604.89,1189.17 3604.37,1189.7 3604.37,1190.34L3604.37,1192.67C3604.37,1193.31 3604.89,1193.83 3605.54,1193.83L3607.87,1193.83C3608.51,1193.83 3609.03,1193.31 3609.03,1192.67L3609.03,1190.34Z" style="fill:rgb(174,186,198);"/>
                    </g>
                </g>
                <g transform="matrix(1,0,0,1,-1.85316,0)">
                    <g transform="matrix(1.17931,0,0,1.17931,-490.09,-62.3096)">
                        <path d="M3609.03,1190.34C3609.03,1189.7 3608.51,1189.17 3607.87,1189.17L3605.54,1189.17C3604.89,1189.17 3604.37,1189.7 3604.37,1190.34L3604.37,1192.67C3604.37,1193.31 3604.89,1193.83 3605.54,1193.83L3607.87,1193.83C3608.51,1193.83 3609.03,1193.31 3609.03,1192.67L3609.03,1190.34Z" style="fill:rgb(174,186,198);"/>
                    </g>
                    <g transform="matrix(1.17931,0,0,1.17931,-490.09,-54.4096)">
                        <path d="M3609.03,1190.34C3609.03,1189.7 3608.51,1189.17 3607.87,1189.17L3605.54,1189.17C3604.89,1189.17 3604.37,1189.7 3604.37,1190.34L3604.37,1192.67C3604.37,1193.31 3604.89,1193.83 3605.54,1193.83L3607.87,1193.83C3608.51,1193.83 3609.03,1193.31 3609.03,1192.67L3609.03,1190.34Z" style="fill:rgb(174,186,198);"/>
                    </g>
                </g>
                <g transform="matrix(1,0,0,1,-2.92747,0)">
                    <g transform="matrix(1.17931,0,0,1.17931,-473.947,-62.3096)">
                        <path d="M3609.03,1190.34C3609.03,1189.7 3608.51,1189.17 3607.87,1189.17L3605.54,1189.17C3604.89,1189.17 3604.37,1189.7 3604.37,1190.34L3604.37,1192.67C3604.37,1193.31 3604.89,1193.83 3605.54,1193.83L3607.87,1193.83C3608.51,1193.83 3609.03,1193.31 3609.03,1192.67L3609.03,1190.34Z" style="fill:rgb(174,186,198);"/>
                    </g>
                    <g transform="matrix(1.17931,0,0,1.17931,-473.947,-54.4096)">
                        <path d="M3609.03,1190.34C3609.03,1189.7 3608.51,1189.17 3607.87,1189.17L3605.54,1189.17C3604.89,1189.17 3604.37,1189.7 3604.37,1190.34L3604.37,1192.67C3604.37,1193.31 3604.89,1193.83 3605.54,1193.83L3607.87,1193.83C3608.51,1193.83 3609.03,1193.31 3609.03,1192.67L3609.03,1190.34Z" style="fill:rgb(174,186,198);"/>
                    </g>
                </g>
                <g transform="matrix(1,0,0,1,0.927952,0)">
                    <g transform="matrix(1.17931,0,0,1.17931,-462.735,-62.3096)">
                        <path d="M3609.03,1190.34C3609.03,1189.7 3608.51,1189.17 3607.87,1189.17L3605.54,1189.17C3604.89,1189.17 3604.37,1189.7 3604.37,1190.34L3604.37,1192.67C3604.37,1193.31 3604.89,1193.83 3605.54,1193.83L3607.87,1193.83C3608.51,1193.83 3609.03,1193.31 3609.03,1192.67L3609.03,1190.34Z" style="fill:rgb(174,186,198);"/>
                    </g>
                    <g transform="matrix(1.17931,0,0,1.17931,-462.735,-54.4096)">
                        <path d="M3609.03,1190.34C3609.03,1189.7 3608.51,1189.17 3607.87,1189.17L3605.54,1189.17C3604.89,1189.17 3604.37,1189.7 3604.37,1190.34L3604.37,1192.67C3604.37,1193.31 3604.89,1193.83 3605.54,1193.83L3607.87,1193.83C3608.51,1193.83 3609.03,1193.31 3609.03,1192.67L3609.03,1190.34Z" style="fill:rgb(174,186,198);"/>
                    </g>
                </g>
                <g transform="matrix(1,0,0,1,0,1.03511)">
                    <g transform="matrix(1.17931,0,0,1.17931,-461.807,-78.7421)">
                        <path d="M3609.03,1190.34C3609.03,1189.7 3608.51,1189.17 3607.87,1189.17L3605.54,1189.17C3604.89,1189.17 3604.37,1189.7 3604.37,1190.34L3604.37,1192.67C3604.37,1193.31 3604.89,1193.83 3605.54,1193.83L3607.87,1193.83C3608.51,1193.83 3609.03,1193.31 3609.03,1192.67L3609.03,1190.34Z" style="fill:rgb(174,186,198);"/>
                    </g>
                    <g transform="matrix(1.17931,0,0,1.17931,-469.341,-78.7421)">
                        <path d="M3609.03,1190.34C3609.03,1189.7 3608.51,1189.17 3607.87,1189.17L3605.54,1189.17C3604.89,1189.17 3604.37,1189.7 3604.37,1190.34L3604.37,1192.67C3604.37,1193.31 3604.89,1193.83 3605.54,1193.83L3607.87,1193.83C3608.51,1193.83 3609.03,1193.31 3609.03,1192.67L3609.03,1190.34Z" style="fill:rgb(174,186,198);"/>
                    </g>
                </g>
                <g>
                    <g transform="matrix(1.17931,0,0,1.17931,-461.807,-69.7394)">
                        <path d="M3609.03,1190.34C3609.03,1189.7 3608.51,1189.17 3607.87,1189.17L3605.54,1189.17C3604.89,1189.17 3604.37,1189.7 3604.37,1190.34L3604.37,1192.67C3604.37,1193.31 3604.89,1193.83 3605.54,1193.83L3607.87,1193.83C3608.51,1193.83 3609.03,1193.31 3609.03,1192.67L3609.03,1190.34Z" style="fill:rgb(174,186,198);"/>
                    </g>
                    <g transform="matrix(1.17931,0,0,1.17931,-469.341,-69.7394)">
                        <path d="M3609.03,1190.34C3609.03,1189.7 3608.51,1189.17 3607.87,1189.17L3605.54,1189.17C3604.89,1189.17 3604.37,1189.7 3604.37,1190.34L3604.37,1192.67C3604.37,1193.31 3604.89,1193.83 3605.54,1193.83L3607.87,1193.83C3608.51,1193.83 3609.03,1193.31 3609.03,1192.67L3609.03,1190.34Z" style="fill:rgb(174,186,198);"/>
                    </g>
                </g>
                <g transform="matrix(1,0,0,1,0,0.0825772)">
                    <g transform="matrix(1.17931,0,0,1.17931,-461.807,-93.7246)">
                        <path d="M3609.03,1190.34C3609.03,1189.7 3608.51,1189.17 3607.87,1189.17L3605.54,1189.17C3604.89,1189.17 3604.37,1189.7 3604.37,1190.34L3604.37,1192.67C3604.37,1193.31 3604.89,1193.83 3605.54,1193.83L3607.87,1193.83C3608.51,1193.83 3609.03,1193.31 3609.03,1192.67L3609.03,1190.34Z" style="fill:rgb(174,186,198);"/>
                    </g>
                    <g transform="matrix(1.17931,0,0,1.17931,-469.341,-93.7246)">
                        <path d="M3609.03,1190.34C3609.03,1189.7 3608.51,1189.17 3607.87,1189.17L3605.54,1189.17C3604.89,1189.17 3604.37,1189.7 3604.37,1190.34L3604.37,1192.67C3604.37,1193.31 3604.89,1193.83 3605.54,1193.83L3607.87,1193.83C3608.51,1193.83 3609.03,1193.31 3609.03,1192.67L3609.03,1190.34Z" style="fill:rgb(174,186,198);"/>
                    </g>
                </g>
                <g transform="matrix(1,0,0,1,0,0.15013)">
                    <g transform="matrix(1.17931,0,0,1.17931,-461.807,-85.8246)">
                        <path d="M3609.03,1190.34C3609.03,1189.7 3608.51,1189.17 3607.87,1189.17L3605.54,1189.17C3604.89,1189.17 3604.37,1189.7 3604.37,1190.34L3604.37,1192.67C3604.37,1193.31 3604.89,1193.83 3605.54,1193.83L3607.87,1193.83C3608.51,1193.83 3609.03,1193.31 3609.03,1192.67L3609.03,1190.34Z" style="fill:rgb(174,186,198);"/>
                    </g>
                    <g transform="matrix(1.17931,0,0,1.17931,-469.341,-85.8246)">
                        <path d="M3609.03,1190.34C3609.03,1189.7 3608.51,1189.17 3607.87,1189.17L3605.54,1189.17C3604.89,1189.17 3604.37,1189.7 3604.37,1190.34L3604.37,1192.67C3604.37,1193.31 3604.89,1193.83 3605.54,1193.83L3607.87,1193.83C3608.51,1193.83 3609.03,1193.31 3609.03,1192.67L3609.03,1190.34Z" style="fill:rgb(174,186,198);"/>
                    </g>
                </g>
                <g>
                    <g transform="matrix(1.17931,0,0,1.17931,-461.807,-109.577)">
                        <path d="M3609.03,1190.34C3609.03,1189.7 3608.51,1189.17 3607.87,1189.17L3605.54,1189.17C3604.89,1189.17 3604.37,1189.7 3604.37,1190.34L3604.37,1192.67C3604.37,1193.31 3604.89,1193.83 3605.54,1193.83L3607.87,1193.83C3608.51,1193.83 3609.03,1193.31 3609.03,1192.67L3609.03,1190.34Z" style="fill:rgb(174,186,198);"/>
                    </g>
                    <g transform="matrix(1.17931,0,0,1.17931,-469.341,-109.577)">
                        <path d="M3609.03,1190.34C3609.03,1189.7 3608.51,1189.17 3607.87,1189.17L3605.54,1189.17C3604.89,1189.17 3604.37,1189.7 3604.37,1190.34L3604.37,1192.67C3604.37,1193.31 3604.89,1193.83 3605.54,1193.83L3607.87,1193.83C3608.51,1193.83 3609.03,1193.31 3609.03,1192.67L3609.03,1190.34Z" style="fill:rgb(174,186,198);"/>
                    </g>
                </g>
                <g transform="matrix(1,0,0,1,0,0.0675528)">
                    <g transform="matrix(1.17931,0,0,1.17931,-461.807,-101.677)">
                        <path d="M3609.03,1190.34C3609.03,1189.7 3608.51,1189.17 3607.87,1189.17L3605.54,1189.17C3604.89,1189.17 3604.37,1189.7 3604.37,1190.34L3604.37,1192.67C3604.37,1193.31 3604.89,1193.83 3605.54,1193.83L3607.87,1193.83C3608.51,1193.83 3609.03,1193.31 3609.03,1192.67L3609.03,1190.34Z" style="fill:rgb(174,186,198);"/>
                    </g>
                    <g transform="matrix(1.17931,0,0,1.17931,-469.341,-101.677)">
                        <path d="M3609.03,1190.34C3609.03,1189.7 3608.51,1189.17 3607.87,1189.17L3605.54,1189.17C3604.89,1189.17 3604.37,1189.7 3604.37,1190.34L3604.37,1192.67C3604.37,1193.31 3604.89,1193.83 3605.54,1193.83L3607.87,1193.83C3608.51,1193.83 3609.03,1193.31 3609.03,1192.67L3609.03,1190.34Z" style="fill:rgb(174,186,198);"/>
                    </g>
                </g>
                <g transform="matrix(1,0,0,1,0.25684,0)">
                    <g transform="matrix(1.17931,0,0,1.17931,-469.598,-62.3096)">
                        <path d="M3609.03,1190.34C3609.03,1189.7 3608.51,1189.17 3607.87,1189.17L3605.54,1189.17C3604.89,1189.17 3604.37,1189.7 3604.37,1190.34L3604.37,1192.67C3604.37,1193.31 3604.89,1193.83 3605.54,1193.83L3607.87,1193.83C3608.51,1193.83 3609.03,1193.31 3609.03,1192.67L3609.03,1190.34Z" style="fill:rgb(174,186,198);"/>
                    </g>
                    <g transform="matrix(1.17931,0,0,1.17931,-469.598,-54.4096)">
                        <path d="M3609.03,1190.34C3609.03,1189.7 3608.51,1189.17 3607.87,1189.17L3605.54,1189.17C3604.89,1189.17 3604.37,1189.7 3604.37,1190.34L3604.37,1192.67C3604.37,1193.31 3604.89,1193.83 3605.54,1193.83L3607.87,1193.83C3608.51,1193.83 3609.03,1193.31 3609.03,1192.67L3609.03,1190.34Z" style="fill:rgb(174,186,198);"/>
                    </g>
                </g>
            </g>
            <g transform="matrix(1.05222,0,0,1.05222,-155.515,-10.1273)">
                <g transform="matrix(1,0,0,1,-558,-905.93)">
                    <path d="M3619.21,1188.28C3619.21,1186.85 3618.05,1185.7 3616.63,1185.7C3613.35,1185.7 3607.71,1185.7 3604.43,1185.7C3603,1185.7 3601.85,1186.85 3601.85,1188.28C3601.85,1198.34 3601.85,1234.37 3601.85,1234.37L3619.21,1234.37L3619.21,1188.28Z" style="fill:rgb(102,126,153);"/>
                </g>
                <g transform="matrix(1.17931,0,0,1.17931,-1204.79,-1120.15)">
                    <path d="M3609.03,1190.34C3609.03,1189.7 3608.51,1189.17 3607.87,1189.17L3605.54,1189.17C3604.89,1189.17 3604.37,1189.7 3604.37,1190.34L3604.37,1192.67C3604.37,1193.31 3604.89,1193.83 3605.54,1193.83L3607.87,1193.83C3608.51,1193.83 3609.03,1193.31 3609.03,1192.67L3609.03,1190.34Z" style="fill:rgb(174,186,198);"/>
                </g>
                <g transform="matrix(1.17931,0,0,1.17931,-1204.79,-1112.84)">
                    <path d="M3609.03,1190.34C3609.03,1189.7 3608.51,1189.17 3607.87,1189.17L3605.54,1189.17C3604.89,1189.17 3604.37,1189.7 3604.37,1190.34L3604.37,1192.67C3604.37,1193.31 3604.89,1193.83 3605.54,1193.83L3607.87,1193.83C3608.51,1193.83 3609.03,1193.31 3609.03,1192.67L3609.03,1190.34Z" style="fill:rgb(174,186,198);"/>
                </g>
                <g transform="matrix(1.17931,0,0,1.17931,-1204.79,-1105.21)">
                    <path d="M3609.03,1190.34C3609.03,1189.7 3608.51,1189.17 3607.87,1189.17L3605.54,1189.17C3604.89,1189.17 3604.37,1189.7 3604.37,1190.34L3604.37,1192.67C3604.37,1193.31 3604.89,1193.83 3605.54,1193.83L3607.87,1193.83C3608.51,1193.83 3609.03,1193.31 3609.03,1192.67L3609.03,1190.34Z" style="fill:rgb(174,186,198);"/>
                </g>
                <g transform="matrix(1.17931,0,0,1.17931,-1204.79,-1097.72)">
                    <path d="M3609.03,1190.34C3609.03,1189.7 3608.51,1189.17 3607.87,1189.17L3605.54,1189.17C3604.89,1189.17 3604.37,1189.7 3604.37,1190.34L3604.37,1192.67C3604.37,1193.31 3604.89,1193.83 3605.54,1193.83L3607.87,1193.83C3608.51,1193.83 3609.03,1193.31 3609.03,1192.67L3609.03,1190.34Z" style="fill:rgb(174,186,198);"/>
                </g>
                <g transform="matrix(1.17931,0,0,1.17931,-1204.79,-1090.29)">
                    <path d="M3609.03,1190.34C3609.03,1189.7 3608.51,1189.17 3607.87,1189.17L3605.54,1189.17C3604.89,1189.17 3604.37,1189.7 3604.37,1190.34L3604.37,1192.67C3604.37,1193.31 3604.89,1193.83 3605.54,1193.83L3607.87,1193.83C3608.51,1193.83 3609.03,1193.31 3609.03,1192.67L3609.03,1190.34Z" style="fill:rgb(174,186,198);"/>
                </g>
                <g transform="matrix(1.17931,0,0,1.17931,-1204.79,-1082.39)">
                    <path d="M3609.03,1190.34C3609.03,1189.7 3608.51,1189.17 3607.87,1189.17L3605.54,1189.17C3604.89,1189.17 3604.37,1189.7 3604.37,1190.34L3604.37,1192.67C3604.37,1193.31 3604.89,1193.83 3605.54,1193.83L3607.87,1193.83C3608.51,1193.83 3609.03,1193.31 3609.03,1192.67L3609.03,1190.34Z" style="fill:rgb(174,186,198);"/>
                </g>
                <g transform="matrix(1.17931,0,0,1.17931,-1197.06,-1120.15)">
                    <path d="M3609.03,1190.34C3609.03,1189.7 3608.51,1189.17 3607.87,1189.17L3605.54,1189.17C3604.89,1189.17 3604.37,1189.7 3604.37,1190.34L3604.37,1192.67C3604.37,1193.31 3604.89,1193.83 3605.54,1193.83L3607.87,1193.83C3608.51,1193.83 3609.03,1193.31 3609.03,1192.67L3609.03,1190.34Z" style="fill:rgb(174,186,198);"/>
                </g>
                <g transform="matrix(1.17931,0,0,1.17931,-1197.06,-1112.84)">
                    <path d="M3609.03,1190.34C3609.03,1189.7 3608.51,1189.17 3607.87,1189.17L3605.54,1189.17C3604.89,1189.17 3604.37,1189.7 3604.37,1190.34L3604.37,1192.67C3604.37,1193.31 3604.89,1193.83 3605.54,1193.83L3607.87,1193.83C3608.51,1193.83 3609.03,1193.31 3609.03,1192.67L3609.03,1190.34Z" style="fill:rgb(174,186,198);"/>
                </g>
                <g transform="matrix(1.17931,0,0,1.17931,-1197.06,-1105.21)">
                    <path d="M3609.03,1190.34C3609.03,1189.7 3608.51,1189.17 3607.87,1189.17L3605.54,1189.17C3604.89,1189.17 3604.37,1189.7 3604.37,1190.34L3604.37,1192.67C3604.37,1193.31 3604.89,1193.83 3605.54,1193.83L3607.87,1193.83C3608.51,1193.83 3609.03,1193.31 3609.03,1192.67L3609.03,1190.34Z" style="fill:rgb(174,186,198);"/>
                </g>
                <g transform="matrix(1.17931,0,0,1.17931,-1197.06,-1097.72)">
                    <path d="M3609.03,1190.34C3609.03,1189.7 3608.51,1189.17 3607.87,1189.17L3605.54,1189.17C3604.89,1189.17 3604.37,1189.7 3604.37,1190.34L3604.37,1192.67C3604.37,1193.31 3604.89,1193.83 3605.54,1193.83L3607.87,1193.83C3608.51,1193.83 3609.03,1193.31 3609.03,1192.67L3609.03,1190.34Z" style="fill:rgb(174,186,198);"/>
                </g>
                <g transform="matrix(1.17931,0,0,1.17931,-1197.06,-1090.29)">
                    <path d="M3609.03,1190.34C3609.03,1189.7 3608.51,1189.17 3607.87,1189.17L3605.54,1189.17C3604.89,1189.17 3604.37,1189.7 3604.37,1190.34L3604.37,1192.67C3604.37,1193.31 3604.89,1193.83 3605.54,1193.83L3607.87,1193.83C3608.51,1193.83 3609.03,1193.31 3609.03,1192.67L3609.03,1190.34Z" style="fill:rgb(174,186,198);"/>
                </g>
                <g transform="matrix(1.17931,0,0,1.17931,-1197.06,-1082.39)">
                    <path d="M3609.03,1190.34C3609.03,1189.7 3608.51,1189.17 3607.87,1189.17L3605.54,1189.17C3604.89,1189.17 3604.37,1189.7 3604.37,1190.34L3604.37,1192.67C3604.37,1193.31 3604.89,1193.83 3605.54,1193.83L3607.87,1193.83C3608.51,1193.83 3609.03,1193.31 3609.03,1192.67L3609.03,1190.34Z" style="fill:rgb(174,186,198);"/>
                </g>
            </g>
            <g transform="matrix(1,0,0,1,-673.487,-1024.41)">
                <g transform="matrix(0.814045,0,0,0.689719,821.454,506.136)">
                    <path d="M3619.21,1189.63C3619.21,1188.59 3618.86,1187.59 3618.23,1186.85C3617.61,1186.11 3616.76,1185.7 3615.87,1185.7C3612.8,1185.7 3608.26,1185.7 3605.18,1185.7C3604.3,1185.7 3603.45,1186.11 3602.82,1186.85C3602.2,1187.59 3601.85,1188.59 3601.85,1189.63C3601.85,1201.22 3601.85,1234.37 3601.85,1234.37L3619.21,1234.37C3619.21,1234.37 3619.21,1201.22 3619.21,1189.63Z" style="fill:rgb(102,126,153);"/>
                </g>
                <g transform="matrix(0.480222,0,0,0.106922,2026.73,1192.13)">
                    <path d="M3619.21,1211.09C3619.21,1204.36 3618.61,1197.9 3617.55,1193.13C3616.49,1188.37 3615.05,1185.7 3613.55,1185.7C3611.61,1185.7 3609.44,1185.7 3607.5,1185.7C3606,1185.7 3604.56,1188.37 3603.5,1193.13C3602.44,1197.9 3601.85,1204.36 3601.85,1211.09C3601.85,1222.9 3601.85,1234.37 3601.85,1234.37L3619.21,1234.37C3619.21,1234.37 3619.21,1222.9 3619.21,1211.09Z" style="fill:rgb(102,126,153);"/>
                </g>
                <g transform="matrix(0.21157,0,0,0.123484,2996.71,1166.99)">
                    <path d="M3619.21,1200.57C3619.21,1192.36 3615.32,1185.7 3610.53,1185.7C3610.53,1185.7 3610.53,1185.7 3610.52,1185.7C3605.73,1185.7 3601.85,1192.36 3601.85,1200.57C3601.85,1214.88 3601.85,1234.37 3601.85,1234.37L3619.21,1234.37L3619.21,1200.57Z" style="fill:rgb(102,126,153);"/>
                </g>
                <g>
                    <g transform="matrix(0.772545,0,0,0.772545,971.291,407.573)">
                        <path d="M3609.03,1190.34C3609.03,1189.7 3608.51,1189.17 3607.87,1189.17L3605.54,1189.17C3604.89,1189.17 3604.37,1189.7 3604.37,1190.34L3604.37,1192.67C3604.37,1193.31 3604.89,1193.83 3605.54,1193.83L3607.87,1193.83C3608.51,1193.83 3609.03,1193.31 3609.03,1192.67L3609.03,1190.34Z" style="fill:rgb(174,186,198);"/>
                    </g>
                    <g transform="matrix(0.772545,0,0,0.772545,977.697,407.573)">
                        <path d="M3609.03,1190.34C3609.03,1189.7 3608.51,1189.17 3607.87,1189.17L3605.54,1189.17C3604.89,1189.17 3604.37,1189.7 3604.37,1190.34L3604.37,1192.67C3604.37,1193.31 3604.89,1193.83 3605.54,1193.83L3607.87,1193.83C3608.51,1193.83 3609.03,1193.31 3609.03,1192.67L3609.03,1190.34Z" style="fill:rgb(174,186,198);"/>
                    </g>
                </g>
                <g transform="matrix(1,0,0,1,0,5.08827)">
                    <g transform="matrix(0.772545,0,0,0.772545,971.291,407.573)">
                        <path d="M3609.03,1190.34C3609.03,1189.7 3608.51,1189.17 3607.87,1189.17L3605.54,1189.17C3604.89,1189.17 3604.37,1189.7 3604.37,1190.34L3604.37,1192.67C3604.37,1193.31 3604.89,1193.83 3605.54,1193.83L3607.87,1193.83C3608.51,1193.83 3609.03,1193.31 3609.03,1192.67L3609.03,1190.34Z" style="fill:rgb(174,186,198);"/>
                    </g>
                    <g transform="matrix(0.772545,0,0,0.772545,977.697,407.573)">
                        <path d="M3609.03,1190.34C3609.03,1189.7 3608.51,1189.17 3607.87,1189.17L3605.54,1189.17C3604.89,1189.17 3604.37,1189.7 3604.37,1190.34L3604.37,1192.67C3604.37,1193.31 3604.89,1193.83 3605.54,1193.83L3607.87,1193.83C3608.51,1193.83 3609.03,1193.31 3609.03,1192.67L3609.03,1190.34Z" style="fill:rgb(174,186,198);"/>
                    </g>
                </g>
                <g transform="matrix(1,0,0,1,0,10.1765)">
                    <g transform="matrix(0.772545,0,0,0.772545,971.291,407.573)">
                        <path d="M3609.03,1190.34C3609.03,1189.7 3608.51,1189.17 3607.87,1189.17L3605.54,1189.17C3604.89,1189.17 3604.37,1189.7 3604.37,1190.34L3604.37,1192.67C3604.37,1193.31 3604.89,1193.83 3605.54,1193.83L3607.87,1193.83C3608.51,1193.83 3609.03,1193.31 3609.03,1192.67L3609.03,1190.34Z" style="fill:rgb(174,186,198);"/>
                    </g>
                    <g transform="matrix(0.772545,0,0,0.772545,977.697,407.573)">
                        <path d="M3609.03,1190.34C3609.03,1189.7 3608.51,1189.17 3607.87,1189.17L3605.54,1189.17C3604.89,1189.17 3604.37,1189.7 3604.37,1190.34L3604.37,1192.67C3604.37,1193.31 3604.89,1193.83 3605.54,1193.83L3607.87,1193.83C3608.51,1193.83 3609.03,1193.31 3609.03,1192.67L3609.03,1190.34Z" style="fill:rgb(174,186,198);"/>
                    </g>
                </g>
                <g transform="matrix(1,0,0,1,0,15.2648)">
                    <g transform="matrix(0.772545,0,0,0.772545,971.291,407.573)">
                        <path d="M3609.03,1190.34C3609.03,1189.7 3608.51,1189.17 3607.87,1189.17L3605.54,1189.17C3604.89,1189.17 3604.37,1189.7 3604.37,1190.34L3604.37,1192.67C3604.37,1193.31 3604.89,1193.83 3605.54,1193.83L3607.87,1193.83C3608.51,1193.83 3609.03,1193.31 3609.03,1192.67L3609.03,1190.34Z" style="fill:rgb(174,186,198);"/>
                    </g>
                    <g transform="matrix(0.772545,0,0,0.772545,977.697,407.573)">
                        <path d="M3609.03,1190.34C3609.03,1189.7 3608.51,1189.17 3607.87,1189.17L3605.54,1189.17C3604.89,1189.17 3604.37,1189.7 3604.37,1190.34L3604.37,1192.67C3604.37,1193.31 3604.89,1193.83 3605.54,1193.83L3607.87,1193.83C3608.51,1193.83 3609.03,1193.31 3609.03,1192.67L3609.03,1190.34Z" style="fill:rgb(174,186,198);"/>
                    </g>
                </g>
                <g transform="matrix(1,0,0,1,0,20.3531)">
                    <g transform="matrix(0.772545,0,0,0.772545,971.291,407.573)">
                        <path d="M3609.03,1190.34C3609.03,1189.7 3608.51,1189.17 3607.87,1189.17L3605.54,1189.17C3604.89,1189.17 3604.37,1189.7 3604.37,1190.34L3604.37,1192.67C3604.37,1193.31 3604.89,1193.83 3605.54,1193.83L3607.87,1193.83C3608.51,1193.83 3609.03,1193.31 3609.03,1192.67L3609.03,1190.34Z" style="fill:rgb(174,186,198);"/>
                    </g>
                    <g transform="matrix(0.772545,0,0,0.772545,977.697,407.573)">
                        <path d="M3609.03,1190.34C3609.03,1189.7 3608.51,1189.17 3607.87,1189.17L3605.54,1189.17C3604.89,1189.17 3604.37,1189.7 3604.37,1190.34L3604.37,1192.67C3604.37,1193.31 3604.89,1193.83 3605.54,1193.83L3607.87,1193.83C3608.51,1193.83 3609.03,1193.31 3609.03,1192.67L3609.03,1190.34Z" style="fill:rgb(174,186,198);"/>
                    </g>
                </g>
                <g transform="matrix(1,0,0,1,0,25.4414)">
                    <g transform="matrix(0.772545,0,0,0.772545,971.291,407.573)">
                        <path d="M3609.03,1190.34C3609.03,1189.7 3608.51,1189.17 3607.87,1189.17L3605.54,1189.17C3604.89,1189.17 3604.37,1189.7 3604.37,1190.34L3604.37,1192.67C3604.37,1193.31 3604.89,1193.83 3605.54,1193.83L3607.87,1193.83C3608.51,1193.83 3609.03,1193.31 3609.03,1192.67L3609.03,1190.34Z" style="fill:rgb(174,186,198);"/>
                    </g>
                    <g transform="matrix(0.772545,0,0,0.772545,977.697,407.573)">
                        <path d="M3609.03,1190.34C3609.03,1189.7 3608.51,1189.17 3607.87,1189.17L3605.54,1189.17C3604.89,1189.17 3604.37,1189.7 3604.37,1190.34L3604.37,1192.67C3604.37,1193.31 3604.89,1193.83 3605.54,1193.83L3607.87,1193.83C3608.51,1193.83 3609.03,1193.31 3609.03,1192.67L3609.03,1190.34Z" style="fill:rgb(174,186,198);"/>
                    </g>
                </g>
            </g>
            <g transform="matrix(1,0,0,1,-652.58,-1012.33)">
                <g transform="matrix(1,0,0,1,0.975429,0.808402)">
                    <path d="M3762.68,1311.01C3763.21,1310.49 3763.91,1310.2 3764.65,1310.2C3765.67,1310.2 3767,1310.2 3767,1310.2C3767.72,1310.2 3768.41,1310.49 3768.92,1310.99C3769.43,1311.5 3769.72,1312.19 3769.72,1312.91L3769.72,1348.67L3749.52,1348.67C3749.52,1348.67 3749.52,1330.57 3749.52,1325.49C3749.52,1324.65 3749.85,1323.84 3750.45,1323.25C3753.02,1320.67 3760.25,1313.45 3762.68,1311.01Z" style="fill:rgb(60,101,134);"/>
                </g>
                <g transform="matrix(0.932107,0,0,0.932107,392.441,216.34)">
                    <path d="M3609.03,1190.34C3609.03,1189.7 3608.51,1189.17 3607.87,1189.17L3605.54,1189.17C3604.89,1189.17 3604.37,1189.7 3604.37,1190.34L3604.37,1192.67C3604.37,1193.31 3604.89,1193.83 3605.54,1193.83L3607.87,1193.83C3608.51,1193.83 3609.03,1193.31 3609.03,1192.67L3609.03,1190.34Z" style="fill:rgb(155,166,178);"/>
                </g>
                <g transform="matrix(0.932107,0,0,0.932107,392.441,222.264)">
                    <path d="M3609.03,1190.34C3609.03,1189.7 3608.51,1189.17 3607.87,1189.17L3605.54,1189.17C3604.89,1189.17 3604.37,1189.7 3604.37,1190.34L3604.37,1192.67C3604.37,1193.31 3604.89,1193.83 3605.54,1193.83L3607.87,1193.83C3608.51,1193.83 3609.03,1193.31 3609.03,1192.67L3609.03,1190.34Z" style="fill:rgb(155,166,178);"/>
                </g>
                <g transform="matrix(0.932107,0,0,0.932107,392.441,228.137)">
                    <path d="M3609.03,1190.34C3609.03,1189.7 3608.51,1189.17 3607.87,1189.17L3605.54,1189.17C3604.89,1189.17 3604.37,1189.7 3604.37,1190.34L3604.37,1192.67C3604.37,1193.31 3604.89,1193.83 3605.54,1193.83L3607.87,1193.83C3608.51,1193.83 3609.03,1193.31 3609.03,1192.67L3609.03,1190.34Z" style="fill:rgb(155,166,178);"/>
                </g>
                <g transform="matrix(0.932107,0,0,0.932107,392.441,234.381)">
                    <path d="M3609.03,1190.34C3609.03,1189.7 3608.51,1189.17 3607.87,1189.17L3605.54,1189.17C3604.89,1189.17 3604.37,1189.7 3604.37,1190.34L3604.37,1192.67C3604.37,1193.31 3604.89,1193.83 3605.54,1193.83L3607.87,1193.83C3608.51,1193.83 3609.03,1193.31 3609.03,1192.67L3609.03,1190.34Z" style="fill:rgb(155,166,178);"/>
                </g>
                <g transform="matrix(0.932107,0,0,0.932107,404.685,204.535)">
                    <path d="M3609.03,1190.34C3609.03,1189.7 3608.51,1189.17 3607.87,1189.17L3605.54,1189.17C3604.89,1189.17 3604.37,1189.7 3604.37,1190.34L3604.37,1192.67C3604.37,1193.31 3604.89,1193.83 3605.54,1193.83L3607.87,1193.83C3608.51,1193.83 3609.03,1193.31 3609.03,1192.67L3609.03,1190.34Z" style="fill:rgb(155,166,178);"/>
                </g>
                <g transform="matrix(0.932107,0,0,0.932107,398.553,210.313)">
                    <path d="M3609.03,1190.34C3609.03,1189.7 3608.51,1189.17 3607.87,1189.17L3605.54,1189.17C3604.89,1189.17 3604.37,1189.7 3604.37,1190.34L3604.37,1192.67C3604.37,1193.31 3604.89,1193.83 3605.54,1193.83L3607.87,1193.83C3608.51,1193.83 3609.03,1193.31 3609.03,1192.67L3609.03,1190.34Z" style="fill:rgb(155,166,178);"/>
                </g>
                <g transform="matrix(0.932107,0,0,0.932107,404.685,210.313)">
                    <path d="M3609.03,1190.34C3609.03,1189.7 3608.51,1189.17 3607.87,1189.17L3605.54,1189.17C3604.89,1189.17 3604.37,1189.7 3604.37,1190.34L3604.37,1192.67C3604.37,1193.31 3604.89,1193.83 3605.54,1193.83L3607.87,1193.83C3608.51,1193.83 3609.03,1193.31 3609.03,1192.67L3609.03,1190.34Z" style="fill:rgb(155,166,178);"/>
                </g>
                <g transform="matrix(0.932107,0,0,0.932107,398.553,216.34)">
                    <path d="M3609.03,1190.34C3609.03,1189.7 3608.51,1189.17 3607.87,1189.17L3605.54,1189.17C3604.89,1189.17 3604.37,1189.7 3604.37,1190.34L3604.37,1192.67C3604.37,1193.31 3604.89,1193.83 3605.54,1193.83L3607.87,1193.83C3608.51,1193.83 3609.03,1193.31 3609.03,1192.67L3609.03,1190.34Z" style="fill:rgb(155,166,178);"/>
                </g>
                <g transform="matrix(0.932107,0,0,0.932107,404.685,216.34)">
                    <path d="M3609.03,1190.34C3609.03,1189.7 3608.51,1189.17 3607.87,1189.17L3605.54,1189.17C3604.89,1189.17 3604.37,1189.7 3604.37,1190.34L3604.37,1192.67C3604.37,1193.31 3604.89,1193.83 3605.54,1193.83L3607.87,1193.83C3608.51,1193.83 3609.03,1193.31 3609.03,1192.67L3609.03,1190.34Z" style="fill:rgb(155,166,178);"/>
                </g>
                <g transform="matrix(0.932107,0,0,0.932107,398.553,222.264)">
                    <path d="M3609.03,1190.34C3609.03,1189.7 3608.51,1189.17 3607.87,1189.17L3605.54,1189.17C3604.89,1189.17 3604.37,1189.7 3604.37,1190.34L3604.37,1192.67C3604.37,1193.31 3604.89,1193.83 3605.54,1193.83L3607.87,1193.83C3608.51,1193.83 3609.03,1193.31 3609.03,1192.67L3609.03,1190.34Z" style="fill:rgb(155,166,178);"/>
                </g>
                <g transform="matrix(0.932107,0,0,0.932107,404.685,222.264)">
                    <path d="M3609.03,1190.34C3609.03,1189.7 3608.51,1189.17 3607.87,1189.17L3605.54,1189.17C3604.89,1189.17 3604.37,1189.7 3604.37,1190.34L3604.37,1192.67C3604.37,1193.31 3604.89,1193.83 3605.54,1193.83L3607.87,1193.83C3608.51,1193.83 3609.03,1193.31 3609.03,1192.67L3609.03,1190.34Z" style="fill:rgb(155,166,178);"/>
                </g>
                <g transform="matrix(0.932107,0,0,0.932107,398.553,228.137)">
                    <path d="M3609.03,1190.34C3609.03,1189.7 3608.51,1189.17 3607.87,1189.17L3605.54,1189.17C3604.89,1189.17 3604.37,1189.7 3604.37,1190.34L3604.37,1192.67C3604.37,1193.31 3604.89,1193.83 3605.54,1193.83L3607.87,1193.83C3608.51,1193.83 3609.03,1193.31 3609.03,1192.67L3609.03,1190.34Z" style="fill:rgb(155,166,178);"/>
                </g>
                <g transform="matrix(0.932107,0,0,0.932107,404.685,228.137)">
                    <path d="M3609.03,1190.34C3609.03,1189.7 3608.51,1189.17 3607.87,1189.17L3605.54,1189.17C3604.89,1189.17 3604.37,1189.7 3604.37,1190.34L3604.37,1192.67C3604.37,1193.31 3604.89,1193.83 3605.54,1193.83L3607.87,1193.83C3608.51,1193.83 3609.03,1193.31 3609.03,1192.67L3609.03,1190.34Z" style="fill:rgb(155,166,178);"/>
                </g>
                <g transform="matrix(0.932107,0,0,0.932107,398.553,234.381)">
                    <path d="M3609.03,1190.34C3609.03,1189.7 3608.51,1189.17 3607.87,1189.17L3605.54,1189.17C3604.89,1189.17 3604.37,1189.7 3604.37,1190.34L3604.37,1192.67C3604.37,1193.31 3604.89,1193.83 3605.54,1193.83L3607.87,1193.83C3608.51,1193.83 3609.03,1193.31 3609.03,1192.67L3609.03,1190.34Z" style="fill:rgb(155,166,178);"/>
                </g>
                <g transform="matrix(0.932107,0,0,0.932107,404.685,234.381)">
                    <path d="M3609.03,1190.34C3609.03,1189.7 3608.51,1189.17 3607.87,1189.17L3605.54,1189.17C3604.89,1189.17 3604.37,1189.7 3604.37,1190.34L3604.37,1192.67C3604.37,1193.31 3604.89,1193.83 3605.54,1193.83L3607.87,1193.83C3608.51,1193.83 3609.03,1193.31 3609.03,1192.67L3609.03,1190.34Z" style="fill:rgb(155,166,178);"/>
                </g>
            </g>
        </g>
    </g>
</svg>
