<?xml version="1.0" encoding="UTF-8" standalone="no"?>
<!DOCTYPE svg PUBLIC "-//W3C//DTD SVG 1.1//EN" "http://www.w3.org/Graphics/SVG/1.1/DTD/svg11.dtd">
<svg width="100%" height="100%" viewBox="0 0 100 100" version="1.1" xmlns="http://www.w3.org/2000/svg" xmlns:xlink="http://www.w3.org/1999/xlink" xml:space="preserve" xmlns:serif="http://www.serif.com/" style="fill-rule:evenodd;clip-rule:evenodd;stroke-linejoin:round;stroke-miterlimit:2;">
    <g transform="matrix(1,0,0,1,-3225.67,-1154.93)">
        <g id="hex_town_1" transform="matrix(1,0,0,1,190.67,905.93)">
            <rect x="3035" y="249" width="100" height="100" style="fill:none;"/>
            <g transform="matrix(0.251261,0,0,0.251261,2304.48,200.302)">
                <g transform="matrix(1.21246,1.21246,-1.21246,1.21246,2760.1,-1184.17)">
                    <path d="M757.553,465.372C758.95,463.975 759.368,461.873 758.612,460.048C757.856,458.222 756.075,457.032 754.099,457.032C746.057,457.032 735.827,457.032 729.885,457.032C727.187,457.032 725,459.219 725,461.917L725,486.131C725,488.107 726.19,489.888 728.016,490.644C729.841,491.4 731.943,490.982 733.34,489.585C740.406,482.519 750.487,472.438 757.553,465.372Z" style="fill:rgb(64,34,0);"/>
                </g>
                <g transform="matrix(1,0,0,1,2360,-204)">
                    <rect x="696.016" y="502.384" width="57.968" height="50.616" style="fill:rgb(126,72,12);"/>
                </g>
                <g transform="matrix(1,0,0,1,2360,-204)">
                    <path d="M713.953,553C713.924,552.841 713.908,552.676 713.908,552.509C713.908,546.198 713.908,530.545 713.908,524.234C713.908,522.742 715.118,521.533 716.61,521.533C720.876,521.533 729.124,521.533 733.39,521.533C734.882,521.533 736.092,522.742 736.092,524.234C736.092,530.545 736.092,546.198 736.092,552.509C736.092,552.676 736.076,552.841 736.047,553L713.953,553Z" style="fill:white;"/>
                </g>
            </g>
            <g transform="matrix(0.311586,0,0,0.311586,2104.92,199.884)">
                <g transform="matrix(1.21246,1.21246,-1.21246,1.21246,2760.1,-1184.17)">
                    <path d="M759.168,463.757C760.295,462.63 760.632,460.936 760.022,459.464C759.412,457.992 757.976,457.032 756.382,457.032C747.675,457.032 735.219,457.032 728.939,457.032C726.764,457.032 725,458.796 725,460.971C725,467.251 725,479.707 725,488.414C725,490.008 725.96,491.444 727.432,492.054C728.904,492.664 730.598,492.327 731.725,491.2C739.312,483.613 751.581,471.344 759.168,463.757Z" style="fill:rgb(64,34,0);"/>
                </g>
                <g transform="matrix(1,0,0,1,2360,-204)">
                    <rect x="696.016" y="502.384" width="57.968" height="50.616" style="fill:rgb(126,72,12);"/>
                </g>
                <g transform="matrix(1,0,0,1,2360,-204)">
                    <path d="M713.953,553C713.924,552.841 713.908,552.676 713.908,552.509C713.908,546.198 713.908,530.545 713.908,524.234C713.908,522.742 715.118,521.533 716.61,521.533C720.876,521.533 729.124,521.533 733.39,521.533C734.882,521.533 736.092,522.742 736.092,524.234C736.092,530.545 736.092,546.198 736.092,552.509C736.092,552.676 736.076,552.841 736.047,553L713.953,553Z" style="fill:white;"/>
                </g>
            </g>
            <g transform="matrix(0.262039,0,0,0.262039,2295.9,200.834)">
                <g transform="matrix(1.21246,1.21246,-1.21246,1.21246,2760.1,-1184.17)">
                    <path d="M757.896,465.029C759.236,463.689 759.637,461.674 758.912,459.924C758.187,458.173 756.479,457.032 754.584,457.032C746.383,457.032 735.712,457.032 729.684,457.032C727.097,457.032 725,459.129 725,461.716L725,486.616C725,488.511 726.141,490.219 727.892,490.944C729.642,491.669 731.657,491.268 732.997,489.928C740.19,482.735 750.703,472.222 757.896,465.029Z" style="fill:rgb(64,34,0);"/>
                </g>
                <g transform="matrix(1,0,0,1,2360,-204)">
                    <rect x="696.016" y="502.384" width="57.968" height="50.616" style="fill:rgb(126,72,12);"/>
                </g>
                <g transform="matrix(1,0,0,1,2360,-204)">
                    <path d="M713.953,553C713.924,552.841 713.908,552.676 713.908,552.509C713.908,546.198 713.908,530.545 713.908,524.234C713.908,522.742 715.118,521.533 716.61,521.533C720.876,521.533 729.124,521.533 733.39,521.533C734.882,521.533 736.092,522.742 736.092,524.234C736.092,530.545 736.092,546.198 736.092,552.509C736.092,552.676 736.076,552.841 736.047,553L713.953,553Z" style="fill:white;"/>
                </g>
            </g>
            <g transform="matrix(0.262039,0,0,0.262039,2295.9,200.834)">
                <g transform="matrix(1.21246,1.21246,-1.21246,1.21246,2760.1,-1184.17)">
                    <path d="M757.896,465.029C759.236,463.689 759.637,461.674 758.912,459.924C758.187,458.173 756.479,457.032 754.584,457.032C746.383,457.032 735.712,457.032 729.684,457.032C727.097,457.032 725,459.129 725,461.716L725,486.616C725,488.511 726.141,490.219 727.892,490.944C729.642,491.669 731.657,491.268 732.997,489.928C740.19,482.735 750.703,472.222 757.896,465.029Z" style="fill:rgb(64,34,0);"/>
                </g>
                <g transform="matrix(1,0,0,1,2360,-204)">
                    <rect x="696.016" y="502.384" width="57.968" height="50.616" style="fill:rgb(126,72,12);"/>
                </g>
                <g transform="matrix(1,0,0,1,2360,-204)">
                    <path d="M713.953,553C713.924,552.841 713.908,552.676 713.908,552.509C713.908,546.198 713.908,530.545 713.908,524.234C713.908,522.742 715.118,521.533 716.61,521.533C720.876,521.533 729.124,521.533 733.39,521.533C734.882,521.533 736.092,522.742 736.092,524.234C736.092,530.545 736.092,546.198 736.092,552.509C736.092,552.676 736.076,552.841 736.047,553L713.953,553Z" style="fill:white;"/>
                </g>
            </g>
            <g transform="matrix(0.262039,0,0,0.262039,2281.7,215.706)">
                <g transform="matrix(1.21246,1.21246,-1.21246,1.21246,2760.1,-1184.17)">
                    <path d="M757.896,465.029C759.236,463.689 759.637,461.674 758.912,459.924C758.187,458.173 756.479,457.032 754.584,457.032C746.383,457.032 735.712,457.032 729.684,457.032C727.097,457.032 725,459.129 725,461.716L725,486.616C725,488.511 726.141,490.219 727.892,490.944C729.642,491.669 731.657,491.268 732.997,489.928C740.19,482.735 750.703,472.222 757.896,465.029Z" style="fill:rgb(64,34,0);"/>
                </g>
                <g transform="matrix(1,0,0,1,2360,-204)">
                    <rect x="696.016" y="502.384" width="57.968" height="50.616" style="fill:rgb(126,72,12);"/>
                </g>
                <g transform="matrix(1,0,0,1,2360,-204)">
                    <path d="M713.953,553C713.924,552.841 713.908,552.676 713.908,552.509C713.908,546.198 713.908,530.545 713.908,524.234C713.908,522.742 715.118,521.533 716.61,521.533C720.876,521.533 729.124,521.533 733.39,521.533C734.882,521.533 736.092,522.742 736.092,524.234C736.092,530.545 736.092,546.198 736.092,552.509C736.092,552.676 736.076,552.841 736.047,553L713.953,553Z" style="fill:white;"/>
                </g>
            </g>
            <g transform="matrix(0.401897,0,0,0.401897,1866.24,192.9)">
                <g transform="matrix(1.21246,1.21246,-1.21246,1.21246,2760.1,-1184.17)">
                    <path d="M760.679,462.246C761.553,461.372 761.814,460.059 761.341,458.917C760.868,457.776 759.755,457.032 758.519,457.032C749.446,457.032 734.458,457.032 728.054,457.032C726.367,457.032 725,458.399 725,460.086L725,490.551C725,491.787 725.744,492.9 726.885,493.373C728.027,493.846 729.34,493.585 730.214,492.711C738.063,484.862 752.83,470.095 760.679,462.246Z" style="fill:rgb(64,34,0);"/>
                </g>
                <g transform="matrix(1,0,0,1,2360,-204)">
                    <rect x="696.016" y="502.384" width="57.968" height="50.616" style="fill:rgb(126,72,12);"/>
                </g>
                <g transform="matrix(1,0,0,1,2360,-204)">
                    <path d="M713.953,553C713.924,552.841 713.908,552.676 713.908,552.509C713.908,546.198 713.908,530.545 713.908,524.234C713.908,522.742 715.118,521.533 716.61,521.533C720.876,521.533 729.124,521.533 733.39,521.533C734.882,521.533 736.092,522.742 736.092,524.234C736.092,530.545 736.092,546.198 736.092,552.509C736.092,552.676 736.076,552.841 736.047,553L713.953,553Z" style="fill:white;"/>
                </g>
            </g>
            <g transform="matrix(0.449346,0,0,0.461047,1691.19,181.028)">
                <g transform="matrix(1.21246,1.21246,-1.21246,1.21246,2760.1,-1184.17)">
                    <path d="M761.313,461.612C762.09,460.835 762.338,459.68 761.942,458.681C761.546,457.682 760.584,457.032 759.5,457.032C750.433,457.032 734.225,457.032 727.767,457.032C727.039,457.032 726.336,457.326 725.815,457.847C725.294,458.368 725,459.071 725,459.799L725,491.532C725,492.616 725.65,493.578 726.649,493.974C727.648,494.37 728.803,494.122 729.58,493.345C737.448,485.477 753.445,469.48 761.313,461.612Z" style="fill:rgb(64,34,0);"/>
                </g>
                <g transform="matrix(1,0,0,1,2360,-204)">
                    <rect x="696.016" y="502.384" width="57.968" height="50.616" style="fill:rgb(126,72,12);"/>
                </g>
                <g transform="matrix(1,0,0,1,2360,-204)">
                    <path d="M713.953,553C713.924,552.841 713.908,552.676 713.908,552.509C713.908,546.198 713.908,530.545 713.908,524.234C713.908,522.742 715.118,521.533 716.61,521.533C720.876,521.533 729.124,521.533 733.39,521.533C734.882,521.533 736.092,522.742 736.092,524.234C736.092,530.545 736.092,546.198 736.092,552.509C736.092,552.676 736.076,552.841 736.047,553L713.953,553Z" style="fill:white;"/>
                </g>
            </g>
        </g>
    </g>
</svg>
