<?xml version="1.0" encoding="UTF-8" standalone="no"?>
<!DOCTYPE svg PUBLIC "-//W3C//DTD SVG 1.1//EN" "http://www.w3.org/Graphics/SVG/1.1/DTD/svg11.dtd">
<svg width="100%" height="100%" viewBox="0 0 100 100" version="1.1" xmlns="http://www.w3.org/2000/svg" xmlns:xlink="http://www.w3.org/1999/xlink" xml:space="preserve" xmlns:serif="http://www.serif.com/" style="fill-rule:evenodd;clip-rule:evenodd;stroke-linejoin:round;stroke-miterlimit:2;">
    <g transform="matrix(1,0,0,1,-3729.27,-1153.06)">
        <g id="hex_town_5" transform="matrix(1.3294,0,0,1.26728,-1220.04,-477.676)">
            <rect x="3722.97" y="1286.81" width="75.222" height="78.909" style="fill:none;"/>
            <g transform="matrix(0.395863,0,0,0.415268,2254.33,753.237)">
                <g transform="matrix(1,0,0,1,0.0109787,0.964726)">
                    <path d="M3858.63,1322.83C3857.08,1313.57 3854.5,1305.33 3851.57,1299.02C3864.17,1302.93 3874.41,1320.33 3874.41,1340.87C3874.41,1354.18 3870.1,1366.18 3863.64,1374.03C3864.9,1379.09 3866.49,1383.7 3868.23,1387.62C3864.15,1386.27 3860.34,1383.63 3857.1,1380.04C3855.33,1381.22 3853.48,1382.12 3851.57,1382.71C3852.48,1380.75 3853.35,1378.61 3854.17,1376.31C3849.77,1369.86 3846.98,1361.4 3846.98,1352.22C3846.98,1340.24 3851.72,1329.49 3858.63,1322.83Z" style="fill:rgb(209,219,230);"/>
                </g>
                <g transform="matrix(9.67235e-17,1.57961,-1.57961,9.67235e-17,6040.02,-4688.45)">
                    <path d="M3847.19,1363.83C3840.23,1364.51 3834.57,1371.97 3834.57,1380.99C3834.57,1390 3840.23,1397.46 3847.19,1398.14L3847.19,1363.83Z" style="fill:rgb(209,219,230);"/>
                </g>
            </g>
            <g transform="matrix(0.752221,0,0,0.789095,872.206,280.149)">
                <path d="M3843.01,1278.09C3843.85,1321.14 3856.74,1350.14 3856.74,1350.14L3829.27,1350.14C3829.27,1350.14 3841.8,1321.14 3843.01,1278.09Z" style="fill:rgb(155,177,203);"/>
            </g>
            <g transform="matrix(0.716705,0,0,0.751838,1551.33,1104.27)">
                <g transform="matrix(0.554592,0,0,1.14464,1069.13,-1096.43)">
                    <path d="M3619.21,1188.19C3619.21,1187.53 3618.67,1186.89 3617.7,1186.43C3616.74,1185.96 3615.43,1185.7 3614.07,1185.7C3611.83,1185.7 3609.22,1185.7 3606.98,1185.7C3605.62,1185.7 3604.32,1185.96 3603.35,1186.43C3602.39,1186.89 3601.85,1187.53 3601.85,1188.19C3601.85,1198.12 3601.85,1234.37 3601.85,1234.37L3619.21,1234.37L3619.21,1188.19Z" style="fill:rgb(70,100,133);"/>
                </g>
                <g transform="matrix(1.17931,0,0,1.17931,-1181.95,-1132.11)">
                    <path d="M3609.03,1190.34C3609.03,1189.7 3608.51,1189.17 3607.87,1189.17L3605.54,1189.17C3604.89,1189.17 3604.37,1189.7 3604.37,1190.34L3604.37,1192.67C3604.37,1193.31 3604.89,1193.83 3605.54,1193.83L3607.87,1193.83C3608.51,1193.83 3609.03,1193.31 3609.03,1192.67L3609.03,1190.34Z" style="fill:rgb(174,186,198);"/>
                </g>
                <g transform="matrix(1.17931,0,0,1.17931,-1181.95,-1139.36)">
                    <path d="M3609.03,1190.34C3609.03,1189.7 3608.51,1189.17 3607.87,1189.17L3605.54,1189.17C3604.89,1189.17 3604.37,1189.7 3604.37,1190.34L3604.37,1192.67C3604.37,1193.31 3604.89,1193.83 3605.54,1193.83L3607.87,1193.83C3608.51,1193.83 3609.03,1193.31 3609.03,1192.67L3609.03,1190.34Z" style="fill:rgb(174,186,198);"/>
                </g>
                <g transform="matrix(1.17931,0,0,1.17931,-1181.95,-1124.8)">
                    <path d="M3609.03,1190.34C3609.03,1189.7 3608.51,1189.17 3607.87,1189.17L3605.54,1189.17C3604.89,1189.17 3604.37,1189.7 3604.37,1190.34L3604.37,1192.67C3604.37,1193.31 3604.89,1193.83 3605.54,1193.83L3607.87,1193.83C3608.51,1193.83 3609.03,1193.31 3609.03,1192.67L3609.03,1190.34Z" style="fill:rgb(174,186,198);"/>
                </g>
                <g transform="matrix(1.17931,0,0,1.17931,-1181.95,-1117.17)">
                    <path d="M3609.03,1190.34C3609.03,1189.7 3608.51,1189.17 3607.87,1189.17L3605.54,1189.17C3604.89,1189.17 3604.37,1189.7 3604.37,1190.34L3604.37,1192.67C3604.37,1193.31 3604.89,1193.83 3605.54,1193.83L3607.87,1193.83C3608.51,1193.83 3609.03,1193.31 3609.03,1192.67L3609.03,1190.34Z" style="fill:rgb(174,186,198);"/>
                </g>
                <g transform="matrix(1.17931,0,0,1.17931,-1181.95,-1109.68)">
                    <path d="M3609.03,1190.34C3609.03,1189.7 3608.51,1189.17 3607.87,1189.17L3605.54,1189.17C3604.89,1189.17 3604.37,1189.7 3604.37,1190.34L3604.37,1192.67C3604.37,1193.31 3604.89,1193.83 3605.54,1193.83L3607.87,1193.83C3608.51,1193.83 3609.03,1193.31 3609.03,1192.67L3609.03,1190.34Z" style="fill:rgb(174,186,198);"/>
                </g>
                <g transform="matrix(1.17931,0,0,1.17931,-1181.95,-1102.25)">
                    <path d="M3609.03,1190.34C3609.03,1189.7 3608.51,1189.17 3607.87,1189.17L3605.54,1189.17C3604.89,1189.17 3604.37,1189.7 3604.37,1190.34L3604.37,1192.67C3604.37,1193.31 3604.89,1193.83 3605.54,1193.83L3607.87,1193.83C3608.51,1193.83 3609.03,1193.31 3609.03,1192.67L3609.03,1190.34Z" style="fill:rgb(174,186,198);"/>
                </g>
                <g transform="matrix(1.17931,0,0,1.17931,-1181.95,-1094.35)">
                    <path d="M3609.03,1190.34C3609.03,1189.7 3608.51,1189.17 3607.87,1189.17L3605.54,1189.17C3604.89,1189.17 3604.37,1189.7 3604.37,1190.34L3604.37,1192.67C3604.37,1193.31 3604.89,1193.83 3605.54,1193.83L3607.87,1193.83C3608.51,1193.83 3609.03,1193.31 3609.03,1192.67L3609.03,1190.34Z" style="fill:rgb(174,186,198);"/>
                </g>
            </g>
            <g transform="matrix(0.752221,0,0,0.789095,1447.89,1101.55)">
                <g transform="matrix(1.16341,0,0,0.790384,-1089.18,-670.942)">
                    <path d="M3619.21,1189.13C3619.21,1188.22 3618.96,1187.35 3618.52,1186.7C3618.09,1186.06 3617.49,1185.7 3616.87,1185.7C3613.55,1185.7 3607.5,1185.7 3604.18,1185.7C3603.56,1185.7 3602.97,1186.06 3602.53,1186.7C3602.09,1187.35 3601.85,1188.22 3601.85,1189.13C3601.85,1200.23 3601.85,1234.37 3601.85,1234.37L3619.21,1234.37L3619.21,1189.13Z" style="fill:rgb(116,135,157);"/>
                </g>
                <g transform="matrix(0.932107,0,0,0.932107,-256.801,-840.257)">
                    <path d="M3609.03,1190.34C3609.03,1189.7 3608.51,1189.17 3607.87,1189.17L3605.54,1189.17C3604.89,1189.17 3604.37,1189.7 3604.37,1190.34L3604.37,1192.67C3604.37,1193.31 3604.89,1193.83 3605.54,1193.83L3607.87,1193.83C3608.51,1193.83 3609.03,1193.31 3609.03,1192.67L3609.03,1190.34Z" style="fill:rgb(155,166,178);"/>
                </g>
                <g transform="matrix(0.932107,0,0,0.932107,-256.801,-834.479)">
                    <path d="M3609.03,1190.34C3609.03,1189.7 3608.51,1189.17 3607.87,1189.17L3605.54,1189.17C3604.89,1189.17 3604.37,1189.7 3604.37,1190.34L3604.37,1192.67C3604.37,1193.31 3604.89,1193.83 3605.54,1193.83L3607.87,1193.83C3608.51,1193.83 3609.03,1193.31 3609.03,1192.67L3609.03,1190.34Z" style="fill:rgb(155,166,178);"/>
                </g>
                <g transform="matrix(0.932107,0,0,0.932107,-256.801,-828.452)">
                    <path d="M3609.03,1190.34C3609.03,1189.7 3608.51,1189.17 3607.87,1189.17L3605.54,1189.17C3604.89,1189.17 3604.37,1189.7 3604.37,1190.34L3604.37,1192.67C3604.37,1193.31 3604.89,1193.83 3605.54,1193.83L3607.87,1193.83C3608.51,1193.83 3609.03,1193.31 3609.03,1192.67L3609.03,1190.34Z" style="fill:rgb(155,166,178);"/>
                </g>
                <g transform="matrix(0.932107,0,0,0.932107,-256.801,-822.528)">
                    <path d="M3609.03,1190.34C3609.03,1189.7 3608.51,1189.17 3607.87,1189.17L3605.54,1189.17C3604.89,1189.17 3604.37,1189.7 3604.37,1190.34L3604.37,1192.67C3604.37,1193.31 3604.89,1193.83 3605.54,1193.83L3607.87,1193.83C3608.51,1193.83 3609.03,1193.31 3609.03,1192.67L3609.03,1190.34Z" style="fill:rgb(155,166,178);"/>
                </g>
                <g transform="matrix(0.932107,0,0,0.932107,-256.801,-816.656)">
                    <path d="M3609.03,1190.34C3609.03,1189.7 3608.51,1189.17 3607.87,1189.17L3605.54,1189.17C3604.89,1189.17 3604.37,1189.7 3604.37,1190.34L3604.37,1192.67C3604.37,1193.31 3604.89,1193.83 3605.54,1193.83L3607.87,1193.83C3608.51,1193.83 3609.03,1193.31 3609.03,1192.67L3609.03,1190.34Z" style="fill:rgb(155,166,178);"/>
                </g>
                <g transform="matrix(0.932107,0,0,0.932107,-256.801,-810.412)">
                    <path d="M3609.03,1190.34C3609.03,1189.7 3608.51,1189.17 3607.87,1189.17L3605.54,1189.17C3604.89,1189.17 3604.37,1189.7 3604.37,1190.34L3604.37,1192.67C3604.37,1193.31 3604.89,1193.83 3605.54,1193.83L3607.87,1193.83C3608.51,1193.83 3609.03,1193.31 3609.03,1192.67L3609.03,1190.34Z" style="fill:rgb(155,166,178);"/>
                </g>
                <g transform="matrix(0.932107,0,0,0.932107,-250.689,-840.257)">
                    <path d="M3609.03,1190.34C3609.03,1189.7 3608.51,1189.17 3607.87,1189.17L3605.54,1189.17C3604.89,1189.17 3604.37,1189.7 3604.37,1190.34L3604.37,1192.67C3604.37,1193.31 3604.89,1193.83 3605.54,1193.83L3607.87,1193.83C3608.51,1193.83 3609.03,1193.31 3609.03,1192.67L3609.03,1190.34Z" style="fill:rgb(155,166,178);"/>
                </g>
                <g transform="matrix(0.932107,0,0,0.932107,-244.557,-840.257)">
                    <path d="M3609.03,1190.34C3609.03,1189.7 3608.51,1189.17 3607.87,1189.17L3605.54,1189.17C3604.89,1189.17 3604.37,1189.7 3604.37,1190.34L3604.37,1192.67C3604.37,1193.31 3604.89,1193.83 3605.54,1193.83L3607.87,1193.83C3608.51,1193.83 3609.03,1193.31 3609.03,1192.67L3609.03,1190.34Z" style="fill:rgb(155,166,178);"/>
                </g>
                <g transform="matrix(0.932107,0,0,0.932107,-250.689,-834.479)">
                    <path d="M3609.03,1190.34C3609.03,1189.7 3608.51,1189.17 3607.87,1189.17L3605.54,1189.17C3604.89,1189.17 3604.37,1189.7 3604.37,1190.34L3604.37,1192.67C3604.37,1193.31 3604.89,1193.83 3605.54,1193.83L3607.87,1193.83C3608.51,1193.83 3609.03,1193.31 3609.03,1192.67L3609.03,1190.34Z" style="fill:rgb(155,166,178);"/>
                </g>
                <g transform="matrix(0.932107,0,0,0.932107,-244.557,-834.479)">
                    <path d="M3609.03,1190.34C3609.03,1189.7 3608.51,1189.17 3607.87,1189.17L3605.54,1189.17C3604.89,1189.17 3604.37,1189.7 3604.37,1190.34L3604.37,1192.67C3604.37,1193.31 3604.89,1193.83 3605.54,1193.83L3607.87,1193.83C3608.51,1193.83 3609.03,1193.31 3609.03,1192.67L3609.03,1190.34Z" style="fill:rgb(155,166,178);"/>
                </g>
                <g transform="matrix(0.932107,0,0,0.932107,-250.689,-828.452)">
                    <path d="M3609.03,1190.34C3609.03,1189.7 3608.51,1189.17 3607.87,1189.17L3605.54,1189.17C3604.89,1189.17 3604.37,1189.7 3604.37,1190.34L3604.37,1192.67C3604.37,1193.31 3604.89,1193.83 3605.54,1193.83L3607.87,1193.83C3608.51,1193.83 3609.03,1193.31 3609.03,1192.67L3609.03,1190.34Z" style="fill:rgb(155,166,178);"/>
                </g>
                <g transform="matrix(0.932107,0,0,0.932107,-244.557,-828.452)">
                    <path d="M3609.03,1190.34C3609.03,1189.7 3608.51,1189.17 3607.87,1189.17L3605.54,1189.17C3604.89,1189.17 3604.37,1189.7 3604.37,1190.34L3604.37,1192.67C3604.37,1193.31 3604.89,1193.83 3605.54,1193.83L3607.87,1193.83C3608.51,1193.83 3609.03,1193.31 3609.03,1192.67L3609.03,1190.34Z" style="fill:rgb(155,166,178);"/>
                </g>
                <g transform="matrix(0.932107,0,0,0.932107,-250.689,-822.528)">
                    <path d="M3609.03,1190.34C3609.03,1189.7 3608.51,1189.17 3607.87,1189.17L3605.54,1189.17C3604.89,1189.17 3604.37,1189.7 3604.37,1190.34L3604.37,1192.67C3604.37,1193.31 3604.89,1193.83 3605.54,1193.83L3607.87,1193.83C3608.51,1193.83 3609.03,1193.31 3609.03,1192.67L3609.03,1190.34Z" style="fill:rgb(155,166,178);"/>
                </g>
                <g transform="matrix(0.932107,0,0,0.932107,-244.557,-822.528)">
                    <path d="M3609.03,1190.34C3609.03,1189.7 3608.51,1189.17 3607.87,1189.17L3605.54,1189.17C3604.89,1189.17 3604.37,1189.7 3604.37,1190.34L3604.37,1192.67C3604.37,1193.31 3604.89,1193.83 3605.54,1193.83L3607.87,1193.83C3608.51,1193.83 3609.03,1193.31 3609.03,1192.67L3609.03,1190.34Z" style="fill:rgb(155,166,178);"/>
                </g>
                <g transform="matrix(0.932107,0,0,0.932107,-250.689,-816.656)">
                    <path d="M3609.03,1190.34C3609.03,1189.7 3608.51,1189.17 3607.87,1189.17L3605.54,1189.17C3604.89,1189.17 3604.37,1189.7 3604.37,1190.34L3604.37,1192.67C3604.37,1193.31 3604.89,1193.83 3605.54,1193.83L3607.87,1193.83C3608.51,1193.83 3609.03,1193.31 3609.03,1192.67L3609.03,1190.34Z" style="fill:rgb(155,166,178);"/>
                </g>
                <g transform="matrix(0.932107,0,0,0.932107,-244.557,-816.656)">
                    <path d="M3609.03,1190.34C3609.03,1189.7 3608.51,1189.17 3607.87,1189.17L3605.54,1189.17C3604.89,1189.17 3604.37,1189.7 3604.37,1190.34L3604.37,1192.67C3604.37,1193.31 3604.89,1193.83 3605.54,1193.83L3607.87,1193.83C3608.51,1193.83 3609.03,1193.31 3609.03,1192.67L3609.03,1190.34Z" style="fill:rgb(155,166,178);"/>
                </g>
                <g transform="matrix(0.932107,0,0,0.932107,-250.689,-810.412)">
                    <path d="M3609.03,1190.34C3609.03,1189.7 3608.51,1189.17 3607.87,1189.17L3605.54,1189.17C3604.89,1189.17 3604.37,1189.7 3604.37,1190.34L3604.37,1192.67C3604.37,1193.31 3604.89,1193.83 3605.54,1193.83L3607.87,1193.83C3608.51,1193.83 3609.03,1193.31 3609.03,1192.67L3609.03,1190.34Z" style="fill:rgb(155,166,178);"/>
                </g>
                <g transform="matrix(0.932107,0,0,0.932107,-244.557,-810.412)">
                    <path d="M3609.03,1190.34C3609.03,1189.7 3608.51,1189.17 3607.87,1189.17L3605.54,1189.17C3604.89,1189.17 3604.37,1189.7 3604.37,1190.34L3604.37,1192.67C3604.37,1193.31 3604.89,1193.83 3605.54,1193.83L3607.87,1193.83C3608.51,1193.83 3609.03,1193.31 3609.03,1192.67L3609.03,1190.34Z" style="fill:rgb(155,166,178);"/>
                </g>
            </g>
            <g transform="matrix(0.533866,0,0,0.560036,1750.15,590.084)">
                <g transform="matrix(1,0,0,1,0.975429,0.808402)">
                    <path d="M3778.41,1293.41C3778.41,1292.49 3778.78,1291.6 3779.43,1290.95C3780.08,1290.3 3780.96,1289.94 3781.88,1289.94C3785.94,1289.94 3792.11,1289.94 3792.11,1289.94C3793.61,1289.94 3794.82,1291.15 3794.82,1292.65C3794.82,1302.89 3794.82,1355.61 3794.82,1355.61L3733.12,1355.61C3733.12,1355.61 3733.12,1319.89 3733.12,1309.65C3733.12,1308.15 3734.33,1306.94 3735.83,1306.94C3735.83,1306.94 3743.16,1306.94 3747.56,1306.94C3748.42,1306.94 3749.24,1307.28 3749.84,1307.88C3750.45,1308.49 3750.79,1309.31 3750.79,1310.17C3750.79,1317.04 3750.79,1332.49 3750.79,1332.49C3750.79,1334.57 3752.48,1336.27 3754.57,1336.27L3774.63,1336.27C3776.72,1336.27 3778.41,1334.57 3778.41,1332.49L3778.41,1293.41Z" style="fill:rgb(104,134,168);"/>
                </g>
                <g transform="matrix(1.17931,0,0,1.17931,-514.545,-92.1706)">
                    <path d="M3609.03,1190.34C3609.03,1189.7 3608.51,1189.17 3607.87,1189.17L3605.54,1189.17C3604.89,1189.17 3604.37,1189.7 3604.37,1190.34L3604.37,1192.67C3604.37,1193.31 3604.89,1193.83 3605.54,1193.83L3607.87,1193.83C3608.51,1193.83 3609.03,1193.31 3609.03,1192.67L3609.03,1190.34Z" style="fill:rgb(174,186,198);"/>
                </g>
                <g transform="matrix(1.17931,0,0,1.17931,-514.545,-84.8598)">
                    <path d="M3609.03,1190.34C3609.03,1189.7 3608.51,1189.17 3607.87,1189.17L3605.54,1189.17C3604.89,1189.17 3604.37,1189.7 3604.37,1190.34L3604.37,1192.67C3604.37,1193.31 3604.89,1193.83 3605.54,1193.83L3607.87,1193.83C3608.51,1193.83 3609.03,1193.31 3609.03,1192.67L3609.03,1190.34Z" style="fill:rgb(174,186,198);"/>
                </g>
                <g transform="matrix(1.17931,0,0,1.17931,-514.545,-77.2342)">
                    <path d="M3609.03,1190.34C3609.03,1189.7 3608.51,1189.17 3607.87,1189.17L3605.54,1189.17C3604.89,1189.17 3604.37,1189.7 3604.37,1190.34L3604.37,1192.67C3604.37,1193.31 3604.89,1193.83 3605.54,1193.83L3607.87,1193.83C3608.51,1193.83 3609.03,1193.31 3609.03,1192.67L3609.03,1190.34Z" style="fill:rgb(174,186,198);"/>
                </g>
                <g transform="matrix(1.17931,0,0,1.17931,-514.545,-69.7394)">
                    <path d="M3609.03,1190.34C3609.03,1189.7 3608.51,1189.17 3607.87,1189.17L3605.54,1189.17C3604.89,1189.17 3604.37,1189.7 3604.37,1190.34L3604.37,1192.67C3604.37,1193.31 3604.89,1193.83 3605.54,1193.83L3607.87,1193.83C3608.51,1193.83 3609.03,1193.31 3609.03,1192.67L3609.03,1190.34Z" style="fill:rgb(174,186,198);"/>
                </g>
                <g>
                    <g transform="matrix(1.17931,0,0,1.17931,-514.545,-62.3096)">
                        <path d="M3609.03,1190.34C3609.03,1189.7 3608.51,1189.17 3607.87,1189.17L3605.54,1189.17C3604.89,1189.17 3604.37,1189.7 3604.37,1190.34L3604.37,1192.67C3604.37,1193.31 3604.89,1193.83 3605.54,1193.83L3607.87,1193.83C3608.51,1193.83 3609.03,1193.31 3609.03,1192.67L3609.03,1190.34Z" style="fill:rgb(174,186,198);"/>
                    </g>
                    <g transform="matrix(1.17931,0,0,1.17931,-514.545,-54.4096)">
                        <path d="M3609.03,1190.34C3609.03,1189.7 3608.51,1189.17 3607.87,1189.17L3605.54,1189.17C3604.89,1189.17 3604.37,1189.7 3604.37,1190.34L3604.37,1192.67C3604.37,1193.31 3604.89,1193.83 3605.54,1193.83L3607.87,1193.83C3608.51,1193.83 3609.03,1193.31 3609.03,1192.67L3609.03,1190.34Z" style="fill:rgb(174,186,198);"/>
                    </g>
                </g>
                <g transform="matrix(1,0,0,1,-1.65429,0)">
                    <g transform="matrix(1.17931,0,0,1.17931,-497.823,-62.3096)">
                        <path d="M3609.03,1190.34C3609.03,1189.7 3608.51,1189.17 3607.87,1189.17L3605.54,1189.17C3604.89,1189.17 3604.37,1189.7 3604.37,1190.34L3604.37,1192.67C3604.37,1193.31 3604.89,1193.83 3605.54,1193.83L3607.87,1193.83C3608.51,1193.83 3609.03,1193.31 3609.03,1192.67L3609.03,1190.34Z" style="fill:rgb(174,186,198);"/>
                    </g>
                    <g transform="matrix(1.17931,0,0,1.17931,-497.823,-54.4096)">
                        <path d="M3609.03,1190.34C3609.03,1189.7 3608.51,1189.17 3607.87,1189.17L3605.54,1189.17C3604.89,1189.17 3604.37,1189.7 3604.37,1190.34L3604.37,1192.67C3604.37,1193.31 3604.89,1193.83 3605.54,1193.83L3607.87,1193.83C3608.51,1193.83 3609.03,1193.31 3609.03,1192.67L3609.03,1190.34Z" style="fill:rgb(174,186,198);"/>
                    </g>
                </g>
                <g transform="matrix(1,0,0,1,-2.7286,0)">
                    <g transform="matrix(1.17931,0,0,1.17931,-481.68,-62.3096)">
                        <path d="M3609.03,1190.34C3609.03,1189.7 3608.51,1189.17 3607.87,1189.17L3605.54,1189.17C3604.89,1189.17 3604.37,1189.7 3604.37,1190.34L3604.37,1192.67C3604.37,1193.31 3604.89,1193.83 3605.54,1193.83L3607.87,1193.83C3608.51,1193.83 3609.03,1193.31 3609.03,1192.67L3609.03,1190.34Z" style="fill:rgb(174,186,198);"/>
                    </g>
                    <g transform="matrix(1.17931,0,0,1.17931,-481.68,-54.4096)">
                        <path d="M3609.03,1190.34C3609.03,1189.7 3608.51,1189.17 3607.87,1189.17L3605.54,1189.17C3604.89,1189.17 3604.37,1189.7 3604.37,1190.34L3604.37,1192.67C3604.37,1193.31 3604.89,1193.83 3605.54,1193.83L3607.87,1193.83C3608.51,1193.83 3609.03,1193.31 3609.03,1192.67L3609.03,1190.34Z" style="fill:rgb(174,186,198);"/>
                    </g>
                </g>
                <g transform="matrix(1.17931,0,0,1.17931,-507.011,-92.1706)">
                    <path d="M3609.03,1190.34C3609.03,1189.7 3608.51,1189.17 3607.87,1189.17L3605.54,1189.17C3604.89,1189.17 3604.37,1189.7 3604.37,1190.34L3604.37,1192.67C3604.37,1193.31 3604.89,1193.83 3605.54,1193.83L3607.87,1193.83C3608.51,1193.83 3609.03,1193.31 3609.03,1192.67L3609.03,1190.34Z" style="fill:rgb(174,186,198);"/>
                </g>
                <g transform="matrix(1.17931,0,0,1.17931,-507.011,-84.8598)">
                    <path d="M3609.03,1190.34C3609.03,1189.7 3608.51,1189.17 3607.87,1189.17L3605.54,1189.17C3604.89,1189.17 3604.37,1189.7 3604.37,1190.34L3604.37,1192.67C3604.37,1193.31 3604.89,1193.83 3605.54,1193.83L3607.87,1193.83C3608.51,1193.83 3609.03,1193.31 3609.03,1192.67L3609.03,1190.34Z" style="fill:rgb(174,186,198);"/>
                </g>
                <g transform="matrix(1.17931,0,0,1.17931,-507.011,-77.2342)">
                    <path d="M3609.03,1190.34C3609.03,1189.7 3608.51,1189.17 3607.87,1189.17L3605.54,1189.17C3604.89,1189.17 3604.37,1189.7 3604.37,1190.34L3604.37,1192.67C3604.37,1193.31 3604.89,1193.83 3605.54,1193.83L3607.87,1193.83C3608.51,1193.83 3609.03,1193.31 3609.03,1192.67L3609.03,1190.34Z" style="fill:rgb(174,186,198);"/>
                </g>
                <g transform="matrix(1.17931,0,0,1.17931,-507.011,-69.7394)">
                    <path d="M3609.03,1190.34C3609.03,1189.7 3608.51,1189.17 3607.87,1189.17L3605.54,1189.17C3604.89,1189.17 3604.37,1189.7 3604.37,1190.34L3604.37,1192.67C3604.37,1193.31 3604.89,1193.83 3605.54,1193.83L3607.87,1193.83C3608.51,1193.83 3609.03,1193.31 3609.03,1192.67L3609.03,1190.34Z" style="fill:rgb(174,186,198);"/>
                </g>
                <g transform="matrix(1,0,0,1,-0.19887,0)">
                    <g transform="matrix(1.17931,0,0,1.17931,-506.812,-62.3096)">
                        <path d="M3609.03,1190.34C3609.03,1189.7 3608.51,1189.17 3607.87,1189.17L3605.54,1189.17C3604.89,1189.17 3604.37,1189.7 3604.37,1190.34L3604.37,1192.67C3604.37,1193.31 3604.89,1193.83 3605.54,1193.83L3607.87,1193.83C3608.51,1193.83 3609.03,1193.31 3609.03,1192.67L3609.03,1190.34Z" style="fill:rgb(174,186,198);"/>
                    </g>
                    <g transform="matrix(1.17931,0,0,1.17931,-506.812,-54.4096)">
                        <path d="M3609.03,1190.34C3609.03,1189.7 3608.51,1189.17 3607.87,1189.17L3605.54,1189.17C3604.89,1189.17 3604.37,1189.7 3604.37,1190.34L3604.37,1192.67C3604.37,1193.31 3604.89,1193.83 3605.54,1193.83L3607.87,1193.83C3608.51,1193.83 3609.03,1193.31 3609.03,1192.67L3609.03,1190.34Z" style="fill:rgb(174,186,198);"/>
                    </g>
                </g>
                <g transform="matrix(1,0,0,1,-1.85316,0)">
                    <g transform="matrix(1.17931,0,0,1.17931,-490.09,-62.3096)">
                        <path d="M3609.03,1190.34C3609.03,1189.7 3608.51,1189.17 3607.87,1189.17L3605.54,1189.17C3604.89,1189.17 3604.37,1189.7 3604.37,1190.34L3604.37,1192.67C3604.37,1193.31 3604.89,1193.83 3605.54,1193.83L3607.87,1193.83C3608.51,1193.83 3609.03,1193.31 3609.03,1192.67L3609.03,1190.34Z" style="fill:rgb(174,186,198);"/>
                    </g>
                    <g transform="matrix(1.17931,0,0,1.17931,-490.09,-54.4096)">
                        <path d="M3609.03,1190.34C3609.03,1189.7 3608.51,1189.17 3607.87,1189.17L3605.54,1189.17C3604.89,1189.17 3604.37,1189.7 3604.37,1190.34L3604.37,1192.67C3604.37,1193.31 3604.89,1193.83 3605.54,1193.83L3607.87,1193.83C3608.51,1193.83 3609.03,1193.31 3609.03,1192.67L3609.03,1190.34Z" style="fill:rgb(174,186,198);"/>
                    </g>
                </g>
                <g transform="matrix(1,0,0,1,-2.92747,0)">
                    <g transform="matrix(1.17931,0,0,1.17931,-473.947,-62.3096)">
                        <path d="M3609.03,1190.34C3609.03,1189.7 3608.51,1189.17 3607.87,1189.17L3605.54,1189.17C3604.89,1189.17 3604.37,1189.7 3604.37,1190.34L3604.37,1192.67C3604.37,1193.31 3604.89,1193.83 3605.54,1193.83L3607.87,1193.83C3608.51,1193.83 3609.03,1193.31 3609.03,1192.67L3609.03,1190.34Z" style="fill:rgb(174,186,198);"/>
                    </g>
                    <g transform="matrix(1.17931,0,0,1.17931,-473.947,-54.4096)">
                        <path d="M3609.03,1190.34C3609.03,1189.7 3608.51,1189.17 3607.87,1189.17L3605.54,1189.17C3604.89,1189.17 3604.37,1189.7 3604.37,1190.34L3604.37,1192.67C3604.37,1193.31 3604.89,1193.83 3605.54,1193.83L3607.87,1193.83C3608.51,1193.83 3609.03,1193.31 3609.03,1192.67L3609.03,1190.34Z" style="fill:rgb(174,186,198);"/>
                    </g>
                </g>
                <g transform="matrix(1,0,0,1,0.927952,0)">
                    <g transform="matrix(1.17931,0,0,1.17931,-462.735,-62.3096)">
                        <path d="M3609.03,1190.34C3609.03,1189.7 3608.51,1189.17 3607.87,1189.17L3605.54,1189.17C3604.89,1189.17 3604.37,1189.7 3604.37,1190.34L3604.37,1192.67C3604.37,1193.31 3604.89,1193.83 3605.54,1193.83L3607.87,1193.83C3608.51,1193.83 3609.03,1193.31 3609.03,1192.67L3609.03,1190.34Z" style="fill:rgb(174,186,198);"/>
                    </g>
                    <g transform="matrix(1.17931,0,0,1.17931,-462.735,-54.4096)">
                        <path d="M3609.03,1190.34C3609.03,1189.7 3608.51,1189.17 3607.87,1189.17L3605.54,1189.17C3604.89,1189.17 3604.37,1189.7 3604.37,1190.34L3604.37,1192.67C3604.37,1193.31 3604.89,1193.83 3605.54,1193.83L3607.87,1193.83C3608.51,1193.83 3609.03,1193.31 3609.03,1192.67L3609.03,1190.34Z" style="fill:rgb(174,186,198);"/>
                    </g>
                </g>
                <g transform="matrix(1,0,0,1,0,1.03511)">
                    <g transform="matrix(1.17931,0,0,1.17931,-461.807,-78.7421)">
                        <path d="M3609.03,1190.34C3609.03,1189.7 3608.51,1189.17 3607.87,1189.17L3605.54,1189.17C3604.89,1189.17 3604.37,1189.7 3604.37,1190.34L3604.37,1192.67C3604.37,1193.31 3604.89,1193.83 3605.54,1193.83L3607.87,1193.83C3608.51,1193.83 3609.03,1193.31 3609.03,1192.67L3609.03,1190.34Z" style="fill:rgb(174,186,198);"/>
                    </g>
                    <g transform="matrix(1.17931,0,0,1.17931,-469.341,-78.7421)">
                        <path d="M3609.03,1190.34C3609.03,1189.7 3608.51,1189.17 3607.87,1189.17L3605.54,1189.17C3604.89,1189.17 3604.37,1189.7 3604.37,1190.34L3604.37,1192.67C3604.37,1193.31 3604.89,1193.83 3605.54,1193.83L3607.87,1193.83C3608.51,1193.83 3609.03,1193.31 3609.03,1192.67L3609.03,1190.34Z" style="fill:rgb(174,186,198);"/>
                    </g>
                </g>
                <g>
                    <g transform="matrix(1.17931,0,0,1.17931,-461.807,-69.7394)">
                        <path d="M3609.03,1190.34C3609.03,1189.7 3608.51,1189.17 3607.87,1189.17L3605.54,1189.17C3604.89,1189.17 3604.37,1189.7 3604.37,1190.34L3604.37,1192.67C3604.37,1193.31 3604.89,1193.83 3605.54,1193.83L3607.87,1193.83C3608.51,1193.83 3609.03,1193.31 3609.03,1192.67L3609.03,1190.34Z" style="fill:rgb(174,186,198);"/>
                    </g>
                    <g transform="matrix(1.17931,0,0,1.17931,-469.341,-69.7394)">
                        <path d="M3609.03,1190.34C3609.03,1189.7 3608.51,1189.17 3607.87,1189.17L3605.54,1189.17C3604.89,1189.17 3604.37,1189.7 3604.37,1190.34L3604.37,1192.67C3604.37,1193.31 3604.89,1193.83 3605.54,1193.83L3607.87,1193.83C3608.51,1193.83 3609.03,1193.31 3609.03,1192.67L3609.03,1190.34Z" style="fill:rgb(174,186,198);"/>
                    </g>
                </g>
                <g transform="matrix(1,0,0,1,0,0.0825772)">
                    <g transform="matrix(1.17931,0,0,1.17931,-461.807,-93.7246)">
                        <path d="M3609.03,1190.34C3609.03,1189.7 3608.51,1189.17 3607.87,1189.17L3605.54,1189.17C3604.89,1189.17 3604.37,1189.7 3604.37,1190.34L3604.37,1192.67C3604.37,1193.31 3604.89,1193.83 3605.54,1193.83L3607.87,1193.83C3608.51,1193.83 3609.03,1193.31 3609.03,1192.67L3609.03,1190.34Z" style="fill:rgb(174,186,198);"/>
                    </g>
                    <g transform="matrix(1.17931,0,0,1.17931,-469.341,-93.7246)">
                        <path d="M3609.03,1190.34C3609.03,1189.7 3608.51,1189.17 3607.87,1189.17L3605.54,1189.17C3604.89,1189.17 3604.37,1189.7 3604.37,1190.34L3604.37,1192.67C3604.37,1193.31 3604.89,1193.83 3605.54,1193.83L3607.87,1193.83C3608.51,1193.83 3609.03,1193.31 3609.03,1192.67L3609.03,1190.34Z" style="fill:rgb(174,186,198);"/>
                    </g>
                </g>
                <g transform="matrix(1,0,0,1,0,0.15013)">
                    <g transform="matrix(1.17931,0,0,1.17931,-461.807,-85.8246)">
                        <path d="M3609.03,1190.34C3609.03,1189.7 3608.51,1189.17 3607.87,1189.17L3605.54,1189.17C3604.89,1189.17 3604.37,1189.7 3604.37,1190.34L3604.37,1192.67C3604.37,1193.31 3604.89,1193.83 3605.54,1193.83L3607.87,1193.83C3608.51,1193.83 3609.03,1193.31 3609.03,1192.67L3609.03,1190.34Z" style="fill:rgb(174,186,198);"/>
                    </g>
                    <g transform="matrix(1.17931,0,0,1.17931,-469.341,-85.8246)">
                        <path d="M3609.03,1190.34C3609.03,1189.7 3608.51,1189.17 3607.87,1189.17L3605.54,1189.17C3604.89,1189.17 3604.37,1189.7 3604.37,1190.34L3604.37,1192.67C3604.37,1193.31 3604.89,1193.83 3605.54,1193.83L3607.87,1193.83C3608.51,1193.83 3609.03,1193.31 3609.03,1192.67L3609.03,1190.34Z" style="fill:rgb(174,186,198);"/>
                    </g>
                </g>
                <g>
                    <g transform="matrix(1.17931,0,0,1.17931,-461.807,-109.577)">
                        <path d="M3609.03,1190.34C3609.03,1189.7 3608.51,1189.17 3607.87,1189.17L3605.54,1189.17C3604.89,1189.17 3604.37,1189.7 3604.37,1190.34L3604.37,1192.67C3604.37,1193.31 3604.89,1193.83 3605.54,1193.83L3607.87,1193.83C3608.51,1193.83 3609.03,1193.31 3609.03,1192.67L3609.03,1190.34Z" style="fill:rgb(174,186,198);"/>
                    </g>
                    <g transform="matrix(1.17931,0,0,1.17931,-469.341,-109.577)">
                        <path d="M3609.03,1190.34C3609.03,1189.7 3608.51,1189.17 3607.87,1189.17L3605.54,1189.17C3604.89,1189.17 3604.37,1189.7 3604.37,1190.34L3604.37,1192.67C3604.37,1193.31 3604.89,1193.83 3605.54,1193.83L3607.87,1193.83C3608.51,1193.83 3609.03,1193.31 3609.03,1192.67L3609.03,1190.34Z" style="fill:rgb(174,186,198);"/>
                    </g>
                </g>
                <g transform="matrix(1,0,0,1,0,0.0675528)">
                    <g transform="matrix(1.17931,0,0,1.17931,-461.807,-101.677)">
                        <path d="M3609.03,1190.34C3609.03,1189.7 3608.51,1189.17 3607.87,1189.17L3605.54,1189.17C3604.89,1189.17 3604.37,1189.7 3604.37,1190.34L3604.37,1192.67C3604.37,1193.31 3604.89,1193.83 3605.54,1193.83L3607.87,1193.83C3608.51,1193.83 3609.03,1193.31 3609.03,1192.67L3609.03,1190.34Z" style="fill:rgb(174,186,198);"/>
                    </g>
                    <g transform="matrix(1.17931,0,0,1.17931,-469.341,-101.677)">
                        <path d="M3609.03,1190.34C3609.03,1189.7 3608.51,1189.17 3607.87,1189.17L3605.54,1189.17C3604.89,1189.17 3604.37,1189.7 3604.37,1190.34L3604.37,1192.67C3604.37,1193.31 3604.89,1193.83 3605.54,1193.83L3607.87,1193.83C3608.51,1193.83 3609.03,1193.31 3609.03,1192.67L3609.03,1190.34Z" style="fill:rgb(174,186,198);"/>
                    </g>
                </g>
                <g transform="matrix(1,0,0,1,0.25684,0)">
                    <g transform="matrix(1.17931,0,0,1.17931,-469.598,-62.3096)">
                        <path d="M3609.03,1190.34C3609.03,1189.7 3608.51,1189.17 3607.87,1189.17L3605.54,1189.17C3604.89,1189.17 3604.37,1189.7 3604.37,1190.34L3604.37,1192.67C3604.37,1193.31 3604.89,1193.83 3605.54,1193.83L3607.87,1193.83C3608.51,1193.83 3609.03,1193.31 3609.03,1192.67L3609.03,1190.34Z" style="fill:rgb(174,186,198);"/>
                    </g>
                    <g transform="matrix(1.17931,0,0,1.17931,-469.598,-54.4096)">
                        <path d="M3609.03,1190.34C3609.03,1189.7 3608.51,1189.17 3607.87,1189.17L3605.54,1189.17C3604.89,1189.17 3604.37,1189.7 3604.37,1190.34L3604.37,1192.67C3604.37,1193.31 3604.89,1193.83 3605.54,1193.83L3607.87,1193.83C3608.51,1193.83 3609.03,1193.31 3609.03,1192.67L3609.03,1190.34Z" style="fill:rgb(174,186,198);"/>
                    </g>
                </g>
            </g>
            <g transform="matrix(0.752221,0,0,0.789095,934.715,283.438)">
                <g transform="matrix(0.814045,0,0,0.689719,821.454,506.136)">
                    <path d="M3619.21,1189.63C3619.21,1188.59 3618.86,1187.59 3618.23,1186.85C3617.61,1186.11 3616.76,1185.7 3615.87,1185.7C3612.8,1185.7 3608.26,1185.7 3605.18,1185.7C3604.3,1185.7 3603.45,1186.11 3602.82,1186.85C3602.2,1187.59 3601.85,1188.59 3601.85,1189.63C3601.85,1201.22 3601.85,1234.37 3601.85,1234.37L3619.21,1234.37L3619.21,1189.63Z" style="fill:rgb(102,126,153);"/>
                </g>
                <g transform="matrix(0.480222,0,0,0.106922,2026.73,1192.13)">
                    <path d="M3619.21,1211.09C3619.21,1204.36 3618.61,1197.9 3617.55,1193.13C3616.49,1188.37 3615.05,1185.7 3613.55,1185.7C3611.61,1185.7 3609.44,1185.7 3607.5,1185.7C3606,1185.7 3604.56,1188.37 3603.5,1193.13C3602.44,1197.9 3601.85,1204.36 3601.85,1211.09C3601.85,1222.9 3601.85,1234.37 3601.85,1234.37L3619.21,1234.37C3619.21,1234.37 3619.21,1222.9 3619.21,1211.09Z" style="fill:rgb(102,126,153);"/>
                </g>
                <g transform="matrix(0.21157,0,0,0.123484,2996.71,1166.99)">
                    <path d="M3619.21,1200.57C3619.21,1192.36 3615.32,1185.7 3610.53,1185.7C3610.53,1185.7 3610.53,1185.7 3610.52,1185.7C3605.73,1185.7 3601.85,1192.36 3601.85,1200.57C3601.85,1214.88 3601.85,1234.37 3601.85,1234.37L3619.21,1234.37C3619.21,1234.37 3619.21,1214.88 3619.21,1200.57Z" style="fill:rgb(102,126,153);"/>
                </g>
                <g>
                    <g transform="matrix(0.772545,0,0,0.772545,971.291,407.573)">
                        <path d="M3609.03,1190.34C3609.03,1189.7 3608.51,1189.17 3607.87,1189.17L3605.54,1189.17C3604.89,1189.17 3604.37,1189.7 3604.37,1190.34L3604.37,1192.67C3604.37,1193.31 3604.89,1193.83 3605.54,1193.83L3607.87,1193.83C3608.51,1193.83 3609.03,1193.31 3609.03,1192.67L3609.03,1190.34Z" style="fill:rgb(174,186,198);"/>
                    </g>
                    <g transform="matrix(0.772545,0,0,0.772545,977.697,407.573)">
                        <path d="M3609.03,1190.34C3609.03,1189.7 3608.51,1189.17 3607.87,1189.17L3605.54,1189.17C3604.89,1189.17 3604.37,1189.7 3604.37,1190.34L3604.37,1192.67C3604.37,1193.31 3604.89,1193.83 3605.54,1193.83L3607.87,1193.83C3608.51,1193.83 3609.03,1193.31 3609.03,1192.67L3609.03,1190.34Z" style="fill:rgb(174,186,198);"/>
                    </g>
                </g>
                <g transform="matrix(1,0,0,1,0,5.08827)">
                    <g transform="matrix(0.772545,0,0,0.772545,971.291,407.573)">
                        <path d="M3609.03,1190.34C3609.03,1189.7 3608.51,1189.17 3607.87,1189.17L3605.54,1189.17C3604.89,1189.17 3604.37,1189.7 3604.37,1190.34L3604.37,1192.67C3604.37,1193.31 3604.89,1193.83 3605.54,1193.83L3607.87,1193.83C3608.51,1193.83 3609.03,1193.31 3609.03,1192.67L3609.03,1190.34Z" style="fill:rgb(174,186,198);"/>
                    </g>
                    <g transform="matrix(0.772545,0,0,0.772545,977.697,407.573)">
                        <path d="M3609.03,1190.34C3609.03,1189.7 3608.51,1189.17 3607.87,1189.17L3605.54,1189.17C3604.89,1189.17 3604.37,1189.7 3604.37,1190.34L3604.37,1192.67C3604.37,1193.31 3604.89,1193.83 3605.54,1193.83L3607.87,1193.83C3608.51,1193.83 3609.03,1193.31 3609.03,1192.67L3609.03,1190.34Z" style="fill:rgb(174,186,198);"/>
                    </g>
                </g>
                <g transform="matrix(1,0,0,1,0,10.1765)">
                    <g transform="matrix(0.772545,0,0,0.772545,971.291,407.573)">
                        <path d="M3609.03,1190.34C3609.03,1189.7 3608.51,1189.17 3607.87,1189.17L3605.54,1189.17C3604.89,1189.17 3604.37,1189.7 3604.37,1190.34L3604.37,1192.67C3604.37,1193.31 3604.89,1193.83 3605.54,1193.83L3607.87,1193.83C3608.51,1193.83 3609.03,1193.31 3609.03,1192.67L3609.03,1190.34Z" style="fill:rgb(174,186,198);"/>
                    </g>
                    <g transform="matrix(0.772545,0,0,0.772545,977.697,407.573)">
                        <path d="M3609.03,1190.34C3609.03,1189.7 3608.51,1189.17 3607.87,1189.17L3605.54,1189.17C3604.89,1189.17 3604.37,1189.7 3604.37,1190.34L3604.37,1192.67C3604.37,1193.31 3604.89,1193.83 3605.54,1193.83L3607.87,1193.83C3608.51,1193.83 3609.03,1193.31 3609.03,1192.67L3609.03,1190.34Z" style="fill:rgb(174,186,198);"/>
                    </g>
                </g>
                <g transform="matrix(1,0,0,1,0,15.2648)">
                    <g transform="matrix(0.772545,0,0,0.772545,971.291,407.573)">
                        <path d="M3609.03,1190.34C3609.03,1189.7 3608.51,1189.17 3607.87,1189.17L3605.54,1189.17C3604.89,1189.17 3604.37,1189.7 3604.37,1190.34L3604.37,1192.67C3604.37,1193.31 3604.89,1193.83 3605.54,1193.83L3607.87,1193.83C3608.51,1193.83 3609.03,1193.31 3609.03,1192.67L3609.03,1190.34Z" style="fill:rgb(174,186,198);"/>
                    </g>
                    <g transform="matrix(0.772545,0,0,0.772545,977.697,407.573)">
                        <path d="M3609.03,1190.34C3609.03,1189.7 3608.51,1189.17 3607.87,1189.17L3605.54,1189.17C3604.89,1189.17 3604.37,1189.7 3604.37,1190.34L3604.37,1192.67C3604.37,1193.31 3604.89,1193.83 3605.54,1193.83L3607.87,1193.83C3608.51,1193.83 3609.03,1193.31 3609.03,1192.67L3609.03,1190.34Z" style="fill:rgb(174,186,198);"/>
                    </g>
                </g>
                <g transform="matrix(1,0,0,1,0,20.3531)">
                    <g transform="matrix(0.772545,0,0,0.772545,971.291,407.573)">
                        <path d="M3609.03,1190.34C3609.03,1189.7 3608.51,1189.17 3607.87,1189.17L3605.54,1189.17C3604.89,1189.17 3604.37,1189.7 3604.37,1190.34L3604.37,1192.67C3604.37,1193.31 3604.89,1193.83 3605.54,1193.83L3607.87,1193.83C3608.51,1193.83 3609.03,1193.31 3609.03,1192.67L3609.03,1190.34Z" style="fill:rgb(174,186,198);"/>
                    </g>
                    <g transform="matrix(0.772545,0,0,0.772545,977.697,407.573)">
                        <path d="M3609.03,1190.34C3609.03,1189.7 3608.51,1189.17 3607.87,1189.17L3605.54,1189.17C3604.89,1189.17 3604.37,1189.7 3604.37,1190.34L3604.37,1192.67C3604.37,1193.31 3604.89,1193.83 3605.54,1193.83L3607.87,1193.83C3608.51,1193.83 3609.03,1193.31 3609.03,1192.67L3609.03,1190.34Z" style="fill:rgb(174,186,198);"/>
                    </g>
                </g>
                <g transform="matrix(1,0,0,1,0,25.4414)">
                    <g transform="matrix(0.772545,0,0,0.772545,971.291,407.573)">
                        <path d="M3609.03,1190.34C3609.03,1189.7 3608.51,1189.17 3607.87,1189.17L3605.54,1189.17C3604.89,1189.17 3604.37,1189.7 3604.37,1190.34L3604.37,1192.67C3604.37,1193.31 3604.89,1193.83 3605.54,1193.83L3607.87,1193.83C3608.51,1193.83 3609.03,1193.31 3609.03,1192.67L3609.03,1190.34Z" style="fill:rgb(174,186,198);"/>
                    </g>
                    <g transform="matrix(0.772545,0,0,0.772545,977.697,407.573)">
                        <path d="M3609.03,1190.34C3609.03,1189.7 3608.51,1189.17 3607.87,1189.17L3605.54,1189.17C3604.89,1189.17 3604.37,1189.7 3604.37,1190.34L3604.37,1192.67C3604.37,1193.31 3604.89,1193.83 3605.54,1193.83L3607.87,1193.83C3608.51,1193.83 3609.03,1193.31 3609.03,1192.67L3609.03,1190.34Z" style="fill:rgb(174,186,198);"/>
                    </g>
                </g>
            </g>
            <g transform="matrix(0.752221,0,0,0.789095,950.441,292.972)">
                <g transform="matrix(1,0,0,1,0.975429,0.808402)">
                    <path d="M3762.68,1311.01C3763.21,1310.49 3763.91,1310.2 3764.65,1310.2C3765.67,1310.2 3767,1310.2 3767,1310.2C3767.72,1310.2 3768.41,1310.49 3768.92,1310.99C3769.43,1311.5 3769.72,1312.19 3769.72,1312.91L3769.72,1348.67L3749.52,1348.67C3749.52,1348.67 3749.52,1330.57 3749.52,1325.49C3749.52,1324.65 3749.85,1323.84 3750.45,1323.25C3753.02,1320.67 3760.25,1313.45 3762.68,1311.01Z" style="fill:rgb(60,101,134);"/>
                </g>
                <g transform="matrix(0.932107,0,0,0.932107,392.441,216.34)">
                    <path d="M3609.03,1190.34C3609.03,1189.7 3608.51,1189.17 3607.87,1189.17L3605.54,1189.17C3604.89,1189.17 3604.37,1189.7 3604.37,1190.34L3604.37,1192.67C3604.37,1193.31 3604.89,1193.83 3605.54,1193.83L3607.87,1193.83C3608.51,1193.83 3609.03,1193.31 3609.03,1192.67L3609.03,1190.34Z" style="fill:rgb(155,166,178);"/>
                </g>
                <g transform="matrix(0.932107,0,0,0.932107,392.441,222.264)">
                    <path d="M3609.03,1190.34C3609.03,1189.7 3608.51,1189.17 3607.87,1189.17L3605.54,1189.17C3604.89,1189.17 3604.37,1189.7 3604.37,1190.34L3604.37,1192.67C3604.37,1193.31 3604.89,1193.83 3605.54,1193.83L3607.87,1193.83C3608.51,1193.83 3609.03,1193.31 3609.03,1192.67L3609.03,1190.34Z" style="fill:rgb(155,166,178);"/>
                </g>
                <g transform="matrix(0.932107,0,0,0.932107,392.441,228.137)">
                    <path d="M3609.03,1190.34C3609.03,1189.7 3608.51,1189.17 3607.87,1189.17L3605.54,1189.17C3604.89,1189.17 3604.37,1189.7 3604.37,1190.34L3604.37,1192.67C3604.37,1193.31 3604.89,1193.83 3605.54,1193.83L3607.87,1193.83C3608.51,1193.83 3609.03,1193.31 3609.03,1192.67L3609.03,1190.34Z" style="fill:rgb(155,166,178);"/>
                </g>
                <g transform="matrix(0.932107,0,0,0.932107,392.441,234.381)">
                    <path d="M3609.03,1190.34C3609.03,1189.7 3608.51,1189.17 3607.87,1189.17L3605.54,1189.17C3604.89,1189.17 3604.37,1189.7 3604.37,1190.34L3604.37,1192.67C3604.37,1193.31 3604.89,1193.83 3605.54,1193.83L3607.87,1193.83C3608.51,1193.83 3609.03,1193.31 3609.03,1192.67L3609.03,1190.34Z" style="fill:rgb(155,166,178);"/>
                </g>
                <g transform="matrix(0.932107,0,0,0.932107,404.685,204.535)">
                    <path d="M3609.03,1190.34C3609.03,1189.7 3608.51,1189.17 3607.87,1189.17L3605.54,1189.17C3604.89,1189.17 3604.37,1189.7 3604.37,1190.34L3604.37,1192.67C3604.37,1193.31 3604.89,1193.83 3605.54,1193.83L3607.87,1193.83C3608.51,1193.83 3609.03,1193.31 3609.03,1192.67L3609.03,1190.34Z" style="fill:rgb(155,166,178);"/>
                </g>
                <g transform="matrix(0.932107,0,0,0.932107,398.553,210.313)">
                    <path d="M3609.03,1190.34C3609.03,1189.7 3608.51,1189.17 3607.87,1189.17L3605.54,1189.17C3604.89,1189.17 3604.37,1189.7 3604.37,1190.34L3604.37,1192.67C3604.37,1193.31 3604.89,1193.83 3605.54,1193.83L3607.87,1193.83C3608.51,1193.83 3609.03,1193.31 3609.03,1192.67L3609.03,1190.34Z" style="fill:rgb(155,166,178);"/>
                </g>
                <g transform="matrix(0.932107,0,0,0.932107,404.685,210.313)">
                    <path d="M3609.03,1190.34C3609.03,1189.7 3608.51,1189.17 3607.87,1189.17L3605.54,1189.17C3604.89,1189.17 3604.37,1189.7 3604.37,1190.34L3604.37,1192.67C3604.37,1193.31 3604.89,1193.83 3605.54,1193.83L3607.87,1193.83C3608.51,1193.83 3609.03,1193.31 3609.03,1192.67L3609.03,1190.34Z" style="fill:rgb(155,166,178);"/>
                </g>
                <g transform="matrix(0.932107,0,0,0.932107,398.553,216.34)">
                    <path d="M3609.03,1190.34C3609.03,1189.7 3608.51,1189.17 3607.87,1189.17L3605.54,1189.17C3604.89,1189.17 3604.37,1189.7 3604.37,1190.34L3604.37,1192.67C3604.37,1193.31 3604.89,1193.83 3605.54,1193.83L3607.87,1193.83C3608.51,1193.83 3609.03,1193.31 3609.03,1192.67L3609.03,1190.34Z" style="fill:rgb(155,166,178);"/>
                </g>
                <g transform="matrix(0.932107,0,0,0.932107,404.685,216.34)">
                    <path d="M3609.03,1190.34C3609.03,1189.7 3608.51,1189.17 3607.87,1189.17L3605.54,1189.17C3604.89,1189.17 3604.37,1189.7 3604.37,1190.34L3604.37,1192.67C3604.37,1193.31 3604.89,1193.83 3605.54,1193.83L3607.87,1193.83C3608.51,1193.83 3609.03,1193.31 3609.03,1192.67L3609.03,1190.34Z" style="fill:rgb(155,166,178);"/>
                </g>
                <g transform="matrix(0.932107,0,0,0.932107,398.553,222.264)">
                    <path d="M3609.03,1190.34C3609.03,1189.7 3608.51,1189.17 3607.87,1189.17L3605.54,1189.17C3604.89,1189.17 3604.37,1189.7 3604.37,1190.34L3604.37,1192.67C3604.37,1193.31 3604.89,1193.83 3605.54,1193.83L3607.87,1193.83C3608.51,1193.83 3609.03,1193.31 3609.03,1192.67L3609.03,1190.34Z" style="fill:rgb(155,166,178);"/>
                </g>
                <g transform="matrix(0.932107,0,0,0.932107,404.685,222.264)">
                    <path d="M3609.03,1190.34C3609.03,1189.7 3608.51,1189.17 3607.87,1189.17L3605.54,1189.17C3604.89,1189.17 3604.37,1189.7 3604.37,1190.34L3604.37,1192.67C3604.37,1193.31 3604.89,1193.83 3605.54,1193.83L3607.87,1193.83C3608.51,1193.83 3609.03,1193.31 3609.03,1192.67L3609.03,1190.34Z" style="fill:rgb(155,166,178);"/>
                </g>
                <g transform="matrix(0.932107,0,0,0.932107,398.553,228.137)">
                    <path d="M3609.03,1190.34C3609.03,1189.7 3608.51,1189.17 3607.87,1189.17L3605.54,1189.17C3604.89,1189.17 3604.37,1189.7 3604.37,1190.34L3604.37,1192.67C3604.37,1193.31 3604.89,1193.83 3605.54,1193.83L3607.87,1193.83C3608.51,1193.83 3609.03,1193.31 3609.03,1192.67L3609.03,1190.34Z" style="fill:rgb(155,166,178);"/>
                </g>
                <g transform="matrix(0.932107,0,0,0.932107,404.685,228.137)">
                    <path d="M3609.03,1190.34C3609.03,1189.7 3608.51,1189.17 3607.87,1189.17L3605.54,1189.17C3604.89,1189.17 3604.37,1189.7 3604.37,1190.34L3604.37,1192.67C3604.37,1193.31 3604.89,1193.83 3605.54,1193.83L3607.87,1193.83C3608.51,1193.83 3609.03,1193.31 3609.03,1192.67L3609.03,1190.34Z" style="fill:rgb(155,166,178);"/>
                </g>
                <g transform="matrix(0.932107,0,0,0.932107,398.553,234.381)">
                    <path d="M3609.03,1190.34C3609.03,1189.7 3608.51,1189.17 3607.87,1189.17L3605.54,1189.17C3604.89,1189.17 3604.37,1189.7 3604.37,1190.34L3604.37,1192.67C3604.37,1193.31 3604.89,1193.83 3605.54,1193.83L3607.87,1193.83C3608.51,1193.83 3609.03,1193.31 3609.03,1192.67L3609.03,1190.34Z" style="fill:rgb(155,166,178);"/>
                </g>
                <g transform="matrix(0.932107,0,0,0.932107,404.685,234.381)">
                    <path d="M3609.03,1190.34C3609.03,1189.7 3608.51,1189.17 3607.87,1189.17L3605.54,1189.17C3604.89,1189.17 3604.37,1189.7 3604.37,1190.34L3604.37,1192.67C3604.37,1193.31 3604.89,1193.83 3605.54,1193.83L3607.87,1193.83C3608.51,1193.83 3609.03,1193.31 3609.03,1192.67L3609.03,1190.34Z" style="fill:rgb(155,166,178);"/>
                </g>
            </g>
            <g transform="matrix(0.922578,0,0,0.922578,267.236,112.721)">
                <g transform="matrix(0,4.42952,4.22254,0,3770.6,1310.13)">
                    <circle cx="0.5" cy="0" r="0.5" style="fill:url(#_Linear1);"/>
                </g>
                <g transform="matrix(0,-2.78433,-2.65422,0,3770.6,1315.15)">
                    <path d="M1,1C0.455,1 -0,0.552 -0,-0C-0,-0.552 0.455,-1 1,-1L1,1Z" style="fill:url(#_Linear2);fill-rule:nonzero;"/>
                </g>
                <g transform="matrix(0,4.42952,4.22254,0,3757.13,1310.13)">
                    <circle cx="0.5" cy="-0" r="0.5" style="fill:url(#_Linear3);"/>
                </g>
                <g transform="matrix(0,-2.78433,-2.65422,0,3757.13,1315.15)">
                    <path d="M1,1C0.455,1 -0,0.552 -0,0C-0,-0.552 0.455,-1 1,-1L1,1Z" style="fill:url(#_Linear4);fill-rule:nonzero;"/>
                </g>
                <g transform="matrix(-1.09914,8.91657,8.4999,1.15302,3764.48,1308.2)">
                    <path d="M0.098,-0.791L1.106,-0.791L0.885,0.919L-0.09,0.663L0.098,-0.791Z" style="fill:url(#_Linear5);fill-rule:nonzero;"/>
                </g>
                <g transform="matrix(0,4.42952,4.22254,0,3763.92,1310.13)">
                    <ellipse cx="0.5" cy="0" rx="0.5" ry="0.5" style="fill:url(#_Linear6);"/>
                </g>
                <g transform="matrix(0,-2.78433,-2.65422,0,3763.92,1315.15)">
                    <path d="M1,1C0.455,1 -0,0.552 -0,-0C-0,-0.552 0.455,-1 1,-1L1,1Z" style="fill:url(#_Linear7);fill-rule:nonzero;"/>
                </g>
                <g transform="matrix(46.7146,2.18917e-15,-2.08687e-15,-31.1286,3740.57,1335.21)">
                    <rect x="0.369" y="-0.5" width="0.262" height="1" style="fill:url(#_Linear8);"/>
                </g>
                <g transform="matrix(2.37198,-1.3657e-16,1.30188e-16,-3.60343,3762.74,1318.46)">
                    <path d="M3.973,-0.263C3.973,-0.326 3.936,-0.386 3.872,-0.431C3.807,-0.475 3.72,-0.5 3.629,-0.5C2.446,-0.5 -1.447,-0.5 -2.629,-0.5C-2.72,-0.5 -2.807,-0.475 -2.872,-0.431C-2.936,-0.386 -2.973,-0.326 -2.973,-0.263C-2.973,-0.104 -2.973,0.104 -2.973,0.263C-2.973,0.326 -2.936,0.386 -2.872,0.431C-2.807,0.475 -2.72,0.5 -2.629,0.5C-1.447,0.5 2.446,0.5 3.629,0.5C3.72,0.5 3.807,0.475 3.872,0.431C3.936,0.386 3.973,0.326 3.973,0.263C3.973,0.104 3.973,-0.104 3.973,-0.263Z" style="fill:url(#_Linear9);"/>
                </g>
                <g transform="matrix(0,3.3134,3.15857,0,3756.24,1303.53)">
                    <circle cx="0.5" cy="0" r="0.5" style="fill:url(#_Linear10);"/>
                </g>
                <g transform="matrix(0,-2.08275,-1.98543,0,3756.24,1307.33)">
                    <path d="M1,1C0.495,1 0,0.552 0,0C0,-0.552 0.495,-1 1,-1L1,1Z" style="fill:url(#_Linear11);fill-rule:nonzero;"/>
                </g>
                <g transform="matrix(0,3.3134,3.15857,0,3771.71,1303.53)">
                    <circle cx="0.5" cy="0" r="0.5" style="fill:url(#_Linear12);"/>
                </g>
                <g transform="matrix(0,-2.08275,-1.98543,0,3771.71,1307.33)">
                    <path d="M1,1C0.495,1 0,0.552 0,0C0,-0.552 0.495,-1 1,-1L1,1Z" style="fill:url(#_Linear13);fill-rule:nonzero;"/>
                </g>
                <g transform="matrix(5.67668,0,0,-5.95495,3761.09,1305.19)">
                    <path d="M1.863,-0.355C1.863,-0.394 1.848,-0.43 1.82,-0.458C1.793,-0.485 1.756,-0.5 1.718,-0.5C1.246,-0.5 -0.246,-0.5 -0.718,-0.5C-0.756,-0.5 -0.793,-0.485 -0.82,-0.458C-0.848,-0.43 -0.863,-0.394 -0.863,-0.355C-0.863,-0.166 -0.863,0.166 -0.863,0.355C-0.863,0.394 -0.848,0.43 -0.82,0.458C-0.793,0.485 -0.756,0.5 -0.718,0.5C-0.246,0.5 1.246,0.5 1.718,0.5C1.756,0.5 1.793,0.485 1.82,0.458C1.848,0.43 1.863,0.394 1.863,0.355C1.863,0.166 1.863,-0.166 1.863,-0.355Z" style="fill:url(#_Linear14);"/>
                </g>
                <g transform="matrix(0,3.3134,3.15857,0,3763.92,1303.53)">
                    <circle cx="0.5" cy="0" r="0.5" style="fill:url(#_Linear15);"/>
                </g>
                <g transform="matrix(0,-2.08275,-1.98543,0,3763.92,1307.33)">
                    <path d="M1,1C0.495,1 0,0.552 0,0C0,-0.552 0.495,-1 1,-1L1,1Z" style="fill:url(#_Linear16);fill-rule:nonzero;"/>
                </g>
                <g transform="matrix(0.111307,0,0,0.116764,3760.2,1298.83)">
                    <path d="M0,1.825C2.104,1.428 4.156,1.131 6.129,0.886C14.032,-0.065 20.676,-0.312 25.316,-0.454C27.638,-0.521 29.463,-0.54 30.708,-0.552C31.952,-0.559 32.615,-0.563 32.615,-0.563C32.615,-0.563 33.279,-0.559 34.524,-0.552C35.769,-0.54 37.593,-0.521 39.915,-0.454C44.556,-0.312 51.199,-0.065 59.102,0.886C61.076,1.131 63.127,1.428 65.231,1.825C66.44,2.061 67.677,2.326 68.907,2.663L73.363,2.7C72.96,2.477 72.571,2.307 72.189,2.165C69.836,1.316 67.619,0.967 65.454,0.642C63.295,0.336 61.212,0.132 59.213,-0.022C55.212,-0.296 51.56,-0.522 48.317,-0.621C45.077,-0.703 42.252,-0.775 39.925,-0.834C37.6,-0.875 35.772,-0.875 34.526,-0.873C33.28,-0.866 32.616,-0.863 32.616,-0.863C32.616,-0.863 31.951,-0.866 30.706,-0.873C29.46,-0.874 27.632,-0.875 25.306,-0.833C22.98,-0.774 20.155,-0.702 16.915,-0.619C13.671,-0.521 10.02,-0.289 6.02,-0.015C4.02,0.14 1.938,0.345 -0.221,0.651C-2.261,0.958 -4.354,1.302 -6.556,2.05L-1.316,2.092C-0.875,2 -0.435,1.91 0,1.825" style="fill:rgb(230,230,230);fill-rule:nonzero;"/>
                </g>
                <g transform="matrix(0.111307,0,0,0.116764,3759.49,1300.7)">
                    <path d="M0,1.053C2.518,0.599 4.971,0.26 7.33,-0.019C16.776,-1.103 24.71,-1.384 30.253,-1.545C33.026,-1.621 35.206,-1.643 36.692,-1.656C38.178,-1.664 38.971,-1.668 38.971,-1.668C38.971,-1.668 39.763,-1.664 41.25,-1.656C42.736,-1.643 44.916,-1.621 47.689,-1.545C53.232,-1.384 61.165,-1.103 70.611,-0.019C72.971,0.261 75.423,0.6 77.942,1.053C80.403,1.51 82.964,2.035 85.429,2.98L88.732,3.03C88.583,2.902 88.435,2.787 88.293,2.682C87.547,2.185 86.838,1.872 86.145,1.628C83.374,0.665 80.73,0.249 78.155,-0.132C75.584,-0.493 73.101,-0.739 70.717,-0.928C65.947,-1.268 61.588,-1.536 57.717,-1.662C53.848,-1.764 50.476,-1.852 47.698,-1.925C44.922,-1.975 42.739,-1.977 41.251,-1.977C39.764,-1.971 38.971,-1.968 38.971,-1.968C38.971,-1.968 38.177,-1.971 36.69,-1.977C35.202,-1.977 33.02,-1.975 30.243,-1.925C27.466,-1.875 24.096,-1.772 20.225,-1.659C16.354,-1.535 11.995,-1.261 7.225,-0.92C4.842,-0.731 2.359,-0.485 -0.211,-0.123C-2.708,0.248 -5.272,0.66 -7.951,1.563L-2.879,1.639C-1.913,1.424 -0.948,1.229 0,1.053" style="fill:rgb(230,230,230);fill-rule:nonzero;"/>
                </g>
                <g transform="matrix(0.111307,0,0,0.116764,3761.41,1297.28)">
                    <path d="M0,0.814C6.749,-0 12.422,-0.212 16.386,-0.335C20.352,-0.446 22.62,-0.43 22.62,-0.43C22.62,-0.43 24.889,-0.446 28.855,-0.335C32.818,-0.212 38.492,-0 45.24,0.814C46.838,1.013 48.499,1.258 50.197,1.571L56.122,1.589C54.221,0.961 52.439,0.684 50.697,0.435C48.845,0.187 47.062,0.026 45.351,-0.094C41.927,-0.297 38.807,-0.483 36.035,-0.554C33.266,-0.616 30.852,-0.67 28.865,-0.715C24.89,-0.775 22.621,-0.73 22.621,-0.73C22.621,-0.73 20.35,-0.775 16.376,-0.714C14.388,-0.669 11.974,-0.614 9.206,-0.551C6.434,-0.482 3.314,-0.291 -0.11,-0.087C-1.821,0.034 -3.604,0.195 -5.454,0.444C-6.986,0.663 -8.55,0.909 -10.195,1.388L-3.991,1.407C-2.631,1.176 -1.292,0.975 0,0.814" style="fill:rgb(230,230,230);fill-rule:nonzero;"/>
                </g>
                <g transform="matrix(0,9.70785,9.25422,0,3763.93,1292.5)">
                    <path d="M1,-0.577L1,0.577L-0,0L1,-0.577Z" style="fill:url(#_Linear17);fill-rule:nonzero;"/>
                </g>
                <g transform="matrix(0.111307,0,0,0.116764,3760.98,1295.97)">
                    <path d="M0,2.516C1.404,1.937 2.89,1.617 4.313,1.339C5.743,1.068 7.138,0.865 8.48,0.697C13.854,0.046 18.374,-0.126 21.531,-0.225C24.691,-0.315 26.498,-0.303 26.498,-0.303C26.498,-0.303 28.305,-0.315 31.464,-0.225C34.621,-0.125 39.141,0.046 44.516,0.697C45.858,0.865 47.252,1.068 48.682,1.34C50.106,1.618 51.591,1.937 52.996,2.516C53.345,2.661 53.681,2.84 53.965,3.058C54,3.087 54.029,3.117 54.061,3.147L55.932,3.16C55.887,2.978 55.829,2.809 55.752,2.687C55.62,2.43 55.485,2.286 55.35,2.146C55.204,1.983 55.086,1.91 54.957,1.81C54.455,1.46 54.014,1.276 53.593,1.126C51.916,0.553 50.397,0.351 48.905,0.156C47.42,-0.023 45.994,-0.133 44.627,-0.211C41.889,-0.332 39.401,-0.468 37.19,-0.505C34.983,-0.544 33.059,-0.577 31.474,-0.605C28.306,-0.644 26.498,-0.603 26.498,-0.603C26.498,-0.603 24.689,-0.644 21.522,-0.604C19.937,-0.576 18.013,-0.542 15.806,-0.503C13.594,-0.467 11.107,-0.325 8.37,-0.203C7.003,-0.125 5.577,-0.015 4.092,0.165C2.601,0.361 1.082,0.564 -0.593,1.136C-1.013,1.286 -1.454,1.47 -1.953,1.819C-2.083,1.919 -2.2,1.992 -2.345,2.154L-2.546,2.377C-2.603,2.438 -2.699,2.607 -2.768,2.751L-0.516,2.766C-0.344,2.674 -0.164,2.59 0,2.516" style="fill:rgb(230,230,230);fill-rule:nonzero;"/>
                </g>
                <g transform="matrix(0,5.21545,4.97173,0,3763.93,1292.48)">
                    <circle cx="0.5" cy="0" r="0.5" style="fill:url(#_Linear18);"/>
                </g>
                <g transform="matrix(0.111307,0,0,0.116764,3767.21,1297.1)">
                    <path d="M0,-6.077C-0.012,-6.208 -0.041,-6.336 -0.072,-6.46L-1.944,-6.473C-1.72,-6.266 -1.572,-6.052 -1.704,-5.789C-1.81,-5.579 -2.153,-5.31 -2.476,-5.139C-2.815,-4.957 -3.183,-4.806 -3.56,-4.673C-5.076,-4.149 -6.712,-3.827 -8.374,-3.55C-11.707,-3.01 -15.194,-2.699 -18.739,-2.49C-22.286,-2.285 -25.897,-2.199 -29.507,-2.205C-33.117,-2.197 -36.727,-2.285 -40.274,-2.489C-43.819,-2.698 -47.307,-3.01 -50.639,-3.549C-52.301,-3.827 -53.938,-4.149 -55.454,-4.673C-56.172,-4.94 -57.014,-5.271 -57.319,-5.816C-57.47,-6.237 -57.024,-6.583 -56.521,-6.853L-58.773,-6.869C-58.781,-6.851 -58.793,-6.831 -58.8,-6.815C-58.838,-6.732 -58.871,-6.647 -58.899,-6.562L-58.938,-6.434L-58.947,-6.398L-58.983,-6.253C-58.966,-6.444 -59.016,-5.959 -59.008,-5.958L-59,-5.838C-58.993,-5.758 -58.983,-5.678 -58.97,-5.598C-58.944,-5.435 -58.904,-5.274 -58.848,-5.165C-58.742,-4.91 -58.601,-4.677 -58.477,-4.54L-58.275,-4.303L-58.091,-4.135C-57.83,-3.895 -57.611,-3.764 -57.377,-3.611C-56.926,-3.337 -56.497,-3.135 -56.072,-2.954C-54.379,-2.253 -52.709,-1.819 -50.996,-1.414C-49.286,-1.014 -47.551,-0.689 -45.79,-0.393C-44.029,-0.11 -42.241,0.074 -40.44,0.26C-39.54,0.341 -38.635,0.423 -37.728,0.505C-36.82,0.551 -35.909,0.596 -34.997,0.642C-33.182,0.718 -31.319,0.767 -29.507,0.792C-27.674,0.777 -25.842,0.72 -24.017,0.646C-22.191,0.581 -20.372,0.467 -18.572,0.271C-16.771,0.088 -14.984,-0.106 -13.221,-0.376C-11.461,-0.672 -9.725,-0.998 -8.015,-1.398C-6.302,-1.805 -4.631,-2.24 -2.937,-2.941C-2.512,-3.123 -2.082,-3.325 -1.63,-3.599C-1.396,-3.754 -1.176,-3.885 -0.914,-4.126L-0.73,-4.294L-0.527,-4.532C-0.453,-4.631 -0.417,-4.656 -0.32,-4.82C-0.228,-4.981 -0.149,-5.157 -0.092,-5.334C-0.02,-5.562 -0.032,-5.583 -0.025,-5.629L-0.013,-5.74C-0.014,-5.687 0.021,-6.259 0,-6.077" style="fill:rgb(230,230,230);fill-rule:nonzero;"/>
                </g>
                <g transform="matrix(0.111307,0,0,0.116764,3768.01,1298.37)">
                    <path d="M0,-4.855C-0.035,-5.205 -0.129,-5.556 -0.274,-5.782C-0.415,-6.063 -0.567,-6.225 -0.72,-6.385C-0.881,-6.567 -1.02,-6.654 -1.169,-6.771C-1.75,-7.182 -2.28,-7.413 -2.793,-7.6C-2.92,-7.645 -3.042,-7.675 -3.168,-7.716L-9.093,-7.734C-8.999,-7.717 -8.909,-7.705 -8.816,-7.687C-7.027,-7.339 -5.161,-6.939 -3.39,-6.21C-2.949,-6.028 -2.524,-5.802 -2.16,-5.523C-1.807,-5.233 -1.519,-4.894 -1.719,-4.494C-1.87,-4.191 -2.304,-3.863 -2.716,-3.642C-3.145,-3.411 -3.608,-3.221 -4.083,-3.053C-5.992,-2.392 -8.048,-1.987 -10.136,-1.637C-14.322,-0.957 -18.7,-0.564 -23.151,-0.299C-27.604,-0.04 -32.138,0.071 -36.668,0.065C-41.203,0.073 -45.734,-0.04 -50.188,-0.298C-54.639,-0.563 -59.017,-0.957 -63.203,-1.637C-65.291,-1.986 -67.347,-2.391 -69.256,-3.052C-69.731,-3.221 -70.194,-3.411 -70.624,-3.642C-71.039,-3.875 -71.46,-4.163 -71.63,-4.521C-71.68,-4.595 -71.674,-4.725 -71.69,-4.757C-71.67,-4.88 -71.652,-5.017 -71.598,-5.065C-71.534,-5.206 -71.353,-5.392 -71.179,-5.524C-70.816,-5.802 -70.39,-6.028 -69.949,-6.21C-68.178,-6.94 -66.312,-7.339 -64.523,-7.688C-64.103,-7.767 -63.695,-7.828 -63.281,-7.898L-69.484,-7.917C-69.834,-7.815 -70.183,-7.717 -70.542,-7.59C-71.054,-7.402 -71.583,-7.171 -72.163,-6.762C-72.311,-6.646 -72.45,-6.559 -72.61,-6.377L-72.836,-6.125C-72.908,-6.046 -73.032,-5.826 -73.105,-5.665C-73.145,-5.576 -73.181,-5.485 -73.213,-5.395L-73.256,-5.259L-73.267,-5.213L-73.308,-5.031C-73.292,-5.219 -73.343,-4.731 -73.334,-4.726L-73.325,-4.598L-73.292,-4.338C-73.263,-4.163 -73.222,-3.99 -73.159,-3.869C-73.041,-3.592 -72.889,-3.335 -72.747,-3.181L-72.519,-2.916L-72.305,-2.723C-72.006,-2.449 -71.742,-2.294 -71.463,-2.114C-70.922,-1.791 -70.397,-1.55 -69.874,-1.334C-67.788,-0.496 -65.699,0.022 -63.56,0.499C-61.424,0.971 -59.252,1.349 -57.049,1.69C-54.845,2.018 -52.608,2.237 -50.354,2.45C-49.227,2.544 -48.095,2.637 -46.96,2.731C-45.823,2.785 -44.683,2.839 -43.541,2.893C-41.272,2.982 -38.933,3.038 -36.679,3.062C-34.366,3.047 -32.087,2.984 -29.798,2.897C-27.513,2.818 -25.238,2.685 -22.984,2.462C-20.73,2.252 -18.494,2.022 -16.288,1.707C-14.085,1.365 -11.913,0.987 -9.776,0.514C-7.637,0.036 -5.548,-0.482 -3.461,-1.321C-2.937,-1.538 -2.412,-1.779 -1.87,-2.102C-1.591,-2.283 -1.326,-2.439 -1.026,-2.714L-0.811,-2.907L-0.583,-3.173C-0.501,-3.282 -0.455,-3.316 -0.353,-3.491C-0.254,-3.663 -0.17,-3.85 -0.107,-4.038C-0.028,-4.277 -0.038,-4.311 -0.029,-4.369L-0.018,-4.462L-0.013,-4.509C-0.012,-4.459 0.021,-5.034 0,-4.855" style="fill:rgb(230,230,230);fill-rule:nonzero;"/>
                </g>
                <g transform="matrix(0.111307,0,0,0.116764,3769.48,1302.01)">
                    <path d="M0,-6.304C-0.024,-6.509 -0.064,-6.717 -0.118,-6.915C-0.17,-7.118 -0.263,-7.24 -0.345,-7.402C-0.561,-7.776 -0.797,-8.024 -1.033,-8.228L-4.336,-8.278C-4.288,-8.259 -4.239,-8.246 -4.191,-8.228C-3.564,-7.986 -2.96,-7.676 -2.425,-7.297C-1.912,-6.913 -1.44,-6.383 -1.754,-5.803C-2.006,-5.328 -2.638,-4.906 -3.229,-4.6C-3.84,-4.281 -4.502,-4.035 -5.17,-3.803C-7.864,-2.914 -10.745,-2.374 -13.67,-1.903C-19.535,-0.991 -25.66,-0.46 -31.887,-0.103C-38.115,0.247 -44.457,0.399 -50.793,0.394C-57.134,0.401 -63.472,0.247 -69.702,-0.103C-75.929,-0.459 -82.054,-0.99 -87.918,-1.903C-90.844,-2.373 -93.724,-2.914 -96.419,-3.803C-97.087,-4.035 -97.749,-4.28 -98.36,-4.6C-98.955,-4.917 -99.573,-5.301 -99.845,-5.829C-99.928,-5.943 -99.917,-6.125 -99.939,-6.199C-99.914,-6.376 -99.882,-6.553 -99.799,-6.639C-99.683,-6.866 -99.418,-7.111 -99.164,-7.298C-98.628,-7.677 -98.025,-7.986 -97.398,-8.228C-95.836,-8.837 -94.236,-9.263 -92.644,-9.618L-97.716,-9.695C-97.799,-9.667 -97.88,-9.648 -97.964,-9.619C-98.657,-9.375 -99.365,-9.062 -100.109,-8.566C-100.301,-8.412 -100.477,-8.324 -100.677,-8.103C-100.867,-7.893 -101.049,-7.77 -101.283,-7.293C-101.334,-7.191 -101.38,-7.086 -101.421,-6.981C-101.463,-6.874 -101.501,-6.757 -101.5,-6.739L-101.556,-6.484C-101.539,-6.674 -101.597,-6.163 -101.586,-6.151L-101.572,-5.997C-101.561,-5.894 -101.546,-5.79 -101.528,-5.687C-101.493,-5.474 -101.437,-5.281 -101.356,-5.137C-101.28,-4.978 -101.195,-4.821 -101.105,-4.67C-101.016,-4.541 -100.926,-4.444 -100.832,-4.332C-100.639,-4.095 -100.453,-3.94 -100.268,-3.791C-100.077,-3.626 -99.893,-3.497 -99.712,-3.386C-99.53,-3.271 -99.342,-3.14 -99.164,-3.053C-98.439,-2.644 -97.727,-2.354 -97.009,-2.074C-94.146,-1.015 -91.234,-0.362 -88.26,0.236C-85.287,0.826 -82.259,1.291 -79.189,1.708C-76.118,2.112 -73.001,2.388 -69.861,2.647C-68.29,2.759 -66.713,2.873 -65.131,2.986C-63.547,3.054 -61.959,3.121 -60.368,3.189C-57.2,3.299 -53.961,3.366 -50.804,3.391C-47.589,3.376 -44.407,3.302 -41.22,3.193C-38.037,3.093 -34.867,2.927 -31.727,2.658C-28.586,2.403 -25.47,2.115 -22.398,1.726C-19.328,1.308 -16.3,0.842 -13.326,0.251C-10.352,-0.348 -7.44,-1.001 -4.575,-2.062C-3.857,-2.342 -3.144,-2.632 -2.418,-3.041C-2.241,-3.128 -2.052,-3.26 -1.869,-3.376C-1.689,-3.487 -1.504,-3.615 -1.313,-3.782C-1.127,-3.93 -0.941,-4.086 -0.747,-4.324C-0.65,-4.441 -0.57,-4.523 -0.466,-4.673C-0.346,-4.868 -0.239,-5.083 -0.157,-5.3C-0.119,-5.398 -0.071,-5.54 -0.059,-5.601L-0.021,-5.861L-0.012,-5.926C-0.01,-5.879 0.023,-6.483 0,-6.304" style="fill:rgb(230,230,230);fill-rule:nonzero;"/>
                </g>
                <g transform="matrix(0.111307,0,0,0.116764,3768.58,1300.1)">
                    <path d="M0,-5.661C-0.039,-6.032 -0.135,-6.405 -0.292,-6.648C-0.441,-6.949 -0.608,-7.127 -0.775,-7.302C-0.949,-7.502 -1.105,-7.601 -1.27,-7.731C-1.498,-7.894 -1.72,-8.027 -1.939,-8.148L-6.395,-8.184C-5.491,-7.936 -4.591,-7.654 -3.71,-7.292C-3.193,-7.078 -2.692,-6.813 -2.261,-6.484C-1.845,-6.146 -1.49,-5.721 -1.732,-5.238C-1.92,-4.857 -2.432,-4.481 -2.917,-4.217C-3.422,-3.945 -3.966,-3.722 -4.523,-3.524C-6.763,-2.748 -9.17,-2.273 -11.615,-1.863C-16.518,-1.065 -21.645,-0.603 -26.857,-0.291C-32.071,0.014 -37.381,0.146 -42.685,0.14C-47.995,0.147 -53.3,0.014 -58.516,-0.291C-63.728,-0.602 -68.854,-1.064 -73.758,-1.862C-76.203,-2.272 -78.61,-2.747 -80.85,-3.524C-81.407,-3.721 -81.951,-3.945 -82.456,-4.217C-82.946,-4.493 -83.444,-4.829 -83.651,-5.265C-83.711,-5.358 -83.706,-5.511 -83.723,-5.563C-83.7,-5.707 -83.68,-5.866 -83.614,-5.932C-83.531,-6.111 -83.318,-6.327 -83.112,-6.484C-82.681,-6.813 -82.18,-7.079 -81.663,-7.292C-80.014,-7.97 -78.302,-8.401 -76.618,-8.755L-81.858,-8.798C-81.992,-8.752 -82.121,-8.721 -82.255,-8.672C-82.844,-8.453 -83.449,-8.183 -84.096,-7.722C-84.26,-7.592 -84.416,-7.493 -84.589,-7.294L-84.836,-7.019C-84.915,-6.932 -85.042,-6.702 -85.121,-6.531C-85.164,-6.438 -85.202,-6.342 -85.236,-6.247L-85.283,-6.104L-85.295,-6.051L-85.342,-5.837C-85.326,-6.022 -85.379,-5.532 -85.369,-5.525L-85.358,-5.388L-85.322,-5.113C-85.292,-4.927 -85.249,-4.743 -85.18,-4.613C-85.053,-4.317 -84.891,-4.041 -84.733,-3.872L-84.484,-3.582L-84.245,-3.37C-83.914,-3.067 -83.611,-2.891 -83.296,-2.689C-82.678,-2.325 -82.073,-2.05 -81.467,-1.805C-79.051,-0.852 -76.61,-0.265 -74.114,0.273C-71.62,0.805 -69.081,1.228 -66.506,1.608C-63.931,1.974 -61.316,2.222 -58.682,2.458C-57.364,2.562 -56.041,2.665 -54.714,2.769C-53.386,2.83 -52.053,2.89 -50.718,2.951C-48.063,3.051 -45.338,3.112 -42.696,3.137C-39.995,3.122 -37.329,3.054 -34.654,2.956C-31.984,2.866 -29.324,2.716 -26.69,2.47C-24.056,2.237 -21.442,1.977 -18.865,1.625C-16.29,1.245 -13.751,0.821 -11.256,0.289C-8.759,-0.25 -6.318,-0.838 -3.901,-1.793C-3.295,-2.038 -2.689,-2.313 -2.071,-2.678C-1.755,-2.88 -1.451,-3.057 -1.119,-3.36L-0.88,-3.573L-0.63,-3.864C-0.542,-3.982 -0.487,-4.022 -0.38,-4.206C-0.277,-4.388 -0.187,-4.585 -0.12,-4.783C-0.034,-5.031 -0.043,-5.075 -0.033,-5.144L-0.019,-5.253L-0.012,-5.307C-0.011,-5.26 0.021,-5.837 0,-5.661" style="fill:rgb(230,230,230);fill-rule:nonzero;"/>
                </g>
            </g>
        </g>
    </g>
    <defs>
        <linearGradient id="_Linear1" x1="0" y1="0" x2="1" y2="0" gradientUnits="userSpaceOnUse" gradientTransform="matrix(1,0,0,-1,0,3.31191e-05)"><stop offset="0" style="stop-color:rgb(235,189,42);stop-opacity:1"/><stop offset="1" style="stop-color:rgb(227,122,39);stop-opacity:1"/></linearGradient>
        <linearGradient id="_Linear2" x1="0" y1="0" x2="1" y2="0" gradientUnits="userSpaceOnUse" gradientTransform="matrix(1,0,0,-1,0,-5.26884e-05)"><stop offset="0" style="stop-color:rgb(149,179,143);stop-opacity:1"/><stop offset="1" style="stop-color:rgb(96,150,136);stop-opacity:1"/></linearGradient>
        <linearGradient id="_Linear3" x1="0" y1="0" x2="1" y2="0" gradientUnits="userSpaceOnUse" gradientTransform="matrix(1,0,0,-1,0,-1.96015e-05)"><stop offset="0" style="stop-color:rgb(235,189,42);stop-opacity:1"/><stop offset="1" style="stop-color:rgb(227,122,39);stop-opacity:1"/></linearGradient>
        <linearGradient id="_Linear4" x1="0" y1="0" x2="1" y2="0" gradientUnits="userSpaceOnUse" gradientTransform="matrix(1,0,0,-1,0,3.11836e-05)"><stop offset="0" style="stop-color:rgb(149,179,143);stop-opacity:1"/><stop offset="1" style="stop-color:rgb(96,150,136);stop-opacity:1"/></linearGradient>
        <linearGradient id="_Linear5" x1="0" y1="0" x2="1" y2="0" gradientUnits="userSpaceOnUse" gradientTransform="matrix(0.991743,0.128244,0.128244,-0.991743,0.00412867,-0.064122)"><stop offset="0" style="stop-color:rgb(97,147,135);stop-opacity:1"/><stop offset="1" style="stop-color:rgb(108,152,137);stop-opacity:1"/></linearGradient>
        <linearGradient id="_Linear6" x1="0" y1="0" x2="1" y2="0" gradientUnits="userSpaceOnUse" gradientTransform="matrix(1,0,0,-1,0,6.75879e-06)"><stop offset="0" style="stop-color:rgb(235,189,42);stop-opacity:1"/><stop offset="1" style="stop-color:rgb(227,122,39);stop-opacity:1"/></linearGradient>
        <linearGradient id="_Linear7" x1="0" y1="0" x2="1" y2="0" gradientUnits="userSpaceOnUse" gradientTransform="matrix(1,0,0,-1,0,-1.07524e-05)"><stop offset="0" style="stop-color:rgb(149,179,143);stop-opacity:1"/><stop offset="1" style="stop-color:rgb(96,150,136);stop-opacity:1"/></linearGradient>
        <linearGradient id="_Linear8" x1="0" y1="0" x2="1" y2="0" gradientUnits="userSpaceOnUse" gradientTransform="matrix(0,-1,-1,-0,0.5,0.5)"><stop offset="0" style="stop-color:rgb(115,153,132);stop-opacity:1"/><stop offset="1" style="stop-color:rgb(108,152,137);stop-opacity:1"/></linearGradient>
        <linearGradient id="_Linear9" x1="0" y1="0" x2="1" y2="0" gradientUnits="userSpaceOnUse" gradientTransform="matrix(0,-1,-1,-0,0.499997,0.499997)"><stop offset="0" style="stop-color:rgb(97,147,135);stop-opacity:1"/><stop offset="1" style="stop-color:rgb(148,176,138);stop-opacity:1"/></linearGradient>
        <linearGradient id="_Linear10" x1="0" y1="0" x2="1" y2="0" gradientUnits="userSpaceOnUse" gradientTransform="matrix(1,0,0,-1,0,9.0355e-06)"><stop offset="0" style="stop-color:rgb(235,189,42);stop-opacity:1"/><stop offset="1" style="stop-color:rgb(227,122,39);stop-opacity:1"/></linearGradient>
        <linearGradient id="_Linear11" x1="0" y1="0" x2="1" y2="0" gradientUnits="userSpaceOnUse" gradientTransform="matrix(1,0,0,-1,0,-1.43743e-05)"><stop offset="0" style="stop-color:rgb(149,179,143);stop-opacity:1"/><stop offset="1" style="stop-color:rgb(96,150,136);stop-opacity:1"/></linearGradient>
        <linearGradient id="_Linear12" x1="0" y1="0" x2="1" y2="0" gradientUnits="userSpaceOnUse" gradientTransform="matrix(1,0,0,-1,0,9.0355e-06)"><stop offset="0" style="stop-color:rgb(235,189,42);stop-opacity:1"/><stop offset="1" style="stop-color:rgb(227,122,39);stop-opacity:1"/></linearGradient>
        <linearGradient id="_Linear13" x1="0" y1="0" x2="1" y2="0" gradientUnits="userSpaceOnUse" gradientTransform="matrix(1,0,0,-1,0,4.16878e-05)"><stop offset="0" style="stop-color:rgb(149,179,143);stop-opacity:1"/><stop offset="1" style="stop-color:rgb(96,150,136);stop-opacity:1"/></linearGradient>
        <linearGradient id="_Linear14" x1="0" y1="0" x2="1" y2="0" gradientUnits="userSpaceOnUse" gradientTransform="matrix(0,-1,-1,-0,0.5,0.5)"><stop offset="0" style="stop-color:rgb(99,141,119);stop-opacity:1"/><stop offset="1" style="stop-color:rgb(148,176,138);stop-opacity:1"/></linearGradient>
        <linearGradient id="_Linear15" x1="0" y1="0" x2="1" y2="0" gradientUnits="userSpaceOnUse" gradientTransform="matrix(1,0,0,-1,0,9.0355e-06)"><stop offset="0" style="stop-color:rgb(235,189,42);stop-opacity:1"/><stop offset="1" style="stop-color:rgb(227,122,39);stop-opacity:1"/></linearGradient>
        <linearGradient id="_Linear16" x1="0" y1="0" x2="1" y2="0" gradientUnits="userSpaceOnUse" gradientTransform="matrix(1,0,0,-1,0,4.16878e-05)"><stop offset="0" style="stop-color:rgb(149,179,143);stop-opacity:1"/><stop offset="1" style="stop-color:rgb(96,150,136);stop-opacity:1"/></linearGradient>
        <linearGradient id="_Linear17" x1="0" y1="0" x2="1" y2="0" gradientUnits="userSpaceOnUse" gradientTransform="matrix(1,0,0,-1,0,1.20278e-05)"><stop offset="0" style="stop-color:rgb(97,147,135);stop-opacity:1"/><stop offset="1" style="stop-color:rgb(108,152,137);stop-opacity:1"/></linearGradient>
        <linearGradient id="_Linear18" x1="0" y1="0" x2="1" y2="0" gradientUnits="userSpaceOnUse" gradientTransform="matrix(1,0,0,-1,0,2.23881e-05)"><stop offset="0" style="stop-color:rgb(235,189,42);stop-opacity:1"/><stop offset="1" style="stop-color:rgb(227,122,39);stop-opacity:1"/></linearGradient>
    </defs>
</svg>
