<?xml version="1.0" encoding="UTF-8" standalone="no"?>
<!DOCTYPE svg PUBLIC "-//W3C//DTD SVG 1.1//EN" "http://www.w3.org/Graphics/SVG/1.1/DTD/svg11.dtd">
<svg width="100%" height="100%" viewBox="0 0 101 101" version="1.1" xmlns="http://www.w3.org/2000/svg" xmlns:xlink="http://www.w3.org/1999/xlink" xml:space="preserve" xmlns:serif="http://www.serif.com/" style="fill-rule:evenodd;clip-rule:evenodd;stroke-linejoin:round;stroke-miterlimit:2;">
    <g transform="matrix(1,0,0,1,-3226,-254)">
        <g id="hex_scout_boat" transform="matrix(1,0,0,1,-0.634653,-1)">
            <rect x="3226.64" y="255" width="100.045" height="100.045" style="fill:none;"/>
            <g transform="matrix(1,0,0,1.2374,-2.6462,-77.1492)">
                <path d="M3308.21,317.056C3308.21,302.86 3284.23,275.053 3279.3,275.053C3274.38,275.053 3249.34,302.731 3249.64,316.812C3249.93,330.159 3257.33,342.651 3261.53,342.651L3295.42,342.651C3299.47,342.651 3308.21,328.933 3308.21,317.056Z" style="fill:rgb(195,136,56);"/>
            </g>
            <g transform="matrix(0.650889,0,0,0.9055,1136.64,39.6829)">
                <path d="M3258.33,274.318C3258.33,272.687 3256.49,271.363 3254.22,271.363C3251.95,271.363 3250.11,272.687 3250.11,274.318L3250.11,337.494C3250.11,339.124 3251.95,340.448 3254.22,340.448C3256.49,340.448 3258.33,339.124 3258.33,337.494L3258.33,274.318Z" style="fill:rgb(215,164,97);"/>
            </g>
            <g transform="matrix(0.650889,0,0,1.15735,1147.55,-44.5641)">
                <path d="M3258.33,273.675C3258.33,272.399 3256.49,271.363 3254.22,271.363C3251.95,271.363 3250.11,272.399 3250.11,273.675L3250.11,338.137C3250.11,339.413 3251.95,340.448 3254.22,340.448C3256.49,340.448 3258.33,339.413 3258.33,338.137L3258.33,273.675Z" style="fill:rgb(215,164,97);"/>
            </g>
            <g transform="matrix(0.650889,0,0,1.28153,1158.45,-86.8399)">
                <path d="M3258.33,273.451C3258.33,272.299 3256.49,271.363 3254.22,271.363C3251.95,271.363 3250.11,272.299 3250.11,273.451L3250.11,338.361C3250.11,339.513 3251.95,340.448 3254.22,340.448C3256.49,340.448 3258.33,339.513 3258.33,338.361L3258.33,273.451Z" style="fill:rgb(215,164,97);"/>
            </g>
            <g transform="matrix(0.650889,0,0,1.15735,1169.35,-44.5641)">
                <path d="M3258.33,273.675C3258.33,272.399 3256.49,271.363 3254.22,271.363C3251.95,271.363 3250.11,272.399 3250.11,273.675L3250.11,338.137C3250.11,339.413 3251.95,340.448 3254.22,340.448C3256.49,340.448 3258.33,339.413 3258.33,338.137L3258.33,273.675Z" style="fill:rgb(215,164,97);"/>
            </g>
            <g transform="matrix(0.650889,0,0,0.888437,1179.35,44.3132)">
                <path d="M3258.33,274.374C3258.33,272.713 3256.49,271.363 3254.22,271.363C3251.95,271.363 3250.11,272.713 3250.11,274.374L3250.11,337.437C3250.11,339.099 3251.95,340.448 3254.22,340.448C3256.49,340.448 3258.33,339.099 3258.33,337.437L3258.33,274.374Z" style="fill:rgb(215,164,97);"/>
            </g>
            <g transform="matrix(1,0,0,1.2374,-2.6462,-77.1492)">
                <path d="M3312.71,317.056C3312.71,312.091 3310.15,305.574 3306.32,299.045C3300.86,289.718 3292.92,280.317 3287.51,275.587C3285.57,273.894 3283.85,272.736 3282.58,272.166C3281.32,271.595 3280.19,271.412 3279.3,271.412C3278.43,271.412 3277.31,271.59 3276.05,272.149C3274.77,272.712 3273.02,273.856 3271.04,275.527C3265.47,280.235 3257.23,289.592 3251.6,298.867C3247.64,305.398 3245.03,311.919 3245.14,316.875C3245.36,327.014 3249.44,336.68 3253.39,341.578C3256.09,344.931 3259.34,346.291 3261.53,346.291C3261.53,346.291 3295.42,346.291 3295.42,346.291C3296.48,346.291 3297.69,346.058 3298.95,345.442C3300.35,344.758 3302.06,343.389 3303.71,341.392C3308.03,336.176 3312.71,326.126 3312.71,317.056ZM3308.21,317.056C3308.21,302.86 3284.23,275.053 3279.3,275.053C3274.38,275.053 3249.34,302.731 3249.64,316.812C3249.93,330.159 3257.33,342.651 3261.53,342.651L3295.42,342.651C3299.47,342.651 3308.21,328.933 3308.21,317.056Z" style="fill:rgb(119,47,8);"/>
            </g>
        </g>
    </g>
</svg>
