<?xml version="1.0" encoding="UTF-8" standalone="no"?>
<!DOCTYPE svg PUBLIC "-//W3C//DTD SVG 1.1//EN" "http://www.w3.org/Graphics/SVG/1.1/DTD/svg11.dtd">
<svg width="100%" height="100%" viewBox="0 0 100 100" version="1.1" xmlns="http://www.w3.org/2000/svg" xmlns:xlink="http://www.w3.org/1999/xlink" xml:space="preserve" xmlns:serif="http://www.serif.com/" style="fill-rule:evenodd;clip-rule:evenodd;stroke-linecap:round;">
    <g transform="matrix(1,0,0,1,-374.918,-1217.61)">
        <g id="hex_town_3" transform="matrix(1,0,0,1,-2660.08,968.612)">
            <rect x="3035" y="249" width="100" height="100" style="fill:none;"/>
            <g transform="matrix(0.469917,0,0,0.469917,1294.94,-344.175)">
                <g transform="matrix(1,0,0,1,0.591999,5.19038)">
                    <rect x="3729.23" y="1315.46" width="61.529" height="31.214" style="fill:rgb(187,105,62);"/>
                </g>
                <g transform="matrix(1,0,0,1.21866,1.38461,-294.619)">
                    <path d="M3763.56,1342.79C3763.56,1341.36 3762.14,1340.19 3760.4,1340.19C3759.62,1340.19 3758.78,1340.19 3758,1340.19C3756.26,1340.19 3754.85,1341.36 3754.85,1342.79C3754.85,1346 3754.85,1351.06 3754.85,1351.06L3763.56,1351.06L3763.56,1342.79Z" style="fill:none;stroke:black;stroke-width:1.71px;"/>
                    <path d="M3763.56,1342.79C3763.56,1341.36 3762.14,1340.19 3760.4,1340.19C3759.62,1340.19 3758.78,1340.19 3758,1340.19C3756.26,1340.19 3754.85,1341.36 3754.85,1342.79C3754.85,1346 3754.85,1351.06 3754.85,1351.06L3763.56,1351.06L3763.56,1342.79Z" style="fill:rgb(230,230,235);"/>
                </g>
                <g transform="matrix(1,0,0,1,1.83327,0.808402)">
                    <path d="M3737.02,1339.54L3737.02,1346.2C3737.02,1346.56 3736.73,1346.85 3736.37,1346.85L3732.94,1346.85C3732.58,1346.85 3732.29,1346.56 3732.29,1346.2L3732.29,1339.54C3732.29,1339.17 3732.58,1338.88 3732.94,1338.88C3732.94,1338.88 3736.37,1338.88 3736.37,1338.88C3736.73,1338.88 3737.02,1339.17 3737.02,1339.54Z" style="fill:none;stroke:black;stroke-width:1.91px;"/>
                    <path d="M3737.02,1339.54L3737.02,1346.2C3737.02,1346.56 3736.73,1346.85 3736.37,1346.85L3732.94,1346.85C3732.58,1346.85 3732.29,1346.56 3732.29,1346.2L3732.29,1339.54C3732.29,1339.17 3732.58,1338.88 3732.94,1338.88C3732.94,1338.88 3736.37,1338.88 3736.37,1338.88C3736.73,1338.88 3737.02,1339.17 3737.02,1339.54Z" style="fill:rgb(221,221,221);"/>
                </g>
                <g transform="matrix(1,0,0,1,37.9944,0.808402)">
                    <path d="M3737.02,1339.54L3737.02,1346.2C3737.02,1346.56 3736.73,1346.85 3736.37,1346.85L3732.94,1346.85C3732.58,1346.85 3732.29,1346.56 3732.29,1346.2C3732.29,1346.2 3732.29,1339.54 3732.29,1339.54C3732.29,1339.17 3732.58,1338.88 3732.94,1338.88C3732.94,1338.88 3736.37,1338.88 3736.37,1338.88C3736.73,1338.88 3737.02,1339.17 3737.02,1339.54Z" style="fill:none;stroke:black;stroke-width:1.91px;"/>
                    <path d="M3737.02,1339.54L3737.02,1346.2C3737.02,1346.56 3736.73,1346.85 3736.37,1346.85L3732.94,1346.85C3732.58,1346.85 3732.29,1346.56 3732.29,1346.2C3732.29,1346.2 3732.29,1339.54 3732.29,1339.54C3732.29,1339.17 3732.58,1338.88 3732.94,1338.88C3732.94,1338.88 3736.37,1338.88 3736.37,1338.88C3736.73,1338.88 3737.02,1339.17 3737.02,1339.54Z" style="fill:rgb(221,221,221);"/>
                </g>
                <g transform="matrix(1,0,0,1,1.83327,-12.851)">
                    <path d="M3737.02,1339.54L3737.02,1346.2C3737.02,1346.56 3736.73,1346.85 3736.37,1346.85C3736.37,1346.85 3732.94,1346.85 3732.94,1346.85C3732.58,1346.85 3732.29,1346.56 3732.29,1346.2L3732.29,1339.54C3732.29,1339.17 3732.58,1338.88 3732.94,1338.88C3732.94,1338.88 3736.37,1338.88 3736.37,1338.88C3736.73,1338.88 3737.02,1339.17 3737.02,1339.54Z" style="fill:none;stroke:black;stroke-width:1.91px;"/>
                    <path d="M3737.02,1339.54L3737.02,1346.2C3737.02,1346.56 3736.73,1346.85 3736.37,1346.85C3736.37,1346.85 3732.94,1346.85 3732.94,1346.85C3732.58,1346.85 3732.29,1346.56 3732.29,1346.2L3732.29,1339.54C3732.29,1339.17 3732.58,1338.88 3732.94,1338.88C3732.94,1338.88 3736.37,1338.88 3736.37,1338.88C3736.73,1338.88 3737.02,1339.17 3737.02,1339.54Z" style="fill:rgb(221,221,221);"/>
                </g>
                <g transform="matrix(1,0,0,1,37.9944,-12.851)">
                    <path d="M3737.02,1339.54L3737.02,1346.2C3737.02,1346.56 3736.73,1346.85 3736.37,1346.85C3736.37,1346.85 3732.94,1346.85 3732.94,1346.85C3732.58,1346.85 3732.29,1346.56 3732.29,1346.2C3732.29,1346.2 3732.29,1339.54 3732.29,1339.54C3732.29,1339.17 3732.58,1338.88 3732.94,1338.88C3732.94,1338.88 3736.37,1338.88 3736.37,1338.88C3736.73,1338.88 3737.02,1339.17 3737.02,1339.54Z" style="fill:none;stroke:black;stroke-width:1.91px;"/>
                    <path d="M3737.02,1339.54L3737.02,1346.2C3737.02,1346.56 3736.73,1346.85 3736.37,1346.85C3736.37,1346.85 3732.94,1346.85 3732.94,1346.85C3732.58,1346.85 3732.29,1346.56 3732.29,1346.2C3732.29,1346.2 3732.29,1339.54 3732.29,1339.54C3732.29,1339.17 3732.58,1338.88 3732.94,1338.88C3732.94,1338.88 3736.37,1338.88 3736.37,1338.88C3736.73,1338.88 3737.02,1339.17 3737.02,1339.54Z" style="fill:rgb(221,221,221);"/>
                </g>
                <g transform="matrix(1,0,0,1,25.8527,-12.851)">
                    <path d="M3737.02,1339.54L3737.02,1346.2C3737.02,1346.56 3736.73,1346.85 3736.37,1346.85C3736.37,1346.85 3732.94,1346.85 3732.94,1346.85C3732.58,1346.85 3732.29,1346.56 3732.29,1346.2C3732.29,1346.2 3732.29,1339.54 3732.29,1339.54C3732.29,1339.17 3732.58,1338.88 3732.94,1338.88C3732.94,1338.88 3736.37,1338.88 3736.37,1338.88C3736.73,1338.88 3737.02,1339.17 3737.02,1339.54Z" style="fill:none;stroke:black;stroke-width:1.91px;"/>
                    <path d="M3737.02,1339.54L3737.02,1346.2C3737.02,1346.56 3736.73,1346.85 3736.37,1346.85C3736.37,1346.85 3732.94,1346.85 3732.94,1346.85C3732.58,1346.85 3732.29,1346.56 3732.29,1346.2C3732.29,1346.2 3732.29,1339.54 3732.29,1339.54C3732.29,1339.17 3732.58,1338.88 3732.94,1338.88C3732.94,1338.88 3736.37,1338.88 3736.37,1338.88C3736.73,1338.88 3737.02,1339.17 3737.02,1339.54Z" style="fill:rgb(221,221,221);"/>
                </g>
                <g transform="matrix(1,0,0,1,13.909,0.808402)">
                    <path d="M3737.02,1339.54L3737.02,1346.2C3737.02,1346.56 3736.73,1346.85 3736.37,1346.85L3732.94,1346.85C3732.58,1346.85 3732.29,1346.56 3732.29,1346.2L3732.29,1339.54C3732.29,1339.17 3732.58,1338.88 3732.94,1338.88C3732.94,1338.88 3736.37,1338.88 3736.37,1338.88C3736.73,1338.88 3737.02,1339.17 3737.02,1339.54Z" style="fill:none;stroke:black;stroke-width:1.91px;"/>
                    <path d="M3737.02,1339.54L3737.02,1346.2C3737.02,1346.56 3736.73,1346.85 3736.37,1346.85L3732.94,1346.85C3732.58,1346.85 3732.29,1346.56 3732.29,1346.2L3732.29,1339.54C3732.29,1339.17 3732.58,1338.88 3732.94,1338.88C3732.94,1338.88 3736.37,1338.88 3736.37,1338.88C3736.73,1338.88 3737.02,1339.17 3737.02,1339.54Z" style="fill:rgb(221,221,221);"/>
                </g>
                <g transform="matrix(1,0,0,1,50.0701,0.808402)">
                    <path d="M3737.02,1339.54L3737.02,1346.2C3737.02,1346.56 3736.73,1346.85 3736.37,1346.85L3732.94,1346.85C3732.58,1346.85 3732.29,1346.56 3732.29,1346.2L3732.29,1339.54C3732.29,1339.17 3732.58,1338.88 3732.94,1338.88C3732.94,1338.88 3736.37,1338.88 3736.37,1338.88C3736.73,1338.88 3737.02,1339.17 3737.02,1339.54Z" style="fill:none;stroke:black;stroke-width:1.91px;"/>
                    <path d="M3737.02,1339.54L3737.02,1346.2C3737.02,1346.56 3736.73,1346.85 3736.37,1346.85L3732.94,1346.85C3732.58,1346.85 3732.29,1346.56 3732.29,1346.2L3732.29,1339.54C3732.29,1339.17 3732.58,1338.88 3732.94,1338.88C3732.94,1338.88 3736.37,1338.88 3736.37,1338.88C3736.73,1338.88 3737.02,1339.17 3737.02,1339.54Z" style="fill:rgb(221,221,221);"/>
                </g>
                <g transform="matrix(1,0,0,1,13.909,-12.851)">
                    <path d="M3737.02,1339.54L3737.02,1346.2C3737.02,1346.56 3736.73,1346.85 3736.37,1346.85C3736.37,1346.85 3732.94,1346.85 3732.94,1346.85C3732.58,1346.85 3732.29,1346.56 3732.29,1346.2L3732.29,1339.54C3732.29,1339.17 3732.58,1338.88 3732.94,1338.88C3732.94,1338.88 3736.37,1338.88 3736.37,1338.88C3736.73,1338.88 3737.02,1339.17 3737.02,1339.54Z" style="fill:none;stroke:black;stroke-width:1.91px;"/>
                    <path d="M3737.02,1339.54L3737.02,1346.2C3737.02,1346.56 3736.73,1346.85 3736.37,1346.85C3736.37,1346.85 3732.94,1346.85 3732.94,1346.85C3732.58,1346.85 3732.29,1346.56 3732.29,1346.2L3732.29,1339.54C3732.29,1339.17 3732.58,1338.88 3732.94,1338.88C3732.94,1338.88 3736.37,1338.88 3736.37,1338.88C3736.73,1338.88 3737.02,1339.17 3737.02,1339.54Z" style="fill:rgb(221,221,221);"/>
                </g>
                <g transform="matrix(1,0,0,1,50.0701,-12.851)">
                    <path d="M3737.02,1339.54L3737.02,1346.2C3737.02,1346.56 3736.73,1346.85 3736.37,1346.85C3736.37,1346.85 3732.94,1346.85 3732.94,1346.85C3732.58,1346.85 3732.29,1346.56 3732.29,1346.2L3732.29,1339.54C3732.29,1339.17 3732.58,1338.88 3732.94,1338.88C3732.94,1338.88 3736.37,1338.88 3736.37,1338.88C3736.73,1338.88 3737.02,1339.17 3737.02,1339.54Z" style="fill:none;stroke:black;stroke-width:1.91px;"/>
                    <path d="M3737.02,1339.54L3737.02,1346.2C3737.02,1346.56 3736.73,1346.85 3736.37,1346.85C3736.37,1346.85 3732.94,1346.85 3732.94,1346.85C3732.58,1346.85 3732.29,1346.56 3732.29,1346.2L3732.29,1339.54C3732.29,1339.17 3732.58,1338.88 3732.94,1338.88C3732.94,1338.88 3736.37,1338.88 3736.37,1338.88C3736.73,1338.88 3737.02,1339.17 3737.02,1339.54Z" style="fill:rgb(221,221,221);"/>
                </g>
                <g transform="matrix(1.07731,0,0,1,-289.506,1.8084)">
                    <path d="M3775.54,1303.27C3775.19,1302.95 3774.74,1302.77 3774.28,1302.77C3770.1,1302.77 3748.93,1302.77 3744.76,1302.77C3744.3,1302.77 3743.86,1302.94 3743.51,1303.27C3741.48,1305.15 3734.18,1311.93 3729.56,1316.21C3728.95,1316.78 3728.74,1317.69 3729.01,1318.5C3729.29,1319.31 3730.01,1319.85 3730.81,1319.85C3743.4,1319.85 3775.54,1319.85 3788.08,1319.85C3788.88,1319.85 3789.6,1319.31 3789.88,1318.5C3790.16,1317.7 3789.94,1316.79 3789.34,1316.22C3784.78,1311.94 3777.56,1305.17 3775.54,1303.27Z" style="fill:rgb(88,88,88);"/>
                </g>
                <g transform="matrix(1.19486,0,0,0.853554,-731.519,194.378)">
                    <path d="M3756.73,1310.93C3756.73,1310.1 3757.01,1309.31 3757.5,1308.82C3757.8,1308.53 3758.14,1308.19 3758.45,1307.87C3759.1,1307.23 3759.97,1307.23 3760.61,1307.87C3760.93,1308.19 3761.27,1308.53 3761.56,1308.82C3762.05,1309.31 3762.34,1310.1 3762.34,1310.93C3762.34,1313.27 3762.34,1317.85 3762.34,1317.85L3756.73,1317.85L3756.73,1310.93Z" style="fill:rgb(190,190,190);"/>
                </g>
                <g transform="matrix(1.19486,0,0,0.853554,-713.373,194.378)">
                    <path d="M3756.73,1310.93C3756.73,1310.1 3757.01,1309.31 3757.5,1308.82C3757.8,1308.53 3758.14,1308.19 3758.45,1307.87C3759.1,1307.23 3759.97,1307.23 3760.61,1307.87C3760.93,1308.19 3761.27,1308.53 3761.56,1308.82C3762.05,1309.31 3762.34,1310.1 3762.34,1310.93C3762.34,1313.27 3762.34,1317.85 3762.34,1317.85L3756.73,1317.85L3756.73,1310.93Z" style="fill:rgb(190,190,190);"/>
                </g>
                <g transform="matrix(1.19486,0,0,0.853554,-749.468,194.378)">
                    <path d="M3756.73,1310.93C3756.73,1310.1 3757.01,1309.31 3757.5,1308.82C3757.8,1308.53 3758.14,1308.19 3758.45,1307.87C3759.1,1307.23 3759.97,1307.23 3760.61,1307.87C3760.93,1308.19 3761.27,1308.53 3761.56,1308.82C3762.05,1309.31 3762.34,1310.1 3762.34,1310.93C3762.34,1313.27 3762.34,1317.85 3762.34,1317.85L3756.73,1317.85L3756.73,1310.93Z" style="fill:rgb(190,190,190);"/>
                </g>
                <g transform="matrix(1.28159,0,0,0.735225,3237.32,377.436)">
                    <rect x="384.29" y="1284.25" width="48.012" height="1.757"/>
                </g>
                <g transform="matrix(1.28159,0,0,0.751029,3237.32,386.994)">
                    <rect x="384.29" y="1284.25" width="48.012" height="1.757"/>
                </g>
            </g>
            <g transform="matrix(0.357837,0,0,0.357837,3089.45,266.835)">
                <g transform="matrix(1.64996,0,0,0.544312,-31.9065,-16.054)">
                    <rect x="23.18" y="30.81" width="50.904" height="43.442" style="fill:url(#_Linear1);"/>
                </g>
                <g transform="matrix(1.57137,0,0,1.24006,-5832.29,-1613.11)">
                    <path d="M3756.73,1310.3C3756.73,1309.84 3756.83,1309.4 3757.03,1309.02C3757.26,1308.56 3757.61,1307.88 3757.97,1307.18C3758.31,1306.52 3758.89,1306.12 3759.51,1306.12C3760.13,1306.11 3760.72,1306.51 3761.06,1307.16C3761.43,1307.87 3761.79,1308.55 3762.03,1309.01C3762.23,1309.39 3762.34,1309.85 3762.34,1310.31C3762.34,1312.31 3762.34,1317.85 3762.34,1317.85L3756.73,1317.85L3756.73,1310.3Z" style="fill:rgb(190,190,190);"/>
                </g>
                <g transform="matrix(1.57137,0,0,1.24006,-5886.27,-1613.11)">
                    <path d="M3756.73,1310.3C3756.73,1309.84 3756.83,1309.4 3757.03,1309.02C3757.26,1308.56 3757.61,1307.88 3757.97,1307.18C3758.31,1306.52 3758.89,1306.12 3759.51,1306.12C3760.13,1306.11 3760.72,1306.51 3761.06,1307.16C3761.43,1307.87 3761.79,1308.55 3762.03,1309.01C3762.23,1309.39 3762.34,1309.85 3762.34,1310.31C3762.34,1312.31 3762.34,1317.85 3762.34,1317.85L3756.73,1317.85L3756.73,1310.3Z" style="fill:rgb(190,190,190);"/>
                </g>
                <g transform="matrix(0.551067,0,0,0.640377,-5.81324,5.09442)">
                    <rect x="23.18" y="30.81" width="50.904" height="43.442" style="fill:rgb(187,105,62);"/>
                </g>
                <g transform="matrix(0.551067,0,0,0.640377,48.6952,5.09442)">
                    <rect x="23.18" y="30.81" width="50.904" height="43.442" style="fill:rgb(187,105,62);"/>
                </g>
                <g transform="matrix(0.519737,0,0,0.653978,22.9646,6.41047)">
                    <rect x="23.18" y="30.81" width="50.904" height="43.442" style="fill:rgb(187,105,62);"/>
                </g>
                <g transform="matrix(0.551067,0,0,0.644529,-5.81324,32.7858)">
                    <rect x="23.18" y="30.81" width="50.904" height="43.442" style="fill:rgb(114,42,4);"/>
                </g>
                <g transform="matrix(0.551067,0,0,0.644529,48.6952,32.7858)">
                    <rect x="23.18" y="30.81" width="50.904" height="43.442" style="fill:rgb(114,42,4);"/>
                </g>
                <g transform="matrix(0.519737,0,0,0.590988,22.9646,36.7613)">
                    <rect x="23.18" y="30.81" width="50.904" height="43.442" style="fill:rgb(114,42,4);"/>
                </g>
                <g transform="matrix(1,0,0,1,-1.67082,-7.53026)">
                    <rect x="44.366" y="68.122" width="11.541" height="19.368" style="fill:rgb(4,52,114);"/>
                </g>
                <g transform="matrix(0.353942,0,0,0.21957,30.6443,57.4091)">
                    <rect x="44.366" y="68.122" width="11.541" height="19.368" style="fill:rgb(209,209,210);"/>
                </g>
                <g transform="matrix(0.353942,0,0,0.21957,30.6443,49.679)">
                    <rect x="44.366" y="68.122" width="11.541" height="19.368" style="fill:rgb(209,209,210);"/>
                </g>
                <g transform="matrix(0.956849,0,0,1.50847,-3498.26,-1986.5)">
                    <rect x="3731.22" y="1337.82" width="6.863" height="10.096" style="fill:rgb(221,221,221);"/>
                </g>
                <g transform="matrix(0.956849,0,0,1.50847,-3525.17,-1985.11)">
                    <rect x="3731.22" y="1337.82" width="6.863" height="10.096" style="fill:rgb(221,221,221);"/>
                </g>
                <g transform="matrix(0.956849,0,0,1.50847,-3552.28,-1987.11)">
                    <rect x="3731.22" y="1337.82" width="6.863" height="10.096" style="fill:rgb(221,221,221);"/>
                </g>
                <g transform="matrix(0.956849,0,0,1.50847,-3552.28,-1958.91)">
                    <rect x="3731.22" y="1337.82" width="6.863" height="10.096" style="fill:rgb(221,221,221);"/>
                </g>
                <g transform="matrix(0.956849,0,0,1.50847,-3498.26,-1958.91)">
                    <rect x="3731.22" y="1337.82" width="6.863" height="10.096" style="fill:rgb(221,221,221);"/>
                </g>
                <g transform="matrix(1,0,0,1,-1.67082,-7.53026)">
                    <path d="M23.417,37.09L22.584,37.09C20.057,37.09 18.001,39.146 18.001,41.673L18.001,55.09L28.001,55.09L28.001,41.673C28,39.146 25.944,37.09 23.417,37.09ZM26,53.09L20,53.09L20,47.09L26,47.09L26,53.09ZM26,45.09L20,45.09L20,41.673C20,40.249 21.159,39.09 22.583,39.09L23.416,39.09C24.84,39.09 25.999,40.249 25.999,41.673L25.999,45.09L26,45.09Z" style="fill-rule:nonzero;"/>
                </g>
                <g transform="matrix(1,0,0,1,-1.67082,-7.53026)">
                    <path d="M23.667,65.09L22.334,65.09C19.944,65.09 18.001,67.034 18.001,69.423L18.001,83.09L28.001,83.09L28.001,69.423C28,67.034 26.056,65.09 23.667,65.09ZM26,81.09L20,81.09L20,75.09L26,75.09L26,81.09ZM26,73.09L20,73.09L20,69.423C20,68.136 21.047,67.09 22.333,67.09L23.666,67.09C24.953,67.09 25.999,68.136 25.999,69.423L25.999,73.09L26,73.09Z" style="fill-rule:nonzero;"/>
                </g>
                <g transform="matrix(1,0,0,1,-1.67082,-7.53026)">
                    <path d="M82,69.173C82,66.922 80.168,65.09 77.917,65.09L76.084,65.09C73.833,65.09 72.001,66.922 72.001,69.173L72.001,83.09L82.001,83.09L82.001,69.173L82,69.173ZM80,81.09L74,81.09L74,75.09L80,75.09L80,81.09ZM80,73.09L74,73.09L74,69.173C74,68.025 74.935,67.09 76.083,67.09L77.916,67.09C79.064,67.09 79.999,68.025 79.999,69.173L79.999,73.09L80,73.09Z" style="fill-rule:nonzero;"/>
                </g>
                <g transform="matrix(1,0,0,1,-1.67082,-7.53026)">
                    <path d="M77.75,37.09L76.25,37.09C73.907,37.09 72,38.997 72,41.34L72,55.09L82,55.09L82,41.34C82,38.997 80.093,37.09 77.75,37.09ZM80,53.09L74,53.09L74,47.09L80,47.09L80,53.09ZM80,45.09L74,45.09L74,41.34C74,40.099 75.009,39.09 76.25,39.09L77.75,39.09C78.991,39.09 80,40.099 80,41.34L80,45.09Z" style="fill-rule:nonzero;"/>
                </g>
                <g transform="matrix(1,0,0,1,-1.67082,-7.53026)">
                    <path d="M50.583,39.09L49.416,39.09C46.98,39.09 44.999,41.071 44.999,43.507L44.999,57.09L54.999,57.09L54.999,43.507C55,41.072 53.019,39.09 50.583,39.09ZM53,55.09L47,55.09L47,49.09L53,49.09L53,55.09ZM53.001,47.09L47,47.09L47,43.507C47,42.174 48.084,41.09 49.417,41.09L50.584,41.09C51.917,41.09 53.001,42.174 53.001,43.507L53.001,47.09Z" style="fill-rule:nonzero;"/>
                </g>
                <g transform="matrix(1,0,0,1,-1.67082,-7.53026)">
                    <path d="M50,31.09C52.757,31.09 55,28.847 55,26.09C55,23.333 52.757,21.09 50,21.09C47.243,21.09 45,23.333 45,26.09C45,28.847 47.243,31.09 50,31.09ZM50,23.09C51.654,23.09 53,24.436 53,26.09C53,27.744 51.654,29.09 50,29.09C48.346,29.09 47,27.744 47,26.09C47,24.436 48.346,23.09 50,23.09Z" style="fill-rule:nonzero;"/>
                </g>
                <g transform="matrix(1,0,0,1,-1.67082,-7.53026)">
                    <path d="M94,86.938L92,86.938L92,31.09L8,31.09L8,86.937L6,86.937L6,88.909L94,88.909L94,86.938ZM64,59.09L64,33.09L90,33.09L90,59.09L64,59.09ZM90,61.09L90,86.937L64,86.937L64,61.09L90,61.09ZM62,28.414L62,33.091L38,33.091L38,28.414C38,28.414 40.818,24.513 43.722,20.491C45.178,18.475 47.513,17.281 50,17.281C52.487,17.281 54.822,18.475 56.278,20.491C59.182,24.513 62,28.414 62,28.414ZM46.706,67.09C44.659,67.09 43,68.749 43,70.796C43,76.539 43,86.937 43,86.937L38,86.937L38,63.09L62,63.09L62,86.937L57,86.937L57,70.796C57,68.749 55.341,67.09 53.294,67.09C51.259,67.09 48.741,67.09 46.706,67.09ZM51.294,69.09C52.277,69.09 53.22,69.48 53.915,70.175C54.61,70.87 55,71.813 55,72.796C55,78.024 55,86.937 55,86.937L45,86.937L45,72.796C45,71.813 45.39,70.87 46.085,70.175C46.78,69.48 47.723,69.09 48.706,69.09C49.551,69.09 50.449,69.09 51.294,69.09ZM38,61.09L38,35.09L62,35.09L62,61.09L38,61.09ZM10,33.09L36,33.09L36,59.09L10,59.09L10,33.09ZM10,61.09L36,61.09L36,86.937L10,86.937L10,61.09Z" style="fill-rule:nonzero;"/>
                </g>
                <g transform="matrix(1,0,0,1,-1.67082,-7.53026)">
                    <path d="M52.441,71.649L52.441,76.531C52.441,76.531 47.559,76.531 47.559,76.531C47.559,76.531 47.559,71.649 47.559,71.649L52.441,71.649ZM51,75.649C51.309,75.649 51.559,75.399 51.559,75.09L51.559,73.09C51.559,72.781 51.309,72.531 51,72.531L49,72.531C48.691,72.531 48.441,72.781 48.441,73.09L48.441,75.09C48.441,75.399 48.691,75.649 49,75.649L51,75.649Z" style="fill-rule:nonzero;"/>
                </g>
                <g transform="matrix(1,0,0,1,-1.67082,-7.53026)">
                    <path d="M52.441,79.649L52.441,84.531C52.441,84.531 47.559,84.531 47.559,84.531C47.559,84.531 47.559,79.649 47.559,79.649L52.441,79.649ZM51,83.649C51.309,83.649 51.559,83.399 51.559,83.09L51.559,81.09C51.559,80.781 51.309,80.531 51,80.531L49,80.531C48.691,80.531 48.441,80.781 48.441,81.09L48.441,83.09C48.441,83.399 48.691,83.649 49,83.649L51,83.649Z" style="fill-rule:nonzero;"/>
                </g>
                <g transform="matrix(0.0411387,0,0,0.598712,87.2827,7.09609)">
                    <rect x="23.18" y="30.81" width="50.904" height="43.442" style="fill:rgb(187,105,62);"/>
                </g>
                <g transform="matrix(0.0408628,0,0,0.594698,87.2891,35.2431)">
                    <rect x="23.18" y="30.81" width="50.904" height="43.442" style="fill:rgb(114,42,4);"/>
                </g>
                <g transform="matrix(0.0400389,0,0,0.594698,5.41221,35.2431)">
                    <rect x="23.18" y="30.81" width="50.904" height="43.442" style="fill:rgb(114,42,4);"/>
                </g>
                <g transform="matrix(0.0400389,0,0,0.598839,5.41221,7.08667)">
                    <rect x="23.18" y="30.81" width="50.904" height="43.442" style="fill:rgb(187,105,62);"/>
                </g>
                <g transform="matrix(0.911289,0,0,1,2.77148,-8.39916)">
                    <path d="M36.683,34.129L36.683,30.745C36.683,28.979 37.298,27.26 38.44,25.834C39.676,24.29 41.416,22.115 43.173,19.922C44.753,17.948 47.277,16.787 49.958,16.801C52.639,16.815 55.149,18.003 56.704,19.993C58.508,22.302 60.306,24.604 61.569,26.221C62.695,27.662 63.288,29.394 63.262,31.163C63.242,32.581 63.221,34.022 63.221,34.022L36.683,34.129Z" style="fill:rgb(155,98,41);"/>
                </g>
                <g transform="matrix(1,0,0,1,-1.4634,-8.91336)">
                    <circle cx="49.793" cy="26.14" r="4.163" style="fill:rgb(227,208,111);stroke:rgb(64,33,8);stroke-width:1.5px;stroke-linejoin:round;stroke-miterlimit:1.5;"/>
                </g>
            </g>
            <g transform="matrix(0.628136,0,0,0.628136,3058.57,277.281)">
                <g transform="matrix(1,0,0,1,-0.951834,-4.28985)">
                    <rect x="5.855" y="15.84" width="16.148" height="16.16" style="fill:rgb(155,98,41);"/>
                </g>
                <g transform="matrix(1,0,0,1,-0.951834,-4.28985)">
                    <path d="M4.402,15.792L4.677,14.134L14,4.318L23.327,14.313L23.753,15.805L4.402,15.792Z" style="fill:rgb(66,34,8);"/>
                </g>
                <g transform="matrix(1,0,0,1,-0.951834,-4.28985)">
                    <path d="M22.003,32L22.096,29.332L40.006,12.169L59.658,32L22.003,32Z" style="fill:rgb(66,34,8);"/>
                </g>
                <g transform="matrix(1,0,0,1,-0.951834,-4.28985)">
                    <rect x="2.371" y="32" width="59.171" height="3.671" style="fill:rgb(155,98,41);"/>
                </g>
                <g transform="matrix(0.93903,0,0,0.93903,-33.7085,-4.8363)">
                    <circle cx="49.793" cy="26.14" r="4.163" style="fill:rgb(227,208,111);"/>
                </g>
                <g transform="matrix(1.12145,0,0,0.605023,-23.5155,13.3859)">
                    <rect x="23.18" y="30.81" width="50.904" height="43.442" style="fill:rgb(187,105,62);"/>
                </g>
                <g transform="matrix(1,0,0,1,-0.951834,-4.28985)">
                    <rect x="50.06" y="54.142" width="5.878" height="7.549" style="fill:rgb(155,58,41);"/>
                </g>
                <g transform="matrix(1,0,0,1.28627,-42.8893,-21.9501)">
                    <rect x="50.06" y="54.142" width="5.878" height="7.549" style="fill:rgb(155,58,41);"/>
                </g>
                <g transform="matrix(1.41724,0,0,0.587792,-5242.79,-750.649)">
                    <rect x="3731.22" y="1337.82" width="6.863" height="10.096" style="fill:rgb(221,221,221);"/>
                </g>
                <g transform="matrix(1,0,0,1,-0.951834,-4.28985)">
                    <path d="M15.894,43.268L16.105,41.708L32,26.285L47.791,41.83L47.482,44.137L16.846,44.137L15.894,43.268Z" style="fill:rgb(48,23,6);"/>
                </g>
                <g transform="matrix(0.749691,0,0,0.722969,7.10916,7.93737)">
                    <path d="M15.894,43.268L16.105,41.708L32,26.285L47.791,41.83L47.482,44.137L16.846,44.137L15.894,43.268Z" style="fill:rgb(155,98,41);"/>
                </g>
                <g transform="matrix(1,0,0,1,-0.951834,-4.28985)">
                    <rect x="17.571" y="44.137" width="4.812" height="17.554" style="fill:rgb(242,241,239);"/>
                </g>
                <g transform="matrix(1,0,0,1,6.95266,-4.28985)">
                    <rect x="17.571" y="44.137" width="4.812" height="17.554" style="fill:rgb(242,241,239);"/>
                </g>
                <g transform="matrix(1,0,0,1,14.9751,-4.28985)">
                    <rect x="17.571" y="44.137" width="4.812" height="17.554" style="fill:rgb(242,241,239);"/>
                </g>
                <g transform="matrix(1,0,0,1,22.8558,-4.28985)">
                    <rect x="17.571" y="44.137" width="4.812" height="17.554" style="fill:rgb(242,241,239);"/>
                </g>
                <g transform="matrix(1,0,0,1,-0.951834,-4.28985)">
                    <path d="M14,19.637C16.406,19.637 18.363,21.594 18.363,24C18.363,26.406 16.406,28.363 14,28.363C11.594,28.363 9.637,26.406 9.637,24C9.637,21.594 11.594,19.637 14,19.637ZM14,27.637C15.579,27.637 16.914,26.622 17.416,25.214C17.485,25.019 17.456,24.802 17.336,24.633C17.217,24.464 17.023,24.363 16.816,24.363L13.637,24.363C13.637,24.363 13.637,21.184 13.637,21.184C13.637,20.977 13.536,20.783 13.367,20.664C13.198,20.544 12.981,20.515 12.786,20.584C11.378,21.086 10.363,22.421 10.363,24C10.363,26.005 11.995,27.637 14,27.637ZM16.816,23.637C17.023,23.637 17.217,23.536 17.336,23.367C17.456,23.198 17.485,22.981 17.416,22.786C17.05,21.759 16.241,20.95 15.214,20.584C15.019,20.515 14.802,20.544 14.633,20.664C14.464,20.783 14.363,20.977 14.363,21.184L14.363,23C14.363,23.352 14.648,23.637 15,23.637L16.816,23.637Z" style="fill-rule:nonzero;"/>
                </g>
                <g transform="matrix(0.624543,0,0,0.624543,-0.0494209,17.8799)">
                    <circle cx="49.793" cy="26.14" r="4.163" style="fill:rgb(227,208,111);stroke:rgb(64,33,8);stroke-width:1.5px;stroke-linejoin:round;stroke-miterlimit:1.5;"/>
                </g>
                <g transform="matrix(1,0,0,1,-0.951834,-4.28985)">
                    <path d="M14.522,1.478L14.522,3.611C14.522,3.73 14.567,3.846 14.648,3.934L24.035,14.175C24.411,14.584 24.509,15.177 24.285,15.686C24.061,16.194 23.558,16.522 23.003,16.522C23.003,16.522 23.003,16.522 23.003,16.522C22.369,16.522 23,17.478 23,17.478C22.736,17.478 22.522,17.264 22.522,17L22.522,27.586C22.522,27.779 22.639,27.953 22.817,28.027C22.996,28.101 23.201,28.06 23.338,27.924L39.338,11.924C39.427,11.834 39.478,11.713 39.478,11.586L39.478,7.842C39.478,7.745 39.516,7.653 39.584,7.584C39.653,7.516 39.745,7.478 39.842,7.478L40.522,7.478C40.522,7.478 40.522,11.586 40.522,11.586C40.522,11.713 40.573,11.834 40.662,11.924L60.076,31.338C60.166,31.427 60.287,31.478 60.414,31.478L61,31.478C61.84,31.478 62.522,32.16 62.522,33L62.522,35C62.522,35.84 61.84,36.522 61,36.522C60.736,36.522 60.522,36.736 60.522,37L60.522,62.522C60.522,62.522 3.478,62.522 3.478,62.522C3.478,62.522 3.478,37 3.478,37C3.478,36.736 3.264,36.522 3,36.522C2.16,36.522 1.478,35.84 1.478,35L1.478,33C1.478,32.16 2.16,31.478 3,31.478C3,31.478 5,31.478 5,31.478C5.264,31.478 5.478,31.264 5.478,31L5.478,17L5,17.478C5,17.478 5.631,16.522 4.997,16.522C4.997,16.522 4.997,16.522 4.997,16.522C4.442,16.522 3.939,16.194 3.715,15.686C3.491,15.177 3.589,14.584 3.965,14.175C3.965,14.175 13.352,3.934 13.352,3.934C13.433,3.846 13.478,3.73 13.478,3.611L13.478,2C13.478,1.861 13.533,1.728 13.631,1.631C13.728,1.533 13.861,1.478 14,1.478L14.522,1.478ZM27,48.522C26.736,48.522 26.522,48.736 26.522,49L26.522,61C26.522,61.264 26.736,61.478 27,61.478L29,61.478C29.264,61.478 29.478,61.264 29.478,61L29.478,49C29.478,48.736 29.264,48.522 29,48.522L27,48.522ZM13,61.478C13.264,61.478 13.478,61.264 13.478,61L13.478,53C13.478,52.736 13.264,52.522 13,52.522L9,52.522C8.736,52.522 8.522,52.736 8.522,53L8.522,61C8.522,61.264 8.736,61.478 9,61.478L13,61.478ZM5,42.522C4.736,42.522 4.522,42.736 4.522,43L4.522,61C4.522,61.264 4.736,61.478 5,61.478L7,61.478C7.264,61.478 7.478,61.264 7.478,61L7.478,53.312C7.478,52.299 8.299,51.478 9.311,51.478C9.312,51.478 12.688,51.478 12.688,51.478C13.701,51.478 14.522,52.299 14.522,53.311C14.522,53.312 14.522,61 14.522,61C14.522,61.264 14.736,61.478 15,61.478L17,61.478C17.264,61.478 17.478,61.264 17.478,61L17.478,44.958C17.478,44.726 17.311,44.527 17.082,44.487C16.282,44.348 15.652,43.718 15.513,42.918C15.473,42.689 15.274,42.522 15.042,42.522L5,42.522ZM23,44.522C22.736,44.522 22.522,44.736 22.522,45L22.522,61C22.522,61.264 22.736,61.478 23,61.478L25,61.478C25.264,61.478 25.478,61.264 25.478,61L25.478,45C25.478,44.736 25.264,44.522 25,44.522L23,44.522ZM55,61.478C55.264,61.478 55.478,61.264 55.478,61L55.478,55C55.478,54.736 55.264,54.522 55,54.522L51,54.522C50.736,54.522 50.522,54.736 50.522,55L50.522,61C50.522,61.264 50.736,61.478 51,61.478L55,61.478ZM56.522,61C56.522,61.264 56.736,61.478 57,61.478L59,61.478C59.264,61.478 59.478,61.264 59.478,61L59.478,51C59.478,50.736 59.264,50.522 59,50.522L47,50.522C46.736,50.522 46.522,50.736 46.522,51L46.522,61C46.522,61.264 46.736,61.478 47,61.478L49,61.478C49.264,61.478 49.478,61.264 49.478,61L49.478,54.896C49.478,54.113 50.113,53.478 50.896,53.478C50.896,53.478 55.104,53.478 55.104,53.478C55.887,53.478 56.522,54.113 56.522,54.896C56.522,54.896 56.522,61 56.522,61ZM31,44.522C30.736,44.522 30.522,44.736 30.522,45L30.522,61C30.522,61.264 30.736,61.478 31,61.478L33,61.478C33.264,61.478 33.478,61.264 33.478,61L33.478,45C33.478,44.736 33.264,44.522 33,44.522L31,44.522ZM35,48.522C34.736,48.522 34.522,48.736 34.522,49L34.522,61C34.522,61.264 34.736,61.478 35,61.478L37,61.478C37.264,61.478 37.478,61.264 37.478,61L37.478,49C37.478,48.736 37.264,48.522 37,48.522L35,48.522ZM39,44.522C38.736,44.522 38.522,44.736 38.522,45L38.522,61C38.522,61.264 38.736,61.478 39,61.478L41,61.478C41.264,61.478 41.478,61.264 41.478,61L41.478,45C41.478,44.736 41.264,44.522 41,44.522L39,44.522ZM19,48.522C18.736,48.522 18.522,48.736 18.522,49L18.522,61C18.522,61.264 18.736,61.478 19,61.478L21,61.478C21.264,61.478 21.478,61.264 21.478,61L21.478,49C21.478,48.736 21.264,48.522 21,48.522L19,48.522ZM43,48.522C42.736,48.522 42.522,48.736 42.522,49L42.522,61C42.522,61.264 42.736,61.478 43,61.478L45,61.478C45.264,61.478 45.478,61.264 45.478,61L45.478,49C45.478,48.736 45.264,48.522 45,48.522L43,48.522ZM59,49.478C59.264,49.478 59.478,49.264 59.478,49L59.478,37C59.478,36.736 59.264,36.522 59,36.522L44.414,36.522C44.221,36.522 44.047,36.639 43.973,36.817C43.899,36.996 43.94,37.201 44.076,37.338L46.076,39.338C46.166,39.427 46.287,39.478 46.414,39.478L56.522,39.478C56.522,39.478 56.522,46.522 56.522,46.522C56.522,46.522 47,46.522 47,46.522C46.736,46.522 46.522,46.736 46.522,47L46.522,49C46.522,49.264 46.736,49.478 47,49.478L59,49.478ZM29,47.478C29.264,47.478 29.478,47.264 29.478,47L29.478,45C29.478,44.736 29.264,44.522 29,44.522L27,44.522C26.736,44.522 26.522,44.736 26.522,45L26.522,47C26.522,47.264 26.736,47.478 27,47.478L29,47.478ZM43,44.522C42.736,44.522 42.522,44.736 42.522,45L42.522,47C42.522,47.264 42.736,47.478 43,47.478L45,47.478C45.264,47.478 45.478,47.264 45.478,47L45.478,45C45.478,44.736 45.264,44.522 45,44.522L43,44.522ZM37,47.478C37.264,47.478 37.478,47.264 37.478,47L37.478,45C37.478,44.736 37.264,44.522 37,44.522L35,44.522C34.736,44.522 34.522,44.736 34.522,45L34.522,47C34.522,47.264 34.736,47.478 35,47.478L37,47.478ZM21,47.478C21.264,47.478 21.478,47.264 21.478,47L21.478,45C21.478,44.736 21.264,44.522 21,44.522L19,44.522C18.736,44.522 18.522,44.736 18.522,45L18.522,47C18.522,47.264 18.736,47.478 19,47.478L21,47.478ZM46.998,44.522L47,45.478L51,45.478C51.264,45.478 51.478,45.264 51.478,45L51.478,41C51.478,40.736 51.264,40.522 51,40.522L48.392,40.522C48.205,40.522 48.035,40.632 47.957,40.803C47.88,40.973 47.909,41.173 48.032,41.314C48.34,41.666 48.522,42.119 48.522,42.586C48.522,43.521 47.909,44.518 46.998,44.522ZM55.478,41C55.478,40.736 55.264,40.522 55,40.522L53,40.522C52.736,40.522 52.522,40.736 52.522,41L52.522,45C52.522,45.264 52.736,45.478 53,45.478L55,45.478C55.264,45.478 55.478,45.264 55.478,45L55.478,41ZM21.076,42.662C20.94,42.799 20.899,43.004 20.973,43.183C21.047,43.361 21.221,43.478 21.414,43.478L42.586,43.478C42.779,43.478 42.953,43.361 43.027,43.183C43.101,43.004 43.06,42.799 42.924,42.662L32.338,32.076C32.151,31.89 31.849,31.89 31.662,32.076L21.076,42.662ZM47.216,41.954L32.338,27.076C32.151,26.89 31.849,26.89 31.662,27.076L16.783,41.955C16.617,42.121 16.522,42.351 16.522,42.586C16.522,43.077 16.923,43.478 17.414,43.478L18.586,43.478C18.713,43.478 18.834,43.427 18.924,43.338L32,30.261C32,30.261 45.076,43.338 45.076,43.338C45.166,43.427 45.287,43.478 45.414,43.478L46.586,43.478C47.077,43.478 47.478,43.077 47.478,42.586C47.478,42.352 47.383,42.122 47.216,41.954ZM19.924,37.338C20.06,37.201 20.101,36.996 20.027,36.817C19.953,36.639 19.779,36.522 19.586,36.522L5,36.522C4.736,36.522 4.522,36.736 4.522,37L4.522,41C4.522,41.264 4.736,41.478 5,41.478L15.608,41.478C15.748,41.478 15.881,41.416 15.972,41.309C15.997,41.279 16.016,41.245 16.044,41.217C16.044,41.217 19.924,37.338 19.924,37.338ZM61,35.478C61.264,35.478 61.478,35.264 61.478,35L61.478,33C61.478,32.736 61.264,32.522 61,32.522L40.414,32.522C40.221,32.522 40.047,32.639 39.973,32.817C39.899,32.996 39.94,33.201 40.076,33.338L42.076,35.338C42.166,35.427 42.287,35.478 42.414,35.478L61,35.478ZM3,32.522C2.736,32.522 2.522,32.736 2.522,33L2.522,35C2.522,35.264 2.736,35.478 3,35.478L21.586,35.478C21.713,35.478 21.834,35.427 21.924,35.338L23.924,33.338C24.06,33.201 24.101,32.996 24.027,32.817C23.953,32.639 23.779,32.522 23.586,32.522L3,32.522ZM38.414,31.478L39.049,31.475C39.29,31.451 39.478,31.247 39.478,31C39.478,31 39.478,26.146 39.478,24C39.478,23.861 39.533,23.728 39.631,23.631C39.728,23.533 39.861,23.478 40,23.478L40.522,23.478L40.522,31C40.522,31.264 40.736,31.478 41,31.478L57.586,31.478C57.779,31.478 57.953,31.361 58.027,31.183C58.101,31.004 58.06,30.799 57.924,30.662L41.338,14.076C41.201,13.94 40.996,13.899 40.817,13.973C40.639,14.047 40.522,14.221 40.522,14.414L40.522,20.522L40,20.522C39.861,20.522 39.728,20.467 39.631,20.369C39.533,20.272 39.478,20.139 39.478,20C39.478,20 39.478,14.414 39.478,14.414C39.478,14.221 39.361,14.047 39.183,13.973C39.004,13.899 38.799,13.94 38.662,14.076L22.662,30.076L23,30.892C23,30.892 22.522,30.414 22.522,30.414L22.522,30.987C22.522,31.429 23,31.478 23,31.478C23,31.478 25.586,31.478 25.586,31.478C25.713,31.478 25.834,31.427 25.924,31.338L32,25.261C32,25.261 38.076,31.338 38.076,31.338C38.166,31.427 38.287,31.478 38.414,31.478ZM7,16.522C6.736,16.522 6.522,16.736 6.522,17L6.522,31C6.522,31.264 6.736,31.478 7,31.478L21,31.478C21.264,31.478 21.478,31.264 21.478,31L21.478,17C21.478,16.736 21.264,16.522 21,16.522L7,16.522ZM14.352,5.157C14.262,5.059 14.134,5.002 14,5.002C13.866,5.002 13.738,5.059 13.648,5.157L4.921,14.677C4.793,14.817 4.76,15.019 4.836,15.192C4.912,15.366 5.084,15.478 5.273,15.478L22.727,15.478C22.916,15.478 23.088,15.366 23.164,15.192C23.24,15.019 23.207,14.817 23.079,14.677L14.352,5.157Z" style="fill-rule:nonzero;"/>
                </g>
                <g transform="matrix(1.14581,0,0,1.01017,-1.48397,-4.77567)">
                    <rect x="3.432" y="36.715" width="1.343" height="24.548" style="fill:rgb(187,105,62);"/>
                </g>
                <g transform="matrix(1.14581,0,0,1.01017,54.1915,-4.77567)">
                    <rect x="3.432" y="36.715" width="1.343" height="24.548" style="fill:rgb(187,105,62);"/>
                </g>
                <g transform="matrix(9.81996e-17,1.60372,-0.542902,3.32432e-17,78.9073,39.1105)">
                    <rect x="3.432" y="36.715" width="1.343" height="24.548" style="fill:rgb(187,105,62);"/>
                </g>
                <g transform="matrix(7.1408e-17,1.16618,-0.431334,2.64116e-17,30.2265,32.9386)">
                    <path d="M4.836,36.54C4.417,36.745 3.798,36.164 3.461,35.389C3.462,39.118 3.432,61.263 3.432,61.263L4.775,61.263C4.775,61.263 4.848,40.927 4.836,36.54Z" style="fill:rgb(187,105,62);"/>
                </g>
            </g>
            <g transform="matrix(0.44825,0,0,0.44825,3036.26,292.268)">
                <path d="M22.988,30.382L25.217,13.122L71.487,13.256L74.08,30.261L22.988,30.382Z" style="fill:rgb(48,23,6);"/>
                <g transform="matrix(1.03528,0,0,0.962642,-1.99817,2.00627)">
                    <rect x="23.18" y="30.81" width="50.904" height="43.442" style="fill:rgb(187,105,62);"/>
                </g>
                <g transform="matrix(1,0,0,0.319524,0,64.2484)">
                    <rect x="23.18" y="30.81" width="50.904" height="43.442" style="fill:rgb(114,42,4);"/>
                </g>
                <g transform="matrix(0.209532,0,0,0.558224,38.0856,46.4588)">
                    <rect x="23.18" y="30.81" width="50.904" height="43.442" style="fill:rgb(135,8,9);"/>
                </g>
                <g>
                    <g transform="matrix(1.12272,0,0,1.15072,-4160.25,-1481.52)">
                        <rect x="3731.22" y="1337.82" width="6.863" height="10.096" style="fill:rgb(221,221,221);"/>
                    </g>
                    <path d="M36.9,70.5L28.6,70.5C28,70.5 27.6,70.1 27.6,69.5L27.6,57.7C27.6,57.1 28,56.7 28.6,56.7L36.9,56.7C37.5,56.7 37.9,57.1 37.9,57.7L37.9,69.6C37.9,70.1 37.5,70.5 36.9,70.5ZM29.6,68.5L35.9,68.5L35.9,58.6L29.6,58.6L29.6,68.5Z" style="fill-rule:nonzero;"/>
                </g>
                <g>
                    <g transform="matrix(1.12272,0,0,1.15072,-4128.69,-1481.52)">
                        <rect x="3731.22" y="1337.82" width="6.863" height="10.096" style="fill:rgb(221,221,221);"/>
                    </g>
                    <path d="M68.2,70.5L59.9,70.5C59.3,70.5 58.9,70.1 58.9,69.5L58.9,57.7C58.9,57.1 59.3,56.7 59.9,56.7L68.2,56.7C68.8,56.7 69.2,57.1 69.2,57.7L69.2,69.6C69.2,70.1 68.7,70.5 68.2,70.5ZM60.9,68.5L67.2,68.5L67.2,58.6L60.9,58.6L60.9,68.5Z" style="fill-rule:nonzero;"/>
                </g>
                <g>
                    <g transform="matrix(1.12272,0,0,1.15072,-4160.25,-1501.34)">
                        <rect x="3731.22" y="1337.82" width="6.863" height="10.096" style="fill:rgb(221,221,221);"/>
                    </g>
                    <path d="M36.9,51.1L28.6,51.1C28,51.1 27.6,50.7 27.6,50.1L27.6,38.2C27.6,37.6 28,37.2 28.6,37.2L36.9,37.2C37.5,37.2 37.9,37.6 37.9,38.2L37.9,50.1C37.9,50.6 37.5,51.1 36.9,51.1ZM29.6,49.1L35.9,49.1L35.9,39.2L29.6,39.2L29.6,49.1Z" style="fill-rule:nonzero;"/>
                </g>
                <g>
                    <g transform="matrix(1.12272,0,0,1.15072,-4128.69,-1501.34)">
                        <rect x="3731.22" y="1337.82" width="6.863" height="10.096" style="fill:rgb(221,221,221);"/>
                    </g>
                    <path d="M68.2,51.1L59.9,51.1C59.3,51.1 58.9,50.7 58.9,50.1L58.9,38.2C58.9,37.6 59.3,37.2 59.9,37.2L68.2,37.2C68.8,37.2 69.2,37.6 69.2,38.2L69.2,50.1C69.2,50.6 68.7,51.1 68.2,51.1ZM60.9,49.1L67.2,49.1L67.2,39.2L60.9,39.2L60.9,49.1Z" style="fill-rule:nonzero;"/>
                </g>
                <g>
                    <g transform="matrix(1.12272,0,0,1.15072,-4144.4,-1501.34)">
                        <rect x="3731.22" y="1337.82" width="6.863" height="10.096" style="fill:rgb(221,221,221);"/>
                    </g>
                    <path d="M52.6,51.1L44.3,51.1C43.7,51.1 43.3,50.7 43.3,50.1L43.3,38.2C43.3,37.6 43.7,37.2 44.3,37.2L52.6,37.2C53.2,37.2 53.6,37.6 53.6,38.2L53.6,50.1C53.6,50.6 53.1,51.1 52.6,51.1ZM45.2,49.1L51.5,49.1L51.5,39.2L45.2,39.2L45.2,49.1Z" style="fill-rule:nonzero;"/>
                </g>
                <g>
                    <circle cx="46.8" cy="77.2" r="0.9"/>
                </g>
                <path d="M74.7,24.6C74.6,24.6 72.6,13.1 72.6,13.1C72.5,12.6 72.1,12.3 71.6,12.3L52.4,12.3L44.2,12.2L25,12.2C24.5,12.2 24.1,12.5 24,13C24,13 22,24.5 22,24.6L22,87.8C22,88.4 22.4,88.8 23,88.8L73.7,88.8C74.3,88.8 74.7,88.4 74.7,87.8L74.7,24.6ZM24.303,29.2L24.303,24.715L25.925,14.3L70.8,14.3L72.6,24.8L72.6,29.2L24.303,29.2ZM72.6,31.7L72.6,73.5L54.8,73.5L54.8,63.7C54.8,63.1 54.4,62.7 53.8,62.7L42.9,62.7C42.3,62.7 41.9,63.1 41.9,63.7L41.9,73.5L24,73.5L24,31.7L72.6,31.7ZM52.8,86.8L43.9,86.8L43.9,64.6L52.8,64.6L52.8,86.8ZM24,75.4L41.9,75.4L41.9,86.8L24,86.8L24,75.4ZM54.8,86.8L54.8,75.4L72.7,75.4L72.7,86.8L54.8,86.8Z" style="fill-rule:nonzero;"/>
                <g>
                    <g transform="matrix(0.691085,0,0,0.500984,-2552.24,-591.337)">
                        <rect x="3731.22" y="1337.82" width="6.863" height="10.096" style="fill:rgb(221,221,221);"/>
                    </g>
                    <path d="M31.2,84.354L26.5,84.354C26.332,84.354 26.188,84.307 26.09,84.21C25.993,84.112 25.946,83.968 25.946,83.8C25.946,83.8 25.946,78.8 25.946,78.8C25.946,78.632 25.993,78.488 26.09,78.39C26.188,78.293 26.332,78.246 26.5,78.246L31.2,78.246C31.368,78.246 31.512,78.293 31.61,78.39C31.707,78.488 31.754,78.632 31.754,78.8L31.754,83.8C31.754,84.077 31.532,84.354 31.2,84.354ZM27.054,82.8C27.054,83.046 27.254,83.246 27.5,83.246L30.2,83.246C30.446,83.246 30.646,83.046 30.646,82.8L30.646,79.8C30.646,79.554 30.446,79.354 30.2,79.354L27.5,79.354C27.254,79.354 27.054,79.554 27.054,79.8L27.054,82.8Z" style="fill-rule:nonzero;"/>
                </g>
                <g>
                    <g transform="matrix(0.691085,0,0,0.500984,-2544.25,-591.455)">
                        <rect x="3731.22" y="1337.82" width="6.863" height="10.096" style="fill:rgb(221,221,221);"/>
                    </g>
                    <path d="M39.2,84.354L34.5,84.354C34.332,84.354 34.188,84.307 34.09,84.21C33.993,84.112 33.946,83.968 33.946,83.8L33.946,78.8C33.946,78.632 33.993,78.488 34.09,78.39C34.188,78.293 34.332,78.246 34.5,78.246L39.2,78.246C39.368,78.246 39.512,78.293 39.61,78.39C39.707,78.488 39.754,78.632 39.754,78.8L39.754,83.8C39.754,83.937 39.675,84.069 39.572,84.172C39.469,84.275 39.337,84.354 39.2,84.354ZM35.054,82.8C35.054,83.046 35.254,83.246 35.5,83.246L38.2,83.246C38.446,83.246 38.646,83.046 38.646,82.8L38.646,79.8C38.646,79.554 38.446,79.354 38.2,79.354L35.5,79.354C35.254,79.354 35.054,79.554 35.054,79.8L35.054,82.8Z" style="fill-rule:nonzero;"/>
                </g>
                <g>
                    <g transform="matrix(0.691085,0,0,0.500984,-2521.31,-591.337)">
                        <rect x="3731.22" y="1337.82" width="6.863" height="10.096" style="fill:rgb(221,221,221);"/>
                    </g>
                    <path d="M62,84.354L57.3,84.354C57.132,84.354 56.988,84.307 56.89,84.21C56.793,84.112 56.746,83.968 56.746,83.8C56.746,83.8 56.746,78.8 56.746,78.8C56.746,78.632 56.793,78.488 56.89,78.39C56.988,78.293 57.132,78.246 57.3,78.246L62,78.246C62.168,78.246 62.312,78.293 62.41,78.39C62.507,78.488 62.554,78.632 62.554,78.8L62.554,83.8C62.554,83.937 62.475,84.069 62.372,84.172C62.269,84.275 62.137,84.354 62,84.354ZM57.854,82.8C57.854,83.046 58.054,83.246 58.3,83.246L61,83.246C61.246,83.246 61.446,83.046 61.446,82.8L61.446,79.8C61.446,79.554 61.246,79.354 61,79.354L58.3,79.354C58.054,79.354 57.854,79.554 57.854,79.8L57.854,82.8Z" style="fill-rule:nonzero;"/>
                </g>
                <g>
                    <g transform="matrix(0.691085,0,0,0.500984,-2513.29,-591.337)">
                        <rect x="3731.22" y="1337.82" width="6.863" height="10.096" style="fill:rgb(221,221,221);"/>
                    </g>
                    <path d="M69.9,84.354L65.2,84.354C65.032,84.354 64.888,84.307 64.79,84.21C64.693,84.112 64.646,83.968 64.646,83.8L64.646,78.8C64.646,78.632 64.693,78.488 64.79,78.39C64.888,78.293 65.032,78.246 65.2,78.246L69.9,78.246C70.068,78.246 70.212,78.293 70.31,78.39C70.407,78.488 70.454,78.632 70.454,78.8L70.454,83.8C70.454,84.077 70.232,84.354 69.9,84.354ZM65.754,82.8C65.754,83.046 65.954,83.246 66.2,83.246L68.9,83.246C69.146,83.246 69.346,83.046 69.346,82.8L69.346,79.8C69.346,79.554 69.146,79.354 68.9,79.354L66.2,79.354C65.954,79.354 65.754,79.554 65.754,79.8L65.754,82.8Z" style="fill-rule:nonzero;"/>
                </g>
                <g transform="matrix(0.0441096,0,0,0.962642,71.4322,2.00627)">
                    <rect x="23.18" y="30.81" width="50.904" height="43.442" style="fill:rgb(187,105,62);"/>
                </g>
                <g transform="matrix(0.0441096,0,0,0.962642,21.0353,2.00627)">
                    <rect x="23.18" y="30.81" width="50.904" height="43.442" style="fill:rgb(187,105,62);"/>
                </g>
                <g transform="matrix(2.67119,0,0,1.3304,-9994.04,-1726.6)">
                    <path d="M3756.73,1310.34C3756.73,1309.87 3756.82,1309.41 3756.99,1309.09C3757.43,1308.24 3758.31,1306.52 3758.9,1305.36C3759.24,1304.71 3759.77,1304.7 3760.11,1305.35C3760.71,1306.5 3761.62,1308.23 3762.07,1309.08C3762.24,1309.41 3762.34,1309.87 3762.34,1310.35C3762.34,1312.38 3762.34,1317.85 3762.34,1317.85L3756.73,1317.85L3756.73,1310.34Z" style="fill:rgb(190,190,190);"/>
                </g>
            </g>
            <g transform="matrix(0.721771,0,0,0.721771,388.494,-643.955)">
                <g transform="matrix(1,0,0,1,0.591999,5.19038)">
                    <rect x="3729.23" y="1315.46" width="61.529" height="31.214" style="fill:rgb(187,105,62);"/>
                </g>
                <g transform="matrix(1,0,0,1.21866,1.38461,-294.619)">
                    <path d="M3763.56,1341.88C3763.56,1340.95 3762.64,1340.19 3761.5,1340.19C3760.11,1340.19 3758.29,1340.19 3756.9,1340.19C3755.77,1340.19 3754.85,1340.95 3754.85,1341.88C3754.85,1344.93 3754.85,1351.06 3754.85,1351.06L3763.56,1351.06L3763.56,1341.88Z" style="fill:none;stroke:black;stroke-width:1.71px;"/>
                    <path d="M3763.56,1341.88C3763.56,1340.95 3762.64,1340.19 3761.5,1340.19C3760.11,1340.19 3758.29,1340.19 3756.9,1340.19C3755.77,1340.19 3754.85,1340.95 3754.85,1341.88C3754.85,1344.93 3754.85,1351.06 3754.85,1351.06L3763.56,1351.06L3763.56,1341.88Z" style="fill:rgb(230,230,235);"/>
                </g>
                <g transform="matrix(1,0,0,1,1.83327,0.808402)">
                    <path d="M3737.39,1339.54L3737.39,1346.2C3737.39,1346.76 3736.93,1347.22 3736.37,1347.22L3732.94,1347.22C3732.37,1347.22 3731.92,1346.76 3731.92,1346.2C3731.92,1346.2 3731.92,1339.54 3731.92,1339.54C3731.92,1338.97 3732.37,1338.51 3732.94,1338.51C3732.94,1338.51 3736.37,1338.51 3736.37,1338.51C3736.93,1338.51 3737.39,1338.97 3737.39,1339.54Z" style="fill:none;stroke:black;stroke-width:1.91px;"/>
                    <path d="M3737.39,1339.54L3737.39,1346.2C3737.39,1346.76 3736.93,1347.22 3736.37,1347.22L3732.94,1347.22C3732.37,1347.22 3731.92,1346.76 3731.92,1346.2C3731.92,1346.2 3731.92,1339.54 3731.92,1339.54C3731.92,1338.97 3732.37,1338.51 3732.94,1338.51C3732.94,1338.51 3736.37,1338.51 3736.37,1338.51C3736.93,1338.51 3737.39,1338.97 3737.39,1339.54Z" style="fill:rgb(221,221,221);"/>
                </g>
                <g transform="matrix(1,0,0,1,37.9944,0.808402)">
                    <path d="M3737.39,1339.54L3737.39,1346.2C3737.39,1346.76 3736.93,1347.22 3736.37,1347.22L3732.94,1347.22C3732.37,1347.22 3731.92,1346.76 3731.92,1346.2C3731.92,1346.2 3731.92,1339.54 3731.92,1339.54C3731.92,1338.97 3732.37,1338.51 3732.94,1338.51C3732.94,1338.51 3736.37,1338.51 3736.37,1338.51C3736.93,1338.51 3737.39,1338.97 3737.39,1339.54Z" style="fill:none;stroke:black;stroke-width:1.91px;"/>
                    <path d="M3737.39,1339.54L3737.39,1346.2C3737.39,1346.76 3736.93,1347.22 3736.37,1347.22L3732.94,1347.22C3732.37,1347.22 3731.92,1346.76 3731.92,1346.2C3731.92,1346.2 3731.92,1339.54 3731.92,1339.54C3731.92,1338.97 3732.37,1338.51 3732.94,1338.51C3732.94,1338.51 3736.37,1338.51 3736.37,1338.51C3736.93,1338.51 3737.39,1338.97 3737.39,1339.54Z" style="fill:rgb(221,221,221);"/>
                </g>
                <g transform="matrix(1,0,0,1,1.83327,-12.851)">
                    <path d="M3737.39,1339.54L3737.39,1346.2C3737.39,1346.76 3736.93,1347.22 3736.37,1347.22L3732.94,1347.22C3732.37,1347.22 3731.92,1346.76 3731.92,1346.2C3731.92,1346.2 3731.92,1339.54 3731.92,1339.54C3731.92,1338.97 3732.37,1338.51 3732.94,1338.51C3732.94,1338.51 3736.37,1338.51 3736.37,1338.51C3736.93,1338.51 3737.39,1338.97 3737.39,1339.54Z" style="fill:none;stroke:black;stroke-width:1.91px;"/>
                    <path d="M3737.39,1339.54L3737.39,1346.2C3737.39,1346.76 3736.93,1347.22 3736.37,1347.22L3732.94,1347.22C3732.37,1347.22 3731.92,1346.76 3731.92,1346.2C3731.92,1346.2 3731.92,1339.54 3731.92,1339.54C3731.92,1338.97 3732.37,1338.51 3732.94,1338.51C3732.94,1338.51 3736.37,1338.51 3736.37,1338.51C3736.93,1338.51 3737.39,1338.97 3737.39,1339.54Z" style="fill:rgb(221,221,221);"/>
                </g>
                <g transform="matrix(1,0,0,1,37.9944,-12.851)">
                    <path d="M3737.39,1339.54L3737.39,1346.2C3737.39,1346.76 3736.93,1347.22 3736.37,1347.22L3732.94,1347.22C3732.37,1347.22 3731.92,1346.76 3731.92,1346.2C3731.92,1346.2 3731.92,1339.54 3731.92,1339.54C3731.92,1338.97 3732.37,1338.51 3732.94,1338.51C3732.94,1338.51 3736.37,1338.51 3736.37,1338.51C3736.93,1338.51 3737.39,1338.97 3737.39,1339.54Z" style="fill:none;stroke:black;stroke-width:1.91px;"/>
                    <path d="M3737.39,1339.54L3737.39,1346.2C3737.39,1346.76 3736.93,1347.22 3736.37,1347.22L3732.94,1347.22C3732.37,1347.22 3731.92,1346.76 3731.92,1346.2C3731.92,1346.2 3731.92,1339.54 3731.92,1339.54C3731.92,1338.97 3732.37,1338.51 3732.94,1338.51C3732.94,1338.51 3736.37,1338.51 3736.37,1338.51C3736.93,1338.51 3737.39,1338.97 3737.39,1339.54Z" style="fill:rgb(221,221,221);"/>
                </g>
                <g transform="matrix(1,0,0,1,25.8527,-12.851)">
                    <path d="M3737.39,1339.54L3737.39,1346.2C3737.39,1346.76 3736.93,1347.22 3736.37,1347.22L3732.94,1347.22C3732.37,1347.22 3731.92,1346.76 3731.92,1346.2C3731.92,1346.2 3731.92,1339.54 3731.92,1339.54C3731.92,1338.97 3732.37,1338.51 3732.94,1338.51C3732.94,1338.51 3736.37,1338.51 3736.37,1338.51C3736.93,1338.51 3737.39,1338.97 3737.39,1339.54Z" style="fill:none;stroke:black;stroke-width:1.91px;"/>
                    <path d="M3737.39,1339.54L3737.39,1346.2C3737.39,1346.76 3736.93,1347.22 3736.37,1347.22L3732.94,1347.22C3732.37,1347.22 3731.92,1346.76 3731.92,1346.2C3731.92,1346.2 3731.92,1339.54 3731.92,1339.54C3731.92,1338.97 3732.37,1338.51 3732.94,1338.51C3732.94,1338.51 3736.37,1338.51 3736.37,1338.51C3736.93,1338.51 3737.39,1338.97 3737.39,1339.54Z" style="fill:rgb(221,221,221);"/>
                </g>
                <g transform="matrix(1,0,0,1,13.909,0.808402)">
                    <path d="M3737.39,1339.54L3737.39,1346.2C3737.39,1346.76 3736.93,1347.22 3736.37,1347.22L3732.94,1347.22C3732.37,1347.22 3731.92,1346.76 3731.92,1346.2C3731.92,1346.2 3731.92,1339.54 3731.92,1339.54C3731.92,1338.97 3732.37,1338.51 3732.94,1338.51C3732.94,1338.51 3736.37,1338.51 3736.37,1338.51C3736.93,1338.51 3737.39,1338.97 3737.39,1339.54Z" style="fill:none;stroke:black;stroke-width:1.91px;"/>
                    <path d="M3737.39,1339.54L3737.39,1346.2C3737.39,1346.76 3736.93,1347.22 3736.37,1347.22L3732.94,1347.22C3732.37,1347.22 3731.92,1346.76 3731.92,1346.2C3731.92,1346.2 3731.92,1339.54 3731.92,1339.54C3731.92,1338.97 3732.37,1338.51 3732.94,1338.51C3732.94,1338.51 3736.37,1338.51 3736.37,1338.51C3736.93,1338.51 3737.39,1338.97 3737.39,1339.54Z" style="fill:rgb(221,221,221);"/>
                </g>
                <g transform="matrix(1,0,0,1,50.0701,0.808402)">
                    <path d="M3737.39,1339.54L3737.39,1346.2C3737.39,1346.76 3736.93,1347.22 3736.37,1347.22L3732.94,1347.22C3732.37,1347.22 3731.92,1346.76 3731.92,1346.2C3731.92,1346.2 3731.92,1339.54 3731.92,1339.54C3731.92,1338.97 3732.37,1338.51 3732.94,1338.51C3732.94,1338.51 3736.37,1338.51 3736.37,1338.51C3736.93,1338.51 3737.39,1338.97 3737.39,1339.54Z" style="fill:none;stroke:black;stroke-width:1.91px;"/>
                    <path d="M3737.39,1339.54L3737.39,1346.2C3737.39,1346.76 3736.93,1347.22 3736.37,1347.22L3732.94,1347.22C3732.37,1347.22 3731.92,1346.76 3731.92,1346.2C3731.92,1346.2 3731.92,1339.54 3731.92,1339.54C3731.92,1338.97 3732.37,1338.51 3732.94,1338.51C3732.94,1338.51 3736.37,1338.51 3736.37,1338.51C3736.93,1338.51 3737.39,1338.97 3737.39,1339.54Z" style="fill:rgb(221,221,221);"/>
                </g>
                <g transform="matrix(1,0,0,1,13.909,-12.851)">
                    <path d="M3737.39,1339.54L3737.39,1346.2C3737.39,1346.76 3736.93,1347.22 3736.37,1347.22L3732.94,1347.22C3732.37,1347.22 3731.92,1346.76 3731.92,1346.2C3731.92,1346.2 3731.92,1339.54 3731.92,1339.54C3731.92,1338.97 3732.37,1338.51 3732.94,1338.51C3732.94,1338.51 3736.37,1338.51 3736.37,1338.51C3736.93,1338.51 3737.39,1338.97 3737.39,1339.54Z" style="fill:none;stroke:black;stroke-width:1.91px;"/>
                    <path d="M3737.39,1339.54L3737.39,1346.2C3737.39,1346.76 3736.93,1347.22 3736.37,1347.22L3732.94,1347.22C3732.37,1347.22 3731.92,1346.76 3731.92,1346.2C3731.92,1346.2 3731.92,1339.54 3731.92,1339.54C3731.92,1338.97 3732.37,1338.51 3732.94,1338.51C3732.94,1338.51 3736.37,1338.51 3736.37,1338.51C3736.93,1338.51 3737.39,1338.97 3737.39,1339.54Z" style="fill:rgb(221,221,221);"/>
                </g>
                <g transform="matrix(1,0,0,1,50.0701,-12.851)">
                    <path d="M3737.39,1339.54L3737.39,1346.2C3737.39,1346.76 3736.93,1347.22 3736.37,1347.22L3732.94,1347.22C3732.37,1347.22 3731.92,1346.76 3731.92,1346.2C3731.92,1346.2 3731.92,1339.54 3731.92,1339.54C3731.92,1338.97 3732.37,1338.51 3732.94,1338.51C3732.94,1338.51 3736.37,1338.51 3736.37,1338.51C3736.93,1338.51 3737.39,1338.97 3737.39,1339.54Z" style="fill:none;stroke:black;stroke-width:1.91px;"/>
                    <path d="M3737.39,1339.54L3737.39,1346.2C3737.39,1346.76 3736.93,1347.22 3736.37,1347.22L3732.94,1347.22C3732.37,1347.22 3731.92,1346.76 3731.92,1346.2C3731.92,1346.2 3731.92,1339.54 3731.92,1339.54C3731.92,1338.97 3732.37,1338.51 3732.94,1338.51C3732.94,1338.51 3736.37,1338.51 3736.37,1338.51C3736.93,1338.51 3737.39,1338.97 3737.39,1339.54Z" style="fill:rgb(221,221,221);"/>
                </g>
                <g transform="matrix(1.07731,0,0,1,-289.506,1.8084)">
                    <path d="M3775.35,1303.1C3775.12,1302.88 3774.83,1302.77 3774.53,1302.77C3770.96,1302.77 3748.07,1302.77 3744.51,1302.77C3744.21,1302.77 3743.93,1302.88 3743.7,1303.09C3741.8,1304.85 3732.71,1313.3 3728.2,1317.48C3727.8,1317.85 3727.66,1318.44 3727.84,1318.97C3728.02,1319.5 3728.49,1319.85 3729.01,1319.85C3740.54,1319.85 3778.38,1319.85 3789.87,1319.85C3790.39,1319.85 3790.85,1319.5 3791.04,1318.97C3791.22,1318.45 3791.08,1317.86 3790.69,1317.49C3786.23,1313.31 3777.24,1304.87 3775.35,1303.1Z" style="fill:rgb(88,88,88);"/>
                </g>
                <g transform="matrix(1.19486,0,0,0.853554,-731.519,194.378)">
                    <path d="M3756.73,1310.47C3756.73,1309.92 3756.91,1309.41 3757.23,1309.1C3757.68,1308.65 3758.33,1307.99 3758.83,1307.5C3759.25,1307.08 3759.81,1307.08 3760.23,1307.5C3760.73,1307.99 3761.39,1308.65 3761.83,1309.1C3762.15,1309.41 3762.34,1309.92 3762.34,1310.47C3762.34,1312.59 3762.34,1317.85 3762.34,1317.85L3756.73,1317.85L3756.73,1310.47Z" style="fill:rgb(190,190,190);"/>
                </g>
                <g transform="matrix(1.19486,0,0,0.853554,-713.373,194.378)">
                    <path d="M3756.73,1310.47C3756.73,1309.92 3756.91,1309.41 3757.23,1309.1C3757.68,1308.65 3758.33,1307.99 3758.83,1307.5C3759.25,1307.08 3759.81,1307.08 3760.23,1307.5C3760.73,1307.99 3761.39,1308.65 3761.83,1309.1C3762.15,1309.41 3762.34,1309.92 3762.34,1310.47C3762.34,1312.59 3762.34,1317.85 3762.34,1317.85L3756.73,1317.85L3756.73,1310.47Z" style="fill:rgb(190,190,190);"/>
                </g>
                <g transform="matrix(1.19486,0,0,0.853554,-749.468,194.378)">
                    <path d="M3756.73,1310.47C3756.73,1309.92 3756.91,1309.41 3757.23,1309.1C3757.68,1308.65 3758.33,1307.99 3758.83,1307.5C3759.25,1307.08 3759.81,1307.08 3760.23,1307.5C3760.73,1307.99 3761.39,1308.65 3761.83,1309.1C3762.15,1309.41 3762.34,1309.92 3762.34,1310.47C3762.34,1312.59 3762.34,1317.85 3762.34,1317.85L3756.73,1317.85L3756.73,1310.47Z" style="fill:rgb(190,190,190);"/>
                </g>
                <g transform="matrix(1.28159,0,0,0.735225,3237.32,377.436)">
                    <rect x="384.29" y="1284.25" width="48.012" height="1.757"/>
                </g>
                <g transform="matrix(1.28159,0,0,0.751029,3237.32,386.994)">
                    <rect x="384.29" y="1284.25" width="48.012" height="1.757"/>
                </g>
            </g>
        </g>
    </g>
    <defs>
        <linearGradient id="_Linear1" x1="0" y1="0" x2="1" y2="0" gradientUnits="userSpaceOnUse" gradientTransform="matrix(8.96589e-16,43.4421,-4.21183,7.65157e-16,48.6325,30.8101)"><stop offset="0" style="stop-color:rgb(66,34,8);stop-opacity:1"/><stop offset="1" style="stop-color:rgb(48,23,6);stop-opacity:1"/></linearGradient>
    </defs>
</svg>
