<?xml version="1.0" encoding="UTF-8" standalone="no"?>
<!DOCTYPE svg PUBLIC "-//W3C//DTD SVG 1.1//EN" "http://www.w3.org/Graphics/SVG/1.1/DTD/svg11.dtd">
<svg width="100%" height="100%" viewBox="0 0 101 101" version="1.1" xmlns="http://www.w3.org/2000/svg" xmlns:xlink="http://www.w3.org/1999/xlink" xml:space="preserve" xmlns:serif="http://www.serif.com/" style="fill-rule:evenodd;clip-rule:evenodd;stroke-linejoin:round;stroke-miterlimit:2;">
    <g transform="matrix(1,0,0,1,-374.918,-68.6822)">
        <g id="triangle_control" transform="matrix(1,0,0,1,-2908.08,68.5037)">
            <rect x="3283" y="0.179" width="100.333" height="100.333" style="fill:none;"/>
            <g transform="matrix(1.00343,0,0,0.868969,-10.2099,6.49265)">
                <path d="M3326.74,14.269C3320.44,26.861 3299.09,69.562 3292.8,82.151C3291.72,84.301 3291.72,86.951 3292.8,89.101C3293.87,91.252 3295.86,92.576 3298.01,92.576C3310.65,92.576 3353.62,92.576 3366.03,92.576C3368.16,92.576 3370.12,91.269 3371.18,89.148C3372.24,87.026 3372.24,84.412 3371.18,82.29C3364.97,69.88 3343.49,26.908 3337.17,14.269C3336.09,12.118 3334.1,10.793 3331.95,10.793C3329.8,10.793 3327.81,12.118 3326.74,14.269L3326.74,14.269ZM3330.19,16.571C3330.55,15.844 3331.23,15.396 3331.95,15.396C3332.68,15.396 3333.35,15.844 3333.71,16.571C3340.03,29.209 3361.52,72.182 3367.72,84.592C3368.07,85.289 3368.07,86.149 3367.72,86.846C3367.38,87.543 3366.73,87.973 3366.03,87.973C3353.62,87.973 3310.65,87.973 3298.01,87.973C3297.28,87.973 3296.61,87.526 3296.25,86.8C3295.89,86.073 3295.89,85.179 3296.25,84.452C3302.55,71.863 3323.89,29.162 3330.19,16.571Z" style="fill:rgb(144,110,252);"/>
            </g>
            <g transform="matrix(1.00343,0,0,0.868969,-10.2394,6.49265)">
                <path d="M3323.29,11.967L3289.35,79.849C3287.56,83.424 3287.56,87.828 3289.35,91.403C3291.13,94.977 3294.44,97.179 3298.01,97.179C3310.65,97.179 3353.62,97.179 3366.03,97.179C3369.58,97.179 3372.86,94.995 3374.63,91.449C3376.4,87.903 3376.4,83.534 3374.63,79.989C3368.42,67.579 3346.94,24.606 3340.62,11.967C3338.83,8.392 3335.53,6.19 3331.95,6.19C3328.38,6.19 3325.07,8.392 3323.29,11.967ZM3326.74,14.269L3292.8,82.151C3291.72,84.301 3291.72,86.951 3292.8,89.101C3293.87,91.252 3295.86,92.576 3298.01,92.576C3310.65,92.576 3353.62,92.576 3366.03,92.576C3368.16,92.576 3370.12,91.269 3371.18,89.148C3372.24,87.026 3372.24,84.412 3371.18,82.29C3364.97,69.88 3343.49,26.908 3337.17,14.269C3336.09,12.118 3334.1,10.793 3331.95,10.793C3329.8,10.793 3327.81,12.118 3326.74,14.269L3326.74,14.269Z" style="fill:rgb(80,60,151);"/>
            </g>
            <g transform="matrix(1.06729,0,0,0.925468,2879.44,-64.6202)">
                <path d="M423.494,92.071C423.821,91.415 424.428,91.011 425.084,91.011C425.741,91.011 426.347,91.415 426.675,92.071C432.54,103.8 452.914,144.547 458.773,156.267C459.101,156.922 459.101,157.729 458.772,158.384C458.444,159.039 457.838,159.442 457.182,159.442C445.458,159.442 404.71,159.442 392.986,159.442C392.33,159.442 391.724,159.039 391.396,158.384C391.068,157.729 391.068,156.922 391.395,156.267C397.255,144.547 417.629,103.8 423.494,92.071Z" style="fill:white;fill-opacity:0.85;"/>
            </g>
        </g>
    </g>
</svg>
