<?xml version="1.0" encoding="UTF-8" standalone="no"?>
<!DOCTYPE svg PUBLIC "-//W3C//DTD SVG 1.1//EN" "http://www.w3.org/Graphics/SVG/1.1/DTD/svg11.dtd">
<svg width="100%" height="100%" viewBox="0 0 83 82" version="1.1" xmlns="http://www.w3.org/2000/svg" xmlns:xlink="http://www.w3.org/1999/xlink" xml:space="preserve" xmlns:serif="http://www.serif.com/" style="fill-rule:evenodd;clip-rule:evenodd;stroke-linecap:round;stroke-miterlimit:10;">
    <g transform="matrix(1,0,0,1,-1102.17,-400.422)">
        <g transform="matrix(1,0,0,1,895.226,0)">
            <g transform="matrix(1,0,0,1,230.437,454.124)">
                <path d="M0,26.244C-7.235,26.244 -13.122,20.357 -13.122,13.122C-13.122,5.887 -7.235,0 0,0C7.235,0 13.122,5.887 13.122,13.122C13.122,20.357 7.235,26.244 0,26.244" style="fill:white;fill-rule:nonzero;"/>
            </g>
        </g>
        <g transform="matrix(1,0,0,1,895.226,0)">
            <g transform="matrix(1,0,0,1,230.437,482.368)">
                <path d="M0,-30.244C-8.338,-30.244 -15.122,-23.461 -15.122,-15.122C-15.122,-6.784 -8.338,0 0,0C8.338,0 15.122,-6.784 15.122,-15.122C15.122,-23.461 8.338,-30.244 0,-30.244M0,-26.244C6.143,-26.244 11.122,-21.265 11.122,-15.122C11.122,-8.979 6.143,-4 0,-4C-6.143,-4 -11.122,-8.979 -11.122,-15.122C-11.122,-21.265 -6.143,-26.244 0,-26.244" style="fill:rgb(102,102,102);fill-rule:nonzero;"/>
            </g>
        </g>
        <g transform="matrix(1,0,0,1,895.226,0)">
            <g transform="matrix(1,0,0,1,260.937,453.979)">
                <path d="M0,26.244C-7.235,26.244 -13.122,20.357 -13.122,13.122C-13.122,5.887 -7.235,0 0,0C7.235,0 13.122,5.887 13.122,13.122C13.122,20.357 7.235,26.244 0,26.244" style="fill:white;fill-rule:nonzero;"/>
            </g>
        </g>
        <g transform="matrix(1,0,0,1,895.226,0)">
            <g transform="matrix(1,0,0,1,260.937,482.223)">
                <path d="M0,-30.243C-8.338,-30.243 -15.122,-23.46 -15.122,-15.122C-15.122,-6.783 -8.338,0 0,0C8.338,0 15.122,-6.783 15.122,-15.122C15.122,-23.46 8.338,-30.243 0,-30.243M0,-26.243C6.143,-26.243 11.122,-21.264 11.122,-15.122C11.122,-8.979 6.143,-4 0,-4C-6.143,-4 -11.122,-8.979 -11.122,-15.122C-11.122,-21.264 -6.143,-26.243 0,-26.243" style="fill:rgb(102,102,102);fill-rule:nonzero;"/>
            </g>
        </g>
        <g transform="matrix(1,0,0,1,895.226,0)">
            <g transform="matrix(1,0,0,1,257.499,406.179)">
                <path d="M0,26.244C-7.235,26.244 -13.122,20.357 -13.122,13.122C-13.122,5.887 -7.235,0 0,0C7.235,0 13.122,5.887 13.122,13.122C13.122,20.357 7.235,26.244 0,26.244" style="fill:white;fill-rule:nonzero;"/>
            </g>
        </g>
        <g transform="matrix(1,0,0,1,895.226,0)">
            <g transform="matrix(1,0,0,1,257.499,434.423)">
                <path d="M0,-30.244C-8.338,-30.244 -15.122,-23.461 -15.122,-15.122C-15.122,-6.784 -8.338,0 0,0C8.338,0 15.122,-6.784 15.122,-15.122C15.122,-23.461 8.338,-30.244 0,-30.244M0,-26.244C6.143,-26.244 11.122,-21.265 11.122,-15.122C11.122,-8.979 6.143,-4 0,-4C-6.143,-4 -11.122,-8.979 -11.122,-15.122C-11.122,-21.265 -6.143,-26.244 0,-26.244" style="fill:rgb(102,102,102);fill-rule:nonzero;"/>
            </g>
        </g>
        <g transform="matrix(1,0,0,1,895.226,0)">
            <g transform="matrix(1,0,0,1,226.592,411.011)">
                <path d="M0,26.244C-7.235,26.244 -13.122,20.357 -13.122,13.122C-13.122,5.887 -7.235,0 0,0C7.235,0 13.122,5.887 13.122,13.122C13.122,20.357 7.235,26.244 0,26.244" style="fill:white;fill-rule:nonzero;"/>
            </g>
        </g>
        <g transform="matrix(1,0,0,1,895.226,0)">
            <g transform="matrix(1,0,0,1,226.592,439.255)">
                <path d="M0,-30.244C-8.338,-30.244 -15.122,-23.461 -15.122,-15.122C-15.122,-6.784 -8.338,0 0,0C8.338,0 15.122,-6.784 15.122,-15.122C15.122,-23.461 8.338,-30.244 0,-30.244M0,-26.244C6.142,-26.244 11.122,-21.265 11.122,-15.122C11.122,-8.979 6.142,-4 0,-4C-6.143,-4 -11.122,-8.979 -11.122,-15.122C-11.122,-21.265 -6.143,-26.244 0,-26.244" style="fill:rgb(102,102,102);fill-rule:nonzero;"/>
            </g>
        </g>
        <g transform="matrix(1,0,0,1,895.226,0)">
            <g transform="matrix(1,0,0,1,238.693,418.213)">
                <path d="M0,26.244C-7.235,26.244 -13.122,20.357 -13.122,13.122C-13.122,5.887 -7.235,0 0,0C7.235,0 13.122,5.887 13.122,13.122C13.122,20.357 7.235,26.244 0,26.244" style="fill:white;fill-rule:nonzero;"/>
            </g>
        </g>
        <g transform="matrix(1,0,0,1,895.226,0)">
            <g transform="matrix(1,0,0,1,238.693,446.457)">
                <path d="M0,-30.244C-8.338,-30.244 -15.122,-23.46 -15.122,-15.122C-15.122,-6.784 -8.338,0 0,0C8.338,0 15.122,-6.784 15.122,-15.122C15.122,-23.46 8.338,-30.244 0,-30.244M0,-26.244C6.143,-26.244 11.122,-21.265 11.122,-15.122C11.122,-8.979 6.143,-4 0,-4C-6.143,-4 -11.122,-8.979 -11.122,-15.122C-11.122,-21.265 -6.143,-26.244 0,-26.244" style="fill:rgb(102,102,102);fill-rule:nonzero;"/>
            </g>
        </g>
        <g transform="matrix(1,0,0,1,895.226,0)">
            <g transform="matrix(1,0,0,1,233.193,441.186)">
                <path d="M0,26.244C-7.235,26.244 -13.122,20.357 -13.122,13.122C-13.122,5.887 -7.235,0 0,0C7.235,0 13.122,5.887 13.122,13.122C13.122,20.357 7.235,26.244 0,26.244" style="fill:white;fill-rule:nonzero;"/>
            </g>
        </g>
        <g transform="matrix(1,0,0,1,895.226,0)">
            <g transform="matrix(1,0,0,1,233.193,469.43)">
                <path d="M0,-30.244C-8.338,-30.244 -15.122,-23.46 -15.122,-15.122C-15.122,-6.784 -8.338,0 0,0C8.338,0 15.122,-6.784 15.122,-15.122C15.122,-23.46 8.338,-30.244 0,-30.244M0,-26.244C6.143,-26.244 11.122,-21.265 11.122,-15.122C11.122,-8.979 6.143,-4 0,-4C-6.143,-4 -11.122,-8.979 -11.122,-15.122C-11.122,-21.265 -6.143,-26.244 0,-26.244" style="fill:rgb(102,102,102);fill-rule:nonzero;"/>
            </g>
        </g>
        <g transform="matrix(1,0,0,1,895.226,0)">
            <g transform="matrix(1,0,0,1,252.68,428.74)">
                <path d="M0,26.244C-7.235,26.244 -13.122,20.357 -13.122,13.122C-13.122,5.887 -7.235,0 0,0C7.235,0 13.122,5.887 13.122,13.122C13.122,20.357 7.235,26.244 0,26.244" style="fill:white;fill-rule:nonzero;"/>
            </g>
        </g>
        <g transform="matrix(1,0,0,1,895.226,0)">
            <g transform="matrix(1,0,0,1,252.68,456.984)">
                <path d="M0,-30.244C-8.338,-30.244 -15.122,-23.46 -15.122,-15.122C-15.122,-6.784 -8.338,0 0,0C8.338,0 15.122,-6.784 15.122,-15.122C15.122,-23.46 8.338,-30.244 0,-30.244M0,-26.244C6.143,-26.244 11.122,-21.265 11.122,-15.122C11.122,-8.979 6.143,-4 0,-4C-6.142,-4 -11.122,-8.979 -11.122,-15.122C-11.122,-21.265 -6.142,-26.244 0,-26.244" style="fill:rgb(102,102,102);fill-rule:nonzero;"/>
            </g>
        </g>
        <g transform="matrix(1,0,0,1,895.226,0)">
            <g transform="matrix(1,0,0,1,262.582,444.208)">
                <path d="M0,26.243C-7.235,26.243 -13.122,20.356 -13.122,13.121C-13.122,5.886 -7.235,0 0,0C7.235,0 13.122,5.886 13.122,13.121C13.122,20.356 7.235,26.243 0,26.243" style="fill:white;fill-rule:nonzero;"/>
            </g>
        </g>
        <g transform="matrix(1,0,0,1,895.226,0)">
            <g transform="matrix(1,0,0,1,262.582,472.451)">
                <path d="M0,-30.244C-8.338,-30.244 -15.122,-23.46 -15.122,-15.122C-15.122,-6.783 -8.338,0 0,0C8.338,0 15.122,-6.783 15.122,-15.122C15.122,-23.46 8.338,-30.244 0,-30.244M0,-26.244C6.143,-26.244 11.122,-21.264 11.122,-15.122C11.122,-8.979 6.143,-4 0,-4C-6.143,-4 -11.122,-8.979 -11.122,-15.122C-11.122,-21.264 -6.143,-26.244 0,-26.244" style="fill:rgb(102,102,102);fill-rule:nonzero;"/>
            </g>
        </g>
        <g transform="matrix(1,0,0,1,895.226,0)">
            <g transform="matrix(1,0,0,1,222.07,428.306)">
                <path d="M0,26.244C-7.235,26.244 -13.122,20.357 -13.122,13.122C-13.122,5.887 -7.235,0 0,0C7.235,0 13.122,5.887 13.122,13.122C13.122,20.357 7.235,26.244 0,26.244" style="fill:white;fill-rule:nonzero;"/>
            </g>
        </g>
        <g transform="matrix(1,0,0,1,895.226,0)">
            <g transform="matrix(1,0,0,1,222.07,456.55)">
                <path d="M0,-30.244C-8.338,-30.244 -15.122,-23.46 -15.122,-15.122C-15.122,-6.783 -8.338,0 0,0C8.338,0 15.122,-6.783 15.122,-15.122C15.122,-23.46 8.338,-30.244 0,-30.244M0,-26.244C6.143,-26.244 11.122,-21.265 11.122,-15.122C11.122,-8.979 6.143,-4 0,-4C-6.143,-4 -11.122,-8.979 -11.122,-15.122C-11.122,-21.265 -6.143,-26.244 0,-26.244" style="fill:rgb(102,102,102);fill-rule:nonzero;"/>
            </g>
        </g>
        <g transform="matrix(1,0,0,1,895.226,0)">
            <g transform="matrix(1,0,0,1,240.338,453.979)">
                <path d="M0,26.244C-7.235,26.244 -13.122,20.357 -13.122,13.122C-13.122,5.887 -7.235,0 0,0C7.235,0 13.122,5.887 13.122,13.122C13.122,20.357 7.235,26.244 0,26.244" style="fill:white;fill-rule:nonzero;"/>
            </g>
        </g>
        <g transform="matrix(1,0,0,1,895.226,0)">
            <g transform="matrix(1,0,0,1,240.338,482.223)">
                <path d="M0,-30.243C-8.338,-30.243 -15.122,-23.46 -15.122,-15.122C-15.122,-6.783 -8.338,0 0,0C8.338,0 15.122,-6.783 15.122,-15.122C15.122,-23.46 8.338,-30.243 0,-30.243M0,-26.243C6.143,-26.243 11.122,-21.264 11.122,-15.122C11.122,-8.979 6.143,-4 0,-4C-6.143,-4 -11.122,-8.979 -11.122,-15.122C-11.122,-21.264 -6.143,-26.243 0,-26.243" style="fill:rgb(102,102,102);fill-rule:nonzero;"/>
            </g>
        </g>
        <g transform="matrix(1,0,0,1,895.226,0)">
            <g transform="matrix(1,0,0,1,242.779,434.891)">
                <path d="M0,26.244C-7.235,26.244 -13.122,20.357 -13.122,13.122C-13.122,5.887 -7.235,0 0,0C7.235,0 13.122,5.887 13.122,13.122C13.122,20.357 7.235,26.244 0,26.244" style="fill:white;fill-rule:nonzero;"/>
            </g>
        </g>
        <g transform="matrix(1,0,0,1,895.226,0)">
            <g transform="matrix(1,0,0,1,242.779,463.135)">
                <path d="M0,-30.243C-8.338,-30.243 -15.122,-23.46 -15.122,-15.122C-15.122,-6.783 -8.338,0 0,0C8.338,0 15.122,-6.783 15.122,-15.122C15.122,-23.46 8.338,-30.243 0,-30.243M0,-26.243C6.143,-26.243 11.122,-21.264 11.122,-15.122C11.122,-8.979 6.143,-4 0,-4C-6.143,-4 -11.122,-8.979 -11.122,-15.122C-11.122,-21.264 -6.143,-26.243 0,-26.243" style="fill:rgb(102,102,102);fill-rule:nonzero;"/>
            </g>
        </g>
        <g transform="matrix(1,0,0,1,895.226,0)">
            <g transform="matrix(1,0,0,1,252.68,412.374)">
                <path d="M0,26.244C-7.235,26.244 -13.122,20.357 -13.122,13.122C-13.122,5.887 -7.235,0 0,0C7.235,0 13.122,5.887 13.122,13.122C13.122,20.357 7.235,26.244 0,26.244" style="fill:white;fill-rule:nonzero;"/>
            </g>
        </g>
        <g transform="matrix(1,0,0,1,895.226,0)">
            <g transform="matrix(1,0,0,1,252.68,440.618)">
                <path d="M0,-30.244C-8.338,-30.244 -15.122,-23.46 -15.122,-15.122C-15.122,-6.784 -8.338,0 0,0C8.338,0 15.122,-6.784 15.122,-15.122C15.122,-23.46 8.338,-30.244 0,-30.244M0,-26.244C6.143,-26.244 11.122,-21.265 11.122,-15.122C11.122,-8.979 6.143,-4 0,-4C-6.142,-4 -11.122,-8.979 -11.122,-15.122C-11.122,-21.265 -6.142,-26.244 0,-26.244" style="fill:rgb(102,102,102);fill-rule:nonzero;"/>
            </g>
        </g>
        <g transform="matrix(1,0,0,1,895.226,0)">
            <g transform="matrix(1,0,0,1,239.322,407.466)">
                <path d="M0,26.243C-7.235,26.243 -13.122,20.356 -13.122,13.121C-13.122,5.886 -7.235,0 0,0C7.235,0 13.122,5.886 13.122,13.121C13.122,20.356 7.235,26.243 0,26.243" style="fill:white;fill-rule:nonzero;"/>
            </g>
        </g>
        <g transform="matrix(1,0,0,1,895.226,0)">
            <g transform="matrix(1,0,0,1,239.322,435.709)">
                <path d="M0,-30.243C-8.338,-30.243 -15.122,-23.46 -15.122,-15.122C-15.122,-6.783 -8.338,0 0,0C8.338,0 15.122,-6.783 15.122,-15.122C15.122,-23.46 8.338,-30.243 0,-30.243M0,-26.243C6.143,-26.243 11.122,-21.264 11.122,-15.122C11.122,-8.979 6.143,-4 0,-4C-6.143,-4 -11.122,-8.979 -11.122,-15.122C-11.122,-21.264 -6.143,-26.243 0,-26.243" style="fill:rgb(102,102,102);fill-rule:nonzero;"/>
            </g>
        </g>
        <g transform="matrix(1,0,0,1,895.226,0)">
            <g transform="matrix(1,0,0,1,266.511,422.133)">
                <path d="M0,26.244C-7.235,26.244 -13.122,20.357 -13.122,13.122C-13.122,5.887 -7.235,0 0,0C7.235,0 13.122,5.887 13.122,13.122C13.122,20.357 7.235,26.244 0,26.244" style="fill:white;fill-rule:nonzero;"/>
            </g>
        </g>
        <g transform="matrix(1,0,0,1,895.226,0)">
            <g transform="matrix(1,0,0,1,266.511,450.377)">
                <path d="M0,-30.244C-8.338,-30.244 -15.122,-23.461 -15.122,-15.122C-15.122,-6.784 -8.338,0 0,0C8.338,0 15.122,-6.784 15.122,-15.122C15.122,-23.461 8.338,-30.244 0,-30.244M0,-26.244C6.143,-26.244 11.122,-21.265 11.122,-15.122C11.122,-8.979 6.143,-4 0,-4C-6.143,-4 -11.122,-8.979 -11.122,-15.122C-11.122,-21.265 -6.143,-26.244 0,-26.244" style="fill:rgb(102,102,102);fill-rule:nonzero;"/>
            </g>
        </g>
        <g transform="matrix(1,0,0,1,895.226,0)">
            <g transform="matrix(1,0,0,1,251.46,451.65)">
                <path d="M0,26.243C-7.235,26.243 -13.122,20.356 -13.122,13.121C-13.122,5.886 -7.235,0 0,0C7.235,0 13.122,5.886 13.122,13.121C13.122,20.356 7.235,26.243 0,26.243" style="fill:white;fill-rule:nonzero;"/>
            </g>
        </g>
        <g transform="matrix(1,0,0,1,895.226,0)">
            <g transform="matrix(1,0,0,1,251.46,479.893)">
                <path d="M0,-30.243C-8.338,-30.243 -15.122,-23.46 -15.122,-15.122C-15.122,-6.783 -8.338,0 0,0C8.338,0 15.122,-6.783 15.122,-15.122C15.122,-23.46 8.338,-30.243 0,-30.243M0,-26.243C6.143,-26.243 11.122,-21.264 11.122,-15.122C11.122,-8.979 6.143,-4 0,-4C-6.143,-4 -11.122,-8.979 -11.122,-15.122C-11.122,-21.264 -6.143,-26.243 0,-26.243" style="fill:rgb(102,102,102);fill-rule:nonzero;"/>
            </g>
        </g>
        <g transform="matrix(1,0,0,1,895.226,0)">
            <g transform="matrix(1,0,0,1,224.391,447.717)">
                <path d="M0,26.244C-7.235,26.244 -13.122,20.357 -13.122,13.122C-13.122,5.887 -7.235,0 0,0C7.235,0 13.122,5.887 13.122,13.122C13.122,20.357 7.235,26.244 0,26.244" style="fill:white;fill-rule:nonzero;"/>
            </g>
        </g>
        <g transform="matrix(1,0,0,1,895.226,0)">
            <g transform="matrix(1,0,0,1,224.391,475.961)">
                <path d="M0,-30.244C-8.338,-30.244 -15.122,-23.46 -15.122,-15.122C-15.122,-6.784 -8.338,0 0,0C8.338,0 15.122,-6.784 15.122,-15.122C15.122,-23.46 8.338,-30.244 0,-30.244M0,-26.244C6.143,-26.244 11.122,-21.265 11.122,-15.122C11.122,-8.979 6.143,-4 0,-4C-6.142,-4 -11.122,-8.979 -11.122,-15.122C-11.122,-21.265 -6.142,-26.244 0,-26.244" style="fill:rgb(102,102,102);fill-rule:nonzero;"/>
            </g>
        </g>
        <g transform="matrix(1,0,0,1,895.226,0)">
            <g transform="matrix(1,0,0,1,269.654,432.855)">
                <path d="M0,26.244C-7.235,26.244 -13.122,20.357 -13.122,13.122C-13.122,5.887 -7.235,0 0,0C7.235,0 13.122,5.887 13.122,13.122C13.122,20.357 7.235,26.244 0,26.244" style="fill:white;fill-rule:nonzero;"/>
            </g>
        </g>
        <g transform="matrix(1,0,0,1,895.226,0)">
            <g transform="matrix(1,0,0,1,269.654,461.099)">
                <path d="M0,-30.244C-8.338,-30.244 -15.122,-23.46 -15.122,-15.122C-15.122,-6.784 -8.338,0 0,0C8.338,0 15.122,-6.784 15.122,-15.122C15.122,-23.46 8.338,-30.244 0,-30.244M0,-26.244C6.143,-26.244 11.122,-21.265 11.122,-15.122C11.122,-8.979 6.143,-4 0,-4C-6.143,-4 -11.122,-8.979 -11.122,-15.122C-11.122,-21.265 -6.143,-26.244 0,-26.244" style="fill:rgb(102,102,102);fill-rule:nonzero;"/>
            </g>
        </g>
        <g transform="matrix(1,0,0,1,895.226,0)">
            <g transform="matrix(1,0,0,1,227.571,419.965)">
                <path d="M0,26.244C-7.235,26.244 -13.122,20.357 -13.122,13.122C-13.122,5.887 -7.235,0 0,0C7.235,0 13.122,5.887 13.122,13.122C13.122,20.357 7.235,26.244 0,26.244" style="fill:white;fill-rule:nonzero;"/>
            </g>
        </g>
        <g transform="matrix(1,0,0,1,895.226,0)">
            <g transform="matrix(1,0,0,1,227.571,448.209)">
                <path d="M0,-30.244C-8.338,-30.244 -15.122,-23.46 -15.122,-15.122C-15.122,-6.783 -8.338,0 0,0C8.338,0 15.122,-6.783 15.122,-15.122C15.122,-23.46 8.338,-30.244 0,-30.244M0,-26.244C6.143,-26.244 11.122,-21.265 11.122,-15.122C11.122,-8.979 6.143,-4 0,-4C-6.142,-4 -11.122,-8.979 -11.122,-15.122C-11.122,-21.265 -6.142,-26.244 0,-26.244" style="fill:rgb(102,102,102);fill-rule:nonzero;"/>
            </g>
        </g>
        <g transform="matrix(1,0,0,1,895.226,0)">
            <g transform="matrix(1,0,0,1,248.836,442.011)">
                <path d="M0,26.244C-7.235,26.244 -13.122,20.357 -13.122,13.122C-13.122,5.887 -7.235,0 0,0C7.235,0 13.122,5.887 13.122,13.122C13.122,20.357 7.235,26.244 0,26.244" style="fill:white;fill-rule:nonzero;"/>
            </g>
        </g>
        <g transform="matrix(1,0,0,1,895.226,0)">
            <g transform="matrix(1,0,0,1,248.836,470.255)">
                <path d="M0,-30.244C-8.338,-30.244 -15.122,-23.46 -15.122,-15.122C-15.122,-6.783 -8.338,0 0,0C8.338,0 15.122,-6.783 15.122,-15.122C15.122,-23.46 8.338,-30.244 0,-30.244M0,-26.244C6.143,-26.244 11.122,-21.265 11.122,-15.122C11.122,-8.979 6.143,-4 0,-4C-6.142,-4 -11.122,-8.979 -11.122,-15.122C-11.122,-21.265 -6.142,-26.244 0,-26.244" style="fill:rgb(102,102,102);fill-rule:nonzero;"/>
            </g>
        </g>
        <g transform="matrix(1,0,0,1,895.226,0)">
            <g transform="matrix(1,0,0,1,230.437,455.124)">
                <path d="M0,24.244C-6.684,24.244 -12.122,18.807 -12.122,12.122C-12.122,5.437 -6.684,0 0,0C6.684,0 12.122,5.437 12.122,12.122C12.122,18.807 6.684,24.244 0,24.244" style="fill:white;fill-rule:nonzero;"/>
            </g>
        </g>
        <g transform="matrix(1,0,0,1,895.226,0)">
            <g transform="matrix(1,0,0,1,230.437,480.368)">
                <path d="M0,-26.244C-7.236,-26.244 -13.122,-20.357 -13.122,-13.122C-13.122,-5.887 -7.236,0 0,0C7.235,0 13.122,-5.887 13.122,-13.122C13.122,-20.357 7.235,-26.244 0,-26.244M0,-24.244C6.143,-24.244 11.122,-19.265 11.122,-13.122C11.122,-6.979 6.143,-2 0,-2C-6.143,-2 -11.122,-6.979 -11.122,-13.122C-11.122,-19.265 -6.143,-24.244 0,-24.244" style="fill:rgb(102,102,102);fill-rule:nonzero;"/>
            </g>
        </g>
        <g transform="matrix(1,0,0,1,895.226,0)">
            <g transform="matrix(1,0,0,1,260.937,454.979)">
                <path d="M0,24.244C-6.684,24.244 -12.122,18.807 -12.122,12.122C-12.122,5.437 -6.684,0 0,0C6.684,0 12.122,5.437 12.122,12.122C12.122,18.807 6.684,24.244 0,24.244" style="fill:white;fill-rule:nonzero;"/>
            </g>
        </g>
        <g transform="matrix(1,0,0,1,895.226,0)">
            <g transform="matrix(1,0,0,1,260.937,480.223)">
                <path d="M0,-26.243C-7.235,-26.243 -13.122,-20.357 -13.122,-13.122C-13.122,-5.886 -7.235,0 0,0C7.235,0 13.122,-5.886 13.122,-13.122C13.122,-20.357 7.235,-26.243 0,-26.243M0,-24.243C6.143,-24.243 11.122,-19.264 11.122,-13.122C11.122,-6.979 6.143,-2 0,-2C-6.143,-2 -11.122,-6.979 -11.122,-13.122C-11.122,-19.264 -6.143,-24.243 0,-24.243" style="fill:rgb(102,102,102);fill-rule:nonzero;"/>
            </g>
        </g>
        <g transform="matrix(1,0,0,1,895.226,0)">
            <g opacity="0.4">
                <g transform="matrix(0,-1,-1,0,260.937,459.601)">
                    <path d="M-7.5,-7.5C-3.358,-7.5 0,-4.142 0,0C0,4.142 -3.358,7.5 -7.5,7.5C-11.643,7.5 -15,4.142 -15,0C-15,-4.142 -11.643,-7.5 -7.5,-7.5" style="fill:rgb(102,102,102);fill-rule:nonzero;"/>
                </g>
            </g>
        </g>
        <g transform="matrix(1,0,0,1,895.226,0)">
            <g transform="matrix(1,0,0,1,257.499,407.179)">
                <path d="M0,24.244C-6.684,24.244 -12.122,18.807 -12.122,12.122C-12.122,5.437 -6.684,0 0,0C6.684,0 12.122,5.437 12.122,12.122C12.122,18.807 6.684,24.244 0,24.244" style="fill:white;fill-rule:nonzero;"/>
            </g>
        </g>
        <g transform="matrix(1,0,0,1,895.226,0)">
            <g transform="matrix(1,0,0,1,257.499,432.423)">
                <path d="M0,-26.244C-7.236,-26.244 -13.122,-20.357 -13.122,-13.122C-13.122,-5.887 -7.236,0 0,0C7.235,0 13.122,-5.887 13.122,-13.122C13.122,-20.357 7.235,-26.244 0,-26.244M0,-24.244C6.143,-24.244 11.122,-19.265 11.122,-13.122C11.122,-6.979 6.143,-2 0,-2C-6.143,-2 -11.122,-6.979 -11.122,-13.122C-11.122,-19.265 -6.143,-24.244 0,-24.244" style="fill:rgb(102,102,102);fill-rule:nonzero;"/>
            </g>
        </g>
        <g transform="matrix(1,0,0,1,895.226,0)">
            <g opacity="0.4">
                <g transform="matrix(0,-1,-1,0,257.499,411.801)">
                    <path d="M-7.5,-7.5C-3.357,-7.5 0,-4.142 0,0C0,4.142 -3.357,7.5 -7.5,7.5C-11.642,7.5 -15,4.142 -15,0C-15,-4.142 -11.642,-7.5 -7.5,-7.5" style="fill:rgb(102,102,102);fill-rule:nonzero;"/>
                </g>
            </g>
        </g>
        <g transform="matrix(1,0,0,1,895.226,0)">
            <g transform="matrix(1,0,0,1,226.592,412.011)">
                <path d="M0,24.244C-6.684,24.244 -12.122,18.807 -12.122,12.122C-12.122,5.437 -6.684,0 0,0C6.684,0 12.122,5.437 12.122,12.122C12.122,18.807 6.684,24.244 0,24.244" style="fill:white;fill-rule:nonzero;"/>
            </g>
        </g>
        <g transform="matrix(1,0,0,1,895.226,0)">
            <g transform="matrix(1,0,0,1,226.592,437.255)">
                <path d="M0,-26.244C-7.236,-26.244 -13.122,-20.357 -13.122,-13.122C-13.122,-5.887 -7.236,0 0,0C7.235,0 13.122,-5.887 13.122,-13.122C13.122,-20.357 7.235,-26.244 0,-26.244M0,-24.244C6.142,-24.244 11.122,-19.265 11.122,-13.122C11.122,-6.979 6.142,-2 0,-2C-6.143,-2 -11.122,-6.979 -11.122,-13.122C-11.122,-19.265 -6.143,-24.244 0,-24.244" style="fill:rgb(102,102,102);fill-rule:nonzero;"/>
            </g>
        </g>
        <g transform="matrix(1,0,0,1,895.226,0)">
            <g opacity="0.4">
                <g transform="matrix(0,-1,-1,0,226.592,416.633)">
                    <path d="M-7.5,-7.5C-3.357,-7.5 0,-4.142 0,0C0,4.143 -3.357,7.5 -7.5,7.5C-11.642,7.5 -15,4.143 -15,0C-15,-4.142 -11.642,-7.5 -7.5,-7.5" style="fill:rgb(102,102,102);fill-rule:nonzero;"/>
                </g>
            </g>
        </g>
        <g transform="matrix(1,0,0,1,895.226,0)">
            <g transform="matrix(1,0,0,1,238.693,419.213)">
                <path d="M0,24.244C-6.684,24.244 -12.122,18.807 -12.122,12.122C-12.122,5.437 -6.684,0 0,0C6.684,0 12.122,5.437 12.122,12.122C12.122,18.807 6.684,24.244 0,24.244" style="fill:white;fill-rule:nonzero;"/>
            </g>
        </g>
        <g transform="matrix(1,0,0,1,895.226,0)">
            <g transform="matrix(1,0,0,1,238.693,444.457)">
                <path d="M0,-26.244C-7.235,-26.244 -13.122,-20.357 -13.122,-13.122C-13.122,-5.887 -7.235,0 0,0C7.236,0 13.122,-5.887 13.122,-13.122C13.122,-20.357 7.236,-26.244 0,-26.244M0,-24.244C6.143,-24.244 11.122,-19.265 11.122,-13.122C11.122,-6.979 6.143,-2 0,-2C-6.143,-2 -11.122,-6.979 -11.122,-13.122C-11.122,-19.265 -6.143,-24.244 0,-24.244" style="fill:rgb(102,102,102);fill-rule:nonzero;"/>
            </g>
        </g>
        <g transform="matrix(1,0,0,1,895.226,0)">
            <g transform="matrix(1,0,0,1,233.193,442.186)">
                <path d="M0,24.244C-6.684,24.244 -12.122,18.807 -12.122,12.122C-12.122,5.437 -6.684,0 0,0C6.684,0 12.122,5.437 12.122,12.122C12.122,18.807 6.684,24.244 0,24.244" style="fill:rgb(212,20,90);fill-rule:nonzero;"/>
            </g>
        </g>
        <g transform="matrix(1,0,0,1,895.226,0)">
            <g transform="matrix(1,0,0,1,233.193,467.43)">
                <path d="M0,-26.244C-7.235,-26.244 -13.122,-20.357 -13.122,-13.122C-13.122,-5.887 -7.235,0 0,0C7.235,0 13.122,-5.887 13.122,-13.122C13.122,-20.357 7.235,-26.244 0,-26.244M0,-24.244C6.143,-24.244 11.122,-19.265 11.122,-13.122C11.122,-6.979 6.143,-2 0,-2C-6.143,-2 -11.122,-6.979 -11.122,-13.122C-11.122,-19.265 -6.143,-24.244 0,-24.244" style="fill:rgb(140,16,72);fill-rule:nonzero;"/>
            </g>
        </g>
        <g transform="matrix(1,0,0,1,895.226,0)">
            <g transform="matrix(1,0,0,1,252.68,429.74)">
                <path d="M0,24.244C-6.684,24.244 -12.122,18.807 -12.122,12.122C-12.122,5.437 -6.684,0 0,0C6.684,0 12.122,5.437 12.122,12.122C12.122,18.807 6.684,24.244 0,24.244" style="fill:white;fill-rule:nonzero;"/>
            </g>
        </g>
        <g transform="matrix(1,0,0,1,895.226,0)">
            <g transform="matrix(1,0,0,1,252.68,454.984)">
                <path d="M0,-26.244C-7.235,-26.244 -13.122,-20.357 -13.122,-13.122C-13.122,-5.887 -7.235,0 0,0C7.236,0 13.122,-5.887 13.122,-13.122C13.122,-20.357 7.236,-26.244 0,-26.244M0,-24.244C6.143,-24.244 11.122,-19.265 11.122,-13.122C11.122,-6.979 6.143,-2 0,-2C-6.142,-2 -11.122,-6.979 -11.122,-13.122C-11.122,-19.265 -6.142,-24.244 0,-24.244" style="fill:rgb(102,102,102);fill-rule:nonzero;"/>
            </g>
        </g>
        <g transform="matrix(1,0,0,1,895.226,0)">
            <g transform="matrix(1,0,0,1,262.582,445.208)">
                <path d="M0,24.243C-6.684,24.243 -12.122,18.806 -12.122,12.121C-12.122,5.437 -6.684,0 0,0C6.684,0 12.122,5.437 12.122,12.121C12.122,18.806 6.684,24.243 0,24.243" style="fill:white;fill-rule:nonzero;"/>
            </g>
        </g>
        <g transform="matrix(1,0,0,1,895.226,0)">
            <g transform="matrix(1,0,0,1,262.582,470.451)">
                <path d="M0,-26.244C-7.235,-26.244 -13.122,-20.357 -13.122,-13.122C-13.122,-5.886 -7.235,0 0,0C7.235,0 13.122,-5.886 13.122,-13.122C13.122,-20.357 7.235,-26.244 0,-26.244M0,-24.244C6.143,-24.244 11.122,-19.264 11.122,-13.122C11.122,-6.979 6.143,-2 0,-2C-6.143,-2 -11.122,-6.979 -11.122,-13.122C-11.122,-19.264 -6.143,-24.244 0,-24.244" style="fill:rgb(102,102,102);fill-rule:nonzero;"/>
            </g>
        </g>
        <g transform="matrix(1,0,0,1,895.226,0)">
            <g opacity="0.4">
                <g transform="matrix(0,-1,-1,0,262.582,449.829)">
                    <path d="M-7.5,-7.5C-3.358,-7.5 0,-4.142 0,0C0,4.142 -3.358,7.5 -7.5,7.5C-11.643,7.5 -15,4.142 -15,0C-15,-4.142 -11.643,-7.5 -7.5,-7.5" style="fill:rgb(102,102,102);fill-rule:nonzero;"/>
                </g>
            </g>
        </g>
        <g transform="matrix(1,0,0,1,895.226,0)">
            <g transform="matrix(1,0,0,1,222.07,429.306)">
                <path d="M0,24.244C-6.684,24.244 -12.122,18.807 -12.122,12.122C-12.122,5.437 -6.684,0 0,0C6.684,0 12.122,5.437 12.122,12.122C12.122,18.807 6.684,24.244 0,24.244" style="fill:white;fill-rule:nonzero;"/>
            </g>
        </g>
        <g transform="matrix(1,0,0,1,895.226,0)">
            <g transform="matrix(1,0,0,1,222.07,454.55)">
                <path d="M0,-26.244C-7.235,-26.244 -13.122,-20.357 -13.122,-13.122C-13.122,-5.887 -7.235,0 0,0C7.235,0 13.122,-5.887 13.122,-13.122C13.122,-20.357 7.235,-26.244 0,-26.244M0,-24.244C6.143,-24.244 11.122,-19.265 11.122,-13.122C11.122,-6.979 6.143,-2 0,-2C-6.143,-2 -11.122,-6.979 -11.122,-13.122C-11.122,-19.265 -6.143,-24.244 0,-24.244" style="fill:rgb(102,102,102);fill-rule:nonzero;"/>
            </g>
        </g>
        <g transform="matrix(1,0,0,1,895.226,0)">
            <g opacity="0.4">
                <g transform="matrix(0,-1,-1,0,222.07,433.928)">
                    <path d="M-7.5,-7.5C-3.358,-7.5 0,-4.142 0,0C0,4.142 -3.358,7.5 -7.5,7.5C-11.643,7.5 -15,4.142 -15,0C-15,-4.142 -11.643,-7.5 -7.5,-7.5" style="fill:rgb(102,102,102);fill-rule:nonzero;"/>
                </g>
            </g>
        </g>
        <g transform="matrix(1,0,0,1,895.226,0)">
            <g transform="matrix(1,0,0,1,240.338,454.979)">
                <path d="M0,24.244C-6.684,24.244 -12.122,18.807 -12.122,12.122C-12.122,5.437 -6.684,0 0,0C6.684,0 12.122,5.437 12.122,12.122C12.122,18.807 6.684,24.244 0,24.244" style="fill:white;fill-rule:nonzero;"/>
            </g>
        </g>
        <g transform="matrix(1,0,0,1,895.226,0)">
            <g transform="matrix(1,0,0,1,240.338,480.223)">
                <path d="M0,-26.243C-7.235,-26.243 -13.122,-20.357 -13.122,-13.122C-13.122,-5.886 -7.235,0 0,0C7.236,0 13.122,-5.886 13.122,-13.122C13.122,-20.357 7.236,-26.243 0,-26.243M0,-24.243C6.143,-24.243 11.122,-19.264 11.122,-13.122C11.122,-6.979 6.143,-2 0,-2C-6.143,-2 -11.122,-6.979 -11.122,-13.122C-11.122,-19.264 -6.143,-24.243 0,-24.243" style="fill:rgb(102,102,102);fill-rule:nonzero;"/>
            </g>
        </g>
        <g transform="matrix(1,0,0,1,895.226,0)">
            <g opacity="0.4">
                <g transform="matrix(0,-1,-1,0,240.338,459.601)">
                    <path d="M-7.5,-7.5C-3.358,-7.5 0,-4.142 0,0C0,4.142 -3.358,7.5 -7.5,7.5C-11.643,7.5 -15,4.142 -15,0C-15,-4.142 -11.643,-7.5 -7.5,-7.5" style="fill:rgb(102,102,102);fill-rule:nonzero;"/>
                </g>
            </g>
        </g>
        <g transform="matrix(1,0,0,1,895.226,0)">
            <g transform="matrix(1,0,0,1,242.779,435.891)">
                <path d="M0,24.244C-6.684,24.244 -12.122,18.807 -12.122,12.122C-12.122,5.437 -6.684,0 0,0C6.684,0 12.122,5.437 12.122,12.122C12.122,18.807 6.684,24.244 0,24.244" style="fill:white;fill-rule:nonzero;"/>
            </g>
        </g>
        <g transform="matrix(1,0,0,1,895.226,0)">
            <g transform="matrix(1,0,0,1,242.779,461.135)">
                <path d="M0,-26.243C-7.235,-26.243 -13.122,-20.357 -13.122,-13.122C-13.122,-5.886 -7.235,0 0,0C7.235,0 13.122,-5.886 13.122,-13.122C13.122,-20.357 7.235,-26.243 0,-26.243M0,-24.243C6.143,-24.243 11.122,-19.264 11.122,-13.122C11.122,-6.979 6.143,-2 0,-2C-6.143,-2 -11.122,-6.979 -11.122,-13.122C-11.122,-19.264 -6.143,-24.243 0,-24.243" style="fill:rgb(102,102,102);fill-rule:nonzero;"/>
            </g>
        </g>
        <g transform="matrix(1,0,0,1,895.226,0)">
            <g opacity="0.4">
                <g transform="matrix(0,-1,-1,0,242.779,440.513)">
                    <path d="M-7.5,-7.5C-3.358,-7.5 0,-4.142 0,0C0,4.142 -3.358,7.5 -7.5,7.5C-11.643,7.5 -15,4.142 -15,0C-15,-4.142 -11.643,-7.5 -7.5,-7.5" style="fill:rgb(102,102,102);fill-rule:nonzero;"/>
                </g>
            </g>
        </g>
        <g transform="matrix(1,0,0,1,895.226,0)">
            <g transform="matrix(1,0,0,1,252.68,413.374)">
                <path d="M0,24.244C-6.684,24.244 -12.122,18.807 -12.122,12.122C-12.122,5.437 -6.684,0 0,0C6.684,0 12.122,5.437 12.122,12.122C12.122,18.807 6.684,24.244 0,24.244" style="fill:white;fill-rule:nonzero;"/>
            </g>
        </g>
        <g transform="matrix(1,0,0,1,895.226,0)">
            <g transform="matrix(1,0,0,1,252.68,438.618)">
                <path d="M0,-26.244C-7.235,-26.244 -13.122,-20.357 -13.122,-13.122C-13.122,-5.887 -7.235,0 0,0C7.236,0 13.122,-5.887 13.122,-13.122C13.122,-20.357 7.236,-26.244 0,-26.244M0,-24.244C6.143,-24.244 11.122,-19.265 11.122,-13.122C11.122,-6.979 6.143,-2 0,-2C-6.142,-2 -11.122,-6.979 -11.122,-13.122C-11.122,-19.265 -6.142,-24.244 0,-24.244" style="fill:rgb(102,102,102);fill-rule:nonzero;"/>
            </g>
        </g>
        <g transform="matrix(1,0,0,1,895.226,0)">
            <g opacity="0.4">
                <g transform="matrix(0,-1,-1,0,252.68,419.496)">
                    <path d="M-6,-6C-2.687,-6 0,-3.314 0,0C0,3.313 -2.687,6 -6,6C-9.313,6 -12,3.313 -12,0C-12,-3.314 -9.313,-6 -6,-6" style="fill:rgb(102,102,102);fill-rule:nonzero;"/>
                </g>
            </g>
        </g>
        <g transform="matrix(1,0,0,1,895.226,0)">
            <g transform="matrix(1,0,0,1,239.322,408.466)">
                <path d="M0,24.243C-6.684,24.243 -12.122,18.806 -12.122,12.121C-12.122,5.437 -6.684,0 0,0C6.684,0 12.122,5.437 12.122,12.121C12.122,18.806 6.684,24.243 0,24.243" style="fill:white;fill-rule:nonzero;"/>
            </g>
        </g>
        <g transform="matrix(1,0,0,1,895.226,0)">
            <g transform="matrix(1,0,0,1,239.322,433.709)">
                <path d="M0,-26.243C-7.236,-26.243 -13.122,-20.357 -13.122,-13.122C-13.122,-5.886 -7.236,0 0,0C7.235,0 13.122,-5.886 13.122,-13.122C13.122,-20.357 7.235,-26.243 0,-26.243M0,-24.243C6.143,-24.243 11.122,-19.264 11.122,-13.122C11.122,-6.979 6.143,-2 0,-2C-6.143,-2 -11.122,-6.979 -11.122,-13.122C-11.122,-19.264 -6.143,-24.243 0,-24.243" style="fill:rgb(102,102,102);fill-rule:nonzero;"/>
            </g>
        </g>
        <g transform="matrix(1,0,0,1,895.226,0)">
            <g opacity="0.4">
                <g transform="matrix(0,-1,-1,0,239.322,414.587)">
                    <path d="M-6,-6C-2.687,-6 0,-3.313 0,0C0,3.314 -2.687,6 -6,6C-9.314,6 -12,3.314 -12,0C-12,-3.313 -9.314,-6 -6,-6" style="fill:rgb(102,102,102);fill-rule:nonzero;"/>
                </g>
            </g>
        </g>
        <g transform="matrix(1,0,0,1,895.226,0)">
            <g transform="matrix(1,0,0,1,266.511,423.133)">
                <path d="M0,24.244C-6.684,24.244 -12.122,18.807 -12.122,12.122C-12.122,5.437 -6.684,0 0,0C6.684,0 12.122,5.437 12.122,12.122C12.122,18.807 6.684,24.244 0,24.244" style="fill:white;fill-rule:nonzero;"/>
            </g>
        </g>
        <g transform="matrix(1,0,0,1,895.226,0)">
            <g transform="matrix(1,0,0,1,266.511,448.377)">
                <path d="M0,-26.244C-7.236,-26.244 -13.122,-20.357 -13.122,-13.122C-13.122,-5.887 -7.236,0 0,0C7.235,0 13.122,-5.887 13.122,-13.122C13.122,-20.357 7.235,-26.244 0,-26.244M0,-24.244C6.143,-24.244 11.122,-19.265 11.122,-13.122C11.122,-6.979 6.143,-2 0,-2C-6.143,-2 -11.122,-6.979 -11.122,-13.122C-11.122,-19.265 -6.143,-24.244 0,-24.244" style="fill:rgb(102,102,102);fill-rule:nonzero;"/>
            </g>
        </g>
        <g transform="matrix(1,0,0,1,895.226,0)">
            <g opacity="0.4">
                <g transform="matrix(0,-1,-1,0,266.511,429.255)">
                    <path d="M-6,-6C-2.686,-6 0,-3.313 0,0C0,3.314 -2.686,6 -6,6C-9.313,6 -12,3.314 -12,0C-12,-3.313 -9.313,-6 -6,-6" style="fill:rgb(102,102,102);fill-rule:nonzero;"/>
                </g>
            </g>
        </g>
        <g transform="matrix(1,0,0,1,895.226,0)">
            <g transform="matrix(1,0,0,1,251.46,452.65)">
                <path d="M0,24.243C-6.684,24.243 -12.122,18.806 -12.122,12.121C-12.122,5.437 -6.684,0 0,0C6.684,0 12.122,5.437 12.122,12.121C12.122,18.806 6.684,24.243 0,24.243" style="fill:white;fill-rule:nonzero;"/>
            </g>
        </g>
        <g transform="matrix(1,0,0,1,895.226,0)">
            <g transform="matrix(1,0,0,1,251.46,477.893)">
                <path d="M0,-26.243C-7.235,-26.243 -13.122,-20.357 -13.122,-13.122C-13.122,-5.886 -7.235,0 0,0C7.235,0 13.122,-5.886 13.122,-13.122C13.122,-20.357 7.235,-26.243 0,-26.243M0,-24.243C6.143,-24.243 11.122,-19.264 11.122,-13.122C11.122,-6.979 6.143,-2 0,-2C-6.143,-2 -11.122,-6.979 -11.122,-13.122C-11.122,-19.264 -6.143,-24.243 0,-24.243" style="fill:rgb(102,102,102);fill-rule:nonzero;"/>
            </g>
        </g>
        <g transform="matrix(1,0,0,1,895.226,0)">
            <g opacity="0.4">
                <g transform="matrix(0,-1,-1,0,251.46,458.771)">
                    <path d="M-6,-6C-2.687,-6 0,-3.314 0,0C0,3.313 -2.687,6 -6,6C-9.314,6 -12,3.313 -12,0C-12,-3.314 -9.314,-6 -6,-6" style="fill:rgb(102,102,102);fill-rule:nonzero;"/>
                </g>
            </g>
        </g>
        <g transform="matrix(1,0,0,1,895.226,0)">
            <g transform="matrix(1,0,0,1,224.391,448.717)">
                <path d="M0,24.244C-6.684,24.244 -12.122,18.807 -12.122,12.122C-12.122,5.437 -6.684,0 0,0C6.684,0 12.122,5.437 12.122,12.122C12.122,18.807 6.684,24.244 0,24.244" style="fill:white;fill-rule:nonzero;"/>
            </g>
        </g>
        <g transform="matrix(1,0,0,1,895.226,0)">
            <g transform="matrix(1,0,0,1,224.391,473.961)">
                <path d="M0,-26.244C-7.235,-26.244 -13.122,-20.357 -13.122,-13.122C-13.122,-5.887 -7.235,0 0,0C7.236,0 13.122,-5.887 13.122,-13.122C13.122,-20.357 7.236,-26.244 0,-26.244M0,-24.244C6.143,-24.244 11.122,-19.265 11.122,-13.122C11.122,-6.979 6.143,-2 0,-2C-6.142,-2 -11.122,-6.979 -11.122,-13.122C-11.122,-19.265 -6.142,-24.244 0,-24.244" style="fill:rgb(102,102,102);fill-rule:nonzero;"/>
            </g>
        </g>
        <g transform="matrix(1,0,0,1,895.226,0)">
            <g opacity="0.4">
                <g transform="matrix(0,-1,-1,0,224.391,454.839)">
                    <path d="M-6,-6C-2.687,-6 0,-3.314 0,0C0,3.313 -2.687,6 -6,6C-9.313,6 -12,3.313 -12,0C-12,-3.314 -9.313,-6 -6,-6" style="fill:rgb(102,102,102);fill-rule:nonzero;"/>
                </g>
            </g>
        </g>
        <g transform="matrix(1,0,0,1,895.226,0)">
            <g transform="matrix(1,0,0,1,269.654,433.855)">
                <path d="M0,24.244C-6.684,24.244 -12.122,18.807 -12.122,12.122C-12.122,5.437 -6.684,0 0,0C6.684,0 12.122,5.437 12.122,12.122C12.122,18.807 6.684,24.244 0,24.244" style="fill:white;fill-rule:nonzero;"/>
            </g>
        </g>
        <g transform="matrix(1,0,0,1,895.226,0)">
            <g transform="matrix(1,0,0,1,269.654,459.099)">
                <path d="M0,-26.244C-7.235,-26.244 -13.122,-20.357 -13.122,-13.122C-13.122,-5.887 -7.235,0 0,0C7.235,0 13.122,-5.887 13.122,-13.122C13.122,-20.357 7.235,-26.244 0,-26.244M0,-24.244C6.143,-24.244 11.122,-19.265 11.122,-13.122C11.122,-6.979 6.143,-2 0,-2C-6.143,-2 -11.122,-6.979 -11.122,-13.122C-11.122,-19.265 -6.143,-24.244 0,-24.244" style="fill:rgb(102,102,102);fill-rule:nonzero;"/>
            </g>
        </g>
        <g transform="matrix(1,0,0,1,895.226,0)">
            <g opacity="0.4">
                <g transform="matrix(0,-1,-1,0,269.654,439.977)">
                    <path d="M-6,-6C-2.687,-6 0,-3.314 0,0C0,3.313 -2.687,6 -6,6C-9.313,6 -12,3.313 -12,0C-12,-3.314 -9.313,-6 -6,-6" style="fill:rgb(102,102,102);fill-rule:nonzero;"/>
                </g>
            </g>
        </g>
        <g transform="matrix(1,0,0,1,895.226,0)">
            <g transform="matrix(1,0,0,1,227.571,420.965)">
                <path d="M0,24.244C-6.684,24.244 -12.122,18.807 -12.122,12.122C-12.122,5.437 -6.684,0 0,0C6.684,0 12.122,5.437 12.122,12.122C12.122,18.807 6.684,24.244 0,24.244" style="fill:white;fill-rule:nonzero;"/>
            </g>
        </g>
        <g transform="matrix(1,0,0,1,895.226,0)">
            <g transform="matrix(1,0,0,1,227.571,446.209)">
                <path d="M0,-26.244C-7.235,-26.244 -13.122,-20.357 -13.122,-13.122C-13.122,-5.887 -7.235,0 0,0C7.236,0 13.122,-5.887 13.122,-13.122C13.122,-20.357 7.236,-26.244 0,-26.244M0,-24.244C6.143,-24.244 11.122,-19.265 11.122,-13.122C11.122,-6.979 6.143,-2 0,-2C-6.142,-2 -11.122,-6.979 -11.122,-13.122C-11.122,-19.265 -6.142,-24.244 0,-24.244" style="fill:rgb(102,102,102);fill-rule:nonzero;"/>
            </g>
        </g>
        <g transform="matrix(1,0,0,1,895.226,0)">
            <g opacity="0.4">
                <g transform="matrix(0,-1,-1,0,227.571,427.087)">
                    <path d="M-6,-6C-2.687,-6 0,-3.314 0,0C0,3.313 -2.687,6 -6,6C-9.314,6 -12,3.313 -12,0C-12,-3.314 -9.314,-6 -6,-6" style="fill:rgb(102,102,102);fill-rule:nonzero;"/>
                </g>
            </g>
        </g>
        <g transform="matrix(1,0,0,1,895.226,0)">
            <g transform="matrix(1,0,0,1,248.836,443.011)">
                <path d="M0,24.244C-6.684,24.244 -12.122,18.807 -12.122,12.122C-12.122,5.437 -6.684,0 0,0C6.684,0 12.122,5.437 12.122,12.122C12.122,18.807 6.684,24.244 0,24.244" style="fill:white;fill-rule:nonzero;"/>
            </g>
        </g>
        <g transform="matrix(1,0,0,1,895.226,0)">
            <g transform="matrix(1,0,0,1,248.836,468.255)">
                <path d="M0,-26.244C-7.235,-26.244 -13.122,-20.357 -13.122,-13.122C-13.122,-5.887 -7.235,0 0,0C7.236,0 13.122,-5.887 13.122,-13.122C13.122,-20.357 7.236,-26.244 0,-26.244M0,-24.244C6.143,-24.244 11.122,-19.265 11.122,-13.122C11.122,-6.979 6.143,-2 0,-2C-6.142,-2 -11.122,-6.979 -11.122,-13.122C-11.122,-19.265 -6.142,-24.244 0,-24.244" style="fill:rgb(102,102,102);fill-rule:nonzero;"/>
            </g>
        </g>
        <g transform="matrix(1,0,0,1,895.226,0)">
            <g opacity="0.3">
                <g transform="matrix(-0.707107,-0.707107,-0.707107,0.707107,253.883,442.948)">
                    <path d="M-12.186,5.048C-8.244,1.105 -1.851,1.105 2.091,5.048" style="fill:none;fill-rule:nonzero;stroke:white;stroke-width:2px;"/>
                </g>
            </g>
        </g>
        <g transform="matrix(1,0,0,1,895.226,0)">
            <g opacity="0.4">
                <g transform="matrix(0,-1,-1,0,248.836,449.133)">
                    <path d="M-6,-6C-2.687,-6 0,-3.314 0,0C0,3.313 -2.687,6 -6,6C-9.313,6 -12,3.313 -12,0C-12,-3.314 -9.313,-6 -6,-6" style="fill:rgb(102,102,102);fill-rule:nonzero;"/>
                </g>
            </g>
        </g>
        <g transform="matrix(1,0,0,1,895.226,0)">
            <g opacity="0.3">
                <g transform="matrix(-0.984244,-0.176813,-0.176813,0.984244,245.445,446.441)">
                    <path d="M-0.176,-1.981C-0.727,-1.981 -1.174,-1.534 -1.174,-0.982C-1.174,-0.432 -0.727,0.016 -0.176,0.016C0.376,0.015 0.822,-0.431 0.823,-0.982C0.823,-1.533 0.375,-1.981 -0.176,-1.981" style="fill:white;fill-rule:nonzero;"/>
                </g>
            </g>
        </g>
        <g transform="matrix(1,0,0,1,895.226,0)">
            <g opacity="0.3">
                <g transform="matrix(-0.707107,-0.707107,-0.707107,0.707107,274.725,433.754)">
                    <path d="M-12.186,5.048C-8.244,1.105 -1.851,1.105 2.091,5.048" style="fill:none;fill-rule:nonzero;stroke:white;stroke-width:2px;"/>
                </g>
            </g>
        </g>
        <g transform="matrix(1,0,0,1,895.226,0)">
            <g opacity="0.3">
                <g transform="matrix(-0.98426,-0.176726,-0.176726,0.98426,266.287,437.248)">
                    <path d="M-0.176,-1.982C-0.726,-1.981 -1.174,-1.535 -1.174,-0.983C-1.174,-0.432 -0.727,0.015 -0.176,0.016C0.376,0.015 0.822,-0.431 0.823,-0.983C0.823,-1.534 0.376,-1.981 -0.176,-1.982" style="fill:white;fill-rule:nonzero;"/>
                </g>
            </g>
        </g>
        <g transform="matrix(1,0,0,1,895.226,0)">
            <g opacity="0.3">
                <g transform="matrix(-0.707072,-0.707142,-0.707142,0.707072,244.397,408.381)">
                    <path d="M-12.186,5.048C-8.243,1.105 -1.851,1.106 2.091,5.048" style="fill:none;fill-rule:nonzero;stroke:white;stroke-width:2px;"/>
                </g>
            </g>
        </g>
        <g transform="matrix(1,0,0,1,895.226,0)">
            <g opacity="0.3">
                <g transform="matrix(-0.984244,-0.176813,-0.176813,0.984244,235.958,411.875)">
                    <path d="M-0.176,-1.981C-0.727,-1.98 -1.174,-1.534 -1.174,-0.982C-1.174,-0.431 -0.727,0.016 -0.176,0.016C0.376,0.016 0.822,-0.431 0.823,-0.981C0.823,-1.533 0.375,-1.981 -0.176,-1.981" style="fill:white;fill-rule:nonzero;"/>
                </g>
            </g>
        </g>
        <g transform="matrix(1,0,0,1,895.226,0)">
            <g opacity="0.3">
                <g transform="matrix(-0.707072,-0.707142,-0.707142,0.707072,232.646,420.874)">
                    <path d="M-12.186,5.048C-8.244,1.106 -1.851,1.106 2.091,5.048" style="fill:none;fill-rule:nonzero;stroke:white;stroke-width:2px;"/>
                </g>
            </g>
        </g>
        <g transform="matrix(1,0,0,1,895.226,0)">
            <g opacity="0.3">
                <g transform="matrix(-0.98426,-0.176726,-0.176726,0.98426,224.205,424.367)">
                    <path d="M-0.178,-1.981C-0.728,-1.98 -1.175,-1.534 -1.176,-0.983C-1.175,-0.431 -0.729,0.016 -0.178,0.017C0.374,0.016 0.821,-0.43 0.821,-0.982C0.821,-1.533 0.374,-1.981 -0.178,-1.981" style="fill:white;fill-rule:nonzero;"/>
                </g>
            </g>
        </g>
        <g transform="matrix(1,0,0,1,895.226,0)">
            <g opacity="0.3">
                <g transform="matrix(-0.707107,-0.707107,-0.707107,0.707107,229.466,448.623)">
                    <path d="M-12.186,5.048C-8.244,1.105 -1.851,1.105 2.091,5.048" style="fill:none;fill-rule:nonzero;stroke:white;stroke-width:2px;"/>
                </g>
            </g>
        </g>
        <g transform="matrix(1,0,0,1,895.226,0)">
            <g opacity="0.3">
                <g transform="matrix(-0.984244,-0.176813,-0.176813,0.984244,221.027,452.117)">
                    <path d="M-0.177,-1.981C-0.727,-1.981 -1.174,-1.534 -1.175,-0.983C-1.174,-0.432 -0.728,0.016 -0.177,0.016C0.375,0.015 0.821,-0.431 0.822,-0.983C0.822,-1.534 0.375,-1.981 -0.177,-1.981" style="fill:white;fill-rule:nonzero;"/>
                </g>
            </g>
        </g>
    </g>
</svg>
