<?xml version="1.0" encoding="UTF-8" standalone="no"?>
<!DOCTYPE svg PUBLIC "-//W3C//DTD SVG 1.1//EN" "http://www.w3.org/Graphics/SVG/1.1/DTD/svg11.dtd">
<svg width="100%" height="100%" viewBox="0 0 91 91" version="1.1" xmlns="http://www.w3.org/2000/svg" xmlns:xlink="http://www.w3.org/1999/xlink" xml:space="preserve" xmlns:serif="http://www.serif.com/" style="fill-rule:evenodd;clip-rule:evenodd;stroke-linecap:round;stroke-miterlimit:10;">
    <g transform="matrix(1,0,0,1,-1045.59,-88.7678)">
        <g transform="matrix(1,0,0,1,895.226,0)">
            <g transform="matrix(1,0,0,1,201.401,95.8011)">
                <path d="M0,64.591C-17.808,64.591 -32.295,50.103 -32.295,32.296C-32.295,14.488 -17.808,0 0,0C17.808,0 32.295,14.488 32.295,32.296C32.295,50.103 17.808,64.591 0,64.591" style="fill:rgb(0,169,157);fill-rule:nonzero;"/>
            </g>
        </g>
        <g transform="matrix(1,0,0,1,895.226,0)">
            <g transform="matrix(1,0,0,1,201.401,162.392)">
                <path d="M0,-68.591C-18.911,-68.591 -34.295,-53.206 -34.295,-34.296C-34.295,-15.385 -18.911,0 0,0C18.911,0 34.295,-15.385 34.295,-34.296C34.295,-53.206 18.911,-68.591 0,-68.591M0,-64.591C16.731,-64.591 30.295,-51.027 30.295,-34.296C30.295,-17.564 16.731,-4 0,-4C-16.732,-4 -30.295,-17.564 -30.295,-34.296C-30.295,-51.027 -16.732,-64.591 0,-64.591" style="fill:rgb(0,107,94);fill-rule:nonzero;"/>
            </g>
        </g>
        <g transform="matrix(1,0,0,1,895.226,0)">
            <g opacity="0.3">
                <g transform="matrix(0.460785,0.887512,0.887512,-0.460785,175.345,116.379)">
                    <path d="M0.886,-0.538C0.335,-0.538 -0.112,-0.091 -0.112,0.46C-0.112,1.012 0.335,1.459 0.886,1.458C1.438,1.458 1.884,1.011 1.884,0.46C1.884,-0.092 1.437,-0.538 0.886,-0.538" style="fill:white;fill-rule:nonzero;"/>
                </g>
            </g>
        </g>
        <g transform="matrix(1,0,0,1,895.226,0)">
            <g transform="matrix(1,0,0,1,184.658,112.327)">
                <path d="M0,64.591C-17.808,64.591 -32.295,50.103 -32.295,32.296C-32.295,14.488 -17.808,0 0,0C17.808,0 32.295,14.488 32.295,32.296C32.295,50.103 17.808,64.591 0,64.591" style="fill:rgb(0,169,157);fill-rule:nonzero;"/>
            </g>
        </g>
        <g transform="matrix(1,0,0,1,895.226,0)">
            <g transform="matrix(1,0,0,1,184.658,178.918)">
                <path d="M0,-68.591C-18.911,-68.591 -34.295,-53.206 -34.295,-34.296C-34.295,-15.385 -18.911,0 0,0C18.911,0 34.295,-15.385 34.295,-34.296C34.295,-53.206 18.911,-68.591 0,-68.591M0,-64.591C16.731,-64.591 30.295,-51.027 30.295,-34.296C30.295,-17.564 16.731,-4 0,-4C-16.732,-4 -30.295,-17.564 -30.295,-34.296C-30.295,-51.027 -16.732,-64.591 0,-64.591" style="fill:rgb(0,107,94);fill-rule:nonzero;"/>
            </g>
        </g>
        <g transform="matrix(1,0,0,1,895.226,0)">
            <g transform="matrix(1,0,0,1,201.401,96.3011)">
                <path d="M0,63.591C-17.532,63.591 -31.795,49.328 -31.795,31.796C-31.795,14.263 -17.532,0 0,0C17.532,0 31.795,14.263 31.795,31.796C31.795,49.328 17.532,63.591 0,63.591" style="fill:rgb(0,169,157);fill-rule:nonzero;"/>
            </g>
        </g>
        <g transform="matrix(1,0,0,1,895.226,0)">
            <g transform="matrix(1,0,0,1,201.401,161.392)">
                <path d="M0,-66.591C-18.359,-66.591 -33.295,-51.654 -33.295,-33.296C-33.295,-14.936 -18.359,0 0,0C18.359,0 33.295,-14.936 33.295,-33.296C33.295,-51.654 18.359,-66.591 0,-66.591M0,-63.591C16.731,-63.591 30.295,-50.027 30.295,-33.296C30.295,-16.564 16.731,-3 0,-3C-16.732,-3 -30.295,-16.564 -30.295,-33.296C-30.295,-50.027 -16.732,-63.591 0,-63.591" style="fill:rgb(0,107,94);fill-rule:nonzero;"/>
            </g>
        </g>
        <g transform="matrix(1,0,0,1,895.226,0)">
            <g opacity="0.3">
                <g transform="matrix(-0.707107,-0.707107,-0.707107,0.707107,216.04,92.7538)">
                    <path d="M-35.343,14.64C-23.909,3.206 -5.37,3.206 6.064,14.64" style="fill:none;fill-rule:nonzero;stroke:white;stroke-width:2px;"/>
                </g>
            </g>
        </g>
        <g transform="matrix(1,0,0,1,895.226,0)">
            <g opacity="0.3">
                <g transform="matrix(0.460785,0.887512,0.887512,-0.460785,175.345,116.379)">
                    <path d="M0.886,-0.538C0.335,-0.538 -0.112,-0.091 -0.112,0.46C-0.112,1.012 0.335,1.459 0.886,1.458C1.438,1.458 1.884,1.011 1.884,0.46C1.884,-0.092 1.437,-0.538 0.886,-0.538" style="fill:white;fill-rule:nonzero;"/>
                </g>
            </g>
        </g>
        <g transform="matrix(1,0,0,1,895.226,0)">
            <g opacity="0.4">
                <g transform="matrix(0,-1,-1,0,200.897,111.557)">
                    <path d="M-17.5,-17.5C-7.835,-17.5 0,-9.665 0,0C0,9.665 -7.835,17.5 -17.5,17.5C-27.165,17.5 -35,9.665 -35,0C-35,-9.665 -27.165,-17.5 -17.5,-17.5" style="fill:rgb(0,107,94);fill-rule:nonzero;"/>
                </g>
            </g>
        </g>
        <g transform="matrix(1,0,0,1,895.226,0)">
            <g transform="matrix(1,0,0,1,184.658,112.827)">
                <path d="M0,63.591C-17.532,63.591 -31.795,49.328 -31.795,31.796C-31.795,14.263 -17.532,0 0,0C17.532,0 31.795,14.263 31.795,31.796C31.795,49.328 17.532,63.591 0,63.591" style="fill:rgb(0,169,157);fill-rule:nonzero;"/>
            </g>
        </g>
        <g transform="matrix(1,0,0,1,895.226,0)">
            <g transform="matrix(1,0,0,1,184.658,177.918)">
                <path d="M0,-66.591C-18.359,-66.591 -33.295,-51.654 -33.295,-33.296C-33.295,-14.936 -18.359,0 0,0C18.359,0 33.295,-14.936 33.295,-33.296C33.295,-51.654 18.359,-66.591 0,-66.591M0,-63.591C16.731,-63.591 30.295,-50.027 30.295,-33.296C30.295,-16.564 16.731,-3 0,-3C-16.732,-3 -30.295,-16.564 -30.295,-33.296C-30.295,-50.027 -16.732,-63.591 0,-63.591" style="fill:rgb(0,107,94);fill-rule:nonzero;"/>
            </g>
        </g>
        <g transform="matrix(1,0,0,1,895.226,0)">
            <g opacity="0.4">
                <g transform="matrix(0,-1,-1,0,184.658,127.123)">
                    <path d="M-17.5,-17.5C-7.835,-17.5 0,-9.665 0,0C0,9.665 -7.835,17.5 -17.5,17.5C-27.165,17.5 -35,9.665 -35,0C-35,-9.665 -27.165,-17.5 -17.5,-17.5" style="fill:rgb(0,107,94);fill-rule:nonzero;"/>
                </g>
            </g>
        </g>
        <g transform="matrix(1,0,0,1,895.226,0)">
            <g opacity="0.3">
                <g transform="matrix(0.460785,0.887512,0.887512,-0.460785,197.151,98.4383)">
                    <path d="M0.886,-0.538C0.335,-0.538 -0.112,-0.091 -0.112,0.46C-0.112,1.012 0.335,1.458 0.886,1.458C1.438,1.458 1.884,1.011 1.884,0.46C1.884,-0.092 1.437,-0.538 0.886,-0.538" style="fill:white;fill-rule:nonzero;"/>
                </g>
            </g>
        </g>
        <g transform="matrix(1,0,0,1,895.226,0)">
            <g opacity="0.3">
                <g transform="matrix(-0.707107,-0.707107,-0.707107,0.707107,199.298,109.264)">
                    <path d="M-35.343,14.64C-23.909,3.206 -5.37,3.206 6.064,14.64" style="fill:none;fill-rule:nonzero;stroke:white;stroke-width:2px;"/>
                </g>
            </g>
        </g>
        <g transform="matrix(1,0,0,1,895.226,0)">
            <g opacity="0.3">
                <g transform="matrix(0.460785,0.887512,0.887512,-0.460785,180.408,114.948)">
                    <path d="M0.886,-0.538C0.335,-0.538 -0.112,-0.091 -0.112,0.46C-0.112,1.012 0.335,1.458 0.886,1.458C1.438,1.458 1.884,1.011 1.884,0.46C1.884,-0.092 1.437,-0.538 0.886,-0.538" style="fill:white;fill-rule:nonzero;"/>
                </g>
            </g>
        </g>
    </g>
</svg>
