<?xml version="1.0" encoding="UTF-8" standalone="no"?>
<!DOCTYPE svg PUBLIC "-//W3C//DTD SVG 1.1//EN" "http://www.w3.org/Graphics/SVG/1.1/DTD/svg11.dtd">
<svg width="100%" height="100%" viewBox="0 0 103 97" version="1.1" xmlns="http://www.w3.org/2000/svg" xmlns:xlink="http://www.w3.org/1999/xlink" xml:space="preserve" xmlns:serif="http://www.serif.com/" style="fill-rule:evenodd;clip-rule:evenodd;stroke-linecap:round;stroke-miterlimit:10;">
    <g transform="matrix(1,0,0,1,-1145.68,-87.9801)">
        <g transform="matrix(1,0,0,1,895.226,0)">
            <g transform="matrix(1,0,0,1,259.505,119.512)">
                <path d="M0,2.3C0,12.25 5.896,20.843 14.375,24.783C16.643,15.539 23.548,8.103 32.476,5.086C33.432,4.763 34.409,4.489 35.408,4.271C37.321,3.853 39.305,3.626 41.342,3.626C44.157,3.626 46.874,4.05 49.436,4.833C49.521,4 49.564,3.155 49.564,2.3C49.564,-4.457 46.843,-10.588 42.443,-15.063C41.746,-15.773 41.004,-16.439 40.226,-17.061C35.987,-20.45 30.619,-22.483 24.782,-22.483C11.117,-22.483 0,-11.365 0,2.3" style="fill:rgb(112,84,208);fill-rule:nonzero;"/>
            </g>
        </g>
        <g transform="matrix(1,0,0,1,895.226,0)">
            <g transform="matrix(1,0,0,1,301.948,160.054)">
                <path d="M0,-16.829C-0.777,-17.471 -1.515,-18.159 -2.218,-18.88C-5.811,-22.568 -8.39,-27.246 -9.499,-32.463C-17.356,-29.624 -23.375,-22.918 -25.258,-14.655C-25.48,-13.683 -25.651,-12.691 -25.754,-11.679C-25.839,-10.847 -25.883,-10.002 -25.883,-9.148C-25.883,4.517 -14.767,15.634 -1.102,15.634C12.563,15.634 23.681,4.517 23.681,-9.148C23.681,-9.811 23.646,-10.467 23.595,-11.118C21.682,-10.7 19.698,-10.473 17.661,-10.473C10.958,-10.473 4.803,-12.86 0,-16.829" style="fill:rgb(112,84,208);fill-rule:nonzero;"/>
            </g>
        </g>
        <g transform="matrix(1,0,0,1,895.226,0)">
            <g transform="matrix(1,0,0,1,344.392,121.811)">
                <path d="M0,0.001C0,-13.664 -11.117,-24.782 -24.782,-24.782C-30.619,-24.782 -35.987,-22.749 -40.226,-19.36C-35.349,-14.354 -32.336,-7.523 -32.336,0.001C-32.336,1.218 -32.423,2.414 -32.576,3.59C-32.709,4.616 -32.896,5.625 -33.138,6.612C-34.334,11.494 -36.825,15.872 -40.226,19.362C-35.986,22.751 -30.619,24.783 -24.782,24.783C-22.883,24.783 -21.036,24.562 -19.258,24.155C-18.278,23.931 -17.318,23.653 -16.385,23.316C-6.841,19.868 0,10.72 0,0.001" style="fill:rgb(112,84,208);fill-rule:nonzero;"/>
            </g>
        </g>
        <g transform="matrix(1,0,0,1,895.226,0)">
            <g transform="matrix(1,0,0,1,295.916,145.585)">
                <path d="M0,-18.45C0.951,-14.211 3.027,-10.316 6.032,-7.13C8.901,-10.173 10.932,-13.887 11.935,-17.927C9.661,-18.613 7.307,-18.961 4.931,-18.961C3.289,-18.961 1.633,-18.789 0,-18.45M-11.629,-48.055C-25.018,-48.055 -35.911,-37.162 -35.911,-23.772C-35.911,-14.567 -30.616,-6.088 -22.368,-2.003C-19.937,-11.033 -12.986,-18.455 -4.096,-21.46C-3.108,-21.793 -2.104,-22.073 -1.11,-22.289C0.884,-22.725 2.917,-22.946 4.931,-22.946C7.523,-22.946 10.094,-22.591 12.581,-21.891C12.629,-22.515 12.653,-23.145 12.653,-23.772C12.653,-30.166 10.175,-36.208 5.676,-40.784C5.003,-41.469 4.271,-42.128 3.503,-42.742C-0.845,-46.218 -6.078,-48.055 -11.629,-48.055M8.993,-4.465C13.253,-1.208 18.324,0.51 23.693,0.51C25.498,0.51 27.319,0.303 29.106,-0.105C30.082,-0.328 31.028,-0.605 31.92,-0.927C41.523,-4.397 47.976,-13.577 47.976,-23.772C47.976,-37.162 37.083,-48.055 23.693,-48.055C18.324,-48.055 13.253,-46.336 8.993,-43.079C13.929,-37.815 16.64,-30.981 16.64,-23.772C16.64,-22.597 16.558,-21.368 16.396,-20.118C16.259,-19.069 16.067,-18.034 15.824,-17.042C14.673,-12.349 12.316,-8.012 8.993,-4.465M-3.829,-17.324C-11.276,-14.429 -16.963,-7.868 -18.739,-0.075C-18.969,0.936 -19.128,1.889 -19.225,2.841C-19.308,3.659 -19.351,4.494 -19.351,5.321C-19.351,18.711 -8.458,29.604 4.931,29.604C18.32,29.604 29.213,18.711 29.213,5.321C29.213,4.897 29.198,4.447 29.168,3.957C27.358,4.315 25.52,4.496 23.693,4.496C17.149,4.496 10.764,2.198 5.714,-1.974C4.955,-2.601 4.195,-3.304 3.457,-4.062C-0.15,-7.764 -2.661,-12.339 -3.829,-17.324M4.931,33.59C-10.656,33.59 -23.337,20.909 -23.337,5.321C-23.337,4.261 -23.271,3.159 -23.139,2.042C-33.333,-2.517 -39.897,-12.608 -39.897,-23.772C-39.897,-39.359 -27.216,-52.04 -11.629,-52.04C-5.222,-52.04 1.034,-49.837 6.032,-45.829C11.031,-49.837 17.286,-52.04 23.693,-52.04C39.281,-52.04 51.962,-39.359 51.962,-23.772C51.962,-11.774 44.396,-1.114 33.094,2.881C33.164,3.697 33.199,4.517 33.199,5.321C33.199,20.909 20.518,33.59 4.931,33.59" style="fill:rgb(68,58,137);fill-rule:nonzero;"/>
            </g>
        </g>
        <g transform="matrix(1,0,0,1,895.226,0)">
            <g transform="matrix(1,0,0,1,300.847,98.0305)">
                <path d="M0,76.658C-13.113,76.658 -23.781,65.99 -23.781,52.876C-23.781,52.066 -23.74,51.248 -23.658,50.446C-23.564,49.527 -23.404,48.566 -23.182,47.591C-21.485,40.143 -16.141,33.846 -9.108,30.91C-7.866,35.764 -5.366,40.214 -1.833,43.841C-1.081,44.612 -0.308,45.327 0.464,45.966C5.604,50.212 12.102,52.551 18.763,52.551C20.43,52.551 22.108,52.402 23.767,52.109C23.777,52.375 23.782,52.63 23.782,52.876C23.782,65.99 13.113,76.658 0,76.658M-4.325,29.495C-2.89,29.228 -1.44,29.094 0,29.094C2.168,29.094 4.315,29.389 6.398,29.972C5.426,33.576 3.612,36.901 1.102,39.687C-1.531,36.769 -3.389,33.28 -4.325,29.495M-27.615,44.828C-35.385,40.73 -40.342,32.596 -40.342,23.782C-40.342,10.668 -29.673,-0.001 -16.56,-0.001C-11.123,-0.001 -5.999,1.799 -1.74,5.202C-0.987,5.804 -0.271,6.45 0.389,7.12C4.795,11.602 7.223,17.52 7.223,23.782C7.223,24.194 7.212,24.609 7.19,25.022C4.845,24.415 2.432,24.108 0,24.108C-2.052,24.108 -4.12,24.333 -6.147,24.776C-7.162,24.998 -8.184,25.282 -9.186,25.621C-18.039,28.613 -25.002,35.908 -27.615,44.828M4.805,4.544C8.885,1.567 13.688,-0.001 18.763,-0.001C31.876,-0.001 42.545,10.668 42.545,23.782C42.545,33.767 36.226,42.759 26.82,46.157C25.947,46.472 25.02,46.742 24.063,46.961C22.313,47.362 20.53,47.564 18.763,47.564C13.688,47.564 8.885,45.997 4.805,43.02C7.987,39.489 10.251,35.228 11.378,30.631C11.626,29.62 11.822,28.567 11.961,27.5C12.125,26.231 12.209,24.98 12.209,23.782C12.209,16.632 9.588,9.844 4.805,4.544M18.763,-4.986C12.375,-4.986 6.135,-2.835 1.102,1.088C-3.932,-2.835 -10.171,-4.986 -16.56,-4.986C-32.423,-4.986 -45.328,7.919 -45.328,23.782C-45.328,35.021 -38.79,45.192 -28.607,49.901C-28.714,50.915 -28.768,51.912 -28.768,52.876C-28.768,68.739 -15.862,81.644 0,81.644C15.863,81.644 28.769,68.739 28.769,52.876C28.769,52.181 28.743,51.478 28.691,50.776C39.993,46.613 47.531,35.864 47.531,23.782C47.531,7.919 34.625,-4.986 18.763,-4.986M0,77.658C13.665,77.658 24.782,66.541 24.782,52.876C24.782,52.212 24.748,51.556 24.697,50.906C22.784,51.324 20.799,51.551 18.763,51.551C12.06,51.551 5.905,49.163 1.102,45.195C0.324,44.553 -0.413,43.865 -1.116,43.143C-4.709,39.455 -7.288,34.778 -8.397,29.561C-16.255,32.4 -22.274,39.105 -24.157,47.368C-24.378,48.341 -24.55,49.332 -24.653,50.345C-24.738,51.177 -24.781,52.021 -24.781,52.876C-24.781,66.541 -13.665,77.658 0,77.658M1.102,41.145C4.269,37.924 6.56,33.844 7.598,29.29C5.202,28.516 2.65,28.094 0,28.094C-1.899,28.094 -3.746,28.316 -5.524,28.722C-4.553,33.505 -2.197,37.79 1.102,41.145M-26.966,46.265C-24.699,37.021 -17.793,29.585 -8.866,26.568C-7.91,26.245 -6.933,25.971 -5.934,25.753C-4.021,25.335 -2.037,25.108 0,25.108C2.815,25.108 5.532,25.533 8.094,26.315C8.179,25.482 8.223,24.637 8.223,23.782C8.223,17.025 5.501,10.894 1.102,6.419C0.403,5.709 -0.337,5.043 -1.116,4.421C-5.355,1.033 -10.723,-1.001 -16.56,-1.001C-30.225,-1.001 -41.342,10.117 -41.342,23.782C-41.342,33.732 -35.445,42.325 -26.966,46.265M18.763,48.564C20.662,48.564 22.509,48.343 24.287,47.936C25.267,47.712 26.227,47.434 27.16,47.097C36.704,43.649 43.545,34.501 43.545,23.782C43.545,10.117 32.428,-1.001 18.763,-1.001C12.926,-1.001 7.558,1.033 3.319,4.421C8.196,9.427 11.209,16.258 11.209,23.782C11.209,24.999 11.122,26.195 10.969,27.371C10.836,28.397 10.649,29.406 10.407,30.393C9.21,35.275 6.72,39.653 3.319,43.143C7.559,46.532 12.926,48.564 18.763,48.564M18.763,-3.986C34.074,-3.986 46.531,8.47 46.531,23.782C46.531,35.993 38.604,46.382 27.629,50.091C27.72,51.007 27.769,51.936 27.769,52.876C27.769,68.187 15.312,80.644 0,80.644C-15.311,80.644 -27.768,68.187 -27.768,52.876C-27.768,51.659 -27.681,50.464 -27.528,49.288C-37.4,45.027 -44.328,35.2 -44.328,23.782C-44.328,8.47 -31.871,-3.986 -16.56,-3.986C-9.857,-3.986 -3.702,-1.599 1.102,2.37C5.905,-1.599 12.06,-3.986 18.763,-3.986" style="fill:rgb(68,58,137);fill-rule:nonzero;"/>
            </g>
        </g>
        <g transform="matrix(1,0,0,1,895.226,0)">
            <g transform="matrix(1,0,0,1,259.505,119.512)">
                <path d="M0,2.3C0,12.25 5.896,20.843 14.375,24.783C16.643,15.539 23.548,8.103 32.476,5.086C33.432,4.763 34.409,4.489 35.408,4.271C37.321,3.853 39.305,3.626 41.342,3.626C44.157,3.626 46.874,4.05 49.436,4.833C49.521,4 49.564,3.155 49.564,2.3C49.564,-4.457 46.843,-10.588 42.443,-15.063C41.746,-15.773 41.004,-16.439 40.226,-17.061C35.987,-20.45 30.619,-22.483 24.782,-22.483C11.117,-22.483 0,-11.365 0,2.3" style="fill:rgb(112,84,208);fill-rule:nonzero;"/>
            </g>
        </g>
        <g transform="matrix(1,0,0,1,895.226,0)">
            <g transform="matrix(1,0,0,1,301.948,160.054)">
                <path d="M0,-16.829C-0.777,-17.471 -1.515,-18.159 -2.218,-18.88C-5.811,-22.568 -8.39,-27.246 -9.499,-32.463C-17.356,-29.624 -23.375,-22.918 -25.258,-14.655C-25.48,-13.683 -25.651,-12.691 -25.754,-11.679C-25.839,-10.847 -25.883,-10.002 -25.883,-9.148C-25.883,4.517 -14.767,15.634 -1.102,15.634C12.563,15.634 23.681,4.517 23.681,-9.148C23.681,-9.811 23.646,-10.467 23.595,-11.118C21.682,-10.7 19.698,-10.473 17.661,-10.473C10.958,-10.473 4.803,-12.86 0,-16.829" style="fill:rgb(112,84,208);fill-rule:nonzero;"/>
            </g>
        </g>
        <g transform="matrix(1,0,0,1,895.226,0)">
            <g transform="matrix(1,0,0,1,344.392,121.811)">
                <path d="M0,0.001C0,-13.664 -11.117,-24.782 -24.782,-24.782C-30.619,-24.782 -35.987,-22.749 -40.226,-19.36C-35.349,-14.354 -32.336,-7.523 -32.336,0.001C-32.336,1.218 -32.423,2.414 -32.576,3.59C-32.709,4.616 -32.896,5.625 -33.138,6.612C-34.334,11.494 -36.825,15.872 -40.226,19.362C-35.986,22.751 -30.619,24.783 -24.782,24.783C-22.883,24.783 -21.036,24.562 -19.258,24.155C-18.278,23.931 -17.318,23.653 -16.385,23.316C-6.841,19.868 0,10.72 0,0.001" style="fill:rgb(112,84,208);fill-rule:nonzero;"/>
            </g>
        </g>
        <g transform="matrix(1,0,0,1,895.226,0)">
            <g transform="matrix(-0.0432456,0.999064,0.999064,0.0432456,308.06,126.35)">
                <path d="M0.953,-12.707C5.689,-11.529 9.868,-8.991 13.078,-5.551C9.723,-2.527 5.547,-0.413 0.953,0.427C0.283,-2 -0.028,-4.568 0.086,-7.216C0.169,-9.113 0.47,-10.949 0.953,-12.707" style="fill:rgb(112,84,208);fill-rule:nonzero;"/>
            </g>
        </g>
        <g transform="matrix(1,0,0,1,895.226,0)">
            <g transform="matrix(1,0,0,1,325.133,126.753)">
                <path d="M0,19.214C-1.778,19.62 -3.625,19.842 -5.524,19.842C-11.36,19.842 -16.728,17.809 -20.967,14.421C-17.567,10.93 -15.076,6.553 -13.879,1.671C-13.637,0.683 -13.451,-0.326 -13.317,-1.351C-13.165,-2.527 -13.078,-3.723 -13.078,-4.94C-13.078,-12.465 -16.09,-19.295 -20.968,-24.301C-16.729,-27.69 -11.36,-29.723 -5.524,-29.723C8.141,-29.723 19.258,-18.605 19.258,-4.94C19.258,5.778 12.417,14.927 2.873,18.375C1.94,18.712 0.98,18.99 0,19.214M-16.688,0.568C-17.727,5.121 -20.018,9.202 -23.185,12.422C-26.484,9.068 -28.839,4.783 -29.811,0C-28.033,-0.407 -26.186,-0.629 -24.287,-0.629C-21.637,-0.629 -19.084,-0.206 -16.688,0.568M-25.402,-24.301C-24.624,-23.679 -23.883,-23.013 -23.185,-22.303C-18.785,-17.828 -16.064,-11.697 -16.064,-4.94C-16.064,-4.085 -16.107,-3.24 -16.192,-2.408C-18.755,-3.19 -21.472,-3.614 -24.287,-3.614C-26.323,-3.614 -28.308,-3.387 -30.221,-2.969C-31.219,-2.751 -32.197,-2.477 -33.153,-2.154C-42.08,0.863 -48.986,8.299 -51.253,17.543C-59.732,13.603 -65.628,5.009 -65.628,-4.94C-65.628,-18.605 -54.511,-29.723 -40.846,-29.723C-35.01,-29.723 -29.642,-27.69 -25.402,-24.301M0.496,24.153C0.496,37.818 -10.622,48.936 -24.287,48.936C-37.952,48.936 -49.068,37.818 -49.068,24.153C-49.068,23.299 -49.024,22.455 -48.939,21.622C-48.836,20.61 -48.665,19.619 -48.443,18.646C-46.561,10.383 -40.542,3.677 -32.684,0.839C-31.575,6.056 -28.996,10.733 -25.403,14.421C-24.7,15.143 -23.962,15.83 -23.185,16.472C-18.382,20.441 -12.227,22.828 -5.524,22.828C-3.487,22.828 -1.503,22.602 0.41,22.183C0.461,22.834 0.496,23.49 0.496,24.153M22.245,-4.94C22.245,-20.252 9.788,-32.708 -5.524,-32.708C-12.227,-32.708 -18.382,-30.321 -23.185,-26.352C-27.988,-30.321 -34.144,-32.708 -40.846,-32.708C-56.158,-32.708 -68.615,-20.252 -68.615,-4.94C-68.615,6.477 -61.687,16.304 -51.814,20.566C-51.967,21.741 -52.054,22.937 -52.054,24.153C-52.054,39.465 -39.597,51.922 -24.287,51.922C-8.975,51.922 3.482,39.465 3.482,24.153C3.482,23.214 3.434,22.285 3.342,21.368C14.318,17.659 22.245,7.271 22.245,-4.94" style="fill:rgb(68,58,137);fill-rule:nonzero;"/>
            </g>
        </g>
        <g transform="matrix(1,0,0,1,895.226,0)">
            <g opacity="0.4">
                <g transform="matrix(1,0,0,1,332.759,124.894)">
                    <path d="M0,0C0,10.475 -8.491,18.966 -18.966,18.966C-29.441,18.966 -37.932,10.475 -37.932,0L-22.769,-0.216C-20.857,-2.102 -25.542,-17.795 -25.542,-17.795C-23.494,-18.553 -21.278,-18.966 -18.966,-18.966C-8.491,-18.966 0,-10.475 0,0" style="fill:rgb(68,58,137);fill-rule:nonzero;"/>
                </g>
            </g>
        </g>
        <g transform="matrix(1,0,0,1,895.226,0)">
            <g opacity="0.4">
                <g transform="matrix(1,0,0,1,293.731,162.826)">
                    <path d="M0,-36.064C-6.359,-33.002 -10.749,-26.496 -10.749,-18.965C-10.749,-8.491 -2.257,0 8.218,0C17.383,0 25.03,-6.501 26.799,-15.143L13.35,-18.032L3.706,-26.466L0,-36.064Z" style="fill:rgb(68,58,137);fill-rule:nonzero;"/>
                </g>
            </g>
        </g>
        <g transform="matrix(1,0,0,1,895.226,0)">
            <g opacity="0.4">
                <g transform="matrix(1,0,0,1,309.07,120.496)">
                    <path d="M0,5.004C0,-5.471 -8.492,-13.962 -18.966,-13.962C-29.441,-13.962 -37.933,-5.471 -37.933,5.004C-37.933,10.528 -35.571,15.5 -31.803,18.966L-24.782,9.862L-14.243,4.398L0,5.004Z" style="fill:rgb(68,58,137);fill-rule:nonzero;"/>
                </g>
            </g>
        </g>
        <g transform="matrix(1,0,0,1,895.226,0)">
            <g opacity="0.3">
                <g transform="matrix(1,0,0,1,327.821,98.03)">
                    <path d="M0,46.098C9.07,42.821 15.572,33.969 15.572,23.783C15.572,10.796 5.006,0 -7.98,0" style="fill:none;fill-rule:nonzero;stroke:white;stroke-width:2px;"/>
                </g>
            </g>
        </g>
        <g transform="matrix(1,0,0,1,895.226,0)">
            <g opacity="0.3">
                <g transform="matrix(0.523231,-0.852191,-0.852191,-0.523231,317.456,97.7854)">
                    <path d="M-0.851,-0.476C-1.403,-0.475 -1.849,-0.029 -1.85,0.522C-1.849,1.074 -1.402,1.521 -0.851,1.522C-0.299,1.521 0.148,1.074 0.147,0.523C0.147,-0.03 -0.299,-0.476 -0.851,-0.476" style="fill:white;fill-rule:nonzero;"/>
                </g>
            </g>
        </g>
        <g transform="matrix(1,0,0,1,895.226,0)">
            <g opacity="0.3">
                <g transform="matrix(1,0,0,1,277.499,177.881)">
                    <path d="M0,-31.538C-1.866,-22.076 2.369,-11.942 11.099,-6.693C22.228,0 36.925,-3.491 43.618,-14.62" style="fill:none;fill-rule:nonzero;stroke:white;stroke-width:2px;"/>
                </g>
            </g>
        </g>
        <g transform="matrix(1,0,0,1,895.226,0)">
            <g opacity="0.3">
                <g transform="matrix(0.46039,0.887717,0.887717,-0.46039,321.81,159.772)">
                    <path d="M0.886,-0.538C0.335,-0.539 -0.112,-0.091 -0.112,0.46C-0.112,1.011 0.335,1.459 0.886,1.458C1.437,1.458 1.884,1.011 1.884,0.46C1.885,-0.091 1.438,-0.538 0.886,-0.538" style="fill:white;fill-rule:nonzero;"/>
                </g>
            </g>
        </g>
        <g transform="matrix(1,0,0,1,895.226,0)">
            <g opacity="0.3">
                <g transform="matrix(1,0,0,1,298.863,127.485)">
                    <path d="M0,-24.486C-7.593,-30.432 -18.546,-31.24 -27.178,-25.832C-38.182,-18.936 -41.72,-4.25 -34.824,6.754" style="fill:none;fill-rule:nonzero;stroke:white;stroke-width:2px;"/>
                </g>
            </g>
        </g>
        <g transform="matrix(1,0,0,1,895.226,0)">
            <g opacity="0.3">
                <g transform="matrix(-0.999959,0.00901315,0.00901315,0.999959,265.97,137.903)">
                    <path d="M0.008,-1.996C-0.543,-1.996 -0.99,-1.549 -0.99,-0.998C-0.99,-0.446 -0.543,0.001 0.008,0.001C0.559,0 1.006,-0.446 1.006,-0.998C1.007,-1.549 0.559,-1.996 0.008,-1.996" style="fill:white;fill-rule:nonzero;"/>
                </g>
            </g>
        </g>
    </g>
</svg>
