<?xml version="1.0" encoding="UTF-8" standalone="no"?>
<!DOCTYPE svg PUBLIC "-//W3C//DTD SVG 1.1//EN" "http://www.w3.org/Graphics/SVG/1.1/DTD/svg11.dtd">
<svg width="100%" height="100%" viewBox="0 0 91 88" version="1.1" xmlns="http://www.w3.org/2000/svg" xmlns:xlink="http://www.w3.org/1999/xlink" xml:space="preserve" xmlns:serif="http://www.serif.com/" style="fill-rule:evenodd;clip-rule:evenodd;stroke-linecap:round;stroke-miterlimit:10;">
    <g transform="matrix(1,0,0,1,-938.655,-194.456)">
        <g transform="matrix(1,0,0,1,895.226,0)">
            <g transform="matrix(1,0,0,1,72.3439,239.417)">
                <path d="M0,-37.859C-12.052,-37.859 -21.857,-28.054 -21.857,-16.002C-21.857,-10.667 -19.888,-5.517 -16.311,-1.498L-14.978,-0.001L-13.484,-1.338C-9.764,-4.665 -4.976,-6.498 0,-6.498C4.976,-6.498 9.764,-4.665 13.483,-1.338L14.979,0L16.312,-1.5L16.449,-1.651C17.119,-2.418 17.671,-3.128 18.137,-3.819C20.57,-7.431 21.856,-11.644 21.856,-16.002C21.856,-20.359 20.57,-24.572 18.138,-28.184C17.671,-28.876 17.119,-29.586 16.449,-30.353C12.282,-35.123 6.287,-37.859 0,-37.859M0,-35.859C5.959,-35.859 11.3,-33.208 14.943,-29.037C15.491,-28.41 16.012,-27.759 16.479,-27.067C18.61,-23.903 19.856,-20.095 19.856,-16.002C19.856,-11.908 18.61,-8.101 16.479,-4.937C16.012,-4.244 15.491,-3.594 14.943,-2.966C14.902,-2.92 14.858,-2.875 14.817,-2.828C10.879,-6.351 5.687,-8.498 0,-8.498C-5.687,-8.498 -10.879,-6.351 -14.817,-2.828C-17.941,-6.338 -19.857,-10.945 -19.857,-16.002C-19.857,-26.951 -10.949,-35.859 0,-35.859" style="fill:rgb(0,135,48);fill-rule:nonzero;"/>
            </g>
        </g>
        <g transform="matrix(1,0,0,1,895.226,0)">
            <g transform="matrix(1,0,0,1,105.302,245.273)">
                <path d="M0,-43.715C-6.287,-43.715 -12.283,-40.979 -16.45,-36.209L-17.498,-35.008L-16.562,-33.718C-14.042,-30.244 -12.709,-26.143 -12.709,-21.858C-12.709,-17.573 -14.042,-13.471 -16.562,-9.997L-17.499,-8.707L-16.449,-7.506L-16.343,-7.389C-15.721,-6.691 -15.088,-6.061 -14.431,-5.481C-10.425,-1.947 -5.3,0 0,0C5.3,0 10.425,-1.947 14.431,-5.481C15.088,-6.061 15.721,-6.691 16.312,-7.354C19.888,-11.373 21.857,-16.523 21.857,-21.858C21.857,-33.91 12.052,-43.715 0,-43.715M0,-41.715C10.949,-41.715 19.857,-32.807 19.857,-21.858C19.857,-16.801 17.941,-12.194 14.817,-8.684C14.282,-8.082 13.712,-7.514 13.108,-6.981C9.606,-3.892 5.025,-2 0,-2C-5.025,-2 -9.606,-3.892 -13.108,-6.981C-13.712,-7.514 -14.282,-8.082 -14.817,-8.684C-14.859,-8.731 -14.902,-8.776 -14.943,-8.823C-12.283,-12.489 -10.709,-16.992 -10.709,-21.858C-10.709,-26.724 -12.283,-31.227 -14.943,-34.893C-11.3,-39.064 -5.959,-41.715 0,-41.715" style="fill:rgb(0,135,48);fill-rule:nonzero;"/>
            </g>
        </g>
        <g transform="matrix(1,0,0,1,895.226,0)">
            <g transform="matrix(1,0,0,1,120.28,275.026)">
                <path d="M0,-37.859L-1.494,-36.522C-5.214,-33.194 -10.002,-31.361 -14.978,-31.361C-19.954,-31.361 -24.742,-33.194 -28.462,-36.522L-29.956,-37.859L-31.289,-36.361L-31.427,-36.209C-32.098,-35.441 -32.65,-34.732 -33.116,-34.04C-35.549,-30.428 -36.835,-26.215 -36.835,-21.858C-36.835,-17.5 -35.549,-13.287 -33.116,-9.675C-32.65,-8.984 -32.098,-8.274 -31.428,-7.507C-27.261,-2.736 -21.265,0 -14.978,0C-2.926,0 6.879,-9.805 6.879,-21.858C6.879,-27.192 4.91,-32.343 1.333,-36.361L0,-37.859ZM-0.161,-35.031C2.963,-31.522 4.879,-26.915 4.879,-21.858C4.879,-10.908 -4.029,-2 -14.978,-2C-20.937,-2 -26.278,-4.652 -29.921,-8.823C-30.469,-9.45 -30.991,-10.1 -31.458,-10.793C-33.589,-13.957 -34.835,-17.764 -34.835,-21.858C-34.835,-25.951 -33.589,-29.759 -31.458,-32.923C-30.991,-33.615 -30.469,-34.266 -29.921,-34.893C-29.88,-34.94 -29.837,-34.985 -29.795,-35.031C-25.857,-31.509 -20.665,-29.361 -14.978,-29.361C-9.292,-29.361 -4.098,-31.509 -0.161,-35.031" style="fill:rgb(0,135,48);fill-rule:nonzero;"/>
            </g>
        </g>
        <g transform="matrix(1,0,0,1,895.226,0)">
            <g transform="matrix(1,0,0,1,72.3439,275.027)">
                <path d="M0,-43.715C-5.3,-43.715 -10.425,-41.769 -14.431,-38.235C-15.088,-37.655 -15.721,-37.025 -16.311,-36.361C-19.888,-32.343 -21.857,-27.192 -21.857,-21.858C-21.857,-9.805 -12.052,0 0,0C6.287,0 12.282,-2.736 16.449,-7.507L17.498,-8.707L16.562,-9.997C14.041,-13.472 12.708,-17.573 12.708,-21.858C12.708,-26.143 14.041,-30.244 16.562,-33.718L17.498,-35.009L16.449,-36.209L16.344,-36.325C15.72,-37.025 15.087,-37.655 14.431,-38.235C10.425,-41.769 5.3,-43.715 0,-43.715M0,-41.715C5.025,-41.715 9.606,-39.824 13.108,-36.735C13.712,-36.202 14.281,-35.633 14.817,-35.031C14.858,-34.985 14.902,-34.94 14.943,-34.893C12.283,-31.227 10.708,-26.724 10.708,-21.858C10.708,-16.992 12.283,-12.489 14.943,-8.822C11.3,-4.652 5.959,-2 0,-2C-10.949,-2 -19.857,-10.908 -19.857,-21.858C-19.857,-26.915 -17.941,-31.522 -14.817,-35.031C-14.282,-35.633 -13.712,-36.202 -13.108,-36.735C-9.606,-39.824 -5.025,-41.715 0,-41.715" style="fill:rgb(0,135,48);fill-rule:nonzero;"/>
            </g>
        </g>
        <g transform="matrix(1,0,0,1,895.226,0)">
            <g transform="matrix(1,0,0,1,105.302,205.558)">
                <path d="M0,65.468C-5.132,65.468 -10.03,63.231 -13.437,59.33C-13.996,58.689 -14.449,58.11 -14.821,57.558C-16.807,54.609 -17.857,51.169 -17.857,47.611C-17.857,44.051 -16.807,40.612 -14.82,37.663C-14.73,37.528 -14.634,37.392 -14.534,37.254C-10.349,40.396 -5.262,42.107 0,42.107C5.257,42.107 10.338,40.4 14.521,37.264C16.684,40.284 17.857,43.894 17.857,47.611C17.857,57.457 9.847,65.468 0,65.468M-32.958,65.468C-42.805,65.468 -50.815,57.457 -50.815,47.611C-50.815,43.258 -49.205,39.051 -46.281,35.766C-45.797,35.222 -45.28,34.707 -44.743,34.233C-41.468,31.344 -37.283,29.753 -32.958,29.753C-28.633,29.753 -24.448,31.344 -21.173,34.233C-20.97,34.413 -20.769,34.598 -20.572,34.79C-22.983,38.638 -24.25,43.036 -24.25,47.611C-24.25,52.185 -22.983,56.585 -20.57,60.433C-23.896,63.649 -28.332,65.468 -32.958,65.468M-47.479,28.203C-49.642,25.182 -50.815,21.573 -50.815,17.857C-50.815,8.01 -42.805,-0.001 -32.958,-0.001C-27.826,-0.001 -22.929,2.236 -19.521,6.137C-18.962,6.777 -18.51,7.357 -18.138,7.909C-16.151,10.858 -15.102,14.298 -15.102,17.857C-15.102,21.415 -16.151,24.855 -18.138,27.804C-18.229,27.939 -18.324,28.075 -18.425,28.213C-22.609,25.071 -27.696,23.361 -32.958,23.361C-38.215,23.361 -43.296,25.067 -47.479,28.203M-12.388,5.033C-9.063,1.817 -4.627,-0.001 0,-0.001C9.847,-0.001 17.857,8.01 17.857,17.857C17.857,22.209 16.247,26.416 13.323,29.7C12.839,30.244 12.322,30.76 11.785,31.234C8.51,34.123 4.325,35.714 0,35.714C-4.325,35.714 -8.51,34.123 -11.785,31.234C-11.989,31.054 -12.189,30.868 -12.387,30.677C-9.976,26.829 -8.709,22.43 -8.709,17.857C-8.709,13.282 -9.976,8.882 -12.388,5.033M0,-6.393C-6.115,-6.393 -12.012,-4.055 -16.479,0.082C-20.946,-4.056 -26.842,-6.393 -32.958,-6.393C-46.33,-6.393 -57.208,4.485 -57.208,17.857C-57.208,23.267 -55.403,28.486 -52.094,32.734C-55.403,36.981 -57.208,42.2 -57.208,47.611C-57.208,60.982 -46.33,71.861 -32.958,71.861C-26.842,71.861 -20.946,69.523 -16.479,65.385C-12.012,69.523 -6.115,71.861 0,71.861C13.372,71.861 24.25,60.982 24.25,47.611C24.25,42.2 22.446,36.981 19.137,32.734C22.446,28.486 24.25,23.267 24.25,17.857C24.25,4.485 13.372,-6.393 0,-6.393M0,40.107C-5.687,40.107 -10.879,37.959 -14.817,34.437C-14.859,34.483 -14.902,34.528 -14.943,34.575C-15.491,35.202 -16.013,35.853 -16.479,36.545C-18.611,39.709 -19.857,43.517 -19.857,47.611C-19.857,51.704 -18.611,55.511 -16.479,58.676C-16.013,59.368 -15.491,60.018 -14.943,60.645C-11.3,64.816 -5.959,67.468 0,67.468C10.949,67.468 19.857,58.56 19.857,47.611C19.857,42.553 17.941,37.947 14.817,34.437C10.88,37.959 5.687,40.107 0,40.107M-32.958,67.468C-26.999,67.468 -21.658,64.816 -18.015,60.646C-20.675,56.979 -22.25,52.476 -22.25,47.611C-22.25,42.744 -20.675,38.241 -18.015,34.575C-18.056,34.528 -18.1,34.483 -18.141,34.437C-18.677,33.835 -19.246,33.266 -19.85,32.734C-23.352,29.644 -27.933,27.753 -32.958,27.753C-37.983,27.753 -42.564,29.644 -46.066,32.734C-46.67,33.266 -47.24,33.835 -47.775,34.437C-50.899,37.947 -52.815,42.553 -52.815,47.611C-52.815,58.56 -43.907,67.468 -32.958,67.468M-47.775,31.03C-43.837,27.508 -38.645,25.361 -32.958,25.361C-27.271,25.361 -22.079,27.508 -18.141,31.03C-18.1,30.984 -18.056,30.939 -18.015,30.892C-17.467,30.264 -16.946,29.614 -16.479,28.922C-14.348,25.758 -13.102,21.95 -13.102,17.857C-13.102,13.763 -14.348,9.955 -16.479,6.791C-16.946,6.099 -17.467,5.448 -18.015,4.822C-21.658,0.651 -26.999,-2.001 -32.958,-2.001C-43.907,-2.001 -52.815,6.907 -52.815,17.857C-52.815,22.913 -50.899,27.52 -47.775,31.03M0,37.714C5.025,37.714 9.606,35.822 13.108,32.734C13.712,32.2 14.282,31.632 14.817,31.03C17.941,27.52 19.857,22.913 19.857,17.857C19.857,6.907 10.949,-2.001 0,-2.001C-5.959,-2.001 -11.3,0.651 -14.943,4.822C-12.283,8.488 -10.709,12.99 -10.709,17.857C-10.709,22.722 -12.283,27.225 -14.943,30.891C-14.902,30.939 -14.859,30.984 -14.817,31.03C-14.282,31.632 -13.712,32.2 -13.108,32.734C-9.606,35.822 -5.025,37.714 0,37.714M0,-4.393C12.269,-4.393 22.25,5.588 22.25,17.857C22.25,23.572 20.083,28.789 16.528,32.734C20.083,36.678 22.25,41.895 22.25,47.611C22.25,59.879 12.269,69.861 0,69.861C-6.526,69.861 -12.405,67.035 -16.479,62.544C-20.553,67.035 -26.431,69.861 -32.958,69.861C-45.227,69.861 -55.208,59.879 -55.208,47.611C-55.208,41.895 -53.041,36.678 -49.486,32.734C-53.041,28.789 -55.208,23.572 -55.208,17.857C-55.208,5.588 -45.227,-4.393 -32.958,-4.393C-26.431,-4.393 -20.553,-1.569 -16.479,2.923C-12.405,-1.569 -6.526,-4.393 0,-4.393" style="fill:rgb(0,135,48);fill-rule:nonzero;"/>
            </g>
        </g>
        <g transform="matrix(1,0,0,1,895.226,0)">
            <g transform="matrix(1,0,0,1,52.4865,216.731)">
                <path d="M0,6.684C0,11.741 1.917,16.348 5.04,19.857C8.978,16.335 14.171,14.188 19.857,14.188C25.544,14.188 30.737,16.335 34.674,19.857C34.716,19.811 34.759,19.766 34.8,19.719C35.348,19.092 35.87,18.442 36.336,17.749C38.467,14.585 39.714,10.777 39.714,6.684C39.714,2.59 38.467,-1.217 36.336,-4.381C35.87,-5.074 35.348,-5.724 34.8,-6.351C31.158,-10.522 25.817,-13.173 19.857,-13.173C8.908,-13.173 0,-4.265 0,6.684" style="fill:rgb(5,191,107);fill-rule:nonzero;"/>
            </g>
        </g>
        <g transform="matrix(1,0,0,1,895.226,0)">
            <g transform="matrix(1,0,0,1,105.302,243.273)">
                <path d="M0,-39.715C-5.959,-39.715 -11.3,-37.064 -14.943,-32.893C-12.283,-29.227 -10.709,-24.724 -10.709,-19.858C-10.709,-14.992 -12.283,-10.489 -14.943,-6.823C-14.902,-6.776 -14.859,-6.731 -14.817,-6.684C-14.282,-6.082 -13.712,-5.514 -13.108,-4.981C-9.606,-1.892 -5.025,0 0,0C5.025,0 9.607,-1.892 13.108,-4.981C13.712,-5.514 14.282,-6.082 14.817,-6.684C17.941,-10.194 19.857,-14.801 19.857,-19.858C19.857,-30.807 10.949,-39.715 0,-39.715" style="fill:rgb(5,191,107);fill-rule:nonzero;"/>
            </g>
        </g>
        <g transform="matrix(1,0,0,1,895.226,0)">
            <g opacity="0.4">
                <g transform="matrix(1,0,0,1,92.1999,240.993)">
                    <path d="M0,-24.619C2.263,-26.062 4.95,-26.898 7.833,-26.898C15.89,-26.898 22.421,-20.367 22.421,-12.309C22.421,-4.253 15.89,2.279 7.833,2.279C2.948,2.279 -1.377,-0.123 -4.024,-3.81L0,-10.373L1.32,-18.474L0,-24.619Z" style="fill:rgb(0,135,48);fill-rule:nonzero;"/>
                </g>
            </g>
        </g>
        <g transform="matrix(1,0,0,1,895.226,0)">
            <g transform="matrix(1,0,0,1,120.119,273.026)">
                <path d="M0,-33.031C-3.938,-29.509 -9.131,-27.361 -14.817,-27.361C-20.504,-27.361 -25.697,-29.509 -29.635,-33.031C-29.676,-32.985 -29.719,-32.94 -29.761,-32.892C-30.309,-32.265 -30.83,-31.615 -31.297,-30.923C-33.428,-27.759 -34.675,-23.951 -34.675,-19.857C-34.675,-15.764 -33.428,-11.956 -31.297,-8.792C-30.83,-8.099 -30.309,-7.449 -29.761,-6.823C-26.118,-2.652 -20.777,0 -14.817,0C-3.868,0 5.04,-8.908 5.04,-19.857C5.04,-24.914 3.124,-29.521 0,-33.031" style="fill:rgb(5,191,107);fill-rule:nonzero;"/>
            </g>
        </g>
        <g transform="matrix(1,0,0,1,895.226,0)">
            <g opacity="0.4">
                <g transform="matrix(1,0,0,1,89.341,262.252)">
                    <path d="M0,-24.513C-2.418,-21.909 -3.896,-18.421 -3.896,-14.588C-3.896,-6.531 2.635,0 10.692,0C18.749,0 25.28,-6.531 25.28,-14.588C25.28,-16.37 24.96,-18.078 24.375,-19.658L14.433,-17.841L5.122,-20.612L0,-24.513Z" style="fill:rgb(0,135,48);fill-rule:nonzero;"/>
                </g>
            </g>
        </g>
        <g transform="matrix(1,0,0,1,895.226,0)">
            <g transform="matrix(1,0,0,1,83.0519,253.169)">
                <path d="M0,0C0,-4.866 1.575,-9.369 4.235,-13.035C4.194,-13.083 4.15,-13.127 4.109,-13.174C3.573,-13.775 3.004,-14.344 2.4,-14.877C-1.102,-17.966 -5.683,-19.857 -10.708,-19.857C-15.733,-19.857 -20.314,-17.966 -23.816,-14.877C-24.42,-14.344 -24.99,-13.776 -25.525,-13.174C-28.649,-9.664 -30.565,-5.057 -30.565,0C-30.565,10.949 -21.657,19.857 -10.708,19.857C-4.749,19.857 0.592,17.206 4.235,13.035C1.575,9.369 0,4.866 0,0" style="fill:rgb(5,191,107);fill-rule:nonzero;"/>
            </g>
        </g>
        <g transform="matrix(1,0,0,1,895.226,0)">
            <g transform="matrix(1,0,0,1,118.41,238.292)">
                <path d="M0,0C-3.501,3.089 -8.083,4.98 -13.108,4.98C-18.133,4.98 -22.715,3.089 -26.216,0C-26.82,-0.533 -27.39,-1.102 -27.926,-1.704C-27.967,-1.75 -28.01,-1.795 -28.052,-1.842C-25.392,-5.508 -23.817,-10.011 -23.817,-14.877C-23.817,-19.743 -25.392,-24.246 -28.052,-27.912C-24.409,-32.083 -19.068,-34.734 -13.108,-34.734C-2.159,-34.734 6.749,-25.826 6.749,-14.877C6.749,-9.82 4.833,-5.213 1.709,-1.704C1.173,-1.102 0.604,-0.533 0,0M-31.124,-27.912C-30.576,-27.285 -30.054,-26.635 -29.588,-25.942C-27.457,-22.778 -26.21,-18.971 -26.21,-14.877C-26.21,-10.784 -27.457,-6.976 -29.588,-3.812C-30.054,-3.119 -30.576,-2.469 -31.124,-1.842C-31.165,-1.795 -31.208,-1.75 -31.25,-1.704C-35.187,-5.226 -40.38,-7.373 -46.066,-7.373C-51.753,-7.373 -56.946,-5.226 -60.884,-1.704C-64.007,-5.213 -65.924,-9.82 -65.924,-14.877C-65.924,-25.826 -57.016,-34.734 -46.066,-34.734C-40.107,-34.734 -34.766,-32.083 -31.124,-27.912M-46.066,34.734C-57.016,34.734 -65.924,25.826 -65.924,14.877C-65.924,9.82 -64.007,5.213 -60.884,1.703C-60.348,1.101 -59.778,0.533 -59.174,0C-55.673,-3.089 -51.091,-4.98 -46.066,-4.98C-41.041,-4.98 -36.46,-3.089 -32.958,0C-32.354,0.533 -31.785,1.102 -31.25,1.703C-31.208,1.75 -31.165,1.794 -31.124,1.842C-33.784,5.508 -35.358,10.011 -35.358,14.877C-35.358,19.743 -33.784,24.246 -31.124,27.912C-34.766,32.083 -40.107,34.734 -46.066,34.734M-13.108,34.734C-19.068,34.734 -24.409,32.083 -28.052,27.912C-28.6,27.285 -29.121,26.635 -29.588,25.942C-31.719,22.778 -32.966,18.97 -32.966,14.877C-32.966,10.783 -31.719,6.976 -29.588,3.812C-29.121,3.119 -28.6,2.469 -28.052,1.842C-28.01,1.794 -27.967,1.75 -27.926,1.703C-23.988,5.226 -18.795,7.373 -13.108,7.373C-7.422,7.373 -2.229,5.226 1.709,1.703C4.833,5.213 6.749,9.82 6.749,14.877C6.749,25.826 -2.159,34.734 -13.108,34.734M9.142,-14.877C9.142,-27.146 -0.84,-37.127 -13.108,-37.127C-19.635,-37.127 -25.514,-34.302 -29.587,-29.811C-33.661,-34.302 -39.54,-37.127 -46.066,-37.127C-58.335,-37.127 -68.316,-27.146 -68.316,-14.877C-68.316,-9.162 -66.149,-3.945 -62.595,0C-66.149,3.944 -68.316,9.162 -68.316,14.877C-68.316,27.146 -58.335,37.127 -46.066,37.127C-39.54,37.127 -33.661,34.302 -29.587,29.811C-25.514,34.302 -19.635,37.127 -13.108,37.127C-0.84,37.127 9.142,27.146 9.142,14.877C9.142,9.162 6.974,3.944 3.42,0C6.974,-3.945 9.142,-9.162 9.142,-14.877" style="fill:rgb(0,135,48);fill-rule:nonzero;"/>
            </g>
        </g>
        <g transform="matrix(1,0,0,1,895.226,0)">
            <g opacity="0.3">
                <g transform="matrix(1,0,0,1,123.704,204.506)">
                    <path d="M0,22.743C0.276,21.47 0.422,20.149 0.422,18.794C0.422,8.431 -8.022,0 -18.402,0C-21.749,0 -24.891,0.881 -27.613,2.421" style="fill:none;fill-rule:nonzero;stroke:white;stroke-width:2px;"/>
                </g>
            </g>
        </g>
        <g transform="matrix(1,0,0,1,895.226,0)">
            <g opacity="0.3">
                <g transform="matrix(0,-1,-1,0,122.694,229.622)">
                    <path d="M-0.998,-0.998C-1.55,-0.998 -1.998,-0.551 -1.998,0C-1.998,0.552 -1.55,0.998 -0.998,0.998C-0.447,0.998 0.001,0.552 0.001,0C0.001,-0.551 -0.447,-0.998 -0.998,-0.998" style="fill:white;fill-rule:nonzero;"/>
                </g>
            </g>
        </g>
        <g transform="matrix(1,0,0,1,895.226,0)">
            <g opacity="0.3">
                <g transform="matrix(1,0,0,1,101.416,244.445)">
                    <path d="M0,27.191C1.273,27.467 2.594,27.613 3.949,27.613C14.312,27.613 22.743,19.169 22.743,8.789C22.743,5.442 21.862,2.3 20.323,-0.422" style="fill:none;fill-rule:nonzero;stroke:white;stroke-width:2px;"/>
                </g>
            </g>
        </g>
        <g transform="matrix(1,0,0,1,895.226,0)">
            <g opacity="0.3">
                <g transform="matrix(1,0,0,1,98.0451,269.627)">
                    <path d="M0,1.997C-0.551,1.997 -0.998,1.55 -0.998,0.998C-0.998,0.447 -0.551,0 0,0C0.551,0 0.999,0.447 0.999,0.998C0.999,1.55 0.551,1.997 0,1.997" style="fill:white;fill-rule:nonzero;"/>
                </g>
            </g>
        </g>
        <g transform="matrix(1,0,0,1,895.226,0)">
            <g opacity="0.3">
                <g transform="matrix(1,0,0,1,53.901,272.057)">
                    <path d="M0,-22.743C-0.276,-21.47 -0.422,-20.149 -0.422,-18.793C-0.422,-8.431 8.022,0 18.402,0C21.749,0 24.891,-0.881 27.613,-2.42" style="fill:none;fill-rule:nonzero;stroke:white;stroke-width:2px;"/>
                </g>
            </g>
        </g>
        <g transform="matrix(1,0,0,1,895.226,0)">
            <g opacity="0.3">
                <g transform="matrix(0,1,1,0,54.9113,244.945)">
                    <path d="M0.999,-0.998C0.448,-0.998 0,-0.551 0,0.001C0,0.552 0.448,0.999 0.999,0.999C1.55,0.999 1.997,0.552 1.997,0.001C1.997,-0.551 1.55,-0.998 0.999,-0.998" style="fill:white;fill-rule:nonzero;"/>
                </g>
            </g>
        </g>
        <g transform="matrix(1,0,0,1,895.226,0)">
            <g opacity="0.3">
                <g transform="matrix(1,0,0,1,76.2795,232.216)">
                    <path d="M0,-27.192C-1.273,-27.468 -2.594,-27.614 -3.95,-27.614C-14.312,-27.614 -22.743,-19.169 -22.743,-8.79C-22.743,-5.442 -21.862,-2.301 -20.323,0.422" style="fill:none;fill-rule:nonzero;stroke:white;stroke-width:2px;"/>
                </g>
            </g>
        </g>
        <g transform="matrix(1,0,0,1,895.226,0)">
            <g opacity="0.3">
                <g transform="matrix(-1,0,0,1,79.6511,207.033)">
                    <path d="M0.001,-1.997C-0.551,-1.997 -0.998,-1.55 -0.998,-0.998C-0.998,-0.447 -0.551,0 0.001,0C0.552,0 0.999,-0.447 0.999,-0.998C0.999,-1.55 0.552,-1.997 0.001,-1.997" style="fill:white;fill-rule:nonzero;"/>
                </g>
            </g>
        </g>
        <g transform="matrix(1,0,0,1,895.226,0)">
            <g opacity="0.4">
                <g transform="matrix(1,0,0,1,63.9953,218.911)">
                    <path d="M0,15.019C-0.627,13.391 -0.972,11.622 -0.972,9.773C-0.972,1.716 5.56,-4.815 13.617,-4.815C21.674,-4.815 28.205,1.716 28.205,9.773C28.205,13.673 26.674,17.216 24.181,19.834C24.181,19.834 18.163,14.909 13.175,13.97C8.187,13.03 0,15.019 0,15.019" style="fill:rgb(0,135,48);fill-rule:nonzero;"/>
                </g>
            </g>
        </g>
        <g transform="matrix(1,0,0,1,895.226,0)">
            <g opacity="0.4">
                <g transform="matrix(1,0,0,1,85.4455,235.355)">
                    <path d="M0,24.618C-2.263,26.061 -4.951,26.897 -7.833,26.897C-15.891,26.897 -22.422,20.366 -22.422,12.309C-22.422,4.252 -15.891,-2.279 -7.833,-2.279C-2.976,-2.279 1.328,0.095 3.979,3.747C3.979,3.747 1.512,7.747 -0.001,12.309C-1.513,16.871 0,24.618 0,24.618" style="fill:rgb(0,135,48);fill-rule:nonzero;"/>
                </g>
            </g>
        </g>
    </g>
</svg>
