<?xml version="1.0" encoding="UTF-8" standalone="no"?>
<!DOCTYPE svg PUBLIC "-//W3C//DTD SVG 1.1//EN" "http://www.w3.org/Graphics/SVG/1.1/DTD/svg11.dtd">
<svg width="100%" height="100%" viewBox="0 0 93 91" version="1.1" xmlns="http://www.w3.org/2000/svg" xmlns:xlink="http://www.w3.org/1999/xlink" xml:space="preserve" xmlns:serif="http://www.serif.com/" style="fill-rule:evenodd;clip-rule:evenodd;stroke-linecap:round;stroke-miterlimit:10;">
    <g transform="matrix(1,0,0,1,-1042.19,-193.14)">
        <g transform="matrix(1,0,0,1,895.226,0)">
            <g transform="matrix(1,0,0,1,210.468,254.536)">
                <path d="M0,-40.995L0.654,-38.306C1.017,-36.813 1.201,-35.334 1.201,-33.912C1.201,-28.797 -0.853,-24.018 -4.581,-20.454C-5.289,-19.778 -6.037,-19.163 -6.806,-18.626C-9.205,-16.952 -12.015,-15.858 -14.932,-15.464C-15.324,-15.411 -15.677,-15.372 -16.012,-15.347L-18.765,-15.137L-17.707,-12.586C-16.226,-9.019 -13.763,-5.956 -10.584,-3.729C-7.103,-1.29 -3.036,0 1.175,0C3.3,0 5.41,-0.336 7.445,-0.996C9.152,-1.551 10.812,-2.357 12.377,-3.391C13.159,-3.908 13.824,-4.404 14.412,-4.908C20.698,-10.303 23.11,-18.867 20.556,-26.727C18.001,-34.591 11.015,-40.103 2.758,-40.771L0,-40.995ZM2.597,-38.778C9.79,-38.196 16.288,-33.39 18.654,-26.109C21.019,-18.829 18.585,-11.125 13.109,-6.426C12.534,-5.932 11.915,-5.484 11.274,-5.06C9.922,-4.167 8.442,-3.423 6.828,-2.899C4.951,-2.289 3.048,-2 1.175,-2C-2.658,-2 -6.36,-3.212 -9.437,-5.367C-12.219,-7.316 -14.483,-10.036 -15.859,-13.353C-15.457,-13.384 -15.06,-13.428 -14.664,-13.482C-11.35,-13.93 -8.285,-15.156 -5.662,-16.986C-4.788,-17.596 -3.967,-18.274 -3.199,-19.008C0.735,-22.769 3.201,-28.053 3.201,-33.912C3.201,-35.591 2.977,-37.215 2.597,-38.778" style="fill:rgb(140,16,72);fill-rule:nonzero;"/>
            </g>
        </g>
        <g transform="matrix(1,0,0,1,895.226,0)">
            <g transform="matrix(1,0,0,1,192.389,247.831)">
                <path d="M0,-27.39L-1.895,-17.91C-2.449,-15.135 -2.448,-12.314 -1.894,-9.528L0.005,0L2.024,-9.503C2.621,-12.308 2.62,-15.145 2.022,-17.936L0,-27.39ZM0.067,-17.518C0.601,-15.023 0.605,-12.447 0.068,-9.919C-0.444,-12.487 -0.424,-15.062 0.067,-17.518" style="fill:rgb(140,16,72);fill-rule:nonzero;"/>
            </g>
        </g>
        <g transform="matrix(1,0,0,1,895.226,0)">
            <g transform="matrix(1,0,0,1,211.851,241.183)">
                <path d="M0,-28.628L-1.532,-28.536C-3.409,-28.422 -5.215,-28.087 -6.901,-27.54C-12.829,-25.613 -17.627,-21.201 -20.066,-15.434L-20.386,-14.677L-20.082,-13.914C-19.873,-13.391 -19.703,-12.909 -19.561,-12.443C-18.699,-9.61 -18.535,-6.685 -19.073,-3.749C-19.15,-3.326 -19.221,-2.989 -19.294,-2.686L-19.949,0L-17.192,-0.219C-13.351,-0.525 -9.683,-1.917 -6.586,-4.245C-1.385,-8.155 1.599,-14.101 1.599,-20.558C1.599,-22.351 1.345,-24.177 0.845,-25.986C0.735,-26.385 0.616,-26.781 0.485,-27.171L0,-28.628ZM-1.412,-26.539C-1.292,-26.181 -1.184,-25.819 -1.083,-25.453C-0.651,-23.892 -0.401,-22.255 -0.401,-20.558C-0.401,-14.542 -3.313,-9.207 -7.788,-5.844C-10.499,-3.806 -13.779,-2.497 -17.351,-2.213C-17.256,-2.604 -17.178,-2.995 -17.106,-3.388C-16.515,-6.614 -16.696,-9.899 -17.647,-13.025C-17.814,-13.575 -18.01,-14.117 -18.224,-14.655C-16.095,-19.69 -11.89,-23.816 -6.283,-25.637C-4.667,-26.163 -3.033,-26.441 -1.412,-26.539" style="fill:rgb(140,16,72);fill-rule:nonzero;"/>
            </g>
        </g>
        <g transform="matrix(1,0,0,1,895.226,0)">
            <g transform="matrix(1,0,0,1,204.545,204.206)">
                <path d="M0,68.172C-0.865,68.172 -1.742,68.103 -2.604,67.966C-4.755,67.626 -6.774,66.885 -8.606,65.765C-9.117,65.453 -9.66,65.066 -10.266,64.581C-11.444,63.638 -12.472,62.568 -13.321,61.4C-16.37,57.202 -17.237,51.922 -15.699,46.914C-15.047,44.79 -13.981,42.839 -12.571,41.165C-11.065,43.786 -9.028,46.105 -6.613,47.932C-5.678,48.64 -4.681,49.279 -3.649,49.834C-0.336,51.614 3.372,52.555 7.074,52.555C9.439,52.555 11.788,52.182 14.054,51.445C14.824,51.195 15.59,50.896 16.348,50.55C16.437,51.797 16.382,53.057 16.183,54.317C15.496,58.649 13.164,62.454 9.615,65.033C6.788,67.087 3.463,68.172 0,68.172M-23.034,68.172C-26.494,68.172 -29.818,67.087 -32.646,65.032C-38.021,61.128 -40.5,54.416 -38.961,47.933C-38.821,47.342 -38.621,46.702 -38.349,45.978C-37.816,44.56 -37.121,43.254 -36.279,42.097C-33.23,37.9 -28.478,35.443 -23.241,35.358L-22.969,35.356C-20.842,35.356 -18.75,35.767 -16.803,36.558C-18.859,38.812 -20.405,41.413 -21.407,44.31C-21.787,45.406 -22.085,46.552 -22.296,47.716C-22.302,47.754 -22.312,47.791 -22.32,47.828C-22.349,47.953 -22.376,48.078 -22.396,48.206C-23.343,54.178 -21.907,60.162 -18.352,65.056C-17.876,65.71 -17.355,66.346 -16.792,66.96C-17.951,67.43 -19.166,67.767 -20.426,67.966C-21.291,68.103 -22.167,68.172 -23.034,68.172M-6.884,38.557C-3.912,37.935 -1.073,36.715 1.406,34.984C2.343,34.331 3.251,33.585 4.106,32.768C8.632,28.443 11.124,22.636 11.124,16.419C11.124,15.613 11.076,14.795 10.982,13.97C16.451,15.312 20.897,19.368 22.675,24.839C24.729,31.159 22.788,38.047 17.73,42.387C17.271,42.781 16.736,43.178 16.095,43.602C14.83,44.438 13.497,45.087 12.133,45.53C10.497,46.061 8.803,46.33 7.099,46.33C3.712,46.33 0.44,45.291 -2.366,43.326C-4.192,42.046 -5.724,40.424 -6.884,38.557M-42.633,40.502C-46.269,36.202 -47.482,30.308 -45.706,24.839C-43.651,18.516 -38.032,14.084 -31.39,13.546C-30.946,13.51 -30.504,13.492 -30.076,13.492C-29.912,13.492 -29.747,13.502 -29.582,13.51L-29.345,13.522C-27.848,13.589 -26.391,13.85 -25.014,14.297C-20.843,15.652 -17.45,18.551 -15.459,22.459C-15.147,23.071 -14.866,23.748 -14.575,24.59C-14.37,25.184 -14.196,25.817 -14.044,26.526C-13.72,28.044 -13.615,29.58 -13.731,31.114C-16.494,29.874 -19.498,29.193 -22.51,29.132C-22.655,29.13 -22.8,29.128 -22.945,29.128C-23.953,29.128 -24.989,29.199 -26.024,29.339C-32.227,30.179 -37.656,33.411 -41.311,38.441C-41.783,39.091 -42.225,39.78 -42.633,40.502M-25.462,7.761C-22.496,2.975 -17.265,-0.001 -11.516,-0.001C-4.87,-0.001 1.081,3.973 3.646,10.125C3.768,10.418 3.883,10.728 3.998,11.07C4.106,11.395 4.205,11.724 4.296,12.057C4.7,13.518 4.905,14.985 4.905,16.419C4.905,21.606 2.504,26.387 -1.683,29.534C-3.46,30.87 -5.469,31.822 -7.596,32.347C-7.257,29.316 -7.535,26.303 -8.427,23.369C-8.602,22.795 -8.809,22.21 -9.06,21.581C-9.278,21.033 -9.492,20.543 -9.714,20.083C-9.73,20.05 -9.744,20.017 -9.758,19.983C-9.808,19.866 -9.859,19.75 -9.917,19.636C-12.663,14.248 -17.342,10.251 -23.093,8.382C-23.858,8.133 -24.649,7.926 -25.462,7.761M-11.516,-6.221C-20.504,-6.221 -28.678,-0.798 -32.254,7.402C-41.159,8.269 -48.843,14.368 -51.621,22.918C-53.489,28.669 -53.006,34.803 -50.261,40.192C-48.963,42.737 -47.223,44.978 -45.076,46.867C-46.996,55.599 -43.568,64.784 -36.302,70.064C-32.404,72.896 -27.817,74.393 -23.038,74.393C-21.848,74.393 -20.642,74.297 -19.453,74.109C-16.636,73.663 -13.972,72.703 -11.515,71.249C-9.059,72.703 -6.395,73.663 -3.578,74.109C-2.389,74.297 -1.183,74.393 0.008,74.393C4.787,74.393 9.373,72.896 13.271,70.064C20.538,64.784 23.965,55.599 22.045,46.867C24.192,44.978 25.933,42.737 27.23,40.192C29.976,34.803 30.459,28.669 28.59,22.918C25.813,14.369 18.129,8.271 9.224,7.403C5.648,-0.798 -2.527,-6.221 -11.516,-6.221M0,70.172C3.857,70.172 7.609,68.962 10.791,66.651C14.771,63.758 17.388,59.489 18.158,54.63C18.542,52.207 18.443,49.781 17.889,47.464C16.504,48.316 15.022,49.028 13.437,49.543C11.326,50.229 9.182,50.555 7.074,50.555C3.623,50.555 0.271,49.67 -2.703,48.072C-3.646,47.565 -4.55,46.985 -5.406,46.337C-7.952,44.411 -10.066,41.886 -11.516,38.881C-11.69,38.519 -11.865,38.155 -12.02,37.779C-14.737,40.108 -16.617,43.09 -17.611,46.327C-19.254,51.679 -18.475,57.708 -14.938,62.575C-13.951,63.935 -12.792,65.121 -11.515,66.142C-10.917,66.621 -10.3,67.073 -9.649,67.472C-7.617,68.714 -5.341,69.558 -2.917,69.942C-1.943,70.096 -0.968,70.172 0,70.172M-23.034,70.172C-22.065,70.172 -21.088,70.096 -20.113,69.942C-17.689,69.558 -15.414,68.714 -13.381,67.472C-14.619,66.418 -15.754,65.228 -16.733,63.88C-19.974,59.42 -21.284,53.965 -20.421,48.52C-20.397,48.368 -20.355,48.223 -20.328,48.072C-20.135,47.007 -19.865,45.969 -19.517,44.964C-18.449,41.876 -16.666,39.112 -14.291,36.849C-14.002,36.573 -13.708,36.302 -13.401,36.042C-16.368,34.228 -19.678,33.356 -22.969,33.356C-23.071,33.356 -23.172,33.357 -23.274,33.358C-28.871,33.45 -34.362,36.054 -37.897,40.921C-38.894,42.292 -39.653,43.76 -40.221,45.275C-40.493,45.998 -40.731,46.729 -40.907,47.472C-42.573,54.491 -40.013,62.152 -33.821,66.651C-30.64,68.962 -26.892,70.172 -23.034,70.172M7.099,48.33C8.971,48.33 10.875,48.041 12.751,47.432C14.366,46.907 15.846,46.164 17.198,45.27C17.838,44.847 18.457,44.398 19.033,43.904C24.509,39.205 26.942,31.502 24.577,24.221C22.211,16.941 15.713,12.135 8.521,11.552C8.9,13.116 9.124,14.74 9.124,16.419C9.124,22.278 6.658,27.562 2.724,31.322C1.956,32.056 1.136,32.734 0.262,33.344C-2.361,35.175 -5.427,36.401 -8.74,36.849C-9.136,36.902 -9.534,36.947 -9.936,36.978C-8.56,40.295 -6.296,43.014 -3.514,44.964C-0.437,47.119 3.265,48.33 7.099,48.33M-42.063,43.904C-41.452,42.418 -40.678,40.974 -39.692,39.616C-36.249,34.877 -31.148,32.051 -25.756,31.321C-24.825,31.195 -23.886,31.128 -22.945,31.128C-22.813,31.128 -22.682,31.13 -22.551,31.132C-19.36,31.196 -16.168,32.007 -13.232,33.588C-12.879,33.778 -12.53,33.976 -12.186,34.189C-12.147,34.028 -12.122,33.867 -12.088,33.706C-11.55,31.178 -11.555,28.602 -12.089,26.107C-12.245,25.376 -12.438,24.65 -12.685,23.937C-12.964,23.127 -13.281,22.327 -13.677,21.551C-15.91,17.167 -19.718,13.915 -24.396,12.395C-26.007,11.872 -27.639,11.596 -29.255,11.524C-29.529,11.511 -29.803,11.492 -30.076,11.492C-30.57,11.492 -31.062,11.513 -31.551,11.552C-38.745,12.134 -45.242,16.94 -47.607,24.221C-49.973,31.502 -47.539,39.205 -42.063,43.904M-10.044,34.764C-6.472,34.48 -3.192,33.171 -0.481,31.133C3.993,27.77 6.905,22.435 6.905,16.419C6.905,14.722 6.656,13.085 6.224,11.524C6.123,11.158 6.014,10.796 5.895,10.438C5.772,10.071 5.64,9.709 5.492,9.355C2.714,2.694 -3.861,-2.001 -11.516,-2.001C-19.17,-2.001 -25.745,2.694 -28.522,9.355C-26.919,9.477 -25.307,9.766 -23.711,10.284C-18.468,11.988 -14.202,15.631 -11.699,20.544C-11.631,20.678 -11.581,20.818 -11.515,20.953C-11.297,21.404 -11.101,21.861 -10.917,22.322C-10.703,22.859 -10.508,23.402 -10.341,23.951C-9.39,27.077 -9.208,30.362 -9.799,33.589C-9.871,33.982 -9.949,34.373 -10.044,34.764M-11.516,-4.221C-2.635,-4.221 4.932,1.428 7.837,9.313C16.233,9.639 23.944,15.09 26.688,23.536C28.392,28.778 27.951,34.371 25.448,39.283C24.065,41.998 22.128,44.307 19.801,46.133C22.079,54.217 19.277,63.229 12.096,68.445C8.531,71.035 4.33,72.393 0.008,72.393C-1.078,72.393 -2.172,72.307 -3.265,72.134C-6.271,71.658 -9.061,70.531 -11.515,68.885C-13.969,70.531 -16.76,71.658 -19.766,72.134C-20.858,72.307 -21.952,72.393 -23.038,72.393C-27.361,72.393 -31.561,71.036 -35.126,68.445C-42.308,63.229 -45.109,54.217 -42.831,46.133C-45.159,44.307 -47.095,41.998 -48.479,39.283C-50.981,34.371 -51.422,28.778 -49.719,23.536C-46.975,15.089 -39.265,9.638 -30.867,9.312C-27.961,1.427 -20.396,-4.221 -11.516,-4.221" style="fill:rgb(140,16,72);fill-rule:nonzero;"/>
            </g>
        </g>
        <g transform="matrix(1,0,0,1,895.226,0)">
            <g transform="matrix(0,-1,-1,0,193.029,201.094)">
                <path d="M-19.53,-19.53C-8.744,-19.53 0,-10.786 0,0C0,10.786 -8.744,19.53 -19.53,19.53C-30.316,19.53 -39.06,10.786 -39.06,0C-39.06,-10.786 -30.316,-19.53 -19.53,-19.53" style="fill:rgb(212,20,90);fill-rule:nonzero;"/>
            </g>
        </g>
        <g transform="matrix(1,0,0,1,895.226,0)">
            <g opacity="0.4">
                <g transform="matrix(-0.951059,-0.309008,-0.309008,0.951059,197.728,265.513)">
                    <path d="M-3.645,-23.014C2.87,-23.014 8.152,-17.734 8.151,-11.219C8.151,-4.704 2.87,0.577 -3.645,0.577C-10.16,0.577 -15.442,-4.703 -15.441,-11.218C-15.441,-17.733 -10.16,-23.014 -3.645,-23.014" style="fill:rgb(140,16,72);fill-rule:nonzero;"/>
                </g>
            </g>
        </g>
        <g transform="matrix(1,0,0,1,895.226,0)">
            <g transform="matrix(-0.951057,-0.309014,-0.309014,0.951057,162.976,249.919)">
                <path d="M-6.035,-38.104C4.751,-38.104 13.495,-29.36 13.495,-18.574C13.495,-7.788 4.751,0.956 -6.035,0.956C-16.821,0.956 -25.565,-7.788 -25.565,-18.574C-25.565,-29.36 -16.821,-38.104 -6.035,-38.104" style="fill:rgb(212,20,90);fill-rule:nonzero;"/>
            </g>
        </g>
        <g transform="matrix(1,0,0,1,895.226,0)">
            <g transform="matrix(-0.587773,0.809026,0.809026,0.587773,200.123,249.919)">
                <path d="M15.799,-31.008C26.585,-31.009 35.329,-22.265 35.329,-11.479C35.33,-0.693 26.586,8.051 15.799,8.051C5.014,8.051 -3.73,-0.693 -3.73,-11.479C-3.731,-22.265 5.013,-31.008 15.799,-31.008" style="fill:rgb(212,20,90);fill-rule:nonzero;"/>
            </g>
        </g>
        <g transform="matrix(1,0,0,1,895.226,0)">
            <g opacity="0.4">
                <g transform="matrix(-0.951047,-0.309047,-0.309047,0.951047,178.043,259.634)">
                    <path d="M-3.645,-23.015C2.869,-23.015 8.151,-17.733 8.15,-11.219C8.15,-4.704 2.869,0.577 -3.645,0.576C-10.161,0.577 -15.443,-4.705 -15.442,-11.22C-15.441,-17.734 -10.16,-23.016 -3.645,-23.015" style="fill:rgb(140,16,72);fill-rule:nonzero;"/>
                </g>
            </g>
        </g>
        <g transform="matrix(1,0,0,1,895.226,0)">
            <g transform="matrix(0.587773,0.809026,0.809026,-0.587773,185.935,249.919)">
                <path d="M15.8,-8.051C26.586,-8.05 35.33,0.693 35.33,11.479C35.329,22.265 26.586,31.009 15.8,31.009C5.013,31.009 -3.73,22.265 -3.73,11.479C-3.729,0.693 5.014,-8.051 15.8,-8.051" style="fill:rgb(212,20,90);fill-rule:nonzero;"/>
            </g>
        </g>
        <g transform="matrix(1,0,0,1,895.226,0)">
            <g opacity="0.4">
                <g transform="matrix(-0.951059,-0.309008,-0.309008,0.951059,194.148,259.529)">
                    <path d="M-3.645,-23.015C2.87,-23.015 8.152,-17.735 8.151,-11.219C8.151,-4.704 2.87,0.576 -3.645,0.576C-10.16,0.577 -15.441,-4.704 -15.441,-11.219C-15.441,-17.734 -10.16,-23.015 -3.645,-23.015" style="fill:rgb(140,16,72);fill-rule:nonzero;"/>
                </g>
            </g>
        </g>
        <g transform="matrix(1,0,0,1,895.226,0)">
            <g transform="matrix(1,0,0,1,229.122,240.825)">
                <path d="M0,-12.398C-2.366,-19.679 -8.864,-24.484 -16.057,-25.067C-15.677,-23.503 -15.453,-21.879 -15.453,-20.201C-15.453,-14.341 -17.919,-9.058 -21.853,-5.297C-22.621,-4.563 -23.441,-3.885 -24.315,-3.275C-26.938,-1.444 -30.004,-0.219 -33.317,0.229C-33.713,0.283 -34.111,0.328 -34.513,0.358C-33.137,3.675 -30.873,6.395 -28.091,8.344C-23.512,11.552 -17.544,12.669 -11.826,10.812C-10.211,10.288 -8.731,9.544 -7.379,8.651C-6.739,8.227 -6.12,7.779 -5.544,7.285C-0.068,2.586 2.365,-5.118 0,-12.398" style="fill:rgb(212,20,90);fill-rule:nonzero;"/>
            </g>
        </g>
        <g transform="matrix(1,0,0,1,895.226,0)">
            <g opacity="0.4">
                <g transform="matrix(-0.951047,-0.309047,-0.309047,0.951047,197.334,243.656)">
                    <path d="M-3.645,-23.015C2.869,-23.015 8.151,-17.734 8.15,-11.219C8.15,-4.704 2.869,0.577 -3.645,0.576C-10.16,0.577 -15.442,-4.705 -15.441,-11.219C-15.441,-17.734 -10.16,-23.016 -3.645,-23.015" style="fill:rgb(140,16,72);fill-rule:nonzero;"/>
                </g>
            </g>
        </g>
        <g transform="matrix(1,0,0,1,895.226,0)">
            <g transform="matrix(1,0,0,1,192.457,230.313)">
                <path d="M0,7.599C0.538,5.071 0.533,2.495 -0.001,0C-0.492,2.456 -0.512,5.031 0,7.599" style="fill:rgb(212,20,90);fill-rule:nonzero;"/>
            </g>
        </g>
        <g transform="matrix(1,0,0,1,895.226,0)">
            <g opacity="0.4">
                <g transform="matrix(1,0,0,1,184.704,238.023)">
                    <path d="M0,-13.876C-6.196,-15.889 -12.851,-12.498 -14.864,-6.302C-15.786,-3.463 -15.574,-0.528 -14.478,2.013C-14.478,2.013 -11.204,-1.593 -3.645,-1.593C3.461,-1.593 7.574,0.988 7.574,0.988C9.587,-5.208 6.196,-11.863 0,-13.876" style="fill:rgb(140,16,72);fill-rule:nonzero;"/>
                </g>
            </g>
        </g>
        <g transform="matrix(1,0,0,1,895.226,0)">
            <g transform="matrix(1,0,0,1,193.628,227.086)">
                <path d="M0,-0.558C0.214,-0.02 0.409,0.522 0.576,1.071C1.527,4.197 1.709,7.483 1.118,10.709C1.046,11.102 0.968,11.493 0.873,11.884C4.445,11.6 7.725,10.291 10.436,8.253C14.91,4.89 17.822,-0.445 17.822,-6.461C17.822,-8.158 17.573,-9.795 17.141,-11.356C17.04,-11.722 16.931,-12.084 16.812,-12.442C15.191,-12.345 13.557,-12.066 11.941,-11.54C6.333,-9.719 2.129,-5.593 0,-0.558" style="fill:rgb(212,20,90);fill-rule:nonzero;"/>
            </g>
        </g>
        <g transform="matrix(1,0,0,1,895.226,0)">
            <g opacity="0.4">
                <g transform="matrix(1,0,0,1,184.415,235.858)">
                    <path d="M0,-17.729C2.994,-20.11 7.087,-20.992 10.998,-19.722C17.193,-17.708 20.584,-11.054 18.571,-4.858C17.047,-0.169 12.866,2.913 8.237,3.263L9.137,-5.294L4.867,-14.455L0,-17.729Z" style="fill:rgb(140,16,72);fill-rule:nonzero;"/>
                </g>
            </g>
        </g>
        <g transform="matrix(1,0,0,1,895.226,0)">
            <g transform="matrix(1,0,0,1,222.703,217.748)">
                <path d="M0,41.088C-0.771,45.947 -3.387,50.216 -7.367,53.109C-11.348,56 -16.221,57.168 -21.075,56.4C-23.499,56.016 -25.775,55.172 -27.807,53.93C-28.458,53.531 -29.075,53.079 -29.673,52.6C-30.951,51.579 -32.109,50.393 -33.097,49.033C-36.633,44.166 -37.413,38.137 -35.769,32.785C-34.775,29.548 -32.895,26.566 -30.178,24.237C-30.023,24.613 -29.849,24.977 -29.674,25.339C-28.225,28.344 -26.11,30.869 -23.564,32.795C-22.708,33.443 -21.805,34.023 -20.861,34.53C-17.888,36.128 -14.536,37.013 -11.084,37.013C-8.977,37.013 -6.832,36.687 -4.722,36.001C-3.136,35.486 -1.654,34.774 -0.269,33.922C0.285,36.239 0.384,38.665 0,41.088M-38.271,56.4C-43.131,57.169 -47.999,56 -51.979,53.109C-58.171,48.61 -60.731,40.949 -59.065,33.93C-58.889,33.187 -58.651,32.456 -58.379,31.733C-57.811,30.218 -57.052,28.75 -56.056,27.379C-52.52,22.512 -47.029,19.908 -41.432,19.816C-38.042,19.761 -34.618,20.63 -31.56,22.5C-31.866,22.76 -32.16,23.031 -32.449,23.307C-34.824,25.57 -36.607,28.334 -37.675,31.421C-38.023,32.427 -38.293,33.465 -38.486,34.53C-38.513,34.681 -38.555,34.826 -38.579,34.978C-39.442,40.423 -38.132,45.878 -34.892,50.338C-33.912,51.686 -32.777,52.876 -31.54,53.93C-33.572,55.172 -35.848,56.016 -38.271,56.4M-65.766,10.679C-63.4,3.398 -56.903,-1.408 -49.709,-1.99C-49.22,-2.029 -48.729,-2.05 -48.234,-2.05C-47.961,-2.05 -47.687,-2.031 -47.413,-2.018C-45.797,-1.946 -44.166,-1.67 -42.555,-1.147C-37.876,0.373 -34.068,3.625 -31.835,8.009C-31.439,8.785 -31.123,9.585 -30.843,10.395C-30.596,11.108 -30.403,11.834 -30.247,12.565C-29.713,15.06 -29.708,17.636 -30.246,20.164C-30.28,20.325 -30.305,20.486 -30.344,20.647C-30.688,20.434 -31.038,20.236 -31.39,20.046C-34.327,18.465 -37.519,17.654 -40.709,17.59C-41.782,17.568 -42.853,17.635 -43.914,17.779C-49.307,18.509 -54.407,21.335 -57.851,26.074C-58.836,27.432 -59.61,28.876 -60.221,30.362C-65.697,25.663 -68.131,17.96 -65.766,10.679M-29.674,-15.543C-22.019,-15.543 -15.444,-10.848 -12.667,-4.187C-12.519,-3.833 -12.386,-3.471 -12.264,-3.104C-12.144,-2.746 -12.035,-2.384 -11.934,-2.018C-11.502,-0.457 -11.253,1.18 -11.253,2.877C-11.253,8.893 -14.165,14.228 -18.64,17.591C-21.35,19.629 -24.63,20.938 -28.203,21.222C-28.107,20.831 -28.029,20.44 -27.958,20.046C-27.366,16.82 -27.548,13.535 -28.499,10.409C-28.666,9.86 -28.861,9.317 -29.075,8.78C-29.259,8.319 -29.456,7.862 -29.673,7.411C-29.739,7.275 -29.789,7.136 -29.857,7.002C-32.36,2.089 -36.626,-1.554 -41.869,-3.258C-43.465,-3.776 -45.077,-4.065 -46.68,-4.187C-43.903,-10.848 -37.328,-15.543 -29.674,-15.543M-0.96,31.728C-2.313,32.622 -3.792,33.365 -5.407,33.89C-11.125,35.746 -17.093,34.63 -21.672,31.421C-24.454,29.472 -26.718,26.753 -28.094,23.436C-27.692,23.405 -27.294,23.36 -26.898,23.307C-23.585,22.859 -20.52,21.633 -17.896,19.802C-17.022,19.192 -16.202,18.514 -15.434,17.78C-11.5,14.02 -9.034,8.736 -9.034,2.877C-9.034,1.198 -9.258,-0.426 -9.638,-1.99C-2.445,-1.407 4.053,3.399 6.419,10.679C8.784,17.96 6.351,25.663 0.875,30.362C0.299,30.856 -0.32,31.305 -0.96,31.728M8.53,9.994C5.786,1.548 -1.925,-3.903 -10.321,-4.229C-13.227,-12.114 -20.793,-17.763 -29.674,-17.763C-38.554,-17.763 -46.12,-12.115 -49.025,-4.23C-57.423,-3.904 -65.133,1.547 -67.877,9.994C-69.58,15.236 -69.14,20.829 -66.637,25.741C-65.253,28.456 -63.317,30.765 -60.989,32.591C-63.268,40.675 -60.466,49.687 -53.284,54.903C-49.719,57.494 -45.52,58.851 -41.196,58.851C-40.11,58.851 -39.017,58.765 -37.924,58.592C-34.918,58.116 -32.127,56.989 -29.673,55.343C-27.219,56.989 -24.429,58.116 -21.423,58.592C-20.33,58.765 -19.236,58.851 -18.15,58.851C-13.828,58.851 -9.627,57.493 -6.062,54.903C1.119,49.687 3.921,40.675 1.643,32.591C3.97,30.765 5.907,28.456 7.29,25.741C9.793,20.829 10.233,15.236 8.53,9.994" style="fill:rgb(140,16,72);fill-rule:nonzero;"/>
            </g>
        </g>
        <g transform="matrix(1,0,0,1,895.226,0)">
            <g opacity="0.3">
                <g transform="matrix(1,0,0,1,208.868,203.189)">
                    <path d="M0,24.734C1.025,22.514 1.597,20.041 1.597,17.435C1.597,7.806 -6.209,0 -15.839,0C-20.235,0 -24.252,1.627 -27.319,4.312" style="fill:none;fill-rule:nonzero;stroke:white;stroke-width:2px;"/>
                </g>
            </g>
        </g>
        <g transform="matrix(1,0,0,1,895.226,0)">
            <g opacity="0.3">
                <g transform="matrix(0,-1,-1,0,207.248,229.565)">
                    <path d="M-0.999,-0.998C-1.55,-0.998 -1.997,-0.551 -1.997,0.001C-1.997,0.552 -1.55,0.999 -0.999,0.999C-0.447,0.999 0,0.552 0,0.001C0,-0.551 -0.447,-0.998 -0.999,-0.998" style="fill:white;fill-rule:nonzero;"/>
                </g>
            </g>
        </g>
        <g transform="matrix(1,0,0,1,895.226,0)">
            <g opacity="0.3">
                <g transform="matrix(1,0,0,1,207.575,220.767)">
                    <path d="M0,30.272C2.382,30.826 4.919,30.886 7.471,30.359C16.901,28.411 22.967,19.187 21.02,9.756C20.13,5.451 17.724,1.847 14.474,-0.614" style="fill:none;fill-rule:nonzero;stroke:white;stroke-width:2px;"/>
                </g>
            </g>
        </g>
        <g transform="matrix(1,0,0,1,895.226,0)">
            <g opacity="0.3">
                <g transform="matrix(0.979308,-0.202374,-0.202374,-0.979308,205.057,250.902)">
                    <path d="M-0.202,-0.021C-0.754,-0.021 -1.2,0.426 -1.201,0.977C-1.201,1.529 -0.753,1.976 -0.202,1.976C0.349,1.976 0.796,1.528 0.797,0.978C0.796,0.426 0.349,-0.021 -0.202,-0.021" style="fill:white;fill-rule:nonzero;"/>
                </g>
            </g>
        </g>
        <g transform="matrix(1,0,0,1,895.226,0)">
            <g opacity="0.3">
                <g transform="matrix(1,0,0,1,187.64,274.312)">
                    <path d="M0,-14.27C0.589,-11.896 1.689,-9.609 3.319,-7.576C9.341,-0.062 20.314,1.148 27.828,-4.874C31.259,-7.624 33.375,-11.405 34.089,-15.418" style="fill:none;fill-rule:nonzero;stroke:white;stroke-width:2px;"/>
                </g>
            </g>
        </g>
        <g transform="matrix(1,0,0,1,895.226,0)">
            <g opacity="0.3">
                <g transform="matrix(0.625489,0.780233,0.780233,-0.625489,186.279,256.751)">
                    <path d="M0.779,-0.374C0.227,-0.374 -0.22,0.074 -0.219,0.624C-0.219,1.176 0.227,1.623 0.779,1.623C1.331,1.622 1.778,1.176 1.778,0.624C1.777,0.072 1.33,-0.374 0.779,-0.374" style="fill:white;fill-rule:nonzero;"/>
                </g>
            </g>
        </g>
        <g transform="matrix(1,0,0,1,895.226,0)">
            <g opacity="0.3">
                <g transform="matrix(1,0,0,1,171.526,273.851)">
                    <path d="M0,-32.136C-1.998,-30.725 -3.729,-28.87 -5.031,-26.613C-9.845,-18.273 -6.987,-7.61 1.354,-2.796C5.161,-0.598 9.453,0 13.452,-0.792" style="fill:none;fill-rule:nonzero;stroke:white;stroke-width:2px;"/>
                </g>
            </g>
        </g>
        <g transform="matrix(1,0,0,1,895.226,0)">
            <g opacity="0.3">
                <g transform="matrix(-0.49991,0.866077,0.866077,0.49991,175.114,239.738)">
                    <path d="M0.865,-1.496C0.313,-1.497 -0.134,-1.05 -0.134,-0.498C-0.133,0.053 0.314,0.501 0.865,0.5C1.416,0.501 1.863,0.053 1.863,-0.498C1.863,-1.05 1.417,-1.497 0.865,-1.496" style="fill:white;fill-rule:nonzero;"/>
                </g>
            </g>
        </g>
        <g transform="matrix(1,0,0,1,895.226,0)">
            <g opacity="0.3">
                <g transform="matrix(1,0,0,1,185.506,236.147)">
                    <path d="M0,-15.477C-1.89,-17.029 -4.139,-18.205 -6.661,-18.862C-15.979,-21.289 -25.501,-15.703 -27.928,-6.384C-29.037,-2.129 -28.474,2.168 -26.649,5.812" style="fill:none;fill-rule:nonzero;stroke:white;stroke-width:2px;"/>
                </g>
            </g>
        </g>
        <g transform="matrix(1,0,0,1,895.226,0)">
            <g opacity="0.3">
                <g transform="matrix(-0.967771,-0.251831,-0.251831,0.967771,187.167,223.776)">
                    <path d="M-0.252,-1.964C-0.803,-1.964 -1.251,-1.516 -1.249,-0.965C-1.249,-0.414 -0.802,0.032 -0.252,0.033C0.3,0.032 0.747,-0.415 0.747,-0.966C0.747,-1.517 0.3,-1.964 -0.252,-1.964" style="fill:white;fill-rule:nonzero;"/>
                </g>
            </g>
        </g>
    </g>
</svg>
