<?xml version="1.0" encoding="UTF-8" standalone="no"?>
<!DOCTYPE svg PUBLIC "-//W3C//DTD SVG 1.1//EN" "http://www.w3.org/Graphics/SVG/1.1/DTD/svg11.dtd">
<svg width="100%" height="100%" viewBox="0 0 76 81" version="1.1" xmlns="http://www.w3.org/2000/svg" xmlns:xlink="http://www.w3.org/1999/xlink" xml:space="preserve" xmlns:serif="http://www.serif.com/" style="fill-rule:evenodd;clip-rule:evenodd;stroke-linejoin:round;stroke-miterlimit:2;">
    <g transform="matrix(1,0,0,1,-1159.51,-198.138)">
        <g transform="matrix(1,0,0,1,895.226,0)">
            <g transform="matrix(1,0,0,1,295.696,227.355)">
                <path d="M0,-15.316C2.534,-13.853 4.646,-11.874 6.269,-9.542C6.708,-8.91 7.112,-8.255 7.476,-7.573C8.171,-6.265 8.741,-4.879 9.134,-3.412C9.926,-0.458 9.998,2.57 9.415,5.484C9.121,6.958 8.671,8.404 8.035,9.793C8.128,9.784 8.218,9.763 8.312,9.752C13.188,9.18 17.446,6.593 20.252,2.85C20.777,2.15 21.264,1.421 21.68,0.645C23.004,-1.816 23.76,-4.628 23.76,-7.613C23.76,-10.575 23.014,-13.364 21.709,-15.812C21.333,-16.518 20.902,-17.187 20.436,-17.831C17.255,-22.23 12.095,-25.109 6.263,-25.109C0.435,-25.109 -4.722,-22.234 -7.904,-17.839C-5.153,-17.573 -2.465,-16.739 0,-15.316" style="fill:rgb(77,77,77);fill-rule:nonzero;"/>
            </g>
        </g>
        <g transform="matrix(1,0,0,1,895.226,0)">
            <g transform="matrix(1,0,0,1,301.959,239.489)">
                <path d="M0,-39.243C-6.215,-39.243 -12.116,-36.216 -15.787,-31.146L-17.833,-28.319L-14.359,-27.983C-11.829,-27.738 -9.442,-26.975 -7.263,-25.718C-5.023,-24.425 -3.13,-22.681 -1.635,-20.533C-1.233,-19.956 -0.869,-19.362 -0.553,-18.767C0.103,-17.536 0.604,-16.278 0.939,-15.029C1.642,-12.408 1.727,-9.721 1.191,-7.042C0.917,-5.669 0.5,-4.368 -0.046,-3.174L-1.5,0L1.974,-0.351C2.067,-0.361 2.159,-0.375 2.25,-0.39C7.538,-1.012 12.388,-3.814 15.59,-8.084C16.226,-8.932 16.746,-9.736 17.179,-10.541C18.695,-13.36 19.497,-16.543 19.497,-19.747C19.497,-22.921 18.707,-26.082 17.211,-28.887C16.815,-29.63 16.352,-30.366 15.794,-31.137C12.124,-36.213 6.22,-39.243 0,-39.243M0,-37.243C5.832,-37.243 10.993,-34.364 14.173,-29.965C14.639,-29.321 15.07,-28.652 15.446,-27.946C16.751,-25.498 17.497,-22.709 17.497,-19.747C17.497,-16.762 16.742,-13.95 15.417,-11.489C15.001,-10.713 14.515,-9.984 13.99,-9.284C11.183,-5.541 6.925,-2.954 2.049,-2.382C1.956,-2.371 1.866,-2.35 1.772,-2.341C2.408,-3.73 2.858,-5.176 3.152,-6.65C3.735,-9.564 3.663,-12.592 2.871,-15.546C2.478,-17.013 1.909,-18.399 1.213,-19.707C0.85,-20.389 0.446,-21.044 0.006,-21.676C-1.617,-24.008 -3.729,-25.987 -6.263,-27.45C-8.728,-28.873 -11.416,-29.707 -14.167,-29.973C-10.985,-34.368 -5.828,-37.243 0,-37.243" style="fill:rgb(51,51,51);fill-rule:nonzero;"/>
            </g>
        </g>
        <g transform="matrix(1,0,0,1,895.226,0)">
            <g transform="matrix(1,0,0,1,276.093,217.109)">
                <path d="M0,13.48C2.534,12.017 5.304,11.178 8.135,10.938C8.901,10.873 9.67,10.851 10.443,10.877C11.924,10.929 13.409,11.129 14.876,11.522C17.83,12.313 20.488,13.765 22.72,15.726C23.849,16.718 24.877,17.831 25.762,19.076C25.801,18.99 25.829,18.899 25.867,18.812C27.422,15.212 27.732,11.225 26.701,7.379C26.484,6.569 26.194,5.792 25.872,5.033C25.523,4.215 25.133,3.42 24.669,2.671C23.169,0.25 21.086,-1.78 18.55,-3.244C16.03,-4.699 13.251,-5.479 10.426,-5.577C10.227,-5.583 10.029,-5.596 9.83,-5.596C9.237,-5.596 8.643,-5.556 8.049,-5.495C7.121,-5.4 6.193,-5.239 5.273,-4.992C0.759,-3.783 -3.014,-0.888 -5.35,3.16C-7.687,7.207 -8.308,11.922 -7.098,16.436C-6.853,17.35 -6.521,18.224 -6.143,19.071C-4.536,16.819 -2.468,14.905 0,13.48" style="fill:rgb(77,77,77);fill-rule:nonzero;"/>
            </g>
        </g>
        <g transform="matrix(1,0,0,1,895.226,0)">
            <g transform="matrix(1,0,0,1,285.923,240.186)">
                <path d="M0,-30.673C-0.608,-30.673 -1.258,-30.636 -1.985,-30.562C-3.058,-30.451 -4.098,-30.263 -5.075,-30.001C-10.104,-28.653 -14.309,-25.427 -16.912,-20.917C-19.516,-16.408 -20.208,-11.154 -18.86,-6.123C-18.608,-5.183 -18.261,-4.223 -17.799,-3.19L-16.374,0L-14.345,-2.844C-12.866,-4.916 -11.011,-6.606 -8.83,-7.865C-6.591,-9.157 -4.134,-9.925 -1.526,-10.146C-1.023,-10.189 -0.52,-10.211 -0.031,-10.211C0.16,-10.211 0.352,-10.207 0.543,-10.2C1.937,-10.152 3.278,-9.958 4.528,-9.623C7.148,-8.921 9.518,-7.651 11.57,-5.849C12.622,-4.924 13.541,-3.913 14.301,-2.842L16.32,0L17.754,-3.177C17.794,-3.265 17.829,-3.353 17.862,-3.443C19.627,-7.532 19.949,-11.939 18.803,-16.215C18.583,-17.037 18.29,-17.866 17.882,-18.826C17.457,-19.826 17.018,-20.687 16.54,-21.459C14.864,-24.165 12.505,-26.445 9.719,-28.053C6.964,-29.644 3.833,-30.543 0.665,-30.652L0.495,-30.659C0.33,-30.666 0.166,-30.673 0,-30.673M0,-28.673C0.199,-28.673 0.397,-28.66 0.596,-28.653C3.421,-28.556 6.2,-27.776 8.72,-26.321C11.256,-24.857 13.339,-22.827 14.839,-20.405C15.303,-19.657 15.693,-18.862 16.042,-18.044C16.364,-17.285 16.654,-16.508 16.871,-15.697C17.902,-11.852 17.592,-7.865 16.037,-4.265C15.999,-4.177 15.971,-4.087 15.932,-4.001C15.047,-5.246 14.019,-6.359 12.89,-7.351C10.658,-9.312 8,-10.763 5.046,-11.555C3.579,-11.948 2.094,-12.148 0.613,-12.199C0.398,-12.207 0.183,-12.211 -0.031,-12.211C-0.587,-12.211 -1.142,-12.186 -1.695,-12.139C-4.526,-11.899 -7.296,-11.06 -9.83,-9.597C-12.298,-8.172 -14.366,-6.258 -15.973,-4.006C-16.352,-4.853 -16.683,-5.727 -16.928,-6.641C-18.138,-11.154 -17.518,-15.87 -15.18,-19.917C-12.844,-23.965 -9.071,-26.86 -4.557,-28.069C-3.637,-28.316 -2.709,-28.477 -1.781,-28.572C-1.187,-28.633 -0.593,-28.673 0,-28.673" style="fill:rgb(51,51,51);fill-rule:nonzero;"/>
            </g>
        </g>
        <g transform="matrix(1,0,0,1,895.226,0)">
            <g transform="matrix(1,0,0,1,284.227,246.483)">
                <path d="M0,2.057C0.331,1.352 0.702,0.671 1.112,0.015C3.489,-3.791 7.125,-6.722 11.442,-8.191C12.852,-8.67 14.327,-9.004 15.859,-9.15C15.803,-9.228 15.737,-9.298 15.68,-9.376C13.34,-12.523 10.042,-14.785 6.196,-15.816C5.381,-16.034 4.559,-16.188 3.736,-16.287C3.037,-16.372 2.337,-16.419 1.639,-16.419C1.462,-16.419 1.285,-16.407 1.108,-16.402C-1.741,-16.314 -4.542,-15.533 -7.08,-14.068C-9.603,-12.611 -11.678,-10.595 -13.176,-8.191C-13.594,-7.519 -13.951,-6.808 -14.276,-6.079C-14.655,-5.232 -14.987,-4.358 -15.231,-3.443C-16.441,1.071 -15.821,5.786 -13.484,9.833C-11.147,13.879 -7.375,16.775 -2.86,17.984C-1.943,18.23 -1.017,18.381 -0.09,18.476C-1.223,15.999 -1.871,13.257 -1.871,10.36C-1.871,7.39 -1.187,4.582 0,2.057" style="fill:rgb(77,77,77);fill-rule:nonzero;"/>
            </g>
        </g>
        <g transform="matrix(1,0,0,1,895.226,0)">
            <g transform="matrix(1,0,0,1,285.866,267.308)">
                <path d="M0,-39.244C-0.144,-39.244 -0.287,-39.239 -0.431,-39.232L-0.592,-39.226C-3.786,-39.128 -6.942,-38.228 -9.719,-36.624C-12.49,-35.025 -14.839,-32.76 -16.512,-30.073C-16.936,-29.394 -17.338,-28.624 -17.742,-27.72C-18.204,-26.686 -18.551,-25.726 -18.803,-24.786C-20.151,-19.755 -19.459,-14.501 -16.855,-9.992C-14.25,-5.481 -10.046,-2.256 -5.017,-0.909C-4.073,-0.656 -3.064,-0.476 -1.935,-0.359L1.544,0L0.09,-3.181C-0.972,-5.501 -1.51,-7.952 -1.51,-10.465C-1.51,-13.038 -0.944,-15.545 0.171,-17.917C0.468,-18.549 0.803,-19.165 1.169,-19.75C3.325,-23.202 6.62,-25.82 10.447,-27.122C11.759,-27.568 13.092,-27.858 14.41,-27.984L17.875,-28.314L15.844,-31.141C15.788,-31.22 15.728,-31.295 15.667,-31.369C13.006,-34.944 9.351,-37.427 5.075,-38.572C4.2,-38.807 3.279,-38.984 2.337,-39.098C1.536,-39.195 0.749,-39.244 0,-39.244M0,-37.244C0.698,-37.244 1.398,-37.197 2.097,-37.112C2.92,-37.013 3.742,-36.859 4.557,-36.64C8.403,-35.61 11.701,-33.348 14.041,-30.201C14.098,-30.123 14.164,-30.053 14.22,-29.974C12.688,-29.828 11.213,-29.495 9.803,-29.015C5.485,-27.547 1.85,-24.616 -0.527,-20.81C-0.937,-20.154 -1.308,-19.473 -1.639,-18.768C-2.827,-16.243 -3.51,-13.435 -3.51,-10.465C-3.51,-7.568 -2.862,-4.826 -1.729,-2.348C-2.656,-2.444 -3.582,-2.595 -4.5,-2.841C-9.014,-4.05 -12.787,-6.946 -15.123,-10.992C-17.46,-15.039 -18.081,-19.754 -16.871,-24.268C-16.626,-25.182 -16.294,-26.056 -15.916,-26.904C-15.59,-27.633 -15.233,-28.344 -14.815,-29.015C-13.317,-31.42 -11.242,-33.436 -8.719,-34.892C-6.181,-36.358 -3.38,-37.139 -0.531,-37.227C-0.354,-37.232 -0.177,-37.244 0,-37.244" style="fill:rgb(51,51,51);fill-rule:nonzero;"/>
            </g>
        </g>
        <g transform="matrix(1,0,0,1,895.226,0)">
            <g transform="matrix(1,0,0,1,316.127,246.707)">
                <path d="M0,20.361C-2.707,20.102 -5.401,19.283 -7.905,17.838C-10.436,16.377 -12.545,14.401 -14.168,12.073C-14.606,11.444 -15.01,10.79 -15.373,10.11C-16.072,8.798 -16.645,7.406 -17.039,5.934C-17.828,2.987 -17.901,-0.033 -17.324,-2.94C-17.03,-4.421 -16.579,-5.875 -15.939,-7.271C-16.035,-7.262 -16.126,-7.241 -16.221,-7.229C-21.087,-6.657 -25.337,-4.078 -28.144,-0.346C-28.676,0.362 -29.168,1.102 -29.59,1.888C-30.911,4.347 -31.664,7.154 -31.664,10.135C-31.664,13.105 -30.916,15.9 -29.605,18.352C-29.228,19.058 -28.794,19.727 -28.327,20.371C-25.146,24.76 -19.992,27.632 -14.168,27.632C-8.339,27.632 -3.182,24.756 0,20.361" style="fill:rgb(77,77,77);fill-rule:nonzero;"/>
            </g>
        </g>
        <g transform="matrix(1,0,0,1,895.226,0)">
            <g transform="matrix(1,0,0,1,303.459,276.339)">
                <path d="M0,-39.243L-3.472,-38.893C-3.567,-38.883 -3.66,-38.869 -3.752,-38.853C-9.03,-38.231 -13.874,-35.436 -17.074,-31.18C-17.717,-30.324 -18.244,-29.51 -18.684,-28.69C-20.196,-25.873 -20.995,-22.694 -20.995,-19.496C-20.995,-16.314 -20.202,-13.146 -18.701,-10.337C-18.306,-9.599 -17.841,-8.863 -17.278,-8.087C-13.607,-3.023 -7.708,0 -1.5,0C4.716,0 10.618,-3.028 14.288,-8.098L16.337,-10.929L12.859,-11.262C10.334,-11.503 7.947,-12.265 5.764,-13.526C3.527,-14.818 1.635,-16.559 0.141,-18.702C-0.258,-19.276 -0.622,-19.868 -0.939,-20.463C-1.598,-21.699 -2.103,-22.961 -2.438,-24.215C-3.139,-26.828 -3.225,-29.509 -2.694,-32.182C-2.419,-33.562 -2.002,-34.87 -1.453,-36.07L0,-39.243ZM-3.271,-36.903C-3.911,-35.507 -4.361,-34.053 -4.655,-32.572C-5.233,-29.664 -5.16,-26.645 -4.37,-23.698C-3.976,-22.225 -3.404,-20.834 -2.704,-19.522C-2.341,-18.842 -1.938,-18.188 -1.5,-17.559C0.123,-15.231 2.233,-13.255 4.764,-11.794C7.268,-10.348 9.962,-9.53 12.668,-9.271C9.487,-4.876 4.329,-2 -1.5,-2C-7.323,-2 -12.477,-4.871 -15.659,-9.261C-16.126,-9.905 -16.56,-10.574 -16.937,-11.28C-18.247,-13.732 -18.995,-16.527 -18.995,-19.496C-18.995,-22.477 -18.242,-25.285 -16.922,-27.744C-16.5,-28.53 -16.008,-29.269 -15.475,-29.977C-12.669,-33.71 -8.419,-36.289 -3.552,-36.861C-3.458,-36.872 -3.366,-36.893 -3.271,-36.903" style="fill:rgb(51,51,51);fill-rule:nonzero;"/>
            </g>
        </g>
        <g transform="matrix(1,0,0,1,895.226,0)">
            <g transform="matrix(1,0,0,1,333.96,265.058)">
                <path d="M0,-24.656C-1.578,-22.44 -3.627,-20.51 -6.133,-19.063C-8.708,-17.577 -11.484,-16.752 -14.267,-16.518C-14.812,-16.472 -15.357,-16.441 -15.901,-16.441C-16.127,-16.441 -16.352,-16.455 -16.578,-16.463C-21.056,-16.617 -25.415,-18.295 -28.844,-21.291C-29.972,-22.276 -30.994,-23.407 -31.892,-24.669C-31.933,-24.579 -31.961,-24.486 -32,-24.396C-33.556,-20.796 -33.866,-16.808 -32.835,-12.963C-32.617,-12.148 -32.325,-11.367 -32,-10.605C-31.651,-9.786 -31.26,-8.99 -30.796,-8.241C-29.296,-5.825 -27.216,-3.801 -24.684,-2.34C-22.118,-0.857 -19.328,-0.108 -16.555,-0.014C-15.757,0.013 -14.963,-0.026 -14.173,-0.107C-8.772,-0.662 -3.699,-3.692 -0.783,-8.742C2.132,-13.793 2.219,-19.701 0,-24.656" style="fill:rgb(77,77,77);fill-rule:nonzero;"/>
            </g>
        </g>
        <g transform="matrix(1,0,0,1,895.226,0)">
            <g transform="matrix(1,0,0,1,301.679,267.052)">
                <path d="M0,-30.657L-1.434,-27.488C-1.475,-27.398 -1.51,-27.307 -1.544,-27.215C-3.311,-23.121 -3.632,-18.715 -2.487,-14.439C-2.266,-13.613 -1.971,-12.779 -1.56,-11.815C-1.132,-10.811 -0.692,-9.95 -0.215,-9.181C1.46,-6.482 3.815,-4.207 6.597,-2.601C9.347,-1.013 12.48,-0.117 15.658,-0.01C15.85,-0.003 16.042,0 16.235,0C16.898,0 17.578,-0.036 18.312,-0.112C24.542,-0.752 30.119,-4.35 33.229,-9.737C36.339,-15.123 36.666,-21.751 34.105,-27.468L32.677,-30.656L30.651,-27.81C29.172,-25.734 27.321,-24.044 25.147,-22.789C22.898,-21.491 20.442,-20.723 17.846,-20.506C17.277,-20.458 16.811,-20.435 16.379,-20.435C16.252,-20.435 16.125,-20.442 15.999,-20.447L15.771,-20.456C11.706,-20.596 7.792,-22.136 4.752,-24.791C3.74,-25.676 2.82,-26.695 2.018,-27.823L0,-30.657ZM0.388,-26.663C1.286,-25.402 2.309,-24.27 3.436,-23.285C6.866,-20.289 11.224,-18.612 15.703,-18.457C15.928,-18.449 16.153,-18.435 16.379,-18.435C16.923,-18.435 17.468,-18.467 18.013,-18.512C20.796,-18.746 23.572,-19.571 26.147,-21.057C28.653,-22.504 30.702,-24.434 32.28,-26.65C34.5,-21.696 34.413,-15.787 31.497,-10.737C28.582,-5.686 23.508,-2.656 18.107,-2.101C17.485,-2.037 16.861,-2 16.235,-2C16.065,-2 15.895,-2.003 15.725,-2.008C12.952,-2.102 10.163,-2.851 7.597,-4.334C5.064,-5.795 2.984,-7.82 1.484,-10.235C1.02,-10.984 0.629,-11.78 0.28,-12.599C-0.045,-13.362 -0.337,-14.142 -0.555,-14.957C-1.585,-18.803 -1.275,-22.79 0.28,-26.39C0.319,-26.48 0.348,-26.574 0.388,-26.663" style="fill:rgb(51,51,51);fill-rule:nonzero;"/>
            </g>
        </g>
        <g transform="matrix(1,0,0,1,895.226,0)">
            <g transform="matrix(1,0,0,1,333.176,237.879)">
                <path d="M0,-17.61C-2.917,-22.662 -7.992,-25.701 -13.395,-26.255C-12.261,-23.777 -11.613,-21.034 -11.613,-18.137C-11.613,-15.162 -12.299,-12.35 -13.49,-9.821C-13.821,-9.12 -14.19,-8.442 -14.598,-7.788C-16.976,-3.985 -20.611,-1.055 -24.927,0.413C-26.336,0.892 -27.811,1.226 -29.343,1.372C-29.286,1.451 -29.222,1.521 -29.164,1.598C-26.235,5.527 -21.876,7.919 -17.241,8.482C-16.365,8.589 -15.483,8.645 -14.596,8.619C-11.802,8.535 -8.99,7.783 -6.404,6.29C-3.838,4.808 -1.795,2.767 -0.328,0.413C0.095,-0.265 0.458,-0.972 0.783,-1.697C3.002,-6.652 2.916,-12.56 0,-17.61" style="fill:rgb(77,77,77);fill-rule:nonzero;"/>
            </g>
        </g>
        <g transform="matrix(1,0,0,1,895.226,0)">
            <g transform="matrix(1,0,0,1,316.51,248.505)">
                <path d="M0,-39.226L1.453,-36.048C2.515,-33.727 3.053,-31.276 3.053,-28.763C3.053,-26.186 2.486,-23.675 1.367,-21.3C1.07,-20.669 0.735,-20.055 0.372,-19.474C-1.784,-16.024 -5.079,-13.408 -8.905,-12.106C-10.216,-11.66 -11.549,-11.37 -12.866,-11.245L-16.336,-10.914L-14.299,-8.085C-14.244,-8.008 -14.186,-7.934 -14.125,-7.862C-10.944,-3.598 -6.102,-0.801 -0.815,-0.158C0.057,-0.052 0.856,0 1.629,0C1.796,0 1.964,-0.003 2.131,-0.008C5.33,-0.104 8.488,-1.002 11.263,-2.603C14.013,-4.191 16.354,-6.457 18.036,-9.155C18.481,-9.868 18.886,-10.637 19.275,-11.505C21.835,-17.221 21.508,-23.85 18.399,-29.236C15.284,-34.63 9.705,-38.231 3.476,-38.87L0,-39.226ZM3.272,-36.88C8.674,-36.327 13.75,-33.288 16.667,-28.236C19.582,-23.185 19.669,-17.277 17.45,-12.323C17.125,-11.598 16.762,-10.891 16.339,-10.213C14.872,-7.858 12.829,-5.817 10.263,-4.336C7.677,-2.843 4.864,-2.091 2.071,-2.007C1.923,-2.002 1.776,-2 1.629,-2C0.891,-2 0.156,-2.055 -0.574,-2.143C-5.21,-2.707 -9.568,-5.099 -12.498,-9.027C-12.555,-9.105 -12.62,-9.175 -12.676,-9.253C-11.145,-9.4 -9.67,-9.733 -8.261,-10.213C-3.944,-11.681 -0.309,-14.61 2.068,-18.414C2.477,-19.067 2.846,-19.746 3.176,-20.447C4.368,-22.976 5.053,-25.788 5.053,-28.763C5.053,-31.66 4.405,-34.403 3.272,-36.88" style="fill:rgb(51,51,51);fill-rule:nonzero;"/>
            </g>
        </g>
        <g transform="matrix(1,0,0,1,895.226,0)">
            <g transform="matrix(1,0,0,1,332.849,238.292)">
                <path d="M0,0C-1.467,2.354 -3.51,4.396 -6.076,5.877C-8.662,7.37 -11.475,8.122 -14.268,8.206C-15.155,8.232 -16.038,8.176 -16.913,8.069C-21.549,7.506 -25.907,5.114 -28.836,1.186C-28.894,1.108 -28.958,1.038 -29.015,0.959C-27.483,0.813 -26.009,0.479 -24.6,0C-20.283,-1.468 -16.648,-4.397 -14.271,-8.201C-13.862,-8.854 -13.493,-9.533 -13.163,-10.234C-11.971,-12.763 -11.286,-15.575 -11.286,-18.55C-11.286,-21.447 -11.934,-24.19 -13.067,-26.667C-7.665,-26.114 -2.589,-23.075 0.328,-18.023C3.243,-12.973 3.33,-7.064 1.111,-2.11C0.786,-1.385 0.423,-0.678 0,0M-30.89,-36.046C-25.058,-36.046 -19.897,-33.167 -16.716,-28.768C-16.25,-28.124 -15.819,-27.455 -15.443,-26.749C-14.139,-24.301 -13.393,-21.512 -13.393,-18.55C-13.393,-15.564 -14.148,-12.753 -15.472,-10.292C-15.889,-9.516 -16.375,-8.787 -16.9,-8.087C-19.707,-4.344 -23.964,-1.757 -28.841,-1.185C-28.934,-1.174 -29.024,-1.153 -29.118,-1.144C-28.481,-2.533 -28.032,-3.979 -27.737,-5.453C-27.155,-8.367 -27.227,-11.395 -28.019,-14.349C-28.412,-15.816 -28.981,-17.202 -29.677,-18.51C-30.04,-19.192 -30.444,-19.847 -30.883,-20.479C-32.507,-22.811 -34.619,-24.79 -37.152,-26.253C-39.618,-27.676 -42.306,-28.51 -45.056,-28.776C-41.875,-33.171 -36.717,-36.046 -30.89,-36.046M-62.106,-18.023C-59.77,-22.07 -55.997,-24.965 -51.482,-26.175C-50.563,-26.421 -49.635,-26.583 -48.707,-26.678C-48.113,-26.739 -47.519,-26.779 -46.926,-26.779C-46.727,-26.779 -46.529,-26.766 -46.33,-26.759C-43.504,-26.662 -40.726,-25.881 -38.206,-24.427C-35.669,-22.962 -33.586,-20.933 -32.086,-18.511C-31.623,-17.763 -31.232,-16.968 -30.884,-16.149C-30.562,-15.391 -30.272,-14.614 -30.055,-13.803C-29.024,-9.958 -29.333,-5.971 -30.889,-2.371C-30.927,-2.283 -30.955,-2.193 -30.994,-2.106C-31.879,-3.352 -32.907,-4.465 -34.036,-5.457C-36.268,-7.418 -38.926,-8.869 -41.88,-9.661C-43.347,-10.054 -44.832,-10.254 -46.313,-10.305C-47.085,-10.332 -47.854,-10.31 -48.621,-10.245C-51.452,-10.005 -54.222,-9.166 -56.756,-7.703C-59.224,-6.278 -61.292,-4.364 -62.898,-2.111C-63.277,-2.958 -63.609,-3.833 -63.854,-4.747C-65.063,-9.26 -64.443,-13.976 -62.106,-18.023M-51.482,26.174C-55.997,24.966 -59.77,22.07 -62.106,18.023C-64.443,13.976 -65.063,9.261 -63.854,4.747C-63.609,3.833 -63.277,2.959 -62.898,2.111C-62.573,1.383 -62.216,0.672 -61.798,0C-60.3,-2.405 -58.225,-4.42 -55.702,-5.877C-53.164,-7.343 -50.363,-8.124 -47.514,-8.211C-47.337,-8.217 -47.16,-8.229 -46.983,-8.229C-46.285,-8.229 -45.585,-8.182 -44.886,-8.097C-44.063,-7.997 -43.241,-7.843 -42.426,-7.625C-38.58,-6.594 -35.282,-4.333 -32.942,-1.186C-32.885,-1.108 -32.819,-1.038 -32.763,-0.959C-34.295,-0.813 -35.77,-0.479 -37.18,0C-41.498,1.469 -45.133,4.4 -47.51,8.206C-47.92,8.862 -48.291,9.543 -48.622,10.248C-49.81,12.773 -50.493,15.58 -50.493,18.55C-50.493,21.447 -49.845,24.19 -48.712,26.667C-49.639,26.571 -50.565,26.42 -51.482,26.174M-45.049,28.786C-45.516,28.142 -45.95,27.473 -46.327,26.767C-47.637,24.315 -48.385,21.52 -48.385,18.55C-48.385,15.569 -47.632,12.762 -46.312,10.303C-45.89,9.517 -45.398,8.777 -44.865,8.069C-42.059,4.337 -37.809,1.758 -32.942,1.186C-32.848,1.174 -32.756,1.153 -32.661,1.144C-33.301,2.54 -33.751,3.994 -34.045,5.475C-34.623,8.382 -34.55,11.402 -33.76,14.349C-33.366,15.821 -32.794,17.212 -32.094,18.525C-31.731,19.205 -31.328,19.858 -30.89,20.488C-29.267,22.816 -27.157,24.792 -24.626,26.252C-22.123,27.698 -19.428,28.517 -16.722,28.776C-19.903,33.171 -25.061,36.046 -30.89,36.046C-36.713,36.046 -41.867,33.175 -45.049,28.786M-13.063,26.659C-13.852,26.74 -14.646,26.779 -15.444,26.752C-18.217,26.658 -21.007,25.909 -23.573,24.426C-26.105,22.965 -28.186,20.94 -29.685,18.525C-30.149,17.776 -30.541,16.98 -30.89,16.161C-31.214,15.398 -31.506,14.618 -31.725,13.803C-32.755,9.958 -32.445,5.97 -30.889,2.37C-30.851,2.28 -30.822,2.187 -30.781,2.097C-29.883,3.358 -28.861,4.49 -27.733,5.475C-24.304,8.471 -19.945,10.148 -15.467,10.303C-15.241,10.311 -15.017,10.325 -14.791,10.325C-14.247,10.325 -13.701,10.293 -13.156,10.248C-10.373,10.014 -7.597,9.189 -5.022,7.703C-2.517,6.256 -0.467,4.326 1.111,2.11C3.33,7.064 3.243,12.973 0.328,18.023C-2.588,23.074 -7.662,26.104 -13.063,26.659M2.153,-19.077C-1.363,-25.167 -7.677,-28.635 -14.237,-28.843C-17.697,-34.42 -23.858,-38.154 -30.89,-38.154C-37.916,-38.154 -44.072,-34.426 -47.534,-28.856C-49.035,-28.809 -50.541,-28.609 -52.028,-28.211C-57.086,-26.855 -61.313,-23.612 -63.932,-19.077C-66.55,-14.542 -67.246,-9.259 -65.89,-4.201C-65.493,-2.719 -64.916,-1.32 -64.209,0C-64.916,1.32 -65.493,2.719 -65.89,4.201C-67.246,9.26 -66.55,14.542 -63.932,19.077C-61.313,23.612 -57.086,26.855 -52.028,28.211C-50.539,28.609 -49.031,28.821 -47.527,28.868C-44.064,34.431 -37.911,38.154 -30.89,38.154C-23.863,38.154 -17.706,34.425 -14.244,28.855C-7.681,28.65 -1.364,25.169 2.153,19.077C5.669,12.988 5.516,5.785 2.416,0C5.516,-5.785 5.669,-12.987 2.153,-19.077" style="fill:rgb(51,51,51);fill-rule:nonzero;"/>
            </g>
        </g>
        <g transform="matrix(1,0,0,1,895.226,0)">
            <g transform="matrix(1,0,0,1,317.914,213.532)">
                <path d="M0,49.52C-0.147,49.52 -0.294,49.518 -0.442,49.513C-3.002,49.426 -5.423,48.733 -7.638,47.454C-9.851,46.177 -11.723,44.37 -13.051,42.23C-13.42,41.635 -13.768,40.951 -14.115,40.136C-14.451,39.35 -14.687,38.685 -14.858,38.045C-15.498,35.659 -15.562,33.22 -15.059,30.862C-14.752,31.166 -14.438,31.458 -14.115,31.741C-10.384,35 -5.584,36.89 -0.601,37.062L-0.409,37.069C-0.225,37.077 -0.041,37.084 0.144,37.084C0.69,37.084 1.263,37.058 1.945,37C5.133,36.733 8.149,35.789 10.912,34.195C12.506,33.274 13.958,32.166 15.255,30.881C16.026,34.581 15.438,38.478 13.53,41.783C11.06,46.062 6.625,48.92 1.668,49.429C1.071,49.49 0.525,49.52 0,49.52M-15.955,58.806C-20.887,58.806 -25.574,56.401 -28.495,52.372C-28.95,51.745 -29.321,51.16 -29.628,50.584C-30.821,48.353 -31.451,45.837 -31.451,43.31C-31.451,40.77 -30.816,38.246 -29.615,36.009C-29.272,35.37 -28.853,34.723 -28.332,34.031C-26.416,31.482 -23.761,29.592 -20.79,28.604C-20.896,29.013 -20.99,29.426 -21.073,29.845C-21.724,33.125 -21.618,36.416 -20.758,39.626C-20.343,41.174 -19.726,42.722 -18.924,44.226C-18.533,44.96 -18.085,45.688 -17.596,46.392C-15.763,49.02 -13.44,51.157 -10.692,52.744C-9.096,53.666 -7.411,54.371 -5.656,54.853C-8.473,57.368 -12.141,58.806 -15.955,58.806M-36.852,48.758C-40.485,47.571 -43.513,45.12 -45.439,41.783C-47.509,38.199 -48.059,34.023 -46.987,30.024C-46.791,29.291 -46.513,28.526 -46.138,27.687C-45.81,26.952 -45.491,26.34 -45.166,25.817C-43.838,23.686 -41.971,21.887 -39.768,20.615C-37.56,19.34 -35.053,18.625 -32.518,18.547L-32.304,18.539C-32.219,18.536 -32.134,18.531 -32.048,18.531C-31.459,18.531 -30.835,18.571 -30.192,18.648C-29.437,18.74 -28.703,18.881 -28.009,19.067C-25.618,19.708 -23.471,20.874 -21.678,22.492C-22.083,22.605 -22.487,22.729 -22.889,22.866C-27.586,24.464 -31.629,27.674 -34.272,31.906C-34.721,32.624 -35.133,33.382 -35.498,34.157C-36.865,37.065 -37.558,40.145 -37.558,43.31C-37.558,45.161 -37.321,46.983 -36.852,48.758M-10.212,27.022C-9.813,26.911 -9.416,26.788 -9.021,26.653C-4.325,25.056 -0.283,21.848 2.36,17.619C2.807,16.904 3.217,16.15 3.582,15.378C4.954,12.465 5.649,9.381 5.649,6.21C5.649,4.367 5.414,2.552 4.949,0.783C8.537,1.965 11.619,4.426 13.53,7.737C16,12.015 16.258,17.284 14.22,21.832C13.906,22.533 13.585,23.145 13.237,23.702C11.883,25.875 10.073,27.626 7.858,28.905C5.654,30.177 3.146,30.89 0.606,30.966C0.479,30.97 0.352,30.972 0.225,30.972C-0.385,30.972 -1.026,30.93 -1.737,30.844C-4.905,30.458 -7.871,29.103 -10.212,27.022M-47.188,18.656C-47.975,14.917 -47.365,11.071 -45.439,7.737C-43.37,4.152 -40.028,1.588 -36.03,0.517C-35.258,0.31 -34.43,0.16 -33.567,0.071C-32.977,0.011 -32.461,-0.019 -31.991,-0.019C-31.884,-0.019 -31.778,-0.014 -31.671,-0.009L-31.464,-0.001C-28.949,0.086 -26.462,0.8 -24.272,2.065C-22.056,3.344 -20.182,5.155 -18.852,7.302C-18.482,7.899 -18.135,8.583 -17.79,9.394C-17.457,10.177 -17.222,10.838 -17.052,11.474C-16.412,13.863 -16.348,16.304 -16.852,18.664C-17.152,18.369 -17.462,18.081 -17.782,17.8C-20.299,15.588 -23.208,14.03 -26.428,13.167C-27.97,12.754 -29.613,12.515 -31.31,12.456C-31.547,12.448 -31.785,12.443 -32.022,12.443C-32.623,12.443 -33.24,12.47 -33.855,12.522C-37.053,12.793 -40.069,13.736 -42.821,15.325C-44.425,16.251 -45.885,17.366 -47.188,18.656M-26.254,-5.333C-23.437,-7.848 -19.769,-9.286 -15.955,-9.286C-11.015,-9.286 -6.323,-6.875 -3.402,-2.836C-2.952,-2.213 -2.583,-1.629 -2.273,-1.048C-1.069,1.211 -0.458,3.653 -0.458,6.21C-0.458,8.754 -1.095,11.282 -2.299,13.521C-2.636,14.147 -3.05,14.786 -3.565,15.473C-5.483,18.031 -8.142,19.926 -11.119,20.916C-11.016,20.515 -10.923,20.109 -10.841,19.699C-10.185,16.411 -10.289,13.112 -11.152,9.893C-11.565,8.351 -12.179,6.809 -12.977,5.311C-13.368,4.576 -13.815,3.845 -14.308,3.138C-16.141,0.505 -18.466,-1.636 -21.218,-3.225C-22.812,-4.146 -24.497,-4.85 -26.254,-5.333M-15.955,-15.394C-23.103,-15.394 -29.667,-11.917 -33.717,-6.039C-35.064,-5.935 -36.37,-5.715 -37.612,-5.383C-43.186,-3.89 -47.844,-0.314 -50.729,4.683C-53.615,9.681 -54.381,15.503 -52.887,21.077C-52.556,22.312 -52.096,23.547 -51.516,24.76C-52.096,25.973 -52.556,27.208 -52.887,28.444C-54.381,34.016 -53.615,39.838 -50.729,44.837C-47.845,49.833 -43.187,53.408 -37.612,54.903C-36.347,55.241 -35.039,55.464 -33.71,55.568C-29.659,61.439 -23.098,64.914 -15.955,64.914C-8.806,64.914 -2.241,61.436 1.81,55.556C8.933,54.995 15.237,51.043 18.82,44.837C22.397,38.641 22.665,31.211 19.591,24.76C22.665,18.309 22.397,10.879 18.82,4.683C15.243,-1.514 8.942,-5.46 1.818,-6.024C-2.232,-11.911 -8.8,-15.394 -15.955,-15.394M0,51.52C0.626,51.52 1.251,51.482 1.872,51.418C7.273,50.864 12.347,47.833 15.262,42.783C18.178,37.733 18.265,31.824 16.045,26.87C14.467,29.086 12.418,31.016 9.912,32.462C7.337,33.949 4.562,34.774 1.778,35.007C1.233,35.053 0.688,35.084 0.144,35.084C-0.082,35.084 -0.307,35.07 -0.532,35.062C-5.011,34.908 -9.369,33.23 -12.799,30.234C-13.926,29.249 -14.949,28.118 -15.847,26.857C-15.887,26.946 -15.916,27.04 -15.955,27.13C-17.51,30.73 -17.82,34.717 -16.79,38.563C-16.572,39.378 -16.28,40.158 -15.955,40.921C-15.606,41.74 -15.215,42.536 -14.75,43.285C-13.251,45.7 -11.17,47.725 -8.638,49.186C-6.072,50.668 -3.283,51.417 -0.51,51.512C-0.34,51.517 -0.17,51.52 0,51.52M-15.955,60.806C-10.126,60.806 -4.969,57.931 -1.787,53.536C-4.494,53.277 -7.188,52.458 -9.692,51.012C-12.223,49.551 -14.333,47.576 -15.955,45.248C-16.394,44.618 -16.797,43.965 -17.16,43.285C-17.859,41.972 -18.432,40.581 -18.826,39.109C-19.615,36.162 -19.688,33.142 -19.111,30.235C-18.817,28.753 -18.366,27.299 -17.727,25.904C-17.822,25.913 -17.913,25.934 -18.008,25.945C-22.875,26.518 -27.125,29.097 -29.931,32.829C-30.463,33.537 -30.956,34.277 -31.377,35.062C-32.698,37.522 -33.451,40.329 -33.451,43.31C-33.451,46.279 -32.703,49.075 -31.392,51.526C-31.015,52.232 -30.582,52.901 -30.114,53.546C-26.933,57.935 -21.779,60.806 -15.955,60.806M-33.777,51.427C-34.91,48.95 -35.558,46.207 -35.558,43.31C-35.558,40.34 -34.875,37.533 -33.688,35.007C-33.356,34.303 -32.986,33.622 -32.576,32.965C-30.199,29.16 -26.563,26.228 -22.245,24.76C-20.835,24.28 -19.361,23.947 -17.829,23.801C-17.885,23.722 -17.95,23.652 -18.008,23.574C-20.348,20.427 -23.646,18.166 -27.491,17.135C-28.306,16.916 -29.128,16.763 -29.952,16.663C-30.65,16.578 -31.351,16.531 -32.048,16.531C-32.226,16.531 -32.402,16.543 -32.58,16.548C-35.428,16.636 -38.229,17.417 -40.768,18.883C-43.291,20.339 -45.365,22.355 -46.863,24.76C-47.282,25.432 -47.639,26.143 -47.964,26.871C-48.343,27.719 -48.674,28.593 -48.919,29.507C-50.129,34.021 -49.509,38.736 -47.171,42.783C-44.835,46.83 -41.063,49.726 -36.548,50.934C-35.63,51.18 -34.704,51.331 -33.777,51.427M0.225,32.972C0.372,32.972 0.52,32.97 0.667,32.965C3.46,32.881 6.272,32.129 8.858,30.637C11.424,29.155 13.467,27.114 14.935,24.76C15.357,24.082 15.721,23.374 16.045,22.65C18.265,17.695 18.178,11.787 15.262,6.737C12.345,1.685 7.27,-1.354 1.868,-1.908C3.001,0.569 3.649,3.312 3.649,6.21C3.649,9.185 2.963,11.997 1.772,14.525C1.441,15.227 1.072,15.905 0.664,16.559C-1.713,20.362 -5.349,23.291 -9.665,24.76C-11.074,25.239 -12.549,25.573 -14.081,25.719C-14.024,25.798 -13.959,25.868 -13.902,25.945C-10.973,29.874 -6.614,32.266 -1.979,32.829C-1.249,32.918 -0.513,32.972 0.225,32.972M-47.964,22.648C-46.357,20.396 -44.289,18.482 -41.821,17.057C-39.288,15.594 -36.518,14.755 -33.687,14.515C-33.133,14.468 -32.579,14.443 -32.022,14.443C-31.808,14.443 -31.593,14.447 -31.378,14.455C-29.897,14.506 -28.412,14.706 -26.945,15.099C-23.991,15.891 -21.333,17.342 -19.102,19.303C-17.972,20.295 -16.944,21.408 -16.06,22.653C-16.02,22.567 -15.992,22.477 -15.955,22.389C-14.399,18.789 -14.089,14.802 -15.12,10.957C-15.337,10.146 -15.627,9.369 -15.95,8.61C-16.298,7.792 -16.688,6.997 -17.152,6.249C-18.652,3.827 -20.735,1.797 -23.271,0.333C-25.791,-1.122 -28.57,-1.902 -31.396,-2C-31.594,-2.006 -31.792,-2.019 -31.991,-2.019C-32.584,-2.019 -33.178,-1.979 -33.772,-1.918C-34.701,-1.823 -35.628,-1.662 -36.548,-1.415C-41.063,-0.206 -44.835,2.689 -47.171,6.737C-49.509,10.784 -50.129,15.499 -48.919,20.013C-48.674,20.927 -48.343,21.801 -47.964,22.648M-14.183,23.616C-14.089,23.606 -14,23.586 -13.906,23.575C-9.03,23.003 -4.772,20.416 -1.965,16.673C-1.44,15.973 -0.954,15.244 -0.538,14.468C0.787,12.007 1.542,9.195 1.542,6.21C1.542,3.248 0.796,0.458 -0.509,-1.989C-0.885,-2.695 -1.316,-3.364 -1.782,-4.008C-4.962,-8.407 -10.123,-11.286 -15.955,-11.286C-21.783,-11.286 -26.94,-8.411 -30.122,-4.017C-27.371,-3.75 -24.683,-2.916 -22.218,-1.493C-19.684,-0.03 -17.572,1.949 -15.949,4.281C-15.509,4.913 -15.105,5.568 -14.742,6.25C-14.046,7.558 -13.477,8.944 -13.084,10.411C-12.292,13.365 -12.22,16.393 -12.803,19.307C-13.097,20.781 -13.547,22.227 -14.183,23.616M-15.955,-13.394C-8.923,-13.394 -2.762,-9.66 0.698,-4.084C7.257,-3.876 13.572,-0.408 17.088,5.683C20.604,11.772 20.45,18.975 17.351,24.76C20.45,30.545 20.604,37.748 17.088,43.837C13.571,49.929 7.253,53.41 0.69,53.615C-2.771,59.185 -8.928,62.914 -15.955,62.914C-22.977,62.914 -29.13,59.191 -32.592,53.627C-34.096,53.581 -35.604,53.369 -37.094,52.971C-42.152,51.615 -46.379,48.372 -48.997,43.837C-51.615,39.302 -52.311,34.02 -50.955,28.961C-50.558,27.479 -49.981,26.08 -49.274,24.76C-49.981,23.44 -50.558,22.041 -50.955,20.559C-52.311,15.5 -51.615,10.218 -48.997,5.683C-46.379,1.148 -42.152,-2.096 -37.094,-3.451C-35.606,-3.85 -34.1,-4.049 -32.599,-4.097C-29.138,-9.667 -22.981,-13.394 -15.955,-13.394" style="fill:rgb(51,51,51);fill-rule:nonzero;"/>
            </g>
        </g>
        <g transform="matrix(1,0,0,1,895.226,0)">
            <g transform="matrix(1,0,0,1,295.696,227.355)">
                <path d="M0,-15.316C2.534,-13.853 4.646,-11.874 6.269,-9.542C6.708,-8.91 7.112,-8.255 7.476,-7.573C8.171,-6.265 8.741,-4.879 9.134,-3.412C9.926,-0.458 9.998,2.57 9.415,5.484C9.121,6.958 8.671,8.404 8.035,9.793C8.128,9.784 8.218,9.763 8.312,9.752C13.188,9.18 17.446,6.593 20.252,2.85C20.777,2.15 21.264,1.421 21.68,0.645C23.004,-1.816 23.76,-4.628 23.76,-7.613C23.76,-10.575 23.014,-13.364 21.709,-15.812C21.333,-16.518 20.902,-17.187 20.436,-17.831C17.255,-22.23 12.095,-25.109 6.263,-25.109C0.435,-25.109 -4.722,-22.234 -7.904,-17.839C-5.153,-17.573 -2.465,-16.739 0,-15.316" style="fill:rgb(77,77,77);fill-rule:nonzero;"/>
            </g>
        </g>
        <g transform="matrix(1,0,0,1,895.226,0)">
            <g transform="matrix(1,0,0,1,295.696,227.355)">
                <path d="M0,-15.316C2.534,-13.853 4.646,-11.874 6.269,-9.542C6.708,-8.91 7.112,-8.255 7.476,-7.573C8.171,-6.265 8.741,-4.879 9.134,-3.412C9.926,-0.458 9.998,2.57 9.415,5.484C9.121,6.958 8.671,8.404 8.035,9.793C8.128,9.784 8.218,9.763 8.312,9.752C13.188,9.18 17.446,6.593 20.252,2.85C20.777,2.15 21.264,1.421 21.68,0.645C23.004,-1.816 23.76,-4.628 23.76,-7.613C23.76,-10.575 23.014,-13.364 21.709,-15.812C21.333,-16.518 20.902,-17.187 20.436,-17.831C17.255,-22.23 12.095,-25.109 6.263,-25.109C0.435,-25.109 -4.722,-22.234 -7.904,-17.839C-5.153,-17.573 -2.465,-16.739 0,-15.316" style="fill:rgb(77,77,77);fill-rule:nonzero;"/>
            </g>
        </g>
        <g transform="matrix(1,0,0,1,895.226,0)">
            <g transform="matrix(1,0,0,1,276.093,217.109)">
                <path d="M0,13.48C2.534,12.017 5.304,11.178 8.135,10.938C8.901,10.873 9.67,10.851 10.443,10.877C11.924,10.929 13.409,11.129 14.876,11.522C17.83,12.313 20.488,13.765 22.72,15.726C23.849,16.718 24.877,17.831 25.762,19.076C25.801,18.99 25.829,18.899 25.867,18.812C27.422,15.212 27.732,11.225 26.701,7.379C26.484,6.569 26.194,5.792 25.872,5.033C25.523,4.215 25.133,3.42 24.669,2.671C23.169,0.25 21.086,-1.78 18.55,-3.244C16.03,-4.699 13.251,-5.479 10.426,-5.577C10.227,-5.583 10.029,-5.596 9.83,-5.596C9.237,-5.596 8.643,-5.556 8.049,-5.495C7.121,-5.4 6.193,-5.239 5.273,-4.992C0.759,-3.783 -3.014,-0.888 -5.35,3.16C-7.687,7.207 -8.308,11.922 -7.098,16.436C-6.853,17.35 -6.521,18.224 -6.143,19.071C-4.536,16.819 -2.468,14.905 0,13.48" style="fill:rgb(77,77,77);fill-rule:nonzero;"/>
            </g>
        </g>
        <g transform="matrix(1,0,0,1,895.226,0)">
            <g opacity="0.3">
                <g transform="matrix(1,0,0,1,301.697,211.458)">
                    <path d="M0,13.981C-0.442,13.981 -0.846,13.686 -0.965,13.239C-1.13,12.623 -1.369,11.951 -1.695,11.185C-1.951,10.585 -2.313,9.908 -2.803,9.116C-4.018,7.155 -5.897,5.404 -8.238,4.053C-10.376,2.818 -12.805,2.121 -15.263,2.036L-15.444,2.029C-16.014,2.005 -16.604,2.034 -17.316,2.106C-18.153,2.192 -18.962,2.338 -19.719,2.541C-23.623,3.587 -26.885,6.091 -28.905,9.59C-29.182,10.068 -29.793,10.232 -30.271,9.957C-30.749,9.68 -30.913,9.069 -30.637,8.59C-28.35,4.628 -24.656,1.794 -20.236,0.609C-19.377,0.379 -18.463,0.213 -17.521,0.117C-16.708,0.033 -16.027,0 -15.356,0.031L-15.193,0.037C-12.41,0.133 -9.659,0.923 -7.238,2.32C-4.613,3.836 -2.491,5.822 -1.103,8.064C-0.559,8.942 -0.15,9.708 0.145,10.402C0.508,11.255 0.777,12.014 0.966,12.722C1.109,13.255 0.792,13.804 0.259,13.946C0.172,13.97 0.085,13.981 0,13.981" style="fill:white;fill-rule:nonzero;"/>
                </g>
            </g>
        </g>
        <g transform="matrix(1,0,0,1,895.226,0)">
            <g transform="matrix(1,0,0,1,284.227,246.483)">
                <path d="M0,2.057C0.331,1.352 0.702,0.671 1.112,0.015C3.489,-3.791 7.125,-6.722 11.442,-8.191C12.852,-8.67 14.327,-9.004 15.859,-9.15C15.803,-9.228 15.737,-9.298 15.68,-9.376C13.34,-12.523 10.042,-14.785 6.196,-15.816C5.381,-16.034 4.559,-16.188 3.736,-16.287C3.037,-16.372 2.337,-16.419 1.639,-16.419C1.462,-16.419 1.285,-16.407 1.108,-16.402C-1.741,-16.314 -4.542,-15.533 -7.08,-14.068C-9.603,-12.611 -11.678,-10.595 -13.176,-8.191C-13.594,-7.519 -13.951,-6.808 -14.276,-6.079C-14.655,-5.232 -14.987,-4.358 -15.231,-3.443C-16.441,1.071 -15.821,5.786 -13.484,9.833C-11.147,13.879 -7.375,16.775 -2.86,17.984C-1.943,18.23 -1.017,18.381 -0.09,18.476C-1.223,15.999 -1.871,13.257 -1.871,10.36C-1.871,7.39 -1.187,4.582 0,2.057" style="fill:rgb(77,77,77);fill-rule:nonzero;"/>
            </g>
        </g>
        <g transform="matrix(1,0,0,1,895.226,0)">
            <g opacity="0.3">
                <g transform="matrix(1,0,0,1,271.579,230.12)">
                    <path d="M0,26.651C-0.346,26.651 -0.682,26.472 -0.867,26.151C-3.193,22.124 -3.811,17.431 -2.606,12.937C-2.382,12.1 -2.072,11.242 -1.658,10.315C-1.296,9.505 -0.937,8.817 -0.561,8.214C0.934,5.815 3.032,3.792 5.507,2.363C7.987,0.931 10.806,0.127 13.657,0.04L13.815,0.033C14.608,0 15.423,0.05 16.274,0.154C17.115,0.255 17.938,0.413 18.721,0.623C19.254,0.766 19.571,1.315 19.428,1.848C19.285,2.381 18.737,2.701 18.203,2.555C17.511,2.369 16.781,2.23 16.034,2.139C15.292,2.049 14.585,2.001 13.904,2.031L13.72,2.039C11.196,2.116 8.702,2.827 6.507,4.095C4.315,5.36 2.458,7.15 1.137,9.271C0.81,9.797 0.493,10.405 0.168,11.131C-0.202,11.961 -0.478,12.72 -0.675,13.455C-1.741,17.432 -1.194,21.586 0.865,25.151C1.141,25.629 0.978,26.241 0.499,26.517C0.342,26.608 0.169,26.651 0,26.651" style="fill:white;fill-rule:nonzero;"/>
                </g>
            </g>
        </g>
        <g transform="matrix(1,0,0,1,895.226,0)">
            <g transform="matrix(1,0,0,1,316.127,246.707)">
                <path d="M0,20.361C-2.707,20.102 -5.401,19.283 -7.905,17.838C-10.436,16.377 -12.545,14.401 -14.168,12.073C-14.606,11.444 -15.01,10.79 -15.373,10.11C-16.072,8.798 -16.645,7.406 -17.039,5.934C-17.828,2.987 -17.901,-0.033 -17.324,-2.94C-17.03,-4.421 -16.579,-5.875 -15.939,-7.271C-16.035,-7.262 -16.126,-7.241 -16.221,-7.229C-21.087,-6.657 -25.337,-4.078 -28.144,-0.346C-28.676,0.362 -29.168,1.102 -29.59,1.888C-30.911,4.347 -31.664,7.154 -31.664,10.135C-31.664,13.105 -30.916,15.9 -29.605,18.352C-29.228,19.058 -28.794,19.727 -28.327,20.371C-25.146,24.76 -19.992,27.632 -14.168,27.632C-8.339,27.632 -3.182,24.756 0,20.361" style="fill:rgb(77,77,77);fill-rule:nonzero;"/>
            </g>
        </g>
        <g transform="matrix(1,0,0,1,895.226,0)">
            <g opacity="0.3">
                <g transform="matrix(1,0,0,1,301.855,245.888)">
                    <path d="M0,28.359C-5.542,28.359 -10.807,25.66 -14.083,21.14C-14.589,20.443 -15.005,19.786 -15.354,19.131C-16.694,16.625 -17.402,13.798 -17.402,10.957C-17.402,8.103 -16.688,5.265 -15.339,2.752C-14.948,2.025 -14.478,1.297 -13.901,0.53C-13.57,0.089 -12.942,0 -12.501,0.332C-12.06,0.663 -11.971,1.29 -12.303,1.732C-12.818,2.418 -13.235,3.061 -13.577,3.698C-14.771,5.922 -15.402,8.432 -15.402,10.957C-15.402,13.471 -14.775,15.971 -13.59,18.189C-13.284,18.762 -12.916,19.343 -12.464,19.966C-9.563,23.969 -4.903,26.359 0,26.359C0.552,26.359 1,26.807 1,27.359C1,27.911 0.552,28.359 0,28.359" style="fill:white;fill-rule:nonzero;"/>
                </g>
            </g>
        </g>
        <g transform="matrix(1,0,0,1,895.226,0)">
            <g transform="matrix(1,0,0,1,333.96,265.058)">
                <path d="M0,-24.656C-1.578,-22.44 -3.627,-20.51 -6.133,-19.063C-8.708,-17.577 -11.484,-16.752 -14.267,-16.518C-14.812,-16.472 -15.357,-16.441 -15.901,-16.441C-16.127,-16.441 -16.352,-16.455 -16.578,-16.463C-21.056,-16.617 -25.415,-18.295 -28.844,-21.291C-29.972,-22.276 -30.994,-23.407 -31.892,-24.669C-31.933,-24.579 -31.961,-24.486 -32,-24.396C-33.556,-20.796 -33.866,-16.808 -32.835,-12.963C-32.617,-12.148 -32.325,-11.367 -32,-10.605C-31.651,-9.786 -31.26,-8.99 -30.796,-8.241C-29.296,-5.825 -27.216,-3.801 -24.684,-2.34C-22.118,-0.857 -19.328,-0.108 -16.555,-0.014C-15.757,0.013 -14.963,-0.026 -14.173,-0.107C-8.772,-0.662 -3.699,-3.692 -0.783,-8.742C2.132,-13.793 2.219,-19.701 0,-24.656" style="fill:rgb(77,77,77);fill-rule:nonzero;"/>
            </g>
        </g>
        <g transform="matrix(1,0,0,1,895.226,0)">
            <g opacity="0.3">
                <g transform="matrix(1,0,0,1,317.922,251.03)">
                    <path d="M0,14.085C-0.17,14.085 -0.338,14.082 -0.505,14.077C-3.304,13.981 -6.062,13.192 -8.482,11.794C-11.298,10.169 -13.317,8.331 -14.656,6.173C-15.167,5.351 -15.582,4.421 -15.849,3.793C-16.218,2.926 -16.496,1.997 -16.664,1.371C-16.807,0.837 -16.49,0.289 -15.957,0.147C-15.422,0 -14.875,0.32 -14.732,0.854C-14.519,1.65 -14.262,2.416 -14.009,3.009C-13.767,3.577 -13.396,4.413 -12.957,5.119C-11.796,6.989 -10.005,8.606 -7.482,10.062C-5.345,11.297 -2.909,11.994 -0.438,12.078C0.204,12.099 0.88,12.072 1.627,11.997C6.478,11.498 10.818,8.7 13.236,4.512C13.512,4.034 14.123,3.87 14.602,4.146C15.081,4.422 15.244,5.034 14.968,5.512C12.23,10.254 7.319,13.422 1.832,13.986C1.184,14.052 0.58,14.085 0,14.085" style="fill:white;fill-rule:nonzero;"/>
                </g>
            </g>
        </g>
        <g transform="matrix(1,0,0,1,895.226,0)">
            <g transform="matrix(1,0,0,1,333.176,237.879)">
                <path d="M0,-17.61C-2.917,-22.662 -7.992,-25.701 -13.395,-26.255C-12.261,-23.777 -11.613,-21.034 -11.613,-18.137C-11.613,-15.162 -12.299,-12.35 -13.49,-9.821C-13.821,-9.12 -14.19,-8.442 -14.598,-7.788C-16.976,-3.985 -20.611,-1.055 -24.927,0.413C-26.336,0.892 -27.811,1.226 -29.343,1.372C-29.286,1.451 -29.222,1.521 -29.164,1.598C-26.235,5.527 -21.876,7.919 -17.241,8.482C-16.365,8.589 -15.483,8.645 -14.596,8.619C-11.802,8.535 -8.99,7.783 -6.404,6.29C-3.838,4.808 -1.795,2.767 -0.328,0.413C0.095,-0.265 0.458,-0.972 0.783,-1.697C3.002,-6.652 2.916,-12.56 0,-17.61" style="fill:rgb(77,77,77);fill-rule:nonzero;"/>
            </g>
        </g>
        <g transform="matrix(1,0,0,1,895.226,0)">
            <g opacity="0.3">
                <g transform="matrix(1,0,0,1,318.229,219.67)">
                    <path d="M0,26.757C-0.686,26.757 -1.405,26.71 -2.184,26.615C-2.732,26.549 -3.122,26.05 -3.055,25.502C-2.988,24.953 -2.489,24.568 -1.941,24.63C-1.093,24.734 -0.331,24.772 0.389,24.751C2.917,24.675 5.412,23.965 7.604,22.7C9.777,21.445 11.628,19.655 12.957,17.524C13.304,16.967 13.624,16.359 13.935,15.664C15.961,11.14 15.704,5.899 13.247,1.643C12.971,1.164 13.135,0.553 13.613,0.277C14.092,0 14.703,0.164 14.979,0.643C17.756,5.453 18.048,11.374 15.76,16.481C15.412,17.26 15.05,17.947 14.654,18.581C13.152,20.991 11.061,23.014 8.604,24.432C6.126,25.862 3.306,26.664 0.449,26.75C0.301,26.755 0.151,26.757 0,26.757" style="fill:white;fill-rule:nonzero;"/>
                </g>
            </g>
        </g>
        <g transform="matrix(1,0,0,1,895.226,0)">
            <g transform="matrix(1,0,0,1,332.849,238.292)">
                <path d="M0,0C-1.467,2.354 -3.51,4.396 -6.076,5.877C-8.662,7.37 -11.475,8.122 -14.268,8.206C-15.155,8.232 -16.038,8.176 -16.913,8.069C-21.549,7.506 -25.907,5.114 -28.836,1.186C-28.894,1.108 -28.958,1.038 -29.015,0.959C-27.483,0.813 -26.009,0.479 -24.6,0C-20.283,-1.468 -16.648,-4.397 -14.271,-8.201C-13.862,-8.854 -13.493,-9.533 -13.163,-10.234C-11.971,-12.763 -11.286,-15.575 -11.286,-18.55C-11.286,-21.447 -11.934,-24.19 -13.067,-26.667C-7.665,-26.114 -2.589,-23.075 0.328,-18.023C3.243,-12.973 3.33,-7.064 1.111,-2.11C0.786,-1.385 0.423,-0.678 0,0M-30.89,-36.046C-25.058,-36.046 -19.897,-33.167 -16.716,-28.768C-16.25,-28.124 -15.819,-27.455 -15.443,-26.749C-14.139,-24.301 -13.393,-21.512 -13.393,-18.55C-13.393,-15.564 -14.148,-12.753 -15.472,-10.292C-15.889,-9.516 -16.375,-8.787 -16.9,-8.087C-19.707,-4.344 -23.964,-1.757 -28.841,-1.185C-28.934,-1.174 -29.024,-1.153 -29.118,-1.144C-28.481,-2.533 -28.032,-3.979 -27.737,-5.453C-27.155,-8.367 -27.227,-11.395 -28.019,-14.349C-28.412,-15.816 -28.981,-17.202 -29.677,-18.51C-30.04,-19.192 -30.444,-19.847 -30.883,-20.479C-32.507,-22.811 -34.619,-24.79 -37.152,-26.253C-39.618,-27.676 -42.306,-28.51 -45.056,-28.776C-41.875,-33.171 -36.717,-36.046 -30.89,-36.046M-62.106,-18.023C-59.77,-22.07 -55.997,-24.965 -51.482,-26.175C-50.563,-26.421 -49.635,-26.583 -48.707,-26.678C-48.113,-26.739 -47.519,-26.779 -46.926,-26.779C-46.727,-26.779 -46.529,-26.766 -46.33,-26.759C-43.504,-26.662 -40.726,-25.881 -38.206,-24.427C-35.669,-22.962 -33.586,-20.933 -32.086,-18.511C-31.623,-17.763 -31.232,-16.968 -30.884,-16.149C-30.562,-15.391 -30.272,-14.614 -30.055,-13.803C-29.024,-9.958 -29.333,-5.971 -30.889,-2.371C-30.927,-2.283 -30.955,-2.193 -30.994,-2.106C-31.879,-3.352 -32.907,-4.465 -34.036,-5.457C-36.268,-7.418 -38.926,-8.869 -41.88,-9.661C-43.347,-10.054 -44.832,-10.254 -46.313,-10.305C-47.085,-10.332 -47.854,-10.31 -48.621,-10.245C-51.452,-10.005 -54.222,-9.166 -56.756,-7.703C-59.224,-6.278 -61.292,-4.364 -62.898,-2.111C-63.277,-2.958 -63.609,-3.833 -63.854,-4.747C-65.063,-9.26 -64.443,-13.976 -62.106,-18.023M-51.482,26.174C-55.997,24.966 -59.77,22.07 -62.106,18.023C-64.443,13.976 -65.063,9.261 -63.854,4.747C-63.609,3.833 -63.277,2.959 -62.898,2.111C-62.573,1.383 -62.216,0.672 -61.798,0C-60.3,-2.405 -58.225,-4.42 -55.702,-5.877C-53.164,-7.343 -50.363,-8.124 -47.514,-8.211C-47.337,-8.217 -47.16,-8.229 -46.983,-8.229C-46.285,-8.229 -45.585,-8.182 -44.886,-8.097C-44.063,-7.997 -43.241,-7.843 -42.426,-7.625C-38.58,-6.594 -35.282,-4.333 -32.942,-1.186C-32.885,-1.108 -32.819,-1.038 -32.763,-0.959C-34.295,-0.813 -35.77,-0.479 -37.18,0C-41.498,1.469 -45.133,4.4 -47.51,8.206C-47.92,8.862 -48.291,9.543 -48.622,10.248C-49.81,12.773 -50.493,15.58 -50.493,18.55C-50.493,21.447 -49.845,24.19 -48.712,26.667C-49.639,26.571 -50.565,26.42 -51.482,26.174M-45.049,28.786C-45.516,28.142 -45.95,27.473 -46.327,26.767C-47.637,24.315 -48.385,21.52 -48.385,18.55C-48.385,15.569 -47.632,12.762 -46.312,10.303C-45.89,9.517 -45.398,8.777 -44.865,8.069C-42.059,4.337 -37.809,1.758 -32.942,1.186C-32.848,1.174 -32.756,1.153 -32.661,1.144C-33.301,2.54 -33.751,3.994 -34.045,5.475C-34.623,8.382 -34.55,11.402 -33.76,14.349C-33.366,15.821 -32.794,17.212 -32.094,18.525C-31.731,19.205 -31.328,19.858 -30.89,20.488C-29.267,22.816 -27.157,24.792 -24.626,26.252C-22.123,27.698 -19.428,28.517 -16.722,28.776C-19.903,33.171 -25.061,36.046 -30.89,36.046C-36.713,36.046 -41.867,33.175 -45.049,28.786M-13.063,26.659C-13.852,26.74 -14.646,26.779 -15.444,26.752C-18.217,26.658 -21.007,25.909 -23.573,24.426C-26.105,22.965 -28.186,20.94 -29.685,18.525C-30.149,17.776 -30.541,16.98 -30.89,16.161C-31.214,15.398 -31.506,14.618 -31.725,13.803C-32.755,9.958 -32.445,5.97 -30.889,2.37C-30.851,2.28 -30.822,2.187 -30.781,2.097C-29.883,3.358 -28.861,4.49 -27.733,5.475C-24.304,8.471 -19.945,10.148 -15.467,10.303C-15.241,10.311 -15.017,10.325 -14.791,10.325C-14.247,10.325 -13.701,10.293 -13.156,10.248C-10.373,10.014 -7.597,9.189 -5.022,7.703C-2.517,6.256 -0.467,4.326 1.111,2.11C3.33,7.064 3.243,12.973 0.328,18.023C-2.588,23.074 -7.662,26.104 -13.063,26.659M2.153,-19.077C-1.363,-25.167 -7.677,-28.635 -14.237,-28.843C-17.697,-34.42 -23.858,-38.154 -30.89,-38.154C-37.916,-38.154 -44.072,-34.426 -47.534,-28.856C-49.035,-28.809 -50.541,-28.609 -52.028,-28.211C-57.086,-26.855 -61.313,-23.612 -63.932,-19.077C-66.55,-14.542 -67.246,-9.259 -65.89,-4.201C-65.493,-2.719 -64.916,-1.32 -64.209,0C-64.916,1.32 -65.493,2.719 -65.89,4.201C-67.246,9.26 -66.55,14.542 -63.932,19.077C-61.313,23.612 -57.086,26.855 -52.028,28.211C-50.539,28.609 -49.031,28.821 -47.527,28.868C-44.064,34.431 -37.911,38.154 -30.89,38.154C-23.863,38.154 -17.706,34.425 -14.244,28.855C-7.681,28.65 -1.364,25.169 2.153,19.077C5.669,12.988 5.516,5.785 2.416,0C5.516,-5.785 5.669,-12.987 2.153,-19.077" style="fill:rgb(51,51,51);fill-rule:nonzero;"/>
            </g>
        </g>
        <g transform="matrix(1,0,0,1,895.226,0)">
            <g opacity="0.3">
                <g transform="matrix(1,0,0,1,315.197,202.309)">
                    <path d="M0,28.256C-0.208,28.256 -0.419,28.191 -0.599,28.056C-1.041,27.725 -1.13,27.098 -0.799,26.656C-0.289,25.976 0.124,25.339 0.461,24.712C1.661,22.482 2.294,19.964 2.294,17.43C2.294,14.919 1.669,12.42 0.486,10.2C0.176,9.619 -0.191,9.037 -0.637,8.421C-3.544,4.4 -8.217,2 -13.137,2C-13.689,2 -14.137,1.552 -14.137,1C-14.137,0.447 -13.689,0 -13.137,0C-7.577,0 -2.298,2.71 0.984,7.249C1.483,7.939 1.898,8.597 2.251,9.26C3.588,11.767 4.294,14.592 4.294,17.43C4.294,20.294 3.578,23.139 2.223,25.659C1.836,26.376 1.372,27.094 0.801,27.856C0.604,28.118 0.304,28.256 0,28.256" style="fill:white;fill-rule:nonzero;"/>
                </g>
            </g>
        </g>
        <g transform="matrix(1,0,0,1,895.226,0)">
            <g opacity="0.3">
                <g transform="matrix(0,-1,-1,0,299.087,202.513)">
                    <path d="M-0.998,-0.999C-1.55,-0.999 -1.997,-0.552 -1.997,-0.001C-1.997,0.551 -1.55,0.998 -0.998,0.998C-0.447,0.998 0,0.551 0,-0.001C0,-0.552 -0.447,-0.999 -0.998,-0.999" style="fill:white;fill-rule:nonzero;"/>
                </g>
            </g>
        </g>
        <g transform="matrix(1,0,0,1,895.226,0)">
            <g opacity="0.3">
                <g transform="matrix(0,-1,-1,0,330.58,217.249)">
                    <path d="M-0.998,-0.999C-1.549,-0.999 -1.997,-0.552 -1.997,0C-1.997,0.551 -1.549,0.998 -0.998,0.998C-0.447,0.998 0,0.551 0,0C0,-0.552 -0.447,-0.999 -0.998,-0.999" style="fill:white;fill-rule:nonzero;"/>
                </g>
            </g>
        </g>
        <g transform="matrix(1,0,0,1,895.226,0)">
            <g opacity="0.3">
                <g transform="matrix(0,-1,-1,0,333.531,252.143)">
                    <path d="M-0.998,-0.998C-1.55,-0.998 -1.998,-0.551 -1.998,0.001C-1.998,0.552 -1.55,0.998 -0.998,0.998C-0.447,0.998 0.001,0.552 0.001,0.001C0.001,-0.551 -0.447,-0.998 -0.998,-0.998" style="fill:white;fill-rule:nonzero;"/>
                </g>
            </g>
        </g>
        <g transform="matrix(1,0,0,1,895.226,0)">
            <g opacity="0.3">
                <g transform="matrix(0,-1,-1,0,304.831,272.007)">
                    <path d="M-0.998,-0.999C-1.55,-0.999 -1.997,-0.552 -1.997,0C-1.997,0.551 -1.55,0.998 -0.998,0.998C-0.447,0.998 0,0.551 0,0C0,-0.552 -0.447,-0.999 -0.998,-0.999" style="fill:white;fill-rule:nonzero;"/>
                </g>
            </g>
        </g>
        <g transform="matrix(1,0,0,1,895.226,0)">
            <g opacity="0.3">
                <g transform="matrix(0,-1,-1,0,273.39,257.131)">
                    <path d="M-0.998,-0.999C-1.549,-0.999 -1.997,-0.552 -1.997,0C-1.997,0.551 -1.549,0.998 -0.998,0.998C-0.447,0.998 0,0.551 0,0C0,-0.552 -0.447,-0.999 -0.998,-0.999" style="fill:white;fill-rule:nonzero;"/>
                </g>
            </g>
        </g>
        <g transform="matrix(1,0,0,1,895.226,0)">
            <g opacity="0.3">
                <g transform="matrix(0,-1,-1,0,270.369,222.442)">
                    <path d="M-0.998,-0.999C-1.549,-0.999 -1.997,-0.552 -1.997,0C-1.997,0.551 -1.549,0.998 -0.998,0.998C-0.447,0.998 0,0.551 0,0C0,-0.552 -0.447,-0.999 -0.998,-0.999" style="fill:white;fill-rule:nonzero;"/>
                </g>
            </g>
        </g>
        <g transform="matrix(1,0,0,1,895.226,0)">
            <g opacity="0.4">
                <g transform="matrix(1,0,0,1,313.983,225.14)">
                    <path d="M0,0C0,6.785 -5.5,12.285 -12.285,12.285C-12.285,12.285 -9.916,10.87 -9.916,0C-9.916,-4.892 -17.573,-11.092 -17.573,-11.092C-15.972,-11.857 -14.178,-12.285 -12.285,-12.285C-5.5,-12.285 0,-6.785 0,0" style="fill:rgb(51,51,51);fill-rule:nonzero;"/>
                </g>
            </g>
        </g>
        <g transform="matrix(1,0,0,1,895.226,0)">
            <g opacity="0.4">
                <g transform="matrix(1,0,0,1,296.052,234.904)">
                    <path d="M0,-13.426C5.981,-10.224 8.234,-2.779 5.032,3.203C5.032,3.203 4.903,0.446 -4.68,-4.684C-8.993,-6.993 -18.073,-3.169 -18.073,-3.169C-17.992,-4.942 -17.522,-6.725 -16.629,-8.394C-13.427,-14.375 -5.982,-16.629 0,-13.426" style="fill:rgb(51,51,51);fill-rule:nonzero;"/>
                </g>
            </g>
        </g>
        <g transform="matrix(1,0,0,1,895.226,0)">
            <g opacity="0.4">
                <g transform="matrix(1,0,0,1,284.468,252.39)">
                    <path d="M0,-17.19C5.757,-20.78 13.334,-19.024 16.925,-13.267C16.925,-13.267 14.471,-14.528 5.247,-8.776C1.096,-6.188 -0.113,3.59 -0.113,3.59C-1.609,2.636 -2.922,1.341 -3.924,-0.265C-7.514,-6.023 -5.757,-13.6 0,-17.19" style="fill:rgb(51,51,51);fill-rule:nonzero;"/>
                </g>
            </g>
        </g>
        <g transform="matrix(1,0,0,1,895.226,0)">
            <g opacity="0.4">
                <g transform="matrix(1,0,0,1,319.354,224.429)">
                    <path d="M0,17.337C-5.852,20.77 -13.379,18.809 -16.812,12.957C-16.812,12.957 -14.393,14.284 -5.017,8.784C-0.798,6.309 0.676,-3.433 0.676,-3.433C2.146,-2.438 3.423,-1.108 4.381,0.525C7.813,6.377 5.853,13.904 0,17.337" style="fill:rgb(51,51,51);fill-rule:nonzero;"/>
                </g>
            </g>
        </g>
        <g transform="matrix(1,0,0,1,895.226,0)">
            <g opacity="0.4">
                <g transform="matrix(1,0,0,1,307.601,241.685)">
                    <path d="M0,13.397C-5.896,10.039 -7.953,2.537 -4.594,-3.358C-4.594,-3.358 -4.538,-0.599 4.908,4.781C9.158,7.202 18.335,3.617 18.335,3.617C18.208,5.387 17.692,7.157 16.755,8.802C13.397,14.698 5.896,16.755 0,13.397" style="fill:rgb(51,51,51);fill-rule:nonzero;"/>
                </g>
            </g>
        </g>
        <g transform="matrix(1,0,0,1,895.226,0)">
            <g opacity="0.4">
                <g transform="matrix(1,0,0,1,290.06,251.763)">
                    <path d="M0,-1.087C0.375,-7.861 6.17,-13.049 12.945,-12.675C12.945,-12.675 10.501,-11.393 9.9,-0.54C9.63,4.345 16.934,10.958 16.934,10.958C15.292,11.634 13.478,11.962 11.587,11.858C4.813,11.483 -0.375,5.687 0,-1.087" style="fill:rgb(51,51,51);fill-rule:nonzero;"/>
                </g>
            </g>
        </g>
    </g>
</svg>
