<?xml version="1.0" encoding="UTF-8" standalone="no"?>
<!DOCTYPE svg PUBLIC "-//W3C//DTD SVG 1.1//EN" "http://www.w3.org/Graphics/SVG/1.1/DTD/svg11.dtd">
<svg width="100%" height="100%" viewBox="0 0 80 79" version="1.1" xmlns="http://www.w3.org/2000/svg" xmlns:xlink="http://www.w3.org/1999/xlink" xml:space="preserve" xmlns:serif="http://www.serif.com/" style="fill-rule:evenodd;clip-rule:evenodd;stroke-linejoin:round;stroke-miterlimit:2;">
    <g transform="matrix(1,0,0,1,-937.425,-299.666)">
        <g transform="matrix(1,0,0,1,895.226,0)">
            <g transform="matrix(1,0,0,1,84.9611,306.717)">
                <path d="M0,64.484C-0.614,64.27 -1.25,63.992 -1.995,63.61C-5.003,62.072 -7.373,59.658 -8.849,56.631C-9.244,55.822 -9.578,54.935 -9.843,53.996C-10.022,53.358 -10.16,52.72 -10.253,52.099C-10.623,49.623 -10.394,47.16 -9.574,44.78C-9.022,43.175 -8.197,41.663 -7.122,40.285C-6.894,39.992 -6.656,39.709 -6.409,39.435C-6.33,40.188 -6.211,40.936 -6.052,41.677C-5.77,42.997 -5.363,44.291 -4.843,45.523C-4.334,46.729 -3.782,47.795 -3.155,48.779C-1.159,51.913 1.632,54.491 4.916,56.235C5.579,56.588 6.296,56.918 7.046,57.216C8.228,57.687 9.326,58.032 10.403,58.271C11.955,58.616 13.543,58.791 15.122,58.791C16.045,58.791 16.965,58.73 17.878,58.61C16.38,60.806 14.335,62.584 11.895,63.773C9.751,64.819 7.471,65.349 5.119,65.349C3.441,65.349 1.771,65.074 0.156,64.531C0.103,64.513 0.051,64.498 0,64.484M-11.065,65.421C-13.37,65.421 -15.608,64.911 -17.718,63.904C-21.404,62.146 -24.206,59.052 -25.607,55.194C-25.857,54.506 -26.061,53.765 -26.229,52.926C-26.896,49.603 -26.486,46.248 -25.043,43.222C-24.657,42.414 -24.186,41.628 -23.602,40.819C-23.183,40.239 -22.779,39.744 -22.369,39.306C-19.493,36.235 -15.407,34.45 -11.159,34.41L-11.008,34.409C-10.696,34.409 -10.385,34.418 -10.075,34.436C-10.611,34.963 -11.12,35.52 -11.598,36.102C-12.451,37.141 -13.208,38.259 -13.846,39.426C-14.476,40.579 -14.969,41.679 -15.351,42.791C-16.562,46.303 -16.842,50.092 -16.163,53.748C-16.026,54.487 -15.838,55.254 -15.605,56.026C-15.238,57.245 -14.825,58.319 -14.341,59.31C-13.23,61.588 -11.734,63.637 -9.927,65.379C-10.305,65.407 -10.685,65.421 -11.065,65.421M11.422,43.083C14.381,43.083 17.265,42.479 19.994,41.291C20.729,40.97 21.435,40.617 22.093,40.24C23.126,39.648 24.102,38.983 24.993,38.261C26.959,36.669 28.619,34.746 29.909,32.584C30.7,35.13 30.82,37.85 30.229,40.518C29.341,44.523 26.951,47.956 23.5,50.185C23.458,50.213 23.417,50.241 23.376,50.27C22.827,50.618 22.21,50.943 21.445,51.29C19.418,52.208 17.274,52.673 15.073,52.673C13.955,52.673 12.828,52.549 11.724,52.306C10.847,52.111 9.945,51.821 9.045,51.443C8.434,51.187 7.849,50.897 7.304,50.583C5.136,49.33 3.351,47.619 1.999,45.496C1.088,44.066 0.419,42.481 0.009,40.785C-0.078,40.422 -0.152,40.058 -0.213,39.693C0.425,40.099 1.085,40.472 1.765,40.809C2.974,41.41 4.239,41.896 5.527,42.256C6.787,42.609 7.964,42.839 9.125,42.962C9.885,43.042 10.658,43.083 11.422,43.083M-32.549,47.824C-34.362,45.866 -35.642,43.465 -36.255,40.808C-37.174,36.828 -36.496,32.709 -34.347,29.209C-33.968,28.59 -33.517,27.974 -32.969,27.324C-30.782,24.728 -27.898,22.957 -24.629,22.202C-23.751,22 -22.839,21.879 -21.841,21.834C-21.566,21.821 -21.293,21.814 -21.021,21.814C-20.631,21.814 -20.254,21.829 -19.901,21.857C-15.757,22.193 -11.848,24.241 -9.175,27.475C-8.912,27.794 -8.663,28.12 -8.428,28.455C-9.174,28.364 -9.922,28.312 -10.67,28.3C-10.786,28.298 -10.902,28.297 -11.018,28.297C-12.255,28.297 -13.493,28.403 -14.696,28.612C-19.59,29.459 -24.076,31.977 -27.327,35.705C-27.828,36.279 -28.316,36.908 -28.779,37.573C-29.507,38.622 -30.088,39.608 -30.557,40.59C-31.645,42.872 -32.315,45.319 -32.549,47.824M3.894,35.03C4.655,34.771 5.403,34.469 6.132,34.126C7.333,33.559 8.48,32.885 9.541,32.124C13.579,29.22 16.515,24.989 17.809,20.209C18.01,19.465 18.174,18.689 18.296,17.902C18.485,16.685 18.577,15.596 18.577,14.572C18.577,12.009 18.118,9.482 17.23,7.095C19.641,8.067 21.774,9.634 23.44,11.692C26.011,14.867 27.208,18.867 26.811,22.954C26.741,23.676 26.606,24.428 26.398,25.254C25.571,28.545 23.755,31.4 21.147,33.512C20.451,34.077 19.666,34.599 18.812,35.068C18.227,35.388 17.634,35.668 17.05,35.898C15.243,36.609 13.341,36.97 11.397,36.97C10.854,36.97 10.305,36.941 9.762,36.884C8.078,36.708 6.422,36.245 4.839,35.509C4.518,35.36 4.203,35.201 3.894,35.03M-19.286,6.162C-18.708,6.098 -18.122,6.066 -17.543,6.066C-17.483,6.066 -17.423,6.07 -17.363,6.074C-17.275,6.079 -17.187,6.084 -17.099,6.087C-13.731,6.182 -10.558,7.342 -7.92,9.441C-7.267,9.961 -6.636,10.566 -5.991,11.292C-5.504,11.839 -5.111,12.334 -4.789,12.803C-2.412,16.271 -1.549,20.642 -2.421,24.796C-2.508,25.208 -2.61,25.614 -2.729,26.014C-3.153,25.325 -3.616,24.659 -4.116,24.021C-4.943,22.965 -5.866,21.988 -6.858,21.115C-10.554,17.867 -15.281,15.956 -20.169,15.734C-20.476,15.719 -20.784,15.713 -21.093,15.713C-21.556,15.713 -22.035,15.728 -22.516,15.759C-23.794,15.841 -24.936,16.002 -26.004,16.249C-28.469,16.818 -30.803,17.818 -32.91,19.196C-32.504,16.559 -31.419,14.063 -29.718,11.924C-27.166,8.714 -23.513,6.675 -19.434,6.184C-19.385,6.178 -19.335,6.171 -19.286,6.162M-10.706,1.087C-8.392,-0.237 -5.769,-0.941 -3.046,-0.941C0.979,-0.941 4.801,0.61 7.717,3.427C8.255,3.947 8.778,4.538 9.273,5.185C11.363,7.921 12.468,11.167 12.468,14.572C12.468,15.405 12.388,16.273 12.222,17.226C12.097,17.949 11.955,18.564 11.788,19.111C10.554,23.132 7.67,26.531 3.874,28.435C3.498,28.624 3.116,28.796 2.729,28.953C3.009,28.18 3.244,27.393 3.434,26.593C3.741,25.294 3.93,23.97 3.993,22.657C4.235,17.687 2.75,12.754 -0.187,8.765C-0.642,8.148 -1.145,7.539 -1.683,6.955C-2.518,6.048 -3.313,5.297 -4.116,4.659C-6.096,3.085 -8.326,1.88 -10.706,1.087M-3.046,-7.051C-9.138,-7.051 -14.906,-4.489 -19.01,0.011C-19.368,0.032 -19.701,0.06 -20.023,0.096C-25.765,0.752 -30.905,3.601 -34.5,8.121C-38.096,12.641 -39.716,18.292 -39.062,24.03C-39.025,24.354 -38.979,24.685 -38.918,25.04C-42.378,30.05 -43.578,36.248 -42.208,42.183C-40.839,48.115 -37.04,53.158 -31.726,56.145C-29.963,61.985 -25.857,66.791 -20.35,69.418C-17.405,70.823 -14.278,71.535 -11.054,71.535C-8.598,71.535 -6.164,71.114 -3.822,70.285C-3.52,70.178 -3.212,70.059 -2.885,69.923C-2.556,70.056 -2.248,70.172 -1.946,70.276C0.343,71.064 2.716,71.464 5.109,71.464C8.396,71.464 11.581,70.725 14.573,69.266C20.048,66.596 24.108,61.764 25.825,55.922C26.137,55.746 26.424,55.574 26.701,55.397C31.572,52.295 34.943,47.48 36.193,41.84C37.444,36.203 36.424,30.415 33.32,25.542C33.145,25.266 32.957,24.988 32.748,24.696C33.661,18.675 32.022,12.581 28.189,7.847C24.396,3.163 18.83,0.298 12.809,-0.1C8.71,-4.529 2.981,-7.051 -3.046,-7.051M-4.427,35.146C-6.074,36.209 -7.509,37.529 -8.699,39.054C-9.877,40.565 -10.824,42.264 -11.465,44.129C-12.395,46.829 -12.641,49.649 -12.231,52.394C-12.124,53.116 -11.967,53.831 -11.768,54.539C-11.483,55.549 -11.117,56.544 -10.646,57.507C-8.967,60.954 -6.258,63.676 -2.905,65.391C-2.167,65.769 -1.407,66.115 -0.607,66.39C-0.566,66.405 -0.523,66.413 -0.481,66.426C1.351,67.043 3.238,67.349 5.119,67.349C7.739,67.349 10.347,66.754 12.771,65.571C17.062,63.479 20.109,59.852 21.589,55.673C19.509,56.408 17.329,56.791 15.122,56.791C13.696,56.791 12.261,56.634 10.835,56.318C9.782,56.085 8.77,55.751 7.786,55.359C7.124,55.094 6.479,54.8 5.854,54.468C2.9,52.9 0.378,50.602 -1.468,47.705C-2.072,46.755 -2.571,45.761 -3,44.746C-3.478,43.614 -3.842,42.449 -4.097,41.258C-4.453,39.594 -4.591,37.889 -4.5,36.172C-4.483,35.831 -4.463,35.488 -4.427,35.146M-11.065,67.421C-9.134,67.421 -7.196,67.097 -5.32,66.448C-8.406,64.522 -10.91,61.784 -12.544,58.433C-13.017,57.463 -13.385,56.463 -13.69,55.449C-13.896,54.767 -14.068,54.079 -14.197,53.382C-14.808,50.094 -14.579,46.69 -13.46,43.442C-13.092,42.373 -12.623,41.358 -12.091,40.385C-11.504,39.313 -10.821,38.307 -10.053,37.372C-8.975,36.06 -7.73,34.893 -6.335,33.897C-6.053,33.696 -5.769,33.496 -5.475,33.308C-7.295,32.696 -9.16,32.409 -11.008,32.409C-11.064,32.409 -11.122,32.409 -11.179,32.41C-15.933,32.455 -20.537,34.424 -23.829,37.939C-24.328,38.471 -24.788,39.047 -25.223,39.647C-25.832,40.491 -26.385,41.389 -26.848,42.361C-28.539,45.906 -28.909,49.737 -28.189,53.32C-28.015,54.189 -27.789,55.046 -27.487,55.877C-25.972,60.047 -22.891,63.652 -18.579,65.71C-16.191,66.848 -13.634,67.421 -11.065,67.421M11.422,41.083C10.729,41.083 10.032,41.047 9.333,40.972C8.215,40.855 7.127,40.628 6.065,40.331C4.883,40 3.744,39.559 2.654,39.018C1.133,38.262 -0.284,37.312 -1.569,36.177C-1.829,35.947 -2.088,35.715 -2.337,35.47C-2.53,37.423 -2.39,39.371 -1.935,41.254C-1.486,43.113 -0.746,44.91 0.312,46.57C1.846,48.978 3.9,50.926 6.304,52.315C6.936,52.679 7.593,53.003 8.271,53.287C9.239,53.694 10.245,54.027 11.292,54.258C12.55,54.537 13.816,54.673 15.073,54.673C17.553,54.673 19.996,54.141 22.271,53.111C23.03,52.767 23.776,52.387 24.493,51.931C24.524,51.91 24.554,51.885 24.585,51.865C28.479,49.35 31.177,45.481 32.182,40.951C33.185,36.422 32.376,31.774 29.91,27.849C28.756,31.213 26.696,34.308 23.735,36.707C22.898,37.383 22.015,37.98 21.099,38.505C20.48,38.859 19.844,39.174 19.195,39.457C16.753,40.521 14.12,41.083 11.422,41.083M-30.514,52.095C-30.917,48.565 -30.391,44.888 -28.752,41.452C-28.287,40.477 -27.733,39.574 -27.136,38.714C-26.725,38.122 -26.287,37.555 -25.82,37.02C-22.819,33.58 -18.744,31.341 -14.354,30.583C-13.257,30.392 -12.142,30.297 -11.018,30.297C-10.913,30.297 -10.807,30.298 -10.701,30.3C-9.039,30.327 -7.368,30.567 -5.721,31.033C-5.376,31.13 -5.031,31.226 -4.688,31.344C-5.381,29.433 -6.389,27.708 -7.633,26.202C-10.627,22.578 -14.993,20.248 -19.739,19.864C-20.164,19.829 -20.591,19.814 -21.021,19.814C-21.324,19.814 -21.627,19.822 -21.932,19.836C-22.975,19.882 -24.026,20.01 -25.079,20.254C-28.91,21.138 -32.141,23.237 -34.498,26.035C-35.065,26.709 -35.592,27.413 -36.051,28.162C-38.375,31.945 -39.279,36.601 -38.204,41.257C-37.127,45.922 -34.268,49.714 -30.514,52.095M11.397,38.97C13.604,38.97 15.761,38.554 17.783,37.759C18.464,37.491 19.128,37.176 19.774,36.821C20.692,36.318 21.576,35.739 22.406,35.067C25.462,32.592 27.446,29.289 28.338,25.741C28.553,24.887 28.717,24.022 28.802,23.147C29.231,18.729 28.002,14.147 24.995,10.433C22.025,6.767 17.866,4.626 13.516,4.091C15.444,7.128 16.577,10.716 16.577,14.572C16.577,15.602 16.474,16.607 16.32,17.594C16.209,18.305 16.063,19.003 15.878,19.686C14.683,24.101 11.992,27.897 8.373,30.5C7.404,31.197 6.37,31.802 5.28,32.316C3.712,33.055 2.036,33.59 0.276,33.892C-0.069,33.952 -0.414,34.011 -0.765,34.052C0.64,35.413 2.246,36.51 3.997,37.324C5.73,38.13 7.596,38.668 9.554,38.874C10.171,38.938 10.786,38.97 11.397,38.97M-34.987,23.451C-32.475,20.934 -29.267,19.054 -25.554,18.197C-24.495,17.953 -23.438,17.823 -22.388,17.755C-21.954,17.727 -21.522,17.713 -21.093,17.713C-20.814,17.713 -20.537,17.719 -20.26,17.732C-15.742,17.936 -11.493,19.704 -8.179,22.617C-7.273,23.414 -6.441,24.296 -5.69,25.255C-4.634,26.603 -3.747,28.1 -3.064,29.728C-2.924,30.061 -2.784,30.394 -2.662,30.738C-1.593,28.999 -0.868,27.128 -0.464,25.207C0.511,20.561 -0.417,15.645 -3.14,11.672C-3.548,11.077 -4.009,10.511 -4.496,9.963C-5.156,9.22 -5.872,8.514 -6.675,7.876C-9.671,5.493 -13.282,4.195 -17.041,4.087C-17.209,4.082 -17.375,4.066 -17.543,4.066C-18.213,4.066 -18.885,4.104 -19.561,4.18C-19.599,4.185 -19.635,4.194 -19.673,4.199C-24.275,4.754 -28.396,7.048 -31.283,10.679C-34.172,14.31 -35.482,18.842 -34.987,23.451M-0.924,31.945C1.102,31.699 3.018,31.102 4.771,30.222C9.016,28.093 12.287,24.303 13.7,19.697C13.911,19.005 14.067,18.293 14.192,17.569C14.362,16.593 14.468,15.595 14.468,14.572C14.468,10.586 13.114,6.917 10.861,3.97C10.324,3.267 9.742,2.602 9.106,1.989C5.954,-1.056 1.673,-2.941 -3.046,-2.941C-7.826,-2.941 -12.161,-1.012 -15.325,2.103C-11.712,2.514 -8.277,3.905 -5.361,6.224C-4.554,6.866 -3.832,7.573 -3.154,8.309C-2.669,8.837 -2.216,9.382 -1.798,9.951C0.916,13.635 2.212,18.106 1.996,22.56C1.937,23.759 1.767,24.953 1.487,26.131C1.09,27.809 0.469,29.445 -0.385,31.002C-0.559,31.319 -0.732,31.635 -0.924,31.945M-3.046,-5.051C2.925,-5.051 8.272,-2.362 11.875,1.859C17.422,2.002 22.877,4.465 26.635,9.106C30.427,13.789 31.697,19.703 30.631,25.201C30.981,25.658 31.32,26.126 31.634,26.617C34.449,31.038 35.376,36.291 34.241,41.407C33.106,46.525 30.046,50.895 25.626,53.711C25.135,54.024 24.63,54.305 24.12,54.571C22.762,60.005 19.112,64.827 13.697,67.468C10.976,68.795 8.051,69.464 5.109,69.464C2.959,69.464 0.799,69.106 -1.295,68.385C-1.842,68.197 -2.372,67.977 -2.895,67.746C-3.415,67.982 -3.944,68.207 -4.489,68.399C-6.632,69.158 -8.847,69.535 -11.054,69.535C-13.938,69.535 -16.809,68.891 -19.488,67.613C-24.934,65.015 -28.629,60.215 -30.03,54.786C-35.021,52.241 -38.904,47.606 -40.259,41.733C-41.615,35.861 -40.163,29.989 -36.795,25.514C-36.91,24.951 -37.009,24.381 -37.075,23.803C-37.669,18.595 -36.198,13.468 -32.935,9.366C-29.672,5.263 -25.007,2.677 -19.8,2.084C-19.222,2.019 -18.646,1.989 -18.071,1.973C-14.468,-2.316 -9.073,-5.051 -3.046,-5.051" style="fill:rgb(0,77,119);fill-rule:nonzero;"/>
            </g>
        </g>
        <g transform="matrix(1,0,0,1,895.226,0)">
            <g transform="matrix(1,0,0,1,79.5998,329.497)">
                <path d="M0,-16.556C0.807,-15.914 1.529,-15.207 2.207,-14.471C2.692,-13.944 3.145,-13.398 3.563,-12.829C6.277,-9.145 7.573,-4.674 7.357,-0.22C7.299,0.979 7.128,2.173 6.849,3.351C6.451,5.029 5.83,6.665 4.977,8.221C4.803,8.539 4.629,8.855 4.437,9.165C6.463,8.919 8.378,8.322 10.132,7.442C14.377,5.313 17.648,1.523 19.061,-3.083C19.272,-3.775 19.428,-4.488 19.554,-5.211C19.723,-6.187 19.83,-7.185 19.83,-8.208C19.83,-12.195 18.475,-15.864 16.223,-18.81C15.686,-19.513 15.103,-20.178 14.468,-20.791C11.315,-23.836 7.035,-25.721 2.315,-25.721C-2.465,-25.721 -6.8,-23.792 -9.963,-20.677C-6.351,-20.266 -2.916,-18.875 0,-16.556" style="fill:rgb(0,113,188);fill-rule:nonzero;"/>
            </g>
        </g>
        <g transform="matrix(1,0,0,1,895.226,0)">
            <g transform="matrix(1,0,0,1,62.5734,323.765)">
                <path d="M0,0.707C0.714,0.661 1.423,0.651 2.127,0.684C6.645,0.888 10.895,2.655 14.209,5.568C15.115,6.365 15.946,7.248 16.697,8.206C17.754,9.555 18.641,11.052 19.324,12.68C19.463,13.013 19.604,13.346 19.726,13.689C20.794,11.95 21.52,10.079 21.923,8.158C22.899,3.513 21.971,-1.403 19.248,-5.376C18.84,-5.972 18.379,-6.537 17.892,-7.086C17.232,-7.828 16.516,-8.534 15.712,-9.173C12.717,-11.556 9.105,-12.854 5.346,-12.962C5.179,-12.967 5.013,-12.982 4.844,-12.982C4.175,-12.982 3.502,-12.944 2.827,-12.868C2.789,-12.863 2.752,-12.855 2.715,-12.85C-1.887,-12.295 -6.008,-10 -8.896,-6.369C-11.784,-2.738 -13.094,1.794 -12.599,6.402C-10.087,3.886 -6.879,2.006 -3.167,1.148C-2.107,0.904 -1.051,0.774 0,0.707" style="fill:rgb(0,113,188);fill-rule:nonzero;"/>
            </g>
        </g>
        <g transform="matrix(1,0,0,1,895.226,0)">
            <g transform="matrix(1,0,0,1,56.2092,337.162)">
                <path d="M0,11.006C0.465,10.031 1.019,9.128 1.616,8.269C2.027,7.676 2.465,7.11 2.932,6.574C5.933,3.134 10.008,0.896 14.397,0.137C15.598,-0.071 16.82,-0.165 18.051,-0.145C19.713,-0.119 21.384,0.121 23.031,0.587C23.376,0.684 23.721,0.78 24.063,0.899C23.371,-1.013 22.363,-2.738 21.119,-4.244C18.125,-7.868 13.759,-10.198 9.013,-10.582C8.289,-10.64 7.557,-10.644 6.82,-10.61C5.777,-10.563 4.726,-10.435 3.673,-10.192C-0.158,-9.307 -3.389,-7.209 -5.746,-4.411C-6.313,-3.737 -6.84,-3.033 -7.299,-2.284C-9.623,1.499 -10.527,6.155 -9.452,10.812C-8.375,15.476 -5.516,19.269 -1.762,21.65C-2.166,18.119 -1.639,14.443 0,11.006" style="fill:rgb(0,113,188);fill-rule:nonzero;"/>
            </g>
        </g>
        <g transform="matrix(1,0,0,1,895.226,0)">
            <g transform="matrix(1,0,0,1,72.4172,348.636)">
                <path d="M0,16.514C-0.473,15.544 -0.841,14.543 -1.146,13.53C-1.352,12.848 -1.524,12.16 -1.653,11.463C-2.264,8.175 -2.035,4.771 -0.916,1.523C-0.548,0.453 -0.079,-0.561 0.453,-1.534C1.04,-2.606 1.723,-3.612 2.491,-4.548C3.569,-5.859 4.813,-7.026 6.208,-8.022C6.491,-8.223 6.775,-8.423 7.069,-8.611C5.193,-9.242 3.269,-9.528 1.365,-9.509C-3.389,-9.465 -7.993,-7.495 -11.285,-3.98C-11.784,-3.448 -12.245,-2.873 -12.679,-2.272C-13.288,-1.428 -13.841,-0.53 -14.304,0.442C-15.995,3.987 -16.365,7.818 -15.646,11.401C-15.471,12.27 -15.246,13.126 -14.943,13.957C-13.428,18.128 -10.347,21.733 -6.035,23.79C-1.852,25.785 2.852,26.042 7.224,24.529C4.138,22.603 1.634,19.865 0,16.514" style="fill:rgb(0,113,188);fill-rule:nonzero;"/>
            </g>
        </g>
        <g transform="matrix(1,0,0,1,895.226,0)">
            <g transform="matrix(1,0,0,1,106.55,354.091)">
                <path d="M0,8.299C-2.08,9.033 -4.259,9.416 -6.466,9.416C-7.893,9.416 -9.328,9.26 -10.753,8.944C-11.807,8.71 -12.819,8.376 -13.802,7.985C-14.464,7.72 -15.11,7.426 -15.734,7.094C-18.688,5.526 -21.21,3.228 -23.057,0.33C-23.661,-0.619 -24.16,-1.613 -24.588,-2.629C-25.066,-3.761 -25.43,-4.926 -25.685,-6.116C-26.042,-7.78 -26.179,-9.485 -26.089,-11.202C-26.071,-11.544 -26.051,-11.887 -26.015,-12.228C-27.663,-11.166 -29.098,-9.846 -30.287,-8.32C-31.465,-6.809 -32.412,-5.11 -33.054,-3.246C-33.983,-0.546 -34.229,2.275 -33.819,5.02C-33.712,5.741 -33.555,6.456 -33.356,7.164C-33.071,8.175 -32.705,9.169 -32.235,10.133C-30.555,13.579 -27.847,16.302 -24.494,18.017C-23.755,18.395 -22.995,18.74 -22.196,19.016C-22.154,19.03 -22.112,19.038 -22.07,19.052C-17.684,20.527 -12.982,20.229 -8.817,18.196C-4.527,16.105 -1.479,12.478 0,8.299" style="fill:rgb(0,113,188);fill-rule:nonzero;"/>
            </g>
        </g>
        <g transform="matrix(1,0,0,1,895.226,0)">
            <g transform="matrix(1,0,0,1,108.696,352.944)">
                <path d="M0,-9.521C-0.836,-8.844 -1.72,-8.248 -2.636,-7.723C-3.255,-7.369 -3.891,-7.053 -4.54,-6.771C-6.981,-5.707 -9.615,-5.145 -12.313,-5.145C-13.006,-5.145 -13.703,-5.181 -14.401,-5.255C-15.52,-5.373 -16.608,-5.6 -17.669,-5.897C-18.852,-6.228 -19.991,-6.668 -21.081,-7.209C-22.602,-7.965 -24.019,-8.916 -25.304,-10.05C-25.564,-10.281 -25.823,-10.512 -26.072,-10.757C-26.265,-8.804 -26.125,-6.857 -25.67,-4.974C-25.221,-3.115 -24.481,-1.318 -23.423,0.342C-21.889,2.75 -19.834,4.699 -17.431,6.087C-16.799,6.452 -16.142,6.775 -15.464,7.059C-14.496,7.466 -13.49,7.799 -12.443,8.031C-8.703,8.857 -4.892,8.436 -1.464,6.883C-0.705,6.54 0.042,6.16 0.758,5.704C0.79,5.682 0.818,5.658 0.851,5.637C4.744,3.123 7.442,-0.747 8.446,-5.277C9.45,-9.806 8.641,-14.454 6.175,-18.378C5.021,-15.015 2.961,-11.919 0,-9.521" style="fill:rgb(0,113,188);fill-rule:nonzero;"/>
            </g>
        </g>
        <g transform="matrix(1,0,0,1,895.226,0)">
            <g transform="matrix(1,0,0,1,101.281,332.384)">
                <path d="M0,-8.073C-0.11,-7.362 -0.257,-6.665 -0.442,-5.981C-1.637,-1.566 -4.328,2.23 -7.947,4.832C-8.916,5.53 -9.95,6.135 -11.04,6.649C-12.607,7.388 -14.284,7.923 -16.044,8.225C-16.389,8.284 -16.734,8.344 -17.085,8.385C-15.68,9.745 -14.074,10.843 -12.323,11.656C-10.589,12.462 -8.724,13 -6.766,13.206C-3.922,13.503 -1.119,13.108 1.463,12.092C2.145,11.823 2.808,11.509 3.455,11.154C4.372,10.651 5.256,10.072 6.086,9.4C9.142,6.925 11.126,3.621 12.018,0.073C12.233,-0.78 12.397,-1.645 12.482,-2.52C12.911,-6.938 11.682,-11.52 8.675,-15.234C5.705,-18.9 1.546,-21.042 -2.805,-21.576C-0.876,-18.54 0.257,-14.951 0.257,-11.095C0.257,-10.065 0.154,-9.06 0,-8.073" style="fill:rgb(0,113,188);fill-rule:nonzero;"/>
            </g>
        </g>
        <g transform="matrix(1,0,0,1,895.226,0)">
            <g transform="matrix(1,0,0,1,109.956,360.768)">
                <path d="M0,-43.618C3.007,-39.904 4.236,-35.322 3.807,-30.904C3.722,-30.029 3.558,-29.164 3.343,-28.31C2.452,-24.763 0.467,-21.459 -2.588,-18.984C-3.419,-18.312 -4.303,-17.733 -5.22,-17.23C-5.867,-16.875 -6.53,-16.56 -7.212,-16.292C-9.793,-15.276 -12.597,-14.881 -15.441,-15.178C-17.398,-15.384 -19.264,-15.922 -20.998,-16.727C-22.749,-17.541 -24.355,-18.639 -25.76,-19.999C-25.409,-20.04 -25.064,-20.099 -24.719,-20.159C-22.958,-20.461 -21.282,-20.996 -19.715,-21.735C-18.625,-22.249 -17.591,-22.854 -16.622,-23.552C-13.002,-26.154 -10.312,-29.95 -9.117,-34.365C-8.932,-35.049 -8.785,-35.746 -8.675,-36.457C-8.521,-37.444 -8.417,-38.449 -8.417,-39.479C-8.417,-43.335 -9.551,-46.924 -11.479,-49.96C-7.129,-49.426 -2.97,-47.284 0,-43.618M-15.888,-52.062C-15.253,-51.449 -14.67,-50.784 -14.133,-50.081C-11.881,-47.135 -10.526,-43.466 -10.526,-39.479C-10.526,-38.456 -10.633,-37.458 -10.802,-36.482C-10.928,-35.759 -11.083,-35.046 -11.295,-34.354C-12.708,-29.748 -15.979,-25.958 -20.224,-23.829C-21.978,-22.949 -23.893,-22.352 -25.919,-22.106C-25.727,-22.416 -25.553,-22.732 -25.379,-23.05C-24.526,-24.606 -23.905,-26.242 -23.507,-27.92C-23.228,-29.098 -23.057,-30.292 -22.999,-31.491C-22.783,-35.945 -24.079,-40.416 -26.792,-44.1C-27.211,-44.669 -27.664,-45.215 -28.149,-45.742C-28.827,-46.478 -29.549,-47.185 -30.356,-47.827C-33.272,-50.146 -36.707,-51.537 -40.319,-51.948C-37.156,-55.063 -32.821,-56.992 -28.041,-56.992C-23.321,-56.992 -19.041,-55.107 -15.888,-52.062M-56.278,-43.372C-53.39,-47.003 -49.27,-49.298 -44.667,-49.852C-44.63,-49.857 -44.594,-49.866 -44.556,-49.871C-43.88,-49.947 -43.208,-49.985 -42.538,-49.985C-42.37,-49.985 -42.204,-49.97 -42.036,-49.965C-38.277,-49.856 -34.666,-48.558 -31.67,-46.176C-30.867,-45.537 -30.15,-44.831 -29.491,-44.089C-29.003,-43.54 -28.542,-42.974 -28.134,-42.379C-25.411,-38.406 -24.483,-33.49 -25.459,-28.845C-25.862,-26.924 -26.588,-25.053 -27.657,-23.313C-27.779,-23.657 -27.919,-23.99 -28.059,-24.323C-28.741,-25.951 -29.628,-27.448 -30.685,-28.797C-31.436,-29.755 -32.268,-30.638 -33.173,-31.434C-36.488,-34.347 -40.737,-36.115 -45.255,-36.319C-45.959,-36.351 -46.668,-36.342 -47.382,-36.296C-48.433,-36.228 -49.49,-36.098 -50.549,-35.854C-54.262,-34.997 -57.469,-33.117 -59.981,-30.6C-60.477,-35.209 -59.167,-39.741 -56.278,-43.372M-63.199,-12.794C-64.273,-17.45 -63.369,-22.106 -61.046,-25.889C-60.586,-26.639 -60.06,-27.343 -59.493,-28.016C-57.136,-30.814 -53.904,-32.913 -50.073,-33.798C-49.021,-34.041 -47.969,-34.169 -46.927,-34.216C-46.189,-34.25 -45.458,-34.246 -44.734,-34.187C-39.987,-33.804 -35.622,-31.473 -32.627,-27.849C-31.383,-26.344 -30.376,-24.618 -29.683,-22.707C-30.025,-22.825 -30.371,-22.922 -30.715,-23.018C-32.363,-23.484 -34.034,-23.724 -35.696,-23.751C-36.927,-23.77 -38.148,-23.677 -39.35,-23.469C-43.738,-22.71 -47.813,-20.472 -50.815,-17.031C-51.282,-16.496 -51.719,-15.93 -52.131,-15.337C-52.728,-14.477 -53.281,-13.574 -53.747,-12.599C-55.386,-9.163 -55.912,-5.486 -55.509,-1.956C-59.262,-4.337 -62.122,-8.13 -63.199,-12.794M-43.574,11.658C-47.886,9.601 -50.967,5.996 -52.482,1.825C-52.784,0.994 -53.01,0.138 -53.184,-0.731C-53.903,-4.314 -53.534,-8.145 -51.843,-11.69C-51.379,-12.662 -50.827,-13.56 -50.217,-14.404C-49.783,-15.005 -49.323,-15.58 -48.824,-16.112C-45.532,-19.627 -40.927,-21.597 -36.173,-21.641C-34.27,-21.66 -32.346,-21.374 -30.469,-20.743C-30.764,-20.556 -31.048,-20.355 -31.33,-20.154C-32.725,-19.158 -33.969,-17.991 -35.047,-16.68C-35.816,-15.744 -36.499,-14.738 -37.086,-13.666C-37.618,-12.693 -38.087,-11.679 -38.455,-10.609C-39.574,-7.361 -39.802,-3.957 -39.191,-0.669C-39.063,0.028 -38.891,0.716 -38.685,1.398C-38.38,2.411 -38.012,3.412 -37.539,4.382C-35.904,7.733 -33.4,10.471 -30.314,12.397C-34.687,13.91 -39.391,13.653 -43.574,11.658M-25.476,12.375C-25.518,12.361 -25.561,12.354 -25.602,12.339C-26.401,12.064 -27.161,11.718 -27.9,11.34C-31.253,9.625 -33.961,6.903 -35.641,3.456C-36.111,2.492 -36.478,1.498 -36.762,0.487C-36.961,-0.221 -37.118,-0.935 -37.226,-1.657C-37.635,-4.402 -37.39,-7.222 -36.46,-9.923C-35.818,-11.787 -34.872,-13.486 -33.693,-14.997C-32.504,-16.522 -31.069,-17.843 -29.421,-18.905C-29.458,-18.563 -29.478,-18.221 -29.495,-17.879C-29.585,-16.162 -29.448,-14.457 -29.091,-12.793C-28.836,-11.602 -28.472,-10.437 -27.995,-9.305C-27.566,-8.29 -27.067,-7.296 -26.463,-6.347C-24.617,-3.449 -22.095,-1.151 -19.141,0.417C-18.516,0.749 -17.871,1.043 -17.208,1.308C-16.225,1.699 -15.213,2.033 -14.159,2.267C-12.734,2.583 -11.299,2.739 -9.873,2.739C-7.666,2.739 -5.486,2.357 -3.406,1.622C-4.886,5.801 -7.933,9.428 -12.224,11.52C-16.388,13.552 -21.09,13.85 -25.476,12.375M7.187,-13.1C6.182,-8.57 3.484,-4.701 -0.409,-2.186C-0.441,-2.166 -0.47,-2.141 -0.502,-2.12C-1.218,-1.664 -1.965,-1.284 -2.724,-0.94C-6.151,0.612 -9.963,1.033 -13.703,0.207C-14.75,-0.024 -15.756,-0.357 -16.724,-0.764C-17.402,-1.049 -18.059,-1.372 -18.691,-1.736C-21.094,-3.125 -23.149,-5.073 -24.683,-7.481C-25.741,-9.141 -26.481,-10.938 -26.93,-12.798C-27.384,-14.681 -27.525,-16.628 -27.332,-18.581C-27.083,-18.336 -26.824,-18.104 -26.563,-17.874C-25.279,-16.739 -23.862,-15.789 -22.341,-15.033C-21.251,-14.492 -20.112,-14.052 -18.929,-13.721C-17.868,-13.424 -16.78,-13.196 -15.661,-13.079C-14.962,-13.005 -14.266,-12.969 -13.573,-12.969C-10.875,-12.969 -8.241,-13.53 -5.799,-14.595C-5.151,-14.877 -4.515,-15.192 -3.896,-15.547C-2.979,-16.071 -2.096,-16.668 -1.26,-17.345C1.701,-19.743 3.761,-22.839 4.915,-26.202C7.381,-22.277 8.19,-17.63 7.187,-13.1M6.639,-27.434C6.326,-27.926 5.987,-28.393 5.637,-28.85C6.702,-34.348 5.433,-40.263 1.64,-44.945C-2.118,-49.586 -7.573,-52.05 -13.12,-52.192C-16.722,-56.413 -22.069,-59.102 -28.041,-59.102C-34.067,-59.102 -39.463,-56.367 -43.065,-52.078C-43.64,-52.062 -44.216,-52.032 -44.794,-51.968C-50.002,-51.374 -54.667,-48.788 -57.929,-44.685C-61.192,-40.583 -62.664,-35.456 -62.07,-30.248C-62.004,-29.67 -61.904,-29.1 -61.79,-28.537C-65.158,-24.062 -66.609,-18.19 -65.254,-12.318C-63.898,-6.445 -60.015,-1.81 -55.025,0.735C-53.624,6.164 -49.929,10.964 -44.483,13.562C-41.803,14.84 -38.932,15.484 -36.049,15.484C-33.841,15.484 -31.626,15.107 -29.484,14.348C-28.938,14.155 -28.41,13.931 -27.889,13.695C-27.367,13.926 -26.836,14.146 -26.29,14.334C-24.196,15.055 -22.036,15.413 -19.885,15.413C-16.944,15.413 -14.019,14.743 -11.298,13.417C-5.882,10.776 -2.233,5.953 -0.875,0.52C-0.364,0.254 0.14,-0.027 0.631,-0.341C5.052,-3.156 8.111,-7.526 9.246,-12.644C10.381,-17.761 9.455,-23.014 6.639,-27.434" style="fill:rgb(0,77,119);fill-rule:nonzero;"/>
            </g>
        </g>
        <g transform="matrix(1,0,0,1,895.226,0)">
            <g opacity="0.3">
                <g transform="matrix(1,0,0,1,93.569,303.777)">
                    <path d="M0,30.321C-0.256,30.321 -0.512,30.223 -0.707,30.028C-1.098,29.637 -1.098,29.005 -0.707,28.614C2.238,25.67 3.859,21.755 3.859,17.59C3.859,13.425 2.238,9.51 -0.707,6.566C-3.651,3.622 -7.566,2 -11.731,2C-12.283,2 -12.731,1.552 -12.731,1C-12.731,0.447 -12.283,0 -11.731,0C-7.032,0 -2.614,1.83 0.707,5.152C4.03,8.474 5.859,12.891 5.859,17.59C5.859,22.289 4.03,26.706 0.707,30.028C0.512,30.223 0.256,30.321 0,30.321" style="fill:white;fill-rule:nonzero;"/>
                </g>
            </g>
        </g>
        <g transform="matrix(1,0,0,1,895.226,0)">
            <g opacity="0.3">
                <g transform="matrix(1,0,0,1,78.4733,304.143)">
                    <path d="M0,1.997C-0.551,1.997 -0.998,1.55 -0.998,0.998C-0.998,0.447 -0.551,0 0,0C0.552,0 0.999,0.447 0.999,0.998C0.999,1.55 0.552,1.997 0,1.997" style="fill:white;fill-rule:nonzero;"/>
                </g>
            </g>
        </g>
        <g transform="matrix(1,0,0,1,895.226,0)">
            <g opacity="0.4">
                <g transform="matrix(-0.146022,-0.989281,-0.989281,0.146022,81.6906,314.764)">
                    <path d="M-12.258,-10.58C-19.786,-9.469 -24.989,-2.465 -23.878,5.064C-23.878,5.064 -24.552,-0.644 -12.258,-2.458C-1.172,-4.095 4.499,8.569 3.388,1.04C2.276,-6.49 -4.728,-11.692 -12.258,-10.58" style="fill:rgb(0,77,119);fill-rule:nonzero;"/>
                </g>
            </g>
        </g>
        <g transform="matrix(1,0,0,1,895.226,0)">
            <g opacity="0.3">
                <g transform="matrix(1,0,0,1,83.8312,310.37)">
                    <path d="M0,16.828C-0.492,16.828 -0.921,16.465 -0.989,15.963C-1.551,11.837 -3.686,8.177 -7,5.655C-10.315,3.134 -14.413,2.052 -18.54,2.617C-22.666,3.178 -26.327,5.312 -28.848,8.628C-29.182,9.067 -29.809,9.153 -30.249,8.818C-30.688,8.484 -30.774,7.856 -30.439,7.417C-27.595,3.677 -23.465,1.268 -18.809,0.635C-14.152,0 -9.53,1.22 -5.79,4.063C-2.049,6.908 0.359,11.038 0.992,15.693C1.067,16.24 0.684,16.744 0.136,16.819C0.09,16.825 0.045,16.828 0,16.828" style="fill:white;fill-rule:nonzero;"/>
                </g>
            </g>
        </g>
        <g transform="matrix(1,0,0,1,895.226,0)">
            <g opacity="0.3">
                <g transform="matrix(0.605515,-0.795834,-0.795834,-0.605515,53.4044,321.025)">
                    <path d="M-0.795,-0.394C-1.346,-0.393 -1.793,0.053 -1.793,0.604C-1.793,1.156 -1.346,1.603 -0.795,1.603C-0.245,1.603 0.203,1.156 0.203,0.604C0.203,0.053 -0.244,-0.393 -0.795,-0.394" style="fill:white;fill-rule:nonzero;"/>
                </g>
            </g>
        </g>
        <g transform="matrix(1,0,0,1,895.226,0)">
            <g opacity="0.4">
                <g transform="matrix(-0.875859,-0.482566,-0.482566,0.875859,58.6954,330.97)">
                    <path d="M-12.099,-17.816C-19.627,-16.706 -24.831,-9.701 -23.719,-2.171C-23.719,-2.171 -24.393,-7.88 -12.099,-9.695C-1.013,-11.331 4.658,1.333 3.547,-6.196C2.436,-13.726 -4.57,-18.928 -12.099,-17.816" style="fill:rgb(0,77,119);fill-rule:nonzero;"/>
                </g>
            </g>
        </g>
        <g transform="matrix(1,0,0,1,895.226,0)">
            <g opacity="0.3">
                <g transform="matrix(1,0,0,1,47.7023,325.858)">
                    <path d="M0,22.938C-0.455,22.938 -0.866,22.626 -0.973,22.164C-2.033,17.586 -1.247,12.87 1.242,8.884C3.729,4.898 7.62,2.12 12.198,1.059C16.777,0 21.492,0.787 25.478,3.274C25.946,3.567 26.089,4.183 25.796,4.652C25.504,5.121 24.887,5.263 24.419,4.971C20.886,2.765 16.707,2.065 12.649,3.008C8.591,3.947 5.143,6.41 2.938,9.943C0.733,13.476 0.036,17.656 0.975,21.712C1.1,22.251 0.765,22.788 0.227,22.913C0.151,22.93 0.075,22.938 0,22.938" style="fill:white;fill-rule:nonzero;"/>
                </g>
            </g>
        </g>
        <g transform="matrix(1,0,0,1,895.226,0)">
            <g opacity="0.3">
                <g transform="matrix(-0.225408,-0.974264,-0.974264,0.225408,48.3787,350.095)">
                    <path d="M-0.973,-1.224C-1.524,-1.223 -1.971,-0.777 -1.971,-0.225C-1.971,0.326 -1.524,0.773 -0.973,0.773C-0.422,0.773 0.025,0.326 0.026,-0.225C0.025,-0.776 -0.422,-1.223 -0.973,-1.224" style="fill:white;fill-rule:nonzero;"/>
                </g>
            </g>
        </g>
        <g transform="matrix(1,0,0,1,895.226,0)">
            <g opacity="0.4">
                <g transform="matrix(-0.930894,0.36529,0.36529,0.930894,73.4144,352.002)">
                    <path d="M0.282,-22.284C-7.247,-21.173 -12.45,-14.169 -11.339,-6.64C-11.339,-6.64 -12.013,-12.348 0.282,-14.162C11.367,-15.799 17.037,-3.135 15.927,-10.663C14.816,-18.193 7.812,-23.396 0.282,-22.284" style="fill:rgb(0,77,119);fill-rule:nonzero;"/>
                </g>
            </g>
        </g>
        <g transform="matrix(1,0,0,1,895.226,0)">
            <g opacity="0.3">
                <g transform="matrix(1,0,0,1,67.2033,339.892)">
                    <path d="M0,32.773C-0.137,32.773 -0.277,32.745 -0.41,32.685C-4.695,30.756 -7.973,27.276 -9.64,22.883C-11.307,18.491 -11.164,13.711 -9.236,9.426C-7.308,5.14 -3.827,1.863 0.565,0.197C1.082,0 1.659,0.26 1.855,0.777C2.051,1.294 1.791,1.871 1.274,2.066C-2.619,3.544 -5.704,6.449 -7.412,10.247C-9.121,14.044 -9.248,18.281 -7.77,22.174C-6.293,26.067 -3.388,29.152 0.411,30.861C0.915,31.087 1.139,31.679 0.913,32.183C0.746,32.554 0.381,32.773 0,32.773" style="fill:white;fill-rule:nonzero;"/>
                </g>
            </g>
        </g>
        <g transform="matrix(1,0,0,1,895.226,0)">
            <g opacity="0.3">
                <g transform="matrix(-0.912006,-0.410177,-0.410177,0.912006,69.675,373.373)">
                    <path d="M-0.41,-1.908C-0.962,-1.907 -1.408,-1.461 -1.408,-0.91C-1.407,-0.358 -0.961,0.089 -0.41,0.089C0.142,0.089 0.588,-0.358 0.589,-0.91C0.589,-1.461 0.142,-1.909 -0.41,-1.908" style="fill:white;fill-rule:nonzero;"/>
                </g>
            </g>
        </g>
        <g transform="matrix(1,0,0,1,895.226,0)">
            <g opacity="0.4">
                <g transform="matrix(-0.27272,0.962093,0.962093,0.27272,79.6444,347.87)">
                    <path d="M4.17,-14.458C-3.36,-13.347 -8.563,-6.343 -7.452,1.186C-7.452,1.186 -8.126,-4.522 4.17,-6.336C15.255,-7.971 20.925,4.692 19.814,-2.836C18.703,-10.365 11.698,-15.569 4.17,-14.458" style="fill:rgb(0,77,119);fill-rule:nonzero;"/>
                </g>
            </g>
        </g>
        <g transform="matrix(1,0,0,1,895.226,0)">
            <g opacity="0.3">
                <g transform="matrix(1,0,0,1,90.1447,349.731)">
                    <path d="M0,24.362C-2.014,24.362 -4.033,24.012 -5.983,23.308C-10.402,21.714 -13.937,18.493 -15.934,14.239C-17.931,9.986 -18.152,5.211 -16.557,0.791C-16.37,0.271 -15.796,0 -15.277,0.19C-14.758,0.378 -14.489,0.951 -14.676,1.47C-16.09,5.387 -15.894,9.62 -14.124,13.389C-12.354,17.159 -9.221,20.013 -5.304,21.427C-1.386,22.841 2.846,22.645 6.616,20.875C7.115,20.64 7.711,20.855 7.946,21.355C8.181,21.855 7.965,22.451 7.465,22.685C5.089,23.8 2.549,24.362 0,24.362" style="fill:white;fill-rule:nonzero;"/>
                </g>
            </g>
        </g>
        <g transform="matrix(1,0,0,1,895.226,0)">
            <g opacity="0.3">
                <g transform="matrix(-0.90517,0.425049,0.425049,0.90517,100.844,370.389)">
                    <path d="M0.425,-1.903C-0.127,-1.902 -0.574,-1.456 -0.574,-0.905C-0.573,-0.353 -0.127,0.094 0.425,0.095C0.976,0.094 1.423,-0.353 1.423,-0.904C1.422,-1.455 0.976,-1.903 0.425,-1.903" style="fill:white;fill-rule:nonzero;"/>
                </g>
            </g>
        </g>
        <g transform="matrix(1,0,0,1,895.226,0)">
            <g opacity="0.4">
                <g transform="matrix(0.552596,0.833449,0.833449,-0.552596,78.8658,346.982)">
                    <path d="M8.451,-7.265C0.922,-6.154 -4.281,0.85 -3.17,8.379C-3.17,8.379 -3.844,2.67 8.451,0.857C19.536,-0.778 25.206,11.886 24.095,4.357C22.985,-3.173 15.981,-8.376 8.451,-7.265" style="fill:rgb(0,77,119);fill-rule:nonzero;"/>
                </g>
            </g>
        </g>
        <g transform="matrix(1,0,0,1,895.226,0)">
            <g opacity="0.3">
                <g transform="matrix(1,0,0,1,99.965,346.163)">
                    <path d="M0,15.23C-1.229,15.23 -2.468,15.1 -3.699,14.838C-8.294,13.86 -12.234,11.15 -14.792,7.208C-15.092,6.745 -14.96,6.126 -14.497,5.825C-14.033,5.523 -13.415,5.655 -13.114,6.12C-10.847,9.613 -7.355,12.014 -3.282,12.881C0.792,13.749 4.958,12.978 8.451,10.711C11.944,8.444 14.346,4.953 15.213,0.88C15.329,0.339 15.857,0 16.4,0.11C16.94,0.225 17.285,0.756 17.169,1.296C16.191,5.892 13.481,9.832 9.54,12.389C6.654,14.261 3.361,15.23 0,15.23" style="fill:white;fill-rule:nonzero;"/>
                </g>
            </g>
        </g>
        <g transform="matrix(1,0,0,1,895.226,0)">
            <g opacity="0.3">
                <g transform="matrix(-0.208332,0.978058,0.978058,0.208332,116.906,342.973)">
                    <path d="M0.977,-1.206C0.425,-1.206 -0.022,-0.759 -0.022,-0.207C-0.022,0.344 0.425,0.791 0.977,0.791C1.528,0.791 1.975,0.344 1.976,-0.207C1.975,-0.759 1.528,-1.206 0.977,-1.206" style="fill:white;fill-rule:nonzero;"/>
                </g>
            </g>
        </g>
        <g transform="matrix(1,0,0,1,895.226,0)">
            <g opacity="0.4">
                <g transform="matrix(0.997996,0.0632827,0.0632827,-0.997996,93.0015,354.614)">
                    <path d="M0.527,-0.165C-7.003,0.946 -12.205,7.95 -11.095,15.48C-11.095,15.48 -11.769,9.771 0.527,7.957C11.612,6.321 17.282,18.987 16.172,11.456C15.06,3.927 8.056,-1.276 0.527,-0.165" style="fill:rgb(0,77,119);fill-rule:nonzero;"/>
                </g>
            </g>
        </g>
        <g transform="matrix(1,0,0,1,895.226,0)">
            <g opacity="0.3">
                <g transform="matrix(1,0,0,1,96.2731,316.367)">
                    <path d="M0,29.344C-0.534,29.344 -1.07,29.321 -1.608,29.272C-2.158,29.222 -2.564,28.736 -2.515,28.186C-2.465,27.636 -1.988,27.229 -1.429,27.28C2.719,27.653 6.764,26.389 9.961,23.721C13.158,21.053 15.125,17.299 15.499,13.152C15.873,9.003 14.609,4.958 11.94,1.762C11.586,1.338 11.643,0.707 12.067,0.354C12.492,0 13.122,0.055 13.476,0.481C16.487,4.087 17.913,8.651 17.491,13.331C17.068,18.011 14.85,22.245 11.243,25.256C8.05,27.92 4.108,29.344 0,29.344" style="fill:white;fill-rule:nonzero;"/>
                </g>
            </g>
        </g>
        <g transform="matrix(1,0,0,1,895.226,0)">
            <g opacity="0.3">
                <g transform="matrix(0.640628,0.767852,0.767852,-0.640628,105.563,314.961)">
                    <path d="M0.766,-0.358C0.215,-0.359 -0.232,0.089 -0.232,0.64C-0.232,1.191 0.215,1.638 0.766,1.638C1.318,1.638 1.764,1.192 1.765,0.64C1.765,0.089 1.319,-0.358 0.766,-0.358" style="fill:white;fill-rule:nonzero;"/>
                </g>
            </g>
        </g>
        <g transform="matrix(1,0,0,1,895.226,0)">
            <g opacity="0.4">
                <g transform="matrix(0.665959,-0.745988,-0.745988,-0.665959,106.415,331.794)">
                    <path d="M-9.735,-1.365C-17.265,-0.254 -22.467,6.751 -21.356,14.28C-21.356,14.28 -22.03,8.571 -9.735,6.757C1.349,5.122 7.021,17.785 5.91,10.256C4.798,2.727 -2.206,-2.476 -9.735,-1.365" style="fill:rgb(0,77,119);fill-rule:nonzero;"/>
                </g>
            </g>
        </g>
    </g>
</svg>
