<?xml version="1.0" encoding="UTF-8" standalone="no"?>
<!DOCTYPE svg PUBLIC "-//W3C//DTD SVG 1.1//EN" "http://www.w3.org/Graphics/SVG/1.1/DTD/svg11.dtd">
<svg width="100%" height="100%" viewBox="0 0 79 79" version="1.1" xmlns="http://www.w3.org/2000/svg" xmlns:xlink="http://www.w3.org/1999/xlink" xml:space="preserve" xmlns:serif="http://www.serif.com/" style="fill-rule:evenodd;clip-rule:evenodd;stroke-linejoin:round;stroke-miterlimit:2;">
    <g transform="matrix(1,0,0,1,-1048.4,-300.719)">
        <g transform="matrix(1,0,0,1,895.226,0)">
            <g transform="matrix(1,0,0,1,192.215,341.22)">
                <path d="M0,-38.454C-4.122,-38.454 -8.057,-37.133 -11.381,-34.633L-15.282,-31.699L-10.444,-31.052C-7.047,-30.598 -3.9,-29.136 -1.341,-26.822C-1.256,-26.746 -1.169,-26.669 -1.082,-26.593C-0.949,-26.476 -0.816,-26.361 -0.69,-26.235C-0.54,-26.085 -0.401,-25.925 -0.262,-25.766L-0.045,-25.52C2.331,-22.867 3.793,-19.613 4.183,-16.11C4.261,-15.404 4.3,-14.776 4.3,-14.19C4.3,-14.144 4.295,-14.1 4.292,-14.055C4.286,-13.957 4.279,-13.858 4.277,-13.759C4.215,-11.263 3.628,-8.876 2.535,-6.662C2.054,-5.69 1.472,-4.755 0.803,-3.881L-2.165,0L2.672,-0.685L2.837,-0.709C3.1,-0.745 3.362,-0.782 3.621,-0.832C6.146,-1.322 8.501,-2.298 10.62,-3.731C11.699,-4.462 12.731,-5.338 13.688,-6.336C16.786,-9.564 18.648,-13.8 18.93,-18.262L18.946,-18.493C18.966,-18.785 18.989,-19.115 18.989,-19.466C18.989,-19.745 18.972,-20.02 18.953,-20.295L18.937,-20.549C18.682,-25.025 16.837,-29.283 13.743,-32.535C13.03,-33.285 12.236,-33.99 11.381,-34.633C8.057,-37.133 4.122,-38.454 0,-38.454M0,-36.454C3.82,-36.454 7.338,-35.171 10.179,-33.034C10.935,-32.466 11.643,-31.841 12.294,-31.157C14.985,-28.328 16.704,-24.58 16.94,-20.434C16.958,-20.112 16.989,-19.793 16.989,-19.466C16.989,-19.101 16.957,-18.746 16.934,-18.388C16.673,-14.26 14.942,-10.53 12.245,-7.72C11.413,-6.852 10.498,-6.064 9.499,-5.388C7.641,-4.13 5.52,-3.238 3.239,-2.796C2.96,-2.741 2.675,-2.706 2.392,-2.666C3.141,-3.644 3.788,-4.684 4.328,-5.776C5.536,-8.222 6.207,-10.911 6.276,-13.708C6.28,-13.869 6.3,-14.028 6.3,-14.19C6.3,-14.912 6.25,-15.625 6.17,-16.331C5.734,-20.252 4.093,-23.896 1.444,-26.855C1.206,-27.122 0.978,-27.395 0.724,-27.649C0.492,-27.882 0.242,-28.088 0,-28.307C-2.867,-30.897 -6.386,-32.527 -10.179,-33.034C-7.338,-35.171 -3.82,-36.454 0,-36.454" style="fill:rgb(117,13,26);fill-rule:nonzero;"/>
            </g>
        </g>
        <g transform="matrix(1,0,0,1,895.226,0)">
            <g transform="matrix(1,0,0,1,179.48,342.311)">
                <path d="M0,-34.27C-0.815,-34.27 -1.658,-34.206 -2.65,-34.067C-6.768,-33.494 -10.494,-31.64 -13.426,-28.708C-16.345,-25.79 -18.194,-22.067 -18.774,-17.942L-19.453,-13.116L-15.58,-16.075C-12.846,-18.162 -9.585,-19.358 -6.147,-19.534C-6.029,-19.54 -5.91,-19.547 -5.792,-19.555C-5.621,-19.567 -5.45,-19.581 -5.275,-19.581C-5.065,-19.581 -4.859,-19.565 -4.653,-19.55L-4.315,-19.529C-0.769,-19.33 2.566,-18.058 5.329,-15.851C5.922,-15.377 6.504,-14.841 7.059,-14.257C8.773,-12.453 10.046,-10.35 10.842,-8.008C11.189,-6.989 11.439,-5.916 11.587,-4.822L12.235,0L15.165,-3.883L15.291,-4.048C15.441,-4.245 15.591,-4.442 15.729,-4.646C17.179,-6.78 18.16,-9.147 18.644,-11.682C18.873,-12.877 18.989,-14.089 18.989,-15.282C18.989,-15.394 18.983,-15.505 18.975,-15.616L18.971,-15.686C18.877,-20.157 17.196,-24.465 14.236,-27.818L14.098,-27.976C13.88,-28.224 13.662,-28.472 13.426,-28.708C13.227,-28.907 13.019,-29.091 12.811,-29.274L12.626,-29.437C9.284,-32.424 4.975,-34.133 0.494,-34.248L0.382,-34.254C0.255,-34.263 0.128,-34.27 0,-34.27M0,-32.27C0.148,-32.27 0.294,-32.252 0.442,-32.249C4.489,-32.145 8.288,-30.632 11.293,-27.946C11.534,-27.73 11.781,-27.524 12.012,-27.293C12.269,-27.038 12.5,-26.763 12.737,-26.494C15.396,-23.482 16.887,-19.683 16.971,-15.644C16.974,-15.522 16.989,-15.403 16.989,-15.282C16.989,-14.187 16.881,-13.109 16.68,-12.057C16.248,-9.801 15.365,-7.669 14.075,-5.769C13.917,-5.536 13.739,-5.314 13.569,-5.088C13.403,-6.317 13.125,-7.508 12.736,-8.653C11.84,-11.287 10.385,-13.66 8.509,-15.635C7.905,-16.27 7.263,-16.866 6.577,-17.414C3.585,-19.804 -0.14,-21.297 -4.203,-21.526C-4.56,-21.546 -4.913,-21.581 -5.275,-21.581C-5.604,-21.581 -5.925,-21.547 -6.249,-21.531C-10.202,-21.33 -13.834,-19.924 -16.794,-17.664C-16.298,-21.188 -14.717,-24.588 -12.012,-27.293C-9.371,-29.934 -6.01,-31.58 -2.375,-32.086C-1.593,-32.195 -0.803,-32.27 0,-32.27" style="fill:rgb(117,13,26);fill-rule:nonzero;"/>
            </g>
        </g>
        <g transform="matrix(1,0,0,1,895.226,0)">
            <g transform="matrix(1,0,0,1,174.204,355.053)">
                <path d="M0,-34.275C-0.279,-34.275 -0.553,-34.257 -0.828,-34.239L-1.083,-34.222C-5.556,-33.968 -9.81,-32.127 -13.062,-29.037C-13.81,-28.326 -14.515,-27.533 -15.157,-26.681C-17.663,-23.355 -18.987,-19.415 -18.987,-15.287C-18.987,-11.159 -17.663,-7.218 -15.157,-3.892L-12.224,0L-11.577,-4.831C-11.121,-8.239 -9.66,-11.391 -7.354,-13.947C-7.274,-14.035 -7.196,-14.124 -7.118,-14.213C-7.005,-14.342 -6.894,-14.473 -6.77,-14.596C-6.621,-14.745 -6.463,-14.88 -6.307,-15.017L-6.055,-15.239C-3.406,-17.606 -0.149,-19.065 3.365,-19.458C3.971,-19.525 4.602,-19.559 5.241,-19.559C5.399,-19.559 5.557,-19.557 5.716,-19.553C8.204,-19.49 10.59,-18.904 12.81,-17.811C13.775,-17.336 14.709,-16.754 15.587,-16.086L19.464,-13.129L18.78,-17.957L18.757,-18.122C18.721,-18.384 18.683,-18.647 18.633,-18.906C18.143,-21.434 17.167,-23.79 15.732,-25.909C15.003,-26.986 14.127,-28.017 13.129,-28.974C9.901,-32.073 5.666,-33.934 1.204,-34.216L0.974,-34.232C0.682,-34.252 0.351,-34.275 0,-34.275M0,-32.275C0.364,-32.275 0.72,-32.243 1.078,-32.22C5.206,-31.96 8.935,-30.228 11.745,-27.532C12.612,-26.7 13.4,-25.786 14.076,-24.788C15.334,-22.929 16.228,-20.807 16.67,-18.526C16.724,-18.246 16.76,-17.961 16.8,-17.676C15.814,-18.427 14.775,-19.072 13.693,-19.605C11.197,-20.834 8.491,-21.483 5.767,-21.552C5.591,-21.557 5.416,-21.559 5.241,-21.559C4.54,-21.559 3.84,-21.523 3.143,-21.445C-0.663,-21.019 -4.354,-19.442 -7.387,-16.731C-7.654,-16.492 -7.928,-16.266 -8.184,-16.01C-8.417,-15.778 -8.62,-15.528 -8.838,-15.287C-11.49,-12.348 -13.065,-8.787 -13.56,-5.095C-15.701,-7.939 -16.987,-11.462 -16.987,-15.287C-16.987,-19.112 -15.701,-22.634 -13.56,-25.477C-12.991,-26.231 -12.367,-26.938 -11.684,-27.588C-8.856,-30.275 -5.111,-31.991 -0.969,-32.226C-0.646,-32.244 -0.327,-32.275 0,-32.275" style="fill:rgb(117,13,26);fill-rule:nonzero;"/>
            </g>
        </g>
        <g transform="matrix(1,0,0,1,895.226,0)">
            <g transform="matrix(1,0,0,1,179.515,371.96)">
                <path d="M0,-38.425C-0.144,-38.425 -0.287,-38.423 -0.43,-38.42C-4.904,-38.327 -9.216,-36.649 -12.57,-33.693L-12.745,-33.54C-12.965,-33.349 -13.214,-33.132 -13.462,-32.884C-13.66,-32.687 -13.842,-32.48 -14.024,-32.271L-14.192,-32.079C-17.175,-28.737 -18.88,-24.427 -18.994,-19.944C-19.021,-18.911 -18.958,-17.852 -18.81,-16.796C-18.23,-12.672 -16.38,-8.949 -13.461,-6.03C-10.529,-3.099 -6.803,-1.245 -2.686,-0.672L2.137,0L-0.822,-3.868C-2.914,-6.604 -4.112,-9.868 -4.288,-13.31C-4.293,-13.428 -4.301,-13.546 -4.31,-13.664C-4.321,-13.835 -4.334,-14.007 -4.334,-14.182C-4.334,-14.392 -4.319,-14.598 -4.305,-14.804L-4.283,-15.142C-4.084,-18.684 -2.815,-22.015 -0.613,-24.777C-0.137,-25.373 0.399,-25.956 0.981,-26.509C2.787,-28.227 4.892,-29.502 7.237,-30.3C8.255,-30.647 9.327,-30.897 10.421,-31.044L15.258,-31.696L11.355,-34.625L11.217,-34.73C11.008,-34.888 10.797,-35.046 10.582,-35.192C8.447,-36.633 6.091,-37.609 3.579,-38.092C2.434,-38.313 1.229,-38.425 0,-38.425M0,-36.424C1.072,-36.424 2.144,-36.332 3.2,-36.128C5.404,-35.704 7.536,-34.835 9.461,-33.534C9.698,-33.375 9.925,-33.198 10.154,-33.027C8.926,-32.861 7.736,-32.582 6.592,-32.194C3.955,-31.296 1.58,-29.839 -0.397,-27.958C-1.033,-27.354 -1.628,-26.71 -2.176,-26.024C-4.562,-23.032 -6.052,-19.312 -6.28,-15.254C-6.3,-14.898 -6.334,-14.544 -6.334,-14.182C-6.334,-13.853 -6.301,-13.532 -6.285,-13.208C-6.083,-9.25 -4.675,-5.614 -2.41,-2.654C-6.045,-3.159 -9.407,-4.805 -12.047,-7.446C-14.752,-10.15 -16.333,-13.55 -16.83,-17.075C-16.961,-18.01 -17.019,-18.951 -16.995,-19.893C-16.896,-23.792 -15.461,-27.654 -12.7,-30.748C-12.484,-30.99 -12.279,-31.238 -12.047,-31.47C-11.791,-31.727 -11.517,-31.955 -11.248,-32.193C-8.144,-34.927 -4.283,-36.34 -0.389,-36.42C-0.259,-36.423 -0.13,-36.424 0,-36.424" style="fill:rgb(117,13,26);fill-rule:nonzero;"/>
            </g>
        </g>
        <g transform="matrix(1,0,0,1,895.226,0)">
            <g transform="matrix(1,0,0,1,194.374,376.765)">
                <path d="M0,-38.452L-4.829,-37.766L-4.993,-37.744C-5.251,-37.708 -5.509,-37.672 -5.763,-37.623C-8.3,-37.133 -10.665,-36.153 -12.792,-34.711C-13.869,-33.98 -14.899,-33.104 -15.855,-32.107C-18.947,-28.88 -20.806,-24.648 -21.087,-20.191L-21.103,-19.959C-21.123,-19.668 -21.146,-19.338 -21.146,-18.987C-21.146,-18.708 -21.129,-18.432 -21.11,-18.158L-21.094,-17.904C-20.839,-13.427 -18.995,-9.17 -15.901,-5.918C-15.192,-5.173 -14.402,-4.471 -13.553,-3.831C-10.227,-1.324 -6.286,0 -2.158,0C1.97,0 5.91,-1.324 9.236,-3.83L13.129,-6.764L8.298,-7.41C4.89,-7.867 1.737,-9.327 -0.818,-11.634C-0.906,-11.714 -0.996,-11.792 -1.085,-11.87C-1.214,-11.982 -1.345,-12.094 -1.468,-12.217C-1.616,-12.365 -1.751,-12.522 -1.887,-12.678L-2.11,-12.931C-4.477,-15.58 -5.936,-18.838 -6.329,-22.352C-6.414,-23.106 -6.446,-23.897 -6.425,-24.703C-6.361,-27.187 -5.776,-29.571 -4.686,-31.789C-4.209,-32.758 -3.628,-33.695 -2.958,-34.574L0,-38.452ZM-4.548,-35.787C-5.301,-34.799 -5.947,-33.758 -6.48,-32.672C-7.707,-30.178 -8.355,-27.474 -8.424,-24.754C-8.447,-23.878 -8.415,-23.002 -8.317,-22.131C-7.891,-18.324 -6.313,-14.633 -3.601,-11.598C-3.363,-11.332 -3.138,-11.058 -2.882,-10.803C-2.649,-10.57 -2.4,-10.367 -2.158,-10.149C0.78,-7.497 4.342,-5.922 8.033,-5.428C5.19,-3.286 1.667,-2 -2.158,-2C-5.984,-2 -9.506,-3.286 -12.349,-5.428C-13.1,-5.994 -13.805,-6.616 -14.452,-7.297C-17.143,-10.125 -18.861,-13.873 -19.097,-18.018C-19.115,-18.341 -19.146,-18.66 -19.146,-18.987C-19.146,-19.351 -19.114,-19.707 -19.091,-20.065C-18.831,-24.189 -17.103,-27.914 -14.411,-30.723C-13.58,-31.591 -12.667,-32.379 -11.669,-33.056C-9.804,-34.32 -7.674,-35.217 -5.383,-35.659C-5.108,-35.712 -4.828,-35.747 -4.548,-35.787" style="fill:rgb(117,13,26);fill-rule:nonzero;"/>
            </g>
        </g>
        <g transform="matrix(1,0,0,1,895.226,0)">
            <g transform="matrix(1,0,0,1,192.714,371.467)">
                <path d="M0,-34.255L-2.93,-30.357L-3.03,-30.225C-3.19,-30.013 -3.35,-29.8 -3.498,-29.582C-4.938,-27.447 -5.914,-25.091 -6.397,-22.578C-6.644,-21.3 -6.754,-19.951 -6.726,-18.57C-6.633,-14.096 -4.954,-9.784 -1.998,-6.43L-1.845,-6.255C-1.653,-6.035 -1.436,-5.786 -1.188,-5.538C-0.991,-5.341 -0.784,-5.158 -0.576,-4.977L-0.384,-4.809C2.959,-1.826 7.269,-0.121 11.751,-0.007C11.908,-0.002 12.064,0 12.221,0C13.101,0 14.002,-0.065 14.898,-0.191C19.023,-0.77 22.747,-2.619 25.665,-5.539C28.583,-8.457 30.433,-12.18 31.013,-16.304L31.691,-21.131L27.818,-18.172C25.085,-16.084 21.823,-14.888 18.386,-14.713C18.267,-14.707 18.148,-14.699 18.029,-14.691C17.858,-14.679 17.687,-14.666 17.514,-14.666C17.304,-14.666 17.097,-14.682 16.891,-14.695L16.553,-14.718C13.012,-14.916 9.68,-16.186 6.919,-18.388C6.322,-18.863 5.739,-19.4 5.186,-19.982C3.468,-21.787 2.193,-23.892 1.395,-26.238C1.048,-27.257 0.798,-28.328 0.651,-29.422L0,-34.255ZM-1.332,-29.155C-1.166,-27.927 -0.887,-26.736 -0.499,-25.594C0.398,-22.956 1.856,-20.58 3.737,-18.603C4.342,-17.967 4.985,-17.371 5.672,-16.823C8.663,-14.439 12.383,-12.948 16.441,-12.721C16.798,-12.7 17.151,-12.666 17.514,-12.666C17.842,-12.666 18.163,-12.699 18.487,-12.716C22.441,-12.917 26.073,-14.322 29.032,-16.583C28.536,-13.058 26.955,-9.657 24.25,-6.953C21.546,-4.247 18.146,-2.666 14.62,-2.171C13.824,-2.059 13.023,-2 12.221,-2C12.082,-2 11.942,-2.002 11.802,-2.006C7.903,-2.106 4.042,-3.54 0.947,-6.301C0.705,-6.517 0.457,-6.721 0.226,-6.953C-0.031,-7.21 -0.26,-7.484 -0.497,-7.752C-3.232,-10.856 -4.646,-14.717 -4.726,-18.611C-4.751,-19.814 -4.662,-21.017 -4.434,-22.2C-4.01,-24.404 -3.14,-26.536 -1.84,-28.463C-1.681,-28.698 -1.504,-28.926 -1.332,-29.155" style="fill:rgb(117,13,26);fill-rule:nonzero;"/>
            </g>
        </g>
        <g transform="matrix(1,0,0,1,895.226,0)">
            <g transform="matrix(1,0,0,1,222.451,358.754)">
                <path d="M0,-34.275L-0.646,-29.444C-1.103,-26.035 -2.563,-22.883 -4.87,-20.329C-4.95,-20.24 -5.028,-20.151 -5.106,-20.061C-5.219,-19.932 -5.331,-19.802 -5.454,-19.679C-5.605,-19.527 -5.766,-19.387 -5.926,-19.248L-6.169,-19.033C-8.823,-16.657 -12.078,-15.195 -15.58,-14.805C-16.285,-14.727 -16.913,-14.689 -17.499,-14.689C-17.544,-14.689 -17.589,-14.693 -17.634,-14.696C-17.733,-14.703 -17.833,-14.709 -17.933,-14.712C-20.423,-14.774 -22.808,-15.359 -25.019,-16.45C-25.996,-16.932 -26.934,-17.515 -27.809,-18.185L-31.692,-21.155L-31.004,-16.315L-30.981,-16.151C-30.946,-15.894 -30.909,-15.637 -30.861,-15.385C-30.371,-12.846 -29.39,-10.481 -27.947,-8.353C-27.216,-7.276 -26.34,-6.246 -25.343,-5.291C-22.116,-2.198 -17.884,-0.339 -13.428,-0.058L-13.197,-0.043C-12.905,-0.022 -12.575,0 -12.224,0C-11.945,0 -11.67,-0.016 -11.396,-0.036L-11.141,-0.051C-6.668,-0.306 -2.414,-2.148 0.838,-5.238C1.586,-5.949 2.291,-6.742 2.933,-7.593C5.439,-10.92 6.764,-14.86 6.764,-18.988C6.764,-23.116 5.439,-27.056 2.933,-30.382L0,-34.275ZM1.336,-29.178C3.478,-26.336 4.764,-22.813 4.764,-18.988C4.764,-15.163 3.478,-11.64 1.336,-8.796C0.768,-8.043 0.143,-7.337 -0.54,-6.687C-3.368,-4 -7.112,-2.284 -11.255,-2.048C-11.577,-2.03 -11.896,-2 -12.224,-2C-12.588,-2 -12.943,-2.032 -13.302,-2.054C-17.425,-2.315 -21.15,-4.043 -23.96,-6.734C-24.827,-7.566 -25.615,-8.478 -26.292,-9.476C-27.558,-11.341 -28.454,-13.472 -28.897,-15.764C-28.95,-16.038 -28.984,-16.318 -29.024,-16.596C-28.042,-15.845 -26.999,-15.197 -25.904,-14.657C-23.461,-13.451 -20.774,-12.782 -17.982,-12.713C-17.821,-12.709 -17.662,-12.689 -17.499,-12.689C-16.778,-12.689 -16.065,-12.739 -15.358,-12.818C-11.438,-13.254 -7.794,-14.894 -4.835,-17.543C-4.568,-17.782 -4.294,-18.009 -4.04,-18.264C-3.807,-18.497 -3.604,-18.747 -3.386,-18.988C-0.733,-21.926 0.842,-25.488 1.336,-29.178" style="fill:rgb(117,13,26);fill-rule:nonzero;"/>
            </g>
        </g>
        <g transform="matrix(1,0,0,1,895.226,0)">
            <g transform="matrix(1,0,0,1,202.779,346.019)">
                <path d="M0,-38.446L2.958,-34.579C5.051,-31.843 6.25,-28.578 6.425,-25.136C6.431,-25.017 6.438,-24.9 6.447,-24.782C6.458,-24.61 6.472,-24.439 6.472,-24.264C6.472,-24.054 6.456,-23.848 6.442,-23.642L6.42,-23.303C6.221,-19.758 4.95,-16.423 2.743,-13.659C2.269,-13.066 1.732,-12.484 1.147,-11.928C-0.657,-10.215 -2.759,-8.942 -5.1,-8.146C-6.119,-7.799 -7.191,-7.549 -8.287,-7.401L-13.108,-6.753L-9.225,-3.822L-9.059,-3.696C-8.863,-3.546 -8.666,-3.396 -8.462,-3.258C-6.328,-1.809 -3.962,-0.83 -1.429,-0.345C-0.232,-0.116 0.979,0 2.173,0C2.285,0 2.396,-0.006 2.507,-0.013L2.578,-0.018C7.047,-0.111 11.356,-1.793 14.709,-4.752L14.868,-4.891C15.116,-5.108 15.364,-5.327 15.599,-5.562C15.797,-5.76 15.981,-5.968 16.164,-6.176L16.328,-6.362C19.315,-9.705 21.024,-14.014 21.138,-18.496L21.145,-18.606C21.153,-18.733 21.161,-18.86 21.161,-18.989C21.161,-19.803 21.096,-20.646 20.958,-21.639C20.384,-25.757 18.531,-29.483 15.599,-32.415C12.667,-35.347 8.94,-37.201 4.823,-37.774L0,-38.446ZM4.547,-35.794C8.183,-35.287 11.544,-33.641 14.185,-31.001C16.825,-28.36 18.471,-24.999 18.977,-21.363C19.086,-20.582 19.161,-19.792 19.161,-18.989C19.161,-18.841 19.143,-18.695 19.139,-18.547C19.036,-14.5 17.523,-10.701 14.837,-7.695C14.621,-7.454 14.415,-7.207 14.185,-6.976C13.929,-6.72 13.655,-6.489 13.386,-6.252C10.373,-3.592 6.575,-2.102 2.534,-2.017C2.413,-2.015 2.294,-2 2.173,-2C1.077,-2 -0.001,-2.108 -1.053,-2.309C-3.309,-2.741 -5.439,-3.623 -7.339,-4.913C-7.572,-5.071 -7.794,-5.249 -8.021,-5.419C-6.791,-5.585 -5.6,-5.863 -4.456,-6.253C-1.822,-7.148 0.55,-8.602 2.525,-10.479C3.161,-11.083 3.757,-11.725 4.305,-12.411C6.695,-15.404 8.189,-19.129 8.417,-23.192C8.437,-23.549 8.472,-23.902 8.472,-24.264C8.472,-24.592 8.438,-24.914 8.422,-25.238C8.221,-29.196 6.812,-32.833 4.547,-35.794" style="fill:rgb(117,13,26);fill-rule:nonzero;"/>
            </g>
        </g>
        <g transform="matrix(1,0,0,1,895.226,0)">
            <g transform="matrix(1,0,0,1,204.935,312.064)">
                <path d="M0,55.403C-0.123,55.403 -0.245,55.401 -0.368,55.398C-3.905,55.307 -7.306,53.963 -9.943,51.61L-10.168,51.412C-10.308,51.29 -10.448,51.17 -10.582,51.036C-10.748,50.87 -10.898,50.695 -11.05,50.521L-11.218,50.328C-13.55,47.682 -14.875,44.281 -14.947,40.751C-14.97,39.65 -14.884,38.584 -14.691,37.581C-14.563,36.915 -14.391,36.262 -14.175,35.627C-13.186,38.056 -11.763,40.256 -9.934,42.178C-9.254,42.892 -8.536,43.553 -7.796,44.143C-4.383,46.865 -0.267,48.434 4.108,48.679L4.398,48.698C4.695,48.718 4.991,48.737 5.292,48.737C5.557,48.737 5.818,48.72 6.079,48.703L6.368,48.685C8.831,48.559 11.221,48.009 13.453,47.067C12.74,48.527 11.787,49.864 10.615,51.036C8.315,53.337 5.378,54.794 2.121,55.252C1.408,55.352 0.694,55.403 0,55.403M-12.72,60.701C-15.972,60.701 -19.08,59.655 -21.707,57.675C-22.381,57.168 -23.006,56.612 -23.565,56.026C-26.006,53.46 -27.461,50.101 -27.662,46.569L-27.681,46.271C-27.693,46.087 -27.708,45.902 -27.708,45.714C-27.708,45.479 -27.69,45.248 -27.674,45.017L-27.657,44.761C-27.435,41.246 -25.968,37.908 -23.529,35.361C-22.767,34.566 -21.953,33.873 -21.108,33.3C-20.543,32.918 -19.958,32.576 -19.353,32.277C-20.369,34.69 -20.917,37.247 -20.985,39.895C-21.011,40.883 -20.97,41.858 -20.866,42.793C-20.38,47.137 -18.578,51.163 -15.654,54.435L-15.462,54.653C-15.267,54.877 -15.071,55.099 -14.858,55.312C-14.67,55.5 -14.474,55.673 -14.277,55.845L-14.06,56.036C-12.229,57.689 -10.15,58.99 -7.905,59.901C-9.443,60.429 -11.063,60.701 -12.72,60.701M-32.081,53.882C-33.54,53.168 -34.877,52.212 -36.053,51.036C-38.353,48.736 -39.811,45.799 -40.269,42.542C-40.387,41.704 -40.436,40.867 -40.415,40.053C-40.325,36.516 -38.98,33.116 -36.627,30.478L-36.43,30.254C-36.308,30.114 -36.187,29.972 -36.053,29.84C-35.888,29.674 -35.713,29.524 -35.539,29.373L-35.346,29.204C-32.699,26.872 -29.298,25.548 -25.768,25.474C-25.651,25.472 -25.536,25.471 -25.42,25.471C-24.443,25.471 -23.494,25.558 -22.598,25.731C-21.932,25.859 -21.28,26.031 -20.644,26.247C-23.073,27.235 -25.272,28.659 -27.195,30.488C-27.909,31.167 -28.57,31.885 -29.16,32.625C-31.882,36.039 -33.451,40.155 -33.697,44.529L-33.715,44.82C-33.735,45.116 -33.754,45.412 -33.754,45.714C-33.754,45.979 -33.738,46.241 -33.72,46.502L-33.702,46.79C-33.577,49.256 -33.026,51.648 -32.081,53.882M0.017,36.001C0.752,36.001 1.525,35.955 2.379,35.86C6.713,35.378 10.737,33.571 14.015,30.637L14.228,30.449C14.453,30.252 14.678,30.052 14.891,29.839C15.079,29.652 15.251,29.456 15.423,29.258L15.615,29.043C17.268,27.212 18.569,25.132 19.48,22.888C20.008,24.425 20.28,26.045 20.28,27.702C20.28,30.955 19.234,34.062 17.254,36.689C16.745,37.366 16.187,37.993 15.598,38.552C13.033,40.991 9.677,42.444 6.148,42.644L5.848,42.664C5.664,42.676 5.479,42.69 5.292,42.69C5.057,42.69 4.827,42.673 4.596,42.657L4.341,42.639C0.826,42.418 -2.513,40.951 -5.06,38.511C-5.854,37.75 -6.548,36.935 -7.121,36.091C-7.501,35.53 -7.841,34.947 -8.14,34.345C-5.729,35.363 -3.171,35.911 -0.516,35.977C-0.473,35.978 -0.431,35.981 -0.388,35.984C-0.253,35.994 -0.119,36.001 0.017,36.001M-44.919,32.516C-45.447,30.978 -45.718,29.359 -45.718,27.702C-45.718,24.449 -44.672,21.341 -42.693,18.715C-42.184,18.038 -41.626,17.412 -41.037,16.851C-38.472,14.413 -35.115,12.96 -31.586,12.759L-31.287,12.74C-31.102,12.728 -30.918,12.714 -30.731,12.714C-30.496,12.714 -30.265,12.731 -30.034,12.747L-29.779,12.764C-26.259,12.987 -22.918,14.456 -20.371,16.9C-19.576,17.663 -18.883,18.478 -18.311,19.322C-17.931,19.884 -17.591,20.466 -17.293,21.069C-19.707,20.052 -22.264,19.505 -24.913,19.436C-25.105,19.431 -25.298,19.429 -25.49,19.429C-26.277,19.429 -27.058,19.471 -27.81,19.556C-32.154,20.042 -36.18,21.843 -39.451,24.766L-39.668,24.958C-39.893,25.154 -40.116,25.35 -40.329,25.564C-40.517,25.752 -40.69,25.948 -40.862,26.145L-41.053,26.361C-42.706,28.192 -44.007,30.271 -44.919,32.516M-4.805,29.162C-2.376,28.174 -0.177,26.754 1.747,24.925C2.464,24.245 3.125,23.527 3.712,22.792C6.44,19.376 8.013,15.256 8.258,10.875L8.277,10.585C8.297,10.288 8.316,9.992 8.316,9.69C8.316,9.424 8.299,9.163 8.282,8.902L8.264,8.614C8.138,6.148 7.587,3.756 6.643,1.521C8.101,2.236 9.439,3.192 10.615,4.368C12.927,6.679 14.388,9.619 14.84,12.867C14.953,13.674 15.005,14.34 15.005,14.965C15.004,15.004 15.001,15.041 14.998,15.079C14.992,15.172 14.986,15.263 14.984,15.357C14.892,18.943 13.581,22.252 11.19,24.926L11.001,25.14C10.875,25.284 10.75,25.427 10.615,25.564C10.442,25.736 10.26,25.894 10.079,26.052L9.906,26.204C7.224,28.572 3.915,29.863 0.337,29.937C0.25,29.939 0.164,29.944 0.078,29.95L0.009,29.955C-0.93,29.954 -1.886,29.862 -2.833,29.68C-3.506,29.552 -4.164,29.379 -4.805,29.162M-38.892,8.338C-38.178,6.877 -37.225,5.54 -36.053,4.368C-33.741,2.055 -30.802,0.594 -27.554,0.142C-26.749,0.03 -26.082,-0.023 -25.456,-0.023C-25.418,-0.022 -25.38,-0.019 -25.342,-0.016C-25.25,-0.01 -25.158,-0.004 -25.064,-0.002C-21.479,0.09 -18.169,1.402 -15.496,3.793L-15.283,3.98C-15.139,4.106 -14.994,4.232 -14.857,4.369C-14.686,4.541 -14.528,4.723 -14.369,4.905L-14.218,5.077C-11.85,7.758 -10.559,11.068 -10.484,14.645C-10.482,14.732 -10.477,14.819 -10.471,14.906L-10.466,14.976C-10.467,15.907 -10.559,16.865 -10.74,17.814C-10.869,18.488 -11.042,19.147 -11.259,19.789C-12.247,17.359 -13.669,15.159 -15.497,13.235C-16.177,12.519 -16.895,11.858 -17.63,11.271C-21.045,8.543 -25.166,6.97 -29.546,6.724L-29.836,6.706C-30.133,6.685 -30.43,6.667 -30.731,6.667C-30.996,6.667 -31.257,6.683 -31.518,6.701L-31.807,6.718C-34.27,6.844 -36.66,7.394 -38.892,8.338M-17.521,-4.502C-15.987,-5.028 -14.372,-5.298 -12.72,-5.298C-9.472,-5.298 -6.368,-4.254 -3.743,-2.281C-3.064,-1.77 -2.436,-1.212 -1.875,-0.622C0.567,1.944 2.022,5.302 2.223,8.835L2.242,9.132C2.255,9.318 2.269,9.503 2.269,9.69C2.269,9.925 2.251,10.156 2.236,10.386L2.218,10.642C1.996,14.162 0.527,17.504 -1.918,20.05C-2.681,20.846 -3.496,21.54 -4.342,22.112C-4.899,22.489 -5.478,22.827 -6.076,23.123C-5.059,20.713 -4.51,18.153 -4.444,15.498C-4.443,15.457 -4.439,15.414 -4.437,15.372C-4.428,15.237 -4.42,15.102 -4.42,14.965C-4.42,14.23 -4.466,13.458 -4.562,12.603C-5.044,8.268 -6.851,4.244 -9.785,0.966L-9.975,0.752C-10.171,0.528 -10.369,0.304 -10.581,0.092C-10.77,-0.096 -10.966,-0.27 -11.163,-0.443L-11.378,-0.633C-13.208,-2.287 -15.283,-3.59 -17.521,-4.502M-12.72,-11.345C-17.883,-11.345 -22.808,-9.459 -26.672,-6.02C-31.839,-5.726 -36.664,-3.574 -40.329,0.091C-43.985,3.748 -46.134,8.568 -46.43,13.738C-49.876,17.603 -51.765,22.532 -51.765,27.702C-51.765,32.872 -49.876,37.8 -46.43,41.666C-46.134,46.836 -43.985,51.656 -40.33,55.312C-36.673,58.967 -31.853,61.117 -26.683,61.413C-22.818,64.859 -17.889,66.748 -12.72,66.748C-7.55,66.748 -2.621,64.859 1.245,61.413C6.415,61.117 11.236,58.967 14.891,55.312C18.546,51.656 20.695,46.836 20.992,41.666C24.438,37.8 26.327,32.872 26.327,27.702C26.327,22.532 24.438,17.603 20.992,13.738C20.695,8.568 18.546,3.748 14.891,0.091C11.226,-3.574 6.4,-5.726 1.233,-6.02C-2.631,-9.459 -7.556,-11.345 -12.72,-11.345M0,57.403C0.802,57.403 1.603,57.344 2.399,57.232C5.924,56.737 9.325,55.156 12.029,52.45C14.734,49.746 16.315,46.345 16.811,42.82C13.852,45.081 10.22,46.486 6.266,46.687C5.942,46.704 5.621,46.737 5.292,46.737C4.93,46.737 4.577,46.703 4.22,46.682C0.162,46.455 -3.559,44.965 -6.549,42.58C-7.236,42.032 -7.879,41.436 -8.484,40.8C-10.365,38.823 -11.823,36.447 -12.72,33.809C-13.108,32.667 -13.387,31.476 -13.553,30.248C-13.725,30.477 -13.902,30.705 -14.061,30.94C-15.361,32.867 -16.231,34.999 -16.655,37.203C-16.883,38.386 -16.972,39.59 -16.947,40.792C-16.867,44.686 -15.454,48.548 -12.718,51.651C-12.481,51.92 -12.252,52.193 -11.996,52.45C-11.764,52.682 -11.516,52.886 -11.274,53.102C-8.179,55.863 -4.318,57.298 -0.419,57.397C-0.279,57.401 -0.14,57.403 0,57.403M-12.72,62.701C-8.894,62.701 -5.372,61.415 -2.529,59.273C-6.219,58.779 -9.781,57.204 -12.72,54.551C-12.961,54.334 -13.211,54.131 -13.444,53.898C-13.699,53.642 -13.924,53.369 -14.163,53.102C-16.875,50.068 -18.453,46.377 -18.878,42.57C-18.976,41.699 -19.008,40.823 -18.986,39.947C-18.917,37.226 -18.268,34.523 -17.042,32.029C-16.508,30.943 -15.863,29.902 -15.109,28.914C-15.389,28.954 -15.67,28.989 -15.945,29.042C-18.235,29.484 -20.366,30.381 -22.23,31.645C-23.228,32.322 -24.141,33.11 -24.973,33.977C-27.665,36.787 -29.392,40.511 -29.653,44.635C-29.675,44.994 -29.708,45.349 -29.708,45.714C-29.708,46.041 -29.677,46.36 -29.659,46.682C-29.423,50.828 -27.705,54.576 -25.014,57.404C-24.366,58.085 -23.662,58.707 -22.911,59.273C-20.068,61.415 -16.545,62.701 -12.72,62.701M-27.83,57.242C-30.095,54.281 -31.503,50.645 -31.705,46.687C-31.721,46.363 -31.754,46.043 -31.754,45.714C-31.754,45.351 -31.72,44.998 -31.7,44.641C-31.472,40.584 -29.981,36.863 -27.596,33.872C-27.048,33.185 -26.453,32.542 -25.817,31.937C-23.84,30.056 -21.465,28.599 -18.828,27.702C-17.684,27.313 -16.494,27.035 -15.266,26.869C-15.495,26.697 -15.722,26.52 -15.958,26.361C-17.884,25.06 -20.016,24.191 -22.22,23.767C-23.276,23.563 -24.348,23.471 -25.42,23.471C-25.549,23.471 -25.679,23.472 -25.809,23.475C-29.703,23.555 -33.564,24.968 -36.668,27.703C-36.937,27.94 -37.21,28.169 -37.467,28.425C-37.699,28.657 -37.904,28.905 -38.12,29.147C-40.881,32.242 -42.315,36.103 -42.415,40.003C-42.438,40.944 -42.381,41.885 -42.25,42.82C-41.753,46.345 -40.172,49.746 -37.467,52.45C-34.827,55.091 -31.465,56.736 -27.83,57.242M0.017,34.001C-0.146,34.001 -0.305,33.981 -0.466,33.977C-3.258,33.908 -5.945,33.239 -8.388,32.033C-9.483,31.493 -10.526,30.844 -11.508,30.093C-11.468,30.372 -11.434,30.652 -11.381,30.925C-10.938,33.217 -10.042,35.348 -8.776,37.214C-8.099,38.212 -7.311,39.124 -6.444,39.956C-3.634,42.647 0.091,44.375 4.214,44.635C4.573,44.658 4.928,44.69 5.292,44.69C5.62,44.69 5.939,44.66 6.261,44.641C10.404,44.406 14.148,42.69 16.976,40.003C17.659,39.353 18.284,38.647 18.852,37.893C20.994,35.049 22.28,31.527 22.28,27.702C22.28,23.877 20.994,20.354 18.852,17.511C18.358,21.202 16.783,24.763 14.13,27.702C13.913,27.943 13.709,28.193 13.477,28.425C13.222,28.68 12.948,28.908 12.681,29.147C9.722,31.796 6.078,33.435 2.158,33.872C1.451,33.951 0.738,34.001 0.017,34.001M-44.291,37.893C-43.796,34.202 -42.221,30.64 -39.569,27.702C-39.351,27.461 -39.147,27.211 -38.915,26.978C-38.659,26.722 -38.385,26.497 -38.118,26.257C-35.084,23.547 -31.394,21.969 -27.588,21.544C-26.891,21.465 -26.191,21.429 -25.49,21.429C-25.315,21.429 -25.14,21.431 -24.964,21.436C-22.24,21.506 -19.534,22.155 -17.038,23.383C-15.956,23.917 -14.917,24.561 -13.931,25.312C-13.971,25.028 -14.007,24.743 -14.061,24.463C-14.503,22.181 -15.396,20.059 -16.655,18.201C-17.331,17.203 -18.119,16.289 -18.986,15.457C-21.796,12.76 -25.525,11.029 -29.653,10.768C-30.011,10.746 -30.367,10.714 -30.731,10.714C-31.058,10.714 -31.377,10.745 -31.7,10.762C-35.842,10.998 -39.587,12.714 -42.415,15.401C-43.098,16.05 -43.722,16.757 -44.291,17.511C-46.432,20.354 -47.718,23.877 -47.718,27.702C-47.718,31.527 -46.432,35.049 -44.291,37.893M0.017,31.955C0.139,31.955 0.257,31.939 0.378,31.937C4.419,31.852 8.217,30.363 11.23,27.703C11.499,27.466 11.773,27.234 12.029,26.978C12.259,26.748 12.465,26.501 12.681,26.259C15.367,23.254 16.88,19.455 16.983,15.408C16.987,15.259 17.005,15.114 17.005,14.965C17.005,14.163 16.93,13.373 16.821,12.591C16.315,8.956 14.669,5.594 12.029,2.954C9.388,0.313 6.027,-1.332 2.391,-1.839C4.656,1.122 6.065,4.758 6.266,8.716C6.283,9.041 6.316,9.362 6.316,9.69C6.316,10.052 6.281,10.406 6.261,10.762C6.034,14.826 4.54,18.55 2.149,21.544C1.602,22.229 1.005,22.872 0.37,23.475C-1.606,25.352 -3.978,26.806 -6.612,27.702C-7.755,28.091 -8.947,28.37 -10.176,28.536C-9.95,28.706 -9.728,28.883 -9.495,29.042C-7.595,30.332 -5.464,31.214 -3.209,31.645C-2.157,31.846 -1.079,31.955 0.017,31.955M-42.25,12.584C-39.29,10.323 -35.658,8.918 -31.705,8.716C-31.38,8.7 -31.06,8.667 -30.731,8.667C-30.369,8.667 -30.015,8.701 -29.659,8.721C-25.596,8.95 -21.871,10.443 -18.878,12.834C-18.193,13.382 -17.551,13.977 -16.947,14.612C-15.07,16.588 -13.616,18.961 -12.72,21.594C-12.331,22.739 -12.052,23.93 -11.887,25.159C-11.716,24.933 -11.539,24.712 -11.381,24.478C-10.09,22.578 -9.208,20.446 -8.776,18.19C-8.575,17.138 -8.467,16.06 -8.467,14.965C-8.467,14.844 -8.482,14.725 -8.484,14.603C-8.569,10.564 -10.059,6.765 -12.718,3.754C-12.956,3.484 -13.187,3.21 -13.444,2.954C-13.674,2.723 -13.921,2.517 -14.163,2.301C-17.167,-0.385 -20.966,-1.898 -25.013,-2.001C-25.162,-2.005 -25.307,-2.023 -25.456,-2.023C-26.258,-2.023 -27.048,-1.948 -27.83,-1.839C-31.465,-1.332 -34.827,0.313 -37.467,2.954C-40.172,5.659 -41.753,9.059 -42.25,12.584M-10.328,26.49C-10.044,26.45 -9.759,26.415 -9.48,26.36C-7.2,25.918 -5.079,25.026 -3.221,23.768C-2.222,23.091 -1.307,22.303 -0.475,21.436C2.222,18.626 3.954,14.896 4.214,10.768C4.237,10.41 4.269,10.054 4.269,9.69C4.269,9.363 4.238,9.044 4.22,8.721C3.984,4.576 2.266,0.828 -0.426,-2.001C-1.077,-2.685 -1.785,-3.31 -2.541,-3.878C-5.382,-6.015 -8.899,-7.298 -12.72,-7.298C-16.54,-7.298 -20.058,-6.015 -22.898,-3.878C-19.105,-3.371 -15.586,-1.742 -12.72,0.849C-12.478,1.068 -12.228,1.274 -11.996,1.507C-11.742,1.76 -11.514,2.034 -11.275,2.3C-8.626,5.259 -6.986,8.904 -6.549,12.825C-6.47,13.531 -6.42,14.244 -6.42,14.965C-6.42,15.128 -6.439,15.287 -6.444,15.448C-6.513,18.245 -7.184,20.934 -8.392,23.38C-8.932,24.471 -9.579,25.511 -10.328,26.49M-12.72,-9.345C-7.625,-9.345 -3.001,-7.321 0.419,-4.05C5.352,-3.948 9.977,-1.993 13.477,1.507C17.083,5.112 18.921,9.818 19.023,14.553C22.3,17.974 24.327,22.602 24.327,27.702C24.327,32.801 22.3,37.429 19.023,40.85C18.921,45.587 17.083,50.292 13.477,53.898C9.871,57.504 5.165,59.342 0.429,59.444C-2.992,62.72 -7.62,64.748 -12.72,64.748C-17.82,64.748 -22.447,62.72 -25.868,59.444C-30.604,59.342 -35.308,57.504 -38.915,53.898C-42.521,50.292 -44.36,45.587 -44.461,40.85C-47.738,37.429 -49.765,32.801 -49.765,27.702C-49.765,22.602 -47.738,17.974 -44.461,14.553C-44.36,9.818 -42.521,5.112 -38.915,1.507C-35.415,-1.993 -30.79,-3.948 -25.857,-4.05C-22.438,-7.321 -17.815,-9.345 -12.72,-9.345" style="fill:rgb(117,13,26);fill-rule:nonzero;"/>
            </g>
        </g>
        <g transform="matrix(1,0,0,1,895.226,0)">
            <g transform="matrix(1,0,0,1,182.037,335.134)">
                <path d="M0,-26.948C3.793,-26.441 7.312,-24.811 10.179,-22.22C10.42,-22.002 10.67,-21.796 10.902,-21.563C11.157,-21.309 11.384,-21.036 11.623,-20.769C14.272,-17.81 15.913,-14.166 16.349,-10.245C16.428,-9.539 16.479,-8.826 16.479,-8.104C16.479,-7.942 16.459,-7.783 16.455,-7.622C16.385,-4.825 15.715,-2.136 14.506,0.31C13.966,1.402 13.319,2.442 12.57,3.42C12.854,3.38 13.139,3.345 13.418,3.29C15.698,2.848 17.819,1.956 19.678,0.698C20.677,0.022 21.591,-0.766 22.423,-1.634C25.12,-4.444 26.852,-8.174 27.113,-12.302C27.135,-12.66 27.167,-13.015 27.167,-13.38C27.167,-13.707 27.137,-14.026 27.118,-14.348C26.883,-18.494 25.164,-22.242 22.473,-25.071C21.822,-25.755 21.113,-26.38 20.358,-26.948C17.517,-29.085 13.999,-30.368 10.179,-30.368C6.358,-30.368 2.841,-29.085 0,-26.948" style="fill:rgb(193,39,45);fill-rule:nonzero;"/>
            </g>
        </g>
        <g transform="matrix(1,0,0,1,895.226,0)">
            <g transform="matrix(1,0,0,1,173.23,326.484)">
                <path d="M0,-5.703C0.325,-5.72 0.646,-5.753 0.974,-5.753C1.336,-5.753 1.689,-5.719 2.046,-5.698C6.109,-5.47 9.834,-3.976 12.827,-1.586C13.512,-1.038 14.154,-0.442 14.758,0.193C16.635,2.168 18.089,4.541 18.985,7.175C19.374,8.319 19.653,9.511 19.818,10.739C19.989,10.514 20.166,10.292 20.324,10.059C21.615,8.158 22.498,6.026 22.929,3.771C23.13,2.719 23.238,1.641 23.238,0.546C23.238,0.425 23.223,0.306 23.221,0.184C23.136,-3.855 21.646,-7.654 18.987,-10.666C18.749,-10.935 18.518,-11.21 18.261,-11.466C18.031,-11.696 17.784,-11.902 17.542,-12.118C14.538,-14.805 10.738,-16.317 6.692,-16.421C6.543,-16.425 6.398,-16.442 6.25,-16.442C5.446,-16.442 4.657,-16.367 3.875,-16.259C0.24,-15.752 -3.122,-14.106 -5.762,-11.466C-8.468,-8.761 -10.049,-5.36 -10.544,-1.836C-7.585,-4.097 -3.953,-5.502 0,-5.703" style="fill:rgb(193,39,45);fill-rule:nonzero;"/>
            </g>
        </g>
        <g transform="matrix(1,0,0,1,895.226,0)">
            <g transform="matrix(1,0,0,1,160.645,322.777)">
                <path d="M0,27.18C0.495,23.489 2.069,19.927 4.722,16.989C4.939,16.747 5.143,16.497 5.375,16.265C5.631,16.009 5.906,15.784 6.172,15.544C9.206,12.833 12.896,11.256 16.703,10.83C17.575,10.733 18.45,10.701 19.326,10.723C22.05,10.792 24.756,11.442 27.252,12.67C28.335,13.203 29.374,13.848 30.359,14.599C30.319,14.315 30.283,14.03 30.229,13.749C29.787,11.468 28.894,9.346 27.635,7.488C26.959,6.49 26.171,5.576 25.304,4.743C22.495,2.047 18.766,0.316 14.638,0.055C14.279,0.033 13.923,0 13.56,0C13.232,0 12.913,0.032 12.591,0.049C8.449,0.284 4.704,2 1.876,4.688C1.193,5.337 0.568,6.044 0,6.798C-2.142,9.641 -3.428,13.163 -3.428,16.989C-3.428,20.814 -2.142,24.336 0,27.18" style="fill:rgb(193,39,45);fill-rule:nonzero;"/>
            </g>
        </g>
        <g transform="matrix(1,0,0,1,895.226,0)">
            <g transform="matrix(1,0,0,1,173.181,347.042)">
                <path d="M0,10.736C0,10.374 0.035,10.02 0.055,9.664C0.282,5.606 1.773,1.885 4.158,-1.106C4.706,-1.792 5.301,-2.436 5.937,-3.04C7.914,-4.921 10.29,-6.378 12.927,-7.276C14.07,-7.664 15.26,-7.943 16.489,-8.109C16.259,-8.281 16.032,-8.457 15.796,-8.617C13.87,-9.917 11.738,-10.786 9.535,-11.21C8.351,-11.439 7.147,-11.528 5.945,-11.502C2.051,-11.422 -1.81,-10.009 -4.914,-7.275C-5.183,-7.037 -5.457,-6.809 -5.713,-6.552C-5.945,-6.321 -6.149,-6.073 -6.365,-5.83C-9.126,-2.736 -10.561,1.126 -10.66,5.025C-10.684,5.966 -10.626,6.908 -10.495,7.842C-10,11.368 -8.418,14.768 -5.713,17.472C-3.072,20.113 0.289,21.758 3.924,22.264C1.66,19.303 0.251,15.668 0.049,11.71C0.033,11.385 0,11.065 0,10.736" style="fill:rgb(193,39,45);fill-rule:nonzero;"/>
            </g>
        </g>
        <g transform="matrix(1,0,0,1,895.226,0)">
            <g transform="matrix(1,0,0,1,192.215,349.127)">
                <path d="M0,17.489C-0.242,17.271 -0.491,17.068 -0.724,16.836C-0.979,16.58 -1.205,16.306 -1.443,16.04C-4.155,13.006 -5.733,9.314 -6.159,5.508C-6.256,4.636 -6.289,3.76 -6.267,2.885C-6.197,0.164 -5.549,-2.539 -4.322,-5.033C-3.789,-6.119 -3.143,-7.16 -2.39,-8.149C-2.669,-8.109 -2.95,-8.073 -3.225,-8.021C-5.516,-7.578 -7.646,-6.682 -9.511,-5.417C-10.509,-4.74 -11.421,-3.952 -12.253,-3.085C-14.945,-0.276 -16.672,3.449 -16.933,7.573C-16.956,7.931 -16.988,8.287 -16.988,8.651C-16.988,8.978 -16.957,9.298 -16.939,9.62C-16.703,13.765 -14.985,17.513 -12.294,20.342C-11.646,21.022 -10.942,21.644 -10.191,22.211C-7.348,24.352 -3.826,25.638 0,25.638C3.826,25.638 7.348,24.352 10.191,22.211C6.5,21.717 2.938,20.141 0,17.489" style="fill:rgb(193,39,45);fill-rule:nonzero;"/>
            </g>
        </g>
        <g transform="matrix(1,0,0,1,895.226,0)">
            <g transform="matrix(1,0,0,1,211.201,353.046)">
                <path d="M0,5.705C-0.325,5.722 -0.645,5.755 -0.974,5.755C-1.336,5.755 -1.689,5.721 -2.046,5.7C-6.104,5.473 -9.825,3.982 -12.815,1.598C-13.502,1.05 -14.146,0.454 -14.75,-0.182C-16.631,-2.159 -18.089,-4.535 -18.986,-7.173C-19.375,-8.316 -19.653,-9.506 -19.819,-10.734C-19.991,-10.505 -20.168,-10.277 -20.327,-10.042C-21.627,-8.115 -22.497,-5.983 -22.921,-3.779C-23.149,-2.596 -23.238,-1.393 -23.213,-0.191C-23.133,3.704 -21.72,7.565 -18.984,10.669C-18.748,10.937 -18.519,11.211 -18.262,11.468C-18.03,11.7 -17.782,11.904 -17.541,12.12C-14.445,14.881 -10.584,16.315 -6.685,16.415C-5.743,16.439 -4.802,16.382 -3.867,16.25C-0.342,15.755 3.058,14.174 5.763,11.468C8.468,8.764 10.049,5.363 10.544,1.838C7.585,4.099 3.954,5.504 0,5.705" style="fill:rgb(193,39,45);fill-rule:nonzero;"/>
            </g>
        </g>
        <g transform="matrix(1,0,0,1,895.226,0)">
            <g transform="matrix(1,0,0,1,223.787,356.755)">
                <path d="M0,-27.179C-0.494,-23.489 -2.068,-19.927 -4.721,-16.989C-4.939,-16.747 -5.143,-16.497 -5.375,-16.265C-5.63,-16.01 -5.904,-15.783 -6.17,-15.543C-9.13,-12.895 -12.774,-11.255 -16.694,-10.819C-17.4,-10.74 -18.113,-10.69 -18.834,-10.69C-18.997,-10.69 -19.156,-10.709 -19.318,-10.713C-22.11,-10.783 -24.797,-11.451 -27.24,-12.658C-28.335,-13.198 -29.378,-13.846 -30.36,-14.597C-30.32,-14.319 -30.285,-14.038 -30.232,-13.765C-29.79,-11.473 -28.893,-9.342 -27.627,-7.477C-26.951,-6.479 -26.163,-5.567 -25.295,-4.735C-22.486,-2.043 -18.761,-0.316 -14.637,-0.055C-14.279,-0.033 -13.923,0 -13.559,0C-13.232,0 -12.913,-0.031 -12.59,-0.049C-8.448,-0.284 -4.703,-2 -1.875,-4.688C-1.192,-5.337 -0.568,-6.043 0,-6.797C2.142,-9.641 3.428,-13.163 3.428,-16.989C3.428,-20.814 2.142,-24.336 0,-27.179" style="fill:rgb(193,39,45);fill-rule:nonzero;"/>
            </g>
        </g>
        <g transform="matrix(1,0,0,1,895.226,0)">
            <g transform="matrix(1,0,0,1,211.251,332.49)">
                <path d="M0,-10.736C0,-10.374 -0.034,-10.02 -0.054,-9.664C-0.282,-5.6 -1.776,-1.876 -4.166,1.118C-4.714,1.803 -5.311,2.446 -5.946,3.049C-7.921,4.926 -10.293,6.38 -12.927,7.276C-14.071,7.665 -15.263,7.944 -16.492,8.11C-16.266,8.28 -16.043,8.457 -15.81,8.616C-13.91,9.906 -11.78,10.787 -9.524,11.219C-8.472,11.42 -7.394,11.529 -6.298,11.529C-6.177,11.529 -6.058,11.513 -5.937,11.511C-1.896,11.426 1.901,9.937 4.914,7.277C5.184,7.039 5.458,6.808 5.713,6.552C5.944,6.322 6.15,6.075 6.366,5.833C9.052,2.827 10.564,-0.971 10.668,-5.018C10.671,-5.167 10.689,-5.312 10.689,-5.461C10.689,-6.263 10.614,-7.053 10.505,-7.835C9.999,-11.47 8.354,-14.832 5.713,-17.472C3.073,-20.113 -0.289,-21.758 -3.924,-22.265C-1.659,-19.304 -0.251,-15.668 -0.049,-11.71C-0.033,-11.385 0,-11.064 0,-10.736" style="fill:rgb(193,39,45);fill-rule:nonzero;"/>
            </g>
        </g>
        <g transform="matrix(1,0,0,1,895.226,0)">
            <g transform="matrix(1,0,0,1,221.911,327.464)">
                <path d="M0,24.603C-2.828,27.291 -6.573,29.006 -10.715,29.242C-11.037,29.26 -11.357,29.29 -11.684,29.29C-12.048,29.29 -12.403,29.258 -12.762,29.236C-16.885,28.975 -20.61,27.248 -23.42,24.556C-24.287,23.724 -25.075,22.812 -25.752,21.814C-27.018,19.949 -27.915,17.818 -28.357,15.526C-28.41,15.252 -28.445,14.972 -28.484,14.694C-27.502,15.445 -26.459,16.093 -25.364,16.633C-22.921,17.839 -20.235,18.508 -17.442,18.578C-17.281,18.582 -17.122,18.601 -16.959,18.601C-16.238,18.601 -15.525,18.551 -14.818,18.472C-10.898,18.036 -7.254,16.396 -4.295,13.748C-4.029,13.508 -3.754,13.281 -3.5,13.026C-3.267,12.793 -3.063,12.543 -2.846,12.302C-0.193,9.364 1.381,5.802 1.875,2.112C4.018,4.955 5.304,8.477 5.304,12.302C5.304,16.127 4.018,19.65 1.875,22.494C1.308,23.248 0.683,23.954 0,24.603M-39.887,43.874C-40.638,43.307 -41.342,42.685 -41.99,42.004C-44.681,39.176 -46.399,35.428 -46.635,31.283C-46.653,30.96 -46.684,30.641 -46.684,30.314C-46.684,29.95 -46.652,29.594 -46.629,29.236C-46.368,25.112 -44.641,21.387 -41.949,18.578C-41.117,17.71 -40.205,16.922 -39.207,16.246C-37.342,14.981 -35.211,14.084 -32.921,13.642C-32.646,13.589 -32.365,13.554 -32.085,13.514C-32.839,14.502 -33.484,15.543 -34.018,16.629C-35.245,19.124 -35.893,21.827 -35.962,24.547C-35.984,25.423 -35.952,26.299 -35.854,27.17C-35.429,30.977 -33.851,34.668 -31.139,37.703C-30.901,37.969 -30.675,38.243 -30.42,38.499C-30.187,38.731 -29.937,38.934 -29.696,39.152C-26.757,41.804 -23.195,43.379 -19.505,43.874C-22.348,46.015 -25.87,47.301 -29.696,47.301C-33.521,47.301 -37.044,46.015 -39.887,43.874M-59.391,0.001C-56.563,-2.686 -52.818,-4.402 -48.676,-4.637C-48.354,-4.655 -48.034,-4.686 -47.707,-4.686C-47.343,-4.686 -46.987,-4.654 -46.629,-4.631C-42.501,-4.371 -38.772,-2.639 -35.962,0.057C-35.095,0.889 -34.307,1.803 -33.631,2.801C-32.373,4.66 -31.48,6.782 -31.037,9.063C-30.983,9.343 -30.948,9.628 -30.907,9.913C-31.893,9.162 -32.932,8.517 -34.014,7.984C-36.51,6.755 -39.216,6.106 -41.94,6.037C-42.816,6.014 -43.692,6.046 -44.564,6.144C-48.371,6.57 -52.061,8.147 -55.094,10.858C-55.361,11.097 -55.635,11.323 -55.891,11.579C-56.124,11.811 -56.327,12.061 -56.545,12.302C-59.198,15.241 -60.772,18.802 -61.267,22.494C-63.408,19.65 -64.695,16.127 -64.695,12.302C-64.695,8.477 -63.409,4.955 -61.267,2.112C-60.698,1.358 -60.074,0.651 -59.391,0.001M-17.402,-17.401C-14.71,-14.572 -12.992,-10.824 -12.756,-6.678C-12.738,-6.356 -12.707,-6.037 -12.707,-5.709C-12.707,-5.345 -12.739,-4.99 -12.762,-4.631C-13.023,-0.503 -14.754,3.226 -17.451,6.037C-18.284,6.904 -19.198,7.692 -20.197,8.369C-22.055,9.626 -24.176,10.518 -26.457,10.96C-26.735,11.015 -27.021,11.05 -27.304,11.09C-26.555,10.112 -25.908,9.072 -25.368,7.98C-24.16,5.535 -23.489,2.845 -23.42,0.048C-23.416,-0.113 -23.396,-0.272 -23.396,-0.434C-23.396,-1.156 -23.447,-1.869 -23.525,-2.575C-23.962,-6.496 -25.603,-10.14 -28.251,-13.099C-28.49,-13.366 -28.718,-13.639 -28.972,-13.893C-29.204,-14.126 -29.455,-14.332 -29.696,-14.55C-32.563,-17.141 -36.082,-18.771 -39.875,-19.278C-37.034,-21.415 -33.516,-22.698 -29.696,-22.698C-25.875,-22.698 -22.358,-21.415 -19.517,-19.278C-18.761,-18.71 -18.053,-18.085 -17.402,-17.401M-4.947,-12.446C-2.307,-9.805 -0.662,-6.444 -0.155,-2.808C-0.046,-2.027 0.029,-1.237 0.029,-0.434C0.029,-0.286 0.011,-0.14 0.007,0.008C-0.096,4.055 -1.609,7.854 -4.295,10.86C-4.511,11.101 -4.717,11.348 -4.947,11.579C-5.203,11.834 -5.477,12.066 -5.747,12.303C-8.759,14.963 -12.557,16.453 -16.598,16.538C-16.719,16.54 -16.837,16.555 -16.959,16.555C-18.055,16.555 -19.133,16.447 -20.185,16.246C-22.44,15.814 -24.571,14.932 -26.471,13.642C-26.704,13.484 -26.926,13.306 -27.152,13.136C-25.923,12.97 -24.731,12.692 -23.588,12.302C-20.954,11.407 -18.582,9.953 -16.607,8.076C-15.971,7.472 -15.375,6.83 -14.827,6.144C-12.437,3.151 -10.943,-0.574 -10.715,-4.637C-10.695,-4.994 -10.661,-5.347 -10.661,-5.709C-10.661,-6.038 -10.693,-6.359 -10.71,-6.683C-10.912,-10.641 -12.32,-14.278 -14.585,-17.239C-10.95,-16.732 -7.588,-15.086 -4.947,-12.446M-44.806,-17.239C-44.024,-17.347 -43.235,-17.422 -42.432,-17.422C-42.283,-17.422 -42.138,-17.405 -41.989,-17.401C-37.943,-17.297 -34.144,-15.785 -31.139,-13.098C-30.897,-12.882 -30.65,-12.676 -30.42,-12.446C-30.164,-12.19 -29.932,-11.916 -29.694,-11.646C-27.035,-8.634 -25.545,-4.835 -25.46,-0.796C-25.458,-0.674 -25.443,-0.555 -25.443,-0.434C-25.443,0.661 -25.551,1.739 -25.752,2.791C-26.184,5.046 -27.066,7.178 -28.357,9.079C-28.515,9.312 -28.692,9.534 -28.863,9.759C-29.028,8.531 -29.307,7.339 -29.696,6.195C-30.592,3.561 -32.046,1.188 -33.923,-0.788C-34.527,-1.422 -35.169,-2.018 -35.854,-2.566C-38.847,-4.957 -42.572,-6.45 -46.635,-6.678C-46.992,-6.699 -47.345,-6.733 -47.707,-6.733C-48.036,-6.733 -48.356,-6.7 -48.681,-6.683C-52.634,-6.482 -56.266,-5.077 -59.226,-2.816C-58.73,-6.34 -57.149,-9.741 -54.443,-12.446C-51.803,-15.086 -48.441,-16.732 -44.806,-17.239M-54.443,37.05C-57.149,34.346 -58.73,30.946 -59.226,27.42C-59.357,26.486 -59.415,25.544 -59.391,24.603C-59.292,20.704 -57.857,16.842 -55.096,13.748C-54.88,13.505 -54.675,13.257 -54.443,13.026C-54.187,12.769 -53.913,12.54 -53.644,12.303C-50.541,9.569 -46.679,8.156 -42.785,8.076C-41.583,8.05 -40.38,8.139 -39.196,8.368C-36.992,8.791 -34.86,9.661 -32.935,10.961C-32.699,11.121 -32.471,11.297 -32.242,11.469C-33.47,11.635 -34.661,11.914 -35.804,12.302C-38.441,13.2 -40.816,14.657 -42.793,16.538C-43.429,17.142 -44.024,17.786 -44.572,18.472C-46.958,21.463 -48.448,25.184 -48.676,29.242C-48.696,29.598 -48.73,29.952 -48.73,30.314C-48.73,30.643 -48.698,30.963 -48.681,31.288C-48.479,35.246 -47.071,38.881 -44.806,41.842C-48.441,41.336 -51.803,39.691 -54.443,37.05M-14.577,41.832C-15.512,41.964 -16.453,42.022 -17.395,41.998C-21.294,41.898 -25.155,40.463 -28.25,37.703C-28.492,37.487 -28.74,37.283 -28.972,37.05C-29.229,36.793 -29.458,36.52 -29.694,36.251C-32.43,33.148 -33.843,29.287 -33.923,25.392C-33.948,24.19 -33.859,22.987 -33.631,21.803C-33.207,19.599 -32.337,17.467 -31.037,15.54C-30.878,15.305 -30.701,15.078 -30.529,14.848C-30.363,16.077 -30.084,17.267 -29.696,18.41C-28.799,21.047 -27.341,23.423 -25.46,25.401C-24.856,26.037 -24.212,26.632 -23.525,27.18C-20.535,29.565 -16.814,31.055 -12.756,31.283C-12.399,31.303 -12.046,31.337 -11.684,31.337C-11.355,31.337 -11.035,31.304 -10.71,31.288C-6.756,31.086 -3.125,29.681 -0.166,27.42C-0.661,30.946 -2.242,34.346 -4.947,37.05C-7.652,39.756 -11.052,41.337 -14.577,41.832M2.046,-0.846C1.945,-5.582 0.106,-10.288 -3.5,-13.893C-7,-17.393 -11.625,-19.347 -16.557,-19.45C-19.977,-22.72 -24.601,-24.745 -29.696,-24.745C-34.791,-24.745 -39.414,-22.72 -42.833,-19.45C-47.766,-19.347 -52.391,-17.393 -55.891,-13.893C-59.497,-10.288 -61.336,-5.582 -61.438,-0.846C-64.714,2.575 -66.741,7.203 -66.741,12.302C-66.741,17.402 -64.714,22.03 -61.438,25.451C-61.336,30.187 -59.497,34.892 -55.891,38.499C-52.284,42.104 -47.58,43.943 -42.844,44.044C-39.423,47.321 -34.796,49.348 -29.696,49.348C-24.596,49.348 -19.968,47.321 -16.547,44.044C-11.811,43.943 -7.105,42.104 -3.5,38.499C0.106,34.892 1.945,30.187 2.046,25.451C5.324,22.03 7.351,17.402 7.351,12.302C7.351,7.203 5.324,2.575 2.046,-0.846" style="fill:rgb(117,13,26);fill-rule:nonzero;"/>
            </g>
        </g>
        <g transform="matrix(1,0,0,1,895.226,0)">
            <g opacity="0.4">
                <g transform="matrix(0,-1,-1,0,198.2,321.474)">
                    <path d="M-5.742,-5.742C-12.084,-5.742 -17.226,-0.6 -17.226,5.742C-17.226,5.742 -16.363,1.479 -5.742,1.479C3.563,1.479 5.742,5.742 5.742,5.742C5.742,-0.6 0.601,-5.742 -5.742,-5.742" style="fill:rgb(117,13,26);fill-rule:nonzero;"/>
                </g>
            </g>
        </g>
        <g transform="matrix(1,0,0,1,895.226,0)">
            <g opacity="0.3">
                <g transform="matrix(1,0,0,1,208.204,304.767)">
                    <path d="M0,17.979C-0.552,17.979 -1,17.531 -1,16.979C-1,8.719 -7.72,2 -15.979,2C-16.531,2 -16.979,1.551 -16.979,1C-16.979,0.448 -16.531,0 -15.979,0C-6.617,0 1,7.616 1,16.979C1,17.531 0.552,17.979 0,17.979" style="fill:white;fill-rule:nonzero;"/>
                </g>
            </g>
        </g>
        <g transform="matrix(1,0,0,1,895.226,0)">
            <g opacity="0.3">
                <g transform="matrix(0.625489,0.780233,0.780233,-0.625489,187.843,305.964)">
                    <path d="M0.779,-0.374C0.227,-0.374 -0.22,0.073 -0.219,0.625C-0.219,1.176 0.227,1.623 0.779,1.623C1.331,1.623 1.777,1.175 1.777,0.624C1.777,0.073 1.33,-0.374 0.779,-0.374" style="fill:white;fill-rule:nonzero;"/>
                </g>
            </g>
        </g>
        <g transform="matrix(1,0,0,1,895.226,0)">
            <g opacity="0.4">
                <g transform="matrix(-0.648603,-0.761127,-0.761127,0.648603,177.847,327.925)">
                    <path d="M-5.758,-13.591C-12.099,-13.666 -17.302,-8.586 -17.377,-2.243C-17.377,-2.243 -16.379,-7.275 -5.758,-7.148C3.546,-7.039 5.588,-1.972 5.588,-1.972C5.664,-8.314 0.582,-13.516 -5.758,-13.591" style="fill:rgb(117,13,26);fill-rule:nonzero;"/>
                </g>
            </g>
        </g>
        <g transform="matrix(1,0,0,1,895.226,0)">
            <g opacity="0.3">
                <g transform="matrix(1,0,0,1,191.542,309.836)">
                    <path d="M0,7.732C-0.279,7.732 -0.556,7.617 -0.754,7.39C-3.385,4.375 -7.032,2.566 -11.024,2.295C-15.017,2.025 -18.874,3.324 -21.888,5.955C-22.304,6.318 -22.936,6.275 -23.299,5.859C-23.663,5.443 -23.62,4.811 -23.204,4.448C-19.787,1.466 -15.414,0 -10.888,0.299C-6.363,0.607 -2.229,2.658 0.753,6.074C1.116,6.49 1.073,7.123 0.657,7.486C0.467,7.651 0.233,7.732 0,7.732" style="fill:white;fill-rule:nonzero;"/>
                </g>
            </g>
        </g>
        <g transform="matrix(1,0,0,1,895.226,0)">
            <g opacity="0.3">
                <g transform="matrix(0.984244,0.176813,0.176813,-0.984244,166.353,318.526)">
                    <path d="M0.176,-0.016C-0.375,-0.015 -0.822,0.431 -0.822,0.983C-0.822,1.534 -0.375,1.981 0.176,1.981C0.728,1.981 1.174,1.534 1.175,0.984C1.175,0.432 0.727,-0.016 0.176,-0.016" style="fill:white;fill-rule:nonzero;"/>
                </g>
            </g>
        </g>
        <g transform="matrix(1,0,0,1,895.226,0)">
            <g opacity="0.4">
                <g transform="matrix(-0.996825,-0.079628,-0.079628,0.996825,178.902,340.244)">
                    <path d="M-0.654,-11.831C-6.996,-11.906 -12.198,-6.826 -12.275,-0.485C-12.275,-0.485 -11.274,-5.515 -0.654,-5.389C8.649,-5.277 10.692,-0.211 10.692,-0.211C10.768,-6.553 5.688,-11.756 -0.654,-11.831" style="fill:rgb(117,13,26);fill-rule:nonzero;"/>
                </g>
            </g>
        </g>
        <g transform="matrix(1,0,0,1,895.226,0)">
            <g opacity="0.3">
                <g transform="matrix(1,0,0,1,158.303,322.242)">
                    <path d="M0,17.496C-0.023,17.496 -0.046,17.496 -0.069,17.494C-0.62,17.457 -1.036,16.979 -0.999,16.428C-0.364,7.088 7.753,0 17.092,0.639C17.643,0.676 18.059,1.153 18.021,1.705C17.984,2.256 17.511,2.669 16.956,2.635C8.722,2.086 1.556,8.324 0.997,16.564C0.961,17.092 0.521,17.496 0,17.496" style="fill:white;fill-rule:nonzero;"/>
                </g>
            </g>
        </g>
        <g transform="matrix(1,0,0,1,895.226,0)">
            <g opacity="0.3">
                <g transform="matrix(0.820946,-0.571006,-0.571006,-0.820946,159.421,342.514)">
                    <path d="M-0.57,-0.179C-1.122,-0.179 -1.568,0.268 -1.569,0.819C-1.568,1.371 -1.122,1.818 -0.57,1.818C-0.018,1.818 0.428,1.371 0.429,0.82C0.428,0.268 -0.019,-0.18 -0.57,-0.179" style="fill:white;fill-rule:nonzero;"/>
                </g>
            </g>
        </g>
        <g transform="matrix(1,0,0,1,895.226,0)">
            <g opacity="0.4">
                <g transform="matrix(-0.761138,0.64859,0.64859,0.761138,189.441,347.106)">
                    <path d="M5.724,-14.14C-0.618,-14.216 -5.82,-9.136 -5.895,-2.794C-5.895,-2.794 -4.896,-7.824 5.724,-7.699C15.029,-7.588 17.071,-2.521 17.071,-2.521C17.147,-8.863 12.066,-14.065 5.724,-14.14" style="fill:rgb(117,13,26);fill-rule:nonzero;"/>
                </g>
            </g>
        </g>
        <g transform="matrix(1,0,0,1,895.226,0)">
            <g opacity="0.3">
                <g transform="matrix(1,0,0,1,167.457,339.326)">
                    <path d="M0,24.661C-0.279,24.661 -0.556,24.545 -0.754,24.318C-3.736,20.902 -5.209,16.528 -4.902,12.004C-4.595,7.478 -2.544,3.344 0.873,0.362C1.29,0 1.921,0.042 2.284,0.458C2.647,0.874 2.604,1.506 2.188,1.869C-0.827,4.5 -2.636,8.146 -2.907,12.139C-3.178,16.131 -1.878,19.989 0.753,23.004C1.116,23.42 1.073,24.052 0.657,24.414C0.468,24.58 0.233,24.661 0,24.661" style="fill:white;fill-rule:nonzero;"/>
                </g>
            </g>
        </g>
        <g transform="matrix(1,0,0,1,895.226,0)">
            <g opacity="0.3">
                <g transform="matrix(0.176813,-0.984244,-0.984244,-0.176813,170.357,364.346)">
                    <path d="M-0.983,-0.822C-1.534,-0.822 -1.98,-0.375 -1.982,0.176C-1.981,0.728 -1.534,1.175 -0.983,1.175C-0.431,1.175 0.015,0.728 0.016,0.176C0.016,-0.374 -0.431,-0.822 -0.983,-0.822" style="fill:white;fill-rule:nonzero;"/>
                </g>
            </g>
        </g>
        <g transform="matrix(1,0,0,1,895.226,0)">
            <g opacity="0.4">
                <g transform="matrix(-0.079628,0.996825,0.996825,0.079628,187.823,346.169)">
                    <path d="M5.811,-6.492C-0.531,-6.567 -5.733,-1.487 -5.809,4.854C-5.809,4.854 -4.809,-0.175 5.811,-0.049C15.115,0.062 17.157,5.128 17.157,5.128C17.233,-1.213 12.152,-6.416 5.811,-6.492" style="fill:rgb(117,13,26);fill-rule:nonzero;"/>
                </g>
            </g>
        </g>
        <g transform="matrix(1,0,0,1,895.226,0)">
            <g opacity="0.3">
                <g transform="matrix(1,0,0,1,191.126,355.596)">
                    <path d="M0,19.042C-0.023,19.042 -0.045,19.041 -0.069,19.04C-9.409,18.405 -16.493,10.291 -15.858,0.95C-15.821,0.398 -15.347,0 -14.793,0.02C-14.242,0.058 -13.826,0.534 -13.863,1.085C-14.422,9.326 -8.173,16.485 0.067,17.044C0.618,17.082 1.034,17.559 0.997,18.109C0.961,18.638 0.521,19.042 0,19.042" style="fill:white;fill-rule:nonzero;"/>
                </g>
            </g>
        </g>
        <g transform="matrix(1,0,0,1,895.226,0)">
            <g opacity="0.3">
                <g transform="matrix(-0.571343,-0.820711,-0.820711,0.571343,193.617,373.109)">
                    <path d="M-0.82,-1.568C-1.371,-1.569 -1.818,-1.121 -1.818,-0.569C-1.817,-0.019 -1.371,0.429 -0.82,0.429C-0.267,0.428 0.179,-0.019 0.179,-0.57C0.178,-1.121 -0.268,-1.569 -0.82,-1.568" style="fill:white;fill-rule:nonzero;"/>
                </g>
            </g>
        </g>
        <g transform="matrix(1,0,0,1,895.226,0)">
            <g opacity="0.4">
                <g transform="matrix(0.648513,0.761203,0.761203,-0.648513,190.456,349.569)">
                    <path d="M6.276,-2.659C-0.066,-2.735 -5.268,2.344 -5.344,8.687C-5.344,8.687 -4.345,3.657 6.276,3.783C15.579,3.894 17.622,8.962 17.622,8.962C17.697,2.62 12.618,-2.583 6.276,-2.659" style="fill:rgb(117,13,26);fill-rule:nonzero;"/>
                </g>
            </g>
        </g>
        <g transform="matrix(1,0,0,1,895.226,0)">
            <g opacity="0.3">
                <g transform="matrix(1,0,0,1,204.95,361.878)">
                    <path d="M0,7.59C-0.391,7.59 -0.782,7.576 -1.175,7.55C-5.7,7.242 -9.834,5.192 -12.816,1.774C-13.18,1.358 -13.137,0.726 -12.721,0.362C-12.303,0 -11.672,0.043 -11.31,0.459C-8.679,3.474 -5.031,5.283 -1.04,5.554C2.95,5.824 6.811,4.526 9.825,1.895C10.241,1.53 10.873,1.574 11.236,1.99C11.599,2.406 11.556,3.038 11.14,3.401C8.021,6.124 4.102,7.59 0,7.59" style="fill:white;fill-rule:nonzero;"/>
                </g>
            </g>
        </g>
        <g transform="matrix(1,0,0,1,895.226,0)">
            <g opacity="0.3">
                <g transform="matrix(-0.984244,-0.176813,-0.176813,0.984244,217.382,362.909)">
                    <path d="M-0.176,-1.981C-0.727,-1.981 -1.174,-1.534 -1.175,-0.984C-1.174,-0.432 -0.727,0.016 -0.176,0.016C0.376,0.015 0.822,-0.431 0.823,-0.982C0.823,-1.534 0.375,-1.981 -0.176,-1.981" style="fill:white;fill-rule:nonzero;"/>
                </g>
            </g>
        </g>
        <g transform="matrix(1,0,0,1,895.226,0)">
            <g opacity="0.4">
                <g transform="matrix(0.996812,0.0797822,0.0797822,-0.996812,203.542,351.03)">
                    <path d="M0.473,-0.026C-5.869,-0.102 -11.072,4.977 -11.148,11.318C-11.148,11.318 -10.148,6.289 0.473,6.416C9.776,6.529 11.818,11.596 11.818,11.596C11.894,5.254 6.815,0.05 0.473,-0.026" style="fill:rgb(117,13,26);fill-rule:nonzero;"/>
                </g>
            </g>
        </g>
        <g transform="matrix(1,0,0,1,895.226,0)">
            <g opacity="0.3">
                <g transform="matrix(1,0,0,1,210.274,339.807)">
                    <path d="M0,16.947C-0.385,16.947 -0.771,16.934 -1.162,16.908C-1.712,16.87 -2.129,16.393 -2.091,15.843C-2.054,15.291 -1.585,14.884 -1.026,14.912C2.964,15.181 6.825,13.884 9.839,11.253C12.853,8.622 14.663,4.974 14.934,0.983C14.971,0.431 15.442,0 15.999,0.053C16.55,0.091 16.966,0.567 16.929,1.118C16.321,10.069 8.843,16.947 0,16.947" style="fill:white;fill-rule:nonzero;"/>
                </g>
            </g>
        </g>
        <g transform="matrix(1,0,0,1,895.226,0)">
            <g opacity="0.3">
                <g transform="matrix(-0.820946,0.571006,0.571006,0.820946,226.96,337.776)">
                    <path d="M0.571,-1.818C0.019,-1.818 -0.428,-1.371 -0.428,-0.82C-0.428,-0.268 0.019,0.179 0.571,0.178C1.123,0.178 1.569,-0.269 1.57,-0.82C1.569,-1.371 1.122,-1.819 0.571,-1.818" style="fill:white;fill-rule:nonzero;"/>
                </g>
            </g>
        </g>
        <g transform="matrix(1,0,0,1,895.226,0)">
            <g opacity="0.4">
                <g transform="matrix(0.761203,-0.648513,-0.648513,-0.761203,211.104,334.499)">
                    <path d="M-5.207,-2.108C-11.549,-2.185 -16.752,2.896 -16.826,9.238C-16.826,9.238 -15.827,4.207 -5.207,4.334C4.098,4.445 6.139,9.512 6.139,9.512C6.215,3.17 1.135,-2.032 -5.207,-2.108" style="fill:rgb(117,13,26);fill-rule:nonzero;"/>
                </g>
            </g>
        </g>
        <g transform="matrix(1,0,0,1,895.226,0)">
            <g opacity="0.3">
                <g transform="matrix(1,0,0,1,215.434,315.433)">
                    <path d="M0,24.661C-0.279,24.661 -0.556,24.545 -0.754,24.318C-1.117,23.902 -1.074,23.271 -0.658,22.908C5.564,17.476 6.208,7.996 0.777,1.773C0.414,1.357 0.457,0.725 0.873,0.362C1.291,0 1.921,0.043 2.284,0.458C8.44,7.512 7.71,18.258 0.657,24.414C0.467,24.58 0.233,24.661 0,24.661" style="fill:white;fill-rule:nonzero;"/>
                </g>
            </g>
        </g>
        <g transform="matrix(1,0,0,1,895.226,0)">
            <g opacity="0.3">
                <g transform="matrix(-0.177299,0.984157,0.984157,0.177299,214.76,313.318)">
                    <path d="M0.983,-1.176C0.432,-1.175 -0.015,-0.729 -0.016,-0.178C-0.016,0.374 0.431,0.821 0.983,0.821C1.534,0.821 1.981,0.375 1.981,-0.176C1.981,-0.728 1.535,-1.175 0.983,-1.176" style="fill:white;fill-rule:nonzero;"/>
                </g>
            </g>
        </g>
    </g>
</svg>
