<?xml version="1.0" encoding="UTF-8" standalone="no"?>
<!DOCTYPE svg PUBLIC "-//W3C//DTD SVG 1.1//EN" "http://www.w3.org/Graphics/SVG/1.1/DTD/svg11.dtd">
<svg width="100%" height="100%" viewBox="0 0 26 9" version="1.1" xmlns="http://www.w3.org/2000/svg" xmlns:xlink="http://www.w3.org/1999/xlink" xml:space="preserve" xmlns:serif="http://www.serif.com/" style="fill-rule:evenodd;clip-rule:evenodd;stroke-linejoin:round;stroke-miterlimit:2;">
    <g transform="matrix(1,0,0,1,-427.497,-886.477)">
        <g transform="matrix(1,0,0,1,0,584.181)">
            <g transform="matrix(1,0,0,1,427.497,305.87)">
                <path d="M0,3.976C0,1.343 2.966,-0.791 6.624,-0.791C10.283,-0.791 13.249,1.343 13.249,3.976C13.249,3.976 13.249,4.767 12.149,4.767L1.006,4.767C0.277,4.767 0,4.508 0,3.976" style="fill:rgb(124,87,50);fill-rule:nonzero;"/>
            </g>
        </g>
        <g transform="matrix(1,0,0,1,0,584.181)">
            <g transform="matrix(1,0,0,1,433.497,303.483)">
                <path d="M0,5.966C0,2.016 4.451,-1.187 9.942,-1.187C15.434,-1.187 19.886,2.016 19.886,5.966C19.886,5.966 19.886,7.153 18.236,7.153L1.51,7.153C0.416,7.153 0,6.766 0,5.966" style="fill:rgb(124,87,50);fill-rule:nonzero;"/>
            </g>
        </g>
    </g>
</svg>
