<?xml version="1.0" encoding="UTF-8" standalone="no"?>
<!DOCTYPE svg PUBLIC "-//W3C//DTD SVG 1.1//EN" "http://www.w3.org/Graphics/SVG/1.1/DTD/svg11.dtd">
<svg width="100%" height="100%" viewBox="0 0 154 160" version="1.1" xmlns="http://www.w3.org/2000/svg" xmlns:xlink="http://www.w3.org/1999/xlink" xml:space="preserve" xmlns:serif="http://www.serif.com/" style="fill-rule:evenodd;clip-rule:evenodd;stroke-linejoin:round;stroke-miterlimit:2;">
    <g transform="matrix(1,0,0,1,-152.697,-733.639)">
        <g transform="matrix(1,0,0,1,0,584.181)">
            <g transform="matrix(1,0,0,1,152.697,149.459)">
                <path d="M0,159.355L0,123.376C0,118.224 4.87,113.353 8.413,113.353L8.413,41.618C8.413,32.983 15.497,33.185 15.497,33.185L28.338,33.185C33.209,33.185 36.309,36.751 36.309,41.623L36.309,66.861C36.309,66.861 43.836,68.189 43.836,74.831L43.836,93.428L53.577,93.428L53.577,65.089C53.577,56.36 61.547,56.311 61.547,56.311L76.602,56.311L76.602,8.856C76.602,3.542 81.029,0 85.015,0L112.024,0C116.895,0 121.322,2.661 121.322,8.86L121.322,39.851C121.322,39.851 122.458,33.185 128.215,33.185L146.193,33.185C151.063,33.185 153.203,36.751 153.203,41.179L153.203,159.355L0,159.355Z" style="fill:rgb(109,63,29);fill-rule:nonzero;"/>
            </g>
        </g>
    </g>
</svg>
