<?xml version="1.0" encoding="UTF-8" standalone="no"?>
<!DOCTYPE svg PUBLIC "-//W3C//DTD SVG 1.1//EN" "http://www.w3.org/Graphics/SVG/1.1/DTD/svg11.dtd">
<svg width="100%" height="100%" viewBox="0 0 101 155" version="1.1" xmlns="http://www.w3.org/2000/svg" xmlns:xlink="http://www.w3.org/1999/xlink" xml:space="preserve" xmlns:serif="http://www.serif.com/" style="fill-rule:evenodd;clip-rule:evenodd;stroke-linecap:round;stroke-miterlimit:10;">
    <g transform="matrix(1,0,0,1,98.7605,-719.886)">
        <g transform="matrix(0,1,1,0,-21.2946,797.352)">
            <path d="M-27.217,-27.217L27.217,-27.217" style="fill:none;fill-rule:nonzero;stroke:rgb(0,152,116);stroke-width:10px;"/>
        </g>
        <g transform="matrix(1,0,0,1,-37.1225,803.625)">
            <path d="M0,-24.648L0,-9.186C0,-3.439 -3.317,0 -9.188,0" style="fill:none;fill-rule:nonzero;stroke:rgb(0,152,116);stroke-width:5px;"/>
        </g>
        <g transform="matrix(1,0,0,1,-56.2885,822.949)">
            <path d="M0,5.991C0,2.025 4.468,-1.19 9.979,-1.19C15.49,-1.19 19.958,2.025 19.958,5.991C19.958,5.991 19.958,7.181 18.303,7.181L1.516,7.181C0.418,7.181 0,6.793 0,5.991" style="fill:rgb(124,87,50);fill-rule:nonzero;"/>
        </g>
        <g transform="matrix(1,0,0,1,-62.2885,825.618)">
            <path d="M0,3.765C0,1.273 2.808,-0.748 6.271,-0.748C9.735,-0.748 12.543,1.273 12.543,3.765C12.543,3.765 12.543,4.513 11.503,4.513L0.952,4.513C0.263,4.513 0,4.269 0,3.765" style="fill:rgb(124,87,50);fill-rule:nonzero;"/>
        </g>
    </g>
</svg>
