<?xml version="1.0" encoding="UTF-8" standalone="no"?>
<!DOCTYPE svg PUBLIC "-//W3C//DTD SVG 1.1//EN" "http://www.w3.org/Graphics/SVG/1.1/DTD/svg11.dtd">
<svg width="100%" height="100%" viewBox="0 0 13 14" version="1.1" xmlns="http://www.w3.org/2000/svg" xmlns:xlink="http://www.w3.org/1999/xlink" xml:space="preserve" xmlns:serif="http://www.serif.com/" style="fill-rule:evenodd;clip-rule:evenodd;stroke-linejoin:round;stroke-miterlimit:2;">
    <g transform="matrix(1,0,0,1,-106.794,-75.3287)">
        <g transform="matrix(1,0,0,1,113.279,79.9216)">
            <path d="M0,4.365C-1.205,4.365 -2.186,3.385 -2.186,2.179C-2.186,0.975 -1.205,-0.006 0,-0.006C1.205,-0.006 2.186,0.975 2.186,2.179C2.186,3.385 1.205,4.365 0,4.365M6.321,3.81L5.158,3.138C5.275,2.505 5.275,1.854 5.158,1.22L6.321,0.549C6.455,0.472 6.516,0.314 6.472,0.166C6.169,-0.806 5.652,-1.686 4.978,-2.418C4.874,-2.53 4.704,-2.557 4.573,-2.481L3.409,-1.809C2.92,-2.23 2.357,-2.555 1.748,-2.768L1.748,-4.109C1.748,-4.262 1.642,-4.396 1.491,-4.429C0.489,-4.653 -0.538,-4.642 -1.492,-4.429C-1.642,-4.396 -1.748,-4.262 -1.748,-4.109L-1.748,-2.765C-2.355,-2.55 -2.918,-2.224 -3.409,-1.806L-4.57,-2.478C-4.704,-2.555 -4.871,-2.53 -4.975,-2.415C-5.649,-1.686 -6.166,-0.806 -6.47,0.169C-6.516,0.316 -6.453,0.475 -6.319,0.552L-5.155,1.223C-5.272,1.857 -5.272,2.508 -5.155,3.141L-6.319,3.813C-6.453,3.89 -6.513,4.048 -6.47,4.196C-6.166,5.168 -5.649,6.048 -4.975,6.78C-4.871,6.892 -4.702,6.92 -4.57,6.843L-3.407,6.171C-2.918,6.592 -2.355,6.917 -1.746,7.13L-1.746,8.474C-1.746,8.627 -1.64,8.761 -1.489,8.794C-0.486,9.018 0.541,9.007 1.494,8.794C1.645,8.761 1.751,8.627 1.751,8.474L1.751,7.13C2.357,6.914 2.92,6.589 3.412,6.171L4.576,6.843C4.71,6.92 4.876,6.895 4.98,6.78C5.655,6.051 6.171,5.171 6.475,4.196C6.516,4.046 6.455,3.887 6.321,3.81" style="fill:white;fill-rule:nonzero;"/>
        </g>
    </g>
</svg>
