<?xml version="1.0" encoding="UTF-8" standalone="no"?>
<!DOCTYPE svg PUBLIC "-//W3C//DTD SVG 1.1//EN" "http://www.w3.org/Graphics/SVG/1.1/DTD/svg11.dtd">
<svg width="100%" height="100%" viewBox="0 0 40 36" version="1.1" xmlns="http://www.w3.org/2000/svg" xmlns:xlink="http://www.w3.org/1999/xlink" xml:space="preserve" xmlns:serif="http://www.serif.com/" style="fill-rule:evenodd;clip-rule:evenodd;stroke-linejoin:round;stroke-miterlimit:2;">
    <g transform="matrix(1,0,0,1,177.973,-108.208)">
        <g transform="matrix(1,0,0,1,-27.7987,144.208)">
            <path d="M-124,-36L-137.174,-36C-144.342,-36 -150.174,-30.168 -150.174,-23L-150.174,-13C-150.174,-5.832 -144.342,0 -137.174,0L-124,0C-116.832,0 -111,-5.832 -111,-13L-111,-23C-111,-30.168 -116.832,-36 -124,-36M-124,-33C-118.5,-33 -114,-28.5 -114,-23L-114,-13C-114,-7.5 -118.5,-3 -124,-3L-137.174,-3C-142.674,-3 -147.174,-7.5 -147.174,-13L-147.174,-23C-147.174,-28.5 -142.674,-33 -137.174,-33L-124,-33" style="fill:white;fill-rule:nonzero;"/>
        </g>
    </g>
</svg>
