<?xml version="1.0" encoding="UTF-8" standalone="no"?>
<!DOCTYPE svg PUBLIC "-//W3C//DTD SVG 1.1//EN" "http://www.w3.org/Graphics/SVG/1.1/DTD/svg11.dtd">
<svg width="100%" height="100%" viewBox="0 0 100 100" version="1.1" xmlns="http://www.w3.org/2000/svg" xmlns:xlink="http://www.w3.org/1999/xlink" xml:space="preserve" xmlns:serif="http://www.serif.com/" style="fill-rule:evenodd;clip-rule:evenodd;stroke-linecap:round;stroke-miterlimit:10;">
    <g transform="matrix(1,0,0,1,-775,-126)">
        <g id="single" transform="matrix(0.998677,0,0,0.998677,0.359084,-0.418022)">
            <rect x="775.667" y="126.585" width="100.132" height="100.132" style="fill:none;"/>
            <clipPath id="_clip1">
                <rect x="775.667" y="126.585" width="100.132" height="100.132"/>
            </clipPath>
            <g clip-path="url(#_clip1)">
                <g id="cell" transform="matrix(1.00132,0,0,1.00132,-1.37564,1.25869)">
                    <g transform="matrix(0.841688,0,0,0.841688,825.833,148.224)">
                        <path d="M0,64.316C-24.848,64.316 -45.063,49.89 -45.063,32.158C-45.063,14.425 -24.848,0 0,0C24.848,0 45.063,14.425 45.063,32.158C45.063,49.89 24.848,64.316 0,64.316" style="fill:rgb(193,39,45);fill-rule:nonzero;"/>
                    </g>
                    <g transform="matrix(0.841688,0,0,0.841688,825.833,203.621)">
                        <path d="M0,-67.316C-12.249,-67.316 -23.801,-63.933 -32.53,-57.79C-41.579,-51.421 -46.563,-42.851 -46.563,-33.658C-46.563,-24.464 -41.579,-15.894 -32.53,-9.526C-23.801,-3.382 -12.249,0 0,0C12.249,0 23.801,-3.382 32.53,-9.526C41.58,-15.894 46.563,-24.464 46.563,-33.658C46.563,-42.851 41.58,-51.421 32.53,-57.79C23.801,-63.933 12.249,-67.316 0,-67.316M0,-64.316C24.059,-64.316 43.563,-50.59 43.563,-33.658C43.563,-16.726 24.059,-3 0,-3C-24.059,-3 -43.563,-16.726 -43.563,-33.658C-43.563,-50.59 -24.059,-64.316 0,-64.316" style="fill:rgb(137,29,37);fill-rule:nonzero;"/>
                    </g>
                    <g transform="matrix(0.841688,0,0,0.841688,743.892,29.4423)">
                        <g opacity="0.4">
                            <g transform="matrix(0,-1,-1,0,97.3535,140.355)">
                                <path d="M-32.927,-32.927C-43.781,-32.927 -53.581,-17.374 -53.581,0C-53.581,18.424 -43.781,32.927 -32.927,32.927C-22.073,32.927 -12.273,17.374 -12.273,0C-12.273,-17.934 -22.073,-32.927 -32.927,-32.927" style="fill:rgb(137,29,37);fill-rule:nonzero;"/>
                            </g>
                        </g>
                    </g>
                    <g transform="matrix(0.36557,-0.758154,-0.758154,-0.36557,803.373,174.703)">
                        <path d="M-3.34,5.318C0.083,6.969 4.217,6.847 8.469,5.318" style="fill:none;fill-rule:nonzero;stroke:rgb(137,29,37);stroke-width:2.38px;"/>
                    </g>
                    <g transform="matrix(0.841688,0,0,0.841688,834.125,185.285)">
                        <path d="M0,7.728C-3.147,8.409 -6.464,8.781 -9.852,8.781C-21.701,8.781 -31.928,4.727 -37.718,-1.053" style="fill:none;fill-rule:nonzero;stroke:rgb(137,29,37);stroke-width:2.38px;"/>
                    </g>
                    <g transform="matrix(-0.828985,-0.145683,-0.145683,0.828985,810.612,191.999)">
                        <path d="M-18.647,1.626C-11.908,2.81 -5.464,2.713 0.142,1.626" style="fill:none;fill-rule:nonzero;stroke:rgb(137,29,37);stroke-width:2.38px;"/>
                    </g>
                    <g transform="matrix(0.841688,0,0,0.841688,837.798,186.115)">
                        <path d="M0,-31.367C10.99,-27.896 18.712,-20.649 18.712,-12.859C18.712,-8.132 15.763,-3.604 10.997,0" style="fill:none;fill-rule:nonzero;stroke:rgb(137,29,37);stroke-width:2.38px;"/>
                    </g>
                    <g transform="matrix(0.438876,0.718211,0.718211,-0.438876,856.37,160.466)">
                        <path d="M-4.793,-8.547C2.324,-5.394 9.695,-5.159 15.238,-8.547" style="fill:none;fill-rule:nonzero;stroke:rgb(255,110,128);stroke-width:2.38px;"/>
                    </g>
                    <g transform="matrix(0.816748,-0.203377,-0.203377,-0.816748,808.616,164.507)">
                        <path d="M-0.327,2.667C6.165,4.425 14.018,4.59 21.744,2.667" style="fill:none;fill-rule:nonzero;stroke:rgb(137,29,37);stroke-width:2.38px;"/>
                    </g>
                    <g transform="matrix(0.841688,0,0,0.841688,825.833,201.096)">
                        <path d="M0,-61.316C-24.059,-61.316 -43.563,-47.59 -43.563,-30.658C-43.563,-13.726 -24.059,0 0,0C24.059,0 43.563,-13.726 43.563,-30.658C43.563,-47.59 24.059,-61.316 0,-61.316M0,-58.316C22.367,-58.316 40.563,-45.909 40.563,-30.658C40.563,-15.407 22.367,-3 0,-3C-22.366,-3 -40.563,-15.407 -40.563,-30.658C-40.563,-45.909 -22.366,-58.316 0,-58.316" style="fill:rgb(234,75,87);fill-rule:nonzero;"/>
                    </g>
                    <g transform="matrix(0,-0.841688,-0.841688,0,830.964,150.587)">
                        <path d="M-3.574,-3.575C-5.549,-3.575 -7.149,-1.974 -7.149,-0C-7.149,1.974 -5.549,3.574 -3.574,3.574C-1.6,3.574 0,1.974 0,-0C0,-1.974 -1.6,-3.575 -3.574,-3.575" style="fill:rgb(234,75,87);fill-rule:nonzero;"/>
                    </g>
                    <g transform="matrix(0,-0.841688,-0.841688,0,842.059,190.892)">
                        <path d="M-3.575,-3.575C-5.549,-3.575 -7.15,-1.974 -7.15,0C-7.15,1.975 -5.549,3.575 -3.575,3.575C-1.6,3.575 -0,1.975 -0,0C-0,-1.974 -1.6,-3.575 -3.575,-3.575" style="fill:rgb(234,75,87);fill-rule:nonzero;"/>
                    </g>
                    <g transform="matrix(0,-0.841688,-0.841688,0,846.107,190.656)">
                        <path d="M-2.4,-2.4C-3.725,-2.4 -4.799,-1.326 -4.799,0C-4.799,1.325 -3.725,2.4 -2.4,2.4C-1.075,2.4 -0.001,1.325 -0.001,0C-0.001,-1.326 -1.075,-2.4 -2.4,-2.4" style="fill:rgb(234,75,87);fill-rule:nonzero;"/>
                    </g>
                    <g transform="matrix(0,-0.841688,-0.841688,0,834.95,151.868)">
                        <path d="M-2.052,-2.054C-3.188,-2.054 -4.106,-1.135 -4.106,-0.001C-4.106,1.134 -3.188,2.052 -2.052,2.052C-0.918,2.052 0.001,1.134 0.001,-0.001C0.001,-1.135 -0.918,-2.054 -2.052,-2.054" style="fill:rgb(234,75,87);fill-rule:nonzero;"/>
                    </g>
                    <g transform="matrix(0,-0.841688,-0.841688,0,794.233,177.991)">
                        <path d="M-3.575,-3.574C-5.55,-3.574 -7.149,-1.974 -7.149,0.001C-7.149,1.975 -5.55,3.575 -3.575,3.575C-1.6,3.575 0,1.975 0,0.001C0,-1.974 -1.6,-3.574 -3.575,-3.574" style="fill:rgb(234,75,87);fill-rule:nonzero;"/>
                    </g>
                    <g transform="matrix(0,-0.841688,-0.841688,0,795.305,182.755)">
                        <path d="M-2.3,-2.3C-3.571,-2.3 -4.6,-1.27 -4.6,0C-4.6,1.27 -3.571,2.3 -2.3,2.3C-1.029,2.3 0,1.27 0,0C0,-1.27 -1.029,-2.3 -2.3,-2.3" style="fill:rgb(234,75,87);fill-rule:nonzero;"/>
                    </g>
                    <g transform="matrix(0,-0.841688,-0.841688,0,794.55,174.356)">
                        <path d="M-1.616,-1.615C-2.508,-1.615 -3.231,-0.892 -3.231,0C-3.231,0.892 -2.508,1.616 -1.616,1.616C-0.723,1.616 0,0.892 0,0C0,-0.892 -0.723,-1.615 -1.616,-1.615" style="fill:rgb(234,75,87);fill-rule:nonzero;"/>
                    </g>
                </g>
                <g id="flagella" transform="matrix(1.00132,0,0,1.00132,-1.37564,1.25869)">
                    <g transform="matrix(0.328897,0.774768,0.774768,-0.328897,812.331,141.794)">
                        <path d="M-4.496,-4.956C-4.496,-4.956 1.254,-9.566 8.268,-4.956" style="fill:none;fill-rule:nonzero;stroke:rgb(137,29,37);stroke-width:3.56px;"/>
                    </g>
                    <g transform="matrix(-0.328897,0.774768,0.774768,0.328897,847.456,147.977)">
                        <path d="M-7.489,-6.793C-7.489,-6.793 -1.739,-2.185 5.276,-6.793" style="fill:none;fill-rule:nonzero;stroke:rgb(137,29,37);stroke-width:3.56px;"/>
                    </g>
                    <g transform="matrix(-0.679215,0.497098,0.497098,0.679215,862.567,164.834)">
                        <path d="M-11.533,-3.77C-11.533,-3.77 -5.783,0.839 1.232,-3.77" style="fill:none;fill-rule:nonzero;stroke:rgb(137,29,37);stroke-width:3.56px;"/>
                    </g>
                    <g transform="matrix(0.679215,0.497098,0.497098,-0.679215,785.628,154.593)">
                        <path d="M-1.232,-3.77C-1.232,-3.77 4.518,-8.378 11.533,-3.77" style="fill:none;fill-rule:nonzero;stroke:rgb(137,29,37);stroke-width:3.56px;"/>
                    </g>
                    <g transform="matrix(0.304692,-0.784603,-0.784603,-0.304692,833.551,146.729)">
                        <path d="M-2.418,3.533C-2.418,3.533 2.06,5.093 5.162,3.533" style="fill:none;fill-rule:nonzero;stroke:rgb(137,29,37);stroke-width:3.56px;"/>
                    </g>
                    <g transform="matrix(0.719814,-0.436241,-0.436241,-0.719814,852.336,155.395)">
                        <path d="M-0.549,1.964C-0.549,1.964 3.929,3.525 7.032,1.965" style="fill:none;fill-rule:nonzero;stroke:rgb(137,29,37);stroke-width:3.56px;"/>
                    </g>
                    <g transform="matrix(-0.719814,-0.436241,-0.436241,0.719814,796.378,149.739)">
                        <path d="M-7.032,1.965C-7.032,1.965 -2.554,0.404 0.549,1.964" style="fill:none;fill-rule:nonzero;stroke:rgb(137,29,37);stroke-width:3.56px;"/>
                    </g>
                    <g transform="matrix(-0.304595,-0.784641,-0.784641,0.304595,822.825,142.424)">
                        <path d="M-5.161,3.533C-5.161,3.533 -0.683,1.973 2.418,3.533" style="fill:none;fill-rule:nonzero;stroke:rgb(137,29,37);stroke-width:3.56px;"/>
                    </g>
                    <g transform="matrix(0.328897,-0.774768,-0.774768,-0.328897,812.331,208.528)">
                        <path d="M-4.496,4.956C-4.496,4.956 1.254,9.566 8.268,4.956" style="fill:none;fill-rule:nonzero;stroke:rgb(137,29,37);stroke-width:3.56px;"/>
                    </g>
                    <g transform="matrix(-0.328897,-0.774768,-0.774768,0.328897,847.456,202.345)">
                        <path d="M-7.489,6.793C-7.489,6.793 -1.738,2.184 5.276,6.793" style="fill:none;fill-rule:nonzero;stroke:rgb(137,29,37);stroke-width:3.56px;"/>
                    </g>
                    <g transform="matrix(-0.679215,-0.497098,-0.497098,0.679215,862.567,185.488)">
                        <path d="M-11.533,3.77C-11.533,3.77 -5.783,-0.839 1.232,3.77" style="fill:none;fill-rule:nonzero;stroke:rgb(137,29,37);stroke-width:3.56px;"/>
                    </g>
                    <g transform="matrix(0.679215,-0.497098,-0.497098,-0.679215,785.628,195.729)">
                        <path d="M-1.232,3.77C-1.232,3.77 4.518,8.378 11.533,3.77" style="fill:none;fill-rule:nonzero;stroke:rgb(137,29,37);stroke-width:3.56px;"/>
                    </g>
                    <g transform="matrix(0.304692,0.784603,0.784603,-0.304692,833.551,203.593)">
                        <path d="M-2.418,-3.533C-2.418,-3.533 2.059,-5.092 5.162,-3.533" style="fill:none;fill-rule:nonzero;stroke:rgb(137,29,37);stroke-width:3.56px;"/>
                    </g>
                    <g transform="matrix(0.719814,0.436241,0.436241,-0.719814,852.336,194.927)">
                        <path d="M-0.549,-1.964C-0.549,-1.964 3.929,-3.524 7.032,-1.965" style="fill:none;fill-rule:nonzero;stroke:rgb(137,29,37);stroke-width:3.56px;"/>
                    </g>
                    <g transform="matrix(-0.719814,0.436241,0.436241,0.719814,796.378,200.583)">
                        <path d="M-7.032,-1.965C-7.032,-1.965 -2.554,-0.405 0.549,-1.964" style="fill:none;fill-rule:nonzero;stroke:rgb(137,29,37);stroke-width:3.56px;"/>
                    </g>
                    <g transform="matrix(-0.304595,0.784641,0.784641,0.304595,822.825,207.898)">
                        <path d="M-5.161,-3.533C-5.161,-3.533 -0.684,-1.973 2.418,-3.533" style="fill:none;fill-rule:nonzero;stroke:rgb(137,29,37);stroke-width:3.56px;"/>
                    </g>
                    <g transform="matrix(-0.746126,0.389532,0.389532,0.746126,865.397,176.661)">
                        <path d="M-8.58,-2.105C-8.58,-2.105 -5.315,-0.522 0.516,-2.105" style="fill:none;fill-rule:nonzero;stroke:rgb(137,29,37);stroke-width:3.56px;"/>
                    </g>
                    <g transform="matrix(0.746126,0.389532,0.389532,-0.746126,782.256,170.378)">
                        <path d="M-0.516,-2.105C-0.516,-2.105 2.749,-3.688 8.58,-2.105" style="fill:none;fill-rule:nonzero;stroke:rgb(137,29,37);stroke-width:3.56px;"/>
                    </g>
                </g>
            </g>
        </g>
    </g>
</svg>
