<?xml version="1.0" encoding="UTF-8" standalone="no"?>
<!DOCTYPE svg PUBLIC "-//W3C//DTD SVG 1.1//EN" "http://www.w3.org/Graphics/SVG/1.1/DTD/svg11.dtd">
<svg width="100%" height="100%" viewBox="0 0 83 82" version="1.1" xmlns="http://www.w3.org/2000/svg" xmlns:xlink="http://www.w3.org/1999/xlink" xml:space="preserve" xmlns:serif="http://www.serif.com/" style="fill-rule:evenodd;clip-rule:evenodd;stroke-linecap:round;stroke-miterlimit:10;">
    <g transform="matrix(1,0,0,1,-421.467,-243.767)">
        <g transform="matrix(1,0,0,1,393.958,0)">
            <g transform="matrix(1,0,0,1,68.7917,245.267)">
                <path d="M0,77.167C-21.275,77.167 -38.583,59.858 -38.583,38.583C-38.583,17.309 -21.275,0 0,0C21.275,0 38.583,17.309 38.583,38.583C38.583,59.858 21.275,77.167 0,77.167" style="fill:rgb(112,84,208);fill-rule:nonzero;"/>
            </g>
        </g>
        <g transform="matrix(1,0,0,1,393.958,0)">
            <g transform="matrix(1,0,0,1,68.7917,323.934)">
                <path d="M0,-80.167C-22.102,-80.167 -40.083,-62.186 -40.083,-40.084C-40.083,-17.981 -22.102,0 0,0C22.102,0 40.083,-17.981 40.083,-40.084C40.083,-62.186 22.102,-80.167 0,-80.167M0,-77.167C20.48,-77.167 37.083,-60.564 37.083,-40.084C37.083,-19.604 20.48,-3 0,-3C-20.48,-3 -37.083,-19.604 -37.083,-40.084C-37.083,-60.564 -20.48,-77.167 0,-77.167" style="fill:rgb(68,58,137);fill-rule:nonzero;"/>
            </g>
        </g>
        <g transform="matrix(1,0,0,1,393.958,0)">
            <g transform="matrix(1,0,0,1,68.7917,248.267)">
                <path d="M0,71.167C-19.621,71.167 -35.583,55.204 -35.583,35.583C-35.583,15.963 -19.621,0 0,0C19.621,0 35.583,15.963 35.583,35.583C35.583,55.204 19.621,71.167 0,71.167" style="fill:rgb(112,84,208);fill-rule:nonzero;"/>
            </g>
        </g>
        <g transform="matrix(1,0,0,1,393.958,0)">
            <g transform="matrix(1,0,0,1,68.7917,320.934)">
                <path d="M0,-74.167C-20.48,-74.167 -37.083,-57.564 -37.083,-37.084C-37.083,-16.604 -20.48,0 0,0C20.48,0 37.083,-16.604 37.083,-37.084C37.083,-57.564 20.48,-74.167 0,-74.167M0,-71.167C18.793,-71.167 34.083,-55.877 34.083,-37.084C34.083,-18.29 18.793,-3 0,-3C-18.793,-3 -34.083,-18.29 -34.083,-37.084C-34.083,-55.877 -18.793,-71.167 0,-71.167" style="fill:rgb(134,109,226);fill-rule:nonzero;"/>
            </g>
        </g>
        <g transform="matrix(1,0,0,1,393.958,0)">
            <g transform="matrix(0,-1,-1,0,100.025,282.322)">
                <path d="M-4.554,-4.553C-7.068,-4.553 -9.107,-2.514 -9.107,0C-9.107,2.515 -7.068,4.554 -4.554,4.554C-2.039,4.554 0,2.515 0,0C0,-2.514 -2.039,-4.553 -4.554,-4.553" style="fill:rgb(134,109,226);fill-rule:nonzero;"/>
            </g>
        </g>
        <g transform="matrix(1,0,0,1,393.958,0)">
            <g transform="matrix(0,-1,-1,0,97.7292,278.033)">
                <path d="M-2.919,-2.919C-4.531,-2.919 -5.838,-1.612 -5.838,-0C-5.838,1.612 -4.531,2.919 -2.919,2.919C-1.307,2.919 -0,1.612 -0,-0C-0,-1.612 -1.307,-2.919 -2.919,-2.919" style="fill:rgb(134,109,226);fill-rule:nonzero;"/>
            </g>
        </g>
        <g transform="matrix(1,0,0,1,393.958,0)">
            <g transform="matrix(0.382687,-0.923878,-0.923878,-0.382687,50.5843,281.259)">
                <path d="M-7.378,11.043C0.589,14.343 9.142,14.101 16.526,11.042" style="fill:rgb(112,84,208);fill-rule:nonzero;stroke:rgb(156,136,252);stroke-width:2px;"/>
            </g>
        </g>
        <g transform="matrix(1,0,0,1,393.958,0)">
            <g transform="matrix(1,0,0,1,90.8767,315.083)">
                <path d="M0,-53.318C5.652,-47.666 9.148,-39.857 9.148,-31.233C9.148,-22.608 5.652,-14.799 0,-9.148C-5.652,-3.496 -13.46,0 -22.085,0" style="fill:none;fill-rule:nonzero;stroke:rgb(68,58,137);stroke-width:2px;"/>
            </g>
        </g>
        <g transform="matrix(1,0,0,1,393.958,0)">
            <g opacity="0.4">
                <g transform="matrix(0,-1,-1,0,68.7917,258.235)">
                    <path d="M-25.395,-25.395C-39.42,-25.395 -50.79,-14.025 -50.79,0C-50.79,14.024 -39.42,25.395 -25.395,25.395C-11.37,25.395 0,14.024 0,0C0,-14.025 -11.37,-25.395 -25.395,-25.395" style="fill:rgb(68,58,137);fill-rule:nonzero;"/>
                </g>
            </g>
        </g>
        <g transform="matrix(1,0,0,1,393.958,0)">
            <g transform="matrix(0,-1,-1,0,75.1233,248.194)">
                <path d="M-4.812,-4.812C-7.469,-4.812 -9.624,-2.658 -9.624,0C-9.624,2.657 -7.469,4.812 -4.812,4.812C-2.155,4.812 0,2.657 0,0C0,-2.658 -2.155,-4.812 -4.812,-4.812" style="fill:rgb(134,109,226);fill-rule:nonzero;"/>
            </g>
        </g>
        <g transform="matrix(1,0,0,1,393.958,0)">
            <g transform="matrix(0,-1,-1,0,82.5826,254.394)">
                <path d="M-1.819,-1.818C-2.823,-1.818 -3.637,-1.004 -3.637,0C-3.637,1.005 -2.823,1.819 -1.819,1.819C-0.814,1.819 0,1.005 0,0C0,-1.004 -0.814,-1.818 -1.819,-1.818" style="fill:rgb(134,109,226);fill-rule:nonzero;"/>
            </g>
        </g>
        <g transform="matrix(1,0,0,1,393.958,0)">
            <g transform="matrix(0,-1,-1,0,69.3517,248.187)">
                <path d="M-3.298,-3.297C-5.119,-3.297 -6.595,-1.821 -6.595,0C-6.595,1.822 -5.119,3.298 -3.298,3.298C-1.477,3.298 0,1.822 0,0C0,-1.821 -1.477,-3.297 -3.298,-3.297" style="fill:rgb(134,109,226);fill-rule:nonzero;"/>
            </g>
        </g>
        <g transform="matrix(1,0,0,1,393.958,0)">
            <g transform="matrix(0,-1,-1,0,48.149,304.22)">
                <path d="M-3.297,-3.298C-5.118,-3.298 -6.595,-1.821 -6.595,-0.001C-6.595,1.821 -5.118,3.297 -3.297,3.297C-1.476,3.297 0,1.821 0,-0.001C0,-1.821 -1.476,-3.298 -3.297,-3.298" style="fill:rgb(134,109,226);fill-rule:nonzero;"/>
            </g>
        </g>
        <g transform="matrix(1,0,0,1,393.958,0)">
            <g transform="matrix(0,-1,-1,0,45.6666,299.22)">
                <path d="M-1.815,-1.815C-2.818,-1.815 -3.63,-1.003 -3.63,-0C-3.63,1.001 -2.818,1.815 -1.815,1.815C-0.813,1.815 -0,1.001 -0,-0C-0,-1.003 -0.813,-1.815 -1.815,-1.815" style="fill:rgb(134,109,226);fill-rule:nonzero;"/>
            </g>
        </g>
        <g transform="matrix(1,0,0,1,393.958,0)">
            <g transform="matrix(0,-1,-1,0,51.8425,307.85)">
                <path d="M-3.873,-3.874C-6.013,-3.874 -7.747,-2.14 -7.747,-0.001C-7.747,2.139 -6.013,3.873 -3.873,3.873C-1.734,3.873 -0,2.139 -0,-0.001C-0,-2.14 -1.734,-3.874 -3.873,-3.874" style="fill:rgb(134,109,226);fill-rule:nonzero;"/>
            </g>
        </g>
        <g transform="matrix(1,0,0,1,393.958,0)">
            <g transform="matrix(0,-1,-1,0,58.3188,309.024)">
                <path d="M-4.554,-4.553C-7.068,-4.553 -9.107,-2.514 -9.107,0C-9.107,2.515 -7.068,4.554 -4.554,4.554C-2.039,4.554 0,2.515 0,0C0,-2.514 -2.039,-4.553 -4.554,-4.553" style="fill:rgb(134,109,226);fill-rule:nonzero;"/>
            </g>
        </g>
        <g transform="matrix(1,0,0,1,393.958,0)">
            <g transform="matrix(0,-1,-1,0,80.8033,267.347)">
                <path d="M-3.298,-3.297C-5.119,-3.297 -6.595,-1.82 -6.595,0C-6.595,1.822 -5.119,3.298 -3.298,3.298C-1.477,3.298 0,1.822 0,0C0,-1.82 -1.477,-3.297 -3.298,-3.297" style="fill:rgb(156,136,252);fill-rule:nonzero;"/>
            </g>
        </g>
        <g transform="matrix(1,0,0,1,393.958,0)">
            <g transform="matrix(0,-1,-1,0,81.5792,272.368)">
                <path d="M-3.298,-3.297C-5.118,-3.297 -6.595,-1.82 -6.595,0C-6.595,1.822 -5.118,3.298 -3.298,3.298C-1.477,3.298 0,1.822 0,0C0,-1.82 -1.477,-3.297 -3.298,-3.297" style="fill:rgb(156,136,252);fill-rule:nonzero;"/>
            </g>
        </g>
        <g transform="matrix(1,0,0,1,393.958,0)">
            <g transform="matrix(0,-1,-1,0,83.643,285.42)">
                <path d="M-3.971,-3.972C-6.164,-3.972 -7.943,-2.194 -7.943,-0C-7.943,2.193 -6.164,3.971 -3.971,3.971C-1.778,3.971 -0,2.193 -0,-0C-0,-2.194 -1.778,-3.972 -3.971,-3.972" style="fill:rgb(156,136,252);fill-rule:nonzero;"/>
            </g>
        </g>
        <g transform="matrix(1,0,0,1,393.958,0)">
            <g transform="matrix(0,-1,-1,0,53.28,287.194)">
                <path d="M-3.022,-3.022C-4.69,-3.022 -6.043,-1.669 -6.043,-0.001C-6.043,1.668 -4.69,3.022 -3.022,3.022C-1.353,3.022 -0.001,1.668 -0.001,-0.001C-0.001,-1.669 -1.353,-3.022 -3.022,-3.022" style="fill:rgb(156,136,252);fill-rule:nonzero;"/>
            </g>
        </g>
        <g transform="matrix(1,0,0,1,393.958,0)">
            <g transform="matrix(0,-1,-1,0,56.4948,289.583)">
                <path d="M-3.022,-3.022C-4.69,-3.022 -6.043,-1.669 -6.043,-0.001C-6.043,1.668 -4.69,3.022 -3.022,3.022C-1.353,3.022 -0.001,1.668 -0.001,-0.001C-0.001,-1.669 -1.353,-3.022 -3.022,-3.022" style="fill:rgb(156,136,252);fill-rule:nonzero;"/>
            </g>
        </g>
        <g transform="matrix(1,0,0,1,393.958,0)">
            <g transform="matrix(0,-1,-1,0,68.7919,271.658)">
                <path d="M-11.971,-11.971C-18.583,-11.971 -23.944,-6.611 -23.944,0.001C-23.944,6.611 -18.583,11.971 -11.971,11.971C-5.36,11.971 0.001,6.611 0.001,0.001C0.001,-6.611 -5.36,-11.971 -11.971,-11.971" style="fill:rgb(0,113,188);fill-rule:nonzero;"/>
            </g>
        </g>
        <g transform="matrix(1,0,0,1,393.958,0)">
            <g opacity="0.3">
                <g transform="matrix(1,0,0,1,68.7917,295.6)">
                    <path d="M0,-23.943C-6.612,-23.943 -11.972,-18.583 -11.972,-11.971C-11.972,-5.36 -6.612,0 0,0C6.612,0 11.972,-5.36 11.972,-11.971C11.972,-18.583 6.612,-23.943 0,-23.943M0,-20.943C4.947,-20.943 8.972,-16.919 8.972,-11.971C8.972,-7.024 4.947,-3 0,-3C-4.947,-3 -8.972,-7.024 -8.972,-11.971C-8.972,-16.919 -4.947,-20.943 0,-20.943" style="fill:rgb(41,171,226);fill-rule:nonzero;"/>
                </g>
            </g>
        </g>
        <g transform="matrix(1,0,0,1,393.958,0)">
            <g transform="matrix(1,0,0,1,68.7917,269.658)">
                <path d="M0,27.943C-7.704,27.943 -13.971,21.675 -13.971,13.971C-13.971,6.267 -7.704,0 0,0C7.704,0 13.972,6.267 13.972,13.971C13.972,21.675 7.704,27.943 0,27.943" style="fill:rgb(251,176,59);fill-rule:nonzero;"/>
            </g>
        </g>
        <g transform="matrix(1,0,0,1,393.958,0)">
            <g transform="matrix(1,0,0,1,68.7917,299.6)">
                <path d="M0,-31.943C-8.807,-31.943 -15.972,-24.778 -15.972,-15.971C-15.972,-7.165 -8.807,0 0,0C8.807,0 15.972,-7.165 15.972,-15.971C15.972,-24.778 8.807,-31.943 0,-31.943M0,-27.943C6.612,-27.943 11.972,-22.583 11.972,-15.971C11.972,-9.36 6.612,-4 0,-4C-6.612,-4 -11.972,-9.36 -11.972,-15.971C-11.972,-22.583 -6.612,-27.943 0,-27.943" style="fill:rgb(68,58,137);fill-rule:nonzero;"/>
            </g>
        </g>
        <g transform="matrix(1,0,0,1,393.958,0)">
            <g transform="matrix(-0.92388,0.382683,0.382683,0.92388,70.4886,306.627)">
                <path d="M-15.062,-2.996C-10.225,-0.992 -4.624,-0.834 0.596,-2.996" style="fill:none;fill-rule:nonzero;stroke:rgb(156,136,252);stroke-width:2px;"/>
            </g>
        </g>
        <g transform="matrix(1,0,0,1,393.958,0)">
            <g transform="matrix(1,0,0,1,48.3342,263.171)">
                <path d="M0,20.458C0,14.809 2.29,9.694 5.992,5.992C9.694,2.29 14.808,0 20.458,0" style="fill:none;fill-rule:nonzero;stroke:rgb(156,136,252);stroke-width:2px;"/>
            </g>
        </g>
        <g transform="matrix(1,0,0,1,393.958,0)">
            <g transform="matrix(1,0,0,1,50.8352,258.235)">
                <path d="M0,7.437C2.298,5.139 5.034,3.28 8.072,1.995C11.11,0.71 14.45,0 17.957,0" style="fill:none;fill-rule:nonzero;stroke:rgb(68,58,137);stroke-width:2px;"/>
            </g>
        </g>
        <g transform="matrix(1,0,0,1,393.958,0)">
            <g transform="matrix(-0.197927,-0.980217,-0.980217,0.197927,49.042,286.615)">
                <path d="M-6.04,4.943C-2.808,5.601 0.608,5.636 4.044,4.943" style="fill:none;fill-rule:nonzero;stroke:rgb(68,58,137);stroke-width:2px;"/>
            </g>
        </g>
        <g transform="matrix(1,0,0,1,393.958,0)">
            <g transform="matrix(-0.707133,-0.707081,-0.707081,0.707133,58.2971,294.985)">
                <path d="M-22.927,-25.006C-24.166,-21.949 -24.785,-18.699 -24.786,-15.45C-24.786,-12.2 -24.166,-8.951 -22.927,-5.894C-21.687,-2.837 -19.827,0.028 -17.347,2.507C-14.868,4.986 -12.004,6.846 -8.947,8.085" style="fill:none;fill-rule:nonzero;stroke:rgb(68,58,137);stroke-width:2px;"/>
            </g>
        </g>
        <g transform="matrix(1,0,0,1,393.958,0)">
            <g transform="matrix(0.559007,0.829163,0.829163,-0.559007,91.2951,265.196)">
                <path d="M-2.147,-4.036C1.043,-3.416 4.351,-3.403 7.589,-4.036" style="fill:none;fill-rule:nonzero;stroke:rgb(68,58,137);stroke-width:2px;"/>
            </g>
        </g>
        <g transform="matrix(1,0,0,1,393.958,0)">
            <g transform="matrix(1,0,0,1,68.7917,270.658)">
                <path d="M0,25.943C-7.152,25.943 -12.971,20.124 -12.971,12.971C-12.971,5.819 -7.152,0 0,0C7.153,0 12.972,5.819 12.972,12.971C12.972,20.124 7.153,25.943 0,25.943" style="fill:rgb(255,201,67);fill-rule:nonzero;"/>
            </g>
        </g>
        <g transform="matrix(1,0,0,1,393.958,0)">
            <g transform="matrix(1,0,0,1,68.7917,297.6)">
                <path d="M0,-27.943C-7.704,-27.943 -13.972,-21.675 -13.972,-13.971C-13.972,-6.267 -7.704,0 0,0C7.704,0 13.972,-6.267 13.972,-13.971C13.972,-21.675 7.704,-27.943 0,-27.943M0,-25.943C6.612,-25.943 11.972,-20.583 11.972,-13.971C11.972,-7.36 6.612,-2 0,-2C-6.612,-2 -11.972,-7.36 -11.972,-13.971C-11.972,-20.583 -6.612,-25.943 0,-25.943" style="fill:rgb(216,163,69);fill-rule:nonzero;"/>
            </g>
        </g>
        <g transform="matrix(1,0,0,1,393.958,0)">
            <g opacity="0.25">
                <g transform="matrix(0,-1,-1,0,68.7919,277.534)">
                    <path d="M-6.095,-6.095C-9.461,-6.095 -12.19,-3.366 -12.19,0C-12.19,3.366 -9.461,6.095 -6.095,6.095C-2.729,6.095 0,3.366 0,0C0,-3.366 -2.729,-6.095 -6.095,-6.095" style="fill:white;fill-rule:nonzero;"/>
                </g>
            </g>
        </g>
        <g transform="matrix(1,0,0,1,393.958,0)">
            <g opacity="0.5">
                <g transform="matrix(1,0,0,1,57.9602,272.798)">
                    <path d="M0,10.831C0,4.849 4.85,0 10.832,0C16.813,0 21.663,4.849 21.663,10.831" style="fill:none;fill-rule:nonzero;stroke:white;stroke-width:2px;"/>
                </g>
            </g>
        </g>
        <g transform="matrix(1,0,0,1,393.958,0)">
            <g opacity="0.25">
                <g transform="matrix(1,0,0,1,76.4509,294.601)">
                    <path d="M0,-3.173C-1.96,-1.213 -4.668,0 -7.659,0C-10.65,0 -13.358,-1.213 -15.318,-3.173" style="fill:none;fill-rule:nonzero;stroke:black;stroke-width:2px;"/>
                </g>
            </g>
        </g>
    </g>
</svg>
