<?xml version="1.0" encoding="UTF-8" standalone="no"?>
<!DOCTYPE svg PUBLIC "-//W3C//DTD SVG 1.1//EN" "http://www.w3.org/Graphics/SVG/1.1/DTD/svg11.dtd">
<svg width="100%" height="100%" viewBox="0 0 100 100" version="1.1" xmlns="http://www.w3.org/2000/svg" xmlns:xlink="http://www.w3.org/1999/xlink" xml:space="preserve" xmlns:serif="http://www.serif.com/" style="fill-rule:evenodd;clip-rule:evenodd;stroke-linecap:round;stroke-miterlimit:10;">
    <g transform="matrix(1,0,0,1,-1064.27,-126)">
        <g id="slide" transform="matrix(0.998677,0,0,0.998677,289.631,-0.418022)">
            <rect x="775.667" y="126.585" width="100.132" height="100.132" style="fill:none;"/>
            <g id="Layer4" transform="matrix(1.00132,0,0,1.00132,-291.494,1.25869)">
                <g transform="matrix(1,0,0,1,1115.75,136.578)">
                    <path d="M0,77.167C-21.275,77.167 -38.583,59.858 -38.583,38.583C-38.583,17.309 -21.275,0 0,0C21.275,0 38.583,17.309 38.583,38.583C38.583,59.858 21.275,77.167 0,77.167" style="fill:rgb(112,84,208);fill-rule:nonzero;"/>
                </g>
                <g transform="matrix(1,0,0,1,1115.75,215.245)">
                    <path d="M0,-80.167C-22.102,-80.167 -40.083,-62.186 -40.083,-40.084C-40.083,-17.981 -22.102,0 0,0C22.102,0 40.083,-17.981 40.083,-40.084C40.083,-62.186 22.102,-80.167 0,-80.167M0,-77.167C20.48,-77.167 37.083,-60.564 37.083,-40.084C37.083,-19.604 20.48,-3 0,-3C-20.48,-3 -37.083,-19.604 -37.083,-40.084C-37.083,-60.564 -20.48,-77.167 0,-77.167" style="fill:rgb(68,58,137);fill-rule:nonzero;"/>
                </g>
                <g transform="matrix(1,0,0,1,1115.75,139.578)">
                    <path d="M0,71.167C-19.621,71.167 -35.583,55.204 -35.583,35.583C-35.583,15.963 -19.621,0 0,0C19.621,0 35.583,15.963 35.583,35.583C35.583,55.204 19.621,71.167 0,71.167" style="fill:rgb(112,84,208);fill-rule:nonzero;"/>
                </g>
                <g transform="matrix(1,0,0,1,1115.75,212.245)">
                    <path d="M0,-74.167C-20.48,-74.167 -37.083,-57.564 -37.083,-37.084C-37.083,-16.604 -20.48,0 0,0C20.48,0 37.083,-16.604 37.083,-37.084C37.083,-57.564 20.48,-74.167 0,-74.167M0,-71.167C18.793,-71.167 34.083,-55.877 34.083,-37.084C34.083,-18.29 18.793,-3 0,-3C-18.793,-3 -34.083,-18.29 -34.083,-37.084C-34.083,-55.877 -18.793,-71.167 0,-71.167" style="fill:rgb(134,109,226);fill-rule:nonzero;"/>
                </g>
                <g transform="matrix(0,-1,-1,0,1146.98,173.632)">
                    <path d="M-4.554,-4.553C-7.068,-4.553 -9.107,-2.514 -9.107,0C-9.107,2.515 -7.068,4.554 -4.554,4.554C-2.039,4.554 0,2.515 0,0C0,-2.514 -2.039,-4.553 -4.554,-4.553" style="fill:rgb(134,109,226);fill-rule:nonzero;"/>
                </g>
                <g transform="matrix(0,-1,-1,0,1144.69,169.344)">
                    <path d="M-2.919,-2.919C-4.531,-2.919 -5.838,-1.612 -5.838,-0C-5.838,1.612 -4.531,2.919 -2.919,2.919C-1.307,2.919 -0,1.612 -0,-0C-0,-1.612 -1.307,-2.919 -2.919,-2.919" style="fill:rgb(134,109,226);fill-rule:nonzero;"/>
                </g>
                <g transform="matrix(1,0,0,1,1137.83,206.394)">
                    <path d="M0,-53.318C5.652,-47.666 9.148,-39.857 9.148,-31.233C9.148,-22.608 5.652,-14.799 0,-9.148C-5.652,-3.496 -13.46,0 -22.085,0" style="fill:none;fill-rule:nonzero;stroke:rgb(68,58,137);stroke-width:2px;"/>
                </g>
                <g transform="matrix(1,0,0,1,1046.96,-108.689)">
                    <g opacity="0.4">
                        <g transform="matrix(0,-1,-1,0,68.7917,258.235)">
                            <path d="M-25.395,-25.395C-39.42,-25.395 -50.79,-14.025 -50.79,0C-50.79,14.024 -39.42,25.395 -25.395,25.395C-11.37,25.395 0,14.024 0,0C0,-14.025 -11.37,-25.395 -25.395,-25.395" style="fill:rgb(68,58,137);fill-rule:nonzero;"/>
                        </g>
                    </g>
                </g>
                <g transform="matrix(0,-1,-1,0,1122.08,139.505)">
                    <path d="M-4.812,-4.812C-7.469,-4.812 -9.624,-2.658 -9.624,0C-9.624,2.657 -7.469,4.812 -4.812,4.812C-2.155,4.812 0,2.657 0,0C0,-2.658 -2.155,-4.812 -4.812,-4.812" style="fill:rgb(134,109,226);fill-rule:nonzero;"/>
                </g>
                <g transform="matrix(0,-1,-1,0,1116.31,139.497)">
                    <path d="M-3.298,-3.297C-5.119,-3.297 -6.595,-1.821 -6.595,0C-6.595,1.822 -5.119,3.298 -3.298,3.298C-1.477,3.298 0,1.822 0,0C0,-1.821 -1.477,-3.297 -3.298,-3.297" style="fill:rgb(134,109,226);fill-rule:nonzero;"/>
                </g>
                <g transform="matrix(0,-1,-1,0,1095.11,195.531)">
                    <path d="M-3.297,-3.298C-5.118,-3.298 -6.595,-1.821 -6.595,-0.001C-6.595,1.821 -5.118,3.297 -3.297,3.297C-1.476,3.297 0,1.821 0,-0.001C0,-1.821 -1.476,-3.298 -3.297,-3.298" style="fill:rgb(134,109,226);fill-rule:nonzero;"/>
                </g>
                <g transform="matrix(0,-1,-1,0,1098.8,199.161)">
                    <path d="M-3.873,-3.874C-6.013,-3.874 -7.747,-2.14 -7.747,-0.001C-7.747,2.139 -6.013,3.873 -3.873,3.873C-1.734,3.873 -0,2.139 -0,-0.001C-0,-2.14 -1.734,-3.874 -3.873,-3.874" style="fill:rgb(134,109,226);fill-rule:nonzero;"/>
                </g>
                <g transform="matrix(0,-1,-1,0,1105.28,200.335)">
                    <path d="M-4.554,-4.553C-7.068,-4.553 -9.107,-2.514 -9.107,0C-9.107,2.515 -7.068,4.554 -4.554,4.554C-2.039,4.554 0,2.515 0,0C0,-2.514 -2.039,-4.553 -4.554,-4.553" style="fill:rgb(134,109,226);fill-rule:nonzero;"/>
                </g>
            </g>
        </g>
    </g>
</svg>
