<?xml version="1.0" encoding="UTF-8" standalone="no"?>
<!DOCTYPE svg PUBLIC "-//W3C//DTD SVG 1.1//EN" "http://www.w3.org/Graphics/SVG/1.1/DTD/svg11.dtd">
<svg width="100%" height="100%" viewBox="0 0 20 20" version="1.1" xmlns="http://www.w3.org/2000/svg" xmlns:xlink="http://www.w3.org/1999/xlink" xml:space="preserve" xmlns:serif="http://www.serif.com/" style="fill-rule:evenodd;clip-rule:evenodd;stroke-linejoin:round;stroke-miterlimit:2;">
    <g transform="matrix(1,0,0,1,-458.68,-392.398)">
        <g transform="matrix(1,0,0,1,400.101,-17.5167)">
            <g opacity="0.3">
                <g opacity="0.4">
                    <g transform="matrix(0,-1,-1,0,68.1796,409.915)">
                        <path d="M-9.601,-9.6C-14.903,-9.6 -19.201,-5.302 -19.201,0.001C-19.201,5.303 -14.903,9.601 -9.601,9.601C-4.298,9.601 -0,5.303 -0,0.001C-0,-5.302 -4.298,-9.6 -9.601,-9.6" style="fill:rgb(134,109,226);fill-rule:nonzero;"/>
                    </g>
                </g>
                <g transform="matrix(1,0,0,1,68.179,427.502)">
                    <path d="M0,-15.972C-4.403,-15.972 -7.986,-12.39 -7.986,-7.986C-7.986,-3.582 -4.403,0 0,0C4.403,0 7.986,-3.582 7.986,-7.986C7.986,-12.39 4.403,-15.972 0,-15.972M0,-13.972C3.306,-13.972 5.986,-11.292 5.986,-7.986C5.986,-4.68 3.306,-2 0,-2C-3.306,-2 -5.986,-4.68 -5.986,-7.986C-5.986,-11.292 -3.306,-13.972 0,-13.972" style="fill:rgb(134,109,226);fill-rule:nonzero;"/>
                </g>
                <g transform="matrix(0,-1,-1,0,68.1793,413.529)">
                    <path d="M-5.987,-5.986C-9.293,-5.986 -11.972,-3.306 -11.972,0C-11.972,3.306 -9.293,5.987 -5.987,5.987C-2.68,5.987 -0,3.306 -0,0C-0,-3.306 -2.68,-5.986 -5.987,-5.986" style="fill:rgb(112,84,208);fill-rule:nonzero;"/>
                </g>
                <g transform="matrix(1,0,0,1,68.179,426.502)">
                    <path d="M0,-13.972C-3.852,-13.972 -6.986,-10.838 -6.986,-6.986C-6.986,-3.134 -3.852,0 0,0C3.852,0 6.986,-3.134 6.986,-6.986C6.986,-10.838 3.852,-13.972 0,-13.972M0,-12.972C3.306,-12.972 5.986,-10.292 5.986,-6.986C5.986,-3.68 3.306,-1 0,-1C-3.306,-1 -5.986,-3.68 -5.986,-6.986C-5.986,-10.292 -3.306,-12.972 0,-12.972" style="fill:rgb(68,58,137);fill-rule:nonzero;"/>
                </g>
                <g transform="matrix(0,-1,-1,0,68.1798,416.468)">
                    <path d="M-3.048,-3.047C-4.731,-3.047 -6.095,-1.682 -6.095,0.001C-6.095,1.684 -4.731,3.048 -3.048,3.048C-1.364,3.048 0,1.684 0,0.001C0,-1.682 -1.364,-3.047 -3.048,-3.047" style="fill:rgb(255,201,67);fill-rule:nonzero;"/>
                </g>
                <g opacity="0.5">
                    <g transform="matrix(1,0,0,1,73.5945,413.6)">
                        <path d="M0,6.416C-0.276,6.416 -0.5,6.192 -0.5,5.916C-0.5,3.205 -2.705,1 -5.416,1C-8.126,1 -10.331,3.205 -10.331,5.916C-10.331,6.192 -10.555,6.416 -10.831,6.416C-11.107,6.416 -11.331,6.192 -11.331,5.916C-11.331,2.653 -8.677,0 -5.416,0C-2.154,0 0.5,2.653 0.5,5.916C0.5,6.192 0.276,6.416 0,6.416" style="fill:white;fill-rule:nonzero;"/>
                    </g>
                </g>
                <g opacity="0.25">
                    <g transform="matrix(1,0,0,1,68.179,422.866)">
                        <path d="M0,2.635C-1.581,2.635 -3.066,2.02 -4.183,0.903C-4.378,0.707 -4.378,0.391 -4.183,0.196C-3.988,0 -3.671,0 -3.476,0.196C-2.548,1.123 -1.313,1.635 0,1.635C1.313,1.635 2.548,1.123 3.476,0.196C3.671,0 3.988,0 4.183,0.196C4.378,0.391 4.378,0.707 4.183,0.903C3.066,2.02 1.58,2.635 0,2.635" style="fill-rule:nonzero;"/>
                    </g>
                </g>
            </g>
        </g>
    </g>
</svg>
