<?xml version="1.0" encoding="UTF-8" standalone="no"?>
<!DOCTYPE svg PUBLIC "-//W3C//DTD SVG 1.1//EN" "http://www.w3.org/Graphics/SVG/1.1/DTD/svg11.dtd">
<svg width="100%" height="100%" viewBox="0 0 32 20" version="1.1" xmlns="http://www.w3.org/2000/svg" xmlns:xlink="http://www.w3.org/1999/xlink" xml:space="preserve" xmlns:serif="http://www.serif.com/" style="fill-rule:evenodd;clip-rule:evenodd;stroke-linejoin:round;stroke-miterlimit:2;">
    <g transform="matrix(1,0,0,1,165.854,-32.4163)">
        <g transform="matrix(1.00182,0,0,0.93741,-404.416,-34.684)">
            <path d="M269.118,82.248C269.118,79.419 268.066,76.706 266.194,74.705C264.322,72.704 261.783,71.581 259.136,71.581C255.607,71.581 251.639,71.581 248.11,71.581C245.463,71.581 242.924,72.704 241.052,74.705C239.18,76.706 238.128,79.419 238.128,82.248C238.128,82.248 238.128,82.248 238.128,82.248C238.128,85.078 239.18,87.791 241.052,89.791C242.924,91.792 245.463,92.916 248.11,92.916C251.639,92.916 255.607,92.916 259.136,92.916C261.783,92.916 264.322,91.792 266.194,89.791C268.066,87.791 269.118,85.078 269.118,82.248C269.118,82.248 269.118,82.248 269.118,82.248Z" style="fill:white;"/>
        </g>
    </g>
</svg>
