<?xml version="1.0" encoding="UTF-8" standalone="no"?>
<!DOCTYPE svg PUBLIC "-//W3C//DTD SVG 1.1//EN" "http://www.w3.org/Graphics/SVG/1.1/DTD/svg11.dtd">
<svg width="100%" height="100%" viewBox="0 0 101 101" version="1.1" xmlns="http://www.w3.org/2000/svg" xmlns:xlink="http://www.w3.org/1999/xlink" xml:space="preserve" xmlns:serif="http://www.serif.com/" style="fill-rule:evenodd;clip-rule:evenodd;stroke-linecap:round;stroke-linejoin:round;">
    <g transform="matrix(1,0,0,1,-1093.46,-819.178)">
        <g id="genericsilicon_icon" transform="matrix(1,0,0,1,-3580.7,298.178)">
            <rect x="4674.16" y="521" width="100.045" height="100.045" style="fill:none;"/>
            <g transform="matrix(0.775565,0.448305,-0.469241,0.811785,1857.76,-1703.8)">
                <g transform="matrix(0.99924,0,0,0.985875,-189.402,7.70445)">
                    <path d="M4270.28,546.293C4270.28,545.826 4269.89,545.447 4269.41,545.447L4262.58,545.447C4262.1,545.447 4261.7,545.826 4261.7,546.293L4261.7,547.983C4261.7,548.45 4262.1,548.829 4262.58,548.829L4269.41,548.829C4269.89,548.829 4270.28,548.45 4270.28,547.983L4270.28,546.293Z" style="fill:rgb(228,169,0);"/>
                </g>
                <g transform="matrix(1.00103,0,0,1.02113,-195.032,-11.6352)">
                    <path d="M4265.28,547.003C4265.28,544.944 4263.49,543.273 4261.3,543.273L4256.71,543.273C4254.51,543.273 4252.72,544.944 4252.72,547.003C4252.72,549.062 4254.51,550.733 4256.71,550.733L4261.3,550.733C4263.49,550.733 4265.28,549.062 4265.28,547.003Z" style="fill:rgb(123,123,123);"/>
                    <path d="M4265.28,547.003C4265.28,544.944 4263.49,543.273 4261.3,543.273L4256.71,543.273C4254.51,543.273 4252.72,544.944 4252.72,547.003C4252.72,549.062 4254.51,550.733 4256.71,550.733L4261.3,550.733C4263.49,550.733 4265.28,549.062 4265.28,547.003ZM4263.65,547.003C4263.65,548.223 4262.6,549.213 4261.3,549.213C4261.3,549.213 4256.71,549.213 4256.71,549.213C4255.4,549.213 4254.35,548.223 4254.35,547.003C4254.35,545.783 4255.4,544.793 4256.71,544.793L4261.3,544.793C4262.6,544.793 4263.65,545.783 4263.65,547.003Z" style="fill:rgb(34,34,34);"/>
                </g>
            </g>
            <g transform="matrix(0.775565,0.448305,-0.469241,0.811785,1850.21,-1690.74)">
                <g transform="matrix(0.99924,0,0,0.985875,-189.402,7.70445)">
                    <path d="M4270.28,546.293C4270.28,545.826 4269.89,545.447 4269.41,545.447L4262.58,545.447C4262.1,545.447 4261.7,545.826 4261.7,546.293L4261.7,547.983C4261.7,548.45 4262.1,548.829 4262.58,548.829L4269.41,548.829C4269.89,548.829 4270.28,548.45 4270.28,547.983L4270.28,546.293Z" style="fill:rgb(228,169,0);"/>
                </g>
                <g transform="matrix(1.00103,0,0,1.02113,-195.032,-11.6352)">
                    <path d="M4265.28,547.003C4265.28,544.944 4263.49,543.273 4261.3,543.273L4256.71,543.273C4254.51,543.273 4252.72,544.944 4252.72,547.003C4252.72,549.062 4254.51,550.733 4256.71,550.733L4261.3,550.733C4263.49,550.733 4265.28,549.062 4265.28,547.003Z" style="fill:rgb(123,123,123);"/>
                    <path d="M4265.28,547.003C4265.28,544.944 4263.49,543.273 4261.3,543.273L4256.71,543.273C4254.51,543.273 4252.72,544.944 4252.72,547.003C4252.72,549.062 4254.51,550.733 4256.71,550.733L4261.3,550.733C4263.49,550.733 4265.28,549.062 4265.28,547.003ZM4263.65,547.003C4263.65,548.223 4262.6,549.213 4261.3,549.213C4261.3,549.213 4256.71,549.213 4256.71,549.213C4255.4,549.213 4254.35,548.223 4254.35,547.003C4254.35,545.783 4255.4,544.793 4256.71,544.793C4256.71,544.793 4261.3,544.793 4261.3,544.793C4262.6,544.793 4263.65,545.783 4263.65,547.003Z" style="fill:rgb(34,34,34);"/>
                </g>
            </g>
            <g transform="matrix(0.775565,0.448305,-0.469241,0.811785,1842.6,-1677.58)">
                <g transform="matrix(0.99924,0,0,0.985875,-189.402,7.70445)">
                    <path d="M4270.28,546.293C4270.28,545.826 4269.89,545.447 4269.41,545.447L4262.58,545.447C4262.1,545.447 4261.7,545.826 4261.7,546.293L4261.7,547.983C4261.7,548.45 4262.1,548.829 4262.58,548.829L4269.41,548.829C4269.89,548.829 4270.28,548.45 4270.28,547.983L4270.28,546.293Z" style="fill:rgb(228,169,0);"/>
                </g>
                <g transform="matrix(1.00103,0,0,1.02113,-195.032,-11.6352)">
                    <path d="M4265.28,547.003C4265.28,544.944 4263.49,543.273 4261.3,543.273L4256.71,543.273C4254.51,543.273 4252.72,544.944 4252.72,547.003C4252.72,549.062 4254.51,550.733 4256.71,550.733L4261.3,550.733C4263.49,550.733 4265.28,549.062 4265.28,547.003Z" style="fill:rgb(123,123,123);"/>
                    <path d="M4265.28,547.003C4265.28,544.944 4263.49,543.273 4261.3,543.273L4256.71,543.273C4254.51,543.273 4252.72,544.944 4252.72,547.003C4252.72,549.062 4254.51,550.733 4256.71,550.733L4261.3,550.733C4263.49,550.733 4265.28,549.062 4265.28,547.003ZM4263.65,547.003C4263.65,548.223 4262.6,549.213 4261.3,549.213C4261.3,549.213 4256.71,549.213 4256.71,549.213C4255.4,549.213 4254.35,548.223 4254.35,547.003C4254.35,545.783 4255.4,544.793 4256.71,544.793C4256.71,544.793 4261.3,544.793 4261.3,544.793C4262.6,544.793 4263.65,545.783 4263.65,547.003Z" style="fill:rgb(34,34,34);"/>
                </g>
            </g>
            <g transform="matrix(0.775565,0.448305,-0.469241,0.811785,1835.41,-1665.15)">
                <g transform="matrix(0.99924,0,0,0.985875,-189.402,7.70445)">
                    <path d="M4270.28,546.293C4270.28,545.826 4269.89,545.447 4269.41,545.447L4262.58,545.447C4262.1,545.447 4261.7,545.826 4261.7,546.293L4261.7,547.983C4261.7,548.45 4262.1,548.829 4262.58,548.829L4269.41,548.829C4269.89,548.829 4270.28,548.45 4270.28,547.983L4270.28,546.293Z" style="fill:rgb(228,169,0);"/>
                </g>
                <g transform="matrix(1.00103,0,0,1.02113,-195.032,-11.6352)">
                    <path d="M4265.28,547.003C4265.28,544.944 4263.49,543.273 4261.3,543.273L4256.71,543.273C4254.51,543.273 4252.72,544.944 4252.72,547.003C4252.72,549.062 4254.51,550.733 4256.71,550.733L4261.3,550.733C4263.49,550.733 4265.28,549.062 4265.28,547.003Z" style="fill:rgb(123,123,123);"/>
                    <path d="M4265.28,547.003C4265.28,544.944 4263.49,543.273 4261.3,543.273L4256.71,543.273C4254.51,543.273 4252.72,544.944 4252.72,547.003C4252.72,549.062 4254.51,550.733 4256.71,550.733L4261.3,550.733C4263.49,550.733 4265.28,549.062 4265.28,547.003ZM4263.65,547.003C4263.65,548.223 4262.6,549.213 4261.3,549.213L4256.71,549.213C4255.4,549.213 4254.35,548.223 4254.35,547.003C4254.35,545.783 4255.4,544.793 4256.71,544.793L4261.3,544.793C4262.6,544.793 4263.65,545.783 4263.65,547.003Z" style="fill:rgb(34,34,34);"/>
                </g>
            </g>
            <g transform="matrix(-0.775565,-0.448305,0.469241,-0.811785,7593.08,2847.66)">
                <g transform="matrix(0.99924,0,0,0.985875,-189.402,7.70445)">
                    <path d="M4270.28,546.293C4270.28,545.826 4269.89,545.447 4269.41,545.447L4262.58,545.447C4262.1,545.447 4261.7,545.826 4261.7,546.293L4261.7,547.983C4261.7,548.45 4262.1,548.829 4262.58,548.829L4269.41,548.829C4269.89,548.829 4270.28,548.45 4270.28,547.983L4270.28,546.293Z" style="fill:rgb(228,169,0);"/>
                </g>
                <g transform="matrix(1.00103,0,0,1.02113,-195.032,-11.6352)">
                    <path d="M4265.28,547.003C4265.28,544.944 4263.49,543.273 4261.3,543.273L4256.71,543.273C4254.51,543.273 4252.72,544.944 4252.72,547.003C4252.72,549.062 4254.51,550.733 4256.71,550.733L4261.3,550.733C4263.49,550.733 4265.28,549.062 4265.28,547.003Z" style="fill:rgb(123,123,123);"/>
                    <path d="M4265.28,547.003C4265.28,544.944 4263.49,543.273 4261.3,543.273L4256.71,543.273C4254.51,543.273 4252.72,544.944 4252.72,547.003C4252.72,549.062 4254.51,550.733 4256.71,550.733L4261.3,550.733C4263.49,550.733 4265.28,549.062 4265.28,547.003ZM4263.65,547.003C4263.65,548.223 4262.6,549.213 4261.3,549.213L4256.71,549.213C4255.4,549.213 4254.35,548.223 4254.35,547.003C4254.35,545.783 4255.4,544.793 4256.71,544.793C4256.71,544.793 4261.3,544.793 4261.3,544.793C4262.6,544.793 4263.65,545.783 4263.65,547.003Z" style="fill:rgb(34,34,34);"/>
                </g>
            </g>
            <g transform="matrix(-0.775565,-0.448305,0.469241,-0.811785,7600.18,2835.38)">
                <g transform="matrix(0.99924,0,0,0.985875,-189.402,7.70445)">
                    <path d="M4270.28,546.293C4270.28,545.826 4269.89,545.447 4269.41,545.447L4262.58,545.447C4262.1,545.447 4261.7,545.826 4261.7,546.293L4261.7,547.983C4261.7,548.45 4262.1,548.829 4262.58,548.829L4269.41,548.829C4269.89,548.829 4270.28,548.45 4270.28,547.983L4270.28,546.293Z" style="fill:rgb(228,169,0);"/>
                </g>
                <g transform="matrix(1.00103,0,0,1.02113,-195.032,-11.6352)">
                    <path d="M4265.28,547.003C4265.28,544.944 4263.49,543.273 4261.3,543.273L4256.71,543.273C4254.51,543.273 4252.72,544.944 4252.72,547.003C4252.72,549.062 4254.51,550.733 4256.71,550.733L4261.3,550.733C4263.49,550.733 4265.28,549.062 4265.28,547.003Z" style="fill:rgb(123,123,123);"/>
                    <path d="M4265.28,547.003C4265.28,544.944 4263.49,543.273 4261.3,543.273L4256.71,543.273C4254.51,543.273 4252.72,544.944 4252.72,547.003C4252.72,549.062 4254.51,550.733 4256.71,550.733L4261.3,550.733C4263.49,550.733 4265.28,549.062 4265.28,547.003ZM4263.65,547.003C4263.65,548.223 4262.6,549.213 4261.3,549.213C4261.3,549.213 4256.71,549.213 4256.71,549.213C4255.4,549.213 4254.35,548.223 4254.35,547.003C4254.35,545.783 4255.4,544.793 4256.71,544.793L4261.3,544.793C4262.6,544.793 4263.65,545.783 4263.65,547.003Z" style="fill:rgb(34,34,34);"/>
                </g>
            </g>
            <g transform="matrix(-0.775565,-0.448305,0.469241,-0.811785,7607.78,2822.22)">
                <g transform="matrix(0.99924,0,0,0.985875,-189.402,7.70445)">
                    <path d="M4270.28,546.293C4270.28,545.826 4269.89,545.447 4269.41,545.447L4262.58,545.447C4262.1,545.447 4261.7,545.826 4261.7,546.293L4261.7,547.983C4261.7,548.45 4262.1,548.829 4262.58,548.829L4269.41,548.829C4269.89,548.829 4270.28,548.45 4270.28,547.983L4270.28,546.293Z" style="fill:rgb(228,169,0);"/>
                </g>
                <g transform="matrix(1.00103,0,0,1.02113,-195.032,-11.6352)">
                    <path d="M4265.28,547.003C4265.28,544.944 4263.49,543.273 4261.3,543.273L4256.71,543.273C4254.51,543.273 4252.72,544.944 4252.72,547.003C4252.72,549.062 4254.51,550.733 4256.71,550.733L4261.3,550.733C4263.49,550.733 4265.28,549.062 4265.28,547.003Z" style="fill:rgb(123,123,123);"/>
                    <path d="M4265.28,547.003C4265.28,544.944 4263.49,543.273 4261.3,543.273L4256.71,543.273C4254.51,543.273 4252.72,544.944 4252.72,547.003C4252.72,549.062 4254.51,550.733 4256.71,550.733L4261.3,550.733C4263.49,550.733 4265.28,549.062 4265.28,547.003ZM4263.65,547.003C4263.65,548.223 4262.6,549.213 4261.3,549.213L4256.71,549.213C4255.4,549.213 4254.35,548.223 4254.35,547.003C4254.35,545.783 4255.4,544.793 4256.71,544.793L4261.3,544.793C4262.6,544.793 4263.65,545.783 4263.65,547.003Z" style="fill:rgb(34,34,34);"/>
                </g>
            </g>
            <g transform="matrix(-0.775565,-0.448305,0.469241,-0.811785,7615.42,2809.21)">
                <g transform="matrix(0.99924,0,0,0.985875,-189.402,7.70445)">
                    <path d="M4270.28,546.293C4270.28,545.826 4269.89,545.447 4269.41,545.447L4262.58,545.447C4262.1,545.447 4261.7,545.826 4261.7,546.293L4261.7,547.983C4261.7,548.45 4262.1,548.829 4262.58,548.829L4269.41,548.829C4269.89,548.829 4270.28,548.45 4270.28,547.983L4270.28,546.293Z" style="fill:rgb(228,169,0);"/>
                </g>
                <g transform="matrix(1.00103,0,0,1.02113,-195.032,-11.6352)">
                    <path d="M4265.28,547.003C4265.28,544.944 4263.49,543.273 4261.3,543.273L4256.71,543.273C4254.51,543.273 4252.72,544.944 4252.72,547.003C4252.72,549.062 4254.51,550.733 4256.71,550.733L4261.3,550.733C4263.49,550.733 4265.28,549.062 4265.28,547.003Z" style="fill:rgb(123,123,123);"/>
                    <path d="M4265.28,547.003C4265.28,544.944 4263.49,543.273 4261.3,543.273L4256.71,543.273C4254.51,543.273 4252.72,544.944 4252.72,547.003C4252.72,549.062 4254.51,550.733 4256.71,550.733L4261.3,550.733C4263.49,550.733 4265.28,549.062 4265.28,547.003ZM4263.65,547.003C4263.65,548.223 4262.6,549.213 4261.3,549.213L4256.71,549.213C4255.4,549.213 4254.35,548.223 4254.35,547.003C4254.35,545.783 4255.4,544.793 4256.71,544.793C4256.71,544.793 4261.3,544.793 4261.3,544.793C4262.6,544.793 4263.65,545.783 4263.65,547.003Z" style="fill:rgb(34,34,34);"/>
                </g>
            </g>
            <g transform="matrix(0.703549,0.406677,-0.491586,0.850441,2020.27,-1630.48)">
                <path d="M4263.71,537.013C4263.71,533.556 4260.31,530.75 4256.14,530.75L4220.81,530.75C4216.63,530.75 4213.24,533.556 4213.24,537.013L4213.24,588.674C4213.24,592.13 4216.63,594.936 4220.81,594.936L4256.14,594.936C4260.31,594.936 4263.71,592.13 4263.71,588.674L4263.71,537.013Z" style="fill:rgb(34,34,34);stroke:rgb(11,11,11);stroke-width:4.44px;"/>
            </g>
            <g transform="matrix(0.775565,0.448305,-0.469241,0.811785,1712.24,-1788.12)">
                <path d="M4217.14,583.413L4217.14,551.589C4217.14,550.402 4217.64,549.264 4218.51,548.425C4219.39,547.586 4220.58,547.114 4221.83,547.114C4226.97,547.114 4234.51,547.114 4234.51,547.114" style="fill:none;stroke:white;stroke-opacity:0.76;stroke-width:4.36px;"/>
            </g>
        </g>
        <g id="Layer3">
        </g>
    </g>
</svg>
