<?xml version="1.0" encoding="UTF-8" standalone="no"?>
<!DOCTYPE svg PUBLIC "-//W3C//DTD SVG 1.1//EN" "http://www.w3.org/Graphics/SVG/1.1/DTD/svg11.dtd">
<svg width="100%" height="100%" viewBox="0 0 101 100" version="1.1" xmlns="http://www.w3.org/2000/svg" xmlns:xlink="http://www.w3.org/1999/xlink" xml:space="preserve" xmlns:serif="http://www.serif.com/" style="fill-rule:evenodd;clip-rule:evenodd;stroke-linejoin:round;stroke-miterlimit:2;">
    <g transform="matrix(1,0,0,1,-1226,-541)">
        <g id="iron_icon" transform="matrix(1,0,0,1,-2633.62,19.2977)">
            <rect x="3859.76" y="521.702" width="100" height="100" style="fill:none;"/>
            <g transform="matrix(1.43072,0,0,3.76884,1700.97,-2231.53)">
                <g transform="matrix(0.966992,0,0,0.367087,49.3628,459.169)">
                    <path d="M1543.8,756.469L1525.47,756.469C1522.74,756.469 1520.52,758.688 1520.52,761.419L1520.52,789.544C1520.52,792.277 1522.74,794.496 1525.47,794.496C1528.19,794.496 1530.46,792.267 1530.46,789.544L1530.46,779.76C1530.46,779.76 1539.1,779.76 1539.1,779.76C1541.83,779.76 1544.05,777.541 1544.05,774.811C1544.05,772.091 1541.82,769.813 1539.1,769.813L1530.46,769.813C1530.46,769.813 1530.46,766.368 1530.46,766.368C1530.46,766.368 1543.8,766.368 1543.8,766.368C1546.61,766.368 1548.8,764.139 1548.8,761.419C1548.8,758.699 1546.61,756.469 1543.8,756.469ZM1543.8,758.638L1525.47,758.638C1523.93,758.638 1522.69,759.884 1522.69,761.419L1522.69,789.544C1522.69,791.08 1523.93,792.328 1525.47,792.328C1527,792.328 1528.3,791.08 1528.3,789.544L1528.3,777.592L1539.1,777.592C1540.63,777.592 1541.88,776.345 1541.88,774.811C1541.88,773.276 1540.63,771.982 1539.1,771.982L1528.3,771.982L1528.3,764.2L1543.8,764.2C1545.38,764.2 1546.63,762.953 1546.63,761.419C1546.63,759.884 1545.38,758.638 1543.8,758.638Z"/>
                    <path d="M1543.8,758.638L1525.47,758.638C1523.93,758.638 1522.69,759.884 1522.69,761.419L1522.69,789.544C1522.69,791.08 1523.93,792.328 1525.47,792.328C1527,792.328 1528.3,791.08 1528.3,789.544L1528.3,777.592L1539.1,777.592C1540.63,777.592 1541.88,776.345 1541.88,774.811C1541.88,773.276 1540.63,771.982 1539.1,771.982L1528.3,771.982L1528.3,764.2L1543.8,764.2C1545.38,764.2 1546.63,762.953 1546.63,761.419C1546.63,759.884 1545.38,758.638 1543.8,758.638Z" style="fill:white;fill-rule:nonzero;"/>
                </g>
                <g transform="matrix(0.966992,0,0,0.367087,49.3628,459.169)">
                    <path d="M1568.49,783.174C1569.69,782.267 1570.45,780.833 1570.45,779.227C1570.45,770.243 1564.35,763.813 1556.09,763.813C1547.9,763.813 1541.59,770.362 1541.59,779.227C1541.59,783.297 1543.01,787.132 1545.62,789.921C1548.38,792.953 1552.16,794.741 1556.33,794.741C1561.57,794.741 1565.97,792.875 1568.54,788.264C1569.47,786.669 1569.41,784.704 1568.49,783.174ZM1556.33,792.572C1552.78,792.572 1549.56,791.036 1547.21,788.444C1544.96,786.044 1543.76,782.733 1543.76,779.227C1543.76,771.646 1549.08,765.982 1556.09,765.982C1563.14,765.982 1568.28,771.55 1568.28,779.227C1568.28,780.764 1567.03,782.014 1565.45,782.014L1549.76,782.014C1550.72,784.94 1553.21,787.004 1556.33,787.004C1558.78,787.004 1560.75,786.332 1561.85,784.316C1562.66,782.972 1564.39,782.589 1565.69,783.356C1567.03,784.172 1567.42,785.9 1566.65,787.196C1564.49,791.084 1560.75,792.572 1556.33,792.572ZM1559.15,784.182L1553.99,784.182C1554.67,784.598 1555.46,784.836 1556.33,784.836C1557.43,784.836 1558.41,784.705 1559.15,784.182ZM1549.71,776.392L1562.33,776.392C1561.37,773.084 1558.73,771.55 1556.09,771.55C1553.5,771.55 1550.72,773.084 1549.71,776.392ZM1554.04,774.224C1554.68,773.884 1555.4,773.718 1556.09,773.718C1556.79,773.718 1557.49,773.885 1558.11,774.224C1558.11,774.223 1554.04,774.223 1554.04,774.223L1554.04,774.224Z"/>
                    <path d="M1556.33,792.572C1552.78,792.572 1549.56,791.036 1547.21,788.444C1544.96,786.044 1543.76,782.733 1543.76,779.227C1543.76,771.646 1549.08,765.982 1556.09,765.982C1563.14,765.982 1568.28,771.55 1568.28,779.227C1568.28,780.764 1567.03,782.014 1565.45,782.014L1549.76,782.014C1550.72,784.94 1553.21,787.004 1556.33,787.004C1558.78,787.004 1560.75,786.332 1561.85,784.316C1562.66,782.972 1564.39,782.589 1565.69,783.356C1567.03,784.172 1567.42,785.9 1566.65,787.196C1564.49,791.084 1560.75,792.572 1556.33,792.572ZM1549.71,776.392L1562.33,776.392C1561.37,773.084 1558.73,771.55 1556.09,771.55C1553.5,771.55 1550.72,773.084 1549.71,776.392Z" style="fill:white;fill-rule:nonzero;"/>
                </g>
            </g>
        </g>
    </g>
</svg>
