<?xml version="1.0" encoding="UTF-8" standalone="no"?>
<!DOCTYPE svg PUBLIC "-//W3C//DTD SVG 1.1//EN" "http://www.w3.org/Graphics/SVG/1.1/DTD/svg11.dtd">
<svg width="100%" height="100%" viewBox="0 0 101 101" version="1.1" xmlns="http://www.w3.org/2000/svg" xmlns:xlink="http://www.w3.org/1999/xlink" xml:space="preserve" xmlns:serif="http://www.serif.com/" style="fill-rule:evenodd;clip-rule:evenodd;stroke-linejoin:round;stroke-miterlimit:2;">
    <g transform="matrix(1,0,0,1,-4870,-934)">
        <g id="phosporuspromethium_icon" transform="matrix(1,0,0,1,195.93,413.027)">
            <rect x="4674.16" y="521" width="100.045" height="100.045" style="fill:none;"/>
            <g transform="matrix(46.0395,0,0,46.0395,4679.83,587.205)">
                <path d="M0.273,-0.703L0.078,-0.703C0.046,-0.703 0.02,-0.677 0.02,-0.645L0.02,-0.059C0.02,-0.026 0.046,0 0.078,0C0.11,0 0.136,-0.026 0.136,-0.059L0.136,-0.194L0.273,-0.194C0.413,-0.194 0.527,-0.308 0.527,-0.449C0.527,-0.589 0.413,-0.703 0.273,-0.703ZM0.273,-0.311L0.136,-0.311L0.136,-0.586L0.273,-0.586C0.349,-0.586 0.411,-0.525 0.411,-0.449C0.411,-0.372 0.349,-0.311 0.273,-0.311Z" style="fill:white;fill-rule:nonzero;"/>
            </g>
            <g transform="matrix(0.789296,0,0,0.830274,1652.99,93.2636)">
                <g transform="matrix(60.1827,0,0,56.3919,3866.71,595.245)">
                    <path d="M0.273,-0.703L0.078,-0.703C0.046,-0.703 0.02,-0.677 0.02,-0.645L0.02,-0.059C0.02,-0.026 0.046,0 0.078,0C0.11,0 0.136,-0.026 0.136,-0.059L0.136,-0.194L0.273,-0.194C0.413,-0.194 0.527,-0.308 0.527,-0.449C0.527,-0.589 0.413,-0.703 0.273,-0.703ZM0.273,-0.311L0.136,-0.311L0.136,-0.586L0.273,-0.586C0.349,-0.586 0.411,-0.525 0.411,-0.449C0.411,-0.372 0.349,-0.311 0.273,-0.311Z" style="fill:white;fill-rule:nonzero;"/>
                </g>
                <g transform="matrix(60.1827,0,0,56.3919,3899.63,595.245)">
                    <path d="M0.561,-0.551C0.496,-0.551 0.438,-0.524 0.398,-0.479C0.361,-0.524 0.306,-0.551 0.243,-0.551C0.201,-0.551 0.162,-0.54 0.129,-0.52C0.12,-0.538 0.1,-0.551 0.078,-0.551C0.046,-0.551 0.02,-0.525 0.02,-0.493L0.02,-0.058C0.02,-0.026 0.046,0 0.078,0C0.11,0 0.136,-0.026 0.136,-0.058L0.136,-0.304L0.136,-0.308L0.136,-0.312C0.136,-0.371 0.169,-0.435 0.243,-0.435C0.3,-0.435 0.337,-0.385 0.337,-0.312L0.337,-0.058C0.337,-0.026 0.363,0 0.396,0C0.428,0 0.454,-0.026 0.454,-0.058L0.454,-0.304L0.454,-0.308L0.454,-0.312C0.454,-0.371 0.487,-0.435 0.561,-0.435C0.618,-0.435 0.655,-0.385 0.655,-0.312L0.655,-0.058C0.655,-0.026 0.681,0 0.713,0C0.746,0 0.772,-0.026 0.772,-0.058L0.772,-0.312C0.772,-0.45 0.683,-0.551 0.561,-0.551Z" style="fill:white;fill-rule:nonzero;"/>
                </g>
            </g>
        </g>
    </g>
</svg>
