<?xml version="1.0" encoding="UTF-8" standalone="no"?>
<!DOCTYPE svg PUBLIC "-//W3C//DTD SVG 1.1//EN" "http://www.w3.org/Graphics/SVG/1.1/DTD/svg11.dtd">
<svg width="100%" height="100%" viewBox="0 0 101 101" version="1.1" xmlns="http://www.w3.org/2000/svg" xmlns:xlink="http://www.w3.org/1999/xlink" xml:space="preserve" xmlns:serif="http://www.serif.com/" style="fill-rule:evenodd;clip-rule:evenodd;stroke-linejoin:round;stroke-miterlimit:2;">
    <g transform="matrix(1,0,0,1,-1492,-541)">
        <g id="phosphorus_icon" transform="matrix(1,0,0,1,-2632.86,20)">
            <rect x="4125" y="521" width="100.045" height="100.045" style="fill:none;"/>
            <g transform="matrix(1.38349,0,0,1.38349,2036.86,-501.639)">
                <path d="M1545.46,756.421L1536.1,756.421C1533.37,756.421 1531.15,758.64 1531.15,761.371C1531.15,761.371 1531.15,789.496 1531.15,789.496C1531.15,792.304 1533.38,794.496 1536.1,794.496C1538.82,794.496 1541.05,792.304 1541.05,789.496C1541.05,789.496 1541.05,785.184 1541.05,785.184C1541.05,785.184 1545.46,785.184 1545.46,785.184C1553.38,785.184 1559.82,778.752 1559.82,770.779C1559.82,762.86 1553.38,756.421 1545.46,756.421ZM1545.46,758.59L1536.1,758.59C1534.56,758.59 1533.32,759.836 1533.32,761.371L1533.32,789.496C1533.32,791.08 1534.56,792.328 1536.1,792.328C1537.63,792.328 1538.88,791.08 1538.88,789.496L1538.88,783.016L1545.46,783.016C1552.18,783.016 1557.65,777.55 1557.65,770.779C1557.65,764.056 1552.18,758.59 1545.46,758.59ZM1545.46,777.406L1538.88,777.406L1538.88,764.2L1545.46,764.2C1549.11,764.2 1552.09,767.129 1552.09,770.779C1552.09,774.476 1549.11,777.406 1545.46,777.406ZM1545.46,775.237L1541.05,775.237C1541.05,775.237 1541.05,766.368 1541.05,766.368C1541.05,766.368 1545.46,766.368 1545.46,766.368C1547.91,766.368 1549.92,768.328 1549.92,770.779C1549.92,773.267 1547.91,775.237 1545.46,775.237Z"/>
                <path d="M1545.46,758.59L1536.1,758.59C1534.56,758.59 1533.32,759.836 1533.32,761.371L1533.32,789.496C1533.32,791.08 1534.56,792.328 1536.1,792.328C1537.63,792.328 1538.88,791.08 1538.88,789.496L1538.88,783.016L1545.46,783.016C1552.18,783.016 1557.65,777.55 1557.65,770.779C1557.65,764.056 1552.18,758.59 1545.46,758.59ZM1545.46,777.406L1538.88,777.406L1538.88,764.2L1545.46,764.2C1549.11,764.2 1552.09,767.129 1552.09,770.779C1552.09,774.476 1549.11,777.406 1545.46,777.406Z" style="fill:white;fill-rule:nonzero;"/>
            </g>
        </g>
    </g>
</svg>
