<?xml version="1.0" encoding="UTF-8" standalone="no"?>
<!DOCTYPE svg PUBLIC "-//W3C//DTD SVG 1.1//EN" "http://www.w3.org/Graphics/SVG/1.1/DTD/svg11.dtd">
<svg width="100%" height="100%" viewBox="0 0 101 101" version="1.1" xmlns="http://www.w3.org/2000/svg" xmlns:xlink="http://www.w3.org/1999/xlink" xml:space="preserve" xmlns:serif="http://www.serif.com/" style="fill-rule:evenodd;clip-rule:evenodd;stroke-linejoin:round;stroke-miterlimit:2;">
    <g transform="matrix(1,0,0,1,-2041,-541)">
        <g id="promethium_icon" transform="matrix(1,0,0,1,-2633.02,20)">
            <rect x="4674.16" y="521" width="100.045" height="100.045" style="fill:none;"/>
            <g transform="matrix(1.43072,0,0,3.76884,2515.4,-2232.17)">
                <g transform="matrix(0.966992,0,0,0.367087,49.3628,459.169)">
                    <path d="M1526.45,756.421L1517.09,756.421C1514.36,756.421 1512.14,758.64 1512.14,761.371C1512.14,761.371 1512.14,789.496 1512.14,789.496C1512.14,792.304 1514.37,794.496 1517.09,794.496C1519.81,794.496 1522.04,792.304 1522.04,789.496L1522.04,785.184C1522.04,785.184 1526.45,785.184 1526.45,785.184C1534.37,785.184 1540.81,778.752 1540.81,770.779C1540.81,762.86 1534.37,756.421 1526.45,756.421ZM1526.45,758.59L1517.09,758.59C1515.56,758.59 1514.31,759.836 1514.31,761.371L1514.31,789.496C1514.31,791.08 1515.56,792.328 1517.09,792.328C1518.62,792.328 1519.87,791.08 1519.87,789.496L1519.87,783.016L1526.45,783.016C1533.17,783.016 1538.64,777.55 1538.64,770.779C1538.64,764.056 1533.17,758.59 1526.45,758.59ZM1526.45,777.406L1519.87,777.406L1519.87,764.2L1526.45,764.2C1530.1,764.2 1533.08,767.129 1533.08,770.779C1533.08,774.476 1530.1,777.406 1526.45,777.406ZM1526.45,775.237L1522.04,775.237C1522.04,775.237 1522.04,766.368 1522.04,766.368C1522.04,766.368 1526.45,766.368 1526.45,766.368C1528.9,766.368 1530.91,768.328 1530.91,770.779C1530.91,773.267 1528.91,775.237 1526.45,775.237Z"/>
                    <path d="M1526.45,758.59L1517.09,758.59C1515.56,758.59 1514.31,759.836 1514.31,761.371L1514.31,789.496C1514.31,791.08 1515.56,792.328 1517.09,792.328C1518.62,792.328 1519.87,791.08 1519.87,789.496L1519.87,783.016L1526.45,783.016C1533.17,783.016 1538.64,777.55 1538.64,770.779C1538.64,764.056 1533.17,758.59 1526.45,758.59ZM1526.45,777.406L1519.87,777.406L1519.87,764.2L1526.45,764.2C1530.1,764.2 1533.08,767.129 1533.08,770.779C1533.08,774.476 1530.1,777.406 1526.45,777.406Z" style="fill:white;fill-rule:nonzero;"/>
                </g>
                <g transform="matrix(0.966992,0,0,0.367087,49.3628,459.169)">
                    <path d="M1548.16,777.68C1548.25,777.55 1548.3,777.439 1548.3,777.357L1548.3,777.352C1548.3,775.625 1549.1,773.616 1551.27,773.616C1552.89,773.616 1553.61,775.272 1553.61,777.352C1553.61,777.352 1553.61,789.544 1553.61,789.544C1553.61,792.267 1555.81,794.496 1558.61,794.496C1561.34,794.496 1563.56,792.277 1563.56,789.544L1563.56,777.544L1563.55,777.553L1563.56,777.352C1563.56,775.625 1564.36,773.616 1566.53,773.616C1568.16,773.616 1568.88,775.272 1568.88,777.352C1568.88,777.352 1568.88,789.544 1568.88,789.544C1568.88,792.277 1571.1,794.496 1573.83,794.496C1576.63,794.496 1578.82,792.267 1578.82,789.544L1578.82,777.352C1578.82,769.403 1573.56,763.717 1566.53,763.717C1563.59,763.717 1560.9,764.676 1558.75,766.337C1556.72,764.676 1554.14,763.717 1551.27,763.717C1549.49,763.717 1547.81,764.061 1546.28,764.698C1545.46,764.089 1544.43,763.717 1543.35,763.717C1540.62,763.717 1538.4,765.936 1538.4,768.667C1538.4,768.667 1538.4,789.544 1538.4,789.544C1538.4,792.277 1540.62,794.496 1543.35,794.496C1546.08,794.496 1548.3,792.277 1548.3,789.544L1548.3,777.544L1548.16,777.68ZM1566.53,765.886C1563.41,765.886 1560.62,767.18 1558.71,769.338C1556.93,767.18 1554.29,765.886 1551.27,765.886C1549.25,765.886 1547.38,766.413 1545.79,767.372C1545.36,766.509 1544.4,765.886 1543.35,765.886C1541.81,765.886 1540.57,767.132 1540.57,768.667L1540.57,789.544C1540.57,791.08 1541.81,792.328 1543.35,792.328C1544.88,792.328 1546.13,791.08 1546.13,789.544L1546.13,777.352C1546.13,774.52 1547.71,771.448 1551.27,771.448C1554,771.448 1555.78,773.848 1555.78,777.352L1555.78,789.544C1555.78,791.08 1557.03,792.328 1558.61,792.328C1560.14,792.328 1561.39,791.08 1561.39,789.544L1561.39,777.352C1561.39,774.52 1562.98,771.448 1566.53,771.448C1569.27,771.448 1571.05,773.848 1571.05,777.352L1571.05,789.544C1571.05,791.08 1572.29,792.328 1573.83,792.328C1575.41,792.328 1576.66,791.08 1576.66,789.544L1576.66,777.352C1576.66,770.729 1572.39,765.886 1566.53,765.886Z"/>
                    <path d="M1566.53,765.886C1563.41,765.886 1560.62,767.18 1558.71,769.338C1556.93,767.18 1554.29,765.886 1551.27,765.886C1549.25,765.886 1547.38,766.413 1545.79,767.372C1545.36,766.509 1544.4,765.886 1543.35,765.886C1541.81,765.886 1540.57,767.132 1540.57,768.667L1540.57,789.544C1540.57,791.08 1541.81,792.328 1543.35,792.328C1544.88,792.328 1546.13,791.08 1546.13,789.544L1546.13,777.352C1546.13,774.52 1547.71,771.448 1551.27,771.448C1554,771.448 1555.78,773.848 1555.78,777.352L1555.78,789.544C1555.78,791.08 1557.03,792.328 1558.61,792.328C1560.14,792.328 1561.39,791.08 1561.39,789.544L1561.39,777.352C1561.39,774.52 1562.98,771.448 1566.53,771.448C1569.27,771.448 1571.05,773.848 1571.05,777.352L1571.05,789.544C1571.05,791.08 1572.29,792.328 1573.83,792.328C1575.41,792.328 1576.66,791.08 1576.66,789.544L1576.66,777.352C1576.66,770.729 1572.39,765.886 1566.53,765.886Z" style="fill:white;fill-rule:nonzero;"/>
                </g>
            </g>
        </g>
    </g>
</svg>
