<?xml version="1.0" encoding="UTF-8" standalone="no"?>
<!DOCTYPE svg PUBLIC "-//W3C//DTD SVG 1.1//EN" "http://www.w3.org/Graphics/SVG/1.1/DTD/svg11.dtd">
<svg width="100%" height="100%" viewBox="0 0 101 101" version="1.1" xmlns="http://www.w3.org/2000/svg" xmlns:xlink="http://www.w3.org/1999/xlink" xml:space="preserve" xmlns:serif="http://www.serif.com/" style="fill-rule:evenodd;clip-rule:evenodd;stroke-linejoin:round;stroke-miterlimit:2;">
    <g transform="matrix(1,0,0,1,-1360,-541)">
        <g id="silicon_icon" transform="matrix(1,0,0,1,-2632.86,20)">
            <rect x="3993" y="521" width="100.045" height="100.045" style="fill:none;"/>
            <g id="Layer1">
            </g>
            <g transform="matrix(1.43072,0,0,3.76884,1834.4,-2232.17)">
                <g transform="matrix(0.966992,0,0,0.367087,49.3628,459.169)">
                    <path d="M1534.17,777.374C1533.82,777.292 1533.45,777.25 1533.08,777.25C1530.35,777.25 1528.12,779.469 1528.12,782.202C1528.12,785.294 1529.35,788.329 1531.5,790.605C1531.52,790.619 1531.53,790.632 1531.54,790.646C1533.25,792.356 1536.27,794.496 1541.28,794.496C1546.32,794.496 1549.39,792.335 1551.05,790.619C1551.05,790.614 1551.06,790.61 1551.06,790.605C1553.22,788.33 1554.44,785.294 1554.44,782.202C1554.44,778.267 1552.87,775.18 1549.77,773.032L1549.73,773.009C1552.09,772.585 1553.82,770.557 1553.82,768.14C1553.82,768.14 1553.82,768.14 1553.82,768.14C1553.82,765.182 1552.63,762.282 1550.57,760.151C1548.95,758.476 1546.08,756.469 1541.28,756.469C1536.54,756.469 1533.62,758.479 1532,760.155C1531.99,760.161 1531.99,760.167 1531.98,760.173C1529.97,762.297 1528.8,765.19 1528.8,768.14C1528.8,771.889 1530.32,774.785 1533.34,776.842C1533.61,777.031 1533.89,777.208 1534.17,777.374ZM1541.28,792.328C1537.06,792.328 1534.52,790.552 1533.08,789.112C1531.3,787.241 1530.29,784.745 1530.29,782.202C1530.29,780.666 1531.54,779.418 1533.08,779.418C1534.61,779.418 1535.86,780.666 1535.86,782.202C1535.86,783.881 1537.01,786.761 1541.28,786.761C1545.55,786.761 1546.7,783.881 1546.7,782.202C1546.7,779.658 1545.31,778.89 1540.61,777.546C1538.5,776.923 1536.34,776.299 1534.56,775.051C1532.16,773.419 1530.97,771.116 1530.97,768.14C1530.97,765.741 1531.92,763.389 1533.56,761.661C1534.9,760.27 1537.35,758.638 1541.28,758.638C1545.27,758.638 1547.66,760.27 1549.01,761.661C1550.69,763.389 1551.65,765.741 1551.65,768.14C1551.65,769.676 1550.4,770.924 1548.82,770.924C1547.28,770.924 1546.03,769.676 1546.03,768.14C1546.03,766.7 1545.02,764.205 1541.28,764.205C1537.54,764.205 1536.53,766.7 1536.53,768.14C1536.53,770.012 1537.25,770.732 1542.15,772.171C1544.35,772.795 1546.66,773.467 1548.53,774.811C1551.02,776.539 1552.27,779.034 1552.27,782.202C1552.27,784.745 1551.26,787.241 1549.49,789.112C1548.1,790.552 1545.51,792.328 1541.28,792.328ZM1536.19,778.353C1537.31,779.261 1538.03,780.649 1538.03,782.202C1538.03,783.159 1538.85,784.592 1541.28,784.592C1543.72,784.592 1544.54,783.159 1544.54,782.202C1544.54,781.895 1544.54,781.643 1544.41,781.439C1544.29,781.23 1544.06,781.102 1543.77,780.946C1542.92,780.495 1541.7,780.113 1540.02,779.631C1540.01,779.63 1540,779.628 1540,779.626C1538.71,779.247 1537.42,778.857 1536.19,778.353ZM1544.53,770.615C1544.11,769.887 1543.86,769.041 1543.86,768.14C1543.86,767.41 1543.18,766.373 1541.28,766.373C1539.38,766.373 1538.7,767.41 1538.7,768.14C1538.7,768.291 1538.7,768.425 1538.73,768.544C1538.75,768.614 1538.85,768.616 1538.94,768.672C1539.13,768.793 1539.36,768.91 1539.64,769.032C1540.39,769.357 1541.4,769.69 1542.74,770.086C1543.33,770.254 1543.93,770.427 1544.53,770.615Z"/>
                    <path d="M1541.28,792.328C1537.06,792.328 1534.52,790.552 1533.08,789.112C1531.3,787.241 1530.29,784.745 1530.29,782.202C1530.29,780.666 1531.54,779.418 1533.08,779.418C1534.61,779.418 1535.86,780.666 1535.86,782.202C1535.86,783.881 1537.01,786.761 1541.28,786.761C1545.55,786.761 1546.7,783.881 1546.7,782.202C1546.7,779.658 1545.31,778.89 1540.61,777.546C1538.5,776.923 1536.34,776.299 1534.56,775.051C1532.16,773.419 1530.97,771.116 1530.97,768.14C1530.97,765.741 1531.92,763.389 1533.56,761.661C1534.9,760.27 1537.35,758.638 1541.28,758.638C1545.27,758.638 1547.66,760.27 1549.01,761.661C1550.69,763.389 1551.65,765.741 1551.65,768.14C1551.65,769.676 1550.4,770.924 1548.82,770.924C1547.28,770.924 1546.03,769.676 1546.03,768.14C1546.03,766.7 1545.02,764.205 1541.28,764.205C1537.54,764.205 1536.53,766.7 1536.53,768.14C1536.53,770.012 1537.25,770.732 1542.15,772.171C1544.35,772.795 1546.66,773.467 1548.53,774.811C1551.02,776.539 1552.27,779.034 1552.27,782.202C1552.27,784.745 1551.26,787.241 1549.49,789.112C1548.1,790.552 1545.51,792.328 1541.28,792.328Z" style="fill:white;fill-rule:nonzero;"/>
                </g>
                <g transform="matrix(0.966992,0,0,0.367087,49.3628,459.169)">
                    <path d="M1554.65,764.554C1553.33,765.444 1552.46,766.953 1552.46,768.664C1552.46,768.664 1552.46,789.544 1552.46,789.544C1552.46,792.277 1554.68,794.496 1557.41,794.496C1560.22,794.496 1562.41,792.267 1562.41,789.544C1562.41,789.544 1562.41,768.664 1562.41,768.664C1562.41,766.957 1561.55,765.443 1560.21,764.552C1561.63,763.696 1562.55,762.182 1562.6,760.379C1562.6,760.336 1562.6,760.293 1562.6,760.251C1562.52,757.431 1560.31,755.317 1557.41,755.317C1554.56,755.317 1552.27,757.466 1552.27,760.315C1552.27,762.145 1553.22,763.687 1554.65,764.554ZM1557.41,765.88C1555.88,765.88 1554.63,767.128 1554.63,768.664L1554.63,789.544C1554.63,791.08 1555.88,792.328 1557.41,792.328C1558.99,792.328 1560.24,791.08 1560.24,789.544L1560.24,768.664C1560.24,767.128 1558.99,765.88 1557.41,765.88ZM1557.41,763.144C1559.09,763.144 1560.38,761.945 1560.43,760.315C1560.38,758.684 1559.09,757.486 1557.41,757.486C1555.78,757.486 1554.44,758.684 1554.44,760.315C1554.44,761.945 1555.78,763.144 1557.41,763.144Z"/>
                    <path d="M1557.41,763.144C1559.09,763.144 1560.38,761.945 1560.43,760.315C1560.38,758.684 1559.09,757.486 1557.41,757.486C1555.78,757.486 1554.44,758.684 1554.44,760.315C1554.44,761.945 1555.78,763.144 1557.41,763.144ZM1557.41,765.88C1555.88,765.88 1554.63,767.128 1554.63,768.664L1554.63,789.544C1554.63,791.08 1555.88,792.328 1557.41,792.328C1558.99,792.328 1560.24,791.08 1560.24,789.544L1560.24,768.664C1560.24,767.128 1558.99,765.88 1557.41,765.88Z" style="fill:white;fill-rule:nonzero;"/>
                </g>
            </g>
        </g>
    </g>
</svg>
