<?xml version="1.0" encoding="UTF-8" standalone="no"?>
<!DOCTYPE svg PUBLIC "-//W3C//DTD SVG 1.1//EN" "http://www.w3.org/Graphics/SVG/1.1/DTD/svg11.dtd">
<svg width="100%" height="100%" viewBox="0 0 101 101" version="1.1" xmlns="http://www.w3.org/2000/svg" xmlns:xlink="http://www.w3.org/1999/xlink" xml:space="preserve" xmlns:serif="http://www.serif.com/" style="fill-rule:evenodd;clip-rule:evenodd;stroke-linejoin:round;stroke-miterlimit:2;">
    <g transform="matrix(1,0,0,1,-4730,-1068)">
        <g id="sodiumxenon_icon" transform="matrix(1,0,0,1,56.0797,547.527)">
            <rect x="4674.16" y="521" width="100.045" height="100.045" style="fill:none;"/>
            <g transform="matrix(0.719136,0,0,0.765581,1890.07,130.489)">
                <g transform="matrix(60.1827,0,0,56.3919,3871.43,595.245)">
                    <path d="M0.54,0C0.522,0 0.505,-0.008 0.494,-0.023L0.136,-0.477L0.136,-0.058C0.136,-0.026 0.11,0 0.078,0C0.046,0 0.02,-0.026 0.02,-0.058L0.02,-0.644C0.02,-0.669 0.036,-0.691 0.059,-0.699C0.083,-0.708 0.109,-0.7 0.124,-0.68L0.482,-0.226L0.482,-0.644C0.482,-0.677 0.508,-0.703 0.54,-0.703C0.572,-0.703 0.598,-0.677 0.598,-0.644L0.598,-0.058C0.598,-0.034 0.582,-0.012 0.559,-0.004C0.553,-0.001 0.546,0 0.54,0Z" style="fill:white;fill-rule:nonzero;"/>
                </g>
                <g transform="matrix(60.1827,0,0,56.3919,3908.63,595.245)">
                    <path d="M0.486,-0.551C0.458,-0.551 0.435,-0.532 0.429,-0.506C0.387,-0.535 0.336,-0.551 0.282,-0.551C0.208,-0.551 0.141,-0.522 0.092,-0.468C0.046,-0.418 0.02,-0.349 0.02,-0.275C0.02,-0.202 0.046,-0.133 0.092,-0.083C0.141,-0.029 0.208,0 0.282,0C0.336,0 0.387,-0.016 0.429,-0.045C0.435,-0.019 0.458,0 0.486,0C0.518,0 0.544,-0.026 0.544,-0.058L0.544,-0.493C0.544,-0.525 0.518,-0.551 0.486,-0.551ZM0.282,-0.116C0.197,-0.116 0.136,-0.183 0.136,-0.275C0.136,-0.368 0.197,-0.435 0.282,-0.435C0.366,-0.435 0.428,-0.368 0.428,-0.275C0.428,-0.183 0.366,-0.116 0.282,-0.116Z" style="fill:white;fill-rule:nonzero;"/>
                </g>
            </g>
            <g transform="matrix(0.730961,0,0,0.780097,1893.97,122.006)">
                <g transform="matrix(60.1827,0,0,56.3919,3873.63,595.245)">
                    <path d="M0.383,-0.351L0.586,-0.608C0.605,-0.634 0.601,-0.669 0.576,-0.689C0.551,-0.709 0.514,-0.705 0.494,-0.679L0.309,-0.445L0.125,-0.679C0.105,-0.705 0.069,-0.709 0.043,-0.689C0.018,-0.669 0.014,-0.634 0.034,-0.608L0.235,-0.351L0.034,-0.094C0.014,-0.069 0.018,-0.033 0.043,-0.013C0.054,-0.004 0.067,0 0.079,0C0.096,0 0.113,-0.008 0.125,-0.022L0.309,-0.257L0.494,-0.022C0.506,-0.008 0.523,0 0.54,0C0.553,0 0.565,-0.004 0.576,-0.013C0.601,-0.033 0.605,-0.069 0.586,-0.094L0.383,-0.351Z" style="fill:white;fill-rule:nonzero;"/>
                </g>
                <g transform="matrix(60.1827,0,0,56.3919,3907.21,595.245)">
                    <path d="M0.282,0.005C0.208,0.005 0.141,-0.027 0.092,-0.081C0.045,-0.131 0.02,-0.2 0.02,-0.273C0.02,-0.431 0.131,-0.549 0.277,-0.549C0.424,-0.549 0.531,-0.433 0.531,-0.273C0.531,-0.241 0.505,-0.215 0.472,-0.215L0.145,-0.215C0.165,-0.154 0.217,-0.111 0.282,-0.111C0.333,-0.111 0.374,-0.125 0.397,-0.167C0.414,-0.195 0.45,-0.203 0.477,-0.187C0.505,-0.17 0.513,-0.134 0.497,-0.107C0.452,-0.026 0.374,0.005 0.282,0.005ZM0.144,-0.332L0.407,-0.332C0.387,-0.401 0.332,-0.433 0.277,-0.433C0.223,-0.433 0.165,-0.401 0.144,-0.332Z" style="fill:white;fill-rule:nonzero;"/>
                </g>
            </g>
        </g>
    </g>
</svg>
