<?xml version="1.0" encoding="UTF-8" standalone="no"?>
<!DOCTYPE svg PUBLIC "-//W3C//DTD SVG 1.1//EN" "http://www.w3.org/Graphics/SVG/1.1/DTD/svg11.dtd">
<svg width="100%" height="100%" viewBox="0 0 101 101" version="1.1" xmlns="http://www.w3.org/2000/svg" xmlns:xlink="http://www.w3.org/1999/xlink" xml:space="preserve" xmlns:serif="http://www.serif.com/" style="fill-rule:evenodd;clip-rule:evenodd;stroke-linejoin:round;stroke-miterlimit:2;">
    <g transform="matrix(1,0,0,1,-1634,-541)">
        <g id="sodium_icon" transform="matrix(1,0,0,1,-2632.86,20)">
            <rect x="4267" y="521" width="100.045" height="100.045" style="fill:none;"/>
            <g transform="matrix(1.43072,0,0,3.76884,2106.85,-2232.23)">
                <g transform="matrix(0.966992,0,0,0.367087,49.3628,459.169)">
                    <path d="M1543.03,794.496C1543.58,794.496 1544.22,794.391 1544.78,794.138C1546.68,793.429 1547.98,791.564 1547.98,789.544C1547.98,789.544 1547.98,761.421 1547.98,761.421C1547.98,758.615 1545.75,756.421 1543.03,756.421C1540.31,756.421 1538.08,758.615 1538.08,761.421C1538.08,761.421 1538.08,775.23 1538.08,775.23C1538.08,775.23 1524.79,758.368 1524.79,758.368C1523.49,756.665 1521.27,755.983 1519.21,756.743C1517.26,757.432 1515.91,759.299 1515.91,761.421L1515.91,789.544C1515.91,792.276 1518.13,794.496 1520.86,794.496C1523.59,794.496 1525.81,792.276 1525.81,789.544C1525.81,789.544 1525.81,775.688 1525.81,775.688C1525.81,775.688 1539.1,792.542 1539.1,792.542C1540.05,793.81 1541.5,794.496 1543.03,794.496ZM1543.03,792.328C1542.17,792.328 1541.35,791.944 1540.83,791.224L1523.64,769.436L1523.64,789.544C1523.64,791.08 1522.4,792.328 1520.86,792.328C1519.33,792.328 1518.08,791.08 1518.08,789.544L1518.08,761.421C1518.08,760.222 1518.85,759.166 1519.95,758.782C1521.1,758.35 1522.35,758.734 1523.07,759.694L1540.25,781.482L1540.25,761.421C1540.25,759.838 1541.5,758.59 1543.03,758.59C1544.57,758.59 1545.82,759.838 1545.82,761.421L1545.82,789.544C1545.82,790.696 1545.05,791.752 1543.94,792.136C1543.66,792.28 1543.32,792.328 1543.03,792.328Z"/>
                    <path d="M1543.03,792.328C1542.17,792.328 1541.35,791.944 1540.83,791.224L1523.64,769.436L1523.64,789.544C1523.64,791.08 1522.4,792.328 1520.86,792.328C1519.33,792.328 1518.08,791.08 1518.08,789.544L1518.08,761.421C1518.08,760.222 1518.85,759.166 1519.95,758.782C1521.1,758.35 1522.35,758.734 1523.07,759.694L1540.25,781.482L1540.25,761.421C1540.25,759.838 1541.5,758.59 1543.03,758.59C1544.57,758.59 1545.82,759.838 1545.82,761.421L1545.82,789.544C1545.82,790.696 1545.05,791.752 1543.94,792.136C1543.66,792.28 1543.32,792.328 1543.03,792.328Z" style="fill:white;fill-rule:nonzero;"/>
                </g>
                <g transform="matrix(0.966992,0,0,0.367087,49.3628,459.169)">
                    <path d="M1570.11,763.717C1568.74,763.717 1567.52,764.25 1566.63,765.12C1564.7,764.209 1562.56,763.717 1560.31,763.717C1556.14,763.717 1552.36,765.36 1549.59,768.403C1547.04,771.183 1545.57,775.014 1545.57,779.131C1545.57,783.195 1547.04,787.029 1549.59,789.811C1552.36,792.853 1556.14,794.496 1560.31,794.496C1562.56,794.496 1564.7,794.005 1566.63,793.094C1567.52,793.964 1568.74,794.496 1570.11,794.496C1572.84,794.496 1575.06,792.277 1575.06,789.547C1575.06,789.547 1575.06,768.667 1575.06,768.667C1575.06,765.936 1572.84,763.717 1570.11,763.717ZM1570.11,765.886C1568.76,765.886 1567.66,766.797 1567.37,768.043C1565.36,766.653 1562.91,765.886 1560.31,765.886C1556.76,765.886 1553.54,767.276 1551.19,769.865C1548.99,772.264 1547.74,775.577 1547.74,779.131C1547.74,782.636 1548.99,785.949 1551.19,788.348C1553.54,790.937 1556.76,792.328 1560.31,792.328C1562.91,792.328 1565.36,791.561 1567.37,790.17C1567.66,791.417 1568.76,792.328 1570.11,792.328C1571.64,792.328 1572.89,791.081 1572.89,789.547L1572.89,768.667C1572.89,767.132 1571.64,765.886 1570.11,765.886ZM1560.31,786.766C1556.23,786.766 1553.3,783.548 1553.3,779.131C1553.3,774.665 1556.23,771.448 1560.31,771.448C1564.35,771.448 1567.33,774.665 1567.33,779.131C1567.33,783.548 1564.35,786.766 1560.31,786.766ZM1560.31,784.597C1557.44,784.597 1555.47,782.243 1555.47,779.131C1555.47,775.98 1557.43,773.616 1560.31,773.616C1563.16,773.616 1565.16,775.98 1565.16,779.131C1565.16,782.243 1563.16,784.597 1560.31,784.597Z"/>
                    <path d="M1570.11,765.886C1568.76,765.886 1567.66,766.797 1567.37,768.043C1565.36,766.653 1562.91,765.886 1560.31,765.886C1556.76,765.886 1553.54,767.276 1551.19,769.865C1548.99,772.264 1547.74,775.577 1547.74,779.131C1547.74,782.636 1548.99,785.949 1551.19,788.348C1553.54,790.937 1556.76,792.328 1560.31,792.328C1562.91,792.328 1565.36,791.561 1567.37,790.17C1567.66,791.417 1568.76,792.328 1570.11,792.328C1571.64,792.328 1572.89,791.081 1572.89,789.547L1572.89,768.667C1572.89,767.132 1571.64,765.886 1570.11,765.886ZM1560.31,786.766C1556.23,786.766 1553.3,783.548 1553.3,779.131C1553.3,774.665 1556.23,771.448 1560.31,771.448C1564.35,771.448 1567.33,774.665 1567.33,779.131C1567.33,783.548 1564.35,786.766 1560.31,786.766Z" style="fill:white;fill-rule:nonzero;"/>
                </g>
            </g>
        </g>
    </g>
</svg>
