<?xml version="1.0" encoding="UTF-8" standalone="no"?>
<!DOCTYPE svg PUBLIC "-//W3C//DTD SVG 1.1//EN" "http://www.w3.org/Graphics/SVG/1.1/DTD/svg11.dtd">
<svg width="100%" height="100%" viewBox="0 0 101 100" version="1.1" xmlns="http://www.w3.org/2000/svg" xmlns:xlink="http://www.w3.org/1999/xlink" xml:space="preserve" xmlns:serif="http://www.serif.com/" style="fill-rule:evenodd;clip-rule:evenodd;stroke-linejoin:round;stroke-miterlimit:2;">
    <g transform="matrix(1,0,0,1,-1768,-541)">
        <g id="titanium_icon" transform="matrix(1,0,0,1,-2633.14,20)">
            <rect x="4401.27" y="521" width="100" height="100" style="fill:none;"/>
            <g id="Layer2">
            </g>
            <g transform="matrix(1.43072,0,0,3.76884,2242.65,-2232.23)">
                <g transform="matrix(0.966992,0,0,0.367087,49.3628,459.169)">
                    <path d="M1552.68,756.469L1531.81,756.469C1529.07,756.469 1526.85,758.689 1526.85,761.419C1526.85,764.149 1529.07,766.368 1531.81,766.368C1531.81,766.368 1537.27,766.368 1537.27,766.368C1537.27,766.368 1537.27,789.544 1537.27,789.544C1537.27,792.277 1539.49,794.496 1542.22,794.496C1545.02,794.496 1547.22,792.267 1547.22,789.544L1547.22,766.368C1547.22,766.368 1552.68,766.368 1552.68,766.368C1555.41,766.368 1557.63,764.149 1557.63,761.419C1557.63,758.689 1555.41,756.469 1552.68,756.469ZM1552.68,758.638L1531.81,758.638C1530.27,758.638 1529.02,759.884 1529.02,761.419C1529.02,762.953 1530.27,764.2 1531.81,764.2L1539.44,764.2L1539.44,789.544C1539.44,791.08 1540.68,792.328 1542.22,792.328C1543.8,792.328 1545.05,791.08 1545.05,789.544L1545.05,764.2L1552.68,764.2C1554.22,764.2 1555.46,762.953 1555.46,761.419C1555.46,759.884 1554.22,758.638 1552.68,758.638Z"/>
                    <path d="M1552.68,758.638L1531.81,758.638C1530.27,758.638 1529.02,759.884 1529.02,761.419C1529.02,762.953 1530.27,764.2 1531.81,764.2L1539.44,764.2L1539.44,789.544C1539.44,791.08 1540.68,792.328 1542.22,792.328C1543.8,792.328 1545.05,791.08 1545.05,789.544L1545.05,764.2L1552.68,764.2C1554.22,764.2 1555.46,762.953 1555.46,761.419C1555.46,759.884 1554.22,758.638 1552.68,758.638Z" style="fill:white;fill-rule:nonzero;"/>
                </g>
                <g transform="matrix(0.966992,0,0,0.367087,49.3628,459.169)">
                    <path d="M1555.92,764.554C1554.6,765.444 1553.73,766.953 1553.73,768.664L1553.73,789.544C1553.73,792.277 1555.95,794.496 1558.68,794.496C1561.49,794.496 1563.68,792.267 1563.68,789.544L1563.68,768.664C1563.68,766.957 1562.82,765.443 1561.48,764.552C1562.9,763.696 1563.82,762.182 1563.87,760.379C1563.87,760.336 1563.87,760.293 1563.87,760.251C1563.79,757.431 1561.59,755.317 1558.68,755.317C1555.83,755.317 1553.54,757.466 1553.54,760.315C1553.54,762.145 1554.49,763.687 1555.92,764.554ZM1558.68,765.88C1557.15,765.88 1555.9,767.128 1555.9,768.664L1555.9,789.544C1555.9,791.08 1557.15,792.328 1558.68,792.328C1560.27,792.328 1561.51,791.08 1561.51,789.544L1561.51,768.664C1561.51,767.128 1560.27,765.88 1558.68,765.88ZM1558.68,763.144C1560.36,763.144 1561.66,761.945 1561.7,760.315C1561.66,758.684 1560.36,757.486 1558.68,757.486C1557.05,757.486 1555.71,758.684 1555.71,760.315C1555.71,761.945 1557.05,763.144 1558.68,763.144Z"/>
                    <path d="M1558.68,763.144C1560.36,763.144 1561.66,761.945 1561.7,760.315C1561.66,758.684 1560.36,757.486 1558.68,757.486C1557.05,757.486 1555.71,758.684 1555.71,760.315C1555.71,761.945 1557.05,763.144 1558.68,763.144ZM1558.68,765.88C1557.15,765.88 1555.9,767.128 1555.9,768.664L1555.9,789.544C1555.9,791.08 1557.15,792.328 1558.68,792.328C1560.27,792.328 1561.51,791.08 1561.51,789.544L1561.51,768.664C1561.51,767.128 1560.27,765.88 1558.68,765.88Z" style="fill:white;fill-rule:nonzero;"/>
                </g>
            </g>
        </g>
    </g>
</svg>
