<?xml version="1.0" encoding="UTF-8" standalone="no"?>
<!DOCTYPE svg PUBLIC "-//W3C//DTD SVG 1.1//EN" "http://www.w3.org/Graphics/SVG/1.1/DTD/svg11.dtd">
<svg width="100%" height="100%" viewBox="0 0 101 101" version="1.1" xmlns="http://www.w3.org/2000/svg" xmlns:xlink="http://www.w3.org/1999/xlink" xml:space="preserve" xmlns:serif="http://www.serif.com/" style="fill-rule:evenodd;clip-rule:evenodd;stroke-linejoin:round;stroke-miterlimit:2;">
    <g transform="matrix(1,0,0,1,-1905,-541)">
        <g id="xenon_icon" transform="matrix(1,0,0,1,-2632.99,20)">
            <rect x="4538.13" y="521" width="100.045" height="100.045" style="fill:none;"/>
            <g transform="matrix(1.43072,0,0,3.76884,2379.34,-2232.23)">
                <g transform="matrix(0.966992,0,0,0.367087,49.3628,459.169)">
                    <path d="M1540.03,775.494L1548.7,764.513C1548.72,764.492 1548.74,764.471 1548.75,764.449C1550.36,762.258 1549.99,759.229 1547.88,757.543C1545.75,755.838 1542.59,756.172 1540.88,758.38C1540.88,758.38 1533.72,767.481 1533.72,767.481C1533.72,767.481 1526.55,758.381 1526.55,758.381C1524.85,756.181 1521.8,755.82 1519.59,757.518C1519.58,757.526 1519.57,757.535 1519.56,757.543C1517.44,759.239 1517.07,762.287 1518.76,764.492C1518.77,764.498 1518.77,764.503 1518.78,764.509L1527.41,775.494C1527.41,775.494 1518.78,786.476 1518.78,786.476C1517.08,788.612 1517.42,791.68 1519.55,793.39C1520.49,794.159 1521.61,794.496 1522.64,794.496C1524.06,794.496 1525.49,793.853 1526.49,792.684C1526.51,792.661 1526.53,792.638 1526.55,792.614L1533.72,783.508C1533.72,783.508 1540.89,792.614 1540.89,792.614C1540.91,792.638 1540.92,792.661 1540.94,792.684C1541.95,793.853 1543.38,794.496 1544.8,794.496C1545.91,794.496 1546.94,794.159 1547.89,793.389C1550.01,791.686 1550.34,788.631 1548.73,786.507C1548.72,786.497 1548.71,786.486 1548.7,786.476L1540.03,775.494ZM1537.27,775.494L1547,763.169C1547.91,761.922 1547.72,760.196 1546.52,759.237C1545.33,758.277 1543.55,758.469 1542.59,759.716L1533.72,770.986L1524.84,759.716C1523.88,758.469 1522.16,758.277 1520.91,759.237C1519.71,760.196 1519.52,761.922 1520.48,763.169L1530.17,775.494L1520.48,787.82C1519.52,789.019 1519.71,790.745 1520.91,791.704C1521.44,792.136 1522.06,792.328 1522.64,792.328C1523.45,792.328 1524.27,791.944 1524.84,791.273L1533.72,780.003L1542.59,791.273C1543.17,791.944 1543.98,792.328 1544.8,792.328C1545.42,792.328 1546,792.136 1546.52,791.704C1547.72,790.745 1547.91,789.019 1547,787.82L1537.27,775.494Z"/>
                    <path d="M1537.27,775.494L1547,763.169C1547.91,761.922 1547.72,760.196 1546.52,759.237C1545.33,758.277 1543.55,758.469 1542.59,759.716L1533.72,770.986L1524.84,759.716C1523.88,758.469 1522.16,758.277 1520.91,759.237C1519.71,760.196 1519.52,761.922 1520.48,763.169L1530.17,775.494L1520.48,787.82C1519.52,789.019 1519.71,790.745 1520.91,791.704C1521.44,792.136 1522.06,792.328 1522.64,792.328C1523.45,792.328 1524.27,791.944 1524.84,791.273L1533.72,780.003L1542.59,791.273C1543.17,791.944 1543.98,792.328 1544.8,792.328C1545.42,792.328 1546,792.136 1546.52,791.704C1547.72,790.745 1547.91,789.019 1547,787.82L1537.27,775.494Z" style="fill:white;fill-rule:nonzero;"/>
                </g>
                <g transform="matrix(0.966992,0,0,0.367087,49.3628,459.169)">
                    <path d="M1571.34,783.174C1572.54,782.267 1573.3,780.833 1573.3,779.227C1573.3,770.243 1567.2,763.813 1558.95,763.813C1550.75,763.813 1544.44,770.362 1544.44,779.227C1544.44,783.297 1545.86,787.132 1548.48,789.921C1551.24,792.953 1555.02,794.741 1559.19,794.741C1564.43,794.741 1568.82,792.875 1571.39,788.264C1572.32,786.669 1572.27,784.704 1571.34,783.174ZM1559.19,792.572C1555.63,792.572 1552.42,791.036 1550.07,788.444C1547.81,786.044 1546.61,782.733 1546.61,779.227C1546.61,771.646 1551.94,765.982 1558.95,765.982C1566,765.982 1571.14,771.55 1571.14,779.227C1571.14,780.764 1569.89,782.014 1568.3,782.014L1552.61,782.014C1553.57,784.94 1556.07,787.004 1559.19,787.004C1561.63,787.004 1563.6,786.332 1564.7,784.316C1565.52,782.972 1567.25,782.589 1568.54,783.356C1569.89,784.172 1570.27,785.9 1569.5,787.196C1567.34,791.084 1563.6,792.572 1559.19,792.572ZM1562.01,784.182L1556.85,784.182C1557.53,784.598 1558.32,784.836 1559.19,784.836C1560.29,784.836 1561.27,784.705 1562.01,784.182ZM1552.56,776.392L1565.18,776.392C1564.23,773.084 1561.59,771.55 1558.95,771.55C1556.36,771.55 1553.57,773.084 1552.56,776.392ZM1556.89,774.224C1557.54,773.884 1558.25,773.718 1558.95,773.718C1559.65,773.718 1560.34,773.885 1560.97,774.224C1560.97,774.223 1556.89,774.223 1556.89,774.223L1556.89,774.224Z"/>
                    <path d="M1559.19,792.572C1555.63,792.572 1552.42,791.036 1550.07,788.444C1547.81,786.044 1546.61,782.733 1546.61,779.227C1546.61,771.646 1551.94,765.982 1558.95,765.982C1566,765.982 1571.14,771.55 1571.14,779.227C1571.14,780.764 1569.89,782.014 1568.3,782.014L1552.61,782.014C1553.57,784.94 1556.07,787.004 1559.19,787.004C1561.63,787.004 1563.6,786.332 1564.7,784.316C1565.52,782.972 1567.25,782.589 1568.54,783.356C1569.89,784.172 1570.27,785.9 1569.5,787.196C1567.34,791.084 1563.6,792.572 1559.19,792.572ZM1552.56,776.392L1565.18,776.392C1564.23,773.084 1561.59,771.55 1558.95,771.55C1556.36,771.55 1553.57,773.084 1552.56,776.392Z" style="fill:white;fill-rule:nonzero;"/>
                </g>
            </g>
        </g>
    </g>
</svg>
