<?xml version="1.0" encoding="UTF-8" standalone="no"?>
<!DOCTYPE svg PUBLIC "-//W3C//DTD SVG 1.1//EN" "http://www.w3.org/Graphics/SVG/1.1/DTD/svg11.dtd">
<svg width="100%" height="100%" viewBox="0 0 175 61" version="1.1" xmlns="http://www.w3.org/2000/svg" xmlns:xlink="http://www.w3.org/1999/xlink" xml:space="preserve" xmlns:serif="http://www.serif.com/" style="fill-rule:evenodd;clip-rule:evenodd;stroke-linecap:round;stroke-miterlimit:10;">
    <g transform="matrix(1,0,0,1,-187.602,293.55)">
        <g transform="matrix(1,0,0,1,212.726,-258.301)">
            <path d="M0,0L124.418,0" style="fill:none;fill-rule:nonzero;stroke:white;stroke-width:5px;"/>
        </g>
        <g transform="matrix(1,0,0,1,216.385,-293.55)">
            <path d="M0,35.249C0,15.782 15.782,0 35.25,0C54.717,0 70.499,15.782 70.499,35.249L0,35.249Z" style="fill:white;fill-rule:nonzero;"/>
        </g>
        <g transform="matrix(1,0,0,1,261.658,-280.913)">
            <path d="M0,22.612C0,10.124 10.124,0 22.613,0C35.102,0 45.226,10.124 45.226,22.612L0,22.612Z" style="fill:white;fill-rule:nonzero;"/>
        </g>
    </g>
</svg>
