<?xml version="1.0" encoding="UTF-8" standalone="no"?>
<!DOCTYPE svg PUBLIC "-//W3C//DTD SVG 1.1//EN" "http://www.w3.org/Graphics/SVG/1.1/DTD/svg11.dtd">
<svg width="100%" height="100%" viewBox="0 0 100 100" version="1.1" xmlns="http://www.w3.org/2000/svg" xmlns:xlink="http://www.w3.org/1999/xlink" xml:space="preserve" xmlns:serif="http://www.serif.com/" style="fill-rule:evenodd;clip-rule:evenodd;stroke-linecap:round;stroke-miterlimit:10;">
    <g transform="matrix(1,0,0,1,-775,-2.99782)">
        <g id="multi" transform="matrix(0.998677,0,0,0.998677,0.359084,-123.42)">
            <rect x="775.667" y="126.585" width="100.132" height="100.132" style="fill:none;"/>
            <g id="Layer5" transform="matrix(1.00132,0,0,1.00132,-0.359559,123.584)">
                <g transform="matrix(-0.923896,-0.382644,-0.382644,0.923896,813.462,64.312)">
                    <path d="M-14.04,2.793C-9.531,4.66 -4.31,4.808 0.555,2.793" style="fill:none;fill-rule:nonzero;stroke:rgb(10,72,116);stroke-width:2px;"/>
                </g>
                <g transform="matrix(-0.648965,0.760818,0.760818,0.648965,840.089,67.3056)">
                    <path d="M-2.978,-1.374C-1.779,-1.261 -0.569,-1.26 0.634,-1.374" style="fill:none;fill-rule:nonzero;stroke:rgb(10,72,116);stroke-width:2px;"/>
                </g>
                <g transform="matrix(1,0,0,1,811.88,34.1237)">
                    <path d="M0,5.586C3.724,1.861 8.604,0 13.485,0C18.365,0 23.246,1.861 26.97,5.586" style="fill:none;fill-rule:nonzero;stroke:rgb(10,72,116);stroke-width:2px;"/>
                </g>
            </g>
        </g>
    </g>
</svg>
