<?xml version="1.0" encoding="UTF-8" standalone="no"?>
<!DOCTYPE svg PUBLIC "-//W3C//DTD SVG 1.1//EN" "http://www.w3.org/Graphics/SVG/1.1/DTD/svg11.dtd">
<svg width="100%" height="100%" viewBox="0 0 100 100" version="1.1" xmlns="http://www.w3.org/2000/svg" xmlns:xlink="http://www.w3.org/1999/xlink" xml:space="preserve" xmlns:serif="http://www.serif.com/" style="fill-rule:evenodd;clip-rule:evenodd;stroke-linecap:round;stroke-miterlimit:10;">
    <g transform="matrix(1,0,0,1,-775,-2.99782)">
        <g id="multi" transform="matrix(0.998677,0,0,0.998677,0.359084,-123.42)">
            <rect x="775.667" y="126.585" width="100.132" height="100.132" style="fill:none;"/>
            <g id="Layer7" transform="matrix(1.00132,0,0,1.00132,-0.265975,123.584)">
                <g transform="matrix(1,0,0,1,815.662,13.9968)">
                    <path d="M0,78.002C-9.098,78.002 -16.5,70.6 -16.5,61.502L-16.5,16.5C-16.5,7.402 -9.098,0 0,0L18.676,0C27.774,0 35.176,7.402 35.176,16.5L35.176,61.502C35.176,70.6 27.774,78.002 18.676,78.002L0,78.002Z" style="fill:rgb(0,113,188);fill-rule:nonzero;"/>
                </g>
                <g transform="matrix(1,0,0,1,834.338,93.4988)">
                    <path d="M0,-81.002L-18.676,-81.002C-28.601,-81.002 -36.676,-72.928 -36.676,-63.002L-36.676,-18C-36.676,-8.075 -28.601,0 -18.676,0L0,0C9.925,0 18,-8.075 18,-18L18,-63.002C18,-72.928 9.925,-81.002 0,-81.002M0,-78.002C8.25,-78.002 15,-71.252 15,-63.002L15,-18C15,-9.75 8.25,-3 0,-3L-18.676,-3C-26.926,-3 -33.676,-9.75 -33.676,-18L-33.676,-63.002C-33.676,-71.252 -26.926,-78.002 -18.676,-78.002L0,-78.002" style="fill:rgb(0,77,119);fill-rule:nonzero;"/>
                </g>
                <g transform="matrix(1,0,0,1,815.662,16.9968)">
                    <path d="M0,72.002C-7.444,72.002 -13.5,65.946 -13.5,58.502L-13.5,13.5C-13.5,6.056 -7.444,0 0,0L18.676,0C26.12,0 32.176,6.056 32.176,13.5L32.176,58.502C32.176,65.946 26.12,72.002 18.676,72.002L0,72.002Z" style="fill:rgb(0,113,188);fill-rule:nonzero;"/>
                </g>
                <g transform="matrix(1,0,0,1,834.338,90.4988)">
                    <path d="M0,-75.002L-18.676,-75.002C-26.926,-75.002 -33.676,-68.252 -33.676,-60.002L-33.676,-15C-33.676,-6.75 -26.926,0 -18.676,0L0,0C8.25,0 15,-6.75 15,-15L15,-60.002C15,-68.252 8.25,-75.002 0,-75.002M0,-72.002C6.617,-72.002 12,-66.619 12,-60.002L12,-15C12,-8.384 6.617,-3 0,-3L-18.676,-3C-25.293,-3 -30.676,-8.384 -30.676,-15L-30.676,-60.002C-30.676,-66.619 -25.293,-72.002 -18.676,-72.002L0,-72.002" style="fill:rgb(0,130,212);fill-rule:nonzero;"/>
                </g>
                <g transform="matrix(0,-1,-1,0,837.796,78.1276)">
                    <path d="M-5.234,-5.233C-8.124,-5.233 -10.466,-2.89 -10.466,0C-10.466,2.89 -8.124,5.234 -5.234,5.234C-2.343,5.234 -0,2.89 -0,0C-0,-2.89 -2.343,-5.233 -5.234,-5.233" style="fill:rgb(0,130,212);fill-rule:nonzero;"/>
                </g>
                <g transform="matrix(0,-1,-1,0,838.879,75.6416)">
                    <path d="M-2.262,-2.261C-3.511,-2.261 -4.525,-1.248 -4.525,0.001C-4.525,1.251 -3.511,2.262 -2.262,2.262C-1.012,2.262 0.001,1.251 0.001,0.001C0.001,-1.248 -1.012,-2.261 -2.262,-2.261" style="fill:rgb(0,130,212);fill-rule:nonzero;"/>
                </g>
                <g transform="matrix(1,0,0,1,777.421,-10.8823)">
                    <g opacity="0.4">
                        <g transform="matrix(0,-1,-1,0,47.9447,44.8759)">
                            <path d="M-19.2,-19.2C-29.804,-19.2 -38.4,-10.603 -38.4,0.001C-38.4,10.605 -29.804,19.2 -19.2,19.2C-8.596,19.2 -0,10.605 -0,0.001C-0,-10.603 -8.596,-19.2 -19.2,-19.2" style="fill:rgb(10,72,116);fill-rule:nonzero;"/>
                        </g>
                    </g>
                </g>
                <g transform="matrix(0,-1,-1,0,829.064,73.3827)">
                    <path d="M-1.849,-1.849C-2.87,-1.849 -3.7,-1.021 -3.7,0.001C-3.7,1.021 -2.87,1.849 -1.849,1.849C-0.829,1.849 0.001,1.021 0.001,0.001C0.001,-1.021 -0.829,-1.849 -1.849,-1.849" style="fill:rgb(41,171,226);fill-rule:nonzero;"/>
                </g>
                <g transform="matrix(1,0,0,1,823.365,73.0148)">
                    <path d="M0,-52.099L-7.203,-52.099C-13.188,-52.099 -17.292,-47.995 -17.292,-42.009L-17.292,0" style="fill:none;fill-rule:nonzero;stroke:rgb(41,171,226);stroke-width:2px;"/>
                </g>
                <g transform="matrix(1,0,0,1,830.046,63.3998)">
                    <path d="M0,22.099L4.203,22.099C10.188,22.099 14.292,17.995 14.292,12.009L14.292,0" style="fill:none;fill-rule:nonzero;stroke:rgb(10,72,116);stroke-width:2px;"/>
                </g>
                <g transform="matrix(0,-1,-1,0,833.549,16.3318)">
                    <path d="M-5.082,-5.082C-7.889,-5.082 -10.164,-2.807 -10.164,0C-10.164,2.807 -7.889,5.082 -5.082,5.082C-2.275,5.082 0,2.807 0,0C0,-2.807 -2.275,-5.082 -5.082,-5.082" style="fill:rgb(0,130,212);fill-rule:nonzero;"/>
                </g>
                <g transform="matrix(0,-1,-1,0,839.422,18.9156)">
                    <path d="M-6.383,-6.383C-9.908,-6.383 -12.766,-3.525 -12.766,0C-12.766,3.525 -9.908,6.383 -6.383,6.383C-2.858,6.383 0,3.525 0,0C0,-3.525 -2.858,-6.383 -6.383,-6.383" style="fill:rgb(0,130,212);fill-rule:nonzero;"/>
                </g>
                <g transform="matrix(0,-1,-1,0,815.446,80.9641)">
                    <path d="M-4.123,-4.123C-6.4,-4.123 -8.246,-2.277 -8.246,-0C-8.246,2.277 -6.4,4.123 -4.123,4.123C-1.846,4.123 -0,2.277 -0,-0C-0,-2.277 -1.846,-4.123 -4.123,-4.123" style="fill:rgb(0,130,212);fill-rule:nonzero;"/>
                </g>
                <g transform="matrix(0,-1,-1,0,810.867,75.5303)">
                    <path d="M-2.637,-2.637C-4.093,-2.637 -5.274,-1.457 -5.274,0C-5.274,1.456 -4.093,2.637 -2.637,2.637C-1.181,2.637 0,1.456 0,0C0,-1.457 -1.181,-2.637 -2.637,-2.637" style="fill:rgb(0,130,212);fill-rule:nonzero;"/>
                </g>
            </g>
        </g>
    </g>
</svg>
