<?xml version="1.0" encoding="UTF-8" standalone="no"?>
<!DOCTYPE svg PUBLIC "-//W3C//DTD SVG 1.1//EN" "http://www.w3.org/Graphics/SVG/1.1/DTD/svg11.dtd">
<svg width="100%" height="100%" viewBox="0 0 15 21" version="1.1" xmlns="http://www.w3.org/2000/svg" xmlns:xlink="http://www.w3.org/1999/xlink" xml:space="preserve" xmlns:serif="http://www.serif.com/" style="fill-rule:evenodd;clip-rule:evenodd;stroke-linejoin:round;stroke-miterlimit:2;">
    <g transform="matrix(1,0,0,1,-557.347,-392.329)">
        <g transform="matrix(0.238479,-6.16298e-33,6.16298e-33,0.238479,426.279,304.79)">
            <g opacity="0.3">
                <g transform="matrix(1,0,0,1,569.962,371.128)">
                    <path d="M0,78.002C-9.098,78.002 -16.5,70.6 -16.5,61.502L-16.5,16.5C-16.5,7.402 -9.098,0 0,0L18.676,0C27.774,0 35.176,7.402 35.176,16.5L35.176,61.502C35.176,70.6 27.774,78.002 18.676,78.002L0,78.002Z" style="fill:rgb(0,113,188);fill-rule:nonzero;"/>
                </g>
                <g transform="matrix(1.14949,0,0,1.10399,568.567,367.073)">
                    <path d="M0,78.002C-9.098,78.002 -16.5,70.6 -16.5,61.502L-16.5,16.5C-16.5,7.402 -9.098,0 0,0L18.676,0C27.774,0 35.176,7.402 35.176,16.5L35.176,61.502C35.176,70.6 27.774,78.002 18.676,78.002L0,78.002Z" style="fill:rgb(0,113,188);fill-opacity:0.4;fill-rule:nonzero;"/>
                </g>
                <g transform="matrix(1,0,0,1,588.638,450.63)">
                    <path d="M0,-81.002L-18.676,-81.002C-28.601,-81.002 -36.676,-72.928 -36.676,-63.002L-36.676,-18C-36.676,-8.075 -28.601,0 -18.676,0L0,0C9.925,0 18,-8.075 18,-18L18,-63.002C18,-72.928 9.925,-81.002 0,-81.002M0,-78.002C8.25,-78.002 15,-71.252 15,-63.002L15,-18C15,-9.75 8.25,-3 0,-3L-18.676,-3C-26.926,-3 -33.676,-9.75 -33.676,-18L-33.676,-63.002C-33.676,-71.252 -26.926,-78.002 -18.676,-78.002L0,-78.002" style="fill:rgb(0,77,119);fill-rule:nonzero;"/>
                </g>
                <g transform="matrix(1,0,0,1,569.962,374.128)">
                    <path d="M0,72.002C-7.444,72.002 -13.5,65.946 -13.5,58.502L-13.5,13.5C-13.5,6.056 -7.444,0 0,0L18.676,0C26.12,0 32.176,6.056 32.176,13.5L32.176,58.502C32.176,65.946 26.12,72.002 18.676,72.002L0,72.002Z" style="fill:rgb(0,113,188);fill-rule:nonzero;"/>
                </g>
                <g transform="matrix(1,0,0,1,588.638,447.63)">
                    <path d="M0,-75.002L-18.676,-75.002C-26.926,-75.002 -33.676,-68.252 -33.676,-60.002L-33.676,-15C-33.676,-6.75 -26.926,0 -18.676,0L0,0C8.25,0 15,-6.75 15,-15L15,-60.002C15,-68.252 8.25,-75.002 0,-75.002M0,-72.002C6.617,-72.002 12,-66.619 12,-60.002L12,-15C12,-8.384 6.617,-3 0,-3L-18.676,-3C-25.293,-3 -30.676,-8.384 -30.676,-15L-30.676,-60.002C-30.676,-66.619 -25.293,-72.002 -18.676,-72.002L0,-72.002" style="fill:rgb(0,130,212);fill-rule:nonzero;"/>
                </g>
                <g transform="matrix(1,0,0,1,531.721,346.249)">
                    <g opacity="0.4">
                        <g transform="matrix(0,-1,-1,0,47.9447,44.8759)">
                            <path d="M-19.2,-19.2C-29.804,-19.2 -38.4,-10.603 -38.4,0.001C-38.4,10.605 -29.804,19.2 -19.2,19.2C-8.596,19.2 -0,10.605 -0,0.001C-0,-10.603 -8.596,-19.2 -19.2,-19.2" style="fill:rgb(10,72,116);fill-rule:nonzero;"/>
                        </g>
                    </g>
                </g>
                <g transform="matrix(0,-1,-1,0,579.665,398.354)">
                    <path d="M-11.971,-11.971C-18.583,-11.971 -23.944,-6.612 -23.944,-0C-23.944,6.611 -18.583,11.971 -11.971,11.971C-5.36,11.971 0.001,6.611 0.001,-0C0.001,-6.612 -5.36,-11.971 -11.971,-11.971" style="fill:rgb(0,113,188);fill-rule:nonzero;"/>
                </g>
                <g transform="matrix(1,0,0,1,531.721,346.249)">
                    <g opacity="0.3">
                        <g transform="matrix(1,0,0,1,47.9445,76.0477)">
                            <path d="M0,-23.943C-6.612,-23.943 -11.972,-18.583 -11.972,-11.971C-11.972,-5.36 -6.612,0 0,0C6.611,0 11.971,-5.36 11.971,-11.971C11.971,-18.583 6.611,-23.943 0,-23.943M0,-20.943C4.947,-20.943 8.971,-16.919 8.971,-11.971C8.971,-7.024 4.947,-3 0,-3C-4.947,-3 -8.972,-7.024 -8.972,-11.971C-8.972,-16.919 -4.947,-20.943 0,-20.943" style="fill:rgb(41,171,226);fill-rule:nonzero;"/>
                        </g>
                    </g>
                </g>
                <g transform="matrix(1,0,0,1,579.666,396.354)">
                    <path d="M0,27.943C-7.704,27.943 -13.972,21.675 -13.972,13.971C-13.972,6.267 -7.704,0 0,0C7.704,0 13.971,6.267 13.971,13.971C13.971,21.675 7.704,27.943 0,27.943" style="fill:rgb(251,176,59);fill-rule:nonzero;"/>
                </g>
                <g transform="matrix(1,0,0,1,579.666,426.297)">
                    <path d="M0,-31.943C-8.807,-31.943 -15.972,-24.778 -15.972,-15.971C-15.972,-7.165 -8.807,0 0,0C8.807,0 15.971,-7.165 15.971,-15.971C15.971,-24.778 8.807,-31.943 0,-31.943M0,-27.943C6.611,-27.943 11.971,-22.583 11.971,-15.971C11.971,-9.36 6.611,-4 0,-4C-6.612,-4 -11.972,-9.36 -11.972,-15.971C-11.972,-22.583 -6.612,-27.943 0,-27.943" style="fill:rgb(10,72,116);fill-rule:nonzero;"/>
                </g>
                <g transform="matrix(1,0,0,1,579.666,397.354)">
                    <path d="M0,25.943C-7.153,25.943 -12.972,20.124 -12.972,12.971C-12.972,5.819 -7.153,0 0,0C7.152,0 12.971,5.819 12.971,12.971C12.971,20.124 7.152,25.943 0,25.943" style="fill:rgb(251,176,59);fill-rule:nonzero;"/>
                </g>
                <g transform="matrix(1,0,0,1,579.666,424.297)">
                    <path d="M0,-27.943C-7.704,-27.943 -13.972,-21.675 -13.972,-13.971C-13.972,-6.267 -7.704,0 0,0C7.704,0 13.971,-6.267 13.971,-13.971C13.971,-21.675 7.704,-27.943 0,-27.943M0,-25.943C6.611,-25.943 11.971,-20.583 11.971,-13.971C11.971,-7.36 6.611,-2 0,-2C-6.612,-2 -11.972,-7.36 -11.972,-13.971C-11.972,-20.583 -6.612,-25.943 0,-25.943" style="fill:rgb(247,147,30);fill-rule:nonzero;"/>
                </g>
                <g transform="matrix(1,0,0,1,531.721,346.249)">
                    <g opacity="0.25">
                        <g transform="matrix(0,-1,-1,0,47.9448,57.9814)">
                            <path d="M-6.095,-6.095C-9.461,-6.095 -12.19,-3.366 -12.19,0C-12.19,3.366 -9.461,6.095 -6.095,6.095C-2.729,6.095 0,3.366 0,0C0,-3.366 -2.729,-6.095 -6.095,-6.095" style="fill:white;fill-rule:nonzero;"/>
                        </g>
                    </g>
                </g>
            </g>
        </g>
    </g>
</svg>
