<?xml version="1.0" encoding="UTF-8" standalone="no"?>
<!DOCTYPE svg PUBLIC "-//W3C//DTD SVG 1.1//EN" "http://www.w3.org/Graphics/SVG/1.1/DTD/svg11.dtd">
<svg width="100%" height="100%" viewBox="0 0 59 85" version="1.1" xmlns="http://www.w3.org/2000/svg" xmlns:xlink="http://www.w3.org/1999/xlink" xml:space="preserve" xmlns:serif="http://www.serif.com/" style="fill-rule:evenodd;clip-rule:evenodd;stroke-linecap:round;stroke-miterlimit:10;">
    <g transform="matrix(1,0,0,1,-492.561,-21.7482)">
        <g transform="matrix(1,0,0,1,393.958,0)">
            <g transform="matrix(1,0,0,1,118.241,24.8791)">
                <path d="M0,78.002C-9.098,78.002 -16.5,70.6 -16.5,61.502L-16.5,16.5C-16.5,7.402 -9.098,0 0,0L18.676,0C27.774,0 35.176,7.402 35.176,16.5L35.176,61.502C35.176,70.6 27.774,78.002 18.676,78.002L0,78.002Z" style="fill:rgb(0,146,69);fill-rule:nonzero;"/>
            </g>
        </g>
        <g transform="matrix(1,0,0,1,393.958,0)">
            <g transform="matrix(1,0,0,1,136.917,104.381)">
                <path d="M0,-81.002L-18.676,-81.002C-28.601,-81.002 -36.676,-72.928 -36.676,-63.002L-36.676,-18C-36.676,-8.075 -28.601,0 -18.676,0L0,0C9.925,0 18,-8.075 18,-18L18,-63.002C18,-72.928 9.925,-81.002 0,-81.002M0,-78.002C8.25,-78.002 15,-71.252 15,-63.002L15,-18C15,-9.75 8.25,-3 0,-3L-18.676,-3C-26.926,-3 -33.676,-9.75 -33.676,-18L-33.676,-63.002C-33.676,-71.252 -26.926,-78.002 -18.676,-78.002L0,-78.002" style="fill:rgb(0,104,55);fill-rule:nonzero;"/>
            </g>
        </g>
        <g transform="matrix(1,0,0,1,393.958,0)">
            <g transform="matrix(1,0,0,1,118.241,27.8791)">
                <path d="M0,72.002C-7.444,72.002 -13.5,65.946 -13.5,58.502L-13.5,13.5C-13.5,6.056 -7.444,0 0,0L18.676,0C26.12,0 32.176,6.056 32.176,13.5L32.176,58.502C32.176,65.946 26.12,72.002 18.676,72.002L0,72.002Z" style="fill:rgb(0,146,69);fill-rule:nonzero;"/>
            </g>
        </g>
        <g transform="matrix(1,0,0,1,393.958,0)">
            <g transform="matrix(1,0,0,1,136.917,101.381)">
                <path d="M0,-75.002L-18.676,-75.002C-26.926,-75.002 -33.676,-68.252 -33.676,-60.002L-33.676,-15C-33.676,-6.75 -26.926,0 -18.676,0L0,0C8.25,0 15,-6.75 15,-15L15,-60.002C15,-68.252 8.25,-75.002 0,-75.002M0,-72.002C6.617,-72.002 12,-66.619 12,-60.002L12,-15C12,-8.384 6.617,-3 0,-3L-18.676,-3C-25.293,-3 -30.676,-8.384 -30.676,-15L-30.676,-60.002C-30.676,-66.619 -25.293,-72.002 -18.676,-72.002L0,-72.002" style="fill:rgb(57,181,74);fill-rule:nonzero;"/>
            </g>
        </g>
        <g transform="matrix(1,0,0,1,393.958,0)">
            <g transform="matrix(0,-1,-1,0,140.375,89.0099)">
                <path d="M-5.234,-5.233C-8.124,-5.233 -10.466,-2.89 -10.466,0C-10.466,2.89 -8.124,5.234 -5.234,5.234C-2.343,5.234 -0,2.89 -0,0C-0,-2.89 -2.343,-5.233 -5.234,-5.233" style="fill:rgb(57,181,74);fill-rule:nonzero;"/>
            </g>
        </g>
        <g transform="matrix(1,0,0,1,393.958,0)">
            <g transform="matrix(0,-1,-1,0,141.458,86.5239)">
                <path d="M-2.262,-2.261C-3.511,-2.261 -4.525,-1.248 -4.525,0.001C-4.525,1.251 -3.511,2.262 -2.262,2.262C-1.012,2.262 0.001,1.251 0.001,0.001C0.001,-1.248 -1.012,-2.261 -2.262,-2.261" style="fill:rgb(57,181,74);fill-rule:nonzero;"/>
            </g>
        </g>
        <g transform="matrix(1,0,0,1,393.958,0)">
            <g opacity="0.4">
                <g transform="matrix(0,-1,-1,0,127.945,44.8759)">
                    <path d="M-19.2,-19.2C-29.804,-19.2 -38.4,-10.603 -38.4,0.001C-38.4,10.605 -29.804,19.2 -19.2,19.2C-8.596,19.2 -0,10.605 -0,0.001C-0,-10.603 -8.596,-19.2 -19.2,-19.2" style="fill:rgb(0,104,55);fill-rule:nonzero;"/>
                </g>
            </g>
        </g>
        <g transform="matrix(1,0,0,1,393.958,0)">
            <g transform="matrix(-0.0811732,-0.9967,-0.9967,0.0811732,114.03,46.9289)">
                <path d="M-4.119,-4.469C-6.402,-4.468 -8.253,-2.618 -8.253,-0.335C-8.252,1.947 -6.402,3.797 -4.119,3.798C-1.837,3.797 0.014,1.946 0.013,-0.335C0.013,-2.618 -1.838,-4.469 -4.119,-4.469" style="fill:rgb(85,224,98);fill-rule:nonzero;"/>
            </g>
        </g>
        <g transform="matrix(1,0,0,1,393.958,0)">
            <g transform="matrix(0,-1,-1,0,135.603,75.3315)">
                <path d="M-3.947,-3.947C-6.127,-3.947 -7.894,-2.18 -7.894,0C-7.894,2.18 -6.127,3.947 -3.947,3.947C-1.767,3.947 0,2.18 0,0C0,-2.18 -1.767,-3.947 -3.947,-3.947" style="fill:rgb(85,224,98);fill-rule:nonzero;"/>
            </g>
        </g>
        <g transform="matrix(1,0,0,1,393.958,0)">
            <g transform="matrix(0,-1,-1,0,131.643,84.265)">
                <path d="M-1.849,-1.849C-2.87,-1.849 -3.7,-1.021 -3.7,0.001C-3.7,1.021 -2.87,1.849 -1.849,1.849C-0.829,1.849 0.001,1.021 0.001,0.001C0.001,-1.021 -0.829,-1.849 -1.849,-1.849" style="fill:rgb(85,224,98);fill-rule:nonzero;"/>
            </g>
        </g>
        <g transform="matrix(1,0,0,1,393.958,0)">
            <g transform="matrix(-0.0811396,-0.996703,-0.996703,0.0811396,121.845,41.2957)">
                <path d="M-5.951,-6.455C-9.249,-6.456 -11.922,-3.782 -11.922,-0.484C-11.922,2.814 -9.249,5.487 -5.951,5.487C-2.653,5.487 0.02,2.814 0.02,-0.484C0.02,-3.782 -2.653,-6.455 -5.951,-6.455" style="fill:rgb(85,224,98);fill-rule:nonzero;"/>
            </g>
        </g>
        <g transform="matrix(1,0,0,1,393.958,0)">
            <g transform="matrix(1,0,0,1,125.945,83.8971)">
                <path d="M0,-52.099L-7.203,-52.099C-13.188,-52.099 -17.292,-47.995 -17.292,-42.009L-17.292,0" style="fill:none;fill-rule:nonzero;stroke:rgb(85,224,98);stroke-width:2px;"/>
            </g>
        </g>
        <g transform="matrix(1,0,0,1,393.958,0)">
            <g transform="matrix(1,0,0,1,132.625,74.2821)">
                <path d="M0,22.099L4.203,22.099C10.188,22.099 14.292,17.995 14.292,12.009L14.292,0" style="fill:none;fill-rule:nonzero;stroke:rgb(0,104,55);stroke-width:2px;"/>
            </g>
        </g>
        <g transform="matrix(1,0,0,1,393.958,0)">
            <g transform="matrix(0,-1,-1,0,127.944,52.1049)">
                <path d="M-11.971,-11.971C-18.583,-11.971 -23.944,-6.612 -23.944,-0C-23.944,6.611 -18.583,11.971 -11.971,11.971C-5.36,11.971 0.001,6.611 0.001,-0C0.001,-6.612 -5.36,-11.971 -11.971,-11.971" style="fill:rgb(0,113,188);fill-rule:nonzero;"/>
            </g>
        </g>
        <g transform="matrix(1,0,0,1,393.958,0)">
            <g opacity="0.3">
                <g transform="matrix(1,0,0,1,127.945,76.0477)">
                    <path d="M0,-23.943C-6.612,-23.943 -11.972,-18.583 -11.972,-11.971C-11.972,-5.36 -6.612,0 0,0C6.611,0 11.971,-5.36 11.971,-11.971C11.971,-18.583 6.611,-23.943 0,-23.943M0,-20.943C4.947,-20.943 8.971,-16.919 8.971,-11.971C8.971,-7.024 4.947,-3 0,-3C-4.947,-3 -8.972,-7.024 -8.972,-11.971C-8.972,-16.919 -4.947,-20.943 0,-20.943" style="fill:rgb(41,171,226);fill-rule:nonzero;"/>
                </g>
            </g>
        </g>
        <g transform="matrix(1,0,0,1,393.958,0)">
            <g transform="matrix(-0.923896,-0.382644,-0.382644,0.923896,116.041,75.1942)">
                <path d="M-14.04,2.793C-9.531,4.66 -4.31,4.808 0.555,2.793" style="fill:none;fill-rule:nonzero;stroke:rgb(0,104,55);stroke-width:2px;"/>
            </g>
        </g>
        <g transform="matrix(1,0,0,1,393.958,0)">
            <g transform="matrix(-0.648965,0.760818,0.760818,0.648965,142.668,78.1879)">
                <path d="M-2.978,-1.374C-1.779,-1.261 -0.569,-1.26 0.634,-1.374" style="fill:none;fill-rule:nonzero;stroke:rgb(0,104,55);stroke-width:2px;"/>
            </g>
        </g>
        <g transform="matrix(1,0,0,1,393.958,0)">
            <g transform="matrix(1,0,0,1,114.46,45.006)">
                <path d="M0,5.586C3.724,1.861 8.604,0 13.485,0C18.365,0 23.246,1.861 26.97,5.586" style="fill:none;fill-rule:nonzero;stroke:rgb(0,104,55);stroke-width:2px;"/>
            </g>
        </g>
        <g transform="matrix(1,0,0,1,393.958,0)">
            <g transform="matrix(1,0,0,1,127.945,50.1051)">
                <path d="M0,27.943C-7.704,27.943 -13.972,21.675 -13.972,13.971C-13.972,6.267 -7.704,0 0,0C7.704,0 13.971,6.267 13.971,13.971C13.971,21.675 7.704,27.943 0,27.943" style="fill:rgb(251,176,59);fill-rule:nonzero;"/>
            </g>
        </g>
        <g transform="matrix(1,0,0,1,393.958,0)">
            <g transform="matrix(1,0,0,1,127.945,80.0477)">
                <path d="M0,-31.943C-8.807,-31.943 -15.972,-24.778 -15.972,-15.971C-15.972,-7.165 -8.807,0 0,0C8.807,0 15.971,-7.165 15.971,-15.971C15.971,-24.778 8.807,-31.943 0,-31.943M0,-27.943C6.611,-27.943 11.971,-22.583 11.971,-15.971C11.971,-9.36 6.611,-4 0,-4C-6.612,-4 -11.972,-9.36 -11.972,-15.971C-11.972,-22.583 -6.612,-27.943 0,-27.943" style="fill:rgb(0,104,55);fill-rule:nonzero;"/>
            </g>
        </g>
        <g transform="matrix(1,0,0,1,393.958,0)">
            <g transform="matrix(1,0,0,1,127.945,51.1051)">
                <path d="M0,25.943C-7.153,25.943 -12.972,20.124 -12.972,12.971C-12.972,5.819 -7.153,0 0,0C7.152,0 12.971,5.819 12.971,12.971C12.971,20.124 7.152,25.943 0,25.943" style="fill:rgb(193,39,45);fill-rule:nonzero;"/>
            </g>
        </g>
        <g transform="matrix(1,0,0,1,393.958,0)">
            <g transform="matrix(1,0,0,1,127.945,78.0477)">
                <path d="M0,-27.943C-7.704,-27.943 -13.972,-21.675 -13.972,-13.971C-13.972,-6.267 -7.704,0 0,0C7.704,0 13.971,-6.267 13.971,-13.971C13.971,-21.675 7.704,-27.943 0,-27.943M0,-25.943C6.611,-25.943 11.971,-20.583 11.971,-13.971C11.971,-7.36 6.611,-2 0,-2C-6.612,-2 -11.972,-7.36 -11.972,-13.971C-11.972,-20.583 -6.612,-25.943 0,-25.943" style="fill:rgb(137,29,37);fill-rule:nonzero;"/>
            </g>
        </g>
        <g transform="matrix(1,0,0,1,393.958,0)">
            <g opacity="0.25">
                <g transform="matrix(0,-1,-1,0,127.945,57.9814)">
                    <path d="M-6.095,-6.095C-9.461,-6.095 -12.19,-3.366 -12.19,0C-12.19,3.366 -9.461,6.095 -6.095,6.095C-2.729,6.095 0,3.366 0,0C0,-3.366 -2.729,-6.095 -6.095,-6.095" style="fill:white;fill-rule:nonzero;"/>
                </g>
            </g>
        </g>
        <g transform="matrix(1,0,0,1,393.958,0)">
            <g opacity="0.5">
                <g transform="matrix(1,0,0,1,117.113,53.2454)">
                    <path d="M0,10.831C0,4.849 4.85,0 10.832,0C16.813,0 21.663,4.849 21.663,10.831" style="fill:none;fill-rule:nonzero;stroke:white;stroke-width:2px;"/>
                </g>
            </g>
        </g>
        <g transform="matrix(1,0,0,1,393.958,0)">
            <g opacity="0.25">
                <g transform="matrix(1,0,0,1,135.604,75.0482)">
                    <path d="M0,-3.173C-1.96,-1.213 -4.668,0 -7.659,0C-10.65,0 -13.358,-1.213 -15.318,-3.173" style="fill:none;fill-rule:nonzero;stroke:black;stroke-width:2px;"/>
                </g>
            </g>
        </g>
        <g transform="matrix(1,0,0,1,393.958,0)">
            <g transform="matrix(0,-1,-1,0,136.129,27.2141)">
                <path d="M-5.082,-5.082C-7.889,-5.082 -10.164,-2.807 -10.164,0C-10.164,2.807 -7.889,5.082 -5.082,5.082C-2.275,5.082 0,2.807 0,0C0,-2.807 -2.275,-5.082 -5.082,-5.082" style="fill:rgb(57,181,74);fill-rule:nonzero;"/>
            </g>
        </g>
        <g transform="matrix(1,0,0,1,393.958,0)">
            <g transform="matrix(0,-1,-1,0,142.001,29.7979)">
                <path d="M-6.383,-6.383C-9.908,-6.383 -12.766,-3.525 -12.766,0C-12.766,3.525 -9.908,6.383 -6.383,6.383C-2.858,6.383 0,3.525 0,0C0,-3.525 -2.858,-6.383 -6.383,-6.383" style="fill:rgb(57,181,74);fill-rule:nonzero;"/>
            </g>
        </g>
        <g transform="matrix(1,0,0,1,393.958,0)">
            <g transform="matrix(0,-1,-1,0,118.026,91.8464)">
                <path d="M-4.123,-4.123C-6.4,-4.123 -8.246,-2.277 -8.246,-0C-8.246,2.277 -6.4,4.123 -4.123,4.123C-1.846,4.123 -0,2.277 -0,-0C-0,-2.277 -1.846,-4.123 -4.123,-4.123" style="fill:rgb(57,181,74);fill-rule:nonzero;"/>
            </g>
        </g>
        <g transform="matrix(1,0,0,1,393.958,0)">
            <g transform="matrix(0,-1,-1,0,113.446,86.4126)">
                <path d="M-2.637,-2.637C-4.093,-2.637 -5.274,-1.457 -5.274,0C-5.274,1.456 -4.093,2.637 -2.637,2.637C-1.181,2.637 0,1.456 0,0C0,-1.457 -1.181,-2.637 -2.637,-2.637" style="fill:rgb(57,181,74);fill-rule:nonzero;"/>
            </g>
        </g>
    </g>
</svg>
