<?xml version="1.0" encoding="UTF-8" standalone="no"?>
<!DOCTYPE svg PUBLIC "-//W3C//DTD SVG 1.1//EN" "http://www.w3.org/Graphics/SVG/1.1/DTD/svg11.dtd">
<svg width="100%" height="100%" viewBox="0 0 100 100" version="1.1" xmlns="http://www.w3.org/2000/svg" xmlns:xlink="http://www.w3.org/1999/xlink" xml:space="preserve" xmlns:serif="http://www.serif.com/" style="fill-rule:evenodd;clip-rule:evenodd;stroke-linecap:round;stroke-miterlimit:10;">
    <g transform="matrix(1,0,0,1,-775,-2.99782)">
        <g id="multi" transform="matrix(0.998677,0,0,0.998677,0.359084,-123.42)">
            <rect x="775.667" y="126.585" width="100.132" height="100.132" style="fill:none;"/>
            <g id="nucleus" transform="matrix(1.00132,0,0,1.00132,-0.724842,123.387)">
                <g transform="matrix(1,0,0,1,825.365,69.1654)">
                    <path d="M0,-31.943C-8.807,-31.943 -15.972,-24.778 -15.972,-15.971C-15.972,-7.165 -8.807,0 0,0C8.807,0 15.971,-7.165 15.971,-15.971C15.971,-24.778 8.807,-31.943 0,-31.943M0,-27.943C6.611,-27.943 11.971,-22.583 11.971,-15.971C11.971,-9.36 6.611,-4 0,-4C-6.612,-4 -11.972,-9.36 -11.972,-15.971C-11.972,-22.583 -6.612,-27.943 0,-27.943" style="fill:rgb(10,72,116);fill-rule:nonzero;"/>
                </g>
                <g transform="matrix(1,0,0,1,825.365,40.2228)">
                    <path d="M0,25.943C-7.153,25.943 -12.972,20.124 -12.972,12.971C-12.972,5.819 -7.153,0 0,0C7.152,0 12.971,5.819 12.971,12.971C12.971,20.124 7.152,25.943 0,25.943" style="fill:rgb(251,176,59);fill-rule:nonzero;"/>
                </g>
                <g transform="matrix(1,0,0,1,825.365,67.1654)">
                    <path d="M0,-27.943C-7.704,-27.943 -13.972,-21.675 -13.972,-13.971C-13.972,-6.267 -7.704,0 0,0C7.704,0 13.971,-6.267 13.971,-13.971C13.971,-21.675 7.704,-27.943 0,-27.943M0,-25.943C6.611,-25.943 11.971,-20.583 11.971,-13.971C11.971,-7.36 6.611,-2 0,-2C-6.612,-2 -11.972,-7.36 -11.972,-13.971C-11.972,-20.583 -6.612,-25.943 0,-25.943" style="fill:rgb(247,147,30);fill-rule:nonzero;"/>
                </g>
                <g transform="matrix(1,0,0,1,777.421,-10.8823)">
                    <g opacity="0.25">
                        <g transform="matrix(0,-1,-1,0,47.9448,57.9814)">
                            <path d="M-6.095,-6.095C-9.461,-6.095 -12.19,-3.366 -12.19,0C-12.19,3.366 -9.461,6.095 -6.095,6.095C-2.729,6.095 0,3.366 0,0C0,-3.366 -2.729,-6.095 -6.095,-6.095" style="fill:white;fill-rule:nonzero;"/>
                        </g>
                    </g>
                </g>
                <g transform="matrix(1,0,0,1,777.421,-10.8823)">
                    <g opacity="0.5">
                        <g transform="matrix(1,0,0,1,37.113,53.2454)">
                            <clipPath id="_clip1">
                                <rect x="-1" y="-1" width="23.663" height="12.831" clip-rule="nonzero"/>
                            </clipPath>
                            <g clip-path="url(#_clip1)">
                                <path d="M0,10.831C0,4.849 4.85,0 10.832,0C16.813,0 21.663,4.849 21.663,10.831" style="fill:none;fill-rule:nonzero;stroke:white;stroke-width:2px;"/>
                            </g>
                        </g>
                    </g>
                </g>
                <g transform="matrix(1,0,0,1,777.421,-10.8823)">
                    <g opacity="0.25">
                        <g transform="matrix(1,0,0,1,55.6037,75.0482)">
                            <clipPath id="_clip2">
                                <rect x="-16.318" y="-4.173" width="17.318" height="5.173" clip-rule="nonzero"/>
                            </clipPath>
                            <g clip-path="url(#_clip2)">
                                <path d="M0,-3.173C-1.96,-1.213 -4.668,0 -7.659,0C-10.65,0 -13.358,-1.213 -15.318,-3.173" style="fill:none;fill-rule:nonzero;stroke:black;stroke-width:2px;"/>
                            </g>
                        </g>
                    </g>
                </g>
            </g>
        </g>
    </g>
</svg>
