<?xml version="1.0" encoding="UTF-8" standalone="no"?>
<!DOCTYPE svg PUBLIC "-//W3C//DTD SVG 1.1//EN" "http://www.w3.org/Graphics/SVG/1.1/DTD/svg11.dtd">
<svg width="100%" height="100%" viewBox="0 0 25 14" version="1.1" xmlns="http://www.w3.org/2000/svg" xmlns:xlink="http://www.w3.org/1999/xlink" xml:space="preserve" xmlns:serif="http://www.serif.com/" style="fill-rule:evenodd;clip-rule:evenodd;stroke-linejoin:round;stroke-miterlimit:2;">
    <g transform="matrix(1,0,0,1,-130,-110)">
        <g id="Foreground---Lower-Arm" serif:id="Foreground - Lower Arm">
            <g transform="matrix(1,0,0,1,149.453,110.099)">
                <path d="M0,12.648C-1.401,12.779 -8.97,12.766 -12.322,12.779C-15.675,12.793 -19.713,9.419 -17.635,5.006C-15.558,0.594 -10.832,-0.145 -7.13,0.924C-3.429,1.995 3.327,5.897 4.376,6.591C5.425,7.286 5.94,9.352 4.973,10.765C4.005,12.179 1.401,12.517 0,12.648" style="fill:rgb(0,169,157);fill-rule:nonzero;"/>
            </g>
            <g opacity="0.5">
                <g transform="matrix(-0.0747563,-0.997202,-0.997202,0.0747563,140.958,103.985)">
                    <path d="M-10.406,-7.043C-9.099,-4.929 -7.762,-2.559 -7.121,-0.834C-5.777,2.776 -6.161,7.544 -10.406,9.945C-10.406,9.945 -7.716,6.096 -7.98,2.572C-8.341,-2.236 -10.406,-7.043 -10.406,-7.043" style="fill:white;fill-rule:nonzero;"/>
                </g>
            </g>
            <g opacity="0.3">
                <g transform="matrix(1,0,0,1,154.426,117.434)">
                    <path d="M0,3.431C-0.968,4.845 -3.572,5.182 -4.973,5.314C-6.374,5.445 -13.943,5.445 -17.295,5.445C-22.115,5.445 -24.221,1.256 -22.752,-2.014C-22.752,-2.014 -21.61,1.178 -17.155,2.004C-13.746,2.636 -6.706,3.521 -5.155,3.5C-3.605,3.479 0,3.431 0,3.431" style="fill-rule:nonzero;"/>
                </g>
            </g>
            <g transform="matrix(1,0,0,1,132.702,123.368)">
                <path d="M0,-9.729C-0.566,-8.794 -1,-7.779 -1.132,-6.737C-1.297,-5.705 -1.097,-4.657 -0.518,-3.847C0.075,-3.035 0.863,-2.324 1.755,-1.855C2.646,-1.368 3.657,-1.118 4.687,-1.01C5.709,-0.927 6.84,-0.955 7.922,-0.942L11.201,-0.879C13.386,-0.844 15.573,-0.76 17.761,-0.633C15.577,-0.453 13.392,-0.317 11.206,-0.23C9.002,-0.142 6.875,0 4.607,-0.043C2.314,-0.147 -0.011,-1.387 -1.205,-3.419C-1.817,-4.46 -1.922,-5.736 -1.636,-6.837C-1.328,-7.939 -0.756,-8.931 0,-9.729" style="fill:rgb(0,66,58);fill-rule:nonzero;"/>
            </g>
        </g>
    </g>
</svg>
