<?xml version="1.0" encoding="UTF-8" standalone="no"?>
<!DOCTYPE svg PUBLIC "-//W3C//DTD SVG 1.1//EN" "http://www.w3.org/Graphics/SVG/1.1/DTD/svg11.dtd">
<svg width="100%" height="100%" viewBox="0 0 14 18" version="1.1" xmlns="http://www.w3.org/2000/svg" xmlns:xlink="http://www.w3.org/1999/xlink" xml:space="preserve" xmlns:serif="http://www.serif.com/" style="fill-rule:evenodd;clip-rule:evenodd;stroke-linejoin:round;stroke-miterlimit:2;">
    <g transform="matrix(1,0,0,1,-157,-103)">
        <g id="Background---Hand" serif:id="Background - Hand">
            <g transform="matrix(1,0,0,1,165.969,115.689)">
                <path d="M0,-1.171C0,-1.171 1.295,0.49 1.275,4.843C1.275,4.843 6.118,0.412 4.105,-6.014L0,-1.171Z" style="fill:white;fill-rule:nonzero;"/>
            </g>
            <g opacity="0.5">
                <g transform="matrix(1,0,0,1,165.969,115.689)">
                    <path d="M0,-1.171C0,-1.171 1.295,0.49 1.275,4.843C1.275,4.843 6.118,0.412 4.105,-6.014L0,-1.171Z" style="fill-rule:nonzero;"/>
                </g>
            </g>
            <g transform="matrix(1,0,0,1,157.792,110.575)">
                <path d="M0,-3.405C-0.405,-1.088 0.104,1.001 1.734,1.525C3.363,2.05 4.819,1.487 6.223,2.855C7.626,4.222 8.283,5.256 10.519,3.253C12.753,1.251 13.701,-0.879 11.002,-3.837C8.303,-6.795 0.918,-8.661 0,-3.405" style="fill:rgb(0,169,157);fill-rule:nonzero;"/>
            </g>
            <g opacity="0.5">
                <g transform="matrix(1,0,0,1,157.792,110.575)">
                    <path d="M0,-3.405C-0.405,-1.088 0.104,1.001 1.734,1.525C3.363,2.05 4.819,1.487 6.223,2.855C7.626,4.222 8.283,5.256 10.519,3.253C12.753,1.251 13.701,-0.879 11.002,-3.837C8.303,-6.795 0.918,-8.661 0,-3.405" style="fill-rule:nonzero;"/>
                </g>
            </g>
            <g transform="matrix(1,0,0,1,158.658,115.089)">
                <path d="M0,-9.888C-0.871,-8.557 -1.079,-6.925 -0.671,-5.516C-0.471,-4.816 -0.097,-4.162 0.416,-3.75C0.897,-3.348 1.631,-3.285 2.395,-3.21C3.152,-3.163 4.068,-3.083 4.871,-2.618C5.256,-2.402 5.613,-2.047 5.861,-1.785C6.134,-1.515 6.401,-1.255 6.682,-1.049C7.235,-0.625 7.903,-0.561 8.593,-0.88C9.292,-1.149 9.907,-1.665 10.538,-2.143C10.065,-1.504 9.525,-0.907 8.822,-0.441C8.472,-0.212 8.041,-0.05 7.575,-0.025C7.104,0 6.639,-0.166 6.262,-0.387C5.483,-0.814 4.986,-1.519 4.403,-1.782C3.819,-2.114 3.106,-2.145 2.306,-2.229C1.906,-2.271 1.485,-2.323 1.066,-2.435C0.67,-2.539 0.17,-2.76 -0.156,-3.072C-0.854,-3.688 -1.201,-4.528 -1.367,-5.351C-1.686,-7.015 -1.141,-8.775 0,-9.888" style="fill:rgb(0,66,58);fill-rule:nonzero;"/>
            </g>
        </g>
    </g>
</svg>
