<?xml version="1.0" encoding="UTF-8" standalone="no"?>
<!DOCTYPE svg PUBLIC "-//W3C//DTD SVG 1.1//EN" "http://www.w3.org/Graphics/SVG/1.1/DTD/svg11.dtd">
<svg width="100%" height="100%" viewBox="0 0 28 30" version="1.1" xmlns="http://www.w3.org/2000/svg" xmlns:xlink="http://www.w3.org/1999/xlink" xml:space="preserve" xmlns:serif="http://www.serif.com/" style="fill-rule:evenodd;clip-rule:evenodd;stroke-linejoin:round;stroke-miterlimit:2;">
    <g transform="matrix(1,0,0,1,-114,-93)">
        <g id="Foreground---Upper-Arm" serif:id="Foreground - Upper Arm">
            <g transform="matrix(1,0,0,1,132.94,92.6696)">
                <path d="M0,29.133C-1.034,28.94 -8.785,26.27 -14.293,19.182C-19.801,12.094 -18.782,5.923 -14.887,2.896C-10.992,-0.131 -5.787,-0.357 -0.195,6.839C5.396,14.034 7.171,21.042 7.286,21.938C7.401,22.833 7.92,25.154 6.215,27.322C4.511,29.49 1.435,29.401 0,29.133" style="fill:rgb(0,169,157);fill-rule:nonzero;"/>
            </g>
            <g opacity="0.3">
                <g transform="matrix(1,0,0,1,116.881,118.256)">
                    <path d="M0,-9.015C0.492,-8.162 1.078,-7.29 1.767,-6.405C7.274,0.683 15.025,3.353 16.06,3.547C17.495,3.814 20.571,3.903 22.275,1.735C23.979,-0.432 23.461,-2.754 23.346,-3.649C23.263,-4.295 22.314,-8.128 19.689,-12.918C19.689,-12.918 17.988,-7.781 11.755,-7.077C4.027,-6.203 0,-9.015 0,-9.015" style="fill-rule:nonzero;"/>
                </g>
            </g>
            <g transform="matrix(1,0,0,1,136.57,122.977)">
                <path d="M0,-17.639C1.057,-16.16 1.957,-14.571 2.754,-12.923C3.497,-11.252 4.267,-9.584 4.54,-7.638C4.905,-5.714 4.363,-3.442 2.873,-1.895C2.11,-1.105 1.11,-0.603 0.113,-0.333C-0.891,-0.066 -1.903,0 -2.902,-0.074C-3.153,-0.093 -3.401,-0.126 -3.654,-0.171C-3.899,-0.207 -4.228,-0.302 -4.436,-0.37C-4.908,-0.52 -5.343,-0.69 -5.781,-0.866C-6.646,-1.229 -7.495,-1.615 -8.31,-2.062C-9.938,-2.958 -11.499,-3.97 -12.923,-5.154C-15.799,-7.479 -18.171,-10.431 -19.689,-13.736C-17.456,-10.868 -14.896,-8.395 -11.984,-6.401C-10.522,-5.421 -9.026,-4.493 -7.442,-3.745C-6.656,-3.361 -5.862,-2.997 -5.057,-2.681C-4.655,-2.527 -4.246,-2.377 -3.856,-2.261C-3.634,-2.197 -3.529,-2.162 -3.327,-2.133C-3.135,-2.101 -2.936,-2.081 -2.737,-2.066C-1.141,-1.912 0.517,-2.246 1.544,-3.237C2.054,-3.725 2.504,-4.412 2.732,-5.124C2.969,-5.848 3.049,-6.636 2.994,-7.467L2.937,-8.118L2.904,-8.419L2.853,-8.724C2.772,-9.143 2.672,-9.572 2.571,-10.001C2.367,-10.861 2.116,-11.715 1.845,-12.566C1.317,-14.274 0.669,-15.95 0,-17.639" style="fill:rgb(0,66,58);fill-rule:nonzero;"/>
            </g>
            <g opacity="0.5">
                <g transform="matrix(-0.215761,-0.976446,-0.976446,0.215761,123.26,88.6418)">
                    <path d="M-12.657,-6.918C-4.424,-3.01 -3.522,2.12 -5.637,6.577C-6.85,9.134 -9.278,10.988 -12.657,11.38C-12.657,11.38 -7.164,8.844 -7.284,3.295C-7.403,-2.257 -12.657,-6.918 -12.657,-6.918" style="fill:white;fill-rule:nonzero;"/>
                </g>
            </g>
        </g>
    </g>
</svg>
