<?xml version="1.0" encoding="UTF-8" standalone="no"?>
<!DOCTYPE svg PUBLIC "-//W3C//DTD SVG 1.1//EN" "http://www.w3.org/Graphics/SVG/1.1/DTD/svg11.dtd">
<svg width="100%" height="100%" viewBox="0 0 25 14" version="1.1" xmlns="http://www.w3.org/2000/svg" xmlns:xlink="http://www.w3.org/1999/xlink" xml:space="preserve" xmlns:serif="http://www.serif.com/" style="fill-rule:evenodd;clip-rule:evenodd;stroke-linejoin:round;stroke-miterlimit:2;">
    <g transform="matrix(1,0,0,1,-138,-98)">
        <g id="Background---Lower-Arm" serif:id="Background - Lower Arm">
            <g transform="matrix(1,0,0,1,157.589,98.5317)">
                <path d="M0,11.329C-1.393,11.529 -8.953,11.888 -12.301,12.066C-15.649,12.245 -19.848,9.074 -17.99,4.564C-16.132,0.055 -11.448,-0.916 -7.699,-0.029C-3.949,0.857 2.991,4.423 4.073,5.065C5.155,5.707 5.771,7.745 4.875,9.204C3.978,10.663 1.393,11.129 0,11.329" style="fill:rgb(0,169,157);fill-rule:nonzero;"/>
            </g>
            <g opacity="0.5">
                <g transform="matrix(1,0,0,1,157.589,98.5317)">
                    <path d="M0,11.329C-1.393,11.529 -8.953,11.888 -12.301,12.066C-15.649,12.245 -19.848,9.074 -17.99,4.564C-16.132,0.055 -11.448,-0.916 -7.699,-0.029C-3.949,0.857 2.991,4.423 4.073,5.065C5.155,5.707 5.771,7.745 4.875,9.204C3.978,10.663 1.393,11.129 0,11.329" style="fill-rule:nonzero;"/>
                </g>
            </g>
            <g transform="matrix(1,0,0,1,140.41,111.045)">
                <path d="M0,-9.457C-0.519,-8.495 -0.903,-7.46 -0.983,-6.413C-1.098,-5.374 -0.846,-4.337 -0.228,-3.557C0.404,-2.775 1.226,-2.104 2.141,-1.679C3.054,-1.237 4.077,-1.037 5.11,-0.979C6.135,-0.946 7.263,-1.03 8.345,-1.071L11.623,-1.168C13.807,-1.242 15.995,-1.265 18.187,-1.246C16.015,-0.959 13.839,-0.715 11.66,-0.521C9.463,-0.324 7.345,-0.079 5.078,-0.01C2.783,0 0.399,-1.124 -0.893,-3.095C-1.556,-4.105 -1.723,-5.374 -1.492,-6.489C-1.238,-7.604 -0.716,-8.623 0,-9.457" style="fill:rgb(0,66,58);fill-rule:nonzero;"/>
            </g>
        </g>
    </g>
</svg>
