<?xml version="1.0" encoding="UTF-8" standalone="no"?>
<!DOCTYPE svg PUBLIC "-//W3C//DTD SVG 1.1//EN" "http://www.w3.org/Graphics/SVG/1.1/DTD/svg11.dtd">
<svg width="100%" height="100%" viewBox="0 0 29 29" version="1.1" xmlns="http://www.w3.org/2000/svg" xmlns:xlink="http://www.w3.org/1999/xlink" xml:space="preserve" xmlns:serif="http://www.serif.com/" style="fill-rule:evenodd;clip-rule:evenodd;stroke-linejoin:round;stroke-miterlimit:2;">
    <g transform="matrix(1,0,0,1,-121,-82)">
        <g id="Background---Upper-Arm" serif:id="Background - Upper Arm">
            <g transform="matrix(1,0,0,1,141.05,80.7564)">
                <path d="M0,28.973C-1.042,28.831 -8.916,26.545 -14.765,19.738C-20.615,12.93 -19.901,6.716 -16.16,3.5C-12.418,0.285 -7.231,-0.197 -1.292,6.715C4.647,13.627 6.764,20.539 6.923,21.428C7.083,22.317 7.714,24.61 6.119,26.859C4.523,29.108 1.447,29.17 0,28.973" style="fill:rgb(0,169,157);fill-rule:nonzero;"/>
            </g>
            <g opacity="0.5">
                <g transform="matrix(1,0,0,1,141.05,80.7564)">
                    <path d="M0,28.973C-1.042,28.831 -8.916,26.545 -14.765,19.738C-20.615,12.93 -19.901,6.716 -16.16,3.5C-12.418,0.285 -7.231,-0.197 -1.292,6.715C4.647,13.627 6.764,20.539 6.923,21.428C7.083,22.317 7.714,24.61 6.119,26.859C4.523,29.108 1.447,29.17 0,28.973" style="fill-rule:nonzero;"/>
                </g>
            </g>
            <g transform="matrix(1,0,0,1,143.865,110.818)">
                <path d="M0,-17.712C1.128,-16.287 2.105,-14.744 2.982,-13.137C3.807,-11.504 4.658,-9.876 5.026,-7.946C5.486,-6.042 5.056,-3.746 3.644,-2.129C2.921,-1.301 1.947,-0.751 0.965,-0.432C-0.025,-0.116 -1.033,0 -2.035,-0.025C-2.286,-0.032 -2.536,-0.053 -2.791,-0.085C-3.037,-0.109 -3.37,-0.188 -3.582,-0.246C-4.06,-0.372 -4.503,-0.52 -4.949,-0.674C-5.831,-0.995 -6.697,-1.338 -7.534,-1.745C-9.203,-2.559 -10.813,-3.493 -12.293,-4.607C-15.281,-6.787 -17.795,-9.619 -19.473,-12.845C-17.101,-10.09 -14.424,-7.747 -11.417,-5.898C-9.909,-4.99 -8.369,-4.138 -6.75,-3.468C-5.946,-3.124 -5.135,-2.799 -4.314,-2.523C-3.906,-2.389 -3.49,-2.259 -3.095,-2.163C-2.87,-2.109 -2.763,-2.08 -2.56,-2.061C-2.367,-2.039 -2.167,-2.028 -1.967,-2.023C-0.366,-1.947 1.273,-2.362 2.251,-3.403C2.736,-3.916 3.152,-4.624 3.344,-5.346C3.546,-6.082 3.587,-6.872 3.491,-7.699L3.401,-8.346L3.354,-8.646L3.288,-8.948C3.187,-9.362 3.066,-9.786 2.944,-10.21C2.698,-11.058 2.404,-11.899 2.092,-12.735C1.481,-14.416 0.751,-16.058 0,-17.712" style="fill:rgb(0,66,58);fill-rule:nonzero;"/>
            </g>
        </g>
    </g>
</svg>
