<?xml version="1.0" encoding="UTF-8" standalone="no"?>
<!DOCTYPE svg PUBLIC "-//W3C//DTD SVG 1.1//EN" "http://www.w3.org/Graphics/SVG/1.1/DTD/svg11.dtd">
<svg width="100%" height="100%" viewBox="0 0 14 18" version="1.1" xmlns="http://www.w3.org/2000/svg" xmlns:xlink="http://www.w3.org/1999/xlink" xml:space="preserve" xmlns:serif="http://www.serif.com/" style="fill-rule:evenodd;clip-rule:evenodd;stroke-linejoin:round;stroke-miterlimit:2;">
    <g transform="matrix(1,0,0,1,-149,-116)">
        <g id="Foreground---Hand" serif:id="Foreground - Hand">
            <g transform="matrix(1,0,0,1,157.594,129.244)">
                <path d="M0,-1.434C0,-1.434 1.211,0.289 0.978,4.635C0.978,4.635 6.032,0.448 4.338,-6.069L0,-1.434Z" style="fill:white;fill-rule:nonzero;"/>
            </g>
            <g transform="matrix(1,0,0,1,149.789,123.923)">
                <path d="M0,-3.854C-0.518,-1.559 -0.112,0.552 1.49,1.156C3.091,1.76 4.573,1.27 5.908,2.705C7.242,4.139 7.847,5.204 10.178,3.314C12.509,1.424 13.561,-0.657 11.01,-3.744C8.46,-6.831 1.176,-9.058 0,-3.854" style="fill:rgb(0,169,157);fill-rule:nonzero;"/>
            </g>
            <g opacity="0.3">
                <g transform="matrix(1,0,0,1,162.271,125.925)">
                    <path d="M0,-2.654C0.11,-1.125 -0.847,0.131 -2.304,1.312C-4.635,3.202 -5.24,2.138 -6.575,0.703C-7.909,-0.732 -9.391,-0.242 -10.993,-0.846C-12.594,-1.449 -13,-3.561 -12.482,-5.856C-12.482,-5.856 -12.269,-3 -9.896,-2.749C-7.776,-2.525 -5.864,-1.867 -4.95,-0.987C-2.705,1.175 0,-2.654 0,-2.654" style="fill-rule:nonzero;"/>
                </g>
            </g>
            <g transform="matrix(1,0,0,1,150.75,128.371)">
                <path d="M0,-10.226C-0.935,-8.939 -1.224,-7.319 -0.886,-5.892C-0.72,-5.183 -0.379,-4.512 0.113,-4.075C0.574,-3.649 1.305,-3.551 2.063,-3.438C2.817,-3.353 3.729,-3.229 4.507,-2.725C4.881,-2.49 5.22,-2.118 5.456,-1.844C5.714,-1.561 5.969,-1.288 6.239,-1.068C6.77,-0.618 7.434,-0.521 8.14,-0.806C8.851,-1.04 9.491,-1.525 10.144,-1.972C9.64,-1.356 9.072,-0.787 8.346,-0.356C7.985,-0.145 7.547,-0.004 7.08,-0.001C6.609,0 6.152,-0.189 5.787,-0.428C5.03,-0.893 4.568,-1.622 3.999,-1.913C3.432,-2.273 2.722,-2.339 1.926,-2.463C1.529,-2.524 1.111,-2.597 0.698,-2.729C0.307,-2.853 -0.181,-3.098 -0.491,-3.425C-1.158,-4.075 -1.463,-4.932 -1.589,-5.762C-1.826,-7.439 -1.195,-9.17 0,-10.226" style="fill:rgb(0,66,58);fill-rule:nonzero;"/>
            </g>
            <g opacity="0.5">
                <g transform="matrix(1,0,0,1,160.799,115.585)">
                    <path d="M0,4.595C-2.15,1.991 -7.668,0 -10.049,2.56C-10.049,2.56 -7.219,2.002 -4.787,2.56C-2.355,3.118 0,4.595 0,4.595" style="fill:white;fill-rule:nonzero;"/>
                </g>
            </g>
        </g>
    </g>
</svg>
