<?xml version="1.0" encoding="UTF-8" standalone="no"?>
<!DOCTYPE svg PUBLIC "-//W3C//DTD SVG 1.1//EN" "http://www.w3.org/Graphics/SVG/1.1/DTD/svg11.dtd">
<svg width="100%" height="100%" viewBox="0 0 33 40" version="1.1" xmlns="http://www.w3.org/2000/svg" xmlns:xlink="http://www.w3.org/1999/xlink" xml:space="preserve" xmlns:serif="http://www.serif.com/" style="fill-rule:evenodd;clip-rule:evenodd;stroke-linejoin:round;stroke-miterlimit:2;">
    <g transform="matrix(1,0,0,1,-98,-162)">
        <g id="Background---Lower-Leg" serif:id="Background - Lower Leg">
            <g transform="matrix(1,0,0,1,103.311,164.13)">
                <path d="M0,36.02C0,36.02 -1.043,31.453 -3.365,25.326C-5.686,19.198 -7.355,-1.61 10.38,-1.61C28.116,-1.61 28.338,14.352 25.456,20.559C22.574,26.767 18.583,37.63 18.583,37.63L1.558,37.63C0.311,37.63 0,36.02 0,36.02" style="fill:rgb(0,169,157);fill-rule:nonzero;"/>
            </g>
            <g opacity="0.5">
                <g transform="matrix(1,0,0,1,103.311,164.13)">
                    <path d="M0,36.02C0,36.02 -1.043,31.453 -3.365,25.326C-5.686,19.198 -7.355,-1.61 10.38,-1.61C28.116,-1.61 28.338,14.352 25.456,20.559C22.574,26.767 18.583,37.63 18.583,37.63L1.558,37.63C0.311,37.63 0,36.02 0,36.02" style="fill-rule:nonzero;"/>
                </g>
            </g>
            <g transform="matrix(0.620401,0.784285,0.784285,-0.620401,116.541,194.93)">
                <path d="M5.724,-3.774C5.724,-3.774 1.859,4.32 3.273,6.107L5.724,9.205C6.478,10.159 14.112,6.83 14.112,6.83L5.724,-3.774Z" style="fill:rgb(204,204,204);fill-rule:nonzero;"/>
            </g>
            <g opacity="0.3">
                <g transform="matrix(0.620401,0.784285,0.784285,-0.620401,116.541,194.93)">
                    <path d="M5.724,-3.774C5.724,-3.774 1.859,4.32 3.273,6.107L5.724,9.205C6.478,10.159 14.112,6.83 14.112,6.83L5.724,-3.774Z" style="fill-rule:nonzero;"/>
                </g>
            </g>
            <g transform="matrix(0.620401,0.784285,0.784285,-0.620401,111.821,194.93)">
                <path d="M5.724,-3.774C5.724,-3.774 1.859,4.32 3.273,6.107L5.724,9.205C6.478,10.158 14.112,6.83 14.112,6.83L5.724,-3.774Z" style="fill:white;fill-rule:nonzero;"/>
            </g>
            <g opacity="0.3">
                <g transform="matrix(0.620401,0.784285,0.784285,-0.620401,111.821,194.93)">
                    <path d="M5.724,-3.774C5.724,-3.774 1.859,4.32 3.273,6.107L5.724,9.205C6.478,10.158 14.112,6.83 14.112,6.83L5.724,-3.774Z" style="fill-rule:nonzero;"/>
                </g>
            </g>
        </g>
    </g>
</svg>
