<?xml version="1.0" encoding="UTF-8" standalone="no"?>
<!DOCTYPE svg PUBLIC "-//W3C//DTD SVG 1.1//EN" "http://www.w3.org/Graphics/SVG/1.1/DTD/svg11.dtd">
<svg width="100%" height="100%" viewBox="0 0 51 60" version="1.1" xmlns="http://www.w3.org/2000/svg" xmlns:xlink="http://www.w3.org/1999/xlink" xml:space="preserve" xmlns:serif="http://www.serif.com/" style="fill-rule:evenodd;clip-rule:evenodd;stroke-linejoin:round;stroke-miterlimit:2;">
    <g transform="matrix(1,0,0,1,-65,-131)">
        <g id="Foreground---Upper-Leg" serif:id="Foreground - Upper Leg">
            <g transform="matrix(1,0,0,1,78.5327,135.612)">
                <path d="M0,50.186C-2.768,48.353 -12.775,41.289 -12.775,22.459C-12.775,3.63 -1.247,-3.687 10.281,-3.687C21.809,-3.687 35.111,2.912 36.441,19.349C37.712,35.06 31.892,46.103 30.233,49.078C28.575,52.052 23.199,53.862 15.322,53.867C7.445,53.873 2.767,52.02 0,50.186" style="fill:rgb(0,169,157);fill-rule:nonzero;"/>
            </g>
            <g opacity="0.3">
                <g transform="matrix(1,0,0,1,113.148,189.485)">
                    <path d="M0,-42.52C6,-26.957 -2.724,-7.77 -4.382,-4.795C-6.041,-1.821 -11.417,-0.011 -19.293,-0.006C-27.17,0 -31.849,-1.853 -34.616,-3.687C-37.383,-5.52 -52.472,-19.362 -45.738,-42.52C-45.738,-42.52 -41.799,-28.783 -22.86,-28.783C-3.921,-28.783 0,-42.52 0,-42.52" style="fill-rule:nonzero;"/>
                </g>
            </g>
            <g transform="matrix(1,0,0,1,114.974,190.924)">
                <path d="M0,-35.964C0.989,-28.097 0.594,-19.878 -2.128,-12.223C-2.814,-10.315 -3.638,-8.444 -4.786,-6.691C-5.959,-4.92 -7.534,-3.425 -9.406,-2.374C-11.268,-1.312 -13.338,-0.774 -15.362,-0.453C-17.397,-0.141 -19.429,-0.038 -21.443,-0.021C-25.489,0 -29.676,-0.589 -33.455,-2.354C-37.167,-4.167 -40.468,-6.752 -42.952,-10.026C-45.457,-13.265 -47.162,-17.043 -48.149,-20.943C-49.092,-24.86 -49.433,-28.882 -49.216,-32.853C-48.979,-28.888 -48.439,-24.942 -47.203,-21.214C-46.021,-17.483 -44.192,-13.974 -41.73,-11.004C-40.491,-9.528 -39.101,-8.187 -37.581,-7.023C-36.053,-5.879 -34.383,-4.846 -32.662,-4.08C-29.199,-2.511 -25.321,-1.983 -21.452,-2.015C-17.572,-2.037 -13.583,-2.292 -10.314,-4.025C-8.699,-4.877 -7.284,-6.16 -6.23,-7.674C-5.173,-9.227 -4.309,-10.979 -3.581,-12.777C-2.141,-16.391 -1.19,-20.228 -0.644,-24.125C-0.041,-28.022 0.096,-31.99 0,-35.964" style="fill:rgb(0,66,58);fill-rule:nonzero;"/>
            </g>
            <g opacity="0.5">
                <g transform="matrix(0,1,1,0,84.6711,116.1)">
                    <path d="M26.618,-15.383C26.618,-15.383 15.383,-10.78 15.383,5.05C15.383,20.881 26.618,26.618 26.618,26.618C26.618,26.618 17.627,18.983 17.627,5.05C17.627,-8.883 26.618,-15.383 26.618,-15.383" style="fill:white;fill-rule:nonzero;"/>
                </g>
            </g>
        </g>
    </g>
</svg>
