<?xml version="1.0" encoding="UTF-8" standalone="no"?>
<!DOCTYPE svg PUBLIC "-//W3C//DTD SVG 1.1//EN" "http://www.w3.org/Graphics/SVG/1.1/DTD/svg11.dtd">
<svg width="100%" height="100%" viewBox="0 0 34 40" version="1.1" xmlns="http://www.w3.org/2000/svg" xmlns:xlink="http://www.w3.org/1999/xlink" xml:space="preserve" xmlns:serif="http://www.serif.com/" style="fill-rule:evenodd;clip-rule:evenodd;stroke-linejoin:round;stroke-miterlimit:2;">
    <g transform="matrix(1,0,0,1,-77,-162)">
        <g id="Foreground---Lower-Leg" serif:id="Foreground - Lower Leg">
            <g transform="matrix(1,0,0,1,83.3105,164.13)">
                <path d="M0,36.02C0,36.02 -1.043,31.453 -3.365,25.326C-5.686,19.198 -7.355,-1.61 10.38,-1.61C28.116,-1.61 28.338,14.352 25.456,20.559C22.574,26.767 18.583,37.63 18.583,37.63L1.558,37.63C0.311,37.63 0,36.02 0,36.02" style="fill:rgb(0,169,157);fill-rule:nonzero;"/>
            </g>
            <g opacity="0.4">
                <g transform="matrix(1,0,0,1,83.3105,164.13)">
                    <path d="M0,36.02C0,36.02 -1.043,31.453 -3.365,25.326C-5.686,19.198 -7.355,-1.61 10.38,-1.61C28.116,-1.61 28.338,14.352 25.456,20.559C22.574,26.767 18.583,37.63 18.583,37.63L1.558,37.63C0.311,37.63 0,36.02 0,36.02" style="fill-rule:nonzero;"/>
                </g>
            </g>
            <g transform="matrix(1,0,0,1,88.8018,196.354)">
                <path d="M0,-33.208C-2.979,-32.003 -5.372,-29.853 -6.879,-27.261C-7.623,-25.955 -8.181,-24.55 -8.514,-23.077C-8.907,-21.611 -9.016,-20.111 -9.119,-18.531C-9.34,-15.411 -9.3,-12.293 -8.793,-9.235C-8.529,-7.707 -8.158,-6.188 -7.699,-4.667C-7.263,-3.141 -6.764,-1.593 -6.522,0C-7.17,-1.472 -7.898,-2.875 -8.588,-4.332C-9.265,-5.791 -9.872,-7.318 -10.283,-8.909C-11.145,-12.09 -11.292,-15.419 -11.102,-18.654C-11.022,-20.256 -10.826,-21.95 -10.369,-23.566C-9.898,-25.179 -9.207,-26.751 -8.22,-28.127C-6.28,-30.893 -3.218,-32.849 0,-33.208" style="fill:rgb(0,66,58);fill-rule:nonzero;"/>
            </g>
            <g transform="matrix(0.620401,0.784285,0.784285,-0.620401,96.5405,194.93)">
                <path d="M5.724,-3.774C5.724,-3.774 1.859,4.32 3.273,6.107L5.724,9.205C6.478,10.159 14.112,6.83 14.112,6.83L5.724,-3.774Z" style="fill:rgb(204,204,204);fill-rule:nonzero;"/>
            </g>
            <g transform="matrix(0.620401,0.784285,0.784285,-0.620401,91.8213,194.93)">
                <path d="M5.724,-3.774C5.724,-3.774 1.859,4.32 3.273,6.107L5.724,9.205C6.478,10.158 14.112,6.83 14.112,6.83L5.724,-3.774Z" style="fill:white;fill-rule:nonzero;"/>
            </g>
            <g transform="matrix(1,0,0,1,107.999,193.649)">
                <path d="M0,-24.32C1.229,-22.559 1.76,-20.392 2.023,-18.265C2.278,-16.117 2.099,-13.944 1.734,-11.829C1.377,-9.704 0.705,-7.656 -0.073,-5.667C-0.507,-4.691 -0.954,-3.721 -1.408,-2.759C-1.945,-1.836 -2.451,-0.901 -3.012,0C-2.652,-1.005 -2.238,-1.976 -1.855,-2.96L-0.795,-5.933C-0.202,-7.945 0.427,-9.944 0.75,-12.004C1.128,-14.05 1.326,-16.13 1.26,-18.209C1.206,-19.245 1.122,-20.288 0.902,-21.308C0.729,-22.34 0.436,-23.351 0,-24.32" style="fill:rgb(0,66,58);fill-rule:nonzero;"/>
            </g>
        </g>
    </g>
</svg>
