<?xml version="1.0" encoding="UTF-8" standalone="no"?>
<!DOCTYPE svg PUBLIC "-//W3C//DTD SVG 1.1//EN" "http://www.w3.org/Graphics/SVG/1.1/DTD/svg11.dtd">
<svg width="100%" height="100%" viewBox="0 0 92 65" version="1.1" xmlns="http://www.w3.org/2000/svg" xmlns:xlink="http://www.w3.org/1999/xlink" xml:space="preserve" xmlns:serif="http://www.serif.com/" style="fill-rule:evenodd;clip-rule:evenodd;stroke-linejoin:round;stroke-miterlimit:2;">
    <g transform="matrix(1,0,0,1,-242,-30)">
        <g id="Carnivore-Head" serif:id="Carnivore Head">
            <g transform="matrix(1,0,0,1,310.217,77.5877)">
                <path d="M0,-29.622C-9.116,-30.487 -14.377,-37.569 -23.065,-41.277C-31.753,-44.985 -41.607,-49.33 -53.792,-44.138C-65.977,-38.946 -67.884,-28.245 -67.672,-19.45C-67.46,-10.656 -60.149,0.681 -50.508,6.509C-40.866,12.336 -32.071,10.853 -20.417,14.561C-8.761,18.27 5.542,19.708 9.357,7.44C13.171,-4.829 9.116,-28.756 0,-29.622" style="fill:rgb(0,169,157);fill-rule:nonzero;"/>
            </g>
            <g transform="matrix(1,0,0,1,298.118,82.716)">
                <path d="M0,-34.803C0,-34.803 16.847,-40.525 26.701,-32.419C36.555,-24.314 34.792,-11.917 32.582,-6.196C30.292,-0.271 23.413,5.722 10.808,0.003C-6.357,-7.785 -11.92,-21.612 -29.72,-21.612C-47.521,-21.612 -48.951,-8.261 -41.481,-0.95" style="fill:rgb(0,169,157);fill-rule:nonzero;"/>
            </g>
            <g opacity="0.5">
                <g transform="matrix(1,0,0,1,243.194,29.9453)">
                    <path d="M0,19.727C0,19.727 1.076,10.656 9.486,5.463C15.044,2.032 22.488,0 30.91,1.791C30.91,1.791 9.184,0.262 0,19.727" style="fill:white;fill-rule:nonzero;"/>
                </g>
            </g>
            <g transform="matrix(1,0,0,1,285.801,77.0775)">
                <path d="M0,-9.894L0.556,0L6.599,-4.947L0,-9.894Z" style="fill:white;fill-rule:nonzero;"/>
            </g>
            <g transform="matrix(1,0,0,1,292.834,81.2888)">
                <path d="M0,-8.662L0.204,0L6.198,-3.974L0,-8.662Z" style="fill:white;fill-rule:nonzero;"/>
            </g>
            <g transform="matrix(1,0,0,1,299.511,86.2549)">
                <path d="M0,-8.423L1.071,0L7.309,-4.212L0,-8.423Z" style="fill:white;fill-rule:nonzero;"/>
            </g>
            <g transform="matrix(1,0,0,1,307.213,89.4344)">
                <path d="M0,-6.914L1.47,0L6.794,-4.61L0,-6.914Z" style="fill:white;fill-rule:nonzero;"/>
            </g>
            <g transform="matrix(1,0,0,1,267.286,35.5575)">
                <path d="M0,2.978C0,2.978 5.408,-3.971 14.152,-4.393C21.933,-4.768 21.138,2.501 25.111,7.746" style="fill:rgb(0,169,157);fill-rule:nonzero;"/>
            </g>
            <g opacity="0.5">
                <g transform="matrix(-0.109607,0.993975,0.993975,0.109607,278.418,23.9424)">
                    <path d="M14.294,-8.42C14.294,-8.42 6.831,-2.708 6.719,5.746C6.719,5.746 6.553,9.811 14.294,13.549C14.294,13.549 9.399,9.823 9.712,4.44C10.055,-1.453 14.294,-8.42 14.294,-8.42" style="fill:white;fill-rule:nonzero;"/>
                </g>
            </g>
            <g opacity="0.5">
                <g transform="matrix(-0.36653,0.930406,0.930406,0.36653,325.762,39.1833)">
                    <path d="M17.359,-21.376C17.359,-21.376 10.507,-12.208 9.912,-3.484C9.316,5.238 14.657,10.666 17.359,12.924C17.359,12.924 11.126,4.048 11.922,-4.237C12.719,-12.523 17.359,-21.376 17.359,-21.376" style="fill:white;fill-rule:nonzero;"/>
                </g>
            </g>
            <g opacity="0.3">
                <g transform="matrix(0.648999,0.76079,0.76079,-0.648999,316.878,58.2597)">
                    <path d="M1.994,-0.92C-0.02,-0.92 -1.652,0.253 -1.652,1.702C-1.652,3.149 -0.02,4.322 1.994,4.322C4.007,4.322 5.639,3.149 5.64,1.701C5.64,0.254 4.008,-0.919 1.994,-0.92" style="fill-rule:nonzero;"/>
                </g>
            </g>
            <g transform="matrix(0.649142,0.760667,0.760667,-0.649142,317.222,57.6952)">
                <path d="M1.691,-0.78C-0.107,-0.78 -1.563,0.216 -1.563,1.444C-1.563,2.672 -0.106,3.667 1.691,3.667C3.489,3.667 4.946,2.671 4.945,1.443C4.946,0.215 3.489,-0.78 1.691,-0.78" style="fill:rgb(0,66,58);fill-rule:nonzero;"/>
            </g>
            <g opacity="0.3">
                <g transform="matrix(1,0,0,1,278.642,86.022)">
                    <path d="M0,-23.922C0,-23.922 8.89,-23.922 22.713,-12.996C27.465,-9.24 35.844,-6.019 42.361,-7.199C48.879,-8.38 52.816,-12.186 53.701,-17.021C53.701,-17.021 52.547,0 39.677,-0.995C26.808,-1.99 13.758,-13.892 13.758,-13.892L0,-23.922Z" style="fill-rule:nonzero;"/>
                </g>
            </g>
            <g transform="matrix(1,0,0,1,267.286,34.9415)">
                <path d="M0,3.594C1.522,1.155 3.715,-0.887 6.259,-2.369C8.807,-3.859 11.744,-4.766 14.797,-4.768C16.322,-4.759 18.025,-4.406 19.358,-3.374C20.675,-2.342 21.488,-0.94 22.039,0.414C23.154,3.141 23.728,5.831 25.111,8.362C23.042,6.327 21.918,3.49 20.633,1.093C19.962,-0.094 19.238,-1.192 18.244,-1.843C17.284,-2.526 16.064,-2.788 14.774,-2.77C14.142,-2.822 13.458,-2.707 12.795,-2.668C12.136,-2.556 11.468,-2.471 10.818,-2.299C9.494,-2.037 8.234,-1.519 6.976,-0.989C4.481,0.139 2.144,1.705 0,3.594" style="fill:rgb(0,66,58);fill-rule:nonzero;"/>
            </g>
            <g opacity="0.3">
                <g transform="matrix(1,0,0,1,277.519,69.4569)">
                    <path d="M0,16.52C7.344,17.862 14.165,20.23 21.514,21.477C28.862,22.722 32.724,21.28 33.838,19.977C34.953,18.674 32.396,17.541 27.974,15.571C23.552,13.6 10.361,2.787 7.213,0.098C4.066,-2.591 -5.698,-8.171 -5.698,-8.171L1.882,-6.249C7.896,-3.676 19.753,6.527 26.489,10.709C33.226,14.893 42.056,15.571 42.056,15.571C38.241,27.839 23.937,26.4 12.282,22.692C0.627,18.983 -8.167,20.467 -17.809,14.64C-27.451,8.812 -34.762,-2.525 -34.974,-11.319C-34.974,-11.319 -30.297,10.984 0,16.52" style="fill-rule:nonzero;"/>
                </g>
            </g>
            <g transform="matrix(1,0,0,1,298.118,83.896)">
                <path d="M0,-35.983C3.185,-37.082 6.514,-37.791 9.888,-38.106C13.259,-38.4 16.709,-38.304 20.052,-37.466C20.902,-37.316 21.69,-36.935 22.511,-36.67C23.327,-36.383 24.072,-35.921 24.856,-35.551C25.606,-35.115 26.301,-34.581 27.025,-34.096C27.678,-33.529 28.332,-32.961 28.959,-32.365C31.404,-29.9 33.21,-26.796 34.212,-23.455C35.155,-20.096 35.375,-16.553 34.896,-13.117C34.665,-11.398 34.3,-9.697 33.755,-8.037C33.221,-6.377 32.408,-4.723 31.317,-3.306C30.231,-1.878 28.864,-0.646 27.296,0.267C25.719,1.17 23.956,1.711 22.179,1.944C18.59,2.417 15.048,1.585 11.833,0.321C5.411,-2.277 -0.148,-6.416 -5.366,-10.673C-7.981,-12.798 -10.559,-14.936 -13.311,-16.769C-16.06,-18.595 -18.995,-20.105 -22.141,-21.011C-25.277,-21.915 -28.606,-22.275 -31.898,-22.055C-35.167,-21.864 -38.48,-21.143 -41.171,-19.323C-41.536,-19.134 -41.819,-18.846 -42.122,-18.582C-42.414,-18.306 -42.75,-18.068 -43.009,-17.761C-43.498,-17.124 -44.052,-16.523 -44.372,-15.773C-44.812,-15.082 -44.97,-14.275 -45.234,-13.505C-45.323,-12.697 -45.513,-11.889 -45.429,-11.065C-45.46,-10.237 -45.26,-9.432 -45.121,-8.616C-45.023,-8.214 -44.869,-7.827 -44.746,-7.431L-44.55,-6.839L-44.279,-6.277L-43.735,-5.15L-43.052,-4.098C-42.936,-3.923 -42.827,-3.743 -42.705,-3.573L-42.298,-3.093L-41.481,-2.13C-43.889,-4.439 -45.777,-7.563 -45.958,-11.04C-46.082,-11.901 -45.927,-12.762 -45.865,-13.629C-45.626,-14.462 -45.485,-15.338 -45.05,-16.106C-44.733,-16.933 -44.173,-17.613 -43.663,-18.331C-43.395,-18.678 -43.048,-18.952 -42.742,-19.267C-42.425,-19.57 -42.123,-19.897 -41.745,-20.118C-38.885,-22.187 -35.388,-23.018 -31.988,-23.315C-28.568,-23.636 -25.086,-23.361 -21.734,-22.495C-18.375,-21.642 -15.215,-20.102 -12.358,-18.212C-9.486,-16.334 -6.852,-14.186 -4.224,-12.091C-1.602,-9.989 1.045,-7.96 3.831,-6.156C5.206,-5.225 6.66,-4.434 8.096,-3.615C9.581,-2.902 11.048,-2.097 12.57,-1.536C15.575,-0.318 18.81,0.444 21.942,0.052C23.497,-0.139 25.013,-0.589 26.374,-1.35C27.725,-2.122 28.916,-3.173 29.878,-4.414C31.826,-6.879 32.695,-10.135 33.186,-13.35C33.644,-16.582 33.518,-19.892 32.736,-23.046C31.084,-29.285 26.212,-34.835 19.791,-36.527C16.63,-37.472 13.261,-37.724 9.924,-37.58C8.255,-37.487 6.583,-37.325 4.929,-37.043C3.271,-36.783 1.62,-36.445 0,-35.983" style="fill:rgb(0,66,58);fill-rule:nonzero;"/>
            </g>
            <g opacity="0.3">
                <g transform="matrix(-0.999032,0.0439855,0.0439855,0.999032,278.934,55.3833)">
                    <path d="M-1.084,-17.215C4.119,-17.444 7.652,-13.627 7.852,-9.094C8.052,-4.562 4.66,-0.212 -1.084,0.041C-6.828,0.293 -8.377,-4.066 -8.51,-7.068C-8.642,-10.071 -7.153,-16.948 -1.084,-17.215" style="fill-rule:nonzero;"/>
                </g>
            </g>
            <g transform="matrix(-0.998942,0.0459912,0.0459912,0.998942,278.953,53.4349)">
                <path d="M-1.021,-15.507C3.878,-15.732 7.207,-12.306 7.395,-8.223C7.583,-4.14 4.388,-0.209 -1.021,0.04C-6.43,0.289 -7.89,-3.632 -8.014,-6.337C-8.139,-9.042 -6.737,-15.243 -1.021,-15.507" style="fill:white;fill-rule:nonzero;"/>
            </g>
            <g transform="matrix(0,-1,-1,0,282.147,46.6736)">
                <path d="M-1.15,-1.149C-2.032,-1.149 -2.748,-0.634 -2.748,0C-2.748,0.635 -2.032,1.15 -1.15,1.15C-0.267,1.15 0.449,0.635 0.449,0C0.449,-0.634 -0.267,-1.149 -1.15,-1.149" style="fill-rule:nonzero;"/>
            </g>
            <g transform="matrix(1,0,0,1,242.545,89.8826)">
                <path d="M0,-31.745C0.906,-27.382 2.601,-23.273 4.831,-19.543C7.09,-15.83 9.944,-12.507 13.335,-9.828C16.704,-7.123 20.554,-5.026 24.634,-3.468C28.716,-1.896 33.013,-0.829 37.4,-0.013C32.936,0 28.442,-0.649 24.122,-1.994C21.944,-2.617 19.862,-3.548 17.822,-4.551C15.797,-5.596 13.892,-6.87 12.086,-8.268C8.522,-11.132 5.55,-14.74 3.474,-18.786C1.405,-22.819 0.083,-27.266 0,-31.745" style="fill:rgb(0,66,58);fill-rule:nonzero;"/>
            </g>
        </g>
    </g>
</svg>
