<?xml version="1.0" encoding="UTF-8" standalone="no"?>
<!DOCTYPE svg PUBLIC "-//W3C//DTD SVG 1.1//EN" "http://www.w3.org/Graphics/SVG/1.1/DTD/svg11.dtd">
<svg width="100%" height="100%" viewBox="0 0 89 57" version="1.1" xmlns="http://www.w3.org/2000/svg" xmlns:xlink="http://www.w3.org/1999/xlink" xml:space="preserve" xmlns:serif="http://www.serif.com/" style="fill-rule:evenodd;clip-rule:evenodd;stroke-linejoin:round;stroke-miterlimit:2;">
    <g transform="matrix(1,0,0,1,-246,-124)">
        <g id="Herbivore-Head" serif:id="Herbivore Head">
            <g transform="matrix(1,0,0,1,328.392,130.547)">
                <path d="M0,43.283C0,43.283 1.056,49.226 -6.394,49.469C-14.398,49.728 -13.687,45.46 -29.369,42.971C-48.121,39.994 -46.749,46.402 -64.975,40.736C-79.686,36.162 -82.123,27.273 -81.499,16.565C-80.821,4.942 -70.964,-6.445 -56.132,-6.445C-41.301,-6.445 -34.001,-0.555 -28.964,6.031C-22.975,13.862 -19.118,17.068 -11.956,22.142C-5.73,26.553 8.837,34.912 4.807,42.548C3.82,44.419 0,43.283 0,43.283" style="fill:rgb(0,169,157);fill-rule:nonzero;"/>
            </g>
            <g opacity="0.5">
                <g transform="matrix(0.00469746,-0.999989,-0.999989,-0.00469746,281.193,105.783)">
                    <path d="M-30.709,-18.379C-24.147,-13.311 -18.293,-5.985 -18.362,8.847C-18.409,18.911 -23.688,26.659 -30.709,30.797C-30.709,30.797 -20.567,22.315 -20.189,8.386C-19.763,-7.346 -30.709,-18.379 -30.709,-18.379" style="fill:white;fill-rule:nonzero;"/>
                </g>
            </g>
            <g opacity="0.3">
                <g transform="matrix(1,0,0,1,263.182,160.773)">
                    <path d="M0,5.843C7.526,8.452 16.079,8.061 29.109,7.922C42.138,7.783 52.465,14.575 56.624,15.13C60.782,15.684 61.01,12.571 61.01,12.571L65.209,13.058C65.209,13.058 66.265,19.001 58.816,19.243C50.811,19.503 51.522,15.235 35.841,12.746C17.088,9.769 18.46,16.176 0.235,10.51C-14.477,5.937 -16.913,-2.952 -16.289,-13.66C-16.289,-13.66 -13.792,1.061 0,5.843" style="fill-rule:nonzero;"/>
                </g>
            </g>
            <g opacity="0.3">
                <g transform="matrix(0.649036,0.760758,0.760758,-0.649036,320.47,164.284)">
                    <path d="M2.108,-0.972C-0.02,-0.972 -1.745,0.268 -1.745,1.798C-1.745,3.328 -0.02,4.568 2.108,4.568C4.235,4.568 5.96,3.328 5.96,1.798C5.96,0.268 4.235,-0.972 2.108,-0.972" style="fill-rule:nonzero;"/>
                </g>
            </g>
            <g transform="matrix(0.649055,0.760741,0.760741,-0.649055,320.884,163.81)">
                <path d="M1.788,-0.825C-0.111,-0.824 -1.652,0.227 -1.652,1.526C-1.651,2.823 -0.112,3.876 1.788,3.876C3.688,3.875 5.228,2.823 5.227,1.526C5.227,0.227 3.687,-0.825 1.788,-0.825" style="fill:rgb(0,66,58);fill-rule:nonzero;"/>
            </g>
            <g transform="matrix(1,0,0,1,259.318,159.685)">
                <path d="M0,10.101C-1.556,8.577 -2.75,6.527 -2.877,4.23C-2.938,3.093 -2.703,1.932 -2.213,0.884C-1.727,-0.169 -0.967,-1.077 -0.101,-1.833C1.664,-3.334 3.837,-4.196 6.019,-4.739C8.216,-5.263 10.465,-5.469 12.698,-5.478C14.94,-5.506 17.146,-5.285 19.351,-5.047C21.553,-4.753 23.766,-4.401 25.925,-3.792C30.282,-2.645 34.29,-0.616 38.204,1.315C45.988,5.302 53.95,8.807 62.138,11.871L65.211,13.004C66.245,13.368 67.257,13.806 68.246,14.046C69.247,14.295 70.287,14.406 71.269,14.264C72.246,14.123 73.145,13.675 73.646,12.883C74.175,12.095 74.213,11.034 74.144,9.974C74.079,8.923 73.793,7.899 73.287,6.962C72.789,6.02 72.115,5.161 71.408,4.332C70.707,3.497 69.964,2.689 69.22,1.885C70.827,3.366 72.529,4.788 73.739,6.703C74.342,7.654 74.737,8.767 74.881,9.895C75.022,10.984 75.106,12.247 74.474,13.373C73.863,14.511 72.627,15.159 71.467,15.378C70.284,15.607 69.1,15.527 67.968,15.306C66.811,15.083 65.789,14.682 64.747,14.353L61.617,13.324C53.282,10.556 45.14,7.067 37.313,3.102C33.397,1.143 29.54,-0.832 25.413,-1.962C21.32,-3.158 16.96,-3.692 12.681,-3.904C10.536,-3.979 8.391,-3.84 6.304,-3.445C4.229,-3.04 2.182,-2.331 0.526,-1.062C-1.154,0.154 -2.319,2.092 -2.341,4.221C-2.358,6.34 -1.398,8.428 0,10.101" style="fill:rgb(0,66,58);fill-rule:nonzero;"/>
            </g>
            <g opacity="0.3">
                <g transform="matrix(-0.99903,0.0440321,0.0440321,0.99903,279.634,150.093)">
                    <path d="M-1.146,-18.194C4.352,-18.436 8.088,-14.402 8.299,-9.611C8.51,-4.821 4.925,-0.225 -1.146,0.043C-7.216,0.31 -8.854,-4.296 -8.994,-7.47C-9.134,-10.643 -7.561,-17.911 -1.146,-18.194" style="fill-rule:nonzero;"/>
                </g>
            </g>
            <g transform="matrix(-0.998941,0.0460123,0.0460123,0.998941,279.654,148.034)">
                <path d="M-1.079,-16.388C4.098,-16.627 7.617,-13.006 7.815,-8.69C8.014,-4.376 4.638,-0.221 -1.079,0.042C-6.796,0.306 -8.338,-3.839 -8.47,-6.698C-8.602,-9.556 -7.12,-16.11 -1.079,-16.388" style="fill:white;fill-rule:nonzero;"/>
            </g>
            <g transform="matrix(0,-1,-1,0,283.029,140.888)">
                <path d="M-1.215,-1.215C-2.148,-1.215 -2.904,-0.671 -2.904,0C-2.904,0.671 -2.148,1.215 -1.215,1.215C-0.282,1.215 0.474,0.671 0.474,0C0.474,-0.671 -0.282,-1.215 -1.215,-1.215" style="fill-rule:nonzero;"/>
            </g>
            <g transform="matrix(1,0,0,1,248.111,174.3)">
                <path d="M0,-33.324C-0.86,-28.47 -1.012,-23.482 0.087,-18.822C0.673,-16.515 1.497,-14.267 2.831,-12.34C4.169,-10.419 5.826,-8.797 7.809,-7.439C9.765,-6.088 11.882,-4.971 14.113,-4.097C16.351,-3.235 18.691,-2.641 21.07,-2.182C25.843,-1.28 30.772,-1.255 35.724,-1.245C30.854,-0.428 25.839,0 20.837,-0.639C18.337,-0.928 15.866,-1.513 13.456,-2.322C11.065,-3.193 8.785,-4.373 6.663,-5.801C4.589,-7.262 2.664,-9.132 1.248,-11.311C-0.141,-13.52 -0.997,-16.002 -1.436,-18.507C-2.308,-23.537 -1.661,-28.666 0,-33.324" style="fill:rgb(0,66,58);fill-rule:nonzero;"/>
            </g>
        </g>
    </g>
</svg>
