<?xml version="1.0" encoding="UTF-8" standalone="no"?>
<!DOCTYPE svg PUBLIC "-//W3C//DTD SVG 1.1//EN" "http://www.w3.org/Graphics/SVG/1.1/DTD/svg11.dtd">
<svg width="100%" height="100%" viewBox="0 0 127 132" version="1.1" xmlns="http://www.w3.org/2000/svg" xmlns:xlink="http://www.w3.org/1999/xlink" xml:space="preserve" xmlns:serif="http://www.serif.com/" style="fill-rule:evenodd;clip-rule:evenodd;stroke-linejoin:round;stroke-miterlimit:2;">
    <g transform="matrix(1,0,0,1,-26,-54)">
        <g id="Large-Biped-Body" serif:id="Large Biped Body">
            <g transform="matrix(1,0,0,1,26.7485,109.86)">
                <path d="M0,19.849C0,19.849 -1.118,74.829 68.716,74.829C138.55,74.829 126.135,-10.653 123.253,-40.406L79.027,-54.98C79.027,-54.98 84.013,-22.274 56.301,5.661C38.858,23.244 23.73,26.5 0,19.849" style="fill:rgb(0,169,157);fill-rule:nonzero;"/>
            </g>
            <g opacity="0.3">
                <g transform="matrix(1,0,0,1,26.7485,118.897)">
                    <path d="M0,10.812C0,10.812 11.498,53.987 63.69,53.987C115.881,53.987 117.158,-7.799 117.019,-19.471C116.879,-31.144 117.227,-36.298 113.478,-38.127C109.729,-39.956 80.792,-48.553 79.027,-64.017L123.253,-49.443C123.253,-49.443 134.395,14.535 112.893,45.051C91.911,74.829 46.454,66.9 29.34,57.627C-1.541,40.893 0,10.812 0,10.812" style="fill-rule:nonzero;"/>
                </g>
            </g>
            <g transform="matrix(1,0,0,1,42.0938,151.114)">
                <path d="M0,-18.423C0,-18.423 9.254,-9.433 7.702,1.208C7.702,1.208 16.141,-6.108 16.023,-19.631C16.023,-19.631 9.188,-17.467 0,-18.423" style="fill:rgb(0,109,98);fill-rule:nonzero;"/>
            </g>
            <g transform="matrix(0.679073,-0.734071,-0.734071,-0.679073,118.957,112.829)">
                <path d="M-15.584,-6.272C-15.584,-6.272 -13.514,11.952 -26.36,24.531C-26.36,24.531 -21.245,24.293 -15.584,24.839C-11.194,25.262 -5.775,26.381 -5.775,26.381C-5.775,26.381 -2.141,11.298 -15.584,-6.272" style="fill:rgb(0,109,98);fill-rule:nonzero;"/>
            </g>
            <g transform="matrix(0.973349,0.229329,0.229329,-0.973349,100.361,82.9767)">
                <path d="M2.015,-3.123C2.015,-3.123 14.316,5.856 30.775,0.771C30.775,0.771 23.824,12.397 2.015,14.367C2.015,14.367 2.465,9.744 2.506,5.924C2.554,1.542 2.015,-3.123 2.015,-3.123" style="fill:rgb(0,109,98);fill-rule:nonzero;"/>
            </g>
            <g opacity="0.5">
                <g transform="matrix(-0.625988,-0.779833,-0.779833,0.625988,15.8597,105.577)">
                    <path d="M-25.635,-94.929C-34.436,-86.736 -46.999,-70.989 -49.815,-46.173C-52.607,-21.563 -45.677,-7.728 -25.635,6.615C-25.635,6.615 -56.833,-1.788 -53.448,-43.256C-49.983,-85.673 -25.635,-94.929 -25.635,-94.929" style="fill:white;fill-rule:nonzero;"/>
                </g>
            </g>
            <g transform="matrix(1,0,0,1,151.324,113.42)">
                <path d="M0,-39.541C0.615,-32.949 1.038,-26.372 1.307,-19.776C1.565,-13.185 1.648,-6.583 1.372,0C1.314,-6.588 0.899,-13.16 0.309,-19.711C-0.291,-26.259 -1.046,-32.805 -1.985,-39.293L0,-39.541Z" style="fill:rgb(0,66,58);fill-rule:nonzero;"/>
            </g>
            <g transform="matrix(1,0,0,1,42.4795,167.122)">
                <path d="M0,-0.567C3.854,3.036 8.265,5.967 12.911,8.374C17.546,10.811 22.448,12.685 27.461,14.118C37.548,16.777 48.107,17.578 58.47,16.357L62.347,15.877L63.316,15.758C63.637,15.703 63.953,15.627 64.271,15.562L66.178,15.16L68.085,14.757C68.721,14.621 69.363,14.509 69.975,14.293L73.694,13.151C78.584,11.453 83.261,9.123 87.399,6.002C91.532,2.879 95.044,-1.05 97.85,-5.452C98.55,-6.554 99.26,-7.654 99.869,-8.816C100.524,-9.951 101.104,-11.13 101.685,-12.309C102.829,-14.676 103.867,-17.105 105.032,-19.473C103.174,-14.547 101.356,-9.561 98.686,-4.941C96.03,-0.333 92.569,3.88 88.363,7.229C84.185,10.62 79.334,13.08 74.317,14.939L70.487,16.154C69.854,16.381 69.196,16.501 68.544,16.645L66.585,17.071L64.625,17.496C64.298,17.564 63.973,17.644 63.645,17.702L62.653,17.831L58.684,18.345C58.021,18.418 57.362,18.527 56.697,18.57L54.7,18.662L50.707,18.846C49.376,18.906 48.042,18.793 46.709,18.775L44.71,18.713C44.044,18.702 43.378,18.672 42.717,18.579C40.067,18.267 37.406,18.058 34.797,17.479C33.493,17.205 32.164,17.049 30.886,16.657L27.028,15.611C21.942,14.018 17.025,11.905 12.438,9.226C7.894,6.501 3.542,3.363 0,-0.567" style="fill:rgb(0,66,58);fill-rule:nonzero;"/>
            </g>
        </g>
    </g>
</svg>
