<?xml version="1.0" encoding="UTF-8" standalone="no"?>
<!DOCTYPE svg PUBLIC "-//W3C//DTD SVG 1.1//EN" "http://www.w3.org/Graphics/SVG/1.1/DTD/svg11.dtd">
<svg width="100%" height="100%" viewBox="0 0 94 65" version="1.1" xmlns="http://www.w3.org/2000/svg" xmlns:xlink="http://www.w3.org/1999/xlink" xml:space="preserve" xmlns:serif="http://www.serif.com/" style="fill-rule:evenodd;clip-rule:evenodd;stroke-linejoin:round;stroke-miterlimit:2;">
    <g transform="matrix(1,0,0,1,-100,-14)">
        <g id="Omnivore-Head" serif:id="Omnivore Head">
            <g transform="matrix(1,0,0,1,180.346,29.8821)">
                <path d="M0,36.756C0,36.756 2.556,42.798 -2.503,46.311C-10.285,51.715 -20.274,46.451 -27.3,45.327C-34.327,44.203 -43.256,45.889 -59.136,39.987C-75.016,34.085 -79.091,21.982 -78.529,8.369C-78.042,-3.426 -67.849,-14.959 -52.812,-14.959C-37.775,-14.959 -31.874,-7.511 -25.269,-2.311C-18.664,2.888 -7.703,9.071 -7.703,9.071C-7.703,9.071 3.627,12.867 0,36.756" style="fill:rgb(0,169,157);fill-rule:nonzero;"/>
            </g>
            <g opacity="0.5">
                <g transform="matrix(-0.0402208,-0.999191,-0.999191,0.0402208,133.763,-3.49103)">
                    <path d="M-31.894,-20.048C-26.432,-13.657 -18.754,-8.06 -18.149,6.964C-17.696,18.233 -23.833,27.04 -31.894,31.145C-31.894,31.145 -19.36,23.208 -19.98,7.807C-20.6,-7.593 -31.894,-20.048 -31.894,-20.048" style="fill:white;fill-rule:nonzero;"/>
                </g>
            </g>
            <g transform="matrix(1,0,0,1,159.434,63.6211)">
                <path d="M0,-23.403C0,-23.403 10.433,-28.527 20.938,-26.635C27.965,-25.37 31.759,-21.154 32.883,-15.815C34.007,-10.475 33.445,-1.059 24.592,2.033C15.739,5.124 5.902,3.054 -2.53,-0.497C-8.593,-3.051 -14.755,-7.664 -19.674,-10.475C-24.592,-13.285 -29.511,-15.533 -35.272,-14.831C-41.329,-14.092 -49.341,-8.226 -44.704,3.016" style="fill:rgb(0,169,157);fill-rule:nonzero;"/>
            </g>
            <g opacity="0.5">
                <g transform="matrix(-0.242642,0.970116,0.970116,0.242642,181.976,27.2812)">
                    <path d="M16.764,-17.075C16.764,-17.075 11.611,-11.062 9.803,0.799C9.803,0.799 9.805,9.637 16.764,13.946C16.764,13.946 11.713,9.503 11.755,1.105C11.781,-4.211 12.424,-7.716 16.764,-17.075" style="fill:white;fill-rule:nonzero;"/>
                </g>
            </g>
            <g opacity="0.3">
                <g transform="matrix(0.649089,0.760712,0.760712,-0.649089,178.945,46.7847)">
                    <path d="M2.137,-0.986C-0.021,-0.985 -1.77,0.272 -1.769,1.823C-1.769,3.374 -0.021,4.632 2.137,4.632C4.294,4.631 6.043,3.374 6.042,1.822C6.042,0.272 4.294,-0.986 2.137,-0.986" style="fill-rule:nonzero;"/>
                </g>
            </g>
            <g transform="matrix(0.649079,0.760721,0.760721,-0.649079,179.366,46.3041)">
                <path d="M1.813,-0.836C-0.113,-0.836 -1.674,0.231 -1.674,1.547C-1.674,2.862 -0.113,3.929 1.813,3.929C3.738,3.929 5.3,2.862 5.3,1.546C5.3,0.231 3.738,-0.836 1.813,-0.836" style="fill:rgb(0,66,58);fill-rule:nonzero;"/>
            </g>
            <g opacity="0.3">
                <g transform="matrix(-0.99903,0.044042,0.044042,0.99903,135.011,41.6309)">
                    <path d="M-1.154,-18.326C4.384,-18.57 8.147,-14.505 8.359,-9.681C8.572,-4.857 4.961,-0.226 -1.154,0.043C-7.268,0.313 -8.918,-4.327 -9.059,-7.524C-9.2,-10.72 -7.614,-18.041 -1.154,-18.326" style="fill-rule:nonzero;"/>
                </g>
            </g>
            <g transform="matrix(-0.998942,0.0459832,0.0459832,0.998942,135.03,39.5575)">
                <path d="M-1.087,-16.507C4.129,-16.747 7.671,-13.099 7.871,-8.754C8.071,-4.407 4.671,-0.223 -1.087,0.043C-6.846,0.308 -8.398,-3.867 -8.531,-6.746C-8.663,-9.625 -7.171,-16.227 -1.087,-16.507" style="fill:white;fill-rule:nonzero;"/>
            </g>
            <g transform="matrix(0,-1,-1,0,138.429,32.3604)">
                <path d="M-1.223,-1.224C-2.163,-1.224 -2.925,-0.676 -2.925,-0C-2.925,0.675 -2.163,1.223 -1.223,1.223C-0.284,1.223 0.478,0.675 0.478,-0C0.478,-0.676 -0.284,-1.224 -1.223,-1.224" style="fill-rule:nonzero;"/>
            </g>
            <g opacity="0.3">
                <g transform="matrix(1,0,0,1,128.636,67.0317)">
                    <path d="M0,-18.212C0,-18.212 10.3,-18.874 26.083,-9.767C35.342,-4.424 42.537,-3.802 49.598,-4.119C56.66,-4.435 60.458,-8.405 63.723,-15.168C63.723,-15.168 63.728,0.662 46.545,0.116C29.362,-0.43 20.193,-7.385 16.731,-10.166C9.794,-15.737 0,-18.212 0,-18.212" style="fill-rule:nonzero;"/>
                </g>
            </g>
            <g opacity="0.3">
                <g transform="matrix(1,0,0,1,149.999,49.2695)">
                    <path d="M0,21.309C7.821,21.309 15.515,25.06 21.258,24.298C26.957,23.54 25.815,17.303 25.815,17.303L30.347,17.369C30.347,17.369 32.903,23.411 27.844,26.924C20.062,32.328 10.073,27.064 3.047,25.94C-3.979,24.816 -12.909,26.502 -28.789,20.6C-44.668,14.698 -48.744,2.595 -48.182,-11.019C-48.182,-11.019 -48.324,21.309 0,21.309" style="fill-rule:nonzero;"/>
                </g>
            </g>
            <g transform="matrix(1,0,0,1,159.434,64.0981)">
                <path d="M0,-23.88C2.771,-25.252 5.716,-26.295 8.747,-26.984C11.773,-27.696 14.901,-28.062 18.042,-27.919C21.162,-27.773 24.373,-27.151 27.174,-25.504C29.983,-23.899 32.188,-21.181 33.187,-18.08C33.708,-16.531 33.983,-14.94 34.094,-13.34C34.206,-11.74 34.143,-10.121 33.864,-8.524C33.339,-5.348 31.839,-2.156 29.254,0.004C27.98,1.086 26.498,1.895 24.951,2.447C23.427,2.945 21.883,3.397 20.299,3.629C17.144,4.182 13.927,4.126 10.782,3.776C7.641,3.362 4.558,2.623 1.582,1.614C0.088,1.122 -1.373,0.546 -2.821,-0.053C-4.282,-0.67 -5.694,-1.379 -7.065,-2.14C-12.565,-5.165 -17.475,-8.973 -22.864,-11.802C-25.551,-13.208 -28.383,-14.334 -31.35,-14.701C-32.826,-14.883 -34.343,-14.871 -35.807,-14.667C-37.267,-14.438 -38.689,-13.926 -40.001,-13.222C-42.635,-11.83 -44.758,-9.396 -45.522,-6.457C-46.298,-3.516 -45.781,-0.338 -44.704,2.539C-45.962,-0.258 -46.7,-3.455 -46.016,-6.576C-45.362,-9.693 -43.216,-12.417 -40.467,-14.033C-39.099,-14.862 -37.584,-15.45 -36,-15.758C-34.412,-16.035 -32.815,-16.107 -31.217,-15.969C-28.013,-15.707 -24.979,-14.55 -22.167,-13.181C-19.348,-11.806 -16.674,-10.167 -14.068,-8.512C-11.454,-6.865 -8.853,-5.228 -6.167,-3.794C-4.822,-3.08 -3.464,-2.411 -2.076,-1.83C-0.667,-1.256 0.752,-0.705 2.197,-0.238C5.078,0.724 8.04,1.406 11.027,1.793C14.012,2.141 17.042,2.209 19.984,1.707C21.464,1.501 22.899,1.084 24.312,0.634C25.673,0.148 26.956,-0.523 28.054,-1.429C30.274,-3.228 31.635,-5.947 32.162,-8.83C32.676,-11.708 32.581,-14.809 31.735,-17.607C30.903,-20.422 29.014,-22.849 26.515,-24.418C24.013,-26.019 20.996,-26.71 17.979,-26.983C14.952,-27.262 11.868,-27.051 8.851,-26.486C7.338,-26.217 5.842,-25.849 4.365,-25.413C2.887,-24.981 1.419,-24.493 0,-23.88" style="fill:rgb(0,66,58);fill-rule:nonzero;"/>
            </g>
            <g transform="matrix(1,0,0,1,153.045,20.7714)">
                <path d="M0,54.438C-3.853,54.125 -7.703,54.412 -11.593,54.22C-15.48,54.086 -19.373,53.554 -23.182,52.69C-25.087,52.254 -26.975,51.745 -28.837,51.157C-29.769,50.866 -30.684,50.527 -31.608,50.213C-32.526,49.906 -33.49,49.51 -34.382,49.069C-37.998,47.296 -41.108,44.696 -43.736,41.737C-46.368,38.771 -48.494,35.373 -50.031,31.725C-51.576,28.084 -52.475,24.147 -52.53,20.181C-52.582,16.222 -51.703,12.23 -49.866,8.748C-48.045,5.256 -45.368,2.291 -42.262,0C-45.123,2.584 -47.585,5.626 -49.104,9.116C-50.642,12.585 -51.312,16.385 -51.109,20.139C-50.708,27.675 -47.255,34.851 -42.283,40.443C-39.78,43.237 -36.812,45.625 -33.507,47.298C-32.672,47.718 -31.848,48.062 -30.94,48.378C-30.04,48.693 -29.147,49.036 -28.24,49.329C-26.428,49.925 -24.61,50.503 -22.764,50.979C-19.073,51.941 -15.318,52.643 -11.504,53.064C-9.597,53.272 -7.679,53.453 -5.753,53.632C-3.829,53.812 -1.888,54 0,54.438" style="fill:rgb(0,66,58);fill-rule:nonzero;"/>
            </g>
        </g>
    </g>
</svg>
