<?xml version="1.0" encoding="UTF-8" standalone="no"?>
<!DOCTYPE svg PUBLIC "-//W3C//DTD SVG 1.1//EN" "http://www.w3.org/Graphics/SVG/1.1/DTD/svg11.dtd">
<svg width="100%" height="100%" viewBox="0 0 101 101" version="1.1" xmlns="http://www.w3.org/2000/svg" xmlns:xlink="http://www.w3.org/1999/xlink" xml:space="preserve" xmlns:serif="http://www.serif.com/" style="fill-rule:evenodd;clip-rule:evenodd;stroke-linecap:round;stroke-linejoin:round;">
    <g transform="matrix(1,0,0,1,-572,-647.659)">
        <g id="atrocious" transform="matrix(1,0,0,1,-0.00666357,126.659)">
            <rect x="572.007" y="521" width="100.045" height="100.045" style="fill:none;"/>
            <g transform="matrix(1,0,0,1,383.584,0)">
                <circle cx="238.445" cy="571.023" r="50.023" style="fill:white;"/>
            </g>
            <g transform="matrix(0.271861,0,0,0.271861,572.007,521)">
                <path d="M184,224C154.176,224 125.76,236.632 106.04,258.664C103.096,261.96 103.376,267.016 106.664,269.96C109.96,272.912 115.008,272.624 117.96,269.336C134.648,250.688 158.72,240 184,240C209.288,240 233.352,250.688 250.04,269.336C251.616,271.104 253.808,272 256,272C257.896,272 259.808,271.328 261.336,269.96C264.632,267.016 264.904,261.96 261.96,258.664C242.248,236.64 213.832,224 184,224Z" style="fill-rule:nonzero;"/>
            </g>
            <g transform="matrix(0.271861,0,0,0.271861,572.007,521)">
                <path d="M184,0C82.544,0 0,82.544 0,184C0,285.456 82.544,368 184,368C285.456,368 368,285.456 368,184C368,82.544 285.456,0 184,0ZM184,352C91.36,352 16,276.64 16,184C16,91.36 91.36,16 184,16C276.64,16 352,91.36 352,184C352,276.64 276.64,352 184,352Z" style="fill-rule:nonzero;"/>
            </g>
            <g transform="matrix(1,0,0,1,4.48983,2.449)">
                <g transform="matrix(0.687802,0.725898,-0.725898,0.687802,676.987,-359.635)">
                    <path d="M603.989,683.98L621.574,683.506" style="fill:none;stroke:black;stroke-width:4.5px;"/>
                </g>
                <g transform="matrix(-0.725898,0.687802,-0.687802,-0.725898,1517.23,630.317)">
                    <path d="M603.989,683.98L621.574,683.506" style="fill:none;stroke:black;stroke-width:4.5px;"/>
                </g>
            </g>
            <g transform="matrix(1,0,0,1,34.6942,2.449)">
                <g transform="matrix(0.687802,0.725898,-0.725898,0.687802,676.987,-359.635)">
                    <path d="M603.989,683.98L621.574,683.506" style="fill:none;stroke:black;stroke-width:4.5px;"/>
                </g>
                <g transform="matrix(-0.725898,0.687802,-0.687802,-0.725898,1517.23,630.317)">
                    <path d="M603.989,683.98L621.574,683.506" style="fill:none;stroke:black;stroke-width:4.5px;"/>
                </g>
            </g>
        </g>
    </g>
</svg>
