<?xml version="1.0" encoding="UTF-8" standalone="no"?>
<!DOCTYPE svg PUBLIC "-//W3C//DTD SVG 1.1//EN" "http://www.w3.org/Graphics/SVG/1.1/DTD/svg11.dtd">
<svg width="100%" height="100%" viewBox="0 0 101 101" version="1.1" xmlns="http://www.w3.org/2000/svg" xmlns:xlink="http://www.w3.org/1999/xlink" xml:space="preserve" xmlns:serif="http://www.serif.com/" style="fill-rule:evenodd;clip-rule:evenodd;stroke-linejoin:round;stroke-miterlimit:2;">
    <g transform="matrix(1,0,0,1,-689,-521)">
        <g id="happy" transform="matrix(1,0,0,1,-0.651364,0)">
            <rect x="689.651" y="521" width="100.045" height="100.045" style="fill:none;"/>
            <g transform="matrix(1,0,0,1,501.229,0)">
                <circle cx="238.445" cy="571.023" r="50.023" style="fill:white;"/>
            </g>
            <g transform="matrix(0.271861,0,0,0.271861,689.651,521)">
                <path d="M248,112C234.768,112 224,122.768 224,136C224,149.232 234.768,160 248,160C261.232,160 272,149.232 272,136C272,122.768 261.232,112 248,112ZM248,144C243.584,144 240,140.408 240,136C240,131.592 243.584,128 248,128C252.416,128 256,131.592 256,136C256,140.408 252.416,144 248,144Z" style="fill-rule:nonzero;"/>
            </g>
            <g transform="matrix(0.271861,0,0,0.271861,689.651,521)">
                <path d="M120,160C133.232,160 144,149.232 144,136C144,122.768 133.232,112 120,112C106.768,112 96,122.768 96,136C96,149.232 106.768,160 120,160ZM120,128C124.416,128 128,131.592 128,136C128,140.408 124.416,144 120,144C115.584,144 112,140.408 112,136C112,131.592 115.584,128 120,128Z" style="fill-rule:nonzero;"/>
            </g>
            <g transform="matrix(0.271861,0,0,0.271861,689.651,521)">
                <path d="M184,0C82.536,0 0,82.544 0,184C0,285.456 82.536,368 184,368C285.464,368 368,285.456 368,184C368,82.544 285.464,0 184,0ZM184,352C91.368,352 16,276.64 16,184C16,91.36 91.368,16 184,16C276.632,16 352,91.36 352,184C352,276.64 276.632,352 184,352Z" style="fill-rule:nonzero;"/>
            </g>
            <g transform="matrix(0.271861,0,0,0.271861,689.651,521)">
                <path d="M264,208L104,208C99.576,208 96,211.584 96,216C96,264.52 135.48,304 184,304C232.52,304 272,264.52 272,216C272,211.584 268.424,208 264,208ZM184,288C147,288 116.44,259.952 112.448,224L255.552,224C251.56,259.952 221,288 184,288Z" style="fill-rule:nonzero;"/>
            </g>
        </g>
    </g>
</svg>
