<?xml version="1.0" encoding="UTF-8" standalone="no"?>
<!DOCTYPE svg PUBLIC "-//W3C//DTD SVG 1.1//EN" "http://www.w3.org/Graphics/SVG/1.1/DTD/svg11.dtd">
<svg width="100%" height="100%" viewBox="0 0 100 100" version="1.1" xmlns="http://www.w3.org/2000/svg" xmlns:xlink="http://www.w3.org/1999/xlink" xml:space="preserve" xmlns:serif="http://www.serif.com/" style="fill-rule:evenodd;clip-rule:evenodd;stroke-linejoin:round;stroke-miterlimit:2;">
    <g transform="matrix(1,0,0,1,-2194.97,-544.921)">
        <g id="galaxy_transport_1" transform="matrix(1,0,0,1,-1930.03,413.921)">
            <rect x="4125" y="131" width="100" height="100" style="fill:none;"/>
            <g transform="matrix(0.628966,0,0,0.404601,1548.81,100.941)">
                <g id="top">
                    <path d="M4200.33,166.783C4200.33,156.317 4194.86,147.819 4188.13,147.819L4162.68,147.819C4155.94,147.819 4150.48,156.317 4150.48,166.783L4150.48,204.712C4150.48,215.179 4155.94,223.676 4162.68,223.676L4188.13,223.676C4194.86,223.676 4200.33,215.179 4200.33,204.712L4200.33,166.783ZM4195.56,166.783L4195.56,204.712C4195.56,211.086 4192.23,216.262 4188.13,216.262L4162.68,216.262C4158.58,216.262 4155.25,211.086 4155.25,204.712C4155.25,204.712 4155.25,166.783 4155.25,166.783C4155.25,160.409 4158.58,155.234 4162.68,155.234C4162.68,155.234 4188.13,155.234 4188.13,155.234C4192.23,155.234 4195.56,160.409 4195.56,166.783Z" style="fill:rgb(42,42,42);"/>
                </g>
            </g>
        </g>
        <g id="Layer3">
        </g>
    </g>
</svg>
