<?xml version="1.0" encoding="UTF-8" standalone="no"?>
<!DOCTYPE svg PUBLIC "-//W3C//DTD SVG 1.1//EN" "http://www.w3.org/Graphics/SVG/1.1/DTD/svg11.dtd">
<svg width="100%" height="100%" viewBox="0 0 100 100" version="1.1" xmlns="http://www.w3.org/2000/svg" xmlns:xlink="http://www.w3.org/1999/xlink" xml:space="preserve" xmlns:serif="http://www.serif.com/" style="fill-rule:evenodd;clip-rule:evenodd;stroke-linejoin:round;stroke-miterlimit:2;">
    <g transform="matrix(1,0,0,1,-2456.58,-544.921)">
        <g id="galaxy_transport_3" transform="matrix(1,0,0,1,-1668.42,413.921)">
            <rect x="4125" y="131" width="100" height="100" style="fill:none;"/>
            <g transform="matrix(0.672966,0,0,0.709484,1365.11,46.4724)">
                <path d="M4205.08,159.64C4205.08,150.628 4197.36,143.312 4187.86,143.312C4187.86,143.312 4162.94,143.312 4162.94,143.312C4153.44,143.312 4145.73,150.628 4145.73,159.64L4145.73,211.856C4145.73,220.868 4153.44,228.184 4162.94,228.184L4187.86,228.184C4197.36,228.184 4205.08,220.868 4205.08,211.856C4205.08,211.856 4205.08,159.64 4205.08,159.64ZM4200.33,159.64C4200.33,153.116 4194.74,147.819 4187.86,147.819L4162.94,147.819C4156.06,147.819 4150.48,153.116 4150.48,159.64L4150.48,211.856C4150.48,218.38 4156.06,223.676 4162.94,223.676L4187.86,223.676C4194.74,223.676 4200.33,218.38 4200.33,211.856L4200.33,159.64Z" style="fill:rgb(42,42,42);"/>
            </g>
        </g>
        <g id="Layer3">
        </g>
    </g>
</svg>
