<?xml version="1.0" encoding="UTF-8" standalone="no"?>
<!DOCTYPE svg PUBLIC "-//W3C//DTD SVG 1.1//EN" "http://www.w3.org/Graphics/SVG/1.1/DTD/svg11.dtd">
<svg width="100%" height="100%" viewBox="0 0 85 101" version="1.1" xmlns="http://www.w3.org/2000/svg" xmlns:xlink="http://www.w3.org/1999/xlink" xml:space="preserve" xmlns:serif="http://www.serif.com/" style="fill-rule:evenodd;clip-rule:evenodd;stroke-linejoin:round;stroke-miterlimit:2;">
    <g transform="matrix(1,0,0,1,-1475.24,-478.649)">
        <g transform="matrix(1,0,0,1,1342.84,0)">
            <g transform="matrix(0,-1,-1,0,174.673,497.795)">
                <path d="M-39.172,-39.172C-60.806,-39.172 -78.344,-21.634 -78.344,0.001C-78.344,21.634 -60.806,39.172 -39.172,39.172C-17.537,39.172 0.001,21.634 0.001,0.001C0.001,-21.634 -17.537,-39.172 -39.172,-39.172" style="fill:rgb(41,171,226);fill-rule:nonzero;"/>
            </g>
        </g>
        <g transform="matrix(1,0,0,1,1342.84,0)">
            <g transform="matrix(1,0,0,1,174.673,579.242)">
                <path d="M0,-84.551C-23.311,-84.551 -42.275,-65.586 -42.275,-42.276C-42.275,-18.965 -23.311,0 0,0C23.311,0 42.276,-18.965 42.276,-42.276C42.276,-65.586 23.311,-84.551 0,-84.551M0,-81.447C21.634,-81.447 39.172,-63.909 39.172,-42.276C39.172,-20.642 21.634,-3.104 0,-3.104C-21.634,-3.104 -39.171,-20.642 -39.171,-42.276C-39.171,-63.909 -21.634,-81.447 0,-81.447" style="fill-rule:nonzero;"/>
            </g>
        </g>
        <g transform="matrix(1,0,0,1,1342.84,0)">
            <g transform="matrix(1,0,0,1,0.1063,17.9318)">
                <g opacity="0.3">
                    <g transform="matrix(1,0,0,1,162.232,537.496)">
                        <path d="M0,-49.078C0,-49.078 -14.039,-36.924 -14.039,-18.462C-14.039,0 -3.613,-2.336 -1.376,-3.853C2.478,-6.469 1.927,-11.186 0.688,-18.462C-0.55,-25.737 -0.688,-35.942 6.056,-48.182L0,-49.078Z" style="fill:white;fill-rule:nonzero;"/>
                    </g>
                </g>
            </g>
        </g>
        <g transform="matrix(1,0,0,1,1342.84,0)">
            <g transform="matrix(1,0,0,1,157.495,506.376)">
                <path d="M0,-10.334C0,-10.334 0.412,-6.916 -0.431,-4.574C-0.431,-4.574 1.583,0 17.178,-0.025C32.821,0 34.788,-4.574 34.788,-4.574C33.945,-6.916 34.356,-10.334 34.356,-10.334L0,-10.334Z" style="fill:rgb(41,171,226);fill-rule:nonzero;"/>
            </g>
        </g>
        <g transform="matrix(1,0,0,1,1342.84,0)">
            <g transform="matrix(1,0,0,1,191.851,509.455)">
                <path d="M0,-16.518L-37.856,-16.518L-37.438,-13.042C-37.317,-11.997 -37.282,-9.889 -37.708,-8.706L-38.129,-7.538L-37.628,-6.402C-36.967,-4.901 -33.545,0 -17.307,0L-17.048,0C-10.152,0 -4.81,-0.865 -1.17,-2.568C1.987,-4.046 2.997,-5.76 3.284,-6.428L3.767,-7.553L3.353,-8.706C2.926,-9.889 2.961,-11.997 3.083,-13.049L3.485,-16.511L0,-16.518ZM0,-13.414C0,-13.414 -0.411,-9.996 0.432,-7.654C0.432,-7.654 -1.523,-3.105 -17.048,-3.105L-17.307,-3.105C-32.783,-3.105 -34.788,-7.654 -34.788,-7.654C-33.945,-9.996 -34.356,-13.414 -34.356,-13.414L0,-13.414" style="fill-rule:nonzero;"/>
            </g>
        </g>
        <g transform="matrix(1,0,0,1,1342.84,0)">
            <g transform="matrix(1,0,0,1,174.673,481.314)">
                <path d="M0,17.382C20.092,17.382 20.279,13.278 20.279,7.353C20.279,0 3.326,0.445 0,0.445C-3.325,0.445 -20.279,0 -20.279,7.353C-20.279,13.324 -20.092,17.382 0,17.382" style="fill:rgb(41,171,226);fill-rule:nonzero;"/>
            </g>
        </g>
        <g transform="matrix(1,0,0,1,1342.84,0)">
            <g transform="matrix(1,0,0,1,176.186,501.799)">
                <path d="M0,-23.15C-0.37,-23.15 -0.7,-23.148 -0.983,-23.147L-1.513,-23.145L-2.042,-23.147C-2.326,-23.148 -2.656,-23.15 -3.026,-23.15C-7.925,-23.15 -11.864,-22.799 -15.068,-22.078C-23.191,-20.248 -24.896,-16.203 -24.896,-13.132C-24.896,-9.972 -24.896,-6.04 -20.947,-3.321C-17.563,-0.993 -11.751,0 -1.513,0C8.719,0 14.532,-0.999 17.925,-3.341C21.871,-6.066 21.871,-10.15 21.871,-13.132C21.871,-16.203 20.166,-20.248 12.042,-22.078C8.838,-22.799 4.899,-23.15 0,-23.15M0,-20.046C5.272,-20.046 18.766,-19.692 18.766,-13.132C18.766,-7.208 18.579,-3.103 -1.513,-3.103C-21.605,-3.103 -21.792,-7.161 -21.792,-13.132C-21.792,-19.693 -8.297,-20.046 -3.026,-20.046C-2.389,-20.046 -1.872,-20.041 -1.513,-20.041C-1.154,-20.041 -0.637,-20.046 0,-20.046" style="fill-rule:nonzero;"/>
            </g>
        </g>
        <g transform="matrix(1,0,0,1,1342.84,0)">
            <g transform="matrix(1,0,0,1,165.231,485.22)">
                <path d="M0,0C2.148,0.314 5.287,0.573 9.325,0.573C13.364,0.573 16.501,0.314 18.65,0C16.501,-0.315 13.364,-0.574 9.325,-0.574C5.287,-0.574 2.148,-0.315 0,0M21.953,0.813L21.959,0.813L21.953,0.813ZM9.325,3.678C-6.066,3.678 -6.066,0.909 -6.066,0C-6.066,-0.91 -6.066,-3.678 9.325,-3.678C24.717,-3.678 24.717,-0.91 24.717,0C24.717,0.909 24.717,3.678 9.325,3.678" style="fill-rule:nonzero;"/>
            </g>
        </g>
        <g transform="matrix(1,0,0,1,1342.84,0)">
            <g transform="matrix(1,0,0,1,0.1063,17.9318)">
                <g opacity="0.5">
                    <g transform="matrix(0,-1,-1,0,174.45,453.448)">
                        <path d="M-13.84,-13.839C-15.014,-13.839 -15.965,-7.643 -15.965,0C-15.965,7.644 -15.014,13.84 -13.84,13.84C-12.666,13.84 -11.714,7.644 -11.714,0C-11.714,-7.643 -12.666,-13.839 -13.84,-13.839" style="fill-rule:nonzero;"/>
                    </g>
                </g>
            </g>
        </g>
        <g transform="matrix(1,0,0,1,1342.84,0)">
            <g transform="matrix(1,0,0,1,160.964,484.484)">
                <path d="M0,7C-0.048,7 -0.097,6.998 -0.146,6.993C-2.999,6.728 -6.655,5.978 -7.865,3.911C-8.361,3.063 -8.404,2.076 -7.984,1.135C-7.636,0.352 -6.719,0 -5.935,0.348C-5.152,0.696 -4.8,1.613 -5.148,2.396L-5.148,2.397C-4.813,2.809 -3.046,3.606 0.142,3.902C0.996,3.982 1.623,4.738 1.544,5.592C1.469,6.396 0.792,7 0,7" style="fill-rule:nonzero;"/>
            </g>
        </g>
        <g transform="matrix(1,0,0,1,1342.84,0)">
            <g transform="matrix(1,0,0,1,188.394,484.513)">
                <path d="M0,6.971C-0.792,6.971 -1.469,6.367 -1.543,5.563C-1.623,4.709 -0.995,3.953 -0.142,3.873C3.04,3.577 4.806,2.784 5.147,2.371C4.837,1.599 5.181,0.688 5.946,0.347C6.731,0 7.637,0.323 7.985,1.106C8.404,2.047 8.362,3.034 7.865,3.882C6.655,5.949 3,6.699 0.146,6.964C0.097,6.969 0.048,6.971 0,6.971" style="fill-rule:nonzero;"/>
            </g>
        </g>
        <g transform="matrix(1,0,0,1,1342.84,0)">
            <g transform="matrix(1,0,0,1,0.1063,17.9318)">
                <g opacity="0.25">
                    <g transform="matrix(1,0,0,1,174.567,481.356)">
                        <path d="M0,3.635C-8.206,3.635 -13.793,1.436 -14.365,2.53C-15.087,3.908 -14.365,5.905 -14.365,5.905L-18.219,3.427L-18.219,-2.27C-18.219,-2.27 -12.852,0.431 0,0.431C12.852,0.431 18.22,-2.27 18.22,-2.27L18.22,3.427L14.366,5.905C14.366,5.905 15.054,3.84 14.366,2.53C13.792,1.437 8.207,3.635 0,3.635" style="fill-rule:nonzero;"/>
                    </g>
                </g>
            </g>
        </g>
        <g transform="matrix(1,0,0,1,1342.84,0)">
            <g transform="matrix(1,0,0,1,0.1063,17.9318)">
                <g opacity="0.25">
                    <g transform="matrix(1,0,0,1,174.45,484.158)">
                        <path d="M0,75.222C18.474,75.222 40.157,59.807 40.157,35.105C40.157,10.404 19.512,0 19.512,0L15.371,2.38C15.371,2.38 34.518,14.826 34.518,34.876C34.518,54.926 13.794,65.458 0,65.458C-13.795,65.458 -34.518,54.926 -34.518,34.876C-34.518,14.826 -15.372,2.38 -15.372,2.38L-19.513,0C-19.513,0 -40.158,10.404 -40.158,35.105C-40.158,59.807 -18.474,75.222 0,75.222" style="fill-rule:nonzero;"/>
                    </g>
                </g>
            </g>
        </g>
        <g transform="matrix(1,0,0,1,1342.84,0)">
            <g transform="matrix(0,-1,-1,0,174.673,497.795)">
                <path d="M-39.172,-39.172C-60.806,-39.172 -78.344,-21.634 -78.344,0.001C-78.344,21.634 -60.806,39.172 -39.172,39.172C-17.537,39.172 0.001,21.634 0.001,0.001C0.001,-21.634 -17.537,-39.172 -39.172,-39.172" style="fill:rgb(41,171,226);fill-rule:nonzero;"/>
            </g>
        </g>
        <g transform="matrix(1,0,0,1,1342.84,0)">
            <g transform="matrix(1,0,0,1,174.673,578)">
                <path d="M0,-82.068C-22.626,-82.068 -41.034,-63.66 -41.034,-41.034C-41.034,-18.408 -22.626,0 0,0C22.626,0 41.034,-18.408 41.034,-41.034C41.034,-63.66 22.626,-82.068 0,-82.068M0,-80.206C21.634,-80.206 39.172,-62.668 39.172,-41.034C39.172,-19.4 21.634,-1.862 0,-1.862C-21.634,-1.862 -39.171,-19.4 -39.171,-41.034C-39.171,-62.668 -21.634,-80.206 0,-80.206" style="fill-rule:nonzero;"/>
            </g>
        </g>
        <g transform="matrix(1,0,0,1,1342.84,0)">
            <g transform="matrix(1,0,0,1,0.1063,17.9318)">
                <g opacity="0.3">
                    <g transform="matrix(1,0,0,1,162.232,537.496)">
                        <path d="M0,-49.078C0,-49.078 -14.039,-36.924 -14.039,-18.462C-14.039,0 -3.613,-2.336 -1.376,-3.853C2.478,-6.469 1.927,-11.186 0.688,-18.462C-0.55,-25.737 -0.688,-35.942 6.056,-48.182L0,-49.078Z" style="fill:white;fill-rule:nonzero;"/>
                    </g>
                </g>
            </g>
        </g>
        <g transform="matrix(1,0,0,1,1342.84,0)">
            <g transform="matrix(1,0,0,1,157.495,506.376)">
                <path d="M0,-10.334C0,-10.334 0.412,-6.916 -0.431,-4.574C-0.431,-4.574 1.583,0 17.178,-0.025C32.821,0 34.788,-4.574 34.788,-4.574C33.945,-6.916 34.356,-10.334 34.356,-10.334L0,-10.334Z" style="fill:rgb(41,171,226);fill-rule:nonzero;"/>
            </g>
        </g>
        <g transform="matrix(1,0,0,1,1342.84,0)">
            <g transform="matrix(1,0,0,1,191.851,508.212)">
                <path d="M0,-14.033L-36.457,-14.033L-36.206,-11.948C-36.107,-11.117 -35.976,-8.609 -36.54,-7.042L-36.792,-6.342L-36.492,-5.66C-36.076,-4.715 -33.193,0 -17.307,0L-17.048,0C-1.104,0 1.735,-4.727 2.143,-5.676L2.433,-6.35L2.184,-7.042C1.62,-8.609 1.751,-11.117 1.85,-11.95L2.095,-14.031L0,-14.033ZM0,-12.171C0,-12.171 -0.411,-8.753 0.432,-6.411C0.432,-6.411 -1.523,-1.862 -17.048,-1.862L-17.307,-1.862C-32.783,-1.862 -34.788,-6.411 -34.788,-6.411C-33.945,-8.753 -34.356,-12.171 -34.356,-12.171L0,-12.171" style="fill-rule:nonzero;"/>
            </g>
        </g>
        <g transform="matrix(1,0,0,1,1342.84,0)">
            <g transform="matrix(1,0,0,1,174.673,481.314)">
                <path d="M0,17.382C20.092,17.382 20.279,13.278 20.279,7.353C20.279,0 3.326,0.445 0,0.445C-3.325,0.445 -20.279,0 -20.279,7.353C-20.279,13.324 -20.092,17.382 0,17.382" style="fill:rgb(41,171,226);fill-rule:nonzero;"/>
            </g>
        </g>
        <g transform="matrix(1,0,0,1,1342.84,0)">
            <g transform="matrix(1,0,0,1,176.183,500.558)">
                <path d="M0,-20.668C-0.367,-20.668 -0.694,-20.666 -0.975,-20.664L-1.51,-20.662L-2.046,-20.664C-2.327,-20.666 -2.655,-20.668 -3.023,-20.668C-16.711,-20.668 -23.652,-17.715 -23.652,-11.892C-23.652,-8.873 -23.652,-5.451 -20.24,-3.104C-17.122,-0.957 -11.345,0 -1.51,0C19.142,0 20.632,-4.492 20.632,-11.892C20.632,-17.715 13.691,-20.667 0.003,-20.668L0,-20.668ZM0.003,-18.805C5.276,-18.805 18.769,-18.451 18.769,-11.892C18.769,-5.967 18.582,-1.862 -1.51,-1.862C-21.602,-1.862 -21.789,-5.92 -21.789,-11.892C-21.789,-18.451 -8.295,-18.805 -3.023,-18.805C-2.386,-18.805 -1.869,-18.8 -1.51,-18.8C-1.151,-18.8 -0.635,-18.805 0.003,-18.805" style="fill-rule:nonzero;"/>
            </g>
        </g>
        <g transform="matrix(1,0,0,1,1342.84,0)">
            <g transform="matrix(1,0,0,1,187.807,485.092)">
                <path d="M0,0.253L0.006,0.253L0,0.253ZM-26.359,0.127C-25.378,0.782 -20.524,1.631 -13.251,1.631C-5.979,1.631 -1.125,0.782 -0.143,0.127C-1.125,-0.529 -5.979,-1.378 -13.251,-1.378C-20.524,-1.378 -25.378,-0.529 -26.359,0.127M-13.251,2.873C-15.666,2.873 -27.711,2.741 -27.711,0.127C-27.711,-2.487 -15.666,-2.62 -13.251,-2.62C-10.836,-2.62 1.209,-2.487 1.209,0.127C1.209,2.741 -10.836,2.873 -13.251,2.873" style="fill-rule:nonzero;"/>
            </g>
        </g>
        <g transform="matrix(1,0,0,1,1342.84,0)">
            <g transform="matrix(1,0,0,1,0.1063,17.9318)">
                <g opacity="0.5">
                    <g transform="matrix(0,-1,-1,0,174.45,453.448)">
                        <path d="M-13.84,-13.839C-15.014,-13.839 -15.965,-7.643 -15.965,0C-15.965,7.644 -15.014,13.84 -13.84,13.84C-12.666,13.84 -11.714,7.644 -11.714,0C-11.714,-7.643 -12.666,-13.839 -13.84,-13.839" style="fill-rule:nonzero;"/>
                    </g>
                </g>
            </g>
        </g>
        <g transform="matrix(1,0,0,1,1342.84,0)">
            <g transform="matrix(1,0,0,1,160.963,485.544)">
                <path d="M0,5.01C-0.019,5.01 -0.039,5.009 -0.058,5.007C-1.796,4.845 -5.957,4.266 -7.06,2.381C-7.406,1.791 -7.431,1.124 -7.132,0.454C-6.993,0.141 -6.626,0 -6.313,0.139C-6,0.279 -5.859,0.646 -5.998,0.958C-6.173,1.351 -6.085,1.59 -5.988,1.754C-5.45,2.674 -3.021,3.485 0.057,3.771C0.398,3.803 0.649,4.105 0.618,4.447C0.587,4.769 0.317,5.01 0,5.01" style="fill-rule:nonzero;"/>
            </g>
        </g>
        <g transform="matrix(1,0,0,1,1342.84,0)">
            <g transform="matrix(1,0,0,1,188.395,485.544)">
                <path d="M0,5.01C-0.317,5.01 -0.587,4.769 -0.618,4.447C-0.649,4.105 -0.398,3.803 -0.057,3.771C3.021,3.485 5.45,2.674 5.988,1.754C6.085,1.59 6.173,1.351 5.998,0.958C5.859,0.646 6,0.279 6.312,0.139C6.626,0 6.993,0.141 7.132,0.454C7.431,1.124 7.406,1.791 7.06,2.381C5.957,4.266 1.796,4.845 0.058,5.007C0.039,5.009 0.019,5.01 0,5.01" style="fill-rule:nonzero;"/>
            </g>
        </g>
        <g transform="matrix(1,0,0,1,1342.84,0)">
            <g transform="matrix(1,0,0,1,0.1063,17.9318)">
                <g opacity="0.25">
                    <g transform="matrix(1,0,0,1,174.567,481.356)">
                        <path d="M0,3.635C-8.206,3.635 -13.793,1.436 -14.365,2.53C-15.087,3.908 -14.365,5.905 -14.365,5.905L-18.219,3.427L-18.219,-2.27C-18.219,-2.27 -12.852,0.431 0,0.431C12.852,0.431 18.22,-2.27 18.22,-2.27L18.22,3.427L14.366,5.905C14.366,5.905 15.054,3.84 14.366,2.53C13.792,1.437 8.207,3.635 0,3.635" style="fill-rule:nonzero;"/>
                    </g>
                </g>
            </g>
        </g>
        <g transform="matrix(1,0,0,1,1342.84,0)">
            <g transform="matrix(1,0,0,1,0.1063,17.9318)">
                <g opacity="0.25">
                    <g transform="matrix(1,0,0,1,174.45,484.158)">
                        <path d="M0,75.222C18.474,75.222 40.157,59.807 40.157,35.105C40.157,10.404 19.512,0 19.512,0L15.371,2.38C15.371,2.38 34.518,14.826 34.518,34.876C34.518,54.926 16.41,67.321 0,67.321C-17.493,67.321 -34.518,54.926 -34.518,34.876C-34.518,14.826 -15.372,2.38 -15.372,2.38L-19.513,0C-19.513,0 -40.158,10.404 -40.158,35.105C-40.158,59.807 -18.474,75.222 0,75.222" style="fill-rule:nonzero;"/>
                    </g>
                </g>
            </g>
        </g>
        <g transform="matrix(1,0,0,1,1342.84,0)">
            <g transform="matrix(1,0,0,1,0.1063,17.9318)">
                <g opacity="0.25">
                    <g transform="matrix(1,0,0,1,174.45,480.404)">
                        <path d="M0,-17.78C-26.257,-17.78 -22.053,-8.696 -21.365,-5.117C-20.676,-1.539 -14.181,0 -14.181,0C-14.181,0 -16.543,-2.749 -16.194,-8.744C-16.194,-8.744 -10.979,-7.457 0,-7.457C10.979,-7.457 16.193,-8.744 16.193,-8.744C16.543,-2.749 14.181,0 14.181,0C14.181,0 20.676,-1.539 21.364,-5.117C22.052,-8.696 26.256,-17.78 0,-17.78" style="fill-rule:nonzero;"/>
                    </g>
                </g>
            </g>
        </g>
        <g transform="matrix(1,0,0,1,1342.84,0)">
            <g transform="matrix(1,0,0,1,0.1063,17.9318)">
                <g opacity="0.3">
                    <g transform="matrix(-0.823878,0.566768,0.566768,0.823878,170.449,478.5)">
                        <path d="M2.261,-8.902C2.261,-8.902 4.499,-6.732 6.207,-2.192L2.261,1.05C2.261,1.05 -0.23,-3.777 -1.946,-5.545C-1.946,-5.545 0.839,-7.662 2.261,-8.902" style="fill:white;fill-rule:nonzero;"/>
                    </g>
                </g>
            </g>
        </g>
        <g transform="matrix(1,0,0,1,1342.84,0)">
            <g transform="matrix(1,0,0,1,0.1063,17.9318)">
                <g opacity="0.1">
                    <g transform="matrix(-0.031187,0.999514,0.999514,0.031187,195.751,499.809)">
                        <path d="M21.361,-60.822C21.361,-60.822 45.787,-49.244 44.872,-19.911C43.956,9.422 21.361,19.532 21.361,19.532C21.361,19.532 59.027,18.366 60.206,-19.432C61.386,-57.232 21.361,-60.822 21.361,-60.822" style="fill-rule:nonzero;"/>
                    </g>
                </g>
            </g>
        </g>
    </g>
</svg>
