<?xml version="1.0" encoding="UTF-8" standalone="no"?>
<!DOCTYPE svg PUBLIC "-//W3C//DTD SVG 1.1//EN" "http://www.w3.org/Graphics/SVG/1.1/DTD/svg11.dtd">
<svg width="100%" height="100%" viewBox="0 0 100 100" version="1.1" xmlns="http://www.w3.org/2000/svg" xmlns:xlink="http://www.w3.org/1999/xlink" xml:space="preserve" xmlns:serif="http://www.serif.com/" style="fill-rule:evenodd;clip-rule:evenodd;stroke-linejoin:round;stroke-miterlimit:2;">
    <g transform="matrix(1,0,0,1,-134.868,-799.289)">
        <g id="ui_tab" transform="matrix(0.999404,0,0,0.999404,-3.19259,-2.08201)">
            <rect x="138.143" y="801.849" width="100.06" height="100.06" style="fill:none;"/>
            <g transform="matrix(1.06727,0,0,1.07138,-13.226,-63.0175)">
                <path d="M228.725,844.967C228.725,841.968 227.529,839.092 225.4,836.971C223.271,834.85 220.383,833.658 217.372,833.658C202.021,833.658 174.801,833.658 159.45,833.658C156.439,833.658 153.551,834.85 151.422,836.971C149.293,839.092 148.097,841.968 148.097,844.967C148.097,856.845 148.097,873.818 148.097,873.818L228.725,873.818L228.725,844.967Z" style="fill:rgb(195,195,195);"/>
            </g>
            <g transform="matrix(0.992809,0,0,0.996631,0.803235,2.29808)">
                <path d="M228.725,843.716C228.725,841.049 227.661,838.491 225.767,836.604C223.874,834.718 221.306,833.658 218.628,833.658C203.139,833.658 173.683,833.658 158.194,833.658C155.516,833.658 152.948,834.718 151.054,836.604C149.161,838.491 148.097,841.049 148.097,843.716C148.097,855.612 148.097,873.818 148.097,873.818L228.725,873.818L228.725,843.716Z" style="fill:white;"/>
            </g>
        </g>
    </g>
</svg>
