<?xml version="1.0" encoding="UTF-8" standalone="no"?>
<!DOCTYPE svg PUBLIC "-//W3C//DTD SVG 1.1//EN" "http://www.w3.org/Graphics/SVG/1.1/DTD/svg11.dtd">
<svg width="100%" height="100%" viewBox="0 0 35 47" version="1.1" xmlns="http://www.w3.org/2000/svg" xmlns:xlink="http://www.w3.org/1999/xlink" xml:space="preserve" xmlns:serif="http://www.serif.com/" style="fill-rule:evenodd;clip-rule:evenodd;stroke-linejoin:round;stroke-miterlimit:2;">
    <g transform="matrix(1,0,0,1,-77,-147)">
        <g id="Foreground---Rear-Upper-Leg" serif:id="Foreground - Rear Upper Leg">
            <g transform="matrix(1,0,0,1,81.7095,156.468)">
                <path d="M0,28.231C-1.802,25.296 -4.434,22.586 -4.434,10.171C-4.434,-2.244 4.624,-8.507 13.757,-8.507C22.89,-8.507 29.929,-3.685 29.929,12.222C29.929,28.128 23.171,32.562 21.033,33.856C18.895,35.15 13.884,36.738 9.145,35.325C4.866,34.049 1.802,31.165 0,28.231" style="fill:rgb(96,132,145);fill-rule:nonzero;"/>
            </g>
            <g opacity="0.3">
                <g transform="matrix(1,0,0,1,111.329,192.085)">
                    <path d="M0,-27.481C1.39,-11.57 -6.448,-3.055 -8.586,-1.76C-10.725,-0.466 -15.736,1.122 -20.475,-0.292C-24.754,-1.568 -27.818,-4.452 -29.62,-7.386C-31.421,-10.32 -33.73,-16.188 -33.73,-28.603C-33.73,-28.603 -28.982,-19.274 -17.399,-19.274C-5.815,-19.274 0,-27.481 0,-27.481" style="fill-rule:nonzero;"/>
                </g>
            </g>
            <g transform="matrix(1,0,0,1,110.816,193.363)">
                <path d="M0,-33.01C1.386,-26.365 1.684,-19.247 -0.522,-12.563C-1.637,-9.255 -3.356,-6.073 -5.959,-3.556C-6.29,-3.245 -6.626,-2.94 -7.002,-2.656C-7.374,-2.363 -7.813,-2.1 -8.21,-1.89C-9.027,-1.455 -9.871,-1.131 -10.729,-0.861C-12.445,-0.326 -14.234,-0.033 -16.048,-0.028C-19.71,0 -23.29,-1.465 -26.04,-3.761C-27.414,-4.927 -28.605,-6.292 -29.563,-7.806C-30.541,-9.377 -31.119,-11.014 -31.681,-12.657C-32.764,-15.952 -33.435,-19.366 -33.671,-22.808C-33.875,-26.242 -33.667,-29.739 -32.658,-33.01C-33.261,-29.65 -33.263,-26.235 -32.773,-22.899C-32.31,-19.561 -31.448,-16.287 -30.285,-13.15C-29.686,-11.599 -29.035,-10.023 -28.145,-8.735C-27.235,-7.399 -26.119,-6.205 -24.86,-5.208C-22.334,-3.223 -19.225,-1.988 -16.044,-2.016C-14.451,-2.001 -12.835,-2.246 -11.295,-2.708C-10.526,-2.94 -9.772,-3.227 -9.07,-3.564C-8.709,-3.741 -8.407,-3.906 -8.104,-4.134C-7.794,-4.356 -7.491,-4.616 -7.195,-4.881C-4.837,-7.068 -3.1,-9.979 -1.906,-13.059C0.459,-19.299 0.694,-26.252 0,-33.01" style="fill:rgb(35,48,51);fill-rule:nonzero;"/>
            </g>
            <g opacity="0.5">
                <g transform="matrix(-0.0190294,0.999819,0.999819,0.0190294,90.869,137.513)">
                    <path d="M19.655,-10.866C19.655,-10.866 10.601,-7.899 10.36,4.742C10.117,17.53 19.655,19.456 19.655,19.456C19.655,19.456 12.891,14.618 13.083,4.528C13.275,-5.549 19.655,-10.866 19.655,-10.866" style="fill:white;fill-rule:nonzero;"/>
                </g>
            </g>
        </g>
    </g>
</svg>
