<?xml version="1.0" encoding="UTF-8" standalone="no"?>
<!DOCTYPE svg PUBLIC "-//W3C//DTD SVG 1.1//EN" "http://www.w3.org/Graphics/SVG/1.1/DTD/svg11.dtd">
<svg width="100%" height="100%" viewBox="0 0 35 46" version="1.1" xmlns="http://www.w3.org/2000/svg" xmlns:xlink="http://www.w3.org/1999/xlink" xml:space="preserve" xmlns:serif="http://www.serif.com/" style="fill-rule:evenodd;clip-rule:evenodd;stroke-linejoin:round;stroke-miterlimit:2;">
    <g transform="matrix(1,0,0,1,-89,-147)">
        <g id="Background---Rear-Upper-Leg" serif:id="Background - Rear Upper Leg">
            <g transform="matrix(1,0,0,1,93.7095,156.468)">
                <path d="M0,28.231C-1.802,25.296 -4.434,22.586 -4.434,10.171C-4.434,-2.244 4.624,-8.507 13.757,-8.507C22.89,-8.507 29.929,-3.685 29.929,12.222C29.929,28.128 23.171,32.562 21.033,33.856C18.895,35.15 13.884,36.738 9.145,35.325C4.866,34.049 1.802,31.165 0,28.231" style="fill:rgb(96,132,145);fill-rule:nonzero;"/>
            </g>
            <g opacity="0.5">
                <g transform="matrix(1,0,0,1,93.7095,156.468)">
                    <path d="M0,28.231C-1.802,25.296 -4.434,22.586 -4.434,10.171C-4.434,-2.244 4.624,-8.507 13.757,-8.507C22.89,-8.507 29.929,-3.685 29.929,12.222C29.929,28.128 23.171,32.562 21.033,33.856C18.895,35.15 13.884,36.738 9.145,35.325C4.866,34.049 1.802,31.165 0,28.231" style="fill-rule:nonzero;"/>
                </g>
            </g>
        </g>
    </g>
</svg>
