<?xml version="1.0" encoding="UTF-8" standalone="no"?>
<!DOCTYPE svg PUBLIC "-//W3C//DTD SVG 1.1//EN" "http://www.w3.org/Graphics/SVG/1.1/DTD/svg11.dtd">
<svg width="100%" height="100%" viewBox="0 0 23 35" version="1.1" xmlns="http://www.w3.org/2000/svg" xmlns:xlink="http://www.w3.org/1999/xlink" xml:space="preserve" xmlns:serif="http://www.serif.com/" style="fill-rule:evenodd;clip-rule:evenodd;stroke-linejoin:round;stroke-miterlimit:2;">
    <g transform="matrix(1,0,0,1,-81,-175)">
        <g id="Foreground---Rear-Lower-Leg" serif:id="Foreground - Rear Lower Leg">
            <g transform="matrix(0.969313,0.245829,0.245829,-0.969313,80.1305,207.359)">
                <path d="M4.525,-1.5C4.525,-1.5 3.644,8.74 1.051,12.199C-1.542,15.659 -10.302,30.589 4.525,34.35C18.304,37.844 18.589,13.388 13.068,0.666L4.525,-1.5Z" style="fill:rgb(96,132,145);fill-rule:nonzero;"/>
            </g>
            <g opacity="0.4">
                <g transform="matrix(0.969313,0.245829,0.245829,-0.969313,80.1305,207.359)">
                    <path d="M4.525,-1.5C4.525,-1.5 3.644,8.74 1.051,12.199C-1.542,15.659 -10.302,30.589 4.525,34.35C18.304,37.844 18.589,13.388 13.068,0.666L4.525,-1.5Z" style="fill-rule:nonzero;"/>
                </g>
            </g>
            <g transform="matrix(0.620443,0.784252,0.784252,-0.620443,90.6244,203.497)">
                <path d="M5.387,-3.552C5.387,-3.552 1.749,4.066 3.08,5.748L5.387,8.664C6.097,9.561 13.283,6.429 13.283,6.429L5.387,-3.552Z" style="fill:rgb(204,204,204);fill-rule:nonzero;"/>
            </g>
            <g transform="matrix(0.620443,0.784252,0.784252,-0.620443,86.1825,203.497)">
                <path d="M5.387,-3.552C5.387,-3.552 1.749,4.066 3.08,5.748L5.387,8.664C6.097,9.561 13.283,6.429 13.283,6.429L5.387,-3.552Z" style="fill:white;fill-rule:nonzero;"/>
            </g>
            <g transform="matrix(1,0,0,1,88.4819,199.809)">
                <path d="M0,-24.03C-2.123,-23.125 -3.598,-21.426 -4.417,-19.521C-5.21,-17.582 -5.497,-15.445 -5.386,-13.321C-5.298,-11.184 -4.823,-9.033 -4.346,-6.833C-4.097,-5.734 -3.864,-4.614 -3.681,-3.473C-3.524,-2.334 -3.402,-1.141 -3.627,0C-4.081,-2.244 -5.102,-4.229 -5.845,-6.399C-6.635,-8.543 -7.246,-10.83 -7.383,-13.229C-7.415,-14.428 -7.339,-15.642 -7.098,-16.832C-6.808,-18.006 -6.439,-19.18 -5.799,-20.234C-4.578,-22.35 -2.34,-23.959 0,-24.03" style="fill:rgb(35,48,51);fill-rule:nonzero;"/>
            </g>
            <g transform="matrix(1,0,0,1,100.516,198.204)">
                <path d="M0,-18.398C0.75,-16.999 1.128,-15.416 1.325,-13.838C1.524,-12.253 1.493,-10.649 1.347,-9.065C1.184,-7.479 0.858,-5.918 0.413,-4.397C0.199,-3.634 -0.094,-2.895 -0.358,-2.152C-0.684,-1.429 -0.991,-0.702 -1.349,0C-1.204,-0.781 -0.991,-1.533 -0.826,-2.297L-0.345,-4.583C-0.062,-6.109 0.212,-7.631 0.353,-9.167C0.513,-10.698 0.585,-12.238 0.549,-13.779C0.486,-15.317 0.384,-16.869 0,-18.398" style="fill:rgb(35,48,51);fill-rule:nonzero;"/>
            </g>
        </g>
    </g>
</svg>
