<?xml version="1.0" encoding="UTF-8" standalone="no"?>
<!DOCTYPE svg PUBLIC "-//W3C//DTD SVG 1.1//EN" "http://www.w3.org/Graphics/SVG/1.1/DTD/svg11.dtd">
<svg width="100%" height="100%" viewBox="0 0 22 35" version="1.1" xmlns="http://www.w3.org/2000/svg" xmlns:xlink="http://www.w3.org/1999/xlink" xml:space="preserve" xmlns:serif="http://www.serif.com/" style="fill-rule:evenodd;clip-rule:evenodd;stroke-linejoin:round;stroke-miterlimit:2;">
    <g transform="matrix(1,0,0,1,-94,-175)">
        <g id="Background---Rear-Lower-Leg" serif:id="Background - Rear Lower Leg">
            <g transform="matrix(0.969313,0.245829,0.245829,-0.969313,92.1305,207.359)">
                <path d="M4.525,-1.5C4.525,-1.5 3.644,8.74 1.051,12.199C-1.542,15.659 -10.302,30.589 4.525,34.35C18.304,37.844 18.589,13.388 13.068,0.666L4.525,-1.5Z" style="fill:rgb(96,132,145);fill-rule:nonzero;"/>
            </g>
            <g opacity="0.5">
                <g transform="matrix(0.969313,0.245829,0.245829,-0.969313,92.1305,207.359)">
                    <path d="M4.525,-1.5C4.525,-1.5 3.644,8.74 1.051,12.199C-1.542,15.659 -10.302,30.589 4.525,34.35C18.304,37.844 18.589,13.388 13.068,0.666L4.525,-1.5Z" style="fill-rule:nonzero;"/>
                </g>
            </g>
            <g transform="matrix(0.620443,0.784252,0.784252,-0.620443,102.624,203.497)">
                <path d="M5.387,-3.552C5.387,-3.552 1.749,4.066 3.08,5.748L5.387,8.664C6.097,9.561 13.283,6.429 13.283,6.429L5.387,-3.552Z" style="fill:rgb(204,204,204);fill-rule:nonzero;"/>
            </g>
            <g opacity="0.3">
                <g transform="matrix(0.620443,0.784252,0.784252,-0.620443,102.624,203.497)">
                    <path d="M5.387,-3.552C5.387,-3.552 1.749,4.066 3.08,5.748L5.387,8.664C6.097,9.561 13.283,6.429 13.283,6.429L5.387,-3.552Z" style="fill-rule:nonzero;"/>
                </g>
            </g>
            <g transform="matrix(0.620443,0.784252,0.784252,-0.620443,98.1825,203.497)">
                <path d="M5.387,-3.552C5.387,-3.552 1.749,4.066 3.08,5.748L5.387,8.664C6.097,9.561 13.283,6.429 13.283,6.429L5.387,-3.552Z" style="fill:white;fill-rule:nonzero;"/>
            </g>
            <g opacity="0.3">
                <g transform="matrix(0.620443,0.784252,0.784252,-0.620443,98.1825,203.497)">
                    <path d="M5.387,-3.552C5.387,-3.552 1.749,4.066 3.08,5.748L5.387,8.664C6.097,9.561 13.283,6.429 13.283,6.429L5.387,-3.552Z" style="fill-rule:nonzero;"/>
                </g>
            </g>
        </g>
    </g>
</svg>
