<?xml version="1.0" encoding="UTF-8" standalone="no"?>
<!DOCTYPE svg PUBLIC "-//W3C//DTD SVG 1.1//EN" "http://www.w3.org/Graphics/SVG/1.1/DTD/svg11.dtd">
<svg width="100%" height="100%" viewBox="0 0 81 58" version="1.1" xmlns="http://www.w3.org/2000/svg" xmlns:xlink="http://www.w3.org/1999/xlink" xml:space="preserve" xmlns:serif="http://www.serif.com/" style="fill-rule:evenodd;clip-rule:evenodd;stroke-linejoin:round;stroke-miterlimit:2;">
    <g transform="matrix(1,0,0,1,-238,-58)">
        <g id="Carnivore-Head" serif:id="Carnivore Head">
            <g transform="matrix(1,0,0,1,297.781,100.192)">
                <path d="M0,-26.157C-8.05,-26.921 -12.695,-33.174 -20.367,-36.449C-28.039,-39.723 -36.74,-43.559 -47.5,-38.975C-58.259,-34.39 -59.943,-24.941 -59.756,-17.176C-59.568,-9.41 -53.113,0.601 -44.599,5.747C-36.085,10.893 -28.319,9.583 -18.028,12.858C-7.736,16.132 4.895,17.402 8.263,6.569C11.631,-4.264 8.05,-25.393 0,-26.157" style="fill:rgb(96,132,145);fill-rule:nonzero;"/>
            </g>
            <g transform="matrix(1,0,0,1,287.097,104.721)">
                <path d="M0,-30.733C0,-30.733 14.876,-35.785 23.577,-28.628C32.278,-21.47 30.722,-10.524 28.77,-5.472C26.749,-0.24 20.674,5.052 9.543,0.001C-5.613,-6.875 -10.525,-19.085 -26.244,-19.085C-41.961,-19.085 -43.225,-7.296 -36.628,-0.84" style="fill:rgb(96,132,145);fill-rule:nonzero;"/>
            </g>
            <g opacity="0.5">
                <g transform="matrix(1,0,0,1,238.598,58.123)">
                    <path d="M0,17.419C0,17.419 0.951,9.409 8.376,4.824C13.284,1.794 19.857,0 27.294,1.582C27.294,1.582 8.11,0.231 0,17.419" style="fill:white;fill-rule:nonzero;"/>
                </g>
            </g>
            <g transform="matrix(1,0,0,1,276.221,99.7404)">
                <path d="M0,-8.736L0.491,0L5.827,-4.368L0,-8.736Z" style="fill:white;fill-rule:nonzero;"/>
            </g>
            <g transform="matrix(1,0,0,1,282.431,103.46)">
                <path d="M0,-7.649L0.18,0L5.473,-3.509L0,-7.649Z" style="fill:white;fill-rule:nonzero;"/>
            </g>
            <g transform="matrix(1,0,0,1,288.327,107.845)">
                <path d="M0,-7.438L0.945,0L6.454,-3.719L0,-7.438Z" style="fill:white;fill-rule:nonzero;"/>
            </g>
            <g transform="matrix(1,0,0,1,295.128,110.652)">
                <path d="M0,-6.105L1.298,0L6,-4.07L0,-6.105Z" style="fill:white;fill-rule:nonzero;"/>
            </g>
            <g transform="matrix(1,0,0,1,259.872,63.078)">
                <path d="M0,2.63C0,2.63 4.775,-3.506 12.496,-3.879C19.367,-4.21 18.665,2.209 22.173,6.84" style="fill:rgb(96,132,145);fill-rule:nonzero;"/>
            </g>
            <g opacity="0.5">
                <g transform="matrix(-0.109594,0.993976,0.993976,0.109594,269.701,52.8216)">
                    <path d="M12.622,-7.435C12.622,-7.435 6.031,-2.391 5.933,5.074C5.933,5.074 5.786,8.664 12.622,11.964C12.622,11.964 8.299,8.675 8.576,3.92C8.879,-1.283 12.622,-7.435 12.622,-7.435" style="fill:white;fill-rule:nonzero;"/>
                </g>
            </g>
            <g opacity="0.5">
                <g transform="matrix(-0.36653,0.930406,0.930406,0.36653,311.507,66.2806)">
                    <path d="M15.328,-18.875C15.328,-18.875 9.277,-10.779 8.752,-3.077C8.226,4.625 12.941,9.418 15.328,11.412C15.328,11.412 9.823,3.575 10.527,-3.742C11.23,-11.058 15.328,-18.875 15.328,-18.875" style="fill:white;fill-rule:nonzero;"/>
                </g>
            </g>
            <g opacity="0.3">
                <g transform="matrix(0.649046,0.760749,0.760749,-0.649046,303.662,83.1251)">
                    <path d="M1.761,-0.812C-0.017,-0.812 -1.459,0.225 -1.458,1.502C-1.458,2.781 -0.017,3.817 1.761,3.816C3.538,3.817 4.98,2.78 4.98,1.502C4.979,0.224 3.539,-0.812 1.761,-0.812" style="fill-rule:nonzero;"/>
                </g>
            </g>
            <g transform="matrix(0.649007,0.760782,0.760782,-0.649007,303.966,82.6256)">
                <path d="M1.494,-0.689C-0.094,-0.689 -1.38,0.19 -1.379,1.274C-1.38,2.359 -0.093,3.238 1.494,3.238C3.082,3.238 4.368,2.359 4.368,1.274C4.368,0.19 3.082,-0.69 1.494,-0.689" style="fill:rgb(35,48,51);fill-rule:nonzero;"/>
            </g>
            <g opacity="0.3">
                <g transform="matrix(1,0,0,1,269.899,107.639)">
                    <path d="M0,-21.123C0,-21.123 7.85,-21.123 20.056,-11.475C24.252,-8.159 31.651,-5.314 37.406,-6.357C43.162,-7.399 46.638,-10.76 47.418,-15.03C47.418,-15.03 46.4,0 35.036,-0.878C23.671,-1.757 12.149,-12.267 12.149,-12.267L0,-21.123Z" style="fill-rule:nonzero;"/>
                </g>
            </g>
            <g transform="matrix(1,0,0,1,259.872,62.417)">
                <path d="M0,3.291C1.308,1.105 3.236,-0.726 5.485,-2.055C7.738,-3.393 10.347,-4.206 13.067,-4.21C14.428,-4.2 15.96,-3.883 17.158,-2.952C18.341,-2.018 19.063,-0.762 19.542,0.444C20.518,2.871 20.992,5.238 22.173,7.501C20.306,5.733 19.282,3.219 18.137,1.122C17.538,0.083 16.903,-0.867 16.045,-1.42C15.219,-2.003 14.17,-2.229 13.044,-2.211C12.496,-2.258 11.894,-2.158 11.313,-2.126C10.736,-2.029 10.151,-1.954 9.58,-1.806C8.417,-1.583 7.312,-1.131 6.202,-0.675C4.002,0.3 1.929,1.655 0,3.291" style="fill:rgb(35,48,51);fill-rule:nonzero;"/>
            </g>
            <g opacity="0.3">
                <g transform="matrix(1,0,0,1,268.907,93.0116)">
                    <path d="M0,14.588C6.485,15.773 12.508,17.864 18.997,18.964C25.486,20.065 28.896,18.791 29.88,17.641C30.865,16.49 28.606,15.49 24.702,13.75C20.797,12.009 9.149,2.461 6.37,0.087C3.59,-2.287 -5.031,-7.215 -5.031,-7.215L1.662,-5.517C6.972,-3.245 17.442,5.764 23.391,9.457C29.339,13.151 37.136,13.75 37.136,13.75C33.768,24.583 21.137,23.313 10.846,20.038C0.554,16.763 -7.211,18.073 -15.726,12.927C-24.239,7.782 -30.695,-2.229 -30.882,-9.995C-30.882,-9.995 -26.753,9.699 0,14.588" style="fill-rule:nonzero;"/>
                </g>
            </g>
            <g transform="matrix(1,0,0,1,287.097,105.854)">
                <path d="M0,-31.866C2.809,-32.848 5.748,-33.485 8.729,-33.771C11.708,-34.04 14.759,-33.965 17.721,-33.23C18.475,-33.099 19.174,-32.766 19.903,-32.533C20.627,-32.282 21.29,-31.876 21.988,-31.551C22.654,-31.166 23.273,-30.696 23.919,-30.267C24.5,-29.767 25.082,-29.265 25.641,-28.739C27.824,-26.561 29.417,-23.794 30.307,-20.83C31.141,-17.848 31.335,-14.708 30.925,-11.659C30.725,-10.134 30.406,-8.624 29.927,-7.149C29.458,-5.673 28.736,-4.192 27.767,-2.925C26.803,-1.644 25.576,-0.546 24.173,0.268C22.763,1.072 21.187,1.553 19.602,1.758C16.399,2.174 13.254,1.426 10.406,0.3C4.715,-1.994 -0.22,-5.641 -4.828,-9.406C-7.132,-11.29 -9.398,-13.182 -11.815,-14.805C-14.229,-16.425 -16.811,-17.755 -19.578,-18.548C-22.335,-19.345 -25.263,-19.649 -28.16,-19.47C-31.036,-19.315 -33.951,-18.696 -36.321,-17.108C-36.643,-16.944 -36.891,-16.692 -37.158,-16.46C-37.415,-16.219 -37.711,-16.011 -37.939,-15.742C-38.37,-15.185 -38.859,-14.658 -39.142,-14C-39.53,-13.395 -39.671,-12.687 -39.906,-12.01C-39.986,-11.3 -40.155,-10.59 -40.084,-9.864C-40.114,-9.136 -39.939,-8.426 -39.819,-7.706C-39.734,-7.352 -39.599,-7.011 -39.491,-6.661L-39.32,-6.139L-39.083,-5.643C-38.534,-4.268 -37.596,-3.098 -36.628,-1.973C-38.764,-4.002 -40.444,-6.759 -40.613,-9.84C-40.724,-10.602 -40.59,-11.365 -40.536,-12.134C-40.328,-12.873 -40.204,-13.651 -39.82,-14.333C-39.541,-15.068 -39.045,-15.674 -38.593,-16.312C-38.356,-16.62 -38.049,-16.865 -37.778,-17.145C-37.497,-17.415 -37.23,-17.706 -36.895,-17.904C-34.364,-19.749 -31.265,-20.501 -28.252,-20.777C-25.223,-21.075 -22.137,-20.819 -19.166,-20.053C-16.188,-19.293 -13.387,-17.928 -10.851,-16.268C-8.302,-14.614 -5.966,-12.721 -3.64,-10.88C0.968,-7.185 5.751,-3.697 11.143,-1.557C13.787,-0.492 16.625,0.169 19.358,-0.179C20.715,-0.349 22.035,-0.743 23.218,-1.408C24.393,-2.083 25.425,-3 26.27,-4.076C27.976,-6.215 28.751,-9.07 29.193,-11.895C29.61,-14.735 29.499,-17.646 28.809,-20.415C27.344,-25.883 23.105,-30.772 17.46,-32.291C14.681,-33.132 11.71,-33.364 8.766,-33.245C7.292,-33.167 5.817,-33.029 4.355,-32.785C2.891,-32.561 1.432,-32.268 0,-31.866" style="fill:rgb(35,48,51);fill-rule:nonzero;"/>
            </g>
            <g opacity="0.3">
                <g transform="matrix(-0.99903,0.0440353,0.0440353,0.99903,270.157,80.5852)">
                    <path d="M-0.958,-15.202C3.636,-15.404 6.757,-12.034 6.934,-8.031C7.11,-4.029 4.115,-0.188 -0.958,0.036C-6.03,0.259 -7.398,-3.59 -7.515,-6.241C-7.632,-8.893 -6.318,-14.966 -0.958,-15.202" style="fill-rule:nonzero;"/>
                </g>
            </g>
            <g transform="matrix(-0.99894,0.0460388,0.0460388,0.99894,270.175,78.8642)">
                <path d="M-0.901,-13.692C3.425,-13.892 6.363,-10.866 6.53,-7.261C6.696,-3.656 3.876,-0.185 -0.901,0.035C-5.678,0.255 -6.966,-3.207 -7.076,-5.595C-7.186,-7.984 -5.949,-13.46 -0.901,-13.692" style="fill:white;fill-rule:nonzero;"/>
            </g>
            <g transform="matrix(0,-1,-1,0,272.993,72.8947)">
                <path d="M-1.014,-1.016C-1.794,-1.016 -2.427,-0.561 -2.427,-0.001C-2.427,0.561 -1.794,1.014 -1.014,1.014C-0.235,1.014 0.397,0.561 0.397,-0.001C0.397,-0.561 -0.235,-1.016 -1.014,-1.016" style="fill-rule:nonzero;"/>
            </g>
            <g transform="matrix(1,0,0,1,238.025,111.098)">
                <path d="M0,-28.081C0.848,-24.234 2.367,-20.627 4.345,-17.351C6.351,-14.092 8.864,-11.173 11.848,-8.819C14.811,-6.438 18.194,-4.588 21.782,-3.198C25.373,-1.796 29.155,-0.83 33.025,-0.061C29.079,0 25.099,-0.549 21.27,-1.723C19.339,-2.265 17.495,-3.087 15.685,-3.97C13.89,-4.893 12.2,-6.02 10.599,-7.259C7.442,-9.799 4.811,-13.001 2.988,-16.593C1.17,-20.172 0.025,-24.119 0,-28.081" style="fill:rgb(35,48,51);fill-rule:nonzero;"/>
            </g>
        </g>
    </g>
</svg>
