<?xml version="1.0" encoding="UTF-8" standalone="no"?>
<!DOCTYPE svg PUBLIC "-//W3C//DTD SVG 1.1//EN" "http://www.w3.org/Graphics/SVG/1.1/DTD/svg11.dtd">
<svg width="100%" height="100%" viewBox="0 0 31 32" version="1.1" xmlns="http://www.w3.org/2000/svg" xmlns:xlink="http://www.w3.org/1999/xlink" xml:space="preserve" xmlns:serif="http://www.serif.com/" style="fill-rule:evenodd;clip-rule:evenodd;stroke-linejoin:round;stroke-miterlimit:2;">
    <g transform="matrix(1,0,0,1,-130,-162)">
        <g id="Background---Front-Upper-Leg" serif:id="Background - Front Upper Leg">
            <g transform="matrix(1,0,0,1,135.141,166.806)">
                <path d="M0,24.358C0,24.358 -4.24,19.37 -4.24,10.391C-4.24,1.413 3.627,-4.573 11.333,-4.573C19.038,-4.573 25.439,1.163 25.439,9.893C25.439,18.622 21.366,23.028 18.706,25.023C16.045,27.018 5.57,28.931 0,24.358" style="fill:rgb(96,132,145);fill-rule:nonzero;"/>
            </g>
            <g opacity="0.5">
                <g transform="matrix(1,0,0,1,135.141,166.806)">
                    <path d="M0,24.358C0,24.358 -4.24,19.37 -4.24,10.391C-4.24,1.413 3.627,-4.573 11.333,-4.573C19.038,-4.573 25.439,1.163 25.439,9.893C25.439,18.622 21.366,23.028 18.706,25.023C16.045,27.018 5.57,28.931 0,24.358" style="fill-rule:nonzero;"/>
                </g>
            </g>
        </g>
    </g>
</svg>
