<?xml version="1.0" encoding="UTF-8" standalone="no"?>
<!DOCTYPE svg PUBLIC "-//W3C//DTD SVG 1.1//EN" "http://www.w3.org/Graphics/SVG/1.1/DTD/svg11.dtd">
<svg width="100%" height="100%" viewBox="0 0 31 28" version="1.1" xmlns="http://www.w3.org/2000/svg" xmlns:xlink="http://www.w3.org/1999/xlink" xml:space="preserve" xmlns:serif="http://www.serif.com/" style="fill-rule:evenodd;clip-rule:evenodd;stroke-linejoin:round;stroke-miterlimit:2;">
    <g transform="matrix(1,0,0,1,-123,-182)">
        <g id="Foreground---Front-Lower-Leg" serif:id="Foreground - Front Lower Leg">
            <g transform="matrix(0.987082,0.160213,0.160213,-0.987082,128.163,208.717)">
                <path d="M2.299,-0.851C2.299,-0.851 -4.56,5.082 -6.182,12.483C-7.268,17.437 -6.153,25.796 2.299,27.168C10.751,28.539 18.085,22.795 20.599,2.119L2.299,-0.851Z" style="fill:rgb(96,132,145);fill-rule:nonzero;"/>
            </g>
            <g opacity="0.4">
                <g transform="matrix(0.987082,0.160213,0.160213,-0.987082,128.163,208.717)">
                    <path d="M2.299,-0.851C2.299,-0.851 -4.56,5.082 -6.182,12.483C-7.268,17.437 -6.153,25.796 2.299,27.168C10.751,28.539 18.085,22.795 20.599,2.119L2.299,-0.851Z" style="fill-rule:nonzero;"/>
                </g>
            </g>
            <g transform="matrix(0.620443,0.784252,0.784252,-0.620443,140.624,203.497)">
                <path d="M5.387,-3.552C5.387,-3.552 1.749,4.066 3.08,5.748L5.387,8.664C6.097,9.561 13.283,6.429 13.283,6.429L5.387,-3.552Z" style="fill:rgb(204,204,204);fill-rule:nonzero;"/>
            </g>
            <g transform="matrix(0.620443,0.784252,0.784252,-0.620443,136.183,203.497)">
                <path d="M5.387,-3.552C5.387,-3.552 1.749,4.066 3.08,5.748L5.387,8.664C6.097,9.561 13.283,6.429 13.283,6.429L5.387,-3.552Z" style="fill:white;fill-rule:nonzero;"/>
            </g>
            <g transform="matrix(1,0,0,1,129.647,203.1)">
                <path d="M0,-19.595C-1.305,-18.28 -2.31,-16.833 -3.062,-15.298C-3.813,-13.763 -4.25,-12.134 -4.473,-10.465L-4.582,-9.2C-4.622,-8.778 -4.574,-8.348 -4.588,-7.921C-4.656,-7.059 -4.453,-6.206 -4.431,-5.328C-4.32,-4.46 -4.152,-3.59 -4.04,-2.695C-3.85,-1.819 -3.654,-0.935 -3.533,0C-4.062,-0.759 -4.513,-1.571 -4.973,-2.389C-5.316,-3.249 -5.705,-4.112 -5.96,-5.019C-6.441,-6.839 -6.708,-8.773 -6.458,-10.708C-6.211,-12.633 -5.517,-14.524 -4.394,-16.1C-3.285,-17.673 -1.769,-18.971 0,-19.595" style="fill:rgb(35,48,51);fill-rule:nonzero;"/>
            </g>
            <g transform="matrix(1,0,0,1,141.733,198.204)">
                <path d="M0,-13.905C1.282,-13.458 2.346,-12.489 3.191,-11.431C4.053,-10.365 4.71,-9.152 5.219,-7.896C5.489,-7.271 5.676,-6.62 5.886,-5.977C6.059,-5.324 6.214,-4.668 6.345,-4.008C6.448,-3.343 6.544,-2.677 6.611,-2.011C6.631,-1.337 6.684,-0.671 6.673,0L5.586,-3.826C5.182,-5.075 4.807,-6.325 4.294,-7.517C3.825,-8.727 3.244,-9.885 2.56,-10.978C2.212,-11.521 1.841,-12.052 1.419,-12.546C1.015,-13.06 0.541,-13.51 0,-13.905" style="fill:rgb(35,48,51);fill-rule:nonzero;"/>
            </g>
        </g>
    </g>
</svg>
