<?xml version="1.0" encoding="UTF-8" standalone="no"?>
<!DOCTYPE svg PUBLIC "-//W3C//DTD SVG 1.1//EN" "http://www.w3.org/Graphics/SVG/1.1/DTD/svg11.dtd">
<svg width="100%" height="100%" viewBox="0 0 30 28" version="1.1" xmlns="http://www.w3.org/2000/svg" xmlns:xlink="http://www.w3.org/1999/xlink" xml:space="preserve" xmlns:serif="http://www.serif.com/" style="fill-rule:evenodd;clip-rule:evenodd;stroke-linejoin:round;stroke-miterlimit:2;">
    <g transform="matrix(1,0,0,1,-134,-182)">
        <g id="Backgronud---Front-Lower-Leg" serif:id="Backgronud - Front Lower Leg">
            <g transform="matrix(0.987082,0.160213,0.160213,-0.987082,138.163,208.717)">
                <path d="M2.299,-0.851C2.299,-0.851 -4.56,5.082 -6.182,12.483C-7.268,17.437 -6.153,25.796 2.299,27.168C10.751,28.539 18.085,22.795 20.599,2.119L2.299,-0.851Z" style="fill:rgb(96,132,145);fill-rule:nonzero;"/>
            </g>
            <g opacity="0.5">
                <g transform="matrix(0.987082,0.160213,0.160213,-0.987082,138.163,208.717)">
                    <path d="M2.299,-0.851C2.299,-0.851 -4.56,5.082 -6.182,12.483C-7.268,17.437 -6.153,25.796 2.299,27.168C10.751,28.539 18.085,22.795 20.599,2.119L2.299,-0.851Z" style="fill-rule:nonzero;"/>
                </g>
            </g>
            <g transform="matrix(0.620443,0.784252,0.784252,-0.620443,150.624,203.497)">
                <path d="M5.387,-3.552C5.387,-3.552 1.749,4.066 3.08,5.748L5.387,8.664C6.097,9.561 13.283,6.429 13.283,6.429L5.387,-3.552Z" style="fill:rgb(204,204,204);fill-rule:nonzero;"/>
            </g>
            <g opacity="0.3">
                <g transform="matrix(0.620443,0.784252,0.784252,-0.620443,150.624,203.497)">
                    <path d="M5.387,-3.552C5.387,-3.552 1.749,4.066 3.08,5.748L5.387,8.664C6.097,9.561 13.283,6.429 13.283,6.429L5.387,-3.552Z" style="fill-rule:nonzero;"/>
                </g>
            </g>
            <g transform="matrix(0.620443,0.784252,0.784252,-0.620443,146.183,203.497)">
                <path d="M5.387,-3.552C5.387,-3.552 1.749,4.066 3.08,5.748L5.387,8.664C6.097,9.561 13.283,6.429 13.283,6.429L5.387,-3.552Z" style="fill:white;fill-rule:nonzero;"/>
            </g>
            <g opacity="0.3">
                <g transform="matrix(0.620443,0.784252,0.784252,-0.620443,146.183,203.497)">
                    <path d="M5.387,-3.552C5.387,-3.552 1.749,4.066 3.08,5.748L5.387,8.664C6.097,9.561 13.283,6.429 13.283,6.429L5.387,-3.552Z" style="fill-rule:nonzero;"/>
                </g>
            </g>
        </g>
    </g>
</svg>
