<?xml version="1.0" encoding="UTF-8" standalone="no"?>
<!DOCTYPE svg PUBLIC "-//W3C//DTD SVG 1.1//EN" "http://www.w3.org/Graphics/SVG/1.1/DTD/svg11.dtd">
<svg width="100%" height="100%" viewBox="0 0 31 34" version="1.1" xmlns="http://www.w3.org/2000/svg" xmlns:xlink="http://www.w3.org/1999/xlink" xml:space="preserve" xmlns:serif="http://www.serif.com/" style="fill-rule:evenodd;clip-rule:evenodd;stroke-linejoin:round;stroke-miterlimit:2;">
    <g transform="matrix(1,0,0,1,-120,-161)">
        <g id="Foreground---Front-Upper-Leg" serif:id="Foreground - Front Upper Leg">
            <g transform="matrix(1,0,0,1,125.141,166.806)">
                <path d="M0,24.358C0,24.358 -4.24,19.37 -4.24,10.391C-4.24,1.413 3.627,-4.573 11.333,-4.573C19.038,-4.573 25.439,1.163 25.439,9.893C25.439,18.622 21.366,23.028 18.706,25.023C16.045,27.018 5.57,28.931 0,24.358" style="fill:rgb(96,132,145);fill-rule:nonzero;"/>
            </g>
            <g opacity="0.3">
                <g transform="matrix(1,0,0,1,150.581,195.737)">
                    <path d="M0,-19.038C0,-10.309 -4.074,-5.903 -6.734,-3.908C-9.394,-1.913 -19.869,0 -25.439,-4.573C-25.439,-4.573 -29.679,-9.561 -29.679,-18.539C-29.679,-18.539 -24.283,-13.781 -15.36,-13.781C-6.437,-13.781 0,-19.038 0,-19.038" style="fill-rule:nonzero;"/>
                </g>
            </g>
            <g transform="matrix(1,0,0,1,150.026,194.232)">
                <path d="M0,-21.796C0.87,-18.489 0.885,-14.904 0.023,-11.512C-0.389,-9.81 -1.023,-8.158 -1.847,-6.597C-2.674,-5.036 -3.654,-3.549 -4.983,-2.26C-5.314,-1.944 -5.695,-1.618 -6.133,-1.352C-6.554,-1.092 -6.976,-0.889 -7.399,-0.712C-8.245,-0.348 -9.107,-0.099 -9.975,0.106C-11.71,0.506 -13.474,0.732 -15.253,0.742C-17.029,0.746 -18.82,0.553 -20.568,0.083C-22.305,-0.408 -24.005,-1.205 -25.423,-2.413L-25.462,-2.446C-25.507,-2.484 -25.546,-2.53 -25.577,-2.578C-26.558,-4.119 -27.267,-5.679 -27.884,-7.322C-28.491,-8.956 -28.909,-10.657 -29.163,-12.376C-29.417,-14.096 -29.448,-15.844 -29.278,-17.561C-29.102,-19.279 -28.673,-20.96 -28.048,-22.542C-28.438,-20.885 -28.66,-19.203 -28.649,-17.527C-28.667,-15.852 -28.449,-14.191 -28.098,-12.569C-27.745,-10.945 -27.197,-9.374 -26.554,-7.851C-25.904,-6.345 -25.1,-4.842 -24.194,-3.558L-24.347,-3.723C-23.119,-2.765 -21.633,-2.142 -20.081,-1.77C-18.53,-1.377 -16.899,-1.22 -15.269,-1.248C-13.639,-1.272 -11.996,-1.43 -10.406,-1.782C-8.836,-2.169 -7.217,-2.568 -6.182,-3.555C-3.869,-5.718 -2.168,-8.721 -1.093,-11.837C-0.025,-14.987 0.336,-18.393 0,-21.796" style="fill:rgb(35,48,51);fill-rule:nonzero;"/>
            </g>
            <g opacity="0.5">
                <g transform="matrix(0,1,1,0,131.75,152.465)">
                    <path d="M17.833,-9.395C17.833,-9.395 9.395,-4.895 9.395,4.723C9.395,14.34 17.833,17.833 17.833,17.833C17.833,17.833 11.307,12.509 11.307,4.723C11.307,-3.063 17.833,-9.395 17.833,-9.395" style="fill:white;fill-rule:nonzero;"/>
                </g>
            </g>
        </g>
    </g>
</svg>
