<?xml version="1.0" encoding="UTF-8" standalone="no"?>
<!DOCTYPE svg PUBLIC "-//W3C//DTD SVG 1.1//EN" "http://www.w3.org/Graphics/SVG/1.1/DTD/svg11.dtd">
<svg width="100%" height="100%" viewBox="0 0 79 50" version="1.1" xmlns="http://www.w3.org/2000/svg" xmlns:xlink="http://www.w3.org/1999/xlink" xml:space="preserve" xmlns:serif="http://www.serif.com/" style="fill-rule:evenodd;clip-rule:evenodd;stroke-linejoin:round;stroke-miterlimit:2;">
    <g transform="matrix(1,0,0,1,-241,-155)">
        <g id="Herbivore-Head" serif:id="Herbivore Head">
            <g transform="matrix(1,0,0,1,313.829,161.155)">
                <path d="M0,38.219C0,38.219 0.932,43.467 -5.646,43.681C-12.714,43.91 -12.085,40.141 -25.933,37.944C-42.492,35.315 -41.28,40.973 -57.374,35.97C-70.364,31.931 -72.516,24.082 -71.965,14.627C-71.367,4.363 -62.663,-5.691 -49.566,-5.691C-36.469,-5.691 -30.023,-0.491 -25.576,5.324C-20.287,12.24 -16.881,15.071 -10.557,19.552C-5.06,23.446 7.803,30.827 4.245,37.57C3.373,39.222 0,38.219 0,38.219" style="fill:rgb(96,132,145);fill-rule:nonzero;"/>
            </g>
            <g opacity="0.5">
                <g transform="matrix(0.00469803,-0.999989,-0.999989,-0.00469803,272.152,139.287)">
                    <path d="M-27.117,-16.229C-21.323,-11.754 -16.152,-5.284 -16.214,7.813C-16.256,16.699 -20.917,23.541 -27.117,27.194C-27.117,27.194 -18.161,19.705 -17.828,7.405C-17.452,-6.487 -27.117,-16.229 -27.117,-16.229" style="fill:white;fill-rule:nonzero;"/>
                </g>
            </g>
            <g opacity="0.3">
                <g transform="matrix(1,0,0,1,256.248,187.845)">
                    <path d="M0,5.158C6.646,7.462 14.198,7.116 25.704,6.994C37.209,6.872 46.328,12.869 50,13.359C53.671,13.848 53.873,11.099 53.873,11.099L57.581,11.529C57.581,11.529 58.513,16.777 51.936,16.991C44.867,17.221 45.496,13.451 31.648,11.254C15.089,8.625 16.301,14.283 0.208,9.28C-12.783,5.241 -14.935,-2.608 -14.384,-12.063C-14.384,-12.063 -12.178,0.935 0,5.158" style="fill-rule:nonzero;"/>
                </g>
            </g>
            <g opacity="0.3">
                <g transform="matrix(0.648988,0.760798,0.760798,-0.648988,306.834,190.944)">
                    <path d="M1.861,-0.858C-0.018,-0.859 -1.541,0.236 -1.541,1.588C-1.541,2.939 -0.018,4.033 1.861,4.034C3.74,4.034 5.264,2.939 5.263,1.588C5.263,0.237 3.74,-0.858 1.861,-0.858" style="fill-rule:nonzero;"/>
                </g>
            </g>
            <g transform="matrix(0.649123,0.760683,0.760683,-0.649123,307.2,190.527)">
                <path d="M1.578,-0.728C-0.099,-0.728 -1.459,0.202 -1.459,1.348C-1.459,2.493 -0.099,3.423 1.578,3.422C3.256,3.423 4.615,2.492 4.615,1.348C4.615,0.201 3.255,-0.728 1.578,-0.728" style="fill:rgb(35,48,51);fill-rule:nonzero;"/>
            </g>
            <g transform="matrix(1,0,0,1,252.836,186.857)">
                <path d="M0,8.946C-1.383,7.609 -2.451,5.801 -2.572,3.763C-2.63,2.754 -2.426,1.72 -1.994,0.787C-1.565,-0.152 -0.893,-0.962 -0.126,-1.637C1.438,-2.975 3.365,-3.746 5.298,-4.233C7.244,-4.703 9.237,-4.89 11.213,-4.903C13.199,-4.932 15.15,-4.74 17.101,-4.532C19.05,-4.274 21.008,-3.966 22.922,-3.429C26.783,-2.415 30.33,-0.62 33.787,1.083C40.658,4.606 47.677,7.701 54.899,10.424L57.61,11.43C58.522,11.754 59.416,12.143 60.278,12.356C61.155,12.577 62.064,12.677 62.92,12.557C63.772,12.437 64.546,12.053 64.983,11.374C65.443,10.698 65.484,9.773 65.427,8.838C65.374,7.915 65.129,7.016 64.687,6.19C64.253,5.359 63.663,4.598 63.042,3.863C62.427,3.122 61.775,2.405 61.123,1.691C62.55,2.991 64.06,4.237 65.139,5.93C65.677,6.771 66.032,7.759 66.165,8.759C66.293,9.723 66.375,10.85 65.811,11.864C65.264,12.889 64.154,13.473 63.118,13.671C62.062,13.878 61.007,13.81 60,13.616C58.969,13.421 58.065,13.068 57.146,12.78L54.378,11.877C47.01,9.45 39.81,6.37 32.896,2.871C29.438,1.138 26.041,-0.602 22.41,-1.598C18.811,-2.658 14.964,-3.131 11.196,-3.328C9.307,-3.4 7.419,-3.281 5.583,-2.94C3.757,-2.59 1.957,-1.973 0.501,-0.866C-0.978,0.193 -2.007,1.883 -2.036,3.753C-2.06,5.614 -1.225,7.46 0,8.946" style="fill:rgb(35,48,51);fill-rule:nonzero;"/>
            </g>
            <g opacity="0.3">
                <g transform="matrix(-0.99903,0.0440274,0.0440274,0.99903,270.776,178.414)">
                    <path d="M-1.012,-16.066C3.842,-16.28 7.142,-12.716 7.328,-8.488C7.514,-4.258 4.349,-0.198 -1.012,0.038C-6.373,0.274 -7.818,-3.794 -7.942,-6.596C-8.065,-9.398 -6.676,-15.816 -1.012,-16.066" style="fill-rule:nonzero;"/>
                </g>
            </g>
            <g transform="matrix(-0.998943,0.0459736,0.0459736,0.998943,270.794,176.596)">
                <path d="M-0.952,-14.471C3.62,-14.682 6.726,-11.484 6.901,-7.674C7.076,-3.864 4.096,-0.195 -0.952,0.037C-6,0.27 -7.362,-3.39 -7.478,-5.914C-7.594,-8.438 -6.286,-14.226 -0.952,-14.471" style="fill:white;fill-rule:nonzero;"/>
            </g>
            <g transform="matrix(0,-1,-1,0,273.773,170.286)">
                <path d="M-1.073,-1.073C-1.897,-1.073 -2.565,-0.593 -2.565,0C-2.565,0.592 -1.897,1.073 -1.073,1.073C-0.249,1.073 0.419,0.592 0.419,0C0.419,-0.593 -0.249,-1.073 -1.073,-1.073" style="fill-rule:nonzero;"/>
            </g>
            <g transform="matrix(1,0,0,1,242.94,199.863)">
                <path d="M0,-29.5C-0.713,-25.202 -0.818,-20.806 0.166,-16.712C0.691,-14.687 1.417,-12.716 2.592,-11.031C3.77,-9.35 5.217,-7.932 6.962,-6.739C8.68,-5.55 10.54,-4.567 12.5,-3.796C14.466,-3.031 16.525,-2.506 18.619,-2.091C22.819,-1.279 27.167,-1.23 31.545,-1.174C27.25,-0.404 22.816,0 18.385,-0.548C16.171,-0.793 13.981,-1.31 11.843,-2.02C9.723,-2.789 7.7,-3.836 5.816,-5.101C3.979,-6.396 2.264,-8.063 1.009,-10.001C-0.221,-11.969 -0.978,-14.174 -1.357,-16.398C-2.114,-20.861 -1.514,-25.398 0,-29.5" style="fill:rgb(35,48,51);fill-rule:nonzero;"/>
            </g>
        </g>
    </g>
</svg>
