<?xml version="1.0" encoding="UTF-8" standalone="no"?>
<!DOCTYPE svg PUBLIC "-//W3C//DTD SVG 1.1//EN" "http://www.w3.org/Graphics/SVG/1.1/DTD/svg11.dtd">
<svg width="100%" height="100%" viewBox="0 0 143 192" version="1.1" xmlns="http://www.w3.org/2000/svg" xmlns:xlink="http://www.w3.org/1999/xlink" xml:space="preserve" xmlns:serif="http://www.serif.com/" style="fill-rule:evenodd;clip-rule:evenodd;stroke-linejoin:round;stroke-miterlimit:2;">
    <g transform="matrix(1,0,0,1,-28.283,-22.5359)">
        <g id="Large-Tall-Quad-Body" serif:id="Large Tall Quad Body">
            <g transform="matrix(1,0,0,1,28.2832,50.1369)">
                <path d="M0,135.386C0,135.386 9.81,124.745 22.28,124.745C34.75,124.745 41.069,132.061 43.396,137.049C45.724,142.037 52.042,162.987 88.622,162.987C125.202,162.987 135.616,149.207 140.105,132.248C144.594,115.288 138.757,100.133 136.311,90.46C130.311,66.739 110.596,14.64 128.299,11.585L124.478,-27.601C124.478,-27.601 87.311,-10.854 104.623,61.562C110.078,84.383 99.687,93.129 90.142,98.365C78.766,104.605 70.712,104.293 53.23,99.471C35.748,94.65 10.974,102.465 0,135.386" style="fill:rgb(96,132,145);fill-rule:nonzero;"/>
            </g>
            <g opacity="0.3">
                <g transform="matrix(1,0,0,1,156.582,193.916)">
                    <path d="M0,-132.194C-17.703,-129.139 2.012,-77.041 8.012,-53.319C10.458,-43.646 16.295,-28.491 11.806,-11.531C7.317,5.428 -3.097,19.208 -39.677,19.208C-76.256,19.208 -82.575,-1.742 -84.902,-6.731C-87.23,-11.718 -93.548,-19.034 -106.019,-19.034C-118.489,-19.034 -128.299,-8.393 -128.299,-8.393C-128.299,-8.393 -118.075,-25.169 -100.783,-25.169C-83.491,-25.169 -74.506,-6.557 -63.48,0.16C-49.5,8.676 -25.541,6.705 -13.48,1.348C0.962,-5.066 3.394,-16.858 3.64,-27.829C3.999,-43.791 -9.82,-91.402 -10.841,-106.045C-12.188,-125.375 -9.133,-127.591 -10.841,-131.138C-12.549,-134.686 -18.002,-139.962 -18.379,-151.402L0,-132.194Z" style="fill-rule:nonzero;"/>
                </g>
            </g>
            <g transform="matrix(1,0,0,1,50.5635,179.787)">
                <path d="M0,-4.905C1.975,-4.896 3.972,-4.845 5.925,-4.438C7.875,-4.048 9.797,-3.455 11.606,-2.59C15.213,-0.849 18.365,1.891 20.543,5.313C21.652,7.038 22.314,8.948 23.189,10.68C23.593,11.574 24.094,12.41 24.545,13.274C25.073,14.092 25.537,14.951 26.115,15.733C28.33,18.928 31.101,21.706 34.243,23.969C37.394,26.241 40.965,27.826 44.585,29.21C48.292,30.383 52.089,31.311 55.975,31.741C57.919,31.937 59.851,32.247 61.815,32.241L64.75,32.336L66.216,32.385C66.707,32.386 67.198,32.361 67.689,32.35C69.651,32.278 71.619,32.28 73.576,32.146C75.527,31.968 77.489,31.867 79.43,31.625C83.307,31.131 87.186,30.535 90.912,29.415C94.678,28.422 98.261,26.857 101.566,24.882C102.365,24.345 103.226,23.891 103.976,23.289L106.234,21.49L108.285,19.461C108.953,18.771 109.518,17.986 110.141,17.253C112.479,14.191 114.261,10.713 115.62,7.064C116.968,3.402 117.971,-0.397 118.475,-4.271C118.988,-8.146 119.022,-12.086 118.697,-15.999C118.396,-19.917 117.726,-23.81 116.86,-27.663C115.998,-31.517 114.918,-35.33 114.03,-39.19C116.304,-31.624 118.785,-24.044 119.673,-16.092C120.111,-12.129 120.16,-8.107 119.729,-4.122C119.304,-0.132 118.365,3.791 117.069,7.583C115.77,11.379 113.978,15.063 111.516,18.302C110.865,19.082 110.272,19.914 109.572,20.65L107.418,22.812L105.048,24.731C104.258,25.372 103.362,25.86 102.523,26.43C99.065,28.536 95.327,30.192 91.447,31.25C87.595,32.436 83.625,33.083 79.661,33.61C77.674,33.842 75.678,33.929 73.688,34.095C71.695,34.216 69.701,34.199 67.708,34.258C67.21,34.264 66.713,34.285 66.214,34.281L64.714,34.22L61.716,34.1C59.715,34.09 57.729,33.76 55.738,33.543C51.757,33.069 47.84,32.086 44.014,30.839C40.254,29.4 36.571,27.66 33.339,25.206C30.113,22.769 27.29,19.801 25.072,16.436C24.493,15.612 24.032,14.713 23.507,13.856C23.062,12.956 22.566,12.078 22.174,11.158C21.316,9.336 20.699,7.466 19.71,5.82C17.758,2.481 14.824,-0.288 11.369,-2.119C7.892,-3.931 3.952,-4.775 0,-4.905" style="fill:rgb(35,48,51);fill-rule:nonzero;"/>
            </g>
            <g transform="matrix(1,0,0,1,150.733,60.7339)">
                <path d="M0,27.727C-0.593,25.295 -1.036,22.825 -1.355,20.333C-1.672,17.842 -1.85,15.323 -1.784,12.786C-1.698,10.257 -1.413,7.674 -0.388,5.212C0.126,3.992 0.857,2.798 1.909,1.849C2.951,0.892 4.31,0.256 5.698,0L6,1.977C4.917,2.109 3.898,2.501 3.043,3.181C2.184,3.855 1.499,4.794 0.975,5.84C-0.081,7.947 -0.545,10.404 -0.786,12.848C-1.014,15.305 -1.007,17.8 -0.858,20.287C-0.706,22.775 -0.43,25.262 0,27.727" style="fill:rgb(35,48,51);fill-rule:nonzero;"/>
            </g>
            <g opacity="0.5">
                <g transform="matrix(1,0,0,1,130.377,161.15)">
                    <path d="M0,-104.832C-2.958,-91.615 -3.253,-73.639 2.529,-49.452C7.984,-26.631 -2.407,-17.884 -11.952,-12.648C-23.328,-6.408 -31.381,-6.72 -48.863,-11.542C-60.728,-14.814 -75.952,-12.267 -87.94,0C-87.94,0 -74.855,-9.64 -61.553,-9.64C-48.252,-9.64 -33.745,-1.271 -18.912,-4.374C-4.079,-7.478 8.739,-20.03 7.826,-35.403C6.784,-52.953 1.13,-60.685 -0.116,-78.975C-0.99,-91.786 0,-104.832 0,-104.832" style="fill:white;fill-rule:nonzero;"/>
                </g>
            </g>
        </g>
    </g>
</svg>
