<?xml version="1.0" encoding="UTF-8" standalone="no"?>
<!DOCTYPE svg PUBLIC "-//W3C//DTD SVG 1.1//EN" "http://www.w3.org/Graphics/SVG/1.1/DTD/svg11.dtd">
<svg width="100%" height="100%" viewBox="0 0 141 141" version="1.1" xmlns="http://www.w3.org/2000/svg" xmlns:xlink="http://www.w3.org/1999/xlink" xml:space="preserve" xmlns:serif="http://www.serif.com/" style="fill-rule:evenodd;clip-rule:evenodd;stroke-linejoin:round;stroke-miterlimit:2;">
    <g transform="matrix(1,0,0,1,-28,-57)">
        <g id="Large-Quaruped-Body" serif:id="Large Quaruped Body">
            <g transform="matrix(1,0,0,1,28.8706,84.9903)">
                <path d="M0,84.226C0,84.226 9.81,73.585 22.28,73.585C34.75,73.585 41.069,80.901 43.396,85.889C45.725,90.877 52.042,111.827 88.622,111.827C125.202,111.827 133.515,99.357 138.004,82.397C142.494,65.437 138.423,55.63 134.845,46.316C130.311,34.511 115.824,18.882 120.038,-5.228L96.443,-27.601C96.443,-27.601 88.983,-14.998 93.943,10.402C96.443,23.205 101.923,33.737 94.275,43.324C86.184,53.466 70.712,53.134 53.23,48.311C35.748,43.49 10.974,51.305 0,84.226" style="fill:rgb(96,132,145);fill-rule:nonzero;"/>
            </g>
            <g opacity="0.3">
                <g transform="matrix(1,0,0,1,148.908,189.999)">
                    <path d="M0,-110.236C-4.214,-86.127 10.273,-70.497 14.808,-58.692C18.386,-49.378 22.456,-39.571 17.967,-22.611C13.478,-5.652 5.164,6.819 -31.416,6.819C-67.995,6.819 -74.313,-14.132 -76.641,-19.12C-78.969,-24.108 -85.287,-31.423 -97.757,-31.423C-110.228,-31.423 -120.038,-20.782 -120.038,-20.782C-120.038,-20.782 -109.515,-39.206 -91.335,-38.007C-73.157,-36.808 -65.064,-11.966 -50.047,-7.73C-28.957,-1.78 -3.97,-5.827 4.713,-17.077C17.932,-34.203 6.757,-52.542 2.16,-64.628C-2.437,-76.713 -6.427,-84.259 -6.427,-93.483C-6.427,-95.723 -5.817,-97.219 -8.145,-98.605C-10.473,-99.991 -22.421,-103.982 -23.684,-117.055L0,-110.236Z" style="fill-rule:nonzero;"/>
                </g>
            </g>
            <g opacity="0.5">
                <g transform="matrix(1,0,0,1,122.814,148.782)">
                    <path d="M0,-53.39C2.5,-40.587 7.98,-30.055 0.333,-20.468C-7.759,-10.326 -23.23,-10.658 -40.712,-15.48C-53.753,-19.077 -70.852,-15.642 -83.253,0C-83.253,0 -74.268,-10.547 -60.301,-13.319C-54.417,-14.486 -49.992,-15.536 -39.502,-12.654C-32.461,-10.719 -20.156,-7.998 -8.203,-11.989C3.75,-15.979 7.107,-27.418 6.651,-32.162C5.542,-43.691 0,-53.39 0,-53.39" style="fill:white;fill-rule:nonzero;"/>
                </g>
            </g>
            <g transform="matrix(1,0,0,1,51.1509,197.675)">
                <path d="M0,-39.1C3.021,-39.214 6.088,-38.85 8.993,-37.883C10.462,-37.445 11.842,-36.758 13.198,-36.035C14.516,-35.245 15.787,-34.359 16.937,-33.323C19.212,-31.246 21.088,-28.64 22.27,-25.792C23.493,-23.045 24.86,-20.409 26.609,-18.02C27.439,-16.795 28.447,-15.708 29.417,-14.602C30.48,-13.581 31.483,-12.497 32.672,-11.617C34.918,-9.703 37.51,-8.246 40.143,-6.921C45.479,-4.36 51.361,-3.018 57.276,-2.395L59.497,-2.134C60.236,-2.04 60.988,-2.058 61.733,-2.015L66.213,-1.84L70.715,-1.92L72.966,-1.97L75.208,-2.119C81.188,-2.448 87.165,-3.245 92.854,-5.008C98.494,-6.812 103.857,-9.771 107.749,-14.294L109.16,-16.023C109.605,-16.619 109.988,-17.261 110.407,-17.88C110.607,-18.195 110.828,-18.498 111.013,-18.823L111.542,-19.814C111.88,-20.481 112.28,-21.121 112.57,-21.815L113.477,-23.881C113.779,-24.57 114.005,-25.29 114.277,-25.994C114.841,-27.395 115.244,-28.853 115.724,-30.288C115.019,-27.349 114.225,-24.415 113.055,-21.601C112.797,-20.885 112.424,-20.217 112.113,-19.52L111.624,-18.485C111.452,-18.144 111.243,-17.823 111.054,-17.491C110.658,-16.837 110.296,-16.159 109.869,-15.523L108.503,-13.667C104.659,-8.823 99.13,-5.513 93.342,-3.526C87.515,-1.523 81.404,-0.677 75.337,-0.23L73.057,-0.054L70.775,0.01L66.21,0.114L61.626,-0.04C60.863,-0.08 60.097,-0.059 59.336,-0.151L57.052,-0.409C50.979,-1.09 44.885,-2.479 39.322,-5.221C36.583,-6.648 33.892,-8.222 31.556,-10.271C30.327,-11.22 29.276,-12.368 28.188,-13.469C27.197,-14.656 26.174,-15.825 25.337,-17.127C23.582,-19.669 22.201,-22.458 21.071,-25.276C20.031,-28.062 18.369,-30.522 16.268,-32.614C15.219,-33.658 14.043,-34.566 12.808,-35.392C11.536,-36.153 10.229,-36.889 8.816,-37.386C6.024,-38.454 3.022,-39 0,-39.1" style="fill:rgb(35,48,51);fill-rule:nonzero;"/>
            </g>
            <g transform="matrix(1,0,0,1,157.942,89.0517)">
                <path d="M0,30.876C-1.484,28.584 -2.814,26.189 -4.052,23.747C-5.283,21.301 -6.396,18.792 -7.382,16.225C-8.352,13.65 -9.155,11.007 -9.789,8.308C-10.378,5.597 -10.732,2.821 -10.788,0L-8.788,0.054C-8.895,2.694 -8.726,5.368 -8.315,8.025C-7.861,10.674 -7.236,13.308 -6.437,15.899C-5.62,18.483 -4.672,21.034 -3.599,23.536C-2.519,26.034 -1.341,28.498 0,30.876" style="fill:rgb(35,48,51);fill-rule:nonzero;"/>
            </g>
        </g>
    </g>
</svg>
