<?xml version="1.0" encoding="UTF-8" standalone="no"?>
<!DOCTYPE svg PUBLIC "-//W3C//DTD SVG 1.1//EN" "http://www.w3.org/Graphics/SVG/1.1/DTD/svg11.dtd">
<svg width="100%" height="100%" viewBox="0 0 29 29" version="1.1" xmlns="http://www.w3.org/2000/svg" xmlns:xlink="http://www.w3.org/1999/xlink" xml:space="preserve" xmlns:serif="http://www.serif.com/" style="fill-rule:evenodd;clip-rule:evenodd;stroke-linejoin:round;stroke-miterlimit:2;">
    <g transform="matrix(1,0,0,1,-241.428,-381.354)">
        <g transform="matrix(1,0,0,1,-13.7558,-9.81923)">
            <g opacity="0.3">
                <g opacity="0.4">
                    <g transform="matrix(0,-1,-1,0,269.355,391.173)">
                        <path d="M-14.171,-14.172C-21.998,-14.172 -28.343,-7.827 -28.343,-0.001C-28.343,7.826 -21.998,14.171 -14.171,14.171C-6.345,14.171 0,7.826 0,-0.001C0,-7.827 -6.345,-14.172 -14.171,-14.172" style="fill:rgb(10,72,116);fill-rule:nonzero;"/>
                    </g>
                </g>
                <g transform="matrix(0,-1,-1,0,269.356,396.508)">
                    <path d="M-8.836,-8.836C-13.716,-8.836 -17.672,-4.88 -17.672,0C-17.672,4.88 -13.716,8.836 -8.836,8.836C-3.956,8.836 0,4.88 0,0C0,-4.88 -3.956,-8.836 -8.836,-8.836" style="fill:rgb(251,176,59);fill-rule:nonzero;"/>
                </g>
                <g transform="matrix(1,0,0,1,269.356,417.132)">
                    <path d="M0,-23.576C-6.5,-23.576 -11.788,-18.288 -11.788,-11.788C-11.788,-5.288 -6.5,0 0,0C6.5,0 11.788,-5.288 11.788,-11.788C11.788,-18.288 6.5,-23.576 0,-23.576M0,-20.624C4.88,-20.624 8.836,-16.668 8.836,-11.788C8.836,-6.908 4.88,-2.952 0,-2.952C-4.88,-2.952 -8.835,-6.908 -8.835,-11.788C-8.835,-16.668 -4.88,-20.624 0,-20.624" style="fill:rgb(10,72,116);fill-rule:nonzero;"/>
                </g>
                <g transform="matrix(0,-1,-1,0,269.356,396.508)">
                    <path d="M-8.836,-8.836C-13.716,-8.836 -17.672,-4.88 -17.672,0C-17.672,4.88 -13.716,8.836 -8.836,8.836C-3.956,8.836 0,4.88 0,0C0,-4.88 -3.956,-8.836 -8.836,-8.836" style="fill:rgb(251,176,59);fill-rule:nonzero;"/>
                </g>
                <g transform="matrix(1,0,0,1,269.356,415.655)">
                    <path d="M0,-20.623C-5.686,-20.623 -10.312,-15.997 -10.312,-10.311C-10.312,-4.625 -5.686,0 0,0C5.686,0 10.312,-4.625 10.312,-10.311C10.312,-15.997 5.686,-20.623 0,-20.623M0,-19.147C4.88,-19.147 8.836,-15.191 8.836,-10.311C8.836,-5.432 4.88,-1.476 0,-1.476C-4.88,-1.476 -8.835,-5.432 -8.835,-10.311C-8.835,-15.191 -4.88,-19.147 0,-19.147" style="fill:rgb(247,147,30);fill-rule:nonzero;"/>
                </g>
                <g opacity="0.25">
                    <g transform="matrix(0,-1,-1,0,269.355,400.846)">
                        <path d="M-4.498,-4.499C-6.982,-4.499 -8.997,-2.485 -8.997,0C-8.997,2.484 -6.982,4.498 -4.498,4.498C-2.014,4.498 0,2.484 0,0C0,-2.485 -2.014,-4.499 -4.498,-4.499" style="fill:white;fill-rule:nonzero;"/>
                    </g>
                </g>
                <g opacity="0.5">
                    <g transform="matrix(1,0,0,1,277.35,396.611)">
                        <path d="M0,9.471C-0.408,9.471 -0.738,9.141 -0.738,8.733C-0.738,4.732 -3.993,1.477 -7.994,1.477C-11.995,1.477 -15.25,4.732 -15.25,8.733C-15.25,9.141 -15.581,9.471 -15.988,9.471C-16.396,9.471 -16.727,9.141 -16.727,8.733C-16.727,3.918 -12.809,0 -7.994,0C-3.179,0 0.738,3.918 0.738,8.733C0.738,9.141 0.408,9.471 0,9.471" style="fill:white;fill-rule:nonzero;"/>
                    </g>
                </g>
                <g opacity="0.25">
                    <g transform="matrix(1,0,0,1,269.356,410.29)">
                        <path d="M0,3.89C-2.332,3.89 -4.525,2.982 -6.175,1.332C-6.463,1.043 -6.463,0.577 -6.175,0.288C-5.886,0 -5.419,0 -5.131,0.288C-3.76,1.66 -1.938,2.414 0,2.414C1.938,2.414 3.76,1.66 5.131,0.288C5.419,0 5.886,0 6.175,0.288C6.463,0.577 6.463,1.043 6.175,1.332C4.525,2.982 2.332,3.89 0,3.89" style="fill-rule:nonzero;"/>
                    </g>
                </g>
            </g>
        </g>
    </g>
</svg>
